<?xml version="1.0" standalone="no"?>
<!DOCTYPE svg PUBLIC "-//W3C//DTD SVG 1.1//EN" "http://www.w3.org/Graphics/SVG/1.1/DTD/svg11.dtd">
<svg xmlns="http://www.w3.org/2000/svg">
<defs >
<font id="JosefinSlab" horiz-adv-x="505" ><font-face
    font-family="Josefin Slab Thin"
    units-per-em="1000"
    panose-1="2 0 0 0 0 0 0 0 0 0"
    ascent="931"
    descent="-250"
    alphabetic="0" />
<glyph unicode=" " glyph-name="space" horiz-adv-x="300" />
<glyph unicode="!" glyph-name="exclam" horiz-adv-x="201" d="M49 36Q42 36 37 42T33 56Q34 65 41 70T55 76Q63 76 68 71T72 56Q71 48 64 42T49 36ZM143 750H157L75 166H61L143 750Z" />
<glyph unicode="&quot;" glyph-name="quotedbl" horiz-adv-x="293" d="M178 472L213 720H231Q221 657 212 596T192 472H178ZM45 472L80 720H98Q88 657 79 596T59 472H45Z" />
<glyph unicode="#" glyph-name="numbersign" horiz-adv-x="571" d="M194 407Q183 365 172 323T150 239H320Q331 281 342 323T364 407H194ZM258 0Q273 57 287 112T316 225H146Q131 168 117 113T88 0H74Q89 57 103 112T132 225H15Q16 229 16 232T18 239H136Q147
281 158 323T180 407H64Q64 411 65 414T66 421H183Q198 477 212 532T242 643H256Q241 587 227 532T197 421H367Q382 477 396 532T426 643H440Q425 587 411 532T381 421H517Q517 417 516 414T515 407H378Q367 365 356 323T334 239H469Q468 235 468 232T466 225H330Q315
168 301 113T272 0H258Z" />
<glyph unicode="$" glyph-name="dollar" horiz-adv-x="567" d="M399 546L414 653Q397 667 367 677T293 690L249 380Q284 369 318 357T379 325T419 271T427 186Q422 142 401 107T349 47T277 7T194 -8L186 -68H173L181 -8Q143 -7 114 1T63 20T27 43T6 64L20 164H34L21
74Q45 45 84 26T183 6L234 367Q204 376 177 386T129 413T97 454T89 517Q92 550 105 582T143 642T202 686T282 704L290 764H303L295 704Q311 704 329 702T365 694T399 681T429 660L413 546H399ZM412 182Q419 230 407 261T370 311T314 342T247 363L196 6Q233 7 269
20T336 56T386 111T412 182ZM105 530Q100 494 109 470T137 430T181 403T236 383L280 690Q242 689 212 676T159 640T123 589T105 530Z" />
<glyph unicode="%" glyph-name="percent" horiz-adv-x="726" d="M406 112Q401 73 425 46T489 18Q509 18 527 25T561 45T585 75T598 112Q603 151 579 179T515 207Q495 207 477 200T443 179T419 149T406 112ZM487 4Q464 4 446 12T414 35T395 70T392 113Q395 135
406 155T435 189T473 212T517 221Q539 221 558 213T590 190T609 155T612 113Q609 90 598 70T569 36T530 13T487 4ZM141 388Q136 349 160 322T224 294Q244 294 262 301T296 321T320 351T333 388Q338 427 314 455T250 483Q230 483 212 476T178 455T154 425T141 388ZM222
280Q199 280 181 288T149 311T130 346T127 389Q130 411 141 431T170 465T208 488T252 497Q274 497 293 489T325 466T344 431T347 389Q344 366 332 346T303 312T265 289T222 280ZM172 0Q265 126 356 250T541 500H557Q464 374 373 250T188 0H172Z" />
<glyph unicode="&amp;" glyph-name="ampersand" horiz-adv-x="700" d="M480 375H600L598 361H492L480 274Q477 249 474 225T466 176T450 129T424 84L470 -11L458 -19L414 72Q382 36 339 15T246 -7Q209 -7 178 5T125 40T90 92T77 158Q77 199 92 236T133 303T195
352T269 379L213 496Q204 514 200 533T196 572Q196 600 208 631T243 688T299 731T377 748Q414 748 445 735T500 706L492 693Q465 710 435 723T373 736Q334 736 303 720T251 679T219 626T208 574Q208 538 225 504L417 98Q446 138 454 187L480 375ZM93 187Q92 181
92 175T91 163Q91 130 102 102T135 52T184 19T248 7Q296 7 337 28T408 85L275 366Q240 362 210 347T155 307T114 252T93 187Z" />
<glyph unicode="&apos;" glyph-name="quotesingle" horiz-adv-x="147" d="M49 472L84 720H102Q92 657 83 596T63 472H49Z" />
<glyph unicode="(" glyph-name="parenleft" horiz-adv-x="394" d="M147 292Q157 367 180 435T235 561T303 666T375 747V724Q342 691 308 646T245 546T193 427T161 292Q151 221 155 157T173 38T208 -62T254 -140Q252 -146 251 -151T248 -163Q221 -130 198 -83T160
23T141 149T147 292Z" />
<glyph unicode=")" glyph-name="parenright" horiz-adv-x="400" d="M279 292Q268 217 245 149T190 23T122 -82T50 -163V-140Q83 -107 117 -62T180 38T232 157T265 292Q275 363 271 427T252 546T217 646T171 724Q173 730 174 735T177 747Q204 714 227 667T265 561T284
435T279 292Z" />
<glyph unicode="*" glyph-name="asterisk" horiz-adv-x="335" d="M181 575Q207 559 232 543T284 511Q282 507 279 504T273 496L171 562Q166 530 161 498T151 434H137L155 561Q125 545 96 530T36 498L30 513Q59 529 89 544T149 576Q123 593 99 609T48 642Q50 645
52 648T56 654Q82 637 107 622T159 589L178 720H196Q190 687 185 655T175 589Q206 605 236 621T298 653Q302 645 303 641Q272 624 242 608T181 575Z" />
<glyph unicode="+" glyph-name="plus" horiz-adv-x="543" d="M233 51L258 225H85L87 239H260L284 411H298L274 239H447L445 225H272L247 51H233Z" />
<glyph unicode="," glyph-name="comma" horiz-adv-x="200" d="M141 86Q112 34 84 -17T26 -120H12Q39 -68 65 -17T118 86H141Z" />
<glyph unicode="-" glyph-name="hyphen" horiz-adv-x="300" d="M52 184L53 198H237L236 184H52Z" />
<glyph unicode="." glyph-name="period" horiz-adv-x="163" d="M66 20Q67 28 73 34T88 40Q96 40 101 34T106 20Q104 12 98 6T83 0Q75 0 70 6T66 20Z" />
<glyph unicode="/" glyph-name="slash" horiz-adv-x="322" d="M-36 -19Q61 171 156 358T348 736H362Q265 546 170 359T-22 -19H-36Z" />
<glyph unicode="0" glyph-name="zero" horiz-adv-x="616" d="M36 327Q43 375 65 432T127 540T222 624T354 658Q428 658 474 624T544 539T573 430T572 324Q562 255 532 195T458 89T362 19T254 -7Q199 -7 155 19T80 91T38 196T36 327ZM51 328Q40 255 53 196T95 95T167
30T258 7Q306 7 355 29T445 92T517 192T558 323Q569 396 558 455T519 556T448 621T351 644Q297 644 248 623T158 560T90 460T51 328Z" />
<glyph unicode="1" glyph-name="one" horiz-adv-x="249" d="M23 14H103L190 636H77L79 650H206L117 14H197L195 0H21L23 14Z" />
<glyph unicode="2" glyph-name="two" horiz-adv-x="495" d="M44 14H390L406 127H420L402 0H6Q79 62 148 122T272 240T363 351T406 452Q414 508 404 545T372 604T324 635T272 644Q222 644 188 627T132 583T99 526T83 469Q73 399 107 355L97 347Q80 371 72 399T69
469Q75 509 91 543T134 603T195 643T274 658Q313 658 343 644T392 603T419 542T421 464Q413 406 376 349T284 235T167 124T44 14Z" />
<glyph unicode="3" glyph-name="three" horiz-adv-x="515" d="M183 361L434 636H161L151 568H137L149 650H468L233 398Q279 400 317 386T382 344T421 279T428 195Q422 153 401 116T348 52T277 8T195 -8Q150 -8 115 10T56 58L67 71Q87 42 119 24T194 6Q233 6 270
21T338 62T388 122T414 195Q420 234 409 268T376 328T320 369T247 384Q231 384 215 378T183 361Z" />
<glyph unicode="4" glyph-name="four" d="M267 14H344L368 183H16L449 658L384 197H481L479 183H382L358 14H441L439 0H265L267 14ZM429 617L48 197H370L429 617Z" />
<glyph unicode="5" glyph-name="five" horiz-adv-x="543" d="M476 650L464 568H450L460 636H201L164 372Q188 383 213 389T265 395Q307 395 342 380T401 337T437 274T442 195Q436 153 415 116T361 52T290 8T208 -8Q167 -8 134 7T76 48L89 58Q109 33 139 20T208
6Q248 6 285 21T352 62T402 122T428 195Q433 234 423 267T390 326T334 366T261 381Q226 381 196 370T145 341L189 650H476Z" />
<glyph unicode="6" glyph-name="six" horiz-adv-x="520" d="M46 193Q40 154 50 120T82 61T137 21T209 6Q248 6 285 20T351 60T401 120T427 193Q432 232 422 266T390 325T334 366T262 381Q223 381 186 366T120 326T71 266T46 193ZM33 193Q43 266 82 328T178 445T299
545T427 633Q430 626 435 620Q362 576 305 533T206 451T135 377T91 314Q124 351 169 373T265 395Q307 395 342 379T401 336T436 272T441 193Q435 151 414 115T361 51T290 8T208 -8Q166 -8 131 8T72 51T38 114T33 193Z" />
<glyph unicode="7" glyph-name="seven" horiz-adv-x="469" d="M460 650L77 0H59L435 636H71L62 568H48L59 650H460Z" />
<glyph unicode="8" glyph-name="eight" horiz-adv-x="510" d="M148 511Q144 486 151 465T174 429T212 405T263 396Q290 396 315 404T359 428T391 465T408 511Q412 538 406 562T384 604T347 633T298 644Q270 644 245 633T199 604T166 562T148 511ZM48 195Q43 157
52 123T83 62T137 21T208 5Q248 5 285 20T352 62T402 122T427 195Q433 234 423 267T389 326T333 366T260 381Q221 381 185 367T121 327T73 268T48 195ZM34 195Q39 230 54 261T94 318T148 362T212 389Q172 403 150 437T135 518Q139 547 153 572T190 617T240 647T298
658Q328 658 352 647T394 616T418 570T422 514Q416 470 386 437T312 389Q345 381 371 363T414 320T439 263T441 195Q435 153 414 116T361 52T290 8T208 -8Q166 -8 132 8T74 51T39 116T34 195Z" />
<glyph unicode="9" glyph-name="nine" horiz-adv-x="525" d="M466 432Q472 471 462 505T430 564T375 604T303 619Q264 619 227 605T161 565T111 505T85 432Q80 393 90 359T122 299T178 259T250 244Q289 244 326 258T392 298T441 358T466 432ZM479 432Q469 359
430 297T334 180T213 80T85 -8Q81 -1 77 5Q150 49 207 92T306 174T377 248T421 311Q388 274 343 252T247 230Q205 230 170 246T111 289T76 353T71 432Q77 474 98 510T151 574T222 617T304 633Q346 633 381 617T440 574T474 511T479 432Z" />
<glyph unicode=":" glyph-name="colon" horiz-adv-x="175" d="M82 270Q84 278 90 284T105 290Q113 290 118 284T122 270Q121 262 114 256T99 250Q91 250 86 256T82 270ZM47 20Q48 28 55 34T70 40Q78 40 83 34T87 20Q85 12 79 6T64 0Q56 0 51 6T47 20Z" />
<glyph unicode=";" glyph-name="semicolon" horiz-adv-x="201" d="M114 270Q115 278 121 284T136 290Q144 290 149 284T154 270Q152 262 146 256T131 250Q123 250 118 256T114 270ZM112 86Q83 34 55 -17T-2 -120H-16Q10 -68 36 -17T89 86H112Z" />
<glyph unicode="&lt;" glyph-name="less" horiz-adv-x="680" d="M519 1L517 -15Q416 48 316 111T115 238Q233 301 351 364T588 491L586 475Q474 415 364 357T141 238Q235 178 329 120T519 1Z" />
<glyph unicode="=" glyph-name="equal" horiz-adv-x="708" d="M593 164L591 150H85L87 164H593ZM620 358L618 344H112L114 358H620Z" />
<glyph unicode="&gt;" glyph-name="greater" horiz-adv-x="650" d="M79 -15L81 1Q193 61 304 119T527 238Q432 298 338 356T148 475L150 491Q251 428 351 365T553 238Q434 175 316 112T79 -15Z" />
<glyph unicode="?" glyph-name="question" horiz-adv-x="452" d="M74 596Q71 597 68 597T61 599Q75 628 96 652T144 694T202 722T265 732Q306 732 340 717T396 675T429 613T434 537Q426 483 394 443T312 370Q291 356 273 347T241 325T217 294T202 242L191 164H177L191
261Q195 292 209 310T244 343T290 372T343 408Q378 435 396 467T420 537Q425 576 416 609T385 666T333 704T263 718Q233 718 205 709T151 684T106 646T74 596ZM165 25Q158 25 153 31T149 45Q150 54 156 59T170 65Q178 65 183 60T188 45Q186 37 180 31T165 25Z"
/>
<glyph unicode="@" glyph-name="at" horiz-adv-x="990" d="M309 188Q304 150 313 118T344 61T395 22T464 8Q501 8 536 22T599 60T646 117T670 188Q675 225 666 258T635 316T583 355T515 369Q477 369 443 355T380 316T333 258T309 188ZM884 188Q874 129 857 92T818
35T772 7T722 0H644L652 54Q654 70 656 85T661 117Q632 63 579 29T462 -6Q421 -6 388 9T333 50T300 112T295 188Q301 228 321 264T371 326T438 367T517 383Q579 383 622 349T680 260Q685 289 690 317T701 375H711L660 13H731Q785 13 820 55T870 188Q881 267 861
337T797 459T687 541T542 571Q463 571 390 541T257 459T158 337T107 188Q96 109 116 40T181 -81T290 -163T435 -193Q497 -193 555 -174T664 -123Q666 -126 667 -128T671 -134Q617 -168 558 -187T433 -207Q351 -207 284 -176T170 -91T103 35T94 189Q105 271 146
343T248 469T386 554T544 585Q626 585 694 554T808 469T875 343T884 188Z" />
<glyph unicode="A" glyph-name="A" horiz-adv-x="828" d="M36 14H110Q212 194 313 372T516 732Q567 551 617 373T719 14H794L793 0H619L620 14H704Q683 89 662 164T619 316H297Q254 240 212 165T126 14H210L209 0H35L36 14ZM517 675L512 700L505 686Q502 681 499
675Q453 587 404 502T305 330H615L517 675Z" />
<glyph unicode="B" glyph-name="B" horiz-adv-x="516" d="M36 14H107L202 686H131L133 700H349Q394 700 430 690T490 659T524 605T527 525Q519 463 481 416T376 352Q406 346 431 332T475 296T502 245T506 180Q500 135 478 102T422 46T350 12T269 0H35L36 14ZM168
344L121 14H269Q309 14 347 24T415 54T465 105T491 177Q497 220 484 252T442 304T377 334T297 344H168ZM216 686L170 358H317Q357 358 390 370T450 405T492 459T514 528Q520 570 511 600T482 649T430 677T359 686H216Z" />
<glyph unicode="C" glyph-name="C" horiz-adv-x="610" d="M638 546L653 649Q582 694 490 694Q419 694 353 667T234 592T145 482T99 348Q89 277 107 215T164 107T262 33T390 6Q438 6 484 18T573 54L581 42Q537 19 490 6T392 -8Q318 -8 257 20T154 96T93 210T85
349Q95 423 132 488T225 602T349 679T492 708Q543 708 587 695T668 658L652 546H638Z" />
<glyph unicode="D" glyph-name="D" horiz-adv-x="632" d="M36 14H109L204 686H131L133 700H343Q415 700 475 676T577 606T638 495T646 350Q637 291 608 229T526 116T395 33T211 0H35L36 14ZM218 686L123 14H221Q320 14 394 45T518 125T596 233T633 350Q644 427
626 489T569 595T472 662T347 686H218Z" />
<glyph unicode="E" glyph-name="E" horiz-adv-x="571" d="M36 14H118L213 686H131L133 700H620L598 546H584L604 686H227L181 360H533L531 346H179L132 14H523L543 154H557L536 0H35L36 14Z" />
<glyph unicode="F" glyph-name="F" horiz-adv-x="557" d="M36 14H118L213 686H131L133 700H620L598 546H584L604 686H227L181 360H533L531 346H179L132 14H210L209 0H35L36 14Z" />
<glyph unicode="G" glyph-name="G" horiz-adv-x="609" d="M565 298L529 40Q486 17 439 4T341 -10Q267 -10 206 18T103 94T42 208T33 347Q43 421 80 486T173 600T298 677T441 706Q492 706 535 693T617 656L607 644Q572 667 530 679T439 692Q368 692 302 665T182
590T93 480T47 346Q37 275 55 213T113 105T211 31T339 4Q386 4 430 15T516 49L550 284H378L379 298H565Z" />
<glyph unicode="H" glyph-name="H" horiz-adv-x="716" d="M605 700H779L777 686H700L605 14H682L681 0H507L508 14H591L638 346H174L127 14H210L209 0H35L36 14H113L208 686H131L133 700H307L305 686H222L176 360H640L686 686H603L605 700Z" />
<glyph unicode="I" glyph-name="I" horiz-adv-x="244" d="M36 14H113L208 686H131L133 700H307L305 686H222L127 14H210L209 0H35L36 14Z" />
<glyph unicode="J" glyph-name="J" horiz-adv-x="255" d="M93 700H278L192 90Q184 34 164 -8T114 -80T49 -125T-24 -142L-23 -128Q14 -126 47 -111T107 -67T152 2T178 93L262 686H91L93 700Z" />
<glyph unicode="K" glyph-name="K" horiz-adv-x="686" d="M478 14H544Q480 114 416 214T287 414L169 316Q158 240 148 165T127 14H210L209 0H35L36 14H113L208 686H131L133 700H307L305 686H222L176 360Q175 352 174 346T171 331L191 351L589 686H525L527 700H701L699
686H611L299 424Q366 321 432 219T564 14H652L651 0H477L478 14Z" />
<glyph unicode="L" glyph-name="L" horiz-adv-x="566" d="M36 14H113L208 686H131L133 700H307L305 686H222L127 14H518L538 154H552L531 0H35L36 14Z" />
<glyph unicode="M" glyph-name="M" horiz-adv-x="961" d="M919 700H1019L1017 686H940L845 14H927L926 0H752L753 14H831L920 645L927 690Q927 689 925 687Q923 685 921 683T917 678Q903 663 877 634T815 566T740 482T658 392T579 305T510 228Q433 352 365 461T229
677L221 690Q219 679 219 668T216 645L127 14H210L209 0H35L36 14H113L208 686H131L133 700H233Q287 614 338 532Q360 497 383 460T430 385T474 314T513 253Q615 364 716 476T919 700Z" />
<glyph unicode="N" glyph-name="N" horiz-adv-x="840" d="M41 14H118L212 686H135L137 700H240L701 28L716 2L718 34L809 686H731L733 700H907L905 686H823L723 -32L240 670L225 690L223 664L132 14H215L213 0H39L41 14Z" />
<glyph unicode="O" glyph-name="O" horiz-adv-x="786" d="M85 349Q95 423 132 488T225 602T349 679T492 708Q566 708 627 680T731 603T792 489T801 349Q790 275 753 210T661 97T536 20T392 -8Q318 -8 257 20T154 96T93 210T85 349ZM99 348Q89 277 107 215T164
107T262 33T390 6Q461 6 528 33T650 106T740 215T787 349Q797 420 779 482T720 592T620 666T490 694Q419 694 353 667T234 592T145 482T99 348Z" />
<glyph unicode="P" glyph-name="P" horiz-adv-x="481" d="M36 14H107L202 686H131L133 700H344Q373 700 406 690T467 659T510 604T519 522Q507 439 445 390T279 341H167L121 14H210L209 0H35L36 14ZM169 355H284Q342 355 382 371T449 411T488 465T505 522Q509
555 499 584T465 636T408 672T332 686H216L169 355Z" />
<glyph unicode="Q" glyph-name="Q" horiz-adv-x="808" d="M99 348Q89 277 107 215T164 107T262 33T390 6Q461 6 528 33T650 106T740 215T787 349Q797 420 779 482T720 592T620 666T490 694Q419 694 353 667T234 592T145 482T99 348ZM85 349Q95 423 132 488T225
602T349 679T492 708Q566 708 627 680T731 603T792 489T801 349Q793 291 768 239T706 143T621 66T519 14H776L774 0H467Q427 -8 392 -8Q318 -8 257 20T154 96T93 210T85 349Z" />
<glyph unicode="R" glyph-name="R" horiz-adv-x="569" d="M36 14H107L202 686H131L133 700H344Q373 700 406 690T467 659T510 604T519 522Q509 453 464 407T342 346L451 14H535L534 0H442L327 344Q304 341 279 341H167L121 14H210L209 0H35L36 14ZM169 355H284Q342
355 382 371T449 411T488 465T505 522Q509 555 499 584T465 636T408 672T332 686H216L169 355Z" />
<glyph unicode="S" glyph-name="S" horiz-adv-x="478" d="M56 64L70 164H84L71 74Q96 45 135 26T237 6Q276 6 313 18T382 54T435 109T462 182Q469 228 458 258T424 308T371 339T308 360T243 380T187 407T150 450T139 517Q142 550 156 583T195 644T255 687T338
704Q354 704 373 702T411 696T447 682T479 660L463 546H449L464 653Q447 668 415 679T334 690Q295 690 264 677T210 641T173 590T155 530Q149 489 161 464T197 422T251 395T316 375T380 353T435 320T471 267T477 186Q472 142 451 106T397 45T323 6T238 -8Q198 -8
168 0T115 19T79 43T56 64Z" />
<glyph unicode="T" glyph-name="T" horiz-adv-x="623" d="M226 14H305L400 686H145L125 546H111L133 700H686L664 546H650L670 686H414L319 14H400L399 0H225L226 14Z" />
<glyph unicode="U" glyph-name="U" horiz-adv-x="674" d="M134 700H308L306 686H223L159 229Q151 175 161 134T195 64T255 21T338 6Q383 6 424 20T497 63T551 133T581 229L645 686H562L564 700H738L736 686H659L594 226Q586 169 563 125T506 52T428 7T337 -8Q289
-8 250 7T184 51T147 125T144 226L209 686H132L134 700Z" />
<glyph unicode="V" glyph-name="V" horiz-adv-x="844" d="M137 700H311L309 686H233Q280 519 326 355T421 25L426 0L439 25Q532 191 624 355T811 686H735L737 700H911L909 686H826Q725 505 624 327T422 -32Q371 148 320 326T217 686H135L137 700Z" />
<glyph unicode="W" glyph-name="W" horiz-adv-x="1220" d="M137 700H311L309 686H233Q279 519 325 355T421 25L426 0Q481 108 542 213T664 425Q646 490 628 555T590 686H511L513 700H687L685 686H605Q651 519 697 355T793 25L798 0L811 25Q904 191 996 355T1183
686H1111L1113 700H1287L1285 686H1198Q1097 505 996 327T794 -32L675 385L669 407Q606 297 545 188T422 -32Q371 148 320 326T217 686H135L137 700Z" />
<glyph unicode="X" glyph-name="X" horiz-adv-x="710" d="M133 700H307L305 686H246Q286 609 324 533T402 381L408 368L418 381L656 686H597L599 700H773L771 686H672Q607 602 543 521T415 356Q458 269 501 185T589 14H676L675 0H501L502 14H572L436 279Q427 296
419 314T401 348L392 335Q329 254 266 175T140 14H210L209 0H35L36 14H125L395 360L230 686H131L133 700Z" />
<glyph unicode="Y" glyph-name="Y" horiz-adv-x="718" d="M274 14H353L388 262Q339 368 291 474T193 686H131L133 700H307L305 686H210Q255 588 300 492T388 298L397 272H398L412 298L698 686H605L607 700H781L779 686H715Q637 579 559 474T402 262L367 14H448L447
0H273L274 14Z" />
<glyph unicode="Z" glyph-name="Z" horiz-adv-x="629" d="M618 174L594 0H35L36 14L641 686H148L155 735H171L166 700H663L661 686L56 14H581L604 174H618Z" />
<glyph unicode="[" glyph-name="bracketleft" horiz-adv-x="338" d="M20 -149L145 746H308L306 732H159L38 -135H185L183 -149H20Z" />
<glyph unicode="\" glyph-name="backslash" horiz-adv-x="320" d="M84 736Q127 546 169 359T255 -19H241Q198 171 156 358T70 736H84Z" />
<glyph unicode="]" glyph-name="bracketright" horiz-adv-x="342" d="M313 746L188 -149H25L27 -135H174L295 732H148L150 746H313Z" />
<glyph unicode="^" glyph-name="asciicircum" horiz-adv-x="470" d="M244 660Q268 615 291 570T339 479H323Q302 517 282 556T240 633Q208 595 178 556T115 479H99Q135 524 171 569T244 660Z" />
<glyph unicode="_" glyph-name="underscore" horiz-adv-x="600" d="M499 0H99L100 14H500L499 0Z" />
<glyph unicode="`" glyph-name="grave" horiz-adv-x="200" d="M11 612Q29 579 46 546T82 479H66Q48 512 31 545T-4 612H11Z" />
<glyph unicode="a" glyph-name="a" horiz-adv-x="532" d="M62 188Q68 228 88 264T138 326T205 367T283 383Q314 383 340 374T388 349T425 310T447 260Q451 289 456 317T467 375H477L426 14H499L497 0H410L418 54Q420 70 423 85T428 117Q399 63 346 29T229 -6Q188
-6 155 9T100 50T67 112T62 188ZM76 188Q71 150 80 118T110 61T161 22T230 8Q267 8 302 22T366 60T413 117T437 188Q442 225 433 258T402 316T350 355T281 369Q243 369 209 355T146 316T100 258T76 188Z" />
<glyph unicode="b" glyph-name="b" horiz-adv-x="532" d="M37 14H110L212 736H139L141 750H228L167 321Q165 306 163 291T159 260Q188 314 241 348T357 383Q397 383 430 368T486 326T519 264T524 188Q518 147 498 112T448 51T381 9T303 -6Q240 -6 196 28T138 117Q136
101 134 86T130 54L122 0H35L37 14ZM510 188Q515 225 506 258T475 316T423 355T355 369Q317 369 283 355T220 316T173 258T149 188Q144 150 153 118T184 61T235 22T304 8Q341 8 376 22T439 60T486 117T510 188Z" />
<glyph unicode="c" glyph-name="c" horiz-adv-x="387" d="M358 37Q329 17 297 6T229 -6Q188 -6 155 9T100 50T67 112T62 188Q68 228 88 264T138 326T205 367T283 383Q318 383 348 372T400 340L388 253H374L385 332Q364 349 338 359T281 369Q243 369 209 355T146
316T100 258T76 188Q71 150 80 118T110 61T161 22T230 8Q262 8 292 18T349 47L358 37Z" />
<glyph unicode="d" glyph-name="d" horiz-adv-x="532" d="M418 54Q420 70 423 85T428 117Q399 63 346 29T229 -6Q188 -6 155 9T100 50T67 112T62 188Q68 228 88 264T138 326T205 367T283 383Q346 383 389 349T447 260Q452 290 455 319T464 379L514 736H441L443
750H530L426 14H499L497 0H410L418 54ZM76 188Q71 150 80 118T110 61T161 22T230 8Q267 8 302 22T366 60T413 117T437 188Q442 225 433 258T402 316T350 355T281 369Q243 369 209 355T146 316T100 258T76 188Z" />
<glyph unicode="e" glyph-name="e" horiz-adv-x="435" d="M281 369Q236 369 196 349T127 295T84 220T75 135Q162 168 247 200T418 266Q404 312 368 340T281 369ZM435 259Q345 224 257 191T78 122Q91 71 131 40T230 8Q266 8 300 21T361 57Q363 54 365 52T369 46Q339
22 304 8T229 -6Q188 -6 155 9T100 50T67 112T62 188Q68 228 88 264T138 326T205 367T283 383Q341 383 382 349T435 259Z" />
<glyph unicode="f" glyph-name="f" horiz-adv-x="281" d="M36 14H97L146 361H85L87 375H148L168 518Q176 573 196 616T246 688T312 732T386 750L384 736Q350 736 317 721T257 678T210 611T183 522L162 375H292L290 361H160L111 14H210L209 0H35L36 14Z" />
<glyph unicode="g" glyph-name="g" horiz-adv-x="533" d="M501 375H585L583 361H509L456 -18Q448 -74 428 -116T378 -188T313 -233T239 -250Q219 -249 198 -246T158 -236T123 -218T96 -190L110 -183Q130 -213 167 -224T240 -236Q274 -236 307 -221T368 -178T415
-111T442 -22L452 54Q454 70 457 85T462 117Q433 63 380 29T263 -6Q222 -6 189 9T134 50T101 112T96 188Q102 228 122 264T172 326T239 367T317 383Q348 383 374 374T422 349T459 310T481 260Q486 289 491 317T501 375ZM110 188Q105 150 114 118T145 61T196 22T265
8Q302 8 337 22T400 60T447 117T471 188Q476 225 467 258T436 316T384 355T315 369Q277 369 243 355T180 316T134 258T110 188Z" />
<glyph unicode="h" glyph-name="h" horiz-adv-x="522" d="M314 14H393L430 277Q434 313 413 339T348 368Q314 368 282 357T224 327T181 280T158 220L129 14H210L209 0H35L36 14H115L217 736H144L146 750H233L173 322L163 277Q190 324 238 353T343 382Q396 382
422 351T443 270L407 14H488L487 0H313L314 14Z" />
<glyph unicode="i" glyph-name="i" horiz-adv-x="244" d="M36 14H118L167 361H85L87 375H183L132 14H210L209 0H35L36 14ZM174 500Q175 508 182 514T197 520Q205 520 210 514T214 500Q212 492 206 486T191 480Q183 480 178 486T174 500Z" />
<glyph unicode="j" glyph-name="j" horiz-adv-x="166" d="M62 375H158L105 -7Q97 -64 76 -107T24 -180L13 -171Q42 -143 62 -103T90 -11L142 361H60L62 375ZM149 500Q150 508 157 514T172 520Q180 520 185 514T189 500Q187 492 181 486T166 480Q158 480 153 486T149 500Z" />
<glyph unicode="k" glyph-name="k" horiz-adv-x="487" d="M279 14H352Q320 67 289 119T226 225L142 155L122 14H210L209 0H35L36 14H108L210 736H137L139 750H226L145 176L369 361H293L295 375H469L467 361H388Q367 343 350 328T315 298T279 268T240 235Q272 179
305 124T370 14H453L452 0H278L279 14Z" />
<glyph unicode="l" glyph-name="l" horiz-adv-x="244" d="M36 14H108L210 736H137L139 750H226L122 14H210L209 0H35L36 14Z" />
<glyph unicode="m" glyph-name="m" horiz-adv-x="800" d="M592 14H671L708 277Q712 313 691 339T626 368Q593 368 562 358T505 328T461 283T437 226L407 14H488L487 0H313L314 14H393L430 277Q434 313 413 339T348 368Q314 368 282 357T224 327T181 280T158 220L129
14H210L209 0H35L36 14H115L164 361H89L91 375H174L169 322Q167 309 166 300T163 277Q190 324 238 353T343 382Q392 382 418 355T444 282Q471 327 518 354T621 382Q674 382 700 351T721 270L685 14H766L765 0H591L592 14Z" />
<glyph unicode="n" glyph-name="n" horiz-adv-x="522" d="M314 14H393L430 277Q434 313 413 339T348 368Q314 368 282 357T224 327T181 280T158 220L129 14H210L209 0H35L36 14H115L164 361H89L91 375H174L169 322Q167 309 166 300T163 277Q190 324 238 353T343
382Q396 382 422 351T443 270L407 14H488L487 0H313L314 14Z" />
<glyph unicode="o" glyph-name="o" horiz-adv-x="461" d="M63 188Q69 228 89 264T139 326T206 368T284 384Q324 384 358 369T415 327T448 264T453 188Q447 147 427 112T377 51T308 9T230 -6Q189 -6 156 9T101 50T68 112T63 188ZM77 188Q72 150 81 118T111 61T162
22T231 8Q268 8 303 22T367 60T414 117T438 188Q443 225 434 258T403 316T351 355T282 369Q244 369 210 355T147 316T101 258T77 188Z" />
<glyph unicode="p" glyph-name="p" horiz-adv-x="532" d="M-1 -236H64L148 361H75L77 375H160Q156 346 154 316T146 257Q161 284 182 307T229 346T285 372T346 381Q386 381 419 366T475 325T508 263T513 187Q507 146 487 111T436 49T369 8T291 -8Q228 -8 185 26T127
115L121 61L79 -236H172L171 -250H-2L-1 -236ZM499 187Q504 224 495 257T464 314T412 353T344 367Q306 367 272 353T209 315T162 257T138 187Q133 149 142 117T173 59T224 20T293 6Q330 6 365 20T428 59T475 116T499 187Z" />
<glyph unicode="q" glyph-name="q" horiz-adv-x="532" d="M322 -236H410L452 61L461 115Q432 61 379 27T263 -8Q222 -8 189 7T134 49T101 110T96 187Q102 227 122 262T172 324T239 366T317 381Q380 381 424 347T482 257Q486 286 491 316T501 375H584L582 361H509L425
-236H496L495 -250H321L322 -236ZM110 187Q105 149 114 117T144 59T195 20T264 6Q301 6 336 20T400 59T447 116T471 187Q476 224 467 257T436 314T384 353T315 367Q277 367 243 353T180 315T134 257T110 187Z" />
<glyph unicode="r" glyph-name="r" horiz-adv-x="326" d="M36 14H115L164 361H89L91 375H174L169 322Q167 309 166 300T163 277Q191 325 239 352T344 382L342 368Q309 367 278 356T222 325T180 278T158 220L129 14H210L209 0H35L36 14Z" />
<glyph unicode="s" glyph-name="s" horiz-adv-x="315" d="M82 91L74 32Q94 15 121 11T173 6Q188 6 206 12T240 29T269 58T284 98Q288 129 276 146T243 172T197 189T151 205T118 232T109 280Q112 304 123 322T151 353T186 372T224 379Q224 379 235 379T262 376T294
367T319 349L310 284H296L304 343Q296 352 283 356T256 363T233 365T220 365Q207 365 192 361T163 348T138 323T124 285Q119 256 131 241T165 216T211 200T258 182T291 153T299 101Q296 82 287 63T261 28T221 2T168 -8Q163 -8 150 -7T120 -3T87 7T59 26L68 91H82Z"
/>
<glyph unicode="t" glyph-name="t" horiz-adv-x="300" d="M210 619H224L190 375H317L315 361H188L139 14H226L225 0H124L174 361H85L87 375H176L210 619Z" />
<glyph unicode="u" glyph-name="u" horiz-adv-x="518" d="M88 375H181L142 98Q139 62 160 36T224 7Q258 7 290 18T348 48T391 95T414 155L443 361H364L366 375H459L408 14H485L483 0H400L405 53L409 98Q382 50 334 22T230 -7Q177 -7 151 24T129 105L165 361H86L88 375Z" />
<glyph unicode="v" glyph-name="v" horiz-adv-x="590" d="M90 375H251L249 361H175Q207 273 238 185T302 8Q354 90 412 180T527 361H469L471 375H610L608 361H542Q480 264 419 169T298 -23Q263 74 229 169T160 361H88L90 375Z" />
<glyph unicode="w" glyph-name="w" horiz-adv-x="860" d="M741 375H880L878 361H814Q752 264 691 169T570 -23L472 251L298 -23Q263 74 229 169T160 361H88L90 375H251L249 361H175Q207 272 238 184T302 8Q344 73 384 137T466 266Q457 289 449 313T432 361H358L360
375H521L519 361H447Q479 272 510 184T574 8Q631 97 686 184T799 361H739L741 375Z" />
<glyph unicode="x" glyph-name="x" horiz-adv-x="488" d="M87 375H261L259 361H171L267 198L407 361H329L331 375H505L503 361H424L274 186Q299 142 324 100T375 14H454L453 0H279L280 14H359Q335 56 312 95T264 175Q229 134 195 94T126 14H210L209 0H35L36 14H108Q146
57 182 100T257 187Q231 231 205 273T153 361H85L87 375Z" />
<glyph unicode="y" glyph-name="y" horiz-adv-x="590" d="M93 -236H174Q211 -178 248 -120T323 -4Q290 87 257 178T192 361H120L122 375H283L281 361H210Q241 273 272 187T335 14Q388 97 444 185T556 361H501L503 375H642L640 361H574Q477 211 383 63T193 -236H267L266
-250H92L93 -236Z" />
<glyph unicode="z" glyph-name="z" horiz-adv-x="429" d="M403 65L394 0H35L36 14Q133 102 223 187T409 361H97L104 410H118L113 375H429L427 361Q331 273 241 188T54 14H381L389 65H403Z" />
<glyph unicode="{" glyph-name="braceleft" horiz-adv-x="272" d="M91 287L95 311Q119 312 136 325T165 359T183 402T193 446L218 628Q224 673 234 697T259 732T288 744T321 746H358L356 732H299Q268 732 254 706T231 620L210 470Q203 423 194 393T172 345T147
316T120 299Q129 292 137 285T152 266T163 237T167 194Q166 180 166 164T162 128L141 -22Q139 -39 138 -53T136 -79Q136 -108 145 -121T177 -134H234L232 -148H195Q179 -148 166 -147T144 -140T129 -118T124 -74Q124 -58 125 -39T131 6L151 152Q154 170 154 192Q154
209 151 226T141 256T122 277T91 287Z" />
<glyph unicode="|" glyph-name="bar" horiz-adv-x="219" d="M99 -232L229 700H243L113 -232H99Z" />
<glyph unicode="}" glyph-name="braceright" horiz-adv-x="320" d="M355 311L351 287Q319 285 300 265T271 217T256 161T248 116L228 -30Q222 -77 211 -101T187 -135T157 -147T125 -148H88L90 -134H147Q178 -134 192 -108T215 -22L241 165Q245 199 255 222T277
260T302 285T326 299Q317 304 309 311T293 329T282 358T278 401Q278 429 284 470L305 620Q307 637 308 651T310 676Q310 732 269 732H212L214 746H251Q265 746 278 746T301 739T317 718T323 676Q323 656 320 628L300 482Q298 468 295 448T292 406Q292 389 294 372T304
342T323 321T355 311Z" />
<glyph unicode="~" glyph-name="asciitilde" horiz-adv-x="489" d="M270 497Q256 515 245 521T220 527Q212 527 201 525T180 516T160 500T146 472Q143 473 140 473T134 474Q141 511 169 526T225 541Q245 541 260 531T289 503Q302 485 313 479T338 473Q346 473
357 475T379 484T399 500T412 528Q415 527 418 527T425 526Q417 489 390 474T334 459Q314 459 299 469T270 497Z" />
<glyph unicode="&#xa0;" glyph-name="uni00A0" horiz-adv-x="300" />
<glyph unicode="&#xa1;" glyph-name="exclamdown" horiz-adv-x="200" d="M204 504Q212 504 217 498T221 484Q219 475 213 470T198 464Q191 464 186 469T182 484Q183 492 190 498T204 504ZM179 374H193L111 -210H97L179 374Z" />
<glyph unicode="&#xa2;" glyph-name="cent" horiz-adv-x="385" d="M359 47L367 37Q338 17 305 6T237 -6L229 -68H215L223 -5Q185 -2 155 14T105 55T75 115T71 188Q77 227 95 261T142 321T205 363T278 382L286 438H300L292 383Q327 383 357 372T410 340Q409 339
409 339H410L397 252H383L395 332Q374 349 348 359T290 369L239 8Q271 8 302 18T359 47ZM85 188Q80 152 88 121T115 65T162 26T225 8L276 368Q241 365 209 350T151 311T108 256T85 188Z" />
<glyph unicode="&#xa3;" glyph-name="sterling" horiz-adv-x="574" d="M486 0H26L27 14H71Q89 14 100 21T119 46T133 92T145 164L165 311H100L102 325H167L192 500Q202 570 250 602T370 634Q403 634 427 628T468 610T495 582T513 545L502 539Q493 563 482 578T456
603T419 616T368 620Q326 620 297 611T248 585T219 548T206 504L181 325H310L308 311H179L151 109Q146 80 139 54T114 14H473L489 123H503L486 0Z" />
<glyph unicode="&#xa4;" glyph-name="currency" horiz-adv-x="500" d="M148 361Q145 336 151 315T171 277T205 252T250 242Q274 242 297 251T338 277T368 314T384 361Q388 386 382 407T362 445T328 470T283 480Q259 480 236 471T195 445T165 408T148 361ZM134
361Q138 386 149 408T179 448Q171 458 163 467T146 486L157 496L190 458Q210 475 234 484T285 494Q311 494 333 484T370 457L413 495L422 485L379 447Q391 430 396 408T398 361Q395 335 382 312T351 271L386 230L375 220Q366 231 357 240T339 261Q298 228 248 228Q197
228 165 260L119 219L110 229L157 270Q128 307 134 361Z" />
<glyph unicode="&#xa5;" glyph-name="yen" horiz-adv-x="718" d="M539 100H380L367 14H448L447 0H273L274 14H353L366 100H206L208 114H368L388 263H228L230 277H381L193 686H131L133 700H307L305 686H210Q255 589 301 494T388 298L397 272H398L412 298L698 686H605L607
700H781L779 686H715Q640 583 565 482T413 277H563L561 263H402L382 114H541L539 100Z" />
<glyph unicode="&#xa6;" glyph-name="brokenbar" horiz-adv-x="215" d="M116 -233H102L151 117H165L116 -233ZM197 350H183L233 700H247L197 350Z" />
<glyph unicode="&#xa7;" glyph-name="section" horiz-adv-x="500" d="M218 311Q229 286 250 274T299 262Q321 262 341 271T375 297T398 332T407 371Q407 414 379 436T315 459Q290 459 271 449T239 422T218 387T211 348Q211 326 218 311ZM271 154L205 304Q196 325
196 347Q196 369 205 391T230 431T270 460T320 472Q353 472 378 456Q367 480 355 507T333 559T317 607T310 642Q310 661 318 674T340 697T370 714T402 730Q403 728 404 725T407 718Q393 710 379 704T352 689T331 670T323 643Q323 628 332 601T354 542T383 477T412
415Q421 394 421 373Q421 351 412 329T385 288T344 259T294 247Q263 247 238 264L287 154Q298 130 302 111T306 79Q306 59 298 46T276 22T246 4T216 -10L210 2Q223 9 238 16T265 31T286 50T294 77Q294 103 271 154Z" />
<glyph unicode="&#xa8;" glyph-name="dieresis" horiz-adv-x="370" d="M249 500Q251 508 257 514T272 520Q280 520 285 514T289 500Q288 492 282 486T267 480Q259 480 254 486T249 500ZM84 500Q86 508 92 514T107 520Q115 520 120 514T124 500Q123 492 117 486T102
480Q94 480 89 486T84 500Z" />
<glyph unicode="&#xa9;" glyph-name="copyright" horiz-adv-x="793" d="M400 132Q450 132 496 150T580 200T643 276T676 371Q683 423 671 467T630 544T560 595T468 613Q419 613 373 595T290 545T227 468T194 371Q187 320 200 277T241 201T310 150T400 132ZM400
118Q346 118 302 137T229 190T186 270T180 372Q188 427 214 474T279 555T367 608T471 627Q525 627 569 608T642 555T685 474T690 372Q682 317 656 271T591 190T503 137T400 118ZM530 464L537 511Q505 531 463 531Q431 531 401 519T347 485T307 435T287 374Q282
342 290 314T316 265T360 232T418 220Q440 220 461 225T501 241L505 236Q485 225 464 219T419 213Q386 213 358 226T312 261T284 312T280 375Q285 409 302 438T343 490T399 524T464 537Q509 537 544 515L537 464H530Z" />
<glyph unicode="&#xaa;" glyph-name="ordfeminine" horiz-adv-x="585" d="M103 442Q107 470 121 496T157 541T206 571T262 582Q285 582 304 576T338 557T364 529T380 494Q383 514 387 535T395 576H402L365 316H418L417 306H354L360 345Q361 356 363 367T367 390Q346
351 308 327T223 302Q194 302 170 312T130 342T106 387T103 442ZM113 442Q109 414 115 391T137 350T175 322T224 312Q251 312 276 322T322 349T356 390T373 442Q377 468 370 492T348 534T310 562T261 572Q233 572 209 562T164 534T130 492T113 442Z" />
<glyph unicode="&#xab;" glyph-name="guillemotleft" horiz-adv-x="601" d="M459 77L310 239Q359 280 407 319T504 400L502 383Q461 347 421 311T339 239Q369 202 400 166T461 93L459 77ZM288 77L139 239Q188 280 236 319T333 400L331 383Q290 347 250 311T168
239Q198 202 229 166T290 93L288 77Z" />
<glyph unicode="&#xac;" glyph-name="logicalnot" horiz-adv-x="559" d="M446 148L457 227H111L113 241H473L460 148H446Z" />
<glyph unicode="&#xad;" glyph-name="uni00AD" horiz-adv-x="300" d="M52 184L53 198H237L236 184H52Z" />
<glyph unicode="&#xae;" glyph-name="registered" horiz-adv-x="801" d="M400 132Q450 132 496 150T580 200T643 276T676 371Q683 423 671 467T630 544T560 595T468 613Q419 613 373 595T290 545T227 468T194 371Q187 320 200 277T241 201T310 150T400 132ZM400
118Q346 118 302 137T229 190T186 270T180 372Q188 427 214 474T279 555T367 608T471 627Q525 627 569 608T642 555T685 474T690 372Q682 317 656 271T591 190T503 137T400 118ZM311 217H344L389 534H356L357 541H456Q470 541 486 537T514 522T534 495T539 457Q534
424 513 403T455 374L507 217H546V210H503L448 373Q443 372 437 372T426 371H373L351 217H393V210H311V217ZM374 378H428Q455 378 474 385T506 404T524 430T532 457Q537 488 514 511T451 534H396L374 378Z" />
<glyph unicode="&#xaf;" glyph-name="overscore" horiz-adv-x="399" d="M85 492L86 506H316L315 492H85Z" />
<glyph unicode="&#xb0;" glyph-name="degree" horiz-adv-x="282" d="M139 498Q165 498 185 516T210 560Q214 586 199 604T157 622Q131 622 110 604T85 560Q81 534 97 516T139 498ZM71 559Q76 592 101 614T159 636Q191 636 210 614T224 559Q219 527 195 506T138
484Q105 484 86 505T71 559Z" />
<glyph unicode="&#xb1;" glyph-name="plusminus" horiz-adv-x="524" d="M269 211L293 385H120L122 399H295L320 571H334L309 399H482L480 385H307L283 211H269ZM446 136H86L87 150H447L446 136Z" />
<glyph unicode="&#xb2;" glyph-name="twosuperior" horiz-adv-x="398" d="M98 382H269L277 438H284L275 375H79Q115 406 149 435T211 493T256 548T277 598Q281 626 276 644T261 673T237 688T211 693Q186 693 169 685T141 663T125 635T117 607Q112 572 129 550L124
546Q116 558 112 572T110 607Q113 626 121 643T142 673T172 693T212 700Q231 700 246 693T270 673T284 643T285 604Q281 576 262 548T217 491T159 436T98 382Z" />
<glyph unicode="&#xb3;" glyph-name="threesuperior" horiz-adv-x="419" d="M140 558L264 693H129L124 660H118L123 700H281L165 576Q188 577 206 570T238 550T258 517T261 476Q258 455 248 437T222 406T187 384T146 376Q124 376 107 385T78 409L83 415Q93 401
109 392T146 383Q165 383 183 390T216 410T241 440T254 476Q257 495 252 512T235 541T208 561T172 569Q164 569 156 566T140 558Z" />
<glyph unicode="&#xb4;" glyph-name="acute" horiz-adv-x="218" d="M100 479Q127 512 154 545T208 612H224Q197 579 170 546T116 479H100Z" />
<glyph unicode="&#xb5;" glyph-name="mu" horiz-adv-x="521" d="M396 375H489L439 14H516L514 0H431L435 53L440 98Q413 50 365 22T260 -7Q224 -7 200 8T166 49L131 -201H117L195 361H116L118 375H211L173 98Q169 62 190 36T255 7Q289 7 321 18T379 48T422 95T445
155L473 361H394L396 375Z" />
<glyph unicode="&#xb6;" glyph-name="paragraph" horiz-adv-x="489" d="M215 0H201L260 423Q226 423 198 435T151 470T124 522T120 586Q125 620 142 650T184 702T240 737T306 750H591L589 736H481L379 14H487L486 0H364L467 736H318L215 0Z" />
<glyph unicode="&#xb7;" glyph-name="middot" horiz-adv-x="163" d="M66 280Q67 288 73 294T88 300Q96 300 101 294T106 280Q104 272 98 266T83 260Q75 260 70 266T66 280Z" />
<glyph unicode="&#xb8;" glyph-name="cedilla" horiz-adv-x="452" d="M224 0H238L237 -6Q235 -19 238 -28T246 -43T257 -53T270 -61Q290 -76 297 -94T303 -127Q295 -178 267 -200T206 -223Q180 -223 159 -209T133 -165Q137 -164 140 -163T148 -161Q151 -182 166
-195T207 -209Q238 -209 260 -189T288 -137Q292 -109 281 -94T256 -69T231 -47T222 -16L224 0Z" />
<glyph unicode="&#xb9;" glyph-name="onesuperior" horiz-adv-x="249" d="M65 407H101L141 694H89L90 700H148L108 407H144L143 401H64L65 407Z" />
<glyph unicode="&#xba;" glyph-name="ordmasculine" horiz-adv-x="469" d="M110 442Q115 470 129 496T165 541T213 572T270 583Q299 583 323 572T364 542T388 496T392 442Q387 412 373 387T337 343T288 313T231 302Q201 302 178 312T138 342T114 387T110 442ZM121
442Q117 414 123 391T145 350T182 322T232 312Q258 312 284 322T330 349T363 390T381 442Q385 468 378 492T356 534T318 562T268 572Q241 572 216 562T171 534T138 492T121 442Z" />
<glyph unicode="&#xbb;" glyph-name="guillemotright" horiz-adv-x="601" d="M119 93Q160 130 200 166T281 239Q251 275 221 311T160 383L162 400Q199 359 236 320T310 239L117 77L119 93ZM290 93Q331 130 371 166T452 239Q422 275 392 311T331 383L333 400Q370
359 407 320T481 239L288 77L290 93Z" />
<glyph unicode="&#xbc;" glyph-name="onequarter" horiz-adv-x="968" d="M242 -19Q339 171 434 358T626 735H640Q543 545 448 358T256 -19H242ZM672 10H730L747 136H486L808 490L759 147H831L830 136H758L740 10H802L800 0H671L672 10ZM793 459L510 147H749L793
459ZM130 244H187L249 685H169L170 695H260L197 244H254L252 234H129L130 244Z" />
<glyph unicode="&#xbd;" glyph-name="onehalf" horiz-adv-x="1069" d="M113 244H170L232 685H152L153 695H243L180 244H237L235 234H112L113 244ZM585 10H830L841 90H851L838 0H558Q610 44 658 86T746 170T810 248T841 319Q847 359 840 385T817 426T783 448T746
455Q711 455 687 443T648 412T624 372T613 331Q606 282 630 251L623 245Q611 262 605 282T603 331Q607 360 618 384T648 426T692 454T748 465Q775 465 796 455T831 426T850 383T852 328Q846 287 820 247T755 166T673 87T585 10ZM242 -19Q339 171 434 358T626 735H640Q543
545 448 358T256 -19H242Z" />
<glyph unicode="&#xbe;" glyph-name="threequarters" horiz-adv-x="1276" d="M223 485L416 697H206L198 645H188L197 708H443L262 513Q297 515 326 504T376 472T406 421T412 357Q407 324 391 296T350 246T295 213T232 200Q198 200 171 214T125 251L134 261Q149
238 174 225T231 211Q262 211 290 222T342 254T381 300T401 357Q406 387 398 413T372 459T328 490T272 502Q260 502 248 498T223 485ZM407 -19Q504 171 599 358T791 736H805Q708 546 613 359T421 -19H407ZM871 10H928L946 136H684L1007 490L958 147H1030L1029 136H957L939
10H1001L999 0H869L871 10ZM992 459L708 147H948L992 459Z" />
<glyph unicode="&#xbf;" glyph-name="questiondown" horiz-adv-x="410" d="M375 -57Q378 -58 381 -58T388 -60Q374 -89 353 -113T305 -155T247 -183T184 -193Q143 -193 109 -178T53 -136T20 -74T15 2Q23 56 55 96T137 169Q158 183 176 192T208 214T232 245T247
297L258 375H272L258 278Q254 247 240 229T205 196T159 167T106 131Q71 104 53 72T29 2Q24 -37 33 -70T64 -127T116 -165T186 -179Q216 -179 244 -170T298 -145T343 -107T375 -57ZM284 514Q291 514 296 508T300 494Q299 485 293 480T279 474Q271 474 266 479T261
494Q263 502 269 508T284 514Z" />
<glyph unicode="&#xc0;" glyph-name="Agrave" horiz-adv-x="828" d="M36 14H110Q212 194 313 372T516 732Q567 551 617 373T719 14H794L793 0H619L620 14H704Q683 89 662 164T619 316H297Q254 240 212 165T126 14H210L209 0H35L36 14ZM517 675L512 700L505 686Q502
681 499 675Q453 587 404 502T305 330H615L517 675ZM451 883Q469 850 486 817T522 750H506Q488 783 471 816T436 883H451Z" />
<glyph unicode="&#xc1;" glyph-name="Aacute" horiz-adv-x="828" d="M515 750Q542 783 569 816T623 883H639Q612 850 585 817T531 750H515ZM36 14H110Q212 194 313 372T516 732Q567 551 617 373T719 14H794L793 0H619L620 14H704Q683 89 662 164T619 316H297Q254
240 212 165T126 14H210L209 0H35L36 14ZM517 675L512 700L505 686Q502 681 499 675Q453 587 404 502T305 330H615L517 675Z" />
<glyph unicode="&#xc2;" glyph-name="Acircumflex" horiz-adv-x="828" d="M541 931Q565 886 588 841T636 750H620Q599 788 579 827T537 904Q505 866 475 827T412 750H396Q432 795 468 840T541 931ZM36 14H110Q212 194 313 372T516 732Q567 551 617 373T719 14H794L793
0H619L620 14H704Q683 89 662 164T619 316H297Q254 240 212 165T126 14H210L209 0H35L36 14ZM517 675L512 700L505 686Q502 681 499 675Q453 587 404 502T305 330H615L517 675Z" />
<glyph unicode="&#xc3;" glyph-name="Atilde" horiz-adv-x="828" d="M511 790Q497 808 486 814T461 820Q453 820 442 818T421 809T401 793T387 765Q384 766 381 766T375 767Q382 804 410 819T466 834Q486 834 501 824T530 796Q543 778 554 772T579 766Q587 766
598 768T620 777T640 793T653 821Q656 820 659 820T666 819Q658 782 631 767T575 752Q555 752 540 762T511 790ZM36 14H110Q212 194 313 372T516 732Q567 551 617 373T719 14H794L793 0H619L620 14H704Q683 89 662 164T619 316H297Q254 240 212 165T126 14H210L209
0H35L36 14ZM517 675L512 700L505 686Q502 681 499 675Q453 587 404 502T305 330H615L517 675Z" />
<glyph unicode="&#xc4;" glyph-name="Adieresis" horiz-adv-x="828" d="M582 790Q584 798 590 804T605 810Q613 810 618 804T622 790Q621 782 615 776T600 770Q592 770 587 776T582 790ZM417 790Q419 798 425 804T440 810Q448 810 453 804T457 790Q456 782 450
776T435 770Q427 770 422 776T417 790ZM36 14H110Q212 194 313 372T516 732Q567 551 617 373T719 14H794L793 0H619L620 14H704Q683 89 662 164T619 316H297Q254 240 212 165T126 14H210L209 0H35L36 14ZM517 675L512 700L505 686Q502 681 499 675Q453 587 404
502T305 330H615L517 675Z" />
<glyph unicode="&#xc5;" glyph-name="Aring" horiz-adv-x="828" d="M36 14H110Q212 194 313 372T516 732Q567 551 617 373T719 14H794L793 0H619L620 14H704Q683 89 662 164T619 316H297Q254 240 212 165T126 14H210L209 0H35L36 14ZM517 675L512 700L505 686Q502
681 499 675Q453 587 404 502T305 330H615L517 675ZM475 834Q472 814 484 800T517 785Q537 785 553 799T573 834Q575 854 563 868T530 883Q510 883 494 869T475 834ZM461 834Q465 861 485 879T532 897Q559 897 575 879T587 834Q582 807 562 789T515 771Q488 771
472 789T461 834Z" />
<glyph unicode="&#xc6;" glyph-name="AE" horiz-adv-x="775" d="M788 546L808 686H512L466 360H737L735 346H464L417 14H727L747 154H761L740 0H402L446 316H299Q256 240 214 165T128 14H210L209 0H35L36 14H113Q211 186 307 356T500 700H824L802 546H788ZM448
330L495 666Q450 580 403 498T307 330H448Z" />
<glyph unicode="&#xc7;" glyph-name="Ccedilla" horiz-adv-x="610" d="M660 484L683 649Q612 694 520 694Q449 694 383 667T264 592T175 482T129 348Q119 277 137 215T194 107T292 33T421 6Q469 6 515 18T603 54L611 42Q567 19 520 6T422 -8Q420 -17 422 -21Q424
-38 434 -46T455 -61Q475 -76 482 -94T488 -127Q480 -178 452 -200T391 -223Q365 -223 344 -209T318 -165L333 -161Q336 -182 351 -195T392 -209Q423 -209 445 -189T473 -137Q477 -109 466 -94T441 -69T416 -47T407 -16L408 -7Q337 -4 279 24T180 101T123 213T115
349Q125 423 162 488T255 602T379 679T522 708Q573 708 617 695T698 658L674 484H660Z" />
<glyph unicode="&#xc8;" glyph-name="Egrave" horiz-adv-x="571" d="M36 14H118L213 686H131L133 700H620L598 546H584L604 686H227L181 360H533L531 346H179L132 14H523L543 154H557L536 0H35L36 14ZM327 883Q345 850 362 817T398 750H382Q364 783 347 816T312 883H327Z" />
<glyph unicode="&#xc9;" glyph-name="Eacute" horiz-adv-x="571" d="M36 14H118L213 686H131L133 700H620L598 546H584L604 686H227L181 360H533L531 346H179L132 14H523L543 154H557L536 0H35L36 14ZM400 750Q427 783 454 816T508 883H524Q497 850 470 817T416 750H400Z" />
<glyph unicode="&#xca;" glyph-name="Ecircumflex" horiz-adv-x="571" d="M36 14H118L213 686H131L133 700H620L598 546H584L604 686H227L181 360H533L531 346H179L132 14H523L543 154H557L536 0H35L36 14ZM423 931Q447 886 470 841T518 750H502Q481 788 461 827T419
904Q387 866 357 827T294 750H278Q314 795 350 840T423 931Z" />
<glyph unicode="&#xcb;" glyph-name="Edieresis" horiz-adv-x="571" d="M36 14H118L213 686H131L133 700H620L598 546H584L604 686H227L181 360H533L531 346H179L132 14H523L543 154H557L536 0H35L36 14ZM460 790Q462 798 468 804T483 810Q491 810 496 804T500
790Q499 782 493 776T478 770Q470 770 465 776T460 790ZM295 790Q297 798 303 804T318 810Q326 810 331 804T335 790Q334 782 328 776T313 770Q305 770 300 776T295 790Z" />
<glyph unicode="&#xcc;" glyph-name="Igrave" horiz-adv-x="244" d="M36 14H113L208 686H131L133 700H307L305 686H222L127 14H210L209 0H35L36 14ZM149 883Q167 850 184 817T220 750H204Q186 783 169 816T134 883H149Z" />
<glyph unicode="&#xcd;" glyph-name="Iacute" horiz-adv-x="244" d="M36 14H113L208 686H131L133 700H307L305 686H222L127 14H210L209 0H35L36 14ZM220 750Q247 783 274 816T328 883H344Q317 850 290 817T236 750H220Z" />
<glyph unicode="&#xce;" glyph-name="Icircumflex" horiz-adv-x="244" d="M36 14H113L208 686H131L133 700H307L305 686H222L127 14H210L209 0H35L36 14ZM252 931Q276 886 299 841T347 750H331Q310 788 290 827T248 904Q216 866 186 827T123 750H107Q143 795 179
840T252 931Z" />
<glyph unicode="&#xcf;" glyph-name="Idieresis" horiz-adv-x="241" d="M36 14H113L208 686H131L133 700H307L305 686H222L127 14H210L209 0H35L36 14ZM298 790Q300 798 306 804T321 810Q329 810 334 804T338 790Q337 782 331 776T316 770Q308 770 303 776T298
790ZM133 790Q135 798 141 804T156 810Q164 810 169 804T173 790Q172 782 166 776T151 770Q143 770 138 776T133 790Z" />
<glyph unicode="&#xd0;" glyph-name="Eth" horiz-adv-x="632" d="M94 360H158L204 686H131L133 700H343Q415 700 475 676T577 606T638 495T646 350Q637 291 608 229T526 116T395 33T211 0H35L36 14H109L156 346H92L94 360ZM218 686L172 360H396L394 346H170L124
15H222Q321 15 394 46T518 126T597 234T633 350Q644 427 626 489T569 595T472 662T347 686H218Z" />
<glyph unicode="&#xd1;" glyph-name="Ntilde" horiz-adv-x="802" d="M41 14H118L212 686H135L137 700H240L701 28L716 2L718 34L809 686H731L733 700H907L905 686H823L723 -32L240 670L225 690L223 664L132 14H215L213 0H39L41 14ZM511 790Q497 808 486 814T461
820Q453 820 442 818T421 809T401 793T387 765Q384 766 381 766T375 767Q382 804 410 819T466 834Q486 834 501 824T530 796Q543 778 554 772T579 766Q587 766 598 768T620 777T640 793T653 821Q656 820 659 820T666 819Q658 782 631 767T575 752Q555 752 540 762T511
790Z" />
<glyph unicode="&#xd2;" glyph-name="Ograve" horiz-adv-x="786" d="M85 349Q95 423 132 488T225 602T349 679T492 708Q566 708 627 680T731 603T792 489T801 349Q790 275 753 210T661 97T536 20T392 -8Q318 -8 257 20T154 96T93 210T85 349ZM99 348Q89 277 107
215T164 107T262 33T390 6Q461 6 528 33T650 106T740 215T787 349Q797 420 779 482T720 592T620 666T490 694Q419 694 353 667T234 592T145 482T99 348ZM446 883Q464 850 481 817T517 750H501Q483 783 466 816T431 883H446Z" />
<glyph unicode="&#xd3;" glyph-name="Oacute" horiz-adv-x="786" d="M85 349Q95 423 132 488T225 602T349 679T492 708Q566 708 627 680T731 603T792 489T801 349Q790 275 753 210T661 97T536 20T392 -8Q318 -8 257 20T154 96T93 210T85 349ZM99 348Q89 277 107
215T164 107T262 33T390 6Q461 6 528 33T650 106T740 215T787 349Q797 420 779 482T720 592T620 666T490 694Q419 694 353 667T234 592T145 482T99 348ZM499 750Q526 783 553 816T607 883H623Q596 850 569 817T515 750H499Z" />
<glyph unicode="&#xd4;" glyph-name="Ocircumflex" horiz-adv-x="786" d="M85 349Q95 423 132 488T225 602T349 679T492 708Q566 708 627 680T731 603T792 489T801 349Q790 275 753 210T661 97T536 20T392 -8Q318 -8 257 20T154 96T93 210T85 349ZM99 348Q89 277
107 215T164 107T262 33T390 6Q461 6 528 33T650 106T740 215T787 349Q797 420 779 482T720 592T620 666T490 694Q419 694 353 667T234 592T145 482T99 348ZM524 931Q548 886 571 841T619 750H603Q582 788 562 827T520 904Q488 866 458 827T395 750H379Q415 795
451 840T524 931Z" />
<glyph unicode="&#xd5;" glyph-name="Otilde" horiz-adv-x="786" d="M85 349Q95 423 132 488T225 602T349 679T492 708Q566 708 627 680T731 603T792 489T801 349Q790 275 753 210T661 97T536 20T392 -8Q318 -8 257 20T154 96T93 210T85 349ZM99 348Q89 277 107
215T164 107T262 33T390 6Q461 6 528 33T650 106T740 215T787 349Q797 420 779 482T720 592T620 666T490 694Q419 694 353 667T234 592T145 482T99 348ZM492 790Q478 808 467 814T442 820Q434 820 423 818T402 809T382 793T368 765Q365 766 362 766T356 767Q363
804 391 819T447 834Q467 834 482 824T511 796Q524 778 535 772T560 766Q568 766 579 768T601 777T621 793T634 821Q637 820 640 820T647 819Q639 782 612 767T556 752Q536 752 521 762T492 790Z" />
<glyph unicode="&#xd6;" glyph-name="Odieresis" horiz-adv-x="786" d="M85 349Q95 423 132 488T225 602T349 679T492 708Q566 708 627 680T731 603T792 489T801 349Q790 275 753 210T661 97T536 20T392 -8Q318 -8 257 20T154 96T93 210T85 349ZM99 348Q89 277
107 215T164 107T262 33T390 6Q461 6 528 33T650 106T740 215T787 349Q797 420 779 482T720 592T620 666T490 694Q419 694 353 667T234 592T145 482T99 348ZM562 790Q564 798 570 804T585 810Q593 810 598 804T602 790Q601 782 595 776T580 770Q572 770 567 776T562
790ZM397 790Q399 798 405 804T420 810Q428 810 433 804T437 790Q436 782 430 776T415 770Q407 770 402 776T397 790Z" />
<glyph unicode="&#xd7;" glyph-name="multiply" horiz-adv-x="500" d="M385 0Q358 31 332 61T279 123Q244 92 210 62T140 0Q138 2 136 5T131 10Q166 41 200 71T270 133L166 254L178 264L282 143Q317 174 352 204T422 265Q424 263 426 260T430 255Q395 224 360
194T290 133Q316 102 343 72T396 10L385 0Z" />
<glyph unicode="&#xd8;" glyph-name="Oslash" horiz-adv-x="786" d="M99 348Q88 272 108 207T174 95Q304 228 431 358T689 622Q650 656 600 675T490 694Q419 694 353 667T234 592T145 482T99 348ZM390 6Q461 6 528 33T650 106T740 215T787 349Q798 429 773 498T697
615Q567 482 440 351T182 87Q222 49 274 28T390 6ZM85 349Q95 423 132 488T225 602T349 679T492 708Q554 708 606 688T701 633L773 708L781 700Q762 681 745 663T709 626Q762 576 787 505T801 349Q790 275 753 210T661 97T536 20T392 -8Q326 -8 270 14T172 77Q152
56 131 35T90 -8Q88 -6 86 -4T82 0Q103 21 123 42T165 85Q117 134 96 202T85 349Z" />
<glyph unicode="&#xd9;" glyph-name="Ugrave" horiz-adv-x="674" d="M134 700H308L306 686H223L159 229Q151 175 161 134T195 64T255 21T338 6Q383 6 424 20T497 63T551 133T581 229L645 686H562L564 700H738L736 686H659L594 226Q586 169 563 125T506 52T428
7T337 -8Q289 -8 250 7T184 51T147 125T144 226L209 686H132L134 700ZM384 883Q402 850 419 817T455 750H439Q421 783 404 816T369 883H384Z" />
<glyph unicode="&#xda;" glyph-name="Uacute" horiz-adv-x="674" d="M134 700H308L306 686H223L159 229Q151 175 161 134T195 64T255 21T338 6Q383 6 424 20T497 63T551 133T581 229L645 686H562L564 700H738L736 686H659L594 226Q586 169 563 125T506 52T428
7T337 -8Q289 -8 250 7T184 51T147 125T144 226L209 686H132L134 700ZM437 750Q464 783 491 816T545 883H561Q534 850 507 817T453 750H437Z" />
<glyph unicode="&#xdb;" glyph-name="Ucircumflex" horiz-adv-x="674" d="M134 700H308L306 686H223L159 229Q151 175 161 134T195 64T255 21T338 6Q383 6 424 20T497 63T551 133T581 229L645 686H562L564 700H738L736 686H659L594 226Q586 169 563 125T506 52T428
7T337 -8Q289 -8 250 7T184 51T147 125T144 226L209 686H132L134 700ZM468 931Q492 886 515 841T563 750H547Q526 788 506 827T464 904Q432 866 402 827T339 750H323Q359 795 395 840T468 931Z" />
<glyph unicode="&#xdc;" glyph-name="Udieresis" horiz-adv-x="674" d="M134 700H308L306 686H223L159 229Q151 175 161 134T195 64T255 21T338 6Q383 6 424 20T497 63T551 133T581 229L645 686H562L564 700H738L736 686H659L594 226Q586 169 563 125T506 52T428
7T337 -8Q289 -8 250 7T184 51T147 125T144 226L209 686H132L134 700ZM509 791Q511 799 517 805T532 811Q540 811 545 805T549 791Q548 783 542 777T527 771Q519 771 514 777T509 791ZM344 791Q346 799 352 805T367 811Q375 811 380 805T384 791Q383 783 377 777T362
771Q354 771 349 777T344 791Z" />
<glyph unicode="&#xdd;" glyph-name="Yacute" horiz-adv-x="718" d="M274 14H353L388 262Q339 368 291 474T193 686H131L133 700H307L305 686H210Q255 588 300 492T388 298L397 272H398L412 298L698 686H605L607 700H781L779 686H715Q637 579 559 474T402 262L367
14H448L447 0H273L274 14ZM474 750Q501 783 528 816T582 883H598Q571 850 544 817T490 750H474Z" />
<glyph unicode="&#xde;" glyph-name="Thorn" horiz-adv-x="481" d="M36 14H107L202 686H131L133 700H307L305 686H216L195 535H321Q350 535 383 525T444 494T487 439T496 357Q484 274 422 225T256 176H144L121 14H210L209 0H35L36 14ZM146 190H261Q319 190 359
206T426 246T465 300T482 357Q486 390 476 419T442 471T385 507T309 521H193L146 190Z" />
<glyph unicode="&#xdf;" glyph-name="germandbls" horiz-adv-x="542" d="M38 14H121L171 370H106L108 384H173L178 426Q186 481 207 524T257 596T322 640T396 658Q425 657 449 646T489 615T513 569T516 514Q510 470 480 437T406 389Q438 381 464 363T507 320T532
263T535 195Q529 153 508 116T455 52T384 8T302 -8Q244 -8 200 22L207 33Q247 5 301 5Q341 5 378 20T445 62T495 122T521 195Q526 233 516 266T484 325T429 366T357 381Q357 383 357 384T358 388L359 396Q385 396 409 404T452 428T485 465T501 511Q505 537 499
561T479 603T443 633T394 644Q360 644 327 629T267 586T220 519T193 430L133 0H36L38 14Z" />
<glyph unicode="&#xe0;" glyph-name="agrave" horiz-adv-x="532" d="M62 188Q68 228 88 264T138 326T205 367T283 383Q314 383 340 374T388 349T425 310T447 260Q451 289 456 317T467 375H477L426 14H499L497 0H410L418 54Q420 70 423 85T428 117Q399 63 346 29T229
-6Q188 -6 155 9T100 50T67 112T62 188ZM76 188Q71 150 80 118T110 61T161 22T230 8Q267 8 302 22T366 60T413 117T437 188Q442 225 433 258T402 316T350 355T281 369Q243 369 209 355T146 316T100 258T76 188ZM230 612Q248 579 265 546T301 479H285Q267 512 250
545T215 612H230Z" />
<glyph unicode="&#xe1;" glyph-name="aacute" horiz-adv-x="532" d="M62 188Q68 228 88 264T138 326T205 367T283 383Q314 383 340 374T388 349T425 310T447 260Q451 289 456 317T467 375H477L426 14H499L497 0H410L418 54Q420 70 423 85T428 117Q399 63 346 29T229
-6Q188 -6 155 9T100 50T67 112T62 188ZM76 188Q71 150 80 118T110 61T161 22T230 8Q267 8 302 22T366 60T413 117T437 188Q442 225 433 258T402 316T350 355T281 369Q243 369 209 355T146 316T100 258T76 188ZM325 479Q352 512 379 545T433 612H449Q422 579 395
546T341 479H325Z" />
<glyph unicode="&#xe2;" glyph-name="acircumflex" horiz-adv-x="532" d="M62 188Q68 228 88 264T138 326T205 367T283 383Q314 383 340 374T388 349T425 310T447 260Q451 289 456 317T467 375H477L426 14H499L497 0H410L418 54Q420 70 423 85T428 117Q399 63
346 29T229 -6Q188 -6 155 9T100 50T67 112T62 188ZM76 188Q71 150 80 118T110 61T161 22T230 8Q267 8 302 22T366 60T413 117T437 188Q442 225 433 258T402 316T350 355T281 369Q243 369 209 355T146 316T100 258T76 188ZM350 660Q374 615 397 570T445 479H429Q408
517 388 556T346 633Q314 595 284 556T221 479H205Q241 524 277 569T350 660Z" />
<glyph unicode="&#xe3;" glyph-name="atilde" horiz-adv-x="532" d="M62 188Q68 228 88 264T138 326T205 367T283 383Q314 383 340 374T388 349T425 310T447 260Q451 289 456 317T467 375H477L426 14H499L497 0H410L418 54Q420 70 423 85T428 117Q399 63 346 29T229
-6Q188 -6 155 9T100 50T67 112T62 188ZM76 188Q71 150 80 118T110 61T161 22T230 8Q267 8 302 22T366 60T413 117T437 188Q442 225 433 258T402 316T350 355T281 369Q243 369 209 355T146 316T100 258T76 188ZM291 497Q277 515 266 521T241 527Q233 527 222 525T201
516T181 500T167 472Q164 473 161 473T155 474Q162 511 190 526T246 541Q266 541 281 531T310 503Q323 485 334 479T359 473Q367 473 378 475T400 484T420 500T433 528Q436 527 439 527T446 526Q438 489 411 474T355 459Q335 459 320 469T291 497Z" />
<glyph unicode="&#xe4;" glyph-name="adieresis" horiz-adv-x="532" d="M62 188Q68 228 88 264T138 326T205 367T283 383Q314 383 340 374T388 349T425 310T447 260Q451 289 456 317T467 375H477L426 14H499L497 0H410L418 54Q420 70 423 85T428 117Q399 63 346
29T229 -6Q188 -6 155 9T100 50T67 112T62 188ZM76 188Q71 150 80 118T110 61T161 22T230 8Q267 8 302 22T366 60T413 117T437 188Q442 225 433 258T402 316T350 355T281 369Q243 369 209 355T146 316T100 258T76 188ZM377 500Q379 508 385 514T400 520Q408 520
413 514T417 500Q416 492 410 486T395 480Q387 480 382 486T377 500ZM212 500Q214 508 220 514T235 520Q243 520 248 514T252 500Q251 492 245 486T230 480Q222 480 217 486T212 500Z" />
<glyph unicode="&#xe5;" glyph-name="aring" horiz-adv-x="532" d="M62 188Q68 228 88 264T138 326T205 367T283 383Q314 383 340 374T388 349T425 310T447 260Q451 289 456 317T467 375H477L426 14H499L497 0H410L418 54Q420 70 423 85T428 117Q399 63 346 29T229
-6Q188 -6 155 9T100 50T67 112T62 188ZM76 188Q71 150 80 118T110 61T161 22T230 8Q267 8 302 22T366 60T413 117T437 188Q442 225 433 258T402 316T350 355T281 369Q243 369 209 355T146 316T100 258T76 188ZM260 540Q257 520 269 506T302 491Q322 491 338 505T358
540Q360 560 348 574T315 589Q295 589 279 575T260 540ZM246 540Q250 567 270 585T317 603Q344 603 360 585T372 540Q367 513 347 495T300 477Q273 477 257 495T246 540Z" />
<glyph unicode="&#xe6;" glyph-name="ae" horiz-adv-x="580" d="M381 241L374 191Q422 209 469 227T565 264Q551 310 515 338T428 367Q410 367 394 364T361 354Q379 338 383 311T381 241ZM358 177H264Q248 177 217 177T153 172T94 148T64 97Q60 68 71 50T102 21T147
8T195 4Q220 4 245 8T292 24T328 55T348 105L358 177ZM128 332L116 344Q126 352 141 358T174 370T210 378T245 381Q317 381 348 364Q388 381 430 381Q488 381 529 347T582 257Q529 237 477 217T372 176L365 128Q360 89 348 64T309 20Q340 6 378 6Q414 6 447 19T509
55Q511 52 512 50T516 44Q487 20 451 6T376 -8Q330 -8 294 10Q254 -10 192 -10Q157 -10 129 -5T81 12T54 44T49 96Q53 123 68 141T106 170T157 186T214 191H360L367 243Q371 274 370 297T355 336T315 359T242 367Q228 367 212 364T180 356T151 345T128 332Z" />
<glyph unicode="&#xe7;" glyph-name="ccedilla" horiz-adv-x="387" d="M337 47L345 37Q344 36 335 32T312 22T284 9T256 -2T235 -9T226 -10Q224 -32 236 -42T260 -61Q280 -76 287 -94T292 -127Q285 -178 257 -200T195 -223Q177 -223 162 -217Q147 -210 137 -198T122
-165L138 -161Q141 -183 157 -196T197 -209Q228 -209 250 -189T277 -137Q281 -109 270 -94T245 -69T220 -47T211 -16L212 -6Q173 -5 141 10T86 51T54 113T50 188Q56 228 76 264T126 326T193 367T271 383Q306 383 336 372T388 340L376 252H362L373 332Q352 349 326
359T269 369Q231 369 197 355T134 316T88 258T64 188Q59 150 68 118T98 61T149 22T218 8Q250 8 280 18T337 47Z" />
<glyph unicode="&#xe8;" glyph-name="egrave" horiz-adv-x="435" d="M281 369Q236 369 196 349T127 295T84 220T75 135Q162 168 247 200T418 266Q404 312 368 340T281 369ZM435 259Q345 224 257 191T78 122Q91 71 131 40T230 8Q266 8 300 21T361 57Q363 54 365
52T369 46Q339 22 304 8T229 -6Q188 -6 155 9T100 50T67 112T62 188Q68 228 88 264T138 326T205 367T283 383Q341 383 382 349T435 259ZM185 612Q203 579 220 546T256 479H240Q222 512 205 545T170 612H185Z" />
<glyph unicode="&#xe9;" glyph-name="eacute" horiz-adv-x="435" d="M281 369Q236 369 196 349T127 295T84 220T75 135Q162 168 247 200T418 266Q404 312 368 340T281 369ZM435 259Q345 224 257 191T78 122Q91 71 131 40T230 8Q266 8 300 21T361 57Q363 54 365
52T369 46Q339 22 304 8T229 -6Q188 -6 155 9T100 50T67 112T62 188Q68 228 88 264T138 326T205 367T283 383Q341 383 382 349T435 259ZM287 479Q314 512 341 545T395 612H411Q384 579 357 546T303 479H287Z" />
<glyph unicode="&#xea;" glyph-name="ecircumflex" horiz-adv-x="435" d="M281 369Q236 369 196 349T127 295T84 220T75 135Q162 168 247 200T418 266Q404 312 368 340T281 369ZM435 259Q345 224 257 191T78 122Q91 71 131 40T230 8Q266 8 300 21T361 57Q363 54
365 52T369 46Q339 22 304 8T229 -6Q188 -6 155 9T100 50T67 112T62 188Q68 228 88 264T138 326T205 367T283 383Q341 383 382 349T435 259ZM327 660Q351 615 374 570T422 479H406Q385 517 365 556T323 633Q291 595 261 556T198 479H182Q218 524 254 569T327 660Z"
/>
<glyph unicode="&#xeb;" glyph-name="edieresis" horiz-adv-x="435" d="M281 369Q236 369 196 349T127 295T84 220T75 135Q162 168 247 200T418 266Q404 312 368 340T281 369ZM435 259Q345 224 257 191T78 122Q91 71 131 40T230 8Q266 8 300 21T361 57Q363 54
365 52T369 46Q339 22 304 8T229 -6Q188 -6 155 9T100 50T67 112T62 188Q68 228 88 264T138 326T205 367T283 383Q341 383 382 349T435 259ZM299 500Q301 508 307 514T322 520Q330 520 335 514T339 500Q338 492 332 486T317 480Q309 480 304 486T299 500ZM134 500Q136
508 142 514T157 520Q165 520 170 514T174 500Q173 492 167 486T152 480Q144 480 139 486T134 500Z" />
<glyph unicode="&#xec;" glyph-name="igrave" horiz-adv-x="244" d="M36 14H118L167 361H85L87 375H183L132 14H210L209 0H35L36 14ZM119 612Q137 579 154 546T190 479H174Q156 512 139 545T104 612H119Z" />
<glyph unicode="&#xed;" glyph-name="iacute" horiz-adv-x="244" d="M36 14H118L167 361H85L87 375H183L132 14H210L209 0H35L36 14ZM187 479Q214 512 241 545T295 612H311Q284 579 257 546T203 479H187Z" />
<glyph unicode="&#xee;" glyph-name="icircumflex" horiz-adv-x="244" d="M36 14H118L167 361H85L87 375H183L132 14H210L209 0H35L36 14ZM459 660Q483 615 506 570T554 479H538Q517 517 497 556T455 633Q423 595 393 556T330 479H314Q350 524 386 569T459 660Z" />
<glyph unicode="&#xef;" glyph-name="idieresis" horiz-adv-x="244" d="M36 14H118L167 361H85L87 375H183L132 14H210L209 0H35L36 14ZM503 500Q505 508 511 514T526 520Q534 520 539 514T543 500Q542 492 536 486T521 480Q513 480 508 486T503 500ZM338 500Q340
508 346 514T361 520Q369 520 374 514T378 500Q377 492 371 486T356 480Q348 480 343 486T338 500Z" />
<glyph unicode="&#xf0;" glyph-name="eth" horiz-adv-x="459" d="M76 188Q71 150 80 118T110 61T161 22T230 8Q267 8 302 22T366 60T413 117T437 188Q442 225 433 258T402 316T350 355T281 369Q243 369 209 355T146 316T100 258T76 188ZM206 547Q228 567 250 588T294
629Q275 652 255 674T212 717Q215 720 219 726Q263 689 303 637Q323 657 343 675T384 714Q386 712 387 711T391 707Q370 687 350 668T309 629Q343 581 372 526T422 414T450 300T451 188Q445 147 425 112T375 51T307 9T229 -6Q188 -6 155 9T100 50T67 112T62 188Q68
228 88 264T138 326T205 367T283 383Q334 383 373 359T434 295Q429 352 399 437T299 620Q278 600 257 580T213 539Q211 542 206 547Z" />
<glyph unicode="&#xf1;" glyph-name="ntilde" horiz-adv-x="522" d="M314 14H393L430 277Q434 313 413 339T348 368Q314 368 282 357T224 327T181 280T158 220L129 14H210L209 0H35L36 14H115L164 361H89L91 375H174L169 322Q167 309 166 300T163 277Q190 324
238 353T343 382Q396 382 422 351T443 270L407 14H488L487 0H313L314 14ZM321 743Q307 761 296 767T271 773Q263 773 252 771T231 762T211 746T197 718Q194 719 191 719T185 720Q192 757 220 772T276 787Q296 787 311 777T340 749Q353 731 364 725T389 719Q397
719 408 721T430 730T450 746T463 774Q466 773 469 773T476 772Q468 735 441 720T385 705Q365 705 350 715T321 743Z" />
<glyph unicode="&#xf2;" glyph-name="ograve" horiz-adv-x="461" d="M63 188Q69 228 89 264T139 326T206 368T284 384Q324 384 358 369T415 327T448 264T453 188Q447 147 427 112T377 51T308 9T230 -6Q189 -6 156 9T101 50T68 112T63 188ZM77 188Q72 150 81 118T111
61T162 22T231 8Q268 8 303 22T367 60T414 117T438 188Q443 225 434 258T403 316T351 355T282 369Q244 369 210 355T147 316T101 258T77 188ZM229 612Q247 579 264 546T300 479H284Q266 512 249 545T214 612H229Z" />
<glyph unicode="&#xf3;" glyph-name="oacute" horiz-adv-x="461" d="M63 188Q69 228 89 264T139 326T206 368T284 384Q324 384 358 369T415 327T448 264T453 188Q447 147 427 112T377 51T308 9T230 -6Q189 -6 156 9T101 50T68 112T63 188ZM77 188Q72 150 81 118T111
61T162 22T231 8Q268 8 303 22T367 60T414 117T438 188Q443 225 434 258T403 316T351 355T282 369Q244 369 210 355T147 316T101 258T77 188ZM300 479Q327 512 354 545T408 612H424Q397 579 370 546T316 479H300Z" />
<glyph unicode="&#xf4;" glyph-name="ocircumflex" horiz-adv-x="461" d="M63 188Q69 228 89 264T139 326T206 368T284 384Q324 384 358 369T415 327T448 264T453 188Q447 147 427 112T377 51T308 9T230 -6Q189 -6 156 9T101 50T68 112T63 188ZM77 188Q72 150
81 118T111 61T162 22T231 8Q268 8 303 22T367 60T414 117T438 188Q443 225 434 258T403 316T351 355T282 369Q244 369 210 355T147 316T101 258T77 188ZM331 660Q355 615 378 570T426 479H410Q389 517 369 556T327 633Q295 595 265 556T202 479H186Q222 524 258
569T331 660Z" />
<glyph unicode="&#xf5;" glyph-name="otilde" horiz-adv-x="461" d="M63 188Q69 228 89 264T139 326T206 368T284 384Q324 384 358 369T415 327T448 264T453 188Q447 147 427 112T377 51T308 9T230 -6Q189 -6 156 9T101 50T68 112T63 188ZM77 188Q72 150 81 118T111
61T162 22T231 8Q268 8 303 22T367 60T414 117T438 188Q443 225 434 258T403 316T351 355T282 369Q244 369 210 355T147 316T101 258T77 188ZM291 497Q277 515 266 521T241 527Q233 527 222 525T201 516T181 500T167 472Q164 473 161 473T155 474Q162 511 190 526T246
541Q266 541 281 531T310 503Q323 485 334 479T359 473Q367 473 378 475T400 484T420 500T433 528Q436 527 439 527T446 526Q438 489 411 474T355 459Q335 459 320 469T291 497Z" />
<glyph unicode="&#xf6;" glyph-name="odieresis" horiz-adv-x="461" d="M63 188Q69 228 89 264T139 326T206 368T284 384Q324 384 358 369T415 327T448 264T453 188Q447 147 427 112T377 51T308 9T230 -6Q189 -6 156 9T101 50T68 112T63 188ZM77 188Q72 150 81
118T111 61T162 22T231 8Q268 8 303 22T367 60T414 117T438 188Q443 225 434 258T403 316T351 355T282 369Q244 369 210 355T147 316T101 258T77 188ZM361 500Q363 508 369 514T384 520Q392 520 397 514T401 500Q400 492 394 486T379 480Q371 480 366 486T361 500ZM196
500Q198 508 204 514T219 520Q227 520 232 514T236 500Q235 492 229 486T214 480Q206 480 201 486T196 500Z" />
<glyph unicode="&#xf7;" glyph-name="divide" horiz-adv-x="501" d="M428 210H68L69 224H429L428 210ZM248 341Q250 349 256 355T271 361Q279 361 284 355T288 341Q287 333 280 327T265 321Q257 321 252 327T248 341ZM213 91Q214 99 221 105T236 111Q244 111 249
105T253 91Q251 83 245 77T230 71Q222 71 217 77T213 91Z" />
<glyph unicode="&#xf8;" glyph-name="oslash" horiz-adv-x="458" d="M76 188Q71 150 80 117T112 58Q180 127 247 196T382 335Q362 351 336 360T281 369Q243 369 209 355T146 316T100 258T76 188ZM231 8Q268 8 303 22T366 60T413 117T437 188Q443 230 430 266T391
327Q323 258 256 189T120 50Q164 8 231 8ZM62 188Q68 228 88 264T138 326T205 367T283 383Q315 383 343 373T393 346Q402 355 411 364T429 383Q431 381 433 379T437 375Q429 366 420 357T401 338Q430 312 443 273T451 188Q445 147 425 112T375 51T307 9T229 -6Q193
-6 163 6T109 39Q98 27 87 16T64 -8Q62 -6 60 -4T56 0Q67 12 78 23T101 47Q77 73 67 109T62 188Z" />
<glyph unicode="&#xf9;" glyph-name="ugrave" horiz-adv-x="518" d="M88 375H181L142 98Q139 62 160 36T224 7Q258 7 290 18T348 48T391 95T414 155L443 361H364L366 375H459L408 14H485L483 0H400L405 53L409 98Q382 50 334 22T230 -7Q177 -7 151 24T129 105L165
361H86L88 375ZM233 612Q251 579 268 546T304 479H288Q270 512 253 545T218 612H233Z" />
<glyph unicode="&#xfa;" glyph-name="uacute" horiz-adv-x="518" d="M88 375H181L142 98Q139 62 160 36T224 7Q258 7 290 18T348 48T391 95T414 155L443 361H364L366 375H459L408 14H485L483 0H400L405 53L409 98Q382 50 334 22T230 -7Q177 -7 151 24T129 105L165
361H86L88 375ZM309 479Q336 512 363 545T417 612H433Q406 579 379 546T325 479H309Z" />
<glyph unicode="&#xfb;" glyph-name="ucircumflex" horiz-adv-x="518" d="M88 375H181L142 98Q139 62 160 36T224 7Q258 7 290 18T348 48T391 95T414 155L443 361H364L366 375H459L408 14H485L483 0H400L405 53L409 98Q382 50 334 22T230 -7Q177 -7 151 24T129
105L165 361H86L88 375ZM352 660Q376 615 399 570T447 479H431Q410 517 390 556T348 633Q316 595 286 556T223 479H207Q243 524 279 569T352 660Z" />
<glyph unicode="&#xfc;" glyph-name="udieresis" horiz-adv-x="518" d="M88 375H181L142 98Q139 62 160 36T224 7Q258 7 290 18T348 48T391 95T414 155L443 361H364L366 375H459L408 14H485L483 0H400L405 53L409 98Q382 50 334 22T230 -7Q177 -7 151 24T129 105L165
361H86L88 375ZM391 500Q393 508 399 514T414 520Q422 520 427 514T431 500Q430 492 424 486T409 480Q401 480 396 486T391 500ZM226 500Q228 508 234 514T249 520Q257 520 262 514T266 500Q265 492 259 486T244 480Q236 480 231 486T226 500Z" />
<glyph unicode="&#xfd;" glyph-name="yacute" horiz-adv-x="590" d="M93 -236H174Q211 -178 248 -120T323 -4Q290 87 257 178T192 361H120L122 375H283L281 361H210Q241 273 272 187T335 14Q388 97 444 185T556 361H501L503 375H642L640 361H574Q477 211 383 63T193
-236H267L266 -250H92L93 -236ZM391 479Q418 512 445 545T499 612H515Q488 579 461 546T407 479H391Z" />
<glyph unicode="&#xfe;" glyph-name="thorn" horiz-adv-x="498" d="M-52 -236H24L161 736H84L86 750H260L258 736H175L116 321Q114 305 111 289T106 257Q121 284 142 307T189 346T245 372T306 381Q346 381 379 366T435 325T468 263T473 187Q467 146 447 111T396
49T329 8T251 -8Q188 -8 145 26T88 115Q86 101 85 88T81 61L39 -236H121L119 -250H-54L-52 -236ZM459 187Q464 224 455 257T424 314T372 353T304 367Q266 367 232 353T169 315T122 257T98 187Q93 149 102 117T133 59T184 20T253 6Q290 6 325 20T388 59T435 116T459
187Z" />
<glyph unicode="&#xff;" glyph-name="ydieresis" horiz-adv-x="590" d="M93 -236H174Q211 -178 248 -120T323 -4Q290 87 257 178T192 361H120L122 375H283L281 361H210Q241 273 272 187T335 14Q388 97 444 185T556 361H501L503 375H642L640 361H574Q477 211 383
63T193 -236H267L266 -250H92L93 -236ZM468 500Q470 508 476 514T491 520Q499 520 504 514T508 500Q507 492 501 486T486 480Q478 480 473 486T468 500ZM303 500Q305 508 311 514T326 520Q334 520 339 514T343 500Q342 492 336 486T321 480Q313 480 308 486T303
500Z" />
<glyph unicode="&#x2013;" glyph-name="endash" horiz-adv-x="509" d="M100 179L101 193H402L401 179H100Z" />
<glyph unicode="&#x2014;" glyph-name="emdash" horiz-adv-x="700" d="M99 179L100 193H602L601 179H99Z" />
<glyph unicode="&#x2018;" glyph-name="quoteleft" horiz-adv-x="164" d="M94 590Q92 585 90 581T86 572Q60 598 53 634T59 711Q64 709 68 708T77 704Q66 669 71 640T94 590Z" />
<glyph unicode="&#x2019;" glyph-name="quoteright" horiz-adv-x="164" d="M65 572Q63 577 63 581T61 590Q85 610 98 639T110 704Q115 706 120 707T130 711Q133 671 115 635T65 572Z" />
<glyph unicode="&#x201a;" glyph-name="quotesinglbase" horiz-adv-x="146" d="M26 -47Q24 -42 24 -38T22 -29Q46 -9 59 20T71 85Q76 87 81 88T91 92Q94 52 76 16T26 -47Z" />
<glyph unicode="&#x201c;" glyph-name="quotedblleft" horiz-adv-x="249" d="M189 590Q187 585 185 581T181 572Q155 598 148 634T154 711Q159 709 163 708T172 704Q161 669 166 640T189 590ZM85 590Q83 585 81 581T77 572Q51 598 44 634T50 711Q55 709 59 708T68
704Q57 669 62 640T85 590Z" />
<glyph unicode="&#x201d;" glyph-name="quotedblright" horiz-adv-x="248" d="M50 572Q48 577 48 581T46 590Q70 610 83 639T95 704Q100 706 105 707T115 711Q118 671 100 635T50 572ZM154 572Q152 577 152 581T150 590Q174 610 187 639T199 704Q204 706 209 707T219
711Q222 671 204 635T154 572Z" />
<glyph unicode="&#x201e;" glyph-name="quotedblbase" horiz-adv-x="234" d="M26 -47Q24 -42 24 -38T22 -29Q46 -9 59 20T71 85Q76 87 81 88T91 92Q94 52 76 16T26 -47ZM130 -47Q128 -42 128 -38T126 -29Q150 -9 163 20T175 85Q180 87 185 88T195 92Q198 52 180
16T130 -47Z" />
<glyph unicode="&#x2022;" glyph-name="bullet" horiz-adv-x="479" d="M183 300Q187 328 208 347T257 366Q285 366 301 347T314 300Q310 273 289 254T239 235Q212 235 196 254T183 300Z" />
<glyph unicode="&#x2039;" glyph-name="guilsinglleft" horiz-adv-x="392" d="M288 77L139 239Q188 280 236 319T333 400L331 383Q290 347 250 311T168 239Q198 202 229 166T290 93L288 77Z" />
<glyph unicode="&#x203a;" glyph-name="guilsinglright" horiz-adv-x="392" d="M119 93Q160 130 200 166T281 239Q251 275 221 311T160 383L162 400Q199 359 236 320T310 239L117 77L119 93Z" />
</font>
</defs>
</svg>
