<?xml version="1.0" standalone="no"?>
<!DOCTYPE svg PUBLIC "-//W3C//DTD SVG 1.1//EN" "http://www.w3.org/Graphics/SVG/1.1/DTD/svg11.dtd">
<svg xmlns="http://www.w3.org/2000/svg">
<defs >
<font id="QuattrocentoSans" horiz-adv-x="434" ><font-face
    font-family="Quattrocento Sans"
    units-per-em="1000"
    panose-1="2 11 8 2 5 0 0 2 0 3"
    ascent="848"
    descent="-260"
    alphabetic="0" />
<glyph unicode=" " glyph-name="space" horiz-adv-x="245" />
<glyph unicode="!" glyph-name="exclam" horiz-adv-x="270" d="M91 180L67 682H204L178 180H91ZM62 59Q62 87 83 107T133 128Q162 128 184 108T206 58Q206 29 184 9T132 -12Q103 -12 83 9T62 59Z" />
<glyph unicode="&quot;" glyph-name="quotedbl" horiz-adv-x="376" d="M71 516L50 732H171L147 516H71ZM228 516L207 732H328L304 516H228Z" />
<glyph unicode="#" glyph-name="numbersign" horiz-adv-x="617" d="M481 461H582L566 379H463L444 290H552L535 207H427L383 0H279L323 207H237L193 0H89L133 207H36L53 290H150L169 379H67L83 461H187L228 654H332L291 461H377L418 654H522L481 461ZM254 290H340L359
379H273L254 290Z" />
<glyph unicode="$" glyph-name="dollar" horiz-adv-x="518" d="M305 662Q346 658 382 649T446 627L419 521Q395 537 365 548T305 565V391Q338 378 369 362T426 321T466 263T481 181Q481 136 467 103T429 47T373 11T305 -8V-96H225V-11Q168 -8 120 7T36 43L65 146Q97
121 136 105T225 84V293Q196 303 166 316T111 352T70 408T54 492Q54 535 67 566T103 618T157 649T225 663V750H305V662ZM371 169Q371 203 351 225T305 261V91Q339 100 355 120T371 169ZM160 500Q160 471 177 454T225 422V567Q195 562 178 546T160 500Z" />
<glyph unicode="%" glyph-name="percent" horiz-adv-x="838" d="M231 -24H141L604 691H694L231 -24ZM193 665Q230 665 259 650T308 610T339 552T350 481Q350 445 340 411T309 351T258 310T189 294Q151 294 123 308T75 348T46 406T36 477Q36 516 46 550T77 610T127
650T193 665ZM190 359Q210 359 224 368T247 394T260 432T265 479Q265 533 247 566T191 600Q153 600 138 567T122 483Q122 421 140 390T190 359ZM646 366Q683 366 712 351T761 311T792 253T803 182Q803 146 793 112T762 52T711 11T642 -5Q604 -5 576 9T528 49T499
107T489 178Q489 217 499 251T530 311T580 351T646 366ZM643 60Q663 60 677 69T700 95T713 133T718 180Q718 234 700 267T644 301Q606 301 591 268T575 184Q575 122 593 91T643 60Z" />
<glyph unicode="&amp;" glyph-name="ampersand" horiz-adv-x="705" d="M668 442V365L524 354Q556 298 556 235Q556 186 536 140L672 0H548L485 65Q450 30 399 9T282 -12Q226 -12 183 3T111 45T68 106T53 176Q53 203 61 231T86 286T128 334T187 370Q158 404 142
438T126 516Q126 553 137 580T169 627T217 655T274 665Q308 665 345 654T417 621L389 525Q380 533 367 541T340 556T310 567T282 572Q258 572 242 556T225 508Q225 476 243 451T287 398L459 220Q460 225 460 231T461 243Q461 266 454 292T427 346L378 343V405L668
442ZM291 84Q331 84 363 97T417 134L247 307Q228 302 214 290T189 263T174 228T169 190Q169 136 203 110T291 84Z" />
<glyph unicode="&apos;" glyph-name="quotesingle" horiz-adv-x="219" d="M71 516L50 732H171L147 516H71Z" />
<glyph unicode="(" glyph-name="parenleft" horiz-adv-x="327" d="M311 746Q273 701 245 655T199 557T173 449T164 326Q164 287 168 239T188 137T232 25T310 -92L243 -117Q147 -31 94 84T41 327Q41 455 94 569T243 771L311 746Z" />
<glyph unicode=")" glyph-name="parenright" horiz-adv-x="327" d="M84 771Q180 683 233 569T286 327Q286 199 233 84T84 -117L17 -92Q66 -33 95 25T139 137T158 239T163 326Q163 392 155 449T128 557T82 654T16 746L84 771Z" />
<glyph unicode="*" glyph-name="asterisk" horiz-adv-x="440" d="M244 578L336 665L388 576L268 538L388 500L336 411L243 497L271 374H169L196 497L104 411L52 500L171 538L52 576L104 665L196 578L169 702H271L244 578Z" />
<glyph unicode="+" glyph-name="plus" horiz-adv-x="487" d="M289 280H441V198H289V41H197V198H46V280H197V427H289V280Z" />
<glyph unicode="," glyph-name="comma" horiz-adv-x="261" d="M51 -118L96 -5H71V132H190V-20L87 -143L51 -118Z" />
<glyph unicode="-" glyph-name="hyphen" horiz-adv-x="468" d="M403 280V198H65V280H403Z" />
<glyph unicode="." glyph-name="period" horiz-adv-x="255" d="M56 59Q56 73 61 86T77 109T99 126T127 132Q141 132 154 126T177 110T194 86T200 59Q200 44 194 32T178 9T154 -6T127 -12Q98 -12 77 9T56 59Z" />
<glyph unicode="/" glyph-name="slash" horiz-adv-x="451" d="M144 -57H29L307 702H422L144 -57Z" />
<glyph unicode="0" glyph-name="zero" horiz-adv-x="635" d="M318 665Q382 665 431 638T515 564T566 458T584 330Q584 263 566 202T514 93T428 17T311 -12Q246 -12 198 15T117 88T69 194T52 322Q52 393 70 455T122 564T205 638T318 665ZM315 84Q353 84 380 102T426
154T453 232T462 329Q462 382 453 426T426 502T379 551T314 569Q277 569 251 552T208 503T183 427T175 329Q175 208 211 146T315 84Z" />
<glyph unicode="1" glyph-name="one" horiz-adv-x="333" d="M245 0H130V486L49 450L27 550L245 660V0Z" />
<glyph unicode="2" glyph-name="two" horiz-adv-x="504" d="M50 613Q69 623 93 632T144 649T198 661T251 665Q293 665 329 654T390 621T430 569T445 501Q445 450 420 400T356 299T271 199T185 100H452V0H47V100Q86 153 135 204T228 305T302 401T332 493Q332 536
304 554T231 572Q188 572 147 559T73 527L50 613Z" />
<glyph unicode="3" glyph-name="three" horiz-adv-x="529" d="M70 612Q108 635 157 650T256 665Q298 665 333 653T393 620T433 568T447 502Q447 449 420 416T352 359Q412 339 445 299T479 194Q479 152 464 115T418 49T341 5T234 -12Q110 -12 30 56L58 147Q93 118
136 101T228 84Q291 84 323 113T356 200Q356 251 327 280T228 310H201V397H232Q276 397 300 425T324 499Q324 540 299 556T239 573Q220 573 200 569T160 558T125 541T96 520L70 612Z" />
<glyph unicode="4" glyph-name="four" horiz-adv-x="538" d="M494 190H425V0H310V190H26V280L305 660H425V280H494V190ZM310 280V522L139 280H310Z" />
<glyph unicode="5" glyph-name="five" horiz-adv-x="531" d="M73 302L112 665H451V560H205L190 402Q211 408 234 410T276 413Q322 413 360 400T426 360T469 297T485 211Q485 165 470 125T425 54T348 6T240 -12Q179 -12 128 5T37 55L66 150Q81 136 100 125T142
105T188 91T235 86Q260 86 283 92T324 113T352 149T363 204Q363 228 357 248T337 282T300 304T240 312Q209 312 172 306T102 287L73 302Z" />
<glyph unicode="6" glyph-name="six" horiz-adv-x="539" d="M166 331Q183 367 218 384T302 401Q359 401 396 380T455 328T485 262T494 196Q494 160 483 123T446 56T379 7T280 -12Q218 -12 176 10T107 74T68 172T56 300Q56 368 67 433T107 550T183 632T302 664Q320
664 342 662T386 653T430 637T466 612L441 524Q408 549 371 559T306 569Q264 569 236 551T192 502T169 435T162 361Q162 353 162 347T163 332L166 331ZM376 200Q376 221 372 241T358 276T330 301T286 310Q235 310 210 277T184 193Q184 141 210 110T281 79Q326 79
351 111T376 200Z" />
<glyph unicode="7" glyph-name="seven" horiz-adv-x="457" d="M77 0Q76 9 76 19T76 39Q76 98 99 168T160 309T241 445T328 560H37V665H442V560Q399 513 356 446T279 305T224 162T203 40Q203 29 203 19T204 0H77Z" />
<glyph unicode="8" glyph-name="eight" horiz-adv-x="544" d="M372 362Q430 349 461 302T493 188Q493 146 480 110T440 46T370 4T271 -12Q211 -12 169 4T101 48T63 112T51 186Q51 252 83 298T172 361V365Q137 378 111 414T84 505Q84 577 133 621T272 665Q360 665
410 623T460 508Q460 455 435 419T372 366V362ZM378 185Q378 208 372 231T353 272T320 301T271 313Q242 313 222 302T189 272T170 230T164 185Q164 131 193 103T271 75Q319 75 348 103T378 185ZM348 492Q348 531 329 553T271 576Q234 576 214 555T194 493Q194 451
215 427T271 403Q306 403 327 427T348 492Z" />
<glyph unicode="9" glyph-name="nine" horiz-adv-x="539" d="M373 321Q356 285 321 268T237 251Q180 251 143 272T84 324T54 390T45 456Q45 492 56 529T93 596T159 645T259 664Q321 664 363 642T432 578T471 480T483 352Q483 284 472 219T432 102T356 20T237 -12Q219
-12 197 -10T153 -1T109 15T73 40L98 128Q131 103 168 93T233 83Q275 83 302 101T346 150T370 217T377 291Q377 299 377 305T376 320L373 321ZM163 452Q163 431 167 411T181 376T209 351T253 342Q304 342 329 375T355 459Q355 511 329 542T258 573Q213 573 188
541T163 452Z" />
<glyph unicode=":" glyph-name="colon" horiz-adv-x="274" d="M65 59Q65 73 70 86T86 109T108 126T136 132Q150 132 163 126T186 110T203 86T209 59Q209 44 203 32T187 9T163 -6T136 -12Q107 -12 86 9T65 59ZM65 382Q65 396 70 409T86 432T108 449T136 455Q150
455 163 449T186 433T203 409T209 382Q209 367 203 355T187 332T163 317T136 311Q107 311 86 332T65 382Z" />
<glyph unicode=";" glyph-name="semicolon" horiz-adv-x="279" d="M69 382Q69 396 74 409T90 432T112 449T140 455Q154 455 167 449T190 433T207 409T213 382Q213 367 207 355T191 332T167 317T140 311Q111 311 90 332T69 382ZM60 -118L105 -5H80V132H199V-20L96
-143L60 -118Z" />
<glyph unicode="&lt;" glyph-name="less" horiz-adv-x="397" d="M145 238L343 105L325 11L39 208V273L324 467L342 374L145 243V238Z" />
<glyph unicode="=" glyph-name="equal" horiz-adv-x="476" d="M407 204V122H69V204H407ZM407 356V274H69V356H407Z" />
<glyph unicode="&gt;" glyph-name="greater" horiz-adv-x="397" d="M252 243L55 374L73 467L358 273V208L72 11L54 105L252 238V243Z" />
<glyph unicode="?" glyph-name="question" horiz-adv-x="409" d="M36 634Q64 655 105 670T192 686Q229 686 260 674T313 641T348 591T361 528Q361 483 342 447T299 374T255 291T235 181H131Q131 249 150 297T191 381T233 449T252 516Q252 556 228 572T174 588Q142
588 111 574T62 538L36 634ZM114 59Q114 87 135 107T185 128Q214 128 236 108T258 58Q258 29 236 9T184 -12Q155 -12 135 9T114 59Z" />
<glyph unicode="@" glyph-name="at" horiz-adv-x="721" d="M411 320Q402 324 391 324Q371 324 356 311T330 277T314 234T308 191Q308 150 330 150Q339 150 349 157T370 178T388 209T399 248L411 320ZM571 -23Q561 -32 540 -45T488 -71T421 -92T342 -101Q283 -101
230 -81T137 -25T74 64T50 180Q50 237 70 301T134 421T243 512T401 548Q472 548 523 526T608 469T658 390T674 303Q674 257 658 216T615 143T551 93T474 74Q431 74 414 94T397 147Q380 113 351 93T296 73Q281 73 266 80T238 103T218 140T210 193Q210 238 227 274T272
335T332 375T399 389Q412 389 427 387T458 380T485 368T506 350L475 208Q473 198 472 188T471 169Q471 161 474 153T491 145Q508 145 523 158T549 192T566 241T573 296Q573 328 564 359T533 415T479 455T400 471Q339 471 293 445T216 378T169 284T153 180Q153 126
169 88T213 25T277 -11T356 -23Q395 -23 429 -15T491 6T539 33T571 57V-23Z" />
<glyph unicode="A" glyph-name="A" horiz-adv-x="628" d="M639 0H514L439 192H190L122 0H2L258 660H357L639 0ZM222 282H403L308 525L222 282Z" />
<glyph unicode="B" glyph-name="B" horiz-adv-x="570" d="M468 493Q468 453 452 421T400 365Q460 345 494 302T528 193Q528 151 513 114T467 49T390 5T282 -12Q227 -12 175 -9T88 0V660Q99 661 119 661T162 663T208 664T249 665Q355 665 411 622T468 493ZM277
311Q258 311 239 311T203 309V86Q221 84 240 84T279 84Q340 84 374 114T408 201Q408 252 377 281T277 311ZM268 571Q248 571 233 570T203 566V395Q215 394 227 394T253 394Q297 394 322 423T347 501Q347 531 327 551T268 571Z" />
<glyph unicode="C" glyph-name="C" horiz-adv-x="628" d="M552 518Q520 540 476 553T374 567Q320 567 282 550T219 502T184 428T172 331Q172 210 223 148T372 86Q432 86 481 104T563 148L593 49Q553 25 497 7T369 -12Q287 -12 227 15T128 88T69 194T50 323Q50
394 71 456T133 564T236 638T380 665Q434 665 488 654T581 622L552 518Z" />
<glyph unicode="D" glyph-name="D" horiz-adv-x="707" d="M88 660Q101 661 129 662T188 663T247 664T292 665Q389 665 451 645T555 590Q608 544 632 473T656 316Q656 251 640 192T581 87T464 16T273 -11Q231 -11 183 -8T88 0V660ZM301 84Q422 84 477 142T533 331Q533
390 522 434T482 509T407 554T290 569Q276 569 253 569T203 568V88Q231 86 257 85T301 84Z" />
<glyph unicode="E" glyph-name="E" horiz-adv-x="529" d="M403 300H203V100H490V0H88V660H470V560H203V400H403V300Z" />
<glyph unicode="F" glyph-name="F" horiz-adv-x="487" d="M392 300H203V0H88V660H465V560H203V400H392V300Z" />
<glyph unicode="G" glyph-name="G" horiz-adv-x="657" d="M600 55Q555 25 497 7T370 -12Q287 -12 227 15T128 88T69 194T50 323Q50 394 71 456T133 564T237 638T382 665Q438 665 493 654T591 622L559 518Q525 538 480 552T378 567Q321 567 282 551T218 503T183
429T172 330Q172 86 379 86Q416 86 438 92T485 106V272H600V55Z" />
<glyph unicode="H" glyph-name="H" horiz-adv-x="722" d="M634 0H519V290H203V0H88V660H203V390H519V660H634V0Z" />
<glyph unicode="I" glyph-name="I" horiz-adv-x="291" d="M203 0H88V660H203V0Z" />
<glyph unicode="J" glyph-name="J" horiz-adv-x="290" d="M203 101Q203 48 192 2T156 -80T96 -135T9 -156L-13 -69Q22 -69 42 -53T73 -13T85 42T88 102V660H203V101Z" />
<glyph unicode="K" glyph-name="K" horiz-adv-x="609" d="M203 0H88V660H203V372Q260 426 305 477Q347 525 381 570T440 660H566Q522 600 482 550T394 446Q376 426 357 405T318 363L613 0H480L245 289L203 250V0Z" />
<glyph unicode="L" glyph-name="L" horiz-adv-x="497" d="M203 100H478V0H88V660H203V100Z" />
<glyph unicode="M" glyph-name="M" horiz-adv-x="882" d="M444 156L663 660H794V0H680V435L490 0H398L203 435V0H88V660H219L444 156Z" />
<glyph unicode="N" glyph-name="N" horiz-adv-x="722" d="M519 175V660H634V0H493L203 484V0H88V660H229L519 175Z" />
<glyph unicode="O" glyph-name="O" horiz-adv-x="742" d="M371 665Q449 665 509 638T610 565T672 457T693 329Q693 263 673 202T611 93T508 17T364 -12Q284 -12 225 15T127 88T69 194T49 322Q49 393 70 455T133 564T234 638T371 665ZM366 86Q421 86 459 104T523
155T559 232T571 326Q571 380 559 424T522 500T459 549T368 567Q315 567 278 550T217 501T183 427T172 332Q172 210 222 148T366 86Z" />
<glyph unicode="P" glyph-name="P" horiz-adv-x="531" d="M268 248Q251 248 235 248T203 249V0H88V660Q103 661 122 662T163 663T206 664T247 665Q303 665 349 652T428 611T479 545T497 453Q497 411 483 374T441 309T370 265T268 248ZM263 569Q247 569 232 569T203
568V345Q217 344 232 344T265 344Q319 344 346 374T374 461Q374 509 350 539T263 569Z" />
<glyph unicode="Q" glyph-name="Q" horiz-adv-x="745" d="M373 665Q451 665 511 638T612 565T674 457T695 329Q695 265 676 205T617 98T520 22T385 -11Q421 -15 454 -27T519 -51T585 -74T657 -84Q679 -84 703 -80T754 -64L728 -162Q710 -169 693 -171T658 -174Q616
-174 578 -161T502 -132T428 -103T354 -89Q332 -89 299 -97T235 -128L215 -56Q242 -35 273 -24T334 -11Q263 -6 210 23T121 97T69 200T51 322Q51 393 72 455T135 564T236 638T373 665ZM370 86Q424 86 462 105T525 156T561 233T573 329Q573 381 561 425T524 500T461
549T369 567Q316 567 279 550T219 501T185 426T174 329Q174 209 224 148T370 86Z" />
<glyph unicode="R" glyph-name="R" horiz-adv-x="606" d="M250 282Q239 282 228 282T203 283V0H88V660Q104 661 124 662T166 663T205 664T235 665Q363 665 430 617T497 475Q497 416 468 369T371 299L613 0H480L250 282ZM245 569Q237 569 226 569T203 568V378H265Q319
378 347 405T375 482Q375 527 348 548T245 569Z" />
<glyph unicode="S" glyph-name="S" horiz-adv-x="542" d="M172 501Q172 480 181 465T208 439T248 419T301 399Q337 386 372 370T436 329T483 268T501 181Q501 127 482 90T429 31T353 -2T264 -12Q198 -12 141 4T42 43L72 151Q110 122 156 103T263 84Q327 84 356
106T385 167Q385 196 371 216T336 251T292 275T250 290Q218 300 185 314T124 350T79 407T61 492Q61 540 77 573T122 626T189 656T273 665Q328 665 379 654T466 627L439 521Q421 533 400 542T357 557T312 566T269 570Q224 570 198 553T172 501Z" />
<glyph unicode="T" glyph-name="T" horiz-adv-x="539" d="M518 560H327V0H212V560H21V660H518V560Z" />
<glyph unicode="U" glyph-name="U" horiz-adv-x="705" d="M196 256Q196 165 238 126T355 86Q430 86 472 125T515 256V660H625V232Q625 183 609 139T560 62T474 9T349 -11Q277 -11 226 8T143 61T96 139T81 232V660H196V256Z" />
<glyph unicode="V" glyph-name="V" horiz-adv-x="634" d="M-12 660H113L323 140L513 660H633L369 0H278L-12 660Z" />
<glyph unicode="W" glyph-name="W" horiz-adv-x="1042" d="M796 0H701L521 502L342 0H247L1 660H126L295 148L465 660H578L747 148L916 660H1041L796 0Z" />
<glyph unicode="X" glyph-name="X" horiz-adv-x="638" d="M316 267L137 0H11L255 340L26 660H155L322 402L487 660H613L383 339L626 0H497L316 267Z" />
<glyph unicode="Y" glyph-name="Y" horiz-adv-x="564" d="M-12 660H117L286 361L448 660H575L340 271V0H225V267L-12 660Z" />
<glyph unicode="Z" glyph-name="Z" horiz-adv-x="554" d="M511 0H43V100L371 560H58V660H496V560L168 100H511V0Z" />
<glyph unicode="[" glyph-name="bracketleft" horiz-adv-x="281" d="M237 -95H77V749H237V677H182V-23H237V-95Z" />
<glyph unicode="\" glyph-name="backslash" horiz-adv-x="450" d="M29 702H142L420 -57H307L29 702Z" />
<glyph unicode="]" glyph-name="bracketright" horiz-adv-x="281" d="M44 749H204V-95H44V-23H99V677H44V749Z" />
<glyph unicode="^" glyph-name="asciicircum" horiz-adv-x="348" d="M178 673L288 574L291 567L275 538L268 535L174 576L80 535L73 538L57 567L60 574L170 673H178Z" />
<glyph unicode="_" glyph-name="underscore" horiz-adv-x="471" d="M452 0V-82H19V0H452Z" />
<glyph unicode="`" glyph-name="grave" horiz-adv-x="219" d="M200 533L13 602Q6 604 3 612T0 631Q0 648 8 665T30 683Q34 683 40 680L220 579L223 572L208 536L200 533Z" />
<glyph unicode="a" glyph-name="a" horiz-adv-x="501" d="M349 0L341 63H337Q310 29 264 9T169 -12Q106 -12 70 24T34 121Q34 162 51 194T102 249T181 284T284 296H327V311Q327 350 302 368Q276 386 221 386Q147 386 89 353L68 436Q135 475 230 475Q330 475 382
434Q406 415 421 385T437 313V0H349ZM212 77Q244 77 276 92T327 134V225H308Q226 225 189 204T151 137Q151 77 212 77Z" />
<glyph unicode="b" glyph-name="b" horiz-adv-x="574" d="M322 -12Q268 -12 233 10T169 63H165L157 0H69V740H178V414Q201 443 239 459T325 475Q377 475 416 455T481 402T519 326T532 235Q532 182 517 137T475 59T408 7T322 -12ZM308 71Q337 71 358 85T394 121T416
173T423 233Q423 264 416 292T393 343T354 377T299 390Q270 390 239 377T178 326V134Q189 119 205 108T238 88T274 76T308 71Z" />
<glyph unicode="c" glyph-name="c" horiz-adv-x="489" d="M424 346Q413 354 397 362T361 376T322 385T283 389Q249 389 226 377T188 344T167 296T160 240Q160 206 168 177T192 125T232 90T289 77Q325 77 365 91T433 132L453 38Q425 20 377 4T273 -12Q215 -12 172
8T100 61T57 139T42 234Q42 282 55 325T98 402T172 455T280 475Q328 475 374 464T448 435L424 346Z" />
<glyph unicode="d" glyph-name="d" horiz-adv-x="574" d="M252 -12Q205 -12 166 7T100 59T57 137T42 235Q42 282 54 325T93 402T157 455T249 475Q297 475 335 459T396 414V740H505V0H417L409 63H405Q377 32 342 10T252 -12ZM266 71Q282 71 300 75T335 88T369 107T396
134V326Q366 363 335 376T275 390Q243 390 220 378T182 343T159 293T151 233Q151 203 158 174T179 122T215 85T266 71Z" />
<glyph unicode="e" glyph-name="e" horiz-adv-x="505" d="M278 475Q366 475 414 431T462 305Q462 294 461 282T457 257T451 236T443 220H152Q154 190 163 164T189 118T230 87T288 75Q325 75 366 89T437 124L455 42Q442 34 423 25T380 7T329 -6T271 -12Q215 -12
172 7T100 60T56 138T41 230Q41 279 56 323T102 402T176 455T278 475ZM275 389Q233 389 204 365T161 298H352Q353 301 353 305T354 315Q354 347 332 368T275 389Z" />
<glyph unicode="f" glyph-name="f" horiz-adv-x="310" d="M91 393H34V450L91 459Q91 516 94 556T104 623T117 668T133 696Q153 722 185 733T257 745Q262 745 273 745T297 742T325 736T352 724L327 639Q317 645 294 655T249 666Q236 666 227 660T212 638T204 595T201
526V460H289V393H201V0H91V393Z" />
<glyph unicode="g" glyph-name="g" horiz-adv-x="498" d="M130 145Q85 164 65 204T45 291Q45 330 58 364T95 422T154 461T233 475Q259 475 284 470T329 455Q371 456 405 461T472 476L481 469L470 393L465 388L394 396L393 393Q427 350 427 292Q427 257 415 227T378
174T319 138T238 124Q227 124 221 124T208 125Q191 119 182 110T173 90Q173 79 184 71T218 60L315 48Q348 44 376 34T426 7T460 -34T472 -89Q472 -120 459 -149T418 -200T348 -235T245 -248Q192 -248 152 -238T83 -209T41 -167T26 -114Q26 -94 33 -75T52 -39T81
-9T117 10V14Q94 24 85 41T76 74Q76 95 90 113T130 141V145ZM237 201Q278 201 299 227T320 292Q320 310 315 328T299 362T272 386T233 396Q212 396 196 388T170 365T154 334T149 298Q149 280 154 263T171 232T198 210T237 201ZM206 -22Q172 -28 148 -50T124 -102Q124
-134 155 -150T247 -166Q306 -166 341 -150T376 -96Q376 -60 337 -45T206 -22Z" />
<glyph unicode="h" glyph-name="h" horiz-adv-x="552" d="M179 392Q207 436 244 455T333 475Q363 475 391 467T440 439T474 389T487 313V0H377V304Q377 345 359 365T310 386Q291 386 271 380T232 362T200 333T179 295V0H69V740H179V392Z" />
<glyph unicode="i" glyph-name="i" horiz-adv-x="248" d="M179 0H69V460H179V0ZM53 608Q53 622 58 635T74 658T96 675T124 681Q138 681 151 675T174 659T191 635T197 608Q197 593 191 581T175 558T151 543T124 537Q95 537 74 558T53 608Z" />
<glyph unicode="j" glyph-name="j" horiz-adv-x="248" d="M179 -3Q179 -54 168 -100T134 -181T80 -237T4 -258Q-4 -258 -10 -258T-20 -255L-38 -188Q-35 -190 -29 -190T-17 -191Q13 -191 30 -173T56 -126T67 -64T69 -2V460H179V-3ZM53 608Q53 622 58 635T74 658T96
675T124 681Q153 681 175 659T197 607Q197 578 175 558T123 537Q94 537 74 558T53 608Z" />
<glyph unicode="k" glyph-name="k" horiz-adv-x="493" d="M291 298L487 0H367L218 226L179 187V0H69V740H179V313L332 460H455L291 298Z" />
<glyph unicode="l" glyph-name="l" horiz-adv-x="260" d="M185 0H75V740H185V0Z" />
<glyph unicode="m" glyph-name="m" horiz-adv-x="835" d="M367 0V304Q367 386 302 386Q286 386 268 380T232 363T200 334T179 295V0H69V460H155L160 392H164Q184 434 227 454T320 475Q367 475 405 457T463 393Q483 434 526 454T618 475Q650 475 678 467T728 439T762
389T775 313V0H665V304Q665 386 600 386Q584 386 566 380T530 363T498 334T477 295V0H367Z" />
<glyph unicode="n" glyph-name="n" horiz-adv-x="547" d="M377 0V304Q377 386 307 386Q290 386 271 380T233 363T201 334T179 295V0H69V460H155L160 392H164Q185 434 229 454T325 475Q358 475 387 467T438 439T474 389T487 313V0H377Z" />
<glyph unicode="o" glyph-name="o" horiz-adv-x="549" d="M274 475Q335 475 379 455T451 400T493 321T507 227Q507 178 494 135T452 59T380 7T277 -12Q216 -12 172 8T99 61T56 139T42 232Q42 281 56 325T98 402T171 455T274 475ZM276 71Q305 71 326 83T362 117T382
167T389 226Q389 258 382 287T361 339T324 375T271 389Q242 389 221 377T187 343T167 294T160 235Q160 203 166 174T187 121T224 85T276 71Z" />
<glyph unicode="p" glyph-name="p" horiz-adv-x="575" d="M325 475Q379 475 418 455T482 400T520 322T532 229Q532 180 520 136T481 59T416 7T323 -12Q278 -12 240 1T178 43V-260H69V460H157L165 397H169Q182 413 200 427T239 452T282 469T325 475ZM307 391Q292
391 274 387T239 374T205 353T178 326V131Q208 94 239 85T297 75Q330 75 353 87T392 119T415 167T423 227Q423 257 417 286T396 339T359 376T307 391Z" />
<glyph unicode="q" glyph-name="q" horiz-adv-x="575" d="M250 475Q271 475 293 469T336 453T375 428T406 397H410L418 460H506V-260H397V43Q374 14 336 1T252 -12Q198 -12 159 7T94 59T56 136T43 229Q43 277 55 321T92 400T157 454T250 475ZM268 391Q238 391
216 377T180 339T159 287T152 227Q152 195 159 167T182 118T221 85T278 73Q304 73 335 85T397 131V326Q386 341 370 353T337 373T301 386T268 391Z" />
<glyph unicode="r" glyph-name="r" horiz-adv-x="374" d="M332 360Q322 368 301 373T265 378Q245 378 232 369T209 344T192 308T179 267V0H69V460H155L160 364H164Q174 385 185 405T210 440T242 465T286 475Q326 475 361 449L332 360Z" />
<glyph unicode="s" glyph-name="s" horiz-adv-x="433" d="M209 393Q176 393 158 381T139 345Q139 330 149 318T194 297L265 281Q307 272 332 255T372 218T392 177T397 138Q397 106 384 79T347 31T289 0T213 -12Q160 -12 115 3T43 38L69 133Q103 100 145 84T224
68Q262 68 282 84T302 130Q302 147 292 158T252 178L156 202Q122 210 101 225T67 258T50 297T45 335Q45 402 92 438T214 475Q253 475 298 465T374 434L345 344Q325 360 289 376T209 393Z" />
<glyph unicode="t" glyph-name="t" horiz-adv-x="332" d="M90 393H33V453L98 463L116 599H200V460H288V393H200V129Q200 99 206 89T229 78Q242 78 255 83T293 102L311 23Q292 7 258 -2T189 -12Q159 -12 140 -4T109 19T94 57T90 106V393Z" />
<glyph unicode="u" glyph-name="u" horiz-adv-x="539" d="M175 460V161Q175 120 196 99T252 77Q287 77 316 100T359 168V460H470V0H384L378 64H374Q363 41 346 27T309 4T266 -8T223 -12Q190 -12 162 -4T112 22T78 71T65 147V460H175Z" />
<glyph unicode="v" glyph-name="v" horiz-adv-x="524" d="M327 0H194L10 460H125L264 91L409 460H517L327 0Z" />
<glyph unicode="w" glyph-name="w" horiz-adv-x="822" d="M412 320L313 0H180L13 460H128L248 107L357 460H467L576 107L696 460H809L642 0H511L412 320Z" />
<glyph unicode="x" glyph-name="x" horiz-adv-x="508" d="M149 460L257 305L360 460H485L317 237L495 0H370L253 168L139 0H14L191 235L24 460H149Z" />
<glyph unicode="y" glyph-name="y" horiz-adv-x="519" d="M268 133L396 460H502L312 -4Q298 -39 274 -82T216 -164T140 -229T49 -256Q41 -256 37 -256T28 -253L9 -167Q12 -168 16 -169T33 -170Q52 -170 70 -166T108 -150Q144 -127 170 -86T222 15L-7 460H108L268 133Z" />
<glyph unicode="z" glyph-name="z" horiz-adv-x="418" d="M252 371H52V460H366V371L150 89H376V0H42V89L252 371Z" />
<glyph unicode="{" glyph-name="braceleft" horiz-adv-x="292" d="M246 709Q222 706 217 685T211 641Q211 629 211 609T212 568T212 528T213 498Q213 426 192 383T119 327Q170 314 191 271T213 156Q213 145 213 126T212 86T212 46T211 14Q211 -10 216 -31T246
-55L244 -106Q197 -106 169 -96T126 -67T105 -22T100 38Q100 48 100 66T101 105T101 147T102 184Q102 202 101 222T92 259T71 289T30 302V352Q57 353 71 366T92 396T100 431T102 463Q102 484 102 507T101 551T101 589T100 617Q100 649 105 675T125 720T169 749T244
760L246 709Z" />
<glyph unicode="|" glyph-name="bar" horiz-adv-x="256" d="M179 -114H77V768H179V-114Z" />
<glyph unicode="}" glyph-name="braceright" horiz-adv-x="292" d="M46 -55Q70 -52 75 -31T81 13Q81 25 81 45T80 86T80 126T79 156Q79 228 100 271T173 327Q122 340 101 383T79 498Q79 508 79 527T80 568T80 608T81 640Q81 664 76 685T46 709L48 760Q94 760 122
750T166 721T187 676T192 616Q192 605 192 587T191 549T191 507T190 470Q190 452 191 432T200 395T221 365T262 352V302Q235 300 221 288T200 258T192 223T190 191Q190 170 190 147T191 103T191 65T192 37Q192 5 187 -21T167 -67T123 -96T48 -106L46 -55Z" />
<glyph unicode="~" glyph-name="asciitilde" horiz-adv-x="474" d="M411 288Q411 283 406 269T391 238T363 209T320 196Q312 196 287 197T233 200T176 203T134 205Q111 205 99 200T77 183L64 202Q64 210 69 225T86 256T116 282T159 294Q168 294 189 293T235 290T286
287T332 285Q351 285 368 288T399 308L411 288Z" />
<glyph unicode="&#xa0;" glyph-name="uni00A0" horiz-adv-x="245" />
<glyph unicode="&#xa1;" glyph-name="exclamdown" horiz-adv-x="255" d="M171 284L195 -218H58L84 284H171ZM200 405Q200 377 179 357T129 336Q100 336 78 356T56 406Q56 435 78 455T130 476Q159 476 179 455T200 405Z" />
<glyph unicode="&#xa2;" glyph-name="cent" horiz-adv-x="496" d="M331 441Q366 436 396 427T447 405L421 312Q407 325 383 335T331 352V79Q360 86 386 99T432 131L452 38Q432 24 401 12T331 -6V-137H239V-10Q189 -5 152 15T90 66T53 136T41 219Q41 260 52 298T88
366T149 416T239 443V577H331V441ZM148 222Q148 174 172 135T239 81V353Q194 340 171 303T148 222Z" />
<glyph unicode="&#xa3;" glyph-name="sterling" horiz-adv-x="583" d="M227 76Q255 74 282 68T337 54T393 40T451 34Q499 34 544 53L520 -45Q495 -58 478 -61T444 -65Q404 -65 367 -55T293 -32T223 -10T154 1Q133 1 108 -5T54 -35L32 36Q108 65 142 119T176 235V250H83V332H172Q167
376 160 414T153 487Q153 535 170 569T216 624T279 655T349 665Q394 665 438 651T509 616L487 525Q467 545 429 559T353 574Q329 574 314 568T289 550T277 523T273 488Q273 457 279 417T289 332H411V250H291Q289 208 274 163T225 79L227 76Z" />
<glyph unicode="&#xa4;" glyph-name="currency" horiz-adv-x="592" d="M122 112Q83 163 83 230Q83 261 92 289T123 346L48 418L103 473L176 402Q206 422 234 431T295 441Q328 441 356 432T413 402L486 473L541 419L470 346Q490 317 499 289T509 228Q509 196 500
169T471 112L544 40L488 -15L414 56Q359 16 297 16Q266 16 238 25T178 56L105 -15L51 40L122 112ZM296 363Q269 363 245 353T202 324T174 282T163 229Q163 201 173 177T202 134T244 106T297 95Q325 95 349 105T391 134T419 176T429 229Q429 257 419 281T391 324T349
352T296 363Z" />
<glyph unicode="&#xa5;" glyph-name="yen" horiz-adv-x="647" d="M268 255V267L243 308H112V390H194L31 660H160L329 361L491 660H618L455 390H531V308H405L383 271V255H531V173H383V0H268V173H112V255H268Z" />
<glyph unicode="&#xa6;" glyph-name="brokenbar" horiz-adv-x="258" d="M180 274V-114H78V274H180ZM78 380V768H180V380H78Z" />
<glyph unicode="&#xa7;" glyph-name="section" d="M201 550Q201 521 215 499T250 457T296 419T342 380T377 334T391 274Q391 236 374 202T328 145Q339 117 339 84Q339 46 326 18T291 -28T244 -55T194 -64Q161 -64 126 -51T67 -18L100 59Q119 45 140 37T178 29Q204
29 218 47T233 95Q233 124 219 146T184 188T138 226T92 265T57 311T43 371Q43 408 60 443T106 499Q95 529 95 561Q95 599 108 627T143 673T190 700T240 709Q273 709 308 696T367 663L334 586Q315 600 294 608T256 616Q230 616 216 598T201 550ZM132 397Q132 366
148 342T189 297T241 253T292 204Q302 226 302 248Q302 278 286 302T245 348T192 392T141 441Q132 421 132 397Z" />
<glyph unicode="&#xa8;" glyph-name="dieresis" horiz-adv-x="220" d="M0 618Q0 641 17 659T57 677Q80 677 98 659T116 618Q116 595 98 578T57 561Q34 561 17 578T0 618ZM136 618Q136 641 153 659T193 677Q216 677 234 659T252 618Q252 595 234 578T193 561Q170
561 153 578T136 618Z" />
<glyph unicode="&#xa9;" glyph-name="copyright" horiz-adv-x="711" d="M355 654Q418 654 473 631T570 566T635 471T659 354Q659 291 635 236T570 140T472 76T350 52Q289 52 235 76T140 141T76 237T52 354Q52 416 75 470T140 566T237 630T355 654ZM454 427Q440
436 410 443T354 451Q330 451 314 443T287 421T272 390T267 355Q267 315 289 285T357 254Q385 254 413 265T461 290L473 219Q453 206 419 195T347 184Q306 184 276 198T226 235T196 290T186 356Q186 390 195 420T225 474T276 511T352 525Q385 525 417 518T470 497L454
427ZM357 600Q305 600 261 581T183 529T132 452T113 356Q113 303 131 258T181 179T255 126T348 106Q401 106 446 125T524 177T576 255T595 353Q595 404 577 449T526 527T451 580T357 600Z" />
<glyph unicode="&#xaa;" glyph-name="ordfeminine" horiz-adv-x="365" d="M240 369L236 406H232Q216 386 189 374T132 361Q93 361 72 383T51 441Q51 491 91 518T201 546H226V555Q226 567 223 575T211 591Q194 604 165 604Q139 604 120 595T84 574L71 629Q110 658
170 658Q196 658 220 653T262 633Q281 618 290 596T299 550V369H240ZM157 415Q177 415 196 424T226 449V504H215Q165 504 143 491T121 450Q121 415 157 415Z" />
<glyph unicode="&#xab;" glyph-name="guillemotleft" horiz-adv-x="531" d="M144 238L289 61H176L43 239V244L177 420H289L144 243V238ZM338 238L483 61H370L237 239V244L371 420H483L338 243V238Z" />
<glyph unicode="&#xac;" glyph-name="logicalnot" horiz-adv-x="624" d="M549 356V117H456V274H69V356H549Z" />
<glyph unicode="&#xad;" glyph-name="uni00AD" horiz-adv-x="466" d="M401 280V198H65V280H401Z" />
<glyph unicode="&#xae;" glyph-name="registered" horiz-adv-x="711" d="M355 654Q418 654 473 631T570 566T635 471T659 354Q659 291 635 236T570 140T472 76T350 52Q289 52 235 76T140 141T76 237T52 354Q52 416 75 470T140 566T237 630T355 654ZM357 600Q305
600 261 581T183 529T132 452T113 356Q113 303 131 258T181 179T255 126T348 106Q401 106 446 125T524 177T576 255T595 353Q595 404 577 449T526 527T451 580T357 600ZM314 320V201H247V529Q255 530 267 530T291 531T313 532T330 532Q372 532 398 524T440 501T461
467T467 424Q467 397 453 374T413 336L488 201H417L355 320H314ZM314 484V368H343Q371 368 386 386T402 430Q402 453 387 468T330 484H314Z" />
<glyph unicode="&#xb0;" glyph-name="degree" horiz-adv-x="370" d="M184 658Q218 658 244 648T287 619T313 577T322 525Q322 499 314 476T289 436T246 409T184 399Q148 399 122 409T80 437T56 478T48 527Q48 554 57 578T83 619T125 647T184 658ZM184 460Q219
460 233 480T248 527Q248 553 234 573T184 594Q149 594 134 575T118 530Q118 503 134 482T184 460Z" />
<glyph unicode="&#xb1;" glyph-name="plusminus" horiz-adv-x="463" d="M72 366H188V455H280V366H391V284H280V183H188V284H72V366ZM392 123V41H71V123H392Z" />
<glyph unicode="&#xb2;" glyph-name="twosuperior" horiz-adv-x="377" d="M73 606Q105 635 137 650T204 665Q255 665 282 638T310 569Q310 540 297 514T262 463T210 413T147 361H310V299H58V361Q82 388 113 412T172 460T219 508T238 560Q238 566 237 574T231 589T218
600T196 605Q170 605 141 588T90 542L73 606Z" />
<glyph unicode="&#xb3;" glyph-name="threesuperior" horiz-adv-x="340" d="M72 635Q95 649 115 657T163 665Q214 665 242 640T271 576Q271 549 258 532T224 501Q255 490 272 469T290 411Q290 388 282 367T257 330T214 304T151 294Q114 294 93 304T48 332L60 392Q81
375 99 365T147 354Q185 354 202 370T220 416Q220 442 203 456T136 471H124V525H139Q171 525 186 537T202 572Q202 586 194 595T161 605Q135 605 116 596T83 576L72 635Z" />
<glyph unicode="&#xb4;" glyph-name="acute" horiz-adv-x="219" d="M15 536L0 572L3 579L183 680Q189 683 193 683Q207 683 215 666T223 631Q223 620 220 612T210 602L23 533L15 536Z" />
<glyph unicode="&#xb5;" glyph-name="mu" horiz-adv-x="573" d="M217 460V161Q217 120 238 99T294 77Q329 77 358 101T401 169V460H512V0H426L420 64H416Q405 41 388 27T351 4T309 -8T266 -12Q224 -12 191 0L189 -8Q184 -29 179 -47T167 -82T153 -118T135 -158L31
-111Q49 -77 63 -47T86 15T101 78T107 147V460H217Z" />
<glyph unicode="&#xb6;" glyph-name="paragraph" horiz-adv-x="557" d="M248 248H227Q181 248 145 264T84 309T46 374T33 453Q33 505 50 544T98 611T174 651T273 665Q311 665 365 664T467 660V-86H382V569H338V-86H248V248Z" />
<glyph unicode="&#xb7;" glyph-name="middot" horiz-adv-x="267" d="M62 243Q62 257 67 270T83 293T105 310T133 316Q147 316 160 310T183 294T200 270T206 243Q206 228 200 216T184 193T160 178T133 172Q104 172 83 193T62 243Z" />
<glyph unicode="&#xb8;" glyph-name="cedilla" horiz-adv-x="202" d="M0 -193L28 -145H35Q46 -150 63 -153T98 -157Q115 -157 128 -151T142 -127Q142 -109 130 -103T100 -96Q88 -96 76 -98T52 -103L33 -77L84 0H138L113 -41Q128 -37 142 -37Q177 -37 199 -60T221
-119Q221 -139 212 -156T186 -188T146 -210T96 -218Q70 -218 46 -213T1 -199L0 -193Z" />
<glyph unicode="&#xb9;" glyph-name="onesuperior" horiz-adv-x="252" d="M180 299H105V565L48 537L35 589L180 665V299Z" />
<glyph unicode="&#xba;" glyph-name="ordmasculine" horiz-adv-x="392" d="M195 668Q231 668 259 655T306 620T335 570T345 510Q345 481 336 454T308 405T261 372T196 359Q158 359 130 372T84 406T56 456T47 513Q47 544 57 572T86 622T133 655T195 668ZM196 430Q232
430 247 452T263 510Q263 545 246 569T193 594Q156 594 142 571T128 514Q128 479 144 455T196 430Z" />
<glyph unicode="&#xbb;" glyph-name="guillemotright" horiz-adv-x="531" d="M387 243L242 420H354L488 244V239L355 61H242L387 238V243ZM193 243L48 420H160L294 244V239L161 61H48L193 238V243Z" />
<glyph unicode="&#xbc;" glyph-name="onequarter" horiz-adv-x="773" d="M734 91H700V0H632V91H450V153L597 366H700V153H734V91ZM632 153V307L522 153H632ZM178 -24H88L551 691H641L178 -24ZM179 299H104V565L47 537L34 589L179 665V299Z" />
<glyph unicode="&#xbd;" glyph-name="onehalf" horiz-adv-x="779" d="M180 -24H90L553 691H643L180 -24ZM179 299H104V565L47 537L34 589L179 665V299ZM497 307Q529 336 561 351T628 366Q679 366 706 339T734 270Q734 241 721 215T686 164T634 114T571 62H734V0H482V62Q506
89 537 113T596 161T643 209T662 261Q662 267 661 275T655 290T642 301T620 306Q594 306 565 289T514 243L497 307Z" />
<glyph unicode="&#xbe;" glyph-name="threequarters" horiz-adv-x="774" d="M60 635Q83 649 103 657T151 665Q202 665 230 640T259 576Q259 549 246 532T212 501Q243 490 260 469T278 411Q278 388 270 367T245 330T202 304T139 294Q102 294 81 304T36 332L48 392Q69
375 87 365T135 354Q173 354 190 370T208 416Q208 442 191 456T124 471H112V525H127Q159 525 174 537T190 572Q190 586 182 595T149 605Q123 605 104 596T71 576L60 635ZM200 -24H110L573 691H663L200 -24ZM736 91H702V0H634V91H452V153L599 366H702V153H736V91ZM634
153V307L524 153H634Z" />
<glyph unicode="&#xbf;" glyph-name="questiondown" horiz-adv-x="401" d="M368 -170Q340 -191 299 -206T212 -222Q175 -222 144 -210T91 -177T56 -127T43 -64Q43 -19 62 17T105 90T149 173T169 283H273Q273 215 254 167T213 83T171 15T152 -52Q152 -92 176 -108T230
-124Q262 -124 293 -110T342 -74L368 -170ZM290 405Q290 377 269 357T219 336Q190 336 168 356T146 406Q146 435 168 455T220 476Q249 476 269 455T290 405Z" />
<glyph unicode="&#xc0;" glyph-name="Agrave" horiz-adv-x="628" d="M639 1H514L439 193H190L122 1H2L258 661H357L639 1ZM222 283H403L308 526L222 283ZM405 698L218 767Q211 769 208 777T205 796Q205 813 213 830T235 848Q239 848 245 845L425 744L428 737L413
701L405 698Z" />
<glyph unicode="&#xc1;" glyph-name="Aacute" horiz-adv-x="628" d="M639 0H514L439 192H190L122 0H2L258 660H357L639 0ZM222 282H403L308 525L222 282ZM217 702L202 738L205 745L385 846Q391 849 395 849Q409 849 417 832T425 797Q425 786 422 778T412 768L225
699L217 702Z" />
<glyph unicode="&#xc2;" glyph-name="Acircumflex" horiz-adv-x="628" d="M639 0H514L439 192H190L122 0H2L258 660H357L639 0ZM222 282H403L308 525L222 282ZM323 842L433 743L436 736L420 707L413 704L319 745L225 704L218 707L202 736L205 743L315 842H323Z" />
<glyph unicode="&#xc3;" glyph-name="Atilde" horiz-adv-x="628" d="M639 0H514L439 192H190L122 0H2L258 660H357L639 0ZM222 282H403L308 525L222 282ZM473 818Q470 802 464 786T447 756T421 735T383 726Q371 726 356 728T322 733T286 738T250 740Q227 740 208
735T175 715L162 738Q168 756 174 772T192 801T219 821T260 829Q289 829 323 822T385 815Q403 815 422 820T461 841L473 818Z" />
<glyph unicode="&#xc4;" glyph-name="Adieresis" horiz-adv-x="628" d="M639 0H514L439 192H190L122 0H2L258 660H357L639 0ZM222 282H403L308 525L222 282ZM192 783Q192 806 209 824T249 842Q272 842 290 824T308 783Q308 760 290 743T249 726Q226 726 209 743T192
783ZM328 783Q328 806 345 824T385 842Q408 842 426 824T444 783Q444 760 426 743T385 726Q362 726 345 743T328 783Z" />
<glyph unicode="&#xc5;" glyph-name="Aring" horiz-adv-x="635" d="M311 792Q355 792 381 765T407 703Q407 681 396 664T368 635L647 0H518L443 202H194L126 0H2L255 635Q236 646 225 664T214 705Q214 740 240 766T311 792ZM226 292H407L312 525L226 292ZM312
664Q327 664 337 676T347 703Q347 719 337 730T310 742Q293 742 283 732T273 706Q273 689 284 677T312 664Z" />
<glyph unicode="&#xc6;" glyph-name="AE" horiz-adv-x="757" d="M717 0H386V190H209L108 0H-14L338 660H697V558H495V401H630V299H495V102H717V0ZM386 290V524L262 290H386Z" />
<glyph unicode="&#xc7;" glyph-name="Ccedilla" horiz-adv-x="629" d="M258 -193L286 -145H293Q304 -150 321 -153T356 -157Q373 -157 386 -151T400 -127Q400 -109 388 -103T358 -96Q346 -96 334 -98T310 -103L291 -77L335 -10Q262 -4 209 24T120 98T68 201T51
323Q51 394 72 456T134 564T237 638T381 665Q435 665 489 654T582 622L553 518Q521 540 477 553T375 567Q321 567 283 550T220 502T185 428T173 331Q173 210 224 148T373 86Q433 86 482 104T564 148L594 49Q556 26 505 9T389 -11L371 -41Q386 -37 400 -37Q435 -37
457 -60T479 -119Q479 -139 470 -156T444 -188T404 -210T354 -218Q328 -218 304 -213T259 -199L258 -193Z" />
<glyph unicode="&#xc8;" glyph-name="Egrave" horiz-adv-x="529" d="M403 300H203V100H490V0H88V660H470V560H203V400H403V300ZM374 698L187 767Q180 769 177 777T174 796Q174 813 182 830T204 848Q208 848 214 845L394 744L397 737L382 701L374 698Z" />
<glyph unicode="&#xc9;" glyph-name="Eacute" horiz-adv-x="529" d="M403 300H203V100H490V0H88V660H470V560H203V400H403V300ZM201 701L186 737L189 744L369 845Q375 848 379 848Q393 848 401 831T409 796Q409 785 406 777T396 767L209 698L201 701Z" />
<glyph unicode="&#xca;" glyph-name="Ecircumflex" horiz-adv-x="529" d="M403 300H203V100H490V0H88V660H470V560H203V400H403V300ZM300 842L410 743L413 736L397 707L390 704L296 745L202 704L195 707L179 736L182 743L292 842H300Z" />
<glyph unicode="&#xcb;" glyph-name="Edieresis" horiz-adv-x="529" d="M403 300H203V100H490V0H88V660H470V560H203V400H403V300ZM161 784Q161 807 178 825T218 843Q241 843 259 825T277 784Q277 761 259 744T218 727Q195 727 178 744T161 784ZM297 784Q297 807
314 825T354 843Q377 843 395 825T413 784Q413 761 395 744T354 727Q331 727 314 744T297 784Z" />
<glyph unicode="&#xcc;" glyph-name="Igrave" horiz-adv-x="291" d="M203 0H88V660H203V0ZM222 698L35 767Q28 769 25 777T22 796Q22 813 30 830T52 848Q56 848 62 845L242 744L245 737L230 701L222 698Z" />
<glyph unicode="&#xcd;" glyph-name="Iacute" horiz-adv-x="291" d="M88 660H203V0H88V660ZM61 701L46 737L49 744L229 845Q235 848 239 848Q253 848 261 831T269 796Q269 785 266 777T256 767L69 698L61 701Z" />
<glyph unicode="&#xce;" glyph-name="Icircumflex" horiz-adv-x="291" d="M203 0H88V660H203V0ZM147 842L257 743L260 736L244 707L237 704L143 745L49 704L42 707L26 736L29 743L139 842H147Z" />
<glyph unicode="&#xcf;" glyph-name="Idieresis" horiz-adv-x="291" d="M203 0H88V660H203V0ZM21 783Q21 806 38 824T78 842Q101 842 119 824T137 783Q137 760 119 743T78 726Q55 726 38 743T21 783ZM157 783Q157 806 174 824T214 842Q237 842 255 824T273 783Q273
760 255 743T214 726Q191 726 174 743T157 783Z" />
<glyph unicode="&#xd0;" glyph-name="Eth" horiz-adv-x="714" d="M94 660Q107 661 135 662T194 663T253 664T298 665Q395 665 457 645T561 590Q614 544 638 473T662 316Q662 251 646 192T587 87T470 16T279 -11Q237 -11 189 -8T94 0V311H20V385H94V660ZM357 385V311H209V88Q237
86 263 85T307 84Q428 84 483 142T539 331Q539 390 528 434T488 509T413 554T296 569Q282 569 259 569T209 568V385H357Z" />
<glyph unicode="&#xd1;" glyph-name="Ntilde" horiz-adv-x="722" d="M203 484V0H88V660H229L519 175V660H634V0H493L203 484ZM500 818Q497 802 491 786T474 756T448 735T410 726Q398 726 383 728T349 733T313 738T277 740Q254 740 235 735T202 715L189 738Q195
756 201 772T219 801T246 821T287 829Q316 829 350 822T412 815Q430 815 449 820T488 841L500 818Z" />
<glyph unicode="&#xd2;" glyph-name="Ograve" horiz-adv-x="742" d="M371 665Q449 665 509 638T610 565T672 457T693 329Q693 263 673 202T611 93T508 17T364 -12Q284 -12 225 15T127 88T69 194T49 322Q49 393 70 455T133 564T234 638T371 665ZM366 86Q421 86
459 104T523 155T559 232T571 326Q571 380 559 424T522 500T459 549T368 567Q315 567 278 550T217 501T183 427T172 332Q172 210 222 148T366 86ZM430 698L243 767Q236 769 233 777T230 796Q230 813 238 830T260 848Q264 848 270 845L450 744L453 737L438 701L430
698Z" />
<glyph unicode="&#xd3;" glyph-name="Oacute" horiz-adv-x="742" d="M371 665Q449 665 509 638T610 565T672 457T693 329Q693 263 673 202T611 93T508 17T364 -12Q284 -12 225 15T127 88T69 194T49 322Q49 393 70 455T133 564T234 638T371 665ZM366 86Q421 86
459 104T523 155T559 232T571 326Q571 380 559 424T522 500T459 549T368 567Q315 567 278 550T217 501T183 427T172 332Q172 210 222 148T366 86ZM313 701L298 737L301 744L481 845Q487 848 491 848Q505 848 513 831T521 796Q521 785 518 777T508 767L321 698L313
701Z" />
<glyph unicode="&#xd4;" glyph-name="Ocircumflex" horiz-adv-x="742" d="M371 665Q449 665 509 638T610 565T672 457T693 329Q693 263 673 202T611 93T508 17T364 -12Q284 -12 225 15T127 88T69 194T49 322Q49 393 70 455T133 564T234 638T371 665ZM366 86Q421
86 459 104T523 155T559 232T571 326Q571 380 559 424T522 500T459 549T368 567Q315 567 278 550T217 501T183 427T172 332Q172 210 222 148T366 86ZM385 842L495 743L498 736L482 707L475 704L381 745L287 704L280 707L264 736L267 743L377 842H385Z" />
<glyph unicode="&#xd5;" glyph-name="Otilde" horiz-adv-x="742" d="M371 665Q449 665 509 638T610 565T672 457T693 329Q693 263 673 202T611 93T508 17T364 -12Q284 -12 225 15T127 88T69 194T49 322Q49 393 70 455T133 564T234 638T371 665ZM366 86Q421 86
459 104T523 155T559 232T571 326Q571 380 559 424T522 500T459 549T368 567Q315 567 278 550T217 501T183 427T172 332Q172 210 222 148T366 86ZM527 818Q524 802 518 786T501 756T475 735T437 726Q425 726 410 728T376 733T340 738T304 740Q281 740 262 735T229
715L216 738Q222 756 228 772T246 801T273 821T314 829Q343 829 377 822T439 815Q457 815 476 820T515 841L527 818Z" />
<glyph unicode="&#xd6;" glyph-name="Odieresis" horiz-adv-x="742" d="M371 665Q449 665 509 638T610 565T672 457T693 329Q693 263 673 202T611 93T508 17T364 -12Q284 -12 225 15T127 88T69 194T49 322Q49 393 70 455T133 564T234 638T371 665ZM366 86Q421
86 459 104T523 155T559 232T571 326Q571 380 559 424T522 500T459 549T368 567Q315 567 278 550T217 501T183 427T172 332Q172 210 222 148T366 86ZM246 783Q246 806 263 824T303 842Q326 842 344 824T362 783Q362 760 344 743T303 726Q280 726 263 743T246 783ZM382
783Q382 806 399 824T439 842Q462 842 480 824T498 783Q498 760 480 743T439 726Q416 726 399 743T382 783Z" />
<glyph unicode="&#xd7;" glyph-name="multiply" horiz-adv-x="456" d="M228 187L115 74L63 126L176 239L63 351L115 403L228 291L342 405L394 353L280 239L394 124L343 73L228 187Z" />
<glyph unicode="&#xd8;" glyph-name="Oslash" horiz-adv-x="743" d="M372 665Q423 665 466 653T544 620L611 699L692 637L620 553Q657 507 675 450T694 329Q694 263 674 202T612 93T509 17T365 -12Q310 -12 265 1T184 38L111 -48L35 20L111 110Q80 154 65 208T50
322Q50 393 71 455T134 564T235 638T372 665ZM367 86Q422 86 460 104T524 155T560 232T572 326Q572 407 545 464L253 119Q298 86 367 86ZM173 332Q173 256 192 205L476 541Q432 567 369 567Q316 567 279 550T218 501T184 427T173 332Z" />
<glyph unicode="&#xd9;" glyph-name="Ugrave" horiz-adv-x="705" d="M196 256Q196 165 238 126T355 86Q430 86 472 125T515 256V660H625V232Q625 183 609 139T560 62T474 9T349 -11Q277 -11 226 8T143 61T96 139T81 232V660H196V256ZM428 698L241 767Q234 769
231 777T228 796Q228 813 236 830T258 848Q262 848 268 845L448 744L451 737L436 701L428 698Z" />
<glyph unicode="&#xda;" glyph-name="Uacute" horiz-adv-x="705" d="M196 256Q196 165 238 126T355 86Q430 86 472 125T515 256V660H625V232Q625 183 609 139T560 62T474 9T349 -11Q277 -11 226 8T143 61T96 139T81 232V660H196V256ZM272 701L257 737L260 744L440
845Q446 848 450 848Q464 848 472 831T480 796Q480 785 477 777T467 767L280 698L272 701Z" />
<glyph unicode="&#xdb;" glyph-name="Ucircumflex" horiz-adv-x="705" d="M196 256Q196 165 238 126T355 86Q430 86 472 125T515 256V660H625V232Q625 183 609 139T560 62T474 9T349 -11Q277 -11 226 8T143 61T96 139T81 232V660H196V256ZM353 842L463 743L466
736L450 707L443 704L349 745L255 704L248 707L232 736L235 743L345 842H353Z" />
<glyph unicode="&#xdc;" glyph-name="Udieresis" horiz-adv-x="705" d="M196 256Q196 165 238 126T355 86Q430 86 472 125T515 256V660H625V232Q625 183 609 139T560 62T474 9T349 -11Q277 -11 226 8T143 61T96 139T81 232V660H196V256ZM239 783Q239 806 256 824T296
842Q319 842 337 824T355 783Q355 760 337 743T296 726Q273 726 256 743T239 783ZM375 783Q375 806 392 824T432 842Q455 842 473 824T491 783Q491 760 473 743T432 726Q409 726 392 743T375 783Z" />
<glyph unicode="&#xdd;" glyph-name="Yacute" horiz-adv-x="564" d="M-12 660H117L286 361L448 660H575L340 271V0H225V267L-12 660ZM226 701L211 737L214 744L394 845Q400 848 404 848Q418 848 426 831T434 796Q434 785 431 777T421 767L234 698L226 701Z" />
<glyph unicode="&#xde;" glyph-name="Thorn" horiz-adv-x="532" d="M203 550H247Q303 550 349 537T428 496T479 430T497 338Q497 296 483 259T441 194T370 150T268 133Q251 133 235 133T203 134V0H88V660H203V550ZM263 454Q247 454 232 454T203 453V230Q217 229
232 229T265 229Q319 229 346 259T374 346Q374 394 350 424T263 454Z" />
<glyph unicode="&#xdf;" glyph-name="germandbls" horiz-adv-x="553" d="M169 0H69V486Q69 542 81 588T119 667T181 718T269 736Q306 736 336 725T387 695T419 652T431 601Q431 567 415 539T380 485T345 436T329 390Q329 369 343 354T380 323T428 292T476 255T512
205T527 138Q527 93 511 62T470 11T418 -18T366 -27Q330 -27 300 -14T249 17L278 122Q295 93 319 74T373 55Q393 55 408 73T423 127Q423 162 409 186T374 227T328 259T282 290T247 328T233 383Q233 418 247 445T279 496T311 544T326 596Q326 620 311 637T265 655Q233
655 215 641T186 604T172 550T169 486V0Z" />
<glyph unicode="&#xe0;" glyph-name="agrave" horiz-adv-x="501" d="M349 0L341 63H337Q310 29 264 9T169 -12Q106 -12 70 24T34 121Q34 162 51 194T102 249T181 284T284 296H327V311Q327 350 302 368Q276 386 221 386Q147 386 89 353L68 436Q135 475 230 475Q330
475 382 434Q406 415 421 385T437 313V0H349ZM212 77Q244 77 276 92T327 134V225H308Q226 225 189 204T151 137Q151 77 212 77ZM305 531L118 600Q111 602 108 610T105 629Q105 646 113 663T135 681Q139 681 145 678L325 577L328 570L313 534L305 531Z" />
<glyph unicode="&#xe1;" glyph-name="aacute" horiz-adv-x="501" d="M349 0L341 63H337Q310 29 264 9T169 -12Q106 -12 70 24T34 121Q34 162 51 194T102 249T181 284T284 296H327V311Q327 350 302 368Q276 386 221 386Q147 386 89 353L68 436Q135 475 230 475Q330
475 382 434Q406 415 421 385T437 313V0H349ZM212 77Q244 77 276 92T327 134V225H308Q226 225 189 204T151 137Q151 77 212 77ZM194 535L179 571L182 578L362 679Q368 682 372 682Q386 682 394 665T402 630Q402 619 399 611T389 601L202 532L194 535Z" />
<glyph unicode="&#xe2;" glyph-name="acircumflex" horiz-adv-x="501" d="M349 0L341 63H337Q310 29 264 9T169 -12Q106 -12 70 24T34 121Q34 162 51 194T102 249T181 284T284 296H327V311Q327 350 302 368Q276 386 221 386Q147 386 89 353L68 436Q135 475 230
475Q330 475 382 434Q406 415 421 385T437 313V0H349ZM212 77Q244 77 276 92T327 134V225H308Q226 225 189 204T151 137Q151 77 212 77ZM246 673L356 574L359 567L343 538L336 535L242 576L148 535L141 538L125 567L128 574L238 673H246Z" />
<glyph unicode="&#xe3;" glyph-name="atilde" horiz-adv-x="501" d="M349 0L341 63H337Q310 29 264 9T169 -12Q106 -12 70 24T34 121Q34 162 51 194T102 249T181 284T284 296H327V311Q327 350 302 368Q276 386 221 386Q147 386 89 353L68 436Q135 475 230 475Q330
475 382 434Q406 415 421 385T437 313V0H349ZM212 77Q244 77 276 92T327 134V225H308Q226 225 189 204T151 137Q151 77 212 77ZM405 658Q402 642 396 626T379 596T353 575T315 566Q303 566 288 568T254 573T218 578T182 580Q159 580 140 575T107 555L94 578Q100
596 106 612T124 641T151 661T192 669Q221 669 255 662T317 655Q335 655 354 660T393 681L405 658Z" />
<glyph unicode="&#xe4;" glyph-name="adieresis" horiz-adv-x="501" d="M349 0L341 63H337Q310 29 264 9T169 -12Q106 -12 70 24T34 121Q34 162 51 194T102 249T181 284T284 296H327V311Q327 350 302 368Q276 386 221 386Q147 386 89 353L68 436Q135 475 230 475Q330
475 382 434Q406 415 421 385T437 313V0H349ZM212 77Q244 77 276 92T327 134V225H308Q226 225 189 204T151 137Q151 77 212 77ZM126 612Q126 635 143 653T183 671Q206 671 224 653T242 612Q242 589 224 572T183 555Q160 555 143 572T126 612ZM262 612Q262 635 279
653T319 671Q342 671 360 653T378 612Q378 589 360 572T319 555Q296 555 279 572T262 612Z" />
<glyph unicode="&#xe5;" glyph-name="aring" horiz-adv-x="501" d="M256 693Q278 693 295 686T324 666T342 639T349 608Q349 578 326 553T257 528Q233 528 216 535T187 554T170 580T164 610Q164 642 188 667T256 693ZM257 572Q273 572 282 583T291 608Q291 622
282 635T255 649Q238 649 230 637T221 611Q221 597 231 585T257 572ZM349 0L341 63H337Q310 29 264 9T169 -12Q106 -12 70 24T34 121Q34 162 51 194T102 249T181 284T284 296H327V311Q327 350 302 368Q276 386 221 386Q147 386 89 353L68 436Q135 475 230 475Q330
475 382 434Q406 415 421 385T437 313V0H349ZM212 77Q244 77 276 92T327 134V225H308Q226 225 189 204T151 137Q151 77 212 77Z" />
<glyph unicode="&#xe6;" glyph-name="ae" horiz-adv-x="802" d="M575 475Q663 475 711 431T759 305Q759 294 758 282T754 257T748 236T740 220H449Q451 190 460 164T486 118T527 87T585 75Q622 75 663 89T734 124L752 42Q739 34 720 25T677 7T626 -6T568 -12Q506
-12 461 11T386 74Q344 26 289 7T173 -12Q138 -12 112 -2T69 26T43 68T34 121Q34 178 61 212T127 265T209 290T285 296H327V305Q327 332 319 346T296 371Q283 379 269 382T231 386Q187 386 154 377T89 353L68 436Q140 475 237 475Q259 475 282 472T328 462T371
442T406 410Q436 440 478 457T575 475ZM212 77Q241 77 274 91T327 134V227H320Q291 227 261 224T207 211T167 182T151 130Q151 104 167 91T212 77ZM572 389Q527 389 499 364T458 298H649Q650 303 650 307T650 316Q650 352 627 370T572 389Z" />
<glyph unicode="&#xe7;" glyph-name="ccedilla" horiz-adv-x="490" d="M425 346Q414 354 398 362T362 376T323 385T284 389Q250 389 227 377T189 344T168 296T161 240Q161 206 169 177T193 125T233 90T290 77Q326 77 366 91T434 132L454 38Q428 21 386 7T295 -11L277
-41Q292 -37 306 -37Q341 -37 363 -60T385 -119Q385 -139 376 -156T350 -188T310 -210T260 -218Q234 -218 210 -213T165 -199L164 -193L192 -145H199Q210 -150 227 -153T262 -157Q279 -157 292 -151T306 -127Q306 -109 294 -103T264 -96Q252 -96 240 -98T216 -103L197
-77L241 -10Q191 -4 154 17T92 71T55 146T43 234Q43 282 56 325T99 402T173 455T281 475Q329 475 375 464T449 435L425 346Z" />
<glyph unicode="&#xe8;" glyph-name="egrave" horiz-adv-x="505" d="M278 475Q366 475 414 431T462 305Q462 294 461 282T457 257T451 236T443 220H152Q154 190 163 164T189 118T230 87T288 75Q325 75 366 89T437 124L455 42Q442 34 423 25T380 7T329 -6T271 -12Q215
-12 172 7T100 60T56 138T41 230Q41 279 56 323T102 402T176 455T278 475ZM330 531L143 600Q136 602 133 610T130 629Q130 646 138 663T160 681Q164 681 170 678L350 577L353 570L338 534L330 531ZM275 389Q230 389 202 364T161 298H352Q353 303 353 307T353 316Q353
352 330 370T275 389Z" />
<glyph unicode="&#xe9;" glyph-name="eacute" horiz-adv-x="505" d="M278 475Q366 475 414 431T462 305Q462 294 461 282T457 257T451 236T443 220H152Q154 190 163 164T189 118T230 87T288 75Q325 75 366 89T437 124L455 42Q442 34 423 25T380 7T329 -6T271 -12Q215
-12 172 7T100 60T56 138T41 230Q41 279 56 323T102 402T176 455T278 475ZM200 535L185 571L188 578L368 679Q374 682 378 682Q392 682 400 664T408 630Q408 619 405 611T395 601L208 532L200 535ZM275 389Q230 389 202 364T161 298H352Q353 303 353 307T353 316Q353
352 330 370T275 389Z" />
<glyph unicode="&#xea;" glyph-name="ecircumflex" horiz-adv-x="505" d="M278 475Q366 475 414 431T462 305Q462 294 461 282T457 257T451 236T443 220H152Q154 190 163 164T189 118T230 87T288 75Q325 75 366 89T437 124L455 42Q442 34 423 25T380 7T329 -6T271
-12Q215 -12 172 7T100 60T56 138T41 230Q41 279 56 323T102 402T176 455T278 475ZM269 673L379 574L382 567L366 538L359 535L265 576L171 535L164 538L148 567L151 574L261 673H269ZM275 389Q230 389 202 364T161 298H352Q353 303 353 307T353 316Q353 352 330
370T275 389Z" />
<glyph unicode="&#xeb;" glyph-name="edieresis" horiz-adv-x="505" d="M278 475Q366 475 414 431T462 305Q462 294 461 282T457 257T451 236T443 220H152Q154 190 163 164T189 118T230 87T288 75Q325 75 366 89T437 124L455 42Q442 34 423 25T380 7T329 -6T271
-12Q215 -12 172 7T100 60T56 138T41 230Q41 279 56 323T102 402T176 455T278 475ZM275 389Q230 389 202 364T161 298H352Q353 303 353 307T353 316Q353 352 330 370T275 389ZM138 612Q138 635 155 653T195 671Q218 671 236 653T254 612Q254 589 236 572T195 555Q172
555 155 572T138 612ZM274 612Q274 635 291 653T331 671Q354 671 372 653T390 612Q390 589 372 572T331 555Q308 555 291 572T274 612Z" />
<glyph unicode="&#xec;" glyph-name="igrave" horiz-adv-x="248" d="M179 0H69V460H179V0ZM176 531L-11 600Q-18 602 -21 610T-24 629Q-24 646 -16 663T6 681Q10 681 16 678L196 577L199 570L184 534L176 531Z" />
<glyph unicode="&#xed;" glyph-name="iacute" horiz-adv-x="248" d="M179 0H69V460H179V0ZM39 535L24 571L27 578L207 679Q213 682 217 682Q231 682 239 665T247 630Q247 619 244 611T234 601L47 532L39 535Z" />
<glyph unicode="&#xee;" glyph-name="icircumflex" horiz-adv-x="248" d="M179 0H69V460H179V0ZM125 673L235 574L238 567L222 538L215 535L121 576L27 535L20 538L4 567L7 574L117 673H125Z" />
<glyph unicode="&#xef;" glyph-name="idieresis" horiz-adv-x="248" d="M179 0H69V460H179V0ZM-3 612Q-3 635 14 653T54 671Q77 671 95 653T113 612Q113 589 95 572T54 555Q31 555 14 572T-3 612ZM133 612Q133 635 150 653T190 671Q213 671 231 653T249 612Q249
589 231 572T190 555Q167 555 150 572T133 612Z" />
<glyph unicode="&#xf0;" glyph-name="eth" horiz-adv-x="560" d="M201 607L298 632Q272 667 243 695T184 740H331Q349 723 366 703T400 659L523 692L544 624L438 597Q471 534 491 457T512 290Q512 229 501 175T462 79T390 13T277 -12Q213 -12 169 9T96 64T55 143T42
232Q42 281 56 325T98 402T167 455T261 475Q312 475 346 458T398 410L401 411Q396 446 380 487T338 571L222 542L201 607ZM276 71Q305 71 326 83T362 117T382 167T389 226Q389 258 382 287T361 339T324 375T271 389Q242 389 221 377T187 343T167 294T160 235Q160
203 166 174T187 121T224 85T276 71Z" />
<glyph unicode="&#xf1;" glyph-name="ntilde" horiz-adv-x="547" d="M425 658Q422 642 416 626T399 596T373 575T335 566Q323 566 308 568T274 573T238 578T202 580Q179 580 160 575T127 555L114 578Q120 596 126 612T144 641T171 661T212 669Q241 669 275 662T337
655Q355 655 374 660T413 681L425 658ZM377 0V304Q377 386 307 386Q290 386 271 380T233 363T201 334T179 295V0H69V460H155L160 392H164Q185 434 229 454T325 475Q358 475 387 467T438 439T474 389T487 313V0H377Z" />
<glyph unicode="&#xf2;" glyph-name="ograve" horiz-adv-x="549" d="M274 475Q335 475 379 455T451 400T493 321T507 227Q507 178 494 135T452 59T380 7T277 -12Q216 -12 172 8T99 61T56 139T42 232Q42 281 56 325T98 402T171 455T274 475ZM276 71Q305 71 326
83T362 117T382 167T389 226Q389 258 382 287T361 339T324 375T271 389Q242 389 221 377T187 343T167 294T160 235Q160 203 166 174T187 121T224 85T276 71ZM329 531L142 600Q135 602 132 610T129 629Q129 646 137 663T159 681Q163 681 169 678L349 577L352 570L337
534L329 531Z" />
<glyph unicode="&#xf3;" glyph-name="oacute" horiz-adv-x="549" d="M274 475Q335 475 379 455T451 400T493 321T507 227Q507 178 494 135T452 59T380 7T277 -12Q216 -12 172 8T99 61T56 139T42 232Q42 281 56 325T98 402T171 455T274 475ZM276 71Q305 71 326
83T362 117T382 167T389 226Q389 258 382 287T361 339T324 375T271 389Q242 389 221 377T187 343T167 294T160 235Q160 203 166 174T187 121T224 85T276 71ZM207 535L192 571L195 578L375 679Q381 682 385 682Q399 682 407 665T415 630Q415 619 412 611T402 601L215
532L207 535Z" />
<glyph unicode="&#xf4;" glyph-name="ocircumflex" horiz-adv-x="549" d="M274 475Q335 475 379 455T451 400T493 321T507 227Q507 178 494 135T452 59T380 7T277 -12Q216 -12 172 8T99 61T56 139T42 232Q42 281 56 325T98 402T171 455T274 475ZM276 71Q305 71
326 83T362 117T382 167T389 226Q389 258 382 287T361 339T324 375T271 389Q242 389 221 377T187 343T167 294T160 235Q160 203 166 174T187 121T224 85T276 71ZM287 673L397 574L400 567L384 538L377 535L283 576L189 535L182 538L166 567L169 574L279 673H287Z"
/>
<glyph unicode="&#xf5;" glyph-name="otilde" horiz-adv-x="549" d="M274 475Q335 475 379 455T451 400T493 321T507 227Q507 178 494 135T452 59T380 7T277 -12Q216 -12 172 8T99 61T56 139T42 232Q42 281 56 325T98 402T171 455T274 475ZM276 71Q305 71 326
83T362 117T382 167T389 226Q389 258 382 287T361 339T324 375T271 389Q242 389 221 377T187 343T167 294T160 235Q160 203 166 174T187 121T224 85T276 71ZM420 658Q417 642 411 626T394 596T368 575T330 566Q318 566 303 568T269 573T233 578T197 580Q174 580
155 575T122 555L109 578Q115 596 121 612T139 641T166 661T207 669Q236 669 270 662T332 655Q350 655 369 660T408 681L420 658Z" />
<glyph unicode="&#xf6;" glyph-name="odieresis" horiz-adv-x="549" d="M274 475Q335 475 379 455T451 400T493 321T507 227Q507 178 494 135T452 59T380 7T277 -12Q216 -12 172 8T99 61T56 139T42 232Q42 281 56 325T98 402T171 455T274 475ZM276 71Q305 71 326
83T362 117T382 167T389 226Q389 258 382 287T361 339T324 375T271 389Q242 389 221 377T187 343T167 294T160 235Q160 203 166 174T187 121T224 85T276 71ZM150 612Q150 635 167 653T207 671Q230 671 248 653T266 612Q266 589 248 572T207 555Q184 555 167 572T150
612ZM286 612Q286 635 303 653T343 671Q366 671 384 653T402 612Q402 589 384 572T343 555Q320 555 303 572T286 612Z" />
<glyph unicode="&#xf7;" glyph-name="divide" horiz-adv-x="513" d="M464 280V198H50V280H464ZM196 64Q196 78 201 91T217 114T239 131T267 137Q281 137 294 131T317 115T334 91T340 64Q340 49 334 37T318 14T294 -1T267 -7Q238 -7 217 14T196 64ZM196 412Q196
426 201 439T217 462T239 479T267 485Q281 485 294 479T317 463T334 439T340 412Q340 397 334 385T318 362T294 347T267 341Q238 341 217 362T196 412Z" />
<glyph unicode="&#xf8;" glyph-name="oslash" horiz-adv-x="550" d="M517 453L460 388Q484 354 495 313T507 227Q507 178 494 135T452 59T380 7T277 -12Q235 -12 202 -3T142 24L88 -38L32 12L87 75Q64 107 53 147T42 232Q42 281 56 325T98 402T171 455T274 475Q315
475 348 466T407 439L458 497L517 453ZM276 71Q305 71 326 83T362 117T382 167T389 226Q389 268 377 304L201 103Q230 71 276 71ZM160 235Q160 192 170 159L346 358Q332 372 313 380T271 389Q242 389 221 377T187 343T167 294T160 235Z" />
<glyph unicode="&#xf9;" glyph-name="ugrave" horiz-adv-x="539" d="M175 460V161Q175 120 196 99T252 77Q287 77 316 100T359 168V460H470V0H384L378 64H374Q363 41 346 27T309 4T266 -8T223 -12Q190 -12 162 -4T112 22T78 71T65 147V460H175ZM323 531L136 600Q129
602 126 610T123 629Q123 646 131 663T153 681Q157 681 163 678L343 577L346 570L331 534L323 531Z" />
<glyph unicode="&#xfa;" glyph-name="uacute" horiz-adv-x="539" d="M175 460V161Q175 120 196 99T252 77Q287 77 316 100T359 168V460H470V0H384L378 64H374Q363 41 346 27T309 4T266 -8T223 -12Q190 -12 162 -4T112 22T78 71T65 147V460H175ZM175 535L160 571L163
578L343 679Q349 682 353 682Q367 682 375 665T383 630Q383 619 380 611T370 601L183 532L175 535Z" />
<glyph unicode="&#xfb;" glyph-name="ucircumflex" horiz-adv-x="539" d="M175 460V161Q175 120 196 99T252 77Q287 77 316 100T359 168V460H470V0H384L378 64H374Q363 41 346 27T309 4T266 -8T223 -12Q190 -12 162 -4T112 22T78 71T65 147V460H175ZM267 673L377
574L380 567L364 538L357 535L263 576L169 535L162 538L146 567L149 574L259 673H267Z" />
<glyph unicode="&#xfc;" glyph-name="udieresis" horiz-adv-x="539" d="M175 460V161Q175 120 196 99T252 77Q287 77 316 100T359 168V460H470V0H384L378 64H374Q363 41 346 27T309 4T266 -8T223 -12Q190 -12 162 -4T112 22T78 71T65 147V460H175ZM137 612Q137
635 154 653T194 671Q217 671 235 653T253 612Q253 589 235 572T194 555Q171 555 154 572T137 612ZM273 612Q273 635 290 653T330 671Q353 671 371 653T389 612Q389 589 371 572T330 555Q307 555 290 572T273 612Z" />
<glyph unicode="&#xfd;" glyph-name="yacute" horiz-adv-x="519" d="M268 133L396 460H502L312 -4Q298 -39 274 -82T216 -164T140 -229T49 -256Q41 -256 37 -256T28 -253L9 -167Q12 -168 16 -169T33 -170Q52 -170 70 -166T108 -150Q144 -127 170 -86T222 15L-7
460H108L268 133ZM202 535L187 571L190 578L370 679Q376 682 380 682Q394 682 402 665T410 630Q410 619 407 611T397 601L210 532L202 535Z" />
<glyph unicode="&#xfe;" glyph-name="thorn" horiz-adv-x="575" d="M325 475Q379 475 418 455T482 400T520 322T532 229Q532 180 520 136T481 59T416 7T323 -12Q278 -12 240 1T178 43V-260H69V740H175V407H179Q191 421 208 433T244 455T285 469T325 475ZM307 391Q292
391 274 387T239 374T205 353T178 326V131Q208 94 239 85T297 75Q330 75 353 87T392 119T415 167T423 227Q423 257 417 286T396 339T359 376T307 391Z" />
<glyph unicode="&#xff;" glyph-name="ydieresis" horiz-adv-x="519" d="M268 133L396 460H502L312 -4Q298 -39 274 -82T216 -164T140 -229T49 -256Q41 -256 37 -256T28 -253L9 -167Q12 -168 16 -169T33 -170Q52 -170 70 -166T108 -150Q144 -127 170 -86T222 15L-7
460H108L268 133ZM258 612Q258 635 275 653T315 671Q338 671 356 653T374 612Q374 589 356 572T315 555Q292 555 275 572T258 612ZM122 612Q122 635 139 653T179 671Q202 671 220 653T238 612Q238 589 220 572T179 555Q156 555 139 572T122 612Z" />
<glyph unicode="&#x2013;" glyph-name="endash" horiz-adv-x="544" d="M479 280V198H65V280H479Z" />
<glyph unicode="&#x2014;" glyph-name="emdash" horiz-adv-x="772" d="M707 280V198H65V280H707Z" />
<glyph unicode="&#x2018;" glyph-name="quoteleft" horiz-adv-x="252" d="M205 710L160 597H185V460H66V612L169 735L205 710Z" />
<glyph unicode="&#x2019;" glyph-name="quoteright" horiz-adv-x="233" d="M52 485L97 598H72V735H191V583L88 460L52 485Z" />
<glyph unicode="&#x201a;" glyph-name="quotesinglbase" horiz-adv-x="261" d="M51 -118L96 -5H71V132H190V-20L87 -143L51 -118Z" />
<glyph unicode="&#x201c;" glyph-name="quotedblleft" horiz-adv-x="411" d="M364 710L319 597H344V460H225V612L328 735L364 710ZM205 710L160 597H185V460H66V612L169 735L205 710Z" />
<glyph unicode="&#x201d;" glyph-name="quotedblright" horiz-adv-x="392" d="M52 485L97 598H72V735H191V583L88 460L52 485ZM211 485L256 598H231V735H350V583L247 460L211 485Z" />
<glyph unicode="&#x201e;" glyph-name="quotedblbase" horiz-adv-x="420" d="M51 -118L96 -5H71V132H190V-20L87 -143L51 -118ZM210 -118L255 -5H230V132H349V-20L246 -143L210 -118Z" />
<glyph unicode="&#x2022;" glyph-name="bullet" horiz-adv-x="322" d="M89 243Q89 257 94 270T110 293T132 310T160 316Q174 316 187 310T210 294T227 270T233 243Q233 228 227 216T211 193T187 178T160 172Q131 172 110 193T89 243Z" />
<glyph unicode="&#x2039;" glyph-name="guilsinglleft" horiz-adv-x="337" d="M144 238L289 61H176L43 239V244L177 420H289L144 243V238Z" />
<glyph unicode="&#x203a;" glyph-name="guilsinglright" horiz-adv-x="337" d="M193 243L48 420H160L294 244V239L161 61H48L193 238V243Z" />
</font>
</defs>
</svg>
