<?xml version="1.0" standalone="no"?>
<!DOCTYPE svg PUBLIC "-//W3C//DTD SVG 1.1//EN" "http://www.w3.org/Graphics/SVG/1.1/DTD/svg11.dtd">
<svg xmlns="http://www.w3.org/2000/svg">
<defs >
<font id="Jura" horiz-adv-x="616" ><font-face
    font-family="Jura"
    units-per-em="1000"
    panose-1="0 0 8 0 0 0 0 0 0 0"
    ascent="965"
    descent="-218"
    alphabetic="0" />
<glyph unicode=" " glyph-name="space" horiz-adv-x="314" />
<glyph unicode="!" glyph-name="exclam" horiz-adv-x="270" d="M94 126T94 168V663Q94 705 136 705Q178 705 178 663V168Q178 126 136 126Q94 126 94 168ZM105 0T95 10T84 40V65Q84 84 94 94T124 104H148Q186 104 186 65V40Q186 21 177 11T148 0H124Q105 0 95 10Z" />
<glyph unicode="&quot;" glyph-name="quotedbl" horiz-adv-x="398" d="M105 449T95 459T84 484V688Q84 702 94 712T119 723Q133 723 143 713T154 688V484Q154 470 144 460T119 449Q105 449 95 459ZM265 449T255 459T244 484V688Q244 702 254 712T279 723Q293 723
303 713T314 688V484Q314 470 304 460T279 449Q265 449 255 459Z" />
<glyph unicode="#" glyph-name="numbersign" horiz-adv-x="621" d="M116 -13T106 -3T95 22Q95 29 96 32L143 198H79Q65 198 55 208T44 233Q44 247 54 257T79 268H162L199 398H135Q121 398 111 408T100 433Q100 447 110 457T135 468H218L266 642Q268 653 278 660T300
668Q314 668 324 658T335 633Q335 626 334 623L290 468H398L446 642Q448 653 458 660T480 668Q494 668 504 658T515 633Q515 626 514 623L470 468H562Q576 468 586 458T597 433Q597 419 587 409T562 398H451L416 268H506Q520 268 530 258T541 233Q541 219 531 209T506
198H395L344 13Q342 2 332 -5T310 -13Q296 -13 286 -3T275 22Q275 29 276 32L323 198H215L164 13Q162 2 152 -5T130 -13Q116 -13 106 -3ZM236 268H342L379 398H271L236 268Z" />
<glyph unicode="$" glyph-name="dollar" horiz-adv-x="672" d="M500 374T546 328T592 187Q592 93 546 47T405 0H371V-55Q371 -90 336 -90Q319 -90 310 -81T301 -55V0H267Q171 0 126 46T80 187Q80 204 93 216T122 229Q139 229 151 217T164 187Q164 146 173 124T204
93T267 84H301V290H282Q191 290 147 332T103 464Q103 555 147 598T281 642H307V710Q307 727 316 736T342 745Q359 745 368 736T377 710V642H402Q492 642 536 599T580 465Q580 449 568 436T538 423Q522 423 509 436T496 465Q496 502 488 522T460 550T402 558H377V374H405Q500
374 546 328ZM187 427T195 408T223 382T282 374H307V558H281Q243 558 223 550T195 522T187 464Q187 427 195 408ZM446 84T467 93T498 124T508 187Q508 228 499 250T468 281T405 290H371V84H405Q446 84 467 93Z" />
<glyph unicode="%" glyph-name="percent" horiz-adv-x="878" d="M64 316T64 460V535Q64 678 207 678H223Q366 678 366 535V461Q366 316 223 316H207Q64 316 64 460ZM190 -20T178 -8T165 22Q165 37 173 48L634 658Q648 675 668 675Q685 675 697 663T710 633Q710
618 702 607L241 -3Q227 -20 207 -20Q190 -20 178 -8ZM223 395Q262 395 275 408T288 461V535Q288 574 275 586T223 599H207Q168 599 155 587T142 535V460Q142 420 155 408T207 395H223ZM512 0T512 143V218Q512 291 547 326T655 361H671Q814 361 814 218V144Q814
71 779 36T671 0H655Q512 0 512 143ZM671 78Q710 78 723 91T736 144V218Q736 257 723 270T671 283H655Q616 283 603 271T590 218V143Q590 104 603 91T655 78H671Z" />
<glyph unicode="&amp;" glyph-name="ampersand" horiz-adv-x="650" d="M631 68T631 52Q631 39 617 23Q604 7 587 7Q572 7 558 20L508 65Q456 -21 315 -21H283Q168 -21 114 33T60 202Q60 277 82 325T151 398Q139 418 135 439T130 488Q130 572 170 613T295 654H320Q392
654 432 625T483 533Q485 512 474 501T442 489Q423 489 413 499T397 530Q391 553 374 561T320 570H295Q247 570 231 554T214 488Q214 457 225 438T277 382L454 225V237Q454 257 465 268T496 279Q516 279 527 268T538 237V202Q538 176 535 153L614 83Q631 68 631
52ZM370 63T400 76T443 122L221 320Q218 323 214 326T206 334Q201 330 189 324Q164 310 154 282T144 202Q144 147 156 118T198 76T283 63H315Q370 63 400 76Z" />
<glyph unicode="&apos;" glyph-name="quotesingle" horiz-adv-x="238" d="M105 449T95 459T84 484V688Q84 702 94 712T119 723Q133 723 143 713T154 688V484Q154 470 144 460T119 449Q105 449 95 459Z" />
<glyph unicode="(" glyph-name="parenleft" horiz-adv-x="298" d="M155 -175T110 -120T64 54V439Q64 562 109 620T253 678Q267 678 277 668T288 643Q288 629 278 619T253 608Q208 608 182 593T145 541T134 439V54Q134 -7 145 -41T182 -90T253 -105Q267 -105 277
-115T288 -140Q288 -154 278 -164T253 -175Q155 -175 110 -120Z" />
<glyph unicode=")" glyph-name="parenright" horiz-adv-x="298" d="M31 -175T21 -165T10 -140Q10 -126 20 -116T45 -105Q90 -105 116 -91T153 -42T164 54V439Q164 504 153 540T116 592T45 608Q31 608 21 618T10 643Q10 657 20 667T45 678Q143 678 188 620T234
439V54Q234 -64 189 -119T45 -175Q31 -175 21 -165Z" />
<glyph unicode="*" glyph-name="asterisk" horiz-adv-x="402" d="M330 459T330 443Q330 432 323 422Q312 403 296 403Q286 403 276 409L235 433V386Q235 351 200 351Q183 351 174 360T165 386V432L126 409Q116 403 106 403Q90 403 77 422Q71 433 71 441Q71 458
91 469L132 493L91 516Q71 528 71 545Q71 554 77 564Q89 582 105 582Q116 582 126 576L165 553V600Q165 617 174 626T200 635Q235 635 235 600V552L276 576Q288 582 297 582Q313 582 323 564Q330 554 330 543Q330 526 311 516L270 493L311 469Q330 459 330 443Z"
/>
<glyph unicode="+" glyph-name="plus" horiz-adv-x="609" d="M507 362T516 353T525 327Q525 310 516 301T490 292H349V147Q349 130 340 121T314 112Q297 112 288 121T279 147V292H119Q103 292 94 301T84 327Q84 344 93 353T119 362H279V518Q279 535 288 544T314
553Q331 553 340 544T349 518V362H490Q507 362 516 353Z" />
<glyph unicode="," glyph-name="comma" horiz-adv-x="258" d="M174 40Q174 29 171 21L112 -105Q100 -127 79 -127Q63 -127 52 -119T44 -92L72 68Q73 86 83 95T112 104H136Q174 104 174 65V40Z" />
<glyph unicode="-" glyph-name="hyphen" horiz-adv-x="514" d="M105 235T95 245T84 270Q84 284 94 294T119 305H395Q409 305 419 295T430 270Q430 256 420 246T395 235H119Q105 235 95 245Z" />
<glyph unicode="." glyph-name="period" horiz-adv-x="270" d="M105 0T95 10T84 40V65Q84 84 94 94T124 104H148Q186 104 186 65V40Q186 21 177 11T148 0H124Q105 0 95 10Z" />
<glyph unicode="/" glyph-name="slash" horiz-adv-x="322" d="M59 -153T48 -143T36 -114Q36 -109 38 -99L243 697Q248 714 258 722T284 730Q304 730 315 720T327 692Q327 685 324 676L120 -120Q111 -153 79 -153Q59 -153 48 -143Z" />
<glyph unicode="0" glyph-name="zero" horiz-adv-x="684" d="M197 1T143 55T88 225V456Q88 572 142 626T312 679H372Q487 679 541 625T596 455V225Q596 110 542 56T372 1H312Q197 1 143 55ZM372 85Q426 85 456 98T499 141T512 225V455Q512 510 499 539T457 582T372
595H312Q258 596 228 584T185 541T172 456V225Q172 171 185 141T228 98T312 85H372ZM305 291T295 301T284 331V356Q284 375 294 385T324 395H348Q386 395 386 356V331Q386 312 377 302T348 291H324Q305 291 295 301Z" />
<glyph unicode="1" glyph-name="one" horiz-adv-x="389" d="M270 678T279 667T289 636V42Q289 22 278 11T247 0Q205 0 205 42V552L118 471Q104 457 88 457Q75 457 64 468Q52 480 52 494Q52 510 67 525L201 657Q212 668 224 673T253 678Q270 678 279 667Z" />
<glyph unicode="2" glyph-name="two" horiz-adv-x="575" d="M97 0Q76 0 65 10T54 42Q54 124 87 179T160 264T270 333Q343 374 372 393T419 436T437 493Q437 533 428 554T398 585T336 594H229Q181 594 159 581T131 535Q127 514 117 504T87 494Q66 494 55 505T46
538Q57 609 102 643T229 678H336Q430 678 475 633T521 493Q521 437 494 397T427 330T311 260Q253 227 225 208T172 158T141 84H471Q491 84 502 73T513 42Q513 22 502 11T471 0H97Z" />
<glyph unicode="3" glyph-name="three" horiz-adv-x="654" d="M169 0T122 37T64 150Q62 171 73 182T105 194Q143 194 148 152Q155 113 179 99T257 84H371Q415 84 438 94T472 127T482 194Q482 237 472 260T439 294T371 304H294Q252 304 252 346Q252 366 263 377T294
388H409Q439 388 452 415T466 493Q466 533 457 554T427 585T365 594H268Q220 594 198 581T170 535Q164 494 126 494Q105 494 94 505T86 538Q105 678 268 678H365Q459 678 504 633T550 493Q550 401 498 362Q566 318 566 194Q566 95 519 48T371 0H257Q169 0 122 37Z"
/>
<glyph unicode="4" glyph-name="four" horiz-adv-x="623" d="M557 226T568 215T579 184Q579 164 568 153T537 142H479V42Q479 0 437 0Q417 0 406 11T395 42V142H86Q66 142 55 153T44 184Q44 204 61 228L375 652Q387 668 400 673T434 678Q480 678 480 636L479 226H537Q557
226 568 215ZM149 224L395 225L396 559L149 224Z" />
<glyph unicode="5" glyph-name="five" horiz-adv-x="668" d="M193 0T146 37T88 150Q86 171 97 182T129 194Q167 194 172 153Q179 114 203 99T281 84H385Q429 84 452 94T486 128T496 195V264Q496 308 486 331T452 365T385 375H311Q237 375 204 357Q194 350 184
346T164 341Q157 341 148 344L138 347Q103 357 103 394V636Q103 656 114 667T145 678H538Q558 678 569 667T580 636Q580 616 569 605T538 594H187V441Q238 459 311 459H385Q484 459 532 411T580 264V195Q580 96 532 48T385 0H281Q193 0 146 37Z" />
<glyph unicode="6" glyph-name="six" horiz-adv-x="670" d="M183 0T136 47T88 194V493Q88 587 133 632T273 678H397Q560 678 579 538Q582 517 571 506T539 494Q501 494 495 535Q489 568 467 581T397 594H273Q233 594 212 585T181 555T172 493V410Q211 457 283
457H387Q486 457 534 409T582 262V195Q582 95 534 48T387 0H283Q183 0 136 47ZM387 84Q431 84 454 94T488 128T498 195V262Q498 306 488 329T454 363T387 373H283Q239 373 216 363T182 330T172 263V194Q172 151 182 128T215 94T283 84H387Z" />
<glyph unicode="7" glyph-name="seven" horiz-adv-x="531" d="M176 0T165 11T155 44Q157 147 172 210T218 315T306 397Q352 433 375 479T402 594H86Q66 594 55 605T44 636Q44 656 55 667T86 678H445Q465 678 476 667T487 636Q487 529 456 455T355 329Q309 297
286 264T252 181T239 44Q237 0 196 0Q176 0 165 11Z" />
<glyph unicode="8" glyph-name="eight" horiz-adv-x="680" d="M592 305T592 194Q592 95 545 48T397 0H283Q183 0 136 47T88 194Q88 308 175 354Q109 404 109 496Q109 588 154 633T294 678H391Q485 678 530 633T576 496Q576 399 508 352Q592 305 592 194ZM254 594T233
585T202 555T193 496Q193 434 212 411T278 388L392 387Q434 387 455 399T484 434T492 496Q492 534 483 555T453 585T391 594H294Q254 594 233 585ZM441 84T464 94T498 127T508 194Q508 237 498 260T465 294T397 304H283Q239 304 216 294T182 261T172 194Q172 151
182 128T215 94T283 84H397Q441 84 464 94Z" />
<glyph unicode="9" glyph-name="nine" horiz-adv-x="670" d="M487 678T534 631T582 484V185Q582 91 537 46T397 0H273Q110 0 91 140Q88 161 99 172T131 184Q169 184 175 143Q181 110 203 97T273 84H397Q437 84 458 93T489 123T498 185V268Q459 221 387 221H283Q184
221 136 269T88 416V483Q88 583 136 630T283 678H387Q487 678 534 631ZM283 594Q239 594 216 584T182 550T172 483V416Q172 372 182 349T216 315T283 305H387Q431 305 454 315T488 348T498 415V484Q498 527 488 550T455 584T387 594H283Z" />
<glyph unicode=":" glyph-name="colon" horiz-adv-x="270" d="M105 0T95 10T84 40V65Q84 84 94 94T124 104H148Q186 104 186 65V40Q186 21 177 11T148 0H124Q105 0 95 10ZM105 330T95 340T84 370V395Q84 414 94 424T124 434H148Q186 434 186 395V370Q186 351 177
341T148 330H124Q105 330 95 340Z" />
<glyph unicode=";" glyph-name="semicolon" horiz-adv-x="258" d="M174 40Q174 29 171 21L112 -105Q100 -127 79 -127Q63 -127 52 -119T44 -92L72 68Q73 86 83 95T112 104H136Q174 104 174 65V40ZM349 330T339 340T328 370V395Q328 414 338 424T368 434H392Q430
434 430 395V370Q430 351 421 341T392 330H368Q349 330 339 340Z" />
<glyph unicode="&lt;" glyph-name="less" horiz-adv-x="609" d="M487 180T487 163Q487 154 481 143Q469 123 452 123Q443 123 431 129L149 287Q124 302 124 330Q124 353 149 368L431 525Q442 531 451 531Q469 531 481 511Q487 501 487 491Q487 473 466 461L225
328L467 192Q487 180 487 163Z" />
<glyph unicode="=" glyph-name="equal" horiz-adv-x="609" d="M103 354T94 363T84 389Q84 406 93 415T119 424H490Q507 424 516 415T525 389Q525 372 516 363T490 354H119Q103 354 94 363ZM103 482T94 491T84 517Q84 534 93 543T119 552H490Q507 552 516 543T525
517Q525 500 516 491T490 482H119Q103 482 94 491Z" />
<glyph unicode="&gt;" glyph-name="greater" horiz-adv-x="609" d="M484 353T484 330Q484 302 459 287L177 129Q165 123 156 123Q139 123 127 143Q121 154 121 163Q121 180 141 192L383 328L142 461Q121 473 121 491Q121 501 127 511Q139 531 157 531Q166 531
177 525L459 368Q484 353 484 330Z" />
<glyph unicode="?" glyph-name="question" horiz-adv-x="511" d="M196 166T196 208Q196 257 213 289T251 339T305 374Q333 390 345 400T365 426T373 469Q373 509 364 530T334 561T272 570H205Q165 570 144 561T113 531T104 469Q104 427 62 427Q20 427 20 469Q20
654 205 654H272Q366 654 411 609T457 469Q457 420 440 388T402 338T348 303Q320 287 308 277T288 251T280 208Q280 166 238 166Q196 166 196 208ZM207 0T197 10T186 40V65Q186 84 196 94T226 104H250Q288 104 288 65V40Q288 21 279 11T250 0H226Q207 0 197 10Z"
/>
<glyph unicode="@" glyph-name="at" horiz-adv-x="741" d="M240 -14Q157 -15 119 24T80 150V403Q80 489 118 528T240 567H500Q585 567 623 528T661 402V217Q661 167 635 144T555 120Q523 120 503 130T470 169Q450 140 421 129T351 118H344Q274 118 241 151T207
254V277Q207 349 240 382T343 416H384Q409 416 426 410T457 384Q462 403 469 409T485 416Q499 416 509 406T520 381V217Q520 203 522 198T530 192T555 190Q573 190 580 192T589 199T591 217V402Q591 442 584 461T557 489T500 497H240Q203 498 184 490T158 463T150
403V150Q150 110 157 91T184 63T240 56H515Q542 56 559 62T596 83Q604 91 618 91Q632 91 642 81T653 56Q653 40 641 29Q614 7 584 -3T515 -14H240ZM351 188Q403 188 426 204T450 254V276Q450 307 445 321T427 340T384 346H343Q315 346 302 341T283 321T277 277V254Q277
214 290 201T344 188H351Z" />
<glyph unicode="A" glyph-name="A" horiz-adv-x="666" d="M625 50T625 39Q625 15 598 4Q589 0 578 0Q554 0 543 27L489 158H178L126 27Q115 0 91 0Q81 0 72 4Q44 14 44 39Q44 50 48 59L286 645Q301 678 333 678H335Q368 676 379 645L621 59Q625 50 625 39ZM211
242H455L330 545L211 242Z" />
<glyph unicode="B" glyph-name="B" horiz-adv-x="673" d="M609 339T609 222V188Q609 96 561 48T420 0H146Q126 0 115 11T104 42V636Q104 656 115 667T146 678H407Q486 678 529 636T572 516V489Q572 457 561 430T530 385Q609 339 609 222ZM188 409H420H438Q464
412 476 433T488 489V516Q488 559 470 576T407 594H188V409ZM525 222Q525 278 501 301T420 325H188V84H420Q476 84 500 108T525 188V222Z" />
<glyph unicode="C" glyph-name="C" horiz-adv-x="696" d="M189 0T135 54T80 224V454Q80 569 134 624T303 678H424Q518 678 567 639T625 517Q628 496 617 485T585 474Q565 474 555 484T541 516Q536 561 510 577T424 594H303Q249 595 219 582T177 539T164 454V224Q164
169 177 140T219 97T304 84H424Q484 84 510 100T541 162Q544 183 554 193T585 204Q606 204 617 193T625 161Q617 78 568 39T424 0H304Q189 0 135 54Z" />
<glyph unicode="D" glyph-name="D" horiz-adv-x="721" d="M126 0T115 11T104 42V636Q104 656 115 667T146 678H387Q518 678 579 617T641 424V254Q641 123 580 62T387 0H146Q126 0 115 11ZM387 84Q452 84 488 100T541 152T557 254V424Q557 489 541 525T489 578T387
594H188V84H387Z" />
<glyph unicode="E" glyph-name="E" horiz-adv-x="603" d="M525 84T536 73T547 42Q547 22 536 11T505 0H146Q126 0 115 11T104 42V636Q104 656 115 667T146 678H505Q525 678 536 667T547 636Q547 616 536 605T505 594H188V384H387Q407 384 418 373T429 342Q429
322 418 311T387 300H188V84H505Q525 84 536 73Z" />
<glyph unicode="F" glyph-name="F" horiz-adv-x="556" d="M126 0T115 11T104 42V636Q104 656 115 667T146 678H514Q534 678 545 667T556 636Q556 616 545 605T514 594H188V384H389Q409 384 420 373T431 342Q431 322 420 311T389 300H188V42Q188 22 177 11T146
0Q126 0 115 11Z" />
<glyph unicode="G" glyph-name="G" horiz-adv-x="698" d="M189 0T135 54T80 224V454Q80 569 134 624T303 678H424Q518 678 567 639T625 517Q628 496 617 485T585 474Q565 474 555 484T541 516Q536 561 510 577T424 594H303Q249 595 219 582T177 539T164 454V224Q164
169 177 140T219 97T304 84H424Q472 84 497 94T533 130T544 204V251L466 252Q424 252 424 294Q424 314 435 325T466 336L586 335Q606 335 617 324T628 293V204Q628 98 579 49T424 0H304Q189 0 135 54Z" />
<glyph unicode="H" glyph-name="H" horiz-adv-x="784" d="M130 0T117 13T104 42V636Q104 653 117 665T146 678Q163 678 175 666T188 636V385H596V636Q596 653 608 665T638 678Q655 678 667 666T680 636V42Q680 26 668 13T638 0Q621 0 609 12T596 42V301H188V42Q188
26 176 13T146 0Q130 0 117 13Z" />
<glyph unicode="I" glyph-name="I" horiz-adv-x="292" d="M124 0T114 10T104 42V635Q104 657 114 667T146 677Q168 677 178 667T188 635V42Q188 20 178 10T146 0Q124 0 114 10Z" />
<glyph unicode="J" glyph-name="J" horiz-adv-x="617" d="M142 0T93 39T34 160Q32 181 43 192T75 204Q114 204 118 162Q124 117 150 101T236 84H319Q367 84 392 94T428 130T439 204V636Q439 678 481 678Q501 678 512 667T523 636V204Q523 98 474 49T319 0H236Q142
0 93 39Z" />
<glyph unicode="K" glyph-name="K" horiz-adv-x="587" d="M552 59T552 45Q552 27 535 14Q523 3 507 3Q489 3 476 20L231 323L188 278V42Q188 22 177 11T146 0Q126 0 115 11T104 42V636Q104 656 115 667T146 678Q166 678 177 667T188 636V398L443 662Q458 677 473
677Q488 677 502 663Q517 648 517 633Q517 618 503 604L291 384L541 73Q552 59 552 45Z" />
<glyph unicode="L" glyph-name="L" horiz-adv-x="541" d="M104 0T104 42V636Q104 678 146 678Q188 678 188 636V84H465Q507 84 507 42Q507 0 465 0H146Q104 0 104 42Z" />
<glyph unicode="M" glyph-name="M" horiz-adv-x="837" d="M733 678T733 636V42Q733 22 722 11T691 0Q671 0 660 11T649 42V505L465 234Q455 220 443 214T414 207Q402 207 393 213T373 234L188 506V42Q188 22 177 11T146 0Q126 0 115 11T104 42V636Q104 656 115
667T146 678Q174 678 192 651L420 308L648 651Q665 678 699 678Q733 678 733 636Z" />
<glyph unicode="N" glyph-name="N" horiz-adv-x="757" d="M631 678T642 667T653 636V42Q653 22 642 11T611 0Q599 0 589 6T569 25L188 516V42Q188 22 177 11T146 0Q126 0 115 11T104 42V636Q104 656 115 667T146 678Q158 678 167 672T188 653L569 162V636Q569
656 580 667T611 678Q631 678 642 667Z" />
<glyph unicode="O" glyph-name="O" horiz-adv-x="728" d="M189 0T135 54T80 224V455Q80 570 135 624T304 678H424Q539 678 593 624T648 454V224Q648 109 594 55T424 0H304Q189 0 135 54ZM424 84Q479 84 508 97T551 139T564 224V454Q564 508 551 538T508 581T424
594H304Q250 595 220 582T177 539T164 455V224Q164 169 177 140T219 97T304 84H424Z" />
<glyph unicode="P" glyph-name="P" horiz-adv-x="613" d="M472 678T520 630T569 489V459Q569 368 521 319T380 270H188V42Q188 22 177 11T146 0Q126 0 115 11T104 42V636Q104 656 115 667T146 678H380Q472 678 520 630ZM485 489Q485 545 461 569T380 594H188V354H380Q437
354 461 378T485 459V489Z" />
<glyph unicode="Q" glyph-name="Q" horiz-adv-x="733" d="M653 -32T653 -45Q653 -59 640 -71Q627 -82 616 -82Q604 -82 590 -70L514 11Q478 0 424 0H304Q189 0 135 54T80 224V455Q80 570 135 624T304 678H424Q539 678 593 624T648 454V224Q648 98 581 43L643 -22Q653
-32 653 -45ZM444 84L418 112Q407 123 407 136Q407 149 419 161Q431 173 444 173Q455 173 470 160L523 105Q545 120 554 148T564 224V454Q564 508 551 538T508 581T424 594H304Q250 595 220 582T177 539T164 455V224Q164 169 177 140T219 97T304 84H424H444Z" />
<glyph unicode="R" glyph-name="R" horiz-adv-x="625" d="M569 380T532 332T425 273L556 55Q562 45 562 33Q562 11 540 -2Q527 -10 517 -10Q497 -10 483 12L331 265L328 270H188V42Q188 22 177 11T146 0Q126 0 115 11T104 42V636Q104 656 115 667T146 678H380Q472
678 520 630T569 489V459Q569 380 532 332ZM485 489Q485 545 461 569T380 594H188V354H380Q437 354 461 378T485 459V489Z" />
<glyph unicode="S" glyph-name="S" horiz-adv-x="692" d="M187 0T140 34T80 141Q78 162 89 173T121 185Q141 185 151 176T165 144Q172 110 196 97T273 84H417Q461 84 484 94T518 127T528 194Q528 258 504 282T417 306H293Q199 306 153 352T107 493Q107 587 152
632T292 678H411Q569 678 593 546Q596 525 585 514T552 502Q532 502 522 512T509 543Q501 572 479 583T411 594H292Q251 594 230 585T200 555T191 493Q191 452 200 431T230 400T293 390H417Q516 390 564 342T612 194Q612 95 564 48T417 0H273Q187 0 140 34Z" />
<glyph unicode="T" glyph-name="T" horiz-adv-x="614" d="M265 0T265 42V593H71Q29 593 29 635Q29 677 71 677H543Q585 677 585 635Q585 593 543 593H349V42Q349 22 338 11T307 0Q265 0 265 42Z" />
<glyph unicode="U" glyph-name="U" horiz-adv-x="756" d="M203 0T149 54T94 224V636Q94 678 136 678Q178 678 178 636V224Q178 169 191 140T233 97T318 84H438Q493 84 522 97T565 139T578 224V636Q578 678 620 678Q662 678 662 636V224Q662 109 608 55T438 0H318Q203
0 149 54Z" />
<glyph unicode="V" glyph-name="V" horiz-adv-x="643" d="M291 0T276 33L29 618Q24 631 24 640Q24 661 48 672Q60 678 72 678Q96 678 106 651L325 133L538 651Q549 678 572 678Q583 678 596 672Q619 661 619 638Q619 627 615 618L366 33Q350 0 321 0H317Q291 0 276 33Z" />
<glyph unicode="W" glyph-name="W" horiz-adv-x="898" d="M874 661T874 639Q874 631 871 622L686 36Q679 18 669 9T642 0H640Q608 0 596 36L442 533L443 513L295 36Q288 17 279 9T251 0Q236 0 227 8T212 36L27 622Q24 633 24 640Q24 651 30 659T51 674Q63 679
71 679Q95 679 106 647L258 164L402 642Q408 660 419 669T450 678Q485 677 496 642L640 164L792 647Q802 678 827 678Q833 678 847 674Q874 661 874 639Z" />
<glyph unicode="X" glyph-name="X" horiz-adv-x="626" d="M67 22T67 41Q67 55 76 68L259 338L66 610Q57 624 57 635Q57 654 77 669Q91 678 103 678Q121 678 135 658L314 407L494 658Q509 678 526 678Q538 678 552 667Q572 653 572 635Q572 622 562 609L365 335L554
69Q563 56 563 43Q563 23 543 9Q530 0 517 0Q499 0 485 20L311 265L145 19Q132 0 113 0Q101 0 86 9Q67 22 67 41Z" />
<glyph unicode="Y" glyph-name="Y" horiz-adv-x="615" d="M592 654T592 635Q592 623 583 611L345 246V42Q345 22 334 11T303 0Q283 0 272 11T261 42V246L32 611Q24 625 24 636Q24 657 45 670Q59 678 70 678Q89 678 103 657L303 336L513 657Q525 677 545 677Q557
677 570 668Q592 654 592 635Z" />
<glyph unicode="Z" glyph-name="Z" horiz-adv-x="689" d="M615 164T626 153T635 120Q623 61 582 31T473 0H104Q84 0 74 11T63 42Q63 55 79 78L473 594H214Q182 594 164 585T139 553Q134 533 124 524T95 514Q76 514 65 523T53 549Q53 555 54 558Q66 616 106 647T214
678H548Q569 678 579 667T590 636Q590 619 574 598L180 84H473Q507 84 525 93T549 125Q555 145 565 154T594 164Q615 164 626 153Z" />
<glyph unicode="[" glyph-name="bracketleft" horiz-adv-x="228" d="M83 -175T74 -166T64 -140V643Q64 660 73 669T99 678H183Q197 678 207 668T218 643Q218 629 208 619T183 608H134V-105H183Q197 -105 207 -115T218 -140Q218 -154 208 -164T183 -175H99Q83 -175
74 -166Z" />
<glyph unicode="\" glyph-name="backslash" horiz-adv-x="322" d="M211 -153T202 -120L-2 676Q-5 685 -5 692Q-5 709 6 719T38 730Q54 730 64 722T79 697L284 -99Q286 -109 286 -114Q286 -132 275 -142T243 -153Q211 -153 202 -120Z" />
<glyph unicode="]" glyph-name="bracketright" horiz-adv-x="228" d="M45 -175Q31 -175 21 -165T10 -140Q10 -126 20 -116T45 -105H94V608H45Q31 608 21 618T10 643Q10 657 20 667T45 678H129Q146 678 155 669T164 643V-140Q164 -157 155 -166T129 -175H45Z" />
<glyph unicode="^" glyph-name="asciicircum" horiz-adv-x="428" d="M105 404T95 414T84 439Q84 443 86 453L165 656Q177 683 206 683H222Q251 683 263 656L342 453Q344 443 344 439Q344 425 334 415T309 404Q298 404 289 410T276 426L214 587L152 426Q148 417
139 411T119 404Q105 404 95 414Z" />
<glyph unicode="_" glyph-name="underscore" horiz-adv-x="467" d="M50 -84T50 -42Q50 0 92 0H345Q387 0 387 -42Q387 -84 345 -84H92Q50 -84 50 -42Z" />
<glyph unicode="`" glyph-name="grave" horiz-adv-x="250" d="M172 513T160 513Q145 513 134 527L61 615Q51 626 51 640Q51 655 65 666Q76 676 90 676Q105 676 116 662L189 574Q199 563 199 549Q199 534 185 523Q172 513 160 513Z" />
<glyph unicode="a" glyph-name="a" horiz-adv-x="640" d="M450 507T498 459T546 311V42Q546 22 535 11T504 0Q484 0 473 11T462 42V65Q409 0 306 0H250Q166 0 125 41T84 166Q84 250 124 291T250 332H461Q458 384 434 403T350 423H292Q242 423 218 416T183 392Q174
371 164 363T136 355Q118 355 107 364T95 388Q95 394 96 398Q111 454 158 480T292 507H350Q450 507 498 459ZM458 156T459 159T462 167V248H250Q216 248 199 241T175 217T168 166Q168 132 175 115T199 91T250 84H306Q433 84 457 153Q458 156 459 159Z" />
<glyph unicode="b" glyph-name="b" horiz-adv-x="658" d="M482 507T530 459T578 311V196Q578 96 530 48T382 0H344Q241 0 188 53V42Q188 22 177 11T146 0Q126 0 115 11T104 42V662Q104 682 115 693T146 704Q166 704 177 693T188 662V454Q241 507 344 507H382Q482
507 530 459ZM494 311Q494 355 484 379T450 413T382 423H344Q275 423 232 406T188 354V153Q188 119 231 102T344 84H382Q426 84 450 94T484 128T494 196V311Z" />
<glyph unicode="c" glyph-name="c" horiz-adv-x="591" d="M176 0T128 48T80 196V312Q80 412 128 460T276 507H358Q506 507 530 405Q531 401 531 395Q531 379 520 370T489 361Q471 361 462 370T444 399Q437 412 417 417T358 423H276Q232 424 208 414T174 380T164
312V196Q164 152 174 128T208 94T276 84H358Q397 84 417 89T444 108Q452 129 461 137T490 146Q508 146 519 137T531 112Q531 106 530 102Q506 0 358 0H276Q176 0 128 48Z" />
<glyph unicode="d" glyph-name="d" horiz-adv-x="648" d="M532 704T543 693T554 662V42Q554 22 543 11T512 0Q492 0 481 11T470 42V49Q445 24 408 12T314 0H276Q176 0 128 48T80 196V311Q80 411 128 459T276 507H470V662Q470 682 481 693T512 704Q532 704 543
693ZM383 84T426 101T470 153V423H276Q232 423 208 413T174 379T164 311V196Q164 152 174 128T208 94T276 84H314Q383 84 426 101Z" />
<glyph unicode="e" glyph-name="e" horiz-adv-x="634" d="M164 219V195Q164 151 174 128T208 94T276 84H358Q409 84 433 93T466 127Q472 147 482 156T511 166Q530 166 540 158T551 133Q551 126 550 123Q528 0 358 0H276Q176 0 128 48T80 195V311Q80 412 128 460T276
507H358Q458 507 506 459T554 311V261Q554 241 543 230T512 219H164ZM164 303H470V311Q470 355 460 379T426 413T358 423H276Q232 424 208 414T174 380T164 311V303Z" />
<glyph unicode="f" glyph-name="f" horiz-adv-x="386" d="M352 507T352 465Q352 445 341 434T310 423H207V42Q207 22 196 11T165 0Q145 0 134 11T123 42V423H86Q66 423 55 434T44 465Q44 507 86 507H123V511Q123 609 170 656T316 704Q352 704 352 662Q352 642
343 631T316 620Q273 620 250 611T217 578T207 511V507H310Q352 507 352 465Z" />
<glyph unicode="g" glyph-name="g" horiz-adv-x="648" d="M554 507T554 465V-56Q554 -130 519 -165T410 -200H224Q103 -200 84 -101Q83 -98 83 -91Q83 -75 94 -66T125 -56Q143 -56 152 -65T168 -97Q174 -108 186 -112T224 -116H410Q447 -116 458 -105T470 -56V60Q443
31 403 16T314 0H276Q176 0 128 48T80 195V311Q80 412 128 460T276 507H358Q430 507 470 465Q470 507 512 507Q554 507 554 465ZM384 84T427 101T470 153V353Q470 392 442 407T358 423H276Q232 424 208 414T174 380T164 311V195Q164 151 174 128T208 94T276 84H314Q384
84 427 101Z" />
<glyph unicode="h" glyph-name="h" horiz-adv-x="667" d="M477 507T525 459T573 311V42Q573 22 562 11T531 0Q511 0 500 11T489 42V311Q489 355 479 379T445 413T377 423H349Q283 423 246 406T198 354Q197 349 193 339V42Q193 22 182 11T151 0Q131 0 120 11T109
42V332Q104 340 104 349Q104 355 105 358Q107 368 109 374V662Q109 682 120 693T151 704Q171 704 182 693T193 662V475Q254 507 349 507H377Q477 507 525 459Z" />
<glyph unicode="i" glyph-name="i" horiz-adv-x="292" d="M126 0T115 11T104 42V465Q104 485 115 496T146 507Q166 507 177 496T188 465V42Q188 22 177 11T146 0Q126 0 115 11ZM109 589T97 602T84 637V667Q84 690 96 701T132 713H161Q206 713 206 667V637Q206
614 195 602T161 589H132Q109 589 97 602Z" />
<glyph unicode="j" glyph-name="j" horiz-adv-x="292" d="M-5 -116T36 -116Q77 -116 90 -103T104 -48V465Q104 485 115 496T146 507Q166 507 177 496T188 465V-48Q188 -125 151 -162T36 -200Q-5 -200 -5 -158Q-5 -116 36 -116ZM110 589T98 602T85 637V667Q85 690
97 701T133 713H162Q207 713 207 667V637Q207 614 196 602T162 589H133Q110 589 98 602Z" />
<glyph unicode="k" glyph-name="k" horiz-adv-x="508" d="M473 72Q486 58 486 44Q486 28 470 13Q455 1 441 1Q425 1 410 17L235 215L188 175V42Q188 22 177 11T146 0Q126 0 115 11T104 42V662Q104 682 115 693T146 704Q166 704 177 693T188 662V286L426 491Q440
504 454 504Q470 504 485 487Q497 472 497 458Q497 441 481 428L298 270L473 72Z" />
<glyph unicode="l" glyph-name="l" horiz-adv-x="343" d="M179 0T142 37T104 152V662Q104 682 115 693T146 704Q166 704 177 693T188 662V152Q188 111 201 98T255 84Q298 84 298 42Q299 22 288 11T255 0Q179 0 142 37Z" />
<glyph unicode="m" glyph-name="m" horiz-adv-x="930" d="M754 507T795 463T836 315V42Q836 0 794 0Q752 0 752 42V315Q752 372 730 397T659 423H618Q561 423 537 398T512 315V42Q512 0 470 0Q428 0 428 42V315Q428 372 406 397T335 423H294Q237 423 213 398T188
315V42Q188 0 146 0Q104 0 104 42V465Q104 507 146 507Q188 507 188 465V442Q214 476 246 491T322 507H335Q397 507 432 490T486 434Q513 474 542 490T618 507H659Q754 507 795 463Z" />
<glyph unicode="n" glyph-name="n" horiz-adv-x="662" d="M472 507T520 459T568 311V42Q568 22 557 11T526 0Q506 0 495 11T484 42V311Q484 355 474 379T440 413T372 423H344Q281 423 238 409T188 366V42Q188 22 177 11T146 0Q126 0 115 11T104 42V465Q104 507
146 507Q188 507 188 465V448Q241 507 344 507H372Q472 507 520 459Z" />
<glyph unicode="o" glyph-name="o" horiz-adv-x="634" d="M176 0T128 48T80 195V311Q80 411 128 459T276 507H358Q458 507 506 459T554 311V196Q554 96 506 48T358 0H276Q176 0 128 48ZM358 84Q402 84 426 94T460 128T470 196V311Q470 355 460 379T426 413T358
423H276Q231 423 208 413T174 380T164 311V195Q164 151 174 128T208 94T276 84H358Z" />
<glyph unicode="p" glyph-name="p" horiz-adv-x="658" d="M482 507T530 459T578 311V196Q578 96 530 48T382 0H188V-158Q188 -178 177 -189T146 -200Q126 -200 115 -189T104 -158V465Q104 485 115 496T146 507Q166 507 177 496T188 465V452Q243 507 344 507H382Q482
507 530 459ZM494 311Q494 355 484 379T450 413T382 423H344Q278 423 235 407T188 360V84H382Q426 84 450 94T484 128T494 196V311Z" />
<glyph unicode="q" glyph-name="q" horiz-adv-x="648" d="M532 507T543 496T554 465V-158Q554 -178 543 -189T512 -200Q492 -200 481 -189T470 -158V0H276Q176 0 128 48T80 196V311Q80 411 128 459T276 507H314Q422 507 470 451V465Q470 485 481 496T512 507Q532
507 543 496ZM470 84V353Q470 388 427 405T314 423H276Q232 423 208 413T174 379T164 311V196Q164 152 174 128T208 94T276 84H470Z" />
<glyph unicode="r" glyph-name="r" horiz-adv-x="427" d="M388 507T399 496T410 465Q410 445 399 434T368 423Q283 423 237 392T188 306V42Q188 22 177 11T146 0Q126 0 115 11T104 42V465Q104 507 146 507Q188 507 188 465V426Q249 507 368 507Q388 507 399 496Z" />
<glyph unicode="s" glyph-name="s" horiz-adv-x="611" d="M96 0T75 105Q74 108 74 114Q74 131 85 140T116 150Q135 150 145 141T161 109Q167 94 180 89T223 84H387Q426 84 439 97T453 150Q453 190 440 203T387 216H226Q81 216 81 361Q81 435 117 471T226 507H382Q500
507 521 408Q522 405 522 399Q522 383 511 374T480 364Q461 364 452 373T436 403Q430 415 418 419T382 423H226Q200 423 187 419T170 401T165 361Q165 325 177 313T226 300H387Q537 300 537 150Q537 0 387 0H223Q96 0 75 105Z" />
<glyph unicode="t" glyph-name="t" horiz-adv-x="419" d="M360 84T360 42Q360 22 349 11T318 0Q219 0 172 47T125 192V423H76Q56 423 45 434T34 465Q34 507 76 507H125V580Q125 600 136 611T167 622Q187 622 198 611T209 580V507H324Q366 507 366 465Q366 445
355 434T324 423H209V192Q209 149 219 126T252 94T318 84Q360 84 360 42Z" />
<glyph unicode="u" glyph-name="u" horiz-adv-x="662" d="M536 507T547 496T558 465V42Q558 0 516 0Q474 0 474 42V59Q421 0 318 0H290Q190 0 142 48T94 196V465Q94 485 105 496T136 507Q156 507 167 496T178 465V196Q178 152 188 128T222 94T290 84H318Q381 84
424 98T474 141V465Q474 485 485 496T516 507Q536 507 547 496Z" />
<glyph unicode="v" glyph-name="v" horiz-adv-x="526" d="M491 490T491 468Q491 459 486 446L302 31Q289 0 254 0Q223 0 209 33L39 447Q34 460 34 468Q34 492 61 502Q73 507 81 507Q104 507 116 480L256 138L410 482Q423 507 446 507Q454 507 466 502Q491 490 491 468Z" />
<glyph unicode="w" glyph-name="w" horiz-adv-x="752" d="M717 493T717 469Q717 459 713 450L561 34Q549 0 514 0Q477 0 468 35L370 362L264 34Q259 18 248 9T220 0Q188 0 176 34L37 452Q34 461 34 469Q34 495 64 504Q74 507 82 507Q106 507 117 477L227 150L330
477Q340 510 378 510Q413 510 423 475L521 150L634 478Q645 508 669 508Q674 508 688 504Q717 493 717 469Z" />
<glyph unicode="x" glyph-name="x" horiz-adv-x="533" d="M487 54T487 42Q487 26 469 11Q455 0 442 0Q423 0 410 19L265 208L132 20Q118 0 99 0Q86 0 73 10Q54 25 54 42Q54 56 64 69L212 278L89 438Q78 452 78 465Q78 483 97 496Q111 507 124 507Q141 507 155
489L271 338L385 489Q398 508 417 508Q430 508 444 497Q462 484 462 465Q462 451 452 438L323 269L476 70Q487 54 487 42Z" />
<glyph unicode="y" glyph-name="y" horiz-adv-x="680" d="M94 -200T94 -55Q94 -13 136 -13Q178 -13 178 -55Q178 -93 189 -104T238 -116H432Q469 -116 480 -104T492 -55V72Q464 30 427 15T336 0H287Q188 0 141 47T94 192V465Q94 507 136 507Q178 507 178 465V192Q178
149 187 126T220 94T287 84H336Q417 84 454 110T492 192V465Q492 507 534 507Q576 507 576 465V-55Q576 -200 432 -200H238Q94 -200 94 -55Z" />
<glyph unicode="z" glyph-name="z" horiz-adv-x="545" d="M486 144T497 135T509 110Q509 104 508 100Q497 51 462 26T368 0H109Q89 0 78 11T67 42Q67 61 85 83L357 423H186Q160 423 148 419T130 403Q124 382 115 373T87 363Q67 363 56 372T45 398Q45 404 46 407Q65
507 186 507H431Q473 507 473 465Q473 445 455 423L185 85L368 84Q392 84 404 88T423 105Q430 126 439 135T467 144Q486 144 497 135Z" />
<glyph unicode="{" glyph-name="braceleft" horiz-adv-x="358" d="M221 -175T183 -134T144 4V171L91 191Q64 203 64 232V260Q64 289 91 301L144 322V489Q144 558 160 599T213 659T313 678Q327 678 337 668T348 643Q348 629 338 619T313 608Q271 608 251 599T222
565T214 489V304Q214 272 187 263L138 246L187 230Q214 223 214 189V4Q214 -43 221 -65T249 -96T313 -105Q327 -105 337 -115T348 -140Q348 -154 338 -164T313 -175Q221 -175 183 -134Z" />
<glyph unicode="|" glyph-name="bar" horiz-adv-x="244" d="M102 -162T91 -151T80 -120V674Q80 716 122 716Q164 716 164 674V-120Q164 -140 153 -151T122 -162Q102 -162 91 -151Z" />
<glyph unicode="}" glyph-name="braceright" horiz-adv-x="358" d="M31 -175T21 -165T10 -140Q10 -126 20 -116T45 -105Q88 -105 108 -97T136 -66T144 4V189Q144 223 171 230L220 246L171 263Q144 272 144 304V489Q144 540 136 564T108 598T45 608Q31 608 21 618T10
643Q10 657 20 667T45 678Q108 678 144 660T197 600T214 489V322L267 301Q294 289 294 260V232Q294 203 267 191L214 171V4Q214 -93 176 -134T45 -175Q31 -175 21 -165Z" />
<glyph unicode="~" glyph-name="asciitilde" horiz-adv-x="609" d="M107 263T98 273T89 297Q89 311 97 319Q140 362 162 375T216 388Q247 388 271 379T323 353Q343 341 357 335T388 329Q406 329 420 338T463 378Q475 388 488 388Q501 388 510 378T520 355Q520
344 512 334Q477 296 449 280T388 263Q359 263 338 271T293 295Q269 309 253 315T216 322Q204 322 197 320T178 307T144 273Q140 269 134 266T121 263Q107 263 98 273Z" />
<glyph unicode="&#xa0;" glyph-name="uni00A0" horiz-adv-x="314" />
<glyph unicode="&#xa1;" glyph-name="exclamdown" horiz-adv-x="270" d="M165 521T175 511T186 481V456Q186 437 176 427T146 417H122Q84 417 84 456V481Q84 500 93 510T122 521H146Q165 521 175 511ZM176 395T176 353V-142Q176 -184 134 -184Q92 -184 92 -142V353Q92
395 134 395Q176 395 176 353Z" />
<glyph unicode="&#xa2;" glyph-name="cent" horiz-adv-x="502" d="M437 227T449 215T462 185Q462 117 423 84T305 49V0Q305 -35 270 -35Q235 -35 235 0V49Q146 51 103 95T60 229V312Q60 403 103 447T235 493V541Q235 576 270 576Q305 576 305 541V493Q384 491
423 458T462 357Q462 340 450 328T420 315Q403 315 391 327T378 357Q378 387 364 397T305 409V133Q349 134 363 144T378 185Q378 202 390 214T420 227Q437 227 449 215ZM144 174T163 154T235 133V409Q182 409 163 389T144 312V229Q144 174 163 154Z" />
<glyph unicode="&#xa3;" glyph-name="sterling" horiz-adv-x="592" d="M554 84T554 42Q554 0 512 0H44V84Q62 84 70 89T82 107T86 150V208H33Q16 208 7 217T-2 243Q-2 260 7 269T33 278H86V430Q86 545 140 599T309 654H330Q435 654 484 605T534 450Q534 408 492
408Q450 408 450 450Q450 499 440 524T404 559T330 570H309Q255 570 226 558T183 515T170 430V278H358Q375 278 384 269T393 243Q393 226 384 217T358 208H170V150Q170 111 162 84H512Q554 84 554 42Z" />
<glyph unicode="&#xa4;" glyph-name="currency" horiz-adv-x="636" d="M131 121T119 133T106 163Q106 179 118 193L163 237Q130 287 130 347Q130 406 163 456L120 500Q107 513 107 530Q107 547 119 559T149 572Q168 572 179 559L222 516Q273 548 331 548Q390 548
441 516L486 561Q498 573 515 573Q532 573 544 561T557 531Q557 514 545 502L500 457Q533 407 533 347Q533 286 501 237L545 192Q557 180 557 163Q557 146 545 134T515 121Q498 121 485 134L442 178Q392 145 331 145Q273 145 222 177L178 133Q164 121 148 121Q131
121 119 133ZM380 229T414 263T449 347Q449 395 415 429T331 464Q300 464 273 448T230 405T214 347Q214 315 230 288T273 245T331 229Q380 229 414 263Z" />
<glyph unicode="&#xa5;" glyph-name="yen" d="M592 656T592 636Q592 624 585 611L361 259H444Q472 259 472 231Q472 203 444 203H351V167H444Q472 167 472 139Q472 111 444 111H351V42Q351 22 340 11T309 0Q267 0 267 42V111H172Q144 111 144 139Q144 167 172
167H267V203H172Q144 203 144 231Q144 259 172 259H257L33 610Q24 624 24 635Q24 654 46 668Q59 677 71 677Q90 677 103 655L309 326L513 657Q527 679 546 679Q558 679 572 670Q592 656 592 636Z" />
<glyph unicode="&#xa6;" glyph-name="brokenbar" horiz-adv-x="244" d="M105 347T93 359T80 389V674Q80 691 92 703T122 716Q139 716 151 704T164 674V389Q164 372 152 360T122 347Q105 347 93 359ZM105 -162T93 -150T80 -120V167Q80 184 92 196T122 209Q139 209
151 197T164 167V-120Q164 -137 152 -149T122 -162Q105 -162 93 -150Z" />
<glyph unicode="&#xa7;" glyph-name="section" horiz-adv-x="572" d="M464 153T478 127T492 57Q492 -17 456 -53T345 -90H231Q157 -90 121 -54T84 57Q84 73 95 84T123 96Q139 96 150 85T162 57Q162 16 176 2T231 -12H345Q386 -12 400 2T414 57Q414 77 409 87T388
107T334 128L210 168Q139 191 110 227T80 328Q80 419 153 446Q114 485 114 546Q114 602 148 631T246 661H344Q474 661 474 530Q474 514 463 503T435 491Q419 491 408 502T396 530Q396 562 386 572T344 583H246Q214 583 203 575T192 546Q192 518 206 503T259 474L358
439Q424 416 453 379T482 282Q482 204 430 172Q464 153 478 127ZM158 302T164 287T185 262T233 242L344 206Q377 207 390 223T404 282Q404 316 390 333T333 365L234 400L228 402Q187 401 173 386T158 328Q158 302 164 287Z" />
<glyph unicode="&#xa8;" glyph-name="dieresis" horiz-adv-x="369" d="M63 581T53 591T42 621V646Q42 665 52 675T82 685H106Q144 685 144 646V621Q144 602 135 592T106 581H82Q63 581 53 591ZM230 581T220 591T209 621V646Q209 665 219 675T249 685H273Q311 685
311 646V621Q311 602 302 592T273 581H249Q230 581 220 591Z" />
<glyph unicode="&#xa9;" glyph-name="copyright" horiz-adv-x="818" d="M315 7T240 49T123 166T80 335Q80 429 122 504T240 621T409 664Q503 664 578 622T695 504T738 335Q738 241 696 166T578 49T409 7Q315 7 240 49ZM485 77T543 109T635 200T668 335Q668 411
635 469T544 561T409 594Q333 594 275 561T183 470T150 335Q150 259 183 201T274 110T409 77Q485 77 543 109ZM311 146T275 182T238 292V375Q238 450 274 486T385 522H434Q542 522 563 457Q565 449 565 446Q565 434 556 427T528 420Q516 420 511 424T500 436T490
449Q474 452 434 452H385Q340 452 324 437T308 375V292Q308 247 323 232T385 216H434Q460 216 490 219Q493 223 499 232T511 245T528 249Q545 249 555 242T565 222Q565 219 563 211Q537 146 434 146H385Q311 146 275 182Z" />
<glyph unicode="&#xaa;" glyph-name="ordfeminine" horiz-adv-x="474" d="M340 668T375 633T410 527V334Q410 317 401 308T373 298Q356 298 347 307T337 334V346Q307 298 239 298H184Q64 298 64 418Q64 539 184 539H337Q336 572 322 583T269 595H213Q164 595 150
585Q134 564 128 560T109 556Q93 556 84 563T74 585Q74 591 75 595Q86 632 120 650T213 668H269Q340 668 375 633ZM337 371T337 404V466H184Q155 466 146 457T137 418Q137 389 146 380T184 371H239Q337 371 337 404Z" />
<glyph unicode="&#xab;" glyph-name="guillemotleft" horiz-adv-x="681" d="M538 107T530 115L344 269Q329 281 329 294Q329 307 344 319L530 473Q538 481 552 481Q566 481 576 471T587 446Q587 431 573 419L422 294L573 169Q587 157 587 142Q587 128 577 118T552
107Q538 107 530 115ZM303 107T295 115L109 269Q94 281 94 294Q94 307 109 319L295 473Q303 481 317 481Q331 481 341 471T352 446Q352 431 338 419L187 294L338 169Q352 157 352 142Q352 128 342 118T317 107Q303 107 295 115Z" />
<glyph unicode="&#xac;" glyph-name="logicalnot" horiz-adv-x="609" d="M475 204T466 213T456 236V319H120Q107 319 98 328T88 351Q88 364 97 373T120 383H488Q521 383 521 351V236Q521 223 511 214T488 204Q475 204 466 213Z" />
<glyph unicode="&#xad;" glyph-name="uni00AD" horiz-adv-x="514" d="M105 235T95 245T84 270Q84 284 94 294T119 305H395Q409 305 419 295T430 270Q430 256 420 246T395 235H119Q105 235 95 245Z" />
<glyph unicode="&#xae;" glyph-name="registered" horiz-adv-x="818" d="M315 7T240 49T123 167T80 336Q80 430 122 505T240 622T409 665Q503 665 578 623T695 505T738 336Q738 242 696 167T578 50T409 7Q315 7 240 49ZM485 77T543 110T635 201T668 336Q668 412
635 470T544 562T409 595Q333 595 275 562T183 471T150 336Q150 260 183 202T274 110T409 77Q485 77 543 110ZM305 160T296 169T287 195V488Q287 505 296 514T322 523H411Q463 523 491 495T520 414V399Q520 327 469 301L520 213Q525 204 525 193Q525 176 505 165Q495
160 487 160Q469 160 457 180L396 289H357V195Q357 179 348 170T322 160Q305 160 296 169ZM411 359Q433 359 441 367T450 399V414Q450 436 442 444T411 453H357V359H411Z" />
<glyph unicode="&#xaf;" glyph-name="overscore" horiz-adv-x="437" d="M50 563T50 605Q50 647 92 647H345Q387 647 387 605Q387 563 345 563H92Q50 563 50 605Z" />
<glyph unicode="&#xb0;" glyph-name="degree" horiz-adv-x="289" d="M93 439T72 460T50 522V594Q50 634 71 655T133 677H156Q196 677 217 656T239 594V522Q239 482 218 461T156 439H133Q93 439 72 460ZM156 495Q172 495 177 500T183 522V594Q183 610 178 615T156
621H133Q117 621 112 616T106 594V522Q106 506 111 501T133 495H156Z" />
<glyph unicode="&#xb1;" glyph-name="plusminus" horiz-adv-x="609" d="M103 318T94 327T84 353Q84 370 93 379T119 388H279V485Q279 520 314 520Q349 520 349 485V388H490Q507 388 516 379T525 353Q525 336 516 327T490 318H349V213Q349 178 314 178Q279 178
279 213V318H119Q103 318 94 327ZM507 153T516 144T525 118Q525 101 516 92T490 83H119Q103 83 94 92T84 118Q84 135 93 144T119 153H490Q507 153 516 144Z" />
<glyph unicode="&#xb2;" glyph-name="uni00B2" horiz-adv-x="374" d="M97 298Q79 298 68 308T57 337Q57 383 73 414T111 463T169 503Q211 530 222 540T234 567Q234 586 230 590T207 594H157Q133 594 128 591Q111 569 104 564T84 558Q67 558 57 566T46 590Q46 596
47 600Q67 672 157 672H207Q259 672 285 646T312 567Q312 534 298 511T266 474T211 437Q178 417 164 405T141 376H280Q320 376 320 337Q320 318 310 308T280 298H97Z" />
<glyph unicode="&#xb3;" glyph-name="uni00B3" horiz-adv-x="396" d="M348 484T348 416Q348 359 319 330T232 301H176Q83 301 65 374Q64 378 64 384Q64 399 74 407T102 416Q116 416 121 412T134 398T145 382Q151 379 176 379H232Q257 379 263 385T270 416Q270
441 264 447T232 453H211Q192 453 182 463T172 493Q172 512 182 522T211 532H229Q263 532 263 563Q263 586 257 591T230 597H178Q163 597 153 595Q147 588 140 580T127 567T111 563Q91 563 81 571T70 593Q70 600 71 604Q80 639 107 657T178 675H230Q284 675 312
649T341 577Q341 535 308 512Q348 484 348 416Z" />
<glyph unicode="&#xb4;" glyph-name="acute" horiz-adv-x="247" d="M48 534T48 549Q48 563 58 574L131 662Q142 676 157 676Q171 676 182 666Q196 655 196 640Q196 626 186 615L113 527Q102 513 87 513Q75 513 62 523Q48 534 48 549Z" />
<glyph unicode="&#xb5;" glyph-name="uni00B5" horiz-adv-x="703" d="M638 85T648 75T658 42Q658 0 612 0Q539 0 493 60Q465 31 421 15T318 -2H290Q219 -2 178 53V-36Q178 -62 167 -77T136 -92Q116 -92 105 -81T94 -50V465Q94 485 105 496T136 507Q156 507 167
496T178 465V194Q178 150 188 126T222 92T290 82H318Q389 82 431 99T474 152V465Q474 485 485 496T516 507Q536 507 547 496T558 465V133Q558 110 562 100T578 86T615 84Q638 85 648 75Z" />
<glyph unicode="&#xb6;" glyph-name="paragraph" horiz-adv-x="576" d="M293 -198T283 -188T272 -163V276H221Q135 276 90 321T44 452V481Q44 567 89 612T221 658H437Q454 658 463 649T472 623V-163Q472 -177 462 -187T437 -198Q423 -198 413 -188T402 -163V588H342V-163Q342
-177 332 -187T307 -198Q293 -198 283 -188Z" />
<glyph unicode="&#xb7;" glyph-name="middot" horiz-adv-x="270" d="M105 250T95 260T84 290V315Q84 334 94 344T124 354H148Q186 354 186 315V290Q186 271 177 261T148 250H124Q105 250 95 260Z" />
<glyph unicode="&#xb8;" glyph-name="cedilla" horiz-adv-x="314" d="M100 -214T75 -189T50 -117Q50 -82 85 -82Q120 -82 120 -117Q120 -135 124 -139T147 -144Q176 -144 185 -136T194 -97Q194 -90 191 -86T174 -72Q121 -40 121 15Q121 50 156 50Q191 50 191 15Q191
6 194 1T213 -15Q235 -30 249 -48T264 -97Q264 -214 147 -214Q100 -214 75 -189Z" />
<glyph unicode="&#xb9;" glyph-name="uni00B9" horiz-adv-x="287" d="M227 678T227 650V340Q227 298 185 298Q143 298 143 340V537L125 520Q111 506 96 506Q81 506 66 521Q52 537 52 551Q52 567 67 580L145 657Q159 670 169 674T197 678Q227 678 227 650Z" />
<glyph unicode="&#xba;" glyph-name="ordmasculine" horiz-adv-x="430" d="M36 298T36 444V504Q36 648 182 650H248Q394 650 394 504V445Q394 298 248 298H182Q36 298 36 444ZM248 382Q286 382 298 394T310 445V504Q310 542 298 554T248 566H182Q144 565 132 554T120
504V444Q120 406 132 394T182 382H248Z" />
<glyph unicode="&#xbb;" glyph-name="guillemotright" horiz-adv-x="678" d="M347 107T337 117T326 142Q326 157 340 169L491 294L340 419Q326 431 326 446Q326 460 336 470T361 481Q375 481 383 473L569 319Q584 307 584 294Q584 281 569 269L383 115Q375 107
361 107Q347 107 337 117ZM115 107T105 117T94 142Q94 157 108 169L259 294L108 419Q94 431 94 446Q94 460 104 470T129 481Q143 481 151 473L337 319Q352 307 352 294Q352 281 337 269L151 115Q143 107 129 107Q115 107 105 117Z" />
<glyph unicode="&#xbc;" glyph-name="onequarter" horiz-adv-x="819" d="M227 678T227 650V340Q227 298 185 298Q143 298 143 340V537L125 520Q111 506 96 506Q81 506 66 521Q52 537 52 551Q52 567 67 580L145 657Q159 670 169 674T197 678Q227 678 227 650ZM138
-20T126 -8T113 22Q113 37 121 48L582 658Q596 675 616 675Q633 675 645 663T658 633Q658 618 650 607L189 -3Q175 -20 155 -20Q138 -20 126 -8ZM795 150T795 110Q795 91 785 81T756 71H721V41Q721 22 711 12T682 2Q663 2 653 12T643 41V71H493Q474 71 464 81T454
110Q454 127 470 149L642 358Q663 382 689 382Q723 382 723 343L722 150H756Q795 150 795 110ZM557 150H644L645 253L557 150Z" />
<glyph unicode="&#xbd;" glyph-name="onehalf" horiz-adv-x="837" d="M227 678T227 650V340Q227 298 185 298Q143 298 143 340V537L125 520Q111 506 96 506Q81 506 66 521Q52 537 52 551Q52 567 67 580L145 657Q159 670 169 674T197 678Q227 678 227 650ZM138
-20T126 -8T113 22Q113 37 121 48L582 658Q596 675 616 675Q633 675 645 663T658 633Q658 618 650 607L189 -3Q175 -20 155 -20Q138 -20 126 -8ZM554 0Q536 0 525 10T514 39Q514 85 530 116T568 165T626 205Q668 232 679 242T691 269Q691 288 687 292T664 296H614Q590
296 585 293Q568 271 561 266T541 260Q524 260 514 268T503 292Q503 298 504 302Q524 374 614 374H664Q716 374 742 348T769 269Q769 236 755 213T723 176T668 139Q635 119 621 107T598 78H737Q777 78 777 39Q777 20 767 10T737 0H554Z" />
<glyph unicode="&#xbe;" glyph-name="threequarters" horiz-adv-x="929" d="M348 484T348 416Q348 359 319 330T232 301H176Q83 301 65 374Q64 378 64 384Q64 399 74 407T102 416Q116 416 121 412T134 398T145 382Q151 379 176 379H232Q257 379 263 385T270 416Q270
441 264 447T232 453H211Q192 453 182 463T172 493Q172 512 182 522T211 532H229Q263 532 263 563Q263 586 257 591T230 597H178Q163 597 153 595Q147 588 140 580T127 567T111 563Q91 563 81 571T70 593Q70 600 71 604Q80 639 107 657T178 675H230Q284 675 312
649T341 577Q341 535 308 512Q348 484 348 416ZM247 -20T235 -8T222 22Q222 37 230 48L691 658Q705 675 725 675Q742 675 754 663T767 633Q767 618 759 607L298 -3Q284 -20 264 -20Q247 -20 235 -8ZM905 150T905 110Q905 91 895 81T866 71H831V41Q831 22 821 12T792
2Q773 2 763 12T753 41V71H603Q584 71 574 81T564 110Q564 127 580 149L752 358Q773 382 799 382Q833 382 833 343L832 150H866Q905 150 905 110ZM667 150H754L755 253L667 150Z" />
<glyph unicode="&#xbf;" glyph-name="questiondown" horiz-adv-x="514" d="M310 510T320 500T331 470V445Q331 426 321 416T291 406H267Q229 406 229 445V470Q229 489 238 499T267 510H291Q310 510 320 500ZM321 344T321 302Q321 253 304 221T266 171T212 136Q184
120 172 110T152 84T144 41Q144 1 153 -20T183 -51T245 -60H312Q352 -60 373 -51T404 -21T413 41Q413 83 455 83Q497 83 497 41Q497 -144 312 -144H245Q151 -144 106 -99T60 41Q60 90 77 122T115 172T169 207Q197 223 209 233T229 259T237 302Q237 344 279 344Q321
344 321 302Z" />
<glyph unicode="&#xc0;" glyph-name="Agrave" horiz-adv-x="666" d="M625 50T625 39Q625 15 598 4Q589 0 578 0Q554 0 543 27L489 158H178L126 27Q115 0 91 0Q81 0 72 4Q44 14 44 39Q44 50 48 59L286 645Q301 678 333 678H335Q368 676 379 645L621 59Q625 50 625
39ZM211 242H455L330 545L211 242ZM365 712T353 712Q338 712 327 726L254 814Q244 825 244 839Q244 854 258 865Q269 875 283 875Q298 875 309 861L382 773Q392 762 392 748Q392 733 378 722Q365 712 353 712Z" />
<glyph unicode="&#xc1;" glyph-name="Aacute" horiz-adv-x="666" d="M625 50T625 39Q625 15 598 4Q589 0 578 0Q554 0 543 27L489 158H178L126 27Q115 0 91 0Q81 0 72 4Q44 14 44 39Q44 50 48 59L286 645Q301 678 333 678H335Q368 676 379 645L621 59Q625 50 625
39ZM211 242H455L330 545L211 242ZM314 733T314 748Q314 762 324 773L397 861Q408 875 423 875Q437 875 448 865Q462 854 462 839Q462 825 452 814L379 726Q368 712 353 712Q341 712 328 722Q314 733 314 748Z" />
<glyph unicode="&#xc2;" glyph-name="Acircumflex" horiz-adv-x="666" d="M625 50T625 39Q625 15 598 4Q589 0 578 0Q554 0 543 27L489 158H178L126 27Q115 0 91 0Q81 0 72 4Q44 14 44 39Q44 50 48 59L286 645Q301 678 333 678H335Q368 676 379 645L621 59Q625
50 625 39ZM211 242H455L330 545L211 242ZM197 719T186 730T175 757Q175 766 180 775T193 790L285 866Q306 884 332 884H335Q349 884 360 880T382 866L475 790Q483 785 488 776T493 757Q493 741 482 730T455 719Q439 719 427 731L334 808H333L241 731Q229 719 213
719Q197 719 186 730Z" />
<glyph unicode="&#xc3;" glyph-name="Atilde" horiz-adv-x="666" d="M625 50T625 39Q625 15 598 4Q589 0 578 0Q554 0 543 27L489 158H178L126 27Q115 0 91 0Q81 0 72 4Q44 14 44 39Q44 50 48 59L286 645Q301 678 333 678H335Q368 676 379 645L621 59Q625 50 625
39ZM211 242H455L330 545L211 242ZM377 734T360 745T323 775Q310 789 303 793T286 797Q260 797 247 766Q236 740 217 740Q210 740 201 743Q179 751 179 768Q179 777 183 785Q200 826 224 845T286 864Q315 864 333 853T371 822Q384 809 390 806T406 802Q416 802
422 807T435 827Q446 855 466 855Q469 855 479 853Q503 847 503 827Q503 821 500 812Q486 772 463 753T406 734Q377 734 360 745Z" />
<glyph unicode="&#xc4;" glyph-name="Adieresis" horiz-adv-x="666" d="M625 50T625 39Q625 15 598 4Q589 0 578 0Q554 0 543 27L489 158H178L126 27Q115 0 91 0Q81 0 72 4Q44 14 44 39Q44 50 48 59L286 645Q301 678 333 678H335Q368 676 379 645L621 59Q625 50
625 39ZM211 242H455L330 545L211 242ZM221 752T211 762T200 792V817Q200 836 210 846T240 856H264Q302 856 302 817V792Q302 773 293 763T264 752H240Q221 752 211 762ZM388 752T378 762T367 792V817Q367 836 377 846T407 856H431Q469 856 469 817V792Q469 773
460 763T431 752H407Q388 752 378 762Z" />
<glyph unicode="&#xc5;" glyph-name="Aring" horiz-adv-x="666" d="M625 50T625 39Q625 15 598 4Q589 0 578 0Q554 0 543 27L489 158H178L126 27Q115 0 91 0Q81 0 72 4Q44 14 44 39Q44 50 48 59L286 645Q301 678 333 678H335Q368 676 379 645L621 59Q625 50 625
39ZM211 242H455L330 545L211 242ZM301 729T280 749T259 806Q259 842 280 862T336 883Q372 883 393 863T414 806Q414 770 393 750T336 729Q301 729 280 749ZM347 786T351 787T356 796V812Q356 822 355 824T345 826H338Q322 826 319 824T316 813V806Q316 792 318
789T328 786Q347 786 351 787Z" />
<glyph unicode="&#xc6;" glyph-name="AE" horiz-adv-x="860" d="M429 0T429 42V158H201L124 24Q111 0 90 0Q78 0 67 7Q44 21 44 41Q44 53 51 64L383 649Q401 678 434 678H762Q782 678 793 667T804 636Q804 616 793 605T762 594H513V384H644Q664 384 675 373T686
342Q686 322 675 311T644 300H513V84H762Q782 84 793 73T804 42Q804 22 793 11T762 0H471Q429 0 429 42ZM249 242H429V569L249 242Z" />
<glyph unicode="&#xc7;" glyph-name="Ccedilla" horiz-adv-x="696" d="M606 204T617 193T625 161Q617 81 571 42T437 0Q441 -5 455 -15Q477 -30 491 -48T506 -97Q506 -214 389 -214Q342 -214 317 -189T292 -117Q292 -82 327 -82Q362 -82 362 -117Q362 -135 366
-139T389 -144Q418 -144 427 -136T436 -97Q436 -90 433 -86T416 -72Q397 -60 383 -44T364 0H304Q189 0 135 54T80 224V454Q80 569 134 624T303 678H424Q518 678 567 639T625 517Q628 496 617 485T585 474Q565 474 555 484T541 516Q536 561 510 577T424 594H303Q249
595 219 582T177 539T164 454V224Q164 169 177 140T219 97T304 84H424Q484 84 510 100T541 162Q544 183 554 193T585 204Q606 204 617 193Z" />
<glyph unicode="&#xc8;" glyph-name="Egrave" horiz-adv-x="603" d="M525 84T536 73T547 42Q547 22 536 11T505 0H146Q126 0 115 11T104 42V636Q104 656 115 667T146 678H505Q525 678 536 667T547 636Q547 616 536 605T505 594H188V384H387Q407 384 418 373T429
342Q429 322 418 311T387 300H188V84H505Q525 84 536 73ZM371 712T359 712Q344 712 333 726L260 814Q250 825 250 839Q250 854 264 865Q275 875 289 875Q304 875 315 861L388 773Q398 762 398 748Q398 733 384 722Q371 712 359 712Z" />
<glyph unicode="&#xc9;" glyph-name="Eacute" horiz-adv-x="603" d="M525 84T536 73T547 42Q547 22 536 11T505 0H146Q126 0 115 11T104 42V636Q104 656 115 667T146 678H505Q525 678 536 667T547 636Q547 616 536 605T505 594H188V384H387Q407 384 418 373T429
342Q429 322 418 311T387 300H188V84H505Q525 84 536 73ZM304 751T304 766Q304 780 314 791L387 879Q398 893 413 893Q427 893 438 883Q452 872 452 857Q452 843 442 832L369 744Q358 730 343 730Q331 730 318 740Q304 751 304 766Z" />
<glyph unicode="&#xca;" glyph-name="Ecircumflex" horiz-adv-x="603" d="M525 84T536 73T547 42Q547 22 536 11T505 0H146Q126 0 115 11T104 42V636Q104 656 115 667T146 678H505Q525 678 536 667T547 636Q547 616 536 605T505 594H188V384H387Q407 384 418 373T429
342Q429 322 418 311T387 300H188V84H505Q525 84 536 73ZM203 719T192 730T181 757Q181 766 186 775T199 790L291 866Q312 884 338 884H341Q355 884 366 880T388 866L481 790Q489 785 494 776T499 757Q499 741 488 730T461 719Q445 719 433 731L340 808H339L247
731Q235 719 219 719Q203 719 192 730Z" />
<glyph unicode="&#xcb;" glyph-name="Edieresis" horiz-adv-x="603" d="M525 84T536 73T547 42Q547 22 536 11T505 0H146Q126 0 115 11T104 42V636Q104 656 115 667T146 678H505Q525 678 536 667T547 636Q547 616 536 605T505 594H188V384H387Q407 384 418 373T429
342Q429 322 418 311T387 300H188V84H505Q525 84 536 73ZM227 752T217 762T206 792V817Q206 836 216 846T246 856H270Q308 856 308 817V792Q308 773 299 763T270 752H246Q227 752 217 762ZM394 752T384 762T373 792V817Q373 836 383 846T413 856H437Q475 856 475
817V792Q475 773 466 763T437 752H413Q394 752 384 762Z" />
<glyph unicode="&#xcc;" glyph-name="Igrave" horiz-adv-x="292" d="M124 0T114 10T104 42V635Q104 657 114 667T146 677Q168 677 178 667T188 635V42Q188 20 178 10T146 0Q124 0 114 10ZM177 712T165 712Q150 712 139 726L66 814Q56 825 56 839Q56 854 70 865Q81
875 95 875Q110 875 121 861L194 773Q204 762 204 748Q204 733 190 722Q177 712 165 712Z" />
<glyph unicode="&#xcd;" glyph-name="Iacute" horiz-adv-x="292" d="M124 0T114 10T104 42V635Q104 657 114 667T146 677Q168 677 178 667T188 635V42Q188 20 178 10T146 0Q124 0 114 10ZM110 751T110 766Q110 780 120 791L193 879Q204 893 219 893Q233 893 244
883Q258 872 258 857Q258 843 248 832L175 744Q164 730 149 730Q137 730 124 740Q110 751 110 766Z" />
<glyph unicode="&#xce;" glyph-name="Icircumflex" horiz-adv-x="292" d="M124 0T114 10T104 42V635Q104 657 114 667T146 677Q168 677 178 667T188 635V42Q188 20 178 10T146 0Q124 0 114 10ZM38 731T28 741T17 766Q17 780 27 790L100 863Q118 882 144 882H150Q176
882 194 863L267 790Q277 780 277 766Q277 752 267 742T242 731Q226 731 217 741L153 812H141L77 741Q67 731 52 731Q38 731 28 741Z" />
<glyph unicode="&#xcf;" glyph-name="Idieresis" horiz-adv-x="292" d="M124 0T114 10T104 42V635Q104 657 114 667T146 677Q168 677 178 667T188 635V42Q188 20 178 10T146 0Q124 0 114 10ZM33 752T23 762T12 792V817Q12 836 22 846T52 856H76Q114 856 114 817V792Q114
773 105 763T76 752H52Q33 752 23 762ZM200 752T190 762T179 792V817Q179 836 189 846T219 856H243Q281 856 281 817V792Q281 773 272 763T243 752H219Q200 752 190 762Z" />
<glyph unicode="&#xd0;" glyph-name="Eth" horiz-adv-x="721" d="M518 678T579 617T641 424V254Q641 123 580 62T387 0H146Q126 0 115 11T104 42V303H62Q46 303 37 312T27 338Q27 355 36 364T62 373H104V636Q104 656 115 667T146 678H387Q518 678 579 617ZM557
424Q557 489 541 525T489 578T387 594H188V373H324Q341 373 350 364T359 338Q359 321 350 312T324 303H188V84H387Q452 84 488 100T541 152T557 254V424Z" />
<glyph unicode="&#xd1;" glyph-name="Ntilde" horiz-adv-x="757" d="M631 678T642 667T653 636V42Q653 22 642 11T611 0Q599 0 589 6T569 25L188 516V42Q188 22 177 11T146 0Q126 0 115 11T104 42V636Q104 656 115 667T146 678Q158 678 167 672T188 653L569 162V636Q569
656 580 667T611 678Q631 678 642 667ZM418 734T401 745T364 775Q351 789 344 793T327 797Q301 797 288 766Q277 740 258 740Q251 740 242 743Q220 751 220 768Q220 777 224 785Q241 826 265 845T327 864Q356 864 374 853T412 822Q425 809 431 806T447 802Q457
802 463 807T476 827Q487 855 507 855Q510 855 520 853Q544 847 544 827Q544 821 541 812Q527 772 504 753T447 734Q418 734 401 745Z" />
<glyph unicode="&#xd2;" glyph-name="Ograve" horiz-adv-x="728" d="M189 0T135 54T80 224V455Q80 570 135 624T304 678H424Q539 678 593 624T648 454V224Q648 109 594 55T424 0H304Q189 0 135 54ZM424 84Q479 84 508 97T551 139T564 224V454Q564 508 551 538T508
581T424 594H304Q250 595 220 582T177 539T164 455V224Q164 169 177 140T219 97T304 84H424ZM395 712T383 712Q368 712 357 726L284 814Q274 825 274 839Q274 854 288 865Q299 875 313 875Q328 875 339 861L412 773Q422 762 422 748Q422 733 408 722Q395 712 383
712Z" />
<glyph unicode="&#xd3;" glyph-name="Oacute" horiz-adv-x="728" d="M189 0T135 54T80 224V455Q80 570 135 624T304 678H424Q539 678 593 624T648 454V224Q648 109 594 55T424 0H304Q189 0 135 54ZM424 84Q479 84 508 97T551 139T564 224V454Q564 508 551 538T508
581T424 594H304Q250 595 220 582T177 539T164 455V224Q164 169 177 140T219 97T304 84H424ZM328 751T328 766Q328 780 338 791L411 879Q422 893 437 893Q451 893 462 883Q476 872 476 857Q476 843 466 832L393 744Q382 730 367 730Q355 730 342 740Q328 751 328
766Z" />
<glyph unicode="&#xd4;" glyph-name="Ocircumflex" horiz-adv-x="728" d="M189 0T135 54T80 224V455Q80 570 135 624T304 678H424Q539 678 593 624T648 454V224Q648 109 594 55T424 0H304Q189 0 135 54ZM424 84Q479 84 508 97T551 139T564 224V454Q564 508 551
538T508 581T424 594H304Q250 595 220 582T177 539T164 455V224Q164 169 177 140T219 97T304 84H424ZM227 719T216 730T205 757Q205 766 210 775T223 790L315 866Q336 884 362 884H365Q379 884 390 880T412 866L505 790Q513 785 518 776T523 757Q523 741 512 730T485
719Q469 719 457 731L364 808H363L271 731Q259 719 243 719Q227 719 216 730Z" />
<glyph unicode="&#xd5;" glyph-name="Otilde" horiz-adv-x="728" d="M189 0T135 54T80 224V455Q80 570 135 624T304 678H424Q539 678 593 624T648 454V224Q648 109 594 55T424 0H304Q189 0 135 54ZM424 84Q479 84 508 97T551 139T564 224V454Q564 508 551 538T508
581T424 594H304Q250 595 220 582T177 539T164 455V224Q164 169 177 140T219 97T304 84H424ZM407 734T390 745T353 775Q340 789 333 793T316 797Q290 797 277 766Q266 740 247 740Q240 740 231 743Q209 751 209 768Q209 777 213 785Q230 826 254 845T316 864Q345
864 363 853T401 822Q414 809 420 806T436 802Q446 802 452 807T465 827Q476 855 496 855Q499 855 509 853Q533 847 533 827Q533 821 530 812Q516 772 493 753T436 734Q407 734 390 745Z" />
<glyph unicode="&#xd6;" glyph-name="Odieresis" horiz-adv-x="728" d="M189 0T135 54T80 224V455Q80 570 135 624T304 678H424Q539 678 593 624T648 454V224Q648 109 594 55T424 0H304Q189 0 135 54ZM424 84Q479 84 508 97T551 139T564 224V454Q564 508 551 538T508
581T424 594H304Q250 595 220 582T177 539T164 455V224Q164 169 177 140T219 97T304 84H424ZM251 752T241 762T230 792V817Q230 836 240 846T270 856H294Q332 856 332 817V792Q332 773 323 763T294 752H270Q251 752 241 762ZM418 752T408 762T397 792V817Q397 836
407 846T437 856H461Q499 856 499 817V792Q499 773 490 763T461 752H437Q418 752 408 762Z" />
<glyph unicode="&#xd7;" glyph-name="multiply" horiz-adv-x="609" d="M456 226Q468 214 468 201Q468 188 456 176Q444 164 431 164Q418 164 406 176L307 276L204 173Q192 161 179 161Q166 161 154 173Q142 185 142 198Q142 211 154 223L257 326L144 439Q132 451
132 464Q132 478 144 488Q156 500 169 500Q182 500 194 488L307 375L417 485Q429 497 442 497Q456 497 466 485Q478 473 478 460Q478 447 466 435L357 326L456 226Z" />
<glyph unicode="&#xd8;" glyph-name="Oslash" horiz-adv-x="728" d="M648 585T648 454V224Q648 109 594 55T424 0H304Q240 0 198 16L182 -10Q169 -31 151 -31Q141 -31 128 -23Q107 -10 107 9Q107 20 114 31L131 59Q80 113 80 224V455Q80 570 135 624T304 678H424Q467
678 505 670L519 693Q533 714 550 714Q560 714 573 706Q593 692 593 676Q593 666 585 652L576 638Q648 585 648 454ZM164 165T178 136L458 593Q447 594 424 594H304Q250 595 220 582T177 539T164 455V224Q164 165 178 136ZM564 454Q564 495 557 522T532 565L243
89Q271 84 304 84H424Q479 84 508 97T551 139T564 224V454Z" />
<glyph unicode="&#xd9;" glyph-name="Ugrave" horiz-adv-x="756" d="M203 0T149 54T94 224V636Q94 678 136 678Q178 678 178 636V224Q178 169 191 140T233 97T318 84H438Q493 84 522 97T565 139T578 224V636Q578 678 620 678Q662 678 662 636V224Q662 109 608
55T438 0H318Q203 0 149 54ZM409 712T397 712Q382 712 371 726L298 814Q288 825 288 839Q288 854 302 865Q313 875 327 875Q342 875 353 861L426 773Q436 762 436 748Q436 733 422 722Q409 712 397 712Z" />
<glyph unicode="&#xda;" glyph-name="Uacute" horiz-adv-x="756" d="M203 0T149 54T94 224V636Q94 678 136 678Q178 678 178 636V224Q178 169 191 140T233 97T318 84H438Q493 84 522 97T565 139T578 224V636Q578 678 620 678Q662 678 662 636V224Q662 109 608
55T438 0H318Q203 0 149 54ZM342 751T342 766Q342 780 352 791L425 879Q436 893 451 893Q465 893 476 883Q490 872 490 857Q490 843 480 832L407 744Q396 730 381 730Q369 730 356 740Q342 751 342 766Z" />
<glyph unicode="&#xdb;" glyph-name="Ucircumflex" horiz-adv-x="756" d="M203 0T149 54T94 224V636Q94 678 136 678Q178 678 178 636V224Q178 169 191 140T233 97T318 84H438Q493 84 522 97T565 139T578 224V636Q578 678 620 678Q662 678 662 636V224Q662 109
608 55T438 0H318Q203 0 149 54ZM241 719T230 730T219 757Q219 766 224 775T237 790L329 866Q350 884 376 884H379Q393 884 404 880T426 866L519 790Q527 785 532 776T537 757Q537 741 526 730T499 719Q483 719 471 731L378 808H377L285 731Q273 719 257 719Q241
719 230 730Z" />
<glyph unicode="&#xdc;" glyph-name="Udieresis" horiz-adv-x="756" d="M203 0T149 54T94 224V636Q94 678 136 678Q178 678 178 636V224Q178 169 191 140T233 97T318 84H438Q493 84 522 97T565 139T578 224V636Q578 678 620 678Q662 678 662 636V224Q662 109 608
55T438 0H318Q203 0 149 54ZM265 752T255 762T244 792V817Q244 836 254 846T284 856H308Q346 856 346 817V792Q346 773 337 763T308 752H284Q265 752 255 762ZM432 752T422 762T411 792V817Q411 836 421 846T451 856H475Q513 856 513 817V792Q513 773 504 763T475
752H451Q432 752 422 762Z" />
<glyph unicode="&#xdd;" glyph-name="Yacute" horiz-adv-x="615" d="M592 654T592 635Q592 623 583 611L345 246V42Q345 22 334 11T303 0Q283 0 272 11T261 42V246L32 611Q24 625 24 636Q24 657 45 670Q59 678 70 678Q89 678 103 657L303 336L513 657Q525 677
545 677Q557 677 570 668Q592 654 592 635ZM271 751T271 766Q271 780 281 791L354 879Q365 893 380 893Q394 893 405 883Q419 872 419 857Q419 843 409 832L336 744Q325 730 310 730Q298 730 285 740Q271 751 271 766Z" />
<glyph unicode="&#xde;" glyph-name="Thorn" horiz-adv-x="565" d="M424 575T472 527T521 386V356Q521 265 473 216T332 167H188V42Q188 22 177 11T146 0Q126 0 115 11T104 42V636Q104 656 115 667T146 678Q166 678 177 667T188 636V575H332Q424 575 472 527ZM437
386Q437 443 413 467T332 491H188V251H332Q389 251 413 275T437 356V386Z" />
<glyph unicode="&#xdf;" glyph-name="germandbls" horiz-adv-x="587" d="M104 0T104 42V519Q104 613 149 658T289 704Q382 704 427 659T473 520Q473 479 456 448T398 395Q471 378 502 337T533 226V194Q533 94 486 47T339 0H278Q236 0 236 42Q236 84 278 84H339Q383
84 406 93T439 126T449 194V226Q449 270 440 293T407 326T339 336H331Q289 336 289 379Q289 418 330 422Q364 428 376 450T389 520Q389 560 380 581T350 611T289 620Q249 620 228 611T197 581T188 519V42Q188 0 146 0Q104 0 104 42Z" />
<glyph unicode="&#xe0;" glyph-name="agrave" horiz-adv-x="640" d="M450 507T498 459T546 311V42Q546 22 535 11T504 0Q484 0 473 11T462 42V65Q409 0 306 0H250Q166 0 125 41T84 166Q84 250 124 291T250 332H461Q458 384 434 403T350 423H292Q242 423 218 416T183
392Q174 371 164 363T136 355Q118 355 107 364T95 388Q95 394 96 398Q111 454 158 480T292 507H350Q450 507 498 459ZM458 156T459 159T462 167V248H250Q216 248 199 241T175 217T168 166Q168 132 175 115T199 91T250 84H306Q433 84 457 153Q458 156 459 159ZM342
541T330 541Q315 541 304 555L231 643Q221 654 221 668Q221 683 235 694Q246 704 260 704Q275 704 286 690L359 602Q369 591 369 577Q369 562 355 551Q342 541 330 541Z" />
<glyph unicode="&#xe1;" glyph-name="aacute" horiz-adv-x="640" d="M450 507T498 459T546 311V42Q546 22 535 11T504 0Q484 0 473 11T462 42V65Q409 0 306 0H250Q166 0 125 41T84 166Q84 250 124 291T250 332H461Q458 384 434 403T350 423H292Q242 423 218 416T183
392Q174 371 164 363T136 355Q118 355 107 364T95 388Q95 394 96 398Q111 454 158 480T292 507H350Q450 507 498 459ZM458 156T459 159T462 167V248H250Q216 248 199 241T175 217T168 166Q168 132 175 115T199 91T250 84H306Q433 84 457 153Q458 156 459 159ZM275
580T275 595Q275 609 285 620L358 708Q369 722 384 722Q398 722 409 712Q423 701 423 686Q423 672 413 661L340 573Q329 559 314 559Q302 559 289 569Q275 580 275 595Z" />
<glyph unicode="&#xe2;" glyph-name="acircumflex" horiz-adv-x="640" d="M450 507T498 459T546 311V42Q546 22 535 11T504 0Q484 0 473 11T462 42V65Q409 0 306 0H250Q166 0 125 41T84 166Q84 250 124 291T250 332H461Q458 384 434 403T350 423H292Q242 423 218
416T183 392Q174 371 164 363T136 355Q118 355 107 364T95 388Q95 394 96 398Q111 454 158 480T292 507H350Q450 507 498 459ZM458 156T459 159T462 167V248H250Q216 248 199 241T175 217T168 166Q168 132 175 115T199 91T250 84H306Q433 84 457 153Q458 156 459
159ZM203 560T193 570T182 595Q182 609 192 619L265 692Q283 711 309 711H315Q341 711 359 692L432 619Q442 609 442 595Q442 581 432 571T407 560Q391 560 382 570L318 641H306L242 570Q232 560 217 560Q203 560 193 570Z" />
<glyph unicode="&#xe3;" glyph-name="atilde" horiz-adv-x="640" d="M450 507T498 459T546 311V42Q546 22 535 11T504 0Q484 0 473 11T462 42V65Q409 0 306 0H250Q166 0 125 41T84 166Q84 250 124 291T250 332H461Q458 384 434 403T350 423H292Q242 423 218 416T183
392Q174 371 164 363T136 355Q118 355 107 364T95 388Q95 394 96 398Q111 454 158 480T292 507H350Q450 507 498 459ZM458 156T459 159T462 167V248H250Q216 248 199 241T175 217T168 166Q168 132 175 115T199 91T250 84H306Q433 84 457 153Q458 156 459 159ZM354
563T337 574T300 604Q287 618 280 622T263 626Q237 626 224 595Q213 569 194 569Q187 569 178 572Q156 580 156 597Q156 606 160 614Q177 655 201 674T263 693Q292 693 310 682T348 651Q361 638 367 635T383 631Q393 631 399 636T412 656Q423 684 443 684Q446 684
456 682Q480 676 480 656Q480 650 477 641Q463 601 440 582T383 563Q354 563 337 574Z" />
<glyph unicode="&#xe4;" glyph-name="adieresis" horiz-adv-x="640" d="M450 507T498 459T546 311V42Q546 22 535 11T504 0Q484 0 473 11T462 42V65Q409 0 306 0H250Q166 0 125 41T84 166Q84 250 124 291T250 332H461Q458 384 434 403T350 423H292Q242 423 218
416T183 392Q174 371 164 363T136 355Q118 355 107 364T95 388Q95 394 96 398Q111 454 158 480T292 507H350Q450 507 498 459ZM458 156T459 159T462 167V248H250Q216 248 199 241T175 217T168 166Q168 132 175 115T199 91T250 84H306Q433 84 457 153Q458 156 459
159ZM198 581T188 591T177 621V646Q177 665 187 675T217 685H241Q279 685 279 646V621Q279 602 270 592T241 581H217Q198 581 188 591ZM365 581T355 591T344 621V646Q344 665 354 675T384 685H408Q446 685 446 646V621Q446 602 437 592T408 581H384Q365 581 355
591Z" />
<glyph unicode="&#xe5;" glyph-name="aring" horiz-adv-x="640" d="M450 507T498 459T546 311V42Q546 22 535 11T504 0Q484 0 473 11T462 42V65Q409 0 306 0H250Q166 0 125 41T84 166Q84 250 124 291T250 332H461Q458 384 434 403T350 423H292Q242 423 218 416T183
392Q174 371 164 363T136 355Q118 355 107 364T95 388Q95 394 96 398Q111 454 158 480T292 507H350Q450 507 498 459ZM458 156T459 159T462 167V248H250Q216 248 199 241T175 217T168 166Q168 132 175 115T199 91T250 84H306Q433 84 457 153Q458 156 459 159ZM278
558T257 578T236 635Q236 671 257 691T313 712Q349 712 370 692T391 635Q391 599 370 579T313 558Q278 558 257 578ZM324 615T328 616T333 625V641Q333 651 332 653T322 655H315Q299 655 296 653T293 642V635Q293 621 295 618T305 615Q324 615 328 616Z" />
<glyph unicode="&#xe6;" glyph-name="ae" horiz-adv-x="966" d="M525 -22T476 64Q445 23 397 2T286 -20H250Q166 -20 125 21T84 146Q84 230 125 271T250 312H442Q437 362 413 380T330 399H292Q245 399 221 393T186 372T176 331Q176 314 164 302T134 289Q117 289
105 301T92 331Q92 409 141 446T292 483H330Q435 483 484 406Q532 483 634 482H694Q792 482 839 430T886 270Q886 250 875 239T843 228H526V176Q526 131 536 107T568 72T633 62H694Q737 62 760 69T793 91T802 135Q802 152 814 164T844 177Q861 177 873 165T886
135Q886 54 839 16T694 -22H633Q525 -22 476 64ZM799 312Q793 360 770 379T694 398H634Q578 399 555 381T527 312H799ZM286 64Q367 64 404 90T442 172V228H250Q216 228 199 221T175 197T168 146Q168 112 175 95T199 71T250 64H286Z" />
<glyph unicode="&#xe7;" glyph-name="ccedilla" horiz-adv-x="591" d="M508 146T519 137T531 112Q531 106 530 102Q509 12 390 1Q394 -5 409 -15Q431 -30 445 -48T460 -97Q460 -214 343 -214Q296 -214 271 -189T246 -117Q246 -82 281 -82Q316 -82 316 -117Q316
-135 320 -139T343 -144Q372 -144 381 -136T390 -97Q390 -90 387 -86T370 -72Q351 -60 337 -44T318 0H276Q176 0 128 48T80 196V312Q80 412 128 460T276 507H358Q506 507 530 405Q531 401 531 395Q531 379 520 370T489 361Q471 361 462 370T444 399Q437 412 417
417T358 423H276Q232 424 208 414T174 380T164 312V196Q164 152 174 128T208 94T276 84H358Q397 84 417 89T444 108Q452 129 461 137T490 146Q508 146 519 137Z" />
<glyph unicode="&#xe8;" glyph-name="egrave" horiz-adv-x="634" d="M164 219V195Q164 151 174 128T208 94T276 84H358Q409 84 433 93T466 127Q472 147 482 156T511 166Q530 166 540 158T551 133Q551 126 550 123Q528 0 358 0H276Q176 0 128 48T80 195V311Q80
412 128 460T276 507H358Q458 507 506 459T554 311V261Q554 241 543 230T512 219H164ZM164 303H470V311Q470 355 460 379T426 413T358 423H276Q232 424 208 414T174 380T164 311V303ZM349 541T337 541Q322 541 311 555L238 643Q228 654 228 668Q228 683 242 694Q253
704 267 704Q282 704 293 690L366 602Q376 591 376 577Q376 562 362 551Q349 541 337 541Z" />
<glyph unicode="&#xe9;" glyph-name="eacute" horiz-adv-x="634" d="M164 219V195Q164 151 174 128T208 94T276 84H358Q409 84 433 93T466 127Q472 147 482 156T511 166Q530 166 540 158T551 133Q551 126 550 123Q528 0 358 0H276Q176 0 128 48T80 195V311Q80
412 128 460T276 507H358Q458 507 506 459T554 311V261Q554 241 543 230T512 219H164ZM164 303H470V311Q470 355 460 379T426 413T358 423H276Q232 424 208 414T174 380T164 311V303ZM282 580T282 595Q282 609 292 620L365 708Q376 722 391 722Q405 722 416 712Q430
701 430 686Q430 672 420 661L347 573Q336 559 321 559Q309 559 296 569Q282 580 282 595Z" />
<glyph unicode="&#xea;" glyph-name="ecircumflex" horiz-adv-x="634" d="M164 219V195Q164 151 174 128T208 94T276 84H358Q409 84 433 93T466 127Q472 147 482 156T511 166Q530 166 540 158T551 133Q551 126 550 123Q528 0 358 0H276Q176 0 128 48T80 195V311Q80
412 128 460T276 507H358Q458 507 506 459T554 311V261Q554 241 543 230T512 219H164ZM164 303H470V311Q470 355 460 379T426 413T358 423H276Q232 424 208 414T174 380T164 311V303ZM210 560T200 570T189 595Q189 609 199 619L272 692Q290 711 316 711H322Q348
711 366 692L439 619Q449 609 449 595Q449 581 439 571T414 560Q398 560 389 570L325 641H313L249 570Q239 560 224 560Q210 560 200 570Z" />
<glyph unicode="&#xeb;" glyph-name="edieresis" horiz-adv-x="634" d="M164 219V195Q164 151 174 128T208 94T276 84H358Q409 84 433 93T466 127Q472 147 482 156T511 166Q530 166 540 158T551 133Q551 126 550 123Q528 0 358 0H276Q176 0 128 48T80 195V311Q80
412 128 460T276 507H358Q458 507 506 459T554 311V261Q554 241 543 230T512 219H164ZM164 303H470V311Q470 355 460 379T426 413T358 423H276Q232 424 208 414T174 380T164 311V303ZM205 581T195 591T184 621V646Q184 665 194 675T224 685H248Q286 685 286 646V621Q286
602 277 592T248 581H224Q205 581 195 591ZM372 581T362 591T351 621V646Q351 665 361 675T391 685H415Q453 685 453 646V621Q453 602 444 592T415 581H391Q372 581 362 591Z" />
<glyph unicode="&#xec;" glyph-name="igrave" horiz-adv-x="292" d="M126 0T115 11T104 42V465Q104 485 115 496T146 507Q166 507 177 496T188 465V42Q188 22 177 11T146 0Q126 0 115 11ZM176 541T164 541Q149 541 138 555L65 643Q55 654 55 668Q55 683 69 694Q80
704 94 704Q109 704 120 690L193 602Q203 591 203 577Q203 562 189 551Q176 541 164 541Z" />
<glyph unicode="&#xed;" glyph-name="iacute" horiz-adv-x="292" d="M126 0T115 11T104 42V465Q104 485 115 496T146 507Q166 507 177 496T188 465V42Q188 22 177 11T146 0Q126 0 115 11ZM109 580T109 595Q109 609 119 620L192 708Q203 722 218 722Q232 722 243
712Q257 701 257 686Q257 672 247 661L174 573Q163 559 148 559Q136 559 123 569Q109 580 109 595Z" />
<glyph unicode="&#xee;" glyph-name="icircumflex" horiz-adv-x="292" d="M126 0T115 11T104 42V465Q104 485 115 496T146 507Q166 507 177 496T188 465V42Q188 22 177 11T146 0Q126 0 115 11ZM37 560T27 570T16 595Q16 609 26 619L99 692Q117 711 143 711H149Q175
711 193 692L266 619Q276 609 276 595Q276 581 266 571T241 560Q225 560 216 570L152 641H140L76 570Q66 560 51 560Q37 560 27 570Z" />
<glyph unicode="&#xef;" glyph-name="idieresis" horiz-adv-x="292" d="M126 0T115 11T104 42V465Q104 485 115 496T146 507Q166 507 177 496T188 465V42Q188 22 177 11T146 0Q126 0 115 11ZM32 581T22 591T11 621V646Q11 665 21 675T51 685H75Q113 685 113 646V621Q113
602 104 592T75 581H51Q32 581 22 591ZM199 581T189 591T178 621V646Q178 665 188 675T218 685H242Q280 685 280 646V621Q280 602 271 592T242 581H218Q199 581 189 591Z" />
<glyph unicode="&#xf0;" glyph-name="eth" horiz-adv-x="634" d="M483 657T516 579T554 339V196Q554 96 506 48T358 0H276Q176 0 128 47T80 195V311Q80 411 128 458T276 507H358Q418 507 462 463Q454 532 437 558T388 592L315 610L260 558Q248 546 235 546Q221
546 209 559Q197 571 197 585Q197 598 210 610L233 631L155 651Q122 660 122 688Q122 693 124 703Q133 735 160 735Q165 735 175 733L305 700L357 749Q369 761 382 761Q396 761 408 748Q420 736 420 723Q420 709 407 697L388 679L410 674Q483 657 516 579ZM470
301Q470 350 462 375T429 412T358 423H276Q231 422 208 413T174 380T164 311V195Q164 151 174 128T208 94T276 84H358Q402 84 426 94T460 128T470 196V301Z" />
<glyph unicode="&#xf1;" glyph-name="ntilde" horiz-adv-x="662" d="M472 507T520 459T568 311V42Q568 22 557 11T526 0Q506 0 495 11T484 42V311Q484 355 474 379T440 413T372 423H344Q281 423 238 409T188 366V42Q188 22 177 11T146 0Q126 0 115 11T104 42V465Q104
507 146 507Q188 507 188 465V448Q241 507 344 507H372Q472 507 520 459ZM400 563T383 574T346 604Q333 618 326 622T309 626Q283 626 270 595Q259 569 240 569Q233 569 224 572Q202 580 202 597Q202 606 206 614Q223 655 247 674T309 693Q338 693 356 682T394
651Q407 638 413 635T429 631Q439 631 445 636T458 656Q469 684 489 684Q492 684 502 682Q526 676 526 656Q526 650 523 641Q509 601 486 582T429 563Q400 563 383 574Z" />
<glyph unicode="&#xf2;" glyph-name="ograve" horiz-adv-x="634" d="M176 0T128 48T80 195V311Q80 411 128 459T276 507H358Q458 507 506 459T554 311V196Q554 96 506 48T358 0H276Q176 0 128 48ZM358 84Q402 84 426 94T460 128T470 196V311Q470 355 460 379T426
413T358 423H276Q231 423 208 413T174 380T164 311V195Q164 151 174 128T208 94T276 84H358ZM348 541T336 541Q321 541 310 555L237 643Q227 654 227 668Q227 683 241 694Q252 704 266 704Q281 704 292 690L365 602Q375 591 375 577Q375 562 361 551Q348 541 336
541Z" />
<glyph unicode="&#xf3;" glyph-name="oacute" horiz-adv-x="634" d="M176 0T128 48T80 195V311Q80 411 128 459T276 507H358Q458 507 506 459T554 311V196Q554 96 506 48T358 0H276Q176 0 128 48ZM358 84Q402 84 426 94T460 128T470 196V311Q470 355 460 379T426
413T358 423H276Q231 423 208 413T174 380T164 311V195Q164 151 174 128T208 94T276 84H358ZM281 580T281 595Q281 609 291 620L364 708Q375 722 390 722Q404 722 415 712Q429 701 429 686Q429 672 419 661L346 573Q335 559 320 559Q308 559 295 569Q281 580 281
595Z" />
<glyph unicode="&#xf4;" glyph-name="ocircumflex" horiz-adv-x="634" d="M176 0T128 48T80 195V311Q80 411 128 459T276 507H358Q458 507 506 459T554 311V196Q554 96 506 48T358 0H276Q176 0 128 48ZM358 84Q402 84 426 94T460 128T470 196V311Q470 355 460
379T426 413T358 423H276Q231 423 208 413T174 380T164 311V195Q164 151 174 128T208 94T276 84H358ZM209 560T199 570T188 595Q188 609 198 619L271 692Q289 711 315 711H321Q347 711 365 692L438 619Q448 609 448 595Q448 581 438 571T413 560Q397 560 388 570L324
641H312L248 570Q238 560 223 560Q209 560 199 570Z" />
<glyph unicode="&#xf5;" glyph-name="otilde" horiz-adv-x="634" d="M176 0T128 48T80 195V311Q80 411 128 459T276 507H358Q458 507 506 459T554 311V196Q554 96 506 48T358 0H276Q176 0 128 48ZM358 84Q402 84 426 94T460 128T470 196V311Q470 355 460 379T426
413T358 423H276Q231 423 208 413T174 380T164 311V195Q164 151 174 128T208 94T276 84H358ZM360 563T343 574T306 604Q293 618 286 622T269 626Q243 626 230 595Q219 569 200 569Q193 569 184 572Q162 580 162 597Q162 606 166 614Q183 655 207 674T269 693Q298
693 316 682T354 651Q367 638 373 635T389 631Q399 631 405 636T418 656Q429 684 449 684Q452 684 462 682Q486 676 486 656Q486 650 483 641Q469 601 446 582T389 563Q360 563 343 574Z" />
<glyph unicode="&#xf6;" glyph-name="odieresis" horiz-adv-x="634" d="M176 0T128 48T80 195V311Q80 411 128 459T276 507H358Q458 507 506 459T554 311V196Q554 96 506 48T358 0H276Q176 0 128 48ZM358 84Q402 84 426 94T460 128T470 196V311Q470 355 460 379T426
413T358 423H276Q231 423 208 413T174 380T164 311V195Q164 151 174 128T208 94T276 84H358ZM204 581T194 591T183 621V646Q183 665 193 675T223 685H247Q285 685 285 646V621Q285 602 276 592T247 581H223Q204 581 194 591ZM371 581T361 591T350 621V646Q350 665
360 675T390 685H414Q452 685 452 646V621Q452 602 443 592T414 581H390Q371 581 361 591Z" />
<glyph unicode="&#xf7;" glyph-name="divide" horiz-adv-x="609" d="M103 330T94 339T84 365Q84 382 93 391T119 400H490Q507 400 516 391T525 365Q525 348 516 339T490 330H119Q103 330 94 339ZM273 149T263 159T252 189V214Q252 233 262 243T292 253H316Q354
253 354 214V189Q354 170 345 160T316 149H292Q273 149 263 159ZM273 479T263 489T252 519V544Q252 563 262 573T292 583H316Q354 583 354 544V519Q354 500 345 490T316 479H292Q273 479 263 489Z" />
<glyph unicode="&#xf8;" glyph-name="oslash" horiz-adv-x="634" d="M554 422T554 311V196Q554 96 506 48T358 0H276Q238 0 204 8L169 -49Q157 -69 140 -69Q130 -69 117 -61Q99 -48 99 -33Q99 -23 106 -12L138 39Q80 87 80 195V311Q80 411 128 459T276 507H358Q395
507 429 499L449 531Q462 550 478 550Q488 550 501 542Q517 530 517 514Q517 504 510 493L495 469Q554 422 554 311ZM164 195Q164 162 169 141T187 108L385 422Q377 423 358 423H276Q231 423 208 413T174 380T164 311V195ZM470 311Q470 344 465 365T447 399L250
85Q258 84 276 84H358Q402 84 426 94T460 128T470 196V311Z" />
<glyph unicode="&#xf9;" glyph-name="ugrave" horiz-adv-x="662" d="M536 507T547 496T558 465V42Q558 0 516 0Q474 0 474 42V59Q421 0 318 0H290Q190 0 142 48T94 196V465Q94 485 105 496T136 507Q156 507 167 496T178 465V196Q178 152 188 128T222 94T290 84H318Q381
84 424 98T474 141V465Q474 485 485 496T516 507Q536 507 547 496ZM359 541T347 541Q332 541 321 555L248 643Q238 654 238 668Q238 683 252 694Q263 704 277 704Q292 704 303 690L376 602Q386 591 386 577Q386 562 372 551Q359 541 347 541Z" />
<glyph unicode="&#xfa;" glyph-name="uacute" horiz-adv-x="662" d="M536 507T547 496T558 465V42Q558 0 516 0Q474 0 474 42V59Q421 0 318 0H290Q190 0 142 48T94 196V465Q94 485 105 496T136 507Q156 507 167 496T178 465V196Q178 152 188 128T222 94T290 84H318Q381
84 424 98T474 141V465Q474 485 485 496T516 507Q536 507 547 496ZM292 580T292 595Q292 609 302 620L375 708Q386 722 401 722Q415 722 426 712Q440 701 440 686Q440 672 430 661L357 573Q346 559 331 559Q319 559 306 569Q292 580 292 595Z" />
<glyph unicode="&#xfb;" glyph-name="ucircumflex" horiz-adv-x="662" d="M536 507T547 496T558 465V42Q558 0 516 0Q474 0 474 42V59Q421 0 318 0H290Q190 0 142 48T94 196V465Q94 485 105 496T136 507Q156 507 167 496T178 465V196Q178 152 188 128T222 94T290
84H318Q381 84 424 98T474 141V465Q474 485 485 496T516 507Q536 507 547 496ZM220 560T210 570T199 595Q199 609 209 619L282 692Q300 711 326 711H332Q358 711 376 692L449 619Q459 609 459 595Q459 581 449 571T424 560Q408 560 399 570L335 641H323L259 570Q249
560 234 560Q220 560 210 570Z" />
<glyph unicode="&#xfc;" glyph-name="udieresis" horiz-adv-x="662" d="M536 507T547 496T558 465V42Q558 0 516 0Q474 0 474 42V59Q421 0 318 0H290Q190 0 142 48T94 196V465Q94 485 105 496T136 507Q156 507 167 496T178 465V196Q178 152 188 128T222 94T290
84H318Q381 84 424 98T474 141V465Q474 485 485 496T516 507Q536 507 547 496ZM215 581T205 591T194 621V646Q194 665 204 675T234 685H258Q296 685 296 646V621Q296 602 287 592T258 581H234Q215 581 205 591ZM382 581T372 591T361 621V646Q361 665 371 675T401
685H425Q463 685 463 646V621Q463 602 454 592T425 581H401Q382 581 372 591Z" />
<glyph unicode="&#xfd;" glyph-name="yacute" horiz-adv-x="680" d="M94 -200T94 -55Q94 -13 136 -13Q178 -13 178 -55Q178 -93 189 -104T238 -116H432Q469 -116 480 -104T492 -55V72Q464 30 427 15T336 0H287Q188 0 141 47T94 192V465Q94 507 136 507Q178 507
178 465V192Q178 149 187 126T220 94T287 84H336Q417 84 454 110T492 192V465Q492 507 534 507Q576 507 576 465V-55Q576 -200 432 -200H238Q94 -200 94 -55ZM299 580T299 595Q299 609 309 620L382 708Q393 722 408 722Q422 722 433 712Q447 701 447 686Q447 672
437 661L364 573Q353 559 338 559Q326 559 313 569Q299 580 299 595Z" />
<glyph unicode="&#xfe;" glyph-name="thorn" horiz-adv-x="658" d="M123 -200T114 -191T104 -158V644Q104 667 113 676T146 686Q169 686 178 677T188 644V436Q248 504 344 504H382Q482 504 530 456T578 308V197Q578 97 530 49T382 1H188V-158Q188 -181 179 -190T146
-200Q123 -200 114 -191ZM382 85Q426 85 450 95T484 129T494 197V308Q494 352 484 376T450 410T382 420H344Q263 420 226 394T188 312V85H382Z" />
<glyph unicode="&#xff;" glyph-name="ydieresis" horiz-adv-x="680" d="M94 -200T94 -55Q94 -13 136 -13Q178 -13 178 -55Q178 -93 189 -104T238 -116H432Q469 -116 480 -104T492 -55V72Q464 30 427 15T336 0H287Q188 0 141 47T94 192V465Q94 507 136 507Q178
507 178 465V192Q178 149 187 126T220 94T287 84H336Q417 84 454 110T492 192V465Q492 507 534 507Q576 507 576 465V-55Q576 -200 432 -200H238Q94 -200 94 -55ZM222 581T212 591T201 621V646Q201 665 211 675T241 685H265Q303 685 303 646V621Q303 602 294 592T265
581H241Q222 581 212 591ZM389 581T379 591T368 621V646Q368 665 378 675T408 685H432Q470 685 470 646V621Q470 602 461 592T432 581H408Q389 581 379 591Z" />
<glyph unicode="&#x2013;" glyph-name="endash" horiz-adv-x="609" d="M103 236T94 245T84 271Q84 288 93 297T119 306H490Q507 306 516 297T525 271Q525 254 516 245T490 236H119Q103 236 94 245Z" />
<glyph unicode="&#x2014;" glyph-name="emdash" horiz-adv-x="853" d="M105 234T95 244T84 269Q84 283 94 293T119 304H734Q748 304 758 294T769 269Q769 255 759 245T734 234H119Q105 234 95 244Z" />
<glyph unicode="&#x2018;" glyph-name="quoteleft" horiz-adv-x="271" d="M175 715T186 707T198 684Q198 677 195 669L160 577Q177 568 177 543V518Q177 499 167 489T137 479H113Q75 479 75 518V543Q75 549 77 559L129 695Q132 704 141 709T161 715Q175 715 186 707Z" />
<glyph unicode="&#x2019;" glyph-name="quoteright" horiz-adv-x="251" d="M167 646Q167 640 165 630L113 494Q110 485 101 480T81 474Q67 474 56 482T44 505Q44 513 47 520L82 612Q65 621 65 646V671Q65 690 75 700T105 710H129Q167 710 167 671V646Z" />
<glyph unicode="&#x201a;" glyph-name="quotesinglbase" horiz-adv-x="251" d="M167 40Q167 34 165 24L113 -112Q110 -121 101 -126T81 -132Q67 -132 56 -124T44 -101Q44 -94 47 -86L82 6Q65 15 65 40V65Q65 84 75 94T105 104H129Q167 104 167 65V40Z" />
<glyph unicode="&#x201c;" glyph-name="quotedblleft" horiz-adv-x="411" d="M315 715T326 707T338 684Q338 677 335 669L300 577Q317 568 317 543V518Q317 499 307 489T277 479H253Q215 479 215 518V543Q215 549 217 559L269 695Q272 704 281 709T301 715Q315
715 326 707ZM175 715T186 707T198 684Q198 677 195 669L160 577Q177 568 177 543V518Q177 499 167 489T137 479H113Q75 479 75 518V543Q75 549 77 559L129 695Q132 704 141 709T161 715Q175 715 186 707Z" />
<glyph unicode="&#x201d;" glyph-name="quotedblright" horiz-adv-x="401" d="M317 646Q317 640 315 630L263 494Q260 485 251 480T231 474Q217 474 206 482T194 505Q194 512 197 520L232 612Q215 621 215 646V671Q215 690 225 700T255 710H279Q317 710 317 671V646ZM167
646Q167 640 165 630L113 494Q110 485 101 480T81 474Q67 474 56 482T44 505Q44 512 47 520L82 612Q65 621 65 646V671Q65 690 75 700T105 710H129Q167 710 167 671V646Z" />
<glyph unicode="&#x201e;" glyph-name="quotedblbase" horiz-adv-x="401" d="M317 40Q317 34 315 24L263 -112Q260 -121 251 -126T231 -132Q217 -132 206 -124T194 -101Q194 -94 197 -86L232 6Q215 15 215 40V65Q215 84 225 94T255 104H279Q317 104 317 65V40ZM167
40Q167 34 165 24L113 -112Q110 -121 101 -126T81 -132Q67 -132 56 -124T44 -101Q44 -94 47 -86L82 6Q65 15 65 40V65Q65 84 75 94T105 104H129Q167 104 167 65V40Z" />
<glyph unicode="&#x2022;" glyph-name="bullet" horiz-adv-x="372" d="M127 182T106 203T84 262V312Q84 350 105 370T164 390H212Q288 390 288 312V262Q288 224 269 203T212 182H164Q127 182 106 203Z" />
<glyph unicode="&#x2039;" glyph-name="guilsinglleft" horiz-adv-x="446" d="M303 107T295 115L109 269Q94 281 94 294Q94 307 109 319L295 473Q303 481 317 481Q331 481 341 471T352 446Q352 431 338 419L187 294L338 169Q352 157 352 142Q352 128 342 118T317
107Q303 107 295 115Z" />
<glyph unicode="&#x203a;" glyph-name="guilsinglright" horiz-adv-x="446" d="M115 107T105 117T94 142Q94 157 108 169L259 294L108 419Q94 431 94 446Q94 460 104 470T129 481Q143 481 151 473L337 319Q352 307 352 294Q352 281 337 269L151 115Q143 107 129
107Q115 107 105 117Z" />
</font>
</defs>
</svg>
