<?xml version="1.0" standalone="no"?>
<!DOCTYPE svg PUBLIC "-//W3C//DTD SVG 1.1//EN" "http://www.w3.org/Graphics/SVG/1.1/DTD/svg11.dtd">
<svg xmlns="http://www.w3.org/2000/svg">
<defs >
<font id="Telex" horiz-adv-x="531" ><font-face
    font-family="Telex"
    units-per-em="1000"
    panose-1="0 0 5 0 0 0 0 0 0 0"
    ascent="945"
    descent="-260"
    alphabetic="0" />
<glyph unicode=" " glyph-name="space" horiz-adv-x="250" />
<glyph unicode="!" glyph-name="exclam" horiz-adv-x="269" d="M86 720H182L169 184H98L86 720ZM88 92H181V0H88V92Z" />
<glyph unicode="&quot;" glyph-name="quotedbl" horiz-adv-x="298" d="M186 759H258V542H186V759ZM40 759H112V542H40V759Z" />
<glyph unicode="#" glyph-name="numbersign" horiz-adv-x="703" d="M669 440H531L500 259H636L624 187H488L456 0H376L408 187H240L208 0H129L161 187H21L32 259H173L204 440H65L77 512H217L250 708H328L295 512H464L497 708H576L543 512H681L669 440ZM420 259L451
440H283L252 259H420Z" />
<glyph unicode="$" glyph-name="dollar" horiz-adv-x="548" d="M479 134T438 90T323 32V-84H239V26Q163 30 73 66L60 71L89 152L108 144Q146 128 180 119T255 109Q313 109 346 134T380 206Q380 237 363 256T320 286T250 309Q193 325 159 341T100 391T75 483Q75
551 116 597T239 656V774H323V659Q390 654 460 624L436 545Q360 576 299 576Q239 576 207 554T175 493Q175 464 192 445T233 416T301 392Q358 375 393 358T454 305T479 206Q479 134 438 90Z" />
<glyph unicode="%" glyph-name="percent" horiz-adv-x="899" d="M196 2L623 741L693 701L266 -38L196 2ZM149 303T110 358T70 511Q70 608 109 662T227 717Q306 717 345 663T384 511Q384 413 345 358T227 303Q149 303 110 358ZM264 375T284 409T304 511Q304 578
284 612T227 646Q190 646 170 612T150 511Q150 444 170 410T227 375Q264 375 284 409ZM594 -9T555 46T515 199Q515 296 554 350T672 405Q751 405 790 351T829 199Q829 101 790 46T672 -9Q594 -9 555 46ZM709 63T729 97T749 199Q749 266 729 300T672 334Q635 334
615 300T595 199Q595 132 615 98T672 63Q709 63 729 97Z" />
<glyph unicode="&amp;" glyph-name="ampersand" horiz-adv-x="715" d="M697 17Q642 -6 590 -6Q521 -6 480 35Q431 9 391 -1T298 -12Q181 -12 114 47T46 206Q46 275 79 325T179 400Q96 439 96 543Q96 592 122 631T194 693T298 716Q383 716 447 681L417 611Q365
636 302 636Q254 636 225 612T196 542Q196 493 228 463T327 433H446L462 598L532 583V433H689V363H532V156Q532 69 607 69Q640 69 681 83L697 17ZM389 69T446 92Q438 121 438 151V363H327Q238 363 192 325T146 211Q146 145 191 107T313 69Q389 69 446 92Z" />
<glyph unicode="&apos;" glyph-name="quotesingle" horiz-adv-x="132" d="M30 759H102V542H30V759Z" />
<glyph unicode="(" glyph-name="parenleft" horiz-adv-x="295" d="M50 429T91 546T214 792L270 756Q205 637 173 530T140 285Q140 150 172 44T270 -186L214 -222Q133 -95 92 22T50 285Q50 429 91 546Z" />
<glyph unicode=")" glyph-name="parenright" horiz-adv-x="295" d="M245 140T204 23T81 -222L25 -186Q90 -63 122 43T155 285Q155 422 123 529T25 756L81 792Q162 663 203 546T245 285Q245 140 204 23Z" />
<glyph unicode="*" glyph-name="asterisk" horiz-adv-x="395" d="M64 439L168 545L30 573L51 644L178 580L160 719L235 720L214 581L343 641L365 573L225 547L325 440L264 396L195 528L125 396L64 439Z" />
<glyph unicode="+" glyph-name="plus" horiz-adv-x="640" d="M90 343H279V542H363V343H557V271H363V71H279V271H90V343Z" />
<glyph unicode="," glyph-name="comma" horiz-adv-x="230" d="M65 100H165V20L146 -118H110V0H65V100Z" />
<glyph unicode="-" glyph-name="hyphen" horiz-adv-x="467" d="M50 359H417V279H50V359Z" />
<glyph unicode="." glyph-name="period" horiz-adv-x="230" d="M65 100H165V0H65V100Z" />
<glyph unicode="/" glyph-name="slash" horiz-adv-x="394" d="M279 742H361L104 -61H22L279 742Z" />
<glyph unicode="0" glyph-name="zero" horiz-adv-x="644" d="M190 -8T126 88T61 355Q61 526 125 621T320 716Q451 716 515 621T579 355Q579 184 515 88T320 -8Q190 -8 126 88ZM397 72T438 143T479 355Q479 494 438 565T320 636Q244 636 203 565T161 355Q161 215
202 144T320 72Q397 72 438 143Z" />
<glyph unicode="1" glyph-name="one" horiz-adv-x="523" d="M93 80H248V609L77 556L54 615L271 712L342 700V80H481V0H93V80Z" />
<glyph unicode="2" glyph-name="two" horiz-adv-x="587" d="M78 641T140 678T288 716Q395 716 455 658T515 497Q515 392 438 294T200 80H527V0H50V67Q182 161 260 231T377 364T415 492Q415 560 381 598T288 636Q231 636 193 613T128 539L52 574Q78 641 140 678Z" />
<glyph unicode="3" glyph-name="three" horiz-adv-x="577" d="M451 353T484 309T518 194Q518 134 488 88T403 16T276 -10Q200 -10 144 16T42 97L99 155Q143 107 180 89T276 70Q340 70 379 104T418 195Q418 267 378 299T250 332H199V404H244Q321 405 362 438T403
535Q403 581 369 608T277 636Q218 636 182 615T117 541L48 578Q73 637 133 676T277 716Q381 716 442 667T503 535Q503 478 472 437T382 373Q451 353 484 309Z" />
<glyph unicode="4" glyph-name="four" horiz-adv-x="624" d="M490 243H575V163H490V0H396V163H30V226L340 708H490V243ZM146 243H396V644L146 243Z" />
<glyph unicode="5" glyph-name="five" horiz-adv-x="573" d="M365 443T416 417T496 341T525 224Q525 151 490 99T396 19T272 -8Q207 -8 147 16T46 86L106 148Q139 112 184 93T275 73Q338 73 381 112T425 222Q425 297 382 332T269 368Q207 368 138 341L83 367L117
708H481L471 628H199L178 418Q241 443 303 443Q365 443 416 417Z" />
<glyph unicode="6" glyph-name="six" horiz-adv-x="614" d="M407 442T456 415T532 339T559 228Q559 159 529 106T444 22T321 -8Q195 -8 132 77T68 333Q68 521 146 618T376 716Q420 716 457 706T531 675L492 608Q440 636 377 636Q277 636 226 572T169 374Q205 407
250 424T345 442Q407 442 456 415ZM360 74T391 94T441 149T459 227Q459 290 424 326T327 362Q284 362 242 345T169 297Q173 180 210 127T322 74Q360 74 391 94Z" />
<glyph unicode="7" glyph-name="seven" horiz-adv-x="517" d="M389 628H18V708H488V637L202 0H106L389 628Z" />
<glyph unicode="8" glyph-name="eight" horiz-adv-x="625" d="M488 347T525 306T562 194Q562 134 531 88T445 16T316 -10Q198 -10 130 44T62 194Q62 252 92 295T184 372Q138 398 113 436T88 535Q88 618 148 667T312 716Q415 716 475 667T536 535Q536 483 508 445T423
375Q488 347 525 306ZM253 641T221 613T188 535Q188 498 210 474T263 435T356 400Q399 430 417 462T436 535Q436 585 404 613T312 641Q253 641 221 613ZM382 65T422 100T462 195Q462 233 441 257T389 295T301 327L256 342Q206 312 184 277T162 195Q162 136 204
101T316 65Q382 65 422 100Z" />
<glyph unicode="9" glyph-name="nine" horiz-adv-x="614" d="M419 716T482 631T546 375Q546 187 468 90T238 -8Q194 -8 157 2T83 33L122 100Q174 72 237 72Q337 72 388 136T445 334Q409 301 364 284T269 266Q207 266 158 293T82 369T55 480Q55 549 85 602T170
686T293 716Q419 716 482 631ZM155 418T190 382T287 346Q330 346 372 363T445 411Q441 528 404 581T292 634Q254 634 223 614T173 559T155 481Q155 418 190 382Z" />
<glyph unicode=":" glyph-name="colon" horiz-adv-x="250" d="M75 117H175V17H75V117ZM75 461H175V361H75V461Z" />
<glyph unicode=";" glyph-name="semicolon" horiz-adv-x="241" d="M70 100H170V20L151 -118H115V0H70V100ZM71 420H171V320H71V420Z" />
<glyph unicode="&lt;" glyph-name="less" horiz-adv-x="640" d="M554 546V460L194 303L554 145V59L60 275V330L554 546Z" />
<glyph unicode="=" glyph-name="equal" horiz-adv-x="640" d="M91 435H549V363H91V435ZM91 221H549V149H91V221Z" />
<glyph unicode="&gt;" glyph-name="greater" horiz-adv-x="640" d="M86 546L580 330V275L86 59V145L446 303L86 460V546Z" />
<glyph unicode="?" glyph-name="question" horiz-adv-x="480" d="M139 236T156 287T198 365T261 419Q287 438 301 451T325 486T335 538Q335 578 306 606T224 635Q158 635 78 609L65 695Q141 722 220 722Q289 722 337 696T408 628T432 538Q432 491 420 460T389
410T339 368Q304 342 283 320T246 257T231 154H139Q139 236 156 287ZM139 89H231V0H139V89Z" />
<glyph unicode="@" glyph-name="at" horiz-adv-x="1001" d="M667 -202T617 -213T505 -224Q364 -224 261 -170T104 -15T49 218Q49 363 111 475T284 651T532 714Q661 714 756 665T903 527T955 318Q955 230 929 164T855 63T743 27Q694 27 657 53T605 121Q580 75 540
51T449 27Q380 27 338 73T296 197Q296 279 330 339T424 432T558 465Q620 465 686 441L665 283Q662 253 662 228Q662 105 748 105Q794 105 825 155T857 315Q857 463 776 549T532 636Q423 636 335 580T197 429T147 218Q147 113 190 30T315 -99T505 -146Q559 -146
604 -137T673 -118L697 -190Q667 -202 617 -213ZM386 161T406 133T463 105Q508 105 540 145T583 252L602 383Q575 390 546 390Q476 390 433 343T386 212Q386 161 406 133Z" />
<glyph unicode="A" glyph-name="A" horiz-adv-x="639" d="M534 0L460 208H179L108 0H12L256 708H374L627 0H534ZM207 288H431L317 609L207 288Z" />
<glyph unicode="B" glyph-name="B" horiz-adv-x="612" d="M497 353T531 312T566 209Q566 111 504 56T323 0H85V708H294Q415 708 476 659T537 520Q537 413 429 372Q497 353 531 312ZM180 628V406H294Q364 406 400 434T437 520Q437 628 294 628H180ZM392 80T429
113T466 209Q466 267 426 296T308 326H180V80H323Q392 80 429 113Z" />
<glyph unicode="C" glyph-name="C" horiz-adv-x="636" d="M50 531T132 623T372 716Q518 716 596 613L530 559Q473 634 372 634Q265 634 209 563T152 355Q152 215 210 143T383 71Q461 71 552 118L580 43Q543 19 487 5T369 -9Q215 -9 133 85T50 355Q50 531 132 623Z" />
<glyph unicode="D" glyph-name="D" horiz-adv-x="684" d="M471 708T555 616T639 356Q639 188 555 94T314 0H85V708H314Q471 708 555 616ZM422 80T480 149T539 356Q539 493 481 560T314 628H181V80H314Q422 80 480 149Z" />
<glyph unicode="E" glyph-name="E" horiz-adv-x="566" d="M85 708H506V627H180V412H473V330H180V83H517V0H85V708Z" />
<glyph unicode="F" glyph-name="F" horiz-adv-x="528" d="M85 708H506V627H180V412H470V330H180V0H85V708Z" />
<glyph unicode="G" glyph-name="G" horiz-adv-x="694" d="M619 347V48Q518 -9 369 -9Q215 -9 133 85T50 355Q50 531 132 623T372 716Q454 716 514 691T616 613L551 559Q485 636 372 636Q265 636 209 564T152 355Q152 215 210 143T383 71Q457 71 523 95V347H619Z" />
<glyph unicode="H" glyph-name="H" horiz-adv-x="724" d="M85 708H181V407H543V708H639V0H543V327H181V0H85V708Z" />
<glyph unicode="I" glyph-name="I" horiz-adv-x="271" d="M88 711H183V0H88V711Z" />
<glyph unicode="J" glyph-name="J" horiz-adv-x="360" d="M22 -67T66 -41T145 26T180 121V627H41V708H274V121Q274 40 227 -18T122 -110T63 -139L22 -64Q22 -67 66 -41Z" />
<glyph unicode="K" glyph-name="K" horiz-adv-x="637" d="M85 708H180V0H85V708ZM478 708H608L328 386L630 0H504L202 382L478 708Z" />
<glyph unicode="L" glyph-name="L" horiz-adv-x="532" d="M85 708H180V83H504V0H85V708Z" />
<glyph unicode="M" glyph-name="M" horiz-adv-x="939" d="M874 0H783L709 579L518 0H421L230 579L156 0H65L155 708H274L470 138L665 708H784L874 0Z" />
<glyph unicode="N" glyph-name="N" horiz-adv-x="703" d="M195 708L427 333Q450 296 487 229T526 158V708H620V0H523L274 410Q245 458 215 513T175 585V0H83V708H195Z" />
<glyph unicode="O" glyph-name="O" horiz-adv-x="750" d="M50 526T134 621T375 716Q532 716 616 621T700 356Q700 184 615 87T375 -11Q219 -11 135 86T50 356Q50 526 134 621ZM483 69T541 141T600 356Q600 495 542 565T375 636Q267 636 209 566T150 356Q150 213
208 141T375 69Q483 69 541 141Z" />
<glyph unicode="P" glyph-name="P" horiz-adv-x="584" d="M415 708T476 654T537 500Q537 402 475 347T294 291H181V0H85V708H294Q415 708 476 654ZM363 371T400 404T437 500Q437 563 401 595T294 628H181V371H294Q363 371 400 404Z" />
<glyph unicode="Q" glyph-name="Q" horiz-adv-x="750" d="M573 -127T611 -114L639 -196Q583 -214 532 -214Q444 -214 386 -161T318 -7Q188 10 119 105T50 356Q50 526 134 621T375 716Q532 716 616 621T700 356Q700 190 622 94T399 -10Q409 -65 446 -96T538 -127Q573
-127 611 -114ZM150 213T208 141T375 69Q483 69 541 141T600 356Q600 495 542 565T375 636Q267 636 209 566T150 356Q150 213 208 141Z" />
<glyph unicode="R" glyph-name="R" horiz-adv-x="596" d="M467 0L296 291H294H181V0H85V708H294Q415 708 476 654T537 500Q537 425 501 375T393 304L572 0H467ZM181 371H294Q363 371 400 404T437 500Q437 563 401 595T294 628H181V371Z" />
<glyph unicode="S" glyph-name="S" horiz-adv-x="548" d="M82 107T115 93T184 71T257 62Q324 62 363 94T402 184Q402 223 383 247T333 284T253 312Q190 331 153 349T89 405T62 507Q62 596 122 651T303 706Q385 706 478 667L455 590Q370 625 306 625Q237 625 199
597T162 519Q162 481 181 458T229 422T306 394Q370 374 408 354T473 294T501 184Q501 86 436 34T261 -19Q198 -19 151 -6T47 31L74 110Q82 107 115 93Z" />
<glyph unicode="T" glyph-name="T" horiz-adv-x="522" d="M219 628H0V708H522V628H315V0H219V628Z" />
<glyph unicode="U" glyph-name="U" horiz-adv-x="709" d="M174 708V230Q174 150 219 113T354 75Q443 75 489 111T535 225V708H631V225Q631 114 562 53T354 -8Q215 -8 147 53T78 225V708H174Z" />
<glyph unicode="V" glyph-name="V" horiz-adv-x="631" d="M518 708H611L370 0H252L20 708H116L313 104L518 708Z" />
<glyph unicode="W" glyph-name="W" horiz-adv-x="1033" d="M909 707H1005L816 0H671L517 590L362 0H217L28 707H125L291 88L454 707H579L742 86L909 707Z" />
<glyph unicode="X" glyph-name="X" horiz-adv-x="646" d="M642 0H532L322 293L113 0H4L267 370L24 708H134L326 440L518 708H627L382 363L642 0Z" />
<glyph unicode="Y" glyph-name="Y" horiz-adv-x="568" d="M236 298L2 708H107L284 391L462 708H566L331 298V0H236V298Z" />
<glyph unicode="Z" glyph-name="Z" horiz-adv-x="563" d="M43 75L400 627H55V708H520V637L161 83H515V0H43V75Z" />
<glyph unicode="[" glyph-name="bracketleft" horiz-adv-x="318" d="M85 774H298V702H169V-121H298V-193H85V774Z" />
<glyph unicode="\" glyph-name="backslash" horiz-adv-x="425" d="M-20 803H71L445 -193H356L-20 803Z" />
<glyph unicode="]" glyph-name="bracketright" horiz-adv-x="318" d="M233 774V-193H20V-121H149V702H20V774H233Z" />
<glyph unicode="^" glyph-name="asciicircum" horiz-adv-x="673" d="M363 707L585 364H500L336 631L172 363H88L309 707H363Z" />
<glyph unicode="_" glyph-name="underscore" horiz-adv-x="510" d="M510 -50V-132H0V-50H510Z" />
<glyph unicode="`" glyph-name="grave" horiz-adv-x="233" d="M80 765L213 601L176 567L20 703L80 765Z" />
<glyph unicode="a" glyph-name="a" horiz-adv-x="544" d="M44 221T110 266T297 311H373V331Q373 395 347 422T256 449Q215 449 183 442T101 412L73 477Q167 523 258 523Q367 523 417 477T467 329V0H394Q393 4 390 19T381 60Q309 -12 213 -12Q136 -12 90 29T44
139Q44 221 110 266ZM138 103T162 83T231 62Q271 62 309 80T373 131V241H303Q221 241 180 216T138 141Q138 103 162 83Z" />
<glyph unicode="b" glyph-name="b" horiz-adv-x="597" d="M432 523T491 457T551 266Q551 137 481 65T287 -8Q206 -8 130 22L85 33V759H179V458Q233 523 325 523Q432 523 491 457ZM365 66T410 118T455 266Q455 354 420 401T319 449Q267 449 230 421T179 344V81Q230
66 286 66Q365 66 410 118Z" />
<glyph unicode="c" glyph-name="c" horiz-adv-x="494" d="M46 382T108 452T292 523Q409 523 470 438L407 391Q383 420 356 434T292 449Q221 449 182 401T142 258Q142 163 182 115T298 66Q340 66 369 75T434 101L460 37Q386 -6 291 -6Q170 -6 108 64T46 258Q46
382 108 452Z" />
<glyph unicode="d" glyph-name="d" horiz-adv-x="593" d="M513 759V1H437L424 64Q367 -8 272 -8Q165 -8 106 58T46 249Q46 378 116 450T310 523Q363 523 419 509V759H513ZM330 66T367 94T419 174V434Q368 449 311 449Q232 449 187 397T142 249Q142 161 177 114T278
66Q330 66 367 94Z" />
<glyph unicode="e" glyph-name="e" horiz-adv-x="539" d="M46 384T109 453T287 523Q400 523 450 456T501 261V245H142Q144 158 183 112T295 66Q335 66 372 75T454 105L481 41Q430 15 384 4T290 -8Q174 -8 110 62T46 258Q46 384 109 453ZM228 449T193 415T146 315H402Q395
384 367 416T287 449Q228 449 193 415Z" />
<glyph unicode="f" glyph-name="f" horiz-adv-x="377" d="M26 442V514H116V590Q116 678 162 719T280 760Q315 760 343 754T403 733L375 667Q329 685 289 685Q252 685 231 662T210 597V514H368V442H210V-156H116V442H26Z" />
<glyph unicode="g" glyph-name="g" horiz-adv-x="596" d="M513 515V-30Q513 -251 279 -251Q166 -251 65 -199L97 -130Q151 -157 190 -167T279 -177Q354 -177 386 -144T419 -32V58Q365 -8 272 -8Q165 -8 106 58T46 249Q46 378 116 450T310 523Q375 523 435 504L438
515H513ZM330 66T367 94T419 174V434Q368 449 311 449Q232 449 187 397T142 249Q142 161 177 114T278 66Q330 66 367 94Z" />
<glyph unicode="h" glyph-name="h" horiz-adv-x="599" d="M435 523T478 476T522 340V0H428V333Q428 394 405 421T329 449Q282 449 243 428T179 368V0H85V759H179V449Q247 523 353 523Q435 523 478 476Z" />
<glyph unicode="i" glyph-name="i" horiz-adv-x="264" d="M86 708H178V621H86V708ZM86 514H178V0H86V514Z" />
<glyph unicode="j" glyph-name="j" horiz-adv-x="266" d="M89 708H181V621H89V708ZM181 514V85Q181 14 148 -50T38 -187L-12 -145Q42 -76 65 -22T89 85V514H181Z" />
<glyph unicode="k" glyph-name="k" horiz-adv-x="525" d="M85 0V759H179V0H85ZM303 297L523 0H412L195 292L380 514H486L303 297Z" />
<glyph unicode="l" glyph-name="l" horiz-adv-x="264" d="M86 759H178V0H86V759Z" />
<glyph unicode="m" glyph-name="m" horiz-adv-x="928" d="M763 523T807 477T851 340V0H757V333Q757 394 734 421T658 449Q613 449 575 428T513 368Q514 359 514 340V0H420V333Q420 394 397 421T321 449Q276 449 238 428T176 369V0H82V514H159L169 444Q236 523
339 523Q460 523 498 433Q566 523 676 523Q763 523 807 477Z" />
<glyph unicode="n" glyph-name="n" horiz-adv-x="596" d="M432 523T475 476T519 340V0H425V333Q425 394 402 421T326 449Q279 449 240 428T176 368V0H82V514H159L170 442Q239 523 350 523Q432 523 475 476Z" />
<glyph unicode="o" glyph-name="o" horiz-adv-x="580" d="M46 383T109 453T290 523Q407 523 470 453T534 258Q534 133 471 63T290 -8Q173 -8 110 62T46 258Q46 383 109 453ZM142 164T180 115T290 66Q361 66 399 115T438 258Q438 352 400 400T290 449Q219 449 181
401T142 258Q142 164 180 115Z" />
<glyph unicode="p" glyph-name="p" horiz-adv-x="592" d="M428 523T487 457T547 266Q547 137 477 65T283 -8Q225 -8 176 6V-245H82V514H158L170 452Q197 487 235 505T321 523Q428 523 487 457ZM361 66T406 118T451 266Q451 354 416 401T315 449Q264 449 228 422T176
347V81Q227 66 282 66Q361 66 406 118Z" />
<glyph unicode="q" glyph-name="q" horiz-adv-x="593" d="M48 326T79 389T171 487T315 523Q422 523 508 485V-246L414 -245V53Q359 -8 269 -8Q173 -8 111 54T48 243Q48 326 79 389ZM141 190T158 150T206 87T274 64Q330 64 363 95T414 166V331L416 436Q371 451
315 451Q265 451 226 427T164 355T141 243Q141 190 158 150Z" />
<glyph unicode="r" glyph-name="r" horiz-adv-x="395" d="M161 514L172 443Q226 523 314 523Q342 523 380 513L365 429Q322 439 298 439Q256 439 229 423T179 367V0H85V514H161Z" />
<glyph unicode="s" glyph-name="s" horiz-adv-x="467" d="M124 87T156 78T224 69Q269 69 294 88T320 144Q320 167 307 181T277 203T215 225Q208 227 162 243T92 293T67 377Q67 439 115 481T256 523Q295 523 329 514T402 490L377 416Q344 429 316 437T256 445Q209
445 185 427T161 378Q161 350 180 337T241 308Q252 305 261 301L285 292Q327 278 352 264T396 222T414 146Q414 72 362 32T225 -9Q176 -9 134 1T50 30L79 106Q124 87 156 78Z" />
<glyph unicode="t" glyph-name="t" horiz-adv-x="403" d="M29 442V514H127L143 664H213V514H370V442H213V158Q213 69 288 69Q318 69 362 83L378 17Q323 -6 271 -6Q204 -6 162 34T119 153V442H29Z" />
<glyph unicode="u" glyph-name="u" horiz-adv-x="596" d="M514 514V0H437L426 71Q359 -9 252 -9Q165 -9 121 37T77 174V514H171V181Q171 120 194 93T270 65Q317 65 356 86T420 146V514H514Z" />
<glyph unicode="v" glyph-name="v" horiz-adv-x="502" d="M401 514H492L312 0H193L11 514H108L256 84L401 514Z" />
<glyph unicode="w" glyph-name="w" horiz-adv-x="796" d="M674 514H768L624 0H498L396 386L296 0H172L28 514H122L238 90L349 514H443L559 90L674 514Z" />
<glyph unicode="x" glyph-name="x" horiz-adv-x="503" d="M196 266L22 514H131L255 339L378 514H479L305 267L494 0H384L247 194L111 0H9L196 266Z" />
<glyph unicode="y" glyph-name="y" horiz-adv-x="508" d="M407 514H498L233 -246H148L232 0H193L11 514H108L259 79L407 514Z" />
<glyph unicode="z" glyph-name="z" horiz-adv-x="472" d="M154 74H437V0H42V60L312 440H56V514H426V457L154 74Z" />
<glyph unicode="{" glyph-name="braceleft" horiz-adv-x="344" d="M121 174T99 219T40 277V322Q121 355 121 477V602Q121 693 162 733T292 774H334V708H289Q245 708 225 688T205 623V449Q205 407 187 372T129 299V292Q170 252 187 218T205 145V-40Q205 -86 225
-106T289 -127H334V-193H288Q197 -193 159 -154T121 -21V115Q121 174 99 219Z" />
<glyph unicode="|" glyph-name="bar" horiz-adv-x="254" d="M85 774H169V-193H85V774Z" />
<glyph unicode="}" glyph-name="braceright" horiz-adv-x="344" d="M223 -21Q223 -115 185 -154T56 -193H10V-127H55Q99 -127 119 -107T139 -40V145Q139 184 156 218T215 292V299Q175 336 157 371T139 449V623Q139 668 119 688T55 708H10V774H52Q142 774 182 734T223
602V477Q223 355 304 322V277Q268 264 246 219T223 115V-21Z" />
<glyph unicode="~" glyph-name="asciitilde" horiz-adv-x="544" d="M209 455T236 439T293 391Q316 367 332 356T371 345Q402 345 420 369T438 434H519Q519 360 480 316T373 271Q330 271 303 288T245 336Q223 359 207 370T170 381Q136 381 118 358T99 292H18Q18
366 57 410T164 455Q209 455 236 439Z" />
<glyph unicode="&#xa0;" glyph-name="uni00A0" horiz-adv-x="250" />
<glyph unicode="&#xa1;" glyph-name="exclamdown" horiz-adv-x="269" d="M88 384V476H181V384H88ZM86 -244L98 292H169L182 -244H86Z" />
<glyph unicode="&#xa2;" glyph-name="cent" horiz-adv-x="494" d="M447 137Q395 107 324 99V0H240V100Q150 114 102 176T53 343Q53 448 101 510T240 586V707H324V588Q362 584 394 570T447 534L407 481Q380 500 354 508T290 516Q222 516 186 471T149 343Q149 259
186 215T295 171Q325 171 359 180T423 204L447 137Z" />
<glyph unicode="&#xa3;" glyph-name="sterling" horiz-adv-x="543" d="M260 234T231 173T163 80H512V0H73V74Q119 121 139 173T160 297V317H61V389H149Q143 411 139 421Q129 454 125 474T121 523Q121 612 180 664T340 716Q406 716 452 688T517 610L446 575Q436
604 409 620T340 636Q282 636 249 605T215 519Q215 495 220 476T235 428Q248 389 248 389H407V317H259Q260 311 260 297Q260 234 231 173Z" />
<glyph unicode="&#xa4;" glyph-name="currency" horiz-adv-x="739" d="M203 249T196 273T189 321Q189 350 195 370T217 413L88 542L150 603L278 474Q298 487 322 494T369 502Q418 502 462 475L590 603L651 544L523 414Q551 365 551 321Q551 298 544 274T523 229L651
101L591 41L462 169Q437 153 418 147T369 141Q325 141 276 169L148 39L88 102L215 229Q203 249 196 273ZM272 280T300 249T369 218Q409 218 438 249T468 321Q468 362 438 393T369 425Q330 425 301 394T272 321Q272 280 300 249Z" />
<glyph unicode="&#xa5;" glyph-name="yen" horiz-adv-x="574" d="M539 708L360 368H509V296H334V202H509V130H334V0H239V130H62V202H239V296H62V368H213L35 708H143L290 411L438 708H539Z" />
<glyph unicode="&#xa6;" glyph-name="brokenbar" horiz-adv-x="254" d="M85 397V774H169V397H85ZM169 200V-193H85V200H169Z" />
<glyph unicode="&#xa7;" glyph-name="section" horiz-adv-x="457" d="M138 -115T178 -115Q267 -115 267 -30Q267 4 244 32T174 103Q134 138 110 164T68 227T50 306Q50 362 75 405T144 476Q89 540 89 609Q89 678 133 725T266 772Q313 772 362 758Q358 722 352 688Q314
697 279 697Q233 697 211 675T189 612Q189 579 211 551T282 478Q322 441 347 414T389 352T407 274Q407 218 382 176T313 105Q367 41 367 -28Q367 -98 323 -144T191 -191Q149 -191 95 -177L105 -106Q138 -115 178 -115ZM134 389T134 331Q134 301 151 273T195 216T281
137Q323 191 323 251Q323 281 307 309T262 366T176 444Q134 389 134 331Z" />
<glyph unicode="&#xa8;" glyph-name="dieresis" horiz-adv-x="314" d="M113 716V623H20V716H113ZM294 716V623H202V716H294Z" />
<glyph unicode="&#xa9;" glyph-name="copyright" horiz-adv-x="611" d="M35 410T71 471T170 569T306 605Q380 605 442 570T540 473T576 338Q576 264 540 202T442 103T306 66Q231 66 169 102T71 200T35 336Q35 410 71 471ZM99 281T126 232T202 155T306 126Q363
126 410 154T485 230T513 336Q513 393 485 441T410 518T306 547Q250 547 202 519T127 443T99 338Q99 281 126 232ZM177 401T214 436T311 472Q342 472 366 460T407 427L371 391Q359 406 345 413T311 421Q279 421 260 400T241 337Q241 294 261 273T316 252Q348 252
384 271L400 224Q383 213 361 207T314 201Q251 201 214 237T177 337Q177 401 214 436Z" />
<glyph unicode="&#xaa;" glyph-name="ordfeminine" horiz-adv-x="358" d="M28 528T71 558T195 588H233V593Q233 630 219 645T169 660Q145 660 125 655T67 634L44 688Q110 721 170 721Q243 721 276 690T310 592V378H252L242 407Q199 370 142 370Q90 370 59 397T28
472Q28 528 71 558ZM104 431T153 431Q175 431 196 441T233 470V534H198Q152 534 128 519T104 474Q104 431 153 431Z" />
<glyph unicode="&#xab;" glyph-name="guillemotleft" horiz-adv-x="611" d="M69 261L222 499L292 448L168 261L290 77L221 24L69 261ZM458 499L527 448L403 261L526 77L457 24L305 261L458 499Z" />
<glyph unicode="&#xac;" glyph-name="logicalnot" horiz-adv-x="640" d="M89 435H547V190H469V363H89V435Z" />
<glyph unicode="&#xad;" glyph-name="uni00AD" horiz-adv-x="467" d="M50 359H417V279H50V359Z" />
<glyph unicode="&#xae;" glyph-name="registered" horiz-adv-x="611" d="M35 522T71 583T170 681T306 717Q380 717 442 682T540 585T576 450Q576 376 540 314T442 215T306 178Q231 178 169 214T71 312T35 448Q35 522 71 583ZM99 393T126 344T202 267T306 238Q363
238 410 266T485 342T513 448Q513 505 485 553T410 630T306 659Q250 659 202 631T127 555T99 450Q99 393 126 344ZM307 423H268V315H217V594H310Q360 594 385 572T410 509Q410 451 359 431L419 333L375 309L307 423ZM310 468Q333 468 345 478T357 509Q357 528 345
538T310 549H268V468H310Z" />
<glyph unicode="&#xaf;" glyph-name="overscore" horiz-adv-x="344" d="M324 684V614H20V684H324Z" />
<glyph unicode="&#xb0;" glyph-name="degree" horiz-adv-x="482" d="M209 378T171 400T111 461T88 544Q88 589 110 626T170 686T254 708Q299 708 336 686T396 627T418 544Q418 499 396 461T337 400T254 378Q209 378 171 400ZM287 457T310 482T334 544Q334 580
311 605T254 630Q221 630 197 605T173 544Q173 508 197 483T254 457Q287 457 310 482Z" />
<glyph unicode="&#xb1;" glyph-name="plusminus" horiz-adv-x="640" d="M86 392H275V581H359V392H553V320H359V130H275V320H86V392ZM86 72H553V0H86V72Z" />
<glyph unicode="&#xb2;" glyph-name="uni00B2" horiz-adv-x="368" d="M53 762T92 787T185 812Q252 812 289 776T327 676Q327 616 287 561T164 443H337V378H37V430Q151 512 199 566T247 673Q247 708 231 727T185 747Q157 747 136 733T98 687L36 716Q53 762 92 787Z" />
<glyph unicode="&#xb3;" glyph-name="uni00B3" horiz-adv-x="370" d="M107 461T128 449T181 437Q212 437 232 454T252 500Q252 537 232 554T166 571H125V631H162Q200 632 221 649T243 698Q243 720 227 733T182 747Q151 747 132 734T94 688L36 719Q53 759 91 785T182
812Q247 812 285 781T323 698Q323 636 267 605Q331 577 331 500Q331 442 290 407T181 372Q135 372 99 390T32 444L79 492Q107 461 128 449Z" />
<glyph unicode="&#xb4;" glyph-name="acute" horiz-adv-x="233" d="M153 765L213 703L57 567L20 601L153 765Z" />
<glyph unicode="&#xb6;" glyph-name="paragraph" horiz-adv-x="517" d="M152 337T99 388T45 523Q45 610 96 659T240 708H432V-192H367V653H305V-192H240V337Q152 337 99 388Z" />
<glyph unicode="&#xb7;" glyph-name="middot" horiz-adv-x="276" d="M88 351H188V251H88V351Z" />
<glyph unicode="&#xb8;" glyph-name="cedilla" horiz-adv-x="232" d="M154 -58T178 -80T202 -135Q202 -173 175 -196T101 -219Q72 -219 55 -209T17 -178L43 -147Q68 -175 97 -175Q118 -175 130 -165T142 -135Q142 -114 128 -103T87 -91H65L53 -71L86 0H128L112
-52Q154 -58 178 -80Z" />
<glyph unicode="&#xb9;" glyph-name="uni00B9" horiz-adv-x="369" d="M171 378V728L76 698L57 749L193 811L247 801V378H171Z" />
<glyph unicode="&#xba;" glyph-name="ordmasculine" horiz-adv-x="380" d="M29 630T71 676T190 722Q268 722 309 677T351 548Q351 466 309 420T190 374Q113 374 71 420T29 548Q29 630 71 676ZM106 493T128 464T190 435Q230 435 252 463T274 548Q274 604 252 632T190
661Q150 661 128 632T106 548Q106 493 128 464Z" />
<glyph unicode="&#xbb;" glyph-name="guillemotright" horiz-adv-x="610" d="M206 261L84 448L152 499L305 261L153 24L85 77L206 261ZM442 261L318 448L388 499L541 261L389 24L319 77L442 261Z" />
<glyph unicode="&#xbc;" glyph-name="onequarter" horiz-adv-x="600" d="M296 378V728L201 698L182 749L318 811L372 801V378H296ZM81 329H548V257H81V329ZM124 -84L313 203H414V-68H462V-132H414V-227H341V-132H124V-84ZM341 -68V131L213 -68H341Z" />
<glyph unicode="&#xbd;" glyph-name="onehalf" horiz-adv-x="600" d="M297 378V728L202 698L183 749L319 811L373 801V378H297ZM183 156T222 181T315 206Q382 206 419 170T457 70Q457 10 417 -45T294 -163H467V-228H167V-176Q281 -94 329 -40T377 67Q377 102 361
121T315 141Q287 141 266 127T228 81L166 110Q183 156 222 181ZM334 585H801V513H334V585Z" />
<glyph unicode="&#xbe;" glyph-name="threequarters" horiz-adv-x="600" d="M240 461T261 449T314 437Q345 437 365 454T385 500Q385 537 365 554T299 571H258V631H295Q333 632 354 649T376 698Q376 720 360 733T315 747Q284 747 265 734T227 688L169 719Q186
759 224 785T315 812Q380 812 418 781T456 698Q456 636 400 605Q464 577 464 500Q464 442 423 407T314 372Q268 372 232 390T165 444L212 492Q240 461 261 449ZM76 329H543V257H76V329ZM117 -86L306 201H407V-70H455V-134H407V-229H334V-134H117V-86ZM334 -70V129L206
-70H334Z" />
<glyph unicode="&#xbf;" glyph-name="questiondown" horiz-adv-x="467" d="M249 513H342V424H249V513ZM48 22T60 53T91 103T142 145Q177 171 198 193T234 256T249 358H342Q342 277 325 226T283 149T220 95Q194 76 180 63T156 28T146 -25Q146 -65 175 -93T255 -121Q328
-121 401 -96L415 -182Q343 -208 259 -208Q190 -208 143 -182T72 -114T48 -25Q48 22 60 53Z" />
<glyph unicode="&#xc0;" glyph-name="Agrave" horiz-adv-x="639" d="M534 0L460 208H179L108 0H12L256 708H374L627 0H534ZM207 288H431L317 609L207 288ZM257 945L390 781L353 747L197 883L257 945Z" />
<glyph unicode="&#xc1;" glyph-name="Aacute" horiz-adv-x="639" d="M534 0L460 208H179L108 0H12L256 708H374L627 0H534ZM207 288H431L317 609L207 288ZM356 945L416 883L260 747L223 781L356 945Z" />
<glyph unicode="&#xc2;" glyph-name="Acircumflex" horiz-adv-x="639" d="M534 0L460 208H179L108 0H12L256 708H374L627 0H534ZM207 288H431L317 609L207 288ZM329 922L482 795L452 754L318 846L181 754L154 795L307 922H329Z" />
<glyph unicode="&#xc3;" glyph-name="Atilde" horiz-adv-x="639" d="M534 0L460 208H179L108 0H12L256 708H374L627 0H534ZM207 288H431L317 609L207 288ZM135 833T165 865T248 898Q276 898 294 889T332 863Q348 849 360 842T390 835Q411 835 423 849T436 889H495Q495
835 466 803T387 770Q359 770 341 779T303 807Q286 821 275 827T247 834Q223 834 209 819T194 779H135Q135 833 165 865Z" />
<glyph unicode="&#xc4;" glyph-name="Adieresis" horiz-adv-x="639" d="M534 0L460 208H179L108 0H12L256 708H374L627 0H534ZM207 288H431L317 609L207 288ZM274 896V803H181V896H274ZM455 896V803H363V896H455Z" />
<glyph unicode="&#xc5;" glyph-name="Aring" horiz-adv-x="639" d="M534 0L460 208H179L108 0H12L256 708H374L627 0H534ZM207 288H431L317 609L207 288ZM220 877T249 906T319 935Q360 935 389 906T418 836Q418 795 389 766T319 737Q278 737 249 766T220 836Q220
877 249 906ZM369 859T355 875T319 891Q297 891 284 876T270 836Q270 813 283 798T319 782Q341 782 355 797T369 836Q369 859 355 875Z" />
<glyph unicode="&#xc6;" glyph-name="AE" horiz-adv-x="960" d="M572 83H909V0H477V208H222L102 0H0L409 708H898V627H572V412H865V330H572V83ZM268 288H477V651L268 288Z" />
<glyph unicode="&#xc7;" glyph-name="Ccedilla" horiz-adv-x="638" d="M545 20T492 6T378 -9L365 -52Q407 -58 431 -80T455 -135Q455 -173 428 -196T354 -219Q325 -219 308 -209T270 -178L296 -147Q321 -175 350 -175Q371 -175 383 -165T395 -135Q395 -114 381
-103T340 -91H318L306 -71L335 -8Q197 3 124 96T50 355Q50 531 132 623T372 716Q518 716 596 613L530 559Q473 634 372 634Q265 634 209 563T152 355Q152 215 210 143T383 71Q461 71 552 118L580 43Q545 20 492 6Z" />
<glyph unicode="&#xc8;" glyph-name="Egrave" horiz-adv-x="568" d="M85 708H506V627H180V412H473V330H180V83H517V0H85V708ZM241 945L374 781L337 747L181 883L241 945Z" />
<glyph unicode="&#xc9;" glyph-name="Eacute" horiz-adv-x="568" d="M85 708H506V627H180V412H473V330H180V83H517V0H85V708ZM340 945L400 883L244 747L207 781L340 945Z" />
<glyph unicode="&#xca;" glyph-name="Ecircumflex" horiz-adv-x="568" d="M85 708H506V627H180V412H473V330H180V83H517V0H85V708ZM313 922L466 795L436 754L302 846L165 754L138 795L291 922H313Z" />
<glyph unicode="&#xcb;" glyph-name="Edieresis" horiz-adv-x="568" d="M85 708H506V627H180V412H473V330H180V83H517V0H85V708ZM258 896V803H165V896H258ZM439 896V803H347V896H439Z" />
<glyph unicode="&#xcc;" glyph-name="Igrave" horiz-adv-x="271" d="M88 711H183V0H88V711ZM75 945L208 781L171 747L15 883L75 945Z" />
<glyph unicode="&#xcd;" glyph-name="Iacute" horiz-adv-x="271" d="M88 711H183V0H88V711ZM174 945L234 883L78 747L41 781L174 945Z" />
<glyph unicode="&#xce;" glyph-name="Icircumflex" horiz-adv-x="271" d="M88 711H183V0H88V711ZM147 922L300 795L270 754L136 846L-1 754L-28 795L125 922H147Z" />
<glyph unicode="&#xcf;" glyph-name="Idieresis" horiz-adv-x="271" d="M88 711H183V0H88V711ZM92 896V803H-1V896H92ZM273 896V803H181V896H273Z" />
<glyph unicode="&#xd0;" glyph-name="Eth" horiz-adv-x="684" d="M471 708T555 616T639 356Q639 188 555 94T314 0H85V321H0V401H85V708H314Q471 708 555 616ZM422 80T480 149T539 356Q539 493 481 560T314 628H181V401H335V321H181V80H314Q422 80 480 149Z" />
<glyph unicode="&#xd1;" glyph-name="Ntilde" horiz-adv-x="703" d="M195 708L427 333Q450 296 487 229T526 158V708H620V0H523L274 410Q245 458 215 513T175 585V0H83V708H195ZM173 833T203 865T286 898Q314 898 332 889T370 863Q386 849 398 842T428 835Q449
835 461 849T474 889H533Q533 835 504 803T425 770Q397 770 379 779T341 807Q324 821 313 827T285 834Q261 834 247 819T232 779H173Q173 833 203 865Z" />
<glyph unicode="&#xd2;" glyph-name="Ograve" horiz-adv-x="750" d="M50 526T134 621T375 716Q532 716 616 621T700 356Q700 184 615 87T375 -11Q219 -11 135 86T50 356Q50 526 134 621ZM483 69T541 141T600 356Q600 495 542 565T375 636Q267 636 209 566T150
356Q150 213 208 141T375 69Q483 69 541 141ZM311 945L444 781L407 747L251 883L311 945Z" />
<glyph unicode="&#xd3;" glyph-name="Oacute" horiz-adv-x="750" d="M50 526T134 621T375 716Q532 716 616 621T700 356Q700 184 615 87T375 -11Q219 -11 135 86T50 356Q50 526 134 621ZM483 69T541 141T600 356Q600 495 542 565T375 636Q267 636 209 566T150
356Q150 213 208 141T375 69Q483 69 541 141ZM410 945L470 883L314 747L277 781L410 945Z" />
<glyph unicode="&#xd4;" glyph-name="Ocircumflex" horiz-adv-x="750" d="M50 526T134 621T375 716Q532 716 616 621T700 356Q700 184 615 87T375 -11Q219 -11 135 86T50 356Q50 526 134 621ZM483 69T541 141T600 356Q600 495 542 565T375 636Q267 636 209 566T150
356Q150 213 208 141T375 69Q483 69 541 141ZM383 922L536 795L506 754L372 846L235 754L208 795L361 922H383Z" />
<glyph unicode="&#xd5;" glyph-name="Otilde" horiz-adv-x="750" d="M50 526T134 621T375 716Q532 716 616 621T700 356Q700 184 615 87T375 -11Q219 -11 135 86T50 356Q50 526 134 621ZM483 69T541 141T600 356Q600 495 542 565T375 636Q267 636 209 566T150
356Q150 213 208 141T375 69Q483 69 541 141ZM189 833T219 865T302 898Q330 898 348 889T386 863Q402 849 414 842T444 835Q465 835 477 849T490 889H549Q549 835 520 803T441 770Q413 770 395 779T357 807Q340 821 329 827T301 834Q277 834 263 819T248 779H189Q189
833 219 865Z" />
<glyph unicode="&#xd6;" glyph-name="Odieresis" horiz-adv-x="750" d="M50 526T134 621T375 716Q532 716 616 621T700 356Q700 184 615 87T375 -11Q219 -11 135 86T50 356Q50 526 134 621ZM483 69T541 141T600 356Q600 495 542 565T375 636Q267 636 209 566T150
356Q150 213 208 141T375 69Q483 69 541 141ZM328 896V803H235V896H328ZM509 896V803H417V896H509Z" />
<glyph unicode="&#xd7;" glyph-name="multiply" horiz-adv-x="640" d="M535 457L376 298L535 138L479 82L320 242L160 82L104 138L264 298L104 457L160 513L320 354L479 513L535 457Z" />
<glyph unicode="&#xd8;" glyph-name="Oslash" horiz-adv-x="750" d="M611 648T655 564T700 356Q700 184 615 87T375 -11Q338 -11 305 -5L287 -61H205L230 17Q142 55 96 142T50 356Q50 526 134 621T375 716Q418 716 452 709L462 742H544L526 686Q611 648 655 564ZM150
260T177 195T256 99L427 631Q399 636 375 636Q267 636 209 566T150 356Q150 260 177 195ZM483 69T541 141T600 356Q600 537 500 603L330 73Q349 69 375 69Q483 69 541 141Z" />
<glyph unicode="&#xd9;" glyph-name="Ugrave" horiz-adv-x="709" d="M174 708V230Q174 150 219 113T354 75Q443 75 489 111T535 225V708H631V225Q631 114 562 53T354 -8Q215 -8 147 53T78 225V708H174ZM293 945L426 781L389 747L233 883L293 945Z" />
<glyph unicode="&#xda;" glyph-name="Uacute" horiz-adv-x="709" d="M174 708V230Q174 150 219 113T354 75Q443 75 489 111T535 225V708H631V225Q631 114 562 53T354 -8Q215 -8 147 53T78 225V708H174ZM392 945L452 883L296 747L259 781L392 945Z" />
<glyph unicode="&#xdb;" glyph-name="Ucircumflex" horiz-adv-x="709" d="M174 708V230Q174 150 219 113T354 75Q443 75 489 111T535 225V708H631V225Q631 114 562 53T354 -8Q215 -8 147 53T78 225V708H174ZM365 922L518 795L488 754L354 846L217 754L190 795L343
922H365Z" />
<glyph unicode="&#xdc;" glyph-name="Udieresis" horiz-adv-x="709" d="M174 708V230Q174 150 219 113T354 75Q443 75 489 111T535 225V708H631V225Q631 114 562 53T354 -8Q215 -8 147 53T78 225V708H174ZM310 896V803H217V896H310ZM491 896V803H399V896H491Z" />
<glyph unicode="&#xdd;" glyph-name="Yacute" horiz-adv-x="568" d="M236 298L2 708H107L284 391L462 708H566L331 298V0H236V298ZM320 945L380 883L224 747L187 781L320 945Z" />
<glyph unicode="&#xde;" glyph-name="Thorn" horiz-adv-x="584" d="M415 582T476 528T537 374Q537 276 475 221T294 165H181V0H85V708H181V582H294Q415 582 476 528ZM363 245T400 278T437 374Q437 437 401 469T294 502H181V245H294Q363 245 400 278Z" />
<glyph unicode="&#xdf;" glyph-name="germandbls" horiz-adv-x="583" d="M85 639T138 684T290 730Q373 730 424 688T475 575Q475 534 458 506T410 447Q389 425 380 412T370 382Q370 366 384 354T430 325Q466 305 489 287T530 240T548 168Q548 88 489 44T327 0H250V80H336Q390
80 420 102T450 169Q450 203 430 221T368 259Q336 273 317 286T284 321T270 376Q270 409 284 432T327 482Q352 506 364 525T377 569Q377 611 354 633T285 655Q235 655 207 632T179 567V0H85V553Q85 639 138 684Z" />
<glyph unicode="&#xe0;" glyph-name="agrave" horiz-adv-x="544" d="M44 221T110 266T297 311H373V331Q373 395 347 422T256 449Q215 449 183 442T101 412L73 477Q167 523 258 523Q367 523 417 477T467 329V0H394Q393 4 390 19T381 60Q309 -12 213 -12Q136 -12
90 29T44 139Q44 221 110 266ZM138 103T162 83T231 62Q271 62 309 80T373 131V241H303Q221 241 180 216T138 141Q138 103 162 83ZM210 765L343 601L306 567L150 703L210 765Z" />
<glyph unicode="&#xe1;" glyph-name="aacute" horiz-adv-x="544" d="M44 221T110 266T297 311H373V331Q373 395 347 422T256 449Q215 449 183 442T101 412L73 477Q167 523 258 523Q367 523 417 477T467 329V0H394Q393 4 390 19T381 60Q309 -12 213 -12Q136 -12
90 29T44 139Q44 221 110 266ZM138 103T162 83T231 62Q271 62 309 80T373 131V241H303Q221 241 180 216T138 141Q138 103 162 83ZM309 765L369 703L213 567L176 601L309 765Z" />
<glyph unicode="&#xe2;" glyph-name="acircumflex" horiz-adv-x="544" d="M44 221T110 266T297 311H373V331Q373 395 347 422T256 449Q215 449 183 442T101 412L73 477Q167 523 258 523Q367 523 417 477T467 329V0H394Q393 4 390 19T381 60Q309 -12 213 -12Q136
-12 90 29T44 139Q44 221 110 266ZM138 103T162 83T231 62Q271 62 309 80T373 131V241H303Q221 241 180 216T138 141Q138 103 162 83ZM282 742L435 615L405 574L271 666L134 574L107 615L260 742H282Z" />
<glyph unicode="&#xe3;" glyph-name="atilde" horiz-adv-x="544" d="M44 221T110 266T297 311H373V331Q373 395 347 422T256 449Q215 449 183 442T101 412L73 477Q167 523 258 523Q367 523 417 477T467 329V0H394Q393 4 390 19T381 60Q309 -12 213 -12Q136 -12
90 29T44 139Q44 221 110 266ZM138 103T162 83T231 62Q271 62 309 80T373 131V241H303Q221 241 180 216T138 141Q138 103 162 83ZM344 653T374 685T457 718Q485 718 503 709T541 683Q557 669 569 662T599 655Q620 655 632 669T645 709H704Q704 655 675 623T596
590Q568 590 550 599T512 627Q495 641 484 647T456 654Q432 654 418 639T403 599H344Q344 653 374 685Z" />
<glyph unicode="&#xe4;" glyph-name="adieresis" horiz-adv-x="544" d="M44 221T110 266T297 311H373V331Q373 395 347 422T256 449Q215 449 183 442T101 412L73 477Q167 523 258 523Q367 523 417 477T467 329V0H394Q393 4 390 19T381 60Q309 -12 213 -12Q136
-12 90 29T44 139Q44 221 110 266ZM138 103T162 83T231 62Q271 62 309 80T373 131V241H303Q221 241 180 216T138 141Q138 103 162 83ZM227 716V623H134V716H227ZM408 716V623H316V716H408Z" />
<glyph unicode="&#xe5;" glyph-name="aring" horiz-adv-x="544" d="M44 221T110 266T297 311H373V331Q373 395 347 422T256 449Q215 449 183 442T101 412L73 477Q167 523 258 523Q367 523 417 477T467 329V0H394Q393 4 390 19T381 60Q309 -12 213 -12Q136 -12
90 29T44 139Q44 221 110 266ZM138 103T162 83T231 62Q271 62 309 80T373 131V241H303Q221 241 180 216T138 141Q138 103 162 83ZM173 697T202 726T272 755Q313 755 342 726T371 656Q371 615 342 586T272 557Q231 557 202 586T173 656Q173 697 202 726ZM322 679T308
695T272 711Q250 711 237 696T223 656Q223 633 236 618T272 602Q294 602 308 617T322 656Q322 679 308 695Z" />
<glyph unicode="&#xe6;" glyph-name="ae" horiz-adv-x="864" d="M826 245H467Q469 158 508 112T620 66Q660 66 697 75T779 105L806 41Q755 15 709 4T615 -8Q551 -8 503 15T426 84Q329 -12 213 -12Q136 -12 90 29T44 139Q44 221 110 266T297 311H373V331Q373 395
347 422T256 449Q215 449 183 442T101 412L73 477Q167 523 258 523Q326 523 370 505T439 450Q498 523 612 523Q725 523 775 456T826 261V245ZM727 315Q720 384 692 416T612 449Q553 449 518 415T471 315H727ZM373 241H303Q221 241 180 216T138 141Q138 103 162
83T231 62Q271 62 309 80T373 131V241Z" />
<glyph unicode="&#xe7;" glyph-name="ccedilla" horiz-adv-x="494" d="M434 22T393 9T294 -6L280 -52Q322 -58 346 -80T370 -135Q370 -173 343 -196T269 -219Q240 -219 223 -209T185 -178L211 -147Q235 -175 265 -175Q286 -175 298 -165T310 -135Q310 -114 296
-103T255 -91H233L221 -71L252 -4Q150 7 98 76T46 258Q46 382 108 452T292 523Q409 523 470 438L407 391Q383 420 356 434T292 449Q221 449 182 401T142 258Q142 163 182 115T298 66Q340 66 369 75T434 101L460 37Q434 22 393 9Z" />
<glyph unicode="&#xe8;" glyph-name="egrave" horiz-adv-x="539" d="M46 384T109 453T287 523Q400 523 450 456T501 261V245H142Q144 158 183 112T295 66Q335 66 372 75T454 105L481 41Q430 15 384 4T290 -8Q174 -8 110 62T46 258Q46 384 109 453ZM228 449T193
415T146 315H402Q395 384 367 416T287 449Q228 449 193 415ZM223 765L356 601L319 567L163 703L223 765Z" />
<glyph unicode="&#xe9;" glyph-name="eacute" horiz-adv-x="539" d="M46 384T109 453T287 523Q400 523 450 456T501 261V245H142Q144 158 183 112T295 66Q335 66 372 75T454 105L481 41Q430 15 384 4T290 -8Q174 -8 110 62T46 258Q46 384 109 453ZM228 449T193
415T146 315H402Q395 384 367 416T287 449Q228 449 193 415ZM322 765L382 703L226 567L189 601L322 765Z" />
<glyph unicode="&#xea;" glyph-name="ecircumflex" horiz-adv-x="539" d="M46 384T109 453T287 523Q400 523 450 456T501 261V245H142Q144 158 183 112T295 66Q335 66 372 75T454 105L481 41Q430 15 384 4T290 -8Q174 -8 110 62T46 258Q46 384 109 453ZM228 449T193
415T146 315H402Q395 384 367 416T287 449Q228 449 193 415ZM295 742L448 615L418 574L284 666L147 574L120 615L273 742H295Z" />
<glyph unicode="&#xeb;" glyph-name="edieresis" horiz-adv-x="539" d="M46 384T109 453T287 523Q400 523 450 456T501 261V245H142Q144 158 183 112T295 66Q335 66 372 75T454 105L481 41Q430 15 384 4T290 -8Q174 -8 110 62T46 258Q46 384 109 453ZM228 449T193
415T146 315H402Q395 384 367 416T287 449Q228 449 193 415ZM240 716V623H147V716H240ZM421 716V623H329V716H421Z" />
<glyph unicode="&#xec;" glyph-name="igrave" horiz-adv-x="264" d="M86 514H178V0H86V514ZM329 765L462 601L425 567L269 703L329 765Z" />
<glyph unicode="&#xed;" glyph-name="iacute" horiz-adv-x="264" d="M86 514H178V0H86V514ZM172 765L232 703L76 567L39 601L172 765Z" />
<glyph unicode="&#xee;" glyph-name="icircumflex" horiz-adv-x="264" d="M86 514H178V0H86V514ZM401 742L554 615L524 574L390 666L253 574L226 615L379 742H401Z" />
<glyph unicode="&#xef;" glyph-name="idieresis" horiz-adv-x="264" d="M86 514H178V0H86V514ZM346 716V623H253V716H346ZM527 716V623H435V716H527Z" />
<glyph unicode="&#xf0;" glyph-name="eth" horiz-adv-x="568" d="M444 606T481 525T519 333Q519 163 456 78T266 -8Q197 -8 143 21T59 103T28 223Q28 287 57 336T138 414T257 442Q310 442 348 427T417 383Q404 516 325 581L268 500L214 534L271 615Q222 636 162
636L173 716Q252 715 320 685L355 735L409 701L376 654Q444 606 481 525ZM340 74T377 127T418 297Q389 330 357 346T275 362Q207 362 168 325T128 222Q128 181 146 147T195 94T265 74Q340 74 377 127Z" />
<glyph unicode="&#xf1;" glyph-name="ntilde" horiz-adv-x="596" d="M432 523T475 476T519 340V0H425V333Q425 394 402 421T326 449Q279 449 240 428T176 368V0H82V514H159L170 442Q239 523 350 523Q432 523 475 476ZM128 653T158 685T241 718Q269 718 287 709T325
683Q341 669 353 662T383 655Q404 655 416 669T429 709H488Q488 655 459 623T380 590Q352 590 334 599T296 627Q279 641 268 647T240 654Q216 654 202 639T187 599H128Q128 653 158 685Z" />
<glyph unicode="&#xf2;" glyph-name="ograve" horiz-adv-x="580" d="M46 383T109 453T290 523Q407 523 470 453T534 258Q534 133 471 63T290 -8Q173 -8 110 62T46 258Q46 383 109 453ZM142 164T180 115T290 66Q361 66 399 115T438 258Q438 352 400 400T290 449Q219
449 181 401T142 258Q142 164 180 115ZM228 765L361 601L324 567L168 703L228 765Z" />
<glyph unicode="&#xf3;" glyph-name="oacute" horiz-adv-x="580" d="M46 383T109 453T290 523Q407 523 470 453T534 258Q534 133 471 63T290 -8Q173 -8 110 62T46 258Q46 383 109 453ZM142 164T180 115T290 66Q361 66 399 115T438 258Q438 352 400 400T290 449Q219
449 181 401T142 258Q142 164 180 115ZM327 765L387 703L231 567L194 601L327 765Z" />
<glyph unicode="&#xf4;" glyph-name="ocircumflex" horiz-adv-x="580" d="M46 383T109 453T290 523Q407 523 470 453T534 258Q534 133 471 63T290 -8Q173 -8 110 62T46 258Q46 383 109 453ZM142 164T180 115T290 66Q361 66 399 115T438 258Q438 352 400 400T290
449Q219 449 181 401T142 258Q142 164 180 115ZM300 742L453 615L423 574L289 666L152 574L125 615L278 742H300Z" />
<glyph unicode="&#xf5;" glyph-name="otilde" horiz-adv-x="580" d="M46 383T109 453T290 523Q407 523 470 453T534 258Q534 133 471 63T290 -8Q173 -8 110 62T46 258Q46 383 109 453ZM142 164T180 115T290 66Q361 66 399 115T438 258Q438 352 400 400T290 449Q219
449 181 401T142 258Q142 164 180 115ZM106 653T136 685T219 718Q247 718 265 709T303 683Q319 669 331 662T361 655Q382 655 394 669T407 709H466Q466 655 437 623T358 590Q330 590 312 599T274 627Q257 641 246 647T218 654Q194 654 180 639T165 599H106Q106
653 136 685Z" />
<glyph unicode="&#xf6;" glyph-name="odieresis" horiz-adv-x="580" d="M46 383T109 453T290 523Q407 523 470 453T534 258Q534 133 471 63T290 -8Q173 -8 110 62T46 258Q46 383 109 453ZM142 164T180 115T290 66Q361 66 399 115T438 258Q438 352 400 400T290
449Q219 449 181 401T142 258Q142 164 180 115ZM245 716V623H152V716H245ZM426 716V623H334V716H426Z" />
<glyph unicode="&#xf7;" glyph-name="divide" horiz-adv-x="640" d="M274 532H362V448H274V532ZM86 343H553V271H86V343ZM274 170H362V86H274V170Z" />
<glyph unicode="&#xf8;" glyph-name="oslash" horiz-adv-x="580" d="M465 475T499 413T534 258Q534 133 471 63T290 -8Q259 -8 236 -4L218 -61H150L174 15Q112 44 79 106T46 258Q46 383 109 453T290 523Q313 523 336 520L351 567H419L399 503Q465 475 499 413ZM142
144T200 95L313 448Q305 449 290 449Q219 449 181 401T142 258Q142 144 200 95ZM361 66T399 115T438 258Q438 380 374 425L259 69Q274 66 290 66Q361 66 399 115Z" />
<glyph unicode="&#xf9;" glyph-name="ugrave" horiz-adv-x="596" d="M514 514V0H437L426 71Q359 -9 252 -9Q165 -9 121 37T77 174V514H171V181Q171 120 194 93T270 65Q317 65 356 86T420 146V514H514ZM236 765L369 601L332 567L176 703L236 765Z" />
<glyph unicode="&#xfa;" glyph-name="uacute" horiz-adv-x="596" d="M514 514V0H437L426 71Q359 -9 252 -9Q165 -9 121 37T77 174V514H171V181Q171 120 194 93T270 65Q317 65 356 86T420 146V514H514ZM335 765L395 703L239 567L202 601L335 765Z" />
<glyph unicode="&#xfb;" glyph-name="ucircumflex" horiz-adv-x="596" d="M514 514V0H437L426 71Q359 -9 252 -9Q165 -9 121 37T77 174V514H171V181Q171 120 194 93T270 65Q317 65 356 86T420 146V514H514ZM308 742L461 615L431 574L297 666L160 574L133 615L286
742H308Z" />
<glyph unicode="&#xfc;" glyph-name="udieresis" horiz-adv-x="596" d="M514 514V0H437L426 71Q359 -9 252 -9Q165 -9 121 37T77 174V514H171V181Q171 120 194 93T270 65Q317 65 356 86T420 146V514H514ZM253 716V623H160V716H253ZM434 716V623H342V716H434Z" />
<glyph unicode="&#xfd;" glyph-name="yacute" horiz-adv-x="508" d="M407 514H498L233 -246H148L232 0H193L11 514H108L259 79L407 514ZM302 765L362 703L206 567L169 601L302 765Z" />
<glyph unicode="&#xfe;" glyph-name="thorn" horiz-adv-x="592" d="M428 523T487 457T547 266Q547 137 477 65T283 -8Q225 -8 176 6V-245H82V758H176V459Q231 523 321 523Q428 523 487 457ZM361 66T406 118T451 266Q451 354 416 401T315 449Q264 449 228 422T176
347V81Q227 66 282 66Q361 66 406 118Z" />
<glyph unicode="&#xff;" glyph-name="ydieresis" horiz-adv-x="508" d="M407 514H498L233 -246H148L232 0H193L11 514H108L259 79L407 514ZM220 716V623H127V716H220ZM401 716V623H309V716H401Z" />
<glyph unicode="&#x2013;" glyph-name="endash" horiz-adv-x="500" d="M0 359H500V279H0V359Z" />
<glyph unicode="&#x2014;" glyph-name="emdash" horiz-adv-x="750" d="M0 359H750V279H0V359Z" />
<glyph unicode="&#x2018;" glyph-name="quoteleft" horiz-adv-x="198" d="M143 542H43V622L102 759H147L98 642H143V542Z" />
<glyph unicode="&#x2019;" glyph-name="quoteright" horiz-adv-x="198" d="M47 759H147V679L88 542H43L92 659H47V759Z" />
<glyph unicode="&#x201a;" glyph-name="quotesinglbase" horiz-adv-x="280" d="M105 107H192L131 -113L88 -102L105 107Z" />
<glyph unicode="&#x201c;" glyph-name="quotedblleft" horiz-adv-x="364" d="M143 542H43V622L102 759H147L98 642H143V542ZM309 542H209V622L268 759H313L264 642H309V542Z" />
<glyph unicode="&#x201d;" glyph-name="quotedblright" horiz-adv-x="364" d="M47 759H147V679L88 542H43L92 659H47V759ZM213 759H313V679L254 542H209L258 659H213V759Z" />
<glyph unicode="&#x201e;" glyph-name="quotedblbase" horiz-adv-x="459" d="M105 107H192L131 -113L88 -102L105 107ZM268 107H355L294 -113L251 -102L268 107Z" />
<glyph unicode="&#x2022;" glyph-name="bullet" horiz-adv-x="450" d="M188 193T157 211T107 261T88 330Q88 367 106 398T156 448T225 467Q262 467 293 449T343 399T362 330Q362 293 344 262T294 212T225 193Q188 193 157 211Z" />
<glyph unicode="&#x2039;" glyph-name="guilsinglleft" horiz-adv-x="376" d="M69 261L222 499L292 448L168 261L290 77L221 24L69 261Z" />
<glyph unicode="&#x203a;" glyph-name="guilsinglright" horiz-adv-x="376" d="M208 261L84 448L154 499L307 261L155 24L86 77L208 261Z" />
</font>
</defs>
</svg>
