<?xml version="1.0" standalone="no"?>
<!DOCTYPE svg PUBLIC "-//W3C//DTD SVG 1.1//EN" "http://www.w3.org/Graphics/SVG/1.1/DTD/svg11.dtd">
<svg xmlns="http://www.w3.org/2000/svg">
<defs >
<font id="Prompt" horiz-adv-x="618" ><font-face
    font-family="Prompt Black"
    units-per-em="1000"
    panose-1="0 0 10 0 0 0 0 0 0 0"
    ascent="1090"
    descent="-422"
    alphabetic="0" />
<glyph unicode=" " glyph-name="space" horiz-adv-x="300" />
<glyph unicode="!" glyph-name="exclam" horiz-adv-x="262" d="M113 699H338L243 252H18L113 699ZM31 -15T5 10T-21 74Q-21 86 -18 99Q-8 148 32 180T122 213Q164 213 190 189T217 124Q217 88 196 56T142 4T73 -15Q31 -15 5 10Z" />
<glyph unicode="&quot;" glyph-name="quotedbl" horiz-adv-x="382" d="M109 699H271L225 482H63L109 699ZM299 699H461L415 482H253L299 699Z" />
<glyph unicode="#" glyph-name="numbersign" horiz-adv-x="790" d="M54 116H-15L22 290H140L181 372H84L120 545H266L342 699H547L471 545H566L642 699H847L771 545H836L800 372H686L645 290H738L701 116H559L502 0H297L354 116H259L202 0H-3L54 116ZM440 290L481
372H386L345 290H440Z" />
<glyph unicode="$" glyph-name="dollar" horiz-adv-x="580" d="M143 -11Q90 -6 44 6T-32 37L12 243Q61 211 120 195T233 179Q267 179 281 186T295 210Q295 225 277 237T204 276Q131 312 97 353T63 449Q63 468 68 495Q84 570 145 625T295 702L316 802H483L463 711Q545
704 610 669L567 470Q489 520 400 520Q330 520 322 489Q319 474 332 465T386 437Q398 433 421 422Q498 386 529 351T561 264Q561 238 553 201Q536 119 475 65T311 -7L291 -103H124L143 -11Z" />
<glyph unicode="%" glyph-name="percent" horiz-adv-x="904" d="M151 347T110 387T69 491Q69 511 73 530Q84 580 117 622T198 689T295 714Q361 714 402 673T444 569Q444 547 440 530Q429 480 396 438T315 372T217 347Q151 347 110 387ZM625 699H855L320 0H90L625
699ZM270 474T290 493T310 538Q310 557 298 569T267 581Q241 581 221 561T201 514Q201 497 213 486T244 474Q270 474 290 493ZM581 -15T540 25T499 130Q499 151 503 168Q514 218 547 260T628 327T725 352Q791 352 832 311T874 207Q874 185 870 168Q860 118 826
76T745 10T647 -15Q581 -15 540 25ZM700 112T720 131T740 176Q740 195 728 207T697 219Q671 219 651 199T631 152Q631 135 643 124T674 112Q700 112 720 131Z" />
<glyph unicode="&amp;" glyph-name="ampersand" horiz-adv-x="816" d="M118 -15T57 27T-4 144Q-4 162 1 189Q14 253 50 297T151 380Q134 404 126 428T117 483Q117 509 122 530Q140 612 214 663T399 714Q492 714 542 674T593 567Q593 547 589 530Q577 472 546 434T458
359L526 278Q543 307 557 372H744Q727 291 704 241T641 141L757 0H481L450 34Q369 -15 224 -15Q118 -15 57 27ZM373 477T387 494T401 533Q401 547 392 555T367 563Q326 563 317 519Q312 494 343 459Q373 477 387 494ZM313 135T343 159L273 246Q247 236 234 219T221
177Q221 158 234 147T270 135Q313 135 343 159Z" />
<glyph unicode="&apos;" glyph-name="quotesingle" horiz-adv-x="192" d="M109 699H271L225 482H63L109 699Z" />
<glyph unicode="(" glyph-name="parenleft" horiz-adv-x="403" d="M0 -54T0 106Q0 183 18 270Q72 529 262 714H505Q312 519 259 270Q242 187 242 115Q242 -41 317 -174H74Q0 -54 0 106Z" />
<glyph unicode=")" glyph-name="parenright" horiz-adv-x="403" d="M97 21T150 270Q167 353 167 425Q167 581 92 714H335Q409 594 409 433Q409 357 391 270Q335 9 147 -174H-95Q97 21 150 270Z" />
<glyph unicode="*" glyph-name="asterisk" horiz-adv-x="449" d="M84 409L171 499L74 536L149 650L227 620L244 699H393L376 620L468 651L493 536L382 500L431 410L299 334L258 414L184 333L84 409Z" />
<glyph unicode="+" glyph-name="plus" horiz-adv-x="410" d="M106 217H7L45 396H145L161 471H340L324 396H425L387 217H285L269 141H90L106 217Z" />
<glyph unicode="," glyph-name="comma" horiz-adv-x="346" d="M59 68H291L134 -150H-70L59 68Z" />
<glyph unicode="-" glyph-name="hyphen" horiz-adv-x="410" d="M45 396H425L387 217H7L45 396Z" />
<glyph unicode="." glyph-name="period" horiz-adv-x="182" d="M9 0T-8 17T-25 60Q-25 70 -24 75Q-16 107 10 129T68 152Q96 152 113 136T130 93Q130 87 128 75Q122 44 95 22T36 0Q9 0 -8 17Z" />
<glyph unicode="/" glyph-name="slash" horiz-adv-x="545" d="M397 714H627L191 0H-39L397 714Z" />
<glyph unicode="0" glyph-name="zero" horiz-adv-x="712" d="M172 -15T98 54T24 249Q24 300 35 349Q59 463 118 545T263 671T453 714Q583 714 656 646T729 453Q729 405 717 349Q693 236 633 154T487 29T298 -15Q172 -15 98 54ZM396 206T428 243T475 347Q483 384
483 410Q483 490 407 490Q356 490 323 452T275 347Q267 310 267 284Q267 246 285 226T345 206Q396 206 428 243Z" />
<glyph unicode="1" glyph-name="one" horiz-adv-x="423" d="M193 453L36 355L82 570L285 699H482L334 0H97L193 453Z" />
<glyph unicode="2" glyph-name="two" horiz-adv-x="588" d="M-14 120L86 195Q114 217 173 258Q260 319 300 355T348 426Q350 436 350 441Q350 490 271 490Q225 490 171 471T70 421L118 645Q171 677 241 695T384 714Q492 714 551 666T610 539Q610 520 605 495Q586
409 543 351T418 232L347 179H557L519 0H-39L-14 120Z" />
<glyph unicode="3" glyph-name="three" horiz-adv-x="591" d="M128 -15T67 -3T-32 33L5 210Q100 161 201 161Q326 161 326 226Q326 247 303 256T226 265H119L156 438H258Q307 438 333 450T364 489Q365 492 365 499Q365 538 287 538Q226 538 175 524T73 482L112
664Q163 687 228 700T357 714Q487 714 550 671T614 549Q614 525 608 498Q600 459 577 421T516 352Q570 310 570 247Q570 228 565 203Q518 -15 198 -15Q128 -15 67 -3Z" />
<glyph unicode="4" glyph-name="four" horiz-adv-x="630" d="M276 128H-32L-3 267L414 699H634L551 307H646L608 128H513L486 0H249L276 128ZM349 307L373 423L262 307H349Z" />
<glyph unicode="5" glyph-name="five" horiz-adv-x="593" d="M124 -15T64 -1T-31 39L11 236Q51 203 107 185T215 167Q317 167 331 232Q333 242 333 246Q333 298 246 298Q213 298 174 292T104 274L32 321L140 699H627L589 520H323L305 459Q340 467 388 467Q482
467 532 427T582 306Q582 277 574 239Q548 119 451 52T188 -15Q124 -15 64 -1Z" />
<glyph unicode="6" glyph-name="six" horiz-adv-x="646" d="M196 -15T140 16T52 104T20 237Q20 277 29 320Q55 442 122 531T284 667T482 714Q567 714 625 692L584 501Q538 531 461 531Q410 531 364 508T297 441Q324 456 367 466T451 476Q534 476 584 432T635 305Q635
273 628 242Q613 170 566 112T443 19T268 -15Q196 -15 140 16ZM338 160T359 178T388 231Q390 239 390 252Q390 302 335 302Q305 302 283 283T254 231Q252 224 252 211Q252 188 265 174T305 160Q338 160 359 178Z" />
<glyph unicode="7" glyph-name="seven" horiz-adv-x="532" d="M336 520H61L99 699H621L591 558L219 0H-11L336 520Z" />
<glyph unicode="8" glyph-name="eight" horiz-adv-x="644" d="M141 -15T70 31T-1 161Q-1 179 4 206Q16 259 46 298T119 361Q85 402 85 459Q85 477 90 504Q111 604 199 659T419 714Q535 714 600 671T665 549Q665 531 660 504Q641 417 569 361Q595 343 609 316T623
252Q623 226 618 206Q596 101 500 43T264 -15Q141 -15 70 31ZM385 417T408 439T431 490Q431 511 418 524T382 538Q353 538 331 516T308 464Q308 444 321 431T356 417Q385 417 408 439ZM339 160T363 185T388 246Q388 269 372 284T331 300Q298 300 271 274T244 214Q244
190 259 175T302 160Q339 160 363 185Z" />
<glyph unicode="9" glyph-name="nine" horiz-adv-x="646" d="M117 -15T61 7L102 198Q147 168 224 168Q275 168 322 191T388 258Q360 242 322 233T245 223Q156 223 104 268T52 398Q52 430 59 462Q74 534 120 591T241 681T417 714Q542 714 605 653T669 481Q669 433
657 379Q630 254 562 165T400 31T203 -15Q117 -15 61 7ZM381 397T403 416T432 468Q434 475 434 488Q434 511 421 525T381 539Q348 539 327 521T298 468Q295 456 295 446Q295 423 309 410T351 397Q381 397 403 416Z" />
<glyph unicode=":" glyph-name="colon" horiz-adv-x="242" d="M92 298T68 322T44 383Q44 416 63 445T112 492T175 510Q212 510 236 486T261 426Q261 393 242 364T193 316T130 298Q92 298 68 322ZM29 2T5 26T-19 87Q-19 120 0 149T49 196T112 214Q149 214 173 190T198
130Q198 97 179 68T130 20T67 2Q29 2 5 26Z" />
<glyph unicode=";" glyph-name="semicolon" horiz-adv-x="346" d="M175 298T151 322T127 383Q127 416 146 445T195 492T258 510Q295 510 319 486T344 426Q344 393 325 364T276 316T213 298Q175 298 151 322ZM59 68H291L134 -150H-70L59 68Z" />
<glyph unicode="&lt;" glyph-name="less" horiz-adv-x="526" d="M13 249L47 405L594 649L544 411L327 324L507 236L458 5L13 249Z" />
<glyph unicode="=" glyph-name="equal" horiz-adv-x="502" d="M73 529H545L508 356H36L73 529ZM24 300H496L459 126H-13L24 300Z" />
<glyph unicode="&gt;" glyph-name="greater" horiz-adv-x="526" d="M11 242L229 330L48 417L98 649L543 405L509 249L-38 5L11 242Z" />
<glyph unicode="?" glyph-name="question" horiz-adv-x="535" d="M118 270Q127 315 151 353T213 414Q247 433 251 436Q286 455 300 467T314 495Q314 520 249 520Q161 520 60 470L103 669Q156 692 211 703T334 714Q410 714 465 693T549 635T578 549Q578 534 575
517Q566 468 539 436T453 370Q397 337 373 317T342 268L339 252H114L118 270ZM127 -15T101 10T75 74Q75 86 78 99Q88 148 128 180T218 213Q260 213 286 189T313 124Q313 88 292 56T238 4T169 -15Q127 -15 101 10Z" />
<glyph unicode="@" glyph-name="at" horiz-adv-x="902" d="M205 -76T109 -4T12 202Q12 246 22 290Q48 414 125 510T319 660T573 714Q739 714 829 645T920 449Q920 415 910 363Q884 242 813 173T641 104Q608 104 582 116T545 150Q516 129 476 117T396 104Q320 104
272 138T224 241Q224 259 229 286Q244 357 287 413T393 501T533 533Q581 533 630 521T708 487L647 260Q644 250 644 242Q644 223 661 223Q685 223 705 261T740 363Q749 405 749 438Q749 507 702 537T541 568Q462 568 389 536T263 440T192 290Q184 252 184 224Q184
145 239 106T407 67Q506 67 578 89L549 -50Q469 -76 376 -76Q205 -76 109 -4ZM461 237T474 249T494 285L523 391Q517 394 499 394Q469 394 445 367T411 297Q407 275 407 269Q407 237 437 237Q461 237 474 249Z" />
<glyph unicode="A" glyph-name="A" horiz-adv-x="814" d="M389 699H613L745 0H507L487 122H279L209 0H-39L389 699ZM472 296L455 457L368 296H472Z" />
<glyph unicode="B" glyph-name="B" horiz-adv-x="680" d="M129 699H505Q595 699 647 658T700 544Q700 522 696 502Q688 463 663 427T600 367Q633 349 648 325T663 267Q663 245 657 218Q643 152 601 103T499 27T373 0H-19L129 699ZM381 434Q412 434 429 446T452
488Q454 500 454 504Q454 522 442 530T403 539H325L303 434H381ZM336 160Q372 160 390 174T416 219Q418 226 418 239Q418 259 405 269T361 279H270L245 160H336Z" />
<glyph unicode="C" glyph-name="C" horiz-adv-x="670" d="M250 -15T178 18T65 114T25 262Q25 305 35 349Q71 522 191 618T499 714Q576 714 632 701T733 659L685 435Q648 467 597 481T474 495Q396 495 344 458T276 349Q270 324 270 302Q270 252 304 228T412 203Q482
203 541 218T657 266L610 43Q495 -15 344 -15Q250 -15 178 18Z" />
<glyph unicode="D" glyph-name="D" horiz-adv-x="705" d="M129 699H389Q488 699 562 665T677 568T718 423Q718 387 711 353Q675 176 558 88T249 0H-19L129 699ZM311 220Q379 220 417 252T470 353Q475 380 475 398Q475 438 450 458T366 479H319L264 220H311Z" />
<glyph unicode="E" glyph-name="E" horiz-adv-x="568" d="M129 699H647L605 500H324L311 439H510L472 260H273L260 199H541L499 0H-19L129 699Z" />
<glyph unicode="F" glyph-name="F" horiz-adv-x="548" d="M129 699H647L605 500H324L311 439H510L472 260H273L218 0H-19L129 699Z" />
<glyph unicode="G" glyph-name="G" horiz-adv-x="687" d="M250 -15T178 18T65 114T25 262Q25 305 35 349Q59 462 123 544T284 670T499 714Q577 714 632 701T733 659L685 437Q649 469 598 483T474 497Q396 497 343 459T275 349Q268 320 268 291Q268 242 298 218T399
193Q428 193 452 201L466 267H389L418 403H703L627 44Q512 -15 344 -15Q250 -15 178 18Z" />
<glyph unicode="H" glyph-name="H" horiz-adv-x="736" d="M129 699H366L316 465H508L558 699H795L647 0H410L462 245H270L218 0H-19L129 699Z" />
<glyph unicode="I" glyph-name="I" horiz-adv-x="307" d="M129 699H366L218 0H-19L129 699Z" />
<glyph unicode="J" glyph-name="J" horiz-adv-x="409" d="M36 -15T-2 -7T-56 13L-14 213Q14 196 61 196Q95 196 115 212T143 263L236 699H473L375 236Q348 109 280 47T72 -15Q36 -15 -2 -7Z" />
<glyph unicode="K" glyph-name="K" horiz-adv-x="773" d="M129 699H366L312 446L562 699H834L500 361L704 0H426L276 273L218 0H-19L129 699Z" />
<glyph unicode="L" glyph-name="L" horiz-adv-x="528" d="M129 699H366L260 199H521L479 0H-19L129 699Z" />
<glyph unicode="M" glyph-name="M" horiz-adv-x="842" d="M129 699H333L431 329L687 699H901L753 0H534L589 259L405 0H329L255 259L200 0H-19L129 699Z" />
<glyph unicode="N" glyph-name="N" horiz-adv-x="714" d="M129 699H338L477 374L546 699H773L625 0H416L277 326L208 0H-19L129 699Z" />
<glyph unicode="O" glyph-name="O" horiz-adv-x="789" d="M251 -15T180 20T68 121T26 272Q26 309 35 349Q58 458 122 540T282 668T492 714Q582 714 652 679T763 579T803 429Q803 391 794 349Q771 241 707 159T547 31T337 -15Q251 -15 180 20ZM445 208T492 246T553
349Q558 376 558 394Q558 490 445 490Q384 490 337 452T276 349Q270 322 270 299Q270 254 297 231T385 208Q445 208 492 246Z" />
<glyph unicode="P" glyph-name="P" horiz-adv-x="658" d="M129 699H465Q568 699 634 649T700 505Q700 474 693 445Q666 317 584 254T357 191H258L218 0H-19L129 699ZM347 368Q397 368 421 384T454 445Q457 459 457 470Q457 498 438 510T379 522H328L296 368H347Z" />
<glyph unicode="Q" glyph-name="Q" horiz-adv-x="796" d="M263 0T186 32T68 124T26 268Q26 306 35 349Q58 459 120 541T277 668T492 714Q588 714 659 683T768 591T806 448Q806 405 796 361Q786 314 751 259T676 173H778L742 0H369Q263 0 186 32ZM445 208T492 246T553
349Q558 376 558 392Q558 439 530 464T445 490Q384 490 337 452T276 349Q271 326 271 309Q271 261 300 235T385 208Q445 208 492 246Z" />
<glyph unicode="R" glyph-name="R" horiz-adv-x="668" d="M129 699H465Q574 699 637 647T700 505Q700 474 693 445Q676 367 634 313T528 227L590 0H351L299 191H254L214 0H-19L129 699ZM345 368Q436 368 452 445Q455 457 455 467Q455 522 377 522H324L292 368H345Z" />
<glyph unicode="S" glyph-name="S" horiz-adv-x="580" d="M141 -15T74 -1T-32 37L12 243Q61 211 120 195T233 179Q267 179 281 186T295 210Q295 225 277 237T204 276Q131 312 97 353T63 449Q63 468 68 495Q82 560 125 609T238 686T397 714Q465 714 515 703T610
669L567 470Q489 520 400 520Q330 520 322 489Q319 474 332 465T386 437Q398 433 421 422Q498 386 529 351T561 264Q561 238 553 201Q531 97 451 41T210 -15Q141 -15 74 -1Z" />
<glyph unicode="T" glyph-name="T" horiz-adv-x="595" d="M231 500H52L94 699H689L647 500H468L362 0H125L231 500Z" />
<glyph unicode="U" glyph-name="U" horiz-adv-x="734" d="M220 -15T158 17T65 105T33 235Q33 273 42 315L124 699H361L281 322Q275 294 275 272Q275 237 293 220T356 203Q408 203 438 233T480 322L560 699H798L716 315Q646 -15 309 -15Q220 -15 158 17Z" />
<glyph unicode="V" glyph-name="V" horiz-adv-x="814" d="M109 699H352L413 307L640 699H893L465 0H241L109 699Z" />
<glyph unicode="W" glyph-name="W" horiz-adv-x="988" d="M109 699H355L364 383L509 699H677L678 382L821 699H1067L740 0H530L512 318L360 0H140L109 699Z" />
<glyph unicode="X" glyph-name="X" horiz-adv-x="806" d="M288 353L115 699H385L464 542L609 699H880L559 353L737 0H466L384 163L232 0H-39L288 353Z" />
<glyph unicode="Y" glyph-name="Y" horiz-adv-x="783" d="M270 267L109 699H353L425 478L601 699H862L507 267L451 0H214L270 267Z" />
<glyph unicode="Z" glyph-name="Z" horiz-adv-x="612" d="M-7 152L334 500H73L115 699H666L634 546L294 199H585L543 0H-39L-7 152Z" />
<glyph unicode="[" glyph-name="bracketleft" horiz-adv-x="364" d="M128 787H472L429 588H322L219 103H326L284 -96H-59L128 787Z" />
<glyph unicode="\" glyph-name="backslash" horiz-adv-x="545" d="M112 714H342L476 0H246L112 714Z" />
<glyph unicode="]" glyph-name="bracketright" horiz-adv-x="364" d="M-28 103H79L182 588H75L118 787H462L274 -96H-69L-28 103Z" />
<glyph unicode="^" glyph-name="asciicircum" horiz-adv-x="616" d="M316 719H496L626 374H411L363 516L254 374H40L316 719Z" />
<glyph unicode="_" glyph-name="underscore" horiz-adv-x="480" d="M-39 0H411L372 -179H-77L-39 0Z" />
<glyph unicode="`" glyph-name="grave" horiz-adv-x="315" d="M119 747H336L366 566H176L119 747Z" />
<glyph unicode="a" glyph-name="a" horiz-adv-x="669" d="M118 -15T62 37T5 177Q5 209 12 240Q37 356 118 425T322 495Q364 495 399 483T455 450L462 480H687L585 0H368L376 40Q344 15 300 0T213 -15Q118 -15 62 37ZM338 159T362 171T403 204L418 276Q411 297
392 309T347 321Q307 321 280 300T244 239Q241 224 241 212Q241 185 258 172T312 159Q338 159 362 171Z" />
<glyph unicode="b" glyph-name="b" horiz-adv-x="674" d="M302 -15T265 0T206 40L198 0H-19L138 739H363L301 450Q329 470 370 482T454 495Q553 495 608 444T663 304Q663 272 656 240Q640 164 596 106T488 17T345 -15Q302 -15 265 0ZM360 159T387 179T422 239Q425
254 425 266Q425 294 408 307T355 321Q329 321 305 309T264 276L249 204Q256 183 275 171T320 159Q360 159 387 179Z" />
<glyph unicode="c" glyph-name="c" horiz-adv-x="539" d="M140 -15T73 35T5 180Q5 211 12 240Q38 364 129 429T357 495Q419 495 474 484T560 451L524 279Q498 301 460 313T378 325Q318 325 280 296T242 213Q242 183 265 169T341 155Q383 155 428 167T513 203L476
31Q435 10 375 -2T248 -15Q140 -15 73 35Z" />
<glyph unicode="d" glyph-name="d" horiz-adv-x="674" d="M114 -15T59 35T4 173Q4 202 12 240Q37 357 117 426T322 495Q364 495 399 483T455 450L517 739H742L585 0H368L376 40Q344 15 300 0T213 -15Q114 -15 59 35ZM338 159T362 171T403 204L418 276Q411 297
392 309T347 321Q307 321 280 300T244 239Q241 224 241 211Q241 184 257 172T312 159Q338 159 362 171Z" />
<glyph unicode="e" glyph-name="e" horiz-adv-x="600" d="M149 -15T77 37T5 183Q5 210 11 238Q37 358 123 426T355 495Q469 495 529 443T589 303Q589 279 582 244L569 179H213Q222 153 248 140T332 127Q379 127 432 134T525 156L496 21Q453 5 393 -5T270 -15Q149
-15 77 37ZM383 302Q382 325 367 338T320 352Q261 352 239 302H383Z" />
<glyph unicode="f" glyph-name="f" horiz-adv-x="394" d="M73 332H11L43 480H104L112 517Q136 630 210 687T414 744Q479 744 518 723L480 544Q451 561 416 561Q373 561 357 547T333 497L329 480H437L405 332H298L228 0H3L73 332Z" />
<glyph unicode="g" glyph-name="g" horiz-adv-x="674" d="M152 -230T104 -221T23 -196L53 -53Q126 -87 230 -87Q340 -87 360 3L366 30Q338 10 297 -2T213 -15Q116 -15 61 37T5 176Q5 209 12 240Q37 358 117 426T322 495Q365 495 402 480T461 440L470 480H687L593
38Q566 -89 469 -159T200 -230Q152 -230 104 -221ZM338 159T362 171T403 204L418 276Q411 297 392 309T347 321Q307 321 280 301T245 241Q241 219 241 211Q241 184 258 172T312 159Q338 159 362 171Z" />
<glyph unicode="h" glyph-name="h" horiz-adv-x="638" d="M138 739H363L300 443Q376 495 457 495Q540 495 581 458T623 353Q623 327 617 297L554 0H329L385 264Q387 280 387 285Q387 321 348 321Q298 321 264 276L206 0H-19L138 739Z" />
<glyph unicode="i" glyph-name="i" horiz-adv-x="302" d="M165 524T139 548T113 612Q113 649 133 681T186 733T256 752Q298 752 324 727T351 662Q351 650 348 638Q338 589 298 557T208 524Q165 524 139 548ZM87 480H312L210 0H-15L87 480Z" />
<glyph unicode="j" glyph-name="j" horiz-adv-x="300" d="M163 524T137 548T111 612Q111 649 131 681T184 733T254 752Q296 752 322 727T349 662Q349 650 346 638Q336 589 296 557T206 524Q163 524 137 548ZM-159 -231T-198 -210L-160 -31Q-131 -48 -89 -48Q-61
-48 -41 -33T-15 13L85 480H310L204 -15Q181 -123 104 -177T-94 -231Q-159 -231 -198 -210Z" />
<glyph unicode="k" glyph-name="k" horiz-adv-x="684" d="M138 739H363L272 309L434 480H690L473 251L615 0H359L248 196L206 0H-19L138 739Z" />
<glyph unicode="l" glyph-name="l" horiz-adv-x="295" d="M138 739H363L206 0H-19L138 739Z" />
<glyph unicode="m" glyph-name="m" horiz-adv-x="885" d="M83 480H290L281 440Q349 495 436 495Q487 495 515 482T560 441Q595 466 638 480T725 495Q804 495 838 463T873 369Q873 336 864 297L801 0H586L642 264Q645 279 645 289Q645 305 637 313T610 321Q588
321 570 311L504 0H289L347 275Q349 289 349 293Q349 321 318 321Q284 321 256 283L196 0H-19L83 480Z" />
<glyph unicode="n" glyph-name="n" horiz-adv-x="638" d="M83 480H300L291 440Q326 466 369 480T457 495Q539 495 580 452T622 343Q622 322 617 297L554 0H329L385 264Q387 280 387 285Q387 321 348 321Q298 321 264 276L206 0H-19L83 480Z" />
<glyph unicode="o" glyph-name="o" horiz-adv-x="652" d="M185 -15T126 10T37 82T6 187Q6 213 12 240Q27 314 75 371T200 462T377 495Q460 495 519 469T608 397T639 292Q639 263 634 240Q618 166 570 109T445 18T268 -15Q185 -15 126 10ZM348 159T377 189T407
266Q407 321 340 321Q297 321 268 291T239 214Q239 159 305 159Q348 159 377 189Z" />
<glyph unicode="p" glyph-name="p" horiz-adv-x="674" d="M83 480H300L291 440Q323 465 367 480T454 495Q548 495 605 442T662 300Q662 272 656 240Q640 165 596 107T487 17T345 -15Q303 -15 268 -3T212 30L159 -219H-65L83 480ZM360 159T387 180T423 241Q425
249 425 263Q425 292 407 306T355 321Q329 321 305 309T264 276L249 204Q256 183 275 171T320 159Q360 159 387 180Z" />
<glyph unicode="q" glyph-name="q" horiz-adv-x="674" d="M366 30Q338 10 297 -2T213 -15Q151 -15 104 9T31 77T5 180Q5 211 12 240Q28 316 71 374T179 463T322 495Q365 495 402 480T461 440L470 480H687L538 -219H313L366 30ZM338 159T362 171T403 204L418 276Q411
297 392 309T347 321Q307 321 280 301T245 241Q242 226 242 213Q242 186 259 173T312 159Q338 159 362 171Z" />
<glyph unicode="r" glyph-name="r" horiz-adv-x="426" d="M83 480H300L290 437Q324 463 375 479T482 495L445 321Q386 321 335 306T261 262L206 0H-19L83 480Z" />
<glyph unicode="s" glyph-name="s" horiz-adv-x="528" d="M140 -15T75 -4T-26 28L7 180Q43 156 100 139T206 122Q230 122 241 124T252 134Q252 138 245 141T220 147Q185 154 161 162Q89 185 58 213T26 289Q26 305 31 330Q48 414 123 454T314 495Q368 495 431 483T521
452L488 300Q462 321 411 336T316 352Q296 352 283 349T268 341Q267 335 279 331T317 321L361 310Q435 289 465 263T495 193Q495 172 489 145Q473 70 403 28T203 -15Q140 -15 75 -4Z" />
<glyph unicode="t" glyph-name="t" horiz-adv-x="404" d="M119 -15T79 23T38 128Q38 150 45 187L76 332H11L43 480H108L138 624H363L333 480H437L405 332H301L277 220Q274 205 274 195Q274 176 284 168T317 159Q354 159 393 180L357 14Q324 -1 288 -8T200 -15Q119
-15 79 23Z" />
<glyph unicode="u" glyph-name="u" horiz-adv-x="638" d="M95 -15T53 26T11 137Q11 165 17 193L78 480H303L247 221Q244 208 244 197Q244 177 254 168T287 159Q335 159 367 204L426 480H651L549 0H332L340 40Q305 14 262 0T174 -15Q95 -15 53 26Z" />
<glyph unicode="v" glyph-name="v" horiz-adv-x="654" d="M63 480H283L322 255L457 480H687L381 0H165L63 480Z" />
<glyph unicode="w" glyph-name="w" horiz-adv-x="883" d="M63 480H288L297 255L402 480H577L586 255L691 480H916L650 0H454L437 215L331 0H125L63 480Z" />
<glyph unicode="x" glyph-name="x" horiz-adv-x="700" d="M221 247L75 480H331L381 400L465 480H721L476 247L631 0H377L316 96L215 0H-39L221 247Z" />
<glyph unicode="y" glyph-name="y" horiz-adv-x="659" d="M126 -230T78 -221T-3 -196L27 -53Q100 -87 204 -87Q261 -87 291 -64T331 3L343 51Q308 25 265 11T177 -4Q98 -4 56 37T14 149Q14 176 20 204L78 480H303L250 232Q247 219 247 207Q247 188 257 179T290
170Q338 170 370 215L426 480H651L557 38Q528 -96 434 -163T174 -230Q126 -230 78 -221Z" />
<glyph unicode="z" glyph-name="z" horiz-adv-x="545" d="M-15 113L232 332H36L68 480H570L546 368L300 148H507L476 0H-39L-15 113Z" />
<glyph unicode="{" glyph-name="braceleft" horiz-adv-x="382" d="M71 -97T46 -75T20 -9Q20 6 25 31L61 198Q63 208 63 211Q63 227 54 236T27 246H-7L35 444H69Q90 444 104 457T123 492L159 659Q172 723 210 755T304 787H490L447 588H412Q395 588 386 581T374
557L352 452Q343 412 319 385T257 346V344Q310 324 310 268Q310 260 306 238L284 133Q282 125 282 122Q282 102 309 102H344L302 -97H116Q71 -97 46 -75Z" />
<glyph unicode="|" glyph-name="bar" horiz-adv-x="267" d="M133 812H370L167 -144H-69L133 812Z" />
<glyph unicode="}" glyph-name="braceright" horiz-adv-x="382" d="M-28 102H7Q24 102 33 109T46 133L68 238Q86 319 163 344V346Q110 366 110 421Q110 430 114 452L136 557Q137 561 137 567Q137 588 110 588H75L118 787H304Q349 787 374 765T399 698Q399 678
395 659L359 492Q357 482 357 479Q357 463 366 454T393 444H427L385 246H351Q330 246 316 233T297 198L261 31Q247 -33 209 -65T116 -97H-69L-28 102Z" />
<glyph unicode="~" glyph-name="asciitilde" horiz-adv-x="494" d="M330 214T303 221T236 242Q198 255 176 261T132 268Q66 268 6 216L47 409Q96 452 172 452Q194 452 218 446T285 425Q322 412 347 405T394 398Q462 398 520 450L479 257Q432 214 355 214Q330 214
303 221Z" />
<glyph unicode="&#xa0;" glyph-name="uni00A0" horiz-adv-x="300" />
<glyph unicode="&#xa1;" glyph-name="exclamdown" horiz-adv-x="262" d="M102 322T76 346T50 410Q50 447 70 479T123 531T193 550Q235 550 261 525T288 460Q288 448 285 436Q275 387 235 355T145 322Q102 322 76 346ZM25 283H250L155 -164H-69L25 283Z" />
<glyph unicode="&#xa2;" glyph-name="cent" horiz-adv-x="539" d="M175 -8Q96 8 51 55T5 180Q5 211 12 240Q33 345 103 408T280 489L300 581H467L447 488Q521 477 560 451L524 279Q498 301 460 313T378 325Q318 325 280 296T242 213Q242 183 265 169T341 155Q383
155 428 167T513 203L476 31Q421 3 342 -8L322 -101H155L175 -8Z" />
<glyph unicode="&#xa3;" glyph-name="sterling" horiz-adv-x="484" d="M-8 148H54L87 302H25L56 450H118L126 487Q149 597 228 655T427 714Q493 714 532 693L494 514Q465 531 429 531Q360 531 347 467L343 450H450L419 302H312L279 148H446L415 0H-39L-8 148Z" />
<glyph unicode="&#xa4;" glyph-name="currency" horiz-adv-x="617" d="M-12 131L86 193Q79 214 79 241Q79 263 83 282Q94 331 124 372L54 434L168 545L244 473Q299 499 361 499Q423 499 466 473L572 544L639 434L544 372Q550 348 550 325Q550 307 545 282Q536
236 506 193L575 130L460 18L384 89Q329 64 268 64Q208 64 163 89L56 18L-12 131ZM329 214T353 234T383 282Q386 294 386 304Q386 326 372 338T329 351Q296 351 270 325T244 264Q244 241 258 228T300 214Q329 214 353 234Z" />
<glyph unicode="&#xa5;" glyph-name="yen" horiz-adv-x="783" d="M225 55H111L139 185H253L263 236H149L178 368H232L109 699H356L430 488L604 699H862L590 368H643L614 236H500L490 185H604L576 55H462L451 0H214L225 55Z" />
<glyph unicode="&#xa6;" glyph-name="brokenbar" horiz-adv-x="267" d="M133 812H370L282 398H45L133 812ZM18 270H255L167 -144H-69L18 270Z" />
<glyph unicode="&#xa7;" glyph-name="section" horiz-adv-x="580" d="M108 -170T41 -156T-64 -118L-21 88Q28 56 87 40T200 24Q234 24 248 31T262 55Q262 70 244 82T171 121Q98 157 64 198T30 294Q30 313 35 340Q44 384 75 417Q65 438 65 464Q65 479 68 495Q89
595 174 654T397 714Q465 714 515 703T610 669L567 470Q489 520 400 520Q330 520 322 489Q319 474 332 465T386 437Q398 433 421 422Q497 387 528 349T560 259Q560 238 553 201Q546 166 517 128Q524 110 524 84Q524 63 520 46Q475 -170 177 -170Q108 -170 41 -156ZM371
229T372 234Q375 250 360 263T309 294Q255 323 248 327Q244 317 243 311Q236 281 299 256Q315 250 336 238T366 219Q371 229 372 234Z" />
<glyph unicode="&#xa8;" glyph-name="dieresis" horiz-adv-x="439" d="M137 562T117 581T96 632Q96 660 112 684T153 722T205 737Q236 737 255 718T275 668Q275 640 260 616T220 577T168 562Q137 562 117 581ZM372 562T352 581T331 631Q331 659 347 683T388 722T440
737Q471 737 490 718T509 668Q509 640 494 616T454 577T403 562Q372 562 352 581Z" />
<glyph unicode="&#xa9;" glyph-name="copyright" horiz-adv-x="782" d="M244 -15T175 20T66 119T26 268Q26 307 35 349Q58 458 122 540T280 668T488 714Q577 714 647 679T756 580T796 431Q796 393 787 349Q764 240 702 158T545 30T333 -15Q244 -15 175 20ZM468
113T546 174T648 349Q657 393 657 428Q657 507 610 546T461 585Q353 585 275 524T174 349Q165 307 165 271Q165 192 213 153T361 113Q468 113 546 174ZM296 151T249 190T201 300Q201 320 206 348Q227 445 292 495T454 546Q552 546 601 512L573 379Q533 414 470
414Q438 414 416 398T387 348Q384 335 384 325Q384 303 398 293T443 283Q502 283 565 320L536 186Q466 151 370 151Q296 151 249 190Z" />
<glyph unicode="&#xaa;" glyph-name="ordfeminine" horiz-adv-x="441" d="M128 349T93 373T57 441Q57 453 60 466Q72 524 117 554T240 584Q263 584 288 579T331 566L332 572Q340 612 255 612Q194 612 135 586L157 688Q183 700 223 707T310 714Q400 714 448 685T496
600Q496 591 492 569L448 360H296L301 385Q282 369 250 359T183 349Q128 349 93 373ZM269 438T284 443T308 458L313 481Q289 494 265 494Q250 494 240 487T227 466Q224 454 231 446T253 438Q269 438 284 443Z" />
<glyph unicode="&#xab;" glyph-name="guillemotleft" horiz-adv-x="751" d="M26 306L34 348L341 588L449 463L269 322L389 181L231 66L26 306ZM358 306L366 348L673 588L781 463L601 322L721 181L563 66L358 306Z" />
<glyph unicode="&#xac;" glyph-name="logicalnot" horiz-adv-x="458" d="M251 241H12L45 396H473L414 122H225L251 241Z" />
<glyph unicode="&#xad;" glyph-name="uni00AD" horiz-adv-x="410" d="M45 396H425L387 217H7L45 396Z" />
<glyph unicode="&#xae;" glyph-name="registered" horiz-adv-x="782" d="M244 -15T175 20T66 119T26 268Q26 307 35 349Q58 458 122 540T280 668T488 714Q577 714 647 679T756 580T796 431Q796 393 787 349Q764 240 702 158T545 30T333 -15Q244 -15 175 20ZM468
113T546 174T648 349Q657 393 657 428Q657 507 610 546T461 585Q353 585 275 524T174 349Q165 307 165 271Q165 192 213 153T361 113Q468 113 546 174ZM297 531H469Q525 531 557 506T589 434Q589 425 585 401Q568 321 500 289L532 173H408L381 271H363L342 173H221L297
531ZM407 363Q429 363 443 371T462 401Q463 405 463 412Q463 439 423 439H399L383 363H407Z" />
<glyph unicode="&#xaf;" glyph-name="overscore" horiz-adv-x="397" d="M109 697H476L445 554H78L109 697Z" />
<glyph unicode="&#xb0;" glyph-name="degree" horiz-adv-x="318" d="M147 439T114 472T81 554Q81 568 84 583Q97 644 145 685T259 727Q310 727 342 695T375 613Q375 598 372 583Q360 522 312 481T198 439Q147 439 114 472ZM236 544T250 555T267 583Q268 587 268
594Q268 607 261 614T237 622Q221 622 207 611T189 583Q188 580 188 574Q188 561 196 553T220 544Q236 544 250 555Z" />
<glyph unicode="&#xb1;" glyph-name="plusminus" horiz-adv-x="410" d="M126 307H26L64 486H164L180 561H359L343 486H444L406 307H305L289 231H110L126 307ZM-1 179H379L341 0H-39L-1 179Z" />
<glyph unicode="&#xb2;" glyph-name="uni00B2" horiz-adv-x="346" d="M56 447Q140 490 178 515T220 559Q223 572 215 577T184 583Q135 583 87 550L114 676Q138 691 182 700T266 709Q330 709 363 684T396 619Q396 604 394 597Q387 560 361 534T278 475H377L355
370H39L56 447Z" />
<glyph unicode="&#xb3;" glyph-name="uni00B3" horiz-adv-x="348" d="M142 360T103 366T42 383L62 478Q104 455 149 455Q201 455 205 479Q208 491 198 495T157 500H116L131 571H170Q194 571 206 576T220 592Q226 614 183 614Q136 614 90 588L111 685Q136 695 179
702T259 709Q325 709 362 687T400 624Q400 601 389 578T354 535Q379 517 379 486Q379 430 327 395T183 360Q142 360 103 366Z" />
<glyph unicode="&#xb4;" glyph-name="acute" horiz-adv-x="315" d="M187 747H404L271 566H81L187 747Z" />
<glyph unicode="&#xb6;" glyph-name="paragraph" horiz-adv-x="815" d="M290 245H271Q173 245 116 294T59 432Q59 461 67 501Q85 583 134 642T254 731T410 762H907L717 -134H490L642 583H588L436 -134H209L290 245Z" />
<glyph unicode="&#xb7;" glyph-name="middot" horiz-adv-x="182" d="M56 223T39 239T22 282Q22 319 50 347T115 375Q143 375 160 358T178 314Q178 278 149 251T83 223Q56 223 39 239Z" />
<glyph unicode="&#xb8;" glyph-name="cedilla" horiz-adv-x="315" d="M-49 -248T-88 -232L-68 -149Q-43 -165 -12 -165Q19 -165 34 -151T50 -115Q50 -76 -27 -76L13 0H172L141 -49Q177 -54 197 -72T218 -118Q218 -130 216 -137Q206 -185 159 -216T26 -248Q-49
-248 -88 -232Z" />
<glyph unicode="&#xb9;" glyph-name="uni00B9" horiz-adv-x="236" d="M141 543L66 497L96 638L192 699H335L265 370H104L141 543Z" />
<glyph unicode="&#xba;" glyph-name="ordmasculine" horiz-adv-x="476" d="M167 349T118 388T69 492Q69 512 73 531Q90 612 159 663T335 714Q427 714 475 676T523 572Q523 550 519 531Q502 450 433 400T258 349Q167 349 118 388ZM315 473T335 495T356 551Q356
590 309 590Q278 590 257 569T236 513Q236 473 284 473Q315 473 335 495Z" />
<glyph unicode="&#xbb;" glyph-name="guillemotright" horiz-adv-x="751" d="M0 191L180 332L60 473L218 588L423 348L415 306L108 66L0 191ZM332 191L512 332L392 473L550 588L755 348L747 306L440 66L332 191Z" />
<glyph unicode="&#xbc;" glyph-name="onequarter" horiz-adv-x="812" d="M574 699H804L269 0H39L574 699ZM141 543L66 497L96 638L192 699H335L265 370H104L141 543ZM549 49H412L432 144L601 329H769L732 152H775L753 49H710L700 0H539L549 49ZM626 152L640 221L571
152H626Z" />
<glyph unicode="&#xbd;" glyph-name="onehalf" horiz-adv-x="838" d="M574 699H804L269 0H39L574 699ZM141 543L66 497L96 638L192 699H335L265 370H104L141 543ZM469 77Q553 119 591 144T634 189Q636 202 628 207T598 213Q547 213 501 180L528 306Q552 321 596
330T680 339Q745 339 777 314T810 248Q810 241 808 227Q800 190 775 164T692 105H791L769 0H453L469 77Z" />
<glyph unicode="&#xbe;" glyph-name="threequarters" horiz-adv-x="828" d="M142 360T103 366T42 383L62 478Q104 455 149 455Q201 455 205 479Q208 491 198 495T157 500H116L131 571H170Q194 571 206 576T220 592Q226 614 183 614Q136 614 90 588L111 685Q136
695 179 702T259 709Q325 709 362 687T400 624Q400 601 389 578T354 535Q379 517 379 486Q379 430 327 395T183 360Q142 360 103 366ZM596 699H826L291 0H61L596 699ZM565 49H428L448 144L617 329H785L748 152H791L769 49H726L716 0H555L565 49ZM642 152L656 221L587
152H642Z" />
<glyph unicode="&#xbf;" glyph-name="questiondown" horiz-adv-x="535" d="M280 322T254 346T227 411Q227 447 247 479T301 531T370 550Q412 550 438 525T465 461Q465 450 462 436Q452 387 412 355T322 322Q280 322 254 346ZM94 -179T27 -136T-40 -18Q-40 -6 -36
18Q-25 68 2 99T87 165Q143 199 167 219T197 267L201 283H426L422 265Q412 219 388 181T326 121L286 98Q255 81 242 71T226 46Q219 15 291 15Q379 15 479 65L437 -134Q383 -157 328 -168T205 -179Q94 -179 27 -136Z" />
<glyph unicode="&#xc0;" glyph-name="Agrave" horiz-adv-x="814" d="M337 923H554L584 742H394L337 923ZM389 699H613L745 0H507L487 122H279L209 0H-39L389 699ZM472 296L455 457L368 296H472Z" />
<glyph unicode="&#xc1;" glyph-name="Aacute" horiz-adv-x="814" d="M507 923H724L591 742H401L507 923ZM389 699H613L745 0H507L487 122H279L209 0H-39L389 699ZM472 296L455 457L368 296H472Z" />
<glyph unicode="&#xc2;" glyph-name="Acircumflex" horiz-adv-x="814" d="M429 933H631L756 742H553L511 822L435 742H225L429 933ZM389 699H613L745 0H507L487 122H279L209 0H-39L389 699ZM472 296L455 457L368 296H472Z" />
<glyph unicode="&#xc3;" glyph-name="Atilde" horiz-adv-x="814" d="M567 742T544 748T489 768Q458 780 439 786T399 792Q334 792 279 743L311 896Q355 936 430 936Q452 936 473 930T529 911Q558 899 579 893T623 886Q687 886 742 935L710 782Q666 742 592 742Q567
742 544 748ZM389 699H613L745 0H507L487 122H279L209 0H-39L389 699ZM472 296L455 457L368 296H472Z" />
<glyph unicode="&#xc4;" glyph-name="Adieresis" horiz-adv-x="814" d="M344 742T324 762T303 812Q303 839 319 863T360 902T411 917Q442 917 461 898T481 848Q481 820 466 796T426 757T374 742Q344 742 324 762ZM578 742T558 761T537 811Q537 839 553 863T594
902T646 917Q677 917 696 898T715 848Q715 820 700 796T660 757T609 742Q578 742 558 761ZM389 699H613L745 0H507L487 122H279L209 0H-39L389 699ZM472 296L455 457L368 296H472Z" />
<glyph unicode="&#xc5;" glyph-name="Aring" horiz-adv-x="814" d="M373 673Q355 704 355 739Q355 750 359 772Q373 838 427 882T549 926Q606 926 642 892T678 805Q678 794 674 772Q661 715 618 672L745 0H507L487 122H279L209 0H-39L373 673ZM527 731T542 746T558
783Q558 813 525 813Q505 813 490 798T474 761Q474 748 482 740T507 731Q527 731 542 746ZM472 296L455 457L368 296H472Z" />
<glyph unicode="&#xc6;" glyph-name="AE" horiz-adv-x="920" d="M389 699H999L957 500H686L673 439H862L824 260H635L622 199H893L851 0H358L383 122H271L204 0H-39L389 699ZM421 300L464 500L365 300H421Z" />
<glyph unicode="&#xc7;" glyph-name="Ccedilla" horiz-adv-x="670" d="M205 -248T166 -232L186 -149Q211 -165 243 -165Q274 -165 289 -151T305 -115Q305 -76 228 -76L263 -8Q153 11 89 81T25 262Q25 305 35 349Q71 522 191 618T499 714Q576 714 632 701T733 659L685
435Q648 467 597 481T474 495Q396 495 344 458T276 349Q270 324 270 302Q270 252 304 228T412 203Q482 203 541 218T657 266L610 43Q523 -1 419 -11L395 -49Q431 -54 451 -72T472 -118Q472 -130 470 -137Q460 -185 414 -216T281 -248Q205 -248 166 -232Z" />
<glyph unicode="&#xc8;" glyph-name="Egrave" horiz-adv-x="568" d="M237 923H454L484 742H294L237 923ZM129 699H647L605 500H324L311 439H510L472 260H273L260 199H541L499 0H-19L129 699Z" />
<glyph unicode="&#xc9;" glyph-name="Eacute" horiz-adv-x="568" d="M379 923H596L463 742H273L379 923ZM129 699H647L605 500H324L311 439H510L472 260H273L260 199H541L499 0H-19L129 699Z" />
<glyph unicode="&#xca;" glyph-name="Ecircumflex" horiz-adv-x="568" d="M321 923H523L648 732H445L403 812L327 732H117L321 923ZM129 699H647L605 500H324L311 439H510L472 260H273L260 199H541L499 0H-19L129 699Z" />
<glyph unicode="&#xcb;" glyph-name="Edieresis" horiz-adv-x="568" d="M242 742T222 762T201 812Q201 839 217 863T258 902T309 917Q340 917 359 898T379 848Q379 820 364 796T324 757T272 742Q242 742 222 762ZM476 742T456 761T435 811Q435 839 451 863T492
902T544 917Q575 917 594 898T613 848Q613 820 598 796T558 757T507 742Q476 742 456 761ZM129 699H647L605 500H324L311 439H510L472 260H273L260 199H541L499 0H-19L129 699Z" />
<glyph unicode="&#xcc;" glyph-name="Igrave" horiz-adv-x="307" d="M106 923H323L353 742H163L106 923ZM129 699H366L218 0H-19L129 699Z" />
<glyph unicode="&#xcd;" glyph-name="Iacute" horiz-adv-x="307" d="M270 923H487L354 742H164L270 923ZM129 699H366L218 0H-19L129 699Z" />
<glyph unicode="&#xce;" glyph-name="Icircumflex" horiz-adv-x="307" d="M193 923H395L520 732H317L275 812L199 732H-11L193 923ZM129 699H366L218 0H-19L129 699Z" />
<glyph unicode="&#xcf;" glyph-name="Idieresis" horiz-adv-x="307" d="M110 742T90 762T69 812Q69 839 85 863T126 902T177 917Q208 917 227 898T247 848Q247 820 232 796T192 757T140 742Q110 742 90 762ZM344 742T324 761T303 811Q303 839 319 863T360 902T412
917Q443 917 462 898T481 848Q481 820 466 796T426 757T375 742Q344 742 324 761ZM129 699H366L218 0H-19L129 699Z" />
<glyph unicode="&#xd0;" glyph-name="Eth" horiz-adv-x="736" d="M68 266H27L63 433H104L160 699H420Q519 699 593 665T708 568T749 423Q749 387 742 353Q706 176 589 88T280 0H12L68 266ZM342 220Q410 220 448 252T501 353Q506 380 506 398Q506 438 481 458T397
479H350L340 433H446L410 266H305L295 220H342Z" />
<glyph unicode="&#xd1;" glyph-name="Ntilde" horiz-adv-x="714" d="M523 742T500 748T445 768Q414 780 395 786T355 792Q290 792 235 743L267 896Q311 936 386 936Q408 936 429 930T485 911Q514 899 535 893T579 886Q643 886 698 935L666 782Q622 742 548 742Q523
742 500 748ZM129 699H338L477 374L546 699H773L625 0H416L277 326L208 0H-19L129 699Z" />
<glyph unicode="&#xd2;" glyph-name="Ograve" horiz-adv-x="789" d="M330 923H547L577 742H387L330 923ZM251 -15T180 20T68 121T26 272Q26 309 35 349Q58 458 122 540T282 668T492 714Q582 714 652 679T763 579T803 429Q803 391 794 349Q771 241 707 159T547
31T337 -15Q251 -15 180 20ZM445 208T492 246T553 349Q558 376 558 394Q558 490 445 490Q384 490 337 452T276 349Q270 322 270 299Q270 254 297 231T385 208Q445 208 492 246Z" />
<glyph unicode="&#xd3;" glyph-name="Oacute" horiz-adv-x="789" d="M471 923H688L555 742H365L471 923ZM251 -15T180 20T68 121T26 272Q26 309 35 349Q58 458 122 540T282 668T492 714Q582 714 652 679T763 579T803 429Q803 391 794 349Q771 241 707 159T547
31T337 -15Q251 -15 180 20ZM445 208T492 246T553 349Q558 376 558 394Q558 490 445 490Q384 490 337 452T276 349Q270 322 270 299Q270 254 297 231T385 208Q445 208 492 246Z" />
<glyph unicode="&#xd4;" glyph-name="Ocircumflex" horiz-adv-x="789" d="M419 947H621L746 756H543L501 836L425 756H215L419 947ZM251 -15T180 20T68 121T26 272Q26 309 35 349Q58 458 122 540T282 668T492 714Q582 714 652 679T763 579T803 429Q803 391 794
349Q771 241 707 159T547 31T337 -15Q251 -15 180 20ZM445 208T492 246T553 349Q558 376 558 394Q558 490 445 490Q384 490 337 452T276 349Q270 322 270 299Q270 254 297 231T385 208Q445 208 492 246Z" />
<glyph unicode="&#xd5;" glyph-name="Otilde" horiz-adv-x="789" d="M557 754T534 760T479 780Q448 792 429 798T389 804Q324 804 269 755L301 908Q345 948 420 948Q442 948 463 942T519 923Q548 911 569 905T613 898Q677 898 732 947L700 794Q656 754 582 754Q557
754 534 760ZM251 -15T180 20T68 121T26 272Q26 309 35 349Q58 458 122 540T282 668T492 714Q582 714 652 679T763 579T803 429Q803 391 794 349Q771 241 707 159T547 31T337 -15Q251 -15 180 20ZM445 208T492 246T553 349Q558 376 558 394Q558 490 445 490Q384
490 337 452T276 349Q270 322 270 299Q270 254 297 231T385 208Q445 208 492 246Z" />
<glyph unicode="&#xd6;" glyph-name="Odieresis" horiz-adv-x="789" d="M333 752T313 772T292 822Q292 849 308 873T349 912T400 927Q431 927 450 908T470 858Q470 830 455 806T415 767T363 752Q333 752 313 772ZM567 752T547 771T526 821Q526 849 542 873T583
912T635 927Q666 927 685 908T704 858Q704 830 689 806T649 767T598 752Q567 752 547 771ZM251 -15T180 20T68 121T26 272Q26 309 35 349Q58 458 122 540T282 668T492 714Q582 714 652 679T763 579T803 429Q803 391 794 349Q771 241 707 159T547 31T337 -15Q251
-15 180 20ZM445 208T492 246T553 349Q558 376 558 394Q558 490 445 490Q384 490 337 452T276 349Q270 322 270 299Q270 254 297 231T385 208Q445 208 492 246Z" />
<glyph unicode="&#xd7;" glyph-name="multiply" horiz-adv-x="425" d="M198 189L113 119L13 245L99 316L43 387L197 513L252 442L339 514L438 387L352 316L408 245L255 118L198 189Z" />
<glyph unicode="&#xd8;" glyph-name="Oslash" horiz-adv-x="789" d="M160 31Q98 69 63 131T27 272Q27 313 35 349Q58 458 122 540T282 668T492 714Q532 714 574 706L622 784H733L664 672Q730 636 766 574T803 429Q803 391 794 349Q771 241 707 159T547 31T337
-15Q292 -15 248 -4L198 -86H88L160 31ZM441 490Q382 488 335 450T276 349Q270 322 270 299Q270 263 288 240L441 490ZM385 208Q445 208 492 246T553 349Q558 376 558 393Q558 438 534 462L378 208H385Z" />
<glyph unicode="&#xd9;" glyph-name="Ugrave" horiz-adv-x="734" d="M303 923H520L550 742H360L303 923ZM220 -15T158 17T65 105T33 235Q33 273 42 315L124 699H361L281 322Q275 294 275 272Q275 237 293 220T356 203Q408 203 438 233T480 322L560 699H798L716
315Q646 -15 309 -15Q220 -15 158 17Z" />
<glyph unicode="&#xda;" glyph-name="Uacute" horiz-adv-x="734" d="M462 923H679L546 742H356L462 923ZM220 -15T158 17T65 105T33 235Q33 273 42 315L124 699H361L281 322Q275 294 275 272Q275 237 293 220T356 203Q408 203 438 233T480 322L560 699H798L716
315Q646 -15 309 -15Q220 -15 158 17Z" />
<glyph unicode="&#xdb;" glyph-name="Ucircumflex" horiz-adv-x="734" d="M389 933H591L716 742H513L471 822L395 742H185L389 933ZM220 -15T158 17T65 105T33 235Q33 273 42 315L124 699H361L281 322Q275 294 275 272Q275 237 293 220T356 203Q408 203 438 233T480
322L560 699H798L716 315Q646 -15 309 -15Q220 -15 158 17Z" />
<glyph unicode="&#xdc;" glyph-name="Udieresis" horiz-adv-x="734" d="M306 752T286 772T265 822Q265 849 281 873T322 912T373 927Q404 927 423 908T443 858Q443 830 428 806T388 767T336 752Q306 752 286 772ZM540 752T520 771T499 821Q499 849 515 873T556
912T608 927Q639 927 658 908T677 858Q677 830 662 806T622 767T571 752Q540 752 520 771ZM220 -15T158 17T65 105T33 235Q33 273 42 315L124 699H361L281 322Q275 294 275 272Q275 237 293 220T356 203Q408 203 438 233T480 322L560 699H798L716 315Q646 -15 309
-15Q220 -15 158 17Z" />
<glyph unicode="&#xdd;" glyph-name="Yacute" horiz-adv-x="783" d="M487 923H704L571 742H381L487 923ZM270 267L109 699H353L425 478L601 699H862L507 267L451 0H214L270 267Z" />
<glyph unicode="&#xde;" glyph-name="Thorn" horiz-adv-x="658" d="M129 699H366L347 607H446Q557 607 619 559T681 419Q681 385 674 353Q648 229 558 164T338 99H239L218 0H-19L129 699ZM326 278Q368 278 396 295T433 353Q435 361 435 374Q435 428 357 428H308L277
278H326Z" />
<glyph unicode="&#xdf;" glyph-name="germandbls" horiz-adv-x="675" d="M322 -15T290 -11T238 3L276 182Q285 173 301 168T335 163Q366 163 386 180T413 229Q416 241 416 251Q416 297 354 297H301L334 454H380Q415 454 436 479T457 542Q457 562 445 572T402 582Q367
582 347 563T320 512L212 0H-24L78 480Q134 744 434 744Q521 744 580 718T669 647T698 552Q698 531 694 515Q673 420 596 373Q627 351 642 325T657 264Q657 242 651 215Q628 106 551 46T356 -15Q322 -15 290 -11Z" />
<glyph unicode="&#xe0;" glyph-name="agrave" horiz-adv-x="669" d="M294 698H511L541 517H351L294 698ZM118 -15T62 37T5 177Q5 209 12 240Q37 356 118 425T322 495Q364 495 399 483T455 450L462 480H687L585 0H368L376 40Q344 15 300 0T213 -15Q118 -15 62 37ZM338
159T362 171T403 204L418 276Q411 297 392 309T347 321Q307 321 280 300T244 239Q241 224 241 212Q241 185 258 172T312 159Q338 159 362 171Z" />
<glyph unicode="&#xe1;" glyph-name="aacute" horiz-adv-x="669" d="M408 698H625L492 517H302L408 698ZM118 -15T62 37T5 177Q5 209 12 240Q37 356 118 425T322 495Q364 495 399 483T455 450L462 480H687L585 0H368L376 40Q344 15 300 0T213 -15Q118 -15 62 37ZM338
159T362 171T403 204L418 276Q411 297 392 309T347 321Q307 321 280 300T244 239Q241 224 241 212Q241 185 258 172T312 159Q338 159 362 171Z" />
<glyph unicode="&#xe2;" glyph-name="acircumflex" horiz-adv-x="669" d="M347 708H549L674 517H471L429 597L353 517H143L347 708ZM118 -15T62 37T5 177Q5 209 12 240Q37 356 118 425T322 495Q364 495 399 483T455 450L462 480H687L585 0H368L376 40Q344 15 300
0T213 -15Q118 -15 62 37ZM338 159T362 171T403 204L418 276Q411 297 392 309T347 321Q307 321 280 300T244 239Q241 224 241 212Q241 185 258 172T312 159Q338 159 362 171Z" />
<glyph unicode="&#xe3;" glyph-name="atilde" horiz-adv-x="669" d="M502 517T479 523T424 543Q393 555 374 561T334 567Q269 567 214 518L246 671Q290 711 365 711Q387 711 408 705T464 686Q493 674 514 668T558 661Q622 661 677 710L645 557Q601 517 527 517Q502
517 479 523ZM118 -15T62 37T5 177Q5 209 12 240Q37 356 118 425T322 495Q364 495 399 483T455 450L462 480H687L585 0H368L376 40Q344 15 300 0T213 -15Q118 -15 62 37ZM338 159T362 171T403 204L418 276Q411 297 392 309T347 321Q307 321 280 300T244 239Q241
224 241 212Q241 185 258 172T312 159Q338 159 362 171Z" />
<glyph unicode="&#xe4;" glyph-name="adieresis" horiz-adv-x="669" d="M261 517T241 537T220 587Q220 614 236 638T277 677T328 692Q359 692 378 673T398 623Q398 595 383 571T343 532T291 517Q261 517 241 537ZM495 517T475 536T454 586Q454 614 470 638T511
677T563 692Q594 692 613 673T632 623Q632 595 617 571T577 532T526 517Q495 517 475 536ZM118 -15T62 37T5 177Q5 209 12 240Q37 356 118 425T322 495Q364 495 399 483T455 450L462 480H687L585 0H368L376 40Q344 15 300 0T213 -15Q118 -15 62 37ZM338 159T362
171T403 204L418 276Q411 297 392 309T347 321Q307 321 280 300T244 239Q241 224 241 212Q241 185 258 172T312 159Q338 159 362 171Z" />
<glyph unicode="&#xe5;" glyph-name="aring" horiz-adv-x="669" d="M349 517T314 551T278 638Q278 656 282 671Q290 714 318 749T386 804T472 825Q529 825 564 791T600 703Q600 688 597 671Q583 605 530 561T406 517Q349 517 314 551ZM450 630T465 645T481 682Q481
712 448 712Q428 712 413 697T397 660Q397 647 405 639T430 630Q450 630 465 645ZM118 -15T62 37T5 177Q5 209 12 240Q37 356 118 425T322 495Q364 495 399 483T455 450L462 480H687L585 0H368L376 40Q344 15 300 0T213 -15Q118 -15 62 37ZM338 159T362 171T403
204L418 276Q411 297 392 309T347 321Q307 321 280 300T244 239Q241 224 241 212Q241 185 258 172T312 159Q338 159 362 171Z" />
<glyph unicode="&#xe6;" glyph-name="ae" horiz-adv-x="950" d="M85 -15T37 17T-12 111Q-12 131 -8 148Q9 229 71 271T233 313Q265 313 301 306T361 288L362 296Q368 322 338 337T254 352Q168 352 88 316L118 459Q155 475 211 485T332 495Q392 495 435 482T513
444Q553 467 603 481T705 495Q819 495 879 443T939 303Q939 279 932 244L919 179H563Q581 127 682 127Q729 127 782 134T875 156L846 21Q802 5 746 -5T628 -15Q562 -15 511 2T430 52Q375 20 314 3T172 -15Q85 -15 37 17ZM733 302Q732 325 717 338T670 352Q611 352
589 302H733ZM273 109T294 117T329 137L335 169Q307 188 268 188Q245 188 230 175T214 139Q214 125 223 117T252 109Q273 109 294 117Z" />
<glyph unicode="&#xe7;" glyph-name="ccedilla" horiz-adv-x="539" d="M114 -248T75 -232L95 -149Q120 -165 152 -165Q183 -165 198 -151T214 -115Q214 -76 137 -76L172 -7Q95 8 50 56T5 180Q5 211 12 240Q38 364 129 429T357 495Q419 495 474 484T560 451L524
279Q498 301 460 313T378 325Q318 325 280 296T242 213Q242 183 265 169T341 155Q383 155 428 167T513 203L476 31Q419 1 328 -10L304 -49Q340 -54 360 -72T381 -118Q381 -130 379 -137Q369 -185 323 -216T190 -248Q114 -248 75 -232Z" />
<glyph unicode="&#xe8;" glyph-name="egrave" horiz-adv-x="600" d="M197 698H414L444 517H254L197 698ZM149 -15T77 37T5 183Q5 210 11 238Q37 358 123 426T355 495Q469 495 529 443T589 303Q589 279 582 244L569 179H213Q222 153 248 140T332 127Q379 127 432
134T525 156L496 21Q453 5 393 -5T270 -15Q149 -15 77 37ZM383 302Q382 325 367 338T320 352Q261 352 239 302H383Z" />
<glyph unicode="&#xe9;" glyph-name="eacute" horiz-adv-x="600" d="M344 698H561L428 517H238L344 698ZM149 -15T77 37T5 183Q5 210 11 238Q37 358 123 426T355 495Q469 495 529 443T589 303Q589 279 582 244L569 179H213Q222 153 248 140T332 127Q379 127 432
134T525 156L496 21Q453 5 393 -5T270 -15Q149 -15 77 37ZM383 302Q382 325 367 338T320 352Q261 352 239 302H383Z" />
<glyph unicode="&#xea;" glyph-name="ecircumflex" horiz-adv-x="600" d="M295 708H497L622 517H419L377 597L301 517H91L295 708ZM149 -15T77 37T5 183Q5 210 11 238Q37 358 123 426T355 495Q469 495 529 443T589 303Q589 279 582 244L569 179H213Q222 153 248
140T332 127Q379 127 432 134T525 156L496 21Q453 5 393 -5T270 -15Q149 -15 77 37ZM383 302Q382 325 367 338T320 352Q261 352 239 302H383Z" />
<glyph unicode="&#xeb;" glyph-name="edieresis" horiz-adv-x="600" d="M212 517T192 537T171 587Q171 614 187 638T228 677T279 692Q310 692 329 673T349 623Q349 595 334 571T294 532T242 517Q212 517 192 537ZM446 517T426 536T405 586Q405 614 421 638T462
677T514 692Q545 692 564 673T583 623Q583 595 568 571T528 532T477 517Q446 517 426 536ZM149 -15T77 37T5 183Q5 210 11 238Q37 358 123 426T355 495Q469 495 529 443T589 303Q589 279 582 244L569 179H213Q222 153 248 140T332 127Q379 127 432 134T525 156L496
21Q453 5 393 -5T270 -15Q149 -15 77 37ZM383 302Q382 325 367 338T320 352Q261 352 239 302H383Z" />
<glyph unicode="&#xec;" glyph-name="igrave" horiz-adv-x="295" d="M59 698H276L306 517H116L59 698ZM83 480H308L206 0H-19L83 480Z" />
<glyph unicode="&#xed;" glyph-name="iacute" horiz-adv-x="295" d="M213 698H430L297 517H107L213 698ZM83 480H308L206 0H-19L83 480Z" />
<glyph unicode="&#xee;" glyph-name="icircumflex" horiz-adv-x="295" d="M141 708H343L468 517H265L223 597L147 517H-63L141 708ZM83 480H308L206 0H-19L83 480Z" />
<glyph unicode="&#xef;" glyph-name="idieresis" horiz-adv-x="295" d="M56 517T36 537T15 587Q15 614 31 638T72 677T123 692Q154 692 173 673T193 623Q193 595 178 571T138 532T86 517Q56 517 36 537ZM290 517T270 536T249 586Q249 614 265 638T306 677T358
692Q389 692 408 673T427 623Q427 595 412 571T372 532T321 517Q290 517 270 536ZM83 480H308L206 0H-19L83 480Z" />
<glyph unicode="&#xf0;" glyph-name="eth" horiz-adv-x="646" d="M128 -15T66 35T3 172Q3 195 10 232Q34 344 117 402T314 461Q352 461 387 452T441 426Q444 505 395 534L273 472L285 530L327 552H317Q230 552 170 522L207 692Q271 714 358 714Q471 714 548 665L683
734L670 676L587 633Q659 559 659 435Q659 387 647 330Q626 229 571 151T433 29T254 -15Q128 -15 66 35ZM330 155T352 174T381 226Q383 240 383 246Q383 271 370 284T330 297Q297 297 276 279T247 226Q244 214 244 204Q244 155 299 155Q330 155 352 174Z" />
<glyph unicode="&#xf1;" glyph-name="ntilde" horiz-adv-x="638" d="M432 517T409 523T354 543Q323 555 304 561T264 567Q199 567 144 518L176 671Q220 711 295 711Q317 711 338 705T394 686Q423 674 444 668T488 661Q552 661 607 710L575 557Q531 517 457 517Q432
517 409 523ZM83 480H300L291 440Q326 466 369 480T457 495Q539 495 580 452T622 343Q622 322 617 297L554 0H329L385 264Q387 280 387 285Q387 321 348 321Q298 321 264 276L206 0H-19L83 480Z" />
<glyph unicode="&#xf2;" glyph-name="ograve" horiz-adv-x="652" d="M215 698H432L462 517H272L215 698ZM185 -15T126 10T37 82T6 187Q6 213 12 240Q27 314 75 371T200 462T377 495Q460 495 519 469T608 397T639 292Q639 263 634 240Q618 166 570 109T445 18T268
-15Q185 -15 126 10ZM348 159T377 189T407 266Q407 321 340 321Q297 321 268 291T239 214Q239 159 305 159Q348 159 377 189Z" />
<glyph unicode="&#xf3;" glyph-name="oacute" horiz-adv-x="652" d="M365 698H582L449 517H259L365 698ZM185 -15T126 10T37 82T6 187Q6 213 12 240Q27 314 75 371T200 462T377 495Q460 495 519 469T608 397T639 292Q639 263 634 240Q618 166 570 109T445 18T268
-15Q185 -15 126 10ZM348 159T377 189T407 266Q407 321 340 321Q297 321 268 291T239 214Q239 159 305 159Q348 159 377 189Z" />
<glyph unicode="&#xf4;" glyph-name="ocircumflex" horiz-adv-x="652" d="M300 708H502L627 517H424L382 597L306 517H96L300 708ZM185 -15T126 10T37 82T6 187Q6 213 12 240Q27 314 75 371T200 462T377 495Q460 495 519 469T608 397T639 292Q639 263 634 240Q618
166 570 109T445 18T268 -15Q185 -15 126 10ZM348 159T377 189T407 266Q407 321 340 321Q297 321 268 291T239 214Q239 159 305 159Q348 159 377 189Z" />
<glyph unicode="&#xf5;" glyph-name="otilde" horiz-adv-x="652" d="M439 517T416 523T361 543Q330 555 311 561T271 567Q206 567 151 518L183 671Q227 711 302 711Q324 711 345 705T401 686Q430 674 451 668T495 661Q559 661 614 710L582 557Q538 517 464 517Q439
517 416 523ZM185 -15T126 10T37 82T6 187Q6 213 12 240Q27 314 75 371T200 462T377 495Q460 495 519 469T608 397T639 292Q639 263 634 240Q618 166 570 109T445 18T268 -15Q185 -15 126 10ZM348 159T377 189T407 266Q407 321 340 321Q297 321 268 291T239 214Q239
159 305 159Q348 159 377 189Z" />
<glyph unicode="&#xf6;" glyph-name="odieresis" horiz-adv-x="652" d="M215 517T195 537T174 587Q174 614 190 638T231 677T282 692Q313 692 332 673T352 623Q352 595 337 571T297 532T245 517Q215 517 195 537ZM449 517T429 536T408 586Q408 614 424 638T465
677T517 692Q548 692 567 673T586 623Q586 595 571 571T531 532T480 517Q449 517 429 536ZM185 -15T126 10T37 82T6 187Q6 213 12 240Q27 314 75 371T200 462T377 495Q460 495 519 469T608 397T639 292Q639 263 634 240Q618 166 570 109T445 18T268 -15Q185 -15
126 10ZM348 159T377 189T407 266Q407 321 340 321Q297 321 268 291T239 214Q239 159 305 159Q348 159 377 189Z" />
<glyph unicode="&#xf7;" glyph-name="divide" horiz-adv-x="410" d="M208 422T191 438T174 481Q174 518 203 546T268 574Q295 574 312 557T330 514Q330 477 301 450T235 422Q208 422 191 438ZM45 396H425L387 217H7L45 396ZM127 39T110 55T93 98Q93 135 121 163T186
191Q214 191 231 174T249 130Q249 94 220 67T154 39Q127 39 110 55Z" />
<glyph unicode="&#xf8;" glyph-name="oslash" horiz-adv-x="652" d="M132 10Q72 35 40 82T7 190Q7 219 12 240Q27 313 77 371T205 462T377 495Q404 495 428 492L474 566H571L511 469Q571 443 605 395T639 286Q639 267 634 240Q618 167 568 109T440 18T268 -15Q240
-15 214 -12L169 -86H73L132 10ZM327 327Q292 322 267 299T235 240Q231 225 231 211Q231 193 237 181L327 327ZM358 157T386 188T414 266Q414 285 406 299L316 152Q358 157 386 188Z" />
<glyph unicode="&#xf9;" glyph-name="ugrave" horiz-adv-x="638" d="M209 698H426L456 517H266L209 698ZM95 -15T53 26T11 137Q11 165 17 193L78 480H303L247 221Q244 208 244 197Q244 177 254 168T287 159Q335 159 367 204L426 480H651L549 0H332L340 40Q305
14 262 0T174 -15Q95 -15 53 26Z" />
<glyph unicode="&#xfa;" glyph-name="uacute" horiz-adv-x="638" d="M353 698H570L437 517H247L353 698ZM95 -15T53 26T11 137Q11 165 17 193L78 480H303L247 221Q244 208 244 197Q244 177 254 168T287 159Q335 159 367 204L426 480H651L549 0H332L340 40Q305
14 262 0T174 -15Q95 -15 53 26Z" />
<glyph unicode="&#xfb;" glyph-name="ucircumflex" horiz-adv-x="638" d="M290 708H492L617 517H414L372 597L296 517H86L290 708ZM95 -15T53 26T11 137Q11 165 17 193L78 480H303L247 221Q244 208 244 197Q244 177 254 168T287 159Q335 159 367 204L426 480H651L549
0H332L340 40Q305 14 262 0T174 -15Q95 -15 53 26Z" />
<glyph unicode="&#xfc;" glyph-name="udieresis" horiz-adv-x="638" d="M204 517T184 537T163 587Q163 614 179 638T220 677T271 692Q302 692 321 673T341 623Q341 595 326 571T286 532T234 517Q204 517 184 537ZM438 517T418 536T397 586Q397 614 413 638T454
677T506 692Q537 692 556 673T575 623Q575 595 560 571T520 532T469 517Q438 517 418 536ZM95 -15T53 26T11 137Q11 165 17 193L78 480H303L247 221Q244 208 244 197Q244 177 254 168T287 159Q335 159 367 204L426 480H651L549 0H332L340 40Q305 14 262 0T174 -15Q95
-15 53 26Z" />
<glyph unicode="&#xfd;" glyph-name="yacute" horiz-adv-x="659" d="M386 698H603L470 517H280L386 698ZM126 -230T78 -221T-3 -196L27 -53Q100 -87 204 -87Q261 -87 291 -64T331 3L343 51Q308 25 265 11T177 -4Q98 -4 56 37T14 149Q14 176 20 204L78 480H303L250
232Q247 219 247 207Q247 188 257 179T290 170Q338 170 370 215L426 480H651L557 38Q528 -96 434 -163T174 -230Q126 -230 78 -221Z" />
<glyph unicode="&#xfe;" glyph-name="thorn" horiz-adv-x="674" d="M129 699H354L301 450Q329 470 370 482T454 495Q551 495 607 443T663 302Q663 271 656 240Q630 122 552 54T345 -15Q303 -15 268 -3T212 30L159 -219H-65L129 699ZM360 159T387 180T423 241Q426
255 426 266Q426 321 355 321Q329 321 305 309T264 276L249 204Q256 183 275 171T320 159Q360 159 387 180Z" />
<glyph unicode="&#xff;" glyph-name="ydieresis" horiz-adv-x="659" d="M233 517T213 537T192 587Q192 614 208 638T249 677T300 692Q331 692 350 673T370 623Q370 595 355 571T315 532T263 517Q233 517 213 537ZM467 517T447 536T426 586Q426 614 442 638T483
677T535 692Q566 692 585 673T604 623Q604 595 589 571T549 532T498 517Q467 517 447 536ZM126 -230T78 -221T-3 -196L27 -53Q100 -87 204 -87Q261 -87 291 -64T331 3L343 51Q308 25 265 11T177 -4Q98 -4 56 37T14 149Q14 176 20 204L78 480H303L250 232Q247 219
247 207Q247 188 257 179T290 170Q338 170 370 215L426 480H651L557 38Q528 -96 434 -163T174 -230Q126 -230 78 -221Z" />
<glyph unicode="&#x2013;" glyph-name="endash" horiz-adv-x="674" d="M45 396H689L651 217H7L45 396Z" />
<glyph unicode="&#x2014;" glyph-name="emdash" horiz-adv-x="802" d="M45 396H817L779 217H7L45 396Z" />
<glyph unicode="&#x2018;" glyph-name="quoteleft" horiz-adv-x="300" d="M197 714H382L277 511H69L197 714Z" />
<glyph unicode="&#x2019;" glyph-name="quoteright" horiz-adv-x="305" d="M174 714H387L259 511H69L174 714Z" />
<glyph unicode="&#x201a;" glyph-name="quotesinglbase" horiz-adv-x="305" d="M38 71H251L122 -132H-67L38 71Z" />
<glyph unicode="&#x201c;" glyph-name="quotedblleft" horiz-adv-x="500" d="M197 714H367L262 511H69L197 714ZM412 714H582L477 511H284L412 714Z" />
<glyph unicode="&#x201d;" glyph-name="quotedblright" horiz-adv-x="500" d="M174 714H367L239 511H69L174 714ZM389 714H582L454 511H284L389 714Z" />
<glyph unicode="&#x201e;" glyph-name="quotedblbase" horiz-adv-x="500" d="M38 71H231L102 -132H-67L38 71ZM253 71H446L317 -132H147L253 71Z" />
<glyph unicode="&#x2022;" glyph-name="bullet" horiz-adv-x="258" d="M73 184T47 209T21 273Q21 310 41 342T93 393T162 412Q204 412 229 387T254 322Q254 285 234 254T182 203T114 184Q73 184 47 209Z" />
<glyph unicode="&#x2039;" glyph-name="guilsinglleft" horiz-adv-x="419" d="M26 306L34 348L341 588L449 463L269 322L389 181L231 66L26 306Z" />
<glyph unicode="&#x203a;" glyph-name="guilsinglright" horiz-adv-x="419" d="M0 191L180 332L60 473L218 588L423 348L415 306L108 66L0 191Z" />
</font>
</defs>
</svg>
