<?xml version="1.0" standalone="no"?>
<!DOCTYPE svg PUBLIC "-//W3C//DTD SVG 1.1//EN" "http://www.w3.org/Graphics/SVG/1.1/DTD/svg11.dtd">
<svg xmlns="http://www.w3.org/2000/svg">
<defs >
<font id="AlmendraSC" horiz-adv-x="442" ><font-face
    font-family="Almendra SC"
    units-per-em="1000"
    panose-1="2 0 0 0 0 0 0 0 0 0"
    ascent="939"
    descent="-251"
    alphabetic="0" />
<glyph unicode=" " glyph-name="space" horiz-adv-x="180" />
<glyph unicode="!" glyph-name="exclam" horiz-adv-x="226" d="M160 46Q153 33 136 13T106 -15Q94 -7 77 13T52 46Q58 58 75 73T106 96Q119 88 136 73T160 46ZM72 679Q84 685 108 690T139 696T149 696Q160 686 181 656Q134 489 119 182L93 180L72 679Z" />
<glyph unicode="&quot;" glyph-name="quotedbl" horiz-adv-x="315" d="M63 649Q75 655 99 660T130 666T140 666L152 653Q121 573 106 434L76 432L63 649ZM198 649Q210 655 234 660T265 666T275 666L287 653Q256 573 241 434L211 432L198 649Z" />
<glyph unicode="#" glyph-name="numbersign" horiz-adv-x="550" d="M380 371Q447 370 471 370T503 370L510 364L500 316L373 319L358 188Q422 187 445 187T476 187L483 182L473 133L352 136L325 -92H320Q296 -87 279 -71Q297 28 310 137L202 140L175 -92H170Q146
-87 129 -71Q147 28 160 137V141L48 144L40 151L50 203Q123 197 167 195L183 324L75 327L67 333L77 386Q150 380 189 378L215 587Q234 587 259 592L263 589Q242 477 230 376Q263 374 339 372L365 587Q384 587 409 592L413 589Q392 476 380 372V371ZM208 193Q240
191 316 189L332 320L224 323L208 193Z" />
<glyph unicode="$" glyph-name="dollar" horiz-adv-x="450" d="M93 342Q93 385 134 433T236 511L239 588Q255 590 266 594L270 591Q264 556 263 523Q339 523 402 507V493Q365 447 359 380H337Q337 420 334 443Q296 457 260 458L254 311Q356 252 378 220Q388 205
388 189Q388 137 345 84T234 -2L233 -92H228Q211 -87 201 -77L206 -15Q127 -15 55 11V24Q92 70 98 136H120Q120 97 122 75Q163 53 209 50L218 224Q179 247 157 262T114 299T93 342ZM328 132Q328 159 243 209L236 50Q275 54 301 73T328 132ZM153 399Q153 373 229
326L234 457Q153 448 153 399Z" />
<glyph unicode="%" glyph-name="percent" horiz-adv-x="744" d="M178 570Q200 570 292 555T450 540T539 578L545 588Q583 590 610 598L613 595Q545 498 468 378L163 -100H158Q132 -88 119 -68Q220 69 241 102L416 376Q464 448 510 527L506 528Q482 503 430 503T260
539L257 536Q304 492 319 408Q305 320 262 274T175 227T89 269T34 389Q48 477 92 523T178 570ZM439 235T483 281T571 328T656 286T710 166Q696 78 653 32T566 -15T480 27T425 147Q439 235 483 281ZM249 353T249 399T230 486T178 540Q146 528 126 486T106 399T126
312T178 258Q211 270 230 311ZM640 111T640 157T621 244T569 298Q537 286 517 244T497 157T517 70T569 16Q602 28 621 69Z" />
<glyph unicode="&amp;" glyph-name="ampersand" horiz-adv-x="602" d="M394 566Q346 594 280 594T173 560Q172 546 172 534Q172 460 210 418T343 376Q483 376 596 408L601 403Q591 371 588 329L585 325Q539 331 482 333V183Q482 122 425 65T299 -15Q192 -15 121
37T50 185Q50 254 108 300T240 346V350Q172 354 127 388T81 482Q117 546 176 597T304 666Q375 666 444 647Q460 655 485 678L506 664Q440 584 425 473H399Q399 528 394 566ZM414 126Q414 233 400 333H326Q247 333 196 303T144 203T192 95T305 56T407 80Q414 94
414 126Z" />
<glyph unicode="&apos;" glyph-name="quotesingle" horiz-adv-x="180" d="M63 649Q75 655 99 660T130 666T140 666L152 653Q121 573 106 434L76 432L63 649Z" />
<glyph unicode="(" glyph-name="parenleft" horiz-adv-x="297" d="M156 -135T102 -7T48 259T101 513T250 711L260 701Q120 510 120 262Q120 135 156 12T260 -205L250 -215Q156 -135 102 -7Z" />
<glyph unicode=")" glyph-name="parenright" horiz-adv-x="297" d="M143 630T196 514T249 260T195 -6T47 -215L37 -205Q105 -112 141 11T177 262Q177 510 37 701L47 711Q143 630 196 514Z" />
<glyph unicode="*" glyph-name="asterisk" horiz-adv-x="371" d="M203 672L229 678L231 676Q202 629 195 564Q247 603 273 651H276Q278 647 281 637T284 625Q311 630 318 630T327 629Q327 626 302 594Q318 578 320 574L319 572Q315 572 312 572Q263 572 203 547Q259
522 311 522Q315 522 319 522L320 520Q318 516 302 500Q303 498 310 490Q327 471 327 465Q326 464 319 464T284 469Q284 468 281 458T276 443H273Q246 492 195 530Q202 465 231 418L229 416L203 422Q190 386 185 383Q180 385 167 422L141 416L139 418Q167 465 175
530Q124 492 97 443H94Q92 447 89 457T86 469Q59 464 52 464T43 465Q43 468 68 500Q52 516 50 520L51 522Q55 522 59 522Q110 522 166 547Q106 572 58 572Q55 572 51 572L50 574Q52 578 68 594Q67 596 60 604Q43 623 43 629Q44 630 51 630T86 625Q86 626 89 636T94
651H97Q123 603 175 564Q166 629 139 676L141 678L167 672Q180 708 185 711Q190 709 203 672Z" />
<glyph unicode="+" glyph-name="plus" horiz-adv-x="550" d="M299 222Q299 95 308 0L262 -9L252 -2V222H66L58 229L67 280Q189 274 252 273V476L299 485L304 479Q299 347 299 273V272Q336 271 396 271T495 274L501 268L492 222H299Z" />
<glyph unicode="," glyph-name="comma" horiz-adv-x="213" d="M160 46Q160 -4 126 -56T46 -139L36 -129Q57 -104 74 -68T92 -4Q66 20 52 46Q58 58 75 73T106 96Q119 88 136 73T160 46Z" />
<glyph unicode="-" glyph-name="hyphen" horiz-adv-x="286" d="M80 288Q168 288 252 298L260 293L254 251L37 236L28 242L34 288H80Z" />
<glyph unicode="." glyph-name="period" horiz-adv-x="212" d="M160 46Q153 33 136 13T106 -15Q94 -7 77 13T52 46Q58 58 75 73T106 96Q119 88 136 73T160 46Z" />
<glyph unicode="/" glyph-name="slash" horiz-adv-x="354" d="M61 -41H56Q33 -31 16 -11Q61 89 95 178L209 477Q249 581 287 698Q315 700 342 706L346 703Q320 644 263 491L61 -41Z" />
<glyph unicode="0" glyph-name="zero" horiz-adv-x="475" d="M46 382T111 459T242 536T368 466T456 275Q430 137 365 61T234 -15T108 54T20 244Q46 382 111 459ZM116 340T116 260T148 110T238 19Q295 40 327 110T360 260T328 410T238 501Q181 480 149 410Z" />
<glyph unicode="1" glyph-name="one" horiz-adv-x="475" d="M213 220V275Q213 378 210 438H134L132 440Q132 453 135 459Q213 477 269 533Q281 536 297 536L301 534Q287 452 287 275V220Q287 86 294 33Q323 26 353 13L350 -6Q299 0 249 0T143 -8L141 11Q176 24
204 30Q213 104 213 220Z" />
<glyph unicode="2" glyph-name="two" horiz-adv-x="475" d="M160 87Q175 87 223 87T371 74Q381 96 394 132L415 125Q404 86 404 54T411 -7L399 -15Q227 18 90 18Q86 18 82 18Q66 -1 56 -16L36 -7Q55 40 100 96T187 195T262 290T295 390Q295 474 201 474Q166 474
135 460Q128 448 128 428T138 399L137 392Q111 376 89 352Q77 353 70 361T63 381Q63 427 118 473T230 536Q320 536 357 494T394 357Q313 231 132 83L134 76Q149 84 160 87Z" />
<glyph unicode="3" glyph-name="three" horiz-adv-x="475" d="M104 149Q104 110 106 88Q130 71 169 59T245 47T301 71Q314 101 314 146Q314 212 277 247T172 283L168 289L303 448L301 452Q286 445 274 442Q216 442 127 449Q118 427 107 388L86 395Q93 435 93 464T83
527L94 536Q214 509 374 509Q399 525 410 536L427 521Q388 485 250 342Q402 317 402 156Q381 104 328 54T220 -15Q179 -15 127 -4T39 24V37Q77 80 82 149H104Z" />
<glyph unicode="4" glyph-name="four" horiz-adv-x="475" d="M343 532Q330 455 330 340T331 189Q369 189 384 196T412 233L428 230Q419 185 419 138L415 136Q380 139 332 139Q332 92 340 33Q361 22 391 15L387 -5Q330 0 284 0T175 -12L172 8Q206 23 251 34Q258
91 258 139H17L13 153Q99 251 155 330T262 511Q304 521 335 536L343 532ZM254 430Q203 318 118 200Q182 193 258 192L261 430H254Z" />
<glyph unicode="5" glyph-name="five" horiz-adv-x="475" d="M115 149Q115 110 117 88Q141 71 180 59T256 47T312 71Q325 102 325 146Q325 212 288 247T184 283Q145 283 114 266L102 275Q114 450 114 479T110 533L131 537Q136 519 140 510Q268 514 369 536L380
527Q368 492 368 458T373 394L351 389Q342 426 333 449Q263 442 180 442L157 452L153 447L142 316Q181 338 215 346Q310 344 361 296T413 156Q392 104 339 54T231 -15Q190 -15 138 -4T50 24V37Q88 80 93 149H115Z" />
<glyph unicode="6" glyph-name="six" horiz-adv-x="475" d="M165 196Q165 130 190 89T268 47T340 71Q355 109 355 146Q355 207 321 238T224 269Q209 269 194 266V273Q226 296 251 324Q341 324 392 282T443 156Q421 105 362 53T250 -15Q166 -15 121 32T76 163Q76
280 155 382T349 536L362 518Q274 455 220 372T165 196Z" />
<glyph unicode="7" glyph-name="seven" horiz-adv-x="475" d="M314 -6Q256 0 206 0T102 -11L97 9Q129 19 147 30Q154 104 185 174T284 351L348 451L345 455Q331 449 318 445Q193 445 141 450Q132 427 123 390L101 395Q106 425 106 458T94 527L105 536Q207 515
394 509Q403 520 412 532L431 521Q363 420 319 328Q237 157 236 36Q284 27 316 14L314 -6Z" />
<glyph unicode="8" glyph-name="eight" horiz-adv-x="475" d="M401 436Q401 375 292 298Q391 247 412 201Q422 179 422 152Q401 97 347 51T233 -15Q164 -15 113 20T62 119T179 263Q84 322 84 405Q107 442 163 483T262 536Q320 536 360 511T401 436ZM322 71Q334
95 334 117T328 154T305 182T276 204T236 227T198 249Q165 224 151 201T136 138T171 73T253 47T322 71ZM171 422Q171 361 271 311Q300 337 313 358T327 410Q327 474 241 474Q197 474 176 451Q171 436 171 422Z" />
<glyph unicode="9" glyph-name="nine" horiz-adv-x="475" d="M310 325Q310 391 285 432T207 474T135 450Q120 412 120 375Q120 314 154 283T251 252Q266 252 281 255V248Q249 225 224 197Q134 197 83 239T32 365Q54 416 113 468T225 536Q309 536 354 489T399 358Q399
241 320 139T126 -15L113 3Q201 66 255 149T310 325Z" />
<glyph unicode=":" glyph-name="colon" horiz-adv-x="212" d="M160 46Q153 33 136 13T106 -15Q94 -7 77 13T52 46Q58 58 75 73T106 96Q119 88 136 73T160 46ZM160 435Q153 422 136 402T106 374Q94 382 77 402T52 435Q58 447 75 462T106 485Q119 477 136 462T160 435Z" />
<glyph unicode=";" glyph-name="semicolon" horiz-adv-x="212" d="M160 46Q160 -4 126 -56T46 -139L36 -129Q57 -104 74 -68T92 -4Q66 20 52 46Q58 58 75 73T106 96Q119 88 136 73T160 46ZM160 435Q153 422 136 402T106 374Q94 382 77 402T52 435Q58 447 75 462T106
485Q119 477 136 462T160 435Z" />
<glyph unicode="&lt;" glyph-name="less" horiz-adv-x="550" d="M472 55Q260 160 52 222L66 286Q122 303 249 351T474 449L498 403L493 393L134 254V250L493 112L498 102L472 55Z" />
<glyph unicode="=" glyph-name="equal" horiz-adv-x="550" d="M62 203Q232 194 341 194T490 197L496 191L487 145H61L53 152L62 203ZM62 357Q232 348 341 348T490 351L496 345L487 299H61L53 306L62 357Z" />
<glyph unicode="&gt;" glyph-name="greater" horiz-adv-x="550" d="M498 222Q290 160 78 55L52 102L57 112L416 250V254L57 393L52 403L76 449Q174 399 301 351T484 286L498 222Z" />
<glyph unicode="?" glyph-name="question" horiz-adv-x="335" d="M239 560Q239 597 215 615T154 634T89 620Q82 608 82 588T92 559L91 552Q65 536 43 512Q31 513 24 521T17 541Q17 587 70 633T179 696Q260 696 297 657T335 537Q272 447 177 352Q170 263 166 182L140
180L119 319V338Q239 458 239 560ZM205 49Q198 36 181 16T151 -12Q139 -4 122 16T97 49Q103 61 120 76T151 99Q164 91 181 76T205 49Z" />
<glyph unicode="@" glyph-name="at" horiz-adv-x="860" d="M300 499Q388 488 483 488T667 499L671 473Q646 462 609 455Q598 352 598 263Q598 94 620 36L626 33Q692 69 725 152T759 329Q759 616 458 616Q356 616 281 570Q208 500 165 389T121 172Q121 22 193 -59T409
-140Q471 -140 528 -118L535 -131Q475 -173 401 -190Q225 -190 140 -106T55 155Q55 356 168 497T474 666Q823 666 823 363Q823 214 751 108T561 -15L554 -12Q523 50 523 157Q523 169 523 182Q486 187 439 187T365 182Q348 112 348 72T383 12L379 -5Q356 0 291 0T191
-8L187 18Q217 28 253 34L374 457Q321 466 297 473L300 499ZM374 229Q404 223 450 223T523 229Q523 397 515 447Q496 450 474 450T426 448L374 229Z" />
<glyph unicode="A" glyph-name="A" horiz-adv-x="599" d="M479 607T474 533T469 295T482 35Q535 30 592 16L589 -8Q515 0 429 0T289 -8L285 17Q330 31 381 38Q389 104 392 251Q340 257 278 257T172 251Q148 153 148 94T191 10L187 -4Q156 0 83 0T-50 -8L-54 17Q-9
31 42 38L200 598Q82 598 49 566Q42 552 42 522T52 481L51 474Q26 459 1 432Q-11 433 -18 442T-26 463Q-26 512 33 580T143 666Q294 649 449 637Q463 655 472 683L493 677Q479 607 474 533ZM183 301Q228 294 289 294T392 301Q392 478 387 590L384 593Q332 598 255
598L183 301Z" />
<glyph unicode="B" glyph-name="B" horiz-adv-x="576" d="M53 659Q138 651 237 651T361 650T415 642T460 624Q500 597 500 542T461 441T366 372V368Q438 368 483 335T528 236Q528 156 453 82T291 -15Q229 -15 145 23Q128 -3 122 -22L101 -17Q125 92 125 325Q125
414 117 598Q6 596 -25 566Q-32 552 -32 522T-22 481L-23 474Q-48 459 -73 432Q-85 433 -92 442T-100 463Q-100 509 -48 572T53 659ZM263 382Q337 382 370 403Q406 443 406 504T373 583T286 601T210 598Q202 497 202 335T207 85Q259 57 318 57T413 81Q436 130 436
191Q436 345 246 345L251 382H263Z" />
<glyph unicode="C" glyph-name="C" horiz-adv-x="498" d="M196 5T228 -14T304 -34T392 -9T467 55L481 41Q408 -73 283 -115Q197 -115 142 -71T65 42T42 212T67 403T156 566T313 666Q414 666 519 647L518 625Q492 625 470 616Q445 557 437 475H412Q403 522 403
565Q350 594 287 594T182 556Q131 453 131 291Q131 110 178 35Q196 5 228 -14Z" />
<glyph unicode="D" glyph-name="D" horiz-adv-x="620" d="M102 -17Q126 92 126 296T117 598Q6 596 -25 566Q-32 552 -32 522T-22 481L-23 474Q-48 459 -73 432Q-85 433 -92 442T-100 463Q-100 509 -48 572T53 659Q138 651 305 651Q578 651 578 386Q578 247 505
134T307 -15Q235 -15 146 23Q129 -3 123 -22L102 -17ZM289 604Q243 604 212 599Q203 505 203 339T208 85Q262 57 331 57T438 91Q489 184 489 321T447 531T289 604Z" />
<glyph unicode="E" glyph-name="E" horiz-adv-x="513" d="M394 566Q346 594 280 594T173 560Q172 546 172 533Q172 373 343 373L338 336H326Q247 336 196 305T144 203T192 95T305 56T407 80Q414 94 414 124T404 165L405 172Q430 187 455 214Q467 213 474 204T482
183Q482 122 425 65T299 -15Q192 -15 121 37T50 185Q50 254 108 300T240 346V350Q172 354 127 388T81 482Q117 546 176 597T304 666Q375 666 444 647Q460 655 485 678L506 664Q440 584 425 473H399Q399 528 394 566Z" />
<glyph unicode="F" glyph-name="F" horiz-adv-x="488" d="M365 645Q444 645 474 676L493 666Q450 588 443 484H418Q409 527 409 593Q383 585 344 585T215 593Q207 519 207 366Q250 358 291 358Q369 358 390 401L410 397Q401 365 401 321T407 233L384 229Q369 267
364 318Q327 321 287 321T207 316Q208 112 220 35Q270 30 330 16L327 -8Q253 0 167 0T27 -8L23 17Q68 31 119 38Q130 120 130 296V355Q130 454 118 598H116Q-2 598 -35 566Q-42 552 -42 522T-32 481L-33 474Q-58 459 -83 432Q-95 433 -102 442T-110 463Q-110 512
-51 580T59 666Q129 663 222 654T365 645Z" />
<glyph unicode="G" glyph-name="G" horiz-adv-x="557" d="M305 66Q352 66 403 94V176Q403 199 399 243Q364 253 308 263L311 284Q334 281 355 281Q443 281 516 330L525 312Q502 294 489 276Q470 102 469 -49Q440 -102 374 -151T252 -200Q237 -200 227 -192T217
-170Q246 -148 266 -119L273 -118Q295 -135 324 -135T364 -129Q405 -74 405 51Q350 8 283 -15Q163 -15 103 60T42 269T115 517T313 666Q417 666 522 647L521 625Q496 625 473 616Q446 553 440 475H415Q406 516 406 568Q359 594 291 594T182 560Q131 473 131 339Q131
66 305 66Z" />
<glyph unicode="H" glyph-name="H" horiz-adv-x="708" d="M578 652V296Q578 109 591 35Q644 30 701 16L698 -8Q634 0 547 0T398 -8L394 17Q439 31 490 38Q500 139 501 328Q427 335 354 335T207 328Q208 114 220 35Q273 30 330 16L327 -8Q253 0 167 0T27 -8L23
17Q68 31 119 38Q130 120 130 296V355Q130 486 119 596H118Q0 596 -33 564Q-40 550 -40 520T-30 479L-31 472Q-56 457 -81 430Q-93 431 -100 440T-108 461Q-108 510 -49 578T61 664Q69 664 133 658T233 651T301 657L305 632Q266 617 216 605Q209 530 207 382Q283
372 358 372T501 381Q500 560 492 653Q511 714 584 786T713 858Q725 858 734 851T744 831Q717 806 702 781L695 780Q684 790 654 790T610 783Q578 746 578 652Z" />
<glyph unicode="I" glyph-name="I" horiz-adv-x="337" d="M218 616Q207 541 207 336T220 35Q273 30 330 16L327 -8Q253 0 167 0T27 -8L23 17Q68 31 119 38Q130 120 130 296V355Q130 517 117 613Q66 620 21 634L25 659Q78 651 164 651T325 659L328 635Q271 621 218 616Z" />
<glyph unicode="J" glyph-name="J" horiz-adv-x="337" d="M207 355V296Q207 111 215 33Q148 -102 -32 -181L-44 -160Q51 -95 90 -26T130 154V355Q130 506 121 596Q3 596 -30 564Q-37 550 -37 520T-27 479L-28 472Q-53 457 -78 430Q-90 431 -97 440T-105 461Q-105
510 -46 578T64 664Q72 664 136 658T236 651T304 657L308 632Q269 617 219 605Q207 497 207 355Z" />
<glyph unicode="K" glyph-name="K" horiz-adv-x="606" d="M207 350V295Q294 387 341 451T399 542T410 596T393 641L397 655Q428 651 485 651T602 659L606 634Q561 620 510 613Q501 528 364 397L538 23Q577 -61 623 -82Q641 -82 667 -69T699 -43L705 -41Q732 -59
765 -69Q768 -75 768 -85T752 -105T705 -115Q642 -115 557 -80T438 -8Q416 89 389 161T307 344Q251 293 207 257Q210 105 220 35Q273 30 330 16L327 -8Q253 0 167 0T27 -8L23 17Q68 31 119 38Q130 120 130 296V355Q130 486 119 596H118Q0 596 -33 564Q-40 550 -40
520T-30 479L-31 472Q-56 457 -81 430Q-93 431 -100 440T-108 461Q-108 510 -49 578T61 664Q69 664 133 658T233 651T301 657L305 632Q266 617 216 605Q207 513 207 350Z" />
<glyph unicode="L" glyph-name="L" horiz-adv-x="456" d="M218 616Q205 528 205 337T213 55Q247 53 277 53Q395 53 428 85Q435 99 435 129T425 170L426 177Q451 192 476 219Q488 218 495 209T503 188Q503 139 444 71T334 -15Q248 -12 148 14Q134 -4 125 -32L104
-26Q125 75 128 305V355Q128 530 117 613Q66 620 21 634L25 659Q78 651 164 651T325 659L328 635Q268 621 218 616Z" />
<glyph unicode="M" glyph-name="M" horiz-adv-x="864" d="M325 601Q325 538 403 295L435 195L442 197Q443 218 566 609Q566 619 555 628T532 641L535 655Q585 651 672 651T811 659L816 634Q768 619 719 613Q714 589 714 528T730 281T761 35Q814 30 871 16L868
-8Q794 0 708 0T569 -8L565 17Q610 31 661 38Q661 133 650 300T622 586L619 587Q476 191 469 105Q404 66 372 29L360 37Q362 59 362 70Q362 187 231 587L227 586L196 367Q176 224 176 109Q176 72 184 48T219 10L215 -4Q184 0 110 0T-24 -8L-28 17Q17 31 68 38L180
596Q62 596 29 564Q22 550 22 520T32 479L31 472Q6 457 -19 430Q-31 431 -38 440T-46 461Q-46 510 13 578T123 664Q131 664 195 658T294 651T362 657L366 632Q325 616 325 601Z" />
<glyph unicode="N" glyph-name="N" horiz-adv-x="706" d="M523 296Q523 467 508 546T451 641L455 655Q486 651 556 651T685 659L688 636Q617 619 589 616Q576 518 576 355V296Q576 109 589 35Q640 29 685 17L681 -8Q628 0 575 0T488 -3Q488 30 423 144T187 525L183
523V355Q183 110 220 35Q275 30 329 16L327 -8Q253 0 167 0T27 -8L23 17Q68 31 119 38Q130 120 130 296V355Q130 496 118 596Q0 596 -33 564Q-40 550 -40 520T-30 479L-31 472Q-56 457 -81 430Q-93 431 -100 440T-108 461Q-108 510 -49 578T61 664Q73 663 128 657T220
651T287 657L291 632Q250 615 250 599Q255 572 307 486T519 150L523 152V296Z" />
<glyph unicode="O" glyph-name="O" horiz-adv-x="602" d="M435 666T497 593T560 385T492 141T301 -15Q184 -15 113 62T42 265Q42 469 190 603L202 595Q131 492 131 339Q131 230 181 144T322 57Q381 57 421 92Q471 184 471 310Q471 475 408 552Q374 594 323 594Q297
594 275 579T244 540Q244 520 253 494T276 460L278 453Q256 426 245 396Q243 395 237 395Q201 395 201 459Q201 567 313 666Q435 666 497 593Z" />
<glyph unicode="P" glyph-name="P" horiz-adv-x="512" d="M118 38Q130 120 130 305T120 598Q11 596 -20 566Q-27 552 -27 522T-17 481L-18 474Q-43 459 -68 432Q-80 433 -87 442T-95 463Q-95 509 -43 572T58 659Q143 651 324 651Q420 651 468 616T517 493T444
350T274 295Q259 295 252 296L256 328H268Q343 328 383 366T423 475T390 574T283 601Q245 601 215 598Q207 509 207 317T219 35Q272 30 329 16L326 -8Q252 0 166 0T26 -8L22 17Q67 31 118 38Z" />
<glyph unicode="Q" glyph-name="Q" horiz-adv-x="602" d="M777 -78Q777 -109 725 -139T613 -184T516 -200Q311 -56 211 -56Q148 -56 104 -90L87 -74Q115 -49 161 -23T245 16Q252 16 279 11Q471 112 471 310Q471 427 430 507Q409 548 371 571T276 594T182 560Q139
486 139 375Q139 141 258 141Q284 141 306 156T337 195Q337 215 328 241T305 275L303 282Q325 309 336 339Q338 340 344 340Q380 340 380 276Q380 168 268 69Q164 69 109 130T53 308T124 529T313 666Q435 666 497 593T560 388T499 154T320 0Q377 -19 493 -83T646
-148Q667 -148 681 -123T696 -73L700 -66Q733 -66 765 -56Q777 -65 777 -78Z" />
<glyph unicode="R" glyph-name="R" horiz-adv-x="619" d="M131 35Q144 131 144 310T134 598Q25 596 -6 566Q-13 552 -13 522T-3 481L-4 474Q-29 459 -54 432Q-66 433 -73 442T-81 463Q-81 509 -29 572T72 659Q157 651 318 651Q420 651 473 621T526 504Q526 382
401 334L541 38Q592 31 637 17L633 -8Q574 0 506 0T406 -4L402 10Q419 27 419 67Q419 147 325 322Q300 327 267 327L270 349H282Q354 349 393 384T432 487T397 578T287 601Q252 601 229 598Q221 509 221 311T232 38Q283 31 328 17L324 -8Q271 0 185 0T24 -8L21
16Q78 30 131 35Z" />
<glyph unicode="S" glyph-name="S" horiz-adv-x="465" d="M11 12Q11 100 49 164T130 228Q141 228 152 221L155 214Q142 189 139 151L133 147Q129 149 118 149T86 137T52 113Q45 99 45 81Q45 34 108 1T231 -33Q354 -33 354 107Q354 160 253 240Q211 274 169 308Q68
388 68 447Q68 517 131 577T274 666Q360 666 437 649V629Q385 581 379 481H354Q354 534 349 574Q306 594 256 594T170 573T135 518T164 452T236 387T319 323T390 253T420 180Q420 80 365 2T215 -115Q90 -102 15 -45Q11 -17 11 12Z" />
<glyph unicode="T" glyph-name="T" horiz-adv-x="519" d="M195 663T284 654T412 645T469 651Q515 695 534 718L550 706Q497 637 486 562Q387 589 305 595Q298 486 298 309T311 35Q361 30 421 16L418 -8Q344 0 258 0T118 -8L114 17Q159 31 210 38Q221 120 221 296V355Q221
454 209 598H183Q65 598 32 566Q25 552 25 522T35 481L34 474Q9 459 -16 432Q-28 433 -35 442T-43 463Q-43 512 16 580T126 666Q195 663 284 654Z" />
<glyph unicode="U" glyph-name="U" horiz-adv-x="665" d="M197 549Q183 423 183 325T188 193T208 128Q237 66 320 66T453 112Q458 242 458 372T447 616Q396 623 351 637L355 659Q416 651 503 651T655 659L658 638Q601 624 548 619Q535 545 535 355V296Q535 109
548 35Q601 30 658 16L655 -8Q591 0 525 0T441 -1L438 13Q447 24 451 84Q393 19 305 -15Q192 -15 148 50T103 241Q103 298 110 422T117 561T114 596Q-4 596 -37 564Q-44 550 -44 520T-34 479L-35 472Q-60 457 -85 430Q-97 431 -104 440T-112 461Q-112 510 -53 578T57
664Q80 663 117 657T186 651T245 655L249 641Q204 616 197 549Z" />
<glyph unicode="V" glyph-name="V" horiz-adv-x="599" d="M423 -8Q364 0 292 0T188 -4L184 10Q196 14 207 22T218 41Q218 114 85 529Q73 567 61 596Q-56 596 -89 564Q-96 550 -96 520T-86 479L-87 472Q-112 457 -137 430Q-149 431 -156 440T-164 461Q-164 510
-105 578T5 664Q13 664 77 658T177 651T245 657L249 632Q217 620 164 606Q174 521 216 363T307 69Q391 255 419 351T448 518Q448 612 398 641L402 655Q433 651 501 651T629 659L633 634Q588 620 537 613Q542 578 542 555Q542 467 499 366T331 35Q382 28 427 14L423
-8Z" />
<glyph unicode="W" glyph-name="W" horiz-adv-x="906" d="M373 -4Q325 0 272 0T188 -4L184 10Q196 14 207 22T218 41Q218 114 85 529Q73 567 61 596Q-56 596 -89 564Q-96 550 -96 520T-86 479L-87 472Q-112 457 -137 430Q-149 431 -156 440T-164 461Q-164 510
-105 578T5 664Q13 664 77 658T179 651H296Q512 651 609 661L613 636Q569 622 517 613Q522 578 522 550T514 478Q552 308 634 69Q708 256 731 352T755 518Q755 612 705 641L709 655Q740 651 808 651T936 659L940 634Q895 620 844 613Q849 578 849 555Q849 471 808
362T657 34Q674 25 703 17L700 -4Q652 0 599 0T515 -4L511 10Q523 14 534 22T545 41Q545 100 474 340H470Q423 219 330 34Q347 25 376 17L373 -4ZM381 256T404 352T428 517T403 606T301 627T164 609Q173 527 215 366T307 69Q381 256 404 352Z" />
<glyph unicode="X" glyph-name="X" horiz-adv-x="645" d="M452 609Q452 631 432 641L436 655Q486 651 541 651T649 659L654 634Q606 619 557 613Q504 529 367 348L563 38Q614 31 659 17L655 -8Q596 0 528 0T428 -4L424 10Q428 18 428 32Q428 97 313 286Q184 71
184 35Q237 30 294 16L291 -8Q211 0 130 0T-9 -8L-14 17Q34 32 83 38Q143 133 287 327L126 596Q26 596 -7 564Q-14 550 -14 520T-4 479L-5 472Q-30 457 -55 430Q-67 431 -74 440T-82 461Q-82 510 -23 578T87 664Q95 664 159 658T259 651T327 657L331 632Q292 617
242 605Q250 540 342 387Q452 567 452 609Z" />
<glyph unicode="Y" glyph-name="Y" horiz-adv-x="545" d="M234 245V271L64 635Q25 719 -21 740Q-39 740 -65 727T-97 701L-103 699Q-130 717 -163 727Q-166 733 -166 743T-150 763T-103 773Q-40 773 45 738T164 666Q185 576 210 512T291 337Q402 554 402 609Q402
631 382 641L386 655Q436 651 491 651T599 659L604 634Q556 619 507 613L311 298Q311 131 324 35Q377 30 434 16L431 -8Q357 0 271 0T131 -8L127 17Q172 31 223 38Q234 120 234 245Z" />
<glyph unicode="Z" glyph-name="Z" horiz-adv-x="459" d="M123 611Q59 611 59 545Q59 532 62 522L60 514Q27 505 0 487Q-18 494 -18 515Q-18 565 57 615T203 684Q300 648 332 645T383 641Q457 641 489 679L511 661Q461 615 420 543L154 84Q205 61 259 20T350 -55Q441
-141 485 -141Q506 -141 520 -116T535 -66L539 -59Q572 -59 604 -49Q616 -58 616 -71Q616 -102 564 -132T452 -177T355 -193Q262 -89 202 -42T85 6T-15 -35L-37 -17Q21 37 86 143L359 593Q343 585 325 580Q182 611 123 611Z" />
<glyph unicode="[" glyph-name="bracketleft" horiz-adv-x="326" d="M270 -193Q162 -193 101 -208L94 -203Q104 -134 104 248T94 699L101 704Q162 689 270 689Q283 689 296 689V668Q218 666 164 651V-155Q218 -170 296 -172V-193Q283 -193 270 -193Z" />
<glyph unicode="\" glyph-name="backslash" horiz-adv-x="351" d="M282 -45H277L99 478Q53 615 21 696Q53 707 69 717H73Q99 622 142 493L251 175Q283 82 323 -17Q309 -33 282 -45Z" />
<glyph unicode="]" glyph-name="bracketright" horiz-adv-x="326" d="M56 689Q164 689 225 704L232 699Q222 630 222 248T232 -203L225 -208Q164 -193 56 -193Q43 -193 30 -193V-172Q108 -170 162 -155V651Q108 666 30 668V689Q43 689 56 689Z" />
<glyph unicode="^" glyph-name="asciicircum" horiz-adv-x="518" d="M259 580L79 291L50 306Q142 464 231 686L284 696Q379 458 468 306L439 291L259 580Z" />
<glyph unicode="_" glyph-name="underscore" horiz-adv-x="615" d="M5 -134Q175 -143 374 -143T613 -140L619 -146L611 -185H5L-3 -178L5 -134Z" />
<glyph unicode="`" glyph-name="grave" horiz-adv-x="200" d="M25 726Q35 728 46 728T68 727Q92 685 127 643T200 576L189 558L0 667Q1 677 9 697T25 726Z" />
<glyph unicode="a" glyph-name="a" horiz-adv-x="535" d="M108 532Q202 521 298 521T487 532L491 506Q461 494 429 488Q418 406 418 260T429 32Q449 29 503 17L499 -8Q451 0 376 0T261 -8L257 18Q291 29 334 34Q340 92 343 195Q296 200 249 200T167 195Q147 113
147 81Q147 32 182 12L178 -5Q155 0 91 0T-10 -8L-14 18Q10 27 52 34L182 490Q138 497 105 506L108 532ZM175 242Q214 236 261 236T343 242Q343 427 335 481Q301 483 285 483T234 481L175 242Z" />
<glyph unicode="b" glyph-name="b" horiz-adv-x="524" d="M38 519L277 526Q375 526 408 502Q440 480 440 435T408 353T328 298V294Q388 294 425 269T462 186T398 68T267 -12Q243 -12 202 -2T134 18Q123 5 114 -19L93 -14Q112 75 112 237T103 481Q69 494 38 494V519ZM235
308Q297 308 325 325Q350 356 350 404Q350 491 255 491Q222 491 194 480Q187 412 187 271T191 74Q232 52 281 52T357 71Q374 105 374 153Q374 219 335 246T222 273L226 308H235Z" />
<glyph unicode="c" glyph-name="c" horiz-adv-x="434" d="M269 58Q338 58 399 119L413 105Q346 20 252 -12Q155 -12 100 49T45 215T110 412T276 533Q349 533 441 518L440 496Q421 496 404 489Q385 444 379 382H354Q346 416 346 452Q308 471 256 471T170 443Q131
372 131 271Q131 114 198 74Q227 58 269 58Z" />
<glyph unicode="d" glyph-name="d" horiz-adv-x="539" d="M36 519L266 526Q380 526 441 472T503 311T436 110T268 -12Q242 -12 201 -3T132 18Q121 5 112 -19L91 -14Q110 75 110 237T101 481Q67 494 36 494V519ZM362 453T330 472T259 491T192 480Q185 415 185 273T189
75Q239 52 291 52T375 79Q413 151 413 256Q413 354 380 419Q362 453 330 472Z" />
<glyph unicode="e" glyph-name="e" horiz-adv-x="448" d="M134 158T164 108T266 58T399 119L413 105Q346 20 252 -12Q155 -12 100 49T45 215T110 412T276 533Q349 533 441 518L440 496Q421 496 404 489Q385 444 379 382H354Q346 416 346 452Q308 471 256 471T170
443Q136 381 131 295Q173 288 221 288Q304 288 321 323L342 320Q333 290 333 261T340 190L316 186Q305 216 300 248Q260 252 221 252T131 247Q134 158 164 108Z" />
<glyph unicode="f" glyph-name="f" horiz-adv-x="440" d="M351 467Q316 484 270 484T200 480Q192 426 192 295Q227 288 259 288Q318 288 335 323L356 320Q347 290 347 261T354 190L330 186Q319 216 314 248Q274 252 254 252T192 247Q192 111 201 33Q245 28 290
17L287 -8Q238 0 169 0T49 -8L45 18Q75 28 108 33Q117 105 117 237V284Q117 376 107 488Q71 495 43 506L46 531Q121 521 239 521T423 532L428 512Q388 470 383 387H358Q351 420 351 467Z" />
<glyph unicode="g" glyph-name="g" horiz-adv-x="492" d="M269 58Q312 58 354 83L349 190Q321 199 281 206L284 227Q308 225 319 225Q388 225 444 262L454 244Q442 233 432 221Q418 85 414 -3H393Q385 34 369 58Q311 7 252 -12Q155 -12 100 49T45 215T110 412T276
533Q349 533 441 518L440 496Q421 496 404 489Q385 444 379 382H354Q346 416 346 452Q308 471 256 471T170 443Q130 370 130 271T159 115T269 58Z" />
<glyph unicode="h" glyph-name="h" horiz-adv-x="618" d="M359 529Q410 521 474 521T591 528L594 503Q556 493 511 488Q501 426 501 284V237Q501 93 511 33Q556 28 594 18L591 -7Q539 0 475 0T359 -8L355 18Q383 27 418 33Q426 146 427 259Q363 265 309 265T192
259Q192 94 201 33Q246 28 284 18L281 -7Q229 0 165 0T49 -8L45 18Q73 27 108 33Q117 105 117 237V284Q117 416 107 488Q72 494 44 503L48 529Q99 521 163 521T280 528L283 503Q245 493 200 488Q192 430 192 309Q248 301 312 301T427 308Q426 393 418 488Q383 494
355 503L359 529Z" />
<glyph unicode="i" glyph-name="i" horiz-adv-x="309" d="M200 488Q192 434 192 267T201 33Q246 28 284 18L281 -7Q229 0 165 0T49 -8L45 18Q73 27 108 33Q117 105 117 237V284Q117 416 107 488Q72 494 44 503L48 529Q99 521 163 521T280 528L283 503Q245 493 200 488Z" />
<glyph unicode="j" glyph-name="j" horiz-adv-x="296" d="M117 123V283Q117 434 109 488Q64 493 26 503L29 528Q81 521 145 521T261 529L265 503Q237 494 202 488Q192 416 192 284V237Q192 105 201 33Q177 -20 131 -67T29 -146L12 -127Q71 -82 94 -23T117 123Z" />
<glyph unicode="k" glyph-name="k" horiz-adv-x="525" d="M192 283V242Q294 350 324 397T355 471T340 509L345 526Q367 521 408 521T510 529L514 503Q491 495 447 487Q438 419 331 318L463 34Q505 27 529 18L525 -8Q488 0 429 0T345 -5L340 12Q354 26 354 54Q354
121 275 272Q255 255 192 203Q195 81 201 33Q246 28 284 18L281 -7Q229 0 165 0T49 -8L45 18Q73 27 108 33Q117 105 117 237V284Q117 416 107 488Q72 494 44 503L48 529Q99 521 163 521T280 528L283 503Q245 493 200 488Q192 434 192 283Z" />
<glyph unicode="l" glyph-name="l" horiz-adv-x="407" d="M409 -11Q344 0 233 0T46 -10L43 15Q71 26 107 33Q117 93 117 237V284Q117 408 107 488Q74 493 44 503L48 529Q99 521 168 521T286 529L289 504Q244 493 200 488Q192 434 192 266T200 41Q224 37 268 37T347
54Q361 88 361 134H386Q390 57 414 9L409 -11Z" />
<glyph unicode="m" glyph-name="m" horiz-adv-x="724" d="M302 56Q302 118 271 241T202 481L198 480L173 294Q157 179 157 87Q157 31 192 12L188 -5Q158 0 110 0T3 -8L-1 18Q33 29 63 34L156 490Q104 499 79 506L82 532Q154 521 215 521T311 528L313 511Q286 504
286 488Q286 466 348 234L370 159L377 161Q377 187 468 487Q468 504 441 511L443 528Q477 521 539 521T673 532L676 506Q649 499 607 491Q604 467 604 421T617 230T641 32Q678 27 717 18L714 -7Q662 0 599 0T484 -8L480 18Q513 28 551 33Q548 269 519 478H516Q413
174 406 84Q385 77 357 59T314 22L302 30V56Z" />
<glyph unicode="n" glyph-name="n" horiz-adv-x="623" d="M284 -7Q232 0 168 0T52 -8L48 18Q80 28 108 33Q117 111 117 237V284Q117 418 107 490Q80 493 42 506L45 532Q102 521 164 521T254 528L256 511Q229 504 229 488Q229 476 252 438T298 363Q364 258 454
105L457 107V229Q457 363 443 430T395 509L397 526Q423 521 475 521T582 532L585 506Q544 493 516 490Q506 410 506 284V237Q506 85 516 31Q558 24 583 15L580 -11Q530 0 486 0T418 -4Q418 18 388 70T332 162Q251 293 173 428L169 426V292Q169 93 199 33Q244 28
287 18L284 -7Z" />
<glyph unicode="o" glyph-name="o" horiz-adv-x="526" d="M164 -12T103 50T42 218T106 415T273 533Q376 533 430 475T484 308T426 113T263 -12Q164 -12 103 50ZM246 472Q201 472 168 447Q127 377 127 271Q127 149 195 84Q231 49 280 49T359 75Q399 145 399 246T363
409T246 472Z" />
<glyph unicode="p" glyph-name="p" horiz-adv-x="460" d="M43 519L275 526Q456 526 456 395Q456 322 392 277T245 232Q233 232 228 233L232 266H241Q303 266 333 293T364 378T340 463T261 491Q228 491 199 480Q192 414 192 256T201 33Q243 28 289 17L286 -8Q237
0 168 0T48 -8L44 18Q74 28 107 33Q117 103 117 251T108 481Q73 494 43 494V519Z" />
<glyph unicode="q" glyph-name="q" horiz-adv-x="526" d="M154 -5T98 56T42 220T106 415T273 533Q376 533 430 475T484 312T432 123T285 -3Q323 -4 405 -40T509 -82Q541 -70 568 -54L580 -72Q533 -106 495 -177Q344 -67 245 -67Q197 -67 159 -96L142 -80Q184 -36
245 -11Q154 -5 98 56ZM246 472Q201 472 168 447Q127 377 127 271Q127 149 195 84Q231 49 280 49T359 75Q399 145 399 246T363 409T246 472Z" />
<glyph unicode="r" glyph-name="r" horiz-adv-x="526" d="M43 519L273 526Q363 526 408 500T453 403Q453 355 424 318T346 263L458 34Q492 28 522 20L518 -7Q476 0 424 0T341 -5L337 11Q350 24 350 54Q350 115 280 250Q259 254 231 254L233 283H243Q361 283 361
391Q361 491 260 491Q226 491 199 480Q192 414 192 254T201 33Q245 28 283 18L280 -7Q228 0 164 0T48 -8L44 18Q72 27 107 33Q117 108 117 266T108 486Q69 499 43 499V519Z" />
<glyph unicode="s" glyph-name="s" horiz-adv-x="421" d="M157 57T202 57T274 78T301 138Q301 178 188 237Q145 259 110 290T74 353Q74 406 130 460T245 533Q319 533 379 518V500Q337 458 332 385H307Q307 413 302 455Q267 471 227 471T161 454T134 403Q134 380
169 353T247 305T324 253T360 191Q360 131 307 72T190 -12Q127 -12 72 3Q56 -4 39 -20L21 -7Q77 54 83 144H108Q108 109 111 76Q157 57 202 57Z" />
<glyph unicode="t" glyph-name="t" horiz-adv-x="431" d="M370 467Q335 484 303 484T260 480Q252 426 252 271T263 33Q308 28 346 18L343 -7Q291 0 224 0T105 -8L101 18Q121 24 170 33Q179 105 179 237V284Q179 354 168 480Q157 484 127 484T63 470Q53 439 49
387H23Q23 469 -4 514L1 531Q78 521 217 521T441 532L447 513Q422 485 413 459T402 387H377Q370 420 370 467Z" />
<glyph unicode="u" glyph-name="u" horiz-adv-x="578" d="M461 284V237Q461 100 471 32Q517 26 547 18L544 -7Q495 0 444 0T373 -3L369 10Q378 20 381 67Q329 13 261 -12Q89 -12 89 193Q89 238 96 337T103 453T97 486V487Q55 494 30 502L34 529Q92 521 139 521T216
526L220 509Q184 490 178 440Q166 344 166 243T189 100T277 57T382 94Q386 174 386 283T378 488Q333 493 295 503L298 528Q350 521 414 521T530 529L534 503Q506 494 471 488Q461 421 461 284Z" />
<glyph unicode="v" glyph-name="v" horiz-adv-x="509" d="M353 -6Q310 0 246 0T152 -4L149 12Q158 14 166 22T175 38Q175 95 70 423Q56 467 46 487Q13 491 -26 503L-22 529Q18 521 93 521T216 529L220 504Q166 492 146 489Q153 423 187 294T262 55Q329 204 351
281T374 422T333 508L337 525Q367 520 413 520T518 528L522 502Q488 491 458 486Q462 456 462 432T455 373T420 278Q385 204 294 33Q314 31 358 16L353 -6Z" />
<glyph unicode="w" glyph-name="w" horiz-adv-x="743" d="M327 -6Q291 0 233 0T145 -4L142 12Q151 14 159 22T168 38Q168 95 63 423Q49 467 39 487Q18 490 -26 504L-22 530Q66 521 239 521T491 529L495 503Q451 488 436 486Q438 471 438 432T425 337Q459 204 513
55Q573 204 593 281T613 422T572 508L576 525Q606 520 649 520T750 528L754 502Q714 489 697 486Q701 456 701 444Q701 371 668 288T543 33Q562 24 589 16L584 -6Q548 0 492 0T406 -4L403 12Q412 14 420 22T429 38Q429 75 380 240Q318 97 286 33Q305 24 332 16L327
-6ZM314 202T333 279T353 410T333 481T255 498T139 487Q146 421 180 293T255 55Q314 202 333 279Z" />
<glyph unicode="x" glyph-name="x" horiz-adv-x="527" d="M236 -8Q188 0 113 0T-3 -8L-7 18Q35 31 59 34Q78 63 141 147T228 262L78 487Q49 490 11 503L15 529Q55 521 138 521T269 529L273 504Q221 492 198 489Q200 449 281 316Q365 455 365 484Q365 502 338 509L342
526Q372 521 420 521T527 529L531 503Q503 494 461 487Q447 465 388 388T304 278L464 34Q506 27 534 18L530 -8Q472 0 422 0T342 -5L338 12Q346 17 346 30Q346 77 254 229Q158 69 151 32H153Q206 25 240 17L236 -8Z" />
<glyph unicode="y" glyph-name="y" horiz-adv-x="465" d="M336 487Q336 503 309 509L313 526Q343 521 391 521T498 529L502 503Q476 494 436 488L270 238Q270 108 280 33Q324 28 362 18L359 -7Q307 0 240 0T121 -8L117 18Q136 24 185 33Q194 87 194 196V217Q78
451 47 489Q19 492 -15 503L-11 529Q29 521 104 521T227 529L231 504Q184 493 152 489Q186 385 247 270Q336 443 336 487Z" />
<glyph unicode="z" glyph-name="z" horiz-adv-x="440" d="M334 512Q378 512 411 542L432 526Q404 501 368 439L151 64L154 62H274Q319 62 339 77Q344 110 344 146H370Q376 55 432 -2L412 -16Q408 -10 396 -2Q282 17 120 17Q53 17 25 -16L4 1Q49 46 78 94L305 464L303
466H195Q146 466 111 451Q105 416 91 384L67 387Q69 417 69 442T61 498Q45 507 27 511L29 533Q46 533 156 523T334 512Z" />
<glyph unicode="{" glyph-name="braceleft" horiz-adv-x="300" d="M176 -201T133 -159T89 -71T102 57T116 187Q116 223 48 236L44 255Q116 271 116 309Q116 356 103 439T89 567T132 655T224 711L228 697Q201 683 177 657T144 604Q144 557 166 463T189 329Q175
295 98 250V246Q175 201 189 167Q189 127 167 33T144 -108Q153 -135 177 -161T228 -201L224 -215Q176 -201 133 -159Z" />
<glyph unicode="|" glyph-name="bar" horiz-adv-x="238" d="M144 -199Q126 -209 103 -216L96 -213Q96 476 89 723Q123 737 141 750L146 749Q144 607 144 -199Z" />
<glyph unicode="}" glyph-name="braceright" horiz-adv-x="288" d="M124 697T167 655T211 568T198 439T184 309Q184 271 256 255L252 236Q184 223 184 187Q184 140 197 58T211 -71T168 -159T76 -215L72 -201Q99 -187 123 -161T156 -108Q156 -61 134 33T111 167Q125
201 202 246V250Q125 295 111 329Q111 369 133 463T156 604Q147 631 123 657T72 697L76 711Q124 697 167 655Z" />
<glyph unicode="~" glyph-name="asciitilde" horiz-adv-x="590" d="M404 258Q473 258 522 316L540 305Q520 267 476 234T389 188Q356 188 279 221T169 254Q103 254 68 200L50 211Q72 252 119 287T211 328Q254 299 307 279T404 258Z" />
<glyph unicode="&#xa1;" glyph-name="exclamdown" horiz-adv-x="226" d="M66 436Q73 447 90 462T120 486Q134 479 151 464T174 436Q167 423 150 403T120 375Q108 383 91 403T66 436ZM154 -183Q142 -189 118 -194T87 -200T77 -200Q66 -190 45 -160Q92 -3 107 299L133
301L154 -183Z" />
<glyph unicode="&#xa2;" glyph-name="cent" horiz-adv-x="450" d="M264 72Q319 72 378 125L388 115Q336 41 261 6L260 -92H255Q239 -87 228 -77L234 0Q153 4 115 58T76 206T123 378T250 490L254 588Q269 590 282 594L286 591Q281 557 278 500Q339 500 399 484V470Q360
422 356 365H334Q334 404 332 426Q294 436 276 437L263 72H264ZM194 98Q211 81 236 75L248 438Q210 436 185 414Q156 353 156 245T194 98Z" />
<glyph unicode="&#xa3;" glyph-name="sterling" horiz-adv-x="450" d="M104 136L99 241V242L60 239L51 245L57 291H103Q117 377 173 446T312 538Q381 538 440 522V508Q403 462 397 395H375Q375 436 372 459Q330 473 286 473T212 447Q181 382 181 293Q238 295 325
305L333 300L327 258L179 247Q172 150 130 88L133 85Q148 92 160 95Q168 95 176 95Q269 95 364 74Q374 96 387 132L408 125Q397 86 397 54T404 -8L392 -16Q238 30 103 30Q72 13 43 -16L26 -1Q63 36 98 88Q104 109 104 136Z" />
<glyph unicode="&#xa4;" glyph-name="currency" horiz-adv-x="567" d="M430 487L507 568Q549 554 560 552L562 548L463 455Q496 413 496 350Q496 261 439 198Q524 117 562 83L560 79Q549 77 507 63L406 168Q355 129 289 116Q207 116 152 152L61 63H56Q37 84 32
110Q57 131 115 185Q81 227 81 286Q81 370 133 431Q78 481 32 521Q37 547 56 568H61L166 464Q222 509 301 523Q377 523 430 487ZM423 384T385 426T281 469T186 443Q154 398 154 327T192 213T296 170T391 196Q423 241 423 312Z" />
<glyph unicode="&#xa5;" glyph-name="yen" horiz-adv-x="450" d="M-19 529Q41 523 91 523T201 534L206 514Q174 504 156 493Q169 434 249 271Q335 439 335 491Q335 510 322 523L325 530Q354 523 395 523T465 527L467 505Q432 501 413 492L269 246V245Q373 250
397 252Q401 232 406 221V216L269 214Q269 180 270 165Q375 170 397 172Q401 152 406 141V136L271 134Q272 85 280 30Q308 24 343 11L341 -8Q285 0 235 0T134 -6L131 13Q161 26 190 33Q194 67 197 132H186Q114 130 68 123L65 127Q71 147 72 159L198 163L199 212H186Q114
210 68 203L65 207Q71 227 72 239L190 243Q104 421 59 487Q11 496 -21 509L-19 529Z" />
<glyph unicode="&#xa6;" glyph-name="brokenbar" horiz-adv-x="245" d="M149 340Q131 330 108 323L101 326Q100 508 94 725Q128 739 146 752L151 751Q149 609 149 340ZM149 -198Q131 -208 108 -215L101 -212Q100 -30 94 187Q128 201 146 214L151 213Q149 71 149 -198Z" />
<glyph unicode="&#xa7;" glyph-name="section" horiz-adv-x="467" d="M347 144Q365 168 365 201T336 267T266 330T184 393Q85 470 85 535Q108 572 164 613T263 666Q327 666 387 650V636Q348 588 344 531H322Q322 570 320 592Q281 604 242 604T179 581Q172 569
172 547Q172 512 211 472T299 402T392 331T443 256Q435 231 409 192T361 131L347 144ZM125 10L127 -32V-36Q173 -53 216 -53T282 -30Q289 -18 289 4Q289 39 250 79T162 149T69 220T18 295Q26 320 52 359T100 420L114 407Q96 383 96 350T125 284T195 221T277 158Q376
81 376 16Q353 -21 297 -62T198 -115Q126 -115 60 -94V-80Q99 -32 103 25H125Q125 25 125 10Z" />
<glyph unicode="&#xa8;" glyph-name="dieresis" horiz-adv-x="293" d="M108 661Q101 648 84 628T54 600Q42 608 25 628T0 661Q6 673 23 688T54 711Q67 703 84 688T108 661ZM293 661Q286 648 269 628T239 600Q227 608 210 628T185 661Q191 673 208 688T239 711Q252
703 269 688T293 661Z" />
<glyph unicode="&#xa9;" glyph-name="copyright" horiz-adv-x="765" d="M294 261T313 219T384 177T484 221L496 208Q452 153 374 119Q299 119 261 164T223 287T271 436T392 531Q455 531 512 518L511 501Q494 499 487 494Q471 459 466 411H448Q441 441 441 464Q413
479 379 479T322 463Q294 409 294 335ZM42 184T42 325T141 566T382 666T623 566T723 325T623 85T382 -15T142 84ZM86 448T86 325T172 115T382 27T592 114T679 325T592 536T382 624T173 536Z" />
<glyph unicode="&#xaa;" glyph-name="ordfeminine" horiz-adv-x="410" d="M38 414Q38 498 85 568T210 666Q266 666 327 649Q340 669 347 692L364 687Q346 601 346 475T352 300Q367 293 392 293V275Q345 273 280 259L274 262Q283 315 283 389H280Q251 349 213 311T140
259Q93 259 66 308T38 414ZM109 451Q109 412 122 370T162 328Q190 328 230 367T283 439Q283 558 277 594Q240 614 198 614T135 594Q109 533 109 451Z" />
<glyph unicode="&#xab;" glyph-name="guillemotleft" horiz-adv-x="413" d="M111 283L219 125L199 111Q106 218 21 269V289Q116 341 199 439L218 426L111 283ZM287 285L385 142L365 128Q274 224 197 271V291Q297 346 365 426L384 413L287 285Z" />
<glyph unicode="&#xac;" glyph-name="logicalnot" horiz-adv-x="550" d="M447 238H59L51 245L60 296Q229 287 339 287T488 290L494 284Q494 220 499 88L494 82L447 91V238Z" />
<glyph unicode="&#xae;" glyph-name="registered" horiz-adv-x="434" d="M21 418T21 500T78 639T217 696T356 639T413 500T356 361T217 304T78 361ZM57 568T57 500T103 385T217 338T329 385T375 500T330 614T217 660T104 614ZM129 605L219 608Q255 608 274 599T293
556T256 508L299 420L319 415V404Q298 407 277 407T240 405L238 412Q244 417 244 434T218 503Q210 506 203 506L204 517H208Q247 517 247 556Q247 590 214 590Q205 590 197 587Q196 568 196 501T199 420L221 415L220 404Q197 407 173 407T125 404V415Q137 418 150
420Q154 460 154 514T151 589Q139 593 129 593V605Z" />
<glyph unicode="&#xaf;" glyph-name="overscore" horiz-adv-x="274" d="M9 674Q99 668 160 668T266 672L274 667L265 621L9 618L0 624L9 674Z" />
<glyph unicode="&#xb0;" glyph-name="degree" horiz-adv-x="367" d="M125 396T85 425T45 512T86 613T192 667Q250 667 286 637T322 550T284 451T184 396Q125 396 85 425ZM265 573T242 600T179 628T121 611Q102 582 102 537T125 463T188 435T246 452Q265 481 265 527Z" />
<glyph unicode="&#xb1;" glyph-name="plusminus" horiz-adv-x="550" d="M299 267Q299 185 308 90L262 81L252 88V267H66L58 274L67 325Q189 319 252 318V476L299 485L304 479Q299 391 299 318V317Q336 316 396 316T495 319L501 313L492 267H299ZM59 58Q229 49
338 49T487 52L493 46L484 0H58L50 7L59 58Z" />
<glyph unicode="&#xb2;" glyph-name="twosuperior" horiz-adv-x="372" d="M143 422Q157 423 192 423T293 414Q303 433 313 461L330 455Q321 425 321 399T327 346L317 339Q173 369 75 369Q61 355 49 339L32 347Q50 384 102 438T192 543T231 628Q231 694 161 694Q133
694 110 683Q105 671 105 656T113 635V629Q101 622 73 596Q50 598 50 620Q50 657 94 694T184 746Q250 746 281 714T312 616Q236 517 122 418L124 415Q135 420 143 422Z" />
<glyph unicode="&#xb3;" glyph-name="threesuperior" horiz-adv-x="334" d="M78 460Q78 433 79 418Q127 391 163 391T209 403Q218 426 218 464T195 528T125 555L122 559L207 678L205 681Q194 676 186 674Q141 674 91 679Q81 661 75 637L58 643Q63 671 63 694T56
739L65 745Q151 727 268 727Q282 735 291 745L304 734Q283 715 185 600Q289 581 289 462Q276 425 238 389T160 339Q89 339 30 365V377Q53 409 60 460H78Z" />
<glyph unicode="&#xb4;" glyph-name="acute" horiz-adv-x="200" d="M132 727Q142 728 153 728T175 726Q182 718 190 698T200 667L11 558L0 576Q37 601 72 643T132 727Z" />
<glyph unicode="&#xb5;" glyph-name="mu" horiz-adv-x="529" d="M451 480Q431 411 431 258T438 33Q462 25 492 25V4Q428 1 357 -15L350 -13Q361 56 361 145L357 146Q323 98 270 49T173 -15Q148 -15 136 -1Q136 -106 157 -196L154 -199Q110 -207 78 -219L69 -212Q82
-118 92 331Q92 342 92 383T86 467L90 470Q147 476 182 485L188 480Q153 337 153 172Q153 92 174 76Q184 67 201 67Q239 67 291 115T361 207Q361 396 347 470Q407 476 445 485L451 480Z" />
<glyph unicode="&#xb6;" glyph-name="paragraph" horiz-adv-x="512" d="M201 658L491 649V624Q441 624 393 608Q382 514 382 325V126Q371 39 311 -38T174 -115Q162 -115 153 -108T143 -88Q170 -63 185 -38L192 -37Q203 -47 233 -47T277 -40Q305 29 305 114Q305
119 305 125V325Q305 523 296 617Q285 620 272 620T248 617Q240 560 240 455T262 310L260 296Q253 295 238 295Q141 295 68 350T-5 494Q-5 658 201 658Z" />
<glyph unicode="&#xb7;" glyph-name="middot" horiz-adv-x="212" d="M160 284Q153 271 136 251T106 223Q94 231 77 251T52 284Q58 296 75 311T106 334Q119 326 136 311T160 284Z" />
<glyph unicode="&#xb8;" glyph-name="cedilla" horiz-adv-x="184" d="M88 -178Q106 -178 114 -173Q123 -160 123 -142Q123 -97 40 -97L34 -93L72 14L101 16L77 -46L81 -49Q127 -49 155 -70T184 -133Q170 -160 144 -182T88 -215Q44 -215 0 -194Q10 -175 16 -155L20
-153Q52 -178 88 -178Z" />
<glyph unicode="&#xb9;" glyph-name="onesuperior" horiz-adv-x="303" d="M133 507V574Q133 618 130 665H70L68 667Q68 678 70 684Q142 704 180 744Q192 746 206 746L209 744Q198 663 198 574V507Q198 426 204 380Q229 372 249 363L246 346Q206 352 161 352T77
345L75 362Q100 373 125 378Q133 447 133 507Z" />
<glyph unicode="&#xba;" glyph-name="ordmasculine" horiz-adv-x="395" d="M126 259T79 307T32 432T80 577T206 666Q283 666 323 622T363 501T317 356T198 259Q126 259 79 307ZM184 613Q150 613 130 594Q103 541 103 476T132 362T212 313Q244 313 266 333Q292
380 292 450T265 567T184 613Z" />
<glyph unicode="&#xbb;" glyph-name="guillemotright" horiz-adv-x="413" d="M194 125L302 283L197 426L214 439Q297 341 392 289V269Q307 218 214 111L194 125ZM28 142L126 285L31 413L48 426Q116 346 216 291V271Q139 224 48 128L28 142Z" />
<glyph unicode="&#xbc;" glyph-name="onequarter" horiz-adv-x="830" d="M729 263V156Q784 156 795 188L809 184Q804 159 804 140T804 111L800 109Q776 111 730 111Q730 66 735 41Q748 34 780 25L777 7Q737 13 688 13T606 5L604 22Q631 34 658 39Q663 68 663 111H474L470
123Q607 283 661 389Q697 393 732 406L738 404Q729 356 729 263ZM151 -42L146 -41Q129 -27 117 -1Q210 117 242 160L496 511Q555 593 628 704Q650 699 681 697L685 694Q653 654 549 510L151 -42ZM133 427V494Q133 538 130 585H70L68 587Q68 598 70 604Q142 624
180 664Q192 666 206 666L209 664Q198 583 198 494V427Q198 346 204 300Q229 292 249 283L246 266Q206 272 161 272T77 265L75 282Q100 293 125 298Q133 367 133 427ZM660 331Q627 261 555 163Q599 157 663 157L665 331H660Z" />
<glyph unicode="&#xbd;" glyph-name="onehalf" horiz-adv-x="830" d="M151 -42L146 -41Q129 -27 117 -1Q210 117 242 160L496 511Q555 593 628 704Q650 699 681 697L685 694Q653 654 549 510L151 -42ZM133 427V494Q133 538 130 585H70L68 587Q68 598 70 604Q142
624 180 664Q192 666 206 666L209 664Q198 583 198 494V427Q198 346 204 300Q229 292 249 283L246 266Q206 272 161 272T77 265L75 282Q100 293 125 298Q133 367 133 427ZM600 83Q615 84 650 84T750 75Q760 94 770 122L787 116Q778 86 778 60T784 7L774 0Q630 30
532 30Q518 16 506 0L489 8Q507 45 559 99T649 204T688 290Q688 355 618 355Q590 355 567 344Q562 332 562 317T570 296V290Q558 283 530 257Q507 259 507 281Q507 318 551 355T641 407Q707 407 738 375T769 277Q693 178 579 79L581 76Q592 81 600 83Z" />
<glyph unicode="&#xbe;" glyph-name="threequarters" horiz-adv-x="830" d="M729 263V156Q784 156 795 188L809 184Q804 159 804 140T804 111L800 109Q776 111 730 111Q730 66 735 41Q748 34 780 25L777 7Q737 13 688 13T606 5L604 22Q631 34 658 39Q663 68 663
111H474L470 123Q607 283 661 389Q697 393 732 406L738 404Q729 356 729 263ZM78 380Q78 353 79 338Q127 311 163 311T209 323Q218 346 218 384T195 448T125 475L122 479L207 598L205 601Q194 596 186 594Q141 594 91 599Q81 581 75 557L58 563Q63 591 63 614T56
659L65 665Q151 647 268 647Q282 655 291 665L304 654Q283 635 185 520Q289 501 289 382Q276 345 238 309T160 259Q89 259 30 285V297Q53 329 60 380H78ZM151 -42L146 -41Q129 -27 117 -1Q210 117 242 160L496 511Q555 593 628 704Q650 699 681 697L685 694Q653
654 549 510L151 -42ZM660 331Q627 261 555 163Q599 157 663 157L665 331H660Z" />
<glyph unicode="&#xbf;" glyph-name="questiondown" horiz-adv-x="335" d="M128 436Q135 447 152 462T182 486Q196 479 213 464T236 436Q229 423 212 403T182 375Q170 383 153 403T128 436ZM96 -79Q96 -116 120 -134T181 -153T246 -139Q253 -127 253 -107T243
-78L244 -71Q270 -55 292 -31Q304 -32 311 -40T318 -60Q318 -106 265 -152T156 -215Q75 -215 38 -176T0 -56Q63 34 158 129Q165 218 169 299L195 301L216 162V143Q96 23 96 -79Z" />
<glyph unicode="&#xc0;" glyph-name="Agrave" horiz-adv-x="599" d="M370 731L164 806Q163 816 168 837T179 868Q199 875 221 877Q296 787 378 751L370 731ZM479 607T474 533T469 295T482 35Q535 30 592 16L589 -8Q515 0 429 0T289 -8L285 17Q330 31 381 38Q389
104 392 251Q340 257 278 257T172 251Q148 153 148 94T191 10L187 -4Q156 0 83 0T-50 -8L-54 17Q-9 31 42 38L200 598Q82 598 49 566Q42 552 42 522T52 481L51 474Q26 459 1 432Q-11 433 -18 442T-26 463Q-26 512 33 580T143 666Q294 649 449 637Q463 655 472 683L493
677Q479 607 474 533ZM183 301Q228 294 289 294T392 301Q392 478 387 590L384 593Q332 598 255 598L183 301Z" />
<glyph unicode="&#xc1;" glyph-name="Aacute" horiz-adv-x="599" d="M529 797L323 722L315 742Q397 778 472 868Q494 866 514 859Q519 850 524 829T529 797ZM479 607T474 533T469 295T482 35Q535 30 592 16L589 -8Q515 0 429 0T289 -8L285 17Q330 31 381 38Q389
104 392 251Q340 257 278 257T172 251Q148 153 148 94T191 10L187 -4Q156 0 83 0T-50 -8L-54 17Q-9 31 42 38L200 598Q82 598 49 566Q42 552 42 522T52 481L51 474Q26 459 1 432Q-11 433 -18 442T-26 463Q-26 512 33 580T143 666Q294 649 449 637Q463 655 472 683L493
677Q479 607 474 533ZM183 301Q228 294 289 294T392 301Q392 478 387 590L384 593Q332 598 255 598L183 301Z" />
<glyph unicode="&#xc2;" glyph-name="Acircumflex" horiz-adv-x="599" d="M509 715L348 790L187 715L177 734Q269 792 338 885H358Q427 792 519 734L509 715ZM479 607T474 533T469 295T482 35Q535 30 592 16L589 -8Q515 0 429 0T289 -8L285 17Q330 31 381 38Q389
104 392 251Q340 257 278 257T172 251Q148 153 148 94T191 10L187 -4Q156 0 83 0T-50 -8L-54 17Q-9 31 42 38L200 598Q82 598 49 566Q42 552 42 522T52 481L51 474Q26 459 1 432Q-11 433 -18 442T-26 463Q-26 512 33 580T143 666Q294 649 449 637Q463 655 472 683L493
677Q479 607 474 533ZM183 301Q228 294 289 294T392 301Q392 478 387 590L384 593Q332 598 255 598L183 301Z" />
<glyph unicode="&#xc3;" glyph-name="Atilde" horiz-adv-x="599" d="M311 837Q370 806 422 806T495 830L513 819Q457 758 409 737Q388 737 337 752T264 768Q221 768 201 744L183 755Q239 816 311 837ZM479 607T474 533T469 295T482 35Q535 30 592 16L589 -8Q515
0 429 0T289 -8L285 17Q330 31 381 38Q389 104 392 251Q340 257 278 257T172 251Q148 153 148 94T191 10L187 -4Q156 0 83 0T-50 -8L-54 17Q-9 31 42 38L200 598Q82 598 49 566Q42 552 42 522T52 481L51 474Q26 459 1 432Q-11 433 -18 442T-26 463Q-26 512 33 580T143
666Q294 649 449 637Q463 655 472 683L493 677Q479 607 474 533ZM183 301Q228 294 289 294T392 301Q392 478 387 590L384 593Q332 598 255 598L183 301Z" />
<glyph unicode="&#xc4;" glyph-name="Adieresis" horiz-adv-x="599" d="M310 803Q303 790 286 770T256 742Q244 750 227 770T202 803Q208 815 225 830T256 853Q269 845 286 830T310 803ZM495 803Q488 790 471 770T441 742Q429 750 412 770T387 803Q393 815 410
830T441 853Q454 845 471 830T495 803ZM479 607T474 533T469 295T482 35Q535 30 592 16L589 -8Q515 0 429 0T289 -8L285 17Q330 31 381 38Q389 104 392 251Q340 257 278 257T172 251Q148 153 148 94T191 10L187 -4Q156 0 83 0T-50 -8L-54 17Q-9 31 42 38L200 598Q82
598 49 566Q42 552 42 522T52 481L51 474Q26 459 1 432Q-11 433 -18 442T-26 463Q-26 512 33 580T143 666Q294 649 449 637Q463 655 472 683L493 677Q479 607 474 533ZM183 301Q228 294 289 294T392 301Q392 478 387 590L384 593Q332 598 255 598L183 301Z" />
<glyph unicode="&#xc5;" glyph-name="Aring" horiz-adv-x="599" d="M479 607T474 533T469 295T482 35Q535 30 592 16L589 -8Q515 0 429 0T289 -8L285 17Q330 31 381 38Q389 104 392 251Q340 257 278 257T172 251Q148 153 148 94T191 10L187 -4Q156 0 83 0T-50
-8L-54 17Q-9 31 42 38L200 598Q82 598 49 566Q42 552 42 522T52 481L51 474Q26 459 1 432Q-11 433 -18 442T-26 463Q-26 512 33 580T143 666Q294 649 449 637Q463 655 472 683L493 677Q479 607 474 533ZM183 301Q228 294 289 294T392 301Q392 478 387 590L384
593Q332 598 255 598L183 301ZM299 704T271 723T243 779T272 846T345 885Q436 885 436 811Q436 772 410 745T340 704Q299 704 271 723ZM389 818T374 834T335 850T301 841Q290 824 290 798T306 756T344 739T378 748Q389 764 389 791Z" />
<glyph unicode="&#xc6;" glyph-name="AE" horiz-adv-x="744" d="M193 682Q331 651 467 651T733 662L737 642Q685 589 678 484H653Q644 527 644 593Q601 614 545 614T460 609Q443 557 435 365Q466 358 512 358Q601 358 621 401L641 397Q632 365 632 321T638 233L615
229Q600 267 595 318Q558 321 513 321T434 316V273Q434 178 458 124Q484 64 570 64Q642 64 718 142L732 129Q649 19 549 -15Q438 -15 395 53T352 241Q352 247 353 315Q322 321 276 321T205 315Q153 144 153 88T191 10L187 -4Q156 0 83 0T-50 -8L-54 17Q-9 31 42
38L250 614Q132 614 99 582Q92 568 92 538T102 497L101 490Q76 475 51 448Q39 449 32 458T24 479Q24 528 83 596T193 682ZM223 364Q246 358 288 358T355 365Q361 475 363 511T366 571T363 611Q349 614 331 614T295 611L223 364Z" />
<glyph unicode="&#xc7;" glyph-name="Ccedilla" horiz-adv-x="498" d="M238 -11Q42 17 42 276Q42 403 115 517T313 666Q414 666 519 647L518 625Q492 625 470 616Q445 557 437 478H412Q403 518 403 571Q356 596 291 596T182 560Q131 473 131 339Q131 139 217 86Q253
64 304 64Q385 64 467 142L481 129Q398 23 283 -15Q270 -15 264 -14L252 -46L256 -49Q302 -49 330 -70T359 -133Q345 -160 319 -182T263 -215Q219 -215 175 -194Q185 -175 191 -155L195 -153Q227 -178 263 -178Q281 -178 289 -173Q298 -160 298 -142Q298 -97 215
-97L209 -93L238 -11Z" />
<glyph unicode="&#xc8;" glyph-name="Egrave" horiz-adv-x="513" d="M335 731L129 806Q128 816 133 837T144 868Q164 875 186 877Q261 787 343 751L335 731ZM395 566Q347 594 281 594T174 560Q173 546 173 533Q173 373 344 373L339 336H327Q248 336 197 305T145
203T193 95T306 56T408 80Q415 94 415 124T405 165L406 172Q431 187 456 214Q468 213 475 204T483 183Q483 122 426 65T300 -15Q193 -15 122 37T51 185Q51 254 109 300T241 346V350Q173 354 128 388T82 482Q118 546 177 597T305 666Q376 666 445 647Q461 655 486
678L507 664Q441 584 426 473H400Q400 528 395 566Z" />
<glyph unicode="&#xc9;" glyph-name="Eacute" horiz-adv-x="513" d="M477 797L271 722L263 742Q345 778 420 868Q442 866 462 859Q467 850 472 829T477 797ZM394 566Q346 594 280 594T173 560Q172 546 172 533Q172 373 343 373L338 336H326Q247 336 196 305T144
203T192 95T305 56T407 80Q414 94 414 124T404 165L405 172Q430 187 455 214Q467 213 474 204T482 183Q482 122 425 65T299 -15Q192 -15 121 37T50 185Q50 254 108 300T240 346V350Q172 354 127 388T81 482Q117 546 176 597T304 666Q375 666 444 647Q460 655 485
678L506 664Q440 584 425 473H399Q399 528 394 566Z" />
<glyph unicode="&#xca;" glyph-name="Ecircumflex" horiz-adv-x="513" d="M464 715L303 790L142 715L132 734Q224 792 293 885H313Q382 792 474 734L464 715ZM394 566Q346 594 280 594T173 560Q172 546 172 533Q172 373 343 373L338 336H326Q247 336 196 305T144
203T192 95T305 56T407 80Q414 94 414 124T404 165L405 172Q430 187 455 214Q467 213 474 204T482 183Q482 122 425 65T299 -15Q192 -15 121 37T50 185Q50 254 108 300T240 346V350Q172 354 127 388T81 482Q117 546 176 597T304 666Q375 666 444 647Q460 655 485
678L506 664Q440 584 425 473H399Q399 528 394 566Z" />
<glyph unicode="&#xcb;" glyph-name="Edieresis" horiz-adv-x="513" d="M266 803Q259 790 242 770T212 742Q200 750 183 770T158 803Q164 815 181 830T212 853Q225 845 242 830T266 803ZM451 803Q444 790 427 770T397 742Q385 750 368 770T343 803Q349 815 366
830T397 853Q410 845 427 830T451 803ZM394 566Q346 594 280 594T173 560Q172 546 172 533Q172 373 343 373L338 336H326Q247 336 196 305T144 203T192 95T305 56T407 80Q414 94 414 124T404 165L405 172Q430 187 455 214Q467 213 474 204T482 183Q482 122 425
65T299 -15Q192 -15 121 37T50 185Q50 254 108 300T240 346V350Q172 354 127 388T81 482Q117 546 176 597T304 666Q375 666 444 647Q460 655 485 678L506 664Q440 584 425 473H399Q399 528 394 566Z" />
<glyph unicode="&#xcc;" glyph-name="Igrave" horiz-adv-x="337" d="M229 731L23 806Q22 816 27 837T38 868Q58 875 80 877Q155 787 237 751L229 731ZM218 616Q207 541 207 336T220 35Q273 30 330 16L327 -8Q253 0 167 0T27 -8L23 17Q68 31 119 38Q130 120 130
296V355Q130 517 117 613Q66 620 21 634L25 659Q78 651 164 651T325 659L328 635Q271 621 218 616Z" />
<glyph unicode="&#xcd;" glyph-name="Iacute" horiz-adv-x="337" d="M315 797L109 722L101 742Q183 778 258 868Q280 866 300 859Q305 850 310 829T315 797ZM218 616Q207 541 207 336T220 35Q273 30 330 16L327 -8Q253 0 167 0T27 -8L23 17Q68 31 119 38Q130 120
130 296V355Q130 517 117 613Q66 620 21 634L25 659Q78 651 164 651T325 659L328 635Q271 621 218 616Z" />
<glyph unicode="&#xce;" glyph-name="Icircumflex" horiz-adv-x="337" d="M335 715L174 790L13 715L3 734Q95 792 164 885H184Q253 792 345 734L335 715Z" />
<glyph unicode="&#xcf;" glyph-name="Idieresis" horiz-adv-x="337" d="M135 803Q128 790 111 770T81 742Q69 750 52 770T27 803Q33 815 50 830T81 853Q94 845 111 830T135 803ZM320 803Q313 790 296 770T266 742Q254 750 237 770T212 803Q218 815 235 830T266
853Q279 845 296 830T320 803ZM218 616Q207 541 207 336T220 35Q273 30 330 16L327 -8Q253 0 167 0T27 -8L23 17Q68 31 119 38Q130 120 130 296V355Q130 517 117 613Q66 620 21 634L25 659Q78 651 164 651T325 659L328 635Q271 621 218 616Z" />
<glyph unicode="&#xd0;" glyph-name="Eth" horiz-adv-x="620" d="M-25 566Q-32 552 -32 522T-22 481L-23 474Q-48 459 -73 432Q-85 433 -92 442T-100 463Q-100 509 -48 572T53 659Q138 651 305 651Q578 651 578 386Q578 247 505 134T307 -15Q235 -15 146 23Q129
-3 123 -22L102 -17Q126 91 126 324Q65 321 19 315L16 319Q22 339 23 351L126 354Q125 495 117 598Q6 596 -25 566ZM208 85Q262 57 331 57T438 91Q489 184 489 321T447 531T289 604Q243 604 212 599Q203 512 203 357Q315 361 348 364Q352 344 357 333V328L203 325Q203
173 208 85Z" />
<glyph unicode="&#xd1;" glyph-name="Ntilde" horiz-adv-x="706" d="M329 837Q388 806 440 806T513 830L531 819Q475 758 427 737Q406 737 355 752T282 768Q239 768 219 744L201 755Q257 816 329 837ZM523 296Q523 467 508 546T451 641L455 655Q486 651 556 651T685
659L688 636Q617 619 589 616Q576 518 576 355V296Q576 109 589 35Q640 29 685 17L681 -8Q628 0 575 0T488 -3Q488 30 423 144T187 525L183 523V355Q183 110 220 35Q275 30 329 16L327 -8Q253 0 167 0T27 -8L23 17Q68 31 119 38Q130 120 130 296V355Q130 496 118
596Q0 596 -33 564Q-40 550 -40 520T-30 479L-31 472Q-56 457 -81 430Q-93 431 -100 440T-108 461Q-108 510 -49 578T61 664Q73 663 128 657T220 651T287 657L291 632Q250 615 250 599Q255 572 307 486T519 150L523 152V296Z" />
<glyph unicode="&#xd2;" glyph-name="Ograve" horiz-adv-x="602" d="M375 731L169 806Q168 816 173 837T184 868Q204 875 226 877Q301 787 383 751L375 731ZM435 666T497 593T560 385T492 141T301 -15Q184 -15 113 62T42 265Q42 469 190 603L202 595Q131 492 131
339Q131 230 181 144T322 57Q381 57 421 92Q471 184 471 310Q471 475 408 552Q374 594 323 594Q297 594 275 579T244 540Q244 520 253 494T276 460L278 453Q256 426 245 396Q243 395 237 395Q201 395 201 459Q201 567 313 666Q435 666 497 593Z" />
<glyph unicode="&#xd3;" glyph-name="Oacute" horiz-adv-x="602" d="M485 797L279 722L271 742Q353 778 428 868Q450 866 470 859Q475 850 480 829T485 797ZM435 666T497 593T560 385T492 141T301 -15Q184 -15 113 62T42 265Q42 469 190 603L202 595Q131 492 131
339Q131 230 181 144T322 57Q381 57 421 92Q471 184 471 310Q471 475 408 552Q374 594 323 594Q297 594 275 579T244 540Q244 520 253 494T276 460L278 453Q256 426 245 396Q243 395 237 395Q201 395 201 459Q201 567 313 666Q435 666 497 593Z" />
<glyph unicode="&#xd4;" glyph-name="Ocircumflex" horiz-adv-x="602" d="M482 715L321 790L160 715L150 734Q242 792 311 885H331Q400 792 492 734L482 715ZM435 666T497 593T560 385T492 141T301 -15Q184 -15 113 62T42 265Q42 469 190 603L202 595Q131 492
131 339Q131 230 181 144T322 57Q381 57 421 92Q471 184 471 310Q471 475 408 552Q374 594 323 594Q297 594 275 579T244 540Q244 520 253 494T276 460L278 453Q256 426 245 396Q243 395 237 395Q201 395 201 459Q201 567 313 666Q435 666 497 593Z" />
<glyph unicode="&#xd5;" glyph-name="Otilde" horiz-adv-x="602" d="M285 837Q344 806 396 806T469 830L487 819Q431 758 383 737Q362 737 311 752T238 768Q195 768 175 744L157 755Q213 816 285 837ZM435 666T497 593T560 385T492 141T301 -15Q184 -15 113 62T42
265Q42 469 190 603L202 595Q131 492 131 339Q131 230 181 144T322 57Q381 57 421 92Q471 184 471 310Q471 475 408 552Q374 594 323 594Q297 594 275 579T244 540Q244 520 253 494T276 460L278 453Q256 426 245 396Q243 395 237 395Q201 395 201 459Q201 567 313
666Q435 666 497 593Z" />
<glyph unicode="&#xd6;" glyph-name="Odieresis" horiz-adv-x="602" d="M283 803Q276 790 259 770T229 742Q217 750 200 770T175 803Q181 815 198 830T229 853Q242 845 259 830T283 803ZM468 803Q461 790 444 770T414 742Q402 750 385 770T360 803Q366 815 383
830T414 853Q427 845 444 830T468 803ZM435 666T497 593T560 385T492 141T301 -15Q184 -15 113 62T42 265Q42 469 190 603L202 595Q131 492 131 339Q131 230 181 144T322 57Q381 57 421 92Q471 184 471 310Q471 475 408 552Q374 594 323 594Q297 594 275 579T244
540Q244 520 253 494T276 460L278 453Q256 426 245 396Q243 395 237 395Q201 395 201 459Q201 567 313 666Q435 666 497 593Z" />
<glyph unicode="&#xd7;" glyph-name="multiply" horiz-adv-x="550" d="M427 425L465 390L311 239Q348 201 405 150T475 89L447 50H436L278 205L120 50H109L81 89Q211 205 244 239L91 390L129 425L137 424Q180 376 278 273L419 424L427 425Z" />
<glyph unicode="&#xd8;" glyph-name="Oslash" horiz-adv-x="602" d="M158 -87H153Q137 -78 127 -63Q175 44 213 143L353 511Q393 615 431 732Q454 734 469 739L473 736Q453 689 158 -87ZM435 666T497 593T560 385T492 141T301 -15Q184 -15 113 62T42 265Q42 469
190 603L202 595Q131 492 131 339Q131 230 181 144T322 57Q381 57 421 92Q471 184 471 310Q471 475 408 552Q374 594 323 594Q297 594 275 579T244 540Q244 520 253 494T276 460L278 453Q256 426 245 396Q243 395 237 395Q201 395 201 459Q201 567 313 666Q435
666 497 593Z" />
<glyph unicode="&#xd9;" glyph-name="Ugrave" horiz-adv-x="665" d="M392 731L186 806Q185 816 190 837T201 868Q221 875 243 877Q318 787 400 751L392 731ZM197 549Q183 423 183 325T188 193T208 128Q237 66 320 66T453 112Q458 242 458 372T447 616Q396 623
351 637L355 659Q416 651 503 651T655 659L658 638Q601 624 548 619Q535 545 535 355V296Q535 109 548 35Q601 30 658 16L655 -8Q591 0 525 0T441 -1L438 13Q447 24 451 84Q393 19 305 -15Q192 -15 148 50T103 241Q103 298 110 422T117 561T114 596Q-4 596 -37
564Q-44 550 -44 520T-34 479L-35 472Q-60 457 -85 430Q-97 431 -104 440T-112 461Q-112 510 -53 578T57 664Q80 663 117 657T186 651T245 655L249 641Q204 616 197 549Z" />
<glyph unicode="&#xda;" glyph-name="Uacute" horiz-adv-x="665" d="M538 797L332 722L324 742Q406 778 481 868Q503 866 523 859Q528 850 533 829T538 797ZM197 549Q183 423 183 325T188 193T208 128Q237 66 320 66T453 112Q458 242 458 372T447 616Q396 623
351 637L355 659Q416 651 503 651T655 659L658 638Q601 624 548 619Q535 545 535 355V296Q535 109 548 35Q601 30 658 16L655 -8Q591 0 525 0T441 -1L438 13Q447 24 451 84Q393 19 305 -15Q192 -15 148 50T103 241Q103 298 110 422T117 561T114 596Q-4 596 -37
564Q-44 550 -44 520T-34 479L-35 472Q-60 457 -85 430Q-97 431 -104 440T-112 461Q-112 510 -53 578T57 664Q80 663 117 657T186 651T245 655L249 641Q204 616 197 549Z" />
<glyph unicode="&#xdb;" glyph-name="Ucircumflex" horiz-adv-x="665" d="M516 715L355 790L194 715L184 734Q276 792 345 885H365Q434 792 526 734L516 715ZM197 549Q183 423 183 325T188 193T208 128Q237 66 320 66T453 112Q458 242 458 372T447 616Q396 623
351 637L355 659Q416 651 503 651T655 659L658 638Q601 624 548 619Q535 545 535 355V296Q535 109 548 35Q601 30 658 16L655 -8Q591 0 525 0T441 -1L438 13Q447 24 451 84Q393 19 305 -15Q192 -15 148 50T103 241Q103 298 110 422T117 561T114 596Q-4 596 -37
564Q-44 550 -44 520T-34 479L-35 472Q-60 457 -85 430Q-97 431 -104 440T-112 461Q-112 510 -53 578T57 664Q80 663 117 657T186 651T245 655L249 641Q204 616 197 549Z" />
<glyph unicode="&#xdc;" glyph-name="Udieresis" horiz-adv-x="665" d="M317 803Q310 790 293 770T263 742Q251 750 234 770T209 803Q215 815 232 830T263 853Q276 845 293 830T317 803ZM502 803Q495 790 478 770T448 742Q436 750 419 770T394 803Q400 815 417
830T448 853Q461 845 478 830T502 803ZM197 549Q183 423 183 325T188 193T208 128Q237 66 320 66T453 112Q458 242 458 372T447 616Q396 623 351 637L355 659Q416 651 503 651T655 659L658 638Q601 624 548 619Q535 545 535 355V296Q535 109 548 35Q601 30 658
16L655 -8Q591 0 525 0T441 -1L438 13Q447 24 451 84Q393 19 305 -15Q192 -15 148 50T103 241Q103 298 110 422T117 561T114 596Q-4 596 -37 564Q-44 550 -44 520T-34 479L-35 472Q-60 457 -85 430Q-97 431 -104 440T-112 461Q-112 510 -53 578T57 664Q80 663 117
657T186 651T245 655L249 641Q204 616 197 549Z" />
<glyph unicode="&#xdd;" glyph-name="Yacute" horiz-adv-x="545" d="M493 797L287 722L279 742Q361 778 436 868Q458 866 478 859Q483 850 488 829T493 797ZM234 245V271L64 635Q25 719 -21 740Q-39 740 -65 727T-97 701L-103 699Q-130 717 -163 727Q-166 733
-166 743T-150 763T-103 773Q-40 773 45 738T164 666Q185 576 210 512T291 337Q402 554 402 609Q402 631 382 641L386 655Q436 651 491 651T599 659L604 634Q556 619 507 613L311 298Q311 131 324 35Q377 30 434 16L431 -8Q357 0 271 0T131 -8L127 17Q172 31 223
38Q234 120 234 245Z" />
<glyph unicode="&#xde;" glyph-name="Thorn" horiz-adv-x="517" d="M211 525L305 528Q511 528 511 364Q511 275 438 220T268 165Q253 165 246 166L250 198H262Q337 198 377 236T417 347T386 455T288 491Q248 491 210 478H209Q207 438 207 285T220 35Q273 30 330
16L327 -8Q253 0 167 0T27 -8L23 17Q68 31 119 38Q130 120 130 296V355Q130 517 117 613Q66 620 21 634L25 659Q78 651 164 651T325 659L328 635Q271 621 218 616Q214 597 211 525Z" />
<glyph unicode="&#xdf;" glyph-name="germandbls" horiz-adv-x="833" d="M157 57T202 57T274 78T301 138Q301 178 188 237Q145 259 110 290T74 353Q74 406 130 460T245 533Q319 533 379 518V500Q337 458 332 385H307Q307 413 302 455Q267 471 227 471T161 454T134
403Q134 380 169 353T247 305T324 253T360 191Q360 131 307 72T190 -12Q127 -12 72 3Q56 -4 39 -20L21 -7Q77 54 83 144H108Q108 109 111 76Q157 57 202 57ZM578 57T623 57T695 78T722 138Q722 178 608 237Q566 259 531 290T495 353Q495 406 551 460T666 533Q740
533 800 518V500Q758 458 753 385H728Q728 413 723 455Q688 471 648 471T582 454T555 403Q555 380 590 353T668 305T745 253T781 191Q781 131 728 72T611 -12Q548 -12 493 3Q477 -4 460 -20L442 -7Q498 54 504 144H529Q529 109 532 76Q578 57 623 57Z" />
<glyph unicode="&#xe0;" glyph-name="agrave" horiz-adv-x="535" d="M108 532Q202 521 298 521T487 532L491 506Q461 494 429 488Q418 406 418 260T429 32Q449 29 503 17L499 -8Q451 0 376 0T261 -8L257 18Q291 29 334 34Q340 92 343 195Q296 200 249 200T167
195Q147 113 147 81Q147 32 182 12L178 -5Q155 0 91 0T-10 -8L-14 18Q10 27 52 34L182 490Q138 497 105 506L108 532ZM175 242Q214 236 261 236T343 242Q343 427 335 481Q301 483 285 483T234 481L175 242ZM158 726Q168 728 179 728T201 727Q225 685 260 643T333
576L322 558L133 667Q134 677 142 697T158 726Z" />
<glyph unicode="&#xe1;" glyph-name="aacute" horiz-adv-x="535" d="M108 532Q202 521 298 521T487 532L491 506Q461 494 429 488Q418 406 418 260T429 32Q449 29 503 17L499 -8Q451 0 376 0T261 -8L257 18Q291 29 334 34Q340 92 343 195Q296 200 249 200T167
195Q147 113 147 81Q147 32 182 12L178 -5Q155 0 91 0T-10 -8L-14 18Q10 27 52 34L182 490Q138 497 105 506L108 532ZM175 242Q214 236 261 236T343 242Q343 427 335 481Q301 483 285 483T234 481L175 242ZM403 727Q413 728 424 728T446 726Q453 718 461 698T471
667L282 558L271 576Q308 601 343 643T403 727Z" />
<glyph unicode="&#xe2;" glyph-name="acircumflex" horiz-adv-x="535" d="M108 532Q202 521 298 521T487 532L491 506Q461 494 429 488Q418 406 418 260T429 32Q449 29 503 17L499 -8Q451 0 376 0T261 -8L257 18Q291 29 334 34Q340 92 343 195Q296 200 249 200T167
195Q147 113 147 81Q147 32 182 12L178 -5Q155 0 91 0T-10 -8L-14 18Q10 27 52 34L182 490Q138 497 105 506L108 532ZM175 242Q214 236 261 236T343 242Q343 427 335 481Q301 483 285 483T234 481L175 242ZM304 644L170 554L157 571Q241 642 294 739H314Q367 642
451 571L438 554L304 644Z" />
<glyph unicode="&#xe3;" glyph-name="atilde" horiz-adv-x="535" d="M108 532Q202 521 298 521T487 532L491 506Q461 494 429 488Q418 406 418 260T429 32Q449 29 503 17L499 -8Q451 0 376 0T261 -8L257 18Q291 29 334 34Q340 92 343 195Q296 200 249 200T167
195Q147 113 147 81Q147 32 182 12L178 -5Q155 0 91 0T-10 -8L-14 18Q10 27 52 34L182 490Q138 497 105 506L108 532ZM175 242Q214 236 261 236T343 242Q343 427 335 481Q301 483 285 483T234 481L175 242ZM276 696Q335 665 387 665T460 689L478 678Q422 617 374
596Q353 596 302 611T229 627Q186 627 166 603L148 614Q204 675 276 696Z" />
<glyph unicode="&#xe4;" glyph-name="adieresis" horiz-adv-x="535" d="M108 532Q202 521 298 521T487 532L491 506Q461 494 429 488Q418 406 418 260T429 32Q449 29 503 17L499 -8Q451 0 376 0T261 -8L257 18Q291 29 334 34Q340 92 343 195Q296 200 249 200T167
195Q147 113 147 81Q147 32 182 12L178 -5Q155 0 91 0T-10 -8L-14 18Q10 27 52 34L182 490Q138 497 105 506L108 532ZM175 242Q214 236 261 236T343 242Q343 427 335 481Q301 483 285 483T234 481L175 242ZM259 661Q252 648 235 628T205 600Q193 608 176 628T151
661Q157 673 174 688T205 711Q218 703 235 688T259 661ZM444 661Q437 648 420 628T390 600Q378 608 361 628T336 661Q342 673 359 688T390 711Q403 703 420 688T444 661Z" />
<glyph unicode="&#xe5;" glyph-name="aring" horiz-adv-x="514" d="M108 532Q202 521 298 521T487 532L491 506Q461 494 429 488Q418 406 418 260T429 32Q449 29 503 17L499 -8Q451 0 376 0T261 -8L257 18Q291 29 334 34Q340 92 343 195Q296 200 249 200T167 195Q147
113 147 81Q147 32 182 12L178 -5Q155 0 91 0T-10 -8L-14 18Q10 27 52 34L182 490Q138 497 105 506L108 532ZM175 242Q214 236 261 236T343 242Q343 427 335 481Q301 483 285 483T234 481L175 242ZM270 558T242 577T214 633T243 700T316 739Q407 739 407 665Q407
626 381 599T311 558Q270 558 242 577ZM360 672T345 688T306 704T272 695Q261 678 261 652T277 610T315 593T349 602Q360 618 360 645Z" />
<glyph unicode="&#xe6;" glyph-name="ae" horiz-adv-x="633" d="M137 532Q231 521 365 521T621 533L626 513Q586 471 581 391H556Q549 424 549 471Q514 488 467 488T401 484Q388 450 380 298Q415 291 449 291Q510 291 527 326L548 323Q539 293 539 264T546 193L522
189Q511 219 506 251Q466 255 444 255T380 250V220Q380 141 402 100T489 58T609 114L620 104Q552 16 472 -12Q303 -12 303 188Q303 193 304 250Q276 255 242 255T187 250Q148 111 148 70T178 12L174 -5Q151 0 88 0T-12 -8L-16 18Q8 27 50 34L208 490Q161 498 134
506L137 532ZM202 296Q221 291 253 291T305 297Q307 337 310 384T314 450T312 482Q300 485 286 485T259 482L202 296Z" />
<glyph unicode="&#xe7;" glyph-name="ccedilla" horiz-adv-x="387" d="M269 58Q227 58 198 74Q131 114 131 271Q131 372 170 443Q204 471 256 471T346 452Q346 416 354 382H379Q385 444 404 489Q421 496 440 496L441 518Q349 533 276 533Q175 504 110 412T45 216T100
50T252 -12Q346 20 413 105L399 119Q338 58 269 58ZM234 -178Q252 -178 260 -173Q269 -160 269 -142Q269 -97 186 -97L180 -93L218 14L247 16L223 -46L227 -49Q273 -49 301 -70T330 -133Q316 -160 290 -182T234 -215Q190 -215 146 -194Q156 -175 162 -155L166 -153Q198
-178 234 -178Z" />
<glyph unicode="&#xe8;" glyph-name="egrave" horiz-adv-x="448" d="M134 158T164 108T266 58T399 119L413 105Q346 20 252 -12Q155 -12 100 49T45 215T110 412T276 533Q349 533 441 518L440 496Q421 496 404 489Q385 444 379 382H354Q346 416 346 452Q308 471
256 471T170 443Q136 381 131 295Q173 288 221 288Q304 288 321 323L342 320Q333 290 333 261T340 190L316 186Q305 216 300 248Q260 252 221 252T131 247Q134 158 164 108ZM144 726Q154 728 165 728T187 727Q211 685 246 643T319 576L308 558L119 667Q120 677
128 697T144 726Z" />
<glyph unicode="&#xe9;" glyph-name="eacute" horiz-adv-x="448" d="M347 727Q357 728 368 728T390 726Q397 718 405 698T415 667L226 558L215 576Q252 601 287 643T347 727ZM134 158T164 108T266 58T399 119L413 105Q346 20 252 -12Q155 -12 100 49T45 215T110
412T276 533Q349 533 441 518L440 496Q421 496 404 489Q385 444 379 382H354Q346 416 346 452Q308 471 256 471T170 443Q136 381 131 295Q173 288 221 288Q304 288 321 323L342 320Q333 290 333 261T340 190L316 186Q305 216 300 248Q260 252 221 252T131 247Q134
158 164 108Z" />
<glyph unicode="&#xea;" glyph-name="ecircumflex" horiz-adv-x="448" d="M134 158T164 108T266 58T399 119L413 105Q346 20 252 -12Q155 -12 100 49T45 215T110 412T276 533Q349 533 441 518L440 496Q421 496 404 489Q385 444 379 382H354Q346 416 346 452Q308
471 256 471T170 443Q136 381 131 295Q173 288 221 288Q304 288 321 323L342 320Q333 290 333 261T340 190L316 186Q305 216 300 248Q260 252 221 252T131 247Q134 158 164 108ZM268 644L134 554L121 571Q205 642 258 739H278Q331 642 415 571L402 554L268 644Z"
/>
<glyph unicode="&#xeb;" glyph-name="edieresis" horiz-adv-x="448" d="M134 158T164 108T266 58T399 119L413 105Q346 20 252 -12Q155 -12 100 49T45 215T110 412T276 533Q349 533 441 518L440 496Q421 496 404 489Q385 444 379 382H354Q346 416 346 452Q308
471 256 471T170 443Q136 381 131 295Q173 288 221 288Q304 288 321 323L342 320Q333 290 333 261T340 190L316 186Q305 216 300 248Q260 252 221 252T131 247Q134 158 164 108ZM230 661Q223 648 206 628T176 600Q164 608 147 628T122 661Q128 673 145 688T176
711Q189 703 206 688T230 661ZM415 661Q408 648 391 628T361 600Q349 608 332 628T307 661Q313 673 330 688T361 711Q374 703 391 688T415 661Z" />
<glyph unicode="&#xec;" glyph-name="igrave" horiz-adv-x="309" d="M200 488Q192 434 192 267T201 33Q246 28 284 18L281 -7Q229 0 165 0T49 -8L45 18Q73 27 108 33Q117 105 117 237V284Q117 416 107 488Q72 494 44 503L48 529Q99 521 163 521T280 528L283 503Q245
493 200 488ZM55 726Q65 728 76 728T98 727Q122 685 157 643T230 576L219 558L30 667Q31 677 39 697T55 726Z" />
<glyph unicode="&#xed;" glyph-name="iacute" horiz-adv-x="309" d="M222 727Q232 728 243 728T265 726Q272 718 280 698T290 667L101 558L90 576Q127 601 162 643T222 727ZM200 488Q192 434 192 267T201 33Q246 28 284 18L281 -7Q229 0 165 0T49 -8L45 18Q73
27 108 33Q117 105 117 237V284Q117 416 107 488Q72 494 44 503L48 529Q99 521 163 521T280 528L283 503Q245 493 200 488Z" />
<glyph unicode="&#xee;" glyph-name="icircumflex" horiz-adv-x="309" d="M200 488Q192 434 192 267T201 33Q246 28 284 18L281 -7Q229 0 165 0T49 -8L45 18Q73 27 108 33Q117 105 117 237V284Q117 416 107 488Q72 494 44 503L48 529Q99 521 163 521T280 528L283
503Q245 493 200 488ZM161 644L27 554L14 571Q98 642 151 739H171Q224 642 308 571L295 554L161 644Z" />
<glyph unicode="&#xef;" glyph-name="idieresis" horiz-adv-x="309" d="M130 661Q123 648 106 628T76 600Q64 608 47 628T22 661Q28 673 45 688T76 711Q89 703 106 688T130 661ZM301 661Q294 648 277 628T247 600Q235 608 218 628T193 661Q199 673 216 688T247
711Q260 703 277 688T301 661ZM200 488Q192 434 192 267T201 33Q246 28 284 18L281 -7Q229 0 165 0T49 -8L45 18Q73 27 108 33Q117 105 117 237V284Q117 416 107 488Q72 494 44 503L48 529Q99 521 163 521T280 528L283 503Q245 493 200 488Z" />
<glyph unicode="&#xf0;" glyph-name="eth" horiz-adv-x="539" d="M36 519L266 526Q380 526 441 472T503 311T436 110T268 -12Q242 -12 201 -3T132 18Q121 5 112 -19L91 -14Q110 79 110 254Q79 253 32 246L29 250Q35 270 36 282L110 285Q109 418 101 481Q67 494
36 494V519ZM362 453T330 472T259 491T192 480Q185 419 185 289Q269 293 291 295Q295 275 300 264V259L185 258Q185 129 189 75Q239 52 291 52T375 79Q413 151 413 256Q413 354 380 419Q362 453 330 472Z" />
<glyph unicode="&#xf1;" glyph-name="ntilde" horiz-adv-x="623" d="M276 696Q335 665 387 665T460 689L478 678Q422 617 374 596Q353 596 302 611T229 627Q186 627 166 603L148 614Q204 675 276 696ZM284 -7Q232 0 168 0T52 -8L48 18Q80 28 108 33Q117 111 117
237V284Q117 418 107 490Q80 493 42 506L45 532Q102 521 164 521T254 528L256 511Q229 504 229 488Q229 476 252 438T298 363Q364 258 454 105L457 107V229Q457 363 443 430T395 509L397 526Q423 521 475 521T582 532L585 506Q544 493 516 490Q506 410 506 284V237Q506
85 516 31Q558 24 583 15L580 -11Q530 0 486 0T418 -4Q418 18 388 70T332 162Q251 293 173 428L169 426V292Q169 93 199 33Q244 28 287 18L284 -7Z" />
<glyph unicode="&#xf2;" glyph-name="ograve" horiz-adv-x="526" d="M164 -12T103 50T42 218T106 415T273 533Q376 533 430 475T484 308T426 113T263 -12Q164 -12 103 50ZM246 472Q201 472 168 447Q127 377 127 271Q127 149 195 84Q231 49 280 49T359 75Q399 145
399 246T363 409T246 472ZM138 726Q148 728 159 728T181 727Q205 685 240 643T313 576L302 558L113 667Q114 677 122 697T138 726Z" />
<glyph unicode="&#xf3;" glyph-name="oacute" horiz-adv-x="526" d="M164 -12T103 50T42 218T106 415T273 533Q376 533 430 475T484 308T426 113T263 -12Q164 -12 103 50ZM246 472Q201 472 168 447Q127 377 127 271Q127 149 195 84Q231 49 280 49T359 75Q399 145
399 246T363 409T246 472ZM351 727Q361 728 372 728T394 726Q401 718 409 698T419 667L230 558L219 576Q256 601 291 643T351 727Z" />
<glyph unicode="&#xf4;" glyph-name="ocircumflex" horiz-adv-x="526" d="M164 -12T103 50T42 218T106 415T273 533Q376 533 430 475T484 308T426 113T263 -12Q164 -12 103 50ZM246 472Q201 472 168 447Q127 377 127 271Q127 149 195 84Q231 49 280 49T359 75Q399
145 399 246T363 409T246 472ZM266 644L132 554L119 571Q203 642 256 739H276Q329 642 413 571L400 554L266 644Z" />
<glyph unicode="&#xf5;" glyph-name="otilde" horiz-adv-x="526" d="M164 -12T103 50T42 218T106 415T273 533Q376 533 430 475T484 308T426 113T263 -12Q164 -12 103 50ZM246 472Q201 472 168 447Q127 377 127 271Q127 149 195 84Q231 49 280 49T359 75Q399 145
399 246T363 409T246 472ZM236 696Q295 665 347 665T420 689L438 678Q382 617 334 596Q313 596 262 611T189 627Q146 627 126 603L108 614Q164 675 236 696Z" />
<glyph unicode="&#xf6;" glyph-name="odieresis" horiz-adv-x="526" d="M164 -12T103 50T42 218T106 415T273 533Q376 533 430 475T484 308T426 113T263 -12Q164 -12 103 50ZM246 472Q201 472 168 447Q127 377 127 271Q127 149 195 84Q231 49 280 49T359 75Q399
145 399 246T363 409T246 472ZM228 661Q221 648 204 628T174 600Q162 608 145 628T120 661Q126 673 143 688T174 711Q187 703 204 688T228 661ZM413 661Q406 648 389 628T359 600Q347 608 330 628T305 661Q311 673 328 688T359 711Q372 703 389 688T413 661Z" />
<glyph unicode="&#xf7;" glyph-name="divide" horiz-adv-x="550" d="M318 402T318 385T304 354T274 339T244 353T229 385T243 416T274 430T304 416ZM318 129T318 112T304 81T274 66T244 80T229 111T243 142T274 157T304 143ZM62 280Q232 271 341 271T490 274L496
268L487 222H61L53 229L62 280Z" />
<glyph unicode="&#xf8;" glyph-name="oslash" horiz-adv-x="526" d="M134 -87H129Q113 -78 103 -63Q151 44 189 143L284 393Q324 497 362 614Q385 616 400 621L404 618Q383 570 134 -87ZM164 -12T103 50T42 218T106 415T273 533Q376 533 430 475T484 308T426 113T263
-12Q164 -12 103 50ZM246 472Q201 472 168 447Q127 377 127 271Q127 149 195 84Q231 49 280 49T359 75Q399 145 399 246T363 409T246 472Z" />
<glyph unicode="&#xf9;" glyph-name="ugrave" horiz-adv-x="578" d="M461 284V237Q461 100 471 32Q517 26 547 18L544 -7Q495 0 444 0T373 -3L369 10Q378 20 381 67Q329 13 261 -12Q89 -12 89 193Q89 238 96 337T103 453T97 486V487Q55 494 30 502L34 529Q92 521
139 521T216 526L220 509Q184 490 178 440Q166 344 166 243T189 100T277 57T382 94Q386 174 386 283T378 488Q333 493 295 503L298 528Q350 521 414 521T530 529L534 503Q506 494 471 488Q461 421 461 284ZM157 726Q167 728 178 728T200 727Q224 685 259 643T332
576L321 558L132 667Q133 677 141 697T157 726Z" />
<glyph unicode="&#xfa;" glyph-name="uacute" horiz-adv-x="582" d="M395 727Q405 728 416 728T438 726Q445 718 453 698T463 667L274 558L263 576Q300 601 335 643T395 727ZM465 421T465 284V237Q465 100 475 32Q521 26 551 18L548 -7Q499 0 448 0T377 -3L373
10Q382 20 385 67Q333 13 265 -12Q93 -12 93 193Q93 238 100 337T107 453T101 486V487Q59 494 34 502L38 529Q96 521 143 521T220 526L224 509Q188 490 182 440Q170 344 170 243T193 100T281 57T386 94Q390 174 390 283T382 488Q337 493 299 503L302 528Q354 521
418 521T534 529L538 503Q510 494 475 488Q465 421 465 284Z" />
<glyph unicode="&#xfb;" glyph-name="ucircumflex" horiz-adv-x="578" d="M461 284V237Q461 100 471 32Q517 26 547 18L544 -7Q495 0 444 0T373 -3L369 10Q378 20 381 67Q329 13 261 -12Q89 -12 89 193Q89 238 96 337T103 453T97 486V487Q55 494 30 502L34 529Q92
521 139 521T216 526L220 509Q184 490 178 440Q166 344 166 243T189 100T277 57T382 94Q386 174 386 283T378 488Q333 493 295 503L298 528Q350 521 414 521T530 529L534 503Q506 494 471 488Q461 421 461 284ZM284 644L150 554L137 571Q221 642 274 739H294Q347
642 431 571L418 554L284 644Z" />
<glyph unicode="&#xfc;" glyph-name="udieresis" horiz-adv-x="578" d="M461 284V237Q461 100 471 32Q517 26 547 18L544 -7Q495 0 444 0T373 -3L369 10Q378 20 381 67Q329 13 261 -12Q89 -12 89 193Q89 238 96 337T103 453T97 486V487Q55 494 30 502L34 529Q92
521 139 521T216 526L220 509Q184 490 178 440Q166 344 166 243T189 100T277 57T382 94Q386 174 386 283T378 488Q333 493 295 503L298 528Q350 521 414 521T530 529L534 503Q506 494 471 488Q461 421 461 284ZM246 661Q239 648 222 628T192 600Q180 608 163 628T138
661Q144 673 161 688T192 711Q205 703 222 688T246 661ZM431 661Q424 648 407 628T377 600Q365 608 348 628T323 661Q329 673 346 688T377 711Q390 703 407 688T431 661Z" />
<glyph unicode="&#xfd;" glyph-name="yacute" horiz-adv-x="542" d="M348 487Q348 503 321 509L325 526Q355 521 403 521T510 529L514 503Q488 494 448 488L282 238Q282 108 292 33Q336 28 374 18L371 -7Q319 0 252 0T133 -8L129 18Q148 24 197 33Q206 87 206
196V217Q90 451 59 489Q31 492 -3 503L1 529Q41 521 116 521T239 529L243 504Q197 493 164 489Q198 385 259 270Q348 443 348 487ZM389 727Q399 728 410 728T432 726Q439 718 447 698T457 667L268 558L257 576Q294 601 329 643T389 727Z" />
<glyph unicode="&#xfe;" glyph-name="thorn" horiz-adv-x="455" d="M193 380Q192 348 192 224T201 33Q246 28 284 18L281 -7Q229 0 165 0T49 -8L45 18Q73 27 108 33Q117 105 117 237V284Q117 416 107 488Q72 494 44 503L48 529Q99 521 163 521T280 528L283 503Q245
493 200 488Q197 469 195 424Q253 426 270 426Q451 426 451 295Q451 222 387 177T240 132Q228 132 223 133L227 166H236Q298 166 328 193T359 278T335 363T256 391Q222 391 193 380Z" />
<glyph unicode="&#xff;" glyph-name="ydieresis" horiz-adv-x="542" d="M348 487Q348 503 321 509L325 526Q355 521 403 521T510 529L514 503Q488 494 448 488L282 238Q282 108 292 33Q336 28 374 18L371 -7Q319 0 252 0T133 -8L129 18Q148 24 197 33Q206 87 206
196V217Q90 451 59 489Q31 492 -3 503L1 529Q41 521 116 521T239 529L243 504Q197 493 164 489Q198 385 259 270Q348 443 348 487ZM221 661Q214 648 197 628T167 600Q155 608 138 628T113 661Q119 673 136 688T167 711Q180 703 197 688T221 661ZM406 661Q399 648
382 628T352 600Q340 608 323 628T298 661Q304 673 321 688T352 711Q365 703 382 688T406 661Z" />
<glyph unicode="&#x2013;" glyph-name="endash" horiz-adv-x="410" d="M3 296Q127 287 249 287T411 290L417 284L409 245H3L-5 252L3 296Z" />
<glyph unicode="&#x2014;" glyph-name="emdash" horiz-adv-x="615" d="M5 296Q175 287 374 287T613 290L619 284L611 245H5L-3 252L5 296Z" />
<glyph unicode="&#x2018;" glyph-name="quoteleft" horiz-adv-x="213" d="M53 481Q53 531 87 583T167 666L177 656Q156 631 139 595T121 531Q147 507 161 481Q155 469 138 454T107 431Q94 439 77 454T53 481Z" />
<glyph unicode="&#x2019;" glyph-name="quoteright" horiz-adv-x="213" d="M160 616Q160 566 126 514T46 431L36 441Q57 466 74 502T92 566Q66 590 52 616Q58 628 75 643T106 666Q119 658 136 643T160 616Z" />
<glyph unicode="&#x201a;" glyph-name="quotesinglbase" horiz-adv-x="208" d="M160 46Q160 -4 128 -51T46 -126L36 -115Q87 -66 92 -4Q66 20 52 46Q58 58 75 73T106 96Q119 88 136 73T160 46Z" />
<glyph unicode="&#x201c;" glyph-name="quotedblleft" horiz-adv-x="366" d="M53 481Q53 531 87 583T167 666L177 656Q156 631 139 595T121 531Q147 507 161 481Q155 469 138 454T107 431Q94 439 77 454T53 481ZM206 481Q206 531 240 583T320 666L330 656Q309
631 292 595T274 531Q300 507 314 481Q308 469 291 454T260 431Q247 439 230 454T206 481Z" />
<glyph unicode="&#x201d;" glyph-name="quotedblright" horiz-adv-x="366" d="M313 616Q313 566 279 514T199 431L189 441Q210 466 227 502T245 566Q219 590 205 616Q211 628 228 643T259 666Q272 658 289 643T313 616ZM160 616Q160 566 126 514T46 431L36 441Q57
466 74 502T92 566Q66 590 52 616Q58 628 75 643T106 666Q119 658 136 643T160 616Z" />
<glyph unicode="&#x201e;" glyph-name="quotedblbase" horiz-adv-x="361" d="M160 46Q160 -4 128 -51T46 -126L36 -115Q87 -66 92 -4Q66 20 52 46Q58 58 75 73T106 96Q119 88 136 73T160 46ZM313 46Q313 -4 281 -51T199 -126L189 -115Q240 -66 245 -4Q219 20 205
46Q211 58 228 73T259 96Q272 88 289 73T313 46Z" />
<glyph unicode="&#x2022;" glyph-name="bullet" horiz-adv-x="349" d="M297 288V274Q220 210 185 141H165Q129 212 52 273V287Q68 299 90 318T116 341T128 355T142 371Q151 383 165 407H185Q207 370 218 358T234 342T249 328T263 316T280 302T297 288Z" />
<glyph unicode="&#x2039;" glyph-name="guilsinglleft" horiz-adv-x="247" d="M111 283L219 125L199 111Q106 218 21 269V289Q116 341 199 439L218 426L111 283Z" />
<glyph unicode="&#x203a;" glyph-name="guilsinglright" horiz-adv-x="247" d="M28 125L136 283L31 426L48 439Q131 341 226 289V269Q141 218 48 111L28 125Z" />
</font>
</defs>
</svg>
