<?xml version="1.0" standalone="no"?>
<!DOCTYPE svg PUBLIC "-//W3C//DTD SVG 1.1//EN" "http://www.w3.org/Graphics/SVG/1.1/DTD/svg11.dtd">
<svg xmlns="http://www.w3.org/2000/svg">
<defs >
<font id="CevicheOne" horiz-adv-x="355" ><font-face
    font-family="Ceviche One"
    units-per-em="1000"
    panose-1="2 0 0 0 0 0 0 0 0 0"
    ascent="806"
    descent="-237"
    alphabetic="0" />
<glyph unicode=" " glyph-name="space" horiz-adv-x="130" />
<glyph unicode="!" glyph-name="exclam" horiz-adv-x="254" d="M253 12Q221 -13 177 -25T111 -38T70 -34Q58 6 58 29T57 72T62 112L68 135Q133 135 190 129L209 127L253 12ZM118 214T108 238T95 283T92 323Q92 388 118 473Q140 487 199 500T310 514Q306 509 299
501T274 460T239 391Q197 295 180 167Q177 168 172 169T154 180T129 201Z" />
<glyph unicode="&quot;" glyph-name="quotedbl" horiz-adv-x="334" d="M118 350Q124 386 124 412Q124 484 106 538L94 572L234 610Q236 587 236 559T228 490T202 424Q164 368 132 356L118 350ZM304 350Q310 386 310 412Q310 484 292 538L280 572L420 610Q422 587
422 559T414 490T388 424Q350 368 318 356L304 350Z" />
<glyph unicode="#" glyph-name="numbersign" horiz-adv-x="496" d="M363 2L276 -37Q290 21 309 115Q273 113 220 107Q195 -8 183 -79L116 -13L136 99L40 87L55 177Q118 177 151 178L164 252L67 243L103 329Q125 329 179 331L212 508L317 467Q301 422 277 337L351
343Q367 430 388 574L500 534L453 353L525 361L538 286L433 276L412 194L511 203L500 122Q447 122 393 119L363 2ZM256 260Q240 196 237 182L323 188L338 268L256 260Z" />
<glyph unicode="$" glyph-name="dollar" horiz-adv-x="469" d="M493 198Q493 140 426 92Q346 35 147 23Q125 45 97 94T53 190Q166 171 234 171Q338 171 338 215Q172 230 130 257Q86 285 86 336Q86 427 187 477T471 527L499 332Q404 359 238 364Q238 318 366 297Q413
289 453 264T493 198ZM254 539T245 547T231 568T227 590Q227 622 237 655L371 683Q324 619 303 531Q301 531 297 531T283 531T263 535ZM218 15L226 16Q256 16 276 -3Q294 -21 294 -53Q294 -77 285 -109L161 -137Q198 -73 218 15Z" />
<glyph unicode="%" glyph-name="percent" horiz-adv-x="765" d="M496 533Q518 518 551 510T604 501T633 502Q608 458 564 374T492 239T423 127Q344 5 256 -44L496 533ZM360 421Q370 398 370 363T353 293T310 238Q258 196 216 182L198 177Q156 189 126 212T86 252L76
269Q76 374 128 439Q140 454 148 460L157 465Q191 465 221 472T266 486L279 492Q335 478 360 421ZM248 341L162 340Q160 333 160 327Q160 301 182 291T222 281T256 286Q292 296 292 321Q292 337 283 339T248 341ZM770 221Q780 198 780 163T763 93T720 38Q668 -4
626 -18L608 -23Q566 -11 536 12T496 52L486 69Q486 174 538 239Q550 254 558 260L567 265Q601 265 631 272T676 286L689 292Q745 278 770 221ZM658 141L572 140Q570 133 570 127Q570 101 592 91T632 81T666 86Q702 96 702 121Q702 137 693 139T658 141Z" />
<glyph unicode="&amp;" glyph-name="ampersand" horiz-adv-x="761" d="M388 318Q280 318 223 290Q223 227 320 220Q327 219 335 219Q384 219 459 241Q456 229 444 212T415 182T367 160T301 150T242 153L216 86Q266 74 312 74Q457 74 560 196Q559 202 559 215H489Q514
236 558 260Q561 341 595 437L738 467Q738 404 686 314Q752 334 830 337Q799 287 765 216L662 215Q658 178 658 126T672 4Q666 6 650 19T622 46Q593 80 575 131Q476 -46 251 -46Q196 -46 157 -32T101 4Q70 46 70 81Q70 122 96 164Q106 181 113 186T124 196Q119
199 111 206T90 237T78 292Q78 363 128 412Q222 501 421 501L512 303Q453 318 388 318Z" />
<glyph unicode="&apos;" glyph-name="quotesingle" horiz-adv-x="148" d="M118 350Q124 386 124 412Q124 484 106 538L94 572L234 610Q236 587 236 559T228 490T202 424Q164 368 132 356L118 350Z" />
<glyph unicode="(" glyph-name="parenleft" horiz-adv-x="268" d="M110 51T87 97T64 206T87 328T142 422Q210 494 263 515L286 524L315 406Q264 376 230 325Q213 300 199 257T185 164T207 61T252 -18L275 -45Q244 -38 205 -18T138 26Z" />
<glyph unicode=")" glyph-name="parenright" horiz-adv-x="269" d="M251 428T274 382T297 273T274 151T218 56Q151 -15 98 -36L75 -45L46 73Q97 103 131 154Q148 179 162 222T176 315T154 418T108 498L86 524Q117 517 156 497T223 453Z" />
<glyph unicode="*" glyph-name="asterisk" horiz-adv-x="435" d="M296 136Q256 116 183 116Q213 180 237 282Q209 265 187 238T156 192L148 174Q109 217 97 253L93 265Q102 280 133 299T201 330Q185 350 158 366T112 389L93 395Q139 438 201 458Q233 417 254 365Q267
445 267 524Q310 536 377 536Q348 462 324 360Q356 381 376 410T400 457L405 475Q429 460 445 439T466 403L470 389Q432 351 383 328L366 320Q381 300 407 284T451 260L469 254Q430 208 369 196Q330 235 308 279Q296 210 296 136Z" />
<glyph unicode="+" glyph-name="plus" horiz-adv-x="442" d="M49 191Q49 232 156 256Q169 319 189 352L195 362Q199 363 206 365T238 374Q298 387 339 387T399 384L364 282L481 287Q465 148 313 135L248 -42Q240 -37 228 -28T186 17T141 93Q141 115 143 151Q95
163 62 175L51 179Q49 185 49 191Z" />
<glyph unicode="," glyph-name="comma" horiz-adv-x="235" d="M210 157T220 132T231 70T215 -6T176 -68Q129 -117 93 -133L77 -140Q93 -87 93 -47T80 20Q58 67 28 83L16 89L134 209Q146 206 165 195T197 170Z" />
<glyph unicode="-" glyph-name="hyphen" horiz-adv-x="339" d="M337 249L361 164L106 137Q100 161 86 183T59 216L47 227Q136 249 337 249Z" />
<glyph unicode="." glyph-name="period" horiz-adv-x="233" d="M19 89L137 209Q180 189 205 148T236 76L240 45L135 -11Q104 -11 75 14T32 64L19 89Z" />
<glyph unicode="/" glyph-name="slash" horiz-adv-x="301" d="M235 530Q260 516 297 507T353 498T383 499L141 -62Q92 -16 21 23Q137 285 212 472L235 530Z" />
<glyph unicode="0" glyph-name="zero" horiz-adv-x="512" d="M509 401T525 363T541 276T526 184T485 108T430 50T370 8Q303 -27 274 -36L258 -40Q172 -16 120 32Q73 75 62 100L56 111Q56 180 69 239T102 332Q142 402 176 426L189 435Q246 436 296 447T370 470L392
481Q398 479 408 476T444 458T489 422ZM335 239L188 237Q185 227 185 218Q185 181 231 164Q264 152 294 152T352 158Q415 173 415 208Q415 231 398 235T335 239Z" />
<glyph unicode="1" glyph-name="one" horiz-adv-x="252" d="M113 442Q201 474 314 486Q269 319 244 187T216 4L213 -45Q137 -22 68 44Q74 158 85 257T104 400L113 442Z" />
<glyph unicode="2" glyph-name="two" horiz-adv-x="501" d="M304 292Q304 325 253 329L239 330Q189 330 144 309T78 266L58 244Q86 368 153 441T334 514Q424 514 462 476T501 384Q501 344 490 323T473 290T451 262T428 238T398 213T370 192T337 169T306 147Q354
147 403 157T478 178L503 189Q485 107 485 -12Q426 4 294 17T42 31Q275 190 301 274Q304 284 304 292Z" />
<glyph unicode="3" glyph-name="three" horiz-adv-x="471" d="M116 477Q215 465 286 465Q434 465 532 474Q527 462 517 441T467 362T377 252Q413 252 444 231Q458 222 469 203T480 152T466 87T418 19Q350 -53 174 -85Q137 -56 103 -7T54 78L38 114Q133 90 203
90Q286 90 314 116Q327 128 327 142Q327 167 288 176Q263 181 240 181L194 178Q178 178 172 183L309 312Q245 312 185 301T97 279L69 268Q116 383 116 477Z" />
<glyph unicode="4" glyph-name="four" horiz-adv-x="537" d="M339 180Q362 334 362 474Q362 478 362 482L361 528Q461 500 534 456Q527 364 504 271L494 231Q487 203 485 196L574 208L545 93L462 99L436 -24L270 -57L313 86L39 73Q76 159 93 259T110 419Q110 424
110 429L108 490L311 462Q302 448 289 424T250 326T216 182L339 180Z" />
<glyph unicode="5" glyph-name="five" horiz-adv-x="471" d="M358 185Q358 218 286 218T78 201Q121 378 121 505Q132 505 143 505Q272 505 480 526L509 347Q468 348 432 348Q326 348 251 341L208 337Q208 310 237 300T307 289T390 283T461 253T490 179Q490 95
406 40Q328 -12 178 -35Q139 -3 105 43T56 120L41 150Q119 134 172 134Q358 134 358 185Z" />
<glyph unicode="6" glyph-name="six" horiz-adv-x="501" d="M290 316Q339 332 380 332T454 322T509 281T531 203Q531 111 449 45T257 -21Q223 -21 190 -4T132 36Q81 86 60 125L50 142Q62 234 90 305T154 417Q229 501 318 514Q347 519 366 519T411 517T465 504T509
479Q463 468 424 447T360 404Q312 360 296 329L290 316ZM232 209T230 206T225 196T221 186T225 175T238 164Q261 157 296 157Q359 157 414 170L431 174Q431 192 426 202T403 217T370 223T316 226T248 231Q247 229 240 219Z" />
<glyph unicode="7" glyph-name="seven" horiz-adv-x="424" d="M497 501Q376 127 356 17Q342 11 317 2T224 -18T116 -28T47 -26L58 -17Q125 38 212 172Q254 235 296 314Q175 303 94 288L64 283Q74 336 94 392T131 478L147 507Q155 502 188 495Q236 486 310 486T497 501Z" />
<glyph unicode="8" glyph-name="eight" horiz-adv-x="506" d="M84 329Q84 407 157 459T370 519Q428 499 471 464T528 404L543 379Q543 329 520 295T434 236Q440 234 458 223T486 200Q515 172 515 142Q515 78 425 23T217 -32Q143 -2 105 40Q70 77 60 104Q75 144
102 173T150 212L170 222Q118 239 94 289Q84 308 84 329ZM409 282T411 285T416 295T420 305T416 316T403 328Q380 334 345 334Q274 334 227 322L210 317Q210 299 215 289T238 274T271 268T325 265T393 260Q394 262 401 272ZM195 158Q195 147 216 139T282 131T359
143T393 174Q393 186 373 190T286 195T199 169Q195 163 195 158Z" />
<glyph unicode="9" glyph-name="nine" horiz-adv-x="502" d="M309 185Q260 169 219 169T145 179T90 220T68 298Q68 404 147 463T342 522Q376 522 409 505T467 464Q520 411 540 376L549 359Q537 267 509 196T444 84Q370 0 281 -14Q252 -18 233 -18T188 -16T134
-3T90 22Q136 33 175 54T238 96Q287 141 302 172L309 185ZM407 282T409 285T414 295T418 305T414 316T401 328Q378 334 343 334Q272 334 225 322L208 317Q208 299 213 289T236 274T269 268T323 265T391 260Q392 262 399 272Z" />
<glyph unicode=":" glyph-name="colon" horiz-adv-x="292" d="M83 400L201 520Q244 500 269 459T300 387L304 356L199 300Q168 300 139 325T96 375L83 400ZM301 113L238 -19Q226 -18 207 -14T145 16T76 78Q96 115 125 145T175 187L195 199Q241 153 286 123L301 113Z" />
<glyph unicode=";" glyph-name="semicolon" horiz-adv-x="299" d="M270 157T280 132T291 70T275 -6T236 -68Q189 -117 153 -133L137 -140Q153 -87 153 -47T140 20Q118 67 88 83L76 89L194 209Q206 206 225 195T257 170ZM76 400L194 520Q237 500 262 459T292 387L297
356L192 300Q161 300 132 325T90 375L76 400Z" />
<glyph unicode="&lt;" glyph-name="less" horiz-adv-x="463" d="M65 282Q149 342 226 409T340 514L375 551Q393 509 424 476T478 432L500 420L240 265Q277 218 334 180T430 126L469 111Q459 104 442 93T372 58T266 27Q172 140 92 246L65 282Z" />
<glyph unicode="=" glyph-name="equal" horiz-adv-x="483" d="M142 408H546L513 315Q273 315 133 308L93 306L142 408ZM98 240L494 241L459 150Q324 150 221 142T83 126L48 119L98 240Z" />
<glyph unicode="&gt;" glyph-name="greater" horiz-adv-x="459" d="M502 266Q418 206 341 139T228 34L192 -3Q174 39 143 72T90 116L67 128L327 283Q290 330 233 368T136 422L98 437Q108 444 125 455T195 490T301 521Q395 408 475 302L502 266Z" />
<glyph unicode="?" glyph-name="question" horiz-adv-x="453" d="M349 323V329Q170 319 75 281Q84 336 103 387T136 462L150 485Q258 515 377 515Q386 512 404 497T437 464Q478 415 508 340Q503 330 483 304T442 256Q391 203 312 158L201 177Q290 233 320 272Q349
309 349 323ZM331 12Q299 -13 255 -25T189 -38T148 -34Q136 6 136 29T135 72T140 112L146 135Q211 135 268 129L287 127L331 12Z" />
<glyph unicode="@" glyph-name="at" horiz-adv-x="672" d="M426 443Q293 443 226 373T159 176Q159 28 241 -18Q291 -46 364 -46Q394 -46 417 -43Q500 -33 534 -31Q483 -90 390 -120Q331 -140 288 -140T206 -127T133 -84T79 5T58 133T74 261T112 361Q158 444 197
483L213 499Q371 562 479 562Q603 562 659 500T716 335T655 138T525 43Q466 43 452 124Q400 45 335 13Q328 16 317 22T278 55T232 119Q232 196 282 280Q307 320 351 346T451 372Q478 372 498 363Q528 382 561 382L550 131Q562 147 579 173T624 264T653 376Q646
383 620 397T570 420Q507 443 426 443ZM448 171Q448 175 448 202T461 302Q402 260 377 209T351 125Q351 116 353 108Q400 121 448 171Z" />
<glyph unicode="A" glyph-name="A" horiz-adv-x="511" d="M499 519Q497 465 497 396T504 236T523 108L534 73Q467 20 347 -42Q348 -6 348 29T347 97Q307 90 270 90T208 91Q194 51 169 -31Q133 -13 90 24T23 99Q54 130 80 187Q136 306 182 469Q398 485 499 519ZM326
363Q288 306 234 164Q255 163 344 163Q338 267 329 339L326 363Z" />
<glyph unicode="B" glyph-name="B" horiz-adv-x="573" d="M467 2T405 -11T302 -27T227 -29T143 -17Q129 -10 120 -5T87 23T51 71Q81 115 110 171T154 262L169 296Q118 290 86 272L76 266Q82 326 97 376T124 448L136 468Q288 515 459 515Q463 513 470 510T500 493T541
460T584 408T624 334Q604 290 572 252T516 198L494 182L583 124Q566 73 517 38ZM449 328T409 328T323 326Q316 302 284 212Q330 212 368 223T427 252Q470 286 480 314L485 326Q449 328 409 328ZM419 104Q416 108 409 114T369 129T292 139Q273 96 246 58Q297 59
340 70T401 93L419 104Z" />
<glyph unicode="C" glyph-name="C" horiz-adv-x="480" d="M207 -40Q86 8 43 82Q43 192 108 322T254 494Q288 494 330 490Q441 496 520 514L547 520Q507 388 483 239Q395 278 331 346Q254 233 238 98L504 169Q504 149 485 115T437 55T349 2T207 -40Z" />
<glyph unicode="D" glyph-name="D" horiz-adv-x="541" d="M443 72T398 49T295 16T199 5T127 8L81 89Q81 138 165 328L77 312Q93 408 130 476Q140 482 160 491T257 515T424 531Q429 527 438 521T471 491T515 443T555 379T585 299Q582 276 568 239T535 173T480 108ZM435
334Q390 339 330 339Q315 274 264 107Q305 129 338 161T388 222Q422 278 432 318L435 334Z" />
<glyph unicode="E" glyph-name="E" horiz-adv-x="507" d="M240 324Q240 302 258 289T304 270Q362 261 407 261T496 265Q496 254 483 235T450 204T392 181T312 170T247 173L236 120Q239 115 290 115T403 126T500 150L534 162Q525 95 447 36T251 -24Q174 -24 116
17T47 97Q68 162 125 227Q83 266 83 312Q83 417 191 478T488 539L555 315Q498 329 408 329T240 324Z" />
<glyph unicode="F" glyph-name="F" horiz-adv-x="490" d="M80 333Q91 382 111 423T147 482L162 500L559 527L530 270Q467 294 339 312Q319 254 296 203Q434 207 492 215L514 218Q511 203 491 179T443 137T363 106T242 88Q203 11 166 -42Q127 -22 100 4T65 46L57
61Q80 181 142 331L80 333Z" />
<glyph unicode="G" glyph-name="G" horiz-adv-x="515" d="M211 -20Q90 28 47 102Q47 212 112 342T258 514Q301 514 338 509Q462 515 540 534L568 540Q528 408 504 259Q463 277 417 310T342 376Q258 257 242 118L374 153Q376 189 384 227Q453 208 550 208Q524 152
472 -7L454 -60Q408 -43 385 37Q313 -2 211 -20Z" />
<glyph unicode="H" glyph-name="H" horiz-adv-x="517" d="M349 219Q360 299 365 380T370 485T370 514L369 560Q482 500 568 500Q553 285 490 108Q476 69 467 52L458 35Q422 35 382 23T320 -3L297 -16Q318 45 335 133Q279 118 236 93L221 -34Q208 -30 187 -23T120
11T50 72Q58 176 78 266T114 396L131 435Q185 471 308 489Q273 345 251 197Q306 202 349 219Z" />
<glyph unicode="I" glyph-name="I" horiz-adv-x="250" d="M127 517Q196 498 313 486Q268 319 243 187T215 4L212 -45Q136 -22 67 44Q73 158 88 276T115 456L127 517Z" />
<glyph unicode="J" glyph-name="J" horiz-adv-x="270" d="M121 545Q176 524 225 513T295 500L316 499Q309 375 298 292T265 132T210 10Q137 -85 -2 -93Q3 -88 11 -78T41 -19T78 93T107 278T121 545Z" />
<glyph unicode="K" glyph-name="K" horiz-adv-x="570" d="M585 538Q628 468 628 411Q628 376 595 332Q575 306 514 270Q497 259 464 240T413 210Q454 169 497 135T564 87L587 73Q582 65 562 50T520 24Q467 -4 390 -12Q342 33 301 93T242 199Q208 93 196 9L192
-19Q182 -15 165 -7T109 33T45 104Q60 206 90 304T144 450L168 498Q222 518 278 528T365 540H395Q356 488 318 402T273 240Q314 292 392 366T528 490L585 538Z" />
<glyph unicode="L" glyph-name="L" horiz-adv-x="368" d="M38 19Q112 321 112 348Q112 404 108 440L106 452Q115 458 134 468T227 497T391 523Q321 383 251 159Q296 159 331 167T379 184L392 193L352 -12Q227 11 87 17L38 19Z" />
<glyph unicode="M" glyph-name="M" horiz-adv-x="620" d="M349 520Q342 415 342 381Q342 279 347 248L351 221L479 554Q563 505 669 484Q665 395 644 284T604 107L585 41Q532 6 414 -11Q436 66 449 137T466 240L468 273Q458 252 442 219T381 117T301 17Q282 55
268 119T249 228L244 273Q238 261 229 238T204 129T188 -58Q176 -52 157 -41T99 3T48 68Q57 173 78 269T116 410L132 455Q172 477 234 496T349 520Z" />
<glyph unicode="N" glyph-name="N" horiz-adv-x="548" d="M382 172Q416 365 416 494Q416 504 416 512L414 550Q521 503 596 486Q584 362 562 243T522 66L506 9Q438 9 363 -15L338 -23L254 279Q225 170 192 -25Q153 -11 111 15T47 68Q58 165 81 262T124 408L142
456Q218 484 321 497L382 172Z" />
<glyph unicode="O" glyph-name="O" horiz-adv-x="507" d="M531 389Q541 353 541 303T526 202T485 117T430 54T370 8Q305 -26 274 -36L258 -40Q172 -16 120 32Q73 75 62 100L56 111Q56 201 75 271T123 377T179 435T226 464L246 469Q278 433 345 422L448 502Q508
472 531 389ZM257 83Q285 83 318 114T370 204Q380 231 380 266T368 344Q257 223 257 83Z" />
<glyph unicode="P" glyph-name="P" horiz-adv-x="540" d="M96 446Q101 449 110 454T150 473T216 498Q307 525 414 525Q433 516 463 492T517 445T565 385T602 309Q575 213 487 159T252 99Q228 38 218 -33L214 -56Q182 -44 131 -11T54 52L120 319Q106 368 98 426L96
446ZM275 188Q316 188 349 199T402 228Q441 262 452 290L456 302Q439 308 398 312T317 317Q288 248 269 188H275Z" />
<glyph unicode="Q" glyph-name="Q" horiz-adv-x="532" d="M540 326Q540 136 377 30Q454 49 545 64L504 -57Q316 -61 126 -93Q129 -81 160 -58T232 -16Q154 11 110 54Q70 95 60 116L55 127Q55 217 74 287T122 393T178 451T226 480L245 485Q277 449 344 438L447
518Q507 488 530 405Q540 369 540 326ZM256 99Q284 99 317 130T370 220Q379 247 379 282T367 360Q256 239 256 99Z" />
<glyph unicode="R" glyph-name="R" horiz-adv-x="552" d="M128 310L92 438Q135 470 184 486Q289 520 397 520Q413 517 446 500T503 462T556 403T601 317Q588 238 529 194T392 136Q428 113 470 95T537 70L561 63Q556 55 547 43T500 4T416 -36Q342 -8 290 72Q279
88 270 103T258 122L191 -38L180 -32Q128 -6 86 40Q69 59 60 78L128 310ZM450 303Q416 317 352 317Q341 317 329 316L277 188Q320 189 354 201T405 230Q440 263 447 292L450 303Z" />
<glyph unicode="S" glyph-name="S" horiz-adv-x="490" d="M517 174Q517 101 424 48T129 -27Q122 -22 107 -3T81 34Q52 82 38 146L132 132Q178 127 213 127Q324 127 324 176Q188 188 131 213T74 304Q74 399 187 456T493 513L524 300Q420 330 240 335Q261 305 310
288T403 265T482 237T517 174Z" />
<glyph unicode="T" glyph-name="T" horiz-adv-x="434" d="M115 500Q216 471 350 471Q441 471 521 482Q488 427 481 297L357 293Q328 135 318 -32Q205 -16 154 8L136 17L208 289L55 285Q80 316 95 369T112 462L115 500Z" />
<glyph unicode="U" glyph-name="U" horiz-adv-x="527" d="M483 0Q380 0 354 69Q323 37 270 20T173 3Q101 3 70 9L59 11Q58 24 58 38T58 76T76 209T127 434Q169 455 237 474T358 494Q347 475 330 441T281 309T239 122L341 158Q342 242 355 310T380 405L393 431Q469
401 580 401Q536 281 518 188T500 71T500 42L503 2Q495 0 483 0Z" />
<glyph unicode="V" glyph-name="V" horiz-adv-x="514" d="M101 180T96 239T90 326T89 377T93 426L97 455Q108 461 127 471T208 500T333 524Q276 395 276 254Q276 170 295 107Q335 176 363 267T400 414L409 471Q479 457 530 410Q551 390 563 367Q563 346 552 305T527
230T484 153T416 77T317 16T182 -23Q145 37 123 108Z" />
<glyph unicode="W" glyph-name="W" horiz-adv-x="670" d="M339 252Q333 314 333 366V384Q374 408 457 434Q457 228 471 158L476 133Q533 252 533 393Q533 446 525 502L700 446Q706 404 706 365Q706 242 648 138Q570 2 436 -28Q415 -6 393 44T363 133Q326 78 279
35T204 -24L176 -39Q135 11 112 79T86 201T82 282Q82 370 90 412L96 445Q109 452 131 462T214 490T328 507Q269 356 269 219Q269 184 273 150Q325 210 339 252Z" />
<glyph unicode="X" glyph-name="X" horiz-adv-x="541" d="M195 -35L43 69Q64 118 94 155T143 206T196 241Q179 275 164 291T139 318T118 334T99 346T82 355T68 361T57 365L248 534Q316 452 316 240Q354 268 379 343T412 479L419 540L586 409Q586 363 547 303T451
215Q459 171 486 126T538 58L561 35Q473 19 371 -50Q326 54 316 162Q265 162 195 -35Z" />
<glyph unicode="Y" glyph-name="Y" horiz-adv-x="497" d="M191 530Q281 418 281 243Q281 217 278 189Q316 224 342 273T377 368Q393 445 393 476T392 516L390 540L557 409Q557 242 383 177L362 -5L112 -43Q136 -3 154 60T173 170T159 247T124 296Q84 329 49 337L35
340Q89 389 128 436T179 507L191 530Z" />
<glyph unicode="Z" glyph-name="Z" horiz-adv-x="499" d="M484 17Q379 24 327 24Q179 24 103 14L49 6L282 311Q215 310 163 292T91 255L72 237Q76 315 96 385T136 486L154 517Q164 511 197 501T271 486Q356 479 416 479T544 486L327 160Q379 164 428 185T501 226L524
246Q484 101 484 17Z" />
<glyph unicode="[" glyph-name="bracketleft" horiz-adv-x="288" d="M113 456Q208 483 339 490L323 348L234 372L199 75L298 56Q262 12 220 -32L206 -46Q118 -22 40 35Q67 99 85 204T108 383L113 456Z" />
<glyph unicode="\" glyph-name="backslash" horiz-adv-x="472" d="M106 499Q117 498 136 498T187 505T236 521L254 530Q333 328 468 23Q407 -10 362 -50L348 -62L106 499Z" />
<glyph unicode="]" glyph-name="bracketright" horiz-adv-x="288" d="M267 18Q172 -9 41 -16L57 126L146 102L181 399L82 418Q118 462 160 506L174 520Q262 496 340 439Q313 375 295 270T272 91L267 18Z" />
<glyph unicode="^" glyph-name="asciicircum" horiz-adv-x="448" d="M305 621T313 598T324 558T327 533T326 518L324 505L225 581Q157 529 85 520L222 677Q258 665 281 643Z" />
<glyph unicode="_" glyph-name="underscore" horiz-adv-x="350" d="M323 16L336 -83L-18 -109L15 -11Q285 -10 323 16Z" />
<glyph unicode="`" glyph-name="grave" horiz-adv-x="449" d="M359 627Q262 583 191 583Q127 583 100 596L90 601L121 733L359 627Z" />
<glyph unicode="a" glyph-name="a" horiz-adv-x="446" d="M420 167Q420 83 440 20L353 -20Q290 -5 277 62Q251 32 220 11T167 -10Q120 -10 82 32T43 112T59 192T104 274T182 339T278 365T346 350L372 402Q407 389 434 367T471 328L481 312Q466 255 431 200L420
182Q420 174 420 167ZM188 89Q230 89 277 138Q289 219 329 311Q253 269 215 202Q184 147 184 107Q184 98 186 89Q187 89 188 89Z" />
<glyph unicode="b" glyph-name="b" horiz-adv-x="454" d="M44 72L128 502Q230 534 300 546L325 551Q265 382 225 245Q257 290 293 326T350 375L370 388Q380 384 395 377T444 343T494 282Q483 181 391 91T170 -22L44 72ZM324 273Q300 273 199 143Q190 107 190 89T198
70Q226 70 262 121T314 212T330 262T324 273Z" />
<glyph unicode="c" glyph-name="c" horiz-adv-x="394" d="M398 376L433 397Q434 379 434 344Q434 264 384 185Q305 207 249 250Q211 185 209 86Q235 86 360 128L401 142Q401 124 390 98T359 50T297 6T195 -31Q155 -25 105 1T34 60Q41 125 58 180T96 270Q139 339
168 360L180 370Q239 347 296 347T398 376Z" />
<glyph unicode="d" glyph-name="d" horiz-adv-x="462" d="M119 -8T82 42T45 138T73 233T154 322T263 362Q292 362 316 313L351 500Q451 514 530 534L556 540Q536 453 467 264L443 198L449 1Q439 1 423 2T369 19T309 64Q249 12 201 -15L185 -24Q119 -8 82 42ZM181
54Q230 76 294 146L309 266Q256 249 219 175T181 54Z" />
<glyph unicode="e" glyph-name="e" horiz-adv-x="404" d="M194 78Q205 77 228 77T298 88T376 114L406 129Q408 119 408 110Q408 71 374 32Q330 -17 227 -38Q212 -36 189 -31T114 -1T36 61Q41 125 63 192T106 295L126 330Q182 333 237 348T318 376L345 390Q382
369 403 333T428 272L432 246Q404 183 338 149T200 110Q197 97 194 78ZM285 205Q298 225 298 238T290 258T269 266T246 264Q239 239 210 155Q257 162 285 205Z" />
<glyph unicode="f" glyph-name="f" horiz-adv-x="332" d="M135 313Q107 337 107 380T129 457T192 510Q263 541 365 541Q367 483 376 439T392 380L400 364Q320 382 212 382Q212 354 240 336Q267 318 347 318Q367 318 390 319L347 194L273 193Q246 125 221 -70Q122
-17 76 43L107 213L35 245Q82 279 135 313Z" />
<glyph unicode="g" glyph-name="g" horiz-adv-x="458" d="M42 -12Q72 -29 146 -29T265 19T323 137Q298 98 263 68T204 26L180 15Q123 25 85 66Q45 108 45 138T58 205T96 278T165 342T258 369Q303 369 332 342Q357 318 369 290Q278 279 233 222T188 107Q188 101
188 95Q193 97 217 116T259 152Q302 194 334 249L372 415Q420 409 454 390T498 355L508 339Q503 301 490 266T464 215L453 199Q451 36 368 -58T135 -152Q118 -144 99 -118Q62 -69 42 -12Z" />
<glyph unicode="h" glyph-name="h" horiz-adv-x="446" d="M368 377Q427 377 484 244Q436 180 412 69Q402 26 401 -17H395Q316 -17 292 54Q283 80 283 107Q283 166 311 251Q244 193 183 66Q179 43 175 -7Q118 5 90 26Q64 45 59 57Q61 149 77 264T109 448T126 519Q174
534 223 542T298 552H323Q259 409 215 230Q253 298 293 337T368 377Z" />
<glyph unicode="i" glyph-name="i" horiz-adv-x="234" d="M237 218T225 181T204 88T194 3T194 -32Q148 -11 114 11T68 45L57 57Q57 148 68 226T90 336L101 369Q191 353 262 323L286 313Q277 302 257 260ZM252 362Q240 367 222 377T166 421T114 493Q139 504 161
523T194 556L204 570Q265 560 308 538L323 530Q321 517 318 497T296 432T252 362Z" />
<glyph unicode="j" glyph-name="j" horiz-adv-x="232" d="M203 82Q194 27 194 -2T194 -38Q155 -74 103 -99T18 -132L-14 -140Q21 -75 48 52T86 274L96 369Q186 353 257 323L281 313Q227 233 203 82ZM316 489L272 366Q263 366 239 374T196 391Q149 413 119 458Q138
493 161 520T198 556L211 566Q254 523 300 498L316 489Z" />
<glyph unicode="k" glyph-name="k" horiz-adv-x="457" d="M362 536Q293 409 227 202Q330 244 394 404Q398 401 404 397T428 378T458 350Q496 311 505 278Q499 267 479 243T439 201T383 166T309 139Q379 100 461 90Q458 77 445 58T418 24T376 -6T315 -28Q256 29
200 114L162 -28Q129 -21 91 -2T32 39Q81 261 125 426L140 482Q196 503 251 516T334 533L362 536Z" />
<glyph unicode="l" glyph-name="l" horiz-adv-x="231" d="M204 -17V-49Q94 -4 47 48Q55 136 75 243T112 413L128 476Q173 503 225 520T306 542L336 546Q297 462 269 370T229 206Q204 57 204 -17Z" />
<glyph unicode="m" glyph-name="m" horiz-adv-x="659" d="M265 1Q303 137 303 218Q303 225 302 230L300 251Q242 201 201 102Q195 30 193 -14L49 22Q77 208 82 316L84 356L231 390L207 247Q244 310 296 340T394 371Q422 329 432 262Q465 313 505 345T574 377Q633
377 690 244Q672 213 653 135T630 -21Q528 -7 485 34Q519 158 519 224Q519 229 519 233L517 251Q477 225 438 164Q428 119 416 15Q372 0 293 0Q279 0 265 1Z" />
<glyph unicode="n" glyph-name="n" horiz-adv-x="450" d="M279 34Q313 158 313 224Q313 229 313 233L311 251Q254 202 198 97Q193 61 188 -3Q149 6 117 21T72 46L59 57Q65 200 82 317L87 356L261 394Q241 340 222 242Q258 305 297 341T368 377Q427 377 484 244Q477
230 466 205T436 106T415 -36Q322 -7 279 34Z" />
<glyph unicode="o" glyph-name="o" horiz-adv-x="412" d="M386 402T413 356T440 245T407 129T328 51T245 10T191 -5Q148 16 112 44T60 91L45 109Q46 166 61 215T98 296Q143 359 177 380L192 390Q235 378 277 362L341 422Q386 402 413 356ZM334 227L278 274Q213
185 206 89Q210 90 216 91T241 102T275 124T308 165T334 227Z" />
<glyph unicode="p" glyph-name="p" horiz-adv-x="436" d="M268 407Q249 355 229 269Q292 351 381 379L473 291Q463 184 409 106T274 -3Q233 11 193 34Q187 -30 187 -101Q117 -117 18 -117Q35 44 72 196L85 249L90 355Q119 372 163 385T238 402L268 407ZM302 176Q310
198 313 215T317 240Q317 267 306 268L208 156Q202 124 199 91L254 99Q283 122 302 176Z" />
<glyph unicode="q" glyph-name="q" horiz-adv-x="468" d="M117 -14T82 39T46 138T74 233T155 322T264 362Q298 362 327 292L346 362Q384 374 409 374T453 375T492 371L515 366Q491 308 467 182T430 -41L417 -138Q380 -131 340 -111T277 -67Q277 -16 284 54Q242
22 207 4T161 -14Q117 -14 82 39ZM300 166Q310 222 321 269Q282 263 247 221T195 135T178 64Q241 98 300 166Z" />
<glyph unicode="r" glyph-name="r" horiz-adv-x="389" d="M433 289Q418 266 409 222T400 151T401 107Q361 113 330 130T286 163L275 178Q219 113 203 82Q201 22 201 -13Q165 -5 127 12T68 43L48 56Q65 201 98 348L109 399Q150 390 183 377T230 356L242 347Q222
287 210 172Q234 228 311 383L433 289Z" />
<glyph unicode="s" glyph-name="s" horiz-adv-x="394" d="M405 135Q405 77 331 33T104 -27Q54 43 35 137Q35 137 57 132Q130 113 169 113T233 118T265 141Q147 152 129 160T96 178Q73 193 73 231T94 301T149 352T227 384Q303 405 393 405L417 234Q326 259 187
263Q201 226 305 210Q343 205 374 187T405 135Z" />
<glyph unicode="t" glyph-name="t" horiz-adv-x="318" d="M246 239Q223 117 223 16Q223 -2 224 -18Q180 -4 131 23T61 77Q85 179 110 227L118 244Q104 270 68 296L55 305Q75 320 137 348Q154 401 174 443T205 502L216 518L280 388L385 398L341 205L246 239Z" />
<glyph unicode="u" glyph-name="u" horiz-adv-x="458" d="M63 44Q59 93 59 130Q59 233 80 296L93 331Q112 347 166 360T279 373Q270 357 256 329T224 227T205 95Q205 80 206 66Q216 69 235 90T268 139Q308 212 332 336Q410 301 496 301Q468 224 450 143T428 18L425
-25Q397 -15 364 15T314 80Q309 70 291 49T257 13Q214 -24 167 -32L63 44Z" />
<glyph unicode="v" glyph-name="v" horiz-adv-x="421" d="M275 408Q226 327 226 225Q226 212 227 179T245 89Q281 141 305 205T335 307L341 345Q369 342 408 323T467 281Q467 266 460 236T442 182T408 126T355 69T275 23T164 -8Q125 31 103 80T75 170T70 230Q70
287 76 312L80 333Q88 340 102 351T167 383T275 408Z" />
<glyph unicode="w" glyph-name="w" horiz-adv-x="612" d="M287 425Q236 317 236 205Q236 177 241 159L250 123Q309 182 318 207Q310 255 307 296L306 309Q357 343 433 363Q426 302 426 270Q426 181 441 140L451 114Q505 219 505 322Q505 365 495 409L654 355Q639
44 432 -18Q403 -5 380 35T345 114Q305 69 263 36T200 -9L178 -20Q136 11 111 61T79 161T73 256T78 329L83 357Q113 381 175 403T287 425Z" />
<glyph unicode="x" glyph-name="x" horiz-adv-x="450" d="M339 346V384L479 296Q479 207 371 141Q379 107 401 76T441 31L459 17Q414 -22 303 -50Q273 -19 256 112Q253 113 249 113L224 99Q208 81 196 54T174 -1T159 -39L27 41Q46 79 71 107T114 146T159 172Q141
207 114 232T67 264L48 272L204 396Q264 334 264 168Q301 201 320 255T339 346Z" />
<glyph unicode="y" glyph-name="y" horiz-adv-x="429" d="M273 408Q224 327 224 225Q224 212 225 179T243 89Q273 135 294 202T323 313L330 357Q426 323 472 271Q462 252 446 219T397 89T352 -99Q310 -119 258 -126T185 -134T158 -134L121 -132Q162 -107 194 -63T239
14L251 46L152 -9Q120 22 101 68Q71 141 71 254Q71 287 74 308L78 333Q86 340 100 351T165 383T273 408Z" />
<glyph unicode="z" glyph-name="z" horiz-adv-x="423" d="M403 -6Q310 15 172 15Q120 15 84 12L28 6L225 241Q171 236 130 222T74 196L60 185Q63 246 84 302T124 386L143 412Q149 406 172 396T229 382Q301 373 352 373T457 378L270 130Q315 133 357 150T420 184L440
200Q403 59 403 -6Z" />
<glyph unicode="{" glyph-name="braceleft" horiz-adv-x="312" d="M322 -1Q299 -30 253 -30T181 -10T143 40T119 102Q91 183 46 201Q97 225 122 328Q132 368 146 409T194 481T283 523Q295 495 314 472T348 440L361 431Q288 386 253 336T190 208Q226 203 232 102Q235
64 256 32T322 -1Z" />
<glyph unicode="|" glyph-name="bar" horiz-adv-x="231" d="M73 -33Q139 441 139 666Q178 647 295 635Q250 468 224 279T192 -16L188 -122Q142 -99 73 -33Z" />
<glyph unicode="}" glyph-name="braceright" horiz-adv-x="312" d="M84 474Q107 503 153 503T225 483T263 433T287 370Q315 290 360 272Q309 248 284 146Q274 105 260 64T212 -8T123 -50Q111 -22 92 1T58 33L45 42Q118 87 153 137T216 265Q180 270 174 372Q171
409 150 441T84 474Z" />
<glyph unicode="~" glyph-name="asciitilde" horiz-adv-x="504" d="M145 345T165 337T213 324T259 320T293 321Q302 330 318 344T380 381T464 405T522 386Q544 365 544 336Q544 281 529 241L522 222Q488 256 410 268Q383 272 365 272T341 272Q317 245 268 220T174
195T103 214T74 261Q73 270 73 284Q73 325 90 362L99 382Q106 372 125 359Z" />
<glyph unicode="&#xa0;" glyph-name="nbsp" horiz-adv-x="130" />
<glyph unicode="&#xa1;" glyph-name="exclamdown" horiz-adv-x="253" d="M91 464Q123 489 167 501T233 514T274 510Q286 470 286 447T287 404T282 364L276 341Q211 341 154 347L135 349L91 464ZM226 262T236 238T249 193T252 153Q252 88 226 3Q204 -11 145 -24T34
-38Q38 -33 45 -25T70 16T105 85Q147 181 164 309Q167 308 172 307T190 296T215 275Z" />
<glyph unicode="&#xa2;" glyph-name="cent" horiz-adv-x="424" d="M252 539T243 547T229 568T225 590Q225 622 235 655L369 683Q322 619 301 531Q299 531 295 531T281 531T261 535ZM216 15Q292 15 292 -53Q292 -77 283 -109L159 -137Q196 -73 216 15ZM205 486Q244
482 277 482Q363 482 436 502L476 514Q476 369 424 287Q349 303 289 349Q237 261 236 181Q267 181 406 222L454 236Q454 230 454 221T442 185T409 136T338 91T221 56Q179 62 125 90T49 153Q57 222 75 282T116 378Q161 452 192 475L205 485V486Z" />
<glyph unicode="&#xa3;" glyph-name="sterling" horiz-adv-x="510" d="M453 -12Q384 7 240 7Q193 7 154 4L91 0Q135 88 149 192L97 185Q85 233 65 261Q93 268 153 275Q157 441 224 501Q284 554 382 554Q429 554 463 539T512 502Q544 458 546 421L547 406Q520 408
488 408T420 398T366 362T332 287Q412 289 464 289L468 234L311 213Q302 178 287 138Q350 138 411 154T502 186L531 201L453 -12Z" />
<glyph unicode="&#xa4;" glyph-name="currency" horiz-adv-x="665" d="M473 37Q435 20 384 20T305 34L232 -79L125 7L202 98Q161 146 161 217T182 336L91 418Q95 426 102 438T138 477T201 521L264 433Q322 468 392 468T515 439L581 525L686 431Q677 412 656 389T619
352L603 339Q618 314 618 264T607 179T586 128L575 112L653 29Q642 7 611 -19T544 -62L473 37ZM272 224Q272 177 316 154Q348 135 379 135T438 146Q504 169 504 228Q504 266 466 287Q438 302 413 302Q330 302 277 257Q272 239 272 224Z" />
<glyph unicode="&#xa5;" glyph-name="yen" horiz-adv-x="551" d="M203 87Q117 81 100 69L92 166H214V175Q214 216 200 247T166 296Q125 329 90 337L76 340Q130 389 169 436T220 507L232 530Q322 418 322 243Q322 217 319 189Q357 224 383 273T418 368Q434 445
434 476T433 516L431 540L598 409Q598 242 424 177L422 166H536L514 96Q445 96 414 95L403 -5L153 -43Q185 13 203 87Z" />
<glyph unicode="&#xa6;" glyph-name="brokenbar" horiz-adv-x="252" d="M247 232Q224 60 220 -79L218 -122Q142 -99 73 -33Q93 108 111 273Q126 258 166 245T247 232ZM118 344Q139 549 139 666Q198 647 315 635Q283 516 251 307Q199 344 118 344Z" />
<glyph unicode="&#xa7;" glyph-name="section" horiz-adv-x="413" d="M399 49Q399 1 332 -37T121 -85Q115 -80 106 -71T78 -26T50 50Q70 43 112 35Q161 26 189 26T244 35T283 66Q171 76 114 95T56 158T108 227Q79 248 79 289Q79 363 167 408T408 453L432 286Q350
310 209 313Q226 290 264 277T337 259T399 237T427 187Q427 137 353 113Q399 87 399 49ZM275 189Q214 194 186 200Q197 173 245 154Q275 163 275 189Z" />
<glyph unicode="&#xa8;" glyph-name="dieresis" horiz-adv-x="505" d="M190 710T210 678T233 614L235 583L155 540Q131 540 107 562T71 608L59 630Q60 633 61 638T70 658T88 682Q112 710 151 710ZM378 569T348 569T295 589T266 630L260 650L363 742Q396 727 416
695T440 638L444 614Q430 597 404 583Z" />
<glyph unicode="&#xa9;" glyph-name="copyright" horiz-adv-x="675" d="M612 279Q612 353 564 398T431 443Q298 443 228 365T158 156Q158 67 210 21T361 -25T547 20Q516 -34 453 -68T299 -103Q118 -103 72 34Q58 76 58 130Q58 233 93 316T187 450Q306 553 453
553Q581 553 649 490T717 324T653 139T518 56Q579 117 602 204Q612 241 612 279ZM337 354Q379 350 403 350Q468 350 500 360L519 366Q519 275 481 209Q436 253 396 287Q380 256 364 205T346 126Q362 126 478 164L515 177Q512 166 497 142T464 100Q418 56 348 41Q303
78 231 116Q238 187 264 246T314 330L337 354Z" />
<glyph unicode="&#xaa;" glyph-name="ordfeminine" horiz-adv-x="361" d="M397 444Q397 374 414 321L343 289Q292 301 282 355Q260 330 235 314T192 297Q154 297 123 331T92 396T105 461T141 527T204 580T282 601T337 589L359 631Q387 620 409 602T439 570L447
558Q433 510 406 466L397 452Q397 448 397 444ZM210 377Q244 377 282 417Q291 485 324 557Q262 523 234 474T206 393Q206 385 208 377Q209 377 210 377Z" />
<glyph unicode="&#xab;" glyph-name="guillemotleft" horiz-adv-x="668" d="M68 298Q135 346 197 400T288 484L317 514Q331 480 356 454T399 418L417 409L209 284Q239 247 285 216T362 172L393 160Q324 108 229 93Q173 160 90 269L68 298ZM359 298Q426 346 488
400T580 484L608 514Q622 480 647 454T690 418L708 409L500 284Q530 247 576 216T653 172L684 160Q615 108 520 93Q464 160 381 269L359 298Z" />
<glyph unicode="&#xac;" glyph-name="logicalnot" horiz-adv-x="548" d="M68 281L99 391L588 393L490 -48Q434 -33 385 9Q406 47 431 125T475 295Q240 295 111 284L68 281Z" />
<glyph unicode="&#xad;" glyph-name="uni00AD" horiz-adv-x="440" d="M80 264H469Q464 238 431 157Q328 157 116 146L46 143L80 264Z" />
<glyph unicode="&#xae;" glyph-name="registered" horiz-adv-x="676" d="M613 279Q613 353 565 398T432 443Q299 443 229 365T159 156Q159 67 211 21T362 -25T548 20Q517 -34 454 -68T300 -103Q119 -103 73 34Q59 76 59 130Q59 233 94 316T188 450Q307 553 454
553Q582 553 650 490T718 324T654 139T519 56Q580 117 603 204Q613 241 613 279ZM282 251L249 321Q256 327 269 336T327 362T420 378Q481 363 521 309Q538 286 547 258Q516 188 422 173Q442 151 468 139T510 126L526 125Q500 72 445 54Q418 68 406 84T390 106T379
123T370 138T362 154T355 166L336 57Q270 86 252 127L282 251ZM343 203Q350 203 371 203T418 212T452 234L458 245Q421 255 336 255L343 203Z" />
<glyph unicode="&#xaf;" glyph-name="overscore" horiz-adv-x="413" d="M398 710L396 629L11 615L45 728Q91 710 398 710Z" />
<glyph unicode="&#xb0;" glyph-name="degree" horiz-adv-x="278" d="M90 448T126 488T221 528T311 497T342 409T304 315T208 277Q174 277 149 289T112 322Q90 357 90 389Q90 448 126 488ZM169 415Q168 408 168 395T180 369T216 355Q263 355 263 397Q263 432 226
432T169 415Z" />
<glyph unicode="&#xb1;" glyph-name="plusminus" horiz-adv-x="438" d="M78 313Q78 334 104 357T194 385L212 475Q248 486 290 492T354 498T395 494L364 403L469 407Q460 332 429 302T323 271Q320 271 318 271L264 127Q206 140 163 185L173 278L81 299Q78 306
78 313ZM41 -2L65 111Q208 111 303 116T422 128L445 134L417 28Q265 28 97 6L41 -2Z" />
<glyph unicode="&#xb2;" glyph-name="twosuperior" horiz-adv-x="328" d="M264 561Q321 561 345 537T370 479Q370 439 346 412Q336 400 331 394T311 376T292 360Q272 345 246 328Q305 328 355 348L371 355Q359 303 359 227Q250 255 79 255Q237 363 245 416Q247
444 210 444T144 432T102 404L89 390Q128 561 264 561Z" />
<glyph unicode="&#xb3;" glyph-name="threesuperior" horiz-adv-x="318" d="M128 570Q183 562 266 562T402 568L296 421Q304 421 320 416T348 404Q375 386 375 352Q375 298 328 254T167 188Q142 208 119 241T86 299L75 323Q137 307 188 307Q271 307 271 342Q271
365 219 367T166 370L252 455Q208 455 169 449T113 435L96 428Q128 506 128 570Z" />
<glyph unicode="&#xb4;" glyph-name="acute" horiz-adv-x="449" d="M359 601Q271 568 203 568Q128 568 91 602L328 733L359 601Z" />
<glyph unicode="&#xb5;" glyph-name="mu" horiz-adv-x="463" d="M322 80Q255 3 182 -29Q190 -77 200 -110L204 -121H0Q45 -42 70 53Q66 91 66 127T72 216T90 300L101 331Q120 347 174 360T287 373Q278 357 264 329T232 227T213 95Q213 80 214 66Q224 69 243 90T276
139Q316 212 340 336Q418 301 504 301Q476 224 458 143T436 18L433 -25Q405 -15 372 15T322 80Z" />
<glyph unicode="&#xb6;" glyph-name="paragraph" horiz-adv-x="535" d="M471 489L324 -103Q277 -68 232 -18L285 167Q223 119 200 119Q162 141 129 171T82 220L69 239Q70 298 87 352T130 442Q180 512 221 541L238 553Q339 546 411 486L471 489ZM598 518L461 -101Q426
-89 381 -39L512 500L598 518Z" />
<glyph unicode="&#xb7;" glyph-name="middot" horiz-adv-x="234" d="M56 282L174 402Q217 382 242 341T272 269L277 238L172 182Q141 182 112 207T70 257L56 282Z" />
<glyph unicode="&#xb8;" glyph-name="cedilla" horiz-adv-x="535" d="M314 97Q310 75 310 62T311 33Q312 -16 337 -40Q351 -54 373 -54Q376 -54 379 -54Q379 -88 336 -115T230 -142Q162 -142 124 -114Q116 -107 110 -98Q247 -64 247 3Q247 31 225 59L314 97Z" />
<glyph unicode="&#xb9;" glyph-name="onesuperior" horiz-adv-x="176" d="M123 536Q183 557 259 566Q229 453 212 364T193 240L191 207Q139 222 93 267Q101 422 118 508L123 536Z" />
<glyph unicode="&#xba;" glyph-name="ordmasculine" horiz-adv-x="322" d="M359 617T380 581T402 499T385 419T342 363T288 327Q234 299 208 299Q175 316 147 338T106 374L94 388Q95 432 107 471T136 534Q169 583 198 600L209 607Q244 598 275 585L325 632Q359
617 380 581ZM319 480L276 517Q225 445 220 372Q227 372 244 380T274 400Q305 427 319 480Z" />
<glyph unicode="&#xbb;" glyph-name="guillemotright" horiz-adv-x="669" d="M715 289Q648 241 586 187T494 103L466 73Q452 107 427 133T384 168L366 178L574 303Q544 340 498 371T421 414L390 427Q459 479 554 494Q610 427 693 318L715 289ZM424 289Q357 241
295 187T204 103L175 73Q161 107 136 133T93 168L75 178L283 303Q253 340 207 371T130 414L99 427Q168 479 263 494Q319 427 402 318L424 289Z" />
<glyph unicode="&#xbc;" glyph-name="onequarter" horiz-adv-x="761" d="M389 530Q402 520 431 515T478 509T509 510L267 -51Q246 -16 175 23Q291 285 366 472L389 530ZM124 536Q184 557 260 566Q230 453 213 364T194 240L192 207Q140 222 94 267Q102 422 118
508L124 536ZM605 62Q620 167 620 267V298Q687 279 736 250Q732 180 703 74L764 81L744 3L688 8L671 -75L558 -98L587 -1L402 -10Q427 48 438 116T450 205T450 230L449 272L586 253Q567 224 547 168T522 64L605 62Z" />
<glyph unicode="&#xbd;" glyph-name="onehalf" horiz-adv-x="710" d="M388 530Q401 520 430 515T477 509T508 510L266 -51Q245 -16 174 23Q290 285 364 472L388 530ZM597 307Q654 307 678 283T703 225Q703 185 679 158Q669 146 664 140T644 122T624 106Q605 91
579 74Q638 74 688 94L704 101Q692 49 692 -27Q583 1 412 1Q570 109 578 162Q580 190 543 190T477 178T435 150L422 136Q461 307 597 307ZM123 536Q183 557 259 566Q229 453 212 364T193 240L191 207Q139 222 93 267Q101 422 118 508L123 536Z" />
<glyph unicode="&#xbe;" glyph-name="threequarters" horiz-adv-x="904" d="M134 570Q189 562 272 562T408 568L302 421Q310 421 326 416T354 404Q381 386 381 352Q381 298 334 254T173 188Q148 208 125 241T92 299L81 323Q143 307 194 307Q277 307 277 342Q277
365 225 367T172 370L258 455Q214 455 175 449T119 435L102 428Q134 506 134 570ZM527 530Q540 520 569 515T616 509T647 510L405 -51Q384 -16 313 23Q429 285 504 472L527 530ZM748 62Q764 171 764 260Q764 264 764 267L763 298Q830 279 879 250Q875 180 846 74L907
81L887 3L831 8L814 -75L701 -98L730 -1L545 -10Q570 48 581 116T593 205T593 230L592 272L729 253Q710 224 690 168T665 64L748 62Z" />
<glyph unicode="&#xbf;" glyph-name="questiondown" horiz-adv-x="452" d="M191 124V118Q380 128 465 166Q456 111 437 60T404 -14L390 -38Q282 -68 163 -68Q154 -65 136 -50T103 -17Q62 32 32 107Q37 117 57 143T98 192Q149 244 228 289L339 270Q250 214 220
174Q191 138 191 124ZM209 435Q241 460 285 472T351 485T392 481Q404 441 404 419T405 376T400 334L394 312Q329 312 272 318L253 320L209 435Z" />
<glyph unicode="&#xc0;" glyph-name="Agrave" horiz-adv-x="511" d="M499 519Q497 465 497 396T504 236T523 108L534 73Q467 20 347 -42Q348 -6 348 29T347 97Q307 90 270 90T208 91Q194 51 169 -31Q133 -13 90 24T23 99Q54 130 80 187Q136 306 182 469Q398 485
499 519ZM326 363Q288 306 234 164Q255 163 344 163Q338 267 329 339L326 363ZM472 833Q375 789 304 789Q240 789 213 802L203 807L234 939L472 833Z" />
<glyph unicode="&#xc1;" glyph-name="Aacute" horiz-adv-x="511" d="M499 519Q497 465 497 396T504 236T523 108L534 73Q467 20 347 -42Q348 -6 348 29T347 97Q307 90 270 90T208 91Q194 51 169 -31Q133 -13 90 24T23 99Q54 130 80 187Q136 306 182 469Q398 485
499 519ZM326 363Q288 306 234 164Q255 163 344 163Q338 267 329 339L326 363ZM452 552Q364 519 296 519Q221 519 184 553L421 684L452 552Z" />
<glyph unicode="&#xc2;" glyph-name="Acircumflex" horiz-adv-x="514" d="M502 519Q500 465 500 396T507 236T526 108L537 73Q470 20 350 -42Q351 -6 351 29T350 97Q310 90 273 90T211 91Q197 51 172 -31Q136 -13 93 24T26 99Q57 130 83 187Q139 306 185 469Q401
485 502 519ZM329 363Q291 306 237 164Q258 163 347 163Q341 267 332 339L329 363ZM140 466L133 456Q133 520 174 584Q227 669 340 669Q401 669 430 640Q462 608 462 556Q462 543 459 527Q415 556 338 556T209 523T140 466Z" />
<glyph unicode="&#xc3;" glyph-name="Atilde" horiz-adv-x="511" d="M499 519Q497 465 497 396T504 236T523 108L534 73Q467 20 347 -42Q348 -6 348 29T347 97Q307 90 270 90T208 91Q194 51 169 -31Q133 -13 90 24T23 99Q54 130 80 187Q136 306 182 469Q398 485
499 519ZM326 363Q288 306 234 164Q255 163 344 163Q338 267 329 339L326 363ZM211 655Q257 609 330 609Q342 609 354 610Q361 617 373 627T418 655T480 672T523 658T538 632T539 609Q539 578 528 551L523 537Q519 541 510 548T468 564T414 574T389 574Q367 552
333 535T266 517T214 531Q191 547 191 579Q191 613 204 641L211 655Z" />
<glyph unicode="&#xc4;" glyph-name="Adieresis" horiz-adv-x="511" d="M499 519Q497 465 497 396T504 236T523 108L534 73Q467 20 347 -42Q348 -6 348 29T347 97Q307 90 270 90T208 91Q194 51 169 -31Q133 -13 90 24T23 99Q54 130 80 187Q136 306 182 469Q398
485 499 519ZM326 363Q288 306 234 164Q255 163 344 163Q338 267 329 339L326 363ZM285 933T305 901T328 837L330 806L250 763Q226 763 202 785T166 831L154 853Q155 856 156 861T165 881T183 905Q207 933 246 933ZM473 792T443 792T390 812T361 853L355 873L458
965Q491 950 511 918T535 861L539 837Q525 820 499 806Z" />
<glyph unicode="&#xc5;" glyph-name="Aring" horiz-adv-x="511" d="M499 519Q497 465 497 396T504 236T523 108L534 73Q467 20 347 -42Q348 -6 348 29T347 97Q307 90 270 90T208 91Q194 51 169 -31Q133 -13 90 24T23 99Q54 130 80 187Q136 306 182 469Q398 485
499 519ZM326 363Q288 306 234 164Q255 163 344 163Q338 267 329 339L326 363ZM202 636T239 667T336 698T428 674T461 606T421 534T320 505T231 534T202 591Q202 636 239 667ZM283 609Q282 603 282 593T296 572T338 561Q393 561 393 595Q393 622 349 622T283 609Z"
/>
<glyph unicode="&#xc6;" glyph-name="AE" horiz-adv-x="787" d="M345 -64L349 61Q349 71 349 78L205 82Q199 66 194 48Q181 3 171 -31Q135 -13 92 24T25 99Q56 130 82 187Q138 306 184 469Q357 469 483 482T768 539L835 315Q778 329 688 329T520 324Q520 302 538
289T584 270Q642 261 687 261T776 265Q776 251 765 234T736 204T680 181T604 170Q541 170 514 180L504 183Q501 178 501 171T509 150T546 125T615 113T708 125T786 150L814 162Q805 95 727 36T531 -24Q483 -24 443 -4Q395 -39 345 -64ZM328 363Q290 306 236 164Q257
163 346 163Q340 267 331 339L328 363Z" />
<glyph unicode="&#xc7;" glyph-name="Ccedilla" horiz-adv-x="480" d="M207 -40Q86 8 43 82Q43 192 108 322T254 494Q288 494 330 490Q441 496 520 514L547 520Q507 388 483 239Q395 278 331 346Q254 233 238 98L504 169Q504 149 485 115T437 55T349 2T207 -40ZM390
97Q386 75 386 62T387 33Q388 -16 413 -40Q427 -54 449 -54Q452 -54 455 -54Q455 -88 412 -115T306 -142Q238 -142 200 -114Q192 -107 186 -98Q323 -64 323 3Q323 31 301 59L390 97Z" />
<glyph unicode="&#xc8;" glyph-name="Egrave" horiz-adv-x="507" d="M240 324Q240 302 258 289T304 270Q362 261 407 261T496 265Q496 254 483 235T450 204T392 181T312 170T247 173L236 120Q239 115 290 115T403 126T500 150L534 162Q525 95 447 36T251 -24Q174
-24 116 17T47 97Q68 162 125 227Q83 266 83 312Q83 417 191 478T488 539L555 315Q498 329 408 329T240 324ZM432 858Q335 814 264 814Q200 814 173 827L163 832L194 964L432 858Z" />
<glyph unicode="&#xc9;" glyph-name="Eacute" horiz-adv-x="507" d="M240 324Q240 302 258 289T304 270Q362 261 407 261T496 265Q496 254 483 235T450 204T392 181T312 170T247 173L236 120Q239 115 290 115T403 126T500 150L534 162Q525 95 447 36T251 -24Q174
-24 116 17T47 97Q68 162 125 227Q83 266 83 312Q83 417 191 478T488 539L555 315Q498 329 408 329T240 324ZM441 843Q353 810 285 810Q210 810 173 844L410 975L441 843Z" />
<glyph unicode="&#xca;" glyph-name="Ecircumflex" horiz-adv-x="507" d="M240 324Q240 302 258 289T304 270Q362 261 407 261T496 265Q496 254 483 235T450 204T392 181T312 170T247 173L236 120Q239 115 290 115T403 126T500 150L534 162Q525 95 447 36T251
-24Q174 -24 116 17T47 97Q68 162 125 227Q83 266 83 312Q83 417 191 478T488 539L555 315Q498 329 408 329T240 324ZM180 788Q166 776 160 767L154 759Q154 813 187 864Q232 933 323 933Q358 933 380 921T411 892Q424 865 424 850T423 829L421 817Q385 841 314
841T180 788Z" />
<glyph unicode="&#xcb;" glyph-name="Edieresis" horiz-adv-x="507" d="M240 324Q240 302 258 289T304 270Q362 261 407 261T496 265Q496 254 483 235T450 204T392 181T312 170T247 173L236 120Q239 115 290 115T403 126T500 150L534 162Q525 95 447 36T251 -24Q174
-24 116 17T47 97Q68 162 125 227Q83 266 83 312Q83 417 191 478T488 539L555 315Q498 329 408 329T240 324ZM143 690T160 698T200 707T239 694T264 662Q279 627 280 593L281 580L201 537Q177 537 153 559T117 604L105 627Q106 630 107 635T116 655T133 679ZM424
566T401 566T359 574T332 594Q313 617 306 647L409 739Q442 724 462 692T486 636L490 611Q476 594 450 580Z" />
<glyph unicode="&#xcc;" glyph-name="Igrave" horiz-adv-x="250" d="M127 517Q196 498 313 486Q268 319 243 187T215 4L212 -45Q136 -22 67 44Q73 158 88 276T115 456L127 517ZM358 587Q261 543 190 543Q126 543 100 556L89 561L120 693L358 587Z" />
<glyph unicode="&#xcd;" glyph-name="Iacute" horiz-adv-x="250" d="M127 517Q196 498 313 486Q268 319 243 187T215 4L212 -45Q136 -22 67 44Q73 158 88 276T115 456L127 517ZM593 833Q505 800 437 800Q362 800 325 834L562 965L593 833Z" />
<glyph unicode="&#xce;" glyph-name="Icircumflex" horiz-adv-x="271" d="M148 517Q217 498 334 486Q289 319 264 187T236 4L233 -45Q157 -22 88 44Q94 158 109 276T136 456L148 517ZM115 542Q101 530 95 522L89 513Q89 567 122 618Q167 687 258 687Q293 687 315
675T346 646Q359 619 359 604T358 583L356 571Q320 595 249 595T115 542Z" />
<glyph unicode="&#xcf;" glyph-name="Idieresis" horiz-adv-x="272" d="M149 517Q218 498 335 486Q290 319 265 187T237 4L234 -45Q158 -22 89 44Q95 158 110 276T137 456L149 517ZM62 678T79 686T119 695T158 682T183 650Q198 615 200 581V568L120 525Q96 525
72 547T36 592L24 615Q25 618 26 623T35 643T52 667ZM343 554T320 554T278 562T250 582Q232 605 225 635L328 727Q361 712 381 680T405 624L409 599Q395 582 369 568Z" />
<glyph unicode="&#xd0;" glyph-name="Eth" horiz-adv-x="542" d="M444 72T399 49T296 16T200 5T128 8L82 89Q82 112 105 179L78 176L39 242Q73 247 133 252L166 328L78 312Q94 408 131 476Q141 482 161 491T258 515T425 531Q430 527 439 521T472 491T516 443T556
379T586 299Q583 276 569 239T536 173T481 108ZM368 261L348 209L294 202L265 107Q306 129 339 161T390 222Q423 278 432 318L436 334Q391 339 331 339L311 260Q329 261 368 261Z" />
<glyph unicode="&#xd1;" glyph-name="Ntilde" horiz-adv-x="548" d="M382 172Q416 365 416 494Q416 504 416 512L414 550Q521 503 596 486Q584 362 562 243T522 66L506 9Q438 9 363 -15L338 -23L254 279Q225 170 192 -25Q153 -11 111 15T47 68Q58 165 81 262T124
408L142 456Q218 484 321 497L382 172ZM195 673Q241 627 314 627Q326 627 338 628Q345 635 357 645T402 673T464 690T507 676T522 650T523 627Q523 596 512 569L507 555Q503 559 494 566T452 582T398 592T373 592Q351 570 317 553T250 535T198 549Q175 565 175
597Q175 631 188 659L195 673Z" />
<glyph unicode="&#xd2;" glyph-name="Ograve" horiz-adv-x="507" d="M531 389Q541 353 541 303T526 202T485 117T430 54T370 8Q305 -26 274 -36L258 -40Q172 -16 120 32Q73 75 62 100L56 111Q56 201 75 271T123 377T179 435T226 464L246 469Q278 433 345 422L448
502Q508 472 531 389ZM257 83Q285 83 318 114T370 204Q380 231 380 266T368 344Q257 223 257 83ZM445 792Q348 748 277 748Q213 748 186 761L176 766L207 898L445 792Z" />
<glyph unicode="&#xd3;" glyph-name="Oacute" horiz-adv-x="507" d="M531 389Q541 353 541 303T526 202T485 117T430 54T370 8Q305 -26 274 -36L258 -40Q172 -16 120 32Q73 75 62 100L56 111Q56 201 75 271T123 377T179 435T226 464L246 469Q278 433 345 422L448
502Q508 472 531 389ZM257 83Q285 83 318 114T370 204Q380 231 380 266T368 344Q257 223 257 83ZM428 529Q340 496 272 496Q197 496 160 530L397 661L428 529Z" />
<glyph unicode="&#xd4;" glyph-name="Ocircumflex" horiz-adv-x="507" d="M531 389Q541 353 541 303T526 202T485 117T430 54T370 8Q305 -26 274 -36L258 -40Q172 -16 120 32Q73 75 62 100L56 111Q56 201 75 271T123 377T179 435T226 464L246 469Q278 433 345
422L448 502Q508 472 531 389ZM257 83Q285 83 318 114T370 204Q380 231 380 266T368 344Q257 223 257 83ZM195 506Q181 494 175 486L169 477Q169 531 202 582Q247 651 338 651Q373 651 395 639T426 610Q439 583 439 568T438 547L436 535Q400 559 329 559T195 506Z"
/>
<glyph unicode="&#xd5;" glyph-name="Otilde" horiz-adv-x="507" d="M531 389Q541 353 541 303T526 202T485 117T430 54T370 8Q305 -26 274 -36L258 -40Q172 -16 120 32Q73 75 62 100L56 111Q56 201 75 271T123 377T179 435T226 464L246 469Q278 433 345 422L448
502Q508 472 531 389ZM257 83Q285 83 318 114T370 204Q380 231 380 266T368 344Q257 223 257 83ZM176 886Q222 840 295 840Q307 840 319 841Q326 848 338 858T383 886T445 903T488 889T503 863T504 840Q504 809 494 782L488 768Q484 772 475 779T433 795T379 805T354
805Q332 783 298 766T231 748T178 762Q156 778 156 810Q156 844 170 872L176 886Z" />
<glyph unicode="&#xd6;" glyph-name="Odieresis" horiz-adv-x="507" d="M531 389Q541 353 541 303T526 202T485 117T430 54T370 8Q305 -26 274 -36L258 -40Q172 -16 120 32Q73 75 62 100L56 111Q56 201 75 271T123 377T179 435T226 464L246 469Q278 433 345 422L448
502Q508 472 531 389ZM257 83Q285 83 318 114T370 204Q380 231 380 266T368 344Q257 223 257 83ZM173 638T190 646T230 655T269 642T294 610Q309 575 310 541L311 528L231 485Q207 485 183 507T147 552L135 575Q136 578 137 583T146 603T163 627ZM454 514T431 514T389
522T362 542Q343 565 336 595L439 687Q472 672 492 640T516 584L520 559Q506 542 480 528Z" />
<glyph unicode="&#xd7;" glyph-name="multiply" horiz-adv-x="496" d="M179 -30L53 51L202 189L68 292L190 415Q204 376 230 336T274 276L293 255L399 405L506 294L372 183L499 74L366 -54Q354 -2 334 43T298 107L284 126L179 -30Z" />
<glyph unicode="&#xd8;" glyph-name="Oslash" horiz-adv-x="507" d="M235 -33Q230 -72 230 -95T230 -125L231 -137Q206 -133 177 -118T126 -80L148 10Q116 32 93 57T63 97L56 111Q56 201 75 271T123 377T179 435T226 464L246 469Q263 449 290 438Q319 555 331
624Q360 615 383 600T416 574L426 563L382 450L448 502Q508 472 531 389Q541 353 541 303T526 202T485 117T430 54T370 8Q305 -26 274 -36L258 -40L235 -33ZM257 83Q285 83 318 114T370 204Q380 231 380 266T368 344Q257 223 257 83Z" />
<glyph unicode="&#xd9;" glyph-name="Ugrave" horiz-adv-x="527" d="M483 0Q380 0 354 69Q323 37 270 20T173 3Q101 3 70 9L59 11Q58 24 58 38T58 76T76 209T127 434Q169 455 237 474T358 494Q347 475 330 441T281 309T239 122L341 158Q342 242 355 310T380 405L393
431Q469 401 580 401Q536 281 518 188T500 71T500 42L503 2Q495 0 483 0ZM473 558Q376 514 305 514Q241 514 214 527L204 532L235 664L473 558Z" />
<glyph unicode="&#xda;" glyph-name="Uacute" horiz-adv-x="527" d="M483 0Q380 0 354 69Q323 37 270 20T173 3Q101 3 70 9L59 11Q58 24 58 38T58 76T76 209T127 434Q169 455 237 474T358 494Q347 475 330 441T281 309T239 122L341 158Q342 242 355 310T380 405L393
431Q469 401 580 401Q536 281 518 188T500 71T500 42L503 2Q495 0 483 0ZM497 558Q409 525 341 525Q266 525 229 559L466 690L497 558Z" />
<glyph unicode="&#xdb;" glyph-name="Ucircumflex" horiz-adv-x="526" d="M482 0Q379 0 353 69Q322 37 269 20T172 3Q100 3 68 9L58 11Q57 24 57 38T57 76T75 209T126 434Q168 455 236 474T357 494Q346 475 329 441T280 309T238 122L340 158Q341 242 354 310T380
405L392 431Q468 401 579 401Q535 281 517 188T499 71T500 42L502 2Q494 0 482 0ZM180 503Q166 491 160 482L154 474Q154 528 187 579Q232 648 323 648Q358 648 380 636T411 607Q424 580 424 565T423 544L421 532Q385 556 314 556T180 503Z" />
<glyph unicode="&#xdc;" glyph-name="Udieresis" horiz-adv-x="527" d="M483 0Q380 0 354 69Q323 37 270 20T173 3Q101 3 70 9L59 11Q58 24 58 38T58 76T76 209T127 434Q169 455 237 474T358 494Q347 475 330 441T281 309T239 122L341 158Q342 242 355 310T380
405L393 431Q469 401 580 401Q536 281 518 188T500 71T500 42L503 2Q495 0 483 0ZM266 936T286 904T309 840L311 809L231 766Q207 766 183 788T147 834L135 856Q136 859 137 864T146 884T164 908Q188 936 227 936ZM454 795T424 795T371 815T342 856L336 876L439
968Q472 953 492 921T516 864L520 840Q506 823 480 809Z" />
<glyph unicode="&#xdd;" glyph-name="Yacute" horiz-adv-x="497" d="M191 530Q281 418 281 243Q281 217 278 189Q316 224 342 273T377 368Q393 445 393 476T392 516L390 540L557 409Q557 242 383 177L362 -5L112 -43Q136 -3 154 60T173 170T159 247T124 296Q84
329 49 337L35 340Q89 389 128 436T179 507L191 530ZM459 845Q371 812 303 812Q228 812 191 846L428 977L459 845Z" />
<glyph unicode="&#xde;" glyph-name="Thorn" horiz-adv-x="522" d="M168 509L394 549Q371 504 345 435Q389 439 415 439Q425 435 453 414T502 373T544 317T578 243Q552 149 461 94T226 32L198 -98Q115 -54 40 16L99 244Q83 286 77 328L75 342Q96 356 133 374L168
509ZM379 270T362 272T330 275T289 269Q256 155 248 122H251Q292 122 325 133T378 162Q417 196 428 224L432 236Q421 259 400 264Z" />
<glyph unicode="&#xdf;" glyph-name="germandbls" horiz-adv-x="457" d="M372 223Q379 223 398 219T432 208T459 186T471 142T452 82T404 30Q347 -12 302 -26L283 -33Q258 -18 235 5T200 46L189 62Q344 94 348 147Q349 157 345 163Q236 149 225 146Q236 155 279
241T322 364Q322 386 304 387H270Q229 300 199 188T158 6L148 -62Q67 -31 22 19Q40 93 70 194Q122 370 122 411Q122 418 121 424Q180 453 248 475T363 497L469 415Q461 359 434 311T383 243L360 223H372Z" />
<glyph unicode="&#xe0;" glyph-name="agrave" horiz-adv-x="446" d="M420 167Q420 83 440 20L353 -20Q290 -5 277 62Q251 32 220 11T167 -10Q120 -10 82 32T43 112T59 192T104 274T182 339T278 365T346 350L372 402Q407 389 434 367T471 328L481 312Q466 255 431
200L420 182Q420 174 420 167ZM188 89Q230 89 277 138Q289 219 329 311Q253 269 215 202Q184 147 184 107Q184 98 186 89Q187 89 188 89ZM437 456Q340 412 269 412Q205 412 178 425L168 430L199 562L437 456Z" />
<glyph unicode="&#xe1;" glyph-name="aacute" horiz-adv-x="446" d="M420 167Q420 83 440 20L353 -20Q290 -5 277 62Q251 32 220 11T167 -10Q120 -10 82 32T43 112T59 192T104 274T182 339T278 365T346 350L372 402Q407 389 434 367T471 328L481 312Q466 255 431
200L420 182Q420 174 420 167ZM188 89Q230 89 277 138Q289 219 329 311Q253 269 215 202Q184 147 184 107Q184 98 186 89Q187 89 188 89ZM441 447Q353 414 285 414Q210 414 173 448L410 579L441 447Z" />
<glyph unicode="&#xe2;" glyph-name="acircumflex" horiz-adv-x="446" d="M420 167Q420 83 440 20L353 -20Q290 -5 277 62Q251 32 220 11T167 -10Q120 -10 82 32T43 112T59 192T104 274T182 339T278 365T346 350L372 402Q407 389 434 367T471 328L481 312Q466
255 431 200L420 182Q420 174 420 167ZM188 89Q230 89 277 138Q289 219 329 311Q253 269 215 202Q184 147 184 107Q184 98 186 89Q187 89 188 89ZM192 394Q178 382 172 373L166 365Q166 419 199 470Q244 539 335 539Q370 539 392 527T423 498Q436 471 436 456T435
435L433 423Q397 447 326 447T192 394Z" />
<glyph unicode="&#xe3;" glyph-name="atilde" horiz-adv-x="446" d="M420 167Q420 83 440 20L353 -20Q290 -5 277 62Q251 32 220 11T167 -10Q120 -10 82 32T43 112T59 192T104 274T182 339T278 365T346 350L372 402Q407 389 434 367T471 328L481 312Q466 255 431
200L420 182Q420 174 420 167ZM188 89Q230 89 277 138Q289 219 329 311Q253 269 215 202Q184 147 184 107Q184 98 186 89Q187 89 188 89ZM134 534Q180 488 253 488Q265 488 277 489Q284 496 296 506T341 534T403 551T446 537T461 511T462 488Q462 457 452 430L446
416Q442 420 433 427T391 443T337 453T312 453Q290 431 256 414T189 396T136 410Q114 426 114 458Q114 492 128 520L134 534Z" />
<glyph unicode="&#xe4;" glyph-name="adieresis" horiz-adv-x="446" d="M420 167Q420 83 440 20L353 -20Q290 -5 277 62Q251 32 220 11T167 -10Q120 -10 82 32T43 112T59 192T104 274T182 339T278 365T346 350L372 402Q407 389 434 367T471 328L481 312Q466 255
431 200L420 182Q420 174 420 167ZM188 89Q230 89 277 138Q289 219 329 311Q253 269 215 202Q184 147 184 107Q184 98 186 89Q187 89 188 89ZM145 552T162 560T202 569T241 556T266 524Q281 489 282 455L283 442L203 399Q179 399 155 421T119 466L107 489Q108 492
109 497T118 517T135 541ZM426 428T403 428T361 436T334 456Q315 479 308 509L411 601Q444 586 464 554T488 498L492 473Q478 456 452 442Z" />
<glyph unicode="&#xe5;" glyph-name="aring" horiz-adv-x="446" d="M420 167Q420 83 440 20L353 -20Q290 -5 277 62Q251 32 220 11T167 -10Q120 -10 82 32T43 112T59 192T104 274T182 339T278 365T346 350L372 402Q407 389 434 367T471 328L481 312Q466 255 431
200L420 182Q420 174 420 167ZM188 89Q230 89 277 138Q289 219 329 311Q253 269 215 202Q184 147 184 107Q184 98 186 89Q187 89 188 89ZM148 527T185 558T282 589T374 565T407 497T367 425T266 396T177 425T148 482Q148 527 185 558ZM229 500Q228 494 228 484T242
463T284 452Q339 452 339 486Q339 513 295 513T229 500Z" />
<glyph unicode="&#xe6;" glyph-name="ae" horiz-adv-x="635" d="M425 78Q436 77 459 77T529 88T606 114L637 129Q639 119 639 110Q639 71 604 32Q561 -17 458 -38Q445 -36 423 -32T353 -5T276 49Q250 25 217 8T167 -10Q120 -10 82 32T43 112T59 192T104 274T182
339T278 365T346 350L372 402Q423 381 457 345Q515 360 562 383L576 390Q613 369 634 333T660 272L663 246Q635 183 569 149T431 110L425 78ZM188 89Q230 89 277 138Q289 219 329 311Q253 269 215 202Q184 147 184 107Q184 98 186 89Q187 89 188 89ZM506 205Q519
225 519 238T511 258T490 266T467 264Q460 239 431 155Q478 162 506 205Z" />
<glyph unicode="&#xe7;" glyph-name="ccedilla" horiz-adv-x="394" d="M398 376L433 397Q434 379 434 344Q434 264 384 185Q305 207 249 250Q211 185 209 86Q235 86 360 128L401 142Q401 124 390 98T359 50T297 6T195 -31Q155 -25 105 1T34 60Q41 125 58 180T96
270Q139 339 168 360L180 370Q239 347 296 347T398 376ZM564 97Q560 75 560 62T561 33Q562 -16 587 -40Q601 -54 623 -54Q626 -54 629 -54Q629 -88 586 -115T480 -142Q412 -142 374 -114Q366 -107 360 -98Q497 -64 497 3Q497 31 475 59L564 97Z" />
<glyph unicode="&#xe8;" glyph-name="egrave" horiz-adv-x="404" d="M194 78Q205 77 228 77T298 88T376 114L406 129Q408 119 408 110Q408 71 374 32Q330 -17 227 -38Q212 -36 189 -31T114 -1T36 61Q41 125 63 192T106 295L126 330Q182 333 237 348T318 376L345
390Q382 369 403 333T428 272L432 246Q404 183 338 149T200 110Q197 97 194 78ZM285 205Q298 225 298 238T290 258T269 266T246 264Q239 239 210 155Q257 162 285 205ZM387 443Q290 399 219 399Q155 399 128 412L118 417L149 549L387 443Z" />
<glyph unicode="&#xe9;" glyph-name="eacute" horiz-adv-x="404" d="M194 78Q205 77 228 77T298 88T376 114L406 129Q408 119 408 110Q408 71 374 32Q330 -17 227 -38Q212 -36 189 -31T114 -1T36 61Q41 125 63 192T106 295L126 330Q182 333 237 348T318 376L345
390Q382 369 403 333T428 272L432 246Q404 183 338 149T200 110Q197 97 194 78ZM285 205Q298 225 298 238T290 258T269 266T246 264Q239 239 210 155Q257 162 285 205ZM380 428Q292 395 224 395Q149 395 112 429L349 560L380 428Z" />
<glyph unicode="&#xea;" glyph-name="ecircumflex" horiz-adv-x="412" d="M202 78Q213 77 236 77T306 88T384 114L414 129Q416 119 416 110Q416 71 382 32Q338 -17 235 -38Q220 -36 197 -31T122 -1T44 61Q49 125 71 192T114 295L134 330Q190 333 245 348T326 376L353
390Q390 369 411 333T436 272L440 246Q412 183 346 149T208 110Q205 97 202 78ZM293 205Q306 225 306 238T298 258T277 266T254 264Q247 239 218 155Q265 162 293 205ZM110 395Q96 383 90 374L84 366Q84 420 117 471Q162 540 253 540Q288 540 310 528T341 499Q354
472 354 457T353 436L351 424Q315 448 244 448T110 395Z" />
<glyph unicode="&#xeb;" glyph-name="edieresis" horiz-adv-x="401" d="M191 78Q202 77 225 77T295 88T372 114L403 129Q405 119 405 110Q405 71 370 32Q327 -17 224 -38Q209 -36 186 -31T111 -1T33 61Q38 125 60 192T103 295L123 330Q179 333 233 348T315 376L342
390Q379 369 400 333T426 272L429 246Q401 183 335 149T197 110Q194 97 191 78ZM282 205Q295 225 295 238T287 258T266 266T243 264Q236 239 207 155Q254 162 282 205ZM182 540T201 511T222 452L224 423L150 383Q128 383 106 403T72 445L61 466Q62 469 63 474T72
492T88 514Q112 540 147 540ZM355 410T328 410T279 429T252 466L247 485L342 569Q372 555 390 526T412 474L416 451Q403 435 379 423Z" />
<glyph unicode="&#xec;" glyph-name="igrave" horiz-adv-x="235" d="M237 218T225 181T204 88T194 3T194 -32Q148 -11 114 11T68 45L57 57Q57 148 68 226T90 336L101 369Q191 353 262 323L286 313Q277 302 257 260ZM312 438Q215 394 144 394Q80 394 54 407L43
412L74 544L312 438Z" />
<glyph unicode="&#xed;" glyph-name="iacute" horiz-adv-x="235" d="M237 218T225 181T204 88T194 3T194 -32Q148 -11 114 11T68 45L57 57Q57 148 68 226T90 336L101 369Q191 353 262 323L286 313Q277 302 257 260ZM351 429Q263 396 195 396Q120 396 83 430L320
561L351 429Z" />
<glyph unicode="&#xee;" glyph-name="icircumflex" horiz-adv-x="256" d="M262 218T250 181T229 88T219 3T219 -32Q173 -11 139 11T94 45L82 57Q82 148 93 226T115 336L126 369Q216 353 287 323L311 313Q302 302 282 260ZM90 396Q76 384 70 376L64 367Q64 421
97 472Q142 541 233 541Q268 541 290 529T321 500Q334 473 334 458T333 437L331 425Q295 449 224 449T90 396Z" />
<glyph unicode="&#xef;" glyph-name="idieresis" horiz-adv-x="249" d="M252 218T240 181T219 88T209 3T209 -32Q163 -11 129 11T84 45L72 57Q72 148 83 226T105 336L116 369Q206 353 277 323L301 313Q292 302 272 260ZM130 540T149 511T170 452L172 423L98 383Q76
383 54 403T20 445L9 466Q10 469 11 474T20 492T36 514Q60 540 95 540ZM303 410T276 410T227 429T200 466L195 485L290 569Q320 555 338 526T360 474L364 451Q351 435 327 423Z" />
<glyph unicode="&#xf0;" glyph-name="eth" horiz-adv-x="475" d="M229 311Q291 311 341 265Q342 316 300 370L111 341L131 419L251 428Q155 485 81 511L260 547Q335 516 400 449Q467 454 525 454L505 402L446 393Q465 365 481 314T498 215T476 123T422 50T352
2Q283 -35 234 -35Q207 -35 162 -16T76 40T36 116T55 194Q92 268 178 301Q202 311 229 311ZM326 166Q327 174 327 186T321 214T302 231Q270 231 237 191T190 116T176 75T179 68Q206 68 243 92T303 142L326 166Z" />
<glyph unicode="&#xf1;" glyph-name="ntilde" horiz-adv-x="450" d="M279 34Q313 158 313 224Q313 229 313 233L311 251Q254 202 198 97Q193 61 188 -3Q149 6 117 21T72 46L59 57Q65 200 82 317L87 356L261 394Q241 340 222 242Q258 305 297 341T368 377Q427 377
484 244Q477 230 466 205T436 106T415 -36Q322 -7 279 34ZM132 547Q178 501 251 501Q263 501 275 502Q282 509 294 519T339 547T401 564T444 550T459 524T460 501Q460 470 450 443L444 429Q440 433 431 440T389 456T335 466T310 466Q288 444 254 427T187 409T134
423Q112 439 112 471Q112 505 126 533L132 547Z" />
<glyph unicode="&#xf2;" glyph-name="ograve" horiz-adv-x="412" d="M386 402T413 356T440 245T407 129T328 51T245 10T191 -5Q148 16 112 44T60 91L45 109Q46 166 61 215T98 296Q143 359 177 380L192 390Q235 378 277 362L341 422Q386 402 413 356ZM334 227L278
274Q213 185 206 89Q210 90 216 91T241 102T275 124T308 165T334 227ZM372 473Q275 429 204 429Q140 429 114 442L103 447L134 579L372 473Z" />
<glyph unicode="&#xf3;" glyph-name="oacute" horiz-adv-x="412" d="M386 402T413 356T440 245T407 129T328 51T245 10T191 -5Q148 16 112 44T60 91L45 109Q46 166 61 215T98 296Q143 359 177 380L192 390Q235 378 277 362L341 422Q386 402 413 356ZM334 227L278
274Q213 185 206 89Q210 90 216 91T241 102T275 124T308 165T334 227ZM371 448Q283 415 215 415Q140 415 103 449L340 580L371 448Z" />
<glyph unicode="&#xf4;" glyph-name="ocircumflex" horiz-adv-x="412" d="M386 402T413 356T440 245T407 129T328 51T245 10T191 -5Q148 16 112 44T60 91L45 109Q46 166 61 215T98 296Q143 359 177 380L192 390Q235 378 277 362L341 422Q386 402 413 356ZM334
227L278 274Q213 185 206 89Q210 90 216 91T241 102T275 124T308 165T334 227ZM158 413Q144 401 138 392L132 384Q132 438 165 489Q210 558 301 558Q336 558 358 546T389 517Q402 490 402 475T401 454L399 442Q363 466 292 466T158 413Z" />
<glyph unicode="&#xf5;" glyph-name="otilde" horiz-adv-x="413" d="M386 402T413 356T440 245T407 129T328 51T245 10T191 -5Q148 16 112 44T60 91L45 109Q46 166 61 215T98 296Q143 359 177 380L192 390Q235 378 277 362L341 422Q386 402 413 356ZM334 227L278
274Q213 185 206 89Q210 90 216 91T241 102T275 124T308 165T334 227ZM107 539Q153 493 226 493Q238 493 250 494Q257 501 269 511T314 539T376 556T419 542T434 516T435 493Q435 462 424 435L419 421Q415 425 406 432T364 448T310 458T285 458Q263 436 229 419T162
401T110 415Q87 431 87 463Q87 497 100 525L107 539Z" />
<glyph unicode="&#xf6;" glyph-name="odieresis" horiz-adv-x="412" d="M386 402T413 356T440 245T407 129T328 51T245 10T191 -5Q148 16 112 44T60 91L45 109Q46 166 61 215T98 296Q143 359 177 380L192 390Q235 378 277 362L341 422Q386 402 413 356ZM334 227L278
274Q213 185 206 89Q210 90 216 91T241 102T275 124T308 165T334 227ZM206 580T225 551T246 492L248 463L174 423Q152 423 130 443T96 485L85 506Q86 509 87 514T96 532T112 554Q136 580 171 580ZM379 450T352 450T303 469T276 506L271 525L366 609Q396 595 414
566T436 514L440 491Q427 475 403 463Z" />
<glyph unicode="&#xf7;" glyph-name="divide" horiz-adv-x="444" d="M240 287T223 308T206 355T226 404T287 426Q364 426 364 354Q364 327 344 307T282 287ZM216 250T311 250T479 259L453 176L404 169Q313 156 170 156Q116 156 45 159L98 259Q216 250 311 250ZM298
114Q315 101 319 87T323 63T321 40T300 14T250 1T200 17T178 50L175 66Q188 105 226 122Q266 140 298 114Z" />
<glyph unicode="&#xf8;" glyph-name="oslash" horiz-adv-x="412" d="M386 402T413 356T440 251T419 150T364 79Q303 29 234 5Q220 -54 220 -107Q220 -115 220 -120L222 -137Q178 -126 131 -74Q139 -34 151 17Q120 37 94 60T56 96L45 109Q46 166 61 215T98 296Q143
359 177 380L192 390L230 378Q258 490 266 543Q290 535 310 523T338 501L346 492L305 388L341 422Q386 402 413 356ZM334 227L278 274Q222 198 209 114L227 95Q307 124 334 227Z" />
<glyph unicode="&#xf9;" glyph-name="ugrave" horiz-adv-x="458" d="M63 44Q59 93 59 130Q59 233 80 296L93 331Q112 347 166 360T279 373Q270 357 256 329T224 227T205 95Q205 80 206 66Q216 69 235 90T268 139Q308 212 332 336Q410 301 496 301Q468 224 450
143T428 18L425 -25Q397 -15 364 15T314 80Q309 70 291 49T257 13Q214 -24 167 -32L63 44ZM459 448Q362 404 291 404Q227 404 200 417L190 422L221 554L459 448Z" />
<glyph unicode="&#xfa;" glyph-name="uacute" horiz-adv-x="458" d="M63 44Q59 93 59 130Q59 233 80 296L93 331Q112 347 166 360T279 373Q270 357 256 329T224 227T205 95Q205 80 206 66Q216 69 235 90T268 139Q308 212 332 336Q410 301 496 301Q468 224 450
143T428 18L425 -25Q397 -15 364 15T314 80Q309 70 291 49T257 13Q214 -24 167 -32L63 44ZM441 439Q353 406 285 406Q210 406 173 440L410 571L441 439Z" />
<glyph unicode="&#xfb;" glyph-name="ucircumflex" horiz-adv-x="458" d="M63 44Q59 93 59 130Q59 233 80 296L93 331Q112 347 166 360T279 373Q270 357 256 329T224 227T205 95Q205 80 206 66Q216 69 235 90T268 139Q308 212 332 336Q410 301 496 301Q468 224
450 143T428 18L425 -25Q397 -15 364 15T314 80Q309 70 291 49T257 13Q214 -24 167 -32L63 44ZM193 413Q179 401 173 392L167 384Q167 438 200 489Q245 558 336 558Q371 558 393 546T424 517Q437 490 437 475T436 454L434 442Q398 466 327 466T193 413Z" />
<glyph unicode="&#xfc;" glyph-name="udieresis" horiz-adv-x="458" d="M63 44Q59 93 59 130Q59 233 80 296L93 331Q112 347 166 360T279 373Q270 357 256 329T224 227T205 95Q205 80 206 66Q216 69 235 90T268 139Q308 212 332 336Q410 301 496 301Q468 224 450
143T428 18L425 -25Q397 -15 364 15T314 80Q309 70 291 49T257 13Q214 -24 167 -32L63 44ZM228 545T247 516T268 457L270 428L196 388Q174 388 152 409T118 450L107 471Q108 474 109 479T118 497T134 520Q158 545 193 545ZM401 415T380 415T342 422T316 441Q298
465 293 490L388 574Q418 560 436 531T458 478L462 456Q449 440 425 428Z" />
<glyph unicode="&#xfd;" glyph-name="yacute" horiz-adv-x="429" d="M273 408Q224 327 224 225Q224 212 225 179T243 89Q273 135 294 202T323 313L330 357Q426 323 472 271Q462 252 446 219T397 89T352 -99Q310 -119 258 -126T185 -134T158 -134L121 -132Q162
-107 194 -63T239 14L251 46L152 -9Q120 22 101 68Q71 141 71 254Q71 287 74 308L78 333Q86 340 100 351T165 383T273 408ZM424 465Q336 432 268 432Q193 432 156 466L393 597L424 465Z" />
<glyph unicode="&#xfe;" glyph-name="thorn" horiz-adv-x="452" d="M194 -108L195 -122Q119 -99 50 -33Q98 323 98 548Q167 529 284 517Q256 412 234 298Q266 339 301 369T356 410L375 420Q386 416 403 409T457 373T510 312Q499 214 411 125T198 10Q194 -36 194
-68T194 -108ZM214 172Q207 141 207 116T225 91Q248 91 282 144T330 239T345 292T340 303Q318 303 214 172Z" />
<glyph unicode="&#xff;" glyph-name="ydieresis" horiz-adv-x="429" d="M273 408Q224 327 224 225Q224 212 225 179T243 89Q273 135 294 202T323 313L330 357Q426 323 472 271Q462 252 446 219T397 89T352 -99Q310 -119 258 -126T185 -134T158 -134L121 -132Q162
-107 194 -63T239 14L251 46L152 -9Q120 22 101 68Q71 141 71 254Q71 287 74 308L78 333Q86 340 100 351T165 383T273 408ZM198 575T217 546T238 487L240 458L166 418Q144 418 122 439T88 480L77 501Q78 504 79 509T88 527T104 550Q128 575 163 575ZM371 445T350
445T312 452T286 471Q268 495 263 520L358 604Q388 590 406 561T428 508L432 486Q419 470 395 458Z" />
<glyph unicode="&#x2013;" glyph-name="endash" horiz-adv-x="444" d="M44 143L68 256Q211 256 312 262T443 274L473 279L440 156Q271 156 105 146L44 143Z" />
<glyph unicode="&#x2014;" glyph-name="emdash" horiz-adv-x="554" d="M44 143L68 256Q343 256 526 274L583 279L550 156Q373 156 132 146L44 143Z" />
<glyph unicode="&#x2018;" glyph-name="quoteleft" horiz-adv-x="171" d="M222 610Q216 574 216 548Q216 476 234 422L246 388L106 350Q104 373 104 401T112 470T138 536Q176 592 208 604L222 610Z" />
<glyph unicode="&#x2019;" glyph-name="quoteright" horiz-adv-x="148" d="M118 350Q124 386 124 412Q124 484 106 538L94 572L234 610Q236 587 236 559T228 490T202 424Q164 368 132 356L118 350Z" />
<glyph unicode="&#x201a;" glyph-name="quotesinglbase" horiz-adv-x="176" d="M44 -142Q50 -106 50 -80Q50 -8 32 46L20 80L160 118Q162 95 162 67T154 -2T128 -68Q90 -124 58 -136L44 -142Z" />
<glyph unicode="&#x201c;" glyph-name="quotedblleft" horiz-adv-x="357" d="M408 610Q402 574 402 548Q402 476 420 422L432 388L292 350Q290 373 290 401T298 470T324 536Q362 592 394 604L408 610ZM222 610Q216 574 216 548Q216 476 234 422L246 388L106 350Q104
373 104 401T112 470T138 536Q176 592 208 604L222 610Z" />
<glyph unicode="&#x201d;" glyph-name="quotedblright" horiz-adv-x="334" d="M118 350Q124 386 124 412Q124 484 106 538L94 572L234 610Q236 587 236 559T228 490T202 424Q164 368 132 356L118 350ZM304 350Q310 386 310 412Q310 484 292 538L280 572L420 610Q422
587 422 559T414 490T388 424Q350 368 318 356L304 350Z" />
<glyph unicode="&#x201e;" glyph-name="quotedblbase" horiz-adv-x="361" d="M71 0Q77 36 77 62Q77 134 58 188L47 222L187 260Q189 237 189 209T181 140T155 74Q117 18 85 6L71 0ZM257 0Q263 36 263 62Q263 134 244 188L233 222L373 260Q375 237 375 209T367
140T341 74Q303 18 271 6L257 0Z" />
<glyph unicode="&#x2022;" glyph-name="bullet" horiz-adv-x="266" d="M272 226Q272 187 246 153T172 119T101 151T77 211Q78 215 79 222T87 246T106 277T138 302T186 313Q192 297 217 275T271 240Q272 233 272 226Z" />
<glyph unicode="&#x2039;" glyph-name="guilsinglleft" horiz-adv-x="377" d="M68 298Q135 346 197 400T288 484L317 514Q331 480 356 454T399 418L417 409L209 284Q239 247 285 216T362 172L393 160Q324 108 229 93Q173 160 90 269L68 298Z" />
<glyph unicode="&#x203a;" glyph-name="guilsinglright" horiz-adv-x="378" d="M424 289Q357 241 295 187T204 103L175 73Q161 107 136 133T93 168L75 178L283 303Q253 340 207 371T130 414L99 427Q168 479 263 494Q319 427 402 318L424 289Z" />
</font>
</defs>
</svg>
