<?xml version="1.0" standalone="no"?>
<!DOCTYPE svg PUBLIC "-//W3C//DTD SVG 1.1//EN" "http://www.w3.org/Graphics/SVG/1.1/DTD/svg11.dtd">
<svg xmlns="http://www.w3.org/2000/svg">
<defs >
<font id="Norican" horiz-adv-x="704" ><font-face
    font-family="Norican"
    units-per-em="2048"
    panose-1="2 0 5 4 0 0 0 2 0 4"
    ascent="2095"
    descent="-791"
    alphabetic="0" />
<glyph unicode=" " glyph-name="space" horiz-adv-x="389" />
<glyph unicode="!" glyph-name="exclam" horiz-adv-x="608" d="M371 379Q346 369 317 369Q295 369 295 395T297 434L449 1296Q471 1457 490 1487T526 1518H709Q741 1518 741 1464Q741 1410 615 1058T431 544T371 379ZM394 74T342 23T236 -29Q144 -29 144 49Q144
104 185 155T282 207T366 185T394 119Z" />
<glyph unicode="&quot;" glyph-name="quotedbl" horiz-adv-x="678" d="M130 1235Q130 1538 201 1538Q279 1538 304 1528T330 1487T304 1394T235 1213T186 1083H131Q132 1104 132 1130L130 1235ZM398 1235Q398 1538 469 1538Q547 1538 572 1528T598 1488T578 1403Q543
1325 502 1212T455 1083H399Q400 1104 400 1130L398 1235Z" />
<glyph unicode="#" glyph-name="numbersign" horiz-adv-x="1069" d="M885 512L748 514H707L551 39Q547 28 540 0T525 -49T508 -93Q487 -141 460 -141T425 -126T418 -82T430 -3T442 49Q486 175 567 512L350 506L223 39Q220 29 212 -1T198 -50T180 -94Q159 -141
132 -141T97 -126T90 -75T121 77T209 500Q180 500 94 496Q37 496 37 537Q37 606 86 623L233 633L264 807Q233 807 139 803Q82 803 82 844Q82 911 113 925Q139 937 175 937Q220 937 289 940Q366 1373 369 1381T382 1418T397 1462T412 1499T428 1529T446 1549T470
1564T501 1572Q528 1579 594 1579Q606 1579 618 1562T631 1526L473 948Q665 954 676 954Q774 1369 793 1430T833 1527T896 1570T1004 1579Q1016 1579 1028 1562T1040 1526L1038 1513L854 956Q1030 952 1030 915Q1030 885 999 852T930 819L809 821L752 649H776Q985
649 985 608Q985 578 954 545T885 512ZM602 647Q639 802 643 819Q571 819 436 813L387 647H602Z" />
<glyph unicode="$" glyph-name="dollar" horiz-adv-x="1069" d="M756 1423L721 1421L594 872Q731 772 779 728Q925 592 926 446Q926 206 688 61Q553 -22 379 -47L373 -80Q370 -94 366 -126T359 -172T342 -199T307 -213Q279 -213 279 -184Q279 -166 289 -109L297
-55Q283 -57 240 -57T141 -43T38 0T-40 75T-70 185T-22 287T96 330L139 332Q135 278 135 241T135 190T139 152T148 114T168 84T200 58Q246 37 315 35Q364 268 461 664Q319 782 273 830Q170 937 170 1028T213 1203T328 1346Q475 1468 670 1503L678 1550Q700 1676
714 1711T754 1747Q768 1747 778 1736T788 1710L741 1513Q776 1518 818 1518T917 1503T1026 1457T1112 1366T1145 1227Q1145 1207 948 1092T698 958V1057Q712 1065 790 1102Q965 1184 965 1225Q965 1423 756 1423ZM709 343Q709 404 663 467T530 604L399 41Q516
64 608 139Q709 221 709 343ZM539 1378T463 1304T387 1131T526 924L647 1407Q539 1378 463 1304Z" />
<glyph unicode="%" glyph-name="percent" horiz-adv-x="1401" d="M464 923T403 891T277 858T169 886T101 960Q53 1050 53 1124T64 1249T98 1348T156 1434Q232 1518 348 1518Q520 1518 568 1322Q580 1272 580 1213T560 1091T502 975ZM442 1317T424 1355T365 1393T291
1359T238 1273Q201 1170 201 1072T248 973Q304 973 351 1028T420 1152T442 1268ZM1206 14T1155 -7T1045 -29T944 0T876 74Q827 166 827 245T845 389T897 509T990 600T1117 635T1232 608T1304 534T1342 439T1354 336T1342 232T1304 133T1242 50ZM1206 466T1188 488T1134
510T1066 475T1014 388Q977 283 977 185T1022 86Q1078 86 1125 141T1194 265T1217 374T1212 440ZM944 1374Q993 1445 1005 1464T1034 1504T1059 1531T1082 1550T1110 1565T1142 1572Q1172 1579 1235 1579Q1243 1579 1249 1569T1255 1547T1249 1513L348 39Q341 28
326 -1T298 -50T268 -93Q233 -141 202 -141T170 -117Q170 -69 242 49Q673 869 944 1374Z" />
<glyph unicode="&amp;" glyph-name="ampersand" horiz-adv-x="1442" d="M811 -526Q799 -510 799 -494T824 -455T884 -403T956 -336Q1042 -247 1042 -104Q1042 -29 998 68Q984 98 956 154Q826 68 711 20T486 -29T283 11T131 132T70 319Q70 455 147 558Q206 638
254 677T328 737T403 788Q477 835 529 865T596 905Q567 1014 567 1083Q567 1195 641 1297T826 1458T1047 1518Q1175 1518 1286 1449Q1340 1416 1373 1362T1407 1241Q1407 1192 1299 1136Q1222 1096 1141 1063T1047 1024Q1025 1048 1018 1081Q1028 1087 1068 1105T1138
1138T1193 1176T1219 1223Q1219 1297 1161 1346T1039 1395T933 1373T870 1313Q825 1238 825 1156T841 1007T879 886T939 758T1004 641T1078 523T1143 418Q1218 466 1292 556T1413 733Q1425 755 1443 855T1483 973L1522 975Q1525 975 1527 975Q1565 975 1565 932Q1565
850 1510 727T1367 492T1196 328Q1238 266 1268 186T1298 41Q1298 -78 1231 -209T1049 -433T811 -526ZM911 238L618 805Q413 684 364 579Q342 530 342 475Q342 345 439 245T666 145Q728 145 783 167T911 238Z" />
<glyph unicode="&apos;" glyph-name="quotesingle" horiz-adv-x="354" d="M315 1458T295 1403T255 1283T216 1158T193 1083H137Q119 1187 119 1315Q119 1538 186 1538Q265 1538 290 1528T315 1488Z" />
<glyph unicode="(" glyph-name="parenleft" horiz-adv-x="934" d="M666 -23L662 -100Q582 -117 503 -117T345 -84T213 7T121 149Q49 311 49 541Q49 839 168 1100Q303 1397 528 1512Q654 1577 801 1577Q852 1577 920 1567L915 1464Q879 1470 844 1470Q747 1470
662 1426T515 1308T404 1138T326 936Q266 722 266 530Q266 219 401 66Q481 -25 621 -25Q649 -25 666 -23Z" />
<glyph unicode=")" glyph-name="parenright" horiz-adv-x="932" d="M268 1483L272 1561Q355 1577 432 1577T588 1544T721 1453T813 1311Q885 1149 885 920Q885 632 766 365Q632 65 410 -54Q287 -121 145 -121Q75 -121 14 -106L18 -4Q55 -10 90 -10Q187 -10 272
34T419 152T530 322T608 524Q668 738 668 930Q668 1206 562 1360Q523 1415 459 1450T313 1485Q285 1485 268 1483Z" />
<glyph unicode="*" glyph-name="asterisk" horiz-adv-x="870" d="M469 1462Q545 1462 545 1409Q545 1339 459 1081Q494 1098 562 1144Q725 1253 757 1253T814 1211T838 1145T817 1108T756 1082T674 1063Q527 1034 479 1022Q509 988 575 929T680 826T719 756T685
699T628 668T573 708T509 808Q445 928 420 987Q386 908 316 789T211 670Q186 670 155 699T123 757T160 828T266 933T362 1024Q176 1067 129 1083Q35 1116 35 1153Q35 1181 57 1223T100 1266T166 1241T256 1186Q383 1100 391 1094L393 1137L383 1352Q383 1406 394
1434T430 1462H469Z" />
<glyph unicode="+" glyph-name="plus" horiz-adv-x="1120" d="M799 416L662 418H584L516 145Q512 127 488 112T425 96T387 129Q387 146 391 154L453 412L209 399Q160 399 160 426T168 472T188 502Q211 522 229 526Q308 539 483 547L498 602Q504 634 519 700T541
801Q544 815 578 827T641 840Q662 840 662 784T639 631L618 551Q651 553 719 553Q920 553 920 516Q920 487 878 452T799 416Z" />
<glyph unicode="," glyph-name="comma" horiz-adv-x="483" d="M113 104T154 155T251 207T332 177T356 107T343 30T304 -56T260 -137Q194 -254 184 -264L127 -244Q166 -137 190 -29Q151 -29 132 -7T113 59Z" />
<glyph unicode="-" glyph-name="hyphen" horiz-adv-x="862" d="M655 614L518 616Q440 616 213 598Q156 598 156 639Q156 711 205 725Q235 731 366 741T547 752Q756 752 756 711Q756 681 725 648T655 614Z" />
<glyph unicode="." glyph-name="period" horiz-adv-x="422" d="M328 74T276 23T170 -29Q78 -29 78 49Q78 104 119 155T216 207T300 185T328 119Z" />
<glyph unicode="/" glyph-name="slash" horiz-adv-x="1014" d="M778 1374Q817 1500 856 1539T987 1579Q995 1579 1001 1569T1008 1544T1001 1513L223 -43Q217 -54 205 -84T181 -133T150 -176Q110 -223 29 -223Q6 -223 6 -191T39 -102T94 16T290 418T618 1060T778 1374Z" />
<glyph unicode="0" glyph-name="zero" horiz-adv-x="1210" d="M80 547Q80 785 190 1052Q270 1246 406 1379Q548 1518 727 1518Q961 1518 1060 1313Q1128 1174 1128 977Q1128 790 1082 624T977 350T843 156T663 21T460 -29T300 6Q192 67 136 219T80 547ZM922 1283T891
1305T822 1327T750 1314Q704 1295 641 1247Q456 1096 355 853T253 383Q253 357 254 332Q263 143 383 143Q465 143 546 193T691 325T811 510Q916 709 956 924Q972 1005 972 1044T971 1109T962 1172T938 1246Z" />
<glyph unicode="1" glyph-name="one" horiz-adv-x="709" d="M649 1518Q674 1518 674 1490T672 1452L395 221Q379 78 363 39T326 0H123Q96 0 96 46T118 192T164 385T219 590T328 1006T408 1313Q316 1240 202 1163T49 1085Q23 1095 23 1124T84 1192Q596 1518 649 1518Z" />
<glyph unicode="2" glyph-name="two" horiz-adv-x="1149" d="M481 -2T340 -15T128 -29T57 18Q57 46 109 95T230 206L349 314Q666 603 778 827Q854 980 854 1125T812 1339T676 1409Q567 1409 461 1311Q409 1263 376 1182T342 999Q383 941 440 914Q487 890 487 852Q487
835 475 820T436 805T281 894T154 1006Q154 1125 193 1223T298 1385Q437 1518 641 1518Q863 1518 980 1395Q1085 1286 1085 1137Q1085 880 830 588Q690 426 575 329Q390 174 334 137Q355 140 526 176T786 213Q934 213 934 145Q934 100 905 36T833 -29T695 -16T541
-2Z" />
<glyph unicode="3" glyph-name="three" horiz-adv-x="1188" d="M543 1030Q538 977 504 977Q477 977 361 1054T244 1151Q244 1239 309 1324T483 1463T684 1518T835 1510T948 1482T1042 1428Q1126 1353 1126 1212T1026 957T788 784Q893 755 958 668T1024 476T972
274T836 112T648 9T461 -29T314 -12T189 36T89 120T49 238T94 345T205 389Q266 389 284 308Q301 225 321 173Q359 76 450 76T618 142T736 305T778 493T733 643T592 700L549 698Q520 698 505 710T489 749T495 790T515 808T541 814T573 816Q671 816 747 891T862 1060T901
1240T859 1379T731 1432Q686 1432 613 1383T482 1265T424 1145Q438 1122 484 1082T543 1030Z" />
<glyph unicode="4" glyph-name="four" horiz-adv-x="1264" d="M403 494Q503 463 608 444Q670 603 756 811Q773 838 860 838H952Q935 765 799 428Q930 428 1008 471Q1022 475 1085 515T1196 594L1245 508Q1194 471 1141 427T1060 359T994 312Q923 270 801 270Q760
270 737 272L666 96Q656 61 639 31T608 0H455L449 20Q515 204 549 291Q421 311 266 340Q185 297 129 297Q84 297 52 327T20 388T25 435T46 462Q68 477 104 489L215 528L508 1208Q575 1396 597 1424T641 1472T687 1500Q743 1518 799 1518T866 1499Q747 1228 403
494Z" />
<glyph unicode="5" glyph-name="five" horiz-adv-x="1327" d="M281 74T253 119T225 212T274 307T401 354Q401 259 432 195Q488 74 618 74Q857 74 956 282Q1006 387 1006 494T918 683T709 764T475 633Q445 637 434 659Q461 772 550 1108T655 1458T680 1473H686Q943
1448 1068 1448T1364 1468L1421 1450Q1417 1409 1398 1375T1354 1296T1305 1229T1203 1203L1149 1202Q973 1202 879 1249Q868 1255 840 1272Q785 1307 745 1307Q730 1259 695 1157Q612 914 600 866Q745 946 888 946T1135 845T1239 602T1182 346T1033 150T822 20T580
-29Q504 -29 434 -4T323 47Z" />
<glyph unicode="6" glyph-name="six" horiz-adv-x="1094" d="M168 47T130 112T79 244T66 398T104 597T182 787T290 962Q381 1093 497 1235T664 1419T768 1462H924Q674 1205 550 1036Q403 833 354 714Q254 477 254 295Q254 217 264 189T287 143T318 114Q359 88
420 88T549 144T667 278T753 441T790 565T793 634T785 700T761 761T703 798Q646 813 520 813Q548 867 584 885T684 903Q857 903 937 835T1018 629Q1018 494 961 373T822 165T630 25T414 -29T238 9Z" />
<glyph unicode="7" glyph-name="seven" horiz-adv-x="1022" d="M1004 1354Q935 1206 810 978Q510 427 403 139Q392 109 368 55T344 0H115Q181 309 412 686Q525 868 642 1038T770 1225Q694 1182 545 1158T283 1133T125 1141T80 1176Q80 1197 94 1221T112 1252Q129
1284 134 1293T146 1322T160 1355T175 1386Q194 1421 215 1421Q403 1399 513 1399T749 1411T956 1423Q966 1423 987 1407T1008 1379T1004 1354Z" />
<glyph unicode="8" glyph-name="eight" horiz-adv-x="1286" d="M665 -20T580 -38T419 -57T278 -38T163 18Q53 99 53 262Q53 329 86 393T167 504T263 589T348 654T389 692Q221 837 221 956T279 1178T433 1354T654 1473T911 1518Q967 1518 1030 1506Q1149 1482 1149
1430T1112 1324T1036 1270Q1029 1281 1004 1305T954 1346Q893 1386 819 1386Q687 1386 594 1309T500 1128Q500 990 674 895Q688 902 820 978Q1102 1138 1210 1143L1243 1096Q1209 1077 1134 1036T1016 970Q902 906 786 811Q942 671 987 588Q1038 494 1038 404T999
238T894 110T747 19ZM508 590Q272 405 272 215Q272 140 322 91T472 41T664 113T756 284T684 460T508 590Z" />
<glyph unicode="9" glyph-name="nine" horiz-adv-x="1094" d="M825 1174Q825 1403 662 1403Q590 1403 519 1352T396 1224T312 1054T279 869T332 714T496 651Q539 651 563 653Q553 550 460 540Q445 539 424 539Q262 539 153 635T43 895Q43 1010 90 1123T215 1322T406
1462T641 1516Q830 1516 933 1402T1036 1092Q1036 1066 1027 967T959 686T823 346T644 79T455 -29H315Q825 750 825 1174Z" />
<glyph unicode=":" glyph-name="colon" horiz-adv-x="422" d="M328 832T276 781T170 729Q78 729 78 807Q78 861 119 913T216 965T300 943T328 877ZM328 74T276 23T170 -29Q78 -29 78 49Q78 104 119 155T216 207T300 185T328 119Z" />
<glyph unicode=";" glyph-name="semicolon" horiz-adv-x="483" d="M113 104T154 155T251 207T332 177T356 107T343 30T304 -56T260 -137Q194 -254 184 -264L127 -244Q166 -137 190 -29Q151 -29 132 -7T113 59ZM412 832T360 781T254 729Q162 729 162 807Q162 861
203 913T300 965T384 943T412 877Z" />
<glyph unicode="&lt;" glyph-name="less" horiz-adv-x="1544" d="M1067 397Q1197 194 1326 52Q1432 -67 1432 -113Q1432 -140 1406 -154T1338 -168T1261 -143T1182 -78T1098 10T1026 99T956 199T894 297T831 402T757 523T723 604T727 645T744 674T768 704T805
744T876 823T1000 963T1116 1096T1197 1188T1260 1256T1303 1299Q1337 1331 1374 1352T1449 1374T1513 1360T1540 1322T1509 1272T1434 1218T1325 1137T1210 1018Q1095 869 893 649L1067 397Z" />
<glyph unicode="=" glyph-name="equal" horiz-adv-x="1120" d="M852 614L715 616Q594 616 266 598Q209 598 209 639Q209 710 258 725Q294 732 447 742T776 752T952 711Q952 681 921 648T852 614ZM811 389L674 391Q553 391 225 373Q168 373 168 414Q168 485 217
500Q252 507 405 516T735 526T911 485Q911 455 880 422T811 389Z" />
<glyph unicode="&gt;" glyph-name="greater" horiz-adv-x="1544" d="M1145 397L1380 649Q1232 870 1176 975T1071 1133T986 1212Q895 1278 895 1310T926 1358T991 1374T1042 1370T1081 1351T1118 1319T1163 1260T1218 1177T1272 1090T1321 1008T1403 875T1505
719T1544 635Q1544 590 1468 504Q1444 476 1370 388T1264 262T1165 152T1050 35Q923 -79 805 -152Q778 -168 733 -168Q655 -168 655 -125Q655 -92 710 -37T897 140T1145 397Z" />
<glyph unicode="?" glyph-name="question" horiz-adv-x="999" d="M334 424Q258 424 258 465Q258 585 362 702Q424 771 528 861T678 998Q782 1106 782 1206Q782 1273 738 1324Q654 1425 502 1425Q418 1425 382 1407T325 1377T289 1342T262 1304T241 1260T226 1217T212
1171T199 1128L156 1130Q37 1135 37 1227Q37 1256 47 1278Q77 1356 150 1413Q286 1518 461 1518Q661 1518 812 1430Q884 1387 927 1318T971 1167T941 1019T863 905T756 815T637 737T526 665Q412 586 401 498Q391 461 372 443T334 424ZM455 74T403 23T298 -29Q205
-29 205 49Q205 104 246 155T343 207T427 185T455 119Z" />
<glyph unicode="@" glyph-name="at" horiz-adv-x="1587" d="M1464 854T1495 749T1526 535T1501 338T1428 173T1305 48T1131 0T966 55T899 199Q870 103 772 36T575 -31T415 32T354 214T408 445T550 643T762 785T1016 840Q1078 840 1184 807Q1181 789 1131 554T1073
279T1065 201Q1065 86 1145 86Q1224 86 1308 206Q1397 332 1397 512Q1397 885 1114 988Q1033 1018 923 1018T682 968T445 832T271 619T203 352Q203 98 354 -46T757 -190T1290 -76L1350 -199Q1101 -313 780 -313Q548 -313 369 -218Q171 -113 96 89Q55 199 55 335T107
599T248 823T452 992Q683 1139 946 1139Q1253 1139 1411 926Q1464 854 1495 749ZM995 764Q887 764 786 687T626 498T567 289T597 146T678 100T783 146T881 272L995 764Z" />
<glyph unicode="A" glyph-name="A" horiz-adv-x="1391" d="M1319 1272Q1346 1272 1346 1239Q1346 1227 1343 1223Q1255 987 1130 329Q1105 198 1134 174Q1143 166 1157 166Q1211 166 1253 198Q1320 249 1513 442V330Q1483 299 1434 246T1357 163T1288 94T1218
31T1154 -15Q1090 -57 1034 -57T949 -36Q891 4 891 135Q891 164 895 193Q787 81 657 12T422 -57Q244 -57 162 39T80 328Q80 466 131 612T271 889T480 1135T736 1336Q1028 1518 1313 1518Q1414 1518 1518 1486Q1716 1426 1716 1321Q1716 1279 1653 1221T1544 1151Q1486
1421 1253 1421Q1075 1421 854 1268Q643 1122 494 903Q338 672 338 463Q338 304 414 220T625 135Q714 135 806 208T918 390T1013 818T1109 1205T1319 1272Z" />
<glyph unicode="B" glyph-name="B" horiz-adv-x="1706" d="M211 303L209 213Q209 115 235 78Q262 41 312 41T401 68T468 145T519 249T558 372Q582 465 596 540T612 625L719 1192Q728 1249 948 1249Q918 1020 881 889Q881 885 844 709Q774 370 735 266Q764 186
849 132T1047 78T1226 156T1292 349T1227 581T1059 756V872Q1195 879 1281 943T1368 1106Q1368 1391 893 1391Q738 1391 581 1322Q403 1245 334 1135Q295 1072 295 1004Q295 891 457 834Q457 745 434 668Q322 703 232 780Q133 867 133 985T204 1204T392 1373Q643
1518 977 1518Q1275 1518 1432 1383Q1546 1286 1546 1126Q1546 1048 1512 991T1440 901Q1354 825 1196 823Q1388 725 1482 592T1577 346T1538 159T1432 38Q1296 -57 1119 -57T840 -5T674 156Q580 35 493 -11T301 -57Q202 -57 112 -2Q69 24 42 70T14 172Q14 303
211 303Z" />
<glyph unicode="C" glyph-name="C" horiz-adv-x="1268" d="M1096 1149Q1042 1417 926 1417Q816 1413 716 1366T540 1243T410 1071Q297 876 297 637T417 262T735 125Q890 125 1064 208T1403 451V340Q983 -57 616 -57Q308 -57 164 210Q82 365 82 561Q82 842 237
1104Q342 1283 521 1398Q707 1518 956 1518Q1105 1518 1210 1415T1315 1178Q1315 1120 1270 1098T1048 978Q800 840 780 840Q741 840 741 881Q741 930 918 1007Q985 1036 1040 1075T1096 1149Z" />
<glyph unicode="D" glyph-name="D" horiz-adv-x="1726" d="M152 326L145 221Q145 139 170 90T264 41Q303 41 339 67T397 143Q471 295 543 594L662 1208Q675 1247 791 1247H885Q872 1173 851 1018T815 767T758 531T655 264Q684 176 768 118T941 59T1117 109T1272
248T1383 468T1425 728T1405 950T1339 1125T1226 1266Q1082 1393 840 1393Q695 1393 552 1335T319 1188T229 1014Q229 897 393 834Q393 788 384 738T367 672Q218 719 143 806T68 984T101 1147T206 1287T382 1406Q610 1518 971 1518Q1115 1518 1235 1476T1437 1365T1575
1206Q1683 1034 1683 842T1627 486T1474 203T1241 14T950 -57Q722 -57 584 133Q506 21 416 -17T211 -55T22 20T-53 184Q-53 326 152 326Z" />
<glyph unicode="E" glyph-name="E" horiz-adv-x="1403" d="M616 240L674 238Q698 238 711 240Q718 238 804 205Q1030 119 1071 119T1163 145Q1189 149 1309 244T1524 438V328Q1494 301 1436 249T1352 173T1277 110T1201 52T1130 8T1054 -29Q968 -57 893 -57Q887
-57 874 -49T844 -33T795 -12T718 18Q640 48 442 109Q351 37 259 -10T100 -57Q77 -57 49 -44Q-8 -18 -8 43Q-8 96 114 148Q139 159 145 162L401 279Q427 317 514 631Q447 622 387 609T314 596T288 606T274 644Q274 689 326 702Q393 728 551 760Q666 1165 737 1262Q774
1314 842 1360Q741 1368 635 1368Q385 1368 268 1308T150 1143Q150 1087 201 1037T346 952Q346 917 337 876T317 825Q163 879 83 957T2 1120Q2 1299 178 1408T657 1518H948Q1569 1518 1569 1491Q1569 1479 1550 1460L1450 1346Q1398 1311 1346 1311T1159 1332T963
1356Q955 1326 901 1120T809 795Q939 805 1047 805T1272 799Q1309 799 1309 768T1278 703T1208 670Q913 670 774 659V657Q723 470 584 238L616 240Z" />
<glyph unicode="F" glyph-name="F" horiz-adv-x="1313" d="M899 1339L854 1341Q738 1341 626 1312T431 1238T299 1135T248 1022Q248 900 408 829Q408 787 398 731T379 662Q220 727 142 820T63 1016Q63 1203 266 1340T813 1507Q971 1518 1127 1518T1374 1517T1509
1516L1368 1305Q1274 1305 1154 1318T989 1335Q968 1225 934 1034T891 795Q976 805 1065 805T1272 799Q1309 799 1309 764T1278 689T1208 649Q973 649 860 639Q787 285 696 112Q617 -38 519 -104Q405 -180 252 -180Q65 -180 -1 -28Q-18 11 -18 49Q-18 205 195 205Q184
145 184 73T208 -39T288 -80T392 -26T482 135Q553 313 623 600L537 575Q532 575 519 575T493 585T479 621T488 665Q501 691 541 708T657 750Q672 812 683 863T704 954T719 1016T732 1070T746 1120T759 1161Q773 1202 784 1221Q837 1300 899 1339Z" />
<glyph unicode="G" glyph-name="G" horiz-adv-x="1458" d="M743 -467Q677 -467 610 -438T494 -350T446 -232Q446 -108 528 -88L985 45Q1026 199 1038 285L1055 371Q952 271 804 194T551 117Q316 117 190 453L70 383Q14 351 -6 339T-44 318Q-78 299 -89 299T-109
317T-117 365T-96 403Q-75 416 -4 454Q168 545 172 559Q172 747 241 922T429 1229T717 1439T1073 1518Q1149 1518 1219 1488T1338 1411Q1444 1307 1444 1188Q1444 1106 1402 1079Q1384 1068 1363 1060T1337 1049L1274 1020L444 586Q471 469 549 381T729 293Q885
293 1061 434Q1065 443 1084 518T1108 621H1307L1188 119Q1317 179 1583 440V330Q1500 241 1359 128T1157 -10Q1111 -234 1002 -350T743 -467ZM954 -74Q916 -90 848 -107T736 -137T657 -176T621 -254T660 -357T752 -408T840 -367T898 -264Q941 -149 954 -74ZM1160
1046Q1231 1077 1231 1130Q1231 1237 1170 1333T1042 1430Q941 1430 845 1386T675 1266T543 1094Q426 897 426 678L844 887Q898 914 969 950Q1123 1030 1160 1046Z" />
<glyph unicode="H" glyph-name="H" horiz-adv-x="1870" d="M322 819Q203 865 133 923Q4 1030 4 1149Q4 1360 244 1462Q372 1516 495 1516T801 1480T1054 1444T1197 1465T1303 1489Q1293 1426 1263 1371T1186 1286Q1132 1206 1111 1163T1082 1104T1060 1054T1041
1008T1021 956T1004 908Q977 839 967 805Q1092 817 1245 823Q1325 1036 1453 1207Q1597 1400 1765 1475Q1857 1516 1928 1516T2064 1498T2182 1437T2236 1349T2168 1239T2062 1171L2054 1192Q2008 1348 1903 1348Q1720 1348 1552 1102Q1470 982 1403 829H1477Q1708
829 1720 817T1733 783T1702 728T1632 694Q1494 694 1362 688Q1319 540 1319 393T1360 168T1471 90T1638 144Q1798 234 1995 442L1993 328Q1845 164 1674 55T1368 -55Q1274 -55 1218 28T1161 304T1206 680Q1089 672 932 657Q874 438 857 386Q772 124 633 22Q528
-55 383 -55Q300 -55 233 -28T130 39Q55 121 55 195Q55 295 206 311Q242 315 291 315V256Q291 109 338 71Q360 53 397 53T469 71T531 121T580 195T619 286T650 388Q675 488 687 552T702 631L489 600Q432 600 432 641Q432 697 460 716Q469 722 483 727Q587 752 735
774Q775 963 816 1051T903 1186T1012 1266Q958 1271 810 1299T594 1327T464 1319T330 1292T209 1234T160 1141Q160 1036 352 954Q352 858 322 819Z" />
<glyph unicode="I" glyph-name="I" horiz-adv-x="1061" d="M403 303L401 213Q401 117 428 78Q455 41 512 41Q700 41 801 604Q802 609 802 611T803 618T805 625L819 702Q546 722 427 828Q362 887 362 954Q362 1072 516 1230Q618 1333 784 1408Q958 1485 1178 1485Q1223
1485 1295 1506T1401 1530Q1389 1455 1350 1394T1249 1311Q1124 1096 1057 793L1024 647Q967 358 913 244Q839 88 758 29Q642 -57 494 -57Q395 -57 306 -2Q262 24 235 70T207 172Q207 303 403 303ZM526 950Q526 860 854 842Q899 1010 964 1124T1145 1303Q1019 1303
910 1272T733 1197T616 1101Q526 1007 526 950Z" />
<glyph unicode="J" glyph-name="J" horiz-adv-x="1077" d="M1073 1311Q968 1128 901 840Q1034 840 1176 862Q1176 782 1145 748Q1015 712 872 700L754 133Q779 148 878 202T1050 308T1210 446V334Q1133 242 976 142T731 10Q685 -204 579 -316T330 -428Q265 -428
199 -399T86 -311T39 -194Q39 -61 123 -39L541 74Q559 185 613 421T676 698V700Q352 717 236 848Q204 883 193 922Q179 949 196 1006T238 1100T292 1176T364 1252T456 1324T566 1387T694 1438Q837 1485 1001 1485Q1046 1485 1119 1506T1225 1530Q1213 1455 1174
1394T1073 1311ZM350 950Q350 906 438 877T707 840Q746 1005 806 1122T969 1303Q843 1303 734 1272T557 1197T440 1101Q350 1007 350 950ZM524 -66Q489 -78 408 -95T292 -125Q221 -150 221 -207T255 -310T338 -356T417 -326T468 -244Q503 -160 524 -66Z" />
<glyph unicode="K" glyph-name="K" horiz-adv-x="1888" d="M317 819Q200 864 130 923Q0 1030 0 1149Q0 1360 240 1462Q368 1516 489 1516T786 1480T1031 1444T1172 1465T1278 1489Q1255 1344 1161 1286Q1085 1183 1035 1066T938 793L920 731Q1056 870 1189 1026T1405
1265T1554 1400Q1708 1518 1862 1518Q1907 1518 1973 1503T2084 1469T2162 1418T2195 1344T2127 1239T2021 1171L2013 1192Q1967 1348 1862 1348Q1724 1348 1620 1255Q1528 1173 1462 1079Q1332 893 1233 803L1442 393Q1460 360 1491 301T1537 215T1574 158Q1611
105 1650 118T1766 201T2009 436V324Q1666 -53 1573 -53Q1505 -53 1436 22T1284 270L1085 719L891 625Q814 325 754 214Q679 72 602 19Q493 -55 358 -55Q275 -55 209 -28T106 39Q31 121 31 195Q31 295 180 311Q217 315 266 315V256Q266 109 313 71Q335 53 376 53T457
77T527 148T579 245T620 364T649 485T674 603T694 698L715 793Q777 1083 878 1186Q924 1233 987 1266Q945 1271 800 1299T589 1327T460 1319T326 1292T205 1234T156 1141Q156 1034 348 954Q348 857 317 819Z" />
<glyph unicode="L" glyph-name="L" horiz-adv-x="1255" d="M324 117Q102 -29 -39 -29Q-60 -29 -89 -16Q-147 11 -147 72Q-147 109 -104 136Q-59 164 6 190L268 309L500 1137Q519 1200 562 1236Q584 1255 606 1270T655 1306T749 1371T912 1467T1053 1518Q1182 1518
1286 1413T1391 1178Q1391 1120 1347 1098T1126 978Q876 840 856 840Q817 840 817 881Q817 929 992 1006Q1058 1034 1114 1073T1171 1147L1166 1175Q1135 1330 1070 1389Q1039 1417 1001 1417Q953 1411 884 1342T764 1193T702 1067Q603 580 469 266Q482 262 508
253T546 241T649 205Q886 119 940 119Q1028 119 1220 288Q1293 351 1376 438V326Q1150 100 1022 25Q881 -57 754 -57Q746 -57 734 -50T706 -36T660 -14T586 17Q467 66 324 117Z" />
<glyph unicode="M" glyph-name="M" horiz-adv-x="1712" d="M639 -18Q586 -3 586 41L614 1128H600L121 131Q78 54 -1 -34T-183 -191T-365 -260Q-412 -260 -412 -123Q-412 -62 -322 -26Q-216 15 -147 46Q-11 107 49 213Q130 388 334 816T608 1391Q649 1466 728 1513T895
1561Q895 1560 907 1554Q872 1288 855 937T831 485H846Q864 524 904 599Q1078 931 1325 1432L1323 1430Q1350 1474 1454 1525T1616 1579L1624 1575Q1487 864 1449 611T1411 249T1458 141Q1530 141 1833 438V324Q1443 -55 1284 -55Q1171 -55 1171 154Q1171 306 1201
488Q1244 747 1272 903T1315 1132T1331 1218T1319 1231T1303 1219Q688 8 639 -18Z" />
<glyph unicode="N" glyph-name="N" horiz-adv-x="1473" d="M1341 195L1597 440L1595 330Q1478 206 1460 193Q1199 -57 1100 -57Q963 -57 963 275T1053 1051Q1058 1073 1071 1120Q1100 1226 1100 1267T1073 1309Q1060 1309 1004 1286T876 1218T749 1128T646 1028T564
926T501 819T453 717T418 618Q391 532 382 489T349 329T272 0H66Q66 93 102 249T201 631T295 995L377 1313L55 1085L25 1075Q-2 1075 -2 1126Q-2 1150 23 1167L453 1438Q574 1516 623 1516Q643 1516 643 1497Q643 1439 604 1287T565 1122L549 1040Q876 1429 1158
1501Q1217 1516 1270 1516Q1354 1516 1354 1423Q1354 1395 1312 1190Q1188 573 1188 360T1257 147Q1294 147 1341 195Z" />
<glyph unicode="O" glyph-name="O" horiz-adv-x="1653" d="M1521 1069T1553 977T1585 792T1573 637Q1710 658 1853 743V651Q1718 545 1540 510Q1479 342 1346 211T1047 12T715 -57Q393 -57 223 190Q100 368 100 664Q100 912 258 1133Q429 1373 696 1466Q843 1518
1006 1518Q1067 1518 1143 1505L1139 1403Q1092 1411 1003 1411T799 1371T600 1263T453 1110Q328 937 328 748Q328 405 547 250Q675 160 853 160T1173 253T1395 496H1382Q1168 496 1018 602Q945 654 902 737T858 940T949 1149T1217 1239Q1359 1239 1468 1125Q1521
1069 1553 977ZM1030 999Q1030 840 1148 735T1448 627Q1475 712 1475 799Q1475 942 1402 1034T1190 1126Q1109 1126 1070 1092T1030 999Z" />
<glyph unicode="P" glyph-name="P" horiz-adv-x="1317" d="M63 176L61 66Q61 -82 178 -82Q273 -82 340 44Q404 163 432 279Q482 486 502 614L612 1190Q618 1219 666 1233T752 1247L840 1249Q829 1171 795 994T735 711H760Q1008 711 1145 824Q1274 932 1274 1068T1150
1298T799 1393Q680 1393 546 1357T310 1249T209 1100T250 983T373 913Q373 809 346 754Q180 805 94 926Q47 993 47 1083T118 1260T307 1402Q550 1518 860 1518Q1254 1518 1428 1340Q1528 1237 1528 1100Q1528 1007 1480 917T1348 753T1134 635T856 590Q788 590
715 602Q640 94 414 -86Q297 -180 169 -180T-46 -119T-133 53Q-133 176 63 176Z" />
<glyph unicode="Q" glyph-name="Q" horiz-adv-x="1632" d="M754 -229Q999 -192 1055 -152L1065 -272Q1024 -294 909 -318T729 -348Q699 -420 618 -469T420 -518Q310 -518 218 -468Q170 -443 141 -397T111 -289Q111 -209 178 -209L563 -236Q592 -201 650 -41T744
216T785 330T826 358Q869 371 977 371L754 -229ZM422 -334L301 -324Q272 -324 264 -327T256 -346Q256 -370 309 -397T418 -424T497 -399T537 -334H422ZM1482 1069T1514 977T1546 792T1534 637Q1671 658 1814 743V651Q1679 545 1501 510Q1440 342 1307 211T1008
12T676 -57Q354 -57 184 190Q61 368 61 664Q61 912 218 1133Q390 1373 657 1466Q804 1518 967 1518Q1028 1518 1104 1505L1100 1403Q1053 1411 964 1411T760 1371T561 1263T414 1110Q289 937 289 748Q289 405 508 250Q636 160 814 160T1134 253T1356 496H1343Q1129
496 980 602Q906 654 863 737T819 940T910 1149T1178 1239Q1320 1239 1428 1125Q1482 1069 1514 977ZM991 999Q991 840 1109 735T1409 627Q1436 712 1436 799Q1436 942 1363 1034T1151 1126Q1070 1126 1031 1092T991 999Z" />
<glyph unicode="R" glyph-name="R" horiz-adv-x="1616" d="M762 688Q876 688 976 726T1140 824T1241 952T1278 1083Q1278 1206 1163 1299T870 1393Q642 1393 444 1314Q350 1276 292 1216T233 1088T277 981T395 913Q395 822 369 754Q250 792 166 865Q72 946 72
1058T143 1257T331 1399Q577 1518 891 1518Q1145 1518 1340 1406Q1432 1354 1488 1274T1544 1100T1507 937T1392 814Q1254 719 981 649Q1035 619 1094 526T1194 339T1274 171T1335 96T1395 122T1484 192T1576 277T1669 368T1737 434L1739 332Q1728 320 1679 266T1608
189T1539 119T1461 49T1386 -4Q1307 -57 1245 -57T1145 -44T1081 -6T1039 42T1004 100T973 150Q859 452 748 600Q745 590 733 544T710 457T671 341T620 219T553 115T465 23Q353 -57 215 -57Q94 -57 -6 8Q-115 79 -115 205Q-115 260 -53 289T102 319Q109 319 117
315Q113 275 113 242Q113 53 238 53Q305 53 366 155T469 413T544 720T599 1003T629 1155T639 1184T653 1208T680 1231Q725 1249 778 1249T858 1247Q832 1030 762 688Z" />
<glyph unicode="S" glyph-name="S" horiz-adv-x="1069" d="M505 1355T446 1285T387 1144T416 1020T494 921T599 826T713 724T819 612Q926 483 926 324Q926 227 885 144T777 2T621 -98Q449 -180 252 -180Q136 -180 38 -123Q-10 -95 -40 -48T-70 62T-22 164T96 207L139
209Q135 155 135 118T135 67T139 27T149 -11T170 -41T204 -67Q258 -88 317 -88T428 -75T530 -36T620 26Q709 106 709 219Q709 326 602 451Q548 514 437 625T277 792Q170 916 170 1015T209 1195T314 1333T462 1434Q626 1518 803 1518Q923 1518 1026 1456Q1079 1425
1112 1366T1145 1227Q1145 1207 948 1092T698 958V1057Q712 1065 790 1102Q965 1184 965 1225Q965 1423 756 1423Q671 1423 588 1389Z" />
<glyph unicode="T" glyph-name="T" horiz-adv-x="1085" d="M383 672Q224 737 146 829T68 1010T104 1171T209 1305T368 1415Q563 1518 817 1518Q907 1518 1110 1481T1389 1444T1519 1459T1627 1496T1700 1524Q1663 1399 1564 1326T1331 1253Q1260 1253 1202 1273T1091
1314T1016 1343Q1005 1291 984 1182T952 1017T917 856T875 687T826 527T766 370T695 235T610 113T510 24Q406 -57 256 -57Q69 -57 3 95Q-14 134 -14 172Q-14 328 199 328Q188 268 188 195T212 84T297 41Q371 41 440 153T561 438T653 782T727 1109T776 1305Q838
1372 932 1372H934Q859 1393 797 1393Q658 1393 530 1339T327 1200T252 1032Q252 909 412 840Q412 797 402 741T383 672Z" />
<glyph unicode="U" glyph-name="U" horiz-adv-x="1645" d="M799 1509Q799 1498 746 1379T630 1113T514 778T461 457Q461 147 745 147Q880 147 1004 215T1217 394T1361 643T1425 924Q1367 933 1312 971T1224 1044Q1147 1128 1147 1247Q1147 1342 1195 1426Q1249
1520 1362 1520Q1409 1520 1445 1490T1500 1411T1533 1306T1549 1194T1554 1097T1556 1040T1554 1024Q1640 1038 1744 1103Q1785 1129 1821 1161V1047Q1678 942 1552 920Q1513 610 1340 360Q1157 97 904 -4Q769 -57 644 -57T440 -24T314 72Q223 195 223 407T312
872T537 1311Q537 1315 533 1315T520 1309L406 1221Q388 1211 318 1167Q123 1045 -43 946V1057Q67 1121 277 1250T615 1455T771 1530T799 1509ZM1430 1028L1432 1067Q1432 1167 1401 1253T1321 1339Q1266 1339 1266 1256T1313 1108T1430 1028Z" />
<glyph unicode="V" glyph-name="V" horiz-adv-x="1415" d="M467 1380T595 1455T751 1530T778 1509Q778 1530 719 1333T626 1001Q543 678 543 459Q543 182 698 182Q760 182 833 233T972 365T1102 545Q1223 737 1286 922Q1215 933 1120 1007Q1073 1044 1041 1107T1008
1230T1020 1336T1056 1424Q1110 1518 1223 1518Q1425 1518 1425 1022Q1533 1037 1672 1114Q1726 1143 1774 1180V1065Q1594 948 1413 918Q1372 726 1269 506Q1163 279 1001 116Q922 37 823 -10T623 -57T450 -17T338 96Q260 235 260 439T312 848T430 1151Q455 1188
484 1241T514 1304T512 1315T500 1309L385 1221Q368 1211 297 1167Q79 1032 -63 946V1057Q47 1121 257 1250ZM1296 1028L1298 1067Q1298 1210 1247 1296Q1221 1339 1188 1339Q1133 1339 1133 1256T1180 1108T1296 1028Z" />
<glyph unicode="W" glyph-name="W" horiz-adv-x="1978" d="M1884 1028L1886 1067Q1886 1210 1835 1296Q1809 1339 1776 1339Q1720 1339 1720 1256T1768 1108T1884 1028ZM2003 1047V1028V1022Q2101 1036 2235 1114Q2286 1143 2331 1180V1065Q2158 946 2001 918Q1986
683 1832 416Q1664 128 1460 9Q1346 -57 1235 -57Q1099 -57 1012 50Q979 91 962 138T938 215Q864 114 735 30T517 -55T364 -11T262 103Q190 242 190 417T251 799T420 1151Q443 1184 473 1239T504 1305T502 1315T489 1309L375 1221Q359 1212 287 1167Q95 1047 -74
946V1057Q38 1121 247 1250Q698 1530 741 1530Q768 1530 768 1509Q768 1470 666 1227Q473 765 473 553Q473 182 694 182Q746 182 820 226T928 326Q920 366 920 450T929 627T960 818T1016 995T1102 1123T1221 1174Q1303 1174 1303 1059Q1303 913 1180 574Q1153 498
1134 450L1114 401Q1114 343 1149 300Q1217 217 1352 217Q1451 217 1550 292T1718 476T1830 706T1874 922Q1816 931 1760 969T1672 1042Q1595 1126 1595 1245Q1595 1340 1643 1424Q1697 1518 1810 1518Q2003 1518 2003 1047Z" />
<glyph unicode="X" glyph-name="X" horiz-adv-x="1544" d="M66 147L215 135Q283 135 414 266T731 625Q617 896 543 1050T461 1222T448 1248T435 1266Q421 1284 387 1284T309 1257T245 1218T170 1178T35 1102V1212Q426 1437 491 1477T594 1518Q662 1518 705 1427Q728
1371 926 868Q1021 988 1063 1038Q1241 1282 1311 1361T1464 1501Q1490 1518 1529 1518T1595 1504T1622 1460T1584 1392T1490 1313T1355 1193T1210 1018Q1115 891 981 727L1087 459Q1168 277 1214 206T1307 135Q1350 135 1398 178T1476 250T1563 338T1665 440L1667
328Q1485 135 1439 91Q1285 -57 1189 -57T1004 61T805 451L786 494Q616 292 536 203T435 92T376 38T304 -13Q219 -59 123 -59Q15 -59 -13 1Q-25 27 -25 70T-2 130T66 147Z" />
<glyph unicode="Y" glyph-name="Y" horiz-adv-x="1554" d="M1001 -139L723 -301Q611 -353 540 -417T469 -548T493 -652T553 -694Q619 -694 705 -630T864 -463T965 -260L1001 -139ZM699 1518T764 1518T829 1489Q829 1472 801 1379T752 1200T667 912Q524 453 524
358Q524 321 548 285T602 248Q672 248 766 286T951 387T1116 544T1214 739L1305 1114Q1320 1182 1362 1331T1423 1487H1640L1286 86L1673 440V328L1268 -33Q1035 -639 623 -750Q536 -774 454 -774T308 -752T198 -681T152 -566T203 -473L1012 -41L1171 457Q1008
269 787 126T438 -18Q363 -18 315 44T266 248Q266 344 288 435T320 570T358 699T396 814Q421 895 477 1053L584 1364L276 1151L266 1145Q258 1137 250 1137T231 1146T221 1180T242 1219L653 1487Q699 1518 764 1518Z" />
<glyph unicode="Z" glyph-name="Z" horiz-adv-x="1450" d="M236 211L483 322Q643 531 721 655L1167 1376Q990 1393 814 1393T499 1354T360 1280Q360 1154 422 1100Q422 1075 354 1061Q236 1105 177 1187T117 1370Q117 1451 468 1494Q657 1518 847 1518T1208 1501T1405
1481L1448 1384Q1411 1327 1317 1166T1141 866T936 555T698 260Q708 257 758 242T840 217T928 191T1023 163T1108 141Q1194 119 1229 119T1298 135Q1413 190 1503 268V168Q1461 144 1360 75T1190 -26T1044 -57Q1039 -57 1031 -53T1015 -45T989 -34T950 -17T893
5T814 34Q711 72 573 117Q478 54 380 13T211 -29Q192 -29 161 -16Q102 9 102 72Q102 152 236 211Z" />
<glyph unicode="[" glyph-name="bracketleft" horiz-adv-x="983" d="M279 -76L555 -74Q582 -80 582 -111T520 -180Q198 -189 86 -190Q68 -199 58 -199T41 -188T33 -158T35 -133L438 1479Q454 1536 518 1536H944Q959 1536 968 1521T977 1487T963 1452T928 1430L653
1421Q283 -33 279 -76Z" />
<glyph unicode="\" glyph-name="backslash" horiz-adv-x="821" d="M158 1415Q162 1400 318 1101Q792 188 860 8Q864 -3 897 -60T930 -150T907 -182Q794 -182 746 -76Q739 -60 729 -37T713 -2L-66 1554Q-72 1575 -72 1587T-66 1610T-51 1620Q40 1620 79 1581T158 1415Z" />
<glyph unicode="]" glyph-name="bracketright" horiz-adv-x="989" d="M711 1423L434 1421Q408 1427 408 1457T469 1528Q794 1537 903 1538Q923 1546 932 1546T948 1535T956 1505T954 1481L551 -131Q551 -136 542 -155Q520 -197 496 -197Q486 -197 471 -188Q368
-187 45 -178Q13 -149 13 -134T16 -111Q34 -77 61 -72Q80 -72 190 -73T336 -74Q335 -74 335 -59T424 306T611 1031T711 1423Z" />
<glyph unicode="^" glyph-name="asciicircum" horiz-adv-x="1706" d="M1120 1214L664 717L604 760Q650 840 763 986T993 1257T1149 1382Q1178 1382 1259 1224T1406 914T1475 750L1403 709Q1383 739 1264 956T1120 1214Z" />
<glyph unicode="_" glyph-name="underscore" horiz-adv-x="930" d="M776 -74L639 -72Q500 -72 129 -90Q72 -90 72 -49Q72 23 121 37Q165 43 375 53T668 63Q877 63 877 23Q877 -7 846 -40T776 -74Z" />
<glyph unicode="`" glyph-name="grave" horiz-adv-x="1706" d="M788 1083L700 1118Q682 1123 682 1150T718 1213T788 1249Q863 1245 992 1160T1208 995L1186 940Q898 1040 788 1083Z" />
<glyph unicode="a" glyph-name="a" horiz-adv-x="928" d="M150 -29Q30 -29 2 140Q-4 181 -4 225Q-4 334 50 445T192 643T404 785T657 840Q720 840 825 807Q824 800 805 716T767 543Q715 302 715 244T745 186Q811 186 1051 440V328Q899 171 762 71T578 -29Q502
-29 502 102Q502 145 510 199Q438 105 343 38T150 -29ZM209 281Q209 131 307 131Q349 131 410 175T522 272L637 764Q529 764 428 687T268 498T209 281Z" />
<glyph unicode="b" glyph-name="b" horiz-adv-x="967" d="M430 924Q533 990 639 1147T745 1399Q745 1466 678 1466Q646 1466 585 1346T477 1094T430 924ZM179 730T225 891T290 1117T351 1263T454 1416T589 1534T741 1581Q895 1581 895 1450Q895 1195 395 733Q387
701 365 615T330 476Q293 326 293 236Q293 76 410 76Q480 76 557 133T686 276T737 436Q737 600 481 600Q495 655 570 715T702 776Q809 776 861 715T913 546T880 329T768 156Q841 195 958 310T1096 446L1094 332Q966 204 909 164T806 92T721 44T630 5T526 -29Q409
-57 317 -57T180 -42T114 3Q78 53 78 134T87 298T122 495T164 669Z" />
<glyph unicode="c" glyph-name="c" horiz-adv-x="696" d="M227 -29Q112 -29 54 43T-4 221T35 434T139 631T303 781T508 840Q650 840 692 772Q707 748 707 711T670 645T575 616Q544 616 517 680Q507 703 485 723T432 743Q374 743 323 678T244 520T215 339T247 196T344
141Q518 141 823 442V330Q553 67 377 0Q299 -29 227 -29Z" />
<glyph unicode="d" glyph-name="d" horiz-adv-x="913" d="M433 112T324 42T161 -29T77 -9T34 46Q10 108 10 198T59 406T184 620T357 777T530 840T676 819L809 1294Q837 1409 864 1428Q901 1455 939 1457T1022 1460H1057Q1053 1426 1022 1321Q960 1136 851 738T741
262Q741 225 748 212T774 199T855 257T1036 440V328Q1022 314 985 276T929 220L876 168Q842 133 822 115T771 70T721 29T678 -1Q635 -29 606 -29Q524 -29 524 104Q524 168 541 238Q433 112 324 42ZM657 731Q653 745 622 757T563 770Q477 770 396 691T268 500T221
285Q221 158 303 158Q367 158 463 230T569 344L657 731Z" />
<glyph unicode="e" glyph-name="e" horiz-adv-x="731" d="M303 565Q379 467 471 467Q529 467 571 524T614 644T591 728T523 750T440 730T374 680Q322 621 303 565ZM852 438V328Q693 153 568 62T330 -29Q104 -29 48 118Q27 176 27 258Q27 404 88 536T263 754T518
840Q754 840 754 664Q754 550 662 466T455 381Q409 381 359 408T274 489Q231 399 231 313Q231 82 399 82Q443 82 507 124T621 212T747 335T852 438Z" />
<glyph unicode="f" glyph-name="f" horiz-adv-x="453" d="M547 1358Q501 1358 460 1272Q413 1170 390 1085T353 951T324 826Q280 626 279 615T277 598T274 586Q294 618 353 705T448 850T528 986Q616 1142 616 1250T547 1358ZM575 440V328Q391 131 307 131T199
193Q199 177 151 -64T94 -336H-74Q-34 -40 66 401T262 1190Q289 1287 409 1376T649 1466Q735 1466 742 1363Q743 1348 743 1325Q743 1206 690 1075T560 835T408 633T279 469T225 360T256 279T322 238T444 312T575 440Z" />
<glyph unicode="g" glyph-name="g" horiz-adv-x="928" d="M492 -467T424 -507T302 -547T207 -533T135 -484T104 -419T107 -374T122 -345T139 -321T166 -294T193 -271T227 -245T260 -219L537 -6L569 164Q441 50 357 11T198 -29T88 33T51 178T77 356T154 537T272
691T428 799T609 840T911 801L758 154Q785 179 839 230T917 304Q977 359 1051 440V328L737 23Q690 -236 554 -396Q492 -467 424 -507ZM524 -117L360 -256Q354 -261 336 -275T310 -296T288 -318T268 -346Q250 -383 250 -422T267 -477T324 -492Q404 -492 454 -389T524
-117ZM270 324Q270 131 367 131Q453 131 584 279L700 766Q627 784 602 784Q535 784 472 740T366 629Q270 482 270 324Z" />
<glyph unicode="h" glyph-name="h" horiz-adv-x="881" d="M596 1458L334 510Q408 647 528 743T762 840Q860 840 860 723Q860 681 796 494T731 233Q731 203 750 203Q763 203 865 306T1008 444V332Q693 -29 596 -29Q532 -29 532 47Q532 58 536 85T568 208Q649 478
649 598Q649 655 592 655Q504 655 407 527T275 268T219 82T166 0H10Q27 124 246 932L319 1204Q366 1381 407 1428Q431 1456 470 1459T547 1462T596 1458Z" />
<glyph unicode="i" glyph-name="i" horiz-adv-x="469" d="M231 199Q231 133 266 133Q288 133 404 247T590 438V326Q393 132 326 76Q204 -25 117 -29Q73 -29 51 10T29 112T85 403T159 680T190 747T220 777T251 794T293 804Q332 807 389 807Q231 301 231 199ZM403
1073Q332 1073 332 1145Q332 1195 369 1241T458 1288T534 1268T559 1208T512 1120T403 1073Z" />
<glyph unicode="j" glyph-name="j" horiz-adv-x="442" d="M-18 2L20 137Q43 258 89 456T148 688T170 737T191 764T212 782T239 794T266 802T300 806T334 807Q334 807 375 807Q374 802 356 740T325 635T291 518T255 387T225 271Q195 151 195 106Q215 114 333 218T567
440V328Q475 234 420 182Q271 38 158 -16Q153 -40 142 -93T128 -160T116 -214T105 -265T95 -308T84 -355T72 -400T58 -455T41 -514Q14 -611 -106 -701T-346 -791Q-379 -791 -401 -771Q-444 -732 -444 -632Q-444 -539 -386 -432T-269 -253Q-149 -109 -56 -30L-18
2ZM-280 -472Q-298 -515 -307 -554T-317 -611T-302 -655T-255 -682T-204 -670T-169 -631T-139 -578T-112 -506T-89 -429T-68 -345T-51 -264Q-35 -184 -23 -117Q-235 -367 -280 -472ZM389 1073Q317 1073 317 1145Q317 1194 354 1241T443 1288T520 1268T545 1208T498
1120T389 1073Z" />
<glyph unicode="k" glyph-name="k" horiz-adv-x="905" d="M686 262L684 188Q684 121 702 121Q709 121 714 126T760 171T844 254Q979 388 1028 440V328Q789 92 723 35Q649 -29 590 -29Q496 -29 496 113L510 303Q510 332 494 349Q460 387 289 387L283 360Q216 60
145 0H-10Q3 109 226 932L299 1204Q346 1379 386 1428Q411 1458 449 1460T526 1462T575 1458Q537 1319 443 998T348 674L696 840Q755 840 792 799T829 711T821 635T803 585T770 544T729 511T675 483Q598 450 567 440T531 427T522 424Q626 424 659 372Q686 330 686
262ZM295 457H362Q453 457 522 490Q651 550 651 645T573 741Q537 741 474 696T356 581T295 457Z" />
<glyph unicode="l" glyph-name="l" horiz-adv-x="553" d="M678 1417Q608 1417 542 1222T389 618Q464 695 530 803T636 1014Q721 1229 721 1323T678 1417ZM180 -29Q145 -29 132 -11T112 19T101 53T95 89T91 129T90 168V207Q90 400 143 634T280 1066T476 1398T694
1532Q759 1532 796 1488T834 1356T808 1160T739 961T646 785T544 634Q440 502 382 448L356 422Q297 266 297 192T332 117Q357 117 469 227T674 440V328Q502 143 390 61T180 -29Z" />
<glyph unicode="m" glyph-name="m" horiz-adv-x="1348" d="M1022 -31Q963 -31 963 57Q963 174 1032 327T1102 582Q1102 609 1083 632T1026 655T934 599T839 466T756 290Q693 135 655 0H463Q463 131 545 398Q594 557 594 592T580 643T552 659T526 655Q461 625 398
538T288 342Q202 142 166 0H-25Q-17 129 44 403T156 758Q174 790 216 798T362 807Q348 737 305 604T252 440Q479 838 705 838Q744 838 763 795T782 683T729 440Q800 579 920 703Q980 764 1050 802T1184 840Q1296 840 1296 686Q1296 544 1218 314Q1196 250 1196
230T1205 209T1226 214T1252 232T1283 258T1322 295T1365 337T1415 387L1468 440V328Q1343 199 1207 84T1022 -31Z" />
<glyph unicode="n" glyph-name="n" horiz-adv-x="838" d="M958 436V324Q799 162 677 67T513 -29Q438 -29 438 55T475 255T550 466T588 593T577 640T549 655Q492 655 426 576T308 383Q200 149 166 0H-25Q-24 108 36 358T143 727Q162 775 197 791T293 807H360Q287
555 252 444Q319 569 446 698Q508 760 581 800T719 840Q817 840 817 723Q817 667 747 458T676 227T688 205T721 218T840 325T958 436Z" />
<glyph unicode="o" glyph-name="o" horiz-adv-x="907" d="M684 827Q684 798 662 784Q463 784 358 670Q260 562 260 428T319 213T465 133T631 223Q556 270 516 347T475 503T523 632T662 682T794 633T836 513Q836 367 743 254Q768 244 786 244T823 252T868 282T912
323T967 380T1028 442V332Q945 244 894 207T793 170T702 184Q625 90 520 31T301 -29Q139 -29 70 124Q31 210 31 317Q31 560 203 700T662 840Q682 840 684 827ZM741 494Q741 586 660 586T578 489Q578 438 605 384T680 297Q700 330 720 388T741 494Z" />
<glyph unicode="p" glyph-name="p" horiz-adv-x="836" d="M688 840Q817 840 817 688Q817 556 726 384T528 145Q631 145 798 292Q878 361 983 469V354Q959 331 915 288T852 226T795 172T739 122T688 82T634 47T581 21T522 -1Q454 -16 408 -16T349 0T336 35T338
62T345 79T355 95T369 113T384 131T400 150Q477 236 535 364T594 573T528 655Q415 655 320 472Q236 310 166 84L139 -2Q123 -62 43 -389H-137Q-99 -250 -56 -33T31 379T133 727Q153 779 185 793T283 807H350Q298 626 242 444Q306 570 424 696Q483 759 553 799T688
840Z" />
<glyph unicode="q" glyph-name="q" horiz-adv-x="897" d="M561 -440L371 -379L481 -47Q432 -55 373 -55Q55 -55 55 258Q55 463 188 645Q250 731 349 785T552 840T864 760L711 123Q775 195 872 285T1022 440V328L690 18V14Q670 -70 624 -238T561 -440ZM262 291Q262
61 424 61Q463 61 496 72L653 766Q580 784 555 784Q478 784 409 704T301 510T262 291Z" />
<glyph unicode="r" glyph-name="r" horiz-adv-x="659" d="M492 729L612 743Q641 743 641 729T572 572Q414 248 414 182Q414 181 414 175T413 165T415 155T418 146Q425 137 438 137Q464 137 597 255T780 440V328Q423 -29 299 -29Q255 -29 233 10T211 88T226 175T266
289T314 405T362 517T393 588Q336 530 261 461T119 324V436L322 647Q200 677 164 741Q156 754 156 764Q156 834 209 887T350 940Q395 940 395 887Q395 856 377 820T334 770Q380 729 492 729Z" />
<glyph unicode="s" glyph-name="s" horiz-adv-x="645" d="M306 -7T266 -18T185 -29T100 -21T12 5Q-86 45 -86 143Q-86 182 -57 232T6 320T88 407T152 477Q125 544 125 623Q125 740 197 816T412 893Q475 893 475 858Q475 796 422 762T307 727Q341 624 422 542Q452
510 480 481Q545 415 545 367Q545 293 475 197L772 440V330Q760 320 713 278T644 218T574 160T496 101T420 51T340 8ZM195 399Q187 390 134 342Q16 237 16 181T74 86T199 47T307 69T348 127T339 190T311 248T277 298T233 352T195 399Z" />
<glyph unicode="t" glyph-name="t" horiz-adv-x="545" d="M156 735Q142 735 133 735T114 735T100 737T89 740T78 745T70 752Q63 760 63 773T64 791Q68 801 100 805L184 813Q231 969 250 1011T286 1088T320 1141T359 1182T405 1215Q462 1241 522 1241L526 1237Q526
1233 500 1159Q414 913 385 813L690 827L668 791Q643 745 369 745Q368 745 338 634Q248 303 248 233Q248 162 264 152T297 141Q351 141 678 451V338Q644 307 584 251T490 164T404 90T316 26Q224 -29 154 -29Q35 -29 35 137Q35 228 63 351T112 553T156 735Z" />
<glyph unicode="u" glyph-name="u" horiz-adv-x="993" d="M154 -29Q37 -29 37 139Q37 196 51 250Q111 477 217 782Q221 807 379 807H414Q414 805 373 676Q250 289 250 217T317 145Q374 145 458 194T557 272L666 688Q688 773 726 792Q755 807 819 807H887Q760 348
737 246Q729 170 729 155T733 135T754 129Q805 129 1114 438V326Q1090 304 1031 249T941 165T858 93T770 28Q679 -29 621 -29Q535 -29 535 102Q535 157 545 195Q314 -29 154 -29Z" />
<glyph unicode="v" glyph-name="v" horiz-adv-x="778" d="M627 268Q645 234 647 213Q673 213 710 248T769 305T834 372T907 446V334Q744 165 703 142T639 119Q606 119 563 211Q481 67 438 32Q382 -12 336 -20T246 -29Q185 -29 140 54Q55 212 55 543Q55 668 68
758Q74 807 225 807H305Q274 642 274 490T305 227T375 117Q405 117 486 254Q524 318 523 318T522 370T531 502T560 661T612 789T688 840Q739 840 739 743T697 492T627 268Z" />
<glyph unicode="w" glyph-name="w" horiz-adv-x="1139" d="M668 -29Q607 -29 563 0T496 78Q382 -29 229 -29Q142 -29 91 29T39 174Q39 324 174 729Q200 807 332 807H391Q386 788 348 674Q254 392 254 246Q254 176 279 138T358 100T477 160V174Q477 272 512 392Q580
625 672 625Q723 625 723 562T687 379T651 246Q651 176 677 138T745 100T836 161T895 297Q899 317 904 387T918 529T943 674Q979 840 1069 840Q1091 840 1105 775T1120 653Q1120 547 1050 373L1026 315Q1041 279 1065 279T1130 314T1262 442V328Q1239 308 1204
274T1148 221Q1098 174 1061 174T985 229Q938 118 856 45T668 -29Z" />
<glyph unicode="x" glyph-name="x" horiz-adv-x="903" d="M172 133L358 356L209 645Q196 670 181 670T97 613T-6 516L-29 571Q51 670 148 754T304 838T387 797Q391 789 409 750Q465 631 510 539L649 707Q749 840 834 840Q862 840 879 822T897 780T871 740T808
699T734 629T565 428Q668 227 717 176Q719 174 723 174Q750 174 846 262T1028 444V328Q982 285 921 225T819 125T736 48Q649 -29 611 -29T549 2T489 102L414 248Q362 186 274 78Q170 -55 90 -55Q61 -55 44 -37T27 3T52 43T115 85T172 133Z" />
<glyph unicode="y" glyph-name="y" horiz-adv-x="860" d="M506 195Q273 -29 113 -29Q51 -29 24 19T-4 143Q-4 270 176 782Q180 807 338 807H373Q373 805 332 676Q209 289 209 217T276 145Q333 145 417 194T516 272L625 688Q647 773 685 792Q714 807 778 807H846Q823
742 783 593T725 382Q688 247 674 191L666 164Q894 354 983 440V328L649 27V23Q626 -104 577 -205T465 -366Q338 -489 205 -489Q136 -489 76 -445T16 -341T56 -240T172 -156L473 35L506 195ZM461 -88L276 -205Q243 -225 224 -239T185 -281T166 -338Q166 -420 240
-420Q329 -420 384 -329T461 -88Z" />
<glyph unicode="z" glyph-name="z" horiz-adv-x="737" d="M569 729L688 743Q715 743 715 713Q715 702 713 700L578 418Q554 362 481 213Q509 203 525 188T545 152Q626 205 745 325T872 453L913 379Q705 167 608 89L575 63Q555 -187 441 -354T158 -535Q44 -535
-20 -490T-84 -369Q-84 -214 34 -110T389 70Q378 73 334 82Q244 99 244 111Q244 144 329 326T438 561L377 575Q358 556 262 465T115 322V432L309 637Q236 674 236 770Q236 829 288 884T424 940Q443 940 459 928T475 891Q475 815 414 772Q456 729 569 729ZM451 -4Q367
-50 297 -72T191 -112T135 -153Q90 -202 90 -311Q90 -357 110 -392T178 -428T290 -361T401 -192T451 -4Z" />
<glyph unicode="{" glyph-name="braceleft" horiz-adv-x="813" d="M86 319L88 360Q90 403 104 491T120 620T117 678T103 700T85 706T61 707T35 711L61 887Q92 885 124 885T167 892T186 916T197 948T207 995T232 1096T293 1260T395 1432Q520 1593 723 1593Q760
1593 801 1587L780 1473Q756 1481 731 1481Q671 1481 614 1433T515 1307Q434 1158 397 985Q371 868 328 830Q289 796 225 782Q278 751 298 718T319 640T305 471T291 270T303 126T346 14T418 -31T481 -20L469 -115Q420 -131 369 -131Q275 -131 210 -67Q86 54 86
319Z" />
<glyph unicode="|" glyph-name="bar" horiz-adv-x="739" d="M457 1365T468 1417T491 1491T528 1515T599 1518T645 1513L268 -43Q265 -54 262 -82T254 -126T237 -156T203 -170H90Q140 69 298 717Z" />
<glyph unicode="}" glyph-name="braceright" horiz-adv-x="813" d="M723 1059T709 971T693 820T728 756H752Q767 756 778 752L752 575Q721 578 689 578T646 571T627 547T616 514T606 468T594 416Q449 -131 90 -131Q52 -131 12 -125L33 -10Q57 -18 82 -18Q142 -18
199 30T298 156Q381 313 416 477Q440 593 485 633Q522 665 588 680Q535 711 515 743T494 821T508 991T522 1193T510 1337T467 1448T395 1493T332 1483L344 1577Q393 1593 444 1593Q538 1593 603 1529Q725 1409 725 1143V1102Q723 1059 709 971Z" />
<glyph unicode="~" glyph-name="asciitilde" horiz-adv-x="1118" d="M246 1188Q257 1065 328 1065Q387 1065 481 1094T672 1153T824 1182T911 1164T961 1118T989 1057T1004 995Q1012 937 1012 920L887 901Q873 1030 811 1030Q732 1030 583 968T313 905Q228 905
188 969Q153 1024 147 1072Q137 1150 137 1167L246 1188Z" />
<glyph unicode="&#xa1;" glyph-name="exclamdown" horiz-adv-x="608" d="M494 1139Q517 1149 539 1149T565 1142T569 1116T567 1083L416 221Q391 41 360 10Q350 0 338 0H156Q123 0 123 53Q123 107 249 458T434 974T494 1139ZM471 1443T523 1494T628 1546Q721 1546
721 1468Q721 1414 680 1363T583 1311T499 1333T471 1399Z" />
<glyph unicode="&#xa2;" glyph-name="cent" horiz-adv-x="778" d="M543 963L561 965Q703 965 746 896Q760 873 760 836T723 770T629 741Q600 741 577 790Q552 844 518 860L381 266H397Q512 266 698 410L739 330Q512 131 342 102L236 -360Q232 -376 228 -407T221
-452T205 -480T170 -494Q141 -494 141 -465Q141 -444 152 -389L160 -336Q191 -179 256 96Q131 103 70 174T8 343T41 537T133 717T278 865T463 952L541 1270Q580 1430 589 1448T610 1466T628 1464Q651 1457 651 1430L543 963ZM324 383L440 860Q381 841 331 776Q227
639 227 463Q227 340 301 291Q309 334 324 383Z" />
<glyph unicode="&#xa3;" glyph-name="sterling" horiz-adv-x="1368" d="M262 117Q37 -29 -100 -29Q-122 -29 -151 -16Q-209 11 -209 72Q-209 108 -166 136Q-124 162 -55 190L207 309L238 420L94 414Q37 414 37 455Q37 526 86 541Q116 547 276 557L301 647L135
639Q78 639 78 680Q78 752 127 766Q169 774 340 784L438 1137Q449 1174 461 1190T480 1215T500 1236T520 1252T545 1271T594 1306T688 1371T851 1466T991 1518Q1120 1518 1224 1413T1329 1178Q1329 1120 1284 1098T1062 978Q814 840 794 840Q756 840 756 881Q756
929 932 1006Q997 1034 1053 1073T1110 1147L1104 1175Q1074 1330 1009 1389Q978 1417 940 1417Q892 1411 823 1342T702 1193T641 1067Q619 961 580 793H612Q821 793 821 752Q821 722 790 689T721 655L584 657H543Q530 609 516 565Q549 567 612 567Q821 567 821
526Q821 496 790 463T721 430L584 432Q526 432 471 430Q464 408 408 266Q421 262 447 253T485 241T598 205Q861 119 907 119T986 135Q1098 188 1192 268V168Q1150 144 1049 75T879 -26T733 -57Q728 -57 720 -53T704 -45T678 -34T639 -17T582 5T503 34Q400 72 262
117Z" />
<glyph unicode="&#xa4;" glyph-name="currency" horiz-adv-x="1176" d="M152 819Q152 1004 270 1130L174 1257Q154 1270 135 1303T115 1359T132 1406T178 1432T253 1382T387 1217Q486 1264 590 1264T784 1217Q800 1235 852 1302T909 1378L907 1376Q907 1379 917
1392Q949 1432 994 1432T1090 1384Q1085 1362 1077 1354L885 1126Q956 1031 956 901Q956 706 829 584Q892 501 939 445Q1024 344 1024 324T1001 287T937 270T864 313L719 504Q622 457 516 457T326 502L250 412Q176 322 152 309T111 295T69 310T43 348T50 386T77
420T118 472T215 598Q152 687 152 819ZM788 989T738 1050T578 1112T398 1024T328 834T375 671T532 608T714 696T788 886Z" />
<glyph unicode="&#xa5;" glyph-name="yen" horiz-adv-x="1546" d="M979 -20L842 -18H743L702 -215Q670 -358 649 -396T608 -436H430Q403 -436 403 -391T430 -225Q435 -181 463 -27L250 -37Q193 -37 193 4Q193 76 242 90Q280 96 492 106L510 197L291 188Q233 188
233 229Q233 301 283 315Q308 320 479 330Q471 364 449 448T414 583Q376 735 362 840Q348 908 323 1057T287 1251L256 1233Q237 1221 188 1192V1303Q286 1376 351 1429T442 1500Q481 1530 506 1530T532 1509L538 1472Q599 1057 645 848Q681 608 724 442L739 387Q1008
624 1161 826Q1223 907 1245 963Q1174 974 1080 1048Q1032 1085 1000 1148T967 1271T979 1377T1015 1465Q1069 1559 1182 1559Q1384 1559 1384 1063Q1430 1070 1506 1109T1640 1200V1085Q1502 982 1372 958Q1320 743 897 342H911Q1120 342 1120 301Q1120 271 1089
238T1020 205L883 207H793L772 115L870 117Q1079 117 1079 76Q1079 46 1048 13T979 -20ZM1255 1069L1257 1108Q1257 1208 1227 1294T1147 1380Q1092 1380 1092 1297T1139 1149T1255 1069Z" />
<glyph unicode="&#xa6;" glyph-name="brokenbar" horiz-adv-x="739" d="M96 -145L262 571Q268 600 304 600T377 589T416 571L268 -43Q245 -137 230 -153T203 -170Q96 -170 96 -145ZM645 1513L492 881Q487 858 467 858Q362 858 350 866T338 881L459 1374Q463 1389
468 1412L475 1443Q488 1501 510 1509Q534 1518 589 1518T645 1513Z" />
<glyph unicode="&#xa7;" glyph-name="section" horiz-adv-x="1069" d="M768 461Q838 387 838 299T791 142T671 31Q518 -57 356 -57Q207 -57 124 34Q80 83 80 144T121 240T223 276L260 279Q256 233 256 201T256 157T259 123T268 90T286 64T315 41T360 29T422 23T499
38T579 79T644 148T670 243T622 352T504 449T366 532Q199 626 199 700Q199 803 253 886T401 1026Q301 1109 301 1185T336 1324T430 1430T560 1506Q702 1567 850 1567Q990 1567 1076 1488Q1145 1425 1145 1317Q1145 1299 975 1200T760 1085V1169Q768 1174 838 1207Q989
1279 989 1315Q989 1485 809 1485Q645 1485 540 1380Q487 1327 487 1275T513 1188T580 1125T671 1069T771 1011T863 949Q956 876 956 784Q956 586 768 461ZM614 880Q591 896 546 925T479 969Q385 892 385 788Q385 730 456 676Q499 644 579 596T692 526Q768 599
768 687T614 880Z" />
<glyph unicode="&#xa8;" glyph-name="dieresis" horiz-adv-x="1706" d="M622 1088T569 1036T464 984Q372 984 372 1062Q372 1117 412 1168T509 1220T594 1198T622 1132ZM1104 1087T1052 1036T946 984Q854 984 854 1062Q854 1117 895 1168T992 1220T1076 1198T1104 1132Z" />
<glyph unicode="&#xa9;" glyph-name="copyright" horiz-adv-x="1819" d="M909 831Q881 831 881 859T916 912T992 954Q1104 1001 1104 1036Q1104 1076 1074 1136T1006 1196Q924 1196 850 1152T726 1039Q618 890 618 727Q618 592 680 498Q745 399 885 399Q1090 399
1313 616V522Q1045 266 811 266Q702 266 622 322Q467 432 467 664Q467 823 536 961T734 1186T1024 1272Q1115 1272 1186 1208T1257 1053Q1257 1013 1228 993T1059 902T909 831ZM1585 758Q1579 976 1472 1144Q1360 1322 1171 1389Q1070 1425 945 1425T690 1376T455
1239T286 1018T221 737T259 472T360 275T506 142Q667 37 862 37Q1002 37 1132 88T1363 231T1524 460T1585 758ZM527 1423T665 1470T953 1518T1225 1476T1434 1360T1584 1188Q1708 994 1708 752Q1708 495 1574 294Q1425 72 1164 -12Q1021 -57 884 -57T643 -30T443
57T273 204T155 422T111 689T147 940T255 1159T427 1343Z" />
<glyph unicode="&#xaa;" glyph-name="ordfeminine" horiz-adv-x="885" d="M634 1234T615 1139T596 1006T621 969Q671 969 850 1159V1075Q781 1001 662 903T492 805Q434 805 434 905Q434 920 440 977Q388 907 315 856T168 805Q79 805 58 933Q53 964 53 1022T93
1164T201 1313T361 1420T529 1462T680 1438Q680 1437 657 1336ZM213 1040Q213 926 289 926Q320 926 367 960T449 1032L539 1405Q457 1405 380 1347T258 1204T213 1040Z" />
<glyph unicode="&#xab;" glyph-name="guillemotleft" horiz-adv-x="1122" d="M367 438L459 313Q586 157 586 96Q586 72 565 54T501 35T387 123Q55 536 55 616Q55 652 102 703Q114 716 139 743T182 791L338 965Q351 980 384 1023T441 1092T502 1141T580 1165Q635
1165 635 1112Q635 1093 600 1060Q445 917 381 829L227 649L367 438ZM621 649L831 354Q958 198 958 137Q958 113 938 95T874 76T760 164Q449 543 449 616Q449 652 496 703Q546 757 575 791L731 965Q745 980 778 1022T834 1091T896 1141T973 1165Q1028 1165 1028
1112Q1028 1093 993 1060Q838 917 774 829L621 649Z" />
<glyph unicode="&#xad;" glyph-name="uni00AD" horiz-adv-x="1038" d="M754 979L616 981Q526 981 270 963Q213 963 213 1004Q213 1074 262 1090Q288 1097 408 1106T645 1116Q854 1116 854 1075Q854 1045 823 1012T754 979Z" />
<glyph unicode="&#xae;" glyph-name="registered" horiz-adv-x="1819" d="M553 1008Q553 948 653 909Q653 841 635 795Q553 819 496 871T438 991T476 1110T573 1190T702 1242Q832 1280 922 1280T1079 1265T1211 1221T1316 1138T1358 1024T1336 921T1283 850T1203
798Q1137 767 1024 737Q1090 680 1156 527Q1186 458 1200 433T1221 408Q1244 408 1298 457T1382 534T1442 593T1479 629V545Q1274 297 1159 297Q1104 297 1057 345T982 452T921 586T866 692Q820 526 794 480T743 399T688 344Q620 297 536 297T388 342T324 467Q324
528 422 544Q444 547 465 547L485 545Q479 494 479 485Q479 381 549 381Q665 381 762 961Q764 976 767 1000T772 1036T778 1063T790 1087T811 1102Q834 1116 889 1116H938Q923 989 881 772Q946 773 1013 801T1130 884T1180 1002T1140 1107Q1063 1188 936 1188Q838
1188 740 1160Q553 1108 553 1008ZM1585 758Q1579 976 1472 1144Q1360 1322 1171 1389Q1070 1425 945 1425T690 1376T455 1239T286 1018T221 737T259 472T360 275T506 142Q667 37 862 37Q1002 37 1132 88T1363 231T1524 460T1585 758ZM527 1423T665 1470T953 1518T1225
1476T1434 1360T1584 1188Q1708 994 1708 752Q1708 495 1574 294Q1425 72 1164 -12Q1021 -57 884 -57T643 -30T443 57T273 204T155 422T111 689T147 940T255 1159T427 1343Z" />
<glyph unicode="&#xaf;" glyph-name="overscore" horiz-adv-x="1038" d="M754 979L616 981Q526 981 270 963Q213 963 213 1004Q213 1074 262 1090Q288 1097 408 1106T645 1116Q854 1116 854 1075Q854 1045 823 1012T754 979Z" />
<glyph unicode="&#xb0;" glyph-name="degree" horiz-adv-x="682" d="M506 1345T471 1388T358 1432T231 1370T182 1237T215 1123T325 1079T454 1140T506 1273ZM490 1538T556 1464T623 1267T531 1059T325 973T135 1038T59 1227Q59 1401 198 1491Q271 1538 380 1538Z" />
<glyph unicode="&#xb1;" glyph-name="plusminus" horiz-adv-x="1120" d="M799 416L662 418H584L530 203Q526 184 502 169T440 154T401 186Q401 204 406 211L453 412L209 399Q160 399 160 426T168 472T188 502Q211 522 229 526Q308 539 483 547L498 602Q504 634
519 700T541 801Q544 815 578 827T641 840Q662 840 662 784T639 631L618 551Q651 553 719 553Q920 553 920 516Q920 487 878 452T799 416ZM639 -57L502 -55Q424 -55 197 -74Q139 -74 139 -33Q139 38 188 53Q218 59 349 69T530 80Q739 80 739 39Q739 9 708 -24T639
-57Z" />
<glyph unicode="&#xb2;" glyph-name="twosuperior" horiz-adv-x="817" d="M391 -2L94 -20Q47 -20 47 6T84 67T192 167T308 275T414 387T514 515Q604 656 604 772T574 937T479 987Q404 987 329 918Q293 885 270 828T246 700Q275 658 301 645Q348 624 348 596Q348
585 339 574T311 563T202 625T113 705Q113 871 211 967T455 1063Q533 1063 592 1041T683 987T735 915Q766 853 766 792T741 661T679 533T587 410T488 303T385 210Q306 144 274 121T240 96Q274 102 338 116Q488 150 557 150Q659 150 659 102Q659 70 639 25T594 -20L391
-2Z" />
<glyph unicode="&#xb3;" glyph-name="threesuperior" horiz-adv-x="842" d="M383 721Q383 684 356 684Q338 684 256 738T174 805Q174 900 274 981T498 1063Q793 1063 793 850Q793 749 723 669T555 549Q628 529 674 468T721 322T659 153T504 25T333 -20T195 -1T87
63T39 159T70 241T137 272T187 250T209 195T225 130Q247 53 330 53T481 148T549 346Q549 410 517 449T418 489H389Q368 489 357 497T346 526T355 557T373 568T400 570Q502 570 568 671T635 850Q635 1001 516 1001Q465 1001 383 929T301 801Q309 788 343 758T383
721Z" />
<glyph unicode="&#xb4;" glyph-name="acute" horiz-adv-x="1706" d="M1380 1118L1292 1083Q1181 1039 895 940L872 995Q960 1076 1089 1160T1292 1249Q1326 1249 1362 1213T1399 1150T1380 1118Z" />
<glyph unicode="&#xb5;" glyph-name="mu" horiz-adv-x="993" d="M754 129Q805 129 1114 438V326Q1090 304 1031 249T941 165T858 93T770 28Q679 -29 621 -29Q535 -29 535 102Q535 133 545 195Q496 119 400 45T226 -29T104 23L82 -193Q76 -242 46 -268T-21 -295T-78
-277T-100 -232T-96 -193T-66 -100Q31 189 79 355T217 782Q221 807 379 807H414Q414 805 373 676Q250 289 250 217T317 145Q374 145 458 194T557 272L666 688Q688 773 726 792Q755 807 819 807H887Q760 348 737 246Q729 170 729 155T733 135T754 129Z" />
<glyph unicode="&#xb6;" glyph-name="paragraph" horiz-adv-x="1217" d="M479 -29Q504 98 637 659T823 1391Q783 1389 705 1376Q647 1141 354 -29H186Q211 87 375 760Q248 781 169 865T90 1052T138 1236T281 1382Q483 1518 881 1518Q1049 1518 1192 1507L1155
1391Q1096 1393 922 1393Q950 1383 964 1372T979 1339L805 614Q744 402 643 -29H479Z" />
<glyph unicode="&#xb7;" glyph-name="middot" horiz-adv-x="422" d="M328 672T276 621T170 569Q78 569 78 647Q78 702 119 753T216 805T300 783T328 717Z" />
<glyph unicode="&#xb8;" glyph-name="cedilla" horiz-adv-x="709" d="M360 0Q465 0 465 -117Q465 -196 425 -290Q349 -468 231 -492L215 -430Q268 -377 290 -268Q299 -223 299 -174Q261 -163 241 -140T221 -85T258 -27T360 0Z" />
<glyph unicode="&#xb9;" glyph-name="onesuperior" horiz-adv-x="502" d="M61 834Q291 982 369 1022T457 1063Q473 1063 473 1036V1016L279 156Q278 150 277 137T274 115T271 92T267 69T262 48T256 29T249 14Q241 0 229 0H88Q70 0 70 33T87 144T142 365T195 564T229
694T257 805T274 870Q285 914 287 920Q227 871 146 816T37 760Q18 765 18 785T61 834Z" />
<glyph unicode="&#xba;" glyph-name="ordmasculine" horiz-adv-x="838" d="M670 1208Q670 1106 600 1018Q620 1010 633 1010T660 1016T694 1040T728 1070Q747 1089 815 1161V1075Q768 1028 747 1009Q686 954 641 954T567 965Q511 893 431 848T272 803T145 844Q57
916 57 1065Q57 1249 188 1355T537 1462Q552 1462 555 1454Q555 1431 537 1419Q390 1419 312 1337T233 1151T278 987T389 926T514 993Q456 1030 426 1088T395 1206T431 1304T536 1341T638 1305T670 1208ZM551 1049Q566 1073 581 1118T596 1200Q596 1270 535 1270Q505
1270 489 1249T473 1193T494 1117T551 1049Z" />
<glyph unicode="&#xbb;" glyph-name="guillemotright" horiz-adv-x="1544" d="M827 1176Q827 1196 883 1196T999 1108Q1290 703 1290 618Q1290 589 1246 548Q1234 538 1213 518T1174 481L1001 307Q988 293 951 249T888 180T823 130T752 106Q690 106 692 160Q694
185 754 233Q882 334 971 442L1139 623L1018 834L936 958Q827 1109 827 1171Q827 1173 827 1176ZM735 653L549 948Q440 1098 440 1160Q440 1162 440 1165Q440 1186 494 1186T612 1098Q885 727 885 649Q885 621 841 580Q831 570 808 549T768 512L598 338Q583 323
546 280T483 210T418 161T338 137Q289 137 289 181Q289 186 289 197T327 242T435 338T565 473L735 653Z" />
<glyph unicode="&#xbc;" glyph-name="onequarter" horiz-adv-x="1630" d="M244 49Q854 1210 923 1334T998 1470T1018 1504T1037 1531T1055 1550T1077 1565T1103 1572Q1126 1579 1176 1579Q1184 1579 1190 1569T1196 1547T1190 1513L350 39Q317 -27 284 -72T233
-129T197 -141Q172 -141 172 -117Q172 -69 244 49ZM96 1307Q326 1455 404 1495T492 1536Q508 1536 508 1509V1489L314 629Q313 623 312 610T309 588T306 565T302 542T297 521T291 502T284 487Q276 473 264 473H123Q105 473 105 506T122 617T177 838T230 1037T264
1167T292 1278T309 1343Q320 1387 322 1393Q262 1344 181 1289T72 1233Q53 1238 53 1258T96 1307ZM1120 203L921 238Q863 207 839 207T800 211T767 233T749 279T763 320T809 342L885 371L1091 846Q1137 978 1153 997T1183 1030T1216 1050Q1255 1063 1294 1063T1341
1049Q1239 819 1018 346Q1084 325 1161 311Q1233 491 1263 567Q1276 586 1337 586H1401Q1393 548 1294 299Q1385 299 1440 330Q1449 332 1494 360T1573 416L1607 356Q1566 327 1520 287T1452 230Q1397 188 1296 188Q1268 188 1251 190L1200 68Q1182 0 1161 0H1052L1048
14Q1096 144 1120 203Z" />
<glyph unicode="&#xbd;" glyph-name="onehalf" horiz-adv-x="1640" d="M849 1243T891 1319T950 1426T974 1470T994 1504T1013 1531T1031 1550T1053 1565T1078 1572Q1101 1579 1151 1579Q1159 1579 1165 1569T1171 1547T1165 1513L326 39Q291 -30 259 -74T208 -129T172
-141Q147 -141 147 -117Q147 -75 196 9Q211 34 530 638ZM98 1307Q328 1455 406 1495T494 1536Q510 1536 510 1509V1489L316 629Q315 623 314 610T311 588T308 565T304 542T299 521T293 502T286 487Q278 473 266 473H125Q107 473 107 506T124 617T179 838T232 1037T266
1167T294 1278T311 1343Q322 1387 324 1393Q264 1344 183 1289T74 1233Q55 1238 55 1258T98 1307ZM1229 -2L932 -20Q885 -20 885 6T922 67T1030 167T1146 275T1252 387T1352 515Q1442 656 1442 772T1412 937T1317 987Q1242 987 1167 918Q1131 885 1108 828T1084
700Q1113 658 1139 645Q1186 624 1186 596Q1186 585 1177 574T1149 563T1040 625T951 705Q951 871 1049 967T1293 1063Q1371 1063 1430 1041T1521 987T1573 915Q1604 853 1604 792T1579 661T1517 533T1425 410T1326 303T1223 210Q1144 144 1112 121T1078 96Q1112
102 1176 116Q1326 150 1395 150Q1497 150 1497 102Q1497 70 1477 25T1432 -20L1229 -2Z" />
<glyph unicode="&#xbe;" glyph-name="threequarters" horiz-adv-x="1833" d="M970 931T1112 1194T1261 1470T1280 1504T1299 1532T1318 1550T1340 1565T1366 1572Q1388 1579 1438 1579Q1446 1579 1452 1569T1458 1547T1452 1513L612 39Q567 -51 546 -76T512 -114Q486
-141 460 -141T434 -117Q434 -75 483 9Q498 35 734 483ZM383 1194Q383 1157 356 1157Q338 1157 256 1211T174 1278Q174 1373 274 1454T498 1536Q793 1536 793 1323Q793 1222 723 1142T555 1022Q628 1002 674 941T721 795T659 626T504 498T333 453T195 472T87 536T39
632T70 714T137 745T187 723T209 668T225 603Q247 526 330 526T481 621T549 819Q549 883 517 922T418 962H389Q368 962 357 970T346 999T355 1030T373 1041T400 1043Q502 1043 568 1144T635 1324Q635 1474 516 1474Q465 1474 383 1402T301 1274Q309 1261 343 1231T383
1194ZM1317 203L1118 238Q1060 207 1036 207T997 211T964 233T946 279T960 320T1006 342L1082 371L1288 846Q1334 978 1350 997T1380 1030T1412 1050Q1452 1063 1491 1063T1538 1049Q1436 819 1215 346Q1281 325 1358 311Q1430 491 1460 567Q1473 586 1534 586H1598Q1590
548 1491 299Q1582 299 1637 330Q1646 332 1691 360T1770 416L1804 356Q1763 327 1717 287T1650 230Q1594 188 1493 188Q1465 188 1448 190L1397 68Q1379 0 1358 0H1249L1245 14Q1293 144 1317 203Z" />
<glyph unicode="&#xbf;" glyph-name="questiondown" horiz-adv-x="999" d="M674 1065Q750 1065 750 1024Q750 904 646 788Q584 718 480 628T330 490Q226 383 226 283Q226 216 270 164Q354 64 506 64Q590 64 626 82T683 112T719 147T746 185T767 229T782 272T796
318T809 361L852 359Q971 354 971 262Q971 234 961 211Q931 133 858 76Q722 -29 547 -29Q347 -29 196 60Q124 102 81 171T37 322T67 470T145 584T252 674T371 752T482 824Q596 903 607 991Q617 1028 636 1046T674 1065ZM553 1415T605 1466T710 1518Q803 1518 803
1440Q803 1385 762 1334T665 1282T581 1304T553 1370Z" />
<glyph unicode="&#xc0;" glyph-name="Agrave" horiz-adv-x="1391" d="M1319 1272Q1346 1272 1346 1239Q1346 1227 1343 1223Q1255 987 1130 329Q1105 198 1134 174Q1143 166 1157 166Q1211 166 1253 198Q1320 249 1513 442V330Q1483 299 1434 246T1357 163T1288
94T1218 31T1154 -15Q1090 -57 1034 -57T949 -36Q891 4 891 135Q891 164 895 193Q787 81 657 12T422 -57Q244 -57 162 39T80 328Q80 466 131 612T271 889T480 1135T736 1336Q1028 1518 1313 1518Q1414 1518 1518 1486Q1716 1426 1716 1321Q1716 1279 1653 1221T1544
1151Q1486 1421 1253 1421Q1075 1421 854 1268Q643 1122 494 903Q338 672 338 463Q338 304 414 220T625 135Q714 135 806 208T918 390T1013 818T1109 1205T1319 1272ZM1048 1796L960 1831Q942 1836 942 1863T978 1926T1048 1962Q1123 1958 1252 1873T1468 1708L1446
1653Q1158 1753 1048 1796Z" />
<glyph unicode="&#xc1;" glyph-name="Aacute" horiz-adv-x="1391" d="M1319 1272Q1346 1272 1346 1239Q1346 1227 1343 1223Q1255 987 1130 329Q1105 198 1134 174Q1143 166 1157 166Q1211 166 1253 198Q1320 249 1513 442V330Q1483 299 1434 246T1357 163T1288
94T1218 31T1154 -15Q1090 -57 1034 -57T949 -36Q891 4 891 135Q891 164 895 193Q787 81 657 12T422 -57Q244 -57 162 39T80 328Q80 466 131 612T271 889T480 1135T736 1336Q1028 1518 1313 1518Q1414 1518 1518 1486Q1716 1426 1716 1321Q1716 1279 1653 1221T1544
1151Q1486 1421 1253 1421Q1075 1421 854 1268Q643 1122 494 903Q338 672 338 463Q338 304 414 220T625 135Q714 135 806 208T918 390T1013 818T1109 1205T1319 1272ZM1640 1831L1552 1796Q1441 1752 1155 1653L1132 1708Q1220 1789 1349 1873T1552 1962Q1586 1962
1622 1926T1659 1863T1640 1831Z" />
<glyph unicode="&#xc2;" glyph-name="Acircumflex" horiz-adv-x="1391" d="M1319 1272Q1346 1272 1346 1239Q1346 1227 1343 1223Q1255 987 1130 329Q1105 198 1134 174Q1143 166 1157 166Q1211 166 1253 198Q1320 249 1513 442V330Q1483 299 1434 246T1357 163T1288
94T1218 31T1154 -15Q1090 -57 1034 -57T949 -36Q891 4 891 135Q891 164 895 193Q787 81 657 12T422 -57Q244 -57 162 39T80 328Q80 466 131 612T271 889T480 1135T736 1336Q1028 1518 1313 1518Q1414 1518 1518 1486Q1716 1426 1716 1321Q1716 1279 1653 1221T1544
1151Q1486 1421 1253 1421Q1075 1421 854 1268Q643 1122 494 903Q338 672 338 463Q338 304 414 220T625 135Q714 135 806 208T918 390T1013 818T1109 1205T1319 1272ZM1118 1657L1059 1700Q1137 1837 1244 1966T1409 2095Q1438 2095 1488 1994T1571 1805T1608 1698L1536
1657Q1518 1682 1461 1784T1380 1927Q1340 1886 1280 1823Q1147 1683 1118 1657Z" />
<glyph unicode="&#xc3;" glyph-name="Atilde" horiz-adv-x="1391" d="M1319 1272Q1346 1272 1346 1239Q1346 1227 1343 1223Q1255 987 1130 329Q1105 198 1134 174Q1143 166 1157 166Q1211 166 1253 198Q1320 249 1513 442V330Q1483 299 1434 246T1357 163T1288
94T1218 31T1154 -15Q1090 -57 1034 -57T949 -36Q891 4 891 135Q891 164 895 193Q787 81 657 12T422 -57Q244 -57 162 39T80 328Q80 466 131 612T271 889T480 1135T736 1336Q1028 1518 1313 1518Q1414 1518 1518 1486Q1716 1426 1716 1321Q1716 1279 1653 1221T1544
1151Q1486 1421 1253 1421Q1075 1421 854 1268Q643 1122 494 903Q338 672 338 463Q338 304 414 220T625 135Q714 135 806 208T918 390T1013 818T1109 1205T1319 1272ZM1130 1901Q1141 1819 1212 1819Q1251 1819 1357 1857T1511 1895T1590 1879T1640 1841T1668 1789T1684
1737Q1691 1688 1691 1674L1566 1655Q1550 1743 1491 1743Q1458 1743 1357 1701T1206 1659T1123 1675T1073 1713T1045 1765T1030 1817Q1022 1866 1022 1880L1130 1901Z" />
<glyph unicode="&#xc4;" glyph-name="Adieresis" horiz-adv-x="1391" d="M1319 1272Q1346 1272 1346 1239Q1346 1227 1343 1223Q1255 987 1130 329Q1105 198 1134 174Q1143 166 1157 166Q1211 166 1253 198Q1320 249 1513 442V330Q1483 299 1434 246T1357 163T1288
94T1218 31T1154 -15Q1090 -57 1034 -57T949 -36Q891 4 891 135Q891 164 895 193Q787 81 657 12T422 -57Q244 -57 162 39T80 328Q80 466 131 612T271 889T480 1135T736 1336Q1028 1518 1313 1518Q1414 1518 1518 1486Q1716 1426 1716 1321Q1716 1279 1653 1221T1544
1151Q1486 1421 1253 1421Q1075 1421 854 1268Q643 1122 494 903Q338 672 338 463Q338 304 414 220T625 135Q714 135 806 208T918 390T1013 818T1109 1205T1319 1272ZM1247 1766T1194 1714T1089 1662Q997 1662 997 1740Q997 1795 1037 1846T1134 1898T1219 1876T1247
1810ZM1729 1765T1677 1714T1571 1662Q1479 1662 1479 1740Q1479 1795 1520 1846T1617 1898T1701 1876T1729 1810Z" />
<glyph unicode="&#xc5;" glyph-name="Aring" horiz-adv-x="1391" d="M1319 1272Q1346 1272 1346 1239Q1346 1227 1343 1223Q1255 987 1130 329Q1105 198 1134 174Q1143 166 1157 166Q1211 166 1253 198Q1320 249 1513 442V330Q1483 299 1434 246T1357 163T1288
94T1218 31T1154 -15Q1090 -57 1034 -57T949 -36Q891 4 891 135Q891 164 895 193Q787 81 657 12T422 -57Q244 -57 162 39T80 328Q80 466 131 612T271 889T480 1135T736 1336Q1028 1518 1313 1518Q1414 1518 1518 1486Q1716 1426 1716 1321Q1716 1279 1653 1221T1544
1151Q1486 1421 1253 1421Q1075 1421 854 1268Q643 1122 494 903Q338 672 338 463Q338 304 414 220T625 135Q714 135 806 208T918 390T1013 818T1109 1205T1319 1272ZM1471 1835Q1471 1932 1381 1932Q1329 1932 1299 1894T1268 1810Q1268 1710 1354 1710Q1406 1710
1438 1748T1471 1835ZM1460 1999T1502 1952T1545 1828T1487 1697T1357 1643T1238 1684T1190 1803T1242 1940T1377 1999Z" />
<glyph unicode="&#xc6;" glyph-name="AE" horiz-adv-x="1878" d="M1092 240L1149 238Q1174 238 1186 240Q1193 238 1280 205Q1505 119 1554 119Q1648 119 1842 287Q1916 351 1999 438V328Q1968 300 1911 249T1827 173T1753 110T1677 52T1606 8T1529 -29Q1442 -57
1368 -57Q1363 -57 1349 -49T1320 -33T1271 -12T1194 18Q1109 51 918 109L897 195Q784 83 654 13T422 -57Q244 -57 162 39T80 328Q80 610 265 889Q445 1160 750 1336Q1066 1518 1423 1518Q2044 1518 2044 1491Q2044 1479 2025 1460L1925 1346Q1873 1311 1821 1311T1634
1332T1438 1356Q1430 1329 1376 1121T1284 795Q1414 805 1522 805T1747 799Q1784 799 1784 768T1753 703T1683 670Q1389 670 1249 659V657Q1196 464 1059 238L1092 240ZM989 631Q897 618 799 594Q750 594 750 637Q750 686 809 709Q864 730 935 743T1026 760Q1141
1165 1212 1262Q1249 1314 1317 1360L1358 1421Q1128 1419 885 1266Q650 1118 498 901Q338 673 338 463Q338 304 414 220T625 135Q684 135 754 175T877 276V279Q902 317 989 631Z" />
<glyph unicode="&#xc7;" glyph-name="Ccedilla" horiz-adv-x="1268" d="M926 1417Q1042 1417 1096 1149Q1096 1114 1041 1075T918 1007Q741 930 741 881Q741 864 750 852T773 840T829 860T1048 977T1270 1097T1315 1178Q1315 1312 1210 1415T969 1518T720 1486T521
1398T361 1267T237 1105T150 924Q82 744 82 561Q82 365 164 210Q308 -57 616 -57Q983 -57 1403 340V451Q1238 292 1064 209T735 125Q538 125 418 261T297 659Q297 876 410 1071Q530 1279 716 1366Q816 1413 926 1417ZM616 0Q721 0 721 -117Q721 -196 681 -290Q605
-468 487 -492L471 -430Q524 -377 546 -268Q555 -223 555 -174Q517 -163 497 -140T477 -85T514 -27T616 0Z" />
<glyph unicode="&#xc8;" glyph-name="Egrave" horiz-adv-x="1403" d="M616 240L674 238Q698 238 711 240Q718 238 804 205Q1030 119 1071 119T1163 145Q1189 149 1309 244T1524 438V328Q1494 301 1436 249T1352 173T1277 110T1201 52T1130 8T1054 -29Q968 -57
893 -57Q887 -57 874 -49T844 -33T795 -12T718 18Q640 48 442 109Q351 37 259 -10T100 -57Q77 -57 49 -44Q-8 -18 -8 43Q-8 96 114 148Q139 159 145 162L401 279Q427 317 514 631Q447 622 387 609T314 596T288 606T274 644Q274 689 326 702Q393 728 551 760Q666
1165 737 1262Q774 1314 842 1360Q741 1368 635 1368Q385 1368 268 1308T150 1143Q150 1087 201 1037T346 952Q346 917 337 876T317 825Q163 879 83 957T2 1120Q2 1299 178 1408T657 1518H948Q1569 1518 1569 1491Q1569 1479 1550 1460L1450 1346Q1398 1311 1346
1311T1159 1332T963 1356Q955 1326 901 1120T809 795Q939 805 1047 805T1272 799Q1309 799 1309 768T1278 703T1208 670Q913 670 774 659V657Q723 470 584 238L616 240ZM684 1796L596 1831Q578 1836 578 1863T614 1926T684 1962Q759 1958 888 1873T1104 1708L1082
1653Q794 1753 684 1796Z" />
<glyph unicode="&#xc9;" glyph-name="Eacute" horiz-adv-x="1403" d="M616 240L674 238Q698 238 711 240Q718 238 804 205Q1030 119 1071 119T1163 145Q1189 149 1309 244T1524 438V328Q1494 301 1436 249T1352 173T1277 110T1201 52T1130 8T1054 -29Q968 -57
893 -57Q887 -57 874 -49T844 -33T795 -12T718 18Q640 48 442 109Q351 37 259 -10T100 -57Q77 -57 49 -44Q-8 -18 -8 43Q-8 96 114 148Q139 159 145 162L401 279Q427 317 514 631Q447 622 387 609T314 596T288 606T274 644Q274 689 326 702Q393 728 551 760Q666
1165 737 1262Q774 1314 842 1360Q741 1368 635 1368Q385 1368 268 1308T150 1143Q150 1087 201 1037T346 952Q346 917 337 876T317 825Q163 879 83 957T2 1120Q2 1299 178 1408T657 1518H948Q1569 1518 1569 1491Q1569 1479 1550 1460L1450 1346Q1398 1311 1346
1311T1159 1332T963 1356Q955 1326 901 1120T809 795Q939 805 1047 805T1272 799Q1309 799 1309 768T1278 703T1208 670Q913 670 774 659V657Q723 470 584 238L616 240ZM1276 1831L1188 1796Q1077 1752 791 1653L768 1708Q856 1789 985 1873T1188 1962Q1222 1962
1258 1926T1295 1863T1276 1831Z" />
<glyph unicode="&#xca;" glyph-name="Ecircumflex" horiz-adv-x="1403" d="M616 240L674 238Q698 238 711 240Q718 238 804 205Q1030 119 1071 119T1163 145Q1189 149 1309 244T1524 438V328Q1494 301 1436 249T1352 173T1277 110T1201 52T1130 8T1054 -29Q968
-57 893 -57Q887 -57 874 -49T844 -33T795 -12T718 18Q640 48 442 109Q351 37 259 -10T100 -57Q77 -57 49 -44Q-8 -18 -8 43Q-8 96 114 148Q139 159 145 162L401 279Q427 317 514 631Q447 622 387 609T314 596T288 606T274 644Q274 689 326 702Q393 728 551 760Q666
1165 737 1262Q774 1314 842 1360Q741 1368 635 1368Q385 1368 268 1308T150 1143Q150 1087 201 1037T346 952Q346 917 337 876T317 825Q163 879 83 957T2 1120Q2 1299 178 1408T657 1518H948Q1569 1518 1569 1491Q1569 1479 1550 1460L1450 1346Q1398 1311 1346
1311T1159 1332T963 1356Q955 1326 901 1120T809 795Q939 805 1047 805T1272 799Q1309 799 1309 768T1278 703T1208 670Q913 670 774 659V657Q723 470 584 238L616 240ZM754 1657L695 1700Q773 1837 880 1966T1045 2095Q1074 2095 1124 1994T1207 1805T1244 1698L1172
1657Q1154 1682 1097 1784T1016 1927Q976 1886 916 1823Q783 1683 754 1657Z" />
<glyph unicode="&#xcb;" glyph-name="Edieresis" horiz-adv-x="1403" d="M616 240L674 238Q698 238 711 240Q718 238 804 205Q1030 119 1071 119T1163 145Q1189 149 1309 244T1524 438V328Q1494 301 1436 249T1352 173T1277 110T1201 52T1130 8T1054 -29Q968 -57
893 -57Q887 -57 874 -49T844 -33T795 -12T718 18Q640 48 442 109Q351 37 259 -10T100 -57Q77 -57 49 -44Q-8 -18 -8 43Q-8 96 114 148Q139 159 145 162L401 279Q427 317 514 631Q447 622 387 609T314 596T288 606T274 644Q274 689 326 702Q393 728 551 760Q666
1165 737 1262Q774 1314 842 1360Q741 1368 635 1368Q385 1368 268 1308T150 1143Q150 1087 201 1037T346 952Q346 917 337 876T317 825Q163 879 83 957T2 1120Q2 1299 178 1408T657 1518H948Q1569 1518 1569 1491Q1569 1479 1550 1460L1450 1346Q1398 1311 1346
1311T1159 1332T963 1356Q955 1326 901 1120T809 795Q939 805 1047 805T1272 799Q1309 799 1309 768T1278 703T1208 670Q913 670 774 659V657Q723 470 584 238L616 240ZM882 1766T829 1714T724 1662Q632 1662 632 1740Q632 1795 672 1846T769 1898T854 1876T882
1810ZM1364 1765T1312 1714T1206 1662Q1114 1662 1114 1740Q1114 1795 1155 1846T1252 1898T1336 1876T1364 1810Z" />
<glyph unicode="&#xcc;" glyph-name="Igrave" horiz-adv-x="1061" d="M403 303L401 213Q401 117 428 78Q455 41 512 41Q700 41 801 604Q802 609 802 611T803 618T805 625L819 702Q546 722 427 828Q362 887 362 954Q362 1072 516 1230Q618 1333 784 1408Q958 1485
1178 1485Q1223 1485 1295 1506T1401 1530Q1389 1455 1350 1394T1249 1311Q1124 1096 1057 793L1024 647Q967 358 913 244Q839 88 758 29Q642 -57 494 -57Q395 -57 306 -2Q262 24 235 70T207 172Q207 303 403 303ZM526 950Q526 860 854 842Q899 1010 964 1124T1145
1303Q1019 1303 910 1272T733 1197T616 1101Q526 1007 526 950ZM952 1796L864 1831Q846 1836 846 1863T882 1926T952 1962Q1027 1958 1156 1873T1372 1708L1350 1653Q1062 1753 952 1796Z" />
<glyph unicode="&#xcd;" glyph-name="Iacute" horiz-adv-x="1061" d="M403 303L401 213Q401 117 428 78Q455 41 512 41Q700 41 801 604Q802 609 802 611T803 618T805 625L819 702Q546 722 427 828Q362 887 362 954Q362 1072 516 1230Q618 1333 784 1408Q958 1485
1178 1485Q1223 1485 1295 1506T1401 1530Q1389 1455 1350 1394T1249 1311Q1124 1096 1057 793L1024 647Q967 358 913 244Q839 88 758 29Q642 -57 494 -57Q395 -57 306 -2Q262 24 235 70T207 172Q207 303 403 303ZM526 950Q526 860 854 842Q899 1010 964 1124T1145
1303Q1019 1303 910 1272T733 1197T616 1101Q526 1007 526 950ZM1544 1831L1456 1796Q1345 1752 1059 1653L1036 1708Q1124 1789 1253 1873T1456 1962Q1490 1962 1526 1926T1563 1863T1544 1831Z" />
<glyph unicode="&#xce;" glyph-name="Icircumflex" horiz-adv-x="1061" d="M403 303L401 213Q401 117 428 78Q455 41 512 41Q700 41 801 604Q802 609 802 611T803 618T805 625L819 702Q546 722 427 828Q362 887 362 954Q362 1072 516 1230Q618 1333 784 1408Q958
1485 1178 1485Q1223 1485 1295 1506T1401 1530Q1389 1455 1350 1394T1249 1311Q1124 1096 1057 793L1024 647Q967 358 913 244Q839 88 758 29Q642 -57 494 -57Q395 -57 306 -2Q262 24 235 70T207 172Q207 303 403 303ZM526 950Q526 860 854 842Q899 1010 964 1124T1145
1303Q1019 1303 910 1272T733 1197T616 1101Q526 1007 526 950ZM1022 1657L963 1700Q1041 1837 1148 1966T1313 2095Q1342 2095 1392 1994T1475 1805T1512 1698L1440 1657Q1422 1682 1365 1784T1284 1927Q1244 1886 1184 1823Q1051 1683 1022 1657Z" />
<glyph unicode="&#xcf;" glyph-name="Idieresis" horiz-adv-x="1061" d="M403 303L401 213Q401 117 428 78Q455 41 512 41Q700 41 801 604Q802 609 802 611T803 618T805 625L819 702Q546 722 427 828Q362 887 362 954Q362 1072 516 1230Q618 1333 784 1408Q958
1485 1178 1485Q1223 1485 1295 1506T1401 1530Q1389 1455 1350 1394T1249 1311Q1124 1096 1057 793L1024 647Q967 358 913 244Q839 88 758 29Q642 -57 494 -57Q395 -57 306 -2Q262 24 235 70T207 172Q207 303 403 303ZM526 950Q526 860 854 842Q899 1010 964 1124T1145
1303Q1019 1303 910 1272T733 1197T616 1101Q526 1007 526 950ZM1150 1766T1097 1714T992 1662Q900 1662 900 1740Q900 1795 940 1846T1037 1898T1122 1876T1150 1810ZM1632 1765T1580 1714T1474 1662Q1382 1662 1382 1740Q1382 1795 1423 1846T1520 1898T1604
1876T1632 1810Z" />
<glyph unicode="&#xd0;" glyph-name="Eth" horiz-adv-x="1780" d="M152 326L145 221Q145 139 170 90T264 41Q303 41 339 67T397 143Q460 272 522 510L438 504Q381 504 381 545Q381 618 430 631Q453 639 553 645L662 1208Q675 1247 791 1247H885Q877 1200 848 988T791
657H813Q1022 657 1022 616Q1022 586 991 553T922 520L784 522H756Q717 391 655 264Q684 176 768 118T941 59T1117 109T1272 248T1383 468T1425 728T1405 950T1339 1125T1226 1266Q1082 1393 840 1393Q695 1393 552 1335T319 1188T229 1014Q229 897 393 834Q393
788 384 738T367 672Q218 719 143 806T68 984T101 1147T206 1287T382 1406Q610 1518 971 1518Q1115 1518 1235 1476T1437 1365T1575 1206Q1683 1034 1683 842T1627 486T1474 203T1241 14T950 -57Q722 -57 584 133Q506 21 416 -17T211 -55T22 20T-53 184Q-53 326
152 326Z" />
<glyph unicode="&#xd1;" glyph-name="Ntilde" horiz-adv-x="1473" d="M1341 195L1597 440L1595 330Q1478 206 1460 193Q1199 -57 1100 -57Q963 -57 963 275T1053 1051Q1058 1073 1071 1120Q1100 1226 1100 1267T1073 1309Q1060 1309 1004 1286T876 1218T749 1128T646
1028T564 926T501 819T453 717T418 618Q391 532 382 489T349 329T272 0H66Q66 93 102 249T201 631T295 995L377 1313L55 1085L25 1075Q-2 1075 -2 1126Q-2 1150 23 1167L453 1438Q574 1516 623 1516Q643 1516 643 1497Q643 1439 604 1287T565 1122L549 1040Q876
1429 1158 1501Q1217 1516 1270 1516Q1354 1516 1354 1423Q1354 1395 1312 1190Q1188 573 1188 360T1257 147Q1294 147 1341 195ZM805 1901Q816 1819 887 1819Q926 1819 1032 1857T1186 1895T1265 1879T1315 1841T1343 1789T1358 1737Q1366 1688 1366 1674L1241
1655Q1225 1743 1166 1743Q1133 1743 1032 1701T881 1659T798 1675T748 1713T720 1765T704 1817Q697 1866 697 1880L805 1901Z" />
<glyph unicode="&#xd2;" glyph-name="Ograve" horiz-adv-x="1653" d="M1521 1069T1553 977T1585 792T1573 637Q1710 658 1853 743V651Q1718 545 1540 510Q1479 342 1346 211T1047 12T715 -57Q393 -57 223 190Q100 368 100 664Q100 912 258 1133Q429 1373 696 1466Q843
1518 1006 1518Q1067 1518 1143 1505L1139 1403Q1092 1411 1003 1411T799 1371T600 1263T453 1110Q328 937 328 748Q328 405 547 250Q675 160 853 160T1173 253T1395 496H1382Q1168 496 1018 602Q945 654 902 737T858 940T949 1149T1217 1239Q1359 1239 1468 1125Q1521
1069 1553 977ZM1030 999Q1030 840 1148 735T1448 627Q1475 712 1475 799Q1475 942 1402 1034T1190 1126Q1109 1126 1070 1092T1030 999ZM872 1796L784 1831Q766 1836 766 1863T802 1926T872 1962Q947 1958 1076 1873T1292 1708L1270 1653Q982 1753 872 1796Z"
/>
<glyph unicode="&#xd3;" glyph-name="Oacute" horiz-adv-x="1653" d="M1521 1069T1553 977T1585 792T1573 637Q1710 658 1853 743V651Q1718 545 1540 510Q1479 342 1346 211T1047 12T715 -57Q393 -57 223 190Q100 368 100 664Q100 912 258 1133Q429 1373 696 1466Q843
1518 1006 1518Q1067 1518 1143 1505L1139 1403Q1092 1411 1003 1411T799 1371T600 1263T453 1110Q328 937 328 748Q328 405 547 250Q675 160 853 160T1173 253T1395 496H1382Q1168 496 1018 602Q945 654 902 737T858 940T949 1149T1217 1239Q1359 1239 1468 1125Q1521
1069 1553 977ZM1030 999Q1030 840 1148 735T1448 627Q1475 712 1475 799Q1475 942 1402 1034T1190 1126Q1109 1126 1070 1092T1030 999ZM1464 1831L1376 1796Q1265 1752 979 1653L956 1708Q1044 1789 1173 1873T1376 1962Q1410 1962 1446 1926T1483 1863T1464
1831Z" />
<glyph unicode="&#xd4;" glyph-name="Ocircumflex" horiz-adv-x="1653" d="M1521 1069T1553 977T1585 792T1573 637Q1710 658 1853 743V651Q1718 545 1540 510Q1479 342 1346 211T1047 12T715 -57Q393 -57 223 190Q100 368 100 664Q100 912 258 1133Q429 1373
696 1466Q843 1518 1006 1518Q1067 1518 1143 1505L1139 1403Q1092 1411 1003 1411T799 1371T600 1263T453 1110Q328 937 328 748Q328 405 547 250Q675 160 853 160T1173 253T1395 496H1382Q1168 496 1018 602Q945 654 902 737T858 940T949 1149T1217 1239Q1359
1239 1468 1125Q1521 1069 1553 977ZM1030 999Q1030 840 1148 735T1448 627Q1475 712 1475 799Q1475 942 1402 1034T1190 1126Q1109 1126 1070 1092T1030 999ZM942 1657L883 1700Q961 1837 1068 1966T1233 2095Q1262 2095 1312 1994T1395 1805T1432 1698L1360 1657Q1342
1682 1285 1784T1204 1927Q1164 1886 1104 1823Q971 1683 942 1657Z" />
<glyph unicode="&#xd5;" glyph-name="Otilde" horiz-adv-x="1653" d="M1521 1069T1553 977T1585 792T1573 637Q1710 658 1853 743V651Q1718 545 1540 510Q1479 342 1346 211T1047 12T715 -57Q393 -57 223 190Q100 368 100 664Q100 912 258 1133Q429 1373 696 1466Q843
1518 1006 1518Q1067 1518 1143 1505L1139 1403Q1092 1411 1003 1411T799 1371T600 1263T453 1110Q328 937 328 748Q328 405 547 250Q675 160 853 160T1173 253T1395 496H1382Q1168 496 1018 602Q945 654 902 737T858 940T949 1149T1217 1239Q1359 1239 1468 1125Q1521
1069 1553 977ZM1030 999Q1030 840 1148 735T1448 627Q1475 712 1475 799Q1475 942 1402 1034T1190 1126Q1109 1126 1070 1092T1030 999ZM954 1901Q965 1819 1036 1819Q1075 1819 1181 1857T1335 1895T1414 1879T1464 1841T1492 1789T1508 1737Q1515 1688 1515
1674L1390 1655Q1374 1743 1315 1743Q1282 1743 1181 1701T1030 1659T947 1675T897 1713T869 1765T854 1817Q846 1866 846 1880L954 1901Z" />
<glyph unicode="&#xd6;" glyph-name="Odieresis" horiz-adv-x="1653" d="M1521 1069T1553 977T1585 792T1573 637Q1710 658 1853 743V651Q1718 545 1540 510Q1479 342 1346 211T1047 12T715 -57Q393 -57 223 190Q100 368 100 664Q100 912 258 1133Q429 1373 696
1466Q843 1518 1006 1518Q1067 1518 1143 1505L1139 1403Q1092 1411 1003 1411T799 1371T600 1263T453 1110Q328 937 328 748Q328 405 547 250Q675 160 853 160T1173 253T1395 496H1382Q1168 496 1018 602Q945 654 902 737T858 940T949 1149T1217 1239Q1359 1239
1468 1125Q1521 1069 1553 977ZM1030 999Q1030 840 1148 735T1448 627Q1475 712 1475 799Q1475 942 1402 1034T1190 1126Q1109 1126 1070 1092T1030 999ZM1071 1766T1018 1714T912 1662Q821 1662 821 1740Q821 1795 861 1846T958 1898T1043 1876T1071 1810ZM1553
1765T1501 1714T1396 1662Q1303 1662 1303 1740Q1303 1795 1344 1846T1441 1898T1525 1876T1553 1810Z" />
<glyph unicode="&#xd7;" glyph-name="multiply" horiz-adv-x="1120" d="M377 918Q446 866 561 764L635 846Q758 975 798 975Q805 975 818 962Q834 946 834 902T811 831L659 674Q711 629 760 580Q851 490 851 457Q851 442 830 428T794 408Q759 396 738 417T681
471T629 520L571 573L420 393Q394 368 376 368Q360 371 350 381Q305 422 305 449Q305 456 320 480T471 664Q452 682 371 753T285 830Q270 847 270 861T283 889Q315 924 339 924T377 918Z" />
<glyph unicode="&#xd8;" glyph-name="Oslash" horiz-adv-x="1653" d="M1565 1537Q1602 1537 1602 1509Q1602 1492 1591 1477L1374 1198Q1468 1146 1526 1038T1585 768Q1585 699 1573 637Q1710 658 1853 743V651Q1718 545 1540 510Q1479 342 1346 211T1047 12T724
-57T443 1L401 -53Q398 -57 393 -64T371 -91T337 -124Q291 -162 250 -162T209 -139Q209 -121 242 -81T286 -23T347 58Q100 243 100 664Q100 912 258 1133Q429 1373 696 1466Q843 1518 1006 1518Q1067 1518 1143 1505L1139 1403Q1092 1411 1003 1411T799 1371T600
1263T453 1110Q328 937 328 748Q328 433 515 274L892 756Q858 833 858 926Q858 1059 949 1149T1217 1239Q1245 1239 1268 1235L1393 1393Q1416 1420 1446 1461T1492 1515Q1515 1536 1550 1536L1565 1537ZM1382 496Q1252 496 1140 538T955 660L608 213Q714 160 842
160Q1031 160 1173 253T1395 496H1382ZM1030 999Q1030 840 1148 735T1448 627Q1475 712 1475 799Q1475 942 1402 1034T1190 1126Q1109 1126 1070 1092T1030 999Z" />
<glyph unicode="&#xd9;" glyph-name="Ugrave" horiz-adv-x="1645" d="M799 1509Q799 1498 746 1379T630 1113T514 778T461 457Q461 147 745 147Q880 147 1004 215T1217 394T1361 643T1425 924Q1367 933 1312 971T1224 1044Q1147 1128 1147 1247Q1147 1342 1195
1426Q1249 1520 1362 1520Q1409 1520 1445 1490T1500 1411T1533 1306T1549 1194T1554 1097T1556 1040T1554 1024Q1640 1038 1744 1103Q1785 1129 1821 1161V1047Q1678 942 1552 920Q1513 610 1340 360Q1157 97 904 -4Q769 -57 644 -57T440 -24T314 72Q223 195 223
407T312 872T537 1311Q537 1315 533 1315T520 1309L406 1221Q388 1211 318 1167Q123 1045 -43 946V1057Q67 1121 277 1250T615 1455T771 1530T799 1509ZM1430 1028L1432 1067Q1432 1167 1401 1253T1321 1339Q1266 1339 1266 1256T1313 1108T1430 1028ZM782 1796L694
1831Q676 1836 676 1863T712 1926T782 1962Q857 1958 986 1873T1202 1708L1180 1653Q892 1753 782 1796Z" />
<glyph unicode="&#xda;" glyph-name="Uacute" horiz-adv-x="1645" d="M799 1509Q799 1498 746 1379T630 1113T514 778T461 457Q461 147 745 147Q880 147 1004 215T1217 394T1361 643T1425 924Q1367 933 1312 971T1224 1044Q1147 1128 1147 1247Q1147 1342 1195
1426Q1249 1520 1362 1520Q1409 1520 1445 1490T1500 1411T1533 1306T1549 1194T1554 1097T1556 1040T1554 1024Q1640 1038 1744 1103Q1785 1129 1821 1161V1047Q1678 942 1552 920Q1513 610 1340 360Q1157 97 904 -4Q769 -57 644 -57T440 -24T314 72Q223 195 223
407T312 872T537 1311Q537 1315 533 1315T520 1309L406 1221Q388 1211 318 1167Q123 1045 -43 946V1057Q67 1121 277 1250T615 1455T771 1530T799 1509ZM1430 1028L1432 1067Q1432 1167 1401 1253T1321 1339Q1266 1339 1266 1256T1313 1108T1430 1028ZM1374 1831L1286
1796Q1175 1752 889 1653L866 1708Q954 1789 1083 1873T1286 1962Q1320 1962 1356 1926T1393 1863T1374 1831Z" />
<glyph unicode="&#xdb;" glyph-name="Ucircumflex" horiz-adv-x="1645" d="M799 1509Q799 1498 746 1379T630 1113T514 778T461 457Q461 147 745 147Q880 147 1004 215T1217 394T1361 643T1425 924Q1367 933 1312 971T1224 1044Q1147 1128 1147 1247Q1147 1342
1195 1426Q1249 1520 1362 1520Q1409 1520 1445 1490T1500 1411T1533 1306T1549 1194T1554 1097T1556 1040T1554 1024Q1640 1038 1744 1103Q1785 1129 1821 1161V1047Q1678 942 1552 920Q1513 610 1340 360Q1157 97 904 -4Q769 -57 644 -57T440 -24T314 72Q223
195 223 407T312 872T537 1311Q537 1315 533 1315T520 1309L406 1221Q388 1211 318 1167Q123 1045 -43 946V1057Q67 1121 277 1250T615 1455T771 1530T799 1509ZM1430 1028L1432 1067Q1432 1167 1401 1253T1321 1339Q1266 1339 1266 1256T1313 1108T1430 1028ZM852
1657L793 1700Q871 1837 978 1966T1143 2095Q1172 2095 1222 1994T1305 1805T1342 1698L1270 1657Q1252 1682 1195 1784T1114 1927Q1074 1886 1014 1823Q881 1683 852 1657Z" />
<glyph unicode="&#xdc;" glyph-name="Udieresis" horiz-adv-x="1645" d="M799 1509Q799 1498 746 1379T630 1113T514 778T461 457Q461 147 745 147Q880 147 1004 215T1217 394T1361 643T1425 924Q1367 933 1312 971T1224 1044Q1147 1128 1147 1247Q1147 1342 1195
1426Q1249 1520 1362 1520Q1409 1520 1445 1490T1500 1411T1533 1306T1549 1194T1554 1097T1556 1040T1554 1024Q1640 1038 1744 1103Q1785 1129 1821 1161V1047Q1678 942 1552 920Q1513 610 1340 360Q1157 97 904 -4Q769 -57 644 -57T440 -24T314 72Q223 195 223
407T312 872T537 1311Q537 1315 533 1315T520 1309L406 1221Q388 1211 318 1167Q123 1045 -43 946V1057Q67 1121 277 1250T615 1455T771 1530T799 1509ZM1430 1028L1432 1067Q1432 1167 1401 1253T1321 1339Q1266 1339 1266 1256T1313 1108T1430 1028ZM980 1766T927
1714T822 1662Q730 1662 730 1740Q730 1795 770 1846T867 1898T952 1876T980 1810ZM1462 1765T1410 1714T1304 1662Q1212 1662 1212 1740Q1212 1795 1253 1846T1350 1898T1434 1876T1462 1810Z" />
<glyph unicode="&#xdd;" glyph-name="Yacute" horiz-adv-x="1554" d="M1001 -139L723 -301Q611 -353 540 -417T469 -548T493 -652T553 -694Q619 -694 705 -630T864 -463T965 -260L1001 -139ZM699 1518T764 1518T829 1489Q829 1472 801 1379T752 1200T667 912Q524
453 524 358Q524 321 548 285T602 248Q672 248 766 286T951 387T1116 544T1214 739L1305 1114Q1320 1182 1362 1331T1423 1487H1640L1286 86L1673 440V328L1268 -33Q1035 -639 623 -750Q536 -774 454 -774T308 -752T198 -681T152 -566T203 -473L1012 -41L1171 457Q1008
269 787 126T438 -18Q363 -18 315 44T266 248Q266 344 288 435T320 570T358 699T396 814Q421 895 477 1053L584 1364L276 1151L266 1145Q258 1137 250 1137T231 1146T221 1180T242 1219L653 1487Q699 1518 764 1518ZM1484 1831L1396 1796Q1285 1752 999 1653L976
1708Q1064 1789 1193 1873T1396 1962Q1430 1962 1466 1926T1503 1863T1484 1831Z" />
<glyph unicode="&#xde;" glyph-name="Thorn" horiz-adv-x="1554" d="M63 176L61 66Q61 -82 178 -82Q273 -82 340 44Q404 163 432 279Q482 486 502 614L649 1403Q654 1432 708 1447T801 1462H877L844 1266Q870 1268 922 1268Q1078 1268 1201 1233T1398 1138Q1548
1018 1548 848Q1548 667 1382 524Q1303 456 1179 415T926 373T674 397Q581 23 387 -109Q282 -180 161 -180T-46 -119T-133 53Q-133 176 63 176ZM1193 1088T1095 1116T918 1145T821 1143Q727 646 694 506Q771 496 864 496Q1115 496 1249 588T1384 811Q1384 942 1255
1040Q1193 1088 1095 1116Z" />
<glyph unicode="&#xdf;" glyph-name="germandbls" horiz-adv-x="983" d="M283 43L332 156Q418 88 519 88T671 157T721 320T693 498T606 651T471 756V872Q560 872 633 905T751 992Q842 1102 842 1225Q842 1299 810 1347T731 1395T648 1378T575 1323T504 1226Q433
1103 395 889Q387 830 289 379T162 -184H-45Q-47 -176 -47 -133T-22 38T31 270Q107 566 127 625Q268 1204 480 1405Q600 1518 735 1518T944 1431T1018 1219Q1018 1082 918 968Q808 843 602 819Q712 777 791 696Q942 541 942 328Q942 167 846 54T576 -59T283 43Z"
/>
<glyph unicode="&#xe0;" glyph-name="agrave" horiz-adv-x="928" d="M150 -29Q30 -29 2 140Q-4 181 -4 225Q-4 334 50 445T192 643T404 785T657 840Q720 840 825 807Q824 800 805 716T767 543Q715 302 715 244T745 186Q811 186 1051 440V328Q899 171 762 71T578
-29Q502 -29 502 102Q502 145 510 199Q438 105 343 38T150 -29ZM209 281Q209 131 307 131Q349 131 410 175T522 272L637 764Q529 764 428 687T268 498T209 281ZM382 1101L294 1136Q276 1141 276 1168T312 1231T382 1267Q457 1263 586 1178T802 1013L780 958Q492
1058 382 1101Z" />
<glyph unicode="&#xe1;" glyph-name="aacute" horiz-adv-x="928" d="M150 -29Q30 -29 2 140Q-4 181 -4 225Q-4 334 50 445T192 643T404 785T657 840Q720 840 825 807Q824 800 805 716T767 543Q715 302 715 244T745 186Q811 186 1051 440V328Q899 171 762 71T578
-29Q502 -29 502 102Q502 145 510 199Q438 105 343 38T150 -29ZM209 281Q209 131 307 131Q349 131 410 175T522 272L637 764Q529 764 428 687T268 498T209 281ZM974 1136L886 1101Q775 1057 489 958L466 1013Q554 1094 683 1178T886 1267Q920 1267 956 1231T993
1168T974 1136Z" />
<glyph unicode="&#xe2;" glyph-name="acircumflex" horiz-adv-x="928" d="M150 -29Q30 -29 2 140Q-4 181 -4 225Q-4 334 50 445T192 643T404 785T657 840Q720 840 825 807Q824 800 805 716T767 543Q715 302 715 244T745 186Q811 186 1051 440V328Q899 171 762
71T578 -29Q502 -29 502 102Q502 145 510 199Q438 105 343 38T150 -29ZM209 281Q209 131 307 131Q349 131 410 175T522 272L637 764Q529 764 428 687T268 498T209 281ZM452 962L393 1005Q471 1142 578 1271T743 1400Q772 1400 822 1299T905 1110T942 1003L870 962Q852
987 795 1089T714 1232Q674 1191 614 1128Q481 988 452 962Z" />
<glyph unicode="&#xe3;" glyph-name="atilde" horiz-adv-x="928" d="M150 -29Q30 -29 2 140Q-4 181 -4 225Q-4 334 50 445T192 643T404 785T657 840Q720 840 825 807Q824 800 805 716T767 543Q715 302 715 244T745 186Q811 186 1051 440V328Q899 171 762 71T578
-29Q502 -29 502 102Q502 145 510 199Q438 105 343 38T150 -29ZM209 281Q209 131 307 131Q349 131 410 175T522 272L637 764Q529 764 428 687T268 498T209 281ZM465 1206Q476 1124 547 1124Q586 1124 692 1162T846 1200T925 1184T975 1146T1003 1094T1019 1042Q1026
993 1026 979L901 960Q885 1048 826 1048Q793 1048 692 1006T541 964T458 980T408 1018T380 1070T365 1122Q357 1171 357 1185L465 1206Z" />
<glyph unicode="&#xe4;" glyph-name="adieresis" horiz-adv-x="928" d="M150 -29Q30 -29 2 140Q-4 181 -4 225Q-4 334 50 445T192 643T404 785T657 840Q720 840 825 807Q824 800 805 716T767 543Q715 302 715 244T745 186Q811 186 1051 440V328Q899 171 762 71T578
-29Q502 -29 502 102Q502 145 510 199Q438 105 343 38T150 -29ZM209 281Q209 131 307 131Q349 131 410 175T522 272L637 764Q529 764 428 687T268 498T209 281ZM837 1328T784 1276T679 1224Q587 1224 587 1302Q587 1357 627 1408T724 1460T809 1438T837 1372ZM1319
1327T1267 1276T1161 1224Q1069 1224 1069 1302Q1069 1357 1110 1408T1207 1460T1291 1438T1319 1372Z" />
<glyph unicode="&#xe5;" glyph-name="aring" horiz-adv-x="928" d="M150 -29Q30 -29 2 140Q-4 181 -4 225Q-4 334 50 445T192 643T404 785T657 840Q720 840 825 807Q824 800 805 716T767 543Q715 302 715 244T745 186Q811 186 1051 440V328Q899 171 762 71T578
-29Q502 -29 502 102Q502 145 510 199Q438 105 343 38T150 -29ZM209 281Q209 131 307 131Q349 131 410 175T522 272L637 764Q529 764 428 687T268 498T209 281ZM805 1140Q805 1237 715 1237Q663 1237 633 1199T602 1115Q602 1015 688 1015Q740 1015 772 1053T805
1140ZM794 1304T836 1257T879 1133T821 1002T691 948T572 989T524 1108T576 1245T711 1304Z" />
<glyph unicode="&#xe6;" glyph-name="ae" horiz-adv-x="1219" d="M793 748Q898 840 1042 840Q1128 840 1184 796T1241 653T1150 470T942 385Q896 385 846 412T762 494Q719 405 719 317Q719 86 887 86Q931 86 995 128T1109 217T1234 339T1339 442V332Q1230 211
1144 136Q955 -29 788 -29Q702 -29 637 12T547 131V129Q492 54 392 13T199 -29T51 43T-4 225T54 445T216 643T476 785T813 840L793 748ZM653 764Q518 734 416 659T261 486T209 281Q209 131 307 131Q357 131 422 164T535 246L653 764ZM791 569Q867 471 958 471Q1016
471 1059 528T1102 648T1078 732T1010 754T928 734T862 684Q808 623 791 569Z" />
<glyph unicode="&#xe7;" glyph-name="ccedilla" horiz-adv-x="696" d="M227 -29Q112 -29 54 43T-4 221T35 434T139 631T303 781T508 840Q650 840 692 772Q707 748 707 711T670 645T575 616Q544 616 517 680Q507 703 485 723T432 743Q374 743 323 678T244 520T215
339T247 196T344 141Q518 141 823 442V330Q553 67 377 0Q299 -29 227 -29ZM229 0Q334 0 334 -117Q334 -196 294 -290Q218 -468 100 -492L84 -430Q137 -377 159 -268Q168 -223 168 -174Q130 -163 110 -140T90 -85T127 -27T229 0Z" />
<glyph unicode="&#xe8;" glyph-name="egrave" horiz-adv-x="731" d="M303 565Q379 467 471 467Q529 467 571 524T614 644T591 728T523 750T440 730T374 680Q322 621 303 565ZM852 438V328Q693 153 568 62T330 -29Q104 -29 48 118Q27 176 27 258Q27 404 88 536T263
754T518 840Q754 840 754 664Q754 550 662 466T455 381Q409 381 359 408T274 489Q231 399 231 313Q231 82 399 82Q443 82 507 124T621 212T747 335T852 438ZM253 1099L165 1134Q147 1139 147 1166T183 1229T253 1265Q328 1261 457 1176T673 1011L651 956Q363 1056
253 1099Z" />
<glyph unicode="&#xe9;" glyph-name="eacute" horiz-adv-x="731" d="M303 565Q379 467 471 467Q529 467 571 524T614 644T591 728T523 750T440 730T374 680Q322 621 303 565ZM852 438V328Q693 153 568 62T330 -29Q104 -29 48 118Q27 176 27 258Q27 404 88 536T263
754T518 840Q754 840 754 664Q754 550 662 466T455 381Q409 381 359 408T274 489Q231 399 231 313Q231 82 399 82Q443 82 507 124T621 212T747 335T852 438ZM845 1120L757 1085Q646 1041 360 942L337 997Q425 1078 554 1162T757 1251Q791 1251 827 1215T864 1152T845
1120Z" />
<glyph unicode="&#xea;" glyph-name="ecircumflex" horiz-adv-x="731" d="M303 565Q379 467 471 467Q529 467 571 524T614 644T591 728T523 750T440 730T374 680Q322 621 303 565ZM852 438V328Q693 153 568 62T330 -29Q104 -29 48 118Q27 176 27 258Q27 404 88
536T263 754T518 840Q754 840 754 664Q754 550 662 466T455 381Q409 381 359 408T274 489Q231 399 231 313Q231 82 399 82Q443 82 507 124T621 212T747 335T852 438ZM323 960L264 1003Q342 1140 449 1269T614 1398Q643 1398 693 1297T776 1108T813 1001L741 960Q723
985 666 1087T585 1230Q545 1189 486 1126Q352 986 323 960Z" />
<glyph unicode="&#xeb;" glyph-name="edieresis" horiz-adv-x="731" d="M303 565Q379 467 471 467Q529 467 571 524T614 644T591 728T523 750T440 730T374 680Q322 621 303 565ZM852 438V328Q693 153 568 62T330 -29Q104 -29 48 118Q27 176 27 258Q27 404 88 536T263
754T518 840Q754 840 754 664Q754 550 662 466T455 381Q409 381 359 408T274 489Q231 399 231 313Q231 82 399 82Q443 82 507 124T621 212T747 335T852 438ZM452 1070T399 1018T294 966Q202 966 202 1044Q202 1099 242 1150T339 1202T424 1180T452 1114ZM934 1069T882
1018T776 966Q684 966 684 1044Q684 1099 725 1150T822 1202T906 1180T934 1114Z" />
<glyph unicode="&#xec;" glyph-name="igrave" horiz-adv-x="469" d="M231 199Q231 133 266 133Q288 133 404 247T590 438V326Q393 132 326 76Q204 -25 117 -29Q73 -29 51 10T29 112T85 403T159 680T190 747T220 777T251 794T293 804Q332 807 389 807Q231 301 231
199ZM81 1114L-7 1149Q-25 1154 -25 1181T11 1244T81 1280Q156 1276 285 1191T501 1026L479 971Q191 1071 81 1114Z" />
<glyph unicode="&#xed;" glyph-name="iacute" horiz-adv-x="469" d="M231 199Q231 133 266 133Q288 133 404 247T590 438V326Q393 132 326 76Q204 -25 117 -29Q73 -29 51 10T29 112T85 403T159 680T190 747T220 777T251 794T293 804Q332 807 389 807Q231 301 231
199ZM673 1149L585 1114Q474 1070 188 971L165 1026Q253 1107 382 1191T585 1280Q619 1280 655 1244T692 1181T673 1149Z" />
<glyph unicode="&#xee;" glyph-name="icircumflex" horiz-adv-x="469" d="M231 199Q231 133 266 133Q288 133 404 247T590 438V326Q393 132 326 76Q204 -25 117 -29Q73 -29 51 10T29 112T85 403T159 680T190 747T220 777T251 794T293 804Q332 807 389 807Q231
301 231 199ZM151 975L92 1018Q170 1155 277 1284T442 1413Q471 1413 521 1312T604 1123T641 1016L569 975Q551 1000 494 1102T413 1245Q373 1204 313 1141Q180 1001 151 975Z" />
<glyph unicode="&#xef;" glyph-name="idieresis" horiz-adv-x="469" d="M231 199Q231 133 266 133Q288 133 404 247T590 438V326Q393 132 326 76Q204 -25 117 -29Q73 -29 51 10T29 112T85 403T159 680T190 747T220 777T251 794T293 804Q332 807 389 807Q231 301
231 199ZM280 1084T227 1032T122 980Q30 980 30 1058Q30 1113 70 1164T167 1216T252 1194T280 1128ZM762 1083T710 1032T604 980Q512 980 512 1058Q512 1113 553 1164T650 1216T734 1194T762 1128Z" />
<glyph unicode="&#xf0;" glyph-name="eth" horiz-adv-x="1036" d="M335 1531Q483 1531 657 1286L716 1310Q856 1372 898 1372T941 1330Q941 1301 925 1272T879 1230Q797 1198 732 1168Q839 985 907 776T976 391T873 101T581 -14Q480 -14 387 27T228 136T123 290T83
467Q83 632 177 727T414 823Q524 823 600 776Q642 750 642 714Q642 698 633 679Q564 710 492 710T369 649T319 487T361 297T466 157T579 105T659 114T709 142T742 185T763 244Q775 304 775 398Q775 665 521 1074L376 1004Q346 994 331 994T303 1020T290 1072T313
1114T448 1189Q350 1334 195 1531H335Z" />
<glyph unicode="&#xf1;" glyph-name="ntilde" horiz-adv-x="838" d="M958 436V324Q799 162 677 67T513 -29Q438 -29 438 55T475 255T550 466T588 593T577 640T549 655Q492 655 426 576T308 383Q200 149 166 0H-25Q-24 108 36 358T143 727Q162 775 197 791T293
807H360Q287 555 252 444Q319 569 446 698Q508 760 581 800T719 840Q817 840 817 723Q817 667 747 458T676 227T688 205T721 218T840 325T958 436ZM586 1206Q597 1124 668 1124Q707 1124 813 1162T967 1200T1046 1184T1096 1146T1124 1094T1140 1042Q1147 993 1147
979L1022 960Q1006 1048 947 1048Q914 1048 813 1006T662 964T579 980T529 1018T501 1070T486 1122Q478 1171 478 1185L586 1206Z" />
<glyph unicode="&#xf2;" glyph-name="ograve" horiz-adv-x="907" d="M684 827Q684 798 662 784Q463 784 358 670Q260 562 260 428T319 213T465 133T631 223Q556 270 516 347T475 503T523 632T662 682T794 633T836 513Q836 367 743 254Q768 244 786 244T823 252T868
282T912 323T967 380T1028 442V332Q945 244 894 207T793 170T702 184Q625 90 520 31T301 -29Q139 -29 70 124Q31 210 31 317Q31 560 203 700T662 840Q682 840 684 827ZM741 494Q741 586 660 586T578 489Q578 438 605 384T680 297Q700 330 720 388T741 494ZM346
1101L258 1136Q240 1141 240 1168T276 1231T346 1267Q421 1263 550 1178T766 1013L744 958Q456 1058 346 1101Z" />
<glyph unicode="&#xf3;" glyph-name="oacute" horiz-adv-x="907" d="M684 827Q684 798 662 784Q463 784 358 670Q260 562 260 428T319 213T465 133T631 223Q556 270 516 347T475 503T523 632T662 682T794 633T836 513Q836 367 743 254Q768 244 786 244T823 252T868
282T912 323T967 380T1028 442V332Q945 244 894 207T793 170T702 184Q625 90 520 31T301 -29Q139 -29 70 124Q31 210 31 317Q31 560 203 700T662 840Q682 840 684 827ZM741 494Q741 586 660 586T578 489Q578 438 605 384T680 297Q700 330 720 388T741 494ZM938
1136L850 1101Q739 1057 453 958L430 1013Q518 1094 647 1178T850 1267Q884 1267 920 1231T957 1168T938 1136Z" />
<glyph unicode="&#xf4;" glyph-name="ocircumflex" horiz-adv-x="907" d="M684 827Q684 798 662 784Q463 784 358 670Q260 562 260 428T319 213T465 133T631 223Q556 270 516 347T475 503T523 632T662 682T794 633T836 513Q836 367 743 254Q768 244 786 244T823
252T868 282T912 323T967 380T1028 442V332Q945 244 894 207T793 170T702 184Q625 90 520 31T301 -29Q139 -29 70 124Q31 210 31 317Q31 560 203 700T662 840Q682 840 684 827ZM741 494Q741 586 660 586T578 489Q578 438 605 384T680 297Q700 330 720 388T741 494ZM416
962L357 1005Q435 1142 542 1271T707 1400Q736 1400 786 1299T869 1110T906 1003L834 962Q816 987 759 1089T678 1232Q638 1191 578 1128Q445 988 416 962Z" />
<glyph unicode="&#xf5;" glyph-name="otilde" horiz-adv-x="907" d="M684 827Q684 798 662 784Q463 784 358 670Q260 562 260 428T319 213T465 133T631 223Q556 270 516 347T475 503T523 632T662 682T794 633T836 513Q836 367 743 254Q768 244 786 244T823 252T868
282T912 323T967 380T1028 442V332Q945 244 894 207T793 170T702 184Q625 90 520 31T301 -29Q139 -29 70 124Q31 210 31 317Q31 560 203 700T662 840Q682 840 684 827ZM741 494Q741 586 660 586T578 489Q578 438 605 384T680 297Q700 330 720 388T741 494ZM428
1206Q439 1124 510 1124Q549 1124 655 1162T809 1200T888 1184T938 1146T966 1094T982 1042Q989 993 989 979L864 960Q848 1048 789 1048Q756 1048 655 1006T504 964T421 980T371 1018T343 1070T328 1122Q320 1171 320 1185L428 1206Z" />
<glyph unicode="&#xf6;" glyph-name="odieresis" horiz-adv-x="907" d="M684 827Q684 798 662 784Q463 784 358 670Q260 562 260 428T319 213T465 133T631 223Q556 270 516 347T475 503T523 632T662 682T794 633T836 513Q836 367 743 254Q768 244 786 244T823
252T868 282T912 323T967 380T1028 442V332Q945 244 894 207T793 170T702 184Q625 90 520 31T301 -29Q139 -29 70 124Q31 210 31 317Q31 560 203 700T662 840Q682 840 684 827ZM741 494Q741 586 660 586T578 489Q578 438 605 384T680 297Q700 330 720 388T741 494ZM800
1328T747 1276T642 1224Q550 1224 550 1302Q550 1357 590 1408T687 1460T772 1438T800 1372ZM1282 1327T1230 1276T1124 1224Q1032 1224 1032 1302Q1032 1357 1073 1408T1170 1460T1254 1438T1282 1372Z" />
<glyph unicode="&#xf7;" glyph-name="divide" horiz-adv-x="862" d="M717 614L518 616Q428 616 172 598Q115 598 115 639Q115 711 164 725Q197 731 344 741T547 752Q817 752 817 711Q817 681 786 648T717 614ZM551 357T499 306T394 254Q301 254 301 332Q301 386
342 437T439 489T523 468T551 402ZM533 864T483 864T408 886T383 952T418 1048T506 1100T585 1078T612 1012T573 916Z" />
<glyph unicode="&#xf8;" glyph-name="oslash" horiz-adv-x="907" d="M696 545Q805 545 805 434Q805 385 786 331T748 252Q767 244 785 244T823 252T868 282T912 323T967 380T1028 442V332Q945 244 894 207T783 170T705 186Q627 91 521 31T301 -29Q284 -29 260
-25L180 -154Q139 -208 96 -211Q76 -208 76 -193Q76 -177 94 -151T119 -108T182 0Q106 39 69 127T31 310T80 500T208 669T388 792T567 840T700 823L772 936Q785 955 802 982T827 1020Q848 1049 878 1049T909 1020Q909 1012 903 1006L770 793Q831 757 889 684Q889
651 876 642T848 627Q789 695 729 727L375 160Q412 133 465 133Q553 133 633 225Q573 291 573 371T606 498T696 545ZM317 217Q414 373 655 752Q628 758 583 758T473 725T362 642Q260 528 260 412T317 217ZM692 283Q735 369 735 415T698 461Q676 461 664 437T651
381Q651 309 692 283Z" />
<glyph unicode="&#xf9;" glyph-name="ugrave" horiz-adv-x="993" d="M154 -29Q37 -29 37 139Q37 196 51 250Q111 477 217 782Q221 807 379 807H414Q414 805 373 676Q250 289 250 217T317 145Q374 145 458 194T557 272L666 688Q688 773 726 792Q755 807 819 807H887Q760
348 737 246Q729 170 729 155T733 135T754 129Q805 129 1114 438V326Q1090 304 1031 249T941 165T858 93T770 28Q679 -29 621 -29Q535 -29 535 102Q535 157 545 195Q314 -29 154 -29ZM292 1099L204 1134Q186 1139 186 1166T222 1229T292 1265Q367 1261 496 1176T712
1011L690 956Q402 1056 292 1099Z" />
<glyph unicode="&#xfa;" glyph-name="uacute" horiz-adv-x="993" d="M154 -29Q37 -29 37 139Q37 196 51 250Q111 477 217 782Q221 807 379 807H414Q414 805 373 676Q250 289 250 217T317 145Q374 145 458 194T557 272L666 688Q688 773 726 792Q755 807 819 807H887Q760
348 737 246Q729 170 729 155T733 135T754 129Q805 129 1114 438V326Q1090 304 1031 249T941 165T858 93T770 28Q679 -29 621 -29Q535 -29 535 102Q535 157 545 195Q314 -29 154 -29ZM884 1134L796 1099Q685 1055 399 956L376 1011Q464 1092 593 1176T796 1265Q830
1265 866 1229T903 1166T884 1134Z" />
<glyph unicode="&#xfb;" glyph-name="ucircumflex" horiz-adv-x="993" d="M154 -29Q37 -29 37 139Q37 196 51 250Q111 477 217 782Q221 807 379 807H414Q414 805 373 676Q250 289 250 217T317 145Q374 145 458 194T557 272L666 688Q688 773 726 792Q755 807 819
807H887Q760 348 737 246Q729 170 729 155T733 135T754 129Q805 129 1114 438V326Q1090 304 1031 249T941 165T858 93T770 28Q679 -29 621 -29Q535 -29 535 102Q535 157 545 195Q314 -29 154 -29ZM362 960L303 1003Q381 1140 488 1269T653 1398Q682 1398 732 1297T815
1108T852 1001L780 960Q762 985 705 1087T624 1230Q584 1189 524 1126Q391 986 362 960Z" />
<glyph unicode="&#xfc;" glyph-name="udieresis" horiz-adv-x="993" d="M154 -29Q37 -29 37 139Q37 196 51 250Q111 477 217 782Q221 807 379 807H414Q414 805 373 676Q250 289 250 217T317 145Q374 145 458 194T557 272L666 688Q688 773 726 792Q755 807 819
807H887Q760 348 737 246Q729 170 729 155T733 135T754 129Q805 129 1114 438V326Q1090 304 1031 249T941 165T858 93T770 28Q679 -29 621 -29Q535 -29 535 102Q535 157 545 195Q314 -29 154 -29ZM491 1070T438 1018T332 966Q241 966 241 1044Q241 1099 281 1150T378
1202T463 1180T491 1114ZM973 1069T921 1018T816 966Q723 966 723 1044Q723 1099 764 1150T861 1202T945 1180T973 1114Z" />
<glyph unicode="&#xfd;" glyph-name="yacute" horiz-adv-x="860" d="M506 195Q273 -29 113 -29Q51 -29 24 19T-4 143Q-4 270 176 782Q180 807 338 807H373Q373 805 332 676Q209 289 209 217T276 145Q333 145 417 194T516 272L625 688Q647 773 685 792Q714 807
778 807H846Q823 742 783 593T725 382Q688 247 674 191L666 164Q894 354 983 440V328L649 27V23Q626 -104 577 -205T465 -366Q338 -489 205 -489Q136 -489 76 -445T16 -341T56 -240T172 -156L473 35L506 195ZM461 -88L276 -205Q243 -225 224 -239T185 -281T166
-338Q166 -420 240 -420Q329 -420 384 -329T461 -88ZM831 1134L743 1099Q632 1055 346 956L323 1011Q411 1092 540 1176T743 1265Q777 1265 813 1229T850 1166T831 1134Z" />
<glyph unicode="&#xfe;" glyph-name="thorn" horiz-adv-x="967" d="M817 688Q817 556 726 384T528 145Q631 145 798 292Q878 361 983 469V354Q959 331 915 288T852 226T795 172T739 122T688 82T634 47T581 21T522 -1Q454 -16 408 -16T349 0T336 35T338 62T345
79T355 95T369 113T384 131T400 150Q477 236 535 364T594 573T528 655Q415 655 320 472Q236 310 166 84L139 -2Q123 -62 43 -389H-137Q-83 -178 -7 174Q170 994 297 1382Q323 1452 404 1460Q424 1462 457 1462H524Q514 1427 492 1340Q427 1086 305 674L250 477Q314
587 399 674Q563 840 690 840T817 688Z" />
<glyph unicode="&#xff;" glyph-name="ydieresis" horiz-adv-x="860" d="M506 195Q273 -29 113 -29Q51 -29 24 19T-4 143Q-4 270 176 782Q180 807 338 807H373Q373 805 332 676Q209 289 209 217T276 145Q333 145 417 194T516 272L625 688Q647 773 685 792Q714 807
778 807H846Q823 742 783 593T725 382Q688 247 674 191L666 164Q894 354 983 440V328L649 27V23Q626 -104 577 -205T465 -366Q338 -489 205 -489Q136 -489 76 -445T16 -341T56 -240T172 -156L473 35L506 195ZM461 -88L276 -205Q243 -225 224 -239T185 -281T166
-338Q166 -420 240 -420Q329 -420 384 -329T461 -88ZM438 1070T385 1018T280 966Q188 966 188 1044Q188 1099 228 1150T325 1202T410 1180T438 1114ZM920 1069T868 1018T762 966Q670 966 670 1044Q670 1099 711 1150T808 1202T892 1180T920 1114Z" />
<glyph unicode="&#x2013;" glyph-name="endash" horiz-adv-x="930" d="M776 614L639 616Q500 616 129 598Q72 598 72 639Q72 711 121 725Q166 731 376 741T668 752Q877 752 877 711Q877 681 846 648T776 614Z" />
<glyph unicode="&#x2014;" glyph-name="emdash" horiz-adv-x="1196" d="M1042 614L823 616Q629 616 129 598Q72 598 72 639Q72 711 121 725Q180 731 462 741T852 752Q1143 752 1143 711Q1143 681 1112 648T1042 614Z" />
<glyph unicode="&#x2018;" glyph-name="quoteleft" horiz-adv-x="375" d="M152 1067Q47 1067 47 1184Q47 1231 86 1304T144 1411Q209 1528 219 1538L276 1518Q238 1411 213 1303Q252 1303 271 1281T291 1214T250 1119T152 1067Z" />
<glyph unicode="&#x2019;" glyph-name="quoteright" horiz-adv-x="373" d="M223 1538Q328 1538 328 1421Q328 1356 194 1131Q157 1069 156 1067L98 1087Q137 1194 162 1303Q122 1303 103 1324T84 1390T125 1486T223 1538Z" />
<glyph unicode="&#x201a;" glyph-name="quotesinglbase" horiz-adv-x="373" d="M223 207Q328 207 328 90Q328 25 194 -200Q157 -262 156 -264L98 -244Q137 -137 162 -29Q123 -29 104 -7T84 59T125 155T223 207Z" />
<glyph unicode="&#x201c;" glyph-name="quotedblleft" horiz-adv-x="752" d="M195 1067Q90 1067 90 1184Q90 1231 129 1304T186 1411Q252 1528 262 1538L319 1518Q281 1411 256 1303Q295 1303 314 1281T334 1214T293 1119T195 1067ZM500 1067Q395 1067 395 1184Q395
1249 529 1474Q566 1536 567 1538L625 1518Q586 1411 561 1303Q600 1303 619 1281T639 1214T598 1119T500 1067Z" />
<glyph unicode="&#x201d;" glyph-name="quotedblright" horiz-adv-x="750" d="M113 1435T154 1486T251 1538T332 1508T356 1438T343 1361T304 1275T260 1194Q194 1077 184 1067L127 1087Q166 1194 190 1303Q151 1303 132 1325T113 1391ZM557 1538Q662 1538 662
1421Q662 1376 623 1302T564 1194Q515 1106 489 1067L432 1087Q471 1194 496 1303Q456 1303 437 1324T418 1390T459 1486T557 1538Z" />
<glyph unicode="&#x201e;" glyph-name="quotedblbase" horiz-adv-x="750" d="M252 236Q356 236 356 119Q356 73 318 0T259 -109T213 -188T184 -236L127 -215Q166 -109 190 0Q151 0 132 22T113 88T154 184T252 236ZM557 236Q662 236 662 119Q662 54 518 -188Q493
-230 489 -236L432 -215Q471 -109 496 0Q457 0 438 22T418 88T459 184T557 236Z" />
<glyph unicode="&#x2022;" glyph-name="bullet" horiz-adv-x="422" d="M158 403Q78 403 38 448T-2 563T34 705T138 829T299 881T449 836T504 723Q504 612 399 508T158 403Z" />
<glyph unicode="&#x2039;" glyph-name="guilsinglleft" horiz-adv-x="696" d="M332 438L424 313Q551 157 551 96Q551 72 530 54T466 35T352 123Q20 539 20 616Q20 652 68 704Q128 769 147 791L303 965Q317 980 350 1022T406 1091T468 1141T545 1165Q600 1165 600
1112Q600 1093 565 1060Q410 917 346 829L193 649L332 438Z" />
<glyph unicode="&#x203a;" glyph-name="guilsinglright" horiz-adv-x="727" d="M80 89Q80 143 242 313L354 438L528 649L406 829Q366 900 310 964T225 1060T199 1112Q206 1165 253 1165T335 1142T388 1092T433 1023T471 965L598 791Q613 771 634 744T664 703Q698
658 698 641T696 616Q681 534 283 123Q199 35 155 35T96 52T80 89Z" />
</font>
</defs>
</svg>
