<?xml version="1.0" standalone="no"?>
<!DOCTYPE svg PUBLIC "-//W3C//DTD SVG 1.1//EN" "http://www.w3.org/Graphics/SVG/1.1/DTD/svg11.dtd">
<svg xmlns="http://www.w3.org/2000/svg">
<defs >
<font id="DellaRespira" horiz-adv-x="889" ><font-face
    font-family="Della Respira"
    units-per-em="2048"
    panose-1="2 0 6 3 0 0 0 0 0 0"
    ascent="2196"
    descent="-607"
    alphabetic="0" />
<glyph unicode=" " glyph-name="space" horiz-adv-x="512" />
<glyph unicode="!" glyph-name="exclam" horiz-adv-x="446" d="M234 6Q223 -4 213 6L123 99Q114 111 123 123L213 220Q224 230 234 220L327 123Q337 110 327 99L234 6ZM109 1452T125 1466T182 1489T263 1489T320 1466T336 1443Q306 1133 296 898T285 327Q285 286
223 286T161 327Q161 672 151 905T110 1443Q109 1452 125 1466Z" />
<glyph unicode="&quot;" glyph-name="quotedbl" horiz-adv-x="773" d="M459 1450Q416 1489 433 1512L545 1633Q558 1644 571 1633L687 1512Q698 1496 687 1481Q687 1481 621 1410L439 1192Q418 1167 381 1206Q374 1213 418 1271T477 1350Q505 1389 479 1432Q477
1433 459 1450ZM395 1450Q352 1489 369 1512L481 1633Q494 1644 507 1633L623 1512Q634 1496 623 1481Q623 1481 557 1410L375 1192Q354 1167 317 1206Q310 1213 354 1271T413 1350Q441 1389 415 1432Q413 1433 395 1450Z" />
<glyph unicode="#" glyph-name="numbersign" horiz-adv-x="1203" d="M517 996L428 634H684L771 996H517ZM281 31Q275 5 251 0T192 11Q180 18 184 37L280 432H125Q113 432 105 443T101 466Q144 557 161 585T180 618T184 624Q186 626 189 630T199 634H328L416 996H185Q173
996 165 1007T161 1030Q204 1121 221 1149T240 1182T244 1188Q246 1190 249 1194T259 1198H465L568 1625Q570 1631 587 1636T620 1637T651 1621T665 1603L566 1198H819L922 1625Q924 1631 941 1636T973 1637T1004 1621T1019 1603L921 1198H1078Q1090 1198 1098
1187T1102 1164L1026 1018Q1015 996 1004 996H872L784 634H1018Q1030 634 1038 623T1042 600L966 454Q955 432 944 432H735L638 31Q632 5 607 0T548 11Q536 18 540 37L635 432H379L281 31Z" />
<glyph unicode="$" glyph-name="dollar" horiz-adv-x="1137" d="M498 1018Q522 1002 525 1000T535 997T545 1004T561 1154L580 1398Q491 1421 425 1356T358 1220T392 1108L414 1084Q427 1069 451 1051L498 1018ZM616 740L567 99Q589 84 662 118T762 178Q860 278
860 416Q860 500 830 556T732 676L694 710Q651 748 639 749T620 747Q616 741 616 740ZM548 -188Q548 -223 526 -223Q488 -223 463 -222Q451 -222 451 -197L472 -3Q472 5 461 9T449 14Q157 100 157 388Q157 467 186 525Q191 537 200 537T215 533L402 417Q410 412
410 398T401 374T384 366T365 371T339 375T304 356T284 313Q284 238 333 183T450 108Q459 105 464 105T475 107L532 807Q506 828 466 856L397 905Q319 959 288 1005Q230 1092 230 1184Q230 1355 330 1423T589 1507Q593 1600 594 1619T644 1638T694 1611Q692 1589
687 1555L679 1499Q903 1447 907 1423Q916 1368 935 1208Q935 1185 897 1185Q892 1185 870 1212L822 1272Q796 1306 758 1337T693 1374T666 1366Q655 1224 636 939Q817 825 839 805L889 758Q916 732 930 711L961 658Q1008 577 1008 445Q1008 246 889 122T573 -3Q565
-3 556 -9L548 -188Z" />
<glyph unicode="%" glyph-name="percent" horiz-adv-x="1324" d="M1210 1638T1216 1633T1224 1620V1456Q1224 1439 1215 1426L147 0Q139 -9 126 -2T110 18V182Q112 203 118 212L1062 1473Q931 1418 790 1418T532 1457Q569 1353 569 1234T542 1019T460 862T347
800T247 828T178 905T129 1017T102 1149T96 1288Q99 1425 160 1531T336 1638Q422 1637 481 1556Q595 1508 741 1508T999 1542T1144 1638Q1210 1638 1216 1633ZM862 776Q917 838 990 838T1119 774Q1223 654 1223 419T1114 62Q1059 0 988 0T862 63Q754 187 754 421T862
776ZM1082 751T986 751T890 423T986 95T1082 423ZM428 1551T332 1551T236 1223T332 895T428 1223Z" />
<glyph unicode="&amp;" glyph-name="ampersand" horiz-adv-x="1747" d="M767 1049Q767 1021 754 1021H634Q517 1021 412 945Q229 812 228 592Q228 502 273 418T389 273T551 176T718 139T845 155T933 197T1000 258Q1051 318 1075 392T1100 509T1061 556H723Q610
556 585 537T549 502T533 487T513 492T498 501T512 536L544 610Q562 652 569 676T586 704H1514Q1586 704 1634 752Q1638 756 1644 769T1669 782T1688 768Q1671 651 1645 581Q1636 558 1609 556Q1549 552 1446 557T1290 557T1237 520Q1237 381 1158 232Q1016 -36
678 -36Q571 -36 458 8T262 130T129 322T80 544T100 724Q136 854 213 936T390 1086V1092Q298 1164 272 1216T246 1340Q246 1489 339 1582T575 1675Q625 1675 700 1648Q715 1642 733 1654T771 1666T802 1647Q806 1644 805 1626Q804 1603 829 1493L854 1384Q864 1340
864 1328Q864 1322 839 1310T809 1304L743 1449Q693 1537 596 1537T446 1486T394 1343Q394 1292 430 1248Q505 1157 634 1157H754Q767 1157 767 1129V1049Z" />
<glyph unicode="&apos;" glyph-name="quotesingle" horiz-adv-x="475" d="M150 1450Q107 1489 124 1512L236 1633Q249 1644 262 1633L378 1512Q389 1496 378 1481Q378 1481 312 1410L130 1192Q109 1167 72 1206Q65 1213 109 1271T168 1350Q196 1389 170 1432Q168
1433 150 1450Z" />
<glyph unicode="(" glyph-name="parenleft" horiz-adv-x="917" d="M330 1144T284 991T237 682T268 398Q326 161 479 -19T851 -327Q893 -348 893 -356V-402Q893 -408 886 -411T871 -412Q633 -317 449 -146T166 237T66 664T165 1092T449 1476T871 1743Q878 1745
885 1742T893 1733V1687Q893 1672 851 1658Q580 1500 416 1266Q330 1144 284 991Z" />
<glyph unicode=")" glyph-name="parenright" horiz-adv-x="917" d="M587 187T633 340T680 649T649 933Q591 1170 438 1350T66 1658Q24 1679 24 1687V1733Q24 1739 31 1742T46 1743Q284 1648 468 1477T751 1094T851 667T752 239T468 -145T46 -412Q39 -414 32 -411T24
-402V-356Q24 -341 66 -327Q337 -169 501 65Q587 187 633 340Z" />
<glyph unicode="*" glyph-name="asterisk" horiz-adv-x="840" d="M365 1460Q326 1491 326 1535T355 1609T425 1638T495 1609T524 1534T481 1458L448 1291L580 1401Q587 1450 629 1474Q652 1488 678 1488Q735 1488 760 1446T774 1364T728 1303Q680 1277 636 1298L476
1244L635 1184Q679 1203 718 1181T768 1119T759 1044T699 999T620 1011T575 1085L448 1197L476 1029Q515 998 515 954T486 881T416 852T346 881T317 955T360 1031L393 1199L261 1089Q254 1040 216 1018T138 1006T77 1052T67 1126T119 1189T205 1191L366 1245L206
1306Q162 1287 123 1309T73 1370T82 1445T142 1491T221 1479T266 1404L393 1293L365 1460Z" />
<glyph unicode="+" glyph-name="plus" horiz-adv-x="1186" d="M1086 817Q1086 803 1069 803H668V402Q668 385 654 385H532Q518 385 518 402V803H117Q100 803 100 817V939Q100 953 117 953H518V1354Q518 1371 532 1371H654Q668 1371 668 1354V953H1069Q1086 953
1086 939V817Z" />
<glyph unicode="," glyph-name="comma" horiz-adv-x="475" d="M150 91Q107 130 124 153L236 274Q249 285 262 274L378 153Q389 137 378 122Q378 122 312 51L130 -167Q109 -192 72 -153Q65 -146 109 -87T168 -8Q196 31 170 73Q168 74 150 91Z" />
<glyph unicode="-" glyph-name="hyphen" horiz-adv-x="513" d="M1 550Q1 567 7 570L488 825Q496 829 504 825T513 813V684Q513 667 508 664L27 409Q19 405 11 409T1 421V550Z" />
<glyph unicode="." glyph-name="period" horiz-adv-x="448" d="M235 6Q221 -4 209 6L97 122Q86 138 97 153L209 274Q222 285 235 274L351 153Q362 137 351 122L235 6Z" />
<glyph unicode="/" glyph-name="slash" horiz-adv-x="1105" d="M1017 1611Q1030 1605 1022 1590L206 -12Q198 -26 186 -20L78 35Q65 41 73 56L889 1658Q897 1672 909 1666L1017 1611Z" />
<glyph unicode="0" glyph-name="zero" horiz-adv-x="997" d="M435 1529T499 1529T611 1460T684 1279Q732 1066 732 784T663 288Q638 211 596 160T499 109T402 160Q328 249 297 446T266 792T277 1055T314 1279T387 1459ZM402 -19T499 -19T679 63T814 272Q926 542
926 830Q926 1033 849 1267T649 1600Q578 1657 499 1657T349 1600Q225 1501 149 1267T72 863T101 546T183 272T319 63Z" />
<glyph unicode="1" glyph-name="one" horiz-adv-x="579" d="M199 175Q199 175 199 1313Q199 1359 183 1375T137 1392T106 1410Q106 1434 119 1448L310 1635Q313 1638 320 1638H384Q393 1638 393 1620V175Q393 69 441 51Q470 40 470 28Q470 0 457 0H134Q121 0 121
18T129 41T150 51Q180 63 190 93T199 175Z" />
<glyph unicode="2" glyph-name="two" horiz-adv-x="1076" d="M96 0Q86 0 89 43T96 91Q230 246 312 351Q396 456 478 584Q630 820 731 1152Q773 1312 689 1444Q634 1532 548 1532T406 1461T338 1297Q333 1259 345 1234T378 1182L401 1152Q405 1146 397 1127T376
1110L142 1229Q142 1301 174 1378T261 1517T391 1619T547 1659Q717 1659 821 1534T925 1219Q925 972 676 608Q608 508 540 428L418 285Q362 222 327 187L292 152Q313 152 402 149Q527 145 666 157T861 234Q863 237 905 276Q910 272 928 269T946 249T902 117T844
0H96Z" />
<glyph unicode="3" glyph-name="three" horiz-adv-x="1014" d="M821 1325Q820 1113 562 1010V1003Q716 970 810 863T904 626T858 400Q772 218 558 109T92 0Q76 0 69 34T66 89T75 114T85 121T94 128Q120 126 162 126T280 143T434 199T572 293T671 431T710 613Q710
749 618 838T394 927H377Q353 927 353 944L354 1046Q354 1063 382 1063H389Q491 1063 559 1143T628 1319T579 1471T443 1528Q393 1528 355 1489T317 1419T333 1365T349 1336T334 1313T312 1296T293 1304L244 1336Q175 1380 150 1405T125 1435T126 1441Q166 1533
253 1594T479 1656T719 1564T821 1325Z" />
<glyph unicode="4" glyph-name="four" horiz-adv-x="1043" d="M630 590Q630 590 126 590Q118 590 118 596Q118 596 118 701Q118 701 679 1625Q690 1637 693 1638H814Q824 1638 824 1625Q824 1625 824 725Q824 725 827 723Q889 750 918 801Q922 808 926 806L972
784Q974 782 950 722T880 582Q874 572 860 581T828 590Q824 590 824 579V175Q824 70 873 51Q902 40 902 28Q902 0 889 0H564Q551 0 551 18T559 41T580 51Q609 62 619 91T630 175V590ZM267 718H630V1330H626L267 729Q260 718 267 718Z" />
<glyph unicode="5" glyph-name="five" horiz-adv-x="1023" d="M107 0Q87 0 87 52T105 108Q452 188 630 364Q768 499 767 678T556 908Q377 950 118 849Q109 846 106 855T104 876L209 1619Q211 1638 225 1638Q262 1639 550 1636T879 1659Q883 1662 893 1673T930
1684T956 1668L955 1663Q955 1637 928 1597T872 1530Q806 1468 698 1468H324L264 1050Q270 1047 272 1048Q441 1103 562 1103Q720 1103 829 988T938 705Q938 580 882 471T740 285T541 148Q339 40 116 1Q113 0 107 0Z" />
<glyph unicode="6" glyph-name="six" horiz-adv-x="1032" d="M346 815L349 892Q349 901 359 908Q452 964 539 964T687 936Q796 883 857 755T919 503T893 293T820 136T698 24T525 -18T337 35T194 176Q82 357 82 585T189 1017T482 1381T910 1638Q917 1640 924 1637T932
1628V1582Q932 1573 920 1568T890 1553Q277 1198 277 573Q277 474 305 370T393 188T516 110Q635 110 680 204T725 400T712 576T670 715T593 817T496 856T405 830T354 804T346 815Z" />
<glyph unicode="7" glyph-name="seven" horiz-adv-x="967" d="M477 21Q477 0 462 0Q462 0 245 0Q180 0 180 21T199 159Q256 504 454 914L556 1118Q635 1269 683 1341L753 1448Q758 1455 757 1463T750 1472H234Q199 1472 161 1420Q146 1400 140 1396T120 1396Q78
1408 86 1426Q92 1435 112 1475L170 1584Q200 1638 212 1638Q302 1638 560 1642T909 1642Q933 1642 938 1622Q942 1581 942 1579T935 1534Q934 1531 921 1511Q744 1245 588 876T399 221Q388 116 421 78Q436 61 450 61Q477 61 477 36V21Z" />
<glyph unicode="8" glyph-name="eight" horiz-adv-x="1036" d="M391 728T336 638T281 423T353 204T527 109T702 198T775 407Q775 566 577 732L489 803Q391 728 336 638ZM544 1000Q641 1070 692 1140T744 1308T680 1467T521 1529T363 1469T298 1316Q298 1196 448
1074Q484 1044 544 1000ZM654 917Q862 756 913 598Q935 530 935 428T882 217T735 45T545 -19T371 16T234 111T138 256T102 430Q102 597 180 698T382 887Q262 985 197 1079T131 1294Q131 1452 247 1554T528 1657T801 1554T909 1279T733 974L654 917Z" />
<glyph unicode="9" glyph-name="nine" horiz-adv-x="1028" d="M672 853Q688 853 690 841Q694 818 691 805T686 772Q683 745 613 724T495 702Q375 702 285 768Q105 901 105 1184Q104 1351 196 1498Q296 1657 479 1657Q579 1657 669 1599T812 1440Q918 1241 918
964Q918 831 870 685T744 410Q577 138 361 0Q351 -6 334 -5T313 -3Q275 -3 275 20Q275 37 292 47T313 61Q509 229 616 464T724 988Q724 1177 666 1345Q638 1427 588 1478T481 1529Q374 1529 334 1426Q300 1339 300 1228T323 1026T404 872T538 810T656 842Q669 852
672 853Z" />
<glyph unicode=":" glyph-name="colon" horiz-adv-x="448" d="M235 591Q221 580 209 591L97 707Q86 722 97 738L209 859Q222 870 235 859L351 738Q362 722 351 707L235 591ZM235 6Q221 -4 209 6L97 122Q86 138 97 153L209 274Q222 285 235 274L351 153Q362 137
351 122L235 6Z" />
<glyph unicode=";" glyph-name="semicolon" horiz-adv-x="475" d="M150 91Q107 130 124 153L236 274Q249 285 262 274L378 153Q389 137 378 122Q378 122 312 51L130 -167Q109 -192 72 -153Q65 -146 109 -87T168 -8Q196 31 170 73Q168 74 150 91ZM262 591Q248 580
236 591L124 707Q113 722 124 738L236 859Q249 870 262 859L378 738Q389 722 378 707L262 591Z" />
<glyph unicode="&lt;" glyph-name="less" horiz-adv-x="1093" d="M1027 1242Q1035 1231 1021 1221L280 702L1021 182Q1035 172 1027 161L957 61Q948 49 935 59L73 663Q64 669 64 701T73 740L935 1344Q948 1354 957 1342L1027 1242Z" />
<glyph unicode="=" glyph-name="equal" horiz-adv-x="1136" d="M1061 517Q1061 503 1044 503H92Q75 503 75 517V639Q75 653 92 653H1044Q1061 653 1061 639V517ZM1061 817Q1061 803 1044 803H92Q75 803 75 817V939Q75 953 92 953H1044Q1061 953 1061 939V817Z" />
<glyph unicode="&gt;" glyph-name="greater" horiz-adv-x="1093" d="M67 161Q59 172 73 182L814 701L73 1221Q59 1231 67 1242L137 1342Q146 1354 159 1344L1021 740Q1030 734 1030 702T1021 663L159 59Q146 49 137 61L67 161Z" />
<glyph unicode="?" glyph-name="question" horiz-adv-x="788" d="M341 0Q330 -10 320 0L230 93Q221 105 230 117L320 214Q330 224 341 214L434 117Q444 104 434 93L341 0ZM254 192Q204 220 204 298Q204 454 291 604Q291 604 453 874Q540 1023 540 1184Q540 1262
495 1317T381 1373T271 1319Q204 1232 263 1173Q273 1163 265 1130T241 1098Q153 1152 106 1197Q80 1220 110 1298Q158 1424 276 1468Q322 1486 377 1485Q517 1485 607 1385T697 1141T610 870L434 621Q330 476 299 319Q297 299 297 295T298 272T301 248T302 241T305
237T303 233T285 206T254 192Z" />
<glyph unicode="@" glyph-name="at" horiz-adv-x="1892" d="M1050 564T1067 576T1100 597T1134 624Q1136 625 1134 653L1131 700Q1121 894 1066 1008Q1023 1098 950 1098Q748 1098 718 852Q710 783 710 707T763 578T892 525T1001 541T1042 561ZM1426 277Q1483
207 1476 198T1453 173T1382 117T1267 45T1114 -11T924 -37Q750 -37 593 32T324 217T146 494T80 826T148 1153T330 1422T600 1604T910 1672T1198 1632Q1461 1553 1636 1338T1812 831Q1812 730 1776 641T1680 490T1536 399T1374 382T1238 442T1169 542L1133 506Q1005
384 821 385Q714 385 632 467T550 645T565 820Q598 993 699 1113T968 1234Q1070 1234 1125 1182T1200 1064Q1247 914 1256 821T1270 696Q1279 611 1308 560T1404 504Q1521 497 1594 591T1668 803T1633 1022T1531 1214T1375 1376T1168 1488T924 1530Q720 1530 561
1443T313 1197T224 858T282 542T437 309T664 157T917 101T1130 122Q1257 152 1352 228L1404 270Q1420 284 1426 277Z" />
<glyph unicode="A" glyph-name="A" horiz-adv-x="1665" d="M115 153Q115 153 773 1626Q778 1638 822 1638T872 1626L1550 153Q1589 62 1627 44Q1640 38 1640 19T1627 0H1265Q1252 0 1252 17T1256 38T1269 45T1282 54Q1320 92 1320 124T1313 178L1168 521H447L305
178Q298 157 298 146V135Q298 134 298 133Q298 92 336 54Q340 50 353 44T366 19T353 0H38Q25 0 25 17T29 38T42 46Q75 60 115 153ZM518 680Q516 677 517 673T521 668H1092Q1095 668 1096 672T1095 680L806 1308H799L518 680Z" />
<glyph unicode="B" glyph-name="B" horiz-adv-x="1272" d="M706 163Q780 163 840 197T932 266Q1006 345 1006 456Q1006 630 892 721T585 813H451Q438 813 438 841V954Q438 982 451 982H585Q742 982 815 1065T888 1244Q888 1304 867 1349T798 1430T700 1473L678
1476H444Q421 1476 404 1462T387 1425V214Q387 192 404 178T444 163H706ZM669 0H128Q115 0 115 17T119 38T132 45T152 61T179 107T193 175V1463Q193 1536 145 1584Q141 1588 128 1594T115 1619T128 1638H664Q749 1638 827 1605T959 1518Q1078 1399 1078 1262Q1078
1158 1026 1085T855 923V902Q1204 759 1204 458Q1204 298 1061 154Q994 86 891 43T669 0Z" />
<glyph unicode="C" glyph-name="C" horiz-adv-x="1767" d="M923 114Q1149 114 1327 216T1621 490Q1634 511 1640 503T1657 481L1688 436Q1703 411 1699 405Q1639 283 1498 166Q1237 -52 923 -52Q741 -52 582 18T314 207T143 483T80 812T147 1137T328 1406T596
1588T909 1657Q1097 1657 1288 1584L1334 1567Q1344 1563 1362 1575T1400 1587T1431 1568Q1435 1565 1434 1547Q1432 1518 1458 1414L1483 1304Q1493 1261 1493 1249Q1493 1243 1468 1231T1438 1225Q1355 1370 1230 1425T917 1480T578 1395T345 1159T263 815Q263
689 321 561T470 335T683 176T923 114Z" />
<glyph unicode="D" glyph-name="D" horiz-adv-x="1482" d="M631 0H128Q115 0 115 17T119 38T132 45T152 61T179 107T193 175V1463Q193 1536 145 1584Q141 1588 128 1594T115 1619T128 1638H581Q825 1638 1048 1506Q1206 1412 1310 1241T1414 824Q1414 668 1356
520T1198 256T949 71T631 0ZM387 194Q387 157 448 157H560Q966 158 1124 434Q1216 595 1216 824Q1216 1103 1062 1285Q985 1376 857 1427T562 1479H408Q400 1479 394 1473T387 1458V194Z" />
<glyph unicode="E" glyph-name="E" horiz-adv-x="1344" d="M1008 980Q1081 980 1129 1028Q1133 1032 1139 1045T1164 1058T1183 1045V755Q1183 742 1166 742T1145 746T1138 759T1122 779T1076 805T1008 818H377V162H1041Q1154 162 1179 181T1215 216T1231 231T1251
226T1266 217T1252 178L1220 97Q1202 51 1196 28T1178 0H118Q105 0 105 17T109 38T122 45T142 61T169 107T183 175V1463Q183 1536 135 1584Q131 1588 118 1594T105 1619T118 1638H1178Q1188 1638 1195 1613T1220 1541L1252 1460Q1266 1425 1266 1421T1252 1412T1233
1407T1223 1412T1212 1427T1180 1456T1041 1476H377V980H1008Z" />
<glyph unicode="F" glyph-name="F" horiz-adv-x="1344" d="M128 0Q115 0 115 17T119 38T132 45T152 61T179 107T193 175V1463Q193 1536 145 1584Q141 1588 128 1594T115 1619T128 1638H1188Q1198 1638 1205 1613T1230 1541L1262 1460Q1276 1425 1276 1421T1262
1412T1242 1407Q1235 1407 1226 1421T1191 1456T1051 1476H387V980H1018Q1091 980 1139 1028Q1143 1032 1149 1045T1174 1058T1193 1045V755Q1193 742 1176 742T1155 746T1148 759T1132 779T1086 805T1018 818H387V175Q387 102 435 54Q439 50 452 44T465 19T452
0H128Z" />
<glyph unicode="G" glyph-name="G" horiz-adv-x="1711" d="M1525 181Q1525 171 1511 171T1491 169Q1385 84 1233 23T911 -39T582 31T314 220T143 496T80 825T147 1150T328 1419T596 1601T909 1670Q1097 1670 1288 1598L1334 1580Q1344 1576 1362 1588T1400 1600T1431
1581Q1435 1578 1434 1560Q1432 1532 1458 1426L1483 1318Q1493 1274 1493 1262Q1493 1256 1468 1244T1438 1238Q1355 1383 1230 1438T917 1493T578 1408T345 1172T263 828Q263 702 321 574T470 348T683 190T916 128T1163 184T1331 280V689Q1331 762 1283 810Q1279
814 1266 820T1253 845T1266 864H1590Q1603 864 1603 847T1599 826T1586 819T1566 803T1539 757T1525 689V181Z" />
<glyph unicode="H" glyph-name="H" horiz-adv-x="1928" d="M128 1638H452Q465 1638 465 1621T461 1600T448 1593T428 1577T401 1531T387 1463V1008H1521V1463Q1521 1536 1473 1584Q1469 1588 1456 1594T1443 1619T1456 1638H1780Q1793 1638 1793 1621T1789 1600T1776
1593T1756 1577T1729 1531T1715 1463V175Q1715 102 1763 54Q1767 50 1780 44T1793 19T1780 0H1456Q1443 0 1443 17T1447 38T1460 45T1480 61T1507 107T1521 175V842H387V175Q387 102 435 54Q439 50 452 44T465 19T452 0H128Q115 0 115 17T119 38T132 45T152 61T179
107T193 175V1463Q193 1536 145 1584Q141 1588 128 1594T115 1619T128 1638Z" />
<glyph unicode="I" glyph-name="I" horiz-adv-x="600" d="M128 1638H452Q465 1638 465 1621T461 1600T448 1593T428 1577T401 1531T387 1463V175Q387 102 435 54Q439 50 452 44T465 19T452 0H128Q115 0 115 17T119 38T132 45T152 61T179 107T193 175V1463Q193
1536 145 1584Q141 1588 128 1594T115 1619T128 1638Z" />
<glyph unicode="J" glyph-name="J" horiz-adv-x="522" d="M329 1463V9Q329 -7 241 -115T59 -321T-58 -418Q-59 -418 -60 -418Q-100 -406 -109 -385Q-111 -379 -88 -349Q126 -69 135 132V1463Q135 1536 87 1584Q83 1588 70 1594T57 1619T70 1638H394Q407 1638 407
1621T403 1600T390 1593T370 1577T343 1531T329 1463Z" />
<glyph unicode="K" glyph-name="K" horiz-adv-x="1322" d="M537 935L1169 153Q1197 115 1231 86T1268 53T1284 44T1297 19T1284 0H922Q909 0 909 17T913 38T926 46Q963 62 958 94T914 178L404 809H387V175Q387 102 435 54Q439 50 452 44T465 19T452 0H128Q115
0 115 17T119 38T132 45T152 61T179 107T193 175V1463Q193 1536 145 1584Q141 1588 128 1594T115 1619T128 1638H452Q465 1638 465 1621T461 1600T448 1593T428 1577T401 1531T387 1463V1045H404L857 1477Q921 1538 925 1543Q952 1575 909 1594Q896 1600 896 1619T909
1638H1224Q1237 1638 1237 1620T1235 1599T1209 1586T1135 1523L537 951V935Z" />
<glyph unicode="L" glyph-name="L" horiz-adv-x="1301" d="M193 175V1463Q193 1536 145 1584Q141 1588 128 1594T115 1619T128 1638H452Q465 1638 465 1621T461 1600T448 1593T428 1577T401 1531T387 1463V162H1051Q1164 162 1198 188Q1216 200 1226 215T1241
230T1261 226T1276 217T1262 178L1230 97Q1212 52 1206 29T1188 0H128Q115 0 115 17T119 38T132 45T152 61T179 107T193 175Z" />
<glyph unicode="M" glyph-name="M" horiz-adv-x="2194" d="M387 1544Q324 1565 288 1565Q234 1565 202 1560T167 1559T164 1574T171 1595T188 1608Q337 1642 596 1642L1098 822H1108L1588 1642Q1847 1642 1996 1608Q2020 1603 2020 1571Q2020 1553 1988 1558T1903
1564T1790 1541L1981 175Q1995 68 2046 44Q2059 38 2059 19T2046 0H1713Q1700 0 1700 17T1704 38T1717 46Q1743 57 1762 104T1782 169T1781 193L1620 1381H1615L1121 517Q1118 512 1085 513T1049 517L534 1381H525L378 193Q373 161 391 118T421 62T446 44T459 19T446
0H141Q128 0 128 17T132 38T145 46Q192 66 206 175L387 1544Z" />
<glyph unicode="N" glyph-name="N" horiz-adv-x="1921" d="M377 1638Q386 1638 394 1630L1512 444H1519V1463Q1519 1535 1470 1584Q1466 1588 1453 1594T1440 1619T1453 1638H1780Q1793 1638 1793 1621T1789 1600T1776 1593T1755 1576T1728 1530T1713 1463V53Q1713
16 1704 8T1673 0T1639 12L382 1346V175Q382 98 426 54Q430 50 443 44T456 19T443 0H121Q108 0 108 17T112 38T125 45T138 54Q188 104 188 175V1463Q188 1537 141 1584Q137 1588 124 1594T111 1619T124 1638H377Z" />
<glyph unicode="O" glyph-name="O" horiz-adv-x="1892" d="M743 170Q841 131 935 131Q1255 131 1444 318T1634 822Q1634 931 1579 1051T1430 1270T1203 1435T898 1500T577 1414T344 1176T262 824T408 434T743 170ZM212 334T146 494T80 826T149 1153T333 1422T603
1604T912 1672T1198 1632Q1461 1553 1636 1338T1812 831Q1812 660 1750 504T1577 228T1296 35T938 -37T593 32T324 217Z" />
<glyph unicode="P" glyph-name="P" horiz-adv-x="1256" d="M387 1424V175Q387 102 435 54Q439 50 452 44T465 19T452 0H128Q115 0 115 17T119 38T132 45T152 61T179 107T193 175V1463Q193 1536 145 1584Q141 1588 128 1594T115 1619T128 1638H674Q809 1638 925
1586T1115 1431T1188 1186T1122 948Q992 762 585 763H451Q438 763 438 791V875Q438 903 451 903H585Q998 903 998 1196Q998 1303 936 1363Q834 1462 678 1476H448Q426 1476 407 1459T387 1424Z" />
<glyph unicode="Q" glyph-name="Q" horiz-adv-x="1892" d="M212 334T146 494T80 826T149 1153T333 1422T603 1604T912 1672T1198 1632Q1461 1553 1636 1338T1812 831Q1812 630 1729 451T1492 151Q1552 67 1648 51Q1684 45 1723 64T1769 83T1790 71T1806 49T1764
-34Q1680 -166 1664 -171Q1657 -173 1598 -152T1459 -71T1337 53Q1149 -37 950 -37T593 32T324 217ZM743 170Q841 131 935 131Q1255 131 1444 318T1634 822Q1634 931 1579 1051T1430 1270T1203 1435T898 1500T577 1414T344 1176T262 824T408 434T743 170Z" />
<glyph unicode="R" glyph-name="R" horiz-adv-x="1428" d="M438 1474Q417 1474 402 1460T387 1424V175Q387 102 435 54Q439 50 452 44T465 19T452 0H128Q115 0 115 17T119 38T132 45T152 61T179 107T193 175V1463Q193 1536 145 1584Q141 1588 128 1594T115 1618T128
1636H641Q861 1634 1009 1542T1158 1241Q1158 996 902 882Q808 840 759 836T710 828L742 810Q762 798 824 749T947 639T1092 468T1216 290L1298 144Q1343 62 1373 54T1403 23T1390 0H1066Q1053 0 1053 17T1057 38T1070 45T1083 55T1089 78T1084 106Q1011 294 885
464Q651 780 482 804Q458 808 458 809Q456 827 456 858V919Q456 929 466 929Q712 929 850 1028Q956 1103 956 1230T854 1415T623 1474H438Z" />
<glyph unicode="S" glyph-name="S" horiz-adv-x="1033" d="M342 12Q312 19 276 30T230 42H218Q183 42 164 2Q163 0 162 0H133Q127 0 126 5L40 300Q35 321 70 321Q84 321 89 316T96 308T105 294Q237 131 492 131Q626 131 714 201T803 409Q803 501 774 546T725 615Q685
664 534 750T288 904Q48 1077 48 1260T162 1543T466 1643Q572 1643 690 1586Q746 1559 772 1550T808 1560T820 1580Q865 1585 865 1566L895 1245Q895 1236 849 1236Q842 1236 837 1254Q806 1356 692 1423T464 1491Q222 1491 222 1291Q222 1146 484 1002L674 900Q849
803 919 691T990 450V440Q965 268 930 206Q872 104 765 43T522 -19Q447 -16 399 -4L342 12Z" />
<glyph unicode="T" glyph-name="T" horiz-adv-x="1820" d="M1707 1638Q1717 1638 1724 1613T1749 1541Q1749 1541 1781 1460Q1795 1425 1795 1421T1781 1412T1762 1407Q1755 1407 1745 1421T1709 1456T1570 1476H1007V175Q1007 102 1055 54Q1059 50 1072 44T1085
19T1072 0H748Q735 0 735 17T739 38T752 45T772 61T799 107T813 175V1476H250Q109 1476 80 1428Q66 1408 60 1408T40 1412T25 1421T39 1460L71 1541Q89 1586 95 1609T113 1638H1707Z" />
<glyph unicode="U" glyph-name="U" horiz-adv-x="1737" d="M195 1463Q195 1534 145 1584Q141 1588 128 1594T115 1619T128 1638H464Q477 1638 477 1621T473 1600T460 1593T440 1577T413 1531T399 1463V634Q399 403 541 276T890 148Q1011 148 1117 209T1286 372T1349
588V1463Q1349 1536 1301 1584Q1297 1588 1284 1594T1271 1619T1284 1638H1596Q1609 1638 1609 1621T1605 1600T1592 1593T1572 1577T1545 1531T1531 1463V588Q1531 416 1443 272T1206 46T877 -36T540 48T289 286T195 634V1463Z" />
<glyph unicode="V" glyph-name="V" horiz-adv-x="1665" d="M866 330L1360 1460Q1384 1529 1329 1584Q1325 1588 1312 1594T1299 1619T1312 1638H1627Q1640 1638 1640 1621T1636 1600T1623 1592Q1590 1577 1550 1485L892 12Q887 0 843 0T793 12L642 322L380 888L115
1485Q76 1576 38 1594Q25 1600 25 1619T38 1638H400Q413 1638 413 1621T409 1600T396 1593T383 1584Q328 1529 352 1460L859 330H866Z" />
<glyph unicode="W" glyph-name="W" horiz-adv-x="2886" d="M1447 1365H1439Q1357 1172 1180 715T892 12Q887 0 843 0T793 12Q793 12 642 322L380 888Q380 888 115 1485Q76 1576 38 1594Q25 1600 25 1619T38 1638H400Q413 1638 413 1621T409 1600T396 1593T383
1584Q328 1529 352 1460L859 330H866L1301 1460Q1303 1467 1309 1483T1317 1505T1323 1524T1327 1542V1558Q1327 1581 1306 1590T1285 1610Q1285 1638 1298 1638H1629Q1642 1638 1642 1621T1638 1600T1625 1593T1611 1583T1602 1567T1602 1544Q1605 1524 1618 1492L1630
1460L2137 330H2144L2581 1460Q2605 1529 2550 1584Q2546 1588 2533 1594T2520 1619T2533 1638H2848Q2861 1638 2861 1621T2857 1600T2844 1592Q2811 1577 2771 1485Q2663 1242 2472 752T2170 12Q2165 0 2121 0T2071 12L1843 484L1447 1365Z" />
<glyph unicode="X" glyph-name="X" horiz-adv-x="1675" d="M945 829L1522 153Q1550 115 1584 86T1621 53T1637 44T1650 19T1637 0H1275Q1262 0 1262 17T1266 38T1279 46Q1316 62 1311 94T1267 178L844 675L401 178Q336 97 338 81T348 57T368 44T381 19T368 0H53Q40
0 40 17T44 38T57 45T68 52T104 80T177 153L737 800L153 1485Q125 1523 91 1552T54 1585T38 1594T25 1619T38 1638H400Q413 1638 413 1621T409 1600T396 1592Q359 1576 364 1544T408 1460L838 955L1274 1460Q1339 1541 1337 1557T1327 1581T1307 1594T1294 1619T1307
1638H1622Q1635 1638 1635 1621T1631 1600T1618 1593T1607 1586T1571 1558T1498 1485L945 829Z" />
<glyph unicode="Y" glyph-name="Y" horiz-adv-x="1696" d="M744 691L153 1485Q125 1523 91 1552T54 1585T38 1594T25 1619T38 1638H400Q413 1638 413 1621T409 1600T396 1592Q359 1576 364 1544T408 1460L849 870H857L1310 1460Q1375 1541 1373 1557T1363 1581T1343
1594T1330 1619T1343 1638H1658Q1671 1638 1671 1621T1667 1600T1654 1593T1643 1586T1627 1574L1600 1553Q1560 1521 1534 1485L950 727V175Q950 102 998 54Q1002 50 1015 44T1028 19T1015 0H678Q665 0 665 17T669 38T682 45T703 62T730 108T744 175V691Z" />
<glyph unicode="Z" glyph-name="Z" horiz-adv-x="1432" d="M1309 1638Q1364 1638 1364 1592Q1364 1572 1352 1555L398 202Q387 191 393 178T428 165H1126Q1239 165 1264 184T1300 219T1316 234T1336 229T1351 220T1337 180L1305 98Q1287 51 1281 27T1272 1T1263
0L112 3Q68 3 68 68Q68 82 89 111L1008 1413Q1050 1476 998 1476H369Q256 1476 222 1450Q204 1438 194 1423T179 1408T159 1412T144 1421T158 1460L190 1540Q208 1586 215 1610T232 1638H1309Z" />
<glyph unicode="[" glyph-name="bracketleft" horiz-adv-x="600" d="M530 1652Q530 1638 513 1638H250V-308H513Q530 -308 530 -322V-399Q530 -413 513 -413H114Q109 -413 105 -409T100 -399V1729Q100 1734 104 1738T114 1743H513Q530 1743 530 1729V1652Z" />
<glyph unicode="\" glyph-name="backslash" horiz-adv-x="1105" d="M89 1611L197 1666Q209 1672 217 1658L1033 56Q1041 41 1028 35L920 -20Q908 -26 900 -12L84 1590Q76 1605 89 1611Z" />
<glyph unicode="]" glyph-name="bracketright" horiz-adv-x="600" d="M70 -322Q70 -308 87 -308H350V1638H87Q70 1638 70 1652V1729Q70 1743 87 1743H486Q491 1743 495 1739T500 1729V-399Q500 -404 496 -408T486 -413H87Q70 -413 70 -399V-322Z" />
<glyph unicode="^" glyph-name="asciicircum" horiz-adv-x="708" d="M346 1389Q354 1394 363 1389L612 1081Q622 1072 618 1066Q594 1021 566 1038L355 1188L143 1038Q114 1020 91 1067Q88 1073 96 1081L346 1389Z" />
<glyph unicode="_" glyph-name="underscore" horiz-adv-x="1074" d="M1049 -136Q1049 -150 1032 -150H42Q25 -150 25 -136V-14Q25 0 42 0H1032Q1049 0 1049 -14V-136Z" />
<glyph unicode="`" glyph-name="grave" horiz-adv-x="614" d="M328 1435L489 1074Q496 1064 490 1058Q454 1019 434 1042Q244 1273 184 1333Q173 1348 184 1364L302 1435Q315 1446 328 1435Z" />
<glyph unicode="a" glyph-name="a" horiz-adv-x="1102" d="M212 253Q212 186 270 153T388 119T477 124T538 142Q596 166 641 192Q641 192 688 218L630 484Q594 470 541 453L445 423Q212 353 212 253ZM611 587Q581 861 452 861Q373 861 315 805T256 672L265 631Q265
623 246 606T219 595L103 744Q103 757 125 773T164 805L188 828Q240 880 261 894L310 926Q382 973 470 973Q599 973 666 903Q712 855 730 809T756 733Q773 671 784 589L795 512Q801 466 807 426T816 372T826 321T841 260Q862 189 890 154T952 118T1001 138Q1027
176 1039 176Q1045 176 1059 162T1073 141T1042 95T971 17T914 -21Q850 -21 793 29T722 136Q689 106 610 63Q454 -21 360 -21T202 6T95 89T52 206T69 308T113 378T180 433T261 476Q347 511 451 538T611 587Z" />
<glyph unicode="b" glyph-name="b" horiz-adv-x="1148" d="M55 1471L56 1489Q56 1494 61 1497T68 1502L248 1635Q252 1638 269 1638T295 1634T303 1607V878Q461 974 576 974Q796 974 933 829T1070 476T926 125T559 -18Q386 -18 249 98L125 172Q112 180 112 191T125
223T138 254V1389Q138 1421 122 1435T87 1450T64 1456Q55 1462 55 1471ZM303 743V275Q364 189 431 149T588 108T747 157T856 280T896 430Q896 588 798 708T512 829Q452 829 396 805T303 743Z" />
<glyph unicode="c" glyph-name="c" horiz-adv-x="1028" d="M903 259Q919 275 961 233Q964 230 960 224Q785 -18 540 -18Q445 -18 356 20Q173 100 95 276Q55 366 55 489T117 727T298 908T581 974T862 857Q863 856 881 844Q883 842 881 833L827 665Q822 650 815
649T790 653T770 663T763 711T725 786Q643 864 515 864Q426 864 352 817T239 696T199 521T253 327T398 185T591 135T765 165T903 259Z" />
<glyph unicode="d" glyph-name="d" horiz-adv-x="1093" d="M726 1471L727 1489Q727 1494 732 1497T739 1502L919 1635Q923 1638 940 1638T966 1634T974 1607Q974 706 977 213Q980 197 974 198Q973 198 979 193T1004 186T1028 181T1034 158T1029 136L863 0Q859
-3 838 -3T812 1T807 14T808 31T807 53T800 67T783 61L756 44Q654 -18 550 -18T358 20T203 122T96 276T55 489T118 728T299 909T571 974Q632 974 699 945T802 880H813Q813 1206 809 1389Q809 1421 793 1435T759 1450T735 1456Q726 1462 726 1471ZM808 227L811 663Q764
745 676 792T478 839Q333 839 245 691Q199 612 199 541Q199 356 314 240T610 123Q661 123 715 154T808 227Z" />
<glyph unicode="e" glyph-name="e" horiz-adv-x="1045" d="M770 695Q711 864 515 864Q426 864 352 817T239 696T199 557T203 493L768 690V696L770 695ZM225 387Q268 269 370 202T602 135Q767 135 903 290Q924 310 965 269Q968 266 964 260Q850 102 787 58Q680
-18 540 -18Q445 -18 356 20Q173 100 95 276Q55 366 55 489T117 727T298 908T571 974Q759 974 905 800Q979 712 979 660L225 387Z" />
<glyph unicode="f" glyph-name="f" horiz-adv-x="884" d="M692 1370L700 1428Q700 1448 669 1479T589 1511T484 1479T386 1395T314 1273T286 1131V953H673Q714 953 724 940V852Q713 839 673 839H286V132Q286 112 298 87T337 50T364 28Q364 0 351 0H56Q43 0 43
18T51 41T72 51T92 63T106 80T115 96T119 115T121 132T122 153T121 175V839H60Q20 839 9 852V940Q19 953 60 953H121V1180Q121 1302 214 1429Q308 1556 444 1608Q519 1637 597 1637Q755 1637 865 1527Q891 1499 867 1476L733 1352Q726 1346 709 1352T692 1370Z"
/>
<glyph unicode="g" glyph-name="g" horiz-adv-x="1009" d="M290 265Q261 255 304 225T442 174T602 143T741 111T866 63T953 -12T987 -124T958 -240Q862 -414 495 -414Q327 -414 194 -334T32 -106V-94Q32 -86 31 -82L204 66Q212 66 225 53T238 32T222 8T206 -80T266
-210T409 -291Q588 -321 714 -272Q758 -255 786 -221T814 -147T774 -82Q719 -48 499 3T169 99Q146 109 146 114T176 178T245 293Q176 343 135 419T93 581Q93 749 198 855T461 961T721 862L725 863Q763 944 765 948T772 953H939Q946 953 953 939T956 921Q933 910
900 896Q832 867 786 776Q832 690 832 594Q832 436 725 330T453 224Q369 224 290 265ZM407 839Q215 839 215 630Q215 508 306 426T506 343T660 391T705 552T620 752T407 839Z" />
<glyph unicode="h" glyph-name="h" horiz-adv-x="1198" d="M94 1471L95 1489Q95 1492 107 1502L287 1635Q291 1638 309 1638T334 1634T341 1607V848Q375 868 392 877L423 893Q564 963 684 963T922 877Q975 838 1008 783T1042 667V175Q1042 170 1042 154T1042 132Q1049
68 1084 54T1120 28Q1120 0 1107 0H812Q799 0 799 18T807 41T828 51T849 64T863 82T872 105T875 124T876 150T875 175V642Q875 703 834 748Q758 831 620 831T341 761V175Q341 170 341 154T340 132Q348 68 383 54T419 28Q419 0 406 0H111Q98 0 98 18T106 41T127
51T147 63Q178 94 178 132T177 175V1389Q177 1421 161 1435T127 1450T103 1456Q94 1462 94 1471Z" />
<glyph unicode="i" glyph-name="i" horiz-adv-x="507" d="M334 1451V1370Q334 1360 329 1356T287 1338T231 1315T201 1302T185 1301T182 1340V1435Q182 1438 182 1444T181 1452T182 1458T187 1466T228 1484T284 1507Q325 1526 329 1522T334 1451ZM106 0Q93 0 93
18T101 41T122 51Q171 71 172 147V704Q172 736 156 750T122 765T97 771T90 791T91 809T97 813T102 817L282 950Q289 955 293 953T317 944T337 922V143Q337 70 386 51Q415 39 415 28Q415 0 402 0H106Z" />
<glyph unicode="j" glyph-name="j" horiz-adv-x="429" d="M354 175L357 0Q357 -29 349 -47T316 -94T237 -204T164 -305T121 -345T75 -367T46 -364T37 -354T36 -341Q37 -335 51 -307Q157 -136 180 -16Q189 33 189 86V704Q189 736 173 750T139 765T114 771T107 791T108
809T114 813T119 817L299 950Q306 955 310 953T334 944T354 922V175ZM351 1451V1370Q351 1361 347 1357T305 1338T248 1315Q208 1295 204 1300T199 1340V1452Q199 1461 203 1465T245 1484T302 1507Q342 1527 346 1522T351 1451Z" />
<glyph unicode="k" glyph-name="k" horiz-adv-x="955" d="M342 175L341 132Q341 110 351 86T390 50T419 28Q419 0 406 0H112Q99 0 99 18T107 41T127 51T147 63T161 80T170 96T175 115T177 132V1389Q177 1422 162 1435T128 1450T104 1456Q95 1462 95 1471L96 1489Q96
1494 101 1497T108 1502L288 1635Q292 1638 309 1638T334 1634T342 1607V533H344L670 844Q687 861 687 877Q687 902 663 908T640 925Q640 953 653 953H883Q896 953 896 935T890 910T872 892T855 877L555 591V588L853 160Q939 55 939 28T926 0H675Q662 0 662 17T675
43Q715 66 715 78Q715 98 709 104L443 484H439L342 390V175Z" />
<glyph unicode="l" glyph-name="l" horiz-adv-x="530" d="M94 1471L95 1489Q95 1494 100 1497T107 1502L287 1635Q291 1638 297 1638Q341 1638 341 1607V175Q341 168 341 153T340 132Q346 66 382 54Q418 39 418 28Q418 0 405 0H111Q98 0 98 18T106 41T127 51T147
63T161 80T170 96T174 115T176 132V1389Q176 1422 161 1435T127 1450T103 1456Q94 1462 94 1471Z" />
<glyph unicode="m" glyph-name="m" horiz-adv-x="1657" d="M85 786L86 804Q86 809 91 812T98 817L278 950Q282 953 300 953T325 949T332 922V848Q514 963 664 963Q733 963 792 928T887 832Q1258 1070 1435 876Q1514 790 1514 667V132Q1514 110 1526 86T1565 50T1592
28Q1592 0 1579 0H1286Q1273 0 1273 18T1281 41T1302 51T1323 64T1338 82T1346 105T1349 124T1350 150T1349 175V642Q1348 740 1310 785T1188 831Q1054 831 918 763Q932 716 932 667V132Q932 110 944 86T983 50T1010 28Q1010 0 997 0H703Q690 0 690 18T698 41T719
51T740 64T755 81T764 105T767 124T768 150T767 175V642Q766 741 729 786T582 831T332 761V132Q332 110 342 86T381 50T409 28Q409 0 396 0H102Q89 0 89 18T97 41T118 51T138 63T152 80T161 96T165 115T167 132T168 153T167 175V704Q164 763 118 765Q86 766 85
786Z" />
<glyph unicode="n" glyph-name="n" horiz-adv-x="1175" d="M102 0Q89 0 89 18T97 41T118 51T138 63Q169 94 169 132T168 175V704Q168 736 152 750T118 765T95 770T88 779T86 786T85 795T86 804T87 809T93 813T98 817L278 950Q282 953 300 953T326 949T334 922V848L385
878L415 893Q554 963 675 963T913 877Q966 838 999 783T1033 667V132Q1033 110 1045 86T1084 50T1111 28Q1111 0 1098 0H805Q792 0 792 18T800 41T821 51T842 64T857 82T865 105T868 125T869 150T868 175V642Q868 702 828 747Q751 831 612 831T333 761V132Q333
110 345 86T384 50T411 28Q411 0 398 0H102Z" />
<glyph unicode="o" glyph-name="o" horiz-adv-x="1104" d="M261 756T230 690T199 521T255 317T410 156T606 96T765 140T859 254T892 408Q892 585 780 712T478 839Q391 839 326 798ZM136 186T96 276T55 489T118 728T299 909T544 974Q776 974 913 829T1050 475T906
125T540 -18Q446 -18 358 20T203 122Z" />
<glyph unicode="p" glyph-name="p" horiz-adv-x="1137" d="M94 786L95 804Q95 809 100 812T107 817L287 950Q291 953 309 953T334 949T342 922V840Q363 867 425 903Q545 974 648 974Q857 974 994 829T1131 476T987 125T620 -18Q470 -18 342 74V-238Q342 -243 342
-259T342 -280Q349 -345 384 -359T420 -385Q420 -413 407 -413H111Q98 -413 98 -395T106 -372T127 -362T147 -350Q178 -319 178 -281T177 -238V704Q176 737 161 750T127 765T103 770Q94 777 94 786ZM825 759T750 791T570 824T342 704V309Q399 211 495 154T688 96T845
140T939 254T972 408T947 568T873 701Z" />
<glyph unicode="q" glyph-name="q" horiz-adv-x="1153" d="M768 -413Q755 -413 755 -395T763 -372T783 -362T803 -350T817 -333T826 -317T831 -298T833 -280V65Q706 -18 540 -18Q446 -18 358 20T203 122T96 276T55 489T118 728T299 909T580 974T876 863Q893 865
917 899Q963 962 1012 962T1062 930Q1062 924 1049 912T1017 856T998 750V-238Q998 -244 998 -263Q997 -288 1002 -317T1040 -360T1074 -385Q1074 -413 1061 -413H768ZM312 237T410 183T625 128T833 226V672Q783 739 687 789T499 839T340 792T237 676T199 517T255
332Z" />
<glyph unicode="r" glyph-name="r" horiz-adv-x="790" d="M87 786L88 804Q88 809 93 812T100 817L280 950Q284 953 302 953T328 949T335 922V750Q341 760 351 772Q423 862 501 911T679 960Q711 960 714 952Q731 906 742 865L773 747Q776 736 758 726T729 716T708
735L697 753Q643 803 572 793T437 740T343 649Q342 647 339 642T335 634V175Q335 170 335 154T334 132Q342 69 377 54T413 28Q413 0 400 0H104Q91 0 91 18T99 41T119 51T139 63Q154 78 162 97T171 144T170 175V704Q169 737 154 750T120 765T96 770Q87 777 87 786Z"
/>
<glyph unicode="s" glyph-name="s" horiz-adv-x="768" d="M678 749Q678 738 658 738T634 739Q622 739 616 756Q594 808 524 841T387 875T271 842T222 759T267 674T358 616T420 582L515 528Q643 458 685 380Q714 326 714 248T669 104Q582 -21 378 -21Q274 -21 128
15Q124 17 114 19T96 25T86 46T73 116T61 185T63 203T69 209T78 214T87 218T96 221Q119 228 138 199T251 133T413 96T523 130T566 223Q566 304 469 355L289 451Q216 492 190 514Q128 568 103 617T78 728Q78 850 168 911T417 972Q487 972 571 962T676 931Q679 928
679 855T678 749Z" />
<glyph unicode="t" glyph-name="t" horiz-adv-x="532" d="M218 1131Q221 1151 254 1151T288 1131V953H465Q516 953 516 940V852Q516 839 465 839H288V218Q288 99 358 85Q411 74 468 125Q491 146 500 135T514 118T518 107T518 98Q519 93 507 81L486 63Q382 -27
284 -19T145 96Q123 154 123 237V839H77Q26 839 26 852V940Q26 953 68 953Q142 953 174 1005T218 1131Z" />
<glyph unicode="u" glyph-name="u" horiz-adv-x="1199" d="M94 786L95 804Q95 807 165 863T287 953H336Q342 947 342 922V311Q342 248 382 199Q462 103 608 103Q708 103 833 169L877 192V810Q877 883 828 902Q815 907 807 912T799 935T812 953H1037Q1043 953 1043
628L1042 236Q1042 180 1076 150Q1084 143 1102 142T1125 137T1131 114T1127 92L932 -10Q928 -13 906 -13T880 -9T876 18V105Q875 105 860 94Q673 -29 546 -29Q461 -29 375 14T233 132T177 286V687Q177 729 161 747T126 766T102 771Q94 777 94 786Z" />
<glyph unicode="v" glyph-name="v" horiz-adv-x="1037" d="M1006 953Q1019 953 1019 936Q1019 912 1011 896L609 90Q577 26 560 13T530 0T508 5T488 22T473 43T458 70T444 96L35 879Q18 911 18 932T31 953H291Q304 953 304 936T291 911Q251 891 250 879Q250 851
254 847L538 299H567L840 847Q844 851 844 869Q844 893 817 903T790 925Q790 953 803 953H1006Z" />
<glyph unicode="w" glyph-name="w" horiz-adv-x="1780" d="M1749 953Q1762 953 1762 936Q1762 912 1754 896L1352 90Q1320 26 1303 13T1273 0T1251 5T1231 22T1216 43T1201 70T1187 96L893 660L609 90Q577 26 560 13T530 0T508 5T488 22T473 43T458 70T444 96L35
879Q18 911 18 932T31 953H291Q304 953 304 936T291 911Q251 891 250 879Q250 851 254 847L538 299H567L818 803Q821 809 821 827T799 882T777 936T790 953H1019Q1032 953 1032 925Q1032 918 1013 898T993 867T997 847L1281 299H1310L1583 847Q1587 851 1587 869Q1587
893 1560 903T1533 925Q1533 953 1546 953H1749Z" />
<glyph unicode="x" glyph-name="x" horiz-adv-x="975" d="M926 953Q939 953 939 936Q939 914 930 896L914 864L586 485L926 87L942 56Q951 40 951 20T938 0H678Q665 0 665 17T673 39T692 48Q719 57 719 78T715 104L468 393L205 106Q201 102 201 84Q201 59 228
49T255 28Q255 0 242 0H39Q26 0 26 17Q26 41 34 57L51 89L394 480L64 866L47 897Q38 913 38 933T52 953H312Q325 953 325 936T317 914T298 905Q271 896 271 875T275 849L514 570L760 847Q764 851 764 869Q764 893 737 903T710 925Q710 953 723 953H926Z" />
<glyph unicode="y" glyph-name="y" horiz-adv-x="1041" d="M19 -413Q6 -413 6 -391T10 -362T30 -351Q247 -272 453 85V92L40 879Q23 911 23 932T36 953H296Q309 953 309 936T301 914T282 905Q255 896 255 874T259 847L543 299H572L845 847Q849 851 849 869Q849
893 822 903T795 925Q795 953 808 953H1011Q1024 953 1024 936Q1024 914 1015 896L780 423Q722 308 686 243L594 84Q539 -10 492 -79L384 -229Q324 -310 260 -387Q237 -414 221 -414L19 -413Z" />
<glyph unicode="z" glyph-name="z" horiz-adv-x="963" d="M50 0Q26 0 26 27T42 87L664 817Q672 825 668 833T652 841L266 842Q227 842 194 812Q132 754 103 749Q98 748 90 758T81 778V785L146 941Q152 953 187 953H896Q920 953 920 926T904 866L282 136Q274 128
278 120T294 112L754 111Q793 111 840 155T917 204Q922 205 929 195T939 175V168L874 12Q868 0 833 0H50Z" />
<glyph unicode="{" glyph-name="braceleft" horiz-adv-x="709" d="M101 657Q101 671 120 671H251Q280 736 271 842T239 1018T198 1168T177 1310T208 1446Q269 1566 390 1614T640 1616L597 1530Q532 1553 468 1525T370 1429Q305 1300 340 1114Q356 1037 370 960Q405
774 334 636Q327 623 318 612Q328 600 334 589Q406 451 370 265Q356 188 340 111Q305 -75 374 -212Q404 -272 468 -300T597 -305L640 -391Q511 -437 390 -389T214 -231T188 8L252 258Q289 400 258 536Q255 548 250 557H146Q102 557 102 571Q100 611 101 657Z" />
<glyph unicode="|" glyph-name="bar" horiz-adv-x="350" d="M236 1744Q250 1744 250 1727V-87Q250 -104 236 -104H114Q100 -104 100 -87V1727Q100 1744 114 1744H236Z" />
<glyph unicode="}" glyph-name="braceright" horiz-adv-x="709" d="M608 571Q608 557 592 557H460Q455 548 444 502T441 366T471 207T512 57T533 -85T502 -221Q441 -341 320 -389T70 -391L113 -305Q178 -328 242 -300T340 -204Q405 -75 370 111Q354 188 340 265Q305
451 376 589Q382 600 392 612Q383 623 376 636Q304 774 340 960Q354 1037 370 1114Q405 1300 336 1437Q306 1497 242 1525T113 1530L70 1616Q199 1662 320 1614T496 1455T522 1216L458 966Q421 824 452 689Q455 680 459 671H566Q609 671 609 657Q610 611 608 571Z"
/>
<glyph unicode="~" glyph-name="asciitilde" horiz-adv-x="785" d="M384 1104L312 1164Q262 1206 249 1208T226 1214T205 1213T184 1198T165 1168T155 1136T149 1100T141 1070T114 1072T90 1087Q91 1094 93 1127T99 1182T111 1232T137 1281T179 1310T227 1321T276
1315Q330 1298 359 1276L474 1186Q524 1144 536 1142T559 1136T580 1137T601 1152T620 1182T630 1214T636 1250T644 1281T671 1279T695 1263Q694 1256 692 1223T686 1168T674 1118T648 1069T606 1040Q553 1021 518 1032L467 1050Q441 1060 384 1104Z" />
<glyph unicode="&#xa1;" glyph-name="exclamdown" horiz-adv-x="410" d="M176 1488Q187 1498 197 1488L287 1395Q296 1383 287 1371L197 1274Q186 1264 176 1274L83 1371Q73 1384 83 1395L176 1488ZM301 42T285 28T228 5T147 5T90 28T74 51Q104 361 114 596T125
1167Q125 1208 187 1208T249 1167Q249 822 259 589T300 51Q301 42 285 28Z" />
<glyph unicode="&#xa2;" glyph-name="cent" horiz-adv-x="1107" d="M496 165L554 864Q428 857 341 760T254 535T320 308T496 165ZM958 259Q974 275 1016 233Q1019 230 1015 224Q878 -18 595 -18H583L561 -258Q558 -286 535 -295T476 -292Q462 -286 464 -267L483
-4Q325 36 218 166T110 463Q110 673 233 812T563 971L585 1249Q592 1252 610 1264T643 1268T667 1253T684 1242L662 972Q801 960 917 857Q920 854 926 850T935 844T936 833L882 665Q877 650 870 649T846 652T825 662T818 710T780 786Q722 838 653 855Q615 347 597
139Q622 135 686 135Q828 135 958 259Z" />
<glyph unicode="&#xa3;" glyph-name="sterling" horiz-adv-x="1256" d="M877 1370L885 1428Q885 1448 854 1479T765 1511T635 1458T518 1315T471 1131V822H1050V672H471V368Q471 325 456 246T423 148H1006Q1147 148 1176 196Q1190 216 1196 216T1216 212T1231
204T1217 168L1186 94Q1167 48 1160 28Q1153 5 1143 0H38Q25 0 25 17T29 38T42 46T68 68T94 118T104 151T116 152H229Q244 152 260 239T277 372V672H64V822H277V1180Q277 1252 314 1332T413 1480T565 1592T734 1637Q872 1637 948 1595T1050 1526T1052 1476L918
1352Q911 1346 894 1352T877 1370Z" />
<glyph unicode="&#xa4;" glyph-name="currency" horiz-adv-x="1174" d="M978 1306Q993 1312 1004 1298L1098 1200Q1105 1180 1088 1168Q993 1115 845 1010Q899 931 899 834T845 658Q993 553 1088 500Q1105 488 1098 468L1004 370Q993 356 978 362L784 592Q698
522 587 522T390 592L196 362Q181 356 170 370L76 468Q69 488 86 500Q181 553 329 658Q275 737 275 834T329 1010Q181 1115 86 1168Q69 1180 76 1200L170 1298Q181 1312 196 1306L390 1076Q476 1146 587 1146T784 1076L978 1306ZM396 913T396 834T452 699T587 643T722
699T778 834T722 969T587 1025T452 969Z" />
<glyph unicode="&#xa5;" glyph-name="yen" horiz-adv-x="1696" d="M1009 803L950 727V653H1349V503H950V175Q950 102 998 54Q1002 50 1015 44T1028 19T1015 0H678Q665 0 665 17T669 38T682 46T703 62T730 108T744 175V503H363V653H744V691L661 803H363V953H549L153
1485Q124 1524 91 1552Q57 1582 54 1585T38 1594T25 1619T38 1638H400Q413 1638 413 1621T409 1600T396 1592Q359 1576 364 1544T408 1460L787 953H921L1310 1460Q1375 1541 1373 1557T1363 1581T1343 1594T1330 1619T1343 1638H1658Q1671 1638 1671 1621T1667
1600T1654 1593T1643 1586T1607 1558T1534 1485L1124 953H1349V803H1009Z" />
<glyph unicode="&#xa6;" glyph-name="brokenbar" horiz-adv-x="350" d="M236 745Q250 745 250 728V-87Q250 -104 236 -104H114Q100 -104 100 -87V728Q100 745 114 745H236ZM236 1744Q250 1744 250 1727V912Q250 895 236 895H114Q100 895 100 912V1727Q100 1744
114 1744H236Z" />
<glyph unicode="&#xa7;" glyph-name="section" horiz-adv-x="768" d="M704 843Q704 655 559 568Q630 515 670 451T710 286T666 111Q580 -33 375 -33Q279 -33 118 10Q106 13 95 18T83 42T70 124T58 217Q58 235 101 248Q115 253 125 235T139 214Q178 174 260 138T410
101T520 141T563 248Q563 342 465 401L423 426Q396 441 317 491T216 560L174 598Q151 619 140 635L114 675Q75 737 75 831Q75 1022 243 1086Q112 1179 81 1285Q68 1330 68 1382Q68 1522 158 1592T407 1663Q479 1663 562 1652T666 1616Q672 1610 668 1406Q668 1385
627 1395Q619 1398 611 1411T600 1427Q490 1551 369 1551Q309 1551 261 1514T212 1419Q212 1335 320 1266Q334 1257 366 1239L497 1161Q658 1063 687 961Q704 900 704 843ZM430 653Q484 661 520 700T556 782T548 850T528 892Q506 922 458 952L375 1001Q315 1001
267 964T219 868T264 769T357 700T430 653Z" />
<glyph unicode="&#xa8;" glyph-name="dieresis" horiz-adv-x="737" d="M548 1036Q536 1026 526 1036L436 1129Q427 1141 436 1153L526 1250Q537 1261 548 1250L640 1153Q650 1140 640 1129L548 1036ZM208 1036Q196 1026 186 1036L96 1129Q87 1141 96 1153L186
1250Q197 1261 208 1250L300 1153Q310 1140 300 1129L208 1036Z" />
<glyph unicode="&#xa9;" glyph-name="copyright" horiz-adv-x="1672" d="M551 628T648 530T840 431T1024 476T1155 586Q1157 590 1164 592T1174 592Q1203 550 1201 547Q1163 471 1063 403T839 334Q669 334 559 452T448 734T564 1014T838 1131Q916 1131 1029 1090Q1036
1087 1044 1092T1062 1098T1075 1093T1078 1079Q1076 1070 1088 1017L1100 966Q1105 946 1105 942T1089 931T1071 926Q1012 1029 839 1029Q720 1029 636 943T551 742ZM100 594T100 744T158 1030T315 1264T550 1421T836 1480T1122 1422T1356 1265T1513 1030T1572
744T1514 458T1357 224T1122 67T836 8T550 66T316 223T159 458ZM202 916T202 744T287 427T518 196T836 111T1153 196T1384 426T1469 744T1384 1061T1154 1292T836 1377T518 1292T287 1062Z" />
<glyph unicode="&#xaa;" glyph-name="ordfeminine" horiz-adv-x="701" d="M239 1214T215 1195T190 1153T215 1114T286 1098T406 1144L379 1262Q370 1258 332 1246T267 1224ZM212 1366L217 1346Q217 1342 203 1332T186 1324L126 1402Q126 1409 137 1417T163 1439Q240
1516 286 1516T353 1512T388 1497T414 1476T433 1446T448 1413Q458 1386 465 1334L477 1249Q491 1158 505 1128T540 1098T572 1112T588 1127T601 1116T611 1099T577 1057T531 1020Q499 1020 470 1045T435 1098Q412 1078 354 1049T242 1020T144 1053T100 1148T153
1247T249 1296L324 1318Q358 1328 368 1330Q353 1421 336 1436T288 1452T236 1423T212 1366Z" />
<glyph unicode="&#xab;" glyph-name="guillemotleft" horiz-adv-x="927" d="M103 1205H102Q97 1214 102 1222H103L410 1471Q420 1486 441 1468T460 1443L454 1425L304 1213L454 1002L460 984Q465 970 424 950Q417 946 410 955L103 1205ZM471 1205H470Q465 1214
470 1222H471L778 1471Q788 1486 809 1468T828 1443L822 1425L672 1213L822 1002L828 984Q833 970 792 950Q785 946 778 955L471 1205Z" />
<glyph unicode="&#xac;" glyph-name="logicalnot" horiz-adv-x="1224" d="M1110 953Q1115 953 1119 949T1124 939V402Q1124 385 1110 385H988Q974 385 974 402V803H117Q100 803 100 817V939Q100 953 117 953H1110Z" />
<glyph unicode="&#xad;" glyph-name="uni00AD" horiz-adv-x="1024" d="M1024 817Q1024 803 1007 803H17Q0 803 0 817V939Q0 953 17 953H1007Q1024 953 1024 939V817Z" />
<glyph unicode="&#xae;" glyph-name="registered" horiz-adv-x="1672" d="M734 1046Q709 1041 709 1021V440Q709 407 734 382Q735 381 741 378T747 366T740 356H571Q565 356 565 365T567 375T572 378T578 382Q603 407 603 440V1051Q603 1084 578 1109Q577 1110
571 1113T565 1125T571 1134H814Q921 1132 991 1083T1062 947T1009 815T875 753Q873 752 865 752T856 750Q998 664 1122 435Q1149 385 1162 382T1176 367T1170 356H1004Q997 356 997 365Q997 374 1004 378Q1021 385 1010 407Q928 609 811 705Q777 733 761 736T744
741Q742 754 742 775T748 797Q950 797 950 933Q950 1046 806 1046H734ZM100 594T100 744T158 1030T315 1264T550 1421T836 1480T1122 1422T1356 1265T1513 1030T1572 744T1514 458T1357 224T1122 67T836 8T550 66T316 223T159 458ZM202 916T202 744T287 427T518
196T836 111T1153 196T1384 426T1469 744T1384 1061T1154 1292T836 1377T518 1292T287 1062Z" />
<glyph unicode="&#xaf;" glyph-name="overscore" horiz-adv-x="852" d="M762 1046Q762 1032 745 1032H107Q90 1032 90 1046V1168Q90 1182 107 1182H745Q762 1182 762 1168V1046Z" />
<glyph unicode="&#xb0;" glyph-name="degree" horiz-adv-x="548" d="M310 1107Q398 1107 398 1210Q398 1258 363 1301T279 1344T205 1316T180 1242T222 1152T310 1107ZM210 1031T152 1088T93 1230T149 1371T293 1428T435 1370T491 1229T434 1088T293 1031Z" />
<glyph unicode="&#xb1;" glyph-name="plusminus" horiz-adv-x="1136" d="M1061 1121Q1061 1107 1044 1107H643V706Q643 689 629 689H507Q493 689 493 706V1107H92Q75 1107 75 1121V1243Q75 1257 92 1257H493V1658Q493 1675 507 1675H629Q643 1675 643 1658V1257H1044Q1061
1257 1061 1243V1121ZM1061 395Q1061 381 1044 381H92Q75 381 75 395V517Q75 531 92 531H1044Q1061 531 1061 517V395Z" />
<glyph unicode="&#xb2;" glyph-name="uni00B2" horiz-adv-x="636" d="M100 1032V1094Q100 1094 252 1274Q418 1479 418 1608Q418 1702 391 1744T333 1787Q278 1787 242 1680Q228 1664 249 1638T272 1609T270 1595Q261 1573 154 1634L134 1646Q134 1722 195 1791T338
1861T473 1798T525 1656Q525 1513 428 1367T263 1147L233 1115Q295 1115 341 1124T398 1136T446 1146T490 1156T501 1161T508 1170T515 1178Q520 1176 524 1175T532 1173T536 1164T514 1094T484 1032H100Z" />
<glyph unicode="&#xb3;" glyph-name="uni00B3" horiz-adv-x="608" d="M254 1488H242Q232 1488 233 1496Q233 1535 234 1555Q234 1564 251 1564Q320 1585 345 1617T371 1692T352 1767T299 1798T248 1776T230 1738T238 1710T246 1695T239 1684T224 1675T133 1743Q127
1749 130 1753Q165 1807 202 1833T308 1860T422 1812T467 1672T348 1537V1534Q509 1501 509 1336Q509 1196 401 1114T113 1032Q106 1032 101 1053T114 1089Q170 1083 239 1114T360 1207T412 1335T368 1441T254 1488Z" />
<glyph unicode="&#xb4;" glyph-name="acute" horiz-adv-x="614" d="M286 1435Q299 1446 312 1435L430 1364Q441 1348 430 1333Q430 1333 364 1262L182 1044Q160 1019 124 1058Q118 1064 125 1074L286 1435Z" />
<glyph unicode="&#xb5;" glyph-name="uni00B5" horiz-adv-x="1203" d="M94 786L95 804Q95 807 151 851T234 914L287 950Q298 958 321 949T344 922V311Q344 249 384 201Q463 103 608 103Q677 103 722 120Q788 145 834 169L878 192V820Q878 843 866 867T835 899T808
912T800 935T813 953H1031Q1042 953 1042 926V236Q1042 180 1076 150Q1084 143 1102 142T1125 137T1131 114T1127 92L932 -10Q928 -13 907 -13T881 -9T877 18V105Q682 -29 562 -29T341 35V-238Q341 -243 341 -259T340 -280Q348 -345 383 -359T419 -385Q419 -413
406 -413H111Q98 -413 98 -395T106 -372T127 -362T147 -350T161 -333T170 -317T174 -298T176 -280V687Q176 730 161 748T126 766T102 771Q94 777 94 786Z" />
<glyph unicode="&#xb6;" glyph-name="paragraph" horiz-adv-x="1445" d="M884 162Q884 162 884 1464Q884 1509 872 1518T838 1528Q584 1528 427 1352T269 882Q269 702 351 520T559 222T809 106Q872 106 880 128Q884 140 884 162ZM1040 1464L1042 162Q1042 112
1059 108Q1065 106 1082 106T1106 108Q1124 113 1123 162V1464Q1123 1528 1082 1528Q1055 1528 1048 1511T1040 1464ZM1271 1464L1268 23Q1268 -164 1398 -294Q1420 -316 1420 -336Q1420 -391 1390 -391Q1368 -391 1324 -359T1235 -281T1157 -176T1123 -72Q1123
0 1082 0H877Q653 0 434 150Q276 257 172 451T68 925Q68 1314 410 1512Q610 1628 877 1635Q1016 1638 1345 1638Q1414 1638 1414 1617Q1414 1563 1400 1552Q1371 1528 1308 1528Q1271 1528 1271 1464Z" />
<glyph unicode="&#xb7;" glyph-name="middot" horiz-adv-x="448" d="M235 685Q221 674 209 685L97 801Q86 816 97 832L209 953Q222 964 235 953L351 832Q362 816 351 801L235 685Z" />
<glyph unicode="&#xb8;" glyph-name="cedilla" horiz-adv-x="350" d="M254 -199T223 -170T158 -140T81 -157Q76 -157 74 -146T74 -125L146 -3Q147 -2 145 0H222L171 -90Q176 -89 185 -89Q243 -89 285 -131T328 -239T282 -356T168 -407T66 -375T22 -294Q22 -287
36 -283T51 -281Q56 -301 91 -319T160 -337Q254 -337 254 -234Q254 -199 223 -170Z" />
<glyph unicode="&#xb9;" glyph-name="uni00B9" horiz-adv-x="393" d="M147 1119V1688Q148 1726 116 1728Q100 1728 100 1736Q100 1749 107 1756L202 1849Q203 1850 207 1850H250Q254 1850 254 1842V1119Q254 1064 278 1056Q292 1050 292 1041T286 1032H114Q108
1032 108 1041T112 1052T122 1056T138 1068T147 1119Z" />
<glyph unicode="&#xba;" glyph-name="ordmasculine" horiz-adv-x="698" d="M307 1422Q192 1422 192 1276Q192 1206 252 1149T391 1091Q437 1091 468 1136T499 1245T448 1366T307 1422ZM246 1014T173 1085T100 1261T171 1438T350 1510T528 1438T598 1262T525 1086T349
1014Z" />
<glyph unicode="&#xbb;" glyph-name="guillemotright" horiz-adv-x="927" d="M825 1222H826Q831 1214 826 1205H825L518 956Q508 941 487 959T468 984L474 1002L624 1214L474 1425L468 1443Q463 1457 504 1477Q511 1481 518 1472L825 1222ZM457 1222H458Q463 1214
458 1205H457L150 956Q140 941 119 959T100 984L106 1002L256 1214L106 1425L100 1443Q95 1457 136 1477Q143 1481 150 1472L457 1222Z" />
<glyph unicode="&#xbc;" glyph-name="onequarter" horiz-adv-x="929" d="M170 907V1476Q170 1514 138 1516Q122 1516 123 1524Q123 1537 130 1544L225 1637Q226 1638 230 1638H273Q277 1638 277 1630V907Q277 852 302 844Q316 838 316 829T309 820H137Q131 820
131 829T135 840Q140 842 146 844Q170 852 170 907ZM550 366H707V624H705L550 372Q548 370 548 368T550 366ZM707 286H455Q451 286 451 290V350L732 812Q736 818 739 818H809Q815 818 815 812V370Q815 369 819 370Q842 378 861 408Q863 411 865 410T876 406T888
402T873 352T847 291T833 282T820 286T815 281V87Q816 44 824 36T842 23T852 9T847 0H675Q668 0 668 9T672 20T682 24Q707 32 707 87V286ZM25 182Q26 197 33 212L757 1638Q763 1648 778 1641T795 1620V1456Q795 1446 786 1426L62 0Q56 -10 42 -3T25 18V182Z" />
<glyph unicode="&#xbd;" glyph-name="onehalf" horiz-adv-x="929" d="M490 0V62L642 242Q808 447 808 576Q808 670 780 712T723 755Q668 755 632 648Q618 632 639 606T662 577T660 563Q651 541 544 602L524 614Q524 690 585 760T728 830T862 766T915 624Q915 481
818 335T653 115L623 83Q685 82 731 92T788 104T835 114T880 124Q893 127 897 135T905 146Q910 144 914 143Q926 140 926 132T904 62T874 0H490ZM170 907V1476Q170 1514 138 1516Q122 1516 123 1524Q123 1537 130 1544L225 1637Q226 1638 230 1638H273Q277 1638
277 1630V907Q277 852 302 844Q316 838 316 829T309 820H137Q131 820 131 829T135 840Q140 842 146 844Q170 852 170 907ZM25 182Q26 197 33 212L757 1638Q763 1648 778 1641T795 1620V1456Q795 1446 786 1426L62 0Q56 -10 42 -3T25 18V182Z" />
<glyph unicode="&#xbe;" glyph-name="threequarters" horiz-adv-x="929" d="M550 366H707V624H705L550 372Q548 370 548 368T550 366ZM707 286H455Q451 286 451 290V350L732 812Q736 818 739 818H809Q815 818 815 812V370Q815 369 819 370Q842 378 861 408Q863
411 865 410T876 406T888 402T873 352T847 291T833 282T820 286T815 281V87Q816 44 824 36T842 23T852 9T847 0H675Q668 0 668 9T672 20T682 24Q707 32 707 87V286ZM170 1266H158Q148 1266 149 1274Q149 1313 150 1333Q150 1342 167 1342Q236 1363 262 1394T287
1470Q288 1514 268 1545T215 1576T164 1554T146 1516T154 1488T162 1473T155 1462T140 1454T49 1521Q43 1527 46 1531Q81 1586 118 1612T224 1638T338 1590T383 1451T264 1315V1312Q425 1280 425 1114Q425 974 317 892T29 810Q22 810 17 831T30 867Q86 861 155
892T276 985T328 1113T284 1219T170 1266ZM25 182Q26 197 33 212L757 1638Q763 1648 778 1641T795 1620V1456Q795 1446 786 1426L62 0Q56 -10 42 -3T25 18V182Z" />
<glyph unicode="&#xbf;" glyph-name="questiondown" horiz-adv-x="788" d="M449 1481Q460 1491 470 1481L560 1388Q569 1376 560 1364L470 1267Q460 1257 449 1267L356 1364Q346 1377 356 1388L449 1481ZM536 1289Q586 1261 586 1183Q586 1027 499 877Q499 877
337 607Q250 458 250 297Q250 219 295 164T409 108T519 162Q586 249 527 308Q517 318 525 351T549 383Q637 329 684 284Q710 261 680 183Q632 57 514 13Q468 -5 413 -4Q273 -4 183 96T93 340T180 611L356 860Q460 1005 491 1162Q493 1182 493 1186T492 1209T489
1233T488 1240T485 1244T487 1248T505 1275T536 1289Z" />
<glyph unicode="&#xc0;" glyph-name="Agrave" horiz-adv-x="1665" d="M718 2196L879 1835Q886 1825 880 1819Q844 1780 824 1803Q634 2034 574 2094Q563 2109 574 2125L692 2196Q705 2207 718 2196ZM115 153Q115 153 773 1626Q778 1638 822 1638T872 1626L1550
153Q1589 62 1627 44Q1640 38 1640 19T1627 0H1265Q1252 0 1252 17T1256 38T1269 45T1282 54Q1320 92 1320 124T1313 178L1168 521H447L305 178Q298 157 298 146V135Q298 134 298 133Q298 92 336 54Q340 50 353 44T366 19T353 0H38Q25 0 25 17T29 38T42 46Q75 60
115 153ZM518 680Q516 677 517 673T521 668H1092Q1095 668 1096 672T1095 680L806 1308H799L518 680Z" />
<glyph unicode="&#xc1;" glyph-name="Aacute" horiz-adv-x="1665" d="M926 2196Q939 2207 952 2196L1070 2125Q1081 2109 1070 2094Q1070 2094 1004 2023L822 1805Q800 1780 764 1819Q758 1825 765 1835L926 2196ZM115 153Q115 153 773 1626Q778 1638 822 1638T872
1626L1550 153Q1589 62 1627 44Q1640 38 1640 19T1627 0H1265Q1252 0 1252 17T1256 38T1269 45T1282 54Q1320 92 1320 124T1313 178L1168 521H447L305 178Q298 157 298 146V135Q298 134 298 133Q298 92 336 54Q340 50 353 44T366 19T353 0H38Q25 0 25 17T29 38T42
46Q75 60 115 153ZM518 680Q516 677 517 673T521 668H1092Q1095 668 1096 672T1095 680L806 1308H799L518 680Z" />
<glyph unicode="&#xc2;" glyph-name="Acircumflex" horiz-adv-x="1665" d="M814 2151Q822 2156 831 2151L1080 1843Q1090 1834 1086 1828Q1062 1783 1034 1800L823 1950L611 1800Q582 1782 559 1829Q556 1835 564 1843L814 2151ZM115 153Q115 153 773 1626Q778
1638 822 1638T872 1626L1550 153Q1589 62 1627 44Q1640 38 1640 19T1627 0H1265Q1252 0 1252 17T1256 38T1269 45T1282 54Q1320 92 1320 124T1313 178L1168 521H447L305 178Q298 157 298 146V135Q298 134 298 133Q298 92 336 54Q340 50 353 44T366 19T353 0H38Q25
0 25 17T29 38T42 46Q75 60 115 153ZM518 680Q516 677 517 673T521 668H1092Q1095 668 1096 672T1095 680L806 1308H799L518 680Z" />
<glyph unicode="&#xc3;" glyph-name="Atilde" horiz-adv-x="1665" d="M813 1868L741 1928Q691 1970 678 1972T655 1978T634 1977T613 1962T594 1932T584 1900T578 1864T570 1834T543 1836T519 1851Q520 1858 522 1891T528 1946T540 1996T566 2045T608 2074T656
2085T705 2079Q759 2062 788 2040L903 1950Q953 1908 965 1906T988 1900T1009 1901T1030 1916T1049 1946T1059 1978T1065 2014T1073 2045T1100 2043T1124 2027Q1123 2020 1121 1987T1115 1932T1103 1882T1077 1833T1035 1804Q982 1785 947 1796L896 1814Q870 1824
813 1868ZM115 153Q115 153 773 1626Q778 1638 822 1638T872 1626L1550 153Q1589 62 1627 44Q1640 38 1640 19T1627 0H1265Q1252 0 1252 17T1256 38T1269 45T1282 54Q1320 92 1320 124T1313 178L1168 521H447L305 178Q298 157 298 146V135Q298 134 298 133Q298
92 336 54Q340 50 353 44T366 19T353 0H38Q25 0 25 17T29 38T42 46Q75 60 115 153ZM518 680Q516 677 517 673T521 668H1092Q1095 668 1096 672T1095 680L806 1308H799L518 680Z" />
<glyph unicode="&#xc4;" glyph-name="Adieresis" horiz-adv-x="1665" d="M1002 1798Q990 1788 980 1798L890 1891Q881 1903 890 1915L980 2012Q991 2023 1002 2012L1094 1915Q1104 1902 1094 1891L1002 1798ZM662 1798Q650 1788 640 1798L550 1891Q541 1903 550
1915L640 2012Q651 2023 662 2012L754 1915Q764 1902 754 1891L662 1798ZM115 153Q115 153 773 1626Q778 1638 822 1638T872 1626L1550 153Q1589 62 1627 44Q1640 38 1640 19T1627 0H1265Q1252 0 1252 17T1256 38T1269 45T1282 54Q1320 92 1320 124T1313 178L1168
521H447L305 178Q298 157 298 146V135Q298 134 298 133Q298 92 336 54Q340 50 353 44T366 19T353 0H38Q25 0 25 17T29 38T42 46Q75 60 115 153ZM518 680Q516 677 517 673T521 668H1092Q1095 668 1096 672T1095 680L806 1308H799L518 680Z" />
<glyph unicode="&#xc5;" glyph-name="Aring" horiz-adv-x="1665" d="M840 1735Q928 1735 928 1838Q928 1886 893 1929T809 1972T735 1944T710 1870T752 1780T840 1735ZM740 1659T682 1716T623 1858T679 1999T823 2056T965 1998T1021 1857T964 1716T823 1659ZM115
153Q115 153 773 1626Q778 1638 822 1638T872 1626L1550 153Q1589 62 1627 44Q1640 38 1640 19T1627 0H1265Q1252 0 1252 17T1256 38T1269 45T1282 54Q1320 92 1320 124T1313 178L1168 521H447L305 178Q298 157 298 146V135Q298 134 298 133Q298 92 336 54Q340
50 353 44T366 19T353 0H38Q25 0 25 17T29 38T42 46Q75 60 115 153ZM518 680Q516 677 517 673T521 668H1092Q1095 668 1096 672T1095 680L806 1308H799L518 680Z" />
<glyph unicode="&#xc6;" glyph-name="AE" horiz-adv-x="2088" d="M1762 970Q1835 970 1883 1018Q1887 1022 1893 1035T1918 1048T1937 1035V764Q1937 751 1920 751T1899 755T1892 768T1876 788T1830 815T1762 829L1131 825V162H1795Q1908 162 1942 188Q1960 200
1970 215T1985 230T2005 226T2020 217T2006 178L1974 97Q1956 52 1950 29T1932 0H872Q859 0 859 17T863 38T876 45T896 61T923 107T937 175V521H447Q353 310 305 178Q281 109 336 54Q340 50 353 44T366 19T353 0H38Q25 0 25 17T29 38T42 46Q75 61 115 153L773 1626Q778
1638 822 1638H1932Q1942 1638 1949 1613T1974 1541L2006 1460Q2020 1426 2020 1422T2006 1413T1986 1408Q1980 1408 1970 1423T1935 1458T1795 1477H1131V970H1762ZM937 668V1436H851L690 1063L518 680Q516 677 517 673T521 668H937Z" />
<glyph unicode="&#xc7;" glyph-name="Ccedilla" horiz-adv-x="1767" d="M994 -237T963 -208T898 -178T821 -195Q816 -195 814 -184T814 -163L880 -51Q706 -43 556 30T302 220T139 492T80 814T147 1137T328 1406T596 1588T909 1657Q1097 1657 1288 1584L1334 1567Q1344
1563 1362 1575T1400 1587T1431 1568Q1435 1565 1434 1547Q1432 1519 1458 1414L1483 1304Q1493 1260 1493 1249Q1493 1243 1468 1231T1438 1225Q1355 1370 1230 1425T917 1480T578 1395T345 1159T263 815Q263 689 321 561T470 335T683 176T923 114Q1149 114 1327
216T1621 490Q1634 511 1640 503T1657 481T1674 457L1688 436Q1704 412 1699 405Q1641 287 1505 172Q1254 -40 954 -51L911 -128Q916 -127 925 -127Q983 -127 1025 -169T1068 -277T1022 -394T908 -445T806 -413T762 -332Q762 -325 776 -321T791 -319Q796 -339 831
-357T900 -375Q994 -375 994 -272Q994 -237 963 -208Z" />
<glyph unicode="&#xc8;" glyph-name="Egrave" horiz-adv-x="1344" d="M544 2196L705 1835Q712 1825 706 1819Q670 1780 650 1803Q460 2034 400 2094Q389 2109 400 2125L518 2196Q531 2207 544 2196ZM1008 980Q1081 980 1129 1028Q1133 1032 1139 1045T1164 1058T1183
1045V755Q1183 742 1166 742T1145 746T1138 759T1122 779T1076 805T1008 818H377V162H1041Q1154 162 1179 181T1215 216T1231 231T1251 226T1266 217T1252 178L1220 97Q1202 51 1196 28T1178 0H118Q105 0 105 17T109 38T122 45T142 61T169 107T183 175V1463Q183
1536 135 1584Q131 1588 118 1594T105 1619T118 1638H1178Q1188 1638 1195 1613T1220 1541L1252 1460Q1266 1425 1266 1421T1252 1412T1233 1407T1223 1412T1212 1427T1180 1456T1041 1476H377V980H1008Z" />
<glyph unicode="&#xc9;" glyph-name="Eacute" horiz-adv-x="1344" d="M752 2196Q765 2207 778 2196L896 2125Q907 2109 896 2094Q896 2094 830 2023L648 1805Q626 1780 590 1819Q584 1825 591 1835L752 2196ZM1008 980Q1081 980 1129 1028Q1133 1032 1139 1045T1164
1058T1183 1045V755Q1183 742 1166 742T1145 746T1138 759T1122 779T1076 805T1008 818H377V162H1041Q1154 162 1179 181T1215 216T1231 231T1251 226T1266 217T1252 178L1220 97Q1202 51 1196 28T1178 0H118Q105 0 105 17T109 38T122 45T142 61T169 107T183 175V1463Q183
1536 135 1584Q131 1588 118 1594T105 1619T118 1638H1178Q1188 1638 1195 1613T1220 1541L1252 1460Q1266 1425 1266 1421T1252 1412T1233 1407T1223 1412T1212 1427T1180 1456T1041 1476H377V980H1008Z" />
<glyph unicode="&#xca;" glyph-name="Ecircumflex" horiz-adv-x="1344" d="M668 2151Q676 2156 685 2151L934 1843Q944 1834 940 1828Q916 1783 888 1800L677 1950L465 1800Q436 1782 413 1829Q410 1835 418 1843L668 2151ZM1008 980Q1081 980 1129 1028Q1133
1032 1139 1045T1164 1058T1183 1045V755Q1183 742 1166 742T1145 746T1138 759T1122 779T1076 805T1008 818H377V162H1041Q1154 162 1179 181T1215 216T1231 231T1251 226T1266 217T1252 178L1220 97Q1202 51 1196 28T1178 0H118Q105 0 105 17T109 38T122 45T142
61T169 107T183 175V1463Q183 1536 135 1584Q131 1588 118 1594T105 1619T118 1638H1178Q1188 1638 1195 1613T1220 1541L1252 1460Q1266 1425 1266 1421T1252 1412T1233 1407T1223 1412T1212 1427T1180 1456T1041 1476H377V980H1008Z" />
<glyph unicode="&#xcb;" glyph-name="Edieresis" horiz-adv-x="1344" d="M828 1798Q816 1788 806 1798L716 1891Q707 1903 716 1915L806 2012Q817 2023 828 2012L920 1915Q930 1902 920 1891L828 1798ZM488 1798Q476 1788 466 1798L376 1891Q367 1903 376 1915L466
2012Q477 2023 488 2012L580 1915Q590 1902 580 1891L488 1798ZM1008 980Q1081 980 1129 1028Q1133 1032 1139 1045T1164 1058T1183 1045V755Q1183 742 1166 742T1145 746T1138 759T1122 779T1076 805T1008 818H377V162H1041Q1154 162 1179 181T1215 216T1231 231T1251
226T1266 217T1252 178L1220 97Q1202 51 1196 28T1178 0H118Q105 0 105 17T109 38T122 45T142 61T169 107T183 175V1463Q183 1536 135 1584Q131 1588 118 1594T105 1619T118 1638H1178Q1188 1638 1195 1613T1220 1541L1252 1460Q1266 1425 1266 1421T1252 1412T1233
1407T1223 1412T1212 1427T1180 1456T1041 1476H377V980H1008Z" />
<glyph unicode="&#xcc;" glyph-name="Igrave" horiz-adv-x="600" d="M186 2196L347 1835Q354 1825 348 1819Q312 1780 292 1803Q102 2034 42 2094Q31 2109 42 2125L160 2196Q173 2207 186 2196ZM128 1638H452Q465 1638 465 1621T461 1600T448 1593T428 1577T401
1531T387 1463V175Q387 102 435 54Q439 50 452 44T465 19T452 0H128Q115 0 115 17T119 38T132 45T152 61T179 107T193 175V1463Q193 1536 145 1584Q141 1588 128 1594T115 1619T128 1638Z" />
<glyph unicode="&#xcd;" glyph-name="Iacute" horiz-adv-x="600" d="M394 2196Q407 2207 420 2196L538 2125Q549 2109 538 2094Q538 2094 472 2023L290 1805Q268 1780 232 1819Q226 1825 233 1835L394 2196ZM128 1638H452Q465 1638 465 1621T461 1600T448 1593T428
1577T401 1531T387 1463V175Q387 102 435 54Q439 50 452 44T465 19T452 0H128Q115 0 115 17T119 38T132 45T152 61T179 107T193 175V1463Q193 1536 145 1584Q141 1588 128 1594T115 1619T128 1638Z" />
<glyph unicode="&#xce;" glyph-name="Icircumflex" horiz-adv-x="600" d="M282 2151Q290 2156 299 2151L548 1843Q558 1834 554 1828Q530 1783 502 1800L291 1950L79 1800Q50 1782 27 1829Q24 1835 32 1843L282 2151ZM128 1638H452Q465 1638 465 1621T461 1600T448
1593T428 1577T401 1531T387 1463V175Q387 102 435 54Q439 50 452 44T465 19T452 0H128Q115 0 115 17T119 38T132 45T152 61T179 107T193 175V1463Q193 1536 145 1584Q141 1588 128 1594T115 1619T128 1638Z" />
<glyph unicode="&#xcf;" glyph-name="Idieresis" horiz-adv-x="600" d="M470 1798Q458 1788 448 1798L358 1891Q349 1903 358 1915L448 2012Q459 2023 470 2012L562 1915Q572 1902 562 1891L470 1798ZM130 1798Q118 1788 108 1798L18 1891Q9 1903 18 1915L108
2012Q119 2023 130 2012L222 1915Q232 1902 222 1891L130 1798ZM128 1638H452Q465 1638 465 1621T461 1600T448 1593T428 1577T401 1531T387 1463V175Q387 102 435 54Q439 50 452 44T465 19T452 0H128Q115 0 115 17T119 38T132 45T152 61T179 107T193 175V1463Q193
1536 145 1584Q141 1588 128 1594T115 1619T128 1638Z" />
<glyph unicode="&#xd0;" glyph-name="Eth" horiz-adv-x="1356" d="M258 194Q258 157 293 157Q363 157 469 157T688 193Q898 258 995 426T1092 824Q1092 1102 938 1282Q860 1372 732 1424T470 1478T297 1480T258 1458V916H606V764H258V194ZM505 0H2Q-11 0 -11 17T-7
38T6 46T26 62T53 107T67 175V764H-11V916H67V1463Q67 1536 19 1584Q15 1588 2 1594T-11 1619T2 1638H455Q699 1638 922 1506Q1080 1412 1184 1241T1288 824Q1288 668 1230 520T1072 256T823 71T505 0Z" />
<glyph unicode="&#xd1;" glyph-name="Ntilde" horiz-adv-x="1921" d="M943 1868L871 1928Q821 1970 808 1972T785 1978T764 1977T743 1962T724 1932T714 1900T708 1864T700 1834T673 1836T649 1851Q650 1858 652 1891T658 1946T670 1996T696 2045T738 2074T786
2085T835 2079Q889 2062 918 2040L1033 1950Q1083 1908 1095 1906T1118 1900T1139 1901T1160 1916T1179 1946T1189 1978T1195 2014T1203 2045T1230 2043T1254 2027Q1253 2020 1251 1987T1245 1932T1233 1882T1207 1833T1165 1804Q1112 1785 1077 1796L1026 1814Q1000
1824 943 1868ZM377 1638Q386 1638 394 1630L1512 444H1519V1463Q1519 1535 1470 1584Q1466 1588 1453 1594T1440 1619T1453 1638H1780Q1793 1638 1793 1621T1789 1600T1776 1593T1755 1576T1728 1530T1713 1463V53Q1713 16 1704 8T1673 0T1639 12L382 1346V175Q382
98 426 54Q430 50 443 44T456 19T443 0H121Q108 0 108 17T112 38T125 45T138 54Q188 104 188 175V1463Q188 1537 141 1584Q137 1588 124 1594T111 1619T124 1638H377Z" />
<glyph unicode="&#xd2;" glyph-name="Ograve" horiz-adv-x="1892" d="M820 2196L981 1835Q988 1825 982 1819Q946 1780 926 1803Q736 2034 676 2094Q665 2109 676 2125L794 2196Q807 2207 820 2196ZM743 170Q841 131 935 131Q1255 131 1444 318T1634 822Q1634
931 1579 1051T1430 1270T1203 1435T898 1500T577 1414T344 1176T262 824T408 434T743 170ZM212 334T146 494T80 826T149 1153T333 1422T603 1604T912 1672T1198 1632Q1461 1553 1636 1338T1812 831Q1812 660 1750 504T1577 228T1296 35T938 -37T593 32T324 217Z"
/>
<glyph unicode="&#xd3;" glyph-name="Oacute" horiz-adv-x="1892" d="M1028 2196Q1041 2207 1054 2196L1172 2125Q1183 2109 1172 2094Q1172 2094 1106 2023L924 1805Q902 1780 866 1819Q860 1825 867 1835L1028 2196ZM743 170Q841 131 935 131Q1255 131 1444
318T1634 822Q1634 931 1579 1051T1430 1270T1203 1435T898 1500T577 1414T344 1176T262 824T408 434T743 170ZM212 334T146 494T80 826T149 1153T333 1422T603 1604T912 1672T1198 1632Q1461 1553 1636 1338T1812 831Q1812 660 1750 504T1577 228T1296 35T938
-37T593 32T324 217Z" />
<glyph unicode="&#xd4;" glyph-name="Ocircumflex" horiz-adv-x="1892" d="M916 2151Q924 2156 933 2151L1182 1843Q1192 1834 1188 1828Q1164 1783 1136 1800L925 1950L713 1800Q684 1782 661 1829Q658 1835 666 1843L916 2151ZM743 170Q841 131 935 131Q1255
131 1444 318T1634 822Q1634 931 1579 1051T1430 1270T1203 1435T898 1500T577 1414T344 1176T262 824T408 434T743 170ZM212 334T146 494T80 826T149 1153T333 1422T603 1604T912 1672T1198 1632Q1461 1553 1636 1338T1812 831Q1812 660 1750 504T1577 228T1296
35T938 -37T593 32T324 217Z" />
<glyph unicode="&#xd5;" glyph-name="Otilde" horiz-adv-x="1892" d="M915 1868L843 1928Q793 1970 780 1972T757 1978T736 1977T715 1962T696 1932T686 1900T680 1864T672 1834T645 1836T621 1851Q622 1858 624 1891T630 1946T642 1996T668 2045T710 2074T758
2085T807 2079Q861 2062 890 2040L1005 1950Q1055 1908 1067 1906T1090 1900T1111 1901T1132 1916T1151 1946T1161 1978T1167 2014T1175 2045T1202 2043T1226 2027Q1225 2020 1223 1987T1217 1932T1205 1882T1179 1833T1137 1804Q1084 1785 1049 1796L998 1814Q972
1824 915 1868ZM743 170Q841 131 935 131Q1255 131 1444 318T1634 822Q1634 931 1579 1051T1430 1270T1203 1435T898 1500T577 1414T344 1176T262 824T408 434T743 170ZM212 334T146 494T80 826T149 1153T333 1422T603 1604T912 1672T1198 1632Q1461 1553 1636
1338T1812 831Q1812 660 1750 504T1577 228T1296 35T938 -37T593 32T324 217Z" />
<glyph unicode="&#xd6;" glyph-name="Odieresis" horiz-adv-x="1892" d="M1104 1798Q1092 1788 1082 1798L992 1891Q983 1903 992 1915L1082 2012Q1093 2023 1104 2012L1196 1915Q1206 1902 1196 1891L1104 1798ZM764 1798Q752 1788 742 1798L652 1891Q643 1903
652 1915L742 2012Q753 2023 764 2012L856 1915Q866 1902 856 1891L764 1798ZM743 170Q841 131 935 131Q1255 131 1444 318T1634 822Q1634 931 1579 1051T1430 1270T1203 1435T898 1500T577 1414T344 1176T262 824T408 434T743 170ZM212 334T146 494T80 826T149
1153T333 1422T603 1604T912 1672T1198 1632Q1461 1553 1636 1338T1812 831Q1812 660 1750 504T1577 228T1296 35T938 -37T593 32T324 217Z" />
<glyph unicode="&#xd7;" glyph-name="multiply" horiz-adv-x="943" d="M864 1183Q874 1174 862 1162L578 878L862 594Q874 582 864 573L777 486Q768 476 756 488L472 772L188 488Q176 476 167 486L80 573Q70 582 82 594L366 878L82 1162Q70 1174 80 1183L167 1270Q176
1280 188 1268L472 984L756 1268Q768 1280 777 1270L864 1183Z" />
<glyph unicode="&#xd8;" glyph-name="Oslash" horiz-adv-x="1942" d="M1492 1257L555 326Q652 236 764 184T985 131Q1305 131 1494 318T1684 822Q1684 928 1633 1043T1492 1257ZM1381 1358Q1193 1500 986 1500T627 1414T394 1176T312 828T455 438L1381 1358ZM974
-37Q649 -37 410 183L211 -15Q190 -36 172 -27Q125 -4 82 48Q79 55 83 63T89 75L310 294Q130 530 130 831Q130 998 199 1153T383 1422T653 1604T974 1672Q1281 1672 1521 1496L1693 1667Q1713 1689 1732 1679Q1779 1656 1822 1604Q1830 1590 1815 1577L1634 1398Q1862
1159 1862 831Q1862 660 1800 504T1627 228T1346 35T974 -37Z" />
<glyph unicode="&#xd9;" glyph-name="Ugrave" horiz-adv-x="1737" d="M758 2196L919 1835Q926 1825 920 1819Q884 1780 864 1803Q674 2034 614 2094Q603 2109 614 2125L732 2196Q745 2207 758 2196ZM195 1463Q195 1534 145 1584Q141 1588 128 1594T115 1619T128
1638H464Q477 1638 477 1621T473 1600T460 1593T440 1577T413 1531T399 1463V634Q399 403 541 276T890 148Q1011 148 1117 209T1286 372T1349 588V1463Q1349 1536 1301 1584Q1297 1588 1284 1594T1271 1619T1284 1638H1596Q1609 1638 1609 1621T1605 1600T1592
1593T1572 1577T1545 1531T1531 1463V588Q1531 416 1443 272T1206 46T877 -36T540 48T289 286T195 634V1463Z" />
<glyph unicode="&#xda;" glyph-name="Uacute" horiz-adv-x="1737" d="M966 2196Q979 2207 992 2196L1110 2125Q1121 2109 1110 2094Q1110 2094 1044 2023L862 1805Q840 1780 804 1819Q798 1825 805 1835L966 2196ZM195 1463Q195 1534 145 1584Q141 1588 128 1594T115
1619T128 1638H464Q477 1638 477 1621T473 1600T460 1593T440 1577T413 1531T399 1463V634Q399 403 541 276T890 148Q1011 148 1117 209T1286 372T1349 588V1463Q1349 1536 1301 1584Q1297 1588 1284 1594T1271 1619T1284 1638H1596Q1609 1638 1609 1621T1605 1600T1592
1593T1572 1577T1545 1531T1531 1463V588Q1531 416 1443 272T1206 46T877 -36T540 48T289 286T195 634V1463Z" />
<glyph unicode="&#xdb;" glyph-name="Ucircumflex" horiz-adv-x="1737" d="M854 2151Q862 2156 871 2151L1120 1843Q1130 1834 1126 1828Q1102 1783 1074 1800L863 1950L651 1800Q622 1782 599 1829Q596 1835 604 1843L854 2151ZM195 1463Q195 1534 145 1584Q141
1588 128 1594T115 1619T128 1638H464Q477 1638 477 1621T473 1600T460 1593T440 1577T413 1531T399 1463V634Q399 403 541 276T890 148Q1011 148 1117 209T1286 372T1349 588V1463Q1349 1536 1301 1584Q1297 1588 1284 1594T1271 1619T1284 1638H1596Q1609 1638
1609 1621T1605 1600T1592 1593T1572 1577T1545 1531T1531 1463V588Q1531 416 1443 272T1206 46T877 -36T540 48T289 286T195 634V1463Z" />
<glyph unicode="&#xdc;" glyph-name="Udieresis" horiz-adv-x="1737" d="M1042 1798Q1030 1788 1020 1798L930 1891Q921 1903 930 1915L1020 2012Q1031 2023 1042 2012L1134 1915Q1144 1902 1134 1891L1042 1798ZM702 1798Q690 1788 680 1798L590 1891Q581 1903
590 1915L680 2012Q691 2023 702 2012L794 1915Q804 1902 794 1891L702 1798ZM195 1463Q195 1534 145 1584Q141 1588 128 1594T115 1619T128 1638H464Q477 1638 477 1621T473 1600T460 1593T440 1577T413 1531T399 1463V634Q399 403 541 276T890 148Q1011 148 1117
209T1286 372T1349 588V1463Q1349 1536 1301 1584Q1297 1588 1284 1594T1271 1619T1284 1638H1596Q1609 1638 1609 1621T1605 1600T1592 1593T1572 1577T1545 1531T1531 1463V588Q1531 416 1443 272T1206 46T877 -36T540 48T289 286T195 634V1463Z" />
<glyph unicode="&#xdd;" glyph-name="Yacute" horiz-adv-x="1696" d="M952 2196Q965 2207 978 2196L1096 2125Q1107 2109 1096 2094Q1096 2094 1030 2023L848 1805Q826 1780 790 1819Q784 1825 791 1835L952 2196ZM744 691L153 1485Q125 1523 91 1552T54 1585T38
1594T25 1619T38 1638H400Q413 1638 413 1621T409 1600T396 1592Q359 1576 364 1544T408 1460L849 870H857L1310 1460Q1375 1541 1373 1557T1363 1581T1343 1594T1330 1619T1343 1638H1658Q1671 1638 1671 1621T1667 1600T1654 1593T1643 1586T1627 1574L1600 1553Q1560
1521 1534 1485L950 727V175Q950 102 998 54Q1002 50 1015 44T1028 19T1015 0H678Q665 0 665 17T669 38T682 45T703 62T730 108T744 175V691Z" />
<glyph unicode="&#xde;" glyph-name="Thorn" horiz-adv-x="1356" d="M128 1638H452Q465 1638 465 1621T461 1600T448 1593T428 1577T401 1531T387 1463V1278H674Q970 1278 1114 1085Q1188 987 1188 854T1138 641T1014 523Q905 467 795 454T585 440H451Q438 440
438 468V552Q438 580 451 580H585Q891 580 968 721Q998 776 998 842T981 952T934 1021Q834 1113 678 1116H448Q426 1116 407 1099T387 1064V175Q387 102 435 54Q439 50 452 44T465 19T452 0H128Q115 0 115 17T119 38T132 45T152 61T179 107T193 175V1463Q193 1536
145 1584Q141 1588 128 1594T115 1619T128 1638Z" />
<glyph unicode="&#xdf;" glyph-name="germandbls" horiz-adv-x="1157" d="M111 0Q98 0 98 18T106 41T127 51T147 63T161 80T170 96T174 115T176 132T177 153T176 175V1180Q176 1302 269 1429T499 1608Q574 1637 644 1637T773 1611T874 1545T941 1455T967 1359T955
1275T928 1212Q896 1160 841 1127L789 1095Q693 1038 655 979T617 878Q617 808 694 757L767 708Q810 679 831 659L946 557Q1015 493 1035 463T1079 388T1102 268Q1102 122 1002 51T767 -21Q689 -21 612 -5T524 14Q480 20 476 35Q449 105 449 196Q449 208 463 215T489
223Q507 223 530 194T642 131T799 96T911 131T954 223Q954 346 800 472Q771 495 728 526L651 579Q568 635 533 678Q467 759 466 842Q466 966 530 1048T764 1227Q805 1251 813 1282T822 1351T805 1424T748 1485T651 1511T539 1479T441 1395T369 1273T341 1131V132Q341
108 353 85T392 50T419 28Q419 0 406 0H111Z" />
<glyph unicode="&#xe0;" glyph-name="agrave" horiz-adv-x="1102" d="M366 1497L527 1136Q534 1126 528 1120Q492 1081 472 1104Q282 1335 222 1395Q211 1410 222 1426L340 1497Q353 1508 366 1497ZM212 253Q212 186 270 153T388 119T477 124T538 142Q596 166
641 192Q641 192 688 218L630 484Q594 470 541 453L445 423Q212 353 212 253ZM611 587Q581 861 452 861Q373 861 315 805T256 672L265 631Q265 623 246 606T219 595L103 744Q103 757 125 773T164 805L188 828Q240 880 261 894L310 926Q382 973 470 973Q599 973
666 903Q712 855 730 809T756 733Q773 671 784 589L795 512Q801 466 807 426T816 372T826 321T841 260Q862 189 890 154T952 118T1001 138Q1027 176 1039 176Q1045 176 1059 162T1073 141T1042 95T971 17T914 -21Q850 -21 793 29T722 136Q689 106 610 63Q454 -21
360 -21T202 6T95 89T52 206T69 308T113 378T180 433T261 476Q347 511 451 538T611 587Z" />
<glyph unicode="&#xe1;" glyph-name="aacute" horiz-adv-x="1102" d="M574 1497Q587 1508 600 1497L718 1426Q729 1410 718 1395Q718 1395 652 1324L470 1106Q448 1081 412 1120Q406 1126 413 1136L574 1497ZM212 253Q212 186 270 153T388 119T477 124T538 142Q596
166 641 192Q641 192 688 218L630 484Q594 470 541 453L445 423Q212 353 212 253ZM611 587Q581 861 452 861Q373 861 315 805T256 672L265 631Q265 623 246 606T219 595L103 744Q103 757 125 773T164 805L188 828Q240 880 261 894L310 926Q382 973 470 973Q599
973 666 903Q712 855 730 809T756 733Q773 671 784 589L795 512Q801 466 807 426T816 372T826 321T841 260Q862 189 890 154T952 118T1001 138Q1027 176 1039 176Q1045 176 1059 162T1073 141T1042 95T971 17T914 -21Q850 -21 793 29T722 136Q689 106 610 63Q454
-21 360 -21T202 6T95 89T52 206T69 308T113 378T180 433T261 476Q347 511 451 538T611 587Z" />
<glyph unicode="&#xe2;" glyph-name="acircumflex" horiz-adv-x="1102" d="M462 1453Q470 1458 479 1453L728 1145Q738 1136 734 1130Q710 1085 682 1102L471 1252L259 1102Q230 1084 207 1131Q204 1137 212 1145L462 1453ZM212 253Q212 186 270 153T388 119T477
124T538 142Q596 166 641 192Q641 192 688 218L630 484Q594 470 541 453L445 423Q212 353 212 253ZM611 587Q581 861 452 861Q373 861 315 805T256 672L265 631Q265 623 246 606T219 595L103 744Q103 757 125 773T164 805L188 828Q240 880 261 894L310 926Q382
973 470 973Q599 973 666 903Q712 855 730 809T756 733Q773 671 784 589L795 512Q801 466 807 426T816 372T826 321T841 260Q862 189 890 154T952 118T1001 138Q1027 176 1039 176Q1045 176 1059 162T1073 141T1042 95T971 17T914 -21Q850 -21 793 29T722 136Q689
106 610 63Q454 -21 360 -21T202 6T95 89T52 206T69 308T113 378T180 433T261 476Q347 511 451 538T611 587Z" />
<glyph unicode="&#xe3;" glyph-name="atilde" horiz-adv-x="1102" d="M462 1170L390 1230Q340 1272 327 1274T304 1280T283 1279T262 1264T243 1234T233 1202T227 1166T219 1136T192 1138T168 1153Q169 1160 171 1193T177 1248T189 1298T215 1347T257 1376T305
1387T354 1381Q408 1364 437 1342L552 1252Q602 1210 614 1208T637 1202T658 1203T679 1218T698 1248T708 1280T714 1316T722 1347T749 1345T773 1329Q772 1322 770 1289T764 1234T752 1184T726 1135T684 1106Q631 1087 596 1098L545 1116Q519 1126 462 1170ZM212
253Q212 186 270 153T388 119T477 124T538 142Q596 166 641 192Q641 192 688 218L630 484Q594 470 541 453L445 423Q212 353 212 253ZM611 587Q581 861 452 861Q373 861 315 805T256 672L265 631Q265 623 246 606T219 595L103 744Q103 757 125 773T164 805L188
828Q240 880 261 894L310 926Q382 973 470 973Q599 973 666 903Q712 855 730 809T756 733Q773 671 784 589L795 512Q801 466 807 426T816 372T826 321T841 260Q862 189 890 154T952 118T1001 138Q1027 176 1039 176Q1045 176 1059 162T1073 141T1042 95T971 17T914
-21Q850 -21 793 29T722 136Q689 106 610 63Q454 -21 360 -21T202 6T95 89T52 206T69 308T113 378T180 433T261 476Q347 511 451 538T611 587Z" />
<glyph unicode="&#xe4;" glyph-name="adieresis" horiz-adv-x="1102" d="M650 1100Q638 1090 628 1100L538 1193Q529 1205 538 1217L628 1314Q639 1325 650 1314L742 1217Q752 1204 742 1193L650 1100ZM310 1100Q298 1090 288 1100L198 1193Q189 1205 198 1217L288
1314Q299 1325 310 1314L402 1217Q412 1204 402 1193L310 1100ZM212 253Q212 186 270 153T388 119T477 124T538 142Q596 166 641 192Q641 192 688 218L630 484Q594 470 541 453L445 423Q212 353 212 253ZM611 587Q581 861 452 861Q373 861 315 805T256 672L265
631Q265 623 246 606T219 595L103 744Q103 757 125 773T164 805L188 828Q240 880 261 894L310 926Q382 973 470 973Q599 973 666 903Q712 855 730 809T756 733Q773 671 784 589L795 512Q801 466 807 426T816 372T826 321T841 260Q862 189 890 154T952 118T1001
138Q1027 176 1039 176Q1045 176 1059 162T1073 141T1042 95T971 17T914 -21Q850 -21 793 29T722 136Q689 106 610 63Q454 -21 360 -21T202 6T95 89T52 206T69 308T113 378T180 433T261 476Q347 511 451 538T611 587Z" />
<glyph unicode="&#xe5;" glyph-name="aring" horiz-adv-x="1102" d="M488 1172Q576 1172 576 1275Q576 1323 541 1366T457 1409T383 1381T358 1307T400 1217T488 1172ZM388 1096T330 1153T271 1295T327 1436T471 1493T613 1435T669 1294T612 1153T471 1096ZM212
253Q212 186 270 153T388 119T477 124T538 142Q596 166 641 192Q641 192 688 218L630 484Q594 470 541 453L445 423Q212 353 212 253ZM611 587Q581 861 452 861Q373 861 315 805T256 672L265 631Q265 623 246 606T219 595L103 744Q103 757 125 773T164 805L188
828Q240 880 261 894L310 926Q382 973 470 973Q599 973 666 903Q712 855 730 809T756 733Q773 671 784 589L795 512Q801 466 807 426T816 372T826 321T841 260Q862 189 890 154T952 118T1001 138Q1027 176 1039 176Q1045 176 1059 162T1073 141T1042 95T971 17T914
-21Q850 -21 793 29T722 136Q689 106 610 63Q454 -21 360 -21T202 6T95 89T52 206T69 308T113 378T180 433T261 476Q347 511 451 538T611 587Z" />
<glyph unicode="&#xe6;" glyph-name="ae" horiz-adv-x="1637" d="M212 253Q212 186 270 153T388 119T477 124T538 142Q596 166 641 192Q641 192 688 218L630 484Q594 470 541 453L445 423Q212 353 212 253ZM256 672L265 631Q265 623 246 606T219 595L103 744Q103
757 125 773T174 814L218 858Q283 920 340 946T489 973Q670 973 741 777Q809 871 917 922T1162 974Q1352 974 1497 800Q1570 712 1570 660L816 387Q859 270 961 203T1193 135Q1359 135 1494 290Q1509 305 1556 269Q1559 267 1555 260Q1487 134 1379 58T1147 -18Q906
-18 754 166Q708 118 629 71Q476 -21 328 -21T94 92Q52 148 52 207T69 306T113 376T181 431T262 474Q354 512 455 539T611 587Q581 861 452 861Q374 861 315 804T256 672ZM1361 695Q1302 864 1106 864Q1019 864 946 817T831 696T790 557T794 493L1359 690V696L1361
695Z" />
<glyph unicode="&#xe7;" glyph-name="ccedilla" horiz-adv-x="1029" d="M383 -298Q383 -290 397 -287T412 -285Q417 -305 451 -323T518 -341Q580 -341 597 -310T615 -241T584 -174T530 -144T497 -146T477 -150T460 -154T447 -159T440 -161T435 -150T435 -129L502
-16Q321 -1 189 136Q55 274 55 492Q55 612 118 727T299 908T573 974T862 857Q865 854 871 850T880 844T881 833L827 665Q822 650 815 649T791 652T771 662T765 690Q758 754 725 786Q641 864 515 864Q428 864 354 817T240 696T199 522T253 328T398 185T592 135T763
163T903 259Q919 275 961 233Q964 230 960 224Q832 -2 576 -17L532 -94Q537 -93 546 -93Q604 -93 646 -135T689 -243T643 -360T529 -411T427 -379T383 -298Z" />
<glyph unicode="&#xe8;" glyph-name="egrave" horiz-adv-x="1045" d="M400 1498L561 1137Q568 1127 562 1121Q526 1082 506 1105Q316 1336 256 1396Q245 1411 256 1427L374 1498Q387 1509 400 1498ZM770 695Q711 864 515 864Q426 864 352 817T239 696T199 557T203
493L768 690V696L770 695ZM225 387Q268 269 370 202T602 135Q767 135 903 290Q924 310 965 269Q968 266 964 260Q850 102 787 58Q680 -18 540 -18Q445 -18 356 20Q173 100 95 276Q55 366 55 489T117 727T298 908T571 974Q759 974 905 800Q979 712 979 660L225 387Z"
/>
<glyph unicode="&#xe9;" glyph-name="eacute" horiz-adv-x="1045" d="M694 1498Q707 1509 720 1498L838 1427Q849 1411 838 1396Q838 1396 772 1325L590 1107Q568 1082 532 1121Q526 1127 533 1137L694 1498ZM770 695Q711 864 515 864Q426 864 352 817T239 696T199
557T203 493L768 690V696L770 695ZM225 387Q268 269 370 202T602 135Q767 135 903 290Q924 310 965 269Q968 266 964 260Q850 102 787 58Q680 -18 540 -18Q445 -18 356 20Q173 100 95 276Q55 366 55 489T117 727T298 908T571 974Q759 974 905 800Q979 712 979 660L225
387Z" />
<glyph unicode="&#xea;" glyph-name="ecircumflex" horiz-adv-x="1045" d="M508 1453Q516 1458 525 1453L774 1145Q784 1136 780 1130Q756 1085 728 1102L517 1252L305 1102Q276 1084 253 1131Q250 1137 258 1145L508 1453ZM770 695Q711 864 515 864Q426 864 352
817T239 696T199 557T203 493L768 690V696L770 695ZM225 387Q268 269 370 202T602 135Q767 135 903 290Q924 310 965 269Q968 266 964 260Q850 102 787 58Q680 -18 540 -18Q445 -18 356 20Q173 100 95 276Q55 366 55 489T117 727T298 908T571 974Q759 974 905 800Q979
712 979 660L225 387Z" />
<glyph unicode="&#xeb;" glyph-name="edieresis" horiz-adv-x="1045" d="M706 1100Q694 1090 684 1100L594 1193Q585 1205 594 1217L684 1314Q695 1325 706 1314L798 1217Q808 1204 798 1193L706 1100ZM366 1100Q354 1090 344 1100L254 1193Q245 1205 254 1217L344
1314Q355 1325 366 1314L458 1217Q468 1204 458 1193L366 1100ZM770 695Q711 864 515 864Q426 864 352 817T239 696T199 557T203 493L768 690V696L770 695ZM225 387Q268 269 370 202T602 135Q767 135 903 290Q924 310 965 269Q968 266 964 260Q850 102 787 58Q680
-18 540 -18Q445 -18 356 20Q173 100 95 276Q55 366 55 489T117 727T298 908T571 974Q759 974 905 800Q979 712 979 660L225 387Z" />
<glyph unicode="&#xec;" glyph-name="igrave" horiz-adv-x="519" d="M112 1497L273 1136Q280 1126 274 1120Q238 1081 218 1104Q28 1335 -32 1395Q-43 1410 -32 1426L86 1497Q99 1508 112 1497ZM104 0Q91 0 91 18T99 41T119 51T139 63Q170 94 170 132V704Q170
736 154 750T119 765T95 771T88 791T89 809T95 813T100 817L280 950Q287 955 291 953T315 944T335 922V175Q335 170 335 154T334 132Q342 69 377 54T413 28Q413 0 400 0H104Z" />
<glyph unicode="&#xed;" glyph-name="iacute" horiz-adv-x="519" d="M320 1497Q333 1508 346 1497L464 1426Q475 1410 464 1395Q464 1395 398 1324L216 1106Q194 1081 158 1120Q152 1126 159 1136L320 1497ZM104 0Q91 0 91 18T99 41T119 51T139 63Q170 94 170
132V704Q170 736 154 750T119 765T95 771T88 791T89 809T95 813T100 817L280 950Q287 955 291 953T315 944T335 922V175Q335 170 335 154T334 132Q342 69 377 54T413 28Q413 0 400 0H104Z" />
<glyph unicode="&#xee;" glyph-name="icircumflex" horiz-adv-x="519" d="M208 1453Q216 1458 225 1453L474 1145Q484 1136 480 1130Q456 1085 428 1102L217 1252L5 1102Q-24 1084 -47 1131Q-50 1137 -42 1145L208 1453ZM104 0Q91 0 91 18T99 41T119 51T139 63Q170
94 170 132V704Q170 736 154 750T119 765T95 771T88 791T89 809T95 813T100 817L280 950Q287 955 291 953T315 944T335 922V175Q335 170 335 154T334 132Q342 69 377 54T413 28Q413 0 400 0H104Z" />
<glyph unicode="&#xef;" glyph-name="idieresis" horiz-adv-x="519" d="M396 1100Q384 1090 374 1100L284 1193Q275 1205 284 1217L374 1314Q385 1325 396 1314L488 1217Q498 1204 488 1193L396 1100ZM56 1100Q44 1090 34 1100L-56 1193Q-65 1205 -56 1217L34
1314Q45 1325 56 1314L148 1217Q158 1204 148 1193L56 1100ZM104 0Q91 0 91 18T99 41T119 51T139 63Q170 94 170 132V704Q170 736 154 750T119 765T95 771T88 791T89 809T95 813T100 817L280 950Q287 955 291 953T315 944T335 922V175Q335 170 335 154T334 132Q342
69 377 54T413 28Q413 0 400 0H104Z" />
<glyph unicode="&#xf0;" glyph-name="eth" horiz-adv-x="1111" d="M786 1293Q1051 967 1051 479Q1051 267 907 125T540 -18Q446 -18 358 20T203 122T96 276T55 489T118 727T299 908T558 974T811 909Q753 1097 648 1238L392 1134Q356 1119 340 1127L307 1209Q310
1223 324 1229L571 1330Q482 1426 393 1493T300 1565H453Q591 1493 703 1384L917 1470Q954 1486 969 1477L1002 1395Q998 1381 986 1376L786 1293ZM261 756T230 690T199 521T255 317T410 156T606 96T765 140T859 254T892 408Q892 585 780 712T478 839Q391 839 326
798Z" />
<glyph unicode="&#xf1;" glyph-name="ntilde" horiz-adv-x="1175" d="M590 1170L518 1230Q468 1272 455 1274T432 1280T411 1279T390 1264T371 1234T361 1202T355 1166T347 1136T320 1138T296 1153Q297 1160 299 1193T305 1248T317 1298T343 1347T385 1376T433
1387T482 1381Q536 1364 565 1342L680 1252Q730 1210 742 1208T765 1202T786 1203T807 1218T826 1248T836 1280T842 1316T850 1347T877 1345T901 1329Q900 1322 898 1289T892 1234T880 1184T854 1135T812 1106Q759 1087 724 1098L673 1116Q647 1126 590 1170ZM102
0Q89 0 89 18T97 41T118 51T138 63Q169 94 169 132T168 175V704Q168 736 152 750T118 765T95 770T88 779T86 786T85 795T86 804T87 809T93 813T98 817L278 950Q282 953 300 953T326 949T334 922V848L385 878L415 893Q554 963 675 963T913 877Q966 838 999 783T1033
667V132Q1033 110 1045 86T1084 50T1111 28Q1111 0 1098 0H805Q792 0 792 18T800 41T821 51T842 64T857 82T865 105T868 125T869 150T868 175V642Q868 702 828 747Q751 831 612 831T333 761V132Q333 110 345 86T384 50T411 28Q411 0 398 0H102Z" />
<glyph unicode="&#xf2;" glyph-name="ograve" horiz-adv-x="1104" d="M413 1497L574 1136Q581 1126 575 1120Q539 1081 519 1104Q329 1335 269 1395Q258 1410 269 1426L387 1497Q400 1508 413 1497ZM261 756T230 690T199 521T255 317T410 156T606 96T765 140T859
254T892 408Q892 585 780 712T478 839Q391 839 326 798ZM136 186T96 276T55 489T118 728T299 909T544 974Q776 974 913 829T1050 475T906 125T540 -18Q446 -18 358 20T203 122Z" />
<glyph unicode="&#xf3;" glyph-name="oacute" horiz-adv-x="1104" d="M675 1497Q688 1508 701 1497L819 1426Q830 1410 819 1395Q819 1395 753 1324L571 1106Q549 1081 513 1120Q507 1126 514 1136L675 1497ZM261 756T230 690T199 521T255 317T410 156T606 96T765
140T859 254T892 408Q892 585 780 712T478 839Q391 839 326 798ZM136 186T96 276T55 489T118 728T299 909T544 974Q776 974 913 829T1050 475T906 125T540 -18Q446 -18 358 20T203 122Z" />
<glyph unicode="&#xf4;" glyph-name="ocircumflex" horiz-adv-x="1104" d="M533 1453Q541 1458 550 1453L799 1145Q809 1136 805 1130Q781 1085 753 1102L542 1252L330 1102Q301 1084 278 1131Q275 1137 283 1145L533 1453ZM261 756T230 690T199 521T255 317T410
156T606 96T765 140T859 254T892 408Q892 585 780 712T478 839Q391 839 326 798ZM136 186T96 276T55 489T118 728T299 909T544 974Q776 974 913 829T1050 475T906 125T540 -18Q446 -18 358 20T203 122Z" />
<glyph unicode="&#xf5;" glyph-name="otilde" horiz-adv-x="1104" d="M563 1170L491 1230Q441 1272 428 1274T405 1280T384 1279T363 1264T344 1234T334 1202T328 1166T320 1136T293 1138T269 1153Q270 1160 272 1193T278 1248T290 1298T316 1347T358 1376T406
1387T455 1381Q509 1364 538 1342L653 1252Q703 1210 715 1208T738 1202T759 1203T780 1218T799 1248T809 1280T815 1316T823 1347T850 1345T874 1329Q873 1322 871 1289T865 1234T853 1184T827 1135T785 1106Q732 1087 697 1098L646 1116Q620 1126 563 1170ZM261
756T230 690T199 521T255 317T410 156T606 96T765 140T859 254T892 408Q892 585 780 712T478 839Q391 839 326 798ZM136 186T96 276T55 489T118 728T299 909T544 974Q776 974 913 829T1050 475T906 125T540 -18Q446 -18 358 20T203 122Z" />
<glyph unicode="&#xf6;" glyph-name="odieresis" horiz-adv-x="1104" d="M727 1100Q715 1090 705 1100L615 1193Q606 1205 615 1217L705 1314Q716 1325 727 1314L819 1217Q829 1204 819 1193L727 1100ZM387 1100Q375 1090 365 1100L275 1193Q266 1205 275 1217L365
1314Q376 1325 387 1314L479 1217Q489 1204 479 1193L387 1100ZM261 756T230 690T199 521T255 317T410 156T606 96T765 140T859 254T892 408Q892 585 780 712T478 839Q391 839 326 798ZM136 186T96 276T55 489T118 728T299 909T544 974Q776 974 913 829T1050 475T906
125T540 -18Q446 -18 358 20T203 122Z" />
<glyph unicode="&#xf7;" glyph-name="divide" horiz-adv-x="1136" d="M580 1098Q566 1088 554 1098L442 1214Q431 1230 442 1245L554 1366Q567 1377 580 1366L696 1245Q707 1229 696 1214L580 1098ZM580 389Q566 378 554 389L442 505Q431 520 442 536L554 657Q567
668 580 657L696 536Q707 520 696 505L580 389ZM1061 817Q1061 803 1044 803H92Q75 803 75 817V939Q75 953 92 953H1044Q1061 953 1061 939V817Z" />
<glyph unicode="&#xf8;" glyph-name="oslash" horiz-adv-x="1131" d="M123 276Q83 366 83 489T146 727T327 908T572 974Q759 974 884 880L960 956Q977 975 1002 967T1041 936T1040 900L954 814Q1078 673 1078 475Q1079 267 935 125T568 -18Q474 -18 386 20Q309
53 249 105L145 0Q126 -19 102 -11T64 19T65 56L183 175Q148 220 123 276ZM289 756T258 690T227 521T284 317Q291 304 299 291L761 756Q659 839 506 839Q419 839 354 798ZM828 687L360 216Q395 182 438 156Q537 96 634 96T793 140T887 254T920 408Q920 568 828
687Z" />
<glyph unicode="&#xf9;" glyph-name="ugrave" horiz-adv-x="1199" d="M441 1497L602 1136Q609 1126 603 1120Q567 1081 547 1104Q357 1335 297 1395Q286 1410 297 1426L415 1497Q428 1508 441 1497ZM94 786L95 804Q95 807 165 863T287 953H336Q342 947 342 922V311Q342
248 382 199Q462 103 608 103Q708 103 833 169L877 192V810Q877 883 828 902Q815 907 807 912T799 935T812 953H1037Q1043 953 1043 628L1042 236Q1042 180 1076 150Q1084 143 1102 142T1125 137T1131 114T1127 92L932 -10Q928 -13 906 -13T880 -9T876 18V105Q875
105 860 94Q673 -29 546 -29Q461 -29 375 14T233 132T177 286V687Q177 729 161 747T126 766T102 771Q94 777 94 786Z" />
<glyph unicode="&#xfa;" glyph-name="uacute" horiz-adv-x="1199" d="M785 1497Q798 1508 811 1497L929 1426Q940 1410 929 1395Q929 1395 863 1324L681 1106Q659 1081 623 1120Q617 1126 624 1136L785 1497ZM94 786L95 804Q95 807 165 863T287 953H336Q342 947
342 922V311Q342 248 382 199Q462 103 608 103Q708 103 833 169L877 192V810Q877 883 828 902Q815 907 807 912T799 935T812 953H1037Q1043 953 1043 628L1042 236Q1042 180 1076 150Q1084 143 1102 142T1125 137T1131 114T1127 92L932 -10Q928 -13 906 -13T880
-9T876 18V105Q875 105 860 94Q673 -29 546 -29Q461 -29 375 14T233 132T177 286V687Q177 729 161 747T126 766T102 771Q94 777 94 786Z" />
<glyph unicode="&#xfb;" glyph-name="ucircumflex" horiz-adv-x="1199" d="M581 1453Q589 1458 598 1453L847 1145Q857 1136 853 1130Q829 1085 801 1102L590 1252L378 1102Q349 1084 326 1131Q323 1137 331 1145L581 1453ZM94 786L95 804Q95 807 165 863T287
953H336Q342 947 342 922V311Q342 248 382 199Q462 103 608 103Q708 103 833 169L877 192V810Q877 883 828 902Q815 907 807 912T799 935T812 953H1037Q1043 953 1043 628L1042 236Q1042 180 1076 150Q1084 143 1102 142T1125 137T1131 114T1127 92L932 -10Q928
-13 906 -13T880 -9T876 18V105Q875 105 860 94Q673 -29 546 -29Q461 -29 375 14T233 132T177 286V687Q177 729 161 747T126 766T102 771Q94 777 94 786Z" />
<glyph unicode="&#xfc;" glyph-name="udieresis" horiz-adv-x="1199" d="M775 1100Q763 1090 753 1100L663 1193Q654 1205 663 1217L753 1314Q764 1325 775 1314L867 1217Q877 1204 867 1193L775 1100ZM435 1100Q423 1090 413 1100L323 1193Q314 1205 323 1217L413
1314Q424 1325 435 1314L527 1217Q537 1204 527 1193L435 1100ZM94 786L95 804Q95 807 165 863T287 953H336Q342 947 342 922V311Q342 248 382 199Q462 103 608 103Q708 103 833 169L877 192V810Q877 883 828 902Q815 907 807 912T799 935T812 953H1037Q1043 953
1043 628L1042 236Q1042 180 1076 150Q1084 143 1102 142T1125 137T1131 114T1127 92L932 -10Q928 -13 906 -13T880 -9T876 18V105Q875 105 860 94Q673 -29 546 -29Q461 -29 375 14T233 132T177 286V687Q177 729 161 747T126 766T102 771Q94 777 94 786Z" />
<glyph unicode="&#xfd;" glyph-name="yacute" horiz-adv-x="1041" d="M753 1497Q766 1508 779 1497L897 1426Q908 1410 897 1395Q897 1395 831 1324L649 1106Q627 1081 591 1120Q585 1126 592 1136L753 1497ZM19 -413Q6 -413 6 -391T10 -362T30 -351Q247 -272
453 85V92L40 879Q23 911 23 932T36 953H296Q309 953 309 936T301 914T282 905Q255 896 255 874T259 847L543 299H572L845 847Q849 851 849 869Q849 893 822 903T795 925Q795 953 808 953H1011Q1024 953 1024 936Q1024 914 1015 896L780 423Q722 308 686 243L594
84Q539 -10 492 -79L384 -229Q324 -310 260 -387Q237 -414 221 -414L19 -413Z" />
<glyph unicode="&#xfe;" glyph-name="thorn" horiz-adv-x="1137" d="M94 1471L95 1489Q95 1494 100 1497T107 1502L287 1635Q291 1638 312 1638T337 1635T341 1607V840Q362 867 425 903Q546 974 649 974T841 935T994 828Q1131 684 1131 476T987 125T620 -18Q469
-18 341 74V-238Q341 -243 341 -259T340 -280Q348 -345 383 -359T419 -385Q419 -413 406 -413H111Q98 -413 98 -395T106 -372T127 -362T147 -350Q178 -319 178 -281T177 -238V1389Q176 1422 161 1435T127 1450T103 1456Q94 1462 94 1471ZM825 759T750 791T569 824T341
704V309Q398 211 495 154T688 96T845 140T939 254T972 408T947 568T873 701Z" />
<glyph unicode="&#xff;" glyph-name="ydieresis" horiz-adv-x="1041" d="M736 1100Q724 1090 714 1100L624 1193Q615 1205 624 1217L714 1314Q725 1325 736 1314L828 1217Q838 1204 828 1193L736 1100ZM396 1100Q384 1090 374 1100L284 1193Q275 1205 284 1217L374
1314Q385 1325 396 1314L488 1217Q498 1204 488 1193L396 1100ZM19 -413Q6 -413 6 -391T10 -362T30 -351Q247 -272 453 85V92L40 879Q23 911 23 932T36 953H296Q309 953 309 936T301 914T282 905Q255 896 255 874T259 847L543 299H572L845 847Q849 851 849 869Q849
893 822 903T795 925Q795 953 808 953H1011Q1024 953 1024 936Q1024 914 1015 896L780 423Q722 308 686 243L594 84Q539 -10 492 -79L384 -229Q324 -310 260 -387Q237 -414 221 -414L19 -413Z" />
<glyph unicode="&#x2013;" glyph-name="endash" horiz-adv-x="1024" d="M1024 703Q1024 689 1007 689H17Q0 689 0 703V825Q0 839 17 839H1007Q1024 839 1024 825V703Z" />
<glyph unicode="&#x2014;" glyph-name="emdash" horiz-adv-x="2048" d="M2048 703Q2048 689 2031 689H17Q0 689 0 703V825Q0 839 17 839H2031Q2048 839 2048 825V703Z" />
<glyph unicode="&#x2018;" glyph-name="quoteleft" horiz-adv-x="475" d="M303 1369Q346 1330 329 1307L217 1186Q204 1175 191 1186L75 1307Q64 1323 75 1338Q75 1338 141 1409L323 1627Q344 1652 381 1613Q388 1606 344 1548T285 1469Q257 1430 283 1387Q285
1386 303 1369Z" />
<glyph unicode="&#x201c;" glyph-name="quotedblleft" horiz-adv-x="773" d="M293 1369Q336 1330 319 1307L207 1186Q194 1175 181 1186L65 1307Q54 1323 65 1338Q65 1338 131 1409L313 1627Q334 1652 371 1613Q378 1606 334 1548T275 1469Q247 1430 273 1387Q275
1386 293 1369ZM357 1369Q400 1330 383 1307L271 1186Q258 1175 245 1186L129 1307Q118 1323 129 1338Q129 1338 195 1409L377 1627Q398 1652 435 1613Q442 1606 398 1548T339 1469Q311 1430 337 1387Q339 1386 357 1369Z" />
<glyph unicode="&#x2022;" glyph-name="bullet" horiz-adv-x="448" d="M235 685Q221 674 209 685L97 801Q86 816 97 832L209 953Q222 964 235 953L351 832Q362 816 351 801L235 685Z" />
<glyph unicode="&#x2039;" glyph-name="guilsinglleft" horiz-adv-x="539" d="M93 1205H92Q87 1214 92 1222H93L400 1471Q410 1486 431 1468T450 1443L444 1425L294 1213L444 1002L450 984Q455 970 414 950Q407 946 400 955L93 1205Z" />
<glyph unicode="&#x203a;" glyph-name="guilsinglright" horiz-adv-x="539" d="M447 1222H448Q453 1214 448 1205H447L140 956Q130 941 109 959T90 984L96 1002L246 1214L96 1425L90 1443Q85 1457 126 1477Q133 1481 140 1472L447 1222Z" />
</font>
</defs>
</svg>
