<?xml version="1.0" standalone="no"?>
<!DOCTYPE svg PUBLIC "-//W3C//DTD SVG 1.1//EN" "http://www.w3.org/Graphics/SVG/1.1/DTD/svg11.dtd">
<svg xmlns="http://www.w3.org/2000/svg">
<defs >
<font id="RopaSans" horiz-adv-x="439" ><font-face
    font-family="Ropa Sans"
    units-per-em="1000"
    panose-1="0 0 5 0 0 0 0 0 0 0"
    ascent="841"
    descent="-231"
    alphabetic="0" />
<glyph unicode=" " glyph-name="space" horiz-adv-x="180" />
<glyph unicode="!" glyph-name="exclam" horiz-adv-x="211" d="M210 695L134 200H53L115 695H210ZM103 108T117 95T129 59L125 30Q122 9 108 -1T66 -12Q39 -12 25 1T14 36L17 59Q20 85 33 96T76 108Q103 108 117 95Z" />
<glyph unicode="&quot;" glyph-name="quotedbl" horiz-adv-x="315" d="M185 683L150 429H65L100 683H185ZM325 683L290 429H205L240 683H325Z" />
<glyph unicode="#" glyph-name="numbersign" horiz-adv-x="556" d="M491 613L473 488H553L543 418H463L432 195H512L502 125H422L405 0H320L337 125H181L164 0H79L96 125H16L26 195H106L137 418H57L67 488H147L165 613H250L232 488H388L406 613H491ZM378 418H222L191
195H347L378 418Z" />
<glyph unicode="$" glyph-name="dollar" horiz-adv-x="441" d="M314 610Q374 602 417 585L404 509Q341 529 292 539Q283 540 262 540Q162 540 149 463L148 457Q146 439 146 433Q146 370 212 348L272 327Q399 282 399 174Q399 159 396 142L395 135Q386 69 348 34T227
-10L215 -94H140L152 -11Q122 -8 90 0T31 19L42 97Q105 71 160 62Q168 61 182 61Q247 61 275 79T309 138L311 153Q312 158 312 167Q312 195 294 215T235 250L179 270Q116 293 88 330T59 421Q59 445 63 468L64 474Q75 540 116 574T240 612L251 695H326L314 610Z"
/>
<glyph unicode="%" glyph-name="percent" horiz-adv-x="860" d="M314 625T350 591T387 494Q387 472 385 461L381 431Q360 275 207 275Q139 275 101 311T63 410Q63 427 66 446L71 476Q84 553 125 589T245 625Q314 625 350 591ZM697 613L276 0H185L606 613H697ZM201
550T181 531T155 468L151 438Q149 422 149 415Q149 350 215 350Q251 350 270 369T296 433L300 463Q302 479 302 486Q302 550 237 550Q201 550 181 531ZM745 338T781 304T818 207Q818 185 816 174L812 144Q791 -12 638 -12Q570 -12 532 24T494 123Q494 140 497 159L502
189Q515 266 556 302T676 338Q745 338 781 304ZM632 263T612 244T586 181L582 151Q580 135 580 128Q580 63 646 63Q682 63 701 82T727 146L731 176Q733 192 733 199Q733 263 668 263Q632 263 612 244Z" />
<glyph unicode="&amp;" glyph-name="ampersand" horiz-adv-x="540" d="M344 667T420 651L408 577Q342 597 288 597Q238 597 210 573T178 505L176 483Q171 432 202 400T294 367H385L395 440H477L467 367H541L531 298H457L419 23Q349 3 308 -4T221 -12Q122 -12 71
30T19 143Q19 155 23 181L26 198Q35 250 76 287T187 340Q141 359 117 396T92 478Q92 493 93 500L96 522Q105 588 156 627T294 667Q344 667 420 651ZM278 298Q204 298 161 268T110 186L108 172Q107 166 107 156Q107 112 140 87T238 61Q290 61 344 75L375 298H278Z"
/>
<glyph unicode="&apos;" glyph-name="quotesingle" horiz-adv-x="175" d="M185 683L150 429H65L100 683H185Z" />
<glyph unicode="(" glyph-name="parenleft" horiz-adv-x="231" d="M298 677Q266 681 258 681Q230 681 219 668T203 619L124 70Q120 38 120 29Q120 0 136 -10T197 -22L187 -94Q128 -94 96 -85T50 -52T35 14Q35 39 42 90L114 590Q123 654 136 688T175 738T246 754Q270
754 308 749L298 677Z" />
<glyph unicode=")" glyph-name="parenright" horiz-adv-x="231" d="M114 749T146 740T192 707T207 641Q207 616 200 565L129 65Q120 1 107 -33T68 -83T-3 -99Q-27 -99 -65 -94L-55 -22Q-23 -26 -15 -26Q13 -26 24 -13T40 36L118 585Q122 617 122 626Q122 655 106
665T45 677L55 749Q114 749 146 740Z" />
<glyph unicode="*" glyph-name="asterisk" horiz-adv-x="410" d="M276 695L266 583L369 627L392 561L281 536L355 452L298 411L241 507L184 410L128 452L202 537L92 561L115 627L217 584L207 695H276Z" />
<glyph unicode="+" glyph-name="plus" horiz-adv-x="390" d="M261 488L240 336H380L370 265H230L208 113H132L154 265H14L24 336H164L185 488H261Z" />
<glyph unicode="," glyph-name="comma" horiz-adv-x="220" d="M104 108T119 95T134 60L133 51L130 26Q128 12 125 2T116 -19L52 -161H-8L49 -9Q33 -5 25 9T19 42L23 70Q26 89 39 98T79 108Q104 108 119 95Z" />
<glyph unicode="-" glyph-name="hyphen" horiz-adv-x="350" d="M291 328L281 263H61L71 328H291Z" />
<glyph unicode="." glyph-name="period" horiz-adv-x="221" d="M108 108T122 95T134 59L130 30Q127 9 113 -1T71 -12Q44 -12 30 1T19 36L22 59Q25 85 38 96T81 108Q108 108 122 95Z" />
<glyph unicode="/" glyph-name="slash" horiz-adv-x="275" d="M335 683L35 0H-50L250 683H335Z" />
<glyph unicode="0" glyph-name="zero" horiz-adv-x="500" d="M369 613T412 573T456 452Q456 439 452 405L422 190Q394 -12 214 -12Q133 -12 91 29T48 149Q48 162 52 196L82 411Q110 613 290 613Q369 613 412 573ZM234 541T206 512T168 419L136 188Q134 176 134
155Q134 108 156 84T221 60Q270 60 298 89T336 182L368 413Q370 425 370 446Q370 494 348 517T283 541Q234 541 206 512Z" />
<glyph unicode="1" glyph-name="one" horiz-adv-x="312" d="M281 601L197 0H112L184 519H182L41 462L35 535L206 601H281Z" />
<glyph unicode="2" glyph-name="two" horiz-adv-x="387" d="M282 613T324 580T366 484Q366 475 364 455L361 433Q355 389 331 348T251 248L80 71H306L297 0H-30L-21 62L214 318Q242 348 256 375T275 432L278 452Q280 468 280 475Q280 510 258 526T190 543Q134
543 58 511L68 588Q101 599 139 606T204 613Q282 613 324 580Z" />
<glyph unicode="3" glyph-name="three" horiz-adv-x="387" d="M273 613T315 577T357 480Q357 471 355 455L354 448Q339 344 247 311Q285 296 307 262T329 184Q329 172 328 166L327 156Q319 78 268 33T126 -12Q99 -12 60 -5T-10 14L-1 85Q27 73 63 65T126 56Q174
56 203 80T240 150L243 172Q244 179 244 193Q244 234 221 255T152 277H63L73 343H162Q210 343 236 369T270 448L271 455Q273 469 273 475Q273 511 252 529T192 548Q148 548 64 527L74 596Q151 613 202 613Q273 613 315 577Z" />
<glyph unicode="4" glyph-name="four" horiz-adv-x="423" d="M396 601L339 199H400L391 129H330L312 0H229L247 129H-25L-17 188L299 601H396ZM300 504L75 199H257L259 213L300 504Z" />
<glyph unicode="5" glyph-name="five" horiz-adv-x="441" d="M392 532H169L136 334Q167 357 202 369T268 382Q396 382 396 245Q396 225 393 199L390 175Q377 81 325 35T177 -12Q141 -12 98 -4T21 16L31 90Q65 78 110 69T180 60Q289 60 305 175L309 202Q312 220
312 234Q312 311 246 311Q209 311 177 296T109 246H44L94 604H402L392 532Z" />
<glyph unicode="6" glyph-name="six" horiz-adv-x="475" d="M325 612T363 606T428 592L418 518Q335 542 291 542Q251 542 225 526T182 472T156 365L150 322Q187 357 222 373T289 389Q352 389 387 354T422 250Q422 230 419 207L414 173Q401 80 354 34T218 -12Q134
-12 90 32T46 163Q46 187 51 224L71 364Q90 498 144 555T295 612Q325 612 363 606ZM240 315T206 298T140 250L132 192Q130 181 130 160Q130 112 153 86T219 60Q268 60 293 85T328 168L335 210Q337 219 337 236Q337 274 318 294T268 315Q240 315 206 298Z" />
<glyph unicode="7" glyph-name="seven" horiz-adv-x="378" d="M409 600L401 539L101 0H12L309 525V527H38L48 600H409Z" />
<glyph unicode="8" glyph-name="eight" horiz-adv-x="460" d="M338 613T382 575T426 474Q426 459 423 444L422 438Q414 394 395 366T338 319Q376 301 395 269T414 194Q414 178 413 170L411 154Q401 75 349 32T203 -12Q116 -12 67 29T18 140Q18 149 20 167L22 182Q36
291 143 328Q115 345 100 374T84 439Q84 457 86 466L87 472Q111 613 268 613Q338 613 382 575ZM223 547T201 527T171 462L170 456Q168 434 168 427Q168 388 187 371T247 353Q291 353 311 371T340 440L341 446Q343 455 343 472Q343 547 263 547Q223 547 201 527ZM178
287T147 259T108 181L107 174Q105 160 105 153Q105 109 132 84T207 59Q310 59 324 155L327 175Q329 189 329 196Q329 239 303 263T229 287Q178 287 147 259Z" />
<glyph unicode="9" glyph-name="nine" horiz-adv-x="475" d="M346 612T390 570T435 449Q435 429 432 408L404 202Q388 88 336 38T182 -12Q152 -12 113 -5T51 11L61 86Q84 76 123 68T184 60Q243 60 275 92T318 202L329 278Q248 211 183 211Q124 211 91 248T58 358Q58
379 61 404L65 435Q77 525 125 568T266 612Q346 612 390 570ZM209 540T184 516T150 440L144 401Q142 390 142 371Q142 329 161 307T211 285Q259 285 339 350L350 423Q352 441 352 448Q352 492 327 516T259 540Q209 540 184 516Z" />
<glyph unicode=":" glyph-name="colon" horiz-adv-x="221" d="M108 108T122 95T134 59L130 30Q127 9 113 -1T71 -12Q44 -12 30 1T19 36L22 59Q25 85 38 96T81 108Q108 108 122 95ZM160 478T174 465T186 429L182 400Q179 379 165 369T123 358Q96 358 82 371T71
406L74 429Q77 455 90 466T133 478Q160 478 174 465Z" />
<glyph unicode=";" glyph-name="semicolon" horiz-adv-x="221" d="M104 108T119 95T134 60L133 51L130 26Q128 12 125 2T116 -19L52 -161H-8L49 -9Q33 -5 25 9T19 42L23 70Q26 89 39 98T79 108Q104 108 119 95ZM160 478T174 465T186 429L182 400Q179 379 165 369T123
358Q96 358 82 371T71 406L74 429Q77 455 90 466T133 478Q160 478 174 465Z" />
<glyph unicode="&lt;" glyph-name="less" horiz-adv-x="390" d="M404 494L392 411L100 297L360 182L348 99L11 259L21 334L404 494Z" />
<glyph unicode="=" glyph-name="equal" horiz-adv-x="390" d="M391 421L381 351H27L37 421H391ZM367 250L357 180H3L13 250H367Z" />
<glyph unicode="&gt;" glyph-name="greater" horiz-adv-x="390" d="M44 494L381 334L371 259L-12 99L0 182L292 297L32 411L44 494Z" />
<glyph unicode="?" glyph-name="question" horiz-adv-x="395" d="M297 695T337 661T377 569Q377 560 375 542L373 527Q367 482 343 444T265 357L225 321Q208 306 199 287T183 227L179 200H103L107 228Q114 275 128 306T172 365L231 422Q264 453 275 476T291 535L292
545L293 559Q293 591 271 609T197 627Q170 627 134 619T70 599L80 672Q114 683 149 689T211 695Q297 695 337 661ZM152 108T166 95T178 59L174 30Q171 9 157 -1T115 -12Q88 -12 74 1T63 36L66 59Q69 85 82 96T125 108Q152 108 166 95Z" />
<glyph unicode="@" glyph-name="at" horiz-adv-x="930" d="M667 695T769 601T872 318V268Q872 194 847 137T773 48T659 15Q603 15 570 40T533 111L565 218L563 220L560 219Q492 16 376 16Q325 16 296 51T266 151Q266 170 269 192L285 312Q296 397 340 442T447
487Q481 487 511 471T567 425L574 475H654L613 165Q611 147 611 141Q611 116 622 103T660 90Q695 90 724 113T770 176T787 268V318Q787 466 704 542T457 619Q310 619 229 533T147 288V188Q147 42 225 -33T457 -109H592V-185H457Q62 -185 62 188V288Q62 475 161
585T457 695Q667 695 769 601ZM424 414T401 388T370 307L356 203Q353 176 353 157Q353 121 364 107T400 92Q452 92 490 153T548 294L556 358Q537 384 511 399T458 414Q424 414 401 388Z" />
<glyph unicode="A" glyph-name="A" horiz-adv-x="532" d="M483 0H392Q386 47 370 152H131Q97 65 67 0H-23L257 655H362L483 0ZM227 385T163 228H358Q332 394 299 576Q227 385 163 228Z" />
<glyph unicode="B" glyph-name="B" horiz-adv-x="528" d="M227 667T284 667Q385 667 439 626T493 517L492 503L491 492Q480 375 373 340Q422 327 451 290T480 202Q480 194 478 178L476 163Q464 78 404 33T232 -12Q156 -12 38 -3L120 662Q227 667 284 667ZM271
367Q330 367 364 397T404 480L405 489Q406 495 406 506Q406 551 374 572T273 594Q240 594 196 591L168 367H271ZM191 62T230 62Q308 62 346 89T393 173L395 186Q397 200 397 206Q397 250 363 274T263 298H159L131 68Q191 62 230 62Z" />
<glyph unicode="C" glyph-name="C" horiz-adv-x="476" d="M336 667T376 661T452 643L441 563Q406 577 369 585T301 593Q190 593 176 469L143 194Q141 170 141 160Q141 110 165 88T241 66Q306 66 391 104L383 24Q351 8 307 -2T228 -12Q142 -12 99 29T56 157Q56
180 59 207L90 463Q103 567 156 617T303 667Q336 667 376 661Z" />
<glyph unicode="D" glyph-name="D" horiz-adv-x="573" d="M191 667T291 667Q402 667 461 609T521 445Q521 421 518 395L497 229Q482 109 413 49T216 -12Q131 -12 39 -3L121 662Q191 667 291 667ZM187 61T224 61Q301 61 351 104T412 227L434 402Q437 423 437 442Q437
517 397 556T285 595L197 593L132 68Q187 61 224 61Z" />
<glyph unicode="E" glyph-name="E" horiz-adv-x="485" d="M39 0L119 655H464L454 578H194L169 371H409L399 295H159L132 77H392L384 0H39Z" />
<glyph unicode="F" glyph-name="F" horiz-adv-x="464" d="M464 655L454 578H194L169 371H365L355 295H159L124 0H39L119 655H464Z" />
<glyph unicode="G" glyph-name="G" horiz-adv-x="555" d="M157 -12T107 34T56 167Q56 187 59 208L90 465Q102 568 156 617T316 667Q356 667 407 659T497 638L487 560Q446 575 399 584T312 594Q249 594 216 565T175 471L141 193Q139 175 139 167Q139 115 169 89T256
63Q319 63 374 85L400 298H274L285 378H495L454 45Q408 21 354 5T253 -12Q157 -12 107 34Z" />
<glyph unicode="H" glyph-name="H" horiz-adv-x="580" d="M384 0L420 300H160L124 0H39L119 655H204L169 376H429L464 655H549L469 0H384Z" />
<glyph unicode="I" glyph-name="I" horiz-adv-x="235" d="M39 0L119 655H204L124 0H39Z" />
<glyph unicode="J" glyph-name="J" horiz-adv-x="287" d="M192 137Q182 56 149 22T50 -12Q32 -12 3 -8T-42 2L-33 75Q7 61 43 61Q73 61 87 77T107 134L171 655H256L192 137Z" />
<glyph unicode="K" glyph-name="K" horiz-adv-x="525" d="M119 655H204L167 352Q335 523 439 655H543L255 338L489 0H381Q317 104 269 177T164 325L124 0H39L119 655Z" />
<glyph unicode="L" glyph-name="L" horiz-adv-x="450" d="M39 0L119 655H204L132 75H392L384 0H39Z" />
<glyph unicode="M" glyph-name="M" horiz-adv-x="699" d="M593 0H509L568 535L371 68H267L187 533L118 0H34L120 655H241Q299 364 325 146Q432 381 534 655H667L593 0Z" />
<glyph unicode="N" glyph-name="N" horiz-adv-x="582" d="M190 556L123 0H39L119 655H244Q332 371 399 100L467 655H551L471 0H346L190 556Z" />
<glyph unicode="O" glyph-name="O" horiz-adv-x="576" d="M422 667T474 619T527 484Q527 460 525 447L494 198Q468 -12 256 -12Q158 -12 107 35T55 169Q55 187 58 208L89 457Q103 565 160 616T327 667Q422 667 474 619ZM189 592T174 465L142 197Q140 179 140 171Q140
118 171 91T261 63Q392 63 408 191L441 458Q443 476 443 485Q443 538 412 565T321 592Q189 592 174 465Z" />
<glyph unicode="P" glyph-name="P" horiz-adv-x="510" d="M387 667T444 623T502 499Q502 483 499 465L497 451Q484 362 424 315T259 267Q225 267 157 280L124 0H39L120 662Q208 667 282 667Q387 667 444 623ZM238 596T196 594L165 347Q219 337 257 337Q326 337
363 366T412 456L414 467Q416 476 416 494Q416 542 381 569T279 596Q238 596 196 594Z" />
<glyph unicode="Q" glyph-name="Q" horiz-adv-x="576" d="M422 667T474 619T527 485Q527 460 525 447L494 198Q477 68 393 19L489 -6L481 -85H462L276 -11Q269 -12 256 -12Q158 -12 107 35T55 168Q55 187 58 208L89 457Q103 565 160 616T327 667Q422 667 474 619ZM189
592T174 465L142 197Q140 179 140 171Q140 118 171 91T261 63Q392 63 408 191L441 458Q443 476 443 484Q443 592 321 592Q189 592 174 465Z" />
<glyph unicode="R" glyph-name="R" horiz-adv-x="540" d="M389 667T445 622T501 505Q501 495 499 477L496 457Q488 401 450 358T352 296L489 0H392Q345 116 320 174T265 285Q214 285 159 293L124 0H39L120 662Q213 667 289 667Q389 667 445 622ZM196 594L167 358Q220
352 255 352Q393 352 412 465L413 471Q415 489 415 497Q415 545 382 570T282 596L196 594Z" />
<glyph unicode="S" glyph-name="S" horiz-adv-x="456" d="M359 331T386 293T414 199Q414 181 411 158L409 145Q397 66 348 27T209 -12Q166 -12 115 0T29 30L39 115Q108 80 166 66Q186 64 209 64Q261 64 288 85T323 152L325 163Q328 180 328 193Q328 225 312 245T258
281L169 317Q116 338 88 379T60 475Q60 500 66 527L68 536Q97 667 269 667Q300 667 342 661T420 645L409 564Q353 580 300 590Q285 591 265 591Q165 591 153 516L151 504Q149 488 149 480Q149 448 166 426T220 388L303 354Q359 331 386 293Z" />
<glyph unicode="T" glyph-name="T" horiz-adv-x="525" d="M64 578L74 655H539L529 578H339L269 0H184L254 578H64Z" />
<glyph unicode="U" glyph-name="U" horiz-adv-x="576" d="M489 201Q475 92 420 40T261 -12Q163 -12 112 34T60 165Q60 183 63 204L119 655H204L147 197Q145 181 145 173Q145 121 177 93T267 65Q328 65 361 96T403 194L460 655H545L489 201Z" />
<glyph unicode="V" glyph-name="V" horiz-adv-x="526" d="M283 0H171L57 655H142Q200 334 231 82Q360 368 462 655H557L283 0Z" />
<glyph unicode="W" glyph-name="W" horiz-adv-x="848" d="M638 0H524L456 558L253 0H139L69 655H156Q189 377 207 93Q311 355 407 655H521Q565 350 587 93Q681 343 774 655H867L638 0Z" />
<glyph unicode="X" glyph-name="X" horiz-adv-x="519" d="M319 335L470 0H370Q320 130 256 268L229 227Q129 75 76 0H-23L210 341L69 655H165Q212 548 270 405Q368 540 439 655H539L319 335Z" />
<glyph unicode="Y" glyph-name="Y" horiz-adv-x="491" d="M279 225L252 0H167L194 225L57 655H150Q205 471 244 315Q335 471 423 655H522L279 225Z" />
<glyph unicode="Z" glyph-name="Z" horiz-adv-x="480" d="M11 67L365 578H80L90 655H479L470 588Q300 364 115 77H407L399 0H4L11 67Z" />
<glyph unicode="[" glyph-name="bracketleft" horiz-adv-x="260" d="M340 747L330 677H210L111 -22H231L221 -92H16L135 747H340Z" />
<glyph unicode="\" glyph-name="backslash" horiz-adv-x="320" d="M95 683L300 0H215L10 683H95Z" />
<glyph unicode="]" glyph-name="bracketright" horiz-adv-x="260" d="M255 747L136 -92H-68L-58 -22H61L160 677H40L50 747H255Z" />
<glyph unicode="^" glyph-name="asciicircum" horiz-adv-x="495" d="M340 683L446 403H366L294 604L167 403H81L265 683H340Z" />
<glyph unicode="_" glyph-name="underscore" horiz-adv-x="610" d="M488 -120L478 -185H-2L8 -120H488Z" />
<glyph unicode="`" glyph-name="grave" horiz-adv-x="240" d="M30 685H120L210 546H139L30 685Z" />
<glyph unicode="a" glyph-name="a" horiz-adv-x="476" d="M261 500T292 484T348 438L354 488H434L366 0H285L294 65L335 190L333 192L330 191Q262 -12 146 -12Q96 -12 66 22T35 118Q35 143 39 164L65 327Q79 412 122 456T227 500Q261 500 292 484ZM167 427T150
322L126 175Q121 143 121 127Q121 93 133 79T170 64Q224 64 264 130T321 280L334 373Q314 398 289 412T238 427Q167 427 150 322Z" />
<glyph unicode="b" glyph-name="b" horiz-adv-x="471" d="M192 586T182 514L178 485L119 253L121 251L124 253Q159 375 205 437T312 500Q365 500 395 466T425 365Q425 332 418 297L394 177Q373 75 330 32T208 -12Q130 -12 89 27T47 141Q47 163 50 185L89 458Q106
580 109 683H194Q192 586 182 514ZM258 424T226 383T169 276T133 141Q132 102 152 81T208 59Q248 59 271 83T306 162L333 292Q340 324 340 351Q340 388 327 406T292 424Q258 424 226 383Z" />
<glyph unicode="c" glyph-name="c" horiz-adv-x="393" d="M116 -12T78 25T40 132Q40 152 43 173L64 321Q77 413 123 456T248 500Q300 500 362 482L350 406Q291 428 247 428Q207 428 182 403T150 328L129 174Q127 162 127 142Q127 100 145 82T198 63Q226 63 257
71T316 96L307 19Q242 -12 186 -12Q116 -12 78 25Z" />
<glyph unicode="d" glyph-name="d" horiz-adv-x="476" d="M366 0H285L294 65L335 190L333 192L330 191Q262 -12 146 -12Q96 -12 66 22T35 118Q35 143 39 164L66 331Q80 415 122 457T225 500Q257 500 287 485T343 443L376 683H461L366 0ZM203 424T181 400T150 322L126
175Q121 143 121 127Q121 93 133 79T170 64Q224 64 263 129T320 276L333 374Q314 398 289 411T238 424Q203 424 181 400Z" />
<glyph unicode="e" glyph-name="e" horiz-adv-x="436" d="M329 500T367 467T405 376Q405 296 337 241T127 173L126 162Q123 146 123 132Q123 61 198 61Q229 61 267 71T340 100L325 23Q291 7 253 -2T184 -12Q40 -12 40 133Q40 155 45 190L57 268Q74 382 128 441T263
500Q329 500 367 467ZM220 429T187 389T143 272L136 227Q202 238 244 254Q284 282 302 309T321 367Q321 396 305 412T260 429Q220 429 187 389Z" />
<glyph unicode="f" glyph-name="f" horiz-adv-x="294" d="M313 695T335 692T374 684L365 614Q322 626 292 626Q262 626 245 608T221 544L213 488H303L293 418H203L141 -32Q129 -119 95 -158T-5 -197Q-24 -197 -50 -193T-93 -183L-83 -112Q-46 -125 -11 -125Q18
-125 33 -106T55 -37L118 418H44L51 468L127 482L135 539Q157 695 297 695Q313 695 335 692Z" />
<glyph unicode="g" glyph-name="g" horiz-adv-x="478" d="M263 500T294 484T350 438L357 488H437L363 -36Q351 -121 308 -159T178 -197Q147 -197 108 -191T35 -175L45 -100Q79 -111 115 -117T181 -124Q227 -124 248 -105T277 -43L288 28L338 190L336 192L333 191Q263
-12 148 -12Q99 -12 69 22T38 118Q38 141 42 164L68 327Q82 412 125 456T229 500Q263 500 294 484ZM170 427T153 322L129 175Q124 143 124 126Q124 93 136 79T172 64Q229 64 269 136T326 295L337 372Q317 398 291 412T240 427Q170 427 153 322Z" />
<glyph unicode="h" glyph-name="h" horiz-adv-x="481" d="M197 586T187 514L183 485L122 240L125 238L128 240Q163 367 215 433T327 500Q377 500 403 471T429 379Q429 346 424 316L376 0H291L341 318Q345 342 345 364Q345 395 335 408T304 421Q269 421 233 373T167
243T124 65L115 0H30L94 458Q111 580 114 683H199Q197 586 187 514Z" />
<glyph unicode="i" glyph-name="i" horiz-adv-x="225" d="M30 0L98 488H183L115 0H30ZM209 595T195 585T154 575Q127 575 113 588T101 623L105 652Q108 674 122 684T163 695Q190 695 204 682T216 646L212 617Q209 595 195 585Z" />
<glyph unicode="j" glyph-name="j" horiz-adv-x="225" d="M203 595T189 585T148 575Q121 575 107 588T95 623L99 652Q102 674 116 684T157 695Q184 695 198 682T210 646L206 617Q203 595 189 585ZM107 -51Q96 -128 61 -162T-43 -197Q-62 -197 -85 -194T-124 -185L-114
-112Q-101 -117 -81 -120T-42 -124Q-13 -124 1 -111T21 -59L98 488H183L107 -51Z" />
<glyph unicode="k" glyph-name="k" horiz-adv-x="448" d="M197 586T187 514L183 485L121 239L124 237L127 239Q158 354 205 427T319 500Q363 500 390 470T418 392Q418 333 380 285T268 209L378 0H284Q227 126 174 229Q256 243 295 286T334 381Q334 403 323 416T294
429Q260 429 226 379T165 250T127 92L115 0H30L94 458Q111 580 114 683H199Q197 586 187 514Z" />
<glyph unicode="l" glyph-name="l" horiz-adv-x="225" d="M197 586T180 464L115 0H30L94 458Q111 580 114 683H199Q197 586 180 464Z" />
<glyph unicode="m" glyph-name="m" horiz-adv-x="736" d="M628 500T654 471T680 379Q680 346 675 316L627 0H542L591 313Q596 350 596 366Q596 397 586 409T556 421Q522 421 487 374T422 241T377 43L371 0H286L335 313Q340 350 340 366Q340 397 330 409T300 421Q266
421 231 374T166 241T121 43L115 0H30L98 488H178L167 409L122 240L125 238L128 240Q163 367 214 433T322 500Q419 500 422 392L378 240L381 238L384 240Q419 367 470 433T578 500Q628 500 654 471Z" />
<glyph unicode="n" glyph-name="n" horiz-adv-x="485" d="M377 500T403 471T429 379Q429 346 424 316L376 0H291L341 318Q345 342 345 364Q345 395 335 408T304 421Q269 421 232 374T165 238T119 30L115 0H30L98 488H178L167 409L122 240L125 238L128 240Q163
367 215 433T327 500Q377 500 403 471Z" />
<glyph unicode="o" glyph-name="o" horiz-adv-x="472" d="M385 85T336 37T205 -12Q125 -12 83 27T40 136Q40 153 43 172L63 316Q75 405 125 452T256 500Q335 500 377 461T419 352Q419 335 416 315L397 176Q385 85 336 37ZM334 338T334 345Q334 385 312 407T252
429Q164 429 150 327L127 165Q125 149 125 143Q125 104 147 82T208 59Q296 59 309 161L332 322Q334 338 334 345Z" />
<glyph unicode="p" glyph-name="p" horiz-adv-x="477" d="M368 500T398 465T429 363Q429 339 422 297L394 148Q364 -12 237 -12Q207 -12 175 1T119 38Q98 -89 72 -185H-12Q18 -69 42 97L98 488H178L170 430L124 254L126 252L129 254Q165 377 210 438T316 500Q368
500 398 465ZM263 424T229 383T169 274T133 134L128 99Q147 83 171 73T216 63Q254 63 277 86T311 160L337 292Q343 325 343 349Q343 387 330 405T296 424Q263 424 229 383Z" />
<glyph unicode="q" glyph-name="q" horiz-adv-x="476" d="M261 500T291 484T347 439L354 488H434L339 -185H254L285 28L335 190L333 192L330 191Q262 -12 146 -12Q96 -12 66 22T35 118Q35 143 39 164L65 327Q79 412 122 456T227 500Q261 500 291 484ZM167 427T150
322L126 175Q121 143 121 127Q121 93 133 79T170 64Q224 64 263 129T320 276L334 373Q315 398 290 412T238 427Q167 427 150 322Z" />
<glyph unicode="r" glyph-name="r" horiz-adv-x="325" d="M334 498L318 391Q306 394 292 394Q233 394 187 296T121 45L115 0H30L98 488H178L167 409L122 240L125 238L128 240Q163 367 212 433T318 500L334 498Z" />
<glyph unicode="s" glyph-name="s" horiz-adv-x="385" d="M240 500T273 495T338 480L326 403Q273 423 245 429L209 431Q142 431 134 380L133 374Q132 370 132 363Q132 344 142 329T173 305L255 267Q293 250 313 219T334 149Q334 138 333 132L331 116Q324 58 283
23T170 -12Q135 -12 94 -2T20 26L33 103Q53 92 80 81T129 63Q153 60 168 60Q239 60 249 124L250 130Q251 134 251 141Q251 159 241 174T212 199L132 236Q91 255 71 285T50 353Q50 370 52 379L55 395Q74 500 216 500Q240 500 273 495Z" />
<glyph unicode="t" glyph-name="t" horiz-adv-x="341" d="M198 488H328L318 418H188L148 132Q147 125 147 112Q147 85 159 73T197 61Q216 61 243 68T287 83L277 10Q260 1 233 -5T185 -12Q122 -12 92 14T61 99Q61 118 64 139L104 418H33L40 468L120 483L166 618H216L198
488Z" />
<glyph unicode="u" glyph-name="u" horiz-adv-x="486" d="M376 0H296L300 28L346 190L344 192L341 191Q273 -12 157 -12Q106 -12 77 21T47 119Q47 131 51 165L98 488H183L137 175Q133 151 133 128Q133 93 145 79T181 64Q245 64 284 148T336 326L359 488H445L376 0Z" />
<glyph unicode="v" glyph-name="v" horiz-adv-x="432" d="M230 0H121L38 488H121Q158 275 177 67L179 65L182 67Q241 195 274 274T357 488H450L230 0Z" />
<glyph unicode="w" glyph-name="w" horiz-adv-x="678" d="M508 0H399L357 414L197 0H89L48 488H135Q150 311 150 134V75L153 73L155 75Q226 246 308 488H423Q450 302 460 75L462 73L465 75Q533 258 596 488H686L508 0Z" />
<glyph unicode="x" glyph-name="x" horiz-adv-x="421" d="M259 252L376 0H284Q249 91 203 189L201 191L198 189Q120 72 67 0H-35L151 252L43 488H137Q164 430 210 315L212 313L215 315Q268 389 332 488H433L259 252Z" />
<glyph unicode="y" glyph-name="y" horiz-adv-x="486" d="M371 -36Q359 -122 316 -159T186 -197Q155 -197 116 -191T43 -175L53 -100Q87 -111 123 -117T189 -124Q235 -124 257 -105T285 -43L296 28L346 190L344 192L341 191Q273 -12 157 -12Q106 -12 77 21T47
119Q47 131 51 165L98 488H183L137 175Q133 151 133 128Q133 93 145 79T181 64Q245 64 284 148T336 326L359 488H445L371 -36Z" />
<glyph unicode="z" glyph-name="z" horiz-adv-x="401" d="M380 423Q233 258 110 75H331L321 0H-5L4 65L268 413H58L68 488H389L380 423Z" />
<glyph unicode="{" glyph-name="braceleft" horiz-adv-x="256" d="M323 677Q300 681 281 681Q254 681 244 666T226 603L203 449Q196 398 178 371T128 334Q151 326 162 308T173 258Q173 242 170 219L148 67Q144 35 144 28Q144 -2 160 -12T222 -22L212 -92Q153 -92
121 -83T74 -52T59 13Q59 37 66 88L85 219Q88 236 88 249Q88 276 75 287T32 299H7L16 369H41Q78 369 94 386T118 449L138 584Q148 651 161 687T200 738T271 754Q293 754 333 749L323 677Z" />
<glyph unicode="|" glyph-name="bar" horiz-adv-x="225" d="M227 798L99 -112H14L142 798H227Z" />
<glyph unicode="}" glyph-name="braceright" horiz-adv-x="256" d="M114 747T146 738T193 707T208 642Q208 618 201 567L183 449Q180 433 180 419Q180 392 193 381T236 369H261L252 299H227Q190 299 173 282T150 219L131 71Q122 4 109 -32T70 -83T-2 -99Q-24 -99
-64 -94L-54 -22Q-31 -26 -12 -26Q15 -26 26 -10T43 52L65 219Q72 269 90 296T140 334Q117 342 106 360T95 410Q95 427 98 449L119 588Q123 620 123 627Q123 657 107 667T45 677L55 747Q114 747 146 738Z" />
<glyph unicode="~" glyph-name="asciitilde" horiz-adv-x="390" d="M371 279Q367 277 353 270T316 257T267 251Q243 251 227 254T189 265Q169 272 154 275T115 279Q99 279 76 274T36 262T13 254L23 324Q27 326 41 333T78 346T127 352Q151 352 168 349T206 338Q226
331 242 328T279 324Q295 324 318 329T358 341T381 349L371 279Z" />
<glyph unicode="&#xa0;" glyph-name="nbspace" horiz-adv-x="180" />
<glyph unicode="&#xa1;" glyph-name="exclamdown" horiz-adv-x="211" d="M98 403T84 416T72 452L76 481Q79 502 93 512T135 523Q162 523 176 510T187 475L184 452Q181 426 168 415T125 403Q98 403 84 416ZM-9 -184L67 311H148L86 -184H-9Z" />
<glyph unicode="&#xa2;" glyph-name="cent" horiz-adv-x="390" d="M124 174Q122 162 122 142Q122 100 140 82T193 63Q221 63 252 71T311 96L302 19Q256 -2 219 -8L208 -88H133L144 -9Q91 0 63 36T35 132Q35 152 38 173L59 321Q82 484 215 499L226 576H301L290
497Q319 493 357 482L345 406Q286 428 242 428Q202 428 177 403T145 328L124 174Z" />
<glyph unicode="&#xa3;" glyph-name="sterling" horiz-adv-x="397" d="M300 613T335 607T391 593L381 521Q358 530 330 536T279 543Q240 543 220 525T194 465L182 375H277L267 305H172L158 204Q151 149 139 122T99 74H362L352 0H5L13 60Q60 108 69 176L87 305H17L27
375H97L109 460Q120 540 160 576T277 613Q300 613 335 607Z" />
<glyph unicode="&#xa4;" glyph-name="currency" horiz-adv-x="470" d="M475 467L406 407Q414 381 414 357Q414 341 411 323L408 303Q401 254 374 213L430 149L367 93L313 156Q270 132 211 132Q154 132 117 154L49 93L0 149L71 210Q59 239 59 273Q59 281 61 303L64
323Q71 374 95 410L45 467L109 523L155 468Q202 494 262 494Q324 494 363 466L427 523L475 467ZM205 421T179 394T146 323L143 303Q141 287 141 280Q141 245 160 225T221 204Q268 204 294 231T326 303L329 323Q331 339 331 346Q331 381 312 401T252 421Q205 421
179 394Z" />
<glyph unicode="&#xa5;" glyph-name="yen" horiz-adv-x="455" d="M287 259H359L350 189H255L249 148H344L334 78H240L230 0H145L155 78H60L70 148H164L170 189H76L86 259H157L39 601H130Q178 457 221 280Q329 458 404 601H504L287 259Z" />
<glyph unicode="&#xa6;" glyph-name="brokenbar" horiz-adv-x="225" d="M227 801L172 408H87L142 801H227ZM154 278L98 -115H13L69 278H154Z" />
<glyph unicode="&#xa7;" glyph-name="section" horiz-adv-x="418" d="M278 695T311 690T376 675L364 598Q311 618 283 624L247 626Q214 626 196 610T175 565L174 556L173 543Q173 498 213 480L311 436Q399 396 399 311Q399 297 398 290L396 274Q391 229 358 198T271
155Q330 116 330 41Q330 26 329 19L327 2Q321 -53 281 -85T160 -118Q136 -118 103 -113T38 -98L50 -21Q103 -41 131 -47L167 -49Q205 -49 225 -33T248 12L249 21L250 34Q250 79 210 97L112 141Q24 180 24 267Q24 280 25 287L27 303Q34 348 67 379T151 422Q121 441
107 469T92 532Q92 540 94 558L96 575Q102 630 140 662T254 695Q278 695 311 690ZM189 382T152 360T109 295L108 289Q107 285 107 277Q107 255 119 237T155 209L183 196Q233 194 270 216T314 282L315 288Q316 292 316 300Q316 322 304 340T268 368L240 380Q189
382 152 360Z" />
<glyph unicode="&#xa8;" glyph-name="dieresis" horiz-adv-x="345" d="M136 598T123 588T83 577Q57 577 42 590T30 624L34 652Q40 695 91 695Q118 695 132 683T143 648L139 619Q136 598 123 588ZM308 598T295 588T255 577Q229 577 214 590T202 624L206 652Q209
674 223 684T263 695Q290 695 304 683T315 648L311 619Q308 598 295 588Z" />
<glyph unicode="&#xa9;" glyph-name="copyright" horiz-adv-x="646" d="M472 616T532 565T593 425Q593 402 591 390L564 193Q550 89 485 37T294 -15Q176 -15 116 36T55 174Q55 192 58 211L85 408Q99 514 165 565T356 616Q472 616 532 565ZM267 550T217 516T158
416L129 204Q127 188 127 180Q127 119 171 85T297 51Q384 51 433 85T492 185L521 397Q523 415 523 422Q523 482 479 516T354 550Q267 550 217 516ZM394 480T433 468L422 400Q383 414 354 414Q325 414 308 397T286 338L279 283Q277 265 277 258Q277 227 289 212T322
197Q362 197 401 212L394 146Q368 136 350 133T313 129Q256 129 226 160T195 249Q195 268 198 287L206 343Q216 416 252 448T355 480Q394 480 433 468Z" />
<glyph unicode="&#xaa;" glyph-name="ordfeminine" horiz-adv-x="469" d="M276 667T307 650T362 608L369 655H449L390 226H309L317 284L358 409L356 411L353 410Q286 214 170 214Q119 214 89 249T59 348Q59 372 63 393L81 498Q94 581 136 624T242 667Q276 667
307 650ZM218 591T196 569T165 490L150 404Q145 372 145 355Q145 290 194 290Q249 290 288 355T344 502L350 540Q332 563 306 577T256 591Q218 591 196 569ZM369 73L359 0H20L30 73H369Z" />
<glyph unicode="&#xab;" glyph-name="guillemotleft" horiz-adv-x="488" d="M281 438L164 268L233 98H145L69 268L193 438H281ZM451 438L334 268L403 98H315L239 268L363 438H451Z" />
<glyph unicode="&#xac;" glyph-name="logicalnot" horiz-adv-x="390" d="M382 335L350 113H274L296 265H11L21 335H382Z" />
<glyph unicode="&#xad;" glyph-name="uni00AD" horiz-adv-x="600" d="M291 328L281 263H61L71 328H291Z" />
<glyph unicode="&#xae;" glyph-name="registered" horiz-adv-x="528" d="M487 695T487 539Q487 514 485 501L481 468Q469 381 422 340T272 299Q183 299 139 340T94 454Q94 473 97 492L102 526Q114 614 158 654T304 695Q487 695 487 539ZM227 651T193 624T151 533L144
481Q142 463 142 454Q142 401 175 372T275 343Q351 343 387 370T432 461L439 514Q441 532 441 539Q441 592 406 621T303 651Q227 651 193 624ZM346 617T367 599T389 550Q389 542 388 537L387 531Q381 490 333 473L377 382H328Q311 429 290 466Q272 466 256 469L244
382H201L234 612Q279 617 305 617Q346 617 367 599ZM271 577L262 505L296 503Q336 503 343 535L344 540Q347 557 337 568T302 579L271 577Z" />
<glyph unicode="&#xaf;" glyph-name="overscore" horiz-adv-x="285" d="M30 606L40 681H255L245 606H30Z" />
<glyph unicode="&#xb0;" glyph-name="degree" horiz-adv-x="390" d="M311 695T350 657T390 551Q390 530 388 518L386 497Q373 414 334 377T215 339Q144 339 104 377T63 484Q63 505 65 516L68 537Q80 619 120 657T240 695Q311 695 350 657ZM197 626T175 604T147
533L144 512Q142 496 142 488Q142 452 160 430T216 408Q259 408 280 432T307 501L310 522Q312 540 312 547Q312 585 292 605T238 626Q197 626 175 604Z" />
<glyph unicode="&#xb1;" glyph-name="plusminus" horiz-adv-x="390" d="M261 488L240 336H380L370 265H230L208 113H132L154 265H14L24 336H164L185 488H261ZM341 70L332 0H-24L-15 70H341Z" />
<glyph unicode="&#xb2;" glyph-name="uni00B2" horiz-adv-x="400" d="M378 760T378 665Q378 652 377 645L376 637Q371 602 352 571T291 501L177 395H342L333 331H77L85 387L257 561Q277 581 287 596T300 635L301 644Q307 696 235 696Q213 696 185 690T135 675L144
741Q170 749 199 754T249 760Q378 760 378 665Z" />
<glyph unicode="&#xb3;" glyph-name="uni00B3" horiz-adv-x="400" d="M298 760T328 735T358 665Q358 652 357 646L356 639Q352 608 334 585T282 549Q311 537 327 514T344 461Q344 452 343 447L342 440Q334 385 296 354T187 323Q167 323 137 328T84 341L92 401Q113
394 141 389T190 383Q222 383 240 398T263 442L264 450Q265 455 265 464Q265 491 249 505T197 519H139L148 577H206Q243 577 261 590T283 637L284 644Q285 648 285 656Q285 702 225 702Q186 702 134 689L143 748Q201 760 239 760Q298 760 328 735Z" />
<glyph unicode="&#xb4;" glyph-name="acute" horiz-adv-x="240" d="M101 546H30L120 685H210L101 546Z" />
<glyph unicode="&#xb5;" glyph-name="uni00B5" horiz-adv-x="480" d="M376 0H296L300 28L346 190L344 192L341 191Q273 -12 157 -12Q131 -12 112 1Q97 -94 72 -185H-12Q17 -73 48 143L98 488H183L137 175Q133 151 133 128Q133 93 145 79T181 64Q245 64 284 148T336
326L359 488H445L376 0Z" />
<glyph unicode="&#xb6;" glyph-name="paragraph" horiz-adv-x="546" d="M213 -185H127L197 312H155Q101 312 70 341T39 423Q39 431 41 449L58 570Q66 627 100 655T197 683H335L213 -185ZM526 683L404 -185H318L440 683H526ZM197 610Q169 610 156 596T137 544L126
462Q124 446 124 439Q124 412 135 400T170 388H207L238 610H197Z" />
<glyph unicode="&#xb7;" glyph-name="middot" horiz-adv-x="221" d="M108 309T122 296T134 260L130 231Q127 210 113 200T71 189Q44 189 30 202T19 237L22 260Q25 286 38 297T81 309Q108 309 122 296Z" />
<glyph unicode="&#xb8;" glyph-name="cedilla" horiz-adv-x="216" d="M127 -41H129Q155 -41 170 -57T186 -101L185 -112L184 -121Q175 -197 89 -197Q61 -197 30 -188L37 -133Q60 -143 82 -143Q98 -143 106 -137T117 -120L118 -113Q120 -97 112 -89T84 -80H58L61
-60L102 28H157L127 -41Z" />
<glyph unicode="&#xb9;" glyph-name="uni00B9" horiz-adv-x="400" d="M322 752L272 395H351L342 331H90L99 395H191L232 679L127 637L121 704L256 752H322Z" />
<glyph unicode="&#xba;" glyph-name="ordmasculine" horiz-adv-x="492" d="M424 303T379 259T247 215Q167 215 125 254T82 362Q82 381 85 400L99 489Q113 578 157 622T291 667Q371 667 412 628T453 520Q453 502 450 482L437 394Q424 303 379 259ZM369 507T369
514Q369 553 347 574T287 596Q200 596 185 494L169 392Q167 376 167 368Q167 329 189 308T250 286Q293 286 319 311T351 388L367 491Q369 507 369 514ZM35 0L45 73H387L377 0H35Z" />
<glyph unicode="&#xbb;" glyph-name="guillemotright" horiz-adv-x="488" d="M181 438L257 268L133 98H45L162 268L93 438H181ZM351 438L427 268L303 98H215L332 268L263 438H351Z" />
<glyph unicode="&#xbc;" glyph-name="onequarter" horiz-adv-x="1004" d="M302 602L252 245H331L322 181H70L79 245H171L212 529L107 487L101 554L236 602H302ZM272 0L661 601H744L355 0H272ZM839 421L708 152H813L814 159L832 286H908L889 152H945L937 90H881L868
0H791L804 90H633L618 132L763 421H839Z" />
<glyph unicode="&#xbd;" glyph-name="onehalf" horiz-adv-x="1022" d="M302 602L252 245H331L322 181H70L79 245H171L212 529L107 487L101 554L236 602H302ZM276 0L665 601H748L359 0H276ZM954 429T954 334Q954 321 953 314L952 306Q947 271 928 240T867 170L753
64H918L909 0H653L661 56L833 230Q853 250 863 265T876 304L877 313Q883 365 811 365Q789 365 761 359T711 344L720 410Q746 418 775 423T825 429Q954 429 954 334Z" />
<glyph unicode="&#xbe;" glyph-name="threequarters" horiz-adv-x="1000" d="M252 610T282 585T312 515Q312 502 311 496L310 489Q306 458 288 435T236 399Q265 387 281 364T298 311Q298 302 297 297L296 290Q288 235 250 204T141 173Q121 173 91 178T38 191L46
251Q67 244 95 239T144 233Q176 233 194 248T217 292L218 300Q219 305 219 314Q219 341 203 355T151 369H93L102 427H160Q197 427 215 440T237 487L238 494Q239 498 239 506Q239 552 179 552Q140 552 88 539L97 598Q155 610 193 610Q252 610 282 585ZM272 0L661
601H744L355 0H272ZM839 421L708 152H813L814 159L832 286H908L889 152H945L937 90H881L868 0H791L804 90H633L618 132L763 421H839Z" />
<glyph unicode="&#xbf;" glyph-name="questiondown" horiz-adv-x="395" d="M232 390T218 403T206 439L210 468Q213 489 227 499T269 510Q296 510 310 497T321 462L318 439Q315 413 302 402T259 390Q232 390 218 403ZM87 -197T47 -163T7 -71Q7 -62 9 -44L11 -29Q17
16 41 54T119 141L159 177Q176 192 185 211T201 271L205 298H281L277 270Q270 223 256 192T212 133L153 76Q120 45 109 22T93 -37L92 -47L91 -61Q91 -93 113 -111T187 -129Q214 -129 250 -121T314 -101L304 -174Q270 -185 235 -191T173 -197Q87 -197 47 -163Z"
/>
<glyph unicode="&#xc0;" glyph-name="Agrave" horiz-adv-x="532" d="M483 0H392Q386 47 370 152H131Q97 65 67 0H-23L257 655H362L483 0ZM227 385T163 228H358Q332 394 299 576Q227 385 163 228ZM205 829H294L348 710H278L205 829Z" />
<glyph unicode="&#xc1;" glyph-name="Aacute" horiz-adv-x="532" d="M483 0H392Q386 47 370 152H131Q97 65 67 0H-23L257 655H362L483 0ZM227 385T163 228H358Q332 394 299 576Q227 385 163 228ZM345 710H275L353 829H442L345 710Z" />
<glyph unicode="&#xc2;" glyph-name="Acircumflex" horiz-adv-x="532" d="M483 0H392Q386 47 370 152H131Q97 65 67 0H-23L257 655H362L483 0ZM227 385T163 228H358Q332 394 299 576Q227 385 163 228ZM175 711L182 779L329 840L462 779L455 711L320 760L175 711Z" />
<glyph unicode="&#xc3;" glyph-name="Atilde" horiz-adv-x="532" d="M483 0H392Q386 47 370 152H131Q97 65 67 0H-23L257 655H362L483 0ZM227 385T163 228H358Q332 394 299 576Q227 385 163 228ZM455 738T444 731T413 717T374 710Q349 710 312 723Q276 735 255
735Q240 735 222 730T191 718T174 710L181 780Q184 782 195 789T225 803T264 810Q295 810 335 796Q364 785 384 785Q399 785 416 790T447 802T464 810L458 740Q455 738 444 731Z" />
<glyph unicode="&#xc4;" glyph-name="Adieresis" horiz-adv-x="532" d="M483 0H392Q386 47 370 152H131Q97 65 67 0H-23L257 655H362L483 0ZM227 385T163 228H358Q332 394 299 576Q227 385 163 228ZM283 731T271 721T231 710Q205 710 189 723T176 757L180 785Q183
807 196 817T235 828Q262 828 276 816T289 781L285 752Q283 731 271 721ZM454 710T403 710Q376 710 361 723T348 757L352 785Q355 808 368 818T407 828Q434 828 448 816T461 781L457 752Q454 710 403 710Z" />
<glyph unicode="&#xc5;" glyph-name="Aring" horiz-adv-x="532" d="M377 798T407 774T437 709Q437 675 420 649T370 612L483 0H392L387 35Q377 113 370 152H131Q89 50 67 0H-23L244 626Q229 638 220 655T211 694Q211 742 242 770T330 798Q377 798 407 774ZM298
747T286 736T273 698Q273 656 322 655Q352 655 364 667T376 707Q376 726 364 736T328 747Q298 747 286 736ZM227 385T163 228H358Q332 394 299 576Q227 385 163 228Z" />
<glyph unicode="&#xc6;" glyph-name="AE" horiz-adv-x="761" d="M740 655L730 578H470L445 371H685L675 295H435L408 77H668L660 0H315L333 152H138L46 0H-46L342 655H740ZM302 432T183 228H343L387 592Q302 432 183 228Z" />
<glyph unicode="&#xc7;" glyph-name="Ccedilla" horiz-adv-x="476" d="M336 667T376 661T452 643L441 563Q406 577 369 585T301 593Q190 593 176 469L143 194Q141 170 141 160Q141 110 165 88T241 66Q306 66 391 104L383 24Q337 1 271 -9L257 -41H259Q285 -41
300 -57T316 -101L315 -112L314 -121Q305 -197 219 -197Q191 -197 160 -188L167 -133Q190 -143 212 -143Q228 -143 236 -137T247 -120L248 -113Q250 -97 242 -89T214 -80H188L191 -60L214 -12Q56 -6 56 158Q56 182 59 207L90 463Q103 567 156 617T303 667Q336 667
376 661Z" />
<glyph unicode="&#xc8;" glyph-name="Egrave" horiz-adv-x="485" d="M39 0L119 655H464L454 578H194L169 371H409L399 295H159L132 77H392L384 0H39ZM188 829H277L331 710H261L188 829Z" />
<glyph unicode="&#xc9;" glyph-name="Eacute" horiz-adv-x="485" d="M39 0L119 655H464L454 578H194L169 371H409L399 295H159L132 77H392L384 0H39ZM328 710H258L336 829H425L328 710Z" />
<glyph unicode="&#xca;" glyph-name="Ecircumflex" horiz-adv-x="485" d="M39 0L119 655H464L454 578H194L169 371H409L399 295H159L132 77H392L384 0H39ZM158 711L165 779L312 840L445 779L438 711L303 760L158 711Z" />
<glyph unicode="&#xcb;" glyph-name="Edieresis" horiz-adv-x="485" d="M39 0L119 655H464L454 578H194L169 371H409L399 295H159L132 77H392L384 0H39ZM266 731T254 721T214 710Q188 710 172 723T159 757L163 785Q166 807 179 817T218 828Q245 828 259 816T272
781L268 752Q266 731 254 721ZM437 710T386 710Q359 710 344 723T331 757L335 785Q338 808 351 818T390 828Q417 828 431 816T444 781L440 752Q437 710 386 710Z" />
<glyph unicode="&#xcc;" glyph-name="Igrave" horiz-adv-x="235" d="M39 0L119 655H204L124 0H39ZM58 829H147L201 710H131L58 829Z" />
<glyph unicode="&#xcd;" glyph-name="Iacute" horiz-adv-x="235" d="M39 0L119 655H204L124 0H39ZM198 710H128L206 829H295L198 710Z" />
<glyph unicode="&#xce;" glyph-name="Icircumflex" horiz-adv-x="235" d="M39 0L119 655H204L124 0H39ZM284 711L291 779L438 840L571 779L564 711L429 760L284 711Z" />
<glyph unicode="&#xcf;" glyph-name="Idieresis" horiz-adv-x="235" d="M39 0L119 655H204L124 0H39ZM392 731T380 721T340 710Q314 710 298 723T285 757L289 785Q292 807 305 817T344 828Q371 828 385 816T398 781L394 752Q392 731 380 721ZM563 710T512 710Q485
710 470 723T457 757L461 785Q464 808 477 818T516 828Q543 828 557 816T570 781L566 752Q563 710 512 710Z" />
<glyph unicode="&#xd0;" glyph-name="Eth" horiz-adv-x="576" d="M405 667T464 609T524 445Q524 421 521 395L500 229Q485 110 417 49T219 -12Q134 -12 42 -3L79 303H9L19 373H88L124 662Q194 667 294 667Q405 667 464 609ZM200 593L172 373H309L299 303H164L135
68Q190 61 227 61Q304 61 354 104T415 227L437 402Q440 423 440 442Q440 517 400 556T288 595L200 593Z" />
<glyph unicode="&#xd1;" glyph-name="Ntilde" horiz-adv-x="582" d="M190 556L123 0H39L119 655H244Q332 371 399 100L467 655H551L471 0H346L190 556ZM492 738T481 731T450 717T411 710Q386 710 349 723Q313 735 292 735Q277 735 259 730T228 718T211 710L218
780Q221 782 232 789T262 803T301 810Q332 810 372 796Q401 785 421 785Q436 785 453 790T484 802T501 810L495 740Q492 738 481 731Z" />
<glyph unicode="&#xd2;" glyph-name="Ograve" horiz-adv-x="576" d="M422 667T474 619T527 484Q527 460 525 447L494 198Q468 -12 256 -12Q158 -12 107 35T55 169Q55 187 58 208L89 457Q103 565 160 616T327 667Q422 667 474 619ZM189 592T174 465L142 197Q140
179 140 171Q140 118 171 91T261 63Q392 63 408 191L441 458Q443 476 443 485Q443 538 412 565T321 592Q189 592 174 465ZM220 829H309L363 710H293L220 829Z" />
<glyph unicode="&#xd3;" glyph-name="Oacute" horiz-adv-x="576" d="M422 667T474 619T527 484Q527 460 525 447L494 198Q468 -12 256 -12Q158 -12 107 35T55 169Q55 187 58 208L89 457Q103 565 160 616T327 667Q422 667 474 619ZM189 592T174 465L142 197Q140
179 140 171Q140 118 171 91T261 63Q392 63 408 191L441 458Q443 476 443 485Q443 538 412 565T321 592Q189 592 174 465ZM360 710H290L368 829H457L360 710Z" />
<glyph unicode="&#xd4;" glyph-name="Ocircumflex" horiz-adv-x="576" d="M422 667T474 619T527 484Q527 460 525 447L494 198Q468 -12 256 -12Q158 -12 107 35T55 169Q55 187 58 208L89 457Q103 565 160 616T327 667Q422 667 474 619ZM189 592T174 465L142 197Q140
179 140 171Q140 118 171 91T261 63Q392 63 408 191L441 458Q443 476 443 485Q443 538 412 565T321 592Q189 592 174 465ZM190 711L197 779L344 840L477 779L470 711L335 760L190 711Z" />
<glyph unicode="&#xd5;" glyph-name="Otilde" horiz-adv-x="576" d="M422 667T474 619T527 484Q527 460 525 447L494 198Q468 -12 256 -12Q158 -12 107 35T55 169Q55 187 58 208L89 457Q103 565 160 616T327 667Q422 667 474 619ZM189 592T174 465L142 197Q140
179 140 171Q140 118 171 91T261 63Q392 63 408 191L441 458Q443 476 443 485Q443 538 412 565T321 592Q189 592 174 465ZM470 738T459 731T428 717T389 710Q364 710 327 723Q291 735 270 735Q255 735 237 730T206 718T189 710L196 780Q199 782 210 789T240 803T279
810Q310 810 350 796Q379 785 399 785Q414 785 431 790T462 802T479 810L473 740Q470 738 459 731Z" />
<glyph unicode="&#xd6;" glyph-name="Odieresis" horiz-adv-x="576" d="M422 667T474 619T527 484Q527 460 525 447L494 198Q468 -12 256 -12Q158 -12 107 35T55 169Q55 187 58 208L89 457Q103 565 160 616T327 667Q422 667 474 619ZM189 592T174 465L142 197Q140
179 140 171Q140 118 171 91T261 63Q392 63 408 191L441 458Q443 476 443 485Q443 538 412 565T321 592Q189 592 174 465ZM298 731T286 721T246 710Q220 710 204 723T191 757L195 785Q198 807 211 817T250 828Q277 828 291 816T304 781L300 752Q298 731 286 721ZM469
710T418 710Q391 710 376 723T363 757L367 785Q370 808 383 818T422 828Q449 828 463 816T476 781L472 752Q469 710 418 710Z" />
<glyph unicode="&#xd7;" glyph-name="multiply" horiz-adv-x="390" d="M326 458L369 408L248 302L341 194L279 141L186 248L67 143L24 193L143 298L52 406L112 460L205 352L326 458Z" />
<glyph unicode="&#xd8;" glyph-name="Oslash" horiz-adv-x="576" d="M508 575Q527 537 527 484Q527 460 525 447L494 198Q481 93 423 41T256 -12Q177 -12 126 20L74 -50H-15L75 75Q55 113 55 167Q55 187 58 208L89 457Q103 565 160 616T327 667Q409 667 460 630L513
705H602L508 575ZM189 592T174 465L142 197Q139 174 140 159L417 560Q387 592 321 592Q189 592 174 465ZM169 92Q199 63 261 63Q392 63 408 191L441 458Q442 468 442 487L169 92Z" />
<glyph unicode="&#xd9;" glyph-name="Ugrave" horiz-adv-x="576" d="M489 201Q475 92 420 40T261 -12Q163 -12 112 34T60 165Q60 183 63 204L119 655H204L147 197Q145 181 145 173Q145 121 177 93T267 65Q328 65 361 96T403 194L460 655H545L489 201ZM226 829H315L369
710H299L226 829Z" />
<glyph unicode="&#xda;" glyph-name="Uacute" horiz-adv-x="576" d="M489 201Q475 92 420 40T261 -12Q163 -12 112 34T60 165Q60 183 63 204L119 655H204L147 197Q145 181 145 173Q145 121 177 93T267 65Q328 65 361 96T403 194L460 655H545L489 201ZM366 710H296L374
829H463L366 710Z" />
<glyph unicode="&#xdb;" glyph-name="Ucircumflex" horiz-adv-x="576" d="M489 201Q475 92 420 40T261 -12Q163 -12 112 34T60 165Q60 183 63 204L119 655H204L147 197Q145 181 145 173Q145 121 177 93T267 65Q328 65 361 96T403 194L460 655H545L489 201ZM196
711L203 779L350 840L483 779L476 711L341 760L196 711Z" />
<glyph unicode="&#xdc;" glyph-name="Udieresis" horiz-adv-x="576" d="M489 201Q475 92 420 40T261 -12Q163 -12 112 34T60 165Q60 183 63 204L119 655H204L147 197Q145 181 145 173Q145 121 177 93T267 65Q328 65 361 96T403 194L460 655H545L489 201ZM304 731T292
721T252 710Q226 710 210 723T197 757L201 785Q204 807 217 817T256 828Q283 828 297 816T310 781L306 752Q304 731 292 721ZM475 710T424 710Q397 710 382 723T369 757L373 785Q376 808 389 818T428 828Q455 828 469 816T482 781L478 752Q475 710 424 710Z" />
<glyph unicode="&#xdd;" glyph-name="Yacute" horiz-adv-x="491" d="M279 225L252 0H167L194 225L57 655H150Q205 471 244 315Q335 471 423 655H522L279 225ZM321 710H251L329 829H418L321 710Z" />
<glyph unicode="&#xde;" glyph-name="Thorn" horiz-adv-x="502" d="M199 535Q257 537 280 537Q385 537 439 494T493 371Q493 353 490 335L488 320Q457 137 246 137Q206 137 145 148L124 0H39L131 655H216L199 535ZM231 466T189 464L154 217Q209 208 245 208Q317
208 355 238T404 332L406 344Q408 360 408 368Q408 415 374 440T272 466Q231 466 189 464Z" />
<glyph unicode="&#xdf;" glyph-name="germandbls" horiz-adv-x="498" d="M372 695T413 662T454 573Q454 562 453 557L452 548Q446 507 430 485T384 437Q364 420 355 409T342 380L341 373L340 360Q340 345 345 335T363 317L407 287Q469 244 469 163Q469 149 468
142L467 133Q459 64 423 26T323 -12Q266 -12 214 10L225 82Q271 65 297 59Q304 58 317 58Q340 58 358 77T380 129L383 151Q384 155 384 163Q384 182 376 198T352 224L307 254Q281 271 269 294T257 350L258 367L259 376Q262 409 277 429T319 472Q341 491 352 505T367
541L369 557Q373 586 354 605T299 625Q262 625 245 607T221 544L145 0H60L118 418H45L52 468L128 482L132 513Q145 609 186 652T304 695Q372 695 413 662Z" />
<glyph unicode="&#xe0;" glyph-name="agrave" horiz-adv-x="476" d="M261 500T292 484T348 438L354 488H434L366 0H285L294 65L335 190L333 192L330 191Q262 -12 146 -12Q96 -12 66 22T35 118Q35 143 39 164L65 327Q79 412 122 456T227 500Q261 500 292 484ZM167
427T150 322L126 175Q121 143 121 127Q121 93 133 79T170 64Q224 64 264 130T321 280L334 373Q314 398 289 412T238 427Q167 427 150 322ZM120 685H210L300 546H229L120 685Z" />
<glyph unicode="&#xe1;" glyph-name="aacute" horiz-adv-x="476" d="M261 500T292 484T348 438L354 488H434L366 0H285L294 65L335 190L333 192L330 191Q262 -12 146 -12Q96 -12 66 22T35 118Q35 143 39 164L65 327Q79 412 122 456T227 500Q261 500 292 484ZM167
427T150 322L126 175Q121 143 121 127Q121 93 133 79T170 64Q224 64 264 130T321 280L334 373Q314 398 289 412T238 427Q167 427 150 322ZM291 546H220L310 685H400L291 546Z" />
<glyph unicode="&#xe2;" glyph-name="acircumflex" horiz-adv-x="476" d="M261 500T292 484T348 438L354 488H434L366 0H285L294 65L335 190L333 192L330 191Q262 -12 146 -12Q96 -12 66 22T35 118Q35 143 39 164L65 327Q79 412 122 456T227 500Q261 500 292 484ZM167
427T150 322L126 175Q121 143 121 127Q121 93 133 79T170 64Q224 64 264 130T321 280L334 373Q314 398 289 412T238 427Q167 427 150 322ZM278 613L136 546L145 618L286 690L405 613L396 546L278 613Z" />
<glyph unicode="&#xe3;" glyph-name="atilde" horiz-adv-x="476" d="M261 500T292 484T348 438L354 488H434L366 0H285L294 65L335 190L333 192L330 191Q262 -12 146 -12Q96 -12 66 22T35 118Q35 143 39 164L65 327Q79 412 122 456T227 500Q261 500 292 484ZM167
427T150 322L126 175Q121 143 121 127Q121 93 133 79T170 64Q224 64 264 130T321 280L334 373Q314 398 289 412T238 427Q167 427 150 322ZM395 611T384 604T353 591T314 585Q292 585 262 598Q234 610 215 610Q200 610 182 605T151 593T134 585L144 653Q147 656
158 663T189 678T228 685Q246 685 257 682T287 671Q309 660 326 660Q341 660 359 665T390 677T408 685L398 613Q395 611 384 604Z" />
<glyph unicode="&#xe4;" glyph-name="adieresis" horiz-adv-x="476" d="M261 500T292 484T348 438L354 488H434L366 0H285L294 65L335 190L333 192L330 191Q262 -12 146 -12Q96 -12 66 22T35 118Q35 143 39 164L65 327Q79 412 122 456T227 500Q261 500 292 484ZM167
427T150 322L126 175Q121 143 121 127Q121 93 133 79T170 64Q224 64 264 130T321 280L334 373Q314 398 289 412T238 427Q167 427 150 322ZM234 598T221 588T181 577Q155 577 140 590T128 624L132 652Q138 695 189 695Q216 695 230 683T241 648L237 619Q234 598
221 588ZM406 598T393 588T353 577Q327 577 312 590T300 624L304 652Q307 674 321 684T361 695Q388 695 402 683T413 648L409 619Q406 598 393 588Z" />
<glyph unicode="&#xe5;" glyph-name="aring" horiz-adv-x="476" d="M261 500T292 484T348 438L354 488H434L366 0H285L294 65L335 190L333 192L330 191Q262 -12 146 -12Q96 -12 66 22T35 118Q35 143 39 164L65 327Q79 412 122 456T227 500Q261 500 292 484ZM167
427T150 322L126 175Q121 143 121 127Q121 93 133 79T170 64Q224 64 264 130T321 280L334 373Q314 398 289 412T238 427Q167 427 150 322ZM324 723T354 699T384 634Q384 587 353 558T265 529Q219 529 189 553T158 619Q158 667 189 695T277 723Q324 723 354 699ZM245
672T233 661T220 623Q220 604 233 592T269 580Q299 580 311 592T323 632Q323 651 311 661T275 672Q245 672 233 661Z" />
<glyph unicode="&#xe6;" glyph-name="ae" horiz-adv-x="700" d="M594 500T631 466T669 374Q669 295 601 240T392 173L390 162Q387 146 387 132Q387 61 462 61Q493 61 531 71T604 100L589 23Q555 7 517 -2T448 -12Q378 -12 342 22T304 125Q241 -12 146 -12Q88 -12
62 26T35 121Q35 145 39 164L66 331Q79 414 120 457T224 500Q265 500 306 474T369 411Q397 455 437 477T527 500Q594 500 631 466ZM484 429T451 389T407 272L400 227Q466 238 508 254Q548 282 566 309T585 367Q585 396 569 412T524 429Q484 429 451 389ZM205 424T182
401T150 323L126 175Q121 148 121 125Q121 64 170 64Q209 64 242 102T297 190T321 270Q325 308 345 361Q328 388 300 406T244 424Q205 424 182 401Z" />
<glyph unicode="&#xe7;" glyph-name="ccedilla" horiz-adv-x="393" d="M300 500T362 482L350 406Q291 428 247 428Q207 428 182 403T150 328L129 174Q127 162 127 142Q127 100 145 82T198 63Q226 63 257 71T316 96L307 19Q249 -9 192 -12L180 -41H182Q208 -41
223 -57T239 -101L238 -112L237 -121Q228 -197 142 -197Q114 -197 83 -188L90 -133Q113 -143 135 -143Q151 -143 159 -137T170 -120L171 -113Q173 -97 165 -89T137 -80H111L114 -60L139 -7Q91 4 66 39T40 131Q40 151 43 173L64 321Q77 413 123 456T248 500Q300
500 362 482Z" />
<glyph unicode="&#xe8;" glyph-name="egrave" horiz-adv-x="436" d="M329 500T367 467T405 376Q405 296 337 241T127 173L126 162Q123 146 123 132Q123 61 198 61Q229 61 267 71T340 100L325 23Q291 7 253 -2T184 -12Q40 -12 40 133Q40 155 45 190L57 268Q74 382
128 441T263 500Q329 500 367 467ZM220 429T187 389T143 272L136 227Q202 238 244 254Q284 282 302 309T321 367Q321 396 305 412T260 429Q220 429 187 389ZM120 685H210L300 546H229L120 685Z" />
<glyph unicode="&#xe9;" glyph-name="eacute" horiz-adv-x="436" d="M329 500T367 467T405 376Q405 296 337 241T127 173L126 162Q123 146 123 132Q123 61 198 61Q229 61 267 71T340 100L325 23Q291 7 253 -2T184 -12Q40 -12 40 133Q40 155 45 190L57 268Q74 382
128 441T263 500Q329 500 367 467ZM220 429T187 389T143 272L136 227Q202 238 244 254Q284 282 302 309T321 367Q321 396 305 412T260 429Q220 429 187 389ZM291 546H220L310 685H400L291 546Z" />
<glyph unicode="&#xea;" glyph-name="ecircumflex" horiz-adv-x="436" d="M329 500T367 467T405 376Q405 296 337 241T127 173L126 162Q123 146 123 132Q123 61 198 61Q229 61 267 71T340 100L325 23Q291 7 253 -2T184 -12Q40 -12 40 133Q40 155 45 190L57 268Q74
382 128 441T263 500Q329 500 367 467ZM220 429T187 389T143 272L136 227Q202 238 244 254Q284 282 302 309T321 367Q321 396 305 412T260 429Q220 429 187 389ZM278 613L136 546L145 618L286 690L405 613L396 546L278 613Z" />
<glyph unicode="&#xeb;" glyph-name="edieresis" horiz-adv-x="436" d="M329 500T367 467T405 376Q405 296 337 241T127 173L126 162Q123 146 123 132Q123 61 198 61Q229 61 267 71T340 100L325 23Q291 7 253 -2T184 -12Q40 -12 40 133Q40 155 45 190L57 268Q74
382 128 441T263 500Q329 500 367 467ZM220 429T187 389T143 272L136 227Q202 238 244 254Q284 282 302 309T321 367Q321 396 305 412T260 429Q220 429 187 389ZM234 598T221 588T181 577Q155 577 140 590T128 624L132 652Q138 695 189 695Q216 695 230 683T241
648L237 619Q234 598 221 588ZM406 598T393 588T353 577Q327 577 312 590T300 624L304 652Q307 674 321 684T361 695Q388 695 402 683T413 648L409 619Q406 598 393 588Z" />
<glyph unicode="&#xec;" glyph-name="igrave" horiz-adv-x="225" d="M30 0L98 488H183L115 0H30ZM264 685H354L444 546H373L264 685Z" />
<glyph unicode="&#xed;" glyph-name="iacute" horiz-adv-x="225" d="M30 0L98 488H183L115 0H30ZM179 546H108L198 685H288L179 546Z" />
<glyph unicode="&#xee;" glyph-name="icircumflex" horiz-adv-x="225" d="M30 0L98 488H183L115 0H30ZM422 613L280 546L289 618L430 690L549 613L540 546L422 613Z" />
<glyph unicode="&#xef;" glyph-name="idieresis" horiz-adv-x="225" d="M30 0L98 488H183L115 0H30ZM378 598T365 588T325 577Q299 577 284 590T272 624L276 652Q282 695 333 695Q360 695 374 683T385 648L381 619Q378 598 365 588ZM550 598T537 588T497 577Q471
577 456 590T444 624L448 652Q451 674 465 684T505 695Q532 695 546 683T557 648L553 619Q550 598 537 588Z" />
<glyph unicode="&#xf0;" glyph-name="eth" horiz-adv-x="487" d="M306 695T372 615L477 645L468 579L405 561Q430 503 430 424Q430 391 423 335L399 165Q387 76 343 32T214 -12Q134 -12 93 24T51 128Q51 146 54 167L70 282Q81 364 117 401T217 439Q253 439 286
420T341 361L345 386Q349 410 349 437Q349 495 327 539L202 505L212 571L285 591Q236 631 158 631L167 695Q306 695 372 615ZM197 363T178 340T151 264L135 152Q134 146 134 134Q134 98 155 79T216 59Q260 59 282 81T311 148L330 281Q312 321 284 342T228 363Q197
363 178 340Z" />
<glyph unicode="&#xf1;" glyph-name="ntilde" horiz-adv-x="485" d="M377 500T403 471T429 379Q429 346 424 316L376 0H291L341 318Q345 342 345 364Q345 395 335 408T304 421Q269 421 232 374T165 238T119 30L115 0H30L98 488H178L167 409L122 240L125 238L128
240Q163 367 215 433T327 500Q377 500 403 471ZM408 611T397 604T366 591T327 585Q305 585 275 598Q247 610 228 610Q213 610 195 605T164 593T147 585L157 653Q160 656 171 663T202 678T241 685Q259 685 270 682T300 671Q322 660 339 660Q354 660 372 665T403
677T421 685L411 613Q408 611 397 604Z" />
<glyph unicode="&#xf2;" glyph-name="ograve" horiz-adv-x="472" d="M385 85T336 37T205 -12Q125 -12 83 27T40 136Q40 153 43 172L63 316Q75 405 125 452T256 500Q335 500 377 461T419 352Q419 335 416 315L397 176Q385 85 336 37ZM334 338T334 345Q334 385 312
407T252 429Q164 429 150 327L127 165Q125 149 125 143Q125 104 147 82T208 59Q296 59 309 161L332 322Q334 338 334 345ZM116 685H206L296 546H225L116 685Z" />
<glyph unicode="&#xf3;" glyph-name="oacute" horiz-adv-x="472" d="M385 85T336 37T205 -12Q125 -12 83 27T40 136Q40 153 43 172L63 316Q75 405 125 452T256 500Q335 500 377 461T419 352Q419 335 416 315L397 176Q385 85 336 37ZM334 338T334 345Q334 385 312
407T252 429Q164 429 150 327L127 165Q125 149 125 143Q125 104 147 82T208 59Q296 59 309 161L332 322Q334 338 334 345ZM287 546H216L306 685H396L287 546Z" />
<glyph unicode="&#xf4;" glyph-name="ocircumflex" horiz-adv-x="472" d="M385 85T336 37T205 -12Q125 -12 83 27T40 136Q40 153 43 172L63 316Q75 405 125 452T256 500Q335 500 377 461T419 352Q419 335 416 315L397 176Q385 85 336 37ZM334 338T334 345Q334
385 312 407T252 429Q164 429 150 327L127 165Q125 149 125 143Q125 104 147 82T208 59Q296 59 309 161L332 322Q334 338 334 345ZM274 613L132 546L141 618L282 690L401 613L392 546L274 613Z" />
<glyph unicode="&#xf5;" glyph-name="otilde" horiz-adv-x="472" d="M385 85T336 37T205 -12Q125 -12 83 27T40 136Q40 153 43 172L63 316Q75 405 125 452T256 500Q335 500 377 461T419 352Q419 335 416 315L397 176Q385 85 336 37ZM334 338T334 345Q334 385 312
407T252 429Q164 429 150 327L127 165Q125 149 125 143Q125 104 147 82T208 59Q296 59 309 161L332 322Q334 338 334 345ZM391 611T380 604T349 591T310 585Q288 585 258 598Q230 610 211 610Q196 610 178 605T147 593T130 585L140 653Q143 656 154 663T185 678T224
685Q242 685 253 682T283 671Q305 660 322 660Q337 660 355 665T386 677T404 685L394 613Q391 611 380 604Z" />
<glyph unicode="&#xf6;" glyph-name="odieresis" horiz-adv-x="472" d="M385 85T336 37T205 -12Q125 -12 83 27T40 136Q40 153 43 172L63 316Q75 405 125 452T256 500Q335 500 377 461T419 352Q419 335 416 315L397 176Q385 85 336 37ZM334 338T334 345Q334 385
312 407T252 429Q164 429 150 327L127 165Q125 149 125 143Q125 104 147 82T208 59Q296 59 309 161L332 322Q334 338 334 345ZM230 598T217 588T177 577Q151 577 136 590T124 624L128 652Q134 695 185 695Q212 695 226 683T237 648L233 619Q230 598 217 588ZM402
598T389 588T349 577Q323 577 308 590T296 624L300 652Q303 674 317 684T357 695Q384 695 398 683T409 648L405 619Q402 598 389 588Z" />
<glyph unicode="&#xf7;" glyph-name="divide" horiz-adv-x="390" d="M245 489T256 480T267 454L266 445L264 428Q261 408 247 397T209 385Q188 385 177 394T166 420L167 428L169 445Q172 466 186 477T223 489Q245 489 256 480ZM379 335L369 265H15L25 335H379ZM206
215T217 206T229 181Q229 174 228 171L225 154Q222 134 208 123T170 111Q149 111 138 120T127 146L128 154L131 171Q139 215 185 215Q206 215 217 206Z" />
<glyph unicode="&#xf8;" glyph-name="oslash" horiz-adv-x="472" d="M409 411Q419 385 419 351Q419 335 416 315L397 176Q385 85 336 37T205 -12Q135 -12 92 18L36 -51H-51L50 75Q40 101 40 135Q40 153 43 172L63 316Q75 405 125 452T256 500Q324 500 367 468L423
538H511L409 411ZM164 429T150 327L128 171L126 157L319 397Q298 429 252 429Q164 429 150 327ZM141 89Q162 59 208 59Q296 59 309 161L330 307L333 328L141 89Z" />
<glyph unicode="&#xf9;" glyph-name="ugrave" horiz-adv-x="486" d="M376 0H296L300 28L346 190L344 192L341 191Q273 -12 157 -12Q106 -12 77 21T47 119Q47 131 51 165L98 488H183L137 175Q133 151 133 128Q133 93 145 79T181 64Q245 64 284 148T336 326L359
488H445L376 0ZM131 685H221L311 546H240L131 685Z" />
<glyph unicode="&#xfa;" glyph-name="uacute" horiz-adv-x="486" d="M376 0H296L300 28L346 190L344 192L341 191Q273 -12 157 -12Q106 -12 77 21T47 119Q47 131 51 165L98 488H183L137 175Q133 151 133 128Q133 93 145 79T181 64Q245 64 284 148T336 326L359
488H445L376 0ZM302 546H231L321 685H411L302 546Z" />
<glyph unicode="&#xfb;" glyph-name="ucircumflex" horiz-adv-x="486" d="M376 0H296L300 28L346 190L344 192L341 191Q273 -12 157 -12Q106 -12 77 21T47 119Q47 131 51 165L98 488H183L137 175Q133 151 133 128Q133 93 145 79T181 64Q245 64 284 148T336 326L359
488H445L376 0ZM289 613L147 546L156 618L297 690L416 613L407 546L289 613Z" />
<glyph unicode="&#xfc;" glyph-name="udieresis" horiz-adv-x="486" d="M376 0H296L300 28L346 190L344 192L341 191Q273 -12 157 -12Q106 -12 77 21T47 119Q47 131 51 165L98 488H183L137 175Q133 151 133 128Q133 93 145 79T181 64Q245 64 284 148T336 326L359
488H445L376 0ZM245 598T232 588T192 577Q166 577 151 590T139 624L143 652Q149 695 200 695Q227 695 241 683T252 648L248 619Q245 598 232 588ZM417 598T404 588T364 577Q338 577 323 590T311 624L315 652Q318 674 332 684T372 695Q399 695 413 683T424 648L420
619Q417 598 404 588Z" />
<glyph unicode="&#xfd;" glyph-name="yacute" horiz-adv-x="486" d="M371 -36Q359 -122 316 -159T186 -197Q155 -197 116 -191T43 -175L53 -100Q87 -111 123 -117T189 -124Q235 -124 257 -105T285 -43L296 28L346 190L344 192L341 191Q273 -12 157 -12Q106 -12
77 21T47 119Q47 131 51 165L98 488H183L137 175Q133 151 133 128Q133 93 145 79T181 64Q245 64 284 148T336 326L359 488H445L371 -36ZM308 546H237L327 685H417L308 546Z" />
<glyph unicode="&#xfe;" glyph-name="thorn" horiz-adv-x="477" d="M179 458L124 254L126 252L129 254Q165 377 210 438T316 500Q368 500 398 465T429 363Q429 339 422 297L394 148Q364 -12 237 -12Q207 -12 175 1T119 37L88 -185H3L125 683H210L179 458ZM263
424T230 384T171 278T134 139L128 99Q147 83 171 73T216 63Q254 63 277 86T311 160L337 292Q343 325 343 349Q343 387 330 405T296 424Q263 424 230 384Z" />
<glyph unicode="&#xff;" glyph-name="ydieresis" horiz-adv-x="486" d="M371 -36Q359 -122 316 -159T186 -197Q155 -197 116 -191T43 -175L53 -100Q87 -111 123 -117T189 -124Q235 -124 257 -105T285 -43L296 28L346 190L344 192L341 191Q273 -12 157 -12Q106
-12 77 21T47 119Q47 131 51 165L98 488H183L137 175Q133 151 133 128Q133 93 145 79T181 64Q245 64 284 148T336 326L359 488H445L371 -36ZM251 598T238 588T198 577Q172 577 157 590T145 624L149 652Q155 695 206 695Q233 695 247 683T258 648L254 619Q251 598
238 588ZM423 598T410 588T370 577Q344 577 329 590T317 624L321 652Q324 674 338 684T378 695Q405 695 419 683T430 648L426 619Q423 598 410 588Z" />
<glyph unicode="&#x2013;" glyph-name="endash" horiz-adv-x="610" d="M551 328L541 263H61L71 328H551Z" />
<glyph unicode="&#x2014;" glyph-name="emdash" horiz-adv-x="710" d="M651 328L641 263H61L71 328H651Z" />
<glyph unicode="&#x2018;" glyph-name="quoteleft" horiz-adv-x="217" d="M173 596Q188 592 195 579T201 548L197 521Q194 500 180 491T140 482Q114 482 101 495T90 531L94 561Q98 587 108 607L151 695H210L173 596Z" />
<glyph unicode="&#x2019;" glyph-name="quoteright" horiz-adv-x="217" d="M190 695T203 682T214 646L210 616Q206 590 196 570L153 482H94L131 581Q116 585 109 598T103 629L107 656Q110 677 124 686T164 695Q190 695 203 682Z" />
<glyph unicode="&#x201a;" glyph-name="quotesinglbase" horiz-adv-x="217" d="M106 105T119 92T130 56L126 26Q122 0 112 -20L69 -108H10L47 -9Q32 -5 25 8T19 39L23 66Q26 87 40 96T80 105Q106 105 119 92Z" />
<glyph unicode="&#x201c;" glyph-name="quotedblleft" horiz-adv-x="362" d="M173 596Q188 592 195 579T201 548L197 521Q194 500 180 491T140 482Q114 482 101 495T90 531L94 561Q98 587 108 607L151 695H210L173 596ZM315 596Q330 592 337 579T343 548L339 521Q336
500 322 491T282 482Q256 482 243 495T232 531L236 561Q240 587 250 607L293 695H352L315 596Z" />
<glyph unicode="&#x201d;" glyph-name="quotedblright" horiz-adv-x="362" d="M191 695T204 682T215 646L211 616Q207 590 197 570L154 482H95L132 581Q117 585 110 598T104 629L108 656Q111 677 125 686T165 695Q191 695 204 682ZM333 695T346 682T357 646L353
616Q349 590 339 570L296 482H237L274 581Q259 585 252 598T246 629L250 656Q253 677 267 686T307 695Q333 695 346 682Z" />
<glyph unicode="&#x201e;" glyph-name="quotedblbase" horiz-adv-x="362" d="M107 105T120 92T131 56L127 26Q123 0 113 -20L70 -108H11L48 -9Q33 -5 26 8T20 39L24 66Q27 87 41 96T81 105Q107 105 120 92ZM249 105T262 92T273 56L269 26Q265 0 255 -20L212 -108H153L190
-9Q175 -5 168 8T162 39L166 66Q169 87 183 96T223 105Q249 105 262 92Z" />
<glyph unicode="&#x2022;" glyph-name="bullet" horiz-adv-x="235" d="M146 335T163 322T180 287L179 279L174 249Q169 222 155 211T109 200Q82 200 65 212T48 247Q48 253 49 256L54 285Q58 311 73 323T118 335Q146 335 163 322Z" />
<glyph unicode="&#x2039;" glyph-name="guilsinglleft" horiz-adv-x="318" d="M281 438L164 268L233 98H145L69 268L193 438H281Z" />
<glyph unicode="&#x203a;" glyph-name="guilsinglright" horiz-adv-x="318" d="M181 438L257 268L133 98H45L162 268L93 438H181Z" />
</font>
</defs>
</svg>
