<?xml version="1.0" standalone="no"?>
<!DOCTYPE svg PUBLIC "-//W3C//DTD SVG 1.1//EN" "http://www.w3.org/Graphics/SVG/1.1/DTD/svg11.dtd">
<svg xmlns="http://www.w3.org/2000/svg">
<defs >
<font id="Tillana" horiz-adv-x="503" ><font-face
    font-family="Tillana"
    units-per-em="1000"
    panose-1="2 0 0 0 0 0 0 0 0 0"
    ascent="1158"
    descent="-484"
    alphabetic="0" />
<glyph unicode=" " horiz-adv-x="432" />
<glyph unicode="!" horiz-adv-x="285" d="M143 29T115 13T68 -3T36 8T23 39Q28 66 54 92T105 121Q123 121 140 99T160 52Q143 29 115 13ZM230 631L139 198Q120 185 96 202L136 389L194 860Q230 867 254 862T301 832L230 631Z" />
<glyph unicode="&quot;" horiz-adv-x="303" d="M255 673L299 892Q315 902 331 902T357 892L346 816L294 662Q266 659 255 673ZM125 673L170 892Q185 902 201 902T228 892L216 816L164 662Q138 659 125 673Z" />
<glyph unicode="#" horiz-adv-x="675" d="M665 576L536 574L476 291L623 302Q650 286 613 241L468 239L434 -21Q391 -35 348 -1L403 238L240 236L207 -21Q164 -35 121 -1L175 235L58 233Q36 254 64 292L187 287L224 446L246 570L110 568Q88 587 114 626L255 621L297
863Q356 873 395 843L321 618L387 616L481 623L524 863Q583 873 622 843L551 628L674 637Q700 621 665 576ZM450 446L473 573L308 571L247 285L336 281L414 287L450 446Z" />
<glyph unicode="$" horiz-adv-x="565" d="M384 672L369 631L331 403Q407 358 456 319T526 232Q514 150 448 91T263 5L241 -129Q190 -141 166 -92L202 16Q135 47 83 101T21 202Q41 230 58 236T105 232Q125 171 148 138T221 72L237 122L280 357Q197 404 147 448T87
548Q117 623 194 677T351 742L373 861Q422 877 444 831L404 725Q494 675 539 583Q536 564 517 552T468 543Q437 626 384 672ZM319 335L273 59Q351 83 400 129T449 229Q448 252 416 276T319 335ZM293 425L341 687Q277 668 221 623T165 547T198 489T293 425Z" />
<glyph unicode="%" horiz-adv-x="657" d="M325 377L552 831Q610 838 628 809L126 -80Q78 -89 58 -62L325 377ZM514 366Q457 325 435 201Q421 124 427 71Q435 43 467 30Q522 73 545 197Q558 276 554 326Q545 356 514 366ZM596 105T555 50T465 -5T384 45T367 195Q384
287 426 346T517 405T597 351T613 202ZM222 689Q166 648 144 524Q130 449 135 394Q143 367 175 353Q231 396 254 519Q268 601 262 649Q253 680 222 689ZM304 428T263 373T173 318T92 368T76 513T134 669T226 728T306 674T321 525Z" />
<glyph unicode="&amp;" horiz-adv-x="603" d="M278 14Q306 21 320 11L321 -136Q293 -151 277 -152T240 -139L278 14ZM413 705Q384 698 370 708L369 855Q398 871 414 872T450 859L413 705ZM411 650Q456 650 492 629T550 575Q550 536 485 525L424 607Q347 605 295
573T200 488Q220 457 247 440T321 408Q351 414 402 429Q437 409 422 364Q330 352 274 326T177 240Q188 201 221 173T300 133Q436 174 499 251Q529 259 544 242T552 199Q450 118 298 81Q215 97 162 140T92 229Q124 295 163 325T269 376Q207 389 165 420T114 488Q171
568 248 609T411 650Z" />
<glyph unicode="&apos;" horiz-adv-x="174" d="M125 673L170 892Q185 902 201 902T228 892L216 816L164 662Q138 659 125 673Z" />
<glyph unicode="(" horiz-adv-x="498" d="M400 714Q348 646 311 539T265 322T278 136T365 -28Q340 -55 310 -50Q243 32 209 126T184 343Q196 499 279 634T492 848Q524 848 537 818L400 714Z" />
<glyph unicode=")" horiz-adv-x="498" d="M51 -51Q20 -51 6 -21L144 83Q196 152 233 259T276 454Q287 587 266 662T178 825Q203 851 233 848Q376 676 360 454Q347 298 264 163T51 -51Z" />
<glyph unicode="*" horiz-adv-x="353" d="M294 789L408 802Q415 778 402 754L294 767L373 697Q361 672 334 662L274 752L273 640Q249 631 225 640L251 750L172 663Q151 673 141 698L236 767L124 754Q118 779 131 802L242 789L160 860Q176 885 199 894L258 807L259
916Q284 924 308 916L281 806L361 893Q383 884 391 859L294 789Z" />
<glyph unicode="+" horiz-adv-x="670" d="M382 354L598 367Q610 360 606 340T583 298L370 295L325 65Q313 57 296 63T264 89L311 294L92 291Q69 314 103 356L323 352L355 576Q364 587 383 579T420 546L382 354Z" />
<glyph unicode="," horiz-adv-x="205" d="M134 42Q118 -7 73 -53T-19 -129Q-44 -123 -53 -106L26 -26V103Q66 123 96 104T134 42Z" />
<glyph unicode="-" horiz-adv-x="497" d="M458 367Q470 360 466 340T443 298L59 291Q37 313 70 356L255 352L458 367Z" />
<glyph unicode="." horiz-adv-x="221" d="M119 33T93 17T47 0T14 12T-2 42Q0 69 23 95T71 124Q89 124 109 102T134 55Q119 33 93 17Z" />
<glyph unicode="/" horiz-adv-x="457" d="M241 377L468 831Q526 838 544 809L42 -80Q-6 -89 -26 -62L241 377Z" />
<glyph unicode="0" horiz-adv-x="545" d="M327 684Q193 598 154 363Q130 211 149 114Q175 59 252 36Q318 77 362 161T427 376T430 606Q404 662 327 684ZM239 -4Q164 -4 106 76Q44 161 71 353Q100 517 175 623T338 728T481 632T509 367Q478 193 405 95T239 -4Z" />
<glyph unicode="1" horiz-adv-x="319" d="M257 528L179 176L166 -1Q123 -8 80 18L208 584L228 646L215 650L146 545Q107 532 99 554L184 733Q235 742 264 732T318 691L257 528Z" />
<glyph unicode="2" horiz-adv-x="478" d="M276 679Q217 679 165 607L205 528Q194 509 164 504Q119 541 87 588Q121 657 178 700T299 744T417 663T471 495T312 274L69 70L75 64L405 77Q413 60 405 35T380 -6L112 13L46 -3Q-1 22 1 83L254 308Q348 392 402 490Q388
575 355 627T276 679Z" />
<glyph unicode="3" horiz-adv-x="512" d="M101 658T158 701T286 744T422 681T487 537Q486 507 465 485T390 436L275 378Q335 362 379 342T454 285T482 202Q474 122 354 71T43 -2Q13 20 22 46Q178 74 265 104T419 189Q399 277 201 347L214 390L414 523Q409 584
363 628T273 672Q200 672 145 607L185 528Q174 509 144 504Q99 541 67 588Q101 658 158 701Z" />
<glyph unicode="4" horiz-adv-x="525" d="M437 738Q488 738 525 691L464 528L406 263L525 268Q533 250 528 228T507 190L391 195L387 176L374 -1Q331 -8 287 18L328 198L294 200L65 194Q38 210 30 251L395 733Q414 738 437 738ZM202 255L343 261L379 420L450 677L437
681L310 514L105 253L202 255Z" />
<glyph unicode="5" horiz-adv-x="540" d="M467 286Q467 192 387 96T216 0T44 41Q41 112 79 124L246 48Q385 133 409 285Q396 318 370 336T293 361L171 379Q136 384 125 402T123 460L167 644Q184 714 221 728L269 712L500 740Q523 721 529 696T522 656L265 663L166
432L276 427Q373 421 420 388T467 286Z" />
<glyph unicode="6" horiz-adv-x="571" d="M213 308T284 392T422 476T517 436T528 303Q517 240 477 170T383 49T282 -3Q214 -5 157 36Q94 82 77 192Q68 249 81 327Q103 469 174 567T341 706T545 738Q565 713 539 661Q386 670 295 623Q249 563 228 531T184 439T146
302Q136 216 157 157Q213 308 284 392ZM390 411Q326 366 267 279T180 109Q216 55 281 58Q323 61 380 139T451 279Q468 334 456 372T390 411Z" />
<glyph unicode="7" horiz-adv-x="454" d="M451 732Q518 702 481 632L127 2Q100 -14 65 10L346 540L420 659L417 664L76 656Q53 683 97 740L404 716L451 732Z" />
<glyph unicode="8" horiz-adv-x="531" d="M532 575Q532 546 518 527T495 499T465 474T432 450T389 421T343 390Q405 347 438 306T470 215T441 121T376 51T293 8T210 -4Q139 -2 97 41T58 143T95 239T239 364Q181 407 150 445T121 534T167 636T266 716Q392 780 481
686Q532 632 532 575ZM413 184Q411 211 389 239T344 286T277 336Q174 248 120 177Q119 108 161 78T301 57Q373 104 413 184ZM303 417Q383 475 460 549Q451 671 337 696Q293 675 247 635T179 553Q182 517 213 487T303 417Z" />
<glyph unicode="9" horiz-adv-x="572" d="M260 742T347 742T489 650T524 398T416 142T151 -12Q135 -3 124 15T112 52Q281 91 383 172Q441 278 456 407Q465 498 443 564Q388 420 318 340T188 259T96 305T78 432Q97 547 178 644ZM216 324Q278 368 335 450T421 613Q390
665 338 678Q290 666 228 587T152 435Q149 406 148 382T163 341T216 324Z" />
<glyph unicode=":" horiz-adv-x="241" d="M194 395T168 379T122 362T89 373T72 404Q75 431 98 457T146 486Q164 486 183 464T208 417Q194 395 168 379ZM140 33T114 17T68 0T35 11T18 42Q21 69 44 95T92 124Q110 124 129 102T154 55Q140 33 114 17Z" />
<glyph unicode=";" horiz-adv-x="233" d="M145 42Q129 -7 84 -53T-9 -129Q-34 -123 -42 -106L37 -26V103Q77 123 107 104T145 42ZM194 395T168 379T122 362T89 373T72 404Q75 431 98 457T146 486Q164 486 183 464T208 417Q194 395 168 379Z" />
<glyph unicode="&lt;" horiz-adv-x="593" d="M337 441L137 350L507 150Q505 132 493 118T463 98L270 215L70 318Q61 353 82 387L529 589Q546 577 550 556T545 516L337 441Z" />
<glyph unicode="=" horiz-adv-x="630" d="M565 283Q577 276 573 256T550 214L58 206Q36 228 69 272L319 268L565 283ZM596 475Q608 468 604 448T581 406L90 399Q67 422 100 464L350 460L596 475Z" />
<glyph unicode="&gt;" horiz-adv-x="593" d="M112 537Q114 554 126 569T156 589L549 369Q558 334 537 300L302 198L90 98Q73 109 68 131T73 171L483 337L287 453L112 537Z" />
<glyph unicode="?" horiz-adv-x="648" d="M236 29T208 13T161 -3T130 8T116 39Q121 66 147 92T198 121Q216 121 233 99T253 52Q236 29 208 13ZM246 591Q226 582 216 582T193 599T174 649T172 712Q256 777 345 812T513 848T622 790T623 644T500 500T257 409L215
166Q192 160 185 164T178 186L180 400Q193 441 238 468Q513 522 567 672Q590 745 537 794Q379 788 233 681L246 591Z" />
<glyph unicode="@" horiz-adv-x="900" d="M537 163L406 13Q329 14 288 58T246 180T282 344T381 485T507 540Q566 514 606 443L607 447Q610 513 623 546Q663 547 682 541T718 514L642 365Q629 285 596 79Q685 125 748 193T832 341Q820 483 763 562T568 694Q369
678 234 542T98 233Q98 160 124 100T196 -2Q284 -82 402 -114Q504 -76 566 -11Q593 -10 602 -20T611 -55Q556 -118 406 -162Q239 -129 131 -22T23 243Q23 372 101 487T299 670T546 737Q641 737 719 683T840 543T883 357T793 163T579 32Q549 62 543 90T548 154L537
163ZM322 181Q322 105 378 72Q469 162 554 242L588 389Q572 423 554 444T503 487Q418 452 370 370T322 181Z" />
<glyph unicode="A" horiz-adv-x="567" d="M449 339L551 360Q563 352 562 332T544 289L453 284L474 0Q413 -7 388 25L387 280L253 273L193 264L72 0Q7 -6 -11 24L111 252L32 240Q6 274 39 310L144 315L210 438L324 710Q379 745 448 724L433 550L449 339ZM218 319L387
327L376 646L367 644L218 319Z" />
<glyph unicode="B" horiz-adv-x="585" d="M541 238Q541 129 461 41Q321 -9 147 0Q108 11 89 27T65 70Q120 276 149 435L184 662L148 654Q127 668 124 688T131 720Q202 735 284 735Q410 735 483 681T556 554T528 445T430 368L429 361Q480 346 525 310Q541 277 541
238ZM157 55Q308 53 402 86Q459 152 460 233Q460 260 453 282Q408 322 354 334T203 337L157 55ZM473 546Q473 606 417 644T257 673L207 387Q331 385 409 420Q413 424 425 433T439 445T449 455T458 467T464 480T469 497T471 518T473 546Z" />
<glyph unicode="C" horiz-adv-x="580" d="M285 649T201 542T116 326T159 157T296 62Q348 84 399 120T478 189Q501 195 514 180T526 147Q498 111 435 69T307 0Q166 37 105 116T42 318Q42 414 108 535Q251 714 431 744Q489 722 524 668T564 557Q515 519 468 536Q459
631 416 679L401 678Q285 649 201 542Z" />
<glyph unicode="D" horiz-adv-x="618" d="M285 735Q432 735 516 645T603 413Q605 296 549 200T381 41Q262 1 134 0Q67 18 50 62Q126 314 159 499L161 662L125 654Q104 668 101 688T108 720Q179 735 285 735ZM189 355L150 71Q273 71 357 92Q445 155 484 230T521
402Q518 525 449 600T257 666Q200 411 189 355Z" />
<glyph unicode="E" horiz-adv-x="497" d="M206 389Q410 406 422 408Q431 395 428 371T411 325Q267 335 197 332L127 67Q252 83 405 113Q426 103 425 78T409 29L118 0Q42 21 41 66Q126 289 162 492L181 653Q167 662 135 664Q117 697 135 715Q297 731 526 728Q546
713 537 675T501 615L438 656Q348 670 264 661L235 552L206 389Z" />
<glyph unicode="F" horiz-adv-x="500" d="M264 662L235 553L211 372Q239 375 316 380T428 391Q436 379 433 354T415 308Q270 318 200 314Q178 160 162 3Q143 -4 113 3T68 28Q116 209 173 518L181 654Q167 663 135 665Q117 698 135 716Q297 732 526 729Q546 714
537 676T501 616L438 657Q348 671 264 662Z" />
<glyph unicode="G" horiz-adv-x="616" d="M206 118Q242 92 309 62Q435 172 498 310L494 315L328 287Q310 309 309 330T326 366Q433 347 553 366Q568 336 571 302T561 212T538 121T498 0Q447 -4 431 26Q503 173 519 247L511 249Q448 89 320 0Q176 43 117 114T55
305Q54 400 121 522Q235 707 444 742Q502 720 537 666T577 555Q528 517 481 534Q472 627 429 677L414 676Q297 647 213 539T129 303T206 118Z" />
<glyph unicode="H" horiz-adv-x="669" d="M174 710Q215 735 237 735T279 726L204 401L202 384L374 390L497 410Q506 459 512 497L527 710Q568 735 590 735T632 726L561 420L635 432Q647 424 645 404T626 362L552 356Q547 311 531 191T508 0Q435 -7 413 31Q473
281 487 351L207 330L196 328Q156 16 154 0Q83 -7 59 31Q111 244 126 318L68 309Q44 343 78 379L139 381Q148 428 159 497L174 710Z" />
<glyph unicode="I" horiz-adv-x="225" d="M137 710Q178 735 200 735T242 726L167 401Q162 350 144 214T118 0Q45 -7 23 31Q96 331 122 497L137 710Z" />
<glyph unicode="J" horiz-adv-x="532" d="M308 672L133 657Q103 687 124 715Q392 729 603 721Q614 713 610 695T588 660L403 672L336 389Q331 343 317 234T295 60Q282 31 248 16T176 0Q115 35 76 88T28 189Q45 216 66 225T108 224Q117 131 194 60L208 67Q278 382
299 505L308 672Z" />
<glyph unicode="K" horiz-adv-x="588" d="M151 710Q192 735 214 735T256 726L181 401L180 392L314 484L536 735Q562 731 574 720T592 687Q539 624 433 531T236 380Q325 154 515 76Q534 24 470 0Q388 45 317 142T195 360L175 344Q171 313 155 193T132 0Q59 -7 37
31Q110 331 136 497L151 710Z" />
<glyph unicode="L" horiz-adv-x="446" d="M137 710Q171 731 193 735T242 726L164 374L98 64Q222 79 387 111Q407 100 406 77T391 31L89 0Q13 19 12 63Q71 219 124 497L137 710Z" />
<glyph unicode="M" horiz-adv-x="684" d="M618 723Q652 735 674 735T712 726L637 401Q632 353 614 217T588 0Q516 -7 492 31Q555 284 592 497L593 557L389 206Q356 200 339 203T297 225Q221 362 188 555L158 401Q153 353 135 217T108 0Q35 -7 13 31Q86 331 112
497L127 720Q154 734 184 734T226 719Q233 626 253 517T298 340L354 262L501 494L618 723Z" />
<glyph unicode="N" horiz-adv-x="626" d="M554 710Q595 735 617 735T659 726L581 401Q576 355 557 219T528 0Q466 -5 434 24Q311 261 199 611L154 401Q149 351 130 215T102 0Q30 -7 6 31Q58 233 76 318T110 497L127 710Q170 735 191 735T232 726Q303 474 401 235L463
126Q469 154 481 207T500 294Q521 395 537 497L554 710Z" />
<glyph unicode="O" horiz-adv-x="607" d="M515 359Q502 470 474 549T389 684Q272 629 201 530T130 314Q131 232 167 159T272 52Q369 108 424 181T515 359ZM395 735Q439 735 483 679T556 536T586 363Q587 300 533 213T404 63T274 0T166 50T84 168T53 297Q52 403
103 506T235 672T395 735Z" />
<glyph unicode="P" horiz-adv-x="532" d="M282 735Q408 735 474 679T542 546Q546 390 402 312Q295 275 191 270Q181 171 157 3Q138 -4 108 2T62 25Q98 157 149 449L175 667L127 662Q116 681 118 698T133 720Q198 735 282 735ZM259 673L202 407Q198 348 195 316Q308
332 375 364Q419 390 444 436T469 535Q467 605 416 643T259 673Z" />
<glyph unicode="Q" horiz-adv-x="630" d="M275 0Q219 0 166 50T84 168T53 297Q52 403 103 506T235 672T395 735Q439 735 483 679T556 536T586 365T502 168T329 14L362 -42L455 -99Q463 -147 384 -161L283 0H275ZM272 52Q369 108 424 181T515 359Q502 470 474 549T389
684Q272 629 201 530T130 314Q131 232 167 159T272 52Z" />
<glyph unicode="R" horiz-adv-x="568" d="M280 737Q404 737 467 686T531 561T494 437T372 340Q293 330 241 328Q275 230 328 174T482 73Q492 51 477 31T427 0Q334 59 280 145T208 327L193 326Q181 191 150 3Q131 -4 101 2T55 25Q86 137 99 201T118 292Q130 352
147 455L176 666L125 663Q114 682 116 699T131 721Q200 737 280 737ZM200 413Q200 393 197 369Q279 372 354 392Q407 427 428 462T449 555T402 648T260 677L200 413Z" />
<glyph unicode="S" horiz-adv-x="565" d="M526 232Q513 146 442 85T241 0Q164 24 98 86T21 202Q41 230 58 236T105 232Q127 163 155 129T251 53Q337 74 393 122T449 229Q447 266 328 332Q277 359 225 389T134 462T87 548Q119 627 201 682T366 744Q485 694 539
583Q536 564 517 552T468 543Q446 601 421 633T359 692Q292 677 228 629T165 547T215 476T323 408T444 328T526 232Z" />
<glyph unicode="T" horiz-adv-x="537" d="M291 670L111 657Q81 687 103 715Q321 729 603 725Q614 717 610 699T588 663L387 675L322 389Q315 328 299 196T275 0Q204 -7 180 30Q247 288 284 505L291 670Z" />
<glyph unicode="U" horiz-adv-x="570" d="M248 0Q161 0 109 54T46 166Q50 191 65 278T85 395T100 488Q115 583 126 710Q167 735 189 735T231 726Q126 375 126 174Q126 134 157 101T237 57T348 76Q410 137 440 233T498 497V710Q539 735 561 735T603 726Q590 669
570 555T535 369T506 247T469 145T418 65Q354 0 248 0Z" />
<glyph unicode="V" horiz-adv-x="536" d="M484 552L471 706Q544 737 584 706Q591 629 546 532Q514 473 444 352T337 161L280 3Q216 -13 177 22L108 705Q128 718 154 721T197 713L216 247L242 67L484 552Z" />
<glyph unicode="W" horiz-adv-x="791" d="M746 555L733 712Q807 741 847 712Q853 628 809 536L632 164L585 4Q563 -4 531 0T480 22L445 345L348 161L286 3Q223 -13 184 22L109 711Q128 724 154 727T198 718L220 247L245 85L434 437L413 640Q457 676 500 658L513
272L544 69L746 555Z" />
<glyph unicode="X" horiz-adv-x="595" d="M327 403L562 734Q590 736 606 723T632 676Q539 588 341 367Q452 142 537 69Q539 44 519 25T463 0Q422 47 374 146T308 322L76 0Q39 6 24 22T9 64Q82 126 299 367Q209 556 93 658Q87 720 158 733Q215 678 260 589T327 403Z" />
<glyph unicode="Y" horiz-adv-x="567" d="M116 713Q133 728 158 733T202 728L238 558L324 338H327L348 377L512 598L478 717Q528 736 553 735T604 714Q604 634 559 578Q449 435 363 327Q331 227 319 0Q304 -7 275 -2T224 19Q262 126 284 303Q243 420 116 713Z" />
<glyph unicode="Z" horiz-adv-x="571" d="M90 41L85 36L93 19Q76 -5 17 0Q3 24 3 48T42 117T139 222T262 350T387 498T482 649L475 657Q260 655 190 670Q161 631 158 570Q91 558 73 593Q97 702 172 735Q224 719 324 710T494 702L513 744Q547 743 561 736T585 713Q567
641 477 515T286 279T106 96L111 87Q363 87 428 76Q447 112 455 152Q524 167 541 126Q523 58 442 0Q391 21 279 32T90 41Z" />
<glyph unicode="[" horiz-adv-x="505" d="M417 787L352 783L305 625L232 243L197 5L373 31Q386 10 359 -19L157 -59Q118 -39 108 -10L210 416L279 840L530 846Q534 830 530 818T512 781L417 787Z" />
<glyph unicode="\" horiz-adv-x="457" d="M64 839Q69 860 88 870T123 874L254 362L408 -110Q383 -137 343 -118L64 839Z" />
<glyph unicode="]" horiz-adv-x="531" d="M340 237L325 -18L41 -62Q15 -21 35 15L245 19L315 416L388 787L199 782Q185 799 182 817T187 846L436 832Q463 808 467 764L340 237Z" />
<glyph unicode="^" horiz-adv-x="443" d="M53 415L262 746Q309 757 333 738L441 409Q425 395 403 394T372 402L278 701L86 394Q59 391 53 415Z" />
<glyph unicode="_" horiz-adv-x="626" d="M503 -51Q515 -57 511 -78T488 -120L-3 -127Q-14 -117 -11 -99T8 -62L257 -66L503 -51Z" />
<glyph unicode="`" horiz-adv-x="227" d="M193 787L274 600Q269 583 240 586L189 659L103 747Q110 773 135 783T193 787Z" />
<glyph unicode="a" horiz-adv-x="501" d="M321 163L190 13Q113 14 72 58T30 180T66 344T165 485T291 540Q350 514 390 443L391 446Q394 512 407 546Q478 546 502 514L427 367Q409 251 389 0Q321 -8 287 29L332 154L321 163ZM106 181Q106 105 162 72Q253 162 338
242L372 389Q356 423 338 444T287 487Q202 452 154 370T106 181Z" />
<glyph unicode="b" horiz-adv-x="491" d="M145 393L157 380Q221 464 302 540Q383 511 418 463T473 326Q442 199 351 113T119 0Q42 27 37 77Q87 285 132 540L150 787Q185 808 206 812T255 804L198 576L174 447L145 393ZM110 59Q232 83 308 157T402 328Q393 384
371 416T302 469Q215 386 156 309Q129 140 110 59Z" />
<glyph unicode="c" horiz-adv-x="483" d="M306 540Q362 531 400 486T442 388Q423 372 398 368T357 374Q355 417 343 440T301 487L283 485Q213 451 166 386T116 264Q111 184 135 135T231 57Q278 73 325 98T397 149Q418 150 424 140T428 108Q399 76 335 42T221 0Q123
25 78 92T38 247Q41 297 57 342Q99 411 163 467T306 540Z" />
<glyph unicode="d" horiz-adv-x="462" d="M322 164L190 13Q113 14 72 58T30 180T66 344T165 485T287 540T387 454Q399 510 405 540L410 787Q448 808 469 812T518 804L460 580Q421 287 374 0Q308 -6 288 24L333 154L322 164ZM106 181Q106 105 162 72Q253 162 338
242L372 389Q350 435 332 456T292 492Q206 457 156 372T106 181Z" />
<glyph unicode="e" horiz-adv-x="481" d="M275 548Q363 525 399 465T428 321Q260 241 108 209Q114 153 142 117T230 58Q338 97 389 145Q409 145 415 136T419 103Q399 76 336 43T227 0Q128 22 79 88T32 248Q33 288 51 347Q137 492 275 548ZM105 267V259Q231 291
359 348Q359 405 344 438T282 494L268 491Q202 459 155 391T105 267Z" />
<glyph unicode="f" horiz-adv-x="346" d="M378 495T378 475T363 433L183 423Q157 202 122 0Q57 -6 37 24Q91 199 126 413L-1 389Q-28 423 1 459L133 460L134 467L132 714Q172 760 207 784T293 814Q349 805 388 760T431 662Q412 647 388 643T348 648Q344 691 331
714T289 761Q246 751 205 718Q206 639 188 468L365 503Q378 495 378 475Z" />
<glyph unicode="g" horiz-adv-x="474" d="M321 163L190 13Q113 14 72 58T30 180T66 344T165 485T288 540T391 446Q394 512 407 546Q478 546 501 514L418 336Q395 243 376 123T342 -95T321 -229Q307 -246 269 -258T198 -270Q129 -236 89 -184T41 -81Q59 -54 81
-44T122 -46Q130 -145 214 -210Q228 -211 241 -203Q269 -107 295 50L332 154L321 163ZM106 181Q106 105 162 72Q253 162 338 242L372 389Q350 435 332 456T292 492Q206 457 156 372T106 181Z" />
<glyph unicode="h" horiz-adv-x="507" d="M153 397L164 383Q248 498 352 540Q406 535 439 498T480 417L444 328Q425 177 416 0Q354 -7 327 25Q353 192 395 413Q390 454 353 469Q256 427 164 309Q138 142 111 0Q46 -6 26 24Q81 212 141 540L152 787Q188 808 209
812T257 804L201 573L187 442L153 397Z" />
<glyph unicode="i" horiz-adv-x="227" d="M113 368L110 524Q155 543 176 540T208 524L171 394Q154 249 131 0Q58 -7 36 31Q69 144 113 368ZM224 616T209 601T171 585T132 600T115 638T128 676T167 691T205 676T222 639Z" />
<glyph unicode="j" horiz-adv-x="261" d="M-48 -46Q-36 -142 41 -210L54 -203Q62 -150 85 16Q129 333 185 546Q255 546 280 514L195 320Q158 99 136 -218Q127 -241 93 -255T23 -270Q-39 -235 -79 -182T-127 -81Q-111 -54 -89 -44T-48 -46ZM310 616T296 602T261
588T225 602T209 637T221 672T257 687T293 673T309 637Z" />
<glyph unicode="k" horiz-adv-x="486" d="M127 364L131 356Q259 464 405 540Q429 536 437 515T435 470Q250 396 151 313Q233 155 427 67Q437 49 424 31T381 0Q315 38 248 101T131 237Q112 137 89 0Q23 -6 3 24Q67 241 121 592L111 782Q150 818 208 811Q207 729
152 399L127 364Z" />
<glyph unicode="l" horiz-adv-x="245" d="M144 540L156 787Q191 808 212 812T260 804L202 580Q177 357 135 0Q62 -7 40 31Q108 297 144 540Z" />
<glyph unicode="m" horiz-adv-x="742" d="M388 0Q326 -7 299 25Q337 252 378 418Q361 459 325 474Q283 452 248 416T157 310Q127 117 105 0Q41 -6 19 24Q75 210 107 372L86 515Q128 554 185 546Q190 522 174 437L147 388L156 381Q157 384 171 401T197 431T212
449T228 465T245 482T263 497T283 513Q310 531 328 540Q372 533 403 510T448 459L422 414L431 408Q506 497 588 540Q647 529 679 495T715 417L679 328Q660 162 651 0Q590 -7 563 25Q584 163 631 413Q625 452 589 469Q513 441 431 345Q398 246 388 0Z" />
<glyph unicode="n" horiz-adv-x="500" d="M147 388L156 382Q240 496 346 540Q400 535 432 498T473 417L437 328Q418 162 409 0Q348 -7 321 25Q342 163 389 413Q383 454 347 469Q251 427 157 309Q135 167 105 0Q41 -6 19 24Q75 210 107 372L86 515Q128 554 185
546Q190 522 174 437L147 388Z" />
<glyph unicode="o" horiz-adv-x="484" d="M28 230Q28 295 70 372T172 501T283 553T391 460T450 302T409 167T303 48T190 0T84 70T28 230ZM275 497Q195 452 154 392T95 249Q99 182 121 135T189 49Q278 87 324 145T388 291Q379 344 349 401T275 497Z" />
<glyph unicode="p" horiz-adv-x="491" d="M147 388L157 381Q216 461 301 540Q390 512 430 455T481 309Q459 211 394 138T213 0Q163 11 118 43Q95 -136 64 -269Q0 -275 -22 -245Q55 51 107 372L86 515Q128 554 185 546Q190 522 174 437L147 388ZM207 58Q362 149
409 311Q399 430 301 469Q211 383 156 310Q145 240 127 104Q158 73 207 58Z" />
<glyph unicode="q" horiz-adv-x="483" d="M324 168L189 13Q112 14 71 58T29 180T65 344T163 485T289 540Q344 540 385 457Q389 517 401 546Q471 546 496 514L420 367Q400 265 371 100T323 -158L328 -163Q427 -64 444 -48Q469 -43 472 -71Q451 -101 397 -168T318
-270Q233 -259 233 -213Q236 -199 258 -114Q302 63 324 168ZM105 181Q105 105 161 72Q251 160 336 241L371 389H370Q349 435 331 456T291 492Q205 457 155 372T105 181Z" />
<glyph unicode="r" horiz-adv-x="382" d="M152 388L164 380Q219 452 295 540Q336 534 362 501T388 422Q337 384 298 405Q301 451 279 460Q230 404 164 318Q137 140 110 0Q45 -6 25 24Q85 231 112 372L92 515Q114 537 136 544T190 546Q195 522 179 437L152 388Z" />
<glyph unicode="s" horiz-adv-x="464" d="M332 171Q332 202 210 254Q164 274 121 306T67 375Q79 447 147 497T299 553Q347 532 377 501T419 414Q416 398 396 391T339 390Q336 450 292 507Q239 492 193 454T146 390Q146 362 266 307Q312 286 355 250T409 172Q392
94 330 49T168 0Q113 16 70 61T19 150Q37 177 53 185T95 189Q113 95 176 44Q250 59 291 96T332 171Z" />
<glyph unicode="t" horiz-adv-x="372" d="M382 492L219 487Q212 420 196 281T171 67Q249 89 300 125Q323 126 329 117T333 87Q301 59 248 35T146 0Q85 13 76 52Q149 384 166 478L40 454Q13 488 42 524L172 525L171 669Q230 710 271 679L225 532L384 563Q398 555
398 535T382 492Z" />
<glyph unicode="u" horiz-adv-x="501" d="M339 236V238Q372 416 406 546Q477 546 501 514L426 367Q404 224 391 0Q330 -7 302 25L351 156L339 166Q279 88 191 0Q54 19 28 94L79 267Q94 437 92 546Q123 550 142 544T185 515Q169 373 110 111Q123 80 180 63Q280
153 339 236Z" />
<glyph unicode="v" horiz-adv-x="440" d="M355 517Q426 558 459 519Q401 213 207 0Q172 0 143 12T107 48Q125 172 125 236T105 382L22 485Q28 512 52 527T109 540Q213 399 186 72L194 67Q341 252 379 406L355 517Z" />
<glyph unicode="w" horiz-adv-x="677" d="M441 70L448 67Q567 205 621 411L594 522Q663 565 698 527Q660 227 467 0Q432 -2 402 12T366 48Q395 192 384 311L378 313Q332 177 194 0Q159 0 130 12T94 48Q113 164 115 233T105 382L22 485Q28 512 52 527T109 540Q208
391 173 72L181 70Q286 211 357 397L296 491Q305 517 330 530T388 538Q438 417 449 315T441 70Z" />
<glyph unicode="x" horiz-adv-x="519" d="M270 319L428 540Q457 541 473 528T499 482Q427 431 354 352Q331 326 282 271Q335 145 438 83Q445 55 428 33T377 0Q273 88 250 231L76 0Q12 11 6 64Q101 137 239 279Q177 406 84 453Q81 516 147 540Q246 460 270 319Z" />
<glyph unicode="y" horiz-adv-x="470" d="M334 238Q375 468 403 546Q474 546 497 514L414 347Q390 234 358 27T318 -224Q301 -248 261 -260T180 -270Q112 -235 72 -183T24 -81Q41 -54 63 -44T105 -46Q113 -147 197 -210Q225 -214 237 -203Q272 -91 298 76L337
147L325 158Q299 126 212 46Q122 61 81 87T29 153L78 296Q84 346 86 427T86 546Q117 550 136 544T179 515Q165 416 153 357T109 171Q120 145 138 131T199 105Q293 176 334 238Z" />
<glyph unicode="z" horiz-adv-x="504" d="M114 87H205Q281 87 348 75Q369 116 373 152Q444 167 448 123Q432 49 356 0Q306 26 230 35T95 41L91 36L98 19Q84 -5 24 0Q12 23 12 51T38 108T107 172T197 243T296 335T381 445L375 453Q283 451 170 476Q141 433 141
375Q82 361 63 397Q82 507 157 540Q299 496 392 498L409 540Q444 538 459 530T484 504Q478 430 350 308Q251 214 184 158T109 96L114 87Z" />
<glyph unicode="{" horiz-adv-x="648" d="M396 856Q459 856 542 787Q540 755 511 744L394 811L351 786Q416 654 382 549Q365 493 321 458T217 417L215 405Q319 336 318 229Q315 108 195 2L226 -38L363 -10Q393 -32 382 -59Q296 -86 233 -90Q151 -64 122 30Q241
104 244 237Q245 288 216 328T144 387L166 465Q223 465 269 514T320 636T271 789Q293 818 328 837T396 856Z" />
<glyph unicode="|" horiz-adv-x="214" d="M175 951Q215 977 237 977T280 968L151 401Q146 353 117 124T80 -186Q7 -193 -15 -154Q36 54 106 497L175 951Z" />
<glyph unicode="}" horiz-adv-x="649" d="M420 535Q419 484 448 444T521 384L498 306Q442 306 396 257T345 135T393 -18Q354 -79 268 -90Q203 -70 122 -16Q124 18 153 27L270 -40L313 -15Q248 117 282 222Q300 278 344 314T447 354L449 366Q346 434 347 542Q348
663 469 769L438 809L301 781Q271 803 282 831Q351 859 420 861Q463 862 494 828T542 741Q423 667 420 535Z" />
<glyph unicode="~" horiz-adv-x="648" d="M201 408Q295 393 346 368Q365 359 406 334L413 333L498 402Q524 406 541 398T561 373Q524 321 423 281Q340 295 294 312T210 359L203 356L133 284Q105 283 87 292T69 313Q125 384 201 408Z" />
<glyph unicode="&#xa0;" horiz-adv-x="432" />
<glyph unicode="&#xa1;" horiz-adv-x="381" d="M200 548T228 564T275 580T306 569T320 538Q315 511 289 485T238 456Q220 456 203 478T183 525Q200 548 228 564ZM113 -54L204 379Q223 392 247 375L207 188L149 -283Q113 -290 89 -285T42 -255L113 -54Z" />
<glyph unicode="&#xa2;" horiz-adv-x="483" d="M309 480L235 58Q350 99 397 149Q418 150 424 140T428 108Q399 76 337 43T225 1L202 -129Q152 -141 127 -92L174 16Q101 48 68 110T37 234T57 342Q94 403 150 455T274 531L297 664Q346 680 368 634L327 535Q374 520
406 478T442 388Q423 372 398 368T357 374Q355 414 344 437T309 480ZM194 76L264 475Q201 438 160 377T115 256T129 150T194 76Z" />
<glyph unicode="&#xa3;" horiz-adv-x="648" d="M454 59L503 104Q571 74 518 0Q347 7 177 31Q153 2 107 0Q24 61 90 114L143 101Q204 218 235 326L106 323Q89 343 112 381L247 369Q264 435 275 518L244 656Q318 742 426 756Q482 747 521 702T565 604Q546 588 522
584T482 590Q478 633 465 656T422 703Q349 685 318 660Q337 530 306 375L480 393Q502 380 470 332L296 328Q263 194 208 81Q325 60 454 59Z" />
<glyph unicode="&#xa4;" horiz-adv-x="637" d="M294 111Q254 111 210 153L107 43Q71 47 60 61T55 100L178 187Q132 250 132 328T208 503L85 610Q82 636 94 649T143 662L238 537Q319 621 388 621Q423 621 469 570L564 671Q600 667 611 653T616 613L498 531Q553
448 555 384Q556 297 457 199L581 111Q594 59 529 54L422 168Q350 111 294 111ZM293 156Q382 192 428 245T491 379Q483 427 453 479T379 569Q298 528 257 473T199 341Q203 278 225 235T293 156Z" />
<glyph unicode="&#xa5;" horiz-adv-x="568" d="M542 377T542 357T527 315L359 313Q347 271 337 202L529 234Q542 226 542 206T527 164L331 154Q324 84 319 0Q304 -7 275 -2T224 19Q243 71 258 146L120 120Q93 154 122 190L267 191Q278 257 284 302L120 271Q93
307 122 341L270 342Q233 444 116 713Q133 728 158 733T202 728L238 558L319 325H322L339 365L512 598L478 717Q528 736 553 735T604 714Q604 634 559 578Q501 503 456 445T391 362L529 386Q542 377 542 357Z" />
<glyph unicode="&#xa6;" horiz-adv-x="224" d="M63 297Q91 311 121 311T166 300L95 41Q94 19 86 -64T75 -185Q27 -209 -24 -173Q27 25 36 83L63 297ZM188 960Q226 974 248 974T293 966L220 701Q219 678 211 597T200 477Q141 468 102 491Q110 525 124 581Q152 689
161 743L188 960Z" />
<glyph unicode="&#xa7;" horiz-adv-x="565" d="M134 287Q134 247 210 203Q272 168 336 139Q402 179 431 215T461 294Q461 320 419 346Q385 367 289 415Q134 323 134 287ZM172 577Q172 529 328 458Q389 430 449 387T530 297Q508 170 379 112Q381 111 393 105T409
98T423 90T439 81T452 72T466 62Q489 39 496 23Q472 -62 404 -110T219 -181Q150 -155 92 -110T18 -22Q47 36 87 22Q110 -33 137 -63T229 -129Q317 -106 367 -70T419 15Q419 33 368 60T253 114T133 187T65 283Q122 385 242 440Q196 467 175 481T128 521T94 575Q139
654 216 695T374 744Q495 693 545 583Q539 549 488 549Q461 608 434 639T366 692Q316 685 244 644T172 577Z" />
<glyph unicode="&#xa8;" horiz-adv-x="280" d="M107 703T127 703T160 690T174 657T160 623T127 609T94 623T80 656T93 689ZM269 703T289 703T322 690T336 657T322 623T289 609T256 623T242 656T255 689Z" />
<glyph unicode="&#xa9;" horiz-adv-x="755" d="M558 476Q542 463 521 460T486 464Q484 502 473 522T437 563L421 561Q361 532 320 475T276 369Q273 301 294 259T377 191Q474 223 519 271Q537 272 542 263T546 235Q521 207 466 178T368 143Q283 163 245 221T210
355Q213 400 227 437Q262 497 317 545T441 608Q490 601 522 562T558 476ZM693 366Q681 547 614 620Q555 684 435 717Q289 694 204 598T98 377Q113 238 170 158T348 37Q430 46 494 77T597 157Q671 248 693 366ZM41 378Q70 523 158 623Q256 735 440 759Q581 736 654
662Q716 598 738 482Q747 433 751 367Q727 229 634 126Q586 73 512 39T343 -5Q189 27 117 131T41 378Z" />
<glyph unicode="&#xaa;" horiz-adv-x="387" d="M293 449L199 334Q138 335 101 370T63 460Q61 562 125 654T267 746Q312 727 345 670L346 673Q347 725 357 752Q423 752 442 726L383 611Q368 497 353 324Q327 321 302 327T264 347L299 445L293 449ZM135 465Q135
434 144 418T176 389Q191 403 215 427T261 472T303 513L329 625Q306 669 269 692Q206 661 171 598T135 465Z" />
<glyph unicode="&#xab;" horiz-adv-x="535" d="M449 220Q456 194 443 171T410 147L254 354Q254 374 262 389L382 477L481 558Q503 550 506 529T490 477L310 359L368 293L449 220ZM255 220Q262 194 249 171T216 147L59 354Q59 372 68 389L171 477L269 558Q291 550
294 529T279 477L116 359L174 293L255 220Z" />
<glyph unicode="&#xac;" horiz-adv-x="893" d="M457 397L849 413Q864 403 858 372L820 167Q794 144 756 178L793 343L78 336Q55 359 89 402L457 397Z" />
<glyph unicode="&#xad;" horiz-adv-x="497" d="M458 367Q470 360 466 340T443 298L59 291Q37 313 70 356L255 352L458 367Z" />
<glyph unicode="&#xae;" horiz-adv-x="471" d="M308 739Q406 722 441 669T483 519Q468 436 412 378T253 309Q167 327 127 386T84 525Q120 714 308 739ZM256 334Q345 343 391 394T451 518Q444 602 416 647T305 715Q223 702 175 648T116 524Q124 446 156 402T256
334ZM231 656Q261 661 296 661T355 642T379 597Q379 548 321 517Q313 516 300 515T280 512Q292 477 310 458T365 423Q370 415 363 407T342 394Q275 439 263 511H255Q250 453 240 396Q219 390 206 405Q227 475 250 633H229Q220 649 231 656ZM346 596Q346 642 279
637L258 544L257 530Q278 530 313 538Q346 561 346 596Z" />
<glyph unicode="&#xaf;" horiz-adv-x="335" d="M384 680Q410 665 369 619L83 611Q63 631 94 670L246 665L384 680Z" />
<glyph unicode="&#xb0;" horiz-adv-x="405" d="M278 719Q200 674 180 579Q185 508 231 464Q279 487 304 520T338 603Q329 671 278 719ZM289 757Q325 757 366 703T409 606Q410 553 344 493T222 432Q187 432 148 473T108 570T171 691T289 757Z" />
<glyph unicode="&#xb1;" horiz-adv-x="676" d="M402 462L618 475Q630 468 626 448T603 406L390 403L359 242Q332 224 297 266L330 402L111 399Q89 421 122 464L342 460L362 619Q371 629 390 621T427 590L402 462ZM577 207Q589 201 585 180T562 138L70 131Q47 154
81 197L330 192L577 207Z" />
<glyph unicode="&#xb2;" horiz-adv-x="276" d="M212 681Q178 681 149 646L166 607Q160 596 144 594Q118 613 90 657Q108 695 140 719T208 744T274 699T305 612T286 542T224 477L110 383L113 380L270 387Q274 376 270 354T254 324L104 335L67 325Q55 332 43 353T32
391L174 517Q232 569 261 623Q249 681 212 681Z" />
<glyph unicode="&#xb3;" horiz-adv-x="295" d="M202 683Q164 683 137 651L156 615Q149 604 131 600Q101 622 79 657Q99 696 130 720T201 744T278 709T314 627Q313 611 301 599T259 571L210 547Q259 533 289 510T315 451Q311 406 238 372T65 326Q57 332 54 344T52
365Q130 383 176 402T256 453Q248 473 226 488T153 522L161 558L254 630Q245 683 202 683Z" />
<glyph unicode="&#xb4;" horiz-adv-x="171" d="M162 770Q194 779 227 767T262 738L103 582Q73 582 70 599L132 692L162 770Z" />
<glyph unicode="&#xb5;" horiz-adv-x="501" d="M339 236V238Q372 416 406 546Q477 546 501 514L426 367Q404 224 391 0Q330 -7 302 25L351 156L339 166Q279 88 191 0Q129 5 86 31Q49 -122 18 -254Q-6 -266 -27 -260T-63 -234Q56 138 86 289Q92 347 92 546Q123
550 142 544T185 515Q174 406 104 107Q133 76 180 63Q280 153 339 236Z" />
<glyph unicode="&#xb6;" horiz-adv-x="594" d="M527 734L548 829Q607 840 646 810L565 618L495 247Q478 129 462 0Q422 -15 376 19L458 368L515 679Q467 681 441 675L341 247L309 0Q269 -14 222 19Q241 100 294 327Q181 341 127 383T80 500T124 622T224 694T358
726T527 734Z" />
<glyph unicode="&#xb7;" horiz-adv-x="243" d="M179 281T153 265T107 248T74 260T58 290Q60 317 83 343T131 372Q149 372 169 350T194 303Q179 281 153 265Z" />
<glyph unicode="&#xb8;" horiz-adv-x="311" d="M92 -81Q124 -51 159 -51T213 -76T224 -145T179 -214T93 -240T2 -222T-66 -171Q-64 -136 -44 -134Q10 -188 70 -188T143 -140Q148 -116 135 -97Q100 -101 70 -127Q34 -127 25 -100L81 19H144L92 -81Z" />
<glyph unicode="&#xb9;" horiz-adv-x="197" d="M208 620L165 423L158 324Q114 317 85 335L154 640L168 680L161 684L122 630Q113 626 95 627T76 635L123 735Q154 741 192 735T242 712L208 620Z" />
<glyph unicode="&#xba;" horiz-adv-x="389" d="M159 329T115 382T71 509T136 664T273 745Q317 745 362 677T409 553Q410 484 339 407T203 329Q159 329 115 382ZM262 702Q164 634 144 518Q148 435 208 373Q265 401 296 443T337 550Q323 636 262 702Z" />
<glyph unicode="&#xbb;" horiz-adv-x="535" d="M114 485Q108 512 121 535T153 558L310 351Q310 330 301 316L181 228L83 147Q35 165 73 228L254 347L195 413L114 485ZM309 485Q302 512 315 535T348 558L504 351Q504 331 496 316L393 228L295 147Q246 166 285 228L448
347L390 413L309 485Z" />
<glyph unicode="&#xbc;" horiz-adv-x="673" d="M515 408Q579 408 599 383L565 292L535 155L606 157Q610 148 604 130T589 103L524 105L522 95L514 -4Q478 -12 447 6L470 107L451 108L336 105Q307 118 300 124T291 136L491 406Q509 408 515 408ZM365 148L481 153L499
231L537 372L529 374L460 275L365 148ZM294 377L521 831Q579 838 597 809L95 -80Q47 -89 27 -62L294 377ZM193 684L154 630Q145 626 127 627T108 635L155 735Q186 741 224 735T274 712L240 620L197 423L190 324Q146 317 117 335L186 640L200 680L193 684Z" />
<glyph unicode="&#xbd;" horiz-adv-x="671" d="M294 377L521 831Q579 838 597 809L95 -80Q47 -89 27 -62L294 377ZM241 620L198 423L191 324Q147 317 118 335L187 640L201 680L194 684L155 630Q146 626 128 627T109 635L156 735Q187 741 225 735T275 712L241 620ZM531
332Q497 332 468 297L485 258Q479 247 463 245Q437 264 409 308Q427 346 459 370T527 395T593 350T624 263T605 193T543 128L429 34L432 31L589 38Q593 27 589 5T573 -25L423 -14L386 -24Q374 -17 362 4T351 42L493 168Q551 220 580 274Q568 332 531 332Z" />
<glyph unicode="&#xbe;" horiz-adv-x="648" d="M563 408Q627 408 647 383L612 292L582 155L653 157Q657 148 651 130T636 103L571 105L569 95L562 -4Q525 -12 495 6L518 107L499 108L383 105Q381 106 368 112Q340 126 338 136L539 406Q557 408 563 408ZM413 148L528
153L546 231L584 372L577 374L508 275L413 148ZM341 377L568 831Q626 838 644 809L142 -80Q94 -89 74 -62L341 377ZM202 683Q164 683 137 651L156 615Q149 604 131 600Q101 622 79 657Q99 696 130 720T201 744T278 709T314 627Q313 611 301 599T259 571L210 547Q259
533 289 510T315 451Q311 406 238 372T65 326Q57 332 54 344T52 365Q130 383 176 402T256 453Q248 473 226 488T153 522L161 558L254 630Q245 683 202 683Z" />
<glyph unicode="&#xbf;" horiz-adv-x="648" d="M373 556T401 572T448 588T480 577T493 546Q488 519 462 493T411 464Q393 464 376 486T356 533Q373 556 401 572ZM363 -6Q382 3 393 3T416 -14T435 -64T437 -127Q353 -192 264 -227T96 -263T-13 -205T-14 -59T109
85T352 176L394 419Q417 425 424 421T431 399L429 185Q416 144 371 117Q96 63 42 -87Q19 -160 72 -209Q230 -203 376 -96L363 -6Z" />
<glyph unicode="&#xc0;" horiz-adv-x="567" d="M449 339L551 360Q563 352 562 332T544 289L453 284L474 0Q413 -7 388 25L387 280L253 273L193 264L72 0Q7 -6 -11 24L111 252L32 240Q6 274 39 310L144 315L210 438L324 710Q379 745 448 724L433 550L449 339ZM218
319L387 327L376 646L367 644L218 319ZM417 788L366 861L280 949Q287 975 312 985T370 989L451 802Q446 785 417 788Z" />
<glyph unicode="&#xc1;" horiz-adv-x="567" d="M449 339L551 360Q563 352 562 332T544 289L453 284L474 0Q413 -7 388 25L387 280L253 273L193 264L72 0Q7 -6 -11 24L111 252L32 240Q6 274 39 310L144 315L210 438L324 710Q379 745 448 724L433 550L449 339ZM218
319L387 327L376 646L367 644L218 319ZM612 940L453 784Q423 784 420 801L482 894L512 972Q544 981 577 969T612 940Z" />
<glyph unicode="&#xc2;" horiz-adv-x="567" d="M449 339L551 360Q563 352 562 332T544 289L453 284L474 0Q413 -7 388 25L387 280L253 273L193 264L72 0Q7 -6 -11 24L111 252L32 240Q6 274 39 310L144 315L210 438L324 710Q379 745 448 724L433 550L449 339ZM218
319L387 327L376 646L367 644L218 319ZM455 903L329 792Q301 796 299 818L440 948Q484 959 510 940L576 802Q560 788 538 787T506 795L455 903Z" />
<glyph unicode="&#xc3;" horiz-adv-x="567" d="M498 839L557 908Q578 912 591 903T599 879Q570 829 488 787Q437 804 410 821T366 864L361 862L309 791Q291 790 278 799T266 820Q281 841 293 855T330 887T386 915Q467 882 494 840L498 839ZM449 339L551 360Q563
352 562 332T544 289L453 284L474 0Q413 -7 388 25L387 280L253 273L193 264L72 0Q7 -6 -11 24L111 252L32 240Q6 274 39 310L144 315L210 438L324 710Q379 745 448 724L433 550L449 339ZM218 319L387 327L376 646L367 644L218 319Z" />
<glyph unicode="&#xc4;" horiz-adv-x="567" d="M449 339L551 360Q563 352 562 332T544 289L453 284L474 0Q413 -7 388 25L387 280L253 273L193 264L72 0Q7 -6 -11 24L111 252L32 240Q6 274 39 310L144 315L210 438L324 710Q379 745 448 724L433 550L449 339ZM218
319L387 327L376 646L367 644L218 319ZM387 839T373 825T340 811T307 825T293 858T306 891T340 905T373 892T387 859ZM549 839T535 825T502 811T469 825T455 858T468 891T502 905T535 892T549 859Z" />
<glyph unicode="&#xc5;" horiz-adv-x="567" d="M396 924T430 954T505 985T563 956T567 886T517 815T441 784T384 813T380 885Q396 924 430 954ZM488 955Q482 955 460 944Q444 922 432 885Q409 814 457 814Q471 814 489 826Q507 852 514 885Q535 955 488 955ZM449
339L551 360Q563 352 562 332T544 289L453 284L474 0Q413 -7 388 25L387 280L253 273L193 264L72 0Q7 -6 -11 24L111 252L32 240Q6 274 39 310L144 315L210 438L324 710Q379 745 448 724L433 550L449 339ZM218 319L387 327L376 646L367 644L218 319Z" />
<glyph unicode="&#xc6;" horiz-adv-x="757" d="M370 644L232 359L368 362L378 646L370 644ZM617 731Q694 731 744 728Q765 713 755 675T713 615L658 664Q589 675 487 663L457 577L442 369Q567 375 658 389Q678 354 649 306Q580 312 542 312T432 305L402 124V63Q459
64 536 79T664 113Q688 104 689 76T679 29Q530 0 405 0Q372 0 362 5T349 12T339 20T331 28T322 39T312 50L366 309L206 303L58 0Q-8 -6 -24 24L130 298L42 292Q18 326 51 362L165 361L208 428L327 705Q432 731 617 731Z" />
<glyph unicode="&#xc7;" horiz-adv-x="580" d="M285 649T201 542T116 326T159 157T296 62Q348 84 399 120T478 189Q501 195 514 180T526 147Q501 115 450 79T340 15L290 -81Q322 -51 357 -51T411 -76T422 -145T377 -214T291 -240T200 -222T132 -171Q134 -136 154
-134Q208 -188 268 -188T341 -140Q346 -116 333 -97Q298 -101 268 -127Q232 -127 223 -100L274 9Q152 49 98 126T42 318Q42 414 108 535Q251 714 431 744Q489 722 524 668T564 557Q515 519 468 536Q459 631 416 679L401 678Q285 649 201 542Z" />
<glyph unicode="&#xc8;" horiz-adv-x="497" d="M301 989L382 802Q377 785 348 788L297 861L211 949Q218 975 243 985T301 989ZM206 389Q410 406 422 408Q431 395 428 371T411 325Q267 335 197 332L127 67Q252 83 405 113Q426 103 425 78T409 29L118 0Q42 21 41
66Q126 289 162 492L181 653Q167 662 135 664Q117 697 135 715Q297 731 526 728Q546 713 537 675T501 615L438 656Q348 670 264 661L235 552L206 389Z" />
<glyph unicode="&#xc9;" horiz-adv-x="497" d="M206 389Q410 406 422 408Q431 395 428 371T411 325Q267 335 197 332L127 67Q252 83 405 113Q426 103 425 78T409 29L118 0Q42 21 41 66Q126 289 162 492L181 653Q167 662 135 664Q117 697 135 715Q297 731 526 728Q546
713 537 675T501 615L438 656Q348 670 264 661L235 552L206 389ZM443 972Q475 981 508 969T543 940L384 784Q354 784 351 801L413 894L443 972Z" />
<glyph unicode="&#xca;" horiz-adv-x="497" d="M206 389Q410 406 422 408Q431 395 428 371T411 325Q267 335 197 332L127 67Q252 83 405 113Q426 103 425 78T409 29L118 0Q42 21 41 66Q126 289 162 492L181 653Q167 662 135 664Q117 697 135 715Q297 731 526 728Q546
713 537 675T501 615L438 656Q348 670 264 661L235 552L206 389ZM230 818L371 948Q415 959 441 940L507 802Q491 788 469 787T437 795L386 903L260 792Q232 796 230 818Z" />
<glyph unicode="&#xcb;" horiz-adv-x="497" d="M251 905T271 905T304 892T318 859T304 825T271 811T238 825T224 858T237 891ZM413 905T433 905T466 892T480 859T466 825T433 811T400 825T386 858T399 891ZM206 389Q410 406 422 408Q431 395 428 371T411 325Q267
335 197 332L127 67Q252 83 405 113Q426 103 425 78T409 29L118 0Q42 21 41 66Q126 289 162 492L181 653Q167 662 135 664Q117 697 135 715Q297 731 526 728Q546 713 537 675T501 615L438 656Q348 670 264 661L235 552L206 389Z" />
<glyph unicode="&#xcc;" horiz-adv-x="225" d="M136 989L217 802Q212 785 183 788L132 861L46 949Q53 975 78 985T136 989ZM137 710Q178 735 200 735T242 726L167 401Q162 350 144 214T118 0Q45 -7 23 31Q96 331 122 497L137 710Z" />
<glyph unicode="&#xcd;" horiz-adv-x="225" d="M278 972Q310 981 343 969T378 940L219 784Q189 784 186 801L248 894L278 972ZM137 710Q178 735 200 735T242 726L167 401Q162 350 144 214T118 0Q45 -7 23 31Q96 331 122 497L137 710Z" />
<glyph unicode="&#xce;" horiz-adv-x="225" d="M65 818L206 948Q250 959 276 940L342 802Q326 788 304 787T272 795L221 903L95 792Q67 796 65 818ZM137 710Q178 735 200 735T242 726L167 401Q162 350 144 214T118 0Q45 -7 23 31Q96 331 122 497L137 710Z" />
<glyph unicode="&#xcf;" horiz-adv-x="225" d="M137 710Q178 735 200 735T242 726L167 401Q162 350 144 214T118 0Q45 -7 23 31Q96 331 122 497L137 710ZM86 905T106 905T139 892T153 859T139 825T106 811T73 825T59 858T72 891ZM248 905T268 905T301 892T315
859T301 825T268 811T235 825T221 858T234 891Z" />
<glyph unicode="&#xd0;" horiz-adv-x="618" d="M285 735Q432 735 516 645T603 413Q605 296 549 200T381 41Q262 1 134 0Q67 18 50 62Q104 240 130 352L39 345Q19 358 17 377T30 405L139 397Q152 458 159 499L161 662L125 654Q104 668 101 688T108 720Q179 735
285 735ZM189 357V355L150 71Q273 71 357 92Q445 155 484 230T521 402Q518 525 449 600T257 666Q247 620 227 529T198 398L373 415Q389 408 393 391T382 359L190 357H189Z" />
<glyph unicode="&#xd1;" horiz-adv-x="626" d="M554 710Q595 735 617 735T659 726L581 401Q576 355 557 219T528 0Q466 -5 434 24Q311 261 199 611L154 401Q149 351 130 215T102 0Q30 -7 6 31Q58 233 76 318T110 497L127 710Q170 735 191 735T232 726Q303 474
401 235L463 126Q469 154 481 207T500 294Q521 395 537 497L554 710ZM344 862L292 791Q274 790 261 799T249 820Q264 841 276 855T313 887T369 915Q450 882 477 840L481 839L540 908Q561 912 574 903T582 879Q553 829 471 787Q420 804 393 821T349 864L344 862Z"
/>
<glyph unicode="&#xd2;" horiz-adv-x="607" d="M358 991L439 804Q434 787 405 790L354 863L268 951Q275 977 300 987T358 991ZM515 359Q502 470 474 549T389 684Q272 629 201 530T130 314Q131 232 167 159T272 52Q369 108 424 181T515 359ZM395 735Q439 735 483
679T556 536T586 363Q587 300 533 213T404 63T274 0T166 50T84 168T53 297Q52 403 103 506T235 672T395 735Z" />
<glyph unicode="&#xd3;" horiz-adv-x="607" d="M515 359Q502 470 474 549T389 684Q272 629 201 530T130 314Q131 232 167 159T272 52Q369 108 424 181T515 359ZM395 735Q439 735 483 679T556 536T586 363Q587 300 533 213T404 63T274 0T166 50T84 168T53 297Q52
403 103 506T235 672T395 735ZM500 974Q532 983 565 971T600 942L441 786Q411 786 408 803L470 896L500 974Z" />
<glyph unicode="&#xd4;" horiz-adv-x="607" d="M515 359Q502 470 474 549T389 684Q272 629 201 530T130 314Q131 232 167 159T272 52Q369 108 424 181T515 359ZM395 735Q439 735 483 679T556 536T586 363Q587 300 533 213T404 63T274 0T166 50T84 168T53 297Q52
403 103 506T235 672T395 735ZM287 820L428 950Q472 961 498 942L564 804Q548 790 526 789T494 797L443 905L317 794Q289 798 287 820Z" />
<glyph unicode="&#xd5;" horiz-adv-x="607" d="M374 917Q455 884 482 842L486 841L545 910Q566 914 579 905T587 881Q558 831 476 789Q425 806 398 823T354 866L349 864L297 793Q279 792 266 801T254 822Q269 843 281 857T318 889T374 917ZM515 359Q502 470 474
549T389 684Q272 629 201 530T130 314Q131 232 167 159T272 52Q369 108 424 181T515 359ZM395 735Q439 735 483 679T556 536T586 363Q587 300 533 213T404 63T274 0T166 50T84 168T53 297Q52 403 103 506T235 672T395 735Z" />
<glyph unicode="&#xd6;" horiz-adv-x="607" d="M308 907T328 907T361 894T375 861T361 827T328 813T295 827T281 860T294 893ZM470 907T490 907T523 894T537 861T523 827T490 813T457 827T443 860T456 893ZM395 735Q439 735 483 679T556 536T586 363Q587 300 533
213T404 63T274 0T166 50T84 168T53 297Q52 403 103 506T235 672T395 735ZM515 359Q502 470 474 549T389 684Q272 629 201 530T130 314Q131 232 167 159T272 52Q369 108 424 181T515 359Z" />
<glyph unicode="&#xd7;" horiz-adv-x="648" d="M336 358L536 584Q559 584 573 573T584 537L362 329L527 158Q518 131 502 121T468 118L325 295L131 114Q85 121 83 160L299 328L134 532Q132 557 147 570T186 583L336 358Z" />
<glyph unicode="&#xd8;" horiz-adv-x="705" d="M310 0Q224 0 151 110L81 0Q6 16 6 72L118 171Q89 238 87 297Q86 403 138 506T270 672T430 735Q467 735 504 696T571 590L659 733Q694 726 717 708T741 665L593 531Q619 448 621 363Q621 300 567 213T438 63T310
0ZM164 314Q164 267 177 224L516 527Q484 624 423 684Q306 629 235 530T164 314ZM530 475L195 173Q235 87 307 52Q403 107 458 180T550 359Q542 427 530 475Z" />
<glyph unicode="&#xd9;" horiz-adv-x="570" d="M302 989L383 802Q378 785 349 788L298 861L212 949Q219 975 244 985T302 989ZM248 0Q161 0 109 54T46 166Q50 191 65 278T85 395T100 488Q115 583 126 710Q167 735 189 735T231 726Q126 375 126 174Q126 134 157
101T237 57T348 76Q410 137 440 233T498 497V710Q539 735 561 735T603 726Q590 669 570 555T535 369T506 247T469 145T418 65Q354 0 248 0Z" />
<glyph unicode="&#xda;" horiz-adv-x="570" d="M248 0Q161 0 109 54T46 166Q50 191 65 278T85 395T100 488Q115 583 126 710Q167 735 189 735T231 726Q126 375 126 174Q126 134 157 101T237 57T348 76Q410 137 440 233T498 497V710Q539 735 561 735T603 726Q590
669 570 555T535 369T506 247T469 145T418 65Q354 0 248 0ZM444 972Q476 981 509 969T544 940L385 784Q355 784 352 801L414 894L444 972Z" />
<glyph unicode="&#xdb;" horiz-adv-x="570" d="M248 0Q161 0 109 54T46 166Q50 191 65 278T85 395T100 488Q115 583 126 710Q167 735 189 735T231 726Q126 375 126 174Q126 134 157 101T237 57T348 76Q410 137 440 233T498 497V710Q539 735 561 735T603 726Q590
669 570 555T535 369T506 247T469 145T418 65Q354 0 248 0ZM231 818L372 948Q416 959 442 940L508 802Q492 788 470 787T438 795L387 903L261 792Q233 796 231 818Z" />
<glyph unicode="&#xdc;" horiz-adv-x="570" d="M252 905T272 905T305 892T319 859T305 825T272 811T239 825T225 858T238 891ZM414 905T434 905T467 892T481 859T467 825T434 811T401 825T387 858T400 891ZM498 710Q539 735 561 735T603 726Q590 669 570 555T535
369T506 247T469 145T418 65Q354 0 248 0Q161 0 109 54T46 166Q50 191 65 278T85 395T100 488Q115 583 126 710Q167 735 189 735T231 726Q126 375 126 174Q126 134 157 101T237 57T348 76Q410 137 440 233T498 497V710Z" />
<glyph unicode="&#xdd;" horiz-adv-x="567" d="M460 971Q492 980 525 968T560 939L401 783Q371 783 368 800L430 893L460 971ZM116 713Q133 728 158 733T202 728L238 558L324 338H327L348 377L512 598L478 717Q528 736 553 735T604 714Q604 634 559 578Q449 435
363 327Q331 227 319 0Q304 -7 275 -2T224 19Q262 126 284 303Q243 420 116 713Z" />
<glyph unicode="&#xde;" horiz-adv-x="532" d="M289 804L234 579Q305 610 377 605Q452 584 495 535T540 425T512 321T408 225Q272 198 185 228Q170 98 157 3Q138 -4 108 2T62 25Q93 136 125 299T174 540L185 787Q220 808 241 812T289 804ZM379 278Q425 318 446
349T467 423T434 501T351 552Q300 558 225 523Q207 410 190 265Q274 253 379 278Z" />
<glyph unicode="&#xdf;" horiz-adv-x="565" d="M524 238Q524 154 456 85T267 0Q180 3 150 50Q159 82 186 106T244 129L284 58Q359 70 404 125T449 238Q449 359 337 387L264 361Q241 388 237 414Q230 460 275 487L332 470Q434 513 434 619Q434 678 384 716T248
744L195 656Q135 218 100 0Q35 -6 15 24Q111 409 127 638Q144 701 174 741T256 804Q367 810 435 755T504 622Q502 489 362 435L361 428Q444 404 484 353T524 238Z" />
<glyph unicode="&#xe0;" horiz-adv-x="501" d="M321 163L190 13Q113 14 72 58T30 180T66 344T165 485T291 540Q350 514 390 443L391 446Q394 512 407 546Q478 546 502 514L427 367Q409 251 389 0Q321 -8 287 29L332 154L321 163ZM106 181Q106 105 162 72Q253 162
338 242L372 389Q356 423 338 444T287 487Q202 452 154 370T106 181ZM342 586L291 659L205 747Q212 773 237 783T295 787L376 600Q371 583 342 586Z" />
<glyph unicode="&#xe1;" horiz-adv-x="501" d="M321 163L190 13Q113 14 72 58T30 180T66 344T165 485T291 540Q350 514 390 443L391 446Q394 512 407 546Q478 546 502 514L427 367Q409 251 389 0Q321 -8 287 29L332 154L321 163ZM106 181Q106 105 162 72Q253 162
338 242L372 389Q356 423 338 444T287 487Q202 452 154 370T106 181ZM537 738L378 582Q348 582 345 599L407 692L437 770Q469 779 502 767T537 738Z" />
<glyph unicode="&#xe2;" horiz-adv-x="501" d="M321 163L190 13Q113 14 72 58T30 180T66 344T165 485T291 540Q350 514 390 443L391 446Q394 512 407 546Q478 546 502 514L427 367Q409 251 389 0Q321 -8 287 29L332 154L321 163ZM106 181Q106 105 162 72Q253 162
338 242L372 389Q356 423 338 444T287 487Q202 452 154 370T106 181ZM380 701L254 590Q226 594 224 616L365 746Q409 757 435 738L501 600Q485 586 463 585T431 593L380 701Z" />
<glyph unicode="&#xe3;" horiz-adv-x="501" d="M423 637L482 706Q503 710 516 701T524 677Q495 627 413 585Q362 602 335 619T291 662L286 660L234 589Q216 588 203 597T191 618Q206 639 218 653T255 685T311 713Q392 680 419 638L423 637ZM321 163L190 13Q113
14 72 58T30 180T66 344T165 485T291 540Q350 514 390 443L391 446Q394 512 407 546Q478 546 502 514L427 367Q409 251 389 0Q321 -8 287 29L332 154L321 163ZM106 181Q106 105 162 72Q253 162 338 242L372 389Q356 423 338 444T287 487Q202 452 154 370T106 181Z"
/>
<glyph unicode="&#xe4;" horiz-adv-x="501" d="M321 163L190 13Q113 14 72 58T30 180T66 344T165 485T291 540Q350 514 390 443L391 446Q394 512 407 546Q478 546 502 514L427 367Q409 251 389 0Q321 -8 287 29L332 154L321 163ZM106 181Q106 105 162 72Q253 162
338 242L372 389Q356 423 338 444T287 487Q202 452 154 370T106 181ZM312 637T298 623T265 609T232 623T218 656T231 689T265 703T298 690T312 657ZM474 637T460 623T427 609T394 623T380 656T393 689T427 703T460 690T474 657Z" />
<glyph unicode="&#xe5;" horiz-adv-x="501" d="M321 163L190 13Q113 14 72 58T30 180T66 344T165 485T291 540Q350 514 390 443L391 446Q394 512 407 546Q478 546 502 514L427 367Q409 251 389 0Q321 -8 287 29L332 154L321 163ZM106 181Q106 105 162 72Q253 162
338 242L372 389Q356 423 338 444T287 487Q202 452 154 370T106 181ZM477 643T442 613T366 582T309 611T305 683Q321 722 355 752T430 783T488 754T492 684ZM382 612Q396 612 414 624Q432 650 439 683Q460 753 413 753Q407 753 385 742Q369 720 357 683Q334 612
382 612Z" />
<glyph unicode="&#xe6;" horiz-adv-x="788" d="M106 181Q106 105 162 72Q253 162 338 242Q341 300 372 389Q356 423 338 444T287 487Q202 452 154 370T106 181ZM590 494L576 491Q507 457 458 392T408 260Q551 295 662 348Q661 403 647 436T590 494ZM321 163L190
13Q113 14 72 58T30 180T66 344T165 485T291 540Q349 516 390 444Q394 513 407 546Q465 551 482 524L451 459Q476 487 516 513T592 548Q673 525 707 465T735 321Q571 243 409 210Q423 97 531 58Q658 106 700 151Q720 151 726 142T730 109Q702 78 637 43T522 0Q422
29 381 106L365 0Q335 -3 320 3T287 29L332 154L321 163Z" />
<glyph unicode="&#xe7;" horiz-adv-x="483" d="M231 -81Q263 -51 298 -51T352 -76T363 -145T318 -214T232 -240T141 -222T73 -171Q75 -136 95 -134Q149 -188 209 -188T282 -140Q287 -116 274 -97Q239 -101 209 -127Q173 -127 164 -100L212 2Q118 29 76 95T38 247Q41
297 57 342Q99 411 163 467T306 540Q362 531 400 486T442 388Q423 372 398 368T357 374Q355 417 343 440T301 487L283 485Q213 451 166 386T116 264Q111 184 135 135T231 57Q278 73 325 98T397 149Q418 150 424 140T428 108Q384 60 283 18L231 -81Z" />
<glyph unicode="&#xe8;" horiz-adv-x="481" d="M275 548Q363 525 399 465T428 321Q260 241 108 209Q114 153 142 117T230 58Q338 97 389 145Q409 145 415 136T419 103Q399 76 336 43T227 0Q128 22 79 88T32 248Q33 288 51 347Q137 492 275 548ZM105 267V259Q231
291 359 348Q359 405 344 438T282 494L268 491Q202 459 155 391T105 267ZM282 586L231 659L145 747Q152 773 177 783T235 787L316 600Q311 583 282 586Z" />
<glyph unicode="&#xe9;" horiz-adv-x="481" d="M275 548Q363 525 399 465T428 321Q260 241 108 209Q114 153 142 117T230 58Q338 97 389 145Q409 145 415 136T419 103Q399 76 336 43T227 0Q128 22 79 88T32 248Q33 288 51 347Q137 492 275 548ZM105 267V259Q231
291 359 348Q359 405 344 438T282 494L268 491Q202 459 155 391T105 267ZM477 738L318 582Q288 582 285 599L347 692L377 770Q409 779 442 767T477 738Z" />
<glyph unicode="&#xea;" horiz-adv-x="481" d="M275 548Q363 525 399 465T428 321Q260 241 108 209Q114 153 142 117T230 58Q338 97 389 145Q409 145 415 136T419 103Q399 76 336 43T227 0Q128 22 79 88T32 248Q33 288 51 347Q137 492 275 548ZM105 267V259Q231
291 359 348Q359 405 344 438T282 494L268 491Q202 459 155 391T105 267ZM320 701L194 590Q166 594 164 616L305 746Q349 757 375 738L441 600Q425 586 403 585T371 593L320 701Z" />
<glyph unicode="&#xeb;" horiz-adv-x="481" d="M275 548Q363 525 399 465T428 321Q260 241 108 209Q114 153 142 117T230 58Q338 97 389 145Q409 145 415 136T419 103Q399 76 336 43T227 0Q128 22 79 88T32 248Q33 288 51 347Q137 492 275 548ZM105 267V259Q231
291 359 348Q359 405 344 438T282 494L268 491Q202 459 155 391T105 267ZM252 637T238 623T205 609T172 623T158 656T171 689T205 703T238 690T252 657ZM414 637T400 623T367 609T334 623T320 656T333 689T367 703T400 690T414 657Z" />
<glyph unicode="&#xec;" horiz-adv-x="227" d="M123 787L204 600Q199 583 170 586L119 659L33 747Q40 773 65 783T123 787ZM113 368L110 524Q155 543 176 540T208 524L171 394Q154 249 131 0Q58 -7 36 31Q69 144 113 368Z" />
<glyph unicode="&#xed;" horiz-adv-x="227" d="M113 368L110 524Q155 543 176 540T208 524L171 394Q154 249 131 0Q58 -7 36 31Q69 144 113 368ZM265 770Q297 779 330 767T365 738L206 582Q176 582 173 599L235 692L265 770Z" />
<glyph unicode="&#xee;" horiz-adv-x="227" d="M113 368L110 524Q155 543 176 540T208 524L171 394Q154 249 131 0Q58 -7 36 31Q69 144 113 368ZM52 616L193 746Q237 757 263 738L329 600Q313 586 291 585T259 593L208 701L82 590Q54 594 52 616Z" />
<glyph unicode="&#xef;" horiz-adv-x="227" d="M73 703T93 703T126 690T140 657T126 623T93 609T60 623T46 656T59 689ZM235 703T255 703T288 690T302 657T288 623T255 609T222 623T208 656T221 689ZM113 368L110 524Q155 543 176 540T208 524L171 394Q154 249
131 0Q58 -7 36 31Q69 144 113 368Z" />
<glyph unicode="&#xf0;" horiz-adv-x="456" d="M367 660Q414 539 414 406T364 162T207 0Q122 17 77 76T32 226T91 406T259 536Q326 491 358 426Q354 540 317 645L190 604Q167 612 160 630T166 660L294 682L222 769Q231 790 244 796T284 801Q321 760 349 702L450
744Q467 742 476 726T474 691L367 660ZM103 217Q103 98 202 55Q339 151 356 350Q331 398 309 425T247 474Q174 432 139 365T103 217Z" />
<glyph unicode="&#xf1;" horiz-adv-x="500" d="M147 388L156 382Q240 496 346 540Q400 535 432 498T473 417L437 328Q418 162 409 0Q348 -7 321 25Q342 163 389 413Q383 454 347 469Q251 427 157 309Q135 167 105 0Q41 -6 19 24Q75 210 107 372L86 515Q128 554
185 546Q190 522 174 437L147 388ZM230 660L178 589Q160 588 147 597T135 618Q150 639 162 653T199 685T255 713Q336 680 363 638L367 637L426 706Q447 710 460 701T468 677Q439 627 357 585Q306 602 279 619T235 662L230 660Z" />
<glyph unicode="&#xf2;" horiz-adv-x="484" d="M28 230Q28 295 70 372T172 501T283 553T391 460T450 302T409 167T303 48T190 0T84 70T28 230ZM275 497Q195 452 154 392T95 249Q99 182 121 135T189 49Q278 87 324 145T388 291Q379 344 349 401T275 497ZM239 787L320
600Q315 583 286 586L235 659L149 747Q156 773 181 783T239 787Z" />
<glyph unicode="&#xf3;" horiz-adv-x="484" d="M351 692L381 770Q413 779 446 767T481 738L322 582Q292 582 289 599L351 692ZM28 230Q28 295 70 372T172 501T283 553T391 460T450 302T409 167T303 48T190 0T84 70T28 230ZM275 497Q195 452 154 392T95 249Q99
182 121 135T189 49Q278 87 324 145T388 291Q379 344 349 401T275 497Z" />
<glyph unicode="&#xf4;" horiz-adv-x="484" d="M168 616L309 746Q353 757 379 738L445 600Q429 586 407 585T375 593L324 701L198 590Q170 594 168 616ZM28 230Q28 295 70 372T172 501T283 553T391 460T450 302T409 167T303 48T190 0T84 70T28 230ZM275 497Q195
452 154 392T95 249Q99 182 121 135T189 49Q278 87 324 145T388 291Q379 344 349 401T275 497Z" />
<glyph unicode="&#xf5;" horiz-adv-x="484" d="M28 230Q28 295 70 372T172 501T283 553T391 460T450 302T409 167T303 48T190 0T84 70T28 230ZM275 497Q195 452 154 392T95 249Q99 182 121 135T189 49Q278 87 324 145T388 291Q379 344 349 401T275 497ZM230 660L178
589Q160 588 147 597T135 618Q150 639 162 653T199 685T255 713Q336 680 363 638L367 637L426 706Q447 710 460 701T468 677Q439 627 357 585Q306 602 279 619T235 662L230 660Z" />
<glyph unicode="&#xf6;" horiz-adv-x="484" d="M189 703T209 703T242 690T256 657T242 623T209 609T176 623T162 656T175 689ZM351 703T371 703T404 690T418 657T404 623T371 609T338 623T324 656T337 689ZM28 230Q28 295 70 372T172 501T283 553T391 460T450
302T409 167T303 48T190 0T84 70T28 230ZM275 497Q195 452 154 392T95 249Q99 182 121 135T189 49Q278 87 324 145T388 291Q379 344 349 401T275 497Z" />
<glyph unicode="&#xf7;" horiz-adv-x="680" d="M433 465T407 449T360 432T327 444T311 474Q313 501 336 527T384 556Q402 556 422 534T447 487Q433 465 407 449ZM379 130T353 114T306 97T273 109T257 139Q259 166 282 192T330 221Q348 221 368 199T393 152Q379
130 353 114ZM652 367Q664 360 660 340T637 298L49 291Q26 314 59 356L352 352L652 367Z" />
<glyph unicode="&#xf8;" horiz-adv-x="559" d="M239 0Q212 0 179 24T119 89L62 0Q32 5 17 19T-4 64L92 144Q77 189 77 230Q77 295 119 372T221 501T332 553T441 458L504 549Q559 541 564 489L468 409Q498 345 499 291T457 167T351 48T239 0ZM151 193L398 400Q369
455 324 497Q243 451 202 391T144 249Q146 217 151 193ZM415 364L163 151Q185 94 238 49Q326 87 373 145T436 291Q432 321 415 364Z" />
<glyph unicode="&#xf9;" horiz-adv-x="501" d="M339 236V238Q372 416 406 546Q477 546 501 514L426 367Q404 224 391 0Q330 -7 302 25L351 156L339 166Q279 88 191 0Q54 19 28 94L79 267Q94 437 92 546Q123 550 142 544T185 515Q169 373 110 111Q123 80 180 63Q280
153 339 236ZM290 586L239 659L153 747Q160 773 185 783T243 787L324 600Q319 583 290 586Z" />
<glyph unicode="&#xfa;" horiz-adv-x="501" d="M339 236V238Q372 416 406 546Q477 546 501 514L426 367Q404 224 391 0Q330 -7 302 25L351 156L339 166Q279 88 191 0Q54 19 28 94L79 267Q94 437 92 546Q123 550 142 544T185 515Q169 373 110 111Q123 80 180 63Q280
153 339 236ZM485 738L326 582Q296 582 293 599L355 692L385 770Q417 779 450 767T485 738Z" />
<glyph unicode="&#xfb;" horiz-adv-x="501" d="M339 236V238Q372 416 406 546Q477 546 501 514L426 367Q404 224 391 0Q330 -7 302 25L351 156L339 166Q279 88 191 0Q54 19 28 94L79 267Q94 437 92 546Q123 550 142 544T185 515Q169 373 110 111Q123 80 180 63Q280
153 339 236ZM328 701L202 590Q174 594 172 616L313 746Q357 757 383 738L449 600Q433 586 411 585T379 593L328 701Z" />
<glyph unicode="&#xfc;" horiz-adv-x="501" d="M339 236V238Q372 416 406 546Q477 546 501 514L426 367Q404 224 391 0Q330 -7 302 25L351 156L339 166Q279 88 191 0Q54 19 28 94L79 267Q94 437 92 546Q123 550 142 544T185 515Q169 373 110 111Q123 80 180 63Q280
153 339 236ZM260 637T246 623T213 609T180 623T166 656T179 689T213 703T246 690T260 657ZM422 637T408 623T375 609T342 623T328 656T341 689T375 703T408 690T422 657Z" />
<glyph unicode="&#xfd;" horiz-adv-x="470" d="M334 238Q375 468 403 546Q474 546 497 514L414 347Q390 234 358 27T318 -224Q301 -248 261 -260T180 -270Q112 -235 72 -183T24 -81Q41 -54 63 -44T105 -46Q113 -147 197 -210Q225 -214 237 -203Q272 -91 298 76L337
147L325 158Q299 126 212 46Q122 61 81 87T29 153L78 296Q84 346 86 427T86 546Q117 550 136 544T179 515Q165 416 153 357T109 171Q120 145 138 131T199 105Q293 176 334 238ZM493 738L334 582Q304 582 301 599L363 692L393 770Q425 779 458 767T493 738Z" />
<glyph unicode="&#xfe;" horiz-adv-x="491" d="M145 393L157 381Q222 465 302 540Q383 511 418 463T473 326Q441 194 350 109T111 2Q89 -156 63 -269Q-3 -275 -23 -245Q32 -20 63 138T132 540L150 787Q185 808 206 812T255 804L198 576L174 447L145 393ZM120 61Q238
86 311 159T402 328Q393 384 371 416T302 469Q210 381 154 306Q149 274 120 61Z" />
<glyph unicode="&#xff;" horiz-adv-x="470" d="M334 238Q375 468 403 546Q474 546 497 514L414 347Q390 234 358 27T318 -224Q301 -248 261 -260T180 -270Q112 -235 72 -183T24 -81Q41 -54 63 -44T105 -46Q113 -147 197 -210Q225 -214 237 -203Q272 -91 298 76L337
147L325 158Q299 126 212 46Q122 61 81 87T29 153L78 296Q84 346 86 427T86 546Q117 550 136 544T179 515Q165 416 153 357T109 171Q120 145 138 131T199 105Q293 176 334 238ZM268 637T254 623T221 609T188 623T174 656T187 689T221 703T254 690T268 657ZM430
637T416 623T383 609T350 623T336 656T349 689T383 703T416 690T430 657Z" />
<glyph unicode="&#x2013;" horiz-adv-x="626" d="M577 367Q589 360 585 340T562 298L70 291Q47 314 81 356L330 352L577 367Z" />
<glyph unicode="&#x2014;" horiz-adv-x="950" d="M901 367Q913 360 909 340T886 298L70 291Q47 314 81 356L482 352L901 367Z" />
<glyph unicode="&#x2018;" horiz-adv-x="284" d="M257 901Q281 903 296 886L245 792L274 699Q254 668 221 662T168 678Q151 784 257 901Z" />
<glyph unicode="&#x2019;" horiz-adv-x="297" d="M194 644Q169 642 158 659L219 753L193 879Q229 906 263 893T311 841Q305 790 270 736T194 644Z" />
<glyph unicode="&#x201a;" horiz-adv-x="260" d="M139 42Q123 -7 78 -53T-14 -129Q-39 -123 -48 -106L31 -26V103Q71 123 101 104T139 42Z" />
<glyph unicode="&#x201c;" horiz-adv-x="462" d="M257 901Q281 903 296 886L245 792L274 699Q254 668 221 662T168 678Q151 784 257 901ZM435 901Q459 903 474 886L423 792L452 699Q432 668 399 662T346 678Q329 784 435 901Z" />
<glyph unicode="&#x201d;" horiz-adv-x="480" d="M377 644Q352 642 341 659L402 753L376 879Q412 906 446 893T494 841Q488 790 453 736T377 644ZM194 644Q169 642 158 659L219 753L193 879Q229 906 263 893T311 841Q305 790 270 736T194 644Z" />
<glyph unicode="&#x201e;" horiz-adv-x="427" d="M248 -26V103Q288 123 318 104T356 42Q340 -7 295 -53T203 -129Q178 -123 169 -106L248 -26ZM26 -26V103Q66 123 96 104T134 42Q118 -7 73 -53T-19 -129Q-44 -123 -53 -106L26 -26Z" />
<glyph unicode="&#x2022;" horiz-adv-x="336" d="M284 331T235 301T150 271T89 292T58 349Q63 399 106 447T194 501Q227 501 264 460T311 373Q284 331 235 301Z" />
<glyph unicode="&#x2039;" horiz-adv-x="340" d="M255 220Q262 194 249 171T216 147L59 354Q59 372 68 389L188 477L286 558Q308 550 311 529T296 477L116 359L174 293L255 220Z" />
<glyph unicode="&#x203a;" horiz-adv-x="340" d="M114 485Q108 512 121 535T153 558L310 351Q310 330 301 316L181 228L83 147Q35 165 73 228L254 347L195 413L114 485Z" />
</font>
</defs>
</svg>
