<?xml version="1.0" standalone="no"?>
<!DOCTYPE svg PUBLIC "-//W3C//DTD SVG 1.1//EN" "http://www.w3.org/Graphics/SVG/1.1/DTD/svg11.dtd">
<svg xmlns="http://www.w3.org/2000/svg">
<defs >
<font id="SairaCondensed" horiz-adv-x="442" ><font-face
    font-family="Saira Condensed Condensed"
    units-per-em="1000"
    panose-1="0 0 8 6 0 0 0 0 0 0"
    ascent="1135"
    descent="-439"
    alphabetic="0" />
<glyph unicode=" " glyph-name="space" horiz-adv-x="179" />
<glyph unicode="!" glyph-name="exclam" horiz-adv-x="259" d="M79 290T66 442T53 638V688H210V638Q210 597 197 446T174 218H89Q79 290 66 442ZM61 0V132H202V0H61Z" />
<glyph unicode="&quot;" glyph-name="quotedbl" horiz-adv-x="382" d="M61 428L47 634V688H168V634L154 428H61ZM227 428L213 634V688H334V634L320 428H227Z" />
<glyph unicode="#" glyph-name="numbersign" horiz-adv-x="573" d="M279 0L304 180H205L181 0H88L112 180H45V272H124L143 415H67V506H155L181 688H273L248 506H347L372 688H465L440 506H514V415H428L408 272H492V180H397L372 0H279ZM335 415H236L217 272H316L335 415Z" />
<glyph unicode="$" glyph-name="dollar" horiz-adv-x="407" d="M160 71Q91 76 50 87V190Q122 183 168 183Q198 183 213 187T234 201T240 233Q240 256 237 266T227 280T203 287L145 297Q101 305 79 322T47 371T38 458Q38 532 69 569T160 616V696H255V617Q280 615
304 611T343 602V499Q284 507 234 507Q195 507 182 498T169 460Q169 437 171 428T179 415T202 409L266 399Q301 394 322 381T355 336T368 243Q368 161 340 123T255 74V-8H160V71Z" />
<glyph unicode="%" glyph-name="percent" horiz-adv-x="731" d="M113 311T87 327T52 382T44 503Q44 585 52 623T87 679T173 696Q232 696 259 679T294 624T302 503Q302 421 294 383T259 328T173 311Q113 311 87 327ZM144 0L507 688H588L223 0H144ZM193 382T200
388T210 417T212 503Q212 567 210 590T201 619T173 625Q152 625 145 619T135 590T133 503Q133 439 135 417T144 388T173 382Q193 382 200 388ZM499 -8T473 8T438 63T430 184Q430 266 438 304T473 360T559 377Q618 377 645 360T680 304T688 184Q688 102 680 64T645
9T559 -8Q499 -8 473 8ZM579 62T586 68T596 97T598 184Q598 248 596 271T587 300T559 306Q539 306 532 300T522 271T520 184Q520 120 522 97T531 68T559 62Q579 62 586 68Z" />
<glyph unicode="&amp;" glyph-name="ampersand" horiz-adv-x="547" d="M529 403V292H452V10Q411 2 359 -3T265 -8Q178 -8 130 11T61 72T40 181Q40 263 63 299T139 349V353Q91 366 69 404T46 518Q46 614 98 655T271 696Q310 696 360 691T451 677V576Q379 585 309
585Q247 585 221 579T186 554T177 493Q177 455 182 437T201 411T246 403H274V292H246Q214 292 199 285T177 258T171 197Q171 153 181 134T213 108T284 102Q296 102 324 104V403H529Z" />
<glyph unicode="&apos;" glyph-name="quotesingle" horiz-adv-x="216" d="M61 428L47 634V688H168V634L154 428H61Z" />
<glyph unicode="(" glyph-name="parenleft" horiz-adv-x="289" d="M115 -69T93 -23T60 96T49 297Q49 426 60 499T94 621T166 743H269Q231 679 214 637T187 517T177 297Q177 154 187 76T214 -43T269 -150H166Q115 -69 93 -23Z" />
<glyph unicode=")" glyph-name="parenright" horiz-adv-x="289" d="M58 -85T75 -44T101 76T111 297Q111 439 102 517T75 636T20 743H122Q171 671 194 622T228 500T239 297Q239 168 228 96T195 -23T122 -150H20Q58 -85 75 -44Z" />
<glyph unicode="*" glyph-name="asterisk" horiz-adv-x="407" d="M231 476L242 362H166L176 476L81 409L42 476L146 524L42 573L81 640L176 574L166 688H242L231 574L327 640L365 573L260 524L365 476L327 409L231 476Z" />
<glyph unicode="+" glyph-name="plus" horiz-adv-x="472" d="M182 73V198H57V307H182V433H290V307H416V198H290V73H182Z" />
<glyph unicode="," glyph-name="comma" horiz-adv-x="242" d="M81 -90T91 -75T101 -15V0H51V132H192V38Q192 -42 182 -80T142 -134T47 -151V-90Q81 -90 91 -75Z" />
<glyph unicode="-" glyph-name="hyphen" horiz-adv-x="297" d="M48 227V343H249V227H48Z" />
<glyph unicode="." glyph-name="period" horiz-adv-x="242" d="M51 0V132H192V0H51Z" />
<glyph unicode="/" glyph-name="slash" horiz-adv-x="327" d="M12 -55L201 743H315L126 -55H12Z" />
<glyph unicode="0" glyph-name="zero" horiz-adv-x="477" d="M142 -8T101 22T50 119T39 344Q39 501 49 568T101 666T238 696Q335 696 376 666T427 569T438 344Q438 187 428 120T376 22T238 -8Q142 -8 101 22ZM272 113T284 124T299 178T303 344Q303 466 300 509T284
564T238 575Q204 575 192 564T177 511T174 344Q174 220 177 178T192 124T238 113Q272 113 284 124Z" />
<glyph unicode="1" glyph-name="one" horiz-adv-x="310" d="M118 0V530L17 489V615L153 688H256V0H118Z" />
<glyph unicode="2" glyph-name="two" horiz-adv-x="450" d="M173 121H413V0H37V88Q37 184 41 227T61 298T114 346L225 406Q247 418 257 427T271 450T276 494Q276 533 268 549T242 570T183 575Q139 575 45 566V678Q79 686 129 691T221 696Q283 696 323 684T388
630T413 504Q413 416 393 376T328 313Q292 295 209 250Q187 239 181 226Q176 215 175 197T173 138V121Z" />
<glyph unicode="3" glyph-name="three" horiz-adv-x="437" d="M158 -8T110 -3T25 10V121Q102 113 165 113Q206 113 225 118T254 140T263 197Q263 236 256 255T234 281T188 288H94V408H188Q216 408 230 413T250 437T257 493Q257 531 249 548T222 570T159 575Q112
575 26 567V678Q63 686 110 691T195 696Q267 696 310 679T374 624T395 518Q395 443 373 404T304 353V349Q354 336 377 300T401 181Q401 113 382 72T317 12T195 -8Q158 -8 110 -3Z" />
<glyph unicode="4" glyph-name="four" horiz-adv-x="469" d="M256 0V137H21V242L160 688H303L158 257H257L294 432H393V257H451V137H393V0H256Z" />
<glyph unicode="5" glyph-name="five" horiz-adv-x="453" d="M121 113T180 113Q226 113 247 120T275 147T283 213Q283 260 275 280T246 307T178 314Q118 314 51 305V688H392V567H178V428Q191 431 213 433T255 435Q350 435 385 384T421 227Q421 139 404 89T343
16T217 -8Q180 -8 132 -3T47 10V121Q121 113 180 113Z" />
<glyph unicode="6" glyph-name="six" horiz-adv-x="473" d="M182 -8T146 2T88 41T53 127Q39 186 39 343Q39 502 59 569Q80 639 126 667T262 696Q295 696 338 690T416 675V564Q335 575 288 575Q233 575 211 562T182 513T175 387H183Q211 435 291 435Q344 435 375
421T422 362T439 231Q439 136 423 86T366 14T244 -8Q182 -8 146 2ZM270 112T283 117T301 143T306 212Q306 262 301 282T284 308T240 314Q210 314 197 308T180 284T176 222Q176 170 181 147T199 118T240 112Q270 112 283 117Z" />
<glyph unicode="7" glyph-name="seven" horiz-adv-x="421" d="M65 0L258 567H22V688H402V580L211 0H65Z" />
<glyph unicode="8" glyph-name="eight" horiz-adv-x="487" d="M165 -8T120 11T56 71T36 181Q36 264 59 299T133 349V353Q86 366 64 405T42 518Q42 585 62 623T127 679T244 696Q316 696 360 679T424 624T445 518Q445 443 423 405T354 353V349Q405 335 428 300T451
181Q451 112 432 71T367 11T244 -8Q165 -8 120 11ZM273 404T286 409T304 433T309 491Q309 532 305 550T287 573T244 579Q214 579 201 574T183 550T178 491Q178 450 182 433T200 410T244 404Q273 404 286 409ZM274 109T287 115T306 139T312 199Q312 241 307 260T288
286T244 292Q213 292 199 286T180 261T175 199Q175 158 180 140T200 115T244 109Q274 109 287 115Z" />
<glyph unicode="9" glyph-name="nine" horiz-adv-x="473" d="M178 -8T135 -2T56 13V124Q137 113 185 113Q240 113 262 126T291 175T298 301H291Q263 253 182 253Q128 253 97 267T50 326T33 457Q33 551 49 601T106 674T229 696Q288 696 324 688T382 654T417 581Q426
543 430 487T434 345Q434 179 410 108Q389 44 343 18T211 -8Q178 -8 135 -2ZM262 374T275 380T292 404T297 466Q297 518 292 541T273 570T232 576Q202 576 190 571T172 545T167 476Q167 426 172 406T189 380T232 374Q262 374 275 380Z" />
<glyph unicode=":" glyph-name="colon" horiz-adv-x="242" d="M51 378V510H192V378H51ZM51 0V132H192V0H51Z" />
<glyph unicode=";" glyph-name="semicolon" horiz-adv-x="242" d="M51 378V510H192V378H51ZM81 -90T91 -75T101 -15V0H51V132H192V38Q192 -42 182 -80T142 -134T47 -151V-90Q81 -90 91 -75Z" />
<glyph unicode="&lt;" glyph-name="less" horiz-adv-x="473" d="M416 66L57 197V308L416 440V330L188 253L416 176V66Z" />
<glyph unicode="=" glyph-name="equal" horiz-adv-x="472" d="M57 289V399H416V289H57ZM57 108V217H416V108H57Z" />
<glyph unicode="&gt;" glyph-name="greater" horiz-adv-x="473" d="M57 66V176L284 253L57 330V440L416 308V197L57 66Z" />
<glyph unicode="?" glyph-name="question" horiz-adv-x="393" d="M97 304Q97 339 102 359T117 390T149 414L168 425Q198 444 206 459T215 510Q215 540 207 554T181 571T129 575Q82 575 31 567V680Q64 687 107 691T183 696Q267 696 310 658T353 530Q353 480 347
450T324 400T279 361L262 351Q237 335 229 327T218 306T215 264V217H97V304ZM86 0V132H226V0H86Z" />
<glyph unicode="@" glyph-name="at" horiz-adv-x="705" d="M203 -108T144 -82T70 20T55 294Q55 492 70 567T144 669T354 696Q505 696 564 670T638 568T653 294Q653 188 642 142T610 86T540 75H399L395 125H389Q378 95 355 82T301 68Q248 68 226 99T204 200Q204
251 214 280T247 321T312 334Q346 334 394 331V351Q394 387 389 401T370 420T318 424Q269 424 224 419V505Q294 518 352 518Q416 518 448 501T491 447T503 342V133H546Q568 133 577 140T589 180T593 294Q593 442 588 503T560 594T485 633Q463 636 429 637T354 638Q263
638 231 634Q174 627 151 599T122 509T116 294Q116 129 123 67T160 -20T268 -49Q290 -50 354 -50Q471 -50 503 -47V-106Q471 -108 354 -108Q203 -108 144 -82ZM376 163T385 177T394 236V261H343Q322 261 315 252T308 210Q308 182 315 173T347 163Q376 163 385 177Z"
/>
<glyph unicode="A" glyph-name="A" horiz-adv-x="501" d="M353 0L326 141H172L145 0H8L150 688H351L493 0H353ZM252 558H246L192 260H305L252 558Z" />
<glyph unicode="B" glyph-name="B" horiz-adv-x="488" d="M52 688H288Q369 688 409 645T450 515Q450 442 428 404T359 353V349Q411 336 433 299T456 184Q456 93 417 47T288 0H52V688ZM277 407T290 413T309 436T315 487Q315 523 310 539T292 561T251 567H188V407H251Q277
407 290 413ZM282 121T295 127T313 150T318 204Q318 241 313 258T295 282T254 288H188V121H254Q282 121 295 127Z" />
<glyph unicode="C" glyph-name="C" horiz-adv-x="396" d="M347 2T314 -3T250 -8Q156 -8 112 23T54 126T39 344Q39 489 54 561T113 665T250 696Q283 696 315 692T366 680V568Q308 575 278 575Q227 575 208 562T183 504T177 344Q177 228 182 184T207 127T278 113Q324
113 368 120V9Q347 2 314 -3Z" />
<glyph unicode="D" glyph-name="D" horiz-adv-x="496" d="M52 688H238Q344 688 389 659T446 564T457 344Q457 190 446 125T390 30T238 0H52V688ZM236 121Q280 121 295 131T315 184T320 344Q320 461 315 503T295 556T236 567H189V121H236Z" />
<glyph unicode="E" glyph-name="E" horiz-adv-x="421" d="M52 0V688H386V567H190V408H359V287H190V121H386V0H52Z" />
<glyph unicode="F" glyph-name="F" horiz-adv-x="392" d="M52 0V688H371V567H190V392H349V271H190V0H52Z" />
<glyph unicode="G" glyph-name="G" horiz-adv-x="487" d="M251 282V400H440V13Q405 4 355 -2T262 -8Q167 -8 121 20T57 122T39 344Q39 491 57 564T125 667T272 696Q312 696 359 690T439 676V563Q353 575 314 575Q246 575 221 564T186 508T176 344Q176 234 182
188T205 125T265 109Q274 109 313 112V282H251Z" />
<glyph unicode="H" glyph-name="H" horiz-adv-x="519" d="M330 0V283H189V0H52V688H189V410H330V688H467V0H330Z" />
<glyph unicode="I" glyph-name="I" horiz-adv-x="243" d="M53 0V688H190V0H53Z" />
<glyph unicode="J" glyph-name="J" horiz-adv-x="296" d="M62 115T81 122T105 153T110 244V688H248V308Q248 149 236 92T179 18T11 0V114Q62 115 81 122Z" />
<glyph unicode="K" glyph-name="K" horiz-adv-x="492" d="M336 0L228 287H190V0H52V688H190V411H228L339 688H481L338 359L484 0H336Z" />
<glyph unicode="L" glyph-name="L" horiz-adv-x="379" d="M52 0V688H190V125H364V0H52Z" />
<glyph unicode="M" glyph-name="M" horiz-adv-x="703" d="M518 0V507H512L413 0H286L189 507H181V0H52V688H260L350 212H357L446 688H651V0H518Z" />
<glyph unicode="N" glyph-name="N" horiz-adv-x="523" d="M347 0L187 377H183V0H52V688H185L334 340H339V688H471V0H347Z" />
<glyph unicode="O" glyph-name="O" horiz-adv-x="506" d="M149 -8T105 22T50 120T39 344Q39 501 50 568T105 665T253 696Q357 696 401 666T456 568T467 344Q467 188 456 121T401 23T253 -8Q149 -8 105 22ZM293 113T307 124T325 178T329 344Q329 467 325 510T307
564T253 575Q213 575 199 564T181 510T177 344Q177 221 181 178T199 124T253 113Q293 113 307 124Z" />
<glyph unicode="P" glyph-name="P" horiz-adv-x="475" d="M52 688H279Q352 688 389 662T440 587T453 455Q453 376 441 327T391 249T278 220H190V0H52V688ZM244 341Q278 341 292 349T310 379T315 455Q315 508 311 530T293 559T245 567H190V341H244Z" />
<glyph unicode="Q" glyph-name="Q" horiz-adv-x="506" d="M296 -6Q270 -8 253 -8Q149 -8 105 22T50 120T39 344Q39 501 50 568T105 665T253 696Q356 696 400 666T456 568T467 344Q467 203 458 137T413 36L503 -110V-115H358L296 -6ZM293 113T307 124T325 178T329
344Q329 466 325 509T307 564T253 575Q213 575 199 564T181 510T177 344Q177 221 181 178T199 124T253 113Q293 113 307 124Z" />
<glyph unicode="R" glyph-name="R" horiz-adv-x="494" d="M331 0L264 240H190V0H52V688H284Q358 688 395 663T446 591T459 465Q459 390 446 341T391 267L474 0H331ZM284 359T298 366T316 394T321 464Q321 512 317 532T298 559T251 567H190V359H251Q284 359 298 366Z" />
<glyph unicode="S" glyph-name="S" horiz-adv-x="443" d="M179 -8T130 -4T42 9V121Q144 113 183 113Q218 113 236 117T263 131Q271 139 273 153T276 195Q276 232 272 247T256 270T212 284L118 301Q68 310 49 356T30 489Q30 574 54 619T122 680T231 696Q277 696
319 690T389 678V566Q335 575 268 575Q232 575 213 572T184 561Q173 553 170 538T167 494Q167 463 170 449T183 429T214 419L302 403Q337 398 361 382T400 327Q414 287 414 214Q414 119 391 71T328 8T221 -8Q179 -8 130 -4Z" />
<glyph unicode="T" glyph-name="T" horiz-adv-x="418" d="M140 0V563H10V688H408V563H278V0H140Z" />
<glyph unicode="U" glyph-name="U" horiz-adv-x="506" d="M458 688V305Q458 169 447 108T393 19T253 -8Q156 -8 114 19T60 107T48 305V688H185V259Q185 186 188 159T205 122T253 113Q287 113 300 122T316 158T320 259V688H458Z" />
<glyph unicode="V" glyph-name="V" horiz-adv-x="485" d="M142 0L10 688H150L240 144H249L336 688H474L342 0H142Z" />
<glyph unicode="W" glyph-name="W" horiz-adv-x="756" d="M452 0L381 479H375L305 0H116L17 688H156L215 149H222L300 688H462L541 149H548L604 688H740L640 0H452Z" />
<glyph unicode="X" glyph-name="X" horiz-adv-x="501" d="M341 0L252 247H244L156 0H12L156 346L14 688H162L249 451H256L343 688H487L347 350L490 0H341Z" />
<glyph unicode="Y" glyph-name="Y" horiz-adv-x="463" d="M163 0V238L0 688H141L231 391H240L327 688H463L300 238V0H163Z" />
<glyph unicode="Z" glyph-name="Z" horiz-adv-x="439" d="M31 0V114L252 567H38V688H406V575L184 121H408V0H31Z" />
<glyph unicode="[" glyph-name="bracketleft" horiz-adv-x="301" d="M53 -150V743H267V660L177 656V-62L267 -66V-150H53Z" />
<glyph unicode="\" glyph-name="backslash" horiz-adv-x="327" d="M201 -55L12 743H126L315 -55H201Z" />
<glyph unicode="]" glyph-name="bracketright" horiz-adv-x="300" d="M33 -150V-66L123 -62V656L33 660V743H248V-150H33Z" />
<glyph unicode="^" glyph-name="asciicircum" horiz-adv-x="389" d="M267 476L195 652L122 476H13L140 750H250L376 476H267Z" />
<glyph unicode="_" glyph-name="underscore" horiz-adv-x="361" d="M0 -186V-79H361V-186H0Z" />
<glyph unicode="`" glyph-name="grave" horiz-adv-x="193" d="M84 597L6 738V743H134L187 602V597H84Z" />
<glyph unicode="a" glyph-name="a" horiz-adv-x="426" d="M79 -8T52 29T25 147Q25 206 37 239T77 288T157 304Q193 304 253 300V323Q253 365 247 382T223 405T162 410Q120 410 50 403V503Q125 518 201 518Q276 518 315 498T368 435T382 312V0H259L255 60H248Q235
23 206 8T141 -8Q79 -8 52 29ZM214 104T224 108T242 123Q253 140 253 192V217H193Q167 217 159 206T150 158Q150 126 158 115T197 104Q214 104 224 108Z" />
<glyph unicode="b" glyph-name="b" horiz-adv-x="446" d="M201 -8T180 60H172L168 0H46V743H175V456H182Q206 518 286 518Q336 518 363 494T401 413T412 254Q412 150 400 94T361 15T284 -8Q201 -8 180 60ZM255 108T265 116T279 152T283 255Q283 329 280 357T266
394T228 402Q209 402 199 396T183 374Q175 347 175 255Q175 166 182 141Q186 122 196 115T228 108Q255 108 265 116Z" />
<glyph unicode="c" glyph-name="c" horiz-adv-x="341" d="M264 -8T203 -8Q129 -8 93 20T46 102T34 255Q34 354 46 409T95 491T202 518Q270 518 312 504V404Q266 410 239 410Q203 410 188 400T168 359T163 255Q163 181 168 150T189 110T240 100Q265 100 315 106V7Q264
-8 203 -8Z" />
<glyph unicode="d" glyph-name="d" horiz-adv-x="446" d="M112 -8T85 14T46 93T34 254Q34 357 45 413T83 493T160 518Q199 518 225 503T264 456H271V743H400V0H278L274 60H266Q245 -8 162 -8Q112 -8 85 14ZM239 108T249 115T265 142Q271 171 271 255Q271 336 267
358Q263 384 252 393T218 402Q191 402 181 394T167 358T163 255Q163 181 166 153T180 116T218 108Q239 108 249 115Z" />
<glyph unicode="e" glyph-name="e" horiz-adv-x="425" d="M390 215H163Q163 158 168 136T191 107T256 100Q294 100 378 106V7Q351 1 308 -3T226 -8Q137 -8 97 18T45 97T34 254Q34 357 45 410T95 490T218 518Q300 518 336 493T381 416T390 254V215ZM192 411T182
404T167 375T163 302H269Q269 353 265 375T251 404T217 411Q192 411 182 404Z" />
<glyph unicode="f" glyph-name="f" horiz-adv-x="309" d="M78 402H15V510H78V540Q78 637 94 678T152 731T291 743V647Q251 647 235 643T213 623T207 569V510H291V402H207V0H78V402Z" />
<glyph unicode="g" glyph-name="g" horiz-adv-x="446" d="M171 -203T131 -200T66 -192V-93Q84 -93 92 -94L177 -95Q224 -95 242 -87T266 -56T271 26V64H263Q240 2 161 2Q111 2 84 25T45 103T34 259Q34 362 46 417T85 495T162 518Q197 518 225 503T266 450H274L278
510H400V61Q400 -43 389 -95T337 -175T207 -203Q171 -203 131 -200ZM239 117T249 124T265 151Q271 175 271 259Q271 334 266 359Q262 384 252 392T217 401Q190 401 180 394T167 359T163 259Q163 187 166 160T180 125T217 117Q239 117 249 124Z" />
<glyph unicode="h" glyph-name="h" horiz-adv-x="450" d="M277 276Q277 340 274 364T262 394T228 401Q202 401 192 391T178 354T175 261V0H46V743H175V451H182Q195 488 223 503T292 518Q340 518 364 499T397 442T406 337V0H277V276Z" />
<glyph unicode="i" glyph-name="i" horiz-adv-x="221" d="M45 621V743H176V621H45ZM46 0V510H175V0H46Z" />
<glyph unicode="j" glyph-name="j" horiz-adv-x="221" d="M45 621V743H176V621H45ZM-14 -98Q14 -98 27 -93T43 -78T46 -46V510H175V7Q175 -88 160 -129T107 -183T-14 -196V-98Z" />
<glyph unicode="k" glyph-name="k" horiz-adv-x="430" d="M284 0L202 199H175V0H46V743H175V308H202L287 510H419L309 267L420 0H284Z" />
<glyph unicode="l" glyph-name="l" horiz-adv-x="221" d="M46 0V743H175V0H46Z" />
<glyph unicode="m" glyph-name="m" horiz-adv-x="669" d="M495 276Q495 339 492 363T481 394T449 401Q425 401 415 391T403 355T400 261V0H271V276Q271 339 268 363T257 394T224 401Q200 401 191 391T178 354T175 261V0H46V510H168L172 449H179Q194 486 221 502T290
518Q335 518 359 502T392 449H400Q414 486 442 502T512 518Q558 518 582 500T615 444T624 341V0H495V276Z" />
<glyph unicode="n" glyph-name="n" horiz-adv-x="450" d="M277 276Q277 340 274 364T262 394T228 401Q202 401 192 391T178 354T175 261V0H46V510H168L172 449H179Q193 487 222 502T292 518Q340 518 364 499T397 442T406 335V0H277V276Z" />
<glyph unicode="o" glyph-name="o" horiz-adv-x="436" d="M132 -8T94 14T45 88T34 255Q34 370 45 422T94 496T218 518Q304 518 342 496T391 422T402 255Q402 140 391 88T342 14T218 -8Q132 -8 94 14ZM247 100T257 109T270 146T273 255Q273 335 271 363T258 401T218
410Q189 410 179 401T166 364T163 255Q163 175 165 147T178 109T218 100Q247 100 257 109Z" />
<glyph unicode="p" glyph-name="p" horiz-adv-x="446" d="M46 510H168L172 450H180Q201 518 284 518Q333 518 360 496T400 417T412 256Q412 153 401 97T363 17T286 -8Q205 -8 183 55H175V-196H46V510ZM255 108T265 116T279 152T283 255Q283 329 280 357T266 394T228
402Q207 402 196 395T181 366Q175 341 175 255Q175 177 179 152Q183 126 194 117T228 108Q255 108 265 116Z" />
<glyph unicode="q" glyph-name="q" horiz-adv-x="446" d="M271 55H264Q251 22 225 7T160 -8Q110 -8 83 16T45 97T34 255Q34 360 46 416T85 495T162 518Q245 518 266 450H274L278 510H400V-196H271V55ZM239 108T250 115T266 144Q271 168 271 255Q271 308 270 332T264
371Q260 389 250 395T218 402Q191 402 181 394T167 358T163 255Q163 181 166 153T180 116T218 108Q239 108 250 115Z" />
<glyph unicode="r" glyph-name="r" horiz-adv-x="312" d="M46 510H168L172 426H180Q195 478 223 498T298 518V383Q253 383 227 370T188 324T175 232V0H46V510Z" />
<glyph unicode="s" glyph-name="s" horiz-adv-x="371" d="M152 -8T110 -4T37 8V107Q103 100 151 100Q181 100 195 103T215 117T221 148Q221 171 219 180T209 193T182 200L98 214Q58 220 42 253T25 363Q25 449 67 483T192 518Q225 518 262 514T322 502V402Q258
410 216 410Q178 410 166 402T153 365Q153 343 155 334T163 322T186 316L259 305Q287 300 305 289T334 246T346 157Q346 63 307 28T187 -8Q152 -8 110 -4Z" />
<glyph unicode="t" glyph-name="t" horiz-adv-x="302" d="M78 0V402H15V510H78V658H207V510H288V402H207V0H78Z" />
<glyph unicode="u" glyph-name="u" horiz-adv-x="450" d="M279 61H271Q247 -8 159 -8Q110 -8 86 11T53 68T44 175V510H173V234Q173 170 176 146T188 116T223 109Q248 109 258 119T272 156T275 249V510H404V0H283L279 61Z" />
<glyph unicode="v" glyph-name="v" horiz-adv-x="417" d="M119 0L9 510H140L206 136H215L278 510H407L297 0H119Z" />
<glyph unicode="w" glyph-name="w" horiz-adv-x="644" d="M379 0L327 280H318L267 0H106L12 510H140L189 157H197L262 510H387L453 157H461L509 510H631L538 0H379Z" />
<glyph unicode="x" glyph-name="x" horiz-adv-x="426" d="M281 0L215 166H207L141 0H10L128 257L13 510H150L213 354H220L282 510H413L299 259L417 0H281Z" />
<glyph unicode="y" glyph-name="y" horiz-adv-x="450" d="M177 -203T137 -200T72 -193V-93Q109 -94 183 -94Q229 -94 247 -87T270 -57T275 24V67H268Q244 1 159 1Q109 1 85 21T52 82T44 198V510H173V242Q173 178 176 154T188 124T223 117Q249 117 259 127T272
163T275 257V510H404V60Q404 -43 393 -95T342 -175T213 -203Q177 -203 137 -200Z" />
<glyph unicode="z" glyph-name="z" horiz-adv-x="394" d="M32 0V101L210 402H39V510H360V409L183 108H362V0H32Z" />
<glyph unicode="{" glyph-name="braceleft" horiz-adv-x="315" d="M163 -126T130 -76T97 27V151Q97 200 81 230T21 266V325Q65 330 81 361T97 441V565Q97 619 130 669T208 743H292Q253 694 238 655T222 557V445Q222 322 121 300V293Q222 271 222 147V35Q222 -23
237 -61T292 -150H208Q163 -126 130 -76Z" />
<glyph unicode="|" glyph-name="bar" horiz-adv-x="236" d="M58 -161V743H177V-161H58Z" />
<glyph unicode="}" glyph-name="braceright" horiz-adv-x="315" d="M61 -100T77 -61T93 35V147Q93 271 194 293V300Q93 322 93 445V557Q93 614 78 652T22 743H106Q151 719 184 669T217 565V441Q217 392 233 361T293 325V266Q249 261 233 231T217 151V27Q217 -27
184 -76T106 -150H22Q61 -100 77 -61Z" />
<glyph unicode="~" glyph-name="asciitilde" horiz-adv-x="460" d="M407 324T403 299T380 259T322 244Q299 244 270 249T215 260Q197 265 179 268T150 272Q135 272 132 265T128 233H52Q52 283 56 309T79 349T137 364Q174 364 244 347Q254 345 275 341T310 336Q325
336 328 343T332 374H407Q407 324 403 299Z" />
<glyph unicode="&#xa0;" glyph-name="uni00A0" horiz-adv-x="179" />
<glyph unicode="&#xa1;" glyph-name="exclamdown" horiz-adv-x="254" d="M56 378V510H197V378H56ZM48 -128Q48 -87 61 64T84 292H169Q179 215 192 64T205 -128V-178H48V-128Z" />
<glyph unicode="&#xa2;" glyph-name="cent" horiz-adv-x="354" d="M158 72Q107 82 81 114T46 200T37 342Q37 432 46 486T82 571T158 612V696H254V615Q286 612 319 603V499Q259 505 246 505Q210 505 195 495T175 452T169 342Q169 265 174 233T195 191T247 181Q280
181 322 187V84Q289 74 254 71V-8H158V72Z" />
<glyph unicode="&#xa3;" glyph-name="sterling" horiz-adv-x="436" d="M401 121V0H31V121H89V294H31V414H89V424Q89 526 103 583T159 668T279 696Q309 696 341 692T394 682V568Q354 575 314 575Q289 575 275 573T251 562Q236 550 231 520T226 424V414H350V294H226V121H401Z"
/>
<glyph unicode="&#xa4;" glyph-name="currency" horiz-adv-x="538" d="M34 83L102 151Q91 180 87 225T83 345Q83 419 87 463T102 538L34 605L112 683L186 608Q212 614 267 614Q320 614 351 607L427 683L504 605L434 535Q445 506 448 462T452 345Q452 272 449 228T434
154L504 83L427 6L351 81Q320 74 267 74Q217 74 186 81L112 6L34 83ZM296 182T306 191T320 231T323 345Q323 427 320 457T307 496T267 506Q239 506 229 497T215 457T212 345Q212 262 215 232T228 192T267 182Q296 182 306 191Z" />
<glyph unicode="&#xa5;" glyph-name="yen" horiz-adv-x="508" d="M184 0V212H48V284H172L141 365H48V437H115L29 688H168L252 391H261L342 688H478L391 437H459V365H365L334 284H459V212H322V0H184Z" />
<glyph unicode="&#xa6;" glyph-name="brokenbar" horiz-adv-x="236" d="M58 390V743H177V390H58ZM58 -161V192H177V-161H58Z" />
<glyph unicode="&#xa7;" glyph-name="section" horiz-adv-x="501" d="M191 -170T151 -165T89 -153V-43Q154 -50 206 -50Q238 -50 254 -46T276 -31T282 0Q282 19 280 28T271 42T247 54L154 92Q113 110 89 125T48 172T30 258Q30 331 49 370T111 421Q98 440 92 464T86
525Q86 618 132 657T269 696Q311 696 350 691T411 678V568Q391 571 357 573T295 576Q263 576 247 572T225 557T219 526Q219 499 225 491T252 473L344 435Q385 418 410 402T452 354T470 266Q470 193 451 154T389 103Q415 68 415 1Q415 -92 369 -131T232 -170Q191
-170 151 -165ZM339 171T339 246Q339 292 315 303L214 346Q193 355 187 355Q162 355 162 279Q162 256 168 242T189 221L288 178Q306 171 314 171Q339 171 339 246Z" />
<glyph unicode="&#xa8;" glyph-name="dieresis" horiz-adv-x="301" d="M8 627V730H119V627H8ZM183 627V730H294V627H183Z" />
<glyph unicode="&#xa9;" glyph-name="copyright" horiz-adv-x="581" d="M172 -8T126 16T68 106T56 344Q56 516 68 582T126 672T290 696Q408 696 454 672T513 582T525 344Q525 172 513 106T455 16T290 -8Q172 -8 126 16ZM389 42T422 57T465 127T474 344Q474 506
465 561T423 631T290 646Q192 646 159 631T116 561T107 344Q107 182 116 127T158 57T290 42Q389 42 422 57ZM257 155T234 172T203 227T195 343Q195 420 203 459T234 515T307 532Q325 532 342 530T370 523V461Q344 465 322 465Q296 465 287 458T275 429T272 343Q272
281 274 259T286 229T322 222Q347 222 371 226V164Q344 155 307 155Q257 155 234 172Z" />
<glyph unicode="&#xaa;" glyph-name="ordfeminine" horiz-adv-x="329" d="M67 307T48 335T28 422Q28 486 48 511T124 537Q163 537 194 534V552Q194 582 190 594T173 610T127 614Q96 614 46 609V684Q103 696 158 696Q213 696 241 681T280 634T291 543V312H198L195
355H189Q170 307 112 307Q67 307 48 335ZM170 390T178 394T190 411Q194 423 194 454V473H151Q133 473 127 465T121 430Q121 406 127 398T155 390Q170 390 178 394Z" />
<glyph unicode="&#xab;" glyph-name="guillemotleft" horiz-adv-x="415" d="M120 121L34 315L120 510H212L144 315L212 121H120ZM282 121L195 315L282 510H373L306 315L373 121H282Z" />
<glyph unicode="&#xac;" glyph-name="logicalnot" horiz-adv-x="473" d="M306 67V192H57V302H416V67H306Z" />
<glyph unicode="&#xad;" glyph-name="uni00AD" horiz-adv-x="297" d="M48 227V343H249V227H48Z" />
<glyph unicode="&#xae;" glyph-name="registered" horiz-adv-x="581" d="M408 696T454 672T513 582T525 344Q525 171 513 105T455 16T290 -8Q172 -8 126 15T68 105T56 344Q56 516 68 582T126 672T290 696Q408 696 454 672ZM389 42T422 57T465 127T474 344Q474
505 465 560T422 631T290 646Q192 646 159 631T116 561T107 344Q107 182 116 127T158 57T290 42Q389 42 422 57ZM401 368T394 342T366 303L409 159H331L295 288H260V159H185V528H307Q347 528 367 515T394 476T401 408Q401 368 394 342ZM306 353T313 356T323 371T326
407Q326 432 323 442T313 456T289 460H260V353H288Q306 353 313 356Z" />
<glyph unicode="&#xaf;" glyph-name="overscore" horiz-adv-x="298" d="M48 627V743H250V627H48Z" />
<glyph unicode="&#xb0;" glyph-name="degree" horiz-adv-x="320" d="M101 397T76 411T44 454T37 546Q37 609 43 638T75 681T160 696Q219 696 245 682T277 638T284 546Q284 483 278 454T245 411T160 397Q101 397 76 411ZM180 463T188 469T199 490T201 546Q201 586
199 601T189 623T160 629Q139 629 132 624T122 603T120 546Q120 505 122 490T132 469T160 463Q180 463 188 469Z" />
<glyph unicode="&#xb1;" glyph-name="plusminus" horiz-adv-x="472" d="M182 195V321H57V430H182V555H290V430H416V321H290V195H182ZM57 29V139H416V29H57Z" />
<glyph unicode="&#xb2;" glyph-name="uni00B2" horiz-adv-x="298" d="M126 391H257V315H42V372Q42 438 48 463T78 502L143 539Q160 548 165 556T171 583Q171 607 163 613T124 619Q103 619 45 614V686Q95 696 147 696Q183 696 205 690T242 660T257 588Q257 541
246 519T209 482L146 448Q133 441 130 434T126 406V391Z" />
<glyph unicode="&#xb3;" glyph-name="uni00B3" horiz-adv-x="297" d="M100 306T40 317V388Q93 383 121 383Q149 383 158 390T167 423Q167 450 160 458T134 466H77V539H134Q152 539 158 547T164 582Q164 607 156 613T117 620Q89 620 42 613V686Q98 696 138 696Q198
696 224 674T251 595Q251 558 240 537T205 507V503Q229 494 241 474T254 414Q254 355 229 331T137 306Q100 306 40 317Z" />
<glyph unicode="&#xb4;" glyph-name="acute" horiz-adv-x="193" d="M6 597V602L59 743H187V738L108 597H6Z" />
<glyph unicode="&#xb5;" glyph-name="uni00B5" horiz-adv-x="452" d="M406 510V0H284L280 61H273Q260 28 237 13T175 -4V-189H46V510H175V234Q175 170 178 146T190 116T224 109Q250 109 260 119T274 156T277 249V510H406Z" />
<glyph unicode="&#xb6;" glyph-name="paragraph" horiz-adv-x="484" d="M173 222Q105 222 77 238T39 299T30 454Q30 563 39 609T76 671T173 688H273V-144H173V222ZM325 -144V688H425V-144H325Z" />
<glyph unicode="&#xb7;" glyph-name="middot" horiz-adv-x="242" d="M51 233V364H192V233H51Z" />
<glyph unicode="&#xb8;" glyph-name="cedilla" horiz-adv-x="162" d="M7 -189V-184L71 8H155V3L120 -189H7Z" />
<glyph unicode="&#xb9;" glyph-name="uni00B9" horiz-adv-x="225" d="M93 315V588L38 565V646L116 688H179V315H93Z" />
<glyph unicode="&#xba;" glyph-name="ordmasculine" horiz-adv-x="337" d="M106 308T78 324T41 379T32 501Q32 584 40 623T77 679T169 696Q232 696 260 679T296 624T305 501Q305 418 297 380T260 325T169 308Q106 308 78 324ZM189 389T196 395T205 422T207 501Q207
561 206 581T197 608T169 615Q148 615 141 609T132 582T130 501Q130 442 132 422T141 396T169 389Q189 389 196 395Z" />
<glyph unicode="&#xbb;" glyph-name="guillemotright" horiz-adv-x="415" d="M42 121L109 315L42 510H133L220 315L133 121H42ZM203 121L271 315L203 510H295L381 315L295 121H203Z" />
<glyph unicode="&#xbc;" glyph-name="onequarter" horiz-adv-x="624" d="M92 315V588L38 565V646L116 688H178V315H92ZM77 0L425 688H507L159 0H77ZM468 0V72H339V135L416 374H506L424 149H470L498 243H554V149H585V72H554V0H468Z" />
<glyph unicode="&#xbd;" glyph-name="onehalf" horiz-adv-x="653" d="M92 315V588L38 565V646L116 688H178V315H92ZM425 688H507L159 0H77L425 688ZM479 77H609V0H394V57Q394 123 400 148T430 187Q446 197 496 224Q513 234 518 241T523 268Q523 292 514 298T477
305Q469 305 423 301L398 299V371Q446 381 500 381Q535 381 557 375T594 345T609 273Q609 226 598 204T561 168Q548 160 537 155T518 145L499 134Q486 127 483 119T479 91V77Z" />
<glyph unicode="&#xbe;" glyph-name="threequarters" horiz-adv-x="672" d="M93 383T121 383Q149 383 158 390T167 423Q167 450 160 458T134 466H77V539H134Q152 539 158 547T164 582Q164 607 156 613T117 620Q89 620 42 613V686Q98 696 138 696Q198 696 224 674T251
595Q251 557 240 537T205 507V503Q229 494 241 474T254 414Q254 355 229 331T138 306Q100 306 40 317V388Q93 383 121 383ZM126 0L474 688H555L208 0H126ZM516 0V72H387V135L464 374H553L471 149H518L545 243H602V149H633V72H602V0H516Z" />
<glyph unicode="&#xbf;" glyph-name="questiondown" horiz-adv-x="363" d="M165 378V510H305V378H165ZM125 -186T82 -149T38 -20Q38 32 45 62T67 111T109 148L142 168Q159 179 165 186T174 205T176 246V293H294V206Q294 171 289 151T274 120T242 96L226 86Q194
66 185 51T176 0Q176 -30 184 -43T210 -61T263 -65Q309 -65 360 -57V-170Q328 -177 285 -181T208 -186Q125 -186 82 -149Z" />
<glyph unicode="&#xc0;" glyph-name="Agrave" horiz-adv-x="501" d="M353 0L326 141H172L145 0H8L150 688H351L493 0H353ZM252 558H246L192 260H305L252 558ZM210 749L132 890V895H260L313 754V749H210Z" />
<glyph unicode="&#xc1;" glyph-name="Aacute" horiz-adv-x="501" d="M353 0L326 141H172L145 0H8L150 688H351L493 0H353ZM252 558H246L192 260H305L252 558ZM185 750V755L238 896H366V891L287 750H185Z" />
<glyph unicode="&#xc2;" glyph-name="Acircumflex" horiz-adv-x="501" d="M353 0L326 141H172L145 0H8L150 688H351L493 0H353ZM252 558H246L192 260H305L252 558ZM111 750V758L186 881H315L391 758V750H302L250 821L199 750H111Z" />
<glyph unicode="&#xc3;" glyph-name="Atilde" horiz-adv-x="501" d="M353 0L326 141H172L145 0H8L150 688H351L493 0H353ZM252 558H246L192 260H305L252 558ZM405 842T401 817T382 777T331 762Q296 762 242 778Q236 780 218 785T188 790Q175 790 172 782T169 750H95Q95
800 99 826T119 866T170 881Q203 881 258 864Q298 853 313 853Q326 853 328 860T331 892H405Q405 842 401 817Z" />
<glyph unicode="&#xc4;" glyph-name="Adieresis" horiz-adv-x="501" d="M353 0L326 141H172L145 0H8L150 688H351L493 0H353ZM252 558H246L192 260H305L252 558ZM108 779V882H219V779H108ZM283 779V882H394V779H283Z" />
<glyph unicode="&#xc5;" glyph-name="Aring" horiz-adv-x="501" d="M493 0H353L326 141H172L145 0H8L150 686Q132 698 128 717T123 775Q123 819 130 841T164 874T250 886Q310 886 337 875T371 841T378 775Q378 738 373 718T351 687L493 0ZM228 821T219 817T207
805T205 775Q205 754 207 746T218 733T250 729Q273 729 282 733T294 745T297 775Q297 796 295 804T283 817T250 821Q228 821 219 817ZM192 260H305L252 558H246L192 260Z" />
<glyph unicode="&#xc6;" glyph-name="AE" horiz-adv-x="677" d="M333 0L316 141H160L123 0H-13L177 688H642V567H398L419 408H615V286H434L457 121H642V0H333ZM268 559H262L188 260H303L268 559Z" />
<glyph unicode="&#xc7;" glyph-name="Ccedilla" horiz-adv-x="396" d="M324 113T368 120V9Q347 2 314 -3T250 -8H240L207 -189H94V-184L156 3Q106 17 81 55T48 159T39 344Q39 489 54 561T113 665T250 696Q283 696 315 692T366 680V568Q308 575 278 575Q227 575
208 562T183 504T177 344Q177 228 182 184T207 127T278 113Q324 113 368 120Z" />
<glyph unicode="&#xc8;" glyph-name="Egrave" horiz-adv-x="421" d="M52 0V688H386V567H190V408H359V287H190V121H386V0H52ZM181 750L103 891V896H231L284 755V750H181Z" />
<glyph unicode="&#xc9;" glyph-name="Eacute" horiz-adv-x="421" d="M52 0V688H386V567H190V408H359V287H190V121H386V0H52ZM169 750V755L222 896H350V891L271 750H169Z" />
<glyph unicode="&#xca;" glyph-name="Ecircumflex" horiz-adv-x="421" d="M52 0V688H386V567H190V408H359V287H190V121H386V0H52ZM78 750V758L153 881H282L358 758V750H269L217 821L166 750H78Z" />
<glyph unicode="&#xcb;" glyph-name="Edieresis" horiz-adv-x="421" d="M52 0V688H386V567H190V408H359V287H190V121H386V0H52ZM77 777V880H188V777H77ZM252 777V880H363V777H252Z" />
<glyph unicode="&#xcc;" glyph-name="Igrave" horiz-adv-x="243" d="M53 0V688H190V0H53ZM88 750L10 891V896H138L191 755V750H88Z" />
<glyph unicode="&#xcd;" glyph-name="Iacute" horiz-adv-x="243" d="M53 0V688H190V0H53ZM56 750V755L109 896H237V891L158 750H56Z" />
<glyph unicode="&#xce;" glyph-name="Icircumflex" horiz-adv-x="243" d="M53 0V688H190V0H53ZM-18 750V758L57 881H186L262 758V750H173L121 821L70 750H-18Z" />
<glyph unicode="&#xcf;" glyph-name="Idieresis" horiz-adv-x="243" d="M53 0V688H190V0H53ZM-21 779V882H90V779H-21ZM154 779V882H265V779H154Z" />
<glyph unicode="&#xd0;" glyph-name="Eth" horiz-adv-x="496" d="M52 289H5V406H52V688H238Q344 688 389 659T446 564T457 344Q457 190 446 125T390 30T238 0H52V289ZM280 121T295 131T315 184T320 344Q320 461 315 503T295 556T236 567H189V406H249V289H189V121H236Q280
121 295 131Z" />
<glyph unicode="&#xd1;" glyph-name="Ntilde" horiz-adv-x="523" d="M347 0L187 377H183V0H52V688H185L334 340H339V688H471V0H347ZM416 843T412 818T393 778T342 763Q307 763 253 779Q247 781 229 786T199 791Q186 791 183 783T180 751H106Q106 801 110 827T130
867T181 882Q214 882 269 865Q309 854 324 854Q337 854 339 861T342 893H416Q416 843 412 818Z" />
<glyph unicode="&#xd2;" glyph-name="Ograve" horiz-adv-x="506" d="M149 -8T105 22T50 120T39 344Q39 501 50 568T105 665T253 696Q357 696 401 666T456 568T467 344Q467 188 456 121T401 23T253 -8Q149 -8 105 22ZM293 113T307 124T325 178T329 344Q329 467
325 510T307 564T253 575Q213 575 199 564T181 510T177 344Q177 221 181 178T199 124T253 113Q293 113 307 124ZM205 750L127 891V896H255L308 755V750H205Z" />
<glyph unicode="&#xd3;" glyph-name="Oacute" horiz-adv-x="506" d="M149 -8T105 22T50 120T39 344Q39 501 50 568T105 665T253 696Q357 696 401 666T456 568T467 344Q467 188 456 121T401 23T253 -8Q149 -8 105 22ZM293 113T307 124T325 178T329 344Q329 467
325 510T307 564T253 575Q213 575 199 564T181 510T177 344Q177 221 181 178T199 124T253 113Q293 113 307 124ZM193 750V755L246 896H374V891L295 750H193Z" />
<glyph unicode="&#xd4;" glyph-name="Ocircumflex" horiz-adv-x="506" d="M149 -8T105 22T50 120T39 344Q39 501 50 568T105 665T253 696Q357 696 401 666T456 568T467 344Q467 188 456 121T401 23T253 -8Q149 -8 105 22ZM293 113T307 124T325 178T329 344Q329
467 325 510T307 564T253 575Q213 575 199 564T181 510T177 344Q177 221 181 178T199 124T253 113Q293 113 307 124ZM113 750V758L188 881H317L393 758V750H304L252 821L201 750H113Z" />
<glyph unicode="&#xd5;" glyph-name="Otilde" horiz-adv-x="506" d="M149 -8T105 22T50 120T39 344Q39 501 50 568T105 665T253 696Q357 696 401 666T456 568T467 344Q467 188 456 121T401 23T253 -8Q149 -8 105 22ZM293 113T307 124T325 178T329 344Q329 467
325 510T307 564T253 575Q213 575 199 564T181 510T177 344Q177 221 181 178T199 124T253 113Q293 113 307 124ZM408 842T404 817T385 777T334 762Q299 762 245 778Q239 780 221 785T191 790Q178 790 175 782T172 750H98Q98 800 102 826T122 866T173 881Q206 881
261 864Q301 853 316 853Q329 853 331 860T334 892H408Q408 842 404 817Z" />
<glyph unicode="&#xd6;" glyph-name="Odieresis" horiz-adv-x="506" d="M149 -8T105 22T50 120T39 344Q39 501 50 568T105 665T253 696Q357 696 401 666T456 568T467 344Q467 188 456 121T401 23T253 -8Q149 -8 105 22ZM293 113T307 124T325 178T329 344Q329 467
325 510T307 564T253 575Q213 575 199 564T181 510T177 344Q177 221 181 178T199 124T253 113Q293 113 307 124ZM110 779V882H221V779H110ZM285 779V882H396V779H285Z" />
<glyph unicode="&#xd7;" glyph-name="multiply" horiz-adv-x="447" d="M223 175L133 85L55 162L146 253L55 343L133 421L223 330L314 421L391 343L301 253L391 162L314 85L223 175Z" />
<glyph unicode="&#xd8;" glyph-name="Oslash" horiz-adv-x="506" d="M426 642Q453 606 460 542T467 344Q467 188 456 121T401 23T253 -8Q207 -8 173 -2L153 -55H39L79 47Q53 83 46 147T39 344Q39 501 50 568T105 665T253 696Q294 696 332 691L352 743H467L426
642ZM293 113T307 124T325 178T329 344Q329 467 325 510T307 564T253 575Q213 575 199 564T181 510T177 344Q177 221 181 178T199 124T253 113Q293 113 307 124Z" />
<glyph unicode="&#xd9;" glyph-name="Ugrave" horiz-adv-x="506" d="M458 688V305Q458 169 447 108T393 19T253 -8Q156 -8 114 19T60 107T48 305V688H185V259Q185 186 188 159T205 122T253 113Q287 113 300 122T316 158T320 259V688H458ZM209 750L131 891V896H259L312
755V750H209Z" />
<glyph unicode="&#xda;" glyph-name="Uacute" horiz-adv-x="506" d="M458 688V305Q458 169 447 108T393 19T253 -8Q156 -8 114 19T60 107T48 305V688H185V259Q185 186 188 159T205 122T253 113Q287 113 300 122T316 158T320 259V688H458ZM199 750V755L252 896H380V891L301
750H199Z" />
<glyph unicode="&#xdb;" glyph-name="Ucircumflex" horiz-adv-x="506" d="M458 688V305Q458 169 447 108T393 19T253 -8Q156 -8 114 19T60 107T48 305V688H185V259Q185 186 188 159T205 122T253 113Q287 113 300 122T316 158T320 259V688H458ZM114 750V758L189
881H318L394 758V750H305L253 821L202 750H114Z" />
<glyph unicode="&#xdc;" glyph-name="Udieresis" horiz-adv-x="506" d="M458 688V305Q458 169 447 108T393 19T253 -8Q156 -8 114 19T60 107T48 305V688H185V259Q185 186 188 159T205 122T253 113Q287 113 300 122T316 158T320 259V688H458ZM110 779V882H221V779H110ZM285
779V882H396V779H285Z" />
<glyph unicode="&#xdd;" glyph-name="Yacute" horiz-adv-x="463" d="M163 0V238L0 688H141L231 391H240L327 688H463L300 238V0H163ZM181 750V755L234 896H362V891L283 750H181Z" />
<glyph unicode="&#xde;" glyph-name="Thorn" horiz-adv-x="475" d="M52 688H190V585H279Q352 585 389 559T440 484T453 352Q453 273 441 224T391 147T278 118H190V0H52V688ZM244 239Q277 239 291 247T310 277T315 352Q315 405 311 427T293 456T245 464H190V239H244Z" />
<glyph unicode="&#xdf;" glyph-name="germandbls" horiz-adv-x="457" d="M221 0V108H235Q264 108 275 115T289 151T293 252Q293 313 289 339T273 373T235 381H226V490H235Q259 490 269 496T283 517T287 566Q287 599 282 615T265 636T231 642Q208 642 197 636T180
608T175 541V0H46V545Q46 618 63 662T120 728T232 750Q333 750 375 710T417 584Q417 520 395 487T324 442V438Q376 426 399 383T422 243Q422 153 409 102T358 26T246 0H221Z" />
<glyph unicode="&#xe0;" glyph-name="agrave" horiz-adv-x="426" d="M79 -8T52 29T25 147Q25 206 37 239T77 288T157 304Q193 304 253 300V323Q253 365 247 382T223 405T162 410Q120 410 50 403V503Q125 518 201 518Q276 518 315 498T368 435T382 312V0H259L255
60H248Q235 23 206 8T141 -8Q79 -8 52 29ZM214 104T224 108T242 123Q253 140 253 192V217H193Q167 217 159 206T150 158Q150 126 158 115T197 104Q214 104 224 108ZM171 597L93 738V743H221L274 602V597H171Z" />
<glyph unicode="&#xe1;" glyph-name="aacute" horiz-adv-x="426" d="M79 -8T52 29T25 147Q25 206 37 239T77 288T157 304Q193 304 253 300V323Q253 365 247 382T223 405T162 410Q120 410 50 403V503Q125 518 201 518Q276 518 315 498T368 435T382 312V0H259L255
60H248Q235 23 206 8T141 -8Q79 -8 52 29ZM214 104T224 108T242 123Q253 140 253 192V217H193Q167 217 159 206T150 158Q150 126 158 115T197 104Q214 104 224 108ZM157 597V602L210 743H338V738L259 597H157Z" />
<glyph unicode="&#xe2;" glyph-name="acircumflex" horiz-adv-x="426" d="M79 -8T52 29T25 147Q25 206 37 239T77 288T157 304Q193 304 253 300V323Q253 365 247 382T223 405T162 410Q120 410 50 403V503Q125 518 201 518Q276 518 315 498T368 435T382 312V0H259L255
60H248Q235 23 206 8T141 -8Q79 -8 52 29ZM214 104T224 108T242 123Q253 140 253 192V217H193Q167 217 159 206T150 158Q150 126 158 115T197 104Q214 104 224 108ZM74 612V620L149 743H278L354 620V612H265L213 683L162 612H74Z" />
<glyph unicode="&#xe3;" glyph-name="atilde" horiz-adv-x="426" d="M79 -8T52 29T25 147Q25 206 37 239T77 288T157 304Q193 304 253 300V323Q253 365 247 382T223 405T162 410Q120 410 50 403V503Q125 518 201 518Q276 518 315 498T368 435T382 312V0H259L255
60H248Q235 23 206 8T141 -8Q79 -8 52 29ZM214 104T224 108T242 123Q253 140 253 192V217H193Q167 217 159 206T150 158Q150 126 158 115T197 104Q214 104 224 108ZM368 693T364 668T345 628T294 613Q259 613 205 629Q199 631 181 636T151 641Q138 641 135 633T132
601H58Q58 651 62 677T82 717T133 732Q166 732 221 715Q261 704 276 704Q289 704 291 711T294 743H368Q368 693 364 668Z" />
<glyph unicode="&#xe4;" glyph-name="adieresis" horiz-adv-x="426" d="M79 -8T52 29T25 147Q25 206 37 239T77 288T157 304Q193 304 253 300V323Q253 365 247 382T223 405T162 410Q120 410 50 403V503Q125 518 201 518Q276 518 315 498T368 435T382 312V0H259L255
60H248Q235 23 206 8T141 -8Q79 -8 52 29ZM214 104T224 108T242 123Q253 140 253 192V217H193Q167 217 159 206T150 158Q150 126 158 115T197 104Q214 104 224 108ZM71 879V982H182V879H71ZM246 879V982H357V879H246Z" />
<glyph unicode="&#xe5;" glyph-name="aring" horiz-adv-x="426" d="M79 -8T52 29T25 147Q25 206 37 239T77 288T157 304Q193 304 253 300V323Q253 365 247 382T223 405T162 410Q120 410 50 403V503Q125 518 201 518Q276 518 315 498T368 435T382 312V0H259L255
60H248Q235 23 206 8T141 -8Q79 -8 52 29ZM214 104T224 108T242 123Q253 140 253 192V217H193Q167 217 159 206T150 158Q150 126 158 115T197 104Q214 104 224 108ZM154 840T128 851T94 884T87 949Q87 993 94 1014T127 1047T213 1059Q273 1059 299 1048T333 1015T340
949Q340 905 333 884T300 852T213 840Q154 840 128 851ZM236 904T245 907T257 919T260 949Q260 970 258 979T246 992T213 996Q191 996 182 992T171 979T168 949Q168 928 170 920T182 908T213 904Q236 904 245 907Z" />
<glyph unicode="&#xe6;" glyph-name="ae" horiz-adv-x="643" d="M608 215H381Q381 158 386 136T409 107T474 100Q516 100 596 106V7Q569 0 527 -4T445 -8Q393 -8 361 2T308 35Q261 -8 168 -8Q89 -8 57 29T25 146Q25 205 37 239T77 288T157 304Q208 304 252 300V322Q252
365 246 382T222 405T161 410Q115 410 49 403V503Q135 518 200 518Q281 518 319 484Q359 518 438 518Q520 518 555 492T599 416T608 254V215ZM410 411T400 404T386 375T381 302H487Q487 353 483 375T469 404T435 411Q410 411 400 404ZM252 216H192Q165 216 157
205T149 158Q149 123 157 111T196 99Q217 99 228 105T246 129Q252 150 252 189V216Z" />
<glyph unicode="&#xe7;" glyph-name="ccedilla" horiz-adv-x="341" d="M315 7Q269 -6 213 -8L180 -189H67V-184L129 2Q88 15 68 46T41 126T34 255Q34 354 46 409T95 491T202 518Q270 518 312 504V404Q266 410 239 410Q203 410 188 400T168 359T163 255Q163 181
168 150T189 110T240 100Q265 100 315 106V7Z" />
<glyph unicode="&#xe8;" glyph-name="egrave" horiz-adv-x="425" d="M390 215H163Q163 158 168 136T191 107T256 100Q294 100 378 106V7Q351 1 308 -3T226 -8Q137 -8 97 18T45 97T34 254Q34 357 45 410T95 490T218 518Q300 518 336 493T381 416T390 254V215ZM192
411T182 404T167 375T163 302H269Q269 353 265 375T251 404T217 411Q192 411 182 404ZM174 597L96 738V743H224L277 602V597H174Z" />
<glyph unicode="&#xe9;" glyph-name="eacute" horiz-adv-x="425" d="M390 215H163Q163 158 168 136T191 107T256 100Q294 100 378 106V7Q351 1 308 -3T226 -8Q137 -8 97 18T45 97T34 254Q34 357 45 410T95 490T218 518Q300 518 336 493T381 416T390 254V215ZM192
411T182 404T167 375T163 302H269Q269 353 265 375T251 404T217 411Q192 411 182 404ZM164 597V602L217 743H345V738L266 597H164Z" />
<glyph unicode="&#xea;" glyph-name="ecircumflex" horiz-adv-x="425" d="M390 215H163Q163 158 168 136T191 107T256 100Q294 100 378 106V7Q351 1 308 -3T226 -8Q137 -8 97 18T45 97T34 254Q34 357 45 410T95 490T218 518Q300 518 336 493T381 416T390 254V215ZM192
411T182 404T167 375T163 302H269Q269 353 265 375T251 404T217 411Q192 411 182 404ZM80 612V620L155 743H284L360 620V612H271L219 683L168 612H80Z" />
<glyph unicode="&#xeb;" glyph-name="edieresis" horiz-adv-x="425" d="M390 215H163Q163 158 168 136T191 107T256 100Q294 100 378 106V7Q351 1 308 -3T226 -8Q137 -8 97 18T45 97T34 254Q34 357 45 410T95 490T218 518Q300 518 336 493T381 416T390 254V215ZM192
411T182 404T167 375T163 302H269Q269 353 265 375T251 404T217 411Q192 411 182 404ZM76 879V982H187V879H76ZM251 879V982H362V879H251Z" />
<glyph unicode="&#xec;" glyph-name="igrave" horiz-adv-x="221" d="M46 0V510H175V0H46ZM328 597L250 738V743H378L431 602V597H328Z" />
<glyph unicode="&#xed;" glyph-name="iacute" horiz-adv-x="221" d="M46 0V510H175V0H46ZM47 597V602L100 743H228V738L149 597H47Z" />
<glyph unicode="&#xee;" glyph-name="icircumflex" horiz-adv-x="221" d="M46 0V510H175V0H46ZM227 612V620L302 743H431L507 620V612H418L366 683L315 612H227Z" />
<glyph unicode="&#xef;" glyph-name="idieresis" horiz-adv-x="221" d="M46 0V510H175V0H46ZM225 879V982H336V879H225ZM400 879V982H511V879H400Z" />
<glyph unicode="&#xf0;" glyph-name="eth" horiz-adv-x="439" d="M133 -8T95 15T45 89T34 254Q34 353 43 407T82 489T175 517Q217 517 246 505L249 509Q234 565 217 601L128 588V664L181 671Q155 711 133 739V743H264Q273 732 304 690L392 703V627L341 619Q368
559 387 461Q402 386 402 257Q402 142 392 90T343 15T219 -8Q133 -8 95 15ZM247 100T257 109T270 145T273 254Q273 333 271 361T257 399T218 410Q189 410 179 401T166 364T163 254Q163 173 165 146T178 109T218 100Q247 100 257 109Z" />
<glyph unicode="&#xf1;" glyph-name="ntilde" horiz-adv-x="450" d="M277 276Q277 340 274 364T262 394T228 401Q202 401 192 391T178 354T175 261V0H46V510H168L172 449H179Q193 487 222 502T292 518Q340 518 364 499T397 442T406 335V0H277V276ZM383 693T379
668T360 628T309 613Q274 613 220 629Q214 631 196 636T166 641Q153 641 150 633T147 601H73Q73 651 77 677T97 717T148 732Q181 732 236 715Q276 704 291 704Q304 704 306 711T309 743H383Q383 693 379 668Z" />
<glyph unicode="&#xf2;" glyph-name="ograve" horiz-adv-x="436" d="M132 -8T94 14T45 88T34 255Q34 370 45 422T94 496T218 518Q304 518 342 496T391 422T402 255Q402 140 391 88T342 14T218 -8Q132 -8 94 14ZM247 100T257 109T270 146T273 255Q273 335 271 363T258
401T218 410Q189 410 179 401T166 364T163 255Q163 175 165 147T178 109T218 100Q247 100 257 109ZM172 597L94 738V743H222L275 602V597H172Z" />
<glyph unicode="&#xf3;" glyph-name="oacute" horiz-adv-x="436" d="M132 -8T94 14T45 88T34 255Q34 370 45 422T94 496T218 518Q304 518 342 496T391 422T402 255Q402 140 391 88T342 14T218 -8Q132 -8 94 14ZM247 100T257 109T270 146T273 255Q273 335 271 363T258
401T218 410Q189 410 179 401T166 364T163 255Q163 175 165 147T178 109T218 100Q247 100 257 109ZM161 597V602L214 743H342V738L263 597H161Z" />
<glyph unicode="&#xf4;" glyph-name="ocircumflex" horiz-adv-x="436" d="M132 -8T94 14T45 88T34 255Q34 370 45 422T94 496T218 518Q304 518 342 496T391 422T402 255Q402 140 391 88T342 14T218 -8Q132 -8 94 14ZM247 100T257 109T270 146T273 255Q273 335
271 363T258 401T218 410Q189 410 179 401T166 364T163 255Q163 175 165 147T178 109T218 100Q247 100 257 109ZM79 612V620L154 743H283L359 620V612H270L218 683L167 612H79Z" />
<glyph unicode="&#xf5;" glyph-name="otilde" horiz-adv-x="436" d="M132 -8T94 14T45 88T34 255Q34 370 45 422T94 496T218 518Q304 518 342 496T391 422T402 255Q402 140 391 88T342 14T218 -8Q132 -8 94 14ZM247 100T257 109T270 146T273 255Q273 335 271 363T258
401T218 410Q189 410 179 401T166 364T163 255Q163 175 165 147T178 109T218 100Q247 100 257 109ZM375 693T371 668T352 628T301 613Q266 613 212 629Q206 631 188 636T158 641Q145 641 142 633T139 601H65Q65 651 69 677T89 717T140 732Q173 732 228 715Q268
704 283 704Q296 704 298 711T301 743H375Q375 693 371 668Z" />
<glyph unicode="&#xf6;" glyph-name="odieresis" horiz-adv-x="436" d="M132 -8T94 14T45 88T34 255Q34 370 45 422T94 496T218 518Q304 518 342 496T391 422T402 255Q402 140 391 88T342 14T218 -8Q132 -8 94 14ZM247 100T257 109T270 146T273 255Q273 335 271
363T258 401T218 410Q189 410 179 401T166 364T163 255Q163 175 165 147T178 109T218 100Q247 100 257 109ZM76 879V982H187V879H76ZM251 879V982H362V879H251Z" />
<glyph unicode="&#xf7;" glyph-name="divide" horiz-adv-x="472" d="M181 371V465H291V371H181ZM57 198V307H416V198H57ZM181 41V134H291V41H181Z" />
<glyph unicode="&#xf8;" glyph-name="oslash" horiz-adv-x="436" d="M70 34Q48 61 41 110T34 255Q34 370 45 422T94 496T218 518Q247 518 269 515L290 565H402L366 476Q388 449 395 400T402 255Q402 140 391 88T342 14T218 -8Q188 -8 167 -5L147 -55H34L70 34ZM247
100T257 109T270 146T273 255Q273 335 271 363T258 401T218 410Q189 410 179 401T166 364T163 255Q163 175 165 147T178 109T218 100Q247 100 257 109Z" />
<glyph unicode="&#xf9;" glyph-name="ugrave" horiz-adv-x="450" d="M279 61H271Q247 -8 159 -8Q110 -8 86 11T53 68T44 175V510H173V234Q173 170 176 146T188 116T223 109Q248 109 258 119T272 156T275 249V510H404V0H283L279 61ZM179 597L101 738V743H229L282
602V597H179Z" />
<glyph unicode="&#xfa;" glyph-name="uacute" horiz-adv-x="450" d="M279 61H271Q247 -8 159 -8Q110 -8 86 11T53 68T44 175V510H173V234Q173 170 176 146T188 116T223 109Q248 109 258 119T272 156T275 249V510H404V0H283L279 61ZM170 597V602L223 743H351V738L272
597H170Z" />
<glyph unicode="&#xfb;" glyph-name="ucircumflex" horiz-adv-x="450" d="M279 61H271Q247 -8 159 -8Q110 -8 86 11T53 68T44 175V510H173V234Q173 170 176 146T188 116T223 109Q248 109 258 119T272 156T275 249V510H404V0H283L279 61ZM85 612V620L160 743H289L365
620V612H276L224 683L173 612H85Z" />
<glyph unicode="&#xfc;" glyph-name="udieresis" horiz-adv-x="450" d="M279 61H271Q247 -8 159 -8Q110 -8 86 11T53 68T44 175V510H173V234Q173 170 176 146T188 116T223 109Q248 109 258 119T272 156T275 249V510H404V0H283L279 61ZM82 879V982H193V879H82ZM257
879V982H368V879H257Z" />
<glyph unicode="&#xfd;" glyph-name="yacute" horiz-adv-x="450" d="M177 -203T137 -200T72 -193V-93Q109 -94 183 -94Q229 -94 247 -87T270 -57T275 24V67H268Q244 1 159 1Q109 1 85 21T52 82T44 198V510H173V242Q173 178 176 154T188 124T223 117Q249 117 259
127T272 163T275 257V510H404V60Q404 -43 393 -95T342 -175T213 -203Q177 -203 137 -200ZM169 597V602L222 743H350V738L271 597H169Z" />
<glyph unicode="&#xfe;" glyph-name="thorn" horiz-adv-x="446" d="M46 743H175V451H182Q203 518 284 518Q333 518 360 496T400 417T412 256Q412 153 401 97T363 17T286 -8Q206 -8 182 54H175V-190H46V743ZM255 108T265 116T279 152T283 255Q283 329 280 357T266
394T228 402Q205 402 195 394T180 358Q175 332 175 255Q175 190 178 161Q182 129 193 119T228 108Q255 108 265 116Z" />
<glyph unicode="&#xff;" glyph-name="ydieresis" horiz-adv-x="450" d="M177 -203T137 -200T72 -193V-93Q109 -94 183 -94Q229 -94 247 -87T270 -57T275 24V67H268Q244 1 159 1Q109 1 85 21T52 82T44 198V510H173V242Q173 178 176 154T188 124T223 117Q249 117
259 127T272 163T275 257V510H404V60Q404 -43 393 -95T342 -175T213 -203Q177 -203 137 -200ZM82 879V982H193V879H82ZM257 879V982H368V879H257Z" />
<glyph unicode="&#x2013;" glyph-name="endash" horiz-adv-x="446" d="M43 250V359H404V250H43Z" />
<glyph unicode="&#x2014;" glyph-name="emdash" horiz-adv-x="817" d="M43 250V359H774V250H43Z" />
<glyph unicode="&#x2018;" glyph-name="quoteleft" horiz-adv-x="235" d="M51 510Q51 585 60 621T97 672T187 688V631Q154 631 144 617T133 561V546H184V422H51V510Z" />
<glyph unicode="&#x2019;" glyph-name="quoteright" horiz-adv-x="235" d="M80 479T90 493T101 549V564H51V688H184V600Q184 525 175 489T138 438T47 422V479Q80 479 90 493Z" />
<glyph unicode="&#x201a;" glyph-name="quotesinglbase" horiz-adv-x="235" d="M80 -85T90 -71T101 -15V0H51V124H184V36Q184 -39 175 -75T138 -126T47 -142V-85Q80 -85 90 -71Z" />
<glyph unicode="&#x201c;" glyph-name="quotedblleft" horiz-adv-x="420" d="M51 510Q51 585 60 621T97 672T187 688V631Q154 631 144 617T133 561V546H184V422H51V510ZM237 510Q237 585 246 621T283 672T373 688V631Q341 631 331 617T320 561V546H370V422H237V510Z" />
<glyph unicode="&#x201d;" glyph-name="quotedblright" horiz-adv-x="420" d="M80 479T90 493T101 549V564H51V688H184V600Q184 525 175 489T138 438T47 422V479Q80 479 90 493ZM266 479T276 493T287 549V564H237V688H370V600Q370 525 361 489T323 438T233 422V479Q266
479 276 493Z" />
<glyph unicode="&#x201e;" glyph-name="quotedblbase" horiz-adv-x="421" d="M80 -85T90 -71T101 -15V0H51V124H184V36Q184 -39 175 -75T138 -126T47 -142V-85Q80 -85 90 -71ZM267 -85T277 -71T288 -15V0H237V124H370V36Q370 -39 361 -75T324 -126T234 -142V-85Q267
-85 277 -71Z" />
<glyph unicode="&#x2022;" glyph-name="bullet" horiz-adv-x="291" d="M246 294T241 275T215 249T144 242Q95 242 75 249T50 275T44 342Q44 391 49 411T75 438T144 445Q195 445 215 438T240 411T246 342Q246 294 241 275Z" />
<glyph unicode="&#x2039;" glyph-name="guilsinglleft" horiz-adv-x="254" d="M120 121L33 315L120 510H211L144 315L211 121H120Z" />
<glyph unicode="&#x203a;" glyph-name="guilsinglright" horiz-adv-x="254" d="M42 121L109 315L42 510H133L220 315L133 121H42Z" />
</font>
</defs>
</svg>
