<?xml version="1.0" standalone="no"?>
<!DOCTYPE svg PUBLIC "-//W3C//DTD SVG 1.1//EN" "http://www.w3.org/Graphics/SVG/1.1/DTD/svg11.dtd">
<svg xmlns="http://www.w3.org/2000/svg">
<defs >
<font id="ShadowsIntoLightTwo" horiz-adv-x="467" ><font-face
    font-family="Shadows Into Light Two"
    units-per-em="1024"
    panose-1="2 0 5 6 0 0 0 2 0 4"
    ascent="1145"
    descent="-341"
    alphabetic="0" />
<glyph unicode=" " glyph-name="space" horiz-adv-x="512" />
<glyph unicode="!" glyph-name="exclam" horiz-adv-x="138" d="M46 40Q46 60 56 68T80 74T104 62T115 36Q115 19 104 10T79 1T55 11T46 40ZM47 828Q55 841 64 844T81 845T94 839T101 831Q101 770 99 690T96 525T96 361T104 221Q100 209 91 205T72 201T54 209T44
224L47 828Z" />
<glyph unicode="&quot;" glyph-name="quotedbl" horiz-adv-x="236" d="M152 817Q161 827 173 829T195 829T213 820T220 805L219 603Q218 596 209 592T188 587T166 592T152 610V817ZM46 819Q55 829 66 831T86 832T102 823T109 808L108 606Q107 599 98 595T79 590T59
594T46 612V819Z" />
<glyph unicode="#" glyph-name="numbersign" horiz-adv-x="627" d="M318 685Q313 691 320 699T340 712T365 715T383 695L392 588L469 606Q478 608 482 602T486 586T483 565T475 547L398 528L406 441L475 457Q484 459 487 453T491 436T488 415T479 396L410 380L423
240Q423 231 416 226T400 218T380 216T362 220L348 365L253 344L266 211Q267 202 260 196T243 188T222 186T204 191L191 329L118 312Q110 306 104 312T96 330T100 355T124 377L186 390L177 476L96 457Q88 451 81 457T73 475T77 500T102 522L171 538L162 655Q156
661 163 670T183 683T208 685T226 665L235 552L328 573L318 685ZM249 405L342 426L334 513L241 491L249 405Z" />
<glyph unicode="$" glyph-name="dollar" horiz-adv-x="607" d="M233 52Q181 41 136 36T58 32Q48 32 41 39T38 62Q39 66 55 70T97 80T159 91T232 106L227 303Q185 310 146 322T78 354T31 401T13 468Q13 507 29 542T74 607T138 664T216 710L213 854Q213 863 220
865T236 867T253 863T265 857Q266 827 266 796T268 732Q310 748 350 756T426 765Q436 765 447 765T466 764T480 756T486 736Q486 704 465 690T414 676L371 690Q349 690 324 684T270 666Q272 590 274 512T278 353Q332 347 386 342T485 326T557 296T585 242Q585 213
560 187T492 139T395 97T286 64Q286 44 286 25T288 -14Q294 -24 289 -33T275 -48T254 -53T236 -40L233 52ZM71 469Q71 444 83 426T116 396T165 375T225 361L218 642Q189 626 162 606T115 564T83 517T71 469ZM526 236Q526 252 505 261T450 275T371 285T280 295Q281
249 282 205T284 117Q323 126 361 138T432 164T489 197T526 236Z" />
<glyph unicode="%" glyph-name="percent" horiz-adv-x="512" d="M148 2Q138 -3 129 -3T113 2T99 14T88 28Q111 121 145 224T220 433T305 644T391 848Q399 853 410 854T430 854T444 844T446 823Q401 722 359 618T279 410T207 202T148 2ZM374 78Q339 89 322 113T302
168T306 230T331 289T369 334T417 353Q451 349 471 326T498 271T499 203T477 138T435 92T374 78ZM411 288Q400 290 390 281T373 256T361 223T356 187T363 157T383 138Q396 134 409 142T432 165T449 199T455 236T443 268T411 288ZM48 557Q24 584 25 620T43 691T88
752T146 783T203 768T246 687Q252 673 246 652T225 608T189 566T144 537T95 530T48 557ZM200 679Q187 715 171 725T138 730T109 705T88 664T80 621T94 589Q113 585 131 592T164 612T188 643T200 679Z" />
<glyph unicode="&amp;" glyph-name="ampersand" horiz-adv-x="492" d="M283 308Q246 269 210 252T143 232T92 239T64 265Q52 294 58 321T81 372T125 412T179 436T236 438T286 411L292 557Q292 570 299 577T317 586T337 584T352 569L339 414L439 478Q447 473 454
467T464 452T465 432T452 408L344 345L345 175Q345 155 336 145T315 133T293 138T283 161V308ZM257 360Q240 380 219 383T176 379T137 357T112 327T107 299T134 282Q156 283 179 294T221 318T250 344T257 360Z" />
<glyph unicode="&apos;" glyph-name="quotesingle" horiz-adv-x="155" d="M66 713Q75 723 86 726T106 727T122 719T128 705L127 503Q126 496 118 491T99 485T79 489T66 506V713Z" />
<glyph unicode="(" glyph-name="parenleft" horiz-adv-x="332" d="M18 336Q13 427 30 508T82 661T163 800T264 926Q284 926 289 915T293 883Q243 823 200 762T126 634T79 493T69 334Q67 281 84 227T134 125T215 41T322 -11Q325 -18 327 -27T327 -43T315 -55T285
-58Q226 -42 177 0T92 97T36 215T18 336Z" />
<glyph unicode=")" glyph-name="parenright" horiz-adv-x="270" d="M193 434Q191 494 181 555T150 673T94 782T9 875Q6 880 7 889T12 906T23 918T37 917Q92 871 131 813T195 690T233 554T245 412Q245 378 237 335T216 244T184 150T147 61T107 -14T69 -66Q62 -72
54 -71T39 -65T30 -52T32 -37Q40 -31 55 -5T88 61T125 148T159 246T184 345T193 434Z" />
<glyph unicode="*" glyph-name="asterisk" horiz-adv-x="578" d="M75 310Q58 317 50 329T52 353L219 396L73 466Q63 471 60 480T58 497T67 509T83 510L233 445L226 635Q226 645 233 652T250 661T267 655T276 629L285 451L399 617Q416 625 426 625T440 621T444
608T439 589L323 435L524 483Q532 482 539 476T548 461T548 445T532 432Q521 430 495 424T440 411T384 398T347 389Q344 388 340 388T331 385L496 286Q507 279 510 271T512 255T503 242T486 235L305 333L334 140Q336 127 329 119T313 108T294 107T284 119L256 299L120
137Q102 135 96 146T92 177L222 340L75 310Z" />
<glyph unicode="+" glyph-name="plus" horiz-adv-x="531" d="M86 288Q60 288 58 308T73 346L222 380V557Q220 569 228 578T247 592T269 596T285 584V398L452 448Q458 447 463 440T469 422T468 402T452 386L285 331V167Q285 153 277 146T257 136T235 135T222 146L216
314L86 288Z" />
<glyph unicode="," glyph-name="comma" horiz-adv-x="124" d="M80 -121Q57 -132 45 -128T23 -106Q27 -89 32 -65T41 -16T43 34T32 78Q32 94 33 103T39 118T53 125T78 127Q88 112 95 93T105 45T102 -24T80 -121Z" />
<glyph unicode="-" glyph-name="hyphen" horiz-adv-x="452" d="M66 265Q58 260 50 268T38 290T40 318T66 337L411 348Q421 348 426 341T432 322T431 298T423 279L66 265V265Z" />
<glyph unicode="." glyph-name="period" horiz-adv-x="147" d="M72 0Q49 0 40 14T32 46T47 76T83 89Q102 88 108 73T112 40T99 9T72 0Z" />
<glyph unicode="/" glyph-name="slash" horiz-adv-x="349" d="M285 830Q303 844 320 843T339 817L81 -18Q71 -23 61 -24T41 -23T26 -14T20 2L285 830V830Z" />
<glyph unicode="0" glyph-name="zero" horiz-adv-x="397" d="M227 848Q267 853 297 820T346 730T375 597T384 441T372 283T338 144T282 44T204 3Q172 -9 141 20T86 107T44 241T20 400T21 562T52 705T119 808T227 848ZM227 794Q179 793 147 761T97 676T72 557T68
421T84 287T116 170T160 88T212 58Q241 70 264 108T303 201T328 320T340 452T337 580T317 690T281 766T227 794Z" />
<glyph unicode="1" glyph-name="one" horiz-adv-x="138" d="M43 823Q43 832 50 834T66 836T83 832T95 826Q100 629 100 434T104 40Q110 30 105 21T91 6T70 1T52 14L43 823Z" />
<glyph unicode="2" glyph-name="two" horiz-adv-x="449" d="M13 39Q35 76 64 128T124 240T184 366T238 493T277 610T293 709Q287 748 276 767T242 781T177 738T70 628Q60 635 51 643T41 663Q41 664 41 666T42 670Q64 694 91 724T150 780T217 824T292 842Q321 828
332 794T342 713T325 607T290 488T243 366T191 250T141 150T99 77L395 133Q407 133 417 120T429 86L48 8Q33 8 23 12T13 39Z" />
<glyph unicode="3" glyph-name="three" horiz-adv-x="472" d="M60 43Q66 46 91 58T151 90T226 138T300 198T359 268T389 348Q393 376 386 402T365 449T330 483T288 498Q265 502 242 494T195 473T150 447T109 428T73 426T44 453L262 670Q299 712 302 738T288 775T237
787T167 776T96 747T44 704Q44 704 44 701T43 694T43 687T42 684Q28 685 19 697T11 723Q17 747 39 767T92 802T158 828T227 844T287 848T327 839Q354 823 360 800T358 749T330 691T288 632T242 577T201 531Q249 552 296 547T380 515T435 447T445 350Q439 306 418
267T365 195T297 132T222 80T148 38T84 6Q70 4 61 12T60 43Z" />
<glyph unicode="4" glyph-name="four" horiz-adv-x="573" d="M8 299Q54 370 98 434T185 563T268 693T348 835Q351 842 360 847T378 852T396 849T405 835L403 441Q441 441 476 450T550 459Q560 427 548 416T512 401T458 397T403 384L405 3Q405 -7 397 -11T379 -15T360
-11T346 -2V374L8 299ZM121 368L345 423L362 739L121 368Z" />
<glyph unicode="5" glyph-name="five" horiz-adv-x="469" d="M46 37Q51 42 73 51T126 75T191 115T255 175T306 262T330 381Q319 432 298 446T242 443T162 376T55 250Q48 251 42 291T32 403T28 576T34 801L405 851Q439 851 447 839T434 794Q406 798 359 795T259
784T160 768T86 751Q83 650 83 580T83 464T85 395T86 366Q110 393 132 418T179 464T232 497T299 509Q322 509 338 497T364 465T378 423T383 381Q382 302 353 239T278 127T174 44T58 -9Q52 -7 48 -1T43 12T42 27T46 37Z" />
<glyph unicode="6" glyph-name="six" horiz-adv-x="457" d="M171 -1Q46 22 32 230T123 828Q124 834 134 839T154 844T173 834T180 800Q148 714 128 625T98 449T89 286T101 147Q105 181 127 226T180 315T248 395T322 449T388 457T438 401Q445 372 436 332T407 246T358
157T297 78T232 21T171 -1ZM155 60Q171 47 196 62T249 107T304 179T351 260T380 335T383 385Q375 412 352 403T298 364T236 288T182 198T150 115T155 60Z" />
<glyph unicode="7" glyph-name="seven" horiz-adv-x="521" d="M380 6Q373 28 372 85T372 219T379 380T390 544T402 685T412 778Q367 782 319 775T224 755T132 727T49 699Q27 703 17 716T13 746Q13 753 41 763T114 783T212 804T314 822T402 835T456 840Q473 840
480 827T483 797Q475 785 468 747T456 653T446 532T439 398T435 266T433 150T436 67T443 29Q453 18 446 8T427 -7T400 -11T380 6Z" />
<glyph unicode="8" glyph-name="eight" horiz-adv-x="371" d="M179 -1Q126 4 97 31T56 98T49 184T68 273T105 350T152 399Q104 422 75 463T32 554T23 653T47 746T102 816T187 848Q237 852 269 833T319 781T338 702T330 608T297 508T242 414Q269 388 294 348T336
263T357 171T346 87T290 25T179 -1ZM201 368Q179 358 159 330T124 266T105 191T109 119T145 68T221 52Q234 53 248 61T274 81T293 107T300 135Q298 176 289 213T266 281T235 334T201 368ZM195 805Q159 801 133 778T93 720T77 644T86 565T123 495T190 448Q217 470
238 503T273 574T289 650T284 720T254 775T195 805Z" />
<glyph unicode="9" glyph-name="nine" horiz-adv-x="498" d="M414 693Q392 665 366 630T311 560T250 493T187 438T122 405T57 404Q49 404 42 409T28 424T19 444T15 465Q15 500 29 541T67 625T125 706T195 776T272 824T350 843Q405 845 429 827T462 775T469 694T471
589L457 11Q462 6 454 -2T433 -13T410 -14T398 8Q399 36 401 89T405 207T409 345T413 484T415 606T414 693ZM73 522Q64 485 71 473T98 466T144 492T202 542T263 606T317 674T357 737T375 784Q344 801 305 784T224 727T144 633T73 522Z" />
<glyph unicode=":" glyph-name="colon" horiz-adv-x="196" d="M79 522Q79 539 90 548T114 559T138 552T150 527Q150 506 139 496T115 486T91 495T79 522ZM79 329Q79 346 90 355T114 366T138 359T150 334Q150 313 139 303T115 293T91 302T79 329Z" />
<glyph unicode=";" glyph-name="semicolon" horiz-adv-x="173" d="M34 -92Q62 -53 68 -15T71 55T60 110T52 145Q52 166 60 174T80 183T101 177T115 161Q125 146 131 115T137 46T131 -29T109 -95Q105 -107 95 -114T74 -122T51 -116T34 -92ZM25 334Q28 357 41 368T68
380T95 370T109 336Q110 316 96 306T66 296T36 306T25 334Z" />
<glyph unicode="&lt;" glyph-name="less" horiz-adv-x="509" d="M80 364Q62 386 63 403T89 437L368 679Q376 689 387 688T406 680T414 660T402 636L127 400L417 201Q428 194 430 182T427 161T412 147T388 152L80 364Z" />
<glyph unicode="=" glyph-name="equal" horiz-adv-x="581" d="M157 222Q149 217 141 225T129 247T131 275T157 294L502 305Q512 305 517 298T523 279T522 255T514 236L157 222ZM152 397Q144 392 136 400T124 422T126 450T152 469L497 480Q507 480 512 473T518
454T517 430T509 411L152 397Z" />
<glyph unicode="&gt;" glyph-name="greater" horiz-adv-x="429" d="M81 175Q67 166 57 170T42 183T39 205T52 224L342 423L67 659Q54 671 54 683T62 702T81 711T101 702L380 460Q405 444 406 427T389 387L81 175Z" />
<glyph unicode="?" glyph-name="question" horiz-adv-x="507" d="M200 43Q200 62 207 67T227 73Q246 73 259 60T272 28Q272 12 261 6T234 0Q228 0 222 5T211 17T203 31T200 43ZM141 492Q141 537 162 573T215 643T284 707T353 771T406 842T428 924Q428 950 415
962T381 979T338 984T295 983Q259 983 227 969T166 939T107 909T48 895Q34 895 24 898T14 925Q14 938 33 951T81 977T147 1001T217 1021T279 1034T321 1039Q346 1039 375 1035T428 1021T468 991T484 940Q484 883 456 828T387 723T302 631T227 555Q213 548 210 534T210
505T226 476T256 455T297 450T349 470L370 427Q347 409 316 403T256 397Q235 397 215 403T178 422T151 452T141 492Z" />
<glyph unicode="@" glyph-name="at" horiz-adv-x="1076" d="M29 327Q29 399 53 479T122 636T225 784T354 907T500 992T655 1024Q720 1024 775 994T869 915T931 805T953 684Q953 630 944 576T911 479T844 408T736 381Q681 381 651 393T605 423T586 464T579 508T568
545T541 569Q522 537 494 495T432 416T359 352T276 326Q250 326 238 341T226 383Q226 414 242 455T284 541T346 628T419 706T496 761T569 782Q614 782 628 765T642 709Q642 703 642 695T640 680T631 669T611 669Q611 665 611 655T611 633T610 612T610 597Q610 564
615 533T634 478T672 440T735 425Q790 425 822 447T872 504T893 583T898 669Q898 718 885 771T843 867T771 939T669 968Q596 968 526 942T392 871T274 765T181 637T120 496T98 353Q98 269 120 212T186 121T293 71T438 56Q572 56 691 99T925 213Q939 222 947 234T962
259T979 279T1008 287Q1044 287 1051 274T1038 227Q969 178 895 137T743 65T581 17T413 0Q334 0 265 18T143 75T60 176T29 327ZM569 725Q538 725 505 708T440 661T380 595T331 520T297 444T284 378Q304 378 325 389T365 417T401 452T427 483Q435 494 454 522T493
582T531 642T555 683H606Q606 700 597 712T569 725Z" />
<glyph unicode="A" glyph-name="A" horiz-adv-x="601" d="M-1 0Q6 23 21 76T62 227T123 478T209 852Q215 862 226 865T248 868T266 861T273 848L470 369L572 400Q585 400 594 393T604 376T597 355T569 336Q561 333 548 330T522 323T500 317T491 311L602 15Q600
10 598 3T590 -9T572 -13T538 2L423 296Q402 290 371 285T306 274T238 261T174 242T125 216T101 178Q99 164 94 132T83 68Q77 30 69 -14Q51 -32 37 -26T-1 0ZM250 742L144 297Q161 303 191 310T256 325T326 341T391 358L250 742Z" />
<glyph unicode="B" glyph-name="B" horiz-adv-x="567" d="M37 744Q32 761 30 774T29 804Q30 809 31 815T36 824T46 829T62 827Q68 824 74 817T84 799T92 780T96 765Q123 781 156 797T224 825T296 842T365 844Q376 843 390 839T417 827T438 809T445 784Q445 757
434 728T404 670T364 613T320 561T279 516T250 483Q284 496 330 505T420 512T500 490T548 428Q551 402 538 370T501 302T445 232T377 163T305 102T239 54T185 23T152 14L128 54Q133 53 160 70T224 116T305 181T385 255T449 326T479 387Q484 422 461 437T397 453T308
440T215 405T138 355T97 297Q93 266 92 233T91 167T90 100T85 37Q82 15 77 1T47 -9Q45 -9 40 -8T35 -6L37 744ZM98 666Q95 646 94 615T92 551T94 487T102 435Q120 450 151 477T218 537T288 608T344 679T373 742T359 788Q341 790 316 789T262 782T206 766T155 742T117
708T98 666Z" />
<glyph unicode="C" glyph-name="C" horiz-adv-x="541" d="M28 199Q28 235 35 297T57 431T95 576T149 709T219 807T307 845Q334 845 353 835T386 808T405 769T411 722Q384 709 370 716T348 737T331 768T308 788Q272 788 242 754T188 666T146 548T116 422T98 310T92
236Q92 204 94 175T107 122T139 86T198 72Q243 72 286 98T366 163T430 246T470 327Q472 328 480 328T490 329Q503 329 515 326T527 306Q520 270 496 231T438 154T365 84T287 29T217 -1T164 0Q128 0 102 20T60 71T36 135T28 199Z" />
<glyph unicode="D" glyph-name="D" horiz-adv-x="631" d="M179 37Q178 47 204 74T270 140T357 229T447 338T518 461T552 593Q552 624 535 648T492 692T431 726T364 749T299 763T247 768Q242 768 233 768T211 765T187 759T164 749L210 141Q215 130 210 117T194
95T171 86T152 99L103 722Q100 720 92 716T74 708T57 699T46 693Q45 693 43 693T39 692Q33 692 26 695T18 708Q18 725 25 735T44 755T69 772T94 795T113 830T121 884Q143 884 148 876T155 858T158 837T174 821Q205 824 250 823T344 813T441 788T527 743T587 676T606
583Q598 501 564 425T478 276T356 136T209 0Q208 0 206 0T202 -1Q192 -1 186 13T179 37Z" />
<glyph unicode="E" glyph-name="E" horiz-adv-x="544" d="M48 22Q48 118 51 218T55 419T46 621T16 817Q16 822 20 829T30 843T43 852T59 853Q72 848 80 834T93 802T99 770T101 747L486 843Q495 841 500 833T506 814T499 793T479 779L100 676Q100 611 103 547T112
417L390 514Q390 514 396 520T410 530T428 533T447 518Q447 498 423 482T364 451T287 425T210 399T150 373T126 344L119 81Q134 72 162 75T226 89T300 113T375 141T441 164T491 175Q500 174 507 169T517 156T518 142T504 129Q465 112 410 91T297 51T183 17T90 -1Q76
1 68 5T48 22Z" />
<glyph unicode="F" glyph-name="F" horiz-adv-x="486" d="M30 824Q30 836 37 841T54 848T75 850T94 851V745Q167 767 215 784T302 815T378 840T466 863Q474 863 477 855T480 841Q480 828 466 820L98 685L115 361Q197 407 253 439T347 492T404 524T435 540T447
546T450 547Q459 550 462 547T465 536T463 520T457 503Q452 496 425 479T359 440T279 394T200 348T139 311T115 290L118 29Q118 15 113 7T97 -1Q85 -1 76 30T59 114T47 235T39 377T34 522T31 656T30 762T30 824Z" />
<glyph unicode="G" glyph-name="G" horiz-adv-x="667" d="M509 221Q480 186 439 148T351 79T255 29T162 11T82 39T24 128Q11 172 14 231T34 355T79 488T146 617T232 729T333 813T446 856T567 846Q575 846 577 843T578 833T575 818T572 797Q499 807 433 784T311
713T209 601T134 463T89 315T80 171Q84 113 114 93T187 78T282 113T380 183T465 274T519 370H339Q324 391 336 402T377 417T448 422T532 420Q545 423 568 432T612 448T645 451T649 427Q648 425 642 421T629 412T615 403T606 398Q582 351 572 288T561 157T565 22T579
-99L541 -112Q531 -97 525 -54T514 41T509 142T509 221Z" />
<glyph unicode="H" glyph-name="H" horiz-adv-x="466" d="M391 466Q383 461 362 453T314 434T256 413T198 392T149 373T119 358Q101 345 92 322T79 269T75 206T77 140T81 79T85 30Q84 14 74 2T47 -11Q41 -11 33 -8T26 3L23 820Q23 834 29 840T44 847T63 844T81
834Q82 790 82 733T82 618T85 506T95 414Q144 435 195 449T287 483T356 533T386 616Q388 643 388 664T387 706T381 750T369 806Q369 826 377 831T399 837Q413 837 420 830T431 813T436 789T437 765Q438 748 439 712T441 632T443 537T446 443T448 362T449 309Q450
288 450 253T450 180T449 107T447 50Q446 41 446 32T443 15T434 1T414 -8Q394 5 393 23T390 62Q390 74 390 105T391 178T391 264T392 350T392 422T391 466Z" />
<glyph unicode="I" glyph-name="I" horiz-adv-x="144" d="M31 838Q35 844 43 846T61 848T78 843T90 834L105 14Q105 2 99 -3T85 -8T67 -6T52 3L31 838Z" />
<glyph unicode="J" glyph-name="J" horiz-adv-x="466" d="M12 193Q16 213 23 222T37 231T49 226T53 211Q51 184 65 152T105 90T165 36T235 2T306 -3T371 35Q383 55 387 96T389 191T379 309T362 437T342 563T324 675T310 759T305 805Q300 815 305 826T319 845T340
851T361 835Q375 754 390 665T418 485T439 305T447 133Q447 89 440 52T413 -14T362 -58T280 -74Q252 -74 220 -61T155 -25T94 25T45 83T15 141T12 193Z" />
<glyph unicode="K" glyph-name="K" horiz-adv-x="523" d="M19 807Q20 819 25 829T37 844T53 850T69 840Q73 840 75 833T79 806T80 752T81 665T81 538T83 363Q87 370 104 398T149 468T209 558T278 655T349 745T415 813T468 847T503 834Q416 722 349 639T234 490T153
367T101 253L520 51Q518 34 509 19T477 6L88 187Q91 171 91 149T89 102T84 56T80 20Q82 -1 66 -8T33 -1L19 807Z" />
<glyph unicode="L" glyph-name="L" horiz-adv-x="611" d="M54 43Q51 257 47 399T40 630T35 761T33 817Q33 832 41 841T60 850T79 839T89 805L121 72L555 164Q622 164 584 107L82 0Q54 0 54 43Z" />
<glyph unicode="M" glyph-name="M" horiz-adv-x="742" d="M589 739Q585 741 577 714T555 644T527 547T494 440T458 341T423 268T390 239T361 270Q345 294 325 336T283 427T236 528T186 626T137 704T91 751Q91 673 100 580T119 392T139 203T148 31Q153 21 149 11T135
-4T114 -6T92 12Q78 112 72 216T60 425T46 634T20 839Q19 859 27 864T47 869Q92 856 128 822T193 741T247 639T296 530T344 426T397 340Q401 340 404 343T414 362T431 410T460 499T507 642T575 853Q577 859 585 863T602 868T620 862T631 839Q641 747 649 645T668
435T691 219T723 3Q721 -11 714 -16T697 -21T676 -15T654 -1L589 739Z" />
<glyph unicode="N" glyph-name="N" horiz-adv-x="584" d="M27 841Q38 857 53 851T82 831T104 804T108 791L475 164Q478 179 480 212T484 291T485 391T483 499T478 605T471 698T462 767T450 801Q450 817 456 831T480 846Q497 846 508 826T525 781T533 732T536 701Q537
681 537 638T538 538T539 421T540 303T541 203T542 139Q543 111 549 90T556 42Q556 20 540 9T503 -2Q492 -2 484 1T470 11T465 29T469 58Q451 79 423 128T362 240T292 372T222 502T159 610T112 673Q107 608 109 523T116 348T126 173T132 23Q132 2 120 -3T95 -6T73
4T70 16L27 841Z" />
<glyph unicode="O" glyph-name="O" horiz-adv-x="567" d="M22 253Q21 379 48 482T119 663T217 787T326 848T428 838T506 751Q533 694 543 619T547 463T517 304T455 163T360 58T234 9Q178 6 138 31T73 95T35 177T22 253ZM234 737Q217 723 196 688T155 605T119 499T93
384T83 271T99 172T145 98T228 61Q268 56 308 87T383 171T442 291T480 426Q490 486 490 543T479 649T447 732T395 782T324 788T234 737Z" />
<glyph unicode="P" glyph-name="P" horiz-adv-x="558" d="M79 13Q79 116 82 209T89 387T93 550T88 703Q83 700 77 693T64 679T50 667T38 661Q30 661 24 667T17 684V687Q17 688 18 690Q27 701 39 725T66 773T94 815T118 834Q128 834 133 829T141 817T148 802T160
789Q194 809 234 823T314 843T393 846T462 827T516 784T545 714Q544 659 513 611T437 524T340 454T244 401T172 365T146 349L133 15Q133 7 126 4T110 0T92 4T79 13ZM146 419Q197 438 252 463T355 520T439 594T489 690Q481 747 445 772T358 798T251 778T146 718V419Z"
/>
<glyph unicode="Q" glyph-name="Q" horiz-adv-x="564" d="M210 855Q215 855 223 854T237 850T247 840T246 825Q264 834 278 839T304 848T329 853T359 854Q398 854 426 831T473 768T504 678T520 571T523 458T515 350T497 258T473 191Q473 190 474 187T482 171T503
132T545 57Q550 46 548 37T539 22T522 13T502 14Q488 38 471 63T431 114Q416 95 398 75T359 38T313 10T262 -1Q218 -2 180 25T111 99T59 209T30 342T26 485T52 627T112 754T210 855ZM297 402Q293 398 292 408T295 430T309 445T340 434Q340 434 346 421T363 388T385
345T407 302T424 269T431 256Q446 296 455 352T467 468T465 586T445 692T406 768T346 799Q276 806 226 781T144 710T96 602T79 473T88 339T120 217T172 122T239 70T318 78T405 162L297 402Z" />
<glyph unicode="R" glyph-name="R" horiz-adv-x="573" d="M28 837Q31 844 40 848T60 852T79 847T89 829L95 774Q114 778 140 790T200 815T278 835T374 837Q456 821 493 799T532 751T511 694T445 632T353 569T254 508T164 452T101 403L570 121Q570 105 557 91T527
78L86 332V0Q74 -10 66 -13T52 -15T43 -10T36 0L28 837ZM95 699Q93 679 92 651T91 592T91 530T91 475Q96 480 122 493T187 527T268 571T351 622T419 673T457 721T449 760T377 788Q347 790 307 786T226 772T150 743T95 699Z" />
<glyph unicode="S" glyph-name="S" horiz-adv-x="607" d="M104 30Q105 36 132 45T201 66T292 95T388 133T472 179T526 236Q526 252 504 261T446 276T364 286T270 297T175 315T93 345T35 394T13 468Q13 511 32 555T84 642T157 721T244 786T333 830T415 846Q425
846 436 846T455 845T469 837T475 817Q475 785 454 771T403 757L360 771Q335 771 304 757T240 718T178 662T124 597T86 530T71 469Q71 435 93 414T151 379T233 360T328 348T422 337T505 321T563 292T585 242Q585 212 561 182T498 125T409 74T307 34T208 8T124 0Q114
0 107 7T104 30Z" />
<glyph unicode="T" glyph-name="T" horiz-adv-x="678" d="M344 769Q305 774 266 771T189 762T111 753T33 751Q22 752 11 756T1 777Q2 788 12 799T33 809L334 827Q335 832 338 841T346 860T358 875T374 881Q387 880 394 873T407 857T416 841T426 833Q587 833 757
839Q760 839 773 839T791 837Q797 820 779 811T726 796T647 789T560 786T478 783T417 777Q409 725 408 665T408 541T414 411T421 281T426 157T423 45Q429 13 418 9T374 9Q366 50 362 108T356 235T354 377T353 522T351 656T344 769Z" />
<glyph unicode="U" glyph-name="U" horiz-adv-x="581" d="M475 296Q464 255 448 204T407 108T347 32T261 1Q209 14 172 52T108 144T66 263T42 397T31 532T28 655T31 751T36 809Q33 825 43 833T66 842T90 838T103 825Q83 678 83 566T94 371T128 230T176 137T229
82T277 57Q311 60 337 92T384 176T418 293T443 427T459 563T468 686T471 779T471 829Q478 841 487 845T505 848T521 842T531 829Q532 803 527 733T520 556T526 311T563 12Q563 2 557 -3T541 -9T522 -11T505 -9L475 296V296Z" />
<glyph unicode="V" glyph-name="V" horiz-adv-x="597" d="M7 823Q4 836 10 843T27 851T48 845T66 823L313 89L527 842Q530 852 539 854T559 855T577 845T584 828L352 13Q323 -2 306 0T277 13L7 823V823Z" />
<glyph unicode="W" glyph-name="W" horiz-adv-x="929" d="M13 822Q13 837 18 843T32 851T50 851T68 846L243 76Q247 80 259 114T288 199T325 314T364 440T401 561T430 658Q437 673 447 680T470 688T493 682T511 664L709 86L859 836Q864 845 872 850T889 856T904
849T916 822L747 22Q745 18 738 12T720 3T697 7T676 34L470 602L284 14Q275 2 261 0T234 0T211 8T200 17L13 822Z" />
<glyph unicode="X" glyph-name="X" horiz-adv-x="509" d="M65 1Q65 1 57 -1T38 -2T22 12T20 52L212 396L-1 803Q-4 826 9 835T43 840L253 463Q259 472 274 499T309 564T351 645T394 729T432 803T460 853Q466 854 474 852T489 846T499 836T500 820L285 400L500
40Q507 25 502 14T487 -3T466 -6T448 8L253 344L69 12L65 1Z" />
<glyph unicode="Y" glyph-name="Y" horiz-adv-x="526" d="M305 337L-4 743Q-4 756 10 763T35 771L328 413Q332 421 342 449T367 516T397 601T427 694T453 780T469 849Q476 856 484 854T500 846T513 832T518 817Q483 712 459 639T419 516T394 434T379 382T369 347T361
316T350 278T331 220T300 130T253 -6Q238 -6 223 -6T207 9L305 337Z" />
<glyph unicode="Z" glyph-name="Z" horiz-adv-x="541" d="M442 794L29 788Q19 791 14 797T7 810T8 825T18 835Q18 836 38 837T93 840T171 843T260 845T350 847T430 848T487 849T512 850L516 803L86 63H518Q527 59 531 50T535 32T527 15T508 8L46 9Q35 9 30 16T22
33T19 54T18 75L442 794Z" />
<glyph unicode="[" glyph-name="bracketleft" horiz-adv-x="449" d="M36 -71Q27 99 22 228T15 454T13 618T14 729T17 797T21 834T24 849T26 854Q21 878 40 892T92 913T167 923T251 925T329 926T388 928Q401 926 406 916T411 896T403 879T388 877Q378 876 354 876T299
875T233 873T167 870T112 863T78 851Q78 850 77 841T74 801T73 711T74 553T82 305T98 -52L391 -32Q396 -32 402 -39T412 -55T415 -74T402 -87L79 -114Q71 -116 64 -112T50 -100T40 -84T36 -71Z" />
<glyph unicode="\" glyph-name="backslash" horiz-adv-x="457" d="M11 817Q6 825 11 835T26 850T45 853T63 834L440 40Q447 25 445 14T435 -4T417 -9T397 5L11 817V817Z" />
<glyph unicode="]" glyph-name="bracketright" horiz-adv-x="440" d="M386 -71Q386 -76 382 -84T372 -99T358 -111T343 -114L20 -87Q9 -84 8 -75T9 -56T19 -39T31 -32L324 -52Q334 157 339 305T347 552T350 711T348 800T346 840T344 851Q334 858 310 862T255 869T189
873T123 874T68 875T34 877Q25 872 19 878T12 895T15 916T34 928Q55 925 92 925T170 926T254 923T330 914T382 892T396 854Q396 853 397 850T401 834T405 798T408 729T409 618T407 455T400 229T386 -71Z" />
<glyph unicode="^" glyph-name="asciicircum" horiz-adv-x="417" d="M127 489Q120 483 110 483T91 485T75 496T70 514L168 697Q169 700 176 705T191 712T206 714T218 703L340 530Q349 519 345 510T330 496T308 489T290 492L201 627L127 489Z" />
<glyph unicode="_" glyph-name="underscore" horiz-adv-x="697" d="M658 69Q673 67 679 59T686 40T681 20T667 6Q518 5 416 4T246 2T143 1T89 0T69 0T65 0Q58 0 53 7T44 24T39 45T40 66L658 69Z" />
<glyph unicode="`" glyph-name="grave" horiz-adv-x="177" d="M118 641Q107 653 93 668T64 701T40 735T28 766Q16 780 23 794T56 810Q79 785 101 758T136 708T147 666T118 641Z" />
<glyph unicode="a" glyph-name="a" horiz-adv-x="440" d="M366 10Q352 31 349 65T345 136T344 210T339 273Q292 170 251 113T175 31T112 8T65 28T34 71T22 120Q15 158 21 211T44 322T86 433T144 528T214 587T291 594Q311 596 324 593T347 578T360 548T366 498Q364
401 371 333T389 213T408 119T420 32Q420 16 412 8T394 -3T376 -2T366 10ZM308 515Q284 547 256 542T201 508T148 431T105 329T79 222T75 127Q89 82 109 73T152 79T199 129T245 202T284 281T313 348L308 515Z" />
<glyph unicode="b" glyph-name="b" horiz-adv-x="472" d="M45 2Q39 90 37 172T33 349T31 562T27 839Q40 839 51 840T71 841T85 835T90 814Q90 773 90 735T91 650T91 545T92 405Q131 456 163 486T225 532T281 551T337 552Q369 552 390 539T423 503T441 451T446
391Q445 369 443 344T432 289T402 227T346 160T254 86T118 8Q92 1 78 -1T56 -3T47 -1T45 2ZM95 66Q100 70 123 81T178 110T246 154T313 214T367 293T393 391Q393 406 389 424T375 457T351 483T316 494Q275 494 242 474T181 422T134 355T99 286L95 66Z" />
<glyph unicode="c" glyph-name="c" horiz-adv-x="420" d="M29 256Q32 297 36 339T48 420T69 495T102 556T152 597T223 611Q251 611 266 588T287 531T294 463T295 406Q280 400 270 406T253 425T241 457T233 493T225 527T214 553Q196 561 179 548T148 511T123 452T103
384T90 317T85 263Q86 233 91 199T107 134T136 83T182 55Q220 55 246 67T290 99T318 143T334 191T343 237T351 273Q377 280 391 272T406 253Q406 207 390 162T345 80T273 22T178 0Q133 0 104 28T59 97T36 181T29 256Z" />
<glyph unicode="d" glyph-name="d" horiz-adv-x="397" d="M315 192Q304 167 282 134T231 72T168 23T96 2Q80 2 71 6T54 17T40 36T25 61Q16 111 16 172T25 295T57 413T113 510T196 567T309 570Q315 633 310 696T302 829Q302 839 311 843T331 849T353 850T367 846Q366
756 366 681T365 540T365 411T365 284T366 147T367 -11Q372 -27 365 -38T346 -52T324 -49T309 -26L315 192ZM267 515Q229 521 196 495T136 423T93 321T72 212T76 117T111 59Q136 59 160 76T205 121T245 181T278 247T299 305T307 346Q307 357 307 385T304 442T292
493T267 515Z" />
<glyph unicode="e" glyph-name="e" horiz-adv-x="472" d="M60 267Q53 261 36 262T4 270T-16 286T-4 311Q3 317 11 319T28 324T42 332T49 348Q50 393 56 440T81 524T132 583T221 600Q241 600 266 591T314 566T354 529T375 482Q382 472 367 457T325 424T264 386T199
350T143 320T112 302Q118 263 125 220T145 141T177 82T227 58Q271 55 302 71T355 113T388 170T407 229T416 276T421 298Q432 304 446 299T462 269Q463 230 445 180T396 88T321 21T228 3Q177 4 147 32T100 101T74 187T60 267ZM322 482Q290 526 257 538T189 545Q168
542 152 526T126 484T112 427T111 362L322 482Z" />
<glyph unicode="f" glyph-name="f" horiz-adv-x="374" d="M17 388Q-3 387 -11 392T-20 404T-17 420T-8 436L113 490Q107 559 107 628T118 751T157 837T235 863Q259 863 280 848T316 809T341 759T351 710Q350 700 344 695T331 688T317 687T305 693Q301 729 293
752T274 788T252 807T233 812Q201 811 186 789T164 728T159 633T164 509L380 587Q391 580 395 570T385 538L168 449L198 14Q196 6 188 1T170 -6T152 -4T141 14L118 431L17 388Z" />
<glyph unicode="g" glyph-name="g" horiz-adv-x="460" d="M85 -259Q159 -255 211 -228T297 -155T348 -50T370 80Q373 125 373 159T373 222T369 277T365 331T362 391T360 466Q312 325 270 239T192 109T126 56T74 59T38 100T19 159Q21 209 38 269T83 388T148 497T228
578T316 612T408 581Q409 582 410 559T414 497T419 407T425 299T430 187T436 83Q437 -10 408 -88T331 -220T220 -299T91 -311Q88 -311 82 -307T72 -296T70 -280T85 -259ZM72 158Q83 122 101 122T141 148T189 218T239 314T289 421T334 522Q334 534 329 544T304 551Q273
545 244 521T188 462T141 386T104 303T81 223T72 158Z" />
<glyph unicode="h" glyph-name="h" horiz-adv-x="506" d="M423 12Q426 46 428 98T430 209T426 327T417 435T400 514T374 549Q342 559 313 544T257 495T209 415T169 317T136 214T112 119T99 46T95 6Q88 6 78 4T57 0T40 0T32 13L15 836Q15 845 23 847T41 849T60
844T72 836L77 204Q83 221 92 259T117 344T154 440T207 529T282 592T383 610Q401 600 415 585T441 542T461 472T476 367T485 216T490 10Q487 3 478 -3T459 -12T438 -9T423 12Z" />
<glyph unicode="i" glyph-name="i" horiz-adv-x="127" d="M34 614Q40 617 48 619T63 621T78 618T89 607Q89 542 90 467T94 314T99 161T103 22Q104 7 95 -1T76 -9T56 -2T47 22L34 614ZM22 818Q22 831 31 835T51 840Q73 840 78 826T84 792Q78 780 68 775T48 773T30
787T22 818Z" />
<glyph unicode="j" glyph-name="j" horiz-adv-x="109" d="M-212 -229Q-218 -222 -216 -210T-208 -188T-193 -176T-173 -187Q-145 -225 -113 -242T-53 -252T-2 -207T28 -98Q34 -28 34 54T32 224T29 399T30 569Q33 576 41 580T58 585T75 582T87 569Q85 478 86 397T88
235T90 73T83 -104Q84 -137 73 -172T42 -236T-5 -284T-66 -307T-136 -293T-212 -229ZM49 690Q31 693 26 702T25 722T40 741T64 748Q75 748 77 737T79 720Q79 690 49 690Z" />
<glyph unicode="k" glyph-name="k" horiz-adv-x="429" d="M24 833Q47 856 60 852T81 825L83 268L342 618Q359 618 370 613T382 587L118 223L412 77Q415 73 419 64T424 45T417 27T391 17L89 175V12Q82 -5 74 -10T58 -14T43 -6T29 5L24 833Z" />
<glyph unicode="l" glyph-name="l" horiz-adv-x="127" d="M36 834Q42 838 48 842T62 848T74 847T84 834L90 9Q85 -1 77 -4T61 -7T47 0T38 12L36 834Z" />
<glyph unicode="m" glyph-name="m" horiz-adv-x="638" d="M36 9Q34 29 33 73T30 175T27 298T24 423T17 536T6 619Q6 644 21 647T57 647Q66 572 69 511T74 403T77 321T84 265Q96 358 109 423T136 529T168 590T205 613Q223 615 239 585T268 507T292 406T309 305Q343
406 365 465T405 554T436 593T469 600Q493 599 507 580T530 528T541 453T547 363T554 268T568 175T593 94T636 32Q627 14 615 2T590 -3Q561 16 544 61T515 165T499 285T490 400T482 486T469 521Q440 525 410 430T330 148Q325 135 318 130T304 124T290 128T278 140Q264
216 255 286T237 410T221 497T202 532Q193 534 185 513T168 454T152 365T134 254T115 133T93 9Q89 1 81 -3T65 -8T48 -4T36 9Z" />
<glyph unicode="n" glyph-name="n" horiz-adv-x="466" d="M20 596Q21 606 28 612T44 619T62 618T77 607L74 207Q93 279 108 349T147 477T205 572T298 615Q329 618 352 597T391 538T419 452T436 349T446 241T450 141T451 60T449 9Q442 -8 425 -13T393 1Q392 20
392 66T391 173T385 298T370 419T341 512T293 555Q268 559 245 528T200 446T160 331T127 205T102 91T89 11Q86 3 77 -2T58 -7T37 -4T21 11L20 596Z" />
<glyph unicode="o" glyph-name="o" horiz-adv-x="391" d="M145 4Q105 9 80 36T39 102T20 187T17 279Q20 348 42 411T98 520T172 592T252 612Q293 606 318 573T358 492T375 388T374 279Q369 220 348 169T296 81T225 24T145 4ZM242 555Q209 559 181 535T130 470T92
378T72 276Q68 240 69 202T78 133T105 83T155 63Q180 62 207 80T259 128T301 198T326 278Q333 321 330 366T315 451T285 518T242 555Z" />
<glyph unicode="p" glyph-name="p" horiz-adv-x="472" d="M20 -296Q29 -172 33 -90T38 50T39 154T36 249T32 365T27 531Q29 542 35 550T48 562T65 562T83 544L80 414Q114 458 156 494T242 553T327 586T398 588T445 553T457 475Q453 431 430 381T374 281T300 185T222
104T152 48T100 26Q99 12 97 -13T93 -71T89 -139T84 -206T80 -264T78 -303Q73 -308 66 -312T51 -317T35 -314T20 -296ZM95 83Q128 96 174 135T265 230T348 352T400 483Q394 515 373 525T324 530T261 505T196 459T137 400T95 337V83Z" />
<glyph unicode="q" glyph-name="q" horiz-adv-x="431" d="M351 282Q348 261 335 228T300 160T250 91T189 38T122 13T52 32Q22 62 21 115T36 231T85 359T156 477T236 566T312 604Q334 606 351 599T382 577T402 544T410 503L399 -297Q397 -304 391 -310T375 -317T357
-316T339 -302Q337 -299 337 -274T339 -210T343 -122T348 -21T352 81T355 174T355 245T351 282ZM339 538Q316 552 282 530T213 463T145 361T92 247T68 144T86 75Q113 63 141 73T196 110T247 173T292 253T326 340T348 424T353 493T339 538Z" />
<glyph unicode="r" glyph-name="r" horiz-adv-x="414" d="M31 19Q28 157 26 253T23 412T22 510T21 563T20 583T20 588Q21 597 29 603T46 610T65 608T78 595L81 365Q96 434 129 480T205 552T292 587T377 588Q390 585 396 577T403 560T399 542T384 529Q339 532 300
522T228 491T171 442T132 383Q111 338 104 289T95 190T94 97T95 20Q94 9 86 4T67 -2T46 2T31 19Z" />
<glyph unicode="s" glyph-name="s" horiz-adv-x="414" d="M46 72Q65 57 92 56T150 63T212 88T270 125T316 167T343 210T342 248T306 275Q255 263 204 256T113 256T47 289T24 369Q27 421 52 466T117 544T205 593T304 607Q314 606 322 606T338 602T348 593T351 575Q350
560 340 551T313 544Q254 556 207 539T129 492T85 423T81 354Q100 318 130 309T195 302T266 312T331 318T379 296T400 224Q399 191 378 161T325 104T252 56T173 20T99 1T43 2Q20 22 19 41T46 72Z" />
<glyph unicode="t" glyph-name="t" horiz-adv-x="236" d="M72 475L-20 444Q-31 447 -38 455T-49 472T-51 489T-42 501L72 544L70 827Q73 840 83 846T103 852T123 845T135 828Q133 797 132 763T131 694T131 627T135 567L290 630Q304 634 312 628T322 611T321 590T307
576L135 498Q135 488 136 451T138 362T140 253T141 144T142 56T143 8Q141 -25 124 -25T87 -9L72 475Z" />
<glyph unicode="u" glyph-name="u" horiz-adv-x="411" d="M313 590Q314 596 319 603T333 614T352 612T374 587Q370 510 365 434T359 283T369 135T404 -7Q405 -14 399 -19T383 -27T363 -29T347 -20L312 147Q308 134 290 109T247 59T196 14T151 -7Q104 -10 77 26T38
120T23 251T23 391T28 514T28 595Q31 603 38 607T55 611T72 607T85 595Q87 561 86 510T84 402T84 286T92 181T110 102T146 66Q163 66 180 77T214 105T246 144T272 186T290 224T298 250Q299 262 301 288T304 348T307 420T310 491T312 551T313 590Z" />
<glyph unicode="v" glyph-name="v" horiz-adv-x="429" d="M11 580Q12 591 18 597T32 606T49 606T66 598L219 115Q269 264 296 354T335 494T350 561T354 581Q361 603 372 608T394 607T410 589T414 564L251 5Q248 -1 239 -3T221 -6T203 -2T191 7L11 580Z" />
<glyph unicode="w" glyph-name="w" horiz-adv-x="592" d="M93 8Q90 25 84 69T69 172T51 295T32 418T16 520T6 582Q9 600 17 608T34 617T52 611T66 595L127 141Q130 152 139 184T159 258T184 349T210 439T231 514T243 557Q250 566 260 572T280 580T301 577T318
557L460 95L518 592Q522 602 529 609T545 616T562 605T578 569Q577 563 574 538T565 475T554 392T542 298T530 204T520 121T512 59T508 27Q501 11 488 4T461 -3T437 5T423 24L282 486Q264 402 246 333T211 205T180 100T155 14Q149 3 140 -1T122 -6T105 -2T93 8Z"
/>
<glyph unicode="x" glyph-name="x" horiz-adv-x="406" d="M83 12Q65 3 51 3T29 9T22 27T35 52L165 301L14 569Q15 576 20 584T33 598T49 606T65 606L209 361L323 602Q328 605 337 605T356 603T372 595T380 580L250 296L403 47Q406 44 404 35T394 16T376 3T351
6L206 234L83 12Z" />
<glyph unicode="y" glyph-name="y" horiz-adv-x="426" d="M249 -1L28 502Q20 514 24 526T38 546T61 552T86 535L270 95L357 592Q363 595 371 597T388 598T404 592T413 576Q408 536 398 474T376 347T353 222T335 127Q331 106 325 71T312 -7T296 -94T280 -182T265
-258T252 -314Q250 -326 240 -332T218 -337T196 -329T184 -309L249 -1Z" />
<glyph unicode="z" glyph-name="z" horiz-adv-x="466" d="M23 15Q21 24 32 47T64 103T112 176T170 258T229 343T284 422T327 488T351 535L65 537Q61 535 51 540T32 555T22 576T33 595Q70 594 119 593T221 593T325 597T415 608Q433 607 440 599T444 570L115 73L430
79Q442 79 447 74T451 59T443 37T426 13L23 15Z" />
<glyph unicode="{" glyph-name="braceleft" horiz-adv-x="397" d="M344 -48Q358 -47 361 -54T361 -70T349 -86T332 -95Q282 -103 231 -88T137 -43T65 30T30 122T47 223T132 323Q147 335 148 355T141 395T116 429T81 444Q51 459 48 475T56 504T90 524T133 528Q152
539 163 548T177 567T173 593T146 634Q110 679 103 727T109 817T154 894T226 946T314 965T405 938Q405 922 395 907T371 889Q346 916 313 920T247 911T189 870T151 807T149 733T198 655Q243 612 247 583T223 536Q223 536 210 528T181 509T151 491T137 482Q188 448
204 421T216 369T191 320T147 271T104 216T80 152Q81 108 96 76T136 21T189 -16T248 -37T302 -47T344 -48Z" />
<glyph unicode="|" glyph-name="bar" horiz-adv-x="152" d="M52 883Q58 887 66 891T82 897T98 896T109 883L112 -9Q83 -26 69 -22T55 -4L52 883Z" />
<glyph unicode="}" glyph-name="braceright" horiz-adv-x="397" d="M75 -55Q91 -56 116 -54T171 -45T229 -23T283 13T322 68T339 145Q335 180 315 209T272 263T229 313T203 361T214 413T282 475Q282 475 269 483T239 502T209 520T196 529Q167 546 171 575T221
648Q260 686 269 725T268 800T231 862T172 903T107 913T48 882Q34 885 24 900T14 931Q58 957 105 957T192 940T264 887T310 811T317 720T273 627Q253 602 246 587T241 561T255 541T286 521Q307 524 329 517T363 497T372 468T338 437Q319 437 303 423T278 388T270
348T287 316Q349 268 372 216T390 115T355 24T282 -49T188 -95T87 -102Q78 -101 70 -94T59 -77T58 -61T75 -55Z" />
<glyph unicode="~" glyph-name="asciitilde" horiz-adv-x="400" d="M342 541Q358 546 371 546T391 527Q386 497 368 466T325 419T267 407T201 454Q184 479 162 490T120 498T87 474T75 418Q64 414 57 415T46 421T40 433T35 449Q35 482 46 504T76 537T116 551T160
549T200 530T227 498Q247 467 264 459T295 456T319 475T335 504T343 530T342 541Z" />
<glyph unicode="&#xa0;" glyph-name="space" horiz-adv-x="512" />
<glyph unicode="&#xa1;" glyph-name="exclamdown" horiz-adv-x="157" d="M214 711Q214 696 223 690T243 685T264 694T274 714Q274 727 264 734T243 741T222 733T214 711ZM215 107Q222 97 230 95T245 94T256 99T262 105Q262 152 261 213T258 339T258 465T265 573Q261
582 253 585T237 588T221 582T212 570L215 107Z" />
<glyph unicode="&#xa2;" glyph-name="cent" horiz-adv-x="449" d="M202 -65Q204 -50 205 -33T209 2Q201 0 194 0T178 0Q133 0 104 28T59 97T36 181T29 256Q33 313 39 380T60 508T105 613T184 668Q177 738 167 781Q177 788 184 792T202 796Q210 796 215 793T224
781Q227 749 230 719T235 661Q257 650 283 632T327 592T351 548T337 505Q323 505 310 515T283 539T258 569T237 595Q240 536 242 477T247 355T250 223T253 78V67Q284 81 299 106T325 162T345 224T376 281Q389 284 395 281T403 270T406 255T406 242Q406 206 396
171T367 105T321 52T259 15Q262 -12 264 -35T267 -59Q238 -76 220 -77T202 -65ZM182 55Q190 55 197 55T212 57Q214 118 214 189T210 333T202 477T191 610Q174 603 160 579T133 522T112 451T97 377T88 310T85 263Q82 234 84 200T98 136T129 84T182 55Z" />
<glyph unicode="&#xa3;" glyph-name="sterling" horiz-adv-x="613" d="M14 426Q14 428 15 436T17 447Q34 449 72 454T158 466Q174 533 204 586T273 678T357 736T448 757Q475 757 494 747T527 720T546 681T552 634Q532 634 520 644T498 667T477 689T449 700Q417
700 382 686T315 642T257 571T217 473Q259 478 294 482T344 489Q346 489 355 489T374 490T393 491T404 492Q404 479 386 467T340 445T275 426T203 410L181 263Q184 226 181 186T176 115T178 66T202 56Q213 60 228 72T266 98T315 122T377 136T452 130T543 94Q570
92 579 82T583 60T556 38T501 26Q493 44 474 58T418 73T327 59T194 0Q184 -9 173 -14T152 -14T133 9T120 64T117 159T128 304Q129 317 130 327T134 348T138 371T144 400Q112 395 88 393T52 390Q14 390 14 426Z" />
<glyph unicode="&#xa4;" glyph-name="currency" horiz-adv-x="569" d="M93 99Q73 90 61 95T45 114T43 143T60 172L161 321Q146 380 143 431T162 536Q145 571 135 604T127 664Q138 692 165 681Q192 676 199 656T210 607Q241 637 291 649Q338 640 364 616Q381 653
395 687T418 745Q423 748 434 747T456 741T475 729T482 714Q471 667 449 627T400 548Q408 517 409 482T415 412Q415 379 413 338T389 249L424 166Q425 165 425 158T422 146Q420 140 417 134T408 124T395 118T379 123Q372 138 363 159T343 207Q329 195 312 188T271
181Q225 161 187 244Q170 218 148 183T93 99ZM200 449Q201 373 209 330T231 269T260 251T293 266T323 300T348 342T361 378T360 397Q360 429 360 456T354 506T336 546T299 574Q279 574 261 563T229 533T207 495T199 456V452Q199 450 200 449Z" />
<glyph unicode="&#xa5;" glyph-name="yen" horiz-adv-x="544" d="M104 869Q104 870 104 872T105 876Q108 884 113 887T124 890T136 889T148 885Q166 879 179 844T205 763T234 668T273 587Q312 680 338 739T381 831T407 877T420 893T424 893T426 892Q433 911 435
915T450 915Q464 910 476 902T484 876Q463 832 444 799T408 739T377 689T350 639T328 580T311 505Q311 505 311 498T310 479T309 455T309 428Q344 433 371 435T411 440Q413 440 422 440T441 441T460 442T471 443Q486 423 478 408T445 381T385 361T309 348V288Q334
290 358 290T408 288Q439 284 448 277T454 262T436 247T408 235Q391 240 366 240T309 237Q309 194 309 155T308 85T306 38T302 20L242 13L247 229Q214 224 182 220T123 214T79 215T55 230Q55 234 60 245T69 259Q123 262 166 268T248 281L249 343Q212 340 178 340T119
341Q81 341 81 377Q81 379 82 387T84 398Q93 399 110 401T149 407T198 413T251 420L253 510Q243 528 228 558T197 625T165 699T136 772T114 832T104 869Z" />
<glyph unicode="&#xa6;" glyph-name="brokenbar" horiz-adv-x="157" d="M59 592Q56 643 52 697T44 801T34 891T24 953Q34 960 41 964T59 968Q67 968 72 965T81 953Q85 915 88 869T96 775T103 681T108 595L59 592ZM112 522Q116 450 118 398T121 297T122 196T125
74Q125 64 125 47T123 29Q108 21 96 21T73 28T58 42T52 57Q59 104 63 153T68 257T69 378T63 522H112Z" />
<glyph unicode="&#xa7;" glyph-name="section" horiz-adv-x="417" d="M117 17Q117 16 140 30T197 68T264 120T321 174T345 218T315 242Q275 248 248 242T198 226T157 209T113 203Q64 203 46 233T28 317Q28 362 44 402T90 475Q49 480 34 510T19 589Q19 641 42 688T102
769T186 824T284 845Q304 845 318 842T333 816Q333 801 320 787T290 773Q289 773 285 775T276 780T267 785T261 787Q225 796 192 776T133 723T91 650T75 579Q75 566 80 559T94 549T112 545T134 544Q157 544 179 551T224 566T268 582T315 589Q327 589 340 583T364
565T383 538T392 505Q399 490 389 465T357 412T308 354T249 300Q267 307 285 312T324 317Q336 317 349 311T373 293T392 266T401 233Q408 218 398 193T366 138T315 80T255 26T196 -13T147 -27Q124 -27 121 -14T117 17ZM84 307Q84 281 103 280T149 292T209 334T267
390T309 448T321 494T287 515T193 499Q170 484 150 461T116 411T93 357T84 307Z" />
<glyph unicode="&#xa8;" glyph-name="dieresis" horiz-adv-x="349" d="M46 679Q41 695 54 706T84 719T117 713T132 679Q132 673 128 665T118 649T104 637T89 636Q82 631 74 633T58 642T48 658T46 679ZM184 682Q187 702 202 713T234 724T265 713T279 679Q279 673
275 665T265 649T251 637T236 636Q229 631 219 634T201 644T187 661T184 682Z" />
<glyph unicode="&#xa9;" glyph-name="copyright" horiz-adv-x="552" d="M17 238Q26 367 55 464T125 627T216 727T315 766T410 743T488 660Q525 591 533 516T528 367T479 228T396 112T287 31T161 -1Q120 -1 93 24T48 87T24 165T17 238ZM153 352Q157 388 162 430T182
509T226 570T305 594Q328 594 340 580T357 547T363 508T364 475Q342 470 328 480T305 505T294 531T293 544Q269 544 254 521T231 467T219 405T216 358Q214 341 214 321T218 283T238 252T279 235Q320 247 340 264T374 300T399 336T437 367Q450 369 455 365T461 356Q470
464 459 536T422 648T362 698T288 693T211 638T143 541T95 408T76 244Q76 217 78 187T91 133T121 92T177 74Q219 73 255 87T323 126T380 185T425 259Q413 247 397 233T362 208T320 189T272 181Q235 181 212 201T175 248T158 305T153 352Z" />
<glyph unicode="&#xaa;" glyph-name="ordfeminine" horiz-adv-x="259" d="M218 330Q210 340 208 356T206 390T205 425T202 456Q174 406 150 379T104 340T67 329T39 338T21 359T13 382Q9 401 13 426T26 479T51 532T86 578T128 606T174 609Q185 610 193 609T207
602T214 587T218 563Q217 517 221 485T232 427T243 382T250 340Q250 333 246 329T235 324T224 324T218 330ZM184 571Q169 587 153 585T120 568T88 531T63 483T47 431T45 386Q53 364 65 360T90 363T118 386T146 422T169 460T187 492L184 571Z" />
<glyph unicode="&#xab;" glyph-name="guillemotleft" horiz-adv-x="742" d="M57 407Q58 409 58 410L395 690Q400 696 404 703T412 715T422 722T438 721Q453 716 455 703T452 676Q451 675 451 672Q451 671 450 670Q413 619 377 587T302 527T221 470T129 397L137
379Q138 377 161 362T215 328T280 288T335 256Q339 253 352 248T380 237T408 226T427 220Q430 208 431 200T428 182Q423 169 410 159T383 145Q367 160 334 180T263 223T184 270T113 317T65 363T55 403L57 407ZM269 420Q270 422 270 423L607 703Q612 709 616 716T624
728T634 735T650 734Q665 729 667 716T664 689Q663 688 663 685Q663 684 662 683Q625 632 589 600T514 540T433 483T341 410L349 392Q350 390 373 375T427 341T492 301T547 269Q551 266 564 261T592 250T620 239T639 233Q642 221 643 213T640 195Q635 182 622 172T595
158Q578 173 546 193T475 236T396 283T325 330T277 376T267 416L269 420Z" />
<glyph unicode="&#xac;" glyph-name="logicalnot" horiz-adv-x="613" d="M72 399Q72 403 78 414T87 428Q136 431 196 435T317 443T437 450T539 453Q545 453 548 448T553 435T555 422T555 413Q555 355 563 296T572 165Q572 159 566 156T553 151T540 150T531 150Q527
150 521 151T513 152L509 392L157 385Q155 384 143 384T125 383Q125 383 117 383T98 383T80 387T72 399Z" />
<glyph unicode="&#xad;" glyph-name="hyphen" horiz-adv-x="452" d="M66 265Q58 260 50 268T38 290T40 318T66 337L411 348Q421 348 426 341T432 322T431 298T423 279L66 265V265Z" />
<glyph unicode="&#xae;" glyph-name="registered" horiz-adv-x="436" d="M17 238Q26 367 53 463T120 622T207 718T302 753T393 727T470 643Q513 570 528 494T534 345T493 209T414 98T301 24T161 -1Q120 -1 93 24T48 87T24 165T17 238ZM164 574Q164 574 170 572T184
567T198 562T205 559Q207 559 212 558T217 552L213 523Q222 525 235 532T265 546T303 558T348 561Q399 547 415 528T426 487T398 445T348 405T294 372T255 351Q268 345 289 333T334 307T377 282T408 267Q427 254 434 243Q457 298 466 359T469 476T442 579T383 650T291
673T164 630Q149 585 134 537T106 439T85 340T76 244Q76 217 78 189T91 138T122 98T177 74Q217 66 252 73T318 98T372 143T415 204Q396 206 368 229Q359 232 336 246T287 276T239 307T207 323V176L160 181L164 574ZM217 478Q216 470 215 459T213 434T211 409T210
386Q213 388 233 398T279 421T331 449T370 479T380 504T343 521Q329 522 311 520T275 512T242 498T217 478Z" />
<glyph unicode="&#xaf;" glyph-name="overscore" horiz-adv-x="455" d="M66 636Q58 631 50 638T38 658T40 684T66 702L411 713Q421 713 426 706T432 689T431 668T423 650L66 636V636Z" />
<glyph unicode="&#xb0;" glyph-name="degree" horiz-adv-x="229" d="M32 513Q26 532 30 550T48 584T81 608T126 617Q158 617 172 605T197 575Q205 543 205 517T194 472T157 446T88 439Q71 439 61 447T44 468T35 492T32 513ZM71 514Q71 503 78 497T94 479Q113 477
124 476T141 478T153 491T166 517Q168 543 153 557T120 571T86 557T71 514Z" />
<glyph unicode="&#xb1;" glyph-name="plusminus" horiz-adv-x="531" d="M54 96Q54 100 60 111T69 125Q110 127 146 132T217 145L190 299Q187 299 183 300Q180 300 178 300T173 301Q141 301 108 291T48 270Q40 276 29 285T18 306Q18 318 31 324T65 334T108 338T151
343T184 352T198 370V611Q198 617 205 620T221 626T237 629T247 630V384Q278 394 298 400T337 411T377 417T433 419Q433 409 430 394T414 375Q393 370 366 365T318 355Q315 354 309 353T295 349T283 344T275 341Q272 339 267 334T261 327V157V153Q298 161 335 166T413
171Q419 171 422 166T427 153T429 140T429 131Q429 127 428 121T427 113Q333 107 273 102T176 91T125 83T107 80Q107 80 99 80T80 80T62 84T54 96Z" />
<glyph unicode="&#xb2;" glyph-name="twosuperior" horiz-adv-x="362" d="M18 308Q31 329 48 358T83 421T118 492T150 563T172 629T182 685Q178 707 172 718T152 726T114 702T51 640Q45 643 40 648T34 659Q34 660 34 661T35 663Q48 677 63 693T98 725T137 750T181
760Q198 752 205 733T211 687T201 628T180 561T153 492T122 427T93 371T68 329L242 361Q249 361 255 354T262 334L38 291Q29 291 24 293T18 308Z" />
<glyph unicode="&#xb3;" glyph-name="threesuperior" horiz-adv-x="319" d="M42 365Q46 367 60 374T95 392T139 419T182 453T217 493T234 539Q237 555 233 570T220 596T200 615T175 624Q162 626 148 622T121 610T95 595T71 585T50 583T33 598L160 722Q182 746
184 760T176 781T146 788T105 782T63 766T33 741Q33 741 33 739T32 735T32 732T32 730Q23 730 18 737T13 752Q17 766 30 777T61 797T99 812T140 821T175 823T198 818Q214 809 217 796T216 767T200 734T176 700T148 669T124 643Q153 655 180 652T229 634T261 595T267
540Q264 515 251 493T220 452T181 417T137 387T94 363T56 344Q48 343 43 347T42 365Z" />
<glyph unicode="&#xb4;" glyph-name="acute" horiz-adv-x="177" d="M55 668Q25 674 22 691T33 729T73 776T125 824Q143 824 150 814T157 791V783Q155 770 144 755T117 724T84 694T55 668Z" />
<glyph unicode="&#xb5;" glyph-name="mu" horiz-adv-x="441" d="M311 187Q300 161 280 137T236 95T187 66T141 54T107 61T91 93Q88 93 86 76T81 33T78 -22T77 -76T77 -116T77 -128L30 -145L37 595Q41 606 48 608T66 610Q74 610 81 608T94 595Q94 582 95 554T98
489T102 414T106 338T109 274T112 233Q113 225 115 207T120 170T130 135T147 118Q163 118 180 132T214 169T245 218T271 270T289 315T297 344Q299 362 301 397T304 473T306 548T307 602L368 599Q374 506 375 437T377 310T380 201T390 95Q388 93 379 92T359 90T339
89T327 88L311 187Z" />
<glyph unicode="&#xb6;" glyph-name="paragraph" horiz-adv-x="509" d="M417 33Q409 97 405 150T398 249T396 340T395 431T395 530T393 646Q384 639 378 638T367 637T354 632T337 613Q339 559 343 489T352 346T360 202T363 78Q363 69 363 58T359 36T349 19T326
12Q315 12 311 21T305 42Q306 84 303 148T294 283T284 420T276 535Q271 515 251 499T202 471T143 454T86 452T43 471T26 513Q26 558 34 591T61 647T112 687T192 713Q248 718 283 721T344 726T389 725T436 716Q436 693 438 644T442 533T448 403T453 273T457 162T459
90Q459 88 459 75T460 56Q460 48 460 42T459 30T450 22T432 19Q428 19 423 24T417 33Z" />
<glyph unicode="&#xb7;" glyph-name="middot" horiz-adv-x="147" d="M22 295Q38 312 49 318T78 324Q108 324 108 295Q108 289 104 281T94 265T80 253T65 252Q58 247 50 249T34 258T24 274T22 295Z" />
<glyph unicode="&#xb8;" glyph-name="cedilla" horiz-adv-x="313" d="M88 -208Q88 -210 108 -212T154 -212T200 -200T224 -173Q225 -166 225 -158T221 -140T202 -121T161 -98Q137 -98 120 -95T93 -82T78 -56T73 -13Q77 11 84 20T100 30T115 22T127 5T133 -12T129
-23Q132 -39 150 -44T193 -56T241 -76T282 -121Q301 -160 289 -188T247 -235T180 -262T111 -268Q99 -268 94 -262T88 -246T87 -227T88 -208Z" />
<glyph unicode="&#xb9;" glyph-name="onesuperior" horiz-adv-x="128" d="M41 773Q41 778 47 779T61 780T76 778T87 774Q91 666 91 559T95 341Q100 336 96 331T83 322T65 320T49 327L41 773Z" />
<glyph unicode="&#xba;" glyph-name="ordmasculine" horiz-adv-x="242" d="M117 313Q85 316 65 329T32 362T17 405T15 452Q17 486 35 518T79 573T138 609T202 619Q235 616 255 600T286 559T300 507T299 452Q295 422 279 396T237 352T181 323T117 313ZM194 591Q168
593 145 581T104 548T74 501T58 450Q55 432 56 413T63 378T85 353T125 343Q145 342 166 351T207 375T241 410T261 451Q267 473 264 496T252 538T228 572T194 591Z" />
<glyph unicode="&#xbb;" glyph-name="guillemotright" horiz-adv-x="712" d="M52 164Q56 187 85 216T155 277T241 342T321 406T374 464T379 512L68 680Q64 683 59 693T53 709Q53 713 56 719T63 731T73 743T82 751L422 555Q449 537 446 507T418 439T356 362T274
285T188 215T115 161T70 132T68 136Q56 136 54 147T52 164ZM260 178Q264 201 293 230T363 291T449 356T529 420T582 478T587 526L276 694Q272 697 267 707T261 723Q261 727 264 733T271 745T281 757T290 765L630 569Q657 551 654 521T626 453T564 376T482 299T396
229T323 175T278 146T276 150Q264 150 262 161T260 178Z" />
<glyph unicode="&#xbc;" glyph-name="onequarter" horiz-adv-x="772" d="M41 782Q41 788 47 789T61 791T76 788T87 784Q91 659 91 535T95 284Q100 278 96 272T83 263T65 260T49 268L41 782ZM318 1070Q336 1084 353 1083T372 1057L114 222Q104 217 94 216T74 217T59
226T53 242L318 1070V1070ZM241 167Q284 215 324 258T404 345T481 433T554 528Q557 533 565 536T582 540T598 538T606 528L604 262Q639 262 672 268T740 275Q749 253 738 246T705 236T655 232T604 224L606 -33Q606 -40 599 -42T583 -45T565 -43T552 -36V217L241
167ZM345 213L551 250L567 464L345 213Z" />
<glyph unicode="&#xbd;" glyph-name="onehalf" horiz-adv-x="789" d="M77 815Q77 821 82 822T95 824T108 821T117 817Q121 687 121 559T124 298Q129 292 125 286T114 276T98 273T84 281L77 815ZM374 830Q392 844 409 843T428 817L170 -18Q160 -23 150 -24T130
-23T115 -14T109 2L374 830V830ZM336 41Q353 68 375 106T422 188T469 280T511 373T541 459T554 531Q549 560 541 574T514 584T464 552T380 472Q373 477 366 483T358 498Q358 498 358 500T359 503Q376 520 397 542T442 583T495 616T553 629Q575 618 584 594T591
534T579 457T552 370T515 280T475 195T436 122T403 68L633 109Q642 109 650 100T659 75L363 18Q352 18 344 21T336 41Z" />
<glyph unicode="&#xbe;" glyph-name="threequarters" horiz-adv-x="988" d="M84 252Q89 254 109 263T156 287T215 322T274 367T320 419T344 479Q347 499 342 519T325 554T297 579T264 590Q246 593 228 587T191 572T156 552T123 538T94 537T72 557L243 718Q273
749 275 768T264 796T224 805T168 796T113 775T72 743Q72 743 72 741T71 736T71 731T70 728Q59 729 52 738T46 757Q50 775 68 790T110 816T162 835T216 847T263 850T295 843Q316 832 320 815T319 777T297 733T264 689T228 649T195 615Q233 630 270 626T336 603T380
552T388 480Q383 447 366 418T325 365T271 319T212 280T154 248T103 224Q92 223 85 229T84 252ZM621 830Q639 844 656 843T675 817L417 -18Q407 -23 397 -24T377 -23T362 -14T356 2L621 830V830ZM557 202Q590 258 621 308T683 407T743 509T801 619Q803 625 809
628T822 632T835 630T841 619L840 313Q867 313 892 320T945 327Q953 302 944 293T918 282T880 278T840 269L841 -28Q841 -35 836 -38T823 -42T809 -39T799 -32V261L557 202ZM638 256L798 299L811 545L638 256Z" />
<glyph unicode="&#xbf;" glyph-name="questiondown" horiz-adv-x="617" d="M387 986Q387 968 379 963T357 957Q335 957 321 970T306 1000Q306 1016 319 1021T349 1027Q355 1027 362 1022T374 1011T383 998T387 986ZM453 557Q453 514 429 479T370 413T292 352T215
290T155 223T130 144Q130 119 145 107T183 91T232 87T280 88Q320 88 356 101T426 130T491 159T558 172Q574 172 585 169T596 143Q596 131 575 118T520 93T447 70T367 52T297 39T251 34Q223 34 190 38T130 52T85 80T67 129Q67 183 99 236T177 336T272 424T357 497Q372
503 376 516T376 544T358 572T324 592T278 597T219 578L196 619Q221 636 256 642T324 648Q348 648 371 642T412 623T442 595T453 557Z" />
<glyph unicode="&#xc0;" glyph-name="Agrave" horiz-adv-x="641" d="M16 226Q23 249 38 302T79 453T140 704T226 1078Q232 1088 243 1091T265 1094T283 1087T290 1074L487 595L589 626Q602 626 611 619T621 602T614 581T586 562Q578 559 565 556T539 549T517 543T508
537L619 241Q617 236 615 229T607 217T589 213T555 228L440 522Q419 516 388 511T323 500T255 487T191 468T142 442T118 404Q116 390 111 358T100 294Q94 256 86 212Q68 194 54 200T16 226ZM267 968L161 523Q178 529 208 536T273 551T343 567T408 584L267 968ZM280
870Q269 882 255 897T226 930T202 964T190 995Q178 1009 185 1023T218 1039Q241 1014 263 987T298 937T309 895T280 870Z" />
<glyph unicode="&#xc1;" glyph-name="Aacute" horiz-adv-x="630" d="M-1 0Q6 23 21 76T62 227T123 478T209 852Q215 862 226 865T248 868T266 861T273 848L470 369L572 400Q585 400 594 393T604 376T597 355T569 336Q561 333 548 330T522 323T500 317T491 311L602
15Q600 10 598 3T590 -9T572 -13T538 2L423 296Q402 290 371 285T306 274T238 261T174 242T125 216T101 178Q99 164 94 132T83 68Q77 30 69 -14Q51 -32 37 -26T-1 0ZM250 742L144 297Q161 303 191 310T256 325T326 341T391 358L250 742ZM188 892Q158 898 155 915T166
953T206 1000T258 1048Q276 1048 283 1038T290 1015V1007Q288 994 277 979T250 948T217 918T188 892Z" />
<glyph unicode="&#xc2;" glyph-name="Acircumflex" horiz-adv-x="613" d="M-1 0Q6 23 21 76T62 227T123 478T209 852Q215 862 226 865T248 868T266 861T273 848L470 369L572 400Q585 400 594 393T604 376T597 355T569 336Q561 333 548 330T522 323T500 317T491
311L602 15Q600 10 598 3T590 -9T572 -13T538 2L423 296Q402 290 371 285T306 274T238 261T174 242T125 216T101 178Q99 164 94 132T83 68Q77 30 69 -14Q51 -32 37 -26T-1 0ZM250 742L144 297Q161 303 191 310T256 325T326 341T391 358L250 742ZM166 876Q159 870
150 868T133 868T120 877T117 893L215 1076Q216 1079 223 1084T238 1091T253 1093T265 1082L387 909Q396 898 392 891T379 879T359 875T341 880L244 1017L166 876Z" />
<glyph unicode="&#xc3;" glyph-name="Atilde" horiz-adv-x="618" d="M-1 0Q6 23 21 76T62 227T123 478T209 852Q215 862 226 865T248 868T266 861T273 848L470 369L572 400Q585 400 594 393T604 376T597 355T569 336Q561 333 548 330T522 323T500 317T491 311L602
15Q600 10 598 3T590 -9T572 -13T538 2L423 296Q402 290 371 285T306 274T238 261T174 242T125 216T101 178Q99 164 94 132T83 68Q77 30 69 -14Q51 -32 37 -26T-1 0ZM250 742L144 297Q161 303 191 310T256 325T326 341T391 358L250 742ZM397 1022Q413 1027 426
1027T446 1008Q441 978 423 947T380 900T322 888T256 935Q239 960 217 971T175 979T142 955T130 899Q119 895 112 896T101 902T95 914T90 930Q90 963 101 985T131 1018T171 1032T215 1030T255 1011T282 979Q302 948 319 940T350 937T374 956T390 985T398 1011T397
1022Z" />
<glyph unicode="&#xc4;" glyph-name="Adieresis" horiz-adv-x="624" d="M-1 0Q6 23 21 76T62 227T123 478T209 852Q215 862 226 865T248 868T266 861T273 848L470 369L572 400Q585 400 594 393T604 376T597 355T569 336Q561 333 548 330T522 323T500 317T491 311L602
15Q600 10 598 3T590 -9T572 -13T538 2L423 296Q402 290 371 285T306 274T238 261T174 242T125 216T101 178Q99 164 94 132T83 68Q77 30 69 -14Q51 -32 37 -26T-1 0ZM250 742L144 297Q161 303 191 310T256 325T326 341T391 358L250 742ZM128 927Q123 943 136 954T166
967T199 961T214 927Q214 921 210 913T200 897T186 885T171 884Q164 879 156 881T140 890T130 906T128 927ZM266 930Q269 950 284 961T316 972T347 961T361 927Q361 921 357 913T347 897T333 885T318 884Q311 879 301 882T283 892T269 909T266 930Z" />
<glyph unicode="&#xc5;" glyph-name="Aring" horiz-adv-x="621" d="M-1 0Q6 23 21 76T62 227T123 478T209 852Q215 862 226 865T248 868T266 861T273 848L470 369L572 400Q585 400 594 393T604 376T597 355T569 336Q561 333 548 330T522 323T500 317T491 311L602
15Q600 10 598 3T590 -9T572 -13T538 2L423 296Q402 290 371 285T306 274T238 261T174 242T125 216T101 178Q99 164 94 132T83 68Q77 30 69 -14Q51 -32 37 -26T-1 0ZM250 742L144 297Q161 303 191 310T256 325T326 341T391 358L250 742ZM119 989Q119 1024 138 1047T185
1082T246 1094T307 1083T355 1051T377 997Q383 972 368 952T325 920T263 905T198 908T145 935T119 989ZM176 991Q187 971 210 960T256 949T299 959T320 994Q322 1013 312 1026T286 1045T250 1052T214 1046T186 1026T176 991Z" />
<glyph unicode="&#xc6;" glyph-name="AE" horiz-adv-x="863" d="M370 20Q370 77 371 135T374 253Q344 253 305 249T228 236T164 215T130 186Q126 172 117 143T99 82Q88 46 76 5Q56 -9 43 -1T9 33Q19 54 40 103T98 244T189 478T319 829Q339 856 353 854T376 834T393
790T408 745L808 841Q817 839 822 831T828 812T821 791T801 777L422 674Q422 609 425 545T434 415L712 512Q712 512 718 518T732 528T750 531T769 516Q769 496 745 480T686 449T609 423T532 397T472 371T448 342L441 79Q456 70 484 73T548 87T622 111T697 139T763
162T813 173Q822 172 829 167T839 154T840 140T826 127Q787 110 732 89T619 49T505 15T412 -3Q398 -1 390 3T370 20ZM187 295Q195 296 217 298T268 304T325 309T375 313Q375 329 375 349T372 410T363 522T346 711L187 295Z" />
<glyph unicode="&#xc7;" glyph-name="Ccedilla" horiz-adv-x="555" d="M28 199Q28 235 35 297T57 431T95 576T149 709T219 807T307 845Q334 845 353 835T386 808T405 769T411 722Q384 709 370 716T348 737T331 768T308 788Q272 788 242 754T188 666T146 548T116
422T98 310T92 236Q92 204 94 175T107 122T139 86T198 72Q243 72 286 98T366 163T430 246T470 327Q472 328 480 328T490 329Q503 329 515 326T527 306Q520 270 496 231T438 154T365 84T287 29T217 -1T164 0Q128 0 102 20T60 71T36 135T28 199ZM170 -184Q170 -186
190 -188T236 -188T282 -176T306 -149Q307 -142 307 -134T303 -116T284 -97T243 -74Q219 -74 202 -71T175 -58T160 -32T155 11Q159 35 166 44T182 54T197 46T209 29T215 12T211 1Q214 -15 232 -20T275 -32T323 -52T364 -97Q383 -136 371 -164T329 -211T262 -238T193
-244Q181 -244 176 -238T170 -222T169 -203T170 -184Z" />
<glyph unicode="&#xc8;" glyph-name="Egrave" horiz-adv-x="540" d="M48 22Q48 118 51 218T55 419T46 621T16 817Q16 822 20 829T30 843T43 852T59 853Q72 848 80 834T93 802T99 770T101 747L486 843Q495 841 500 833T506 814T499 793T479 779L100 676Q100 611
103 547T112 417L390 514Q390 514 396 520T410 530T428 533T447 518Q447 498 423 482T364 451T287 425T210 399T150 373T126 344L119 81Q134 72 162 75T226 89T300 113T375 141T441 164T491 175Q500 174 507 169T517 156T518 142T504 129Q465 112 410 91T297 51T183
17T90 -1Q76 1 68 5T48 22ZM245 831Q234 843 220 858T191 891T167 925T155 956Q143 970 150 984T183 1000Q206 975 228 948T263 898T274 856T245 831Z" />
<glyph unicode="&#xc9;" glyph-name="Eacute" horiz-adv-x="540" d="M48 22Q48 118 51 218T55 419T46 621T16 817Q16 822 20 829T30 843T43 852T59 853Q72 848 80 834T93 802T99 770T101 747L486 843Q495 841 500 833T506 814T499 793T479 779L100 676Q100 611
103 547T112 417L390 514Q390 514 396 520T410 530T428 533T447 518Q447 498 423 482T364 451T287 425T210 399T150 373T126 344L119 81Q134 72 162 75T226 89T300 113T375 141T441 164T491 175Q500 174 507 169T517 156T518 142T504 129Q465 112 410 91T297 51T183
17T90 -1Q76 1 68 5T48 22ZM233 836Q203 842 200 859T211 897T251 944T303 992Q321 992 328 982T335 959V951Q333 938 322 923T295 892T262 862T233 836Z" />
<glyph unicode="&#xca;" glyph-name="Ecircumflex" horiz-adv-x="540" d="M48 22Q48 118 51 218T55 419T46 621T16 817Q16 822 20 829T30 843T43 852T59 853Q72 848 80 834T93 802T99 770T101 747L486 843Q495 841 500 833T506 814T499 793T479 779L100 676Q100
611 103 547T112 417L390 514Q390 514 396 520T410 530T428 533T447 518Q447 498 423 482T364 451T287 425T210 399T150 373T126 344L119 81Q134 72 162 75T226 89T300 113T375 141T441 164T491 175Q500 174 507 169T517 156T518 142T504 129Q465 112 410 91T297
51T183 17T90 -1Q76 1 68 5T48 22ZM193 872Q186 866 177 864T160 864T147 873T144 889L242 1072Q243 1075 250 1080T265 1087T280 1089T292 1078L414 905Q423 894 419 887T406 875T386 871T368 876L271 1013L193 872Z" />
<glyph unicode="&#xcb;" glyph-name="Edieresis" horiz-adv-x="540" d="M48 22Q48 118 51 218T55 419T46 621T16 817Q16 822 20 829T30 843T43 852T59 853Q72 848 80 834T93 802T99 770T101 747L486 843Q495 841 500 833T506 814T499 793T479 779L100 676Q100
611 103 547T112 417L390 514Q390 514 396 520T410 530T428 533T447 518Q447 498 423 482T364 451T287 425T210 399T150 373T126 344L119 81Q134 72 162 75T226 89T300 113T375 141T441 164T491 175Q500 174 507 169T517 156T518 142T504 129Q465 112 410 91T297
51T183 17T90 -1Q76 1 68 5T48 22ZM158 932Q153 948 166 959T196 972T229 966T244 932Q244 926 240 918T230 902T216 890T201 889Q194 884 186 886T170 895T160 911T158 932ZM296 935Q299 955 314 966T346 977T377 966T391 932Q391 926 387 918T377 902T363 890T348
889Q341 884 331 887T313 897T299 914T296 935Z" />
<glyph unicode="&#xcc;" glyph-name="Igrave" horiz-adv-x="175" d="M54 1092Q58 1098 66 1100T84 1102T101 1097T113 1088L128 268Q128 256 122 251T108 246T90 248T75 257L54 1092ZM118 865Q107 877 93 892T64 925T40 959T28 990Q16 1004 23 1018T56 1034Q79
1009 101 982T136 932T147 890T118 865Z" />
<glyph unicode="&#xcd;" glyph-name="Iacute" horiz-adv-x="175" d="M60 838Q64 844 72 846T90 848T107 843T119 834L134 14Q134 2 128 -3T114 -8T96 -6T81 3L60 838ZM72 906Q42 912 39 929T50 967T90 1014T142 1062Q160 1062 167 1052T174 1029V1021Q172 1008
161 993T134 962T101 932T72 906Z" />
<glyph unicode="&#xce;" glyph-name="Icircumflex" horiz-adv-x="175" d="M45 840Q49 846 57 848T75 850T92 845T104 836L119 16Q119 4 113 -1T99 -6T81 -4T66 5L45 840ZM0 889Q-7 883 -16 881T-33 881T-46 890T-49 906L49 1089Q50 1092 57 1097T72 1104T87 1106T99
1095L221 922Q230 911 226 904T213 892T193 888T175 893L78 1030L0 889Z" />
<glyph unicode="&#xcf;" glyph-name="Idieresis" horiz-adv-x="175" d="M54 1089Q58 1095 66 1097T84 1099T101 1094T113 1085L128 265Q128 253 122 248T108 243T90 245T75 254L54 1089ZM-37 967Q-42 983 -29 994T1 1007T34 1001T49 967Q49 961 45 953T35 937T21
925T6 924Q-1 919 -9 921T-25 930T-35 946T-37 967ZM101 970Q104 990 119 1001T151 1012T182 1001T196 967Q196 961 192 953T182 937T168 925T153 924Q146 919 136 922T118 932T104 949T101 970Z" />
<glyph unicode="&#xd0;" glyph-name="Eth" horiz-adv-x="631" d="M179 37Q178 47 204 74T270 140T357 229T447 338T518 461T552 593Q552 624 535 648T492 692T431 726T364 749T299 763T247 768Q242 768 233 768T211 765T187 759T164 749L210 141Q215 130 210 117T194
95T171 86T152 99L103 722Q100 720 92 716T74 708T57 699T46 693Q45 693 43 693T39 692Q33 692 26 695T18 708Q18 725 25 735T44 755T69 772T94 795T113 830T121 884Q143 884 148 876T155 858T158 837T174 821Q205 824 250 823T344 813T441 788T527 743T587 676T606
583Q598 501 564 425T478 276T356 136T209 0Q208 0 206 0T202 -1Q192 -1 186 13T179 37ZM38 409Q30 404 22 412T10 434T12 462T38 481L383 492Q393 492 398 485T404 466T403 442T395 423L38 409Z" />
<glyph unicode="&#xd1;" glyph-name="Ntilde" horiz-adv-x="616" d="M27 841Q38 857 53 851T82 831T104 804T108 791L475 164Q478 179 480 212T484 291T485 391T483 499T478 605T471 698T462 767T450 801Q450 817 456 831T480 846Q497 846 508 826T525 781T533
732T536 701Q537 681 537 638T538 538T539 421T540 303T541 203T542 139Q543 111 549 90T556 42Q556 20 540 9T503 -2Q492 -2 484 1T470 11T465 29T469 58Q451 79 423 128T362 240T292 372T222 502T159 610T112 673Q107 608 109 523T116 348T126 173T132 23Q132
2 120 -3T95 -6T73 4T70 16L27 841ZM432 1008Q448 1013 461 1013T481 994Q476 964 458 933T415 886T357 874T291 921Q274 946 252 957T210 965T177 941T165 885Q154 881 147 882T136 888T130 900T125 916Q125 949 136 971T166 1004T206 1018T250 1016T290 997T317
965Q337 934 354 926T385 923T409 942T425 971T433 997T432 1008Z" />
<glyph unicode="&#xd2;" glyph-name="Ograve" horiz-adv-x="581" d="M22 253Q21 379 48 482T119 663T217 787T326 848T428 838T506 751Q533 694 543 619T547 463T517 304T455 163T360 58T234 9Q178 6 138 31T73 95T35 177T22 253ZM234 737Q217 723 196 688T155
605T119 499T93 384T83 271T99 172T145 98T228 61Q268 56 308 87T383 171T442 291T480 426Q490 486 490 543T479 649T447 732T395 782T324 788T234 737ZM339 882Q328 894 314 909T285 942T261 976T249 1007Q237 1021 244 1035T277 1051Q300 1026 322 999T357 949T368
907T339 882Z" />
<glyph unicode="&#xd3;" glyph-name="Oacute" horiz-adv-x="575" d="M22 253Q21 379 48 482T119 663T217 787T326 848T428 838T506 751Q533 694 543 619T547 463T517 304T455 163T360 58T234 9Q178 6 138 31T73 95T35 177T22 253ZM234 737Q217 723 196 688T155
605T119 499T93 384T83 271T99 172T145 98T228 61Q268 56 308 87T383 171T442 291T480 426Q490 486 490 543T479 649T447 732T395 782T324 788T234 737ZM262 862Q232 868 229 885T240 923T280 970T332 1018Q350 1018 357 1008T364 985V977Q362 964 351 949T324
918T291 888T262 862Z" />
<glyph unicode="&#xd4;" glyph-name="Ocircumflex" horiz-adv-x="572" d="M22 253Q21 379 48 482T119 663T217 787T326 848T428 838T506 751Q533 694 543 619T547 463T517 304T455 163T360 58T234 9Q178 6 138 31T73 95T35 177T22 253ZM234 737Q217 723 196 688T155
605T119 499T93 384T83 271T99 172T145 98T228 61Q268 56 308 87T383 171T442 291T480 426Q490 486 490 543T479 649T447 732T395 782T324 788T234 737ZM260 891Q253 885 244 883T227 883T214 892T211 908L309 1091Q310 1094 317 1099T332 1106T347 1108T359 1097L481
924Q490 913 486 906T473 894T453 890T435 895L338 1032L260 891Z" />
<glyph unicode="&#xd5;" glyph-name="Otilde" horiz-adv-x="569" d="M22 253Q21 379 48 482T119 663T217 787T326 848T428 838T506 751Q533 694 543 619T547 463T517 304T455 163T360 58T234 9Q178 6 138 31T73 95T35 177T22 253ZM234 737Q217 723 196 688T155
605T119 499T93 384T83 271T99 172T145 98T228 61Q268 56 308 87T383 171T442 291T480 426Q490 486 490 543T479 649T447 732T395 782T324 788T234 737ZM463 1014Q479 1019 492 1019T512 1000Q507 970 489 939T446 892T388 880T322 927Q305 952 283 963T241 971T208
947T196 891Q185 887 178 888T167 894T161 906T156 922Q156 955 167 977T197 1010T237 1024T281 1022T321 1003T348 971Q368 940 385 932T416 929T440 948T456 977T464 1003T463 1014Z" />
<glyph unicode="&#xd6;" glyph-name="Odieresis" horiz-adv-x="567" d="M22 253Q21 379 48 482T119 663T217 787T326 848T428 838T506 751Q533 694 543 619T547 463T517 304T455 163T360 58T234 9Q178 6 138 31T73 95T35 177T22 253ZM234 737Q217 723 196 688T155
605T119 499T93 384T83 271T99 172T145 98T228 61Q268 56 308 87T383 171T442 291T480 426Q490 486 490 543T479 649T447 732T395 782T324 788T234 737ZM216 928Q211 944 224 955T254 968T287 962T302 928Q302 922 298 914T288 898T274 886T259 885Q252 880 244
882T228 891T218 907T216 928ZM354 931Q357 951 372 962T404 973T435 962T449 928Q449 922 445 914T435 898T421 886T406 885Q399 880 389 883T371 893T357 910T354 931Z" />
<glyph unicode="&#xd7;" glyph-name="multiply" horiz-adv-x="517" d="M353 512Q370 518 381 515T396 503T398 485T384 465L274 332Q283 314 300 292T332 246T359 201T368 161Q359 143 334 150Q309 153 303 166T292 198T276 242T230 294Q207 273 179 242T133 174Q129
172 120 172T100 175T83 182T77 193L199 342L92 506Q92 507 92 512T93 520Q97 527 106 534T132 535Q139 523 150 504T175 465T205 424T236 390Q238 389 239 389Q240 388 242 388Q245 387 245 386T246 385T252 391T268 411T300 449T353 512Z" />
<glyph unicode="&#xd8;" glyph-name="Oslash" horiz-adv-x="564" d="M22 253Q21 361 41 453T95 617T173 742T264 822T357 852T442 829L449 844Q467 858 484 857T503 831L484 788Q490 780 495 771T506 751Q533 694 543 619T547 463T517 304T455 163T360 58T234
9Q211 7 191 11T154 23L136 -18Q126 -23 116 -24T96 -23T81 -14T75 2L101 61Q81 81 66 106T41 157T27 208T22 253ZM234 737Q215 721 192 680T147 582T108 461T86 333T88 213T126 118L415 768Q383 794 338 790T234 737ZM480 426Q494 510 488 587T454 718L177 76Q188
71 200 67T228 61Q268 56 308 87T383 171T442 291T480 426Z" />
<glyph unicode="&#xd9;" glyph-name="Ugrave" horiz-adv-x="575" d="M475 296Q464 255 448 204T407 108T347 32T261 1Q209 14 172 52T108 144T66 263T42 397T31 532T28 655T31 751T36 809Q33 825 43 833T66 842T90 838T103 825Q83 678 83 566T94 371T128 230T176
137T229 82T277 57Q311 60 337 92T384 176T418 293T443 427T459 563T468 686T471 779T471 829Q478 841 487 845T505 848T521 842T531 829Q532 803 527 733T520 556T526 311T563 12Q563 2 557 -3T541 -9T522 -11T505 -9L475 296V296ZM289 905Q278 917 264 932T235
965T211 999T199 1030Q187 1044 194 1058T227 1074Q250 1049 272 1022T307 972T318 930T289 905Z" />
<glyph unicode="&#xda;" glyph-name="Uacute" horiz-adv-x="564" d="M475 296Q464 255 448 204T407 108T347 32T261 1Q209 14 172 52T108 144T66 263T42 397T31 532T28 655T31 751T36 809Q33 825 43 833T66 842T90 838T103 825Q83 678 83 566T94 371T128 230T176
137T229 82T277 57Q311 60 337 92T384 176T418 293T443 427T459 563T468 686T471 779T471 829Q478 841 487 845T505 848T521 842T531 829Q532 803 527 733T520 556T526 311T563 12Q563 2 557 -3T541 -9T522 -11T505 -9L475 296V296ZM239 866Q209 872 206 889T217
927T257 974T309 1022Q327 1022 334 1012T341 989V981Q339 968 328 953T301 922T268 892T239 866Z" />
<glyph unicode="&#xdb;" glyph-name="Ucircumflex" horiz-adv-x="578" d="M475 296Q464 255 448 204T407 108T347 32T261 1Q209 14 172 52T108 144T66 263T42 397T31 532T28 655T31 751T36 809Q33 825 43 833T66 842T90 838T103 825Q83 678 83 566T94 371T128
230T176 137T229 82T277 57Q311 60 337 92T384 176T418 293T443 427T459 563T468 686T471 779T471 829Q478 841 487 845T505 848T521 842T531 829Q532 803 527 733T520 556T526 311T563 12Q563 2 557 -3T541 -9T522 -11T505 -9L475 296V296ZM185 891Q178 885 169
883T152 883T139 892T136 908L234 1091Q235 1094 242 1099T257 1106T272 1108T284 1097L406 924Q415 913 411 906T398 894T378 890T360 895L263 1032L185 891Z" />
<glyph unicode="&#xdc;" glyph-name="Udieresis" horiz-adv-x="581" d="M475 296Q464 255 448 204T407 108T347 32T261 1Q209 14 172 52T108 144T66 263T42 397T31 532T28 655T31 751T36 809Q33 825 43 833T66 842T90 838T103 825Q83 678 83 566T94 371T128 230T176
137T229 82T277 57Q311 60 337 92T384 176T418 293T443 427T459 563T468 686T471 779T471 829Q478 841 487 845T505 848T521 842T531 829Q532 803 527 733T520 556T526 311T563 12Q563 2 557 -3T541 -9T522 -11T505 -9L475 296V296ZM156 929Q151 945 164 956T194
969T227 963T242 929Q242 923 238 915T228 899T214 887T199 886Q192 881 184 883T168 892T158 908T156 929ZM294 932Q297 952 312 963T344 974T375 963T389 929Q389 923 385 915T375 899T361 887T346 886Q339 881 329 884T311 894T297 911T294 932Z" />
<glyph unicode="&#xdd;" glyph-name="Yacute" horiz-adv-x="535" d="M305 337L-4 743Q-4 756 10 763T35 771L328 413Q332 421 342 449T367 516T397 601T427 694T453 780T469 849Q476 856 484 854T500 846T513 832T518 817Q483 712 459 639T419 516T394 434T379
382T369 347T361 316T350 278T331 220T300 130T253 -6Q238 -6 223 -6T207 9L305 337ZM232 864Q202 870 199 887T210 925T250 972T302 1020Q320 1020 327 1010T334 987V979Q332 966 321 951T294 920T261 890T232 864Z" />
<glyph unicode="&#xde;" glyph-name="Thorn" horiz-adv-x="453" d="M38 -293L29 629Q42 629 53 630T73 631T87 625T92 604V405Q131 456 163 486T225 532T281 551T337 552Q369 552 390 539T423 503T441 451T446 391Q445 358 437 315T395 222T293 114T104 -3L101
-296L38 -293ZM95 66Q100 70 123 81T178 110T246 154T313 214T367 293T393 391Q393 406 389 424T375 457T351 483T316 494Q275 494 242 474T181 422T134 355T99 286L95 66Z" />
<glyph unicode="&#xdf;" glyph-name="germandbls" horiz-adv-x="569" d="M98 -98Q98 -124 83 -128T39 -121L37 702Q41 733 72 759T149 803T245 830T340 839T413 825T445 784Q445 757 433 728T400 668T356 609T309 555T266 509T236 475Q251 489 278 501T339 520T406
527T470 518T521 487T548 428Q553 395 532 350T473 257T390 164T299 84T217 31T161 17L128 54Q136 56 162 70T224 108T299 162T375 225T440 293T479 360T480 419T429 465Q373 472 309 456T190 402V518Q228 552 267 591T335 668T372 737T359 788Q341 790 316 789T262
782T206 766T155 742T117 708T98 666V-98Z" />
<glyph unicode="&#xe0;" glyph-name="agrave" horiz-adv-x="426" d="M366 10Q352 31 349 65T345 136T344 210T339 273Q292 170 251 113T175 31T112 8T65 28T34 71T22 120Q15 158 21 211T44 322T86 433T144 528T214 587T291 594Q311 596 324 593T347 578T360 548T366
498Q364 401 371 333T389 213T408 119T420 32Q420 16 412 8T394 -3T376 -2T366 10ZM308 515Q284 547 256 542T201 508T148 431T105 329T79 222T75 127Q89 82 109 73T152 79T199 129T245 202T284 281T313 348L308 515ZM227 641Q216 653 202 668T173 701T149 735T137
766Q125 780 132 794T165 810Q188 785 210 758T245 708T256 666T227 641Z" />
<glyph unicode="&#xe1;" glyph-name="aacute" horiz-adv-x="417" d="M366 10Q352 31 349 65T345 136T344 210T339 273Q292 170 251 113T175 31T112 8T65 28T34 71T22 120Q15 158 21 211T44 322T86 433T144 528T214 587T291 594Q311 596 324 593T347 578T360 548T366
498Q364 401 371 333T389 213T408 119T420 32Q420 16 412 8T394 -3T376 -2T366 10ZM308 515Q284 547 256 542T201 508T148 431T105 329T79 222T75 127Q89 82 109 73T152 79T199 129T245 202T284 281T313 348L308 515ZM198 668Q168 674 165 691T176 729T216 776T268
824Q286 824 293 814T300 791V783Q298 770 287 755T260 724T227 694T198 668Z" />
<glyph unicode="&#xe2;" glyph-name="acircumflex" horiz-adv-x="417" d="M366 10Q352 31 349 65T345 136T344 210T339 273Q292 170 251 113T175 31T112 8T65 28T34 71T22 120Q15 158 21 211T44 322T86 433T144 528T214 587T291 594Q311 596 324 593T347 578T360
548T366 498Q364 401 371 333T389 213T408 119T420 32Q420 16 412 8T394 -3T376 -2T366 10ZM308 515Q284 547 256 542T201 508T148 431T105 329T79 222T75 127Q89 82 109 73T152 79T199 129T245 202T284 281T313 348L308 515ZM378 641Q371 635 362 633T345 633T332
642T329 658L427 841Q428 844 435 849T450 856T465 858T477 847L599 674Q608 663 604 656T591 644T571 640T553 645L456 782L378 641Z" />
<glyph unicode="&#xe3;" glyph-name="atilde" horiz-adv-x="417" d="M366 10Q352 31 349 65T345 136T344 210T339 273Q292 170 251 113T175 31T112 8T65 28T34 71T22 120Q15 158 21 211T44 322T86 433T144 528T214 587T291 594Q311 596 324 593T347 578T360 548T366
498Q364 401 371 333T389 213T408 119T420 32Q420 16 412 8T394 -3T376 -2T366 10ZM308 515Q284 547 256 542T201 508T148 431T105 329T79 222T75 127Q89 82 109 73T152 79T199 129T245 202T284 281T313 348L308 515ZM350 818Q366 823 379 823T399 804Q394 774
376 743T333 696T275 684T209 731Q192 756 170 767T128 775T95 751T83 695Q72 691 65 692T54 698T48 710T43 726Q43 759 54 781T84 814T124 828T168 826T208 807T235 775Q255 744 272 736T303 733T327 752T343 781T351 807T350 818Z" />
<glyph unicode="&#xe4;" glyph-name="adieresis" horiz-adv-x="417" d="M366 10Q352 31 349 65T345 136T344 210T339 273Q292 170 251 113T175 31T112 8T65 28T34 71T22 120Q15 158 21 211T44 322T86 433T144 528T214 587T291 594Q311 596 324 593T347 578T360
548T366 498Q364 401 371 333T389 213T408 119T420 32Q420 16 412 8T394 -3T376 -2T366 10ZM308 515Q284 547 256 542T201 508T148 431T105 329T79 222T75 127Q89 82 109 73T152 79T199 129T245 202T284 281T313 348L308 515ZM118 702Q113 718 126 729T156 742T189
736T204 702Q204 696 200 688T190 672T176 660T161 659Q154 654 146 656T130 665T120 681T118 702ZM256 705Q259 725 274 736T306 747T337 736T351 702Q351 696 347 688T337 672T323 660T308 659Q301 654 291 657T273 667T259 684T256 705Z" />
<glyph unicode="&#xe5;" glyph-name="aring" horiz-adv-x="417" d="M366 10Q352 31 349 65T345 136T344 210T339 273Q292 170 251 113T175 31T112 8T65 28T34 71T22 120Q15 158 21 211T44 322T86 433T144 528T214 587T291 594Q311 596 324 593T347 578T360 548T366
498Q364 401 371 333T389 213T408 119T420 32Q420 16 412 8T394 -3T376 -2T366 10ZM308 515Q284 547 256 542T201 508T148 431T105 329T79 222T75 127Q89 82 109 73T152 79T199 129T245 202T284 281T313 348L308 515ZM110 712Q110 747 129 770T176 805T237 817T298
806T346 774T368 720Q374 695 359 675T316 643T254 628T189 631T136 658T110 712ZM167 714Q178 694 201 683T247 672T290 682T311 717Q313 736 303 749T277 768T241 775T205 769T177 749T167 714Z" />
<glyph unicode="&#xe6;" glyph-name="ae" horiz-adv-x="742" d="M28 97Q21 134 32 186T68 293T127 401T201 493T283 552T365 562Q384 586 412 599T481 609Q501 609 526 600T574 575T614 538T635 491Q642 482 627 466T585 432T524 395T459 359T403 329T372 311Q374
279 378 238T394 161T428 97T487 67Q531 64 562 80T615 122T648 179T667 238T676 285T681 307Q692 313 706 308T722 278Q723 239 705 189T656 97T581 30T488 12Q443 13 415 32T370 81T344 147T329 217Q284 125 245 74T172 3T113 -14T69 7T40 50T28 97ZM81 104Q94
60 113 51T155 54T200 99T245 169T285 246T315 314Q313 365 316 406T329 484Q306 496 277 482T220 438T164 365T118 276T88 184T81 104ZM582 491Q550 535 517 547T449 554Q428 551 412 535T386 493T372 436T371 371L582 491Z" />
<glyph unicode="&#xe7;" glyph-name="ccedilla" horiz-adv-x="420" d="M29 256Q32 297 36 339T48 420T69 495T102 556T152 597T223 611Q251 611 266 588T287 531T294 463T295 406Q280 400 270 406T253 425T241 457T233 493T225 527T214 553Q196 561 179 548T148
511T123 452T103 384T90 317T85 263Q86 233 91 199T107 134T136 83T182 55Q220 55 246 67T290 99T318 143T334 191T343 237T351 273Q377 280 391 272T406 253Q406 207 390 162T345 80T273 22T178 0Q133 0 104 28T59 97T36 181T29 256ZM160 -193Q160 -195 180 -197T226
-197T272 -185T296 -158Q297 -151 297 -143T293 -125T274 -106T233 -83Q209 -83 192 -80T165 -67T150 -41T145 2Q149 26 156 35T172 45T187 37T199 20T205 3T201 -8Q204 -24 222 -29T265 -41T313 -61T354 -106Q373 -145 361 -173T319 -220T252 -247T183 -253Q171
-253 166 -247T160 -231T159 -212T160 -193Z" />
<glyph unicode="&#xe8;" glyph-name="egrave" horiz-adv-x="477" d="M60 267Q53 261 36 262T4 270T-16 286T-4 311Q3 317 11 319T28 324T42 332T49 348Q50 393 56 440T81 524T132 583T221 600Q241 600 266 591T314 566T354 529T375 482Q382 472 367 457T325 424T264
386T199 350T143 320T112 302Q118 263 125 220T145 141T177 82T227 58Q271 55 302 71T355 113T388 170T407 229T416 276T421 298Q432 304 446 299T462 269Q463 230 445 180T396 88T321 21T228 3Q177 4 147 32T100 101T74 187T60 267ZM322 482Q290 526 257 538T189
545Q168 542 152 526T126 484T112 427T111 362L322 482ZM214 664Q203 676 189 691T160 724T136 758T124 789Q112 803 119 817T152 833Q175 808 197 781T232 731T243 689T214 664Z" />
<glyph unicode="&#xe9;" glyph-name="eacute" horiz-adv-x="477" d="M60 267Q53 261 36 262T4 270T-16 286T-4 311Q3 317 11 319T28 324T42 332T49 348Q50 393 56 440T81 524T132 583T221 600Q241 600 266 591T314 566T354 529T375 482Q382 472 367 457T325 424T264
386T199 350T143 320T112 302Q118 263 125 220T145 141T177 82T227 58Q271 55 302 71T355 113T388 170T407 229T416 276T421 298Q432 304 446 299T462 269Q463 230 445 180T396 88T321 21T228 3Q177 4 147 32T100 101T74 187T60 267ZM322 482Q290 526 257 538T189
545Q168 542 152 526T126 484T112 427T111 362L322 482ZM180 679Q150 685 147 702T158 740T198 787T250 835Q268 835 275 825T282 802V794Q280 781 269 766T242 735T209 705T180 679Z" />
<glyph unicode="&#xea;" glyph-name="ecircumflex" horiz-adv-x="477" d="M60 267Q53 261 36 262T4 270T-16 286T-4 311Q3 317 11 319T28 324T42 332T49 348Q50 393 56 440T81 524T132 583T221 600Q241 600 266 591T314 566T354 529T375 482Q382 472 367 457T325
424T264 386T199 350T143 320T112 302Q118 263 125 220T145 141T177 82T227 58Q271 55 302 71T355 113T388 170T407 229T416 276T421 298Q432 304 446 299T462 269Q463 230 445 180T396 88T321 21T228 3Q177 4 147 32T100 101T74 187T60 267ZM322 482Q290 526 257
538T189 545Q168 542 152 526T126 484T112 427T111 362L322 482ZM372 644Q365 638 356 636T339 636T326 645T323 661L421 844Q422 847 429 852T444 859T459 861T471 850L593 677Q602 666 598 659T585 647T565 643T547 648L450 785L372 644Z" />
<glyph unicode="&#xeb;" glyph-name="edieresis" horiz-adv-x="466" d="M60 267Q53 261 36 262T4 270T-16 286T-4 311Q3 317 11 319T28 324T42 332T49 348Q50 393 56 440T81 524T132 583T221 600Q241 600 266 591T314 566T354 529T375 482Q382 472 367 457T325
424T264 386T199 350T143 320T112 302Q118 263 125 220T145 141T177 82T227 58Q271 55 302 71T355 113T388 170T407 229T416 276T421 298Q432 304 446 299T462 269Q463 230 445 180T396 88T321 21T228 3Q177 4 147 32T100 101T74 187T60 267ZM322 482Q290 526 257
538T189 545Q168 542 152 526T126 484T112 427T111 362L322 482ZM82 697Q77 713 90 724T120 737T153 731T168 697Q168 691 164 683T154 667T140 655T125 654Q118 649 110 651T94 660T84 676T82 697ZM220 700Q223 720 238 731T270 742T301 731T315 697Q315 691 311
683T301 667T287 655T272 654Q265 649 255 652T237 662T223 679T220 700Z" />
<glyph unicode="&#xec;" glyph-name="igrave" horiz-adv-x="151" d="M40 630Q48 634 58 636T78 639T95 635T103 620V22Q104 7 95 -1T76 -9T56 -2T47 22L40 630ZM364 689Q353 701 339 716T310 749T286 783T274 814Q262 828 269 842T302 858Q325 833 347 806T382
756T393 714T364 689Z" />
<glyph unicode="&#xed;" glyph-name="iacute" horiz-adv-x="151" d="M40 630Q48 634 58 636T78 639T95 635T103 620V22Q104 7 95 -1T76 -9T56 -2T47 22L40 630ZM59 685Q29 691 26 708T37 746T77 793T129 841Q147 841 154 831T161 808V800Q159 787 148 772T121
741T88 711T59 685Z" />
<glyph unicode="&#xee;" glyph-name="icircumflex" horiz-adv-x="151" d="M40 630Q48 634 58 636T78 639T95 635T103 620V22Q104 7 95 -1T76 -9T56 -2T47 22L40 630ZM-19 641Q-26 635 -35 633T-52 633T-65 642T-68 658L30 841Q31 844 38 849T53 856T68 858T80
847L202 674Q211 663 207 656T194 644T174 640T156 645L59 782L-19 641Z" />
<glyph unicode="&#xef;" glyph-name="idieresis" horiz-adv-x="151" d="M40 630Q48 634 58 636T78 639T95 635T103 620V22Q104 7 95 -1T76 -9T56 -2T47 22L40 630ZM231 742Q226 758 239 769T269 782T302 776T317 742Q317 736 313 728T303 712T289 700T274 699Q267
694 259 696T243 705T233 721T231 742ZM369 745Q372 765 387 776T419 787T450 776T464 742Q464 736 460 728T450 712T436 700T421 699Q414 694 404 697T386 707T372 724T369 745Z" />
<glyph unicode="&#xf0;" glyph-name="eth" horiz-adv-x="523" d="M451 576L361 554Q413 436 419 340T400 172T319 58T193 3Q142 6 107 36T51 109T24 201T25 291T57 360T118 388Q184 388 239 355T344 262Q360 284 359 321T348 400T322 481T296 547L109 522Q106
529 103 541T98 564T101 585T118 596L262 615Q243 656 220 703T167 808Q153 823 159 831T180 843T209 843T229 832L332 620L501 653Q532 633 532 620T519 599T483 585T451 576ZM218 72Q268 103 286 135T300 198T274 255T226 299T171 325T124 326Q105 319 94 296T80
242T83 178T107 119T151 79T218 72Z" />
<glyph unicode="&#xf1;" glyph-name="ntilde" horiz-adv-x="475" d="M20 596Q21 606 28 612T44 619T62 618T77 607L74 207Q93 279 108 349T147 477T205 572T298 615Q329 618 352 597T391 538T419 452T436 349T446 241T450 141T451 60T449 9Q442 -8 425 -13T393
1Q392 20 392 66T391 173T385 298T370 419T341 512T293 555Q268 559 245 528T200 446T160 331T127 205T102 91T89 11Q86 3 77 -2T58 -7T37 -4T21 11L20 596ZM395 794Q411 799 424 799T444 780Q439 750 421 719T378 672T320 660T254 707Q237 732 215 743T173 751T140
727T128 671Q117 667 110 668T99 674T93 686T88 702Q88 735 99 757T129 790T169 804T213 802T253 783T280 751Q300 720 317 712T348 709T372 728T388 757T396 783T395 794Z" />
<glyph unicode="&#xf2;" glyph-name="ograve" horiz-adv-x="383" d="M145 4Q105 9 80 36T39 102T20 187T17 279Q20 348 42 411T98 520T172 592T252 612Q293 606 318 573T358 492T375 388T374 279Q369 220 348 169T296 81T225 24T145 4ZM242 555Q209 559 181 535T130
470T92 378T72 276Q68 240 69 202T78 133T105 83T155 63Q180 62 207 80T259 128T301 198T326 278Q333 321 330 366T315 451T285 518T242 555ZM227 641Q216 653 202 668T173 701T149 735T137 766Q125 780 132 794T165 810Q188 785 210 758T245 708T256 666T227 641Z"
/>
<glyph unicode="&#xf3;" glyph-name="oacute" horiz-adv-x="400" d="M145 4Q105 9 80 36T39 102T20 187T17 279Q20 348 42 411T98 520T172 592T252 612Q293 606 318 573T358 492T375 388T374 279Q369 220 348 169T296 81T225 24T145 4ZM242 555Q209 559 181 535T130
470T92 378T72 276Q68 240 69 202T78 133T105 83T155 63Q180 62 207 80T259 128T301 198T326 278Q333 321 330 366T315 451T285 518T242 555ZM141 668Q111 674 108 691T119 729T159 776T211 824Q229 824 236 814T243 791V783Q241 770 230 755T203 724T170 694T141
668Z" />
<glyph unicode="&#xf4;" glyph-name="ocircumflex" horiz-adv-x="400" d="M145 4Q105 9 80 36T39 102T20 187T17 279Q20 348 42 411T98 520T172 592T252 612Q293 606 318 573T358 492T375 388T374 279Q369 220 348 169T296 81T225 24T145 4ZM242 555Q209 559 181
535T130 470T92 378T72 276Q68 240 69 202T78 133T105 83T155 63Q180 62 207 80T259 128T301 198T326 278Q333 321 330 366T315 451T285 518T242 555ZM388 641Q381 635 372 633T355 633T342 642T339 658L437 841Q438 844 445 849T460 856T475 858T487 847L609 674Q618
663 614 656T601 644T581 640T563 645L466 782L388 641Z" />
<glyph unicode="&#xf5;" glyph-name="otilde" horiz-adv-x="388" d="M145 4Q105 9 80 36T39 102T20 187T17 279Q20 348 42 411T98 520T172 592T252 612Q293 606 318 573T358 492T375 388T374 279Q369 220 348 169T296 81T225 24T145 4ZM242 555Q209 559 181 535T130
470T92 378T72 276Q68 240 69 202T78 133T105 83T155 63Q180 62 207 80T259 128T301 198T326 278Q333 321 330 366T315 451T285 518T242 555ZM361 781Q377 786 390 786T410 767Q405 737 387 706T344 659T286 647T220 694Q203 719 181 730T139 738T106 714T94 658Q83
654 76 655T65 661T59 673T54 689Q54 722 65 744T95 777T135 791T179 789T219 770T246 738Q266 707 283 699T314 696T338 715T354 744T362 770T361 781Z" />
<glyph unicode="&#xf6;" glyph-name="odieresis" horiz-adv-x="397" d="M145 4Q105 9 80 36T39 102T20 187T17 279Q20 348 42 411T98 520T172 592T252 612Q293 606 318 573T358 492T375 388T374 279Q369 220 348 169T296 81T225 24T145 4ZM242 555Q209 559 181
535T130 470T92 378T72 276Q68 240 69 202T78 133T105 83T155 63Q180 62 207 80T259 128T301 198T326 278Q333 321 330 366T315 451T285 518T242 555ZM89 705Q84 721 97 732T127 745T160 739T175 705Q175 699 171 691T161 675T147 663T132 662Q125 657 117 659T101
668T91 684T89 705ZM227 708Q230 728 245 739T277 750T308 739T322 705Q322 699 318 691T308 675T294 663T279 662Q272 657 262 660T244 670T230 687T227 708Z" />
<glyph unicode="&#xf7;" glyph-name="divide" horiz-adv-x="393" d="M204 522Q204 539 215 548T239 559T263 552T275 527Q275 506 264 496T240 486T216 495T204 522ZM204 329Q204 346 215 355T239 366T263 359T275 334Q275 313 264 303T240 293T216 302T204 329ZM282
312Q282 316 288 327T297 341Q346 344 383 348T454 358T523 366T602 370Q608 370 611 365T616 352T618 339T618 330Q618 326 617 320T616 312L367 298Q365 297 353 297T335 296Q335 296 327 296T308 296T290 300T282 312Z" />
<glyph unicode="&#xf8;" glyph-name="oslash" horiz-adv-x="391" d="M145 4Q105 9 80 36T39 102T20 187T17 279Q20 348 42 411T98 520T172 592T252 612Q293 606 318 573T358 492T375 388T374 279Q369 220 348 169T296 81T225 24T145 4ZM242 555Q209 559 181 535T130
470T92 378T72 276Q68 240 69 202T78 133T105 83T155 63Q180 62 207 80T259 128T301 198T326 278Q333 321 330 366T315 451T285 518T242 555ZM308 883Q325 894 342 893T360 873L109 230Q99 226 89 225T70 226T55 233T49 246L308 883V883Z" />
<glyph unicode="&#xf9;" glyph-name="ugrave" horiz-adv-x="411" d="M317 590Q318 596 323 603T337 614T356 612T378 587Q374 510 369 434T363 283T373 135T408 -7Q409 -14 403 -19T387 -27T367 -29T351 -20L316 147Q312 134 294 109T251 59T200 14T155 -7Q108
-10 81 26T42 120T27 251T27 391T32 514T32 595Q35 603 42 607T59 611T76 607T89 595Q91 561 90 510T88 402T88 286T96 181T114 102T150 66Q167 66 184 77T218 105T250 144T276 186T294 224T302 250Q303 262 305 288T308 348T311 420T314 491T316 551T317 590ZM239
641Q228 653 214 668T185 701T161 735T149 766Q137 780 144 794T177 810Q200 785 222 758T257 708T268 666T239 641Z" />
<glyph unicode="&#xfa;" glyph-name="uacute" horiz-adv-x="414" d="M317 590Q318 596 323 603T337 614T356 612T378 587Q374 510 369 434T363 283T373 135T408 -7Q409 -14 403 -19T387 -27T367 -29T351 -20L316 147Q312 134 294 109T251 59T200 14T155 -7Q108
-10 81 26T42 120T27 251T27 391T32 514T32 595Q35 603 42 607T59 611T76 607T89 595Q91 561 90 510T88 402T88 286T96 181T114 102T150 66Q167 66 184 77T218 105T250 144T276 186T294 224T302 250Q303 262 305 288T308 348T311 420T314 491T316 551T317 590ZM187
682Q157 688 154 705T165 743T205 790T257 838Q275 838 282 828T289 805V797Q287 784 276 769T249 738T216 708T187 682Z" />
<glyph unicode="&#xfb;" glyph-name="ucircumflex" horiz-adv-x="417" d="M317 590Q318 596 323 603T337 614T356 612T378 587Q374 510 369 434T363 283T373 135T408 -7Q409 -14 403 -19T387 -27T367 -29T351 -20L316 147Q312 134 294 109T251 59T200 14T155 -7Q108
-10 81 26T42 120T27 251T27 391T32 514T32 595Q35 603 42 607T59 611T76 607T89 595Q91 561 90 510T88 402T88 286T96 181T114 102T150 66Q167 66 184 77T218 105T250 144T276 186T294 224T302 250Q303 262 305 288T308 348T311 420T314 491T316 551T317 590ZM378
661Q371 655 362 653T345 653T332 662T329 678L427 861Q428 864 435 869T450 876T465 878T477 867L599 694Q608 683 604 676T591 664T571 660T553 665L456 802L378 661Z" />
<glyph unicode="&#xfc;" glyph-name="udieresis" horiz-adv-x="406" d="M317 590Q318 596 323 603T337 614T356 612T378 587Q374 510 369 434T363 283T373 135T408 -7Q409 -14 403 -19T387 -27T367 -29T351 -20L316 147Q312 134 294 109T251 59T200 14T155 -7Q108
-10 81 26T42 120T27 251T27 391T32 514T32 595Q35 603 42 607T59 611T76 607T89 595Q91 561 90 510T88 402T88 286T96 181T114 102T150 66Q167 66 184 77T218 105T250 144T276 186T294 224T302 250Q303 262 305 288T308 348T311 420T314 491T316 551T317 590ZM84
679Q79 695 92 706T122 719T155 713T170 679Q170 673 166 665T156 649T142 637T127 636Q120 631 112 633T96 642T86 658T84 679ZM222 682Q225 702 240 713T272 724T303 713T317 679Q317 673 313 665T303 649T289 637T274 636Q267 631 257 634T239 644T225 661T222
682Z" />
<glyph unicode="&#xfd;" glyph-name="yacute" horiz-adv-x="413" d="M249 -1L28 502Q20 514 24 526T38 546T61 552T86 535L270 95L357 592Q363 595 371 597T388 598T404 592T413 576Q408 536 398 474T376 347T353 222T335 127Q331 106 325 71T312 -7T296 -94T280
-182T265 -258T252 -314Q250 -326 240 -332T218 -337T196 -329T184 -309L249 -1ZM196 668Q166 674 163 691T174 729T214 776T266 824Q284 824 291 814T298 791V783Q296 770 285 755T258 724T225 694T196 668Z" />
<glyph unicode="&#xfe;" glyph-name="thorn" horiz-adv-x="463" d="M29 -3V847Q42 847 53 848T73 849T87 843T92 822V623Q131 674 163 704T225 750T281 769T337 770Q369 770 390 757T423 721T441 669T446 609Q445 576 437 533T395 440T293 332T104 215L92 -6L29
-3ZM95 284Q100 289 123 299T178 328T246 372T313 432T367 511T393 609Q393 624 389 642T375 675T351 701T316 712Q275 712 242 692T181 640T134 573T99 504L95 284Z" />
<glyph unicode="&#xff;" glyph-name="ydieresis" horiz-adv-x="413" d="M249 -1L28 502Q20 514 24 526T38 546T61 552T86 535L270 95L357 592Q363 595 371 597T388 598T404 592T413 576Q408 536 398 474T376 347T353 222T335 127Q331 106 325 71T312 -7T296 -94T280
-182T265 -258T252 -314Q250 -326 240 -332T218 -337T196 -329T184 -309L249 -1ZM70 679Q65 695 78 706T108 719T141 713T156 679Q156 673 152 665T142 649T128 637T113 636Q106 631 98 633T82 642T72 658T70 679ZM208 682Q211 702 226 713T258 724T289 713T303
679Q303 673 299 665T289 649T275 637T260 636Q253 631 243 634T225 644T211 661T208 682Z" />
<glyph unicode="&#x2013;" glyph-name="endash" horiz-adv-x="455" d="M66 265Q58 260 50 268T38 290T40 318T66 337L411 348Q421 348 426 341T432 322T431 298T423 279L66 265V265Z" />
<glyph unicode="&#x2014;" glyph-name="emdash" horiz-adv-x="626" d="M66 265Q58 260 50 268T38 290T40 318T66 337L569 334Q579 334 584 327T590 308T589 284T581 265H66V265Z" />
<glyph unicode="&#x2018;" glyph-name="quoteleft" horiz-adv-x="177" d="M66 713Q75 723 85 725T105 725T119 716T125 701L124 499Q123 492 115 488T97 483T78 488T66 506V713Z" />
<glyph unicode="&#x2019;" glyph-name="quoteright" horiz-adv-x="177" d="M66 713Q75 723 85 725T104 725T118 716T124 701L123 499Q122 492 114 488T97 483T78 488T66 506V713Z" />
<glyph unicode="&#x201a;" glyph-name="quotesinglbase" horiz-adv-x="177" d="M60 221Q69 231 80 233T100 232T116 221T122 206L121 4Q120 -3 112 -7T93 -11T73 -4T60 14V221Z" />
<glyph unicode="&#x201c;" glyph-name="quotedblleft" horiz-adv-x="242" d="M152 817Q161 827 172 829T192 829T207 820T213 805L212 603Q211 596 203 592T184 587T165 592T152 610V817ZM45 820Q54 830 65 832T86 832T102 823T109 808L108 606Q107 599 98 595T79
590T58 595T45 613V820Z" />
<glyph unicode="&#x201d;" glyph-name="quotedblright" horiz-adv-x="242" d="M152 817Q161 827 171 829T190 829T203 820T209 805L208 603Q207 596 199 592T182 587T164 592T152 610V817ZM49 820Q58 830 68 832T88 832T103 823T109 808L108 606Q107 599 99 595T80
590T61 595T49 613V820Z" />
<glyph unicode="&#x201e;" glyph-name="quotedblbase" horiz-adv-x="242" d="M146 220Q155 230 165 232T183 232T196 223T201 208L200 6Q199 -1 192 -5T175 -10T158 -5T146 13V220ZM41 223Q50 233 61 235T81 235T97 226T103 211L102 9Q101 2 93 -2T74 -7T54 -2T41
16V223Z" />
<glyph unicode="&#x2022;" glyph-name="bullet" horiz-adv-x="216" d="M44 353Q57 371 67 382T88 401T110 411T137 414Q186 414 186 353Q186 342 180 325T163 292T140 268T115 266Q103 256 89 260T64 277T46 311T44 353Z" />
<glyph unicode="&#x2039;" glyph-name="guilsinglleft" horiz-adv-x="466" d="M57 407Q58 409 58 410L395 690Q400 696 404 703T412 715T422 722T438 721Q453 716 455 703T452 676Q451 675 451 672Q451 671 450 670Q413 619 377 587T302 527T221 470T129 397L137
379Q138 377 161 362T215 328T280 288T335 256Q339 253 352 248T380 237T408 226T427 220Q430 208 431 200T428 182Q423 169 410 159T383 145Q367 160 334 180T263 223T184 270T113 317T65 363T55 403L57 407Z" />
<glyph unicode="&#x203a;" glyph-name="guilsinglright" horiz-adv-x="512" d="M52 164Q56 187 85 216T155 277T241 342T321 406T374 464T379 512L68 680Q64 683 59 693T53 709Q53 713 56 719T63 731T73 743T82 751L422 555Q449 537 446 507T418 439T356 362T274
285T188 215T115 161T70 132T68 136Q56 136 54 147T52 164Z" />
</font>
</defs>
</svg>
