<?xml version="1.0" standalone="no"?>
<!DOCTYPE svg PUBLIC "-//W3C//DTD SVG 1.1//EN" "http://www.w3.org/Graphics/SVG/1.1/DTD/svg11.dtd">
<svg xmlns="http://www.w3.org/2000/svg">
<defs >
<font id="PlayfairDisplay" horiz-adv-x="1147" ><font-face
    font-family="Playfair Display"
    units-per-em="2048"
    panose-1="0 0 5 0 0 0 0 0 0 0"
    ascent="2216"
    descent="-514"
    alphabetic="0" />
<glyph unicode=" " glyph-name="space" horiz-adv-x="518" />
<glyph unicode="!" glyph-name="exclam" horiz-adv-x="539" d="M234 569T264 728T339 1153T412 1522Q422 1560 446 1581T504 1602Q551 1602 574 1579T598 1519Q598 1499 590 1475Q566 1392 483 1166T339 766T229 401L193 408Q234 569 264 728ZM13 116T35 152T92
211T166 233Q212 233 241 203T270 126Q270 86 249 51T191 -7T116 -29Q71 -29 42 1T13 76Q13 116 35 152Z" />
<glyph unicode="&quot;" glyph-name="quotedbl" horiz-adv-x="606" d="M522 1151T528 1223T538 1333T551 1409Q561 1452 584 1473T637 1495Q700 1495 700 1427Q700 1390 685 1353T620 1228T538 1061H510Q522 1151 528 1223ZM299 1151T305 1223T315 1333T328 1409Q338
1452 361 1473T414 1495Q477 1495 477 1427Q477 1390 462 1353T397 1228T315 1061H287Q299 1151 305 1223Z" />
<glyph unicode="#" glyph-name="numbersign" horiz-adv-x="1309" d="M827 547H1120L1100 506H808L670 207H621L759 506H425L287 207H238L376 506H76L94 547H395L554 889H254L270 930H573L713 1233H762L622 930H956L1096 1233H1145L1005 930H1296L1280 889H986L827
547ZM603 889L444 547H778L937 889H603Z" />
<glyph unicode="$" glyph-name="dollar" horiz-adv-x="1128" d="M958 1432T989 1412T1061 1360Q1101 1329 1134 1270T1167 1145Q1167 1079 1134 1031T1044 983Q993 983 967 1022T940 1116Q940 1176 961 1226T1020 1333Q974 1380 902 1408L724 767Q799 697 848
640T929 516T961 373Q961 250 896 164T726 31T504 -26L436 -270H391L458 -29H442Q361 -29 295 -11L223 -270H178L254 2Q210 18 179 38T109 90Q63 125 33 182T2 305Q2 371 35 419T125 467Q177 467 203 429T229 334Q229 274 208 225T150 117Q195 71 265 44L453 719Q369
803 323 887T276 1079Q276 1193 329 1278T471 1413T663 1475L731 1720H776L709 1479H727Q806 1479 872 1462L944 1720H989L914 1449Q958 1432 989 1412ZM798 1440T729 1440L698 1439L557 930Q597 885 688 800L861 1422Q798 1440 729 1440ZM554 1415T498 1352T442
1180Q442 1077 523 971L651 1433Q554 1415 498 1352ZM373 12T449 12H469L620 555Q599 577 488 684L306 30Q373 12 449 12ZM626 30T688 93T750 268Q750 396 654 515L515 16Q626 30 688 93Z" />
<glyph unicode="%" glyph-name="percent" horiz-adv-x="1569" d="M-19 -86L1687 1688L1718 1661L12 -113L-19 -86ZM229 1203T285 1311T439 1489T653 1559Q761 1559 821 1503T881 1346Q881 1237 825 1129T672 951T459 881Q350 881 290 936T229 1094Q229 1203 285
1311ZM556 1522T495 1441T400 1248T367 1055Q367 918 473 918Q554 918 615 999T710 1192T743 1386Q743 1522 637 1522Q556 1522 495 1441ZM770 293T826 401T979 579T1194 649Q1301 649 1361 593T1421 436Q1421 327 1366 219T1213 41T999 -29Q891 -29 831 26T770
184Q770 293 826 401ZM1096 612T1035 531T940 338T907 145Q907 8 1014 8Q1095 8 1156 89T1251 283T1284 477Q1284 544 1257 578T1178 612Q1096 612 1035 531Z" />
<glyph unicode="&amp;" glyph-name="ampersand" horiz-adv-x="1673" d="M1024 303T862 303Q767 303 704 350T641 504Q641 623 726 701T981 842Q1028 859 1136 897T1344 973T1511 1044Q1612 1093 1667 1146T1722 1272Q1722 1321 1696 1361T1623 1425T1520 1448Q1466
1448 1454 1430Q1475 1418 1486 1397T1497 1352Q1497 1321 1478 1294T1428 1251T1362 1235Q1321 1235 1296 1258T1270 1321Q1270 1363 1298 1396T1372 1450Q1440 1479 1522 1479Q1640 1479 1709 1421T1778 1245Q1778 1141 1719 1061T1528 915Q1436 870 1201 784Q1350
659 1350 477Q1350 341 1269 225T1033 40T668 -29Q488 -29 355 23T150 172T78 403Q78 523 135 628T292 808T518 918Q449 955 412 1016T375 1147Q375 1236 435 1302T590 1403T780 1438Q856 1438 913 1416T1001 1353T1032 1260Q1032 1210 1007 1176T941 1124T858
1106L862 1143Q919 1143 954 1173T989 1255Q989 1323 933 1364T791 1405Q708 1405 642 1366T539 1257T502 1100Q502 1005 547 930Q620 942 676 942Q750 942 750 899Q750 877 731 867T686 856Q635 856 545 901Q452 874 381 814T271 672T231 498Q231 378 297 294T479
166T745 123Q904 123 1032 170T1235 304T1309 504Q1309 579 1275 651T1171 773Q961 696 911 676Q819 640 758 594T696 473Q696 410 746 373T870 336Q951 336 1002 376T1079 457L1106 438Q1024 303 862 303Z" />
<glyph unicode="&apos;" glyph-name="quotesingle" horiz-adv-x="383" d="M299 1151T305 1223T315 1333T328 1409Q338 1452 361 1473T414 1495Q477 1495 477 1427Q477 1390 462 1353T397 1228T315 1061H287Q299 1151 305 1223Z" />
<glyph unicode="(" glyph-name="parenleft" horiz-adv-x="739" d="M311 -245T236 -124T120 140T78 457Q78 679 193 900T508 1314T965 1651L985 1624Q625 1381 431 1092T236 434Q236 -30 461 -346L424 -373Q311 -245 236 -124Z" />
<glyph unicode=")" glyph-name="parenright" horiz-adv-x="739" d="M447 1523T522 1402T638 1138T680 821Q680 599 565 378T250 -36T-207 -373L-227 -346Q133 -103 327 186T522 844Q522 1308 297 1624L334 1651Q447 1523 522 1402Z" />
<glyph unicode="*" glyph-name="asterisk" horiz-adv-x="1014" d="M1048 1264T1048 1257Q1048 1203 961 1157Q925 1140 884 1128T763 1096T635 1063Q679 1049 751 1029T859 996T920 967Q969 936 969 894Q969 866 950 844Q927 812 887 812Q854 812 819 836Q793
852 770 877T704 956T632 1044Q634 988 637 917T641 809Q641 767 637 739Q622 682 594 656T532 629Q509 629 495 645T480 695Q480 718 485 739Q492 779 511 825T564 938T622 1055H621Q568 1012 508 961T409 881T338 834Q291 811 258 811Q215 811 203 846Q199 858
199 865Q199 916 287 965Q323 982 364 994T484 1026T611 1059Q568 1073 497 1093T389 1126T328 1155Q278 1186 278 1229Q278 1256 297 1278Q320 1310 361 1310Q394 1310 428 1286Q454 1269 477 1244T545 1162T622 1068Q620 1105 614 1182T607 1307Q607 1353 612
1382Q625 1439 653 1466T713 1493Q737 1493 752 1477T767 1426Q767 1403 762 1382Q756 1346 740 1305T688 1190T634 1072Q687 1116 746 1165T841 1242T909 1288Q956 1311 989 1311Q1032 1311 1044 1276Q1048 1264 1048 1257Z" />
<glyph unicode="+" glyph-name="plus" horiz-adv-x="1198" d="M743 1241H817L680 758H1155L1137 696H662L524 215H451L588 696H111L129 758H606L743 1241Z" />
<glyph unicode="," glyph-name="comma" horiz-adv-x="516" d="M50 -187T107 -117T170 23Q111 -29 63 -29Q27 -29 7 -10T-14 43Q-14 86 13 130T85 204T174 233Q219 233 241 198T264 113Q264 42 228 -30T124 -165T-37 -274L-47 -246Q50 -187 107 -117Z" />
<glyph unicode="-" glyph-name="hyphen" horiz-adv-x="1032" d="M848 461H109L139 580H879L848 461Z" />
<glyph unicode="." glyph-name="period" horiz-adv-x="500" d="M-3 116T19 152T76 211T150 233Q196 233 225 203T254 126Q254 86 233 51T175 -7T100 -29Q55 -29 26 1T-3 76Q-3 116 19 152Z" />
<glyph unicode="/" glyph-name="slash" horiz-adv-x="958" d="M1108 1479L-14 -29H-82L1040 1479H1108Z" />
<glyph unicode="0" glyph-name="zero" horiz-adv-x="1157" d="M886 1083T968 988T1051 721Q1051 538 962 364T723 80T399 -29Q296 -29 220 13T104 137T63 336Q63 518 156 692T403 974T729 1083Q886 1083 968 988ZM580 1047T479 944T315 671T252 317Q252 8 438
8Q553 8 650 116T805 398T862 752Q862 910 817 978T690 1047Q580 1047 479 944Z" />
<glyph unicode="1" glyph-name="one" horiz-adv-x="700" d="M147 0L410 887Q289 819 102 762L109 805Q228 841 317 885T467 972T602 1077H643L326 0H147Z" />
<glyph unicode="2" glyph-name="two" horiz-adv-x="1030" d="M483 613T424 589T309 565Q246 565 201 596T156 705Q156 795 220 882T392 1025T623 1081Q749 1081 824 1028T899 879Q899 736 753 597T428 334T211 178Q268 178 366 161T529 132T645 121Q786 121 786
219Q786 294 696 336L723 362Q836 310 836 201Q836 144 809 96T725 18T580 -12Q514 -12 431 8T296 39T176 50Q115 50 68 39T-43 0L-33 43Q3 71 219 223T574 538T713 856Q713 940 673 988T555 1036Q481 1036 399 987T261 862T205 707Q205 656 233 632T324 608Q377
608 419 628T512 692L537 664Q483 613 424 589Z" />
<glyph unicode="3" glyph-name="three" horiz-adv-x="993" d="M412 633T328 633Q264 633 219 663T174 772Q174 847 235 920T399 1040T621 1087Q747 1087 822 1034T897 885Q897 797 832 721T670 592T473 512Q566 510 640 483T758 404T801 279Q801 103 646 -30T265
-234T-164 -309L-154 -272Q22 -261 198 -193T492 0T610 293Q610 375 564 425T436 479Q388 460 364 452T317 444Q281 444 281 465Q281 467 283 475Q291 513 380 513Q406 513 420 512Q502 543 570 596T680 716T721 858Q721 944 676 993T553 1042Q483 1042 405 1003T275
901T223 774Q223 724 251 700T342 676Q411 676 469 707L492 676Q412 633 328 633Z" />
<glyph unicode="4" glyph-name="four" horiz-adv-x="1055" d="M583 70L487 -289H309L405 70H-104L-92 113L801 1083H854L614 186H889L856 70H583ZM603 813L29 186H436L603 813Z" />
<glyph unicode="5" glyph-name="five" horiz-adv-x="940" d="M796 862T618 862Q593 862 568 871T488 908T403 935Q395 935 391 934L162 465Q228 500 296 517T449 535Q606 535 684 471T762 301Q762 113 612 -21T246 -226T-166 -303L-156 -266Q10 -265 177 -198T456
-4T567 297Q567 379 515 426T352 473Q244 473 125 418L104 428L412 1061Q466 1064 520 1047T610 1020T705 1010Q821 1010 874 1102L899 1087Q796 862 618 862Z" />
<glyph unicode="6" glyph-name="six" horiz-adv-x="1079" d="M888 1391T697 1223T383 807T260 281Q260 131 297 72T408 12Q516 12 600 112T730 358T776 631Q776 838 643 838Q576 838 512 780T401 588L369 600Q419 759 512 828T711 897Q788 897 846 861T936 756T969
590Q969 431 887 288T668 58T375 -29Q221 -29 148 63T74 338Q74 628 238 876T638 1282T1073 1479L1085 1438Q888 1391 697 1223Z" />
<glyph unicode="7" glyph-name="seven" horiz-adv-x="997" d="M1052 978T869 767T567 368T389 -37Q378 -75 369 -128T354 -199Q341 -243 308 -273T227 -303Q163 -303 163 -234Q163 -216 168 -188Q200 -1 363 221T730 671T983 960Q853 872 682 872Q625 872 581
880T459 910T326 932Q246 932 198 897T150 795Q150 709 219 652T434 559L422 528Q100 590 100 817Q100 879 131 936T228 1029T389 1065Q452 1065 505 1052T668 1001T865 962Q926 962 972 982T1055 1053H1108Q1052 978 869 767Z" />
<glyph unicode="8" glyph-name="eight" horiz-adv-x="1114" d="M1100 1025T694 811Q776 732 823 679T904 553T938 395Q938 268 864 172T663 24T383 -29Q217 -29 119 36T20 236Q20 403 164 536T511 758Q451 816 412 864T347 972T322 1102Q322 1212 392 1298T575
1431T811 1479Q941 1479 1020 1424T1100 1262Q1100 1025 694 811ZM742 881T802 950T898 1101T934 1268Q934 1442 774 1442Q698 1442 633 1405T530 1300T492 1147Q492 1087 515 1034T576 935T671 833Q742 881 802 950ZM756 431T726 497T653 613T535 735Q437 681
362 600T244 419T201 217Q201 118 247 63T401 8Q494 8 575 49T706 168T756 352Q756 431 726 497Z" />
<glyph unicode="9" glyph-name="nine" horiz-adv-x="1051" d="M609 293T516 225T317 156Q240 156 182 191T92 296T59 463Q59 621 141 764T360 994T653 1081Q807 1081 880 990T954 715Q954 434 793 195T401 -196T-25 -385L-37 -344Q155 -299 342 -138T648 264T768
772Q768 922 731 981T621 1040Q512 1040 428 940T298 695T252 422Q252 215 385 215Q452 215 516 273T627 465L659 453Q609 293 516 225Z" />
<glyph unicode=":" glyph-name="colon" horiz-adv-x="569" d="M32 116T54 152T111 211T185 233Q231 233 260 203T289 126Q289 86 268 51T210 -7T135 -29Q90 -29 61 1T32 76Q32 116 54 152ZM237 964T259 1000T316 1059T390 1081Q436 1081 465 1051T494 974Q494
934 473 899T415 841T340 819Q295 819 266 849T237 924Q237 964 259 1000Z" />
<glyph unicode=";" glyph-name="semicolon" horiz-adv-x="588" d="M239 964T261 1000T318 1059T392 1081Q438 1081 467 1051T496 974Q496 934 475 899T417 841T342 819Q297 819 268 849T239 924Q239 964 261 1000ZM91 -187T148 -117T211 23Q152 -29 104 -29Q68
-29 48 -10T27 43Q27 86 54 130T126 204T215 233Q260 233 282 198T305 113Q305 42 269 -30T165 -165T4 -274L-6 -246Q91 -187 148 -117Z" />
<glyph unicode="&lt;" glyph-name="less" horiz-adv-x="1233" d="M258 719L936 362L903 297L104 727L1235 1192L1255 1133L258 719Z" />
<glyph unicode="=" glyph-name="equal" horiz-adv-x="1358" d="M1270 901L1251 840H225L244 901H1270ZM1188 614L1169 553H143L162 614H1188Z" />
<glyph unicode="&gt;" glyph-name="greater" horiz-adv-x="1233" d="M1049 770L291 1176L324 1235L1202 762L127 317L106 377L1049 770Z" />
<glyph unicode="?" glyph-name="question" horiz-adv-x="897" d="M569 1567T504 1541T424 1466Q443 1461 459 1438T475 1384Q475 1340 444 1312T367 1284Q326 1284 306 1307T285 1370Q285 1436 340 1489T485 1572T670 1602Q807 1602 890 1539T973 1360Q973 1295
942 1230T836 1089T635 913Q579 871 479 797T342 673T305 561Q305 499 340 460T451 420Q511 420 568 444T647 510Q628 512 611 534T594 582Q594 614 620 640T686 666Q717 666 736 649T756 594Q756 533 703 485T570 411T412 385Q304 385 240 436T176 584Q176 690
250 770T424 925T557 1024Q659 1102 714 1154T796 1258T823 1374Q823 1462 777 1514T637 1567Q569 1567 504 1541ZM218 116T240 152T297 211T371 233Q417 233 446 203T475 126Q475 86 454 51T396 -7T321 -29Q276 -29 247 1T218 76Q218 116 240 152Z" />
<glyph unicode="@" glyph-name="at" horiz-adv-x="1737" d="M1072 -265T959 -297T713 -330Q517 -330 371 -264T142 -58T59 293Q59 566 192 815T553 1216T1049 1368Q1234 1368 1377 1309T1604 1123T1688 805Q1688 588 1593 416T1359 149T1094 53Q946 53 946 186Q946
234 965 300Q903 173 832 113T662 53Q552 53 502 120T451 301Q451 453 531 612T735 875T983 979Q1045 979 1079 948T1118 846L1147 950Q1264 950 1331 979L1114 227Q1101 185 1101 157Q1101 128 1115 116T1161 104Q1239 104 1356 191T1560 439T1647 807Q1647 989
1568 1106T1354 1277T1051 1331Q804 1331 585 1189T233 808T100 297Q100 93 178 -39T394 -232T715 -293Q952 -293 1137 -182L1151 -209Q1072 -265 959 -297ZM1100 932T991 932Q896 932 812 839T676 601T625 313Q625 115 731 115Q808 115 880 221T1034 546L1102
788Q1100 932 991 932Z" />
<glyph unicode="A" glyph-name="A" horiz-adv-x="1288" d="M1037 105T1066 74T1133 41L1124 0Q1042 6 901 6Q736 6 655 0L664 41Q734 44 772 58T826 108T840 213L821 549H318L164 332Q68 196 68 128Q68 44 219 41L209 0Q95 6 -25 6Q-114 6 -178 0L-168 41Q-74
61 37 219L920 1460H950L1032 172Q1037 105 1066 74ZM785 1209L347 590H819L785 1209Z" />
<glyph unicode="B" glyph-name="B" horiz-adv-x="1294" d="M395 1444T555 1444Q601 1444 696 1446T844 1448Q1034 1448 1131 1378T1229 1186Q1229 1086 1170 1003T1016 860T809 766Q1145 711 1145 432Q1145 293 1057 195T829 49T535 0Q486 0 372 3T182 6Q19 6
-68 0L-59 41Q15 44 51 57T110 105T152 217L422 1233Q439 1301 439 1331Q439 1372 409 1390T301 1409L311 1450Q395 1444 555 1444ZM623 770Q742 770 834 825T976 973T1026 1171Q1026 1293 974 1351T805 1409Q743 1409 709 1397T654 1355T618 1264L488 770H623ZM323
144T323 117Q323 79 350 63T446 47Q707 47 823 152T940 463Q940 735 647 735H479L342 217Q323 144 323 117Z" />
<glyph unicode="C" glyph-name="C" horiz-adv-x="1372" d="M1390 1273T1327 979H1282Q1294 1059 1294 1119Q1294 1215 1262 1282Q1224 1358 1152 1400T993 1442Q823 1442 665 1282T408 880T309 410Q309 212 386 110T602 8Q692 8 792 50T967 168Q1019 221 1058
292T1151 492H1196Q1103 152 1075 0H1030Q1036 44 1036 70Q1036 122 1012 122Q996 122 969 104Q896 57 847 31T732 -12T582 -29Q354 -29 229 94T104 453Q104 689 222 928T545 1323T997 1479Q1080 1479 1136 1461T1226 1417T1303 1346Q1321 1328 1334 1328Q1370
1328 1415 1450H1458Q1390 1273 1327 979Z" />
<glyph unicode="D" glyph-name="D" horiz-adv-x="1485" d="M415 1443T505 1443L555 1444Q837 1450 864 1450Q1152 1450 1297 1335T1442 997Q1442 741 1316 511T967 141T471 0Q443 0 338 3T184 6Q19 6 -61 0L-55 41Q15 44 50 57T108 105T150 217L418 1233Q437 1307
437 1334Q437 1374 407 1390T299 1409L305 1450Q415 1443 505 1443ZM321 142T321 112Q321 73 349 55T446 37Q700 37 880 175T1153 544T1245 1049Q1245 1234 1141 1323T807 1413Q743 1413 707 1399T649 1347T608 1237L340 213Q321 142 321 112Z" />
<glyph unicode="E" glyph-name="E" horiz-adv-x="1249" d="M514 1444T907 1444Q1194 1444 1315 1450Q1261 1302 1237 1208Q1214 1128 1208 1081H1161Q1179 1191 1179 1246Q1179 1305 1160 1338T1097 1387T973 1403H823Q750 1403 714 1391T655 1345T612 1233L483
750H618Q720 750 771 811T847 936T881 1020H928Q886 891 868 819T844 729Q817 633 778 438H731Q733 452 740 497T747 577Q747 640 716 674T606 709H472L340 217Q322 153 322 118Q322 88 336 73T379 53T461 47H610Q738 47 813 81T939 190T1042 410H1090Q1070 360
1044 262Q1014 152 989 0Q850 6 520 6Q127 6 -72 0L-61 41Q13 44 49 57T107 105T150 217L422 1233Q440 1298 440 1333Q440 1363 427 1378T385 1400T303 1409L313 1450Q514 1444 907 1444Z" />
<glyph unicode="F" glyph-name="F" horiz-adv-x="1159" d="M514 1444T907 1444Q1194 1444 1315 1450Q1262 1301 1231 1188Q1209 1112 1192 1020H1145Q1168 1156 1168 1224Q1168 1291 1147 1329T1074 1385T932 1403H823Q750 1403 714 1391T655 1345T612 1233L477
729H627Q731 729 782 791T857 917T889 999H936Q895 874 876 802T852 709Q809 528 786 418H739Q742 436 749 481T756 560Q756 621 725 654T616 688H466L340 217Q324 156 324 126Q324 92 341 75T395 50T500 41L489 0Q383 6 188 6Q15 6 -72 0L-61 41Q13 44 49 57T107
105T150 217L422 1233Q440 1298 440 1333Q440 1363 427 1378T385 1400T303 1409L313 1450Q514 1444 907 1444Z" />
<glyph unicode="G" glyph-name="G" horiz-adv-x="1444" d="M1331 1067T1331 1133Q1331 1227 1303 1282Q1260 1357 1175 1399T987 1442Q775 1442 618 1264T377 834T293 373Q293 189 380 101T647 12Q714 12 775 31T881 76Q922 100 942 131T975 205L1022 385Q1040
453 1040 491Q1040 527 1023 545T971 571T868 582L879 623Q978 616 1165 616Q1311 616 1380 623L1370 582Q1321 578 1297 566T1257 519T1219 406L1110 0H1069Q1075 32 1075 54Q1075 117 1044 117Q1031 117 1017 111T967 82Q881 27 798 -1T618 -29Q368 -29 235 93T102
440Q102 677 218 919T539 1320T999 1479Q1084 1479 1145 1462T1248 1417T1335 1346Q1354 1327 1371 1327Q1410 1327 1452 1450H1497Q1429 1273 1366 979H1321Q1331 1067 1331 1133Z" />
<glyph unicode="H" glyph-name="H" horiz-adv-x="1546" d="M1250 1444T1415 1444Q1590 1444 1679 1450L1669 1409Q1594 1406 1558 1393T1500 1345T1458 1233L1188 217Q1170 147 1170 117Q1170 87 1183 72T1226 50T1309 41L1300 0Q1214 6 1038 6Q874 6 778 0L786
41Q860 44 897 57T955 105T997 217L1128 709H471L340 217Q323 151 323 118Q323 88 336 72T379 50T461 41L453 0Q357 6 193 6Q22 6 -68 0L-57 41Q15 44 51 57T108 105T150 217L420 1233Q437 1298 437 1331Q437 1362 423 1378T381 1400T299 1409L309 1450Q393 1444
569 1444Q733 1444 831 1450L821 1409Q746 1406 710 1393T652 1345T610 1233L482 750H1139L1268 1233Q1286 1296 1286 1331Q1286 1362 1272 1378T1229 1400T1147 1409L1157 1450Q1250 1444 1415 1444Z" />
<glyph unicode="I" glyph-name="I" horiz-adv-x="698" d="M323 151T323 118Q323 88 336 72T379 50T461 41L453 0Q357 6 193 6Q22 6 -68 0L-57 41Q15 44 51 57T108 105T150 217L420 1233Q437 1298 437 1331Q437 1362 423 1378T381 1400T299 1409L309 1450Q393 1444
569 1444Q734 1444 831 1450L821 1409Q746 1406 710 1393T652 1345T610 1233L340 217Q323 151 323 118Z" />
<glyph unicode="J" glyph-name="J" horiz-adv-x="1303" d="M834 879T918 984T1102 1175T1337 1358Q1100 1235 932 1235Q833 1235 732 1273T571 1331T428 1350Q360 1350 326 1314T295 1214Q296 1154 335 1117T446 1065L440 1024Q347 1040 283 1097T215 1262Q212
1335 240 1392T323 1481T453 1513Q528 1513 587 1486T764 1376T991 1294Q1057 1294 1113 1305T1220 1334T1354 1386Q1431 1506 1481 1506Q1495 1506 1509 1495Q1522 1484 1522 1470Q1522 1420 1372 1364Q1085 1172 946 750H1149L1143 709H933Q922 670 911 629L784
133Q726 -96 605 -240T301 -385Q205 -385 149 -355T92 -268Q92 -239 106 -213T147 -169T205 -152Q242 -152 266 -176T291 -237Q291 -271 268 -298T209 -342Q239 -352 281 -352Q413 -352 477 -223T583 72T639 297L700 537Q723 628 757 709H485L492 750H775Q834 879
918 984Z" />
<glyph unicode="K" glyph-name="K" horiz-adv-x="1382" d="M791 483T791 519Q791 610 773 655T716 734Q644 715 598 715Q535 715 535 756Q535 797 596 797Q638 797 721 776Q869 794 940 895T1077 1188T1204 1432Q1265 1479 1327 1479Q1390 1479 1419 1449T1448
1369Q1448 1342 1436 1309T1397 1251T1329 1227Q1289 1227 1269 1251T1249 1309Q1249 1338 1268 1373T1315 1436H1309Q1268 1434 1235 1407Q1182 1359 1117 1175T980 883T756 757Q830 740 874 715T944 628T970 455L969 420L961 188L960 164Q960 124 973 104T1022
84Q1074 84 1109 122T1174 244L1208 348H1249L1196 190Q1158 78 1097 25T946 -29Q773 -29 773 174Q773 197 774 209L788 440Q791 483 791 519ZM323 151T323 118Q323 88 336 72T379 50T461 41L453 0Q357 6 193 6Q22 6 -68 0L-57 41Q15 44 51 57T108 105T150 217L420
1233Q437 1298 437 1331Q437 1362 423 1378T381 1400T299 1409L309 1450Q393 1444 569 1444Q733 1444 831 1450L821 1409Q746 1406 710 1393T652 1345T610 1233L340 217Q323 151 323 118Z" />
<glyph unicode="L" glyph-name="L" horiz-adv-x="1200" d="M1083 396T1044 262Q1014 152 989 0Q850 6 520 6Q127 6 -72 0L-61 41Q13 44 49 57T107 105T150 217L422 1233Q440 1298 440 1333Q440 1363 427 1378T385 1400T303 1409L313 1450Q400 1444 575 1444Q740
1444 836 1450L825 1409Q750 1406 714 1393T655 1345T612 1233L340 217Q322 153 322 118Q322 88 336 73T379 53T461 47H610Q738 47 814 83T941 198T1049 430H1096Q1083 396 1044 262Z" />
<glyph unicode="M" glyph-name="M" horiz-adv-x="1778" d="M1812 1444T1911 1450L1901 1409Q1826 1406 1790 1393T1732 1345T1690 1233L1419 217Q1402 152 1402 119Q1402 88 1416 72T1458 50T1540 41L1532 0Q1436 6 1278 6Q1098 6 1012 0L1020 41Q1095 44 1131
57T1189 105T1231 217L1528 1321L678 -10H633L494 1337L203 238Q185 168 185 135Q185 85 219 65T340 41L330 0Q260 6 123 6Q1 6 -70 0L-59 41Q13 44 51 61T112 119T156 238L422 1233Q439 1298 439 1331Q439 1362 425 1378T383 1400T301 1409L311 1450Q376 1444
494 1444Q603 1444 674 1450L786 236L1556 1444H1655Q1812 1444 1911 1450Z" />
<glyph unicode="N" glyph-name="N" horiz-adv-x="1577" d="M1187 715T1271 1001T1442 1413Q1532 1544 1663 1544Q1729 1544 1757 1515T1786 1440Q1786 1404 1772 1370T1731 1314T1665 1292Q1624 1292 1606 1316T1587 1372Q1587 1405 1606 1439T1653 1501H1647Q1547
1498 1479 1397Q1388 1261 1290 920T1067 -10H1022L555 1309Q454 793 365 439T195 -23Q148 -83 99 -117T-25 -152Q-147 -152 -147 -45Q-147 -10 -133 23T-92 78T-27 100Q15 100 33 76T51 20Q51 -13 33 -47T-14 -109H-8Q98 -105 162 -2Q240 121 323 442T506 1278Q510
1302 510 1324Q510 1358 496 1375T448 1400T352 1409L362 1450Q428 1444 545 1444Q641 1444 711 1450L1098 318Q1187 715 1271 1001Z" />
<glyph unicode="O" glyph-name="O" horiz-adv-x="1493" d="M111 695T220 932T524 1324T965 1479Q1116 1479 1224 1421T1390 1252T1448 985Q1448 754 1338 518T1032 126T592 -29Q441 -29 333 29T168 197T111 463Q111 695 220 932ZM792 1442T649 1295T417 913T328
436Q328 304 363 208T463 60T610 8Q765 8 908 155T1140 537T1229 1014Q1229 1146 1193 1242T1093 1390T946 1442Q792 1442 649 1295Z" />
<glyph unicode="P" glyph-name="P" horiz-adv-x="1206" d="M395 1444T563 1444Q612 1444 711 1446T862 1448Q1063 1448 1166 1366T1270 1139Q1270 979 1173 853T899 654T498 582H437L340 217Q320 139 320 114Q320 76 350 60T461 41L453 0Q357 6 199 6Q19 6 -68
0L-59 41Q15 44 51 57T110 105T152 217L422 1233Q440 1298 440 1331Q440 1373 410 1390T301 1409L311 1450Q395 1444 563 1444ZM805 623T934 772T1063 1171Q1063 1293 1001 1351T803 1409Q741 1409 707 1394T651 1342T610 1233L448 623H518Q805 623 934 772Z" />
<glyph unicode="Q" glyph-name="Q" horiz-adv-x="1599" d="M1370 102T1398 71T1427 -14Q1427 -104 1348 -190T1146 -331T903 -385Q803 -385 717 -346T562 -250T413 -107Q242 -168 121 -168Q20 -168 -36 -128T-92 -16Q-92 37 -60 78T30 143T158 166Q230 166 294
142T410 82T540 -15Q743 87 923 259T1215 637T1327 1042Q1327 1162 1287 1252T1167 1392T977 1442Q826 1442 707 1354T523 1126T457 838Q457 691 520 618T690 545Q780 545 854 594T970 718T1012 868Q1012 925 997 950Q976 908 934 883T846 858Q801 858 776 884T750
954Q750 1008 790 1043T891 1079Q964 1079 1008 1024T1053 879Q1053 778 997 691T839 551T612 498Q497 498 415 543T291 669T248 856Q248 1031 357 1174T643 1398T1012 1479Q1174 1479 1293 1428T1476 1282T1540 1055Q1540 848 1398 636T1032 248T572 -41Q652 -104
721 -147T878 -218T1073 -246Q1175 -246 1248 -215T1368 -106Q1339 -119 1305 -119Q1258 -119 1231 -91T1204 -20Q1204 11 1220 39T1263 85T1325 102Q1370 102 1398 71ZM246 -133T389 -81Q323 -11 281 28T191 94T96 121Q59 121 25 105T-31 59T-53 -12Q-53 -133
143 -133Q246 -133 389 -81Z" />
<glyph unicode="R" glyph-name="R" horiz-adv-x="1360" d="M1260 248L1251 221Q1215 92 1159 32T1008 -29Q947 -29 905 -5T843 61T822 150L823 168L840 397Q843 431 843 461Q843 548 812 595T700 665T465 688L340 217Q321 146 321 117Q321 76 351 59T461 41L453
0Q357 6 199 6Q19 6 -68 0L-59 41Q15 44 51 57T110 105T152 217L422 1233Q440 1298 440 1329Q440 1372 409 1390T301 1409L311 1450Q395 1444 563 1444Q612 1444 711 1446T862 1448Q1063 1448 1166 1371T1270 1159Q1270 1048 1205 955T1018 797T735 705Q769 701
807 694Q887 679 935 655T1009 585T1034 467Q1034 454 1032 424L1016 215Q1014 187 1014 173Q1014 47 1078 47Q1114 47 1141 88T1202 219L1212 248H1260ZM539 729Q815 729 939 849T1063 1171Q1063 1293 1001 1351T803 1409Q741 1409 707 1394T651 1342T610 1233L476
729H539Z" />
<glyph unicode="S" glyph-name="S" horiz-adv-x="1135" d="M1106 1284T1059 1047H1018Q1030 1104 1030 1163Q1030 1241 1000 1303T904 1403T739 1440Q610 1440 532 1374T453 1180Q453 1029 624 870T883 613T971 373Q971 239 894 149T699 15T453 -29Q345 -29 280
-3T162 66Q123 96 88 96Q64 96 47 72T4 -14H-37Q32 149 102 477H143Q132 416 128 383T125 311Q138 12 459 12Q598 12 679 75T760 268Q760 436 604 584T367 826T287 1079Q287 1205 351 1295T518 1432T737 1479Q821 1479 882 1459T1004 1393Q1051 1356 1071 1356Q1088
1356 1103 1381T1139 1464H1180Q1106 1284 1059 1047Z" />
<glyph unicode="T" glyph-name="T" horiz-adv-x="1350" d="M686 1421T588 1421Q410 1421 358 1386Q374 1365 384 1332T395 1268Q395 1221 369 1185T293 1149Q249 1149 226 1176T203 1251Q203 1358 311 1411Q407 1458 586 1458Q667 1458 742 1451T979 1423T1260
1401Q1351 1401 1412 1411T1523 1446Q1473 1497 1473 1561Q1473 1607 1498 1640T1573 1673Q1618 1673 1641 1645T1665 1575Q1665 1530 1639 1492T1569 1427Q1460 1360 1245 1360Q1154 1360 1035 1374L733 238Q715 174 715 134Q715 99 732 80T785 52T887 41L879
0Q771 6 573 6Q373 6 274 0L283 41Q370 44 417 62T492 120T543 238L852 1398Q686 1421 588 1421Z" />
<glyph unicode="U" glyph-name="U" horiz-adv-x="1397" d="M1306 1268T1306 1303Q1306 1359 1271 1382T1155 1409L1165 1450Q1235 1444 1372 1444Q1495 1444 1565 1450L1554 1409Q1482 1406 1443 1388T1380 1330T1337 1212L1178 596Q1103 311 977 162Q902 74 792
23T557 -29Q338 -29 242 82Q170 162 170 290Q170 396 221 590L391 1233Q408 1298 408 1331Q408 1362 395 1378T352 1400T270 1409L283 1450Q365 1444 547 1444Q704 1444 803 1450L791 1409Q716 1406 679 1393T621 1345T580 1233L399 555Q354 378 354 278Q354 165
409 104T596 43Q811 43 934 182T1124 573L1292 1212Q1306 1268 1306 1303Z" />
<glyph unicode="V" glyph-name="V" horiz-adv-x="1294" d="M1244 1444T1364 1444Q1455 1444 1520 1450L1509 1409Q1400 1386 1303 1231L496 -10H465L303 1278Q295 1345 264 1376T197 1409L207 1450Q287 1444 428 1444Q584 1444 674 1450L664 1409Q600 1406 566
1398T514 1365T496 1290Q496 1277 500 1237L616 248L1184 1118Q1272 1253 1272 1321Q1272 1366 1235 1386T1120 1409L1130 1450Q1244 1444 1364 1444Z" />
<glyph unicode="W" glyph-name="W" horiz-adv-x="1847" d="M1759 1444T1880 1444Q1972 1444 2036 1450L2025 1409Q1904 1384 1831 1231L1219 -10H1186L1039 923L483 -10H451L289 1278Q271 1405 176 1409L184 1450Q268 1444 387 1444Q535 1444 608 1450L600 1409Q537
1405 510 1381T482 1290Q482 1267 485 1237L600 260L1029 986L983 1278Q963 1405 891 1409L899 1450Q972 1444 1081 1444Q1258 1444 1343 1450L1335 1409Q1273 1406 1240 1397T1190 1366T1174 1302Q1174 1275 1180 1237L1326 306L1726 1118Q1794 1254 1794 1318Q1794
1368 1756 1387T1636 1409L1647 1450Q1759 1444 1880 1444Z" />
<glyph unicode="X" glyph-name="X" horiz-adv-x="1432" d="M912 1016T1020 1172T1225 1407Q1318 1479 1413 1479Q1476 1479 1505 1450T1535 1373Q1535 1343 1522 1309T1482 1251T1413 1227Q1374 1227 1355 1249T1335 1305Q1335 1336 1353 1372T1401 1436H1395Q1324
1436 1264 1393Q1172 1326 1058 1167T839 781L893 317Q905 209 942 147T1055 84Q1115 84 1152 121T1219 244L1253 348H1294L1241 190Q1203 78 1142 25T991 -29Q857 -29 799 61T723 291L686 613Q632 501 556 389T398 186T242 43Q147 -29 53 -29Q-10 -29 -39 0T-69
77Q-69 107 -56 141T-16 199T53 223Q93 223 112 201T131 145Q131 115 113 78T66 14H74Q143 17 203 57Q309 127 437 287T678 680L625 1133Q612 1241 575 1303T463 1366Q403 1366 366 1329T299 1206L264 1102H223L276 1260Q315 1372 376 1425T526 1479Q660 1479 718
1390T795 1159L832 843Q912 1016 1020 1172Z" />
<glyph unicode="Y" glyph-name="Y" horiz-adv-x="1372" d="M288 1364T312 1402T373 1459T467 1479Q575 1479 641 1391T745 1146T809 737Q957 1109 1192 1346Q1325 1479 1434 1479Q1494 1479 1521 1448T1548 1369Q1548 1339 1535 1306T1495 1250T1427 1227Q1350
1227 1350 1308Q1350 1341 1368 1375T1415 1436H1409Q1354 1433 1296 1391Q1188 1313 1065 1140T828 692L709 217Q692 151 692 118Q692 88 705 72T747 50T829 41L819 0Q727 6 565 6Q385 6 297 0L307 41Q381 44 418 57T477 105T518 217L638 695Q565 1366 399 1366Q364
1366 341 1344T301 1270L244 1102H199L266 1300Q288 1364 312 1402Z" />
<glyph unicode="Z" glyph-name="Z" horiz-adv-x="1335" d="M1082 1200T915 1200Q828 1200 741 1238T602 1296T477 1315Q409 1315 374 1280T338 1180Q338 1060 485 1030L477 989Q385 1006 323 1062T260 1227Q260 1300 290 1357T376 1446T508 1479Q575 1479 626
1452T779 1342T977 1260Q1056 1260 1119 1281T1280 1352Q1317 1405 1357 1438T1430 1471Q1446 1471 1460 1460Q1472 1450 1472 1433Q1472 1405 1434 1371T1319 1307L752 750H1063L1047 709H711L131 139Q319 250 485 250Q572 250 660 212T799 154T924 135Q992 135
1027 170T1063 270Q1063 390 915 420L924 461Q1016 444 1078 388T1141 223Q1141 150 1111 93T1025 4T893 -29Q825 -29 774 -1T622 108T424 190Q345 190 282 169T121 98Q84 45 43 12T-30 -21Q-46 -21 -59 -10Q-71 0 -71 17Q-71 45 -33 79T82 143L658 709H326L340
750H699L1270 1311Q1082 1200 915 1200Z" />
<glyph unicode="[" glyph-name="bracketleft" horiz-adv-x="614" d="M784 1581L776 1542H610L141 -332H307L299 -371H-50L436 1581H784Z" />
<glyph unicode="\" glyph-name="backslash" horiz-adv-x="1008" d="M733 -29L270 1479H334L801 -29H733Z" />
<glyph unicode="]" glyph-name="bracketright" horiz-adv-x="614" d="M-170 -371L-162 -332H4L473 1542H307L315 1581H664L178 -371H-170Z" />
<glyph unicode="^" glyph-name="asciicircum" horiz-adv-x="1096" d="M841 704T743 771T592 905Q514 837 403 771T182 659L174 688Q321 751 451 857T662 1081H698Q716 963 789 857T977 688L952 659Q841 704 743 771Z" />
<glyph unicode="_" glyph-name="underscore" horiz-adv-x="1524" d="M1126 -327H-103L-82 -245H1149L1126 -327Z" />
<glyph unicode="`" glyph-name="grave" horiz-adv-x="457" d="M375 1299T333 1352T226 1484T133 1606Q112 1640 112 1671Q112 1712 145 1729Q160 1735 177 1735Q230 1735 266 1671Q291 1628 320 1552T378 1405T453 1239L426 1227Q375 1299 333 1352Z" />
<glyph unicode="a" glyph-name="a" horiz-adv-x="1071" d="M971 334L920 184Q878 70 815 21T684 -29Q646 -29 617 -15T571 25Q554 55 554 97Q554 127 561 159T576 221T586 260L623 409Q525 179 424 75T211 -29Q117 -29 68 38T18 219Q18 385 106 590T335 938T623
1081Q677 1081 712 1041T754 928L786 1053Q900 1056 975 1081L719 176Q704 122 704 100Q704 49 750 49Q840 49 907 258L932 334H971ZM729 851T729 864Q729 946 700 994T616 1042Q529 1042 431 907T266 571T199 195Q199 110 217 74T270 37Q327 37 406 124T562 358T689
670L727 819Q729 851 729 864Z" />
<glyph unicode="b" glyph-name="b" horiz-adv-x="1032" d="M447 881T541 981T741 1081Q840 1081 897 1008T954 793Q954 627 881 434T670 106T354 -29Q293 -29 247 7T182 108L8 -33L-23 -18Q2 30 16 100L375 1366Q383 1400 383 1421Q383 1463 352 1482T246 1501L256
1544Q365 1545 451 1566T616 1628L351 661Q447 881 541 981ZM232 71T267 45T352 18Q461 18 559 154T718 485T778 838Q778 926 753 971T682 1016Q627 1016 556 933T411 706T277 389L206 132Q232 71 267 45Z" />
<glyph unicode="c" glyph-name="c" horiz-adv-x="885" d="M677 174T613 112T470 10T307 -29Q181 -29 109 48T37 272Q37 438 115 629T334 950T655 1081Q716 1081 766 1060T847 1000T877 907Q877 867 859 829T808 767T731 743Q690 743 669 766T647 823Q647 881 692
923T801 977Q757 1040 662 1040Q559 1040 458 930T292 637T227 254Q227 154 265 106T371 57Q537 57 678 262L719 246Q677 174 613 112Z" />
<glyph unicode="d" glyph-name="d" horiz-adv-x="1110" d="M1006 332L958 182Q923 68 859 20T721 -29Q658 -29 625 4T592 99Q592 154 618 258L645 361Q548 155 449 63T238 -29Q138 -29 82 39T25 242Q25 411 114 609T355 944T686 1081Q726 1081 761 1055T811 983L913
1366Q922 1398 922 1421Q922 1462 890 1481T782 1501L795 1544Q904 1545 990 1566T1157 1628L756 174Q744 133 744 104Q744 47 793 47Q834 47 868 94T942 256L967 332H1006ZM784 983T755 1008T688 1034Q564 1034 453 902T275 576T207 215Q207 37 297 37Q356 37
435 120T592 344T721 646L797 930Q784 983 755 1008Z" />
<glyph unicode="e" glyph-name="e" horiz-adv-x="879" d="M665 174T601 112T458 10T295 -29Q168 -29 97 45T25 260Q25 415 116 610T362 943T700 1081Q766 1081 809 1046T852 946Q852 780 667 657T240 452Q217 350 217 254Q217 57 358 57Q533 57 674 262L707 246Q665
174 601 112ZM589 1042T508 966T357 762T249 491Q451 562 528 623Q604 682 646 766T688 950Q688 1005 680 1023T655 1042Q589 1042 508 966Z" />
<glyph unicode="f" glyph-name="f" horiz-adv-x="657" d="M378 1222T427 1327T543 1499Q590 1547 658 1574T799 1602Q890 1602 941 1561T993 1456Q993 1421 975 1389T926 1336T856 1315Q817 1315 795 1333T774 1384Q774 1433 806 1469T891 1522Q891 1541 864 1556T797
1571Q737 1571 678 1518Q636 1478 606 1392T550 1202T512 1055L511 1053H754L741 1012H500L133 -356Q25 -359 -51 -385L323 1012H137L150 1053H333L334 1055Q378 1222 427 1327Z" />
<glyph unicode="g" glyph-name="g" horiz-adv-x="920" d="M567 135T616 114T693 60T721 -20Q721 -100 652 -188T444 -338T113 -399Q-41 -399 -119 -359T-197 -250Q-197 -90 152 47Q74 80 74 154Q74 198 98 237T191 325T389 436Q260 439 186 495T111 659Q111 745
159 843T311 1011T573 1081Q631 1081 678 1071Q743 1175 811 1225Q878 1270 944 1270Q1032 1270 1032 1198Q1032 1169 1016 1142T974 1097T918 1079Q892 1079 876 1095T860 1139Q860 1180 887 1212Q883 1216 875 1216Q858 1216 825 1196Q771 1161 713 1062Q866
1015 866 852Q866 758 815 668T671 515T460 439Q427 421 357 383T252 317T217 264Q217 226 340 195L489 156Q567 135 616 114ZM517 473T578 544T661 714T684 911Q684 1044 563 1044Q459 1044 398 958T313 767T289 606Q289 535 320 504T412 473Q517 473 578 544ZM-25
-75T-25 -215Q-25 -287 29 -326T170 -365Q264 -365 360 -329T519 -232T582 -98Q582 -75 562 -65T507 -46T459 -33L184 37Q-25 -75 -25 -215Z" />
<glyph unicode="h" glyph-name="h" horiz-adv-x="1098" d="M944 182Q872 -29 696 -29Q552 -29 552 97Q552 159 586 258L780 844Q802 906 802 946Q802 1016 735 1016Q660 1016 573 922T399 655T235 257L160 0H-18L387 1366Q397 1401 397 1422Q397 1463 364 1482T256
1501L268 1544Q481 1547 637 1628L340 613Q416 782 489 885T639 1034T803 1081Q968 1081 968 926Q968 864 938 772L739 174Q724 124 724 96Q724 47 772 47Q813 47 851 93T930 256L956 332H995L944 182Z" />
<glyph unicode="i" glyph-name="i" horiz-adv-x="618" d="M384 1439T406 1475T463 1534T537 1556Q583 1556 612 1526T641 1449Q641 1409 620 1374T562 1316T487 1294Q442 1294 413 1324T384 1399Q384 1439 406 1475ZM339 924T339 954Q339 1006 295 1006Q248 1006
211 957T133 797L104 721H66L119 870Q161 987 229 1034T373 1081Q509 1081 509 953Q509 893 475 795L256 174Q240 130 240 99Q240 47 289 47Q331 47 368 93T449 256L477 332H516L463 182Q423 71 356 21T211 -29Q68 -29 68 96Q68 159 104 258L324 879Q339 924 339
954Z" />
<glyph unicode="j" glyph-name="j" horiz-adv-x="565" d="M378 1439T400 1475T457 1534T530 1556Q577 1556 606 1526T635 1449Q635 1441 633 1425Q622 1371 578 1333T481 1294Q436 1294 407 1324T378 1399Q378 1439 400 1475ZM172 -270T-86 -365Q-145 -385 -207
-385Q-253 -385 -278 -364T-303 -305Q-303 -276 -287 -247T-242 -199T-182 -180Q-151 -180 -133 -198T-115 -244Q-115 -299 -172 -354Q-94 -345 -48 -296T31 -133L315 879Q330 930 330 959Q330 1006 285 1006Q243 1006 206 958T129 797L102 721H63L113 870Q183
1081 365 1081Q501 1081 501 956Q501 902 471 795L313 236Q172 -270 -86 -365Z" />
<glyph unicode="k" glyph-name="k" horiz-adv-x="1055" d="M474 620T536 685T654 873T762 1034Q824 1081 885 1081Q951 1081 980 1048T1006 961Q1001 913 972 871T887 829Q846 829 827 853T807 912Q807 941 825 976T872 1038H868Q832 1038 793 1010Q750 975 698
864T595 686T438 597Q568 591 651 542T735 390Q735 364 729 336L688 131Q683 104 683 91Q683 47 729 47Q770 47 806 94T881 256L905 332H944L895 182Q827 -29 651 -29Q593 -29 556 4T519 104Q519 134 526 166L563 342Q572 384 572 418Q572 470 549 503T473 557T331
585L160 0H-18L387 1366Q397 1401 397 1422Q397 1463 364 1482T256 1501L268 1544Q481 1547 637 1628L338 609Q474 620 536 685Z" />
<glyph unicode="l" glyph-name="l" horiz-adv-x="567" d="M196 129T196 102Q196 47 244 47Q285 47 321 94T397 256L424 332H463L412 182Q338 -29 166 -29Q25 -29 25 104Q25 163 53 258L387 1366Q397 1403 397 1423Q397 1464 365 1482T258 1501L272 1544Q381 1545
467 1566T637 1628L209 174Q196 129 196 102Z" />
<glyph unicode="m" glyph-name="m" horiz-adv-x="1657" d="M1503 182Q1431 -29 1255 -29Q1164 -29 1128 27Q1111 54 1111 97Q1111 153 1145 258L1339 844Q1360 911 1360 952Q1360 1016 1315 1016Q1236 1016 1143 892T953 548T768 41L770 51L756 0H571L827 844Q848
909 848 949Q848 1016 791 1016Q716 1016 624 899T441 580T281 132L248 0H70L315 879Q330 930 330 954Q330 1006 287 1006Q241 1006 204 958T127 797L100 721H61L113 870Q185 1081 360 1081Q479 1081 479 958Q479 897 449 795L384 537Q466 738 541 857T692 1028T858
1081Q992 1081 992 937Q992 872 965 772L892 501Q978 715 1053 840T1207 1023T1382 1081Q1458 1081 1492 1040T1526 928Q1526 859 1497 772L1298 174Q1283 126 1283 96Q1283 47 1331 47Q1373 47 1411 93T1489 256L1516 332H1554L1503 182Z" />
<glyph unicode="n" glyph-name="n" horiz-adv-x="1188" d="M1034 182Q962 -29 786 -29Q694 -29 657 31Q641 57 641 98Q641 156 676 258L870 844Q891 905 891 945Q891 1016 825 1016Q746 1016 647 902T453 587T286 143L250 0H72L317 879Q332 928 332 956Q332 1006
287 1006Q256 1006 232 987T183 922T129 797L102 721H63L115 870Q187 1081 358 1081Q479 1081 479 960Q479 905 451 795L380 515Q468 723 549 847T714 1026T893 1081Q1058 1081 1058 927Q1058 866 1028 772L829 174Q813 126 813 97Q813 47 862 47Q904 47 942 93T1020
256L1047 332H1085L1034 182Z" />
<glyph unicode="o" glyph-name="o" horiz-adv-x="999" d="M43 454T114 639T321 953T635 1081Q766 1081 840 1000T915 760Q915 599 844 414T638 100T324 -29Q193 -29 118 52T43 293Q43 454 114 639ZM518 1040T425 907T275 574T219 190Q219 12 336 12Q441 12 534
145T683 477T739 862Q739 954 711 997T623 1040Q518 1040 425 907Z" />
<glyph unicode="p" glyph-name="p" horiz-adv-x="1128" d="M540 874T635 977T838 1081Q937 1081 994 1008T1051 793Q1051 627 978 434T767 106T451 -29Q395 -29 350 2T284 89L207 -180Q199 -209 199 -229Q199 -283 244 -305T373 -328L360 -371Q336 -370 253 -366T86
-362Q20 -362 -52 -366T-141 -371L-129 -328Q-79 -328 -50 -317T-2 -278T31 -201L414 1164Q353 1028 270 923T68 705L45 731Q142 826 205 899T334 1078T463 1336L471 1366Q583 1369 657 1395L443 646Q540 874 635 977ZM325 74T361 46T449 18Q558 18 656 154T814
485T874 838Q874 926 849 971T778 1016Q720 1016 644 923T490 672T352 328L299 141Q325 74 361 46Z" />
<glyph unicode="q" glyph-name="q" horiz-adv-x="1038" d="M660 -207T660 -233Q660 -328 793 -328L780 -371Q756 -370 672 -366T506 -362Q440 -362 368 -366T279 -371L291 -328Q354 -328 393 -317T455 -278T492 -201L633 338Q541 142 448 57T250 -29Q151 -29 94
44T37 260Q37 425 110 618T321 946T637 1081Q698 1081 744 1045T809 945L983 1085L1016 1071Q989 1019 973 952L668 -180Q660 -207 660 -233ZM759 982T724 1008T639 1034Q530 1034 432 898T273 567T213 215Q213 126 238 82T309 37Q365 37 439 113T583 317T699 591L785
922Q759 982 724 1008Z" />
<glyph unicode="r" glyph-name="r" horiz-adv-x="872" d="M458 736T524 855T659 1027T809 1081Q865 1081 897 1049T930 965Q930 925 910 891T857 837T786 817Q750 817 728 836T705 891Q705 983 797 1022Q789 1030 774 1030Q701 1030 618 922T451 620T291 171L248
0H70L315 879Q330 930 330 959Q330 1006 287 1006Q241 1006 204 958T127 797L100 721H61L113 870Q185 1081 360 1081Q478 1081 478 962Q478 929 471 893T449 795L383 535Q458 736 524 855Z" />
<glyph unicode="s" glyph-name="s" horiz-adv-x="780" d="M159 12T215 12Q308 12 365 67T422 223Q422 288 398 351T315 494Q266 561 243 597T201 683T182 791Q182 876 224 942T340 1044T500 1081Q606 1081 678 1042T750 903Q750 881 740 857T709 815T655 797Q620
797 597 821T573 883Q573 949 631 1020Q590 1044 528 1044Q450 1044 400 992T350 850Q350 796 368 758T420 671T473 594Q534 499 564 432T594 293Q594 200 546 127T418 12T242 -29Q124 -29 45 21T-35 174Q-35 210 -16 238T45 266Q91 266 113 229T135 137Q135 101
121 31Q159 12 215 12Z" />
<glyph unicode="t" glyph-name="t" horiz-adv-x="688" d="M241 150T241 128Q241 87 265 67T330 47Q381 47 425 91T512 252L541 332H580L537 203Q494 76 425 24T256 -29Q164 -29 119 16T73 141Q73 190 92 258L309 1012H125L135 1053H321L410 1364Q523 1367 594
1393L497 1053H768L762 1012H486L248 174Q241 150 241 128Z" />
<glyph unicode="u" glyph-name="u" horiz-adv-x="1161" d="M1061 332L1010 182Q936 -29 762 -29Q728 -29 700 -15T657 27Q645 52 645 90Q645 144 674 258L739 515Q657 317 581 198T427 25T260 -29Q87 -29 87 129Q87 193 117 281L315 879Q331 929 331 956Q331 1006
283 1006Q241 1006 203 960T125 797L98 721H59L111 870Q183 1081 358 1081Q502 1081 502 954Q502 898 469 795L274 209Q254 149 254 107Q254 37 319 37Q397 37 492 151T680 469T843 931L874 1053Q991 1056 1061 1081L807 174Q792 122 792 94Q792 47 836 47Q881
47 918 95T995 256L1022 332H1061Z" />
<glyph unicode="v" glyph-name="v" horiz-adv-x="1092" d="M549 878T457 676T346 260Q344 226 344 212Q344 39 434 39Q584 39 704 164T894 463T971 776Q903 810 859 866T821 997Q824 1041 851 1062T911 1083Q969 1083 998 1028T1027 876Q1027 843 1022 795Q997
583 915 395T694 89T375 -29Q254 -29 197 37T140 203L141 225Q153 394 281 600T616 1004Q579 990 516 951T415 893T346 874Q328 874 313 881T269 907T217 926Q185 926 164 899T117 799L94 723H55L100 872Q157 1081 293 1081Q332 1081 367 1055T424 1015T479 1001Q581
1001 651 1065L672 1104L715 1083Q549 878 457 676Z" />
<glyph unicode="w" glyph-name="w" horiz-adv-x="1403" d="M534 873T381 658T227 217Q227 118 256 76T340 33Q444 33 552 131Q537 183 537 252Q537 367 587 479T708 663T836 735Q876 735 891 693T907 592Q907 480 848 369T672 166Q718 31 836 31Q966 31 1057 131T1194
379T1240 666Q1240 746 1225 801Q1180 809 1136 831T1061 892T1030 983Q1030 1033 1056 1057T1116 1081Q1224 1081 1268 840Q1285 761 1285 669Q1285 503 1231 343T1062 77T780 -29Q619 -29 564 97Q427 -29 281 -29Q149 -29 88 37T27 205Q27 379 199 583T616 970Q593
956 550 930T474 889T416 874Q399 874 384 880T340 906T287 926Q254 926 232 898T186 799L162 723H123L170 872Q207 986 254 1033T360 1081Q399 1081 435 1055T494 1015T549 1001Q640 1001 713 1065L741 1104L784 1083Q534 873 381 658ZM787 690T746 637T676 501T647
334Q647 262 661 203Q752 279 806 384T860 594Q860 690 821 690Q787 690 746 637Z" />
<glyph unicode="x" glyph-name="x" horiz-adv-x="1077" d="M670 840T774 956Q832 1023 879 1052T979 1081Q1018 1081 1043 1061T1069 1006Q1069 966 1039 937T961 907Q892 907 831 956Q704 839 611 598L659 160Q667 108 684 87T729 66Q764 66 796 105T866 254L893
330H932L881 180Q805 -29 647 -29Q499 -29 477 160L447 426Q366 244 229 98Q166 32 118 2T23 -29Q-23 -29 -46 -9T-70 47Q-70 86 -39 115T37 145Q103 145 166 96Q250 174 321 282T439 498L395 893Q382 987 326 987Q292 987 260 947T188 799L162 723H123L174 872Q215
987 274 1034T408 1081Q483 1081 524 1039T578 893L601 682Q670 840 774 956Z" />
<glyph unicode="y" glyph-name="y" horiz-adv-x="985" d="M686 277T768 449T883 788Q820 821 774 869T727 977Q727 1026 756 1053T831 1081Q938 1081 938 915Q938 784 880 620T730 295T535 6Q343 -233 131 -334Q24 -385 -47 -385Q-91 -385 -120 -363T-150 -301Q-150
-259 -117 -234T-39 -209Q4 -209 44 -230T131 -289Q292 -204 438 -44L287 874Q276 937 262 962T221 987Q195 987 167 947T100 799L74 723H35L86 872Q158 1081 322 1081Q365 1081 394 1064T441 1006T469 893L574 123Q686 277 768 449Z" />
<glyph unicode="z" glyph-name="z" horiz-adv-x="911" d="M143 138T200 162T311 186Q360 186 414 166T506 134T588 121Q641 121 670 146T700 223Q700 277 656 316T539 371L551 401Q647 380 698 330T750 203Q750 145 726 97T648 18T512 -12Q442 -12 376 17T268
61T160 76Q103 76 60 60T-25 0H-80L844 973Q751 914 695 890T584 866Q535 866 481 886T389 919T307 932Q254 932 225 906T195 829Q195 775 239 736T356 682L344 651Q145 697 145 850Q145 908 169 956T247 1035T383 1065Q453 1065 519 1036T627 992T735 977Q792
977 835 993T920 1053H975L51 80Q143 138 200 162Z" />
<glyph unicode="{" glyph-name="braceleft" horiz-adv-x="627" d="M175 -385T114 -328T52 -164Q52 -81 94 89Q162 358 162 465Q161 527 138 555T66 586H56L62 623H72Q138 628 181 672T264 819T353 1121Q401 1311 459 1414T601 1559T817 1602L807 1563Q735 1562
696 1534T622 1416T537 1121Q494 948 429 842T288 683T117 605Q315 545 315 323Q315 231 279 89Q216 -164 219 -243Q219 -302 246 -323T336 -346L326 -385Q175 -385 114 -328Z" />
<glyph unicode="|" glyph-name="bar" horiz-adv-x="651" d="M305 -399V1757H387V-399H305Z" />
<glyph unicode="}" glyph-name="braceright" horiz-adv-x="627" d="M454 1602T515 1545T577 1381Q577 1298 535 1128Q467 859 467 752Q468 690 491 662T563 631H573L567 594H557Q491 589 448 545T365 398T276 96Q228 -94 170 -197T28 -342T-188 -385L-178 -346Q-106
-345 -67 -317T7 -199T92 96Q135 269 200 375T341 534T512 612Q314 672 314 894Q314 986 350 1128Q413 1381 410 1460Q410 1519 383 1540T293 1563L303 1602Q454 1602 515 1545Z" />
<glyph unicode="~" glyph-name="asciitilde" horiz-adv-x="1329" d="M1152 602T1063 544T860 485Q789 485 735 505T575 585T375 645Q242 645 168 526L139 537Q186 639 275 697T477 756Q548 756 602 736T762 656T963 596Q1095 596 1169 715L1198 705Q1152 602 1063 544Z" />
<glyph unicode="&#xa0;" glyph-name="nbspace" horiz-adv-x="518" />
<glyph unicode="&#xa1;" glyph-name="exclamdown" horiz-adv-x="510" d="M216 964T238 1000T295 1059T369 1081Q415 1081 444 1051T473 974Q473 934 452 899T394 841T319 819Q274 819 245 849T216 924Q216 964 238 1000ZM256 508T231 369T171 6T113 -305Q104 -344
79 -364T20 -385Q-26 -385 -49 -362T-73 -301Q-73 -279 -66 -258Q-45 -187 29 5T157 344T254 653L291 647Q256 508 231 369Z" />
<glyph unicode="&#xa2;" glyph-name="cent" horiz-adv-x="887" d="M649 1081Q710 1081 760 1060T841 1000T871 907Q871 867 853 829T802 767T725 743Q684 743 663 766T641 823Q641 881 686 923T795 977Q751 1040 656 1040Q636 1040 616 1036L353 57H365Q531 57
672 262L713 246Q674 178 615 119T482 19T330 -28L238 -371H193L285 -29Q166 -24 99 53T31 272Q31 427 99 606T294 918T582 1076L682 1450H727L628 1080L649 1081ZM476 976T397 862T269 587T221 254Q221 101 310 66L566 1018Q476 976 397 862Z" />
<glyph unicode="&#xa3;" glyph-name="sterling" horiz-adv-x="1278" d="M471 1177T621 1342T1016 1507Q1086 1507 1134 1488T1205 1438T1229 1368Q1229 1334 1213 1305T1167 1257T1102 1239Q1070 1239 1049 1258T1028 1309Q1028 1350 1055 1382T1126 1427Q1126
1447 1091 1462T1012 1477Q890 1477 813 1406T692 1230T602 952L576 854H854L842 813H565L522 649H799L786 608H510Q482 520 437 446T336 308T193 156Q332 221 451 221Q520 221 601 191T732 145T846 129Q892 129 932 148T997 201T1022 281Q1022 339 987 374T889
422L901 457Q990 441 1049 388T1108 248Q1108 181 1068 117T959 12T815 -29Q721 -29 631 35T487 131T352 164Q267 164 174 123Q122 51 70 11T-23 -29Q-37 -29 -43 -25T-49 -8Q-49 12 -25 40T46 95T154 141Q196 223 229 308T299 528L320 608H121L133 649H331L374
813H176L188 854H385L397 899Q471 1177 621 1342Z" />
<glyph unicode="&#xa4;" glyph-name="currency" horiz-adv-x="1165" d="M199 475T199 614Q199 755 287 860L197 950L254 1008L344 918Q451 1004 588 1004Q725 1004 831 915L924 1008L981 950L889 858Q975 749 975 614Q975 476 889 371L979 283L922 223L831 313Q722
227 588 227Q449 227 344 311L256 223L197 283L285 371Q199 475 199 614ZM283 530T324 459T436 345T588 303Q670 303 739 345T850 458T891 614Q891 697 850 769T739 884T588 928Q506 928 436 885T324 770T283 614Q283 530 324 459Z" />
<glyph unicode="&#xa5;" glyph-name="yen" horiz-adv-x="1440" d="M304 1364T328 1402T389 1459T483 1479Q591 1479 657 1391T761 1146T825 737Q973 1109 1208 1346Q1341 1479 1450 1479Q1510 1479 1537 1448T1564 1369Q1564 1339 1551 1306T1511 1250T1443 1227Q1366
1227 1366 1308Q1366 1341 1384 1375T1431 1436H1425Q1370 1433 1312 1391Q1205 1313 1082 1140T844 692L823 608H1112L1102 567H813L782 444H1067L1057 403H772L725 217Q708 151 708 118Q708 88 721 72T763 50T845 41L835 0Q744 6 581 6Q402 6 313 0L323 41Q397
44 434 57T493 105T534 217L581 403H293L303 444H591L622 567H338L348 608H632L654 695Q581 1366 415 1366Q380 1366 357 1344T317 1270L260 1102H215L282 1300Q304 1364 328 1402Z" />
<glyph unicode="&#xa6;" glyph-name="brokenbar" horiz-adv-x="659" d="M309 786V1757H391V786H309ZM391 668V-399H309V668H391Z" />
<glyph unicode="&#xa7;" glyph-name="section" horiz-adv-x="1040" d="M842 1404T876 1439T961 1489Q948 1530 894 1546T780 1563Q706 1563 640 1537T532 1449T489 1290Q489 1228 524 1172T599 1079T739 956Q813 894 857 848T927 750T952 639Q952 508 861 404T623
228Q711 127 711 18Q711 -93 648 -185T481 -331T260 -385Q193 -385 127 -366T17 -304T-27 -195Q-27 -160 -9 -128T41 -75T111 -55Q151 -55 175 -77T199 -137Q199 -186 165 -222T80 -272Q92 -311 148 -328T260 -346Q336 -346 401 -319T509 -231T551 -70Q551 -8 516
47T439 140T301 260Q227 323 183 369T113 467T88 578Q88 709 179 812T418 988Q330 1089 330 1198Q330 1309 393 1401T559 1548T780 1602Q845 1602 912 1583T1024 1521T1069 1417Q1069 1380 1051 1347T1002 1293T930 1272Q890 1272 866 1295T842 1358Q842 1404 876
1439ZM483 919T440 963Q221 846 221 692Q221 640 249 592T321 501T436 397Q556 298 600 253Q819 371 819 524Q819 577 791 626T719 717T604 819Q483 919 440 963Z" />
<glyph unicode="&#xa8;" glyph-name="dieresis" horiz-adv-x="799" d="M61 1420T80 1451T131 1502T199 1522Q242 1522 271 1492T301 1419Q301 1386 282 1355T232 1304T164 1284Q118 1284 90 1313T61 1389Q61 1420 80 1451ZM496 1420T515 1451T565 1502T633 1522Q676
1522 705 1492T735 1419Q735 1386 716 1355T666 1304T598 1284Q553 1284 525 1314T496 1389Q496 1420 515 1451Z" />
<glyph unicode="&#xa9;" glyph-name="copyright" horiz-adv-x="1892" d="M180 1008T289 1195T586 1492T995 1602Q1217 1602 1404 1493T1700 1196T1810 786Q1810 565 1701 378T1404 81T995 -29Q774 -29 587 80T290 377T180 786Q180 1008 289 1195ZM262 583T360
411T627 138T995 37Q1195 37 1363 138T1630 411T1729 786Q1729 990 1631 1162T1364 1435T995 1536Q796 1536 628 1435T361 1162T262 786Q262 583 360 411ZM1357 443T1310 379T1185 273T1006 231Q877 231 774 297T611 486T551 774Q551 940 611 1069T780 1271T1030
1343Q1116 1343 1192 1316T1315 1237T1362 1120Q1362 1067 1332 1037T1253 1006Q1206 1006 1174 1036T1141 1116Q1141 1158 1164 1185T1227 1221Q1207 1258 1154 1282T1042 1307Q967 1307 901 1260T793 1099T750 799Q750 630 789 523T894 368T1042 319Q1132 319
1211 370T1341 530L1380 516Q1357 443 1310 379Z" />
<glyph unicode="&#xaa;" glyph-name="ordfeminine" horiz-adv-x="930" d="M932 979L895 879Q866 799 822 768T711 737Q666 737 644 756T622 821Q622 864 641 930L666 1016Q528 737 358 737Q284 737 242 782T199 901Q199 1019 277 1156T474 1386T700 1479Q729 1479
751 1461T777 1405L793 1460Q876 1460 936 1479L743 881Q733 851 733 830Q733 797 766 797Q800 797 824 826T874 928L893 979H932ZM759 1430T711 1430Q640 1430 554 1350T408 1144T348 885Q348 839 361 814T399 788Q443 788 505 848T627 1008T723 1217L762 1352Q759
1430 711 1430Z" />
<glyph unicode="&#xab;" glyph-name="guillemotleft" horiz-adv-x="1059" d="M609 991T531 875T365 657T203 500Q260 453 319 359T425 159T492 -29H455Q274 324 49 498V502Q206 612 343 755T614 1081H651Q609 991 531 875ZM950 993T873 877T705 658T541 500Q597
453 656 359T763 159T829 -29H793Q612 324 387 498V502Q544 612 681 755T952 1081H989Q950 993 873 877Z" />
<glyph unicode="&#xac;" glyph-name="logicalnot" horiz-adv-x="1354" d="M1237 758L1116 338H1042L1145 696H193L211 758H1237Z" />
<glyph unicode="&#xad;" glyph-name="softhyphen" horiz-adv-x="1032" />
<glyph unicode="&#xae;" glyph-name="registered" horiz-adv-x="1432" d="M984 1602T1115 1525T1324 1317T1401 1030Q1401 875 1324 744T1116 536T829 459Q674 459 543 536T335 744T258 1030Q258 1185 335 1316T543 1525T829 1602Q984 1602 1115 1525ZM962 524T1073
592T1250 777T1315 1030Q1315 1167 1250 1283T1074 1467T829 1536Q696 1536 585 1468T409 1283T344 1030Q344 894 409 778T585 593T829 524Q962 524 1073 592ZM1075 805T1079 785T1090 755T1110 745Q1125 745 1135 762L1155 748Q1143 724 1122 715T1065 705Q1013
705 989 724T952 788L918 940Q909 981 895 999T846 1025T737 1034V827Q737 795 740 780T753 760T784 752V721Q764 721 738 722T680 723Q645 723 618 722T573 721V752Q594 754 603 759T617 780T621 827V1276Q621 1309 617 1324T604 1346T573 1354V1384Q598 1382
672 1382Q740 1382 783 1383T848 1384Q964 1384 1024 1342T1085 1223Q1085 1084 887 1049Q968 1040 1003 1012T1049 930L1073 813Q1075 805 1079 785ZM887 1067T922 1102T958 1202Q958 1281 926 1317T815 1354Q782 1354 766 1349T743 1329T737 1286V1067H786Q887
1067 922 1102Z" />
<glyph unicode="&#xaf;" glyph-name="overscore" horiz-adv-x="741" d="M236 1407L248 1458H887L874 1407H236Z" />
<glyph unicode="&#xb0;" glyph-name="degree" horiz-adv-x="686" d="M602 1679T659 1649T750 1563T784 1434Q784 1359 750 1303T659 1217T535 1186Q468 1186 412 1216T321 1303T287 1434Q287 1507 321 1563T411 1649T535 1679Q602 1679 659 1649ZM584 1221T629
1244T704 1316T733 1432Q733 1498 704 1546T629 1620T535 1645Q487 1645 442 1620T367 1547T338 1432Q338 1364 367 1316T441 1245T535 1221Q584 1221 629 1244Z" />
<glyph unicode="&#xb1;" glyph-name="plusminus" horiz-adv-x="1300" d="M1026 62L1007 0H-19L0 62H1026ZM786 1241H860L723 758H1198L1180 696H705L567 215H494L631 696H154L172 758H649L786 1241Z" />
<glyph unicode="&#xb2;" glyph-name="twosuperior" horiz-adv-x="698" d="M338 1456T420 1500T602 1544Q677 1544 720 1516T764 1427Q764 1338 683 1259T491 1103T352 1004Q375 1004 410 999T511 980T610 967Q653 967 680 986T707 1038Q707 1062 698 1077L733
1092Q754 1059 754 1026Q754 987 732 956T669 906T569 887Q526 887 478 898T390 917T301 925Q263 925 236 918T166 895L174 932Q194 945 329 1030T553 1208T643 1386Q643 1475 532 1475Q407 1475 313 1368L285 1391Q338 1456 420 1500Z" />
<glyph unicode="&#xb3;" glyph-name="threesuperior" horiz-adv-x="668" d="M346 1451T431 1497T612 1544Q686 1544 731 1516T776 1434Q776 1379 731 1331T620 1249T492 1200Q588 1197 651 1161T715 1049Q715 953 617 879T373 762T88 709V745Q212 755 328 796T518
906T592 1065Q592 1168 479 1171Q442 1151 414 1151Q377 1151 377 1178Q377 1215 467 1212Q555 1244 606 1293T657 1405Q657 1443 632 1462T561 1481Q439 1481 324 1366L295 1391Q346 1451 431 1497Z" />
<glyph unicode="&#xb4;" glyph-name="acute" horiz-adv-x="457" d="M316 1311T357 1365T463 1506T567 1634Q607 1680 651 1680Q676 1680 696 1665Q712 1649 712 1625Q712 1584 666 1538Q630 1500 560 1449T426 1349T281 1227L260 1245Q316 1311 357 1365Z" />
<glyph unicode="&#xb6;" glyph-name="paragraph" horiz-adv-x="1311" d="M908 -77T784 -231T477 -385Q383 -385 326 -356T268 -272Q268 -243 285 -214T330 -166T389 -147Q421 -147 439 -165T457 -211Q457 -277 385 -342Q415 -352 457 -352Q527 -352 576 -312T660
-201T725 -27Q386 -27 230 104T74 469Q74 737 202 962T552 1320T1038 1452Q1097 1452 1198 1449T1346 1446Q1427 1446 1468 1450L1458 1411Q1393 1408 1355 1393T1297 1349T1264 1272L979 190Q908 -77 784 -231ZM808 504T784 345T759 120Q759 98 762 98Q814 291
954 814T1096 1343Q1089 1343 1051 1257T963 1034T872 750Q728 750 596 744T378 730T291 719Q290 715 370 708T580 696T856 690Q808 504 784 345Z" />
<glyph unicode="&#xb7;" glyph-name="middot" horiz-adv-x="528" d="M112 528T134 564T191 623T265 645Q311 645 340 615T369 538Q369 498 348 463T290 405T215 383Q170 383 141 413T112 488Q112 528 134 564Z" />
<glyph unicode="&#xb8;" glyph-name="cedilla" horiz-adv-x="467" d="M281 -133T326 -133Q367 -133 390 -155T414 -215Q414 -271 375 -309T278 -366T162 -385Q109 -385 65 -372T-2 -340L12 -309Q42 -322 67 -329T135 -336Q162 -336 196 -326T257 -293T283 -231Q283
-182 225 -182Q192 -182 162 -197L256 0H311L242 -147Q281 -133 326 -133Z" />
<glyph unicode="&#xb9;" glyph-name="onesuperior" horiz-adv-x="518" d="M319 895L485 1409Q422 1372 366 1346T227 1298L238 1337Q329 1365 395 1398T502 1461T608 1542H647L440 895H319Z" />
<glyph unicode="&#xba;" glyph-name="ordmasculine" horiz-adv-x="842" d="M219 1060T271 1184T422 1393T653 1479Q764 1479 826 1425T889 1264Q889 1156 837 1033T686 824T455 739Q344 739 282 793T219 952Q219 1060 271 1184ZM571 1442T507 1358T405 1146T367
895Q367 834 391 805T465 776Q537 776 601 859T703 1071T741 1323Q741 1384 717 1413T643 1442Q571 1442 507 1358Z" />
<glyph unicode="&#xbb;" glyph-name="guillemotright" horiz-adv-x="1057" d="M408 727T633 553V551Q476 439 339 297T68 -29H31Q73 61 151 177T317 396T479 553Q422 600 363 693T257 893T190 1081H227Q408 727 633 553ZM746 727T971 553V551Q671 338 406 -29H369Q411
61 489 177T655 396T817 553Q760 600 701 693T595 893T528 1081H565Q746 727 971 553Z" />
<glyph unicode="&#xbc;" glyph-name="onequarter" horiz-adv-x="1241" d="M-203 -113L-234 -86L1472 1688L1503 1661L-203 -113ZM319 895L485 1409Q422 1372 366 1346T227 1298L238 1337Q329 1365 395 1398T502 1461T608 1542H647L440 895H319ZM921 149L898 66H782L712
-174H605L675 66H288L298 102L913 649H952L806 149H921ZM799 496L407 149H699L799 496Z" />
<glyph unicode="&#xbd;" glyph-name="onehalf" horiz-adv-x="1241" d="M-203 -113L-234 -86L1472 1688L1503 1661L-203 -113ZM319 895L485 1409Q422 1372 366 1346T227 1298L238 1337Q329 1365 395 1398T502 1461T608 1542H647L440 895H319ZM659 561T741 605T923
649Q998 649 1041 621T1085 532Q1085 443 1004 364T812 208T673 109Q696 109 731 104T832 85T931 72Q974 72 1001 91T1028 143Q1028 167 1019 182L1054 197Q1075 164 1075 131Q1075 92 1053 61T990 11T890 -8Q847 -8 799 3T711 22T622 30Q584 30 557 23T487 0L495
37Q515 50 650 135T874 313T964 491Q964 580 853 580Q728 580 634 473L606 496Q659 561 741 605Z" />
<glyph unicode="&#xbe;" glyph-name="threequarters" horiz-adv-x="1446" d="M2 -113L-29 -86L1677 1688L1708 1661L2 -113ZM346 1451T431 1497T612 1544Q686 1544 731 1516T776 1434Q776 1379 731 1331T620 1249T492 1200Q588 1197 651 1161T715 1049Q715 953
617 879T373 762T88 709V745Q212 755 328 796T518 906T592 1065Q592 1168 479 1171Q442 1151 414 1151Q377 1151 377 1178Q377 1215 467 1212Q555 1244 606 1293T657 1405Q657 1443 632 1462T561 1481Q439 1481 324 1366L295 1391Q346 1451 431 1497ZM1126 149L1103
66H987L917 -174H810L880 66H493L503 102L1118 649H1157L1011 149H1126ZM1004 496L612 149H904L1004 496Z" />
<glyph unicode="&#xbf;" glyph-name="questiondown" horiz-adv-x="913" d="M409 964T431 1000T488 1059T562 1081Q608 1081 637 1051T666 974Q666 934 645 899T587 841T512 819Q467 819 438 849T409 924Q409 964 431 1000ZM331 -350T408 -324T504 -250Q485 -245
469 -222T453 -168Q453 -124 484 -96T561 -68Q601 -68 622 -91T643 -154Q643 -220 582 -273T421 -355T213 -385Q78 -385 -4 -333T-86 -184Q-86 -122 -54 -72T46 34T252 180Q288 206 377 268T499 374T532 473Q532 510 515 542T466 593T393 612Q328 612 266 588T178
522Q198 520 215 499T231 451Q231 418 205 393T139 367Q70 367 70 438Q70 499 126 547T267 621T434 647Q541 647 605 596T670 451Q670 378 629 318T533 216T330 68Q231 2 179 -40T100 -122T74 -211Q74 -271 121 -310T252 -350Q331 -350 408 -324Z" />
<glyph unicode="&#xc0;" glyph-name="Agrave" horiz-adv-x="1288" d="M1037 105T1066 74T1133 41L1124 0Q1042 6 901 6Q736 6 655 0L664 41Q734 44 772 58T826 108T840 213L821 549H318L164 332Q68 196 68 128Q68 44 219 41L209 0Q95 6 -25 6Q-114 6 -178 0L-168
41Q-74 61 37 219L920 1460H950L1032 172Q1037 105 1066 74ZM785 1209L347 590H819L785 1209ZM938 1620T893 1653T775 1737T670 1821Q654 1837 643 1858T631 1901Q631 1924 645 1942Q662 1962 691 1962Q714 1962 738 1950T780 1919Q809 1888 848 1829T923 1717T1014
1595L993 1575Q938 1620 893 1653Z" />
<glyph unicode="&#xc1;" glyph-name="Aacute" horiz-adv-x="1288" d="M1037 105T1066 74T1133 41L1124 0Q1042 6 901 6Q736 6 655 0L664 41Q734 44 772 58T826 108T840 213L821 549H318L164 332Q68 196 68 128Q68 44 219 41L209 0Q95 6 -25 6Q-114 6 -178 0L-168
41Q-74 61 37 219L920 1460H950L1032 172Q1037 105 1066 74ZM785 1209L347 590H819L785 1209ZM882 1654T938 1695T1078 1802T1208 1894Q1247 1918 1286 1918Q1329 1918 1344 1884Q1348 1875 1348 1864Q1348 1839 1327 1815T1276 1774Q1232 1748 1151 1718T994 1658T821
1581L807 1604Q882 1654 938 1695Z" />
<glyph unicode="&#xc2;" glyph-name="Acircumflex" horiz-adv-x="1288" d="M1037 105T1066 74T1133 41L1124 0Q1042 6 901 6Q736 6 655 0L664 41Q734 44 772 58T826 108T840 213L821 549H318L164 332Q68 196 68 128Q68 44 219 41L209 0Q95 6 -25 6Q-114 6 -178
0L-168 41Q-74 61 37 219L920 1460H950L1032 172Q1037 105 1066 74ZM785 1209L347 590H819L785 1209ZM1214 1602T1146 1629T1029 1684T963 1720Q737 1625 541 1581L531 1610Q678 1655 805 1726T1012 1876H1049Q1106 1777 1171 1713T1334 1610L1325 1581Q1214 1602
1146 1629Z" />
<glyph unicode="&#xc3;" glyph-name="Atilde" horiz-adv-x="1288" d="M1037 105T1066 74T1133 41L1124 0Q1042 6 901 6Q736 6 655 0L664 41Q734 44 772 58T826 108T840 213L821 549H318L164 332Q68 196 68 128Q68 44 219 41L209 0Q95 6 -25 6Q-114 6 -178 0L-168
41Q-74 61 37 219L920 1460H950L1032 172Q1037 105 1066 74ZM785 1209L347 590H819L785 1209ZM635 1730T706 1781T857 1833Q923 1833 966 1812T1077 1737T1211 1683Q1289 1683 1354 1802L1391 1792Q1346 1685 1275 1633T1125 1581Q1059 1581 1016 1602T905 1677T771
1731Q692 1731 627 1612L590 1622Q635 1730 706 1781Z" />
<glyph unicode="&#xc4;" glyph-name="Adieresis" horiz-adv-x="1288" d="M1037 105T1066 74T1133 41L1124 0Q1042 6 901 6Q736 6 655 0L664 41Q734 44 772 58T826 108T840 213L821 549H318L164 332Q68 196 68 128Q68 44 219 41L209 0Q95 6 -25 6Q-114 6 -178 0L-168
41Q-74 61 37 219L920 1460H950L1032 172Q1037 105 1066 74ZM785 1209L347 590H819L785 1209ZM606 1717T625 1748T676 1799T744 1819Q787 1819 816 1789T846 1716Q846 1683 827 1652T777 1601T709 1581Q663 1581 635 1610T606 1686Q606 1717 625 1748ZM1041 1717T1060
1748T1110 1799T1178 1819Q1221 1819 1250 1789T1280 1716Q1280 1683 1261 1652T1211 1601T1143 1581Q1098 1581 1070 1611T1041 1686Q1041 1717 1060 1748Z" />
<glyph unicode="&#xc5;" glyph-name="Aring" horiz-adv-x="1288" d="M1037 105T1066 74T1133 41L1124 0Q1042 6 901 6Q736 6 655 0L664 41Q734 44 772 58T826 108T840 213L821 549H318L164 332Q68 196 68 128Q68 44 219 41L209 0Q95 6 -25 6Q-114 6 -178 0L-168
41Q-74 61 37 219L920 1460H950L1032 172Q1037 105 1066 74ZM785 1209L347 590H819L785 1209ZM1045 1894T1085 1874T1148 1817T1172 1731Q1172 1675 1140 1627T1055 1549T943 1520Q869 1520 821 1564T773 1683Q773 1741 803 1789T884 1866T996 1894Q1045 1894 1085
1874ZM994 1563T1033 1585T1095 1646T1119 1733Q1119 1770 1100 1796T1051 1837T988 1851Q947 1851 910 1828T849 1766T826 1686Q826 1628 863 1596T951 1563Q994 1563 1033 1585Z" />
<glyph unicode="&#xc6;" glyph-name="AE" horiz-adv-x="1837" d="M1278 1444T1354 1444T1489 1444Q1784 1444 1913 1450Q1881 1361 1835 1208Q1816 1140 1808 1081H1763Q1778 1167 1778 1226Q1778 1322 1736 1362T1597 1403H1407Q1336 1403 1301 1391T1244 1345T1202
1233L1074 750H1294Q1352 750 1390 780T1452 856T1505 979H1550Q1524 898 1481 729Q1459 654 1427 479H1382Q1382 499 1387 542T1393 606Q1393 651 1370 678T1286 709H1063L932 217Q914 147 914 117Q914 88 927 73T969 53T1049 47H1260Q1359 47 1422 81T1531 192T1626
410H1671Q1652 360 1628 262Q1593 135 1575 0Q1436 6 1112 6Q723 6 522 0L530 41Q604 44 641 57T699 105T741 217L872 709H539L82 193Q23 126 23 96Q23 51 150 41V0Q95 6 -27 6Q-114 6 -164 0V41Q-99 44 12 172L1029 1322Q1031 1356 1018 1374T976 1399T891 1409L901
1450Q1000 1447 1138 1446L1260 1583H1313L1191 1445Q1278 1444 1354 1444ZM1012 1233L1016 1247L575 750H883L1012 1233Z" />
<glyph unicode="&#xc7;" glyph-name="Ccedilla" horiz-adv-x="1372" d="M1390 1273T1327 979H1282Q1294 1059 1294 1119Q1294 1215 1262 1282Q1224 1358 1152 1400T993 1442Q823 1442 665 1282T408 880T309 410Q309 212 386 110T602 8Q692 8 792 50T967 168Q1019
221 1058 292T1151 492H1196Q1103 152 1075 0H1030Q1036 44 1036 70Q1036 122 1012 122Q996 122 969 104Q896 57 847 31T732 -12T582 -29Q354 -29 229 94T104 453Q104 689 222 928T545 1323T997 1479Q1080 1479 1136 1461T1226 1417T1303 1346Q1321 1328 1334 1328Q1370
1328 1415 1450H1458Q1390 1273 1327 979ZM596 -133T649 -133Q700 -133 729 -155T758 -215Q758 -271 710 -309T589 -366T445 -385Q378 -385 324 -372T240 -340L254 -309Q325 -336 418 -336Q456 -336 505 -326T590 -293T627 -231Q627 -182 549 -182Q507 -182 465
-197L563 8H619L545 -147Q596 -133 649 -133Z" />
<glyph unicode="&#xc8;" glyph-name="Egrave" horiz-adv-x="1249" d="M514 1444T907 1444Q1194 1444 1315 1450Q1261 1302 1237 1208Q1214 1128 1208 1081H1161Q1179 1191 1179 1246Q1179 1305 1160 1338T1097 1387T973 1403H823Q750 1403 714 1391T655 1345T612
1233L483 750H618Q720 750 771 811T847 936T881 1020H928Q886 891 868 819T844 729Q817 633 778 438H731Q733 452 740 497T747 577Q747 640 716 674T606 709H472L340 217Q322 153 322 118Q322 88 336 73T379 53T461 47H610Q738 47 813 81T939 190T1042 410H1090Q1070
360 1044 262Q1014 152 989 0Q850 6 520 6Q127 6 -72 0L-61 41Q13 44 49 57T107 105T150 217L422 1233Q440 1298 440 1333Q440 1363 427 1378T385 1400T303 1409L313 1450Q514 1444 907 1444ZM866 1620T821 1653T703 1737T598 1821Q582 1837 571 1858T559 1901Q559
1924 573 1942Q590 1962 619 1962Q642 1962 666 1950T708 1919Q737 1888 776 1829T851 1717T942 1595L921 1575Q866 1620 821 1653Z" />
<glyph unicode="&#xc9;" glyph-name="Eacute" horiz-adv-x="1249" d="M514 1444T907 1444Q1194 1444 1315 1450Q1261 1302 1237 1208Q1214 1128 1208 1081H1161Q1179 1191 1179 1246Q1179 1305 1160 1338T1097 1387T973 1403H823Q750 1403 714 1391T655 1345T612
1233L483 750H618Q720 750 771 811T847 936T881 1020H928Q886 891 868 819T844 729Q817 633 778 438H731Q733 452 740 497T747 577Q747 640 716 674T606 709H472L340 217Q322 153 322 118Q322 88 336 73T379 53T461 47H610Q738 47 813 81T939 190T1042 410H1090Q1070
360 1044 262Q1014 152 989 0Q850 6 520 6Q127 6 -72 0L-61 41Q13 44 49 57T107 105T150 217L422 1233Q440 1298 440 1333Q440 1363 427 1378T385 1400T303 1409L313 1450Q514 1444 907 1444ZM810 1654T866 1695T1006 1802T1136 1894Q1175 1918 1214 1918Q1257
1918 1272 1884Q1276 1875 1276 1864Q1276 1839 1255 1815T1204 1774Q1160 1748 1079 1718T922 1658T749 1581L735 1604Q810 1654 866 1695Z" />
<glyph unicode="&#xca;" glyph-name="Ecircumflex" horiz-adv-x="1249" d="M514 1444T907 1444Q1194 1444 1315 1450Q1261 1302 1237 1208Q1214 1128 1208 1081H1161Q1179 1191 1179 1246Q1179 1305 1160 1338T1097 1387T973 1403H823Q750 1403 714 1391T655 1345T612
1233L483 750H618Q720 750 771 811T847 936T881 1020H928Q886 891 868 819T844 729Q817 633 778 438H731Q733 452 740 497T747 577Q747 640 716 674T606 709H472L340 217Q322 153 322 118Q322 88 336 73T379 53T461 47H610Q738 47 813 81T939 190T1042 410H1090Q1070
360 1044 262Q1014 152 989 0Q850 6 520 6Q127 6 -72 0L-61 41Q13 44 49 57T107 105T150 217L422 1233Q440 1298 440 1333Q440 1363 427 1378T385 1400T303 1409L313 1450Q514 1444 907 1444ZM1142 1602T1074 1629T957 1684T891 1720Q665 1625 469 1581L459 1610Q606
1655 733 1726T940 1876H977Q1034 1777 1099 1713T1262 1610L1253 1581Q1142 1602 1074 1629Z" />
<glyph unicode="&#xcb;" glyph-name="Edieresis" horiz-adv-x="1249" d="M514 1444T907 1444Q1194 1444 1315 1450Q1261 1302 1237 1208Q1214 1128 1208 1081H1161Q1179 1191 1179 1246Q1179 1305 1160 1338T1097 1387T973 1403H823Q750 1403 714 1391T655 1345T612
1233L483 750H618Q720 750 771 811T847 936T881 1020H928Q886 891 868 819T844 729Q817 633 778 438H731Q733 452 740 497T747 577Q747 640 716 674T606 709H472L340 217Q322 153 322 118Q322 88 336 73T379 53T461 47H610Q738 47 813 81T939 190T1042 410H1090Q1070
360 1044 262Q1014 152 989 0Q850 6 520 6Q127 6 -72 0L-61 41Q13 44 49 57T107 105T150 217L422 1233Q440 1298 440 1333Q440 1363 427 1378T385 1400T303 1409L313 1450Q514 1444 907 1444ZM534 1717T553 1748T604 1799T672 1819Q715 1819 744 1789T774 1716Q774
1683 755 1652T705 1601T637 1581Q591 1581 563 1610T534 1686Q534 1717 553 1748ZM969 1717T988 1748T1038 1799T1106 1819Q1149 1819 1178 1789T1208 1716Q1208 1683 1189 1652T1139 1601T1071 1581Q1026 1581 998 1611T969 1686Q969 1717 988 1748Z" />
<glyph unicode="&#xcc;" glyph-name="Igrave" horiz-adv-x="698" d="M323 151T323 118Q323 88 336 72T379 50T461 41L453 0Q357 6 193 6Q22 6 -68 0L-57 41Q15 44 51 57T108 105T150 217L420 1233Q437 1298 437 1331Q437 1362 423 1378T381 1400T299 1409L309
1450Q393 1444 569 1444Q734 1444 831 1450L821 1409Q746 1406 710 1393T652 1345T610 1233L340 217Q323 151 323 118ZM616 1620T571 1653T453 1737T348 1821Q332 1837 321 1858T309 1901Q309 1924 323 1942Q340 1962 369 1962Q392 1962 416 1950T458 1919Q487
1888 526 1829T601 1717T692 1595L671 1575Q616 1620 571 1653Z" />
<glyph unicode="&#xcd;" glyph-name="Iacute" horiz-adv-x="698" d="M323 151T323 118Q323 88 336 72T379 50T461 41L453 0Q357 6 193 6Q22 6 -68 0L-57 41Q15 44 51 57T108 105T150 217L420 1233Q437 1298 437 1331Q437 1362 423 1378T381 1400T299 1409L309
1450Q393 1444 569 1444Q734 1444 831 1450L821 1409Q746 1406 710 1393T652 1345T610 1233L340 217Q323 151 323 118ZM560 1654T616 1695T756 1802T886 1894Q925 1918 964 1918Q1007 1918 1022 1884Q1026 1875 1026 1864Q1026 1839 1005 1815T954 1774Q910 1748
829 1718T672 1658T499 1581L485 1604Q560 1654 616 1695Z" />
<glyph unicode="&#xce;" glyph-name="Icircumflex" horiz-adv-x="698" d="M323 151T323 118Q323 88 336 72T379 50T461 41L453 0Q357 6 193 6Q22 6 -68 0L-57 41Q15 44 51 57T108 105T150 217L420 1233Q437 1298 437 1331Q437 1362 423 1378T381 1400T299 1409L309
1450Q393 1444 569 1444Q734 1444 831 1450L821 1409Q746 1406 710 1393T652 1345T610 1233L340 217Q323 151 323 118ZM892 1602T824 1629T707 1684T641 1720Q415 1625 219 1581L209 1610Q356 1655 483 1726T690 1876H727Q784 1777 849 1713T1012 1610L1003 1581Q892
1602 824 1629Z" />
<glyph unicode="&#xcf;" glyph-name="Idieresis" horiz-adv-x="698" d="M323 151T323 118Q323 88 336 72T379 50T461 41L453 0Q357 6 193 6Q22 6 -68 0L-57 41Q15 44 51 57T108 105T150 217L420 1233Q437 1298 437 1331Q437 1362 423 1378T381 1400T299 1409L309
1450Q393 1444 569 1444Q734 1444 831 1450L821 1409Q746 1406 710 1393T652 1345T610 1233L340 217Q323 151 323 118ZM284 1717T303 1748T354 1799T422 1819Q465 1819 494 1789T524 1716Q524 1683 505 1652T455 1601T387 1581Q341 1581 313 1610T284 1686Q284
1717 303 1748ZM719 1717T738 1748T788 1799T856 1819Q899 1819 928 1789T958 1716Q958 1683 939 1652T889 1601T821 1581Q776 1581 748 1611T719 1686Q719 1717 738 1748Z" />
<glyph unicode="&#xd0;" glyph-name="Eth" horiz-adv-x="1485" d="M415 1443T505 1443L555 1444Q837 1450 864 1450Q1152 1450 1297 1335T1442 997Q1442 741 1316 511T967 141T471 0Q443 0 338 3T184 6Q19 6 -61 0L-55 41Q15 44 50 57T108 105T150 217L418 1233Q437
1307 437 1334Q437 1374 407 1390T299 1409L305 1450Q415 1443 505 1443ZM321 142T321 112Q321 73 349 55T446 37Q700 37 880 175T1153 544T1245 1049Q1245 1234 1141 1323T807 1413Q743 1413 707 1399T649 1347T608 1237L340 213Q321 142 321 112ZM135 707L147
759H868L856 707H135Z" />
<glyph unicode="&#xd1;" glyph-name="Ntilde" horiz-adv-x="1577" d="M1187 715T1271 1001T1442 1413Q1532 1544 1663 1544Q1729 1544 1757 1515T1786 1440Q1786 1404 1772 1370T1731 1314T1665 1292Q1624 1292 1606 1316T1587 1372Q1587 1405 1606 1439T1653
1501H1647Q1547 1498 1479 1397Q1388 1261 1290 920T1067 -10H1022L555 1309Q454 793 365 439T195 -23Q148 -83 99 -117T-25 -152Q-147 -152 -147 -45Q-147 -10 -133 23T-92 78T-27 100Q15 100 33 76T51 20Q51 -13 33 -47T-14 -109H-8Q98 -105 162 -2Q240 121 323
442T506 1278Q510 1302 510 1324Q510 1358 496 1375T448 1400T352 1409L362 1450Q428 1444 545 1444Q641 1444 711 1450L1098 318Q1187 715 1271 1001ZM764 1730T835 1781T986 1833Q1052 1833 1095 1812T1206 1737T1340 1683Q1418 1683 1483 1802L1520 1792Q1475
1685 1404 1633T1254 1581Q1188 1581 1145 1602T1034 1677T900 1731Q821 1731 756 1612L719 1622Q764 1730 835 1781Z" />
<glyph unicode="&#xd2;" glyph-name="Ograve" horiz-adv-x="1493" d="M111 695T220 932T524 1324T965 1479Q1116 1479 1224 1421T1390 1252T1448 985Q1448 754 1338 518T1032 126T592 -29Q441 -29 333 29T168 197T111 463Q111 695 220 932ZM792 1442T649 1295T417
913T328 436Q328 304 363 208T463 60T610 8Q765 8 908 155T1140 537T1229 1014Q1229 1146 1193 1242T1093 1390T946 1442Q792 1442 649 1295ZM1016 1620T971 1653T853 1737T748 1821Q732 1837 721 1858T709 1901Q709 1924 723 1942Q740 1962 769 1962Q792 1962
816 1950T858 1919Q887 1888 926 1829T1001 1717T1092 1595L1071 1575Q1016 1620 971 1653Z" />
<glyph unicode="&#xd3;" glyph-name="Oacute" horiz-adv-x="1493" d="M111 695T220 932T524 1324T965 1479Q1116 1479 1224 1421T1390 1252T1448 985Q1448 754 1338 518T1032 126T592 -29Q441 -29 333 29T168 197T111 463Q111 695 220 932ZM792 1442T649 1295T417
913T328 436Q328 304 363 208T463 60T610 8Q765 8 908 155T1140 537T1229 1014Q1229 1146 1193 1242T1093 1390T946 1442Q792 1442 649 1295ZM960 1654T1016 1695T1156 1802T1286 1894Q1325 1918 1364 1918Q1407 1918 1422 1884Q1426 1875 1426 1864Q1426 1839
1405 1815T1354 1774Q1310 1748 1229 1718T1072 1658T899 1581L885 1604Q960 1654 1016 1695Z" />
<glyph unicode="&#xd4;" glyph-name="Ocircumflex" horiz-adv-x="1493" d="M111 695T220 932T524 1324T965 1479Q1116 1479 1224 1421T1390 1252T1448 985Q1448 754 1338 518T1032 126T592 -29Q441 -29 333 29T168 197T111 463Q111 695 220 932ZM792 1442T649
1295T417 913T328 436Q328 304 363 208T463 60T610 8Q765 8 908 155T1140 537T1229 1014Q1229 1146 1193 1242T1093 1390T946 1442Q792 1442 649 1295ZM1292 1602T1224 1629T1107 1684T1041 1720Q815 1625 619 1581L609 1610Q756 1655 883 1726T1090 1876H1127Q1184
1777 1249 1713T1412 1610L1403 1581Q1292 1602 1224 1629Z" />
<glyph unicode="&#xd5;" glyph-name="Otilde" horiz-adv-x="1493" d="M111 695T220 932T524 1324T965 1479Q1116 1479 1224 1421T1390 1252T1448 985Q1448 754 1338 518T1032 126T592 -29Q441 -29 333 29T168 197T111 463Q111 695 220 932ZM792 1442T649 1295T417
913T328 436Q328 304 363 208T463 60T610 8Q765 8 908 155T1140 537T1229 1014Q1229 1146 1193 1242T1093 1390T946 1442Q792 1442 649 1295ZM713 1730T784 1781T935 1833Q1001 1833 1044 1812T1155 1737T1289 1683Q1367 1683 1432 1802L1469 1792Q1424 1685 1353
1633T1203 1581Q1137 1581 1094 1602T983 1677T849 1731Q770 1731 705 1612L668 1622Q713 1730 784 1781Z" />
<glyph unicode="&#xd6;" glyph-name="Odieresis" horiz-adv-x="1493" d="M111 695T220 932T524 1324T965 1479Q1116 1479 1224 1421T1390 1252T1448 985Q1448 754 1338 518T1032 126T592 -29Q441 -29 333 29T168 197T111 463Q111 695 220 932ZM792 1442T649 1295T417
913T328 436Q328 304 363 208T463 60T610 8Q765 8 908 155T1140 537T1229 1014Q1229 1146 1193 1242T1093 1390T946 1442Q792 1442 649 1295ZM684 1717T703 1748T754 1799T822 1819Q865 1819 894 1789T924 1716Q924 1683 905 1652T855 1601T787 1581Q741 1581 713
1610T684 1686Q684 1717 703 1748ZM1119 1717T1138 1748T1188 1799T1256 1819Q1299 1819 1328 1789T1358 1716Q1358 1683 1339 1652T1289 1601T1221 1581Q1176 1581 1148 1611T1119 1686Q1119 1717 1138 1748Z" />
<glyph unicode="&#xd7;" glyph-name="multiply" horiz-adv-x="1051" d="M256 1085L309 1122L561 764L1026 1126L1059 1081L594 721L850 367L799 330L545 684L86 328L55 373L512 727L256 1085Z" />
<glyph unicode="&#xd8;" glyph-name="Oslash" horiz-adv-x="1493" d="M1448 1173T1448 985Q1448 754 1338 518T1032 126T592 -29Q360 -29 233 105L-6 -150L-41 -121L204 139Q111 264 111 463Q111 695 220 932T524 1324T965 1479Q1212 1479 1339 1330L1581 1583L1612
1556L1365 1295Q1448 1173 1448 985ZM1174 1317T1106 1379T946 1442Q792 1442 649 1295T417 913T328 436Q328 348 345 273L1206 1203Q1174 1317 1106 1379ZM392 120T457 64T610 8Q765 8 908 155T1140 537T1229 1014Q1229 1088 1217 1152L359 222Q392 120 457 64Z"
/>
<glyph unicode="&#xd9;" glyph-name="Ugrave" horiz-adv-x="1397" d="M1306 1268T1306 1303Q1306 1359 1271 1382T1155 1409L1165 1450Q1235 1444 1372 1444Q1495 1444 1565 1450L1554 1409Q1482 1406 1443 1388T1380 1330T1337 1212L1178 596Q1103 311 977 162Q902
74 792 23T557 -29Q338 -29 242 82Q170 162 170 290Q170 396 221 590L391 1233Q408 1298 408 1331Q408 1362 395 1378T352 1400T270 1409L283 1450Q365 1444 547 1444Q704 1444 803 1450L791 1409Q716 1406 679 1393T621 1345T580 1233L399 555Q354 378 354 278Q354
165 409 104T596 43Q811 43 934 182T1124 573L1292 1212Q1306 1268 1306 1303ZM975 1620T930 1653T812 1737T707 1821Q691 1837 680 1858T668 1901Q668 1924 682 1942Q699 1962 728 1962Q751 1962 775 1950T817 1919Q846 1888 885 1829T960 1717T1051 1595L1030
1575Q975 1620 930 1653Z" />
<glyph unicode="&#xda;" glyph-name="Uacute" horiz-adv-x="1397" d="M1306 1268T1306 1303Q1306 1359 1271 1382T1155 1409L1165 1450Q1235 1444 1372 1444Q1495 1444 1565 1450L1554 1409Q1482 1406 1443 1388T1380 1330T1337 1212L1178 596Q1103 311 977 162Q902
74 792 23T557 -29Q338 -29 242 82Q170 162 170 290Q170 396 221 590L391 1233Q408 1298 408 1331Q408 1362 395 1378T352 1400T270 1409L283 1450Q365 1444 547 1444Q704 1444 803 1450L791 1409Q716 1406 679 1393T621 1345T580 1233L399 555Q354 378 354 278Q354
165 409 104T596 43Q811 43 934 182T1124 573L1292 1212Q1306 1268 1306 1303ZM919 1654T975 1695T1115 1802T1245 1894Q1284 1918 1323 1918Q1366 1918 1381 1884Q1385 1875 1385 1864Q1385 1839 1364 1815T1313 1774Q1269 1748 1188 1718T1031 1658T858 1581L844
1604Q919 1654 975 1695Z" />
<glyph unicode="&#xdb;" glyph-name="Ucircumflex" horiz-adv-x="1397" d="M1306 1268T1306 1303Q1306 1359 1271 1382T1155 1409L1165 1450Q1235 1444 1372 1444Q1495 1444 1565 1450L1554 1409Q1482 1406 1443 1388T1380 1330T1337 1212L1178 596Q1103 311 977
162Q902 74 792 23T557 -29Q338 -29 242 82Q170 162 170 290Q170 396 221 590L391 1233Q408 1298 408 1331Q408 1362 395 1378T352 1400T270 1409L283 1450Q365 1444 547 1444Q704 1444 803 1450L791 1409Q716 1406 679 1393T621 1345T580 1233L399 555Q354 378
354 278Q354 165 409 104T596 43Q811 43 934 182T1124 573L1292 1212Q1306 1268 1306 1303ZM1251 1602T1183 1629T1066 1684T1000 1720Q774 1625 578 1581L568 1610Q715 1655 842 1726T1049 1876H1086Q1143 1777 1208 1713T1371 1610L1362 1581Q1251 1602 1183
1629Z" />
<glyph unicode="&#xdc;" glyph-name="Udieresis" horiz-adv-x="1397" d="M1306 1268T1306 1303Q1306 1359 1271 1382T1155 1409L1165 1450Q1235 1444 1372 1444Q1495 1444 1565 1450L1554 1409Q1482 1406 1443 1388T1380 1330T1337 1212L1178 596Q1103 311 977
162Q902 74 792 23T557 -29Q338 -29 242 82Q170 162 170 290Q170 396 221 590L391 1233Q408 1298 408 1331Q408 1362 395 1378T352 1400T270 1409L283 1450Q365 1444 547 1444Q704 1444 803 1450L791 1409Q716 1406 679 1393T621 1345T580 1233L399 555Q354 378
354 278Q354 165 409 104T596 43Q811 43 934 182T1124 573L1292 1212Q1306 1268 1306 1303ZM643 1717T662 1748T713 1799T781 1819Q824 1819 853 1789T883 1716Q883 1683 864 1652T814 1601T746 1581Q700 1581 672 1610T643 1686Q643 1717 662 1748ZM1078 1717T1097
1748T1147 1799T1215 1819Q1258 1819 1287 1789T1317 1716Q1317 1683 1298 1652T1248 1601T1180 1581Q1135 1581 1107 1611T1078 1686Q1078 1717 1097 1748Z" />
<glyph unicode="&#xdd;" glyph-name="Yacute" horiz-adv-x="1372" d="M288 1364T312 1402T373 1459T467 1479Q575 1479 641 1391T745 1146T809 737Q957 1109 1192 1346Q1325 1479 1434 1479Q1494 1479 1521 1448T1548 1369Q1548 1339 1535 1306T1495 1250T1427
1227Q1350 1227 1350 1308Q1350 1341 1368 1375T1415 1436H1409Q1354 1433 1296 1391Q1188 1313 1065 1140T828 692L709 217Q692 151 692 118Q692 88 705 72T747 50T829 41L819 0Q727 6 565 6Q385 6 297 0L307 41Q381 44 418 57T477 105T518 217L638 695Q565 1366
399 1366Q364 1366 341 1344T301 1270L244 1102H199L266 1300Q288 1364 312 1402ZM911 1654T967 1695T1107 1802T1237 1894Q1276 1918 1315 1918Q1358 1918 1373 1884Q1377 1875 1377 1864Q1377 1839 1356 1815T1305 1774Q1261 1748 1180 1718T1023 1658T850 1581L836
1604Q911 1654 967 1695Z" />
<glyph unicode="&#xde;" glyph-name="Thorn" horiz-adv-x="1239" d="M340 217Q323 151 323 118Q323 88 336 72T379 50T461 41L453 0Q357 6 193 6Q22 6 -68 0L-57 41Q15 44 51 57T108 105T150 217L420 1233Q437 1298 437 1331Q437 1362 423 1378T381 1400T299 1409L309
1450Q393 1444 569 1444Q734 1444 831 1450L821 1409Q746 1406 710 1393T652 1345T610 1233L595 1175Q793 1178 811 1178Q1012 1178 1115 1095T1219 868Q1219 709 1122 582T848 383T446 311L365 312L340 217ZM467 352Q753 352 882 502T1012 901Q1012 1023 950 1081T752
1139Q662 1139 583 1132L376 352H467Z" />
<glyph unicode="&#xdf;" glyph-name="germandbls" horiz-adv-x="1120" d="M324 1235T384 1355T540 1539T780 1602Q878 1602 940 1574T1030 1499T1059 1395Q1059 1306 1003 1233T879 1098T788 1014Q719 951 719 860Q719 799 744 752T803 660T854 594Q912 516 943
445T975 297Q975 201 926 127T793 12T608 -29Q540 -29 481 -10T384 49T346 147Q346 192 368 219T426 246Q475 246 494 202T514 106Q514 77 502 29Q544 12 588 12Q650 12 698 37T775 111T803 225Q803 358 696 494Q685 507 647 554T586 652T563 756Q563 822 594 865T684
959T770 1038Q901 1176 901 1354Q901 1462 860 1516T750 1571Q691 1571 647 1535T567 1419T496 1206L84 -356Q-24 -359 -100 -385L272 1038Q324 1235 384 1355Z" />
<glyph unicode="&#xe0;" glyph-name="agrave" horiz-adv-x="1071" d="M971 334L920 184Q878 70 815 21T684 -29Q646 -29 617 -15T571 25Q554 55 554 97Q554 127 561 159T576 221T586 260L623 409Q525 179 424 75T211 -29Q117 -29 68 38T18 219Q18 385 106 590T335
938T623 1081Q677 1081 712 1041T754 928L786 1053Q900 1056 975 1081L719 176Q704 122 704 100Q704 49 750 49Q840 49 907 258L932 334H971ZM729 851T729 864Q729 946 700 994T616 1042Q529 1042 431 907T266 571T199 195Q199 110 217 74T270 37Q327 37 406 124T562
358T689 670L727 819Q729 851 729 864ZM672 1299T630 1352T523 1484T430 1606Q409 1640 409 1671Q409 1712 442 1729Q457 1735 474 1735Q527 1735 563 1671Q588 1628 617 1552T675 1405T750 1239L723 1227Q672 1299 630 1352Z" />
<glyph unicode="&#xe1;" glyph-name="aacute" horiz-adv-x="1071" d="M971 334L920 184Q878 70 815 21T684 -29Q646 -29 617 -15T571 25Q554 55 554 97Q554 127 561 159T576 221T586 260L623 409Q525 179 424 75T211 -29Q117 -29 68 38T18 219Q18 385 106 590T335
938T623 1081Q677 1081 712 1041T754 928L786 1053Q900 1056 975 1081L719 176Q704 122 704 100Q704 49 750 49Q840 49 907 258L932 334H971ZM729 851T729 864Q729 946 700 994T616 1042Q529 1042 431 907T266 571T199 195Q199 110 217 74T270 37Q327 37 406 124T562
358T689 670L727 819Q729 851 729 864ZM658 1311T699 1365T805 1506T909 1634Q949 1680 993 1680Q1018 1680 1038 1665Q1054 1649 1054 1625Q1054 1584 1008 1538Q972 1500 902 1449T768 1349T623 1227L602 1245Q658 1311 699 1365Z" />
<glyph unicode="&#xe2;" glyph-name="acircumflex" horiz-adv-x="1071" d="M971 334L920 184Q878 70 815 21T684 -29Q646 -29 617 -15T571 25Q554 55 554 97Q554 127 561 159T576 221T586 260L623 409Q525 179 424 75T211 -29Q117 -29 68 38T18 219Q18 385 106
590T335 938T623 1081Q677 1081 712 1041T754 928L786 1053Q900 1056 975 1081L719 176Q704 122 704 100Q704 49 750 49Q840 49 907 258L932 334H971ZM729 851T729 864Q729 946 700 994T616 1042Q529 1042 431 907T266 571T199 195Q199 110 217 74T270 37Q327 37
406 124T562 358T689 670L727 819Q729 851 729 864ZM934 1295T857 1346T709 1475Q530 1334 350 1262L340 1290Q473 1347 589 1441T781 1642H817Q839 1514 895 1432T1061 1290L1053 1262Q934 1295 857 1346Z" />
<glyph unicode="&#xe3;" glyph-name="atilde" horiz-adv-x="1071" d="M971 334L920 184Q878 70 815 21T684 -29Q646 -29 617 -15T571 25Q554 55 554 97Q554 127 561 159T576 221T586 260L623 409Q525 179 424 75T211 -29Q117 -29 68 38T18 219Q18 385 106 590T335
938T623 1081Q677 1081 712 1041T754 928L786 1053Q900 1056 975 1081L719 176Q704 122 704 100Q704 49 750 49Q840 49 907 258L932 334H971ZM729 851T729 864Q729 946 700 994T616 1042Q529 1042 431 907T266 571T199 195Q199 110 217 74T270 37Q327 37 406 124T562
358T689 670L727 819Q729 851 729 864ZM411 1469T482 1521T633 1573Q692 1573 730 1552T828 1477T946 1423Q1024 1423 1089 1542L1126 1532Q1081 1425 1010 1373T860 1321Q801 1321 763 1342T664 1416T546 1470Q467 1470 403 1352L366 1362Q411 1469 482 1521Z"
/>
<glyph unicode="&#xe4;" glyph-name="adieresis" horiz-adv-x="1071" d="M971 334L920 184Q878 70 815 21T684 -29Q646 -29 617 -15T571 25Q554 55 554 97Q554 127 561 159T576 221T586 260L623 409Q525 179 424 75T211 -29Q117 -29 68 38T18 219Q18 385 106 590T335
938T623 1081Q677 1081 712 1041T754 928L786 1053Q900 1056 975 1081L719 176Q704 122 704 100Q704 49 750 49Q840 49 907 258L932 334H971ZM729 851T729 864Q729 946 700 994T616 1042Q529 1042 431 907T266 571T199 195Q199 110 217 74T270 37Q327 37 406 124T562
358T689 670L727 819Q729 851 729 864ZM428 1420T447 1451T498 1502T566 1522Q609 1522 638 1492T668 1419Q668 1386 649 1355T599 1304T531 1284Q485 1284 457 1313T428 1389Q428 1420 447 1451ZM863 1420T882 1451T932 1502T1000 1522Q1043 1522 1072 1492T1102
1419Q1102 1386 1083 1355T1033 1304T965 1284Q920 1284 892 1314T863 1389Q863 1420 882 1451Z" />
<glyph unicode="&#xe5;" glyph-name="aring" horiz-adv-x="1071" d="M971 334L920 184Q878 70 815 21T684 -29Q646 -29 617 -15T571 25Q554 55 554 97Q554 127 561 159T576 221T586 260L623 409Q525 179 424 75T211 -29Q117 -29 68 38T18 219Q18 385 106 590T335
938T623 1081Q677 1081 712 1041T754 928L786 1053Q900 1056 975 1081L719 176Q704 122 704 100Q704 49 750 49Q840 49 907 258L932 334H971ZM729 851T729 864Q729 946 700 994T616 1042Q529 1042 431 907T266 571T199 195Q199 110 217 74T270 37Q327 37 406 124T562
358T689 670L727 819Q729 851 729 864ZM850 1620T890 1600T953 1542T977 1456Q977 1400 945 1352T860 1274T748 1245Q674 1245 626 1289T578 1409Q578 1467 608 1515T689 1592T801 1620Q850 1620 890 1600ZM799 1288T838 1310T900 1372T924 1458Q924 1495 905 1522T856
1563T793 1577Q752 1577 715 1554T654 1492T631 1411Q631 1353 668 1321T756 1288Q799 1288 838 1310Z" />
<glyph unicode="&#xe6;" glyph-name="ae" horiz-adv-x="1350" d="M1134 174T1070 112T927 10T764 -29Q664 -29 598 17T507 154Q389 -29 211 -29Q109 -29 58 33T6 199Q6 375 118 579T400 922T733 1061Q822 1061 868 989Q994 1081 1128 1081Q1214 1081 1267 1041T1321
926Q1321 765 1136 647T706 451Q686 349 686 254Q686 57 827 57Q994 57 1135 262L1176 246Q1134 174 1070 112ZM1023 1042T950 965T813 761T715 490Q920 562 997 623Q1073 682 1115 766T1157 950Q1157 994 1138 1018T1083 1042Q1023 1042 950 965ZM327 37T386 76T498
200Q494 229 494 260Q494 367 538 501T661 761T841 969Q805 1018 748 1018Q638 1018 505 894T279 574T186 174Q186 110 208 74T276 37Q327 37 386 76Z" />
<glyph unicode="&#xe7;" glyph-name="ccedilla" horiz-adv-x="885" d="M677 174T613 112T470 10T307 -29Q181 -29 109 48T37 272Q37 438 115 629T334 950T655 1081Q716 1081 766 1060T847 1000T877 907Q877 867 859 829T808 767T731 743Q690 743 669 766T647 823Q647
881 692 923T801 977Q757 1040 662 1040Q559 1040 458 930T292 637T227 254Q227 154 265 106T371 57Q537 57 678 262L719 246Q677 174 613 112ZM291 -133T336 -133Q377 -133 400 -155T424 -215Q424 -271 385 -309T288 -366T172 -385Q119 -385 75 -372T8 -340L22
-309Q52 -322 77 -329T145 -336Q172 -336 206 -326T267 -293T293 -231Q293 -182 235 -182Q202 -182 172 -197L266 0H321L252 -147Q291 -133 336 -133Z" />
<glyph unicode="&#xe8;" glyph-name="egrave" horiz-adv-x="879" d="M665 174T601 112T458 10T295 -29Q168 -29 97 45T25 260Q25 415 116 610T362 943T700 1081Q766 1081 809 1046T852 946Q852 780 667 657T240 452Q217 350 217 254Q217 57 358 57Q533 57 674
262L707 246Q665 174 601 112ZM589 1042T508 966T357 762T249 491Q451 562 528 623Q604 682 646 766T688 950Q688 1005 680 1023T655 1042Q589 1042 508 966ZM621 1299T579 1352T472 1484T379 1606Q358 1640 358 1671Q358 1712 391 1729Q406 1735 423 1735Q476
1735 512 1671Q537 1628 566 1552T624 1405T699 1239L672 1227Q621 1299 579 1352Z" />
<glyph unicode="&#xe9;" glyph-name="eacute" horiz-adv-x="879" d="M665 174T601 112T458 10T295 -29Q168 -29 97 45T25 260Q25 415 116 610T362 943T700 1081Q766 1081 809 1046T852 946Q852 780 667 657T240 452Q217 350 217 254Q217 57 358 57Q533 57 674
262L707 246Q665 174 601 112ZM589 1042T508 966T357 762T249 491Q451 562 528 623Q604 682 646 766T688 950Q688 1005 680 1023T655 1042Q589 1042 508 966ZM607 1311T648 1365T754 1506T858 1634Q898 1680 942 1680Q967 1680 987 1665Q1003 1649 1003 1625Q1003
1584 957 1538Q921 1500 851 1449T717 1349T572 1227L551 1245Q607 1311 648 1365Z" />
<glyph unicode="&#xea;" glyph-name="ecircumflex" horiz-adv-x="879" d="M665 174T601 112T458 10T295 -29Q168 -29 97 45T25 260Q25 415 116 610T362 943T700 1081Q766 1081 809 1046T852 946Q852 780 667 657T240 452Q217 350 217 254Q217 57 358 57Q533 57
674 262L707 246Q665 174 601 112ZM589 1042T508 966T357 762T249 491Q451 562 528 623Q604 682 646 766T688 950Q688 1005 680 1023T655 1042Q589 1042 508 966ZM883 1295T806 1346T658 1475Q479 1334 299 1262L289 1290Q422 1347 538 1441T730 1642H766Q788 1514
844 1432T1010 1290L1002 1262Q883 1295 806 1346Z" />
<glyph unicode="&#xeb;" glyph-name="edieresis" horiz-adv-x="879" d="M665 174T601 112T458 10T295 -29Q168 -29 97 45T25 260Q25 415 116 610T362 943T700 1081Q766 1081 809 1046T852 946Q852 780 667 657T240 452Q217 350 217 254Q217 57 358 57Q533 57 674
262L707 246Q665 174 601 112ZM589 1042T508 966T357 762T249 491Q451 562 528 623Q604 682 646 766T688 950Q688 1005 680 1023T655 1042Q589 1042 508 966ZM377 1420T396 1451T447 1502T515 1522Q558 1522 587 1492T617 1419Q617 1386 598 1355T548 1304T480
1284Q434 1284 406 1313T377 1389Q377 1420 396 1451ZM812 1420T831 1451T881 1502T949 1522Q992 1522 1021 1492T1051 1419Q1051 1386 1032 1355T982 1304T914 1284Q869 1284 841 1314T812 1389Q812 1420 831 1451Z" />
<glyph unicode="&#xec;" glyph-name="igrave" horiz-adv-x="618" d="M339 924T339 954Q339 1006 295 1006Q248 1006 211 957T133 797L104 721H66L119 870Q161 987 229 1034T373 1081Q509 1081 509 953Q509 893 475 795L256 174Q240 130 240 99Q240 47 289 47Q331
47 368 93T449 256L477 332H516L463 182Q423 71 356 21T211 -29Q68 -29 68 96Q68 159 104 258L324 879Q339 924 339 954ZM404 1299T362 1352T255 1484T162 1606Q141 1640 141 1671Q141 1712 174 1729Q189 1735 206 1735Q259 1735 295 1671Q320 1628 349 1552T407
1405T482 1239L455 1227Q404 1299 362 1352Z" />
<glyph unicode="&#xed;" glyph-name="iacute" horiz-adv-x="618" d="M339 924T339 954Q339 1006 295 1006Q248 1006 211 957T133 797L104 721H66L119 870Q161 987 229 1034T373 1081Q509 1081 509 953Q509 893 475 795L256 174Q240 130 240 99Q240 47 289 47Q331
47 368 93T449 256L477 332H516L463 182Q423 71 356 21T211 -29Q68 -29 68 96Q68 159 104 258L324 879Q339 924 339 954ZM390 1311T431 1365T537 1506T641 1634Q681 1680 725 1680Q750 1680 770 1665Q786 1649 786 1625Q786 1584 740 1538Q704 1500 634 1449T500
1349T355 1227L334 1245Q390 1311 431 1365Z" />
<glyph unicode="&#xee;" glyph-name="icircumflex" horiz-adv-x="618" d="M339 924T339 954Q339 1006 295 1006Q248 1006 211 957T133 797L104 721H66L119 870Q161 987 229 1034T373 1081Q509 1081 509 953Q509 893 475 795L256 174Q240 130 240 99Q240 47 289
47Q331 47 368 93T449 256L477 332H516L463 182Q423 71 356 21T211 -29Q68 -29 68 96Q68 159 104 258L324 879Q339 924 339 954ZM922 1295T845 1346T697 1475Q518 1334 338 1262L328 1290Q461 1347 577 1441T769 1642H805Q827 1514 883 1432T1049 1290L1041 1262Q922
1295 845 1346Z" />
<glyph unicode="&#xef;" glyph-name="idieresis" horiz-adv-x="618" d="M339 924T339 954Q339 1006 295 1006Q248 1006 211 957T133 797L104 721H66L119 870Q161 987 229 1034T373 1081Q509 1081 509 953Q509 893 475 795L256 174Q240 130 240 99Q240 47 289 47Q331
47 368 93T449 256L477 332H516L463 182Q423 71 356 21T211 -29Q68 -29 68 96Q68 159 104 258L324 879Q339 924 339 954ZM160 1420T179 1451T230 1502T298 1522Q341 1522 370 1492T400 1419Q400 1386 381 1355T331 1304T263 1284Q217 1284 189 1313T160 1389Q160
1420 179 1451ZM595 1420T614 1451T664 1502T732 1522Q775 1522 804 1492T834 1419Q834 1386 815 1355T765 1304T697 1284Q652 1284 624 1314T595 1389Q595 1420 614 1451Z" />
<glyph unicode="&#xf0;" glyph-name="eth" horiz-adv-x="997" d="M915 1164T915 807Q915 623 844 428T639 102T324 -29Q193 -29 118 52T43 293Q43 453 113 639T315 953T616 1081Q679 1081 724 1050Q696 1217 611 1339L233 1171L221 1208L588 1370Q497 1485 338
1567L362 1602Q552 1531 678 1412L1006 1556L1018 1520L707 1383Q915 1164 915 807ZM441 12T534 145T683 477T739 862Q739 940 730 1010Q691 1040 616 1040Q514 1040 423 907T275 573T219 190Q219 12 336 12Q441 12 534 145Z" />
<glyph unicode="&#xf1;" glyph-name="ntilde" horiz-adv-x="1188" d="M1034 182Q962 -29 786 -29Q694 -29 657 31Q641 57 641 98Q641 156 676 258L870 844Q891 905 891 945Q891 1016 825 1016Q746 1016 647 902T453 587T286 143L250 0H72L317 879Q332 928 332
956Q332 1006 287 1006Q256 1006 232 987T183 922T129 797L102 721H63L115 870Q187 1081 358 1081Q479 1081 479 960Q479 905 451 795L380 515Q468 723 549 847T714 1026T893 1081Q1058 1081 1058 927Q1058 866 1028 772L829 174Q813 126 813 97Q813 47 862 47Q904
47 942 93T1020 256L1047 332H1085L1034 182ZM436 1469T507 1521T658 1573Q717 1573 755 1552T853 1477T971 1423Q1049 1423 1114 1542L1151 1532Q1106 1425 1035 1373T885 1321Q826 1321 788 1342T689 1416T571 1470Q492 1470 428 1352L391 1362Q436 1469 507
1521Z" />
<glyph unicode="&#xf2;" glyph-name="ograve" horiz-adv-x="999" d="M43 454T114 639T321 953T635 1081Q766 1081 840 1000T915 760Q915 599 844 414T638 100T324 -29Q193 -29 118 52T43 293Q43 454 114 639ZM518 1040T425 907T275 574T219 190Q219 12 336 12Q441
12 534 145T683 477T739 862Q739 954 711 997T623 1040Q518 1040 425 907ZM662 1299T620 1352T513 1484T420 1606Q399 1640 399 1671Q399 1712 432 1729Q447 1735 464 1735Q517 1735 553 1671Q578 1628 607 1552T665 1405T740 1239L713 1227Q662 1299 620 1352Z"
/>
<glyph unicode="&#xf3;" glyph-name="oacute" horiz-adv-x="999" d="M43 454T114 639T321 953T635 1081Q766 1081 840 1000T915 760Q915 599 844 414T638 100T324 -29Q193 -29 118 52T43 293Q43 454 114 639ZM518 1040T425 907T275 574T219 190Q219 12 336 12Q441
12 534 145T683 477T739 862Q739 954 711 997T623 1040Q518 1040 425 907ZM648 1311T689 1365T795 1506T899 1634Q939 1680 983 1680Q1008 1680 1028 1665Q1044 1649 1044 1625Q1044 1584 998 1538Q962 1500 892 1449T758 1349T613 1227L592 1245Q648 1311 689
1365Z" />
<glyph unicode="&#xf4;" glyph-name="ocircumflex" horiz-adv-x="999" d="M43 454T114 639T321 953T635 1081Q766 1081 840 1000T915 760Q915 599 844 414T638 100T324 -29Q193 -29 118 52T43 293Q43 454 114 639ZM518 1040T425 907T275 574T219 190Q219 12 336
12Q441 12 534 145T683 477T739 862Q739 954 711 997T623 1040Q518 1040 425 907ZM924 1295T847 1346T699 1475Q520 1334 340 1262L330 1290Q463 1347 579 1441T771 1642H807Q829 1514 885 1432T1051 1290L1043 1262Q924 1295 847 1346Z" />
<glyph unicode="&#xf5;" glyph-name="otilde" horiz-adv-x="999" d="M43 454T114 639T321 953T635 1081Q766 1081 840 1000T915 760Q915 599 844 414T638 100T324 -29Q193 -29 118 52T43 293Q43 454 114 639ZM518 1040T425 907T275 574T219 190Q219 12 336 12Q441
12 534 145T683 477T739 862Q739 954 711 997T623 1040Q518 1040 425 907ZM401 1469T472 1521T623 1573Q682 1573 720 1552T818 1477T936 1423Q1014 1423 1079 1542L1116 1532Q1071 1425 1000 1373T850 1321Q791 1321 753 1342T654 1416T536 1470Q457 1470 393
1352L356 1362Q401 1469 472 1521Z" />
<glyph unicode="&#xf6;" glyph-name="odieresis" horiz-adv-x="999" d="M43 454T114 639T321 953T635 1081Q766 1081 840 1000T915 760Q915 599 844 414T638 100T324 -29Q193 -29 118 52T43 293Q43 454 114 639ZM518 1040T425 907T275 574T219 190Q219 12 336
12Q441 12 534 145T683 477T739 862Q739 954 711 997T623 1040Q518 1040 425 907ZM418 1420T437 1451T488 1502T556 1522Q599 1522 628 1492T658 1419Q658 1386 639 1355T589 1304T521 1284Q475 1284 447 1313T418 1389Q418 1420 437 1451ZM853 1420T872 1451T922
1502T990 1522Q1033 1522 1062 1492T1092 1419Q1092 1386 1073 1355T1023 1304T955 1284Q910 1284 882 1314T853 1389Q853 1420 872 1451Z" />
<glyph unicode="&#xf7;" glyph-name="divide" horiz-adv-x="1346" d="M698 1068T740 1101T829 1135Q868 1135 892 1112T916 1053Q916 1040 911 1022Q898 974 855 942T764 909Q726 909 703 931T679 990Q679 1004 684 1022Q698 1068 740 1101ZM1223 758L1204 696H178L197
758H1223ZM527 478T570 511T659 545Q698 545 722 523T746 464Q746 450 741 432Q727 385 684 351T594 317Q556 317 533 340T509 400Q509 414 514 432Q527 478 570 511Z" />
<glyph unicode="&#xf8;" glyph-name="oslash" horiz-adv-x="999" d="M915 883T915 760Q915 599 844 414T638 100T324 -29Q194 -29 120 50L-45 -150L-74 -123L95 82Q43 163 43 293Q43 454 114 639T321 953T635 1081Q774 1081 846 993L1018 1200L1044 1176L869 961Q915
883 915 760ZM735 965T707 1002T623 1040Q520 1040 428 912T280 589T219 212L739 884Q735 965 707 1002ZM233 12T336 12Q438 12 528 136T675 449T738 821L221 147Q233 12 336 12Z" />
<glyph unicode="&#xf9;" glyph-name="ugrave" horiz-adv-x="1161" d="M1061 332L1010 182Q936 -29 762 -29Q728 -29 700 -15T657 27Q645 52 645 90Q645 144 674 258L739 515Q657 317 581 198T427 25T260 -29Q87 -29 87 129Q87 193 117 281L315 879Q331 929 331
956Q331 1006 283 1006Q241 1006 203 960T125 797L98 721H59L111 870Q183 1081 358 1081Q502 1081 502 954Q502 898 469 795L274 209Q254 149 254 107Q254 37 319 37Q397 37 492 151T680 469T843 931L874 1053Q991 1056 1061 1081L807 174Q792 122 792 94Q792 47
836 47Q881 47 918 95T995 256L1022 332H1061ZM641 1299T599 1352T492 1484T399 1606Q378 1640 378 1671Q378 1712 411 1729Q426 1735 443 1735Q496 1735 532 1671Q557 1628 586 1552T644 1405T719 1239L692 1227Q641 1299 599 1352Z" />
<glyph unicode="&#xfa;" glyph-name="uacute" horiz-adv-x="1161" d="M1061 332L1010 182Q936 -29 762 -29Q728 -29 700 -15T657 27Q645 52 645 90Q645 144 674 258L739 515Q657 317 581 198T427 25T260 -29Q87 -29 87 129Q87 193 117 281L315 879Q331 929 331
956Q331 1006 283 1006Q241 1006 203 960T125 797L98 721H59L111 870Q183 1081 358 1081Q502 1081 502 954Q502 898 469 795L274 209Q254 149 254 107Q254 37 319 37Q397 37 492 151T680 469T843 931L874 1053Q991 1056 1061 1081L807 174Q792 122 792 94Q792 47
836 47Q881 47 918 95T995 256L1022 332H1061ZM627 1311T668 1365T774 1506T878 1634Q918 1680 962 1680Q987 1680 1007 1665Q1023 1649 1023 1625Q1023 1584 977 1538Q941 1500 871 1449T737 1349T592 1227L571 1245Q627 1311 668 1365Z" />
<glyph unicode="&#xfb;" glyph-name="ucircumflex" horiz-adv-x="1161" d="M1061 332L1010 182Q936 -29 762 -29Q728 -29 700 -15T657 27Q645 52 645 90Q645 144 674 258L739 515Q657 317 581 198T427 25T260 -29Q87 -29 87 129Q87 193 117 281L315 879Q331 929
331 956Q331 1006 283 1006Q241 1006 203 960T125 797L98 721H59L111 870Q183 1081 358 1081Q502 1081 502 954Q502 898 469 795L274 209Q254 149 254 107Q254 37 319 37Q397 37 492 151T680 469T843 931L874 1053Q991 1056 1061 1081L807 174Q792 122 792 94Q792
47 836 47Q881 47 918 95T995 256L1022 332H1061ZM903 1295T826 1346T678 1475Q499 1334 319 1262L309 1290Q442 1347 558 1441T750 1642H786Q808 1514 864 1432T1030 1290L1022 1262Q903 1295 826 1346Z" />
<glyph unicode="&#xfc;" glyph-name="udieresis" horiz-adv-x="1161" d="M1061 332L1010 182Q936 -29 762 -29Q728 -29 700 -15T657 27Q645 52 645 90Q645 144 674 258L739 515Q657 317 581 198T427 25T260 -29Q87 -29 87 129Q87 193 117 281L315 879Q331 929
331 956Q331 1006 283 1006Q241 1006 203 960T125 797L98 721H59L111 870Q183 1081 358 1081Q502 1081 502 954Q502 898 469 795L274 209Q254 149 254 107Q254 37 319 37Q397 37 492 151T680 469T843 931L874 1053Q991 1056 1061 1081L807 174Q792 122 792 94Q792
47 836 47Q881 47 918 95T995 256L1022 332H1061ZM397 1420T416 1451T467 1502T535 1522Q578 1522 607 1492T637 1419Q637 1386 618 1355T568 1304T500 1284Q454 1284 426 1313T397 1389Q397 1420 416 1451ZM832 1420T851 1451T901 1502T969 1522Q1012 1522 1041
1492T1071 1419Q1071 1386 1052 1355T1002 1304T934 1284Q889 1284 861 1314T832 1389Q832 1420 851 1451Z" />
<glyph unicode="&#xfd;" glyph-name="yacute" horiz-adv-x="985" d="M686 277T768 449T883 788Q820 821 774 869T727 977Q727 1026 756 1053T831 1081Q938 1081 938 915Q938 784 880 620T730 295T535 6Q343 -233 131 -334Q24 -385 -47 -385Q-91 -385 -120 -363T-150
-301Q-150 -259 -117 -234T-39 -209Q4 -209 44 -230T131 -289Q292 -204 438 -44L287 874Q276 937 262 962T221 987Q195 987 167 947T100 799L74 723H35L86 872Q158 1081 322 1081Q365 1081 394 1064T441 1006T469 893L574 123Q686 277 768 449ZM562 1311T603 1365T709
1506T813 1634Q853 1680 897 1680Q922 1680 942 1665Q958 1649 958 1625Q958 1584 912 1538Q876 1500 806 1449T672 1349T527 1227L506 1245Q562 1311 603 1365Z" />
<glyph unicode="&#xfe;" glyph-name="thorn" horiz-adv-x="1128" d="M556 916T645 998T838 1081Q937 1081 994 1008T1051 793Q1051 627 978 434T767 106T451 -29Q395 -29 350 2T284 89L207 -180Q199 -209 199 -229Q199 -283 244 -305T373 -328L360 -371Q336 -370
253 -366T86 -362Q20 -362 -52 -366T-141 -371L-129 -328Q-79 -328 -50 -317T-2 -278T31 -201L417 1165Q355 1029 271 924T68 705L45 731Q143 827 207 899T336 1078T465 1337L539 1599Q652 1604 725 1628L466 725Q556 916 645 998ZM325 74T361 46T449 18Q558 18
656 154T814 485T874 838Q874 926 849 971T778 1016Q725 1016 655 947T518 759T403 504L299 141Q325 74 361 46Z" />
<glyph unicode="&#xff;" glyph-name="ydieresis" horiz-adv-x="985" d="M686 277T768 449T883 788Q820 821 774 869T727 977Q727 1026 756 1053T831 1081Q938 1081 938 915Q938 784 880 620T730 295T535 6Q343 -233 131 -334Q24 -385 -47 -385Q-91 -385 -120 -363T-150
-301Q-150 -259 -117 -234T-39 -209Q4 -209 44 -230T131 -289Q292 -204 438 -44L287 874Q276 937 262 962T221 987Q195 987 167 947T100 799L74 723H35L86 872Q158 1081 322 1081Q365 1081 394 1064T441 1006T469 893L574 123Q686 277 768 449ZM332 1420T351 1451T402
1502T470 1522Q513 1522 542 1492T572 1419Q572 1386 553 1355T503 1304T435 1284Q389 1284 361 1313T332 1389Q332 1420 351 1451ZM767 1420T786 1451T836 1502T904 1522Q947 1522 976 1492T1006 1419Q1006 1386 987 1355T937 1304T869 1284Q824 1284 796 1314T767
1389Q767 1420 786 1451Z" />
<glyph unicode="&#x2013;" glyph-name="endash" horiz-adv-x="1491" d="M1331 500H102L123 582H1354L1331 500Z" />
<glyph unicode="&#x2014;" glyph-name="emdash" horiz-adv-x="2052" d="M1892 500H102L123 582H1915L1892 500Z" />
<glyph unicode="&#x2018;" glyph-name="quoteleft" horiz-adv-x="489" d="M466 1404T409 1334T346 1194Q405 1246 453 1246Q489 1246 509 1227T530 1174Q530 1131 503 1087T431 1013T342 984Q297 984 275 1019T252 1104Q252 1175 288 1247T392 1382T553 1491L563
1463Q466 1404 409 1334Z" />
<glyph unicode="&#x2019;" glyph-name="quoteright" horiz-adv-x="492" d="M353 1034T410 1104T473 1244Q414 1192 366 1192Q330 1192 310 1211T289 1264Q289 1307 316 1351T388 1425T477 1454Q522 1454 544 1419T567 1334Q567 1263 531 1191T427 1056T266 947L256
975Q353 1034 410 1104Z" />
<glyph unicode="&#x201a;" glyph-name="quotesinglbase" horiz-adv-x="516" d="M50 -187T107 -117T170 23Q111 -29 63 -29Q27 -29 7 -10T-14 43Q-14 86 13 130T85 204T174 233Q219 233 241 198T264 113Q264 42 228 -30T124 -165T-37 -274L-47 -246Q50 -187 107 -117Z" />
<glyph unicode="&#x201c;" glyph-name="quotedblleft" horiz-adv-x="817" d="M809 1406T752 1336T688 1196Q747 1248 795 1248Q822 1248 837 1229T852 1176Q852 1133 828 1089T764 1015T684 986Q594 986 594 1106Q594 1177 630 1249T734 1384T895 1493L906 1465Q809
1406 752 1336ZM469 1406T412 1336T348 1196Q407 1248 455 1248Q482 1248 497 1229T512 1176Q512 1133 488 1089T424 1015T344 986Q254 986 254 1106Q254 1177 290 1249T394 1384T555 1493L566 1465Q469 1406 412 1336Z" />
<glyph unicode="&#x201d;" glyph-name="quotedblright" horiz-adv-x="821" d="M344 1040T401 1110T465 1250Q406 1198 358 1198Q331 1198 316 1217T301 1270Q301 1313 325 1357T389 1431T469 1460Q559 1460 559 1340Q559 1269 523 1197T419 1062T258 953L247 981Q344
1040 401 1110ZM684 1040T741 1110T805 1250Q746 1198 698 1198Q671 1198 656 1217T641 1270Q641 1313 665 1357T729 1431T809 1460Q899 1460 899 1340Q899 1269 863 1197T759 1062T598 953L587 981Q684 1040 741 1110Z" />
<glyph unicode="&#x201e;" glyph-name="quotedblbase" horiz-adv-x="838" d="M31 -187T88 -117T152 23Q93 -29 45 -29Q18 -29 3 -10T-12 43Q-12 86 12 130T76 204T156 233Q246 233 246 113Q246 42 210 -30T106 -165T-55 -274L-66 -246Q31 -187 88 -117ZM371 -187T428
-117T492 23Q433 -29 385 -29Q358 -29 343 -10T328 43Q328 86 352 130T416 204T496 233Q586 233 586 113Q586 42 550 -30T446 -165T285 -274L274 -246Q371 -187 428 -117Z" />
<glyph unicode="&#x2022;" glyph-name="bullet" horiz-adv-x="911" d="M148 590T194 657T310 763T461 803Q535 803 595 769T690 675T725 542Q725 532 723 510Q715 430 669 364T552 258T401 219Q327 219 267 253T173 348T138 481Q138 500 139 510Q148 590 194 657Z" />
<glyph unicode="&#x2039;" glyph-name="guilsinglleft" horiz-adv-x="721" d="M609 991T531 875T365 657T203 500Q260 453 319 359T425 159T492 -29H455Q274 324 49 498V502Q206 612 343 755T614 1081H651Q609 991 531 875Z" />
<glyph unicode="&#x203a;" glyph-name="guilsinglright" horiz-adv-x="719" d="M408 727T633 553V551Q476 439 339 297T68 -29H31Q73 61 151 177T317 396T479 553Q422 600 363 693T257 893T190 1081H227Q408 727 633 553Z" />
</font>
</defs>
</svg>
