<?xml version="1.0" standalone="no"?>
<!DOCTYPE svg PUBLIC "-//W3C//DTD SVG 1.1//EN" "http://www.w3.org/Graphics/SVG/1.1/DTD/svg11.dtd">
<svg xmlns="http://www.w3.org/2000/svg">
<defs >
<font id="VesperLibre" horiz-adv-x="1164" ><font-face
    font-family="Vesper Libre"
    units-per-em="2048"
    panose-1="0 0 8 0 0 0 0 0 0 0"
    ascent="2330"
    descent="-1550"
    alphabetic="0" />
<glyph unicode=" " glyph-name="space" horiz-adv-x="581" />
<glyph unicode="!" glyph-name="exclam" horiz-adv-x="797" d="M252 654T247 906T241 1384H532L520 440L265 491Q252 654 247 906ZM399 314T452 284Q493 261 528 229T567 177Q570 162 561 137T534 85Q505 38 475 7T423 -25Q400 -25 347 3Q305 26 270 58T230 113Q225
139 265 205Q289 249 321 281T375 314Q399 314 452 284Z" />
<glyph unicode="&quot;" glyph-name="quotedbl" horiz-adv-x="788" d="M108 1400H328Q326 1279 319 1145T300 903L108 956V1400ZM456 1400H676Q674 1279 667 1145T648 903L456 956V1400Z" />
<glyph unicode="#" glyph-name="numbersign" horiz-adv-x="1392" d="M1154 747T1081 744L967 459H1143L1118 301L900 292L769 -35L593 3L707 286Q535 282 448 281L322 -35L145 3L257 279H62L94 459H329L439 731Q375 731 245 733L278 914H513L622 1184L791 1138L701
914H960L1069 1184L1238 1138L1148 914H1326L1300 755Q1154 747 1081 744ZM889 738Q830 736 716 734L629 732L520 459H777L889 738Z" />
<glyph unicode="$" glyph-name="dollar" horiz-adv-x="1068" d="M998 298T941 207T777 63T527 3L514 -132L366 -156L387 8Q290 19 204 46T60 108L124 382L258 345L278 141Q335 135 393 135H403L462 594L451 599Q341 647 270 694T158 810T116 974Q116 1076 170
1155T323 1283T547 1341L558 1456L711 1477L694 1339Q768 1330 829 1317L914 1323L945 1034L824 1006L724 1230Q694 1230 680 1229L628 804L682 783Q825 726 911 642T998 416Q998 298 941 207ZM365 980T398 938T502 860L534 1205Q478 1189 438 1167T379 1118Q365
1091 365 1041Q365 980 398 938ZM695 257T703 287T712 347Q712 409 677 455T582 537L543 160Q590 175 626 196T683 243Q695 257 703 287Z" />
<glyph unicode="%" glyph-name="percent" horiz-adv-x="1523" d="M299 686T227 727T111 842T68 1009Q68 1106 110 1188T229 1319T401 1368Q487 1368 559 1327T673 1211T716 1044Q716 947 674 865T556 734T386 686Q299 686 227 727ZM449 853T478 874T524 930T540
1007Q540 1060 520 1105T462 1176T374 1203Q334 1203 305 1182T260 1126T245 1052Q245 1000 265 955T322 881T411 853Q449 853 478 874ZM329 241L1044 1197L1226 1148L503 197L329 241ZM1040 -2T967 39T851 154T808 322Q808 418 850 500T969 631T1142 680Q1227
680 1299 639T1413 523T1456 356Q1456 259 1414 177T1296 46T1127 -2Q1040 -2 967 39ZM1189 165T1218 186T1264 242T1280 318Q1280 372 1260 417T1202 488T1114 515Q1074 515 1045 494T1001 438T985 364Q985 312 1005 267T1062 193T1151 165Q1189 165 1218 186Z"
/>
<glyph unicode="&amp;" glyph-name="ampersand" horiz-adv-x="1584" d="M1538 75L1521 0H1063L1075 61Q1062 86 992 163Q903 68 784 18T524 -32Q403 -32 301 11T137 142T74 361Q74 502 162 592T407 747Q315 833 264 919T212 1108Q212 1205 264 1275T403 1382T595
1419Q704 1419 788 1388T921 1294T969 1138Q969 918 700 794L1071 430Q1108 505 1128 589T1148 755Q1148 805 1143 840L1031 873L1051 950H1474L1460 865L1344 835Q1344 701 1296 575T1150 353Q1306 201 1390 124L1538 75ZM465 1273T457 1247T448 1186Q448 1025
623 868Q636 878 650 896Q728 966 728 1084Q728 1164 702 1214T636 1285T558 1306Q532 1306 508 1300T476 1285Q465 1273 457 1247ZM743 136T808 164T920 239Q791 373 486 671Q423 617 393 559T362 430Q362 361 403 293T518 180T681 136Q743 136 808 164Z" />
<glyph unicode="&apos;" glyph-name="quotesingle" horiz-adv-x="440" d="M108 1400H328Q326 1279 319 1145T300 903L108 956V1400Z" />
<glyph unicode="(" glyph-name="parenleft" horiz-adv-x="622" d="M69 854T179 1091T506 1484L607 1440Q464 1273 383 1044T302 578Q302 335 381 113T607 -282L504 -326Q285 -167 177 63T69 578Q69 854 179 1091Z" />
<glyph unicode=")" glyph-name="parenright" horiz-adv-x="621" d="M552 294T445 64T118 -326L15 -282Q161 -110 240 112T320 578Q320 814 239 1043T15 1440L115 1484Q332 1329 442 1092T552 578Q552 294 445 64Z" />
<glyph unicode="*" glyph-name="asterisk" horiz-adv-x="1232" d="M1083 1062T1065 1031T1007 966T904 912Q839 890 769 890Q717 890 673 904Q664 906 634 926Q667 872 716 831T826 771L825 554Q821 550 805 550Q768 550 715 579T615 670Q578 720 557 778T536
886Q535 900 547 939L548 944Q505 895 481 835T457 709L250 643Q244 648 239 665T234 706Q234 744 248 788T295 878Q332 929 381 967T477 1020Q492 1026 526 1026Q455 1055 384 1055Q330 1055 280 1038L153 1215Q156 1223 174 1234T222 1253T288 1261Q337 1261
391 1244Q450 1225 501 1191T582 1115Q593 1103 604 1067Q605 1078 605 1100Q605 1221 539 1308L668 1483Q681 1483 706 1456T750 1380T770 1266Q770 1203 753 1144T706 1045Q702 1038 690 1028T666 1009Q728 1024 782 1058T873 1144L1079 1076Q1083 1062 1065
1031Z" />
<glyph unicode="+" glyph-name="plus" horiz-adv-x="1024" d="M411 237T409 466Q330 465 259 465T128 465L147 660H408V923L602 945V660H899L880 489Q829 482 766 478T602 470V165L420 141Q411 237 409 466Z" />
<glyph unicode="," glyph-name="comma" horiz-adv-x="625" d="M132 145T154 191Q178 237 212 274T273 316Q283 318 289 318Q303 318 318 313T357 297Q402 273 442 238T487 178Q488 170 488 152Q488 121 483 84T471 21Q450 -62 388 -155T238 -320L138 -303L272
-13Q218 17 179 58T136 125Q132 145 154 191Z" />
<glyph unicode="-" glyph-name="hyphen" horiz-adv-x="987" d="M174 656H854L823 489Q722 477 486 467T133 456L174 656Z" />
<glyph unicode="." glyph-name="period" horiz-adv-x="633" d="M322 -40T273 -13T183 51T136 113Q131 138 158 187T223 279T287 325Q290 326 296 326Q325 326 371 299T456 235T498 177Q503 151 476 102T410 10T347 -36Q322 -40 273 -13Z" />
<glyph unicode="/" glyph-name="slash" horiz-adv-x="907" d="M846 1446L259 -219L62 -173L653 1495L846 1446Z" />
<glyph unicode="0" glyph-name="zero" horiz-adv-x="1293" d="M482 -29T370 35T195 233T132 572Q132 884 264 1048T667 1212Q806 1212 917 1150T1094 958T1160 635Q1160 300 1030 136T630 -29Q482 -29 370 35ZM493 220T522 176T590 105T671 78Q710 78 734 84T772
108Q809 148 832 268T856 521Q856 817 798 960Q771 1023 724 1064T613 1106Q546 1106 521 1077Q487 1040 463 925T438 677Q438 399 479 271Q493 220 522 176Z" />
<glyph unicode="1" glyph-name="one" horiz-adv-x="943" d="M109 987L127 1081L638 1205V141L817 97L795 0H122L139 80L355 140V987H109Z" />
<glyph unicode="2" glyph-name="two" horiz-adv-x="1210" d="M165 856V1117Q236 1152 320 1173T475 1203T587 1212Q721 1212 822 1174T978 1065T1034 898Q1034 776 949 649T745 411T442 149L382 100L860 147L975 327L1088 311L1016 0H151L116 91Q184 169 349 341Q375
368 461 458T591 601Q646 664 688 745T731 898Q731 954 713 991Q691 1037 633 1063T496 1090Q432 1090 379 1079L279 835L165 856Z" />
<glyph unicode="3" glyph-name="three" horiz-adv-x="1124" d="M725 666T804 632T931 531T980 368Q980 118 738 25T170 -74L154 8Q306 43 415 81T604 191T685 370Q685 489 583 540T335 591L357 680L761 1069Q569 1044 303 1035L240 869L125 888L137 1198L312 1187L970
1193L1006 1091L634 668Q725 666 804 632Z" />
<glyph unicode="4" glyph-name="four" horiz-adv-x="1234" d="M1105 250H952V-40L675 -96V250H97L45 340L526 1212L813 1139L352 396L675 413V646L952 709V428L1138 438L1105 250Z" />
<glyph unicode="5" glyph-name="five" horiz-adv-x="1061" d="M243 42T348 81T530 192T607 369Q607 499 521 557T296 615Q233 615 143 610L195 1187H930L845 1011L421 1048L408 705Q481 710 532 710Q648 710 731 672T859 561T904 387Q904 -63 121 -75L103 7Q243
42 348 81Z" />
<glyph unicode="6" glyph-name="six" horiz-adv-x="1185" d="M478 154T528 119T639 83Q678 83 702 91T742 119Q783 165 783 330Q783 458 725 536T522 633L538 693Q571 709 615 718T695 728Q804 728 888 688T1018 572T1065 393Q1065 259 1001 164T827 19T588 -30Q431
-30 321 31T154 206T97 475Q97 660 188 820T440 1093T804 1257L896 1209Q653 1061 520 890T387 501Q387 403 401 332T446 208Q478 154 528 119Z" />
<glyph unicode="7" glyph-name="seven" horiz-adv-x="1186" d="M828 1040L316 1018L246 827L125 845L138 1200L323 1187L1056 1189L1098 1070L504 -67L224 0L828 1040Z" />
<glyph unicode="8" glyph-name="eight" horiz-adv-x="1165" d="M134 386T195 461T365 598Q268 655 217 724T165 903Q165 994 218 1064T368 1173T586 1212Q701 1212 794 1181T942 1085T997 923Q997 823 945 753T803 621Q912 561 971 484T1031 289Q1031 129 912
50T592 -29Q468 -29 365 1T198 100T134 278Q134 386 195 461ZM714 723T728 773T743 874Q743 937 713 991T635 1078T532 1110Q480 1110 454 1087Q417 1056 417 975Q417 896 466 834Q493 802 563 757T691 681Q714 723 728 773ZM406 262T436 205T519 115T631 82Q667
82 690 87T729 106Q751 123 757 151T764 222Q764 311 715 372Q684 410 603 463T466 541Q406 440 406 334Q406 262 436 205Z" />
<glyph unicode="9" glyph-name="nine" horiz-adv-x="1191" d="M407 85T537 194T720 434T773 721Q773 807 748 899T671 1048Q618 1106 532 1106Q471 1106 441 1076Q396 1037 396 893Q396 817 407 764T447 672Q471 641 513 623T622 597L638 528Q580 511 476 511Q390
511 319 534T202 602Q159 644 136 705T112 845Q112 961 165 1043T319 1169T563 1212Q729 1212 843 1151T1014 977T1072 714Q1072 544 1025 410T862 166Q609 -74 203 -74L186 7Q407 85 537 194Z" />
<glyph unicode=":" glyph-name="colon" horiz-adv-x="589" d="M333 -40T284 -13T194 51T147 113Q142 138 169 187T234 279T298 325Q301 326 307 326Q336 326 382 299T467 235T509 177Q514 151 487 102T421 10T358 -36Q333 -40 284 -13ZM333 563T284 590T194 654T147
716Q142 741 169 790T234 882T298 928Q301 929 307 929Q336 929 382 902T467 838T509 780Q514 754 487 705T421 613T358 567Q333 563 284 590Z" />
<glyph unicode=";" glyph-name="semicolon" horiz-adv-x="569" d="M155 145T177 191Q201 237 235 274T296 316Q306 318 312 318Q326 318 341 313T380 297Q425 273 465 238T510 178Q511 170 511 152Q511 121 506 84T494 21Q473 -62 411 -155T261 -320L161 -303L295
-13Q241 17 202 58T159 125Q155 145 177 191ZM333 563T284 590T194 654T147 716Q142 741 169 790T234 882T298 928Q301 929 307 929Q336 929 382 902T467 838T509 780Q514 754 487 705T421 613T358 567Q333 563 284 590Z" />
<glyph unicode="&lt;" glyph-name="less" horiz-adv-x="1025" d="M108 410V540L836 889L908 718L404 475L909 229L834 58L108 410Z" />
<glyph unicode="=" glyph-name="equal" horiz-adv-x="1024" d="M151 849H900L876 680Q543 657 125 655L151 849ZM151 498H900L876 329Q487 305 125 305L151 498Z" />
<glyph unicode="&gt;" glyph-name="greater" horiz-adv-x="1024" d="M117 229L622 475L118 718L190 889L918 540V410L192 58L117 229Z" />
<glyph unicode="?" glyph-name="question" horiz-adv-x="1168" d="M362 643Q362 660 365 667T382 681Q551 767 626 854T701 1034Q701 1121 660 1191T564 1301T470 1344L431 1162Q411 1142 382 1124T330 1106Q304 1106 263 1137T191 1209T159 1279Q159 1317 205
1349T324 1399T468 1418Q596 1418 719 1382T925 1264T1008 1058Q1008 919 924 826T659 662Q654 636 635 566T602 444L368 490L362 643ZM524 -40T475 -13T385 51T338 113Q337 115 337 121Q337 149 364 196T428 282T488 325Q491 326 497 326Q527 326 573 299T657
235T699 177Q704 151 677 102T611 10T548 -36Q524 -40 475 -13Z" />
<glyph unicode="@" glyph-name="at" horiz-adv-x="1759" d="M1156 183T1169 175T1192 166Q1239 166 1292 225T1380 383T1416 597Q1416 737 1359 846T1196 1017T953 1079Q793 1079 644 978T403 709T311 351Q311 180 377 64T547 -107T765 -163Q822 -163 885 -140T1001
-84L1175 -133Q1106 -197 993 -246T716 -295Q515 -295 370 -219T148 -2T71 332Q71 579 198 781T537 1099T989 1214Q1222 1214 1370 1134T1586 918T1654 611Q1654 440 1560 310T1328 110T1073 40Q1036 40 1005 62T954 116T927 172H911Q872 116 818 78T707 40Q636
40 579 72T487 169T453 332Q453 473 518 608T696 829T941 915Q994 915 1042 900T1118 858L1240 875L1210 726L1146 195Q1156 183 1169 175ZM830 793T795 729T739 574T717 385Q717 319 728 266T764 187Q797 189 836 202T906 237L982 645Q968 731 939 772T869 816Q830
793 795 729Z" />
<glyph unicode="A" glyph-name="A" horiz-adv-x="1432" d="M1467 97L1440 0H807L823 84L982 149L893 416Q658 403 403 403L316 151L501 81L485 0H-39L-21 94L139 156L585 1384L819 1419L1309 149L1467 97ZM842 568L645 1155Q635 1091 459 568H842Z" />
<glyph unicode="B" glyph-name="B" horiz-adv-x="1366" d="M76 85L251 155V1230L64 1304L81 1384H478Q732 1384 883 1366T1128 1277T1223 1060Q1223 969 1178 903T1059 796T895 740Q1005 729 1093 685T1234 566T1286 392Q1286 246 1213 161T990 38T600 0H59L76
85ZM917 1176T814 1232T554 1305V81Q680 100 768 131T913 224T970 391Q970 517 883 591T660 701L669 760Q789 797 853 872T917 1051Q917 1176 814 1232Z" />
<glyph unicode="C" glyph-name="C" horiz-adv-x="1284" d="M546 -35T398 44T168 276T86 646Q86 843 154 1005T348 1269Q531 1419 800 1419Q895 1419 1021 1398L1167 1408L1197 1028L1074 1006L987 1212Q932 1243 867 1256T721 1270Q657 1270 602 1256T521 1216Q466
1160 435 1031T404 743Q404 477 527 316Q585 240 661 202T811 164Q863 164 1006 189T1207 230L1243 167Q1155 67 1028 16T740 -35Q546 -35 398 44Z" />
<glyph unicode="D" glyph-name="D" horiz-adv-x="1517" d="M252 155V1230L65 1303L82 1384H552Q747 1384 896 1363T1153 1276Q1302 1185 1369 1037T1436 701Q1436 544 1395 419T1272 207Q1193 123 1080 78T836 16T539 0H59L76 84L252 155ZM747 127T869 189T1054
374T1118 697Q1118 1012 910 1165Q850 1209 755 1241T555 1288V99Q747 127 869 189Z" />
<glyph unicode="E" glyph-name="E" horiz-adv-x="1332" d="M1058 165L1180 359L1292 341L1213 0H55L71 88L253 157V1231L65 1304L84 1384H1041L1179 1397L1217 1046L1095 1022L999 1234L555 1296V741Q692 765 815 775L880 944L973 924L955 453L860 470L814 628Q660
637 555 659V99L1058 165Z" />
<glyph unicode="F" glyph-name="F" horiz-adv-x="1257" d="M59 1302L77 1384H1077L1204 1397L1239 1043L1119 1023L1023 1234L549 1294V741Q660 759 838 776L904 945L997 922L979 451L883 466L837 628Q690 631 549 651V157L832 102L796 0H51L68 87L247 157V1231L59 1302Z" />
<glyph unicode="G" glyph-name="G" horiz-adv-x="1480" d="M751 583L766 666H1458L1444 577L1322 499V212Q1274 143 1190 87T1001 -2T784 -35Q614 -35 489 6T263 142Q174 227 126 358T78 649Q78 838 146 1002T351 1277Q436 1346 550 1382T795 1418Q865 1418 941
1411T1086 1389L1237 1402L1278 1028L1155 1007L1076 1188Q1021 1230 934 1253T761 1276Q686 1276 619 1263T524 1223Q461 1167 427 1034T393 708Q393 557 430 435T537 242Q600 174 673 148T829 121Q879 121 936 132T1026 163V507L751 583Z" />
<glyph unicode="H" glyph-name="H" horiz-adv-x="1669" d="M756 87L736 0H58L74 85L252 156V1230L65 1303L82 1384H743L724 1294L549 1224V772H1119V1229L934 1301L952 1384H1613L1597 1301L1416 1229V154L1605 81L1587 0H908L925 88L1119 158V624Q854 610 549
602V159L756 87Z" />
<glyph unicode="I" glyph-name="I" horiz-adv-x="810" d="M252 156V1230L65 1302L82 1384H752L737 1300L555 1228V156L747 82L729 0H57L75 86L252 156Z" />
<glyph unicode="J" glyph-name="J" horiz-adv-x="773" d="M35 1302L52 1384H733L717 1300L549 1229V456Q549 254 516 123T395 -113T141 -331L79 -283Q122 -190 184 -26T247 175V1230L35 1302Z" />
<glyph unicode="K" glyph-name="K" horiz-adv-x="1537" d="M253 155V1230L65 1304L83 1384H730L714 1297L555 1227V160L753 86L734 0H59L75 86L253 155ZM1348 156L1538 82L1520 0H1005L1022 81L624 702L1036 1234L885 1306L904 1384H1518L1499 1297L1323 1232L931
751L1348 156Z" />
<glyph unicode="L" glyph-name="L" horiz-adv-x="1247" d="M1139 359L1251 342L1172 0H58L74 85L253 157V1231L65 1302L83 1384H760L744 1299L556 1227V100L1014 166L1139 359Z" />
<glyph unicode="M" glyph-name="M" horiz-adv-x="2035" d="M68 1298L86 1384H576L1028 297L1445 1384H1977L1961 1290L1781 1219V154L1972 82L1954 0H1291L1307 84L1484 155V1149Q1408 891 1309 619T1081 25L833 -15L391 1143Q414 968 420 754T429 213V154L613
82L596 0H60L77 85L251 155V1227L68 1298Z" />
<glyph unicode="N" glyph-name="N" horiz-adv-x="1572" d="M251 155V1230L64 1302L82 1384H521L1195 343Q1174 540 1169 737T1164 1231L962 1301L978 1384H1530L1514 1300L1346 1229V15L1090 -25L397 1055Q420 855 425 655T431 154L638 82L620 0H64L80 84L251 155Z" />
<glyph unicode="O" glyph-name="O" horiz-adv-x="1491" d="M77 838T159 1019T402 1310T789 1419Q959 1419 1102 1340T1329 1111T1414 762Q1414 546 1330 364T1087 74T718 -35Q537 -35 391 44T161 273T77 623Q77 838 159 1019ZM553 210T635 168T810 125Q868 125
921 142T1007 197Q1050 250 1074 378T1098 617Q1098 746 1089 829T1054 984Q1023 1066 966 1128T835 1225T682 1259Q555 1259 498 1203Q445 1151 419 1019T393 766Q393 604 414 489T498 286Q553 210 635 168Z" />
<glyph unicode="P" glyph-name="P" horiz-adv-x="1287" d="M253 155V1230L66 1303L83 1384H584Q709 1384 789 1380T948 1356T1089 1296Q1162 1248 1204 1165T1246 975Q1246 880 1206 803T1091 674Q1013 621 901 597T679 573L691 640Q789 688 841 731T918 832T943
982Q943 1146 835 1223T556 1303V154L801 82L785 0H57L74 85L253 155Z" />
<glyph unicode="Q" glyph-name="Q" horiz-adv-x="1491" d="M1414 547T1331 366T1096 80L1410 -258L1374 -324Q1295 -324 1195 -286T994 -181T815 -29Q769 -35 718 -35Q537 -35 391 44T161 273T77 623Q77 838 159 1019T402 1310T789 1419Q959 1419 1102 1340T1329
1111T1414 762Q1414 547 1331 366ZM553 210T635 168T810 125Q868 125 921 142T1007 197Q1050 250 1074 378T1098 617Q1098 746 1089 829T1054 984Q1023 1066 966 1128T835 1225T682 1259Q555 1259 498 1203Q445 1151 419 1019T393 766Q393 604 414 489T498 286Q553
210 635 168Z" />
<glyph unicode="R" glyph-name="R" horiz-adv-x="1430" d="M253 155V1230L66 1303L83 1384H642Q790 1384 909 1364T1118 1284Q1185 1239 1222 1171T1260 1012Q1260 888 1187 804T976 676L1257 162L1442 80L1423 0H959L978 83L678 686Q829 746 890 831T952 1022Q952
1114 893 1175T744 1268T556 1304V167L753 95L729 0H58L74 83L253 155Z" />
<glyph unicode="S" glyph-name="S" horiz-adv-x="1143" d="M726 1291T708 1289Q604 1283 527 1250T418 1171Q409 1157 404 1137T398 1096Q398 1048 430 1008T529 926T712 827Q825 773 898 722T1016 595T1062 413Q1062 279 991 178T789 21T484 -35Q357 -35 243
0T59 84L137 421L267 393L293 117Q355 115 409 122Q500 129 581 155T705 227Q749 271 749 342Q749 392 722 429T643 499T481 592Q477 594 455 606Q340 666 270 719T158 848T116 1033Q116 1151 184 1238T373 1372T648 1419Q708 1419 773 1409T880 1390L990 1394L1024
1022L899 998L767 1291Q726 1291 708 1289Z" />
<glyph unicode="T" glyph-name="T" horiz-adv-x="1422" d="M560 160V1288L262 1243L128 993L5 1015L87 1394L220 1384H1235L1363 1398L1407 1013L1280 987L1163 1242L856 1289V159L1087 89L1069 0H338L357 89L560 160Z" />
<glyph unicode="U" glyph-name="U" horiz-adv-x="1551" d="M511 420T554 330T681 189T879 138Q941 138 992 155T1077 207Q1161 291 1161 477V1229L964 1302L981 1384H1520L1505 1300L1352 1226V508Q1352 332 1283 211T1080 27T756 -35Q485 -35 350 95T214 469V1230L43
1303L60 1384H725L703 1283L511 1219V536Q511 420 554 330Z" />
<glyph unicode="V" glyph-name="V" horiz-adv-x="1414" d="M1109 1234L933 1292L951 1384H1447L1429 1291L1294 1233L871 0L576 -35L106 1233L-36 1291L-17 1384H625L610 1293L448 1232L804 202L1109 1234Z" />
<glyph unicode="W" glyph-name="W" horiz-adv-x="2182" d="M2214 1384L2196 1290L2064 1233L1672 0L1377 -35L1095 849L808 0L511 -35L133 1232L-14 1290L3 1384H632L617 1293L462 1232L737 216L1022 1077L972 1234L826 1295L843 1384H1496L1479 1291L1291 1231L1604
216L1879 1234L1681 1290L1701 1384H2214Z" />
<glyph unicode="X" glyph-name="X" horiz-adv-x="1437" d="M1421 87L1406 0H748L763 86L902 152L641 547L391 151L545 81L526 0H16L32 92L182 152L559 670L174 1233L21 1286L41 1384H691L677 1298L537 1232L798 831L1043 1232L891 1304L907 1384H1419L1400 1287L1250
1233L882 707L1268 148L1421 87Z" />
<glyph unicode="Y" glyph-name="Y" horiz-adv-x="1286" d="M500 151V558L102 1232L-37 1291L-19 1384H593L577 1296L425 1231L732 690Q775 808 834 939T973 1230L793 1303L811 1384H1314L1299 1290L1160 1233L797 560V151L1000 82L983 0H310L325 83L500 151Z" />
<glyph unicode="Z" glyph-name="Z" horiz-adv-x="1289" d="M1111 382L1227 362L1146 0H108L53 150L879 1279L324 1232L221 1014L93 1035L138 1394L342 1384H1175L1215 1262L384 116L985 167L1111 382Z" />
<glyph unicode="[" glyph-name="bracketleft" horiz-adv-x="635" d="M617 1472L602 1399L390 1321V-164L627 -248L608 -316H160V1472H617Z" />
<glyph unicode="\" glyph-name="backslash" horiz-adv-x="936" d="M262 1495L854 24L658 -23L67 1445L262 1495Z" />
<glyph unicode="]" glyph-name="bracketright" horiz-adv-x="632" d="M472 -316H14L29 -245L242 -164V1321L14 1400L32 1472H472V-316Z" />
<glyph unicode="^" glyph-name="asciicircum" horiz-adv-x="937" d="M483 1214L369 1269L643 1538H805L1079 1269L965 1213L724 1353L483 1214Z" />
<glyph unicode="_" glyph-name="underscore" horiz-adv-x="1024" d="M1088 -182L1055 -365H-64L-23 -182H1088Z" />
<glyph unicode="`" glyph-name="grave" horiz-adv-x="1024" d="M257 1286L291 1463H419L705 1195L680 1049L257 1286Z" />
<glyph unicode="a" glyph-name="a" horiz-adv-x="1080" d="M57 337T93 399T209 496Q259 518 326 528T466 538Q561 538 628 527V581Q628 799 550 851Q533 863 505 869T445 875Q418 875 392 868L363 696Q341 674 311 657T264 640Q240 640 198 669T124 737T91 808Q91
833 133 860T225 906Q313 940 427 957T611 975Q769 975 839 894T910 674V198Q937 159 979 134T1083 93L1070 35Q948 -22 793 -25Q765 26 733 64T655 132Q603 63 525 19T342 -25Q241 -25 177 15T85 116T57 241Q57 337 93 399ZM411 124T430 124Q469 124 529 137T628
165V461Q548 449 488 433T394 399T350 371Q336 352 336 307Q336 262 355 210T400 136Q411 124 430 124Z" />
<glyph unicode="b" glyph-name="b" horiz-adv-x="1166" d="M111 -25L67 33L155 199V1278L12 1365L22 1413L437 1472V830Q511 891 595 933T762 975Q877 975 951 908T1060 735T1095 508Q1095 392 1062 289T965 114Q845 -25 677 -25Q592 -25 529 4T406 100L111 -25ZM483
159T544 147T670 134Q708 134 731 141T767 172Q790 204 804 277T818 422Q818 524 794 613T720 762Q704 784 686 792T643 801Q608 801 542 789T437 763V188Q483 159 544 147Z" />
<glyph unicode="c" glyph-name="c" horiz-adv-x="930" d="M479 874T416 794Q375 740 357 670T338 530Q338 448 356 382T415 257Q497 139 615 139Q669 139 758 155T879 182L898 150Q866 108 812 68T686 1T533 -25Q385 -25 279 35T116 205T60 462Q60 618 131 734T322
911T585 973Q644 973 693 964T787 935Q827 916 857 888T887 836Q887 806 855 765T782 693T716 662Q694 662 664 679T615 719L579 890Q479 874 416 794Z" />
<glyph unicode="d" glyph-name="d" horiz-adv-x="1199" d="M1040 157T1093 131T1191 94L1178 33Q1143 17 1058 -4T914 -25Q882 27 849 65T774 132Q716 61 635 18T458 -25Q354 -25 265 23T121 175T65 438Q65 584 118 706T270 902T500 975Q619 975 736 879V1277L591
1366L600 1412L1018 1472V196Q1040 157 1093 131ZM485 167T509 153T557 139Q600 139 652 149T736 174V734Q696 773 634 794T506 816Q462 816 434 806T391 765Q349 682 349 534Q349 426 380 338T466 190Q485 167 509 153Z" />
<glyph unicode="e" glyph-name="e" horiz-adv-x="1002" d="M683 975T768 930T900 808T946 635Q946 556 921 495Q914 478 901 470T863 461H337Q348 378 386 304T481 185T604 140Q664 140 759 157T888 186L906 152Q845 75 738 25T517 -25Q397 -25 293 26T125 187T60
460Q60 598 123 716T301 904T568 975Q683 975 768 930ZM704 588Q698 668 665 725T580 811T466 840Q441 840 424 836T395 819Q370 785 353 716T333 544L704 588Z" />
<glyph unicode="f" glyph-name="f" horiz-adv-x="806" d="M208 145V793L52 862L70 950H208Q208 1132 256 1247T406 1417T667 1472Q744 1472 796 1462T894 1430Q931 1413 958 1386T986 1334Q986 1306 955 1265T882 1192T815 1160Q793 1160 764 1178T713 1217L676
1397Q600 1377 560 1316T505 1166T490 950H804L791 871L490 795V135L753 70L737 0H56L72 78L208 145Z" />
<glyph unicode="g" glyph-name="g" horiz-adv-x="1107" d="M936 133T1000 81T1065 -73Q1065 -188 996 -285T788 -441T452 -500Q347 -500 246 -481T86 -420Q11 -368 11 -278Q11 -205 65 -149T203 -51Q143 -29 108 13T73 114Q73 188 137 238T286 312Q198 349 149
417T100 584Q100 694 149 782T303 923T563 975Q629 975 691 960T806 914Q873 947 949 964T1094 982L1114 942L939 769Q961 716 961 653Q961 537 904 451T746 318T517 272Q433 272 364 287Q323 213 323 183Q323 171 331 162T352 148Q379 138 456 136T778 133Q936
133 1000 81ZM381 811T373 773T364 695Q364 615 391 546T470 435T591 392Q647 392 673 418Q688 433 697 481T706 603Q706 672 682 730T607 823T485 858Q457 858 432 852T397 832Q381 811 373 773ZM782 -313T794 -291T815 -236T824 -168Q824 -140 819 -124T793 -97T732
-87Q568 -87 464 -84T284 -70Q264 -110 249 -157T234 -237Q234 -261 243 -273Q260 -297 309 -317T427 -349T565 -361Q627 -361 685 -352T772 -320Q782 -313 794 -291Z" />
<glyph unicode="h" glyph-name="h" horiz-adv-x="1280" d="M1267 70L1251 0H724L739 75L827 143V552Q827 643 810 702T768 783Q752 796 731 796Q682 796 597 782T463 752V135L603 68L587 0H31L45 76L181 141V1277L37 1365L46 1412L463 1472V821Q664 974 822 974Q944
974 1026 895T1109 620V135L1267 70Z" />
<glyph unicode="i" glyph-name="i" horiz-adv-x="657" d="M338 1109T293 1133T210 1192T167 1249Q163 1272 187 1317T247 1401T305 1444Q330 1448 375 1423T457 1364T498 1308Q502 1284 477 1239T417 1155T360 1113Q338 1109 293 1133ZM198 141V770L55 857L63
906L480 965V135L625 68L610 0H47L62 77L198 141Z" />
<glyph unicode="j" glyph-name="j" horiz-adv-x="595" d="M306 1109T262 1133T179 1192T136 1249Q132 1272 156 1318T215 1402T274 1444Q299 1449 343 1424T425 1363T467 1308Q471 1282 446 1237T386 1154T329 1113Q306 1109 262 1133ZM30 857L37 906L455 965V28Q455
-204 363 -352T23 -500Q-35 -500 -98 -480T-204 -428T-246 -360Q-246 -333 -214 -291T-139 -217T-72 -185Q-52 -185 -25 -202T28 -241L71 -439Q117 -386 138 -332T166 -205T173 0V770L30 857Z" />
<glyph unicode="k" glyph-name="k" horiz-adv-x="1244" d="M36 1365L45 1412L462 1472V135L608 68L592 0H31L45 76L180 141V1277L36 1365ZM1113 125L1249 67L1232 0H794L806 65L503 550L801 832L690 883L704 950H1171L1155 874L1016 825L779 611L1113 125Z" />
<glyph unicode="l" glyph-name="l" horiz-adv-x="640" d="M36 1365L45 1412L462 1472V135L608 68L592 0H31L45 76L180 141V1277L36 1365Z" />
<glyph unicode="m" glyph-name="m" horiz-adv-x="1904" d="M55 857L64 906L402 960L456 805Q667 975 833 975Q906 975 973 936T1076 808Q1168 885 1267 930T1439 975Q1538 975 1602 936T1700 805T1734 562V135L1891 70L1875 0H1349L1364 75L1452 143V496Q1452
723 1398 775Q1390 788 1382 792T1356 796Q1319 796 1234 784T1093 750Q1103 713 1106 651T1109 477V135L1248 68L1231 0H725L738 73L827 143V500Q827 718 765 786Q755 796 740 796Q697 796 616 784T474 752Q481 725 481 687V135L622 68L608 0H48L63 77L199 145V770L55
857Z" />
<glyph unicode="n" glyph-name="n" horiz-adv-x="1294" d="M55 857L64 906L402 965L456 804Q669 974 837 974Q959 974 1041 895T1123 620V135L1282 70L1265 0H739L753 75L841 143V552Q841 643 824 702T783 783Q767 796 746 796Q695 796 609 782T474 751Q475 746
478 730T481 698V135L622 67L607 0H48L63 78L199 145V770L55 857Z" />
<glyph unicode="o" glyph-name="o" horiz-adv-x="1096" d="M59 589T122 709T297 902T552 975Q689 975 798 923T972 764T1037 496Q1037 360 974 240T798 48T548 -25Q409 -25 299 26T124 185T59 453Q59 589 122 709ZM650 116T678 125T720 151Q739 176 749 243T760
378Q760 516 724 619T624 778T478 834Q405 834 376 799Q359 773 348 707T336 571Q336 442 369 339T465 176T615 116Q650 116 678 125Z" />
<glyph unicode="p" glyph-name="p" horiz-adv-x="1182" d="M722 -405L707 -475H23L38 -396L173 -330V770L30 857L38 906L377 960L439 827Q528 893 608 933T774 974Q879 974 955 918T1072 755T1113 501Q1113 364 1060 242T914 49Q869 15 815 -5T702 -25Q626 -25
560 0T455 78V-340L722 -405ZM455 740T455 693V188Q501 159 563 147T690 134Q727 134 749 141T784 172Q806 205 820 270T835 412Q835 519 809 609T732 761Q715 784 697 793T654 802Q619 802 556 790T453 763Q455 740 455 693Z" />
<glyph unicode="q" glyph-name="q" horiz-adv-x="1172" d="M686 49T613 12T450 -25Q348 -25 261 24T119 179T65 450Q65 568 105 676T222 860Q275 914 345 944T494 974Q664 974 775 844L1062 965L1102 901L1016 737V-337L1173 -405L1158 -475H478L495 -398L734
-334V98Q686 49 613 12ZM694 769T632 792T506 816Q459 816 432 806T390 764Q349 686 349 533Q349 313 462 192Q480 168 506 154T558 139Q600 139 651 148T734 173V734Q694 769 632 792Z" />
<glyph unicode="r" glyph-name="r" horiz-adv-x="920" d="M56 857L64 906L403 960L465 785Q523 886 584 929T719 973Q745 973 776 963T835 935Q869 914 891 887T913 835Q913 807 882 764T809 689T740 656Q719 656 691 670T644 701L625 803Q593 792 550 767T481
719V134L750 70L734 0H47L63 78L199 145V770L56 857Z" />
<glyph unicode="s" glyph-name="s" horiz-adv-x="920" d="M509 876T446 846T347 780Q335 767 330 755T324 724Q324 698 346 675T416 630Q445 617 543 580Q613 555 655 538T733 500Q789 466 822 415T856 294Q856 182 793 111T630 7T414 -25Q303 -25 218 -2T54 67L107
323L222 300L271 92Q342 92 432 113T567 168Q596 188 596 221Q596 245 578 264T518 303Q493 315 423 343Q366 365 325 383T247 422Q174 464 131 525T87 678Q87 778 147 844T303 943T506 975Q651 975 740 933Q843 877 843 833Q843 801 814 760T746 689T686 659Q665
659 637 677T593 716L561 885Q509 876 446 846Z" />
<glyph unicode="t" glyph-name="t" horiz-adv-x="803" d="M30 950H175L215 1159L457 1259V950H768L752 863L457 793V367Q457 292 475 230T527 144Q543 131 574 131Q609 131 688 143T795 162L810 124Q751 64 661 20T475 -25Q337 -25 256 58T175 316V793L12 861L30 950Z" />
<glyph unicode="u" glyph-name="u" horiz-adv-x="1258" d="M21 866L39 950H453V388Q453 285 467 235T509 159Q520 149 531 145T559 140Q612 140 677 149T784 173V779L640 864L656 950H1066V196Q1088 156 1142 129T1239 94L1224 33Q1183 13 1108 -6T961 -25Q946
8 905 60T821 136Q756 66 670 21T491 -25Q171 -25 171 332V779L21 866Z" />
<glyph unicode="v" glyph-name="v" horiz-adv-x="1109" d="M1135 950L1122 880L1002 820L673 0L446 -23L113 822L-29 882L-18 950H526L510 878L410 826L635 218L840 824L722 883L735 950H1135Z" />
<glyph unicode="w" glyph-name="w" horiz-adv-x="1606" d="M1616 950L1602 882L1481 821L1241 0L994 -25L793 528L622 0L383 -25L122 821L-22 883L-10 950H531L517 878L409 825L569 206L791 950H912L1188 207L1338 825L1179 881L1192 950H1616Z" />
<glyph unicode="x" glyph-name="x" horiz-adv-x="1214" d="M1198 70L1185 0H604L619 76L717 120L537 354L363 119L472 67L458 0H25L40 77L176 129L455 460L166 830L25 879L39 950H612L598 875L505 832L676 593L852 830L740 883L754 950H1179L1163 871L1042 825L757
483L1055 121L1198 70Z" />
<glyph unicode="y" glyph-name="y" horiz-adv-x="1135" d="M1155 950L1141 878L1022 821L770 162Q690 -46 631 -174T513 -380T385 -484Q340 -500 285 -500Q224 -500 159 -480T50 -426T7 -352Q7 -326 38 -284T111 -210T179 -177Q201 -177 233 -195T284 -234L321
-417Q342 -405 385 -342T476 -189T560 -16L447 -30L110 822L-31 881L-19 950H529L514 878L409 826L634 207L835 824L718 884L730 950H1155Z" />
<glyph unicode="z" glyph-name="z" horiz-adv-x="996" d="M795 307L906 314L908 0H100L46 109L636 856L291 830L211 657L98 648V950H885L932 829L371 95L718 129L795 307Z" />
<glyph unicode="{" glyph-name="braceleft" horiz-adv-x="661" d="M269 570T307 551T383 484T421 356V-159L646 -264L629 -335Q432 -335 343 -316T228 -257T202 -134V396Q202 472 65 543Q57 548 51 556T44 575Q44 586 51 595T65 608Q115 635 158 676T202 763V1287Q202
1371 228 1410T347 1469T647 1488L634 1417L421 1309V793Q421 714 384 666T308 599T246 575Q269 570 307 551Z" />
<glyph unicode="|" glyph-name="bar" horiz-adv-x="543" d="M170 -500V1418L373 1472V-447L170 -500Z" />
<glyph unicode="}" glyph-name="braceright" horiz-adv-x="662" d="M393 583T355 602T279 669T241 797V1312L15 1416L32 1488Q229 1488 318 1469T433 1410T459 1287V757Q459 683 596 610Q604 605 610 597T617 578Q617 567 610 558T596 545Q545 516 502 476T459
390V-134Q459 -218 433 -257T314 -316T14 -335L27 -264L241 -156V360Q241 439 278 487T354 554T416 578Q393 583 355 602Z" />
<glyph unicode="~" glyph-name="asciitilde" horiz-adv-x="963" d="M116 585Q186 659 240 698T356 738Q404 738 445 716T536 654Q569 629 585 619T616 609Q648 609 709 638T821 708L846 563Q799 514 765 484T690 433T606 412Q558 412 518 433T427 495Q396 519
379 530T346 541Q313 541 251 512T141 440L116 585Z" />
<glyph unicode="&#xa0;" glyph-name="uni00A0" horiz-adv-x="581" />
<glyph unicode="&#xa1;" glyph-name="exclamdown" horiz-adv-x="554" d="M209 766T148 800Q107 823 72 855T33 907Q30 922 39 947T66 999Q95 1046 125 1077T177 1109Q201 1109 253 1081Q298 1056 334 1021T371 965Q371 942 335 879Q313 839 283 807T232 771Q209
766 148 800ZM348 430T353 178T359 -300H68L80 644L335 593Q348 430 353 178Z" />
<glyph unicode="&#xa2;" glyph-name="cent" horiz-adv-x="1051" d="M961 151Q903 77 804 27T588 -24H586L570 -164L425 -184L447 -10Q332 15 248 79T119 239T74 454Q74 598 138 710T315 889T567 971L585 1122L733 1143L710 972Q788 963 849 933Q887 915 915 887T944
838Q944 810 915 771T847 702T786 673Q767 673 745 689T704 729L687 804L651 535L605 141Q638 136 668 136Q724 136 815 153T935 183L961 151ZM463 215T473 205L512 512L555 873Q474 850 427 796Q383 746 366 674T348 525Q348 431 376 350T463 215Q463 215 473
205Z" />
<glyph unicode="&#xa3;" glyph-name="sterling" horiz-adv-x="1358" d="M1067 654L615 573L549 100L1034 154L1157 340L1268 323L1191 0H49L65 85L243 157L303 582L88 632L111 739H325L361 988Q386 1166 520 1265T903 1365Q954 1365 1007 1355T1092 1336L1213
1344L1244 1032L1120 1006L1017 1227Q986 1243 938 1243Q787 1243 731 1173Q715 1157 697 1081T667 931L639 739H1077L1067 654Z" />
<glyph unicode="&#xa4;" glyph-name="currency" horiz-adv-x="1310" d="M243 396Q190 499 190 615Q190 693 212 766T274 902L130 1043L270 1181L405 1038Q525 1120 677 1120Q749 1120 818 1098T946 1035L1084 1180L1218 1045L1067 905Q1135 794 1135 661Q1135
522 1070 406L1222 259L1079 117L950 260Q888 210 813 184T655 157Q572 157 495 183T357 259L222 120L89 255L243 396ZM743 403T786 431T854 506T879 610Q879 683 848 744T761 841T635 877Q581 877 537 848T468 771T443 668Q443 599 474 538T561 440T690 403Q743
403 786 431Z" />
<glyph unicode="&#xa5;" glyph-name="yen" horiz-adv-x="1427" d="M1362 1310L1340 1214L1207 1160L905 627H1130L1115 524L844 515V408H1131L1116 305L844 296V151L1047 83L1029 0H381L398 84L572 151V287L295 278L321 408H572V506L295 497L321 627H509L203 1159L64
1216L82 1310H659L644 1224L495 1158L775 635L1028 1157L849 1230L866 1310H1362Z" />
<glyph unicode="&#xa6;" glyph-name="brokenbar" horiz-adv-x="543" d="M170 650V1418L373 1472V703L170 650ZM170 -500V268L373 322V-447L170 -500Z" />
<glyph unicode="&#xa7;" glyph-name="section" horiz-adv-x="1054" d="M709 652T709 706Q709 755 673 792T574 858T400 929Q250 984 173 1058T96 1244Q96 1342 156 1417T321 1535T553 1577Q646 1577 740 1550T895 1482T956 1402Q956 1368 927 1326T859 1254T799
1223Q778 1223 751 1241T706 1279L676 1452Q573 1452 498 1426T389 1360Q372 1340 372 1302Q372 1274 399 1250T469 1205T588 1152L643 1129Q765 1076 833 1026T930 919T959 783Q959 704 914 641T796 542T640 505L656 608Q709 652 709 706ZM345 738T345 685Q345
636 381 600T481 534T655 463Q804 407 881 333T959 148Q959 50 899 -25T733 -143T501 -185Q408 -185 314 -158T160 -90T99 -10Q99 23 128 65T196 137T255 168Q276 168 304 150T348 112L378 -60Q481 -60 556 -34T665 32Q682 52 682 90Q682 118 655 142T585 187T468
239L412 263Q289 316 221 365T125 472T96 609Q96 688 141 751T259 851T416 887L398 783Q345 738 345 685Z" />
<glyph unicode="&#xa8;" glyph-name="dieresis" horiz-adv-x="1024" d="M124 1273T150 1320T212 1406T271 1445Q294 1445 334 1420T408 1362T446 1308Q450 1284 427 1237T371 1151T315 1113Q292 1113 248 1137T168 1194T128 1249Q124 1273 150 1320ZM573 1274T596
1321T653 1407T708 1445Q732 1445 775 1421T854 1363T895 1308Q899 1285 874 1237T812 1151T751 1113Q728 1113 688 1137T615 1195T577 1249Q573 1274 596 1321Z" />
<glyph unicode="&#xa9;" glyph-name="copyright" horiz-adv-x="1364" d="M95 739T170 881T387 1102T718 1180Q874 1180 999 1115T1197 916T1270 589Q1270 404 1195 263T980 43T654 -35Q480 -35 355 35T162 238T95 552Q95 739 170 881ZM270 455T320 347T468 178T704
118Q811 118 900 174T1042 328T1094 545Q1094 690 1044 798T898 967T666 1027Q556 1027 466 971T324 818T270 601Q270 455 320 347ZM383 657T420 737T531 862T708 908Q749 908 819 894L883 904L908 679L827 657L778 759Q735 774 683 774Q655 774 631 767T593 746Q557
711 557 592Q557 551 569 510T603 439Q626 406 656 391T715 376Q740 376 810 396T910 429L942 362Q822 237 682 237Q593 237 525 277T420 390T383 555Q383 657 420 737Z" />
<glyph unicode="&#xaa;" glyph-name="ordfeminine" horiz-adv-x="1079" d="M296 615T242 649T162 735T136 840Q136 920 167 966T265 1043Q317 1063 395 1070T541 1078Q557 1078 582 1075T613 1069Q613 1172 601 1230T552 1313Q525 1334 458 1334Q436 1334 423
1329L403 1204Q339 1148 309 1148Q288 1148 253 1175T190 1236T162 1292Q162 1311 196 1333T274 1368Q415 1419 581 1419Q717 1419 778 1358T840 1191V790Q857 762 888 745T972 717L958 665Q918 646 854 630T734 614Q683 714 642 741Q624 714 583 685T487 635T375
615Q296 615 242 649ZM433 759T448 759Q486 759 536 768T613 790V997Q515 988 459 972T388 941Q380 933 378 921T375 891Q375 855 391 816T427 764Q433 759 448 759ZM164 506H978L948 369Q762 358 533 353T135 347L164 506Z" />
<glyph unicode="&#xab;" glyph-name="guillemotleft" horiz-adv-x="1012" d="M531 192T595 57L489 -21L36 461L487 944L594 866Q566 801 497 702T319 461Q531 192 595 57ZM854 325T936 172L828 92L488 461L827 829L934 752Q912 702 868 632T755 461Q854 325 936 172Z" />
<glyph unicode="&#xac;" glyph-name="logicalnot" horiz-adv-x="1024" d="M132 660H877V140L707 162L695 472L107 465L132 660Z" />
<glyph unicode="&#xad;" glyph-name="uni00AD" horiz-adv-x="942" d="M174 656H854L823 489Q722 477 486 467T133 456L174 656Z" />
<glyph unicode="&#xae;" glyph-name="registered" horiz-adv-x="1191" d="M438 541T326 605T149 785T84 1049Q84 1204 148 1328T333 1524T619 1595Q748 1595 860 1533T1039 1355T1107 1083Q1107 928 1043 805T859 611T578 541Q438 541 326 605ZM231 975T278 878T415
726T625 671Q716 671 791 720T910 853T954 1038Q954 1167 907 1264T772 1413T568 1466Q474 1466 397 1415T276 1280T231 1099Q231 975 278 878ZM369 877L419 903V1252L350 1280L367 1348H523Q661 1348 730 1322Q774 1307 800 1276T826 1198Q826 1145 803 1113T718
1055L792 899L863 857L850 810H663L671 851L582 1069Q634 1086 657 1111T680 1177Q680 1223 644 1242T551 1271V893L610 868L591 810H355L369 877Z" />
<glyph unicode="&#xaf;" glyph-name="overscore" horiz-adv-x="1024" d="M244 1316H817L784 1148Q539 1136 264 1136H209L244 1316Z" />
<glyph unicode="&#xb0;" glyph-name="degree" horiz-adv-x="810" d="M315 861T242 897T126 1000T83 1154Q83 1246 124 1319T240 1435T415 1477Q496 1477 568 1440T683 1336T727 1181Q727 1089 686 1016T570 902T401 861Q315 861 242 897ZM470 1030T502 1065T534
1153Q534 1220 495 1266T389 1312Q338 1312 306 1275T273 1184Q273 1120 310 1075T418 1030Q470 1030 502 1065Z" />
<glyph unicode="&#xb1;" glyph-name="plusminus" horiz-adv-x="1024" d="M408 520L120 519L146 713H408V925L601 948V713H897L877 540L601 524V282L408 262V520ZM150 167H898L877 -4Q558 -24 124 -27L150 167Z" />
<glyph unicode="&#xb2;" glyph-name="uni00B2" horiz-adv-x="729" d="M460 1039T661 1050L695 886H63L35 957Q58 980 167 1106T308 1270Q357 1328 380 1373T403 1454Q403 1495 374 1522T279 1549Q208 1549 107 1519L59 1629Q190 1699 343 1699Q483 1699 560 1640T637
1478Q637 1410 593 1335T479 1186T302 1012Q460 1039 661 1050Z" />
<glyph unicode="&#xb3;" glyph-name="uni00B3" horiz-adv-x="677" d="M147 940T218 963T338 1029T387 1137Q387 1211 327 1239T170 1269L183 1343L433 1569Q331 1558 228 1551T68 1543L35 1685H609L633 1607L417 1342Q508 1332 561 1279T614 1147Q614 1032 535
960T334 858T80 827L50 921Q147 940 218 963Z" />
<glyph unicode="&#xb4;" glyph-name="acute" horiz-adv-x="1024" d="M614 1463H740L775 1285L354 1049L327 1195L614 1463Z" />
<glyph unicode="&#xb5;" glyph-name="uni00B5" horiz-adv-x="1349" d="M1101 162T1118 140T1178 111T1308 103L1299 35Q1074 -28 974 -28Q898 -28 865 3T823 107Q789 46 722 8T586 -31Q488 -31 423 28L444 -458L164 -500V933L444 975V436Q444 317 491 244T638
171Q686 171 733 188T818 242V258V933L1101 975V207Q1101 162 1118 140Z" />
<glyph unicode="&#xb6;" glyph-name="paragraph" horiz-adv-x="1545" d="M566 616Q344 625 216 721T87 997Q87 1142 152 1227T341 1348T649 1384H1471L1455 1300L1276 1229V22L1003 -35V1225H828V22L554 -35L566 616Z" />
<glyph unicode="&#xb7;" glyph-name="middot" horiz-adv-x="592" d="M328 373T279 400T189 464T142 526Q137 551 164 600T229 692T293 738Q296 739 302 739Q331 739 377 712T461 648T503 590Q504 587 504 582Q504 553 477 506T413 420T353 377Q328 373 279 400Z" />
<glyph unicode="&#xb8;" glyph-name="cedilla" horiz-adv-x="1024" d="M520 -84Q618 -102 665 -144T713 -262Q713 -339 651 -390T499 -465T332 -489L307 -416Q441 -368 485 -333T529 -270Q529 -238 480 -216T340 -178Q343 -144 381 -82T451 8H558L520 -84Z" />
<glyph unicode="&#xb9;" glyph-name="uni00B9" horiz-adv-x="612" d="M216 999V1552H43L59 1634L448 1701V1003L594 977L574 886H50L67 972L216 999Z" />
<glyph unicode="&#xba;" glyph-name="ordmasculine" horiz-adv-x="1015" d="M132 1104T180 1202T314 1359T510 1419Q615 1419 699 1378T833 1251T883 1040Q883 929 834 831T700 674T515 615Q405 615 319 656T182 782T132 993Q132 1104 180 1202ZM589 753T609 758T641
776Q662 797 674 852T686 953Q686 1045 658 1120T575 1239T447 1283Q421 1283 403 1277T375 1261Q355 1239 342 1187T329 1081Q329 999 354 924T432 801T567 753Q589 753 609 758ZM164 506H891L860 369Q489 347 135 347L164 506Z" />
<glyph unicode="&#xbb;" glyph-name="guillemotright" horiz-adv-x="1012" d="M581 605T513 703T417 866L524 944L976 461L523 -21L416 57Q481 192 692 461Q581 605 513 703ZM190 559T145 630T77 752L185 829L524 461L183 92L76 172Q150 314 257 461Q190 559 145 630Z" />
<glyph unicode="&#xbc;" glyph-name="onequarter" horiz-adv-x="1744" d="M216 699V1252H43L59 1334L448 1401V703L594 676L574 586H50L67 671L216 699ZM388 241L1103 1197L1285 1148L562 197L388 241ZM931 281L1276 830L1504 794L1163 326L1339 334V430L1541
467V346L1647 349L1630 213H1545V-30L1329 -66V213H962L931 281Z" />
<glyph unicode="&#xbd;" glyph-name="onehalf" horiz-adv-x="1728" d="M216 699V1252H43L59 1334L448 1401V703L594 676L574 586H50L67 671L216 699ZM388 241L1103 1197L1285 1148L562 197L388 241ZM1459 152T1665 165L1699 1H1067L1040 71Q1090 127 1174 223T1313
384Q1361 442 1384 487T1407 568Q1407 609 1378 636T1283 664Q1211 664 1111 633L1064 743Q1193 813 1347 813Q1487 813 1564 754T1641 592Q1641 524 1597 449T1483 300T1306 126Q1459 152 1665 165Z" />
<glyph unicode="&#xbe;" glyph-name="threequarters" horiz-adv-x="1809" d="M147 640T218 663T338 729T387 836Q387 910 327 938T170 969L183 1043L433 1268Q328 1257 226 1250T68 1243L35 1385H609L633 1307L417 1041Q508 1031 561 978T614 847Q614 731 535
660T334 558T80 527L50 621Q147 640 218 663ZM381 241L1096 1197L1278 1148L555 197L381 241ZM918 281L1262 830L1490 794L1149 326L1326 334V430L1527 467V346L1633 349L1617 213H1531V-30L1315 -66V213H949L918 281Z" />
<glyph unicode="&#xbf;" glyph-name="questiondown" horiz-adv-x="1108" d="M584 1133T633 1106T723 1042T770 980Q771 978 771 972Q771 944 744 897T680 811T620 768Q617 767 611 767Q581 767 535 794T451 858T409 916Q404 942 431 991T497 1083T560 1129Q584
1133 633 1106ZM746 450Q746 433 743 426T726 412Q557 326 482 239T407 59Q407 -28 448 -98T544 -208T638 -251L677 -69Q697 -49 726 -31T778 -13Q804 -13 845 -44T917 -116T949 -186Q949 -224 903 -256T785 -306T641 -325Q513 -325 389 -289T183 -171T100 35Q100
174 184 267T449 431Q455 459 473 528T507 649L740 603L746 450Z" />
<glyph unicode="&#xc0;" glyph-name="Agrave" horiz-adv-x="1432" d="M1467 97L1440 0H807L823 84L982 149L893 416Q658 403 403 403L316 151L501 81L485 0H-39L-21 94L139 156L585 1384L819 1419L1309 149L1467 97ZM842 568L645 1155Q635 1091 459 568H842ZM440
1637L473 1801H603L951 1599L929 1488L440 1637Z" />
<glyph unicode="&#xc1;" glyph-name="Aacute" horiz-adv-x="1432" d="M1467 97L1440 0H807L823 84L982 149L893 416Q658 403 403 403L316 151L501 81L485 0H-39L-21 94L139 156L585 1384L819 1419L1309 149L1467 97ZM842 568L645 1155Q635 1091 459 568H842ZM501
1597L851 1801H981L1014 1636L525 1489L501 1597Z" />
<glyph unicode="&#xc2;" glyph-name="Acircumflex" horiz-adv-x="1432" d="M1467 97L1440 0H807L823 84L982 149L893 416Q658 403 403 403L316 151L501 81L485 0H-39L-21 94L139 156L585 1384L819 1419L1309 149L1467 97ZM842 568L645 1155Q635 1091 459 568H842ZM358
1560L638 1797H756L1037 1560L951 1486L697 1612L443 1486L358 1560Z" />
<glyph unicode="&#xc3;" glyph-name="Atilde" horiz-adv-x="1432" d="M1467 97L1440 0H807L823 84L982 149L893 416Q658 403 403 403L316 151L501 81L485 0H-39L-21 94L139 156L585 1384L819 1419L1309 149L1467 97ZM842 568L645 1155Q635 1091 459 568H842ZM327
1670Q374 1723 409 1755T485 1809T572 1831Q623 1831 663 1809T753 1744Q782 1720 800 1708T834 1696Q866 1696 925 1728T1043 1809L1064 1675Q1017 1623 983 1591T907 1537T818 1515Q768 1515 728 1538T639 1602Q609 1627 592 1638T559 1650Q525 1650 465 1618T352
1537L327 1670Z" />
<glyph unicode="&#xc4;" glyph-name="Adieresis" horiz-adv-x="1432" d="M1467 97L1440 0H807L823 84L982 149L893 416Q658 403 403 403L316 151L501 81L485 0H-39L-21 94L139 156L585 1384L819 1419L1309 149L1467 97ZM842 568L645 1155Q635 1091 459 568H842ZM786
1636T807 1677T859 1750T911 1783Q931 1783 968 1762T1037 1714T1072 1667Q1075 1647 1054 1606T1002 1532T951 1499Q930 1499 893 1520T824 1569T789 1616Q786 1636 807 1677ZM318 1635T340 1676T392 1750T443 1783Q463 1783 500 1762T569 1714T605 1667Q608 1647
586 1606T534 1532T482 1499Q462 1499 425 1520T356 1569T321 1616Q318 1635 340 1676Z" />
<glyph unicode="&#xc5;" glyph-name="Aring" horiz-adv-x="1432" d="M1467 97L1440 0H807L823 84L982 149L893 416Q658 403 403 403L316 151L501 81L485 0H-39L-21 94L139 156L576 1358Q539 1382 518 1420T496 1506Q496 1563 521 1608T593 1680T702 1706Q752 1706
796 1683T868 1619T896 1524Q896 1479 880 1442T835 1377L1309 149L1467 97ZM659 1595T641 1574T623 1523Q623 1489 643 1464T702 1439Q732 1439 749 1458T767 1507Q767 1544 746 1569T688 1595Q659 1595 641 1574ZM842 568L645 1155Q635 1091 459 568H842Z" />
<glyph unicode="&#xc6;" glyph-name="AE" horiz-adv-x="1935" d="M756 404T442 404L309 151L489 82L470 0H-44L-26 93L125 151L697 1247L546 1303L564 1384H1645L1784 1397L1822 1046L1699 1022L1603 1234Q1378 1262 1180 1296V741Q1227 752 1315 763T1429 775L1491
945L1583 923L1566 454L1472 468L1428 628Q1408 628 1318 638T1180 659V99Q1210 107 1366 129T1661 165L1783 359L1895 343L1815 0H694L709 88L886 156V419Q756 404 442 404ZM886 1188H840L526 568H886V1188Z" />
<glyph unicode="&#xc7;" glyph-name="Ccedilla" horiz-adv-x="1284" d="M1077 -22T779 -34L755 -102Q807 -105 854 -125T931 -180T961 -263Q961 -343 900 -396T745 -475T552 -500L537 -430Q681 -378 729 -344T778 -284Q778 -225 554 -192Q580 -105 651 -31Q481
-13 354 70T156 300T86 646Q86 843 154 1005T348 1269Q531 1419 800 1419Q895 1419 1021 1398L1167 1408L1197 1028L1074 1006L987 1212Q932 1243 867 1256T721 1270Q657 1270 602 1256T521 1216Q466 1160 435 1031T404 743Q404 477 527 316Q585 240 661 202T811
164Q863 164 1006 189T1207 230L1243 167Q1077 -22 779 -34Z" />
<glyph unicode="&#xc8;" glyph-name="Egrave" horiz-adv-x="1332" d="M1058 165L1180 359L1292 341L1213 0H55L71 88L253 157V1231L65 1304L84 1384H1041L1179 1397L1217 1046L1095 1022L999 1234L555 1296V741Q692 765 815 775L880 944L973 924L955 453L860 470L814
628Q660 637 555 659V99L1058 165ZM406 1637L439 1801H569L917 1599L895 1488L406 1637Z" />
<glyph unicode="&#xc9;" glyph-name="Eacute" horiz-adv-x="1332" d="M1058 165L1180 359L1292 341L1213 0H55L71 88L253 157V1231L65 1304L84 1384H1041L1179 1397L1217 1046L1095 1022L999 1234L555 1296V741Q692 765 815 775L880 944L973 924L955 453L860 470L814
628Q660 637 555 659V99L1058 165ZM467 1597L817 1801H947L980 1636L491 1489L467 1597Z" />
<glyph unicode="&#xca;" glyph-name="Ecircumflex" horiz-adv-x="1332" d="M1058 165L1180 359L1292 341L1213 0H55L71 88L253 157V1231L65 1304L84 1384H1041L1179 1397L1217 1046L1095 1022L999 1234L555 1296V741Q692 765 815 775L880 944L973 924L955 453L860
470L814 628Q660 637 555 659V99L1058 165ZM324 1560L604 1797H722L1003 1560L917 1486L663 1612L409 1486L324 1560Z" />
<glyph unicode="&#xcb;" glyph-name="Edieresis" horiz-adv-x="1332" d="M1058 165L1180 359L1292 341L1213 0H55L71 88L253 157V1231L65 1304L84 1384H1041L1179 1397L1217 1046L1095 1022L999 1234L555 1296V741Q692 765 815 775L880 944L973 924L955 453L860
470L814 628Q660 637 555 659V99L1058 165ZM752 1636T773 1677T825 1750T877 1783Q897 1783 934 1762T1003 1714T1038 1667Q1041 1647 1020 1606T968 1532T917 1499Q896 1499 859 1520T790 1569T755 1616Q752 1636 773 1677ZM284 1635T306 1676T358 1750T409 1783Q429
1783 466 1762T535 1714T571 1667Q574 1647 552 1606T500 1532T448 1499Q428 1499 391 1520T322 1569T287 1616Q284 1635 306 1676Z" />
<glyph unicode="&#xcc;" glyph-name="Igrave" horiz-adv-x="810" d="M252 156V1230L65 1302L82 1384H752L737 1300L555 1228V156L747 82L729 0H57L75 86L252 156ZM148 1637L181 1801H311L659 1599L637 1488L148 1637Z" />
<glyph unicode="&#xcd;" glyph-name="Iacute" horiz-adv-x="810" d="M252 156V1230L65 1302L82 1384H752L737 1300L555 1228V156L747 82L729 0H57L75 86L252 156ZM209 1597L559 1801H689L722 1636L233 1489L209 1597Z" />
<glyph unicode="&#xce;" glyph-name="Icircumflex" horiz-adv-x="810" d="M252 156V1230L65 1302L82 1384H752L737 1300L555 1228V156L747 82L729 0H57L75 86L252 156ZM66 1560L346 1797H464L745 1560L659 1486L405 1612L151 1486L66 1560Z" />
<glyph unicode="&#xcf;" glyph-name="Idieresis" horiz-adv-x="810" d="M252 156V1230L65 1302L82 1384H752L737 1300L555 1228V156L747 82L729 0H57L75 86L252 156ZM494 1636T515 1677T567 1750T619 1783Q639 1783 676 1762T745 1714T780 1667Q783 1647 762 1606T710
1532T659 1499Q638 1499 601 1520T532 1569T497 1616Q494 1636 515 1677ZM26 1635T48 1676T100 1750T151 1783Q171 1783 208 1762T277 1714T313 1667Q316 1647 294 1606T242 1532T190 1499Q170 1499 133 1520T64 1569T29 1616Q26 1635 48 1676Z" />
<glyph unicode="&#xd0;" glyph-name="Eth" horiz-adv-x="1503" d="M1302 1185T1369 1037T1436 701Q1436 545 1396 420T1273 207Q1194 123 1081 78T836 16T539 0H60L77 84L252 155V606L48 599L84 778H252V1230L65 1303L82 1384H553Q748 1384 896 1363T1154 1276Q1302
1185 1369 1037ZM747 127T869 189T1054 374T1118 697Q1118 1013 910 1165Q850 1209 755 1241T555 1288V778H848L813 624L555 616V99Q747 127 869 189Z" />
<glyph unicode="&#xd1;" glyph-name="Ntilde" horiz-adv-x="1572" d="M251 155V1230L64 1302L82 1384H521L1195 343Q1174 540 1169 737T1164 1231L962 1301L978 1384H1530L1514 1300L1346 1229V15L1090 -25L397 1055Q420 855 425 655T431 154L638 82L620 0H64L80
84L251 155ZM406 1670Q453 1723 488 1755T564 1809T651 1831Q702 1831 742 1809T832 1744Q861 1720 879 1708T913 1696Q945 1696 1004 1728T1122 1809L1143 1675Q1096 1623 1062 1591T986 1537T897 1515Q847 1515 807 1538T718 1602Q688 1627 671 1638T638 1650Q604
1650 544 1618T431 1537L406 1670Z" />
<glyph unicode="&#xd2;" glyph-name="Ograve" horiz-adv-x="1491" d="M77 838T159 1019T402 1310T789 1419Q959 1419 1102 1340T1329 1111T1414 762Q1414 546 1330 364T1087 74T718 -35Q537 -35 391 44T161 273T77 623Q77 838 159 1019ZM553 210T635 168T810 125Q868
125 921 142T1007 197Q1050 250 1074 378T1098 617Q1098 746 1089 829T1054 984Q1023 1066 966 1128T835 1225T682 1259Q555 1259 498 1203Q445 1151 419 1019T393 766Q393 604 414 489T498 286Q553 210 635 168ZM497 1637L530 1801H660L1008 1599L986 1488L497
1637Z" />
<glyph unicode="&#xd3;" glyph-name="Oacute" horiz-adv-x="1491" d="M77 838T159 1019T402 1310T789 1419Q959 1419 1102 1340T1329 1111T1414 762Q1414 546 1330 364T1087 74T718 -35Q537 -35 391 44T161 273T77 623Q77 838 159 1019ZM553 210T635 168T810 125Q868
125 921 142T1007 197Q1050 250 1074 378T1098 617Q1098 746 1089 829T1054 984Q1023 1066 966 1128T835 1225T682 1259Q555 1259 498 1203Q445 1151 419 1019T393 766Q393 604 414 489T498 286Q553 210 635 168ZM559 1597L909 1801H1039L1072 1636L583 1489L559
1597Z" />
<glyph unicode="&#xd4;" glyph-name="Ocircumflex" horiz-adv-x="1491" d="M77 838T159 1019T402 1310T789 1419Q959 1419 1102 1340T1329 1111T1414 762Q1414 546 1330 364T1087 74T718 -35Q537 -35 391 44T161 273T77 623Q77 838 159 1019ZM553 210T635 168T810
125Q868 125 921 142T1007 197Q1050 250 1074 378T1098 617Q1098 746 1089 829T1054 984Q1023 1066 966 1128T835 1225T682 1259Q555 1259 498 1203Q445 1151 419 1019T393 766Q393 604 414 489T498 286Q553 210 635 168ZM415 1560L695 1797H813L1094 1560L1008
1486L754 1612L500 1486L415 1560Z" />
<glyph unicode="&#xd5;" glyph-name="Otilde" horiz-adv-x="1491" d="M77 838T159 1019T402 1310T789 1419Q959 1419 1102 1340T1329 1111T1414 762Q1414 546 1330 364T1087 74T718 -35Q537 -35 391 44T161 273T77 623Q77 838 159 1019ZM553 210T635 168T810 125Q868
125 921 142T1007 197Q1050 250 1074 378T1098 617Q1098 746 1089 829T1054 984Q1023 1066 966 1128T835 1225T682 1259Q555 1259 498 1203Q445 1151 419 1019T393 766Q393 604 414 489T498 286Q553 210 635 168ZM385 1670Q432 1723 467 1755T543 1809T630 1831Q681
1831 721 1809T811 1744Q840 1720 858 1708T892 1696Q924 1696 983 1728T1101 1809L1122 1675Q1075 1623 1041 1591T965 1537T876 1515Q826 1515 786 1538T697 1602Q667 1627 650 1638T617 1650Q583 1650 523 1618T410 1537L385 1670Z" />
<glyph unicode="&#xd6;" glyph-name="Odieresis" horiz-adv-x="1491" d="M77 838T159 1019T402 1310T789 1419Q959 1419 1102 1340T1329 1111T1414 762Q1414 546 1330 364T1087 74T718 -35Q537 -35 391 44T161 273T77 623Q77 838 159 1019ZM553 210T635 168T810
125Q868 125 921 142T1007 197Q1050 250 1074 378T1098 617Q1098 746 1089 829T1054 984Q1023 1066 966 1128T835 1225T682 1259Q555 1259 498 1203Q445 1151 419 1019T393 766Q393 604 414 489T498 286Q553 210 635 168ZM843 1636T864 1677T916 1750T968 1783Q988
1783 1025 1762T1094 1714T1129 1667Q1132 1647 1111 1606T1059 1532T1008 1499Q987 1499 950 1520T881 1569T846 1616Q843 1636 864 1677ZM375 1635T397 1676T449 1750T500 1783Q520 1783 557 1762T626 1714T662 1667Q665 1647 643 1606T591 1532T539 1499Q519
1499 482 1520T413 1569T378 1616Q375 1635 397 1676Z" />
<glyph unicode="&#xd7;" glyph-name="multiply" horiz-adv-x="1024" d="M646 574L870 357L734 230L513 445L291 230L156 357L379 574L150 796L285 923L513 703L740 923L875 796L646 574Z" />
<glyph unicode="&#xd8;" glyph-name="Oslash" horiz-adv-x="1491" d="M1268 1231T1341 1089T1414 762Q1414 546 1330 364T1087 74T718 -35Q643 -35 578 -22L514 -176L318 -128L390 45Q244 124 161 273T77 623Q77 838 159 1019T402 1310T789 1419Q880 1419 959
1397L1010 1518L1205 1468L1141 1316Q1268 1231 1341 1089ZM485 270L884 1218Q792 1265 688 1265Q634 1265 582 1251T498 1203Q445 1151 419 1019T393 766Q393 652 398 570T423 410T482 274L485 270ZM1049 252T1073 380T1098 617Q1098 769 1091 860T1059 1022Q1050
1048 1038 1070L650 148Q726 120 806 120Q865 120 920 138T1007 197Q1049 252 1073 380Z" />
<glyph unicode="&#xd9;" glyph-name="Ugrave" horiz-adv-x="1551" d="M511 420T554 330T681 189T879 138Q941 138 992 155T1077 207Q1161 291 1161 477V1229L964 1302L981 1384H1520L1505 1300L1352 1226V508Q1352 332 1283 211T1080 27T756 -35Q485 -35 350 95T214
469V1230L43 1303L60 1384H725L703 1283L511 1219V536Q511 420 554 330ZM567 1637L600 1801H730L1078 1599L1056 1488L567 1637Z" />
<glyph unicode="&#xda;" glyph-name="Uacute" horiz-adv-x="1551" d="M511 420T554 330T681 189T879 138Q941 138 992 155T1077 207Q1161 291 1161 477V1229L964 1302L981 1384H1520L1505 1300L1352 1226V508Q1352 332 1283 211T1080 27T756 -35Q485 -35 350 95T214
469V1230L43 1303L60 1384H725L703 1283L511 1219V536Q511 420 554 330ZM628 1597L978 1801H1108L1141 1636L652 1489L628 1597Z" />
<glyph unicode="&#xdb;" glyph-name="Ucircumflex" horiz-adv-x="1551" d="M511 420T554 330T681 189T879 138Q941 138 992 155T1077 207Q1161 291 1161 477V1229L964 1302L981 1384H1520L1505 1300L1352 1226V508Q1352 332 1283 211T1080 27T756 -35Q485 -35
350 95T214 469V1230L43 1303L60 1384H725L703 1283L511 1219V536Q511 420 554 330ZM485 1560L765 1797H883L1164 1560L1078 1486L824 1612L570 1486L485 1560Z" />
<glyph unicode="&#xdc;" glyph-name="Udieresis" horiz-adv-x="1551" d="M511 420T554 330T681 189T879 138Q941 138 992 155T1077 207Q1161 291 1161 477V1229L964 1302L981 1384H1520L1505 1300L1352 1226V508Q1352 332 1283 211T1080 27T756 -35Q485 -35 350
95T214 469V1230L43 1303L60 1384H725L703 1283L511 1219V536Q511 420 554 330ZM913 1636T934 1677T986 1750T1038 1783Q1058 1783 1095 1762T1164 1714T1199 1667Q1202 1647 1181 1606T1129 1532T1078 1499Q1057 1499 1020 1520T951 1569T916 1616Q913 1636 934
1677ZM445 1635T467 1676T519 1750T570 1783Q590 1783 627 1762T696 1714T732 1667Q735 1647 713 1606T661 1532T609 1499Q589 1499 552 1520T483 1569T448 1616Q445 1635 467 1676Z" />
<glyph unicode="&#xdd;" glyph-name="Yacute" horiz-adv-x="1286" d="M500 151V558L102 1232L-37 1291L-19 1384H593L577 1296L425 1231L732 690Q775 808 834 939T973 1230L793 1303L811 1384H1314L1299 1290L1160 1233L797 560V151L1000 82L983 0H310L325 83L500
151ZM465 1597L815 1801H945L978 1636L489 1489L465 1597Z" />
<glyph unicode="&#xde;" glyph-name="Thorn" horiz-adv-x="1292" d="M1246 924T1246 735Q1246 639 1206 562T1090 434Q1009 381 900 357T679 332L692 399Q789 445 842 491T919 597T943 747Q943 908 836 983T556 1063V156L787 82L769 0H58L76 86L253 156V1230L66
1302L83 1384H753L737 1300L556 1228V1144Q715 1143 815 1135T993 1102T1131 1025Q1246 924 1246 735Z" />
<glyph unicode="&#xdf;" glyph-name="germandbls" horiz-adv-x="1372" d="M205 145V793L49 862L67 950H205V987Q205 1088 234 1177T316 1327Q440 1478 750 1478Q880 1478 981 1442T1139 1338T1196 1179Q1196 1124 1175 1083T1123 1013T1041 947Q998 916 973 894T930
842T913 774Q913 741 930 715T985 660T1097 586Q1179 536 1231 492T1314 391T1344 260Q1344 118 1245 46T983 -26Q878 -26 791 -5T625 69L673 322L788 303L836 94Q906 95 973 113T1063 150Q1090 172 1090 214Q1090 252 1070 282T1015 339T904 415Q817 474 773 510T699
602T669 738Q669 808 702 863T781 956T888 1036Q933 1066 946 1078Q962 1094 962 1140Q962 1212 923 1262T819 1336T678 1361Q624 1361 589 1352T541 1329Q508 1290 498 1235T487 1067V125L511 0H53L69 79L205 145Z" />
<glyph unicode="&#xe0;" glyph-name="agrave" horiz-adv-x="1080" d="M57 337T93 399T209 496Q259 518 326 528T466 538Q561 538 628 527V581Q628 799 550 851Q533 863 505 869T445 875Q418 875 392 868L363 696Q341 674 311 657T264 640Q240 640 198 669T124
737T91 808Q91 833 133 860T225 906Q313 940 427 957T611 975Q769 975 839 894T910 674V198Q937 159 979 134T1083 93L1070 35Q948 -22 793 -25Q765 26 733 64T655 132Q603 63 525 19T342 -25Q241 -25 177 15T85 116T57 241Q57 337 93 399ZM411 124T430 124Q469
124 529 137T628 165V461Q548 449 488 433T394 399T350 371Q336 352 336 307Q336 262 355 210T400 136Q411 124 430 124ZM267 1286L301 1463H429L715 1195L690 1049L267 1286Z" />
<glyph unicode="&#xe1;" glyph-name="aacute" horiz-adv-x="1080" d="M57 337T93 399T209 496Q259 518 326 528T466 538Q561 538 628 527V581Q628 799 550 851Q533 863 505 869T445 875Q418 875 392 868L363 696Q341 674 311 657T264 640Q240 640 198 669T124
737T91 808Q91 833 133 860T225 906Q313 940 427 957T611 975Q769 975 839 894T910 674V198Q937 159 979 134T1083 93L1070 35Q948 -22 793 -25Q765 26 733 64T655 132Q603 63 525 19T342 -25Q241 -25 177 15T85 116T57 241Q57 337 93 399ZM411 124T430 124Q469
124 529 137T628 165V461Q548 449 488 433T394 399T350 371Q336 352 336 307Q336 262 355 210T400 136Q411 124 430 124ZM867 1463H993L1028 1285L607 1049L580 1195L867 1463Z" />
<glyph unicode="&#xe2;" glyph-name="acircumflex" horiz-adv-x="1080" d="M57 337T93 399T209 496Q259 518 326 528T466 538Q561 538 628 527V581Q628 799 550 851Q533 863 505 869T445 875Q418 875 392 868L363 696Q341 674 311 657T264 640Q240 640 198 669T124
737T91 808Q91 833 133 860T225 906Q313 940 427 957T611 975Q769 975 839 894T910 674V198Q937 159 979 134T1083 93L1070 35Q948 -22 793 -25Q765 26 733 64T655 132Q603 63 525 19T342 -25Q241 -25 177 15T85 116T57 241Q57 337 93 399ZM411 124T430 124Q469
124 529 137T628 165V461Q548 449 488 433T394 399T350 371Q336 352 336 307Q336 262 355 210T400 136Q411 124 430 124ZM525 1081L411 1136L685 1405H847L1121 1136L1007 1080L766 1220L525 1081Z" />
<glyph unicode="&#xe3;" glyph-name="atilde" horiz-adv-x="1080" d="M57 337T93 399T209 496Q259 518 326 528T466 538Q561 538 628 527V581Q628 799 550 851Q533 863 505 869T445 875Q418 875 392 868L363 696Q341 674 311 657T264 640Q240 640 198 669T124
737T91 808Q91 833 133 860T225 906Q313 940 427 957T611 975Q769 975 839 894T910 674V198Q937 159 979 134T1083 93L1070 35Q948 -22 793 -25Q765 26 733 64T655 132Q603 63 525 19T342 -25Q241 -25 177 15T85 116T57 241Q57 337 93 399ZM411 124T430 124Q469
124 529 137T628 165V461Q548 449 488 433T394 399T350 371Q336 352 336 307Q336 262 355 210T400 136Q411 124 430 124ZM401 1277Q471 1351 525 1390T641 1430Q689 1430 730 1408T821 1346Q854 1321 870 1311T901 1301Q933 1301 994 1330T1106 1400L1131 1255Q1084
1206 1050 1176T975 1125T891 1104Q843 1104 803 1125T712 1187Q681 1211 664 1222T631 1233Q598 1233 536 1204T426 1132L401 1277Z" />
<glyph unicode="&#xe4;" glyph-name="adieresis" horiz-adv-x="1080" d="M57 337T93 399T209 496Q259 518 326 528T466 538Q561 538 628 527V581Q628 799 550 851Q533 863 505 869T445 875Q418 875 392 868L363 696Q341 674 311 657T264 640Q240 640 198 669T124
737T91 808Q91 833 133 860T225 906Q313 940 427 957T611 975Q769 975 839 894T910 674V198Q937 159 979 134T1083 93L1070 35Q948 -22 793 -25Q765 26 733 64T655 132Q603 63 525 19T342 -25Q241 -25 177 15T85 116T57 241Q57 337 93 399ZM411 124T430 124Q469
124 529 137T628 165V461Q548 449 488 433T394 399T350 371Q336 352 336 307Q336 262 355 210T400 136Q411 124 430 124ZM378 1273T404 1320T466 1406T525 1445Q548 1445 588 1420T662 1362T700 1308Q704 1284 681 1237T625 1151T569 1113Q546 1113 502 1137T422
1194T382 1249Q378 1273 404 1320ZM827 1274T850 1321T907 1407T962 1445Q986 1445 1029 1421T1108 1363T1149 1308Q1153 1285 1128 1237T1066 1151T1005 1113Q982 1113 942 1137T869 1195T831 1249Q827 1274 850 1321Z" />
<glyph unicode="&#xe5;" glyph-name="aring" horiz-adv-x="1080" d="M57 337T93 399T209 496Q259 518 326 528T466 538Q561 538 628 527V581Q628 799 550 851Q533 863 505 869T445 875Q418 875 392 868L363 696Q341 674 311 657T264 640Q240 640 198 669T124 737T91
808Q91 833 133 860T225 906Q313 940 427 957T611 975Q769 975 839 894T910 674V198Q937 159 979 134T1083 93L1070 35Q948 -22 793 -25Q765 26 733 64T655 132Q603 63 525 19T342 -25Q241 -25 177 15T85 116T57 241Q57 337 93 399ZM411 124T430 124Q469 124 529
137T628 165V461Q548 449 488 433T394 399T350 371Q336 352 336 307Q336 262 355 210T400 136Q411 124 430 124ZM701 1047T651 1073T572 1146T543 1256Q543 1317 571 1369T652 1453T772 1485Q831 1485 880 1459T959 1384T989 1274Q989 1212 960 1160T879 1078T763
1047Q701 1047 651 1073ZM809 1172T830 1196T852 1256Q852 1299 825 1331T755 1363Q721 1363 699 1337T677 1275Q677 1234 703 1203T774 1172Q809 1172 830 1196Z" />
<glyph unicode="&#xe6;" glyph-name="ae" horiz-adv-x="1480" d="M57 343T93 400T214 491Q266 511 337 522T475 534Q534 534 616 527V575Q616 795 534 851Q498 875 436 875Q409 875 383 868L353 696Q331 674 302 657T254 640Q230 640 188 669T114 737T81 808Q81
833 123 859T215 906Q303 940 415 957T595 975Q742 975 818 894Q937 975 1093 975Q1197 975 1272 932T1386 816T1425 657Q1425 592 1390 524Q1381 506 1367 498T1324 489H854Q858 402 896 319T996 185T1124 133Q1178 133 1254 152T1368 188L1388 154Q1336 75 1243
25T1048 -25Q937 -25 840 17T681 142Q618 65 528 20T323 -25Q233 -25 173 15T85 117T57 241Q57 343 93 400ZM1165 686T1141 743T1075 829T981 859Q929 859 912 835Q892 806 875 734T854 564L1165 607Q1165 686 1141 743ZM411 124T430 124Q475 124 529 138T616 176V458Q539
446 482 428T392 393T350 365Q341 351 339 335T336 297Q336 254 355 206T400 136Q411 124 430 124Z" />
<glyph unicode="&#xe7;" glyph-name="ccedilla" horiz-adv-x="930" d="M852 89T768 39T580 -22L555 -84Q653 -102 700 -144T748 -262Q748 -339 686 -390T534 -465T367 -489L342 -416Q476 -368 520 -333T564 -270Q564 -238 515 -216T375 -178Q377 -151 403 -105T460
-21Q334 -7 244 56T107 223T60 462Q60 618 131 734T322 911T585 973Q644 973 693 964T787 935Q827 916 857 888T887 836Q887 806 855 765T782 693T716 662Q694 662 664 679T615 719L579 890Q479 874 416 794Q375 740 357 670T338 530Q338 448 356 382T415 257Q497
139 615 139Q669 139 758 155T879 182L898 150Q852 89 768 39Z" />
<glyph unicode="&#xe8;" glyph-name="egrave" horiz-adv-x="1002" d="M683 975T768 930T900 808T946 635Q946 556 921 495Q914 478 901 470T863 461H337Q348 378 386 304T481 185T604 140Q664 140 759 157T888 186L906 152Q845 75 738 25T517 -25Q397 -25 293
26T125 187T60 460Q60 598 123 716T301 904T568 975Q683 975 768 930ZM704 588Q698 668 665 725T580 811T466 840Q441 840 424 836T395 819Q370 785 353 716T333 544L704 588ZM278 1286L312 1463H440L726 1195L701 1049L278 1286Z" />
<glyph unicode="&#xe9;" glyph-name="eacute" horiz-adv-x="1002" d="M683 975T768 930T900 808T946 635Q946 556 921 495Q914 478 901 470T863 461H337Q348 378 386 304T481 185T604 140Q664 140 759 157T888 186L906 152Q845 75 738 25T517 -25Q397 -25 293
26T125 187T60 460Q60 598 123 716T301 904T568 975Q683 975 768 930ZM704 588Q698 668 665 725T580 811T466 840Q441 840 424 836T395 819Q370 785 353 716T333 544L704 588ZM623 1463H749L784 1285L363 1049L336 1195L623 1463Z" />
<glyph unicode="&#xea;" glyph-name="ecircumflex" horiz-adv-x="1002" d="M683 975T768 930T900 808T946 635Q946 556 921 495Q914 478 901 470T863 461H337Q348 378 386 304T481 185T604 140Q664 140 759 157T888 186L906 152Q845 75 738 25T517 -25Q397 -25
293 26T125 187T60 460Q60 598 123 716T301 904T568 975Q683 975 768 930ZM704 588Q698 668 665 725T580 811T466 840Q441 840 424 836T395 819Q370 785 353 716T333 544L704 588ZM280 1081L166 1136L440 1405H602L876 1136L762 1080L521 1220L280 1081Z" />
<glyph unicode="&#xeb;" glyph-name="edieresis" horiz-adv-x="1002" d="M683 975T768 930T900 808T946 635Q946 556 921 495Q914 478 901 470T863 461H337Q348 378 386 304T481 185T604 140Q664 140 759 157T888 186L906 152Q845 75 738 25T517 -25Q397 -25 293
26T125 187T60 460Q60 598 123 716T301 904T568 975Q683 975 768 930ZM704 588Q698 668 665 725T580 811T466 840Q441 840 424 836T395 819Q370 785 353 716T333 544L704 588ZM133 1273T159 1320T221 1406T280 1445Q303 1445 343 1420T417 1362T455 1308Q459 1284
436 1237T380 1151T324 1113Q301 1113 257 1137T177 1194T137 1249Q133 1273 159 1320ZM582 1274T605 1321T662 1407T717 1445Q741 1445 784 1421T863 1363T904 1308Q908 1285 883 1237T821 1151T760 1113Q737 1113 697 1137T624 1195T586 1249Q582 1274 605 1321Z"
/>
<glyph unicode="&#xec;" glyph-name="igrave" horiz-adv-x="657" d="M198 141V770L55 857L63 906L480 962V135L625 68L610 0H47L62 77L198 141ZM76 1286L110 1463H238L524 1195L499 1049L76 1286Z" />
<glyph unicode="&#xed;" glyph-name="iacute" horiz-adv-x="657" d="M198 141V770L55 857L63 906L480 962V135L625 68L610 0H47L62 77L198 141ZM421 1463H547L582 1285L161 1049L134 1195L421 1463Z" />
<glyph unicode="&#xee;" glyph-name="icircumflex" horiz-adv-x="657" d="M198 141V770L55 857L63 906L480 962V135L625 68L610 0H47L62 77L198 141ZM79 1081L-35 1136L239 1405H401L675 1136L561 1080L320 1220L79 1081Z" />
<glyph unicode="&#xef;" glyph-name="idieresis" horiz-adv-x="657" d="M198 141V770L55 857L63 906L480 962V135L625 68L610 0H47L62 77L198 141ZM-68 1273T-42 1320T20 1406T79 1445Q102 1445 142 1420T216 1362T254 1308Q258 1284 235 1237T179 1151T123 1113Q100
1113 56 1137T-24 1194T-64 1249Q-68 1273 -42 1320ZM381 1274T404 1321T461 1407T516 1445Q540 1445 583 1421T662 1363T703 1308Q707 1285 682 1237T620 1151T559 1113Q536 1113 496 1137T423 1195T385 1249Q381 1274 404 1321Z" />
<glyph unicode="&#xf0;" glyph-name="eth" horiz-adv-x="1140" d="M1054 1027T1054 535Q1054 395 997 266T827 56T559 -25Q417 -25 305 27T127 188T61 456Q61 591 119 707T282 893T523 963Q587 963 644 947T746 902Q683 1064 549 1186L297 1030L237 1177L427 1280Q290
1369 102 1431L249 1500Q319 1500 422 1471T618 1392L838 1530L907 1386L751 1301Q1054 1027 1054 535ZM745 172T760 254T775 410Q775 540 741 635T642 782T493 834Q425 834 393 807Q363 782 349 708T334 553Q334 441 363 342T456 180T612 117Q647 117 673 122T716
143Q745 172 760 254Z" />
<glyph unicode="&#xf1;" glyph-name="ntilde" horiz-adv-x="1294" d="M55 857L64 906L402 965L456 804Q669 974 837 974Q959 974 1041 895T1123 620V135L1282 70L1265 0H739L753 75L841 143V552Q841 643 824 702T783 783Q767 796 746 796Q695 796 609 782T474
751Q475 746 478 730T481 698V135L622 67L607 0H48L63 78L199 145V770L55 857ZM310 1277Q380 1351 434 1390T550 1430Q598 1430 639 1408T730 1346Q763 1321 779 1311T810 1301Q842 1301 903 1330T1015 1400L1040 1255Q993 1206 959 1176T884 1125T800 1104Q752
1104 712 1125T621 1187Q590 1211 573 1222T540 1233Q507 1233 445 1204T335 1132L310 1277Z" />
<glyph unicode="&#xf2;" glyph-name="ograve" horiz-adv-x="1096" d="M59 589T122 709T297 902T552 975Q689 975 798 923T972 764T1037 496Q1037 360 974 240T798 48T548 -25Q409 -25 299 26T124 185T59 453Q59 589 122 709ZM650 116T678 125T720 151Q739 176
749 243T760 378Q760 516 724 619T624 778T478 834Q405 834 376 799Q359 773 348 707T336 571Q336 442 369 339T465 176T615 116Q650 116 678 125ZM305 1286L339 1463H467L753 1195L728 1049L305 1286Z" />
<glyph unicode="&#xf3;" glyph-name="oacute" horiz-adv-x="1096" d="M59 589T122 709T297 902T552 975Q689 975 798 923T972 764T1037 496Q1037 360 974 240T798 48T548 -25Q409 -25 299 26T124 185T59 453Q59 589 122 709ZM650 116T678 125T720 151Q739 176
749 243T760 378Q760 516 724 619T624 778T478 834Q405 834 376 799Q359 773 348 707T336 571Q336 442 369 339T465 176T615 116Q650 116 678 125ZM650 1463H776L811 1285L390 1049L363 1195L650 1463Z" />
<glyph unicode="&#xf4;" glyph-name="ocircumflex" horiz-adv-x="1096" d="M59 589T122 709T297 902T552 975Q689 975 798 923T972 764T1037 496Q1037 360 974 240T798 48T548 -25Q409 -25 299 26T124 185T59 453Q59 589 122 709ZM650 116T678 125T720 151Q739
176 749 243T760 378Q760 516 724 619T624 778T478 834Q405 834 376 799Q359 773 348 707T336 571Q336 442 369 339T465 176T615 116Q650 116 678 125ZM308 1081L194 1136L468 1405H630L904 1136L790 1080L549 1220L308 1081Z" />
<glyph unicode="&#xf5;" glyph-name="otilde" horiz-adv-x="1096" d="M59 589T122 709T297 902T552 975Q689 975 798 923T972 764T1037 496Q1037 360 974 240T798 48T548 -25Q409 -25 299 26T124 185T59 453Q59 589 122 709ZM650 116T678 125T720 151Q739 176
749 243T760 378Q760 516 724 619T624 778T478 834Q405 834 376 799Q359 773 348 707T336 571Q336 442 369 339T465 176T615 116Q650 116 678 125ZM183 1277Q253 1351 307 1390T423 1430Q471 1430 512 1408T603 1346Q636 1321 652 1311T683 1301Q715 1301 776 1330T888
1400L913 1255Q866 1206 832 1176T757 1125T673 1104Q625 1104 585 1125T494 1187Q463 1211 446 1222T413 1233Q380 1233 318 1204T208 1132L183 1277Z" />
<glyph unicode="&#xf6;" glyph-name="odieresis" horiz-adv-x="1096" d="M59 589T122 709T297 902T552 975Q689 975 798 923T972 764T1037 496Q1037 360 974 240T798 48T548 -25Q409 -25 299 26T124 185T59 453Q59 589 122 709ZM650 116T678 125T720 151Q739 176
749 243T760 378Q760 516 724 619T624 778T478 834Q405 834 376 799Q359 773 348 707T336 571Q336 442 369 339T465 176T615 116Q650 116 678 125ZM161 1273T187 1320T249 1406T308 1445Q331 1445 371 1420T445 1362T483 1308Q487 1284 464 1237T408 1151T352 1113Q329
1113 285 1137T205 1194T165 1249Q161 1273 187 1320ZM610 1274T633 1321T690 1407T745 1445Q769 1445 812 1421T891 1363T932 1308Q936 1285 911 1237T849 1151T788 1113Q765 1113 725 1137T652 1195T614 1249Q610 1274 633 1321Z" />
<glyph unicode="&#xf7;" glyph-name="divide" horiz-adv-x="1024" d="M522 767T484 788T413 838T377 887Q373 906 393 945T444 1017T494 1053Q516 1057 554 1036T624 984T659 936Q663 916 642 877T590 806T541 770Q522 767 484 788ZM148 660H898L878 487Q772 480
513 473T125 465L148 660ZM521 82T483 103T413 153T376 201Q372 221 393 260T444 331T494 367Q515 371 553 350T623 299T658 251Q662 231 641 192T589 121T541 85Q521 82 483 103Z" />
<glyph unicode="&#xf8;" glyph-name="oslash" horiz-adv-x="1109" d="M926 862T988 758T1050 501Q1050 363 985 242T808 49T564 -24Q497 -24 443 -14L386 -162L212 -116L278 42Q174 99 117 203T59 455Q59 591 122 710T300 902T558 975Q607 975 652 969L703 1099L870
1046L817 918Q926 862 988 758ZM333 366T371 267L488 549L596 826Q545 844 476 844Q444 844 422 836T387 814Q364 785 349 713T333 565Q333 366 371 267ZM751 174T764 251T777 393Q777 599 729 704L595 379L499 131Q552 112 628 112Q661 112 685 119T726 145Q751
174 764 251Z" />
<glyph unicode="&#xf9;" glyph-name="ugrave" horiz-adv-x="1258" d="M21 866L39 950H453V388Q453 285 467 235T509 159Q520 149 531 145T559 140Q612 140 677 149T784 173V779L640 864L656 950H1066V196Q1088 156 1142 129T1239 94L1224 33Q1183 13 1108 -6T961
-25Q946 8 905 60T821 136Q756 66 670 21T491 -25Q171 -25 171 332V779L21 866ZM352 1286L386 1463H514L800 1195L775 1049L352 1286Z" />
<glyph unicode="&#xfa;" glyph-name="uacute" horiz-adv-x="1258" d="M21 866L39 950H453V388Q453 285 467 235T509 159Q520 149 531 145T559 140Q612 140 677 149T784 173V779L640 864L656 950H1066V196Q1088 156 1142 129T1239 94L1224 33Q1183 13 1108 -6T961
-25Q946 8 905 60T821 136Q756 66 670 21T491 -25Q171 -25 171 332V779L21 866ZM697 1463H823L858 1285L437 1049L410 1195L697 1463Z" />
<glyph unicode="&#xfb;" glyph-name="ucircumflex" horiz-adv-x="1258" d="M21 866L39 950H453V388Q453 285 467 235T509 159Q520 149 531 145T559 140Q612 140 677 149T784 173V779L640 864L656 950H1066V196Q1088 156 1142 129T1239 94L1224 33Q1183 13 1108
-6T961 -25Q946 8 905 60T821 136Q756 66 670 21T491 -25Q171 -25 171 332V779L21 866ZM354 1081L240 1136L514 1405H676L950 1136L836 1080L595 1220L354 1081Z" />
<glyph unicode="&#xfc;" glyph-name="udieresis" horiz-adv-x="1258" d="M21 866L39 950H453V388Q453 285 467 235T509 159Q520 149 531 145T559 140Q612 140 677 149T784 173V779L640 864L656 950H1066V196Q1088 156 1142 129T1239 94L1224 33Q1183 13 1108 -6T961
-25Q946 8 905 60T821 136Q756 66 670 21T491 -25Q171 -25 171 332V779L21 866ZM207 1273T233 1320T295 1406T354 1445Q377 1445 417 1420T491 1362T529 1308Q533 1284 510 1237T454 1151T398 1113Q375 1113 331 1137T251 1194T211 1249Q207 1273 233 1320ZM656
1274T679 1321T736 1407T791 1445Q815 1445 858 1421T937 1363T978 1308Q982 1285 957 1237T895 1151T834 1113Q811 1113 771 1137T698 1195T660 1249Q656 1274 679 1321Z" />
<glyph unicode="&#xfd;" glyph-name="yacute" horiz-adv-x="1135" d="M1155 950L1141 878L1022 821L770 162Q690 -46 631 -174T513 -380T385 -484Q340 -500 285 -500Q224 -500 159 -480T50 -426T7 -352Q7 -326 38 -284T111 -210T179 -177Q201 -177 233 -195T284
-234L321 -417Q342 -405 385 -342T476 -189T560 -16L447 -30L110 822L-31 881L-19 950H529L514 878L409 826L634 207L835 824L718 884L730 950H1155ZM689 1463H815L850 1285L429 1049L402 1195L689 1463Z" />
<glyph unicode="&#xfe;" glyph-name="thorn" d="M687 -397L672 -475H-2L13 -387L158 -340V1276L14 1365L23 1413L440 1472V831Q530 898 604 936T758 975Q862 975 938 917T1054 749T1095 494Q1095 357 1043 239T898 49Q853 15 799 -5T686 -25Q610 -25 545 1T440
81V-350L687 -397ZM440 189Q482 162 554 150T695 137Q715 137 731 143T757 158Q771 170 785 208T808 304T817 426Q817 542 787 636T711 774Q683 802 639 802Q595 802 540 791T440 761V189Z" />
<glyph unicode="&#xff;" glyph-name="ydieresis" horiz-adv-x="1135" d="M1155 950L1141 878L1022 821L770 162Q690 -46 631 -174T513 -380T385 -484Q340 -500 285 -500Q224 -500 159 -480T50 -426T7 -352Q7 -326 38 -284T111 -210T179 -177Q201 -177 233 -195T284
-234L321 -417Q342 -405 385 -342T476 -189T560 -16L447 -30L110 822L-31 881L-19 950H529L514 878L409 826L634 207L835 824L718 884L730 950H1155ZM200 1273T226 1320T288 1406T347 1445Q370 1445 410 1420T484 1362T522 1308Q526 1284 503 1237T447 1151T391
1113Q368 1113 324 1137T244 1194T204 1249Q200 1273 226 1320ZM649 1274T672 1321T729 1407T784 1445Q808 1445 851 1421T930 1363T971 1308Q975 1285 950 1237T888 1151T827 1113Q804 1113 764 1137T691 1195T653 1249Q649 1274 672 1321Z" />
<glyph unicode="&#x2013;" glyph-name="endash" horiz-adv-x="1024" d="M103 634H963L929 454Q820 447 526 443T61 438L103 634Z" />
<glyph unicode="&#x2014;" glyph-name="emdash" horiz-adv-x="2048" d="M95 634H1994L1960 463Q1886 457 1440 452T610 444T54 439L95 634Z" />
<glyph unicode="&#x2018;" glyph-name="quoteleft" horiz-adv-x="553" d="M328 1146T368 1108T411 1045Q414 1025 391 979T334 893T274 849L265 848Q235 848 187 872T101 931T58 990Q55 1008 55 1028Q55 1090 82 1166T164 1317T294 1446L393 1429L274 1173Q328
1146 368 1108Z" />
<glyph unicode="&#x2019;" glyph-name="quoteright" horiz-adv-x="553" d="M225 1144T185 1182T142 1245Q139 1265 162 1311T220 1397T280 1441L289 1442Q318 1442 366 1418T452 1359T496 1300Q499 1284 499 1264Q499 1201 471 1125T389 973T259 844L161 861L279
1117Q225 1144 185 1182Z" />
<glyph unicode="&#x201a;" glyph-name="quotesinglbase" horiz-adv-x="478" d="M225 -84T185 -46T142 17Q139 37 162 83T220 169T280 213L289 214Q318 214 366 190T452 131T496 72Q499 56 499 36Q499 -27 471 -103T389 -255T259 -384L161 -367L279 -111Q225 -84 185 -46Z" />
<glyph unicode="&#x201c;" glyph-name="quotedblleft" horiz-adv-x="1042" d="M312 1145T344 1118T396 1066T415 1024Q415 1001 391 955T335 871T277 828L269 827Q239 827 190 851T101 908T57 968Q55 980 55 1007Q55 1077 83 1159T169 1321T310 1466L406 1449L274
1166Q312 1145 344 1118ZM818 1124T859 1084T900 1020Q900 997 876 952T820 870T762 828L753 827Q723 827 675 851T589 909T546 969Q543 987 543 1007Q543 1069 570 1145T652 1296T782 1425L881 1408L762 1152Q818 1124 859 1084Z" />
<glyph unicode="&#x201d;" glyph-name="quotedblright" horiz-adv-x="1042" d="M225 1156T185 1194T142 1256Q139 1276 162 1322T220 1408T280 1452L289 1453Q318 1453 366 1429T452 1371T496 1311Q499 1295 499 1275Q499 1212 471 1136T389 984T259 855L161 872L279
1128Q225 1156 185 1194ZM712 1144T671 1185T627 1251Q623 1271 646 1318T704 1406T764 1452L772 1453Q802 1453 851 1429T940 1372T984 1312Q987 1294 987 1273Q987 1203 959 1121T873 959T732 814L635 831L767 1114Q712 1144 671 1185Z" />
<glyph unicode="&#x201e;" glyph-name="quotedblbase" horiz-adv-x="1030" d="M663 -13T623 25T580 87Q577 107 600 153T657 239T717 283Q720 284 727 284Q757 284 805 260T891 202T933 142Q936 124 936 105Q936 43 909 -33T827 -184T697 -313L598 -296L717 -41Q663
-13 623 25ZM176 -24T135 16T91 83Q88 103 111 150T169 238T228 283Q231 284 237 284Q267 284 316 260T405 203T449 143Q451 131 451 104Q451 34 423 -47T337 -209T196 -354L100 -338L232 -55Q176 -24 135 16Z" />
<glyph unicode="&#x2022;" glyph-name="bullet" horiz-adv-x="793" d="M356 218T283 275T153 404T96 518Q96 559 153 631T283 761T397 819Q438 819 510 762T640 632T697 518Q697 477 640 405T511 275T397 218Q356 218 283 275Z" />
<glyph unicode="&#x2039;" glyph-name="guilsinglleft" horiz-adv-x="614" d="M484 231T538 119L432 40L36 462L433 885L538 806Q519 760 473 690T343 506L311 462Q484 231 538 119Z" />
<glyph unicode="&#x203a;" glyph-name="guilsinglright" horiz-adv-x="615" d="M272 506Q189 620 143 690T77 806L182 885L579 462L183 40L77 119Q134 237 304 462L272 506Z" />
</font>
</defs>
</svg>
