<?xml version="1.0" standalone="no"?>
<!DOCTYPE svg PUBLIC "-//W3C//DTD SVG 1.1//EN" "http://www.w3.org/Graphics/SVG/1.1/DTD/svg11.dtd">
<svg xmlns="http://www.w3.org/2000/svg">
<defs >
<font id="Jura" horiz-adv-x="570" ><font-face
    font-family="Jura"
    units-per-em="1000"
    panose-1="0 0 5 0 0 0 0 0 0 0"
    ascent="965"
    descent="-218"
    alphabetic="0" />
<glyph unicode=" " glyph-name="space" horiz-adv-x="250" />
<glyph unicode="!" glyph-name="exclam" horiz-adv-x="222" d="M86 153T86 179V668Q86 694 112 694Q138 694 138 668V179Q138 153 112 153Q86 153 86 179ZM88 0T81 7T73 29V48Q73 62 80 69T102 77H121Q149 77 149 48V29Q149 0 121 0H102Q88 0 81 7Z" />
<glyph unicode="&quot;" glyph-name="quotedbl" horiz-adv-x="302" d="M87 460T80 467T73 484V688Q73 698 80 705T98 712Q108 712 115 705T122 688V484Q122 474 115 467T98 460Q87 460 80 467ZM194 460T187 467T180 484V688Q180 698 187 705T205 712Q215 712 222
705T229 688V484Q229 474 222 467T205 460Q194 460 187 467Z" />
<glyph unicode="#" glyph-name="numbersign" horiz-adv-x="578" d="M98 -2T91 5T84 22Q84 27 85 29L135 209H58Q47 209 40 216T33 233Q33 243 40 250T58 257H149L191 409H114Q103 409 96 416T89 433Q89 443 96 450T114 457H204L255 639Q257 647 263 652T279 657Q289
657 296 650T303 633Q303 628 302 626L255 457H384L435 639Q437 647 443 652T459 657Q469 657 476 650T483 633Q483 628 482 626L435 457H541Q551 457 558 450T565 433Q565 423 558 416T541 409H421L379 257H485Q495 257 502 250T509 233Q509 223 502 216T485 209H366L312
16Q310 8 304 3T289 -2Q278 -2 271 5T264 22Q264 27 265 29L315 209H186L132 16Q130 8 124 3T109 -2Q98 -2 91 5ZM199 257H329L371 409H241L199 257Z" />
<glyph unicode="$" glyph-name="dollar" horiz-adv-x="640" d="M478 342T519 301T560 171Q560 83 519 42T389 0H347V-60Q347 -84 322 -84Q298 -84 298 -60V0H251Q163 0 122 41T80 171Q80 183 87 190T106 197Q118 197 125 190T132 171Q132 104 158 78T251 52H298V290H266Q182
290 143 331T103 458Q103 542 142 581T265 620H302V694Q302 718 327 718Q351 718 351 694V620H386Q470 620 509 581T548 459Q548 447 541 440T522 433Q510 433 503 440T496 459Q496 520 472 544T386 568H351V342H389Q478 342 519 301ZM155 396T180 369T266 342H302V568H265Q204
568 180 544T155 458Q155 396 180 369ZM456 52T482 78T508 171Q508 238 482 264T389 290H347V52H389Q456 52 482 78Z" />
<glyph unicode="%" glyph-name="percent" horiz-adv-x="755" d="M132 -4T125 3T117 22Q117 30 122 38L583 648Q591 659 604 659Q615 659 622 652T630 633Q630 628 628 624T625 617L164 7Q156 -4 143 -4Q132 -4 125 3ZM116 310T85 341T53 439V514Q53 581 84 612T183
644H199Q265 644 296 613T328 514V440Q328 373 297 342T199 310H183Q116 310 85 341ZM199 361Q243 361 260 378T277 440V514Q277 559 260 576T199 593H183Q138 593 121 577T104 514V439Q104 395 121 378T183 361H199ZM490 0T459 31T427 129V204Q427 271 458 302T556
334H572Q638 334 669 303T701 204V130Q701 63 670 32T572 0H556Q490 0 459 31ZM572 51Q617 51 634 68T651 130V204Q651 249 634 266T572 283H556Q511 283 494 267T477 204V129Q477 85 494 68T556 51H572Z" />
<glyph unicode="&amp;" glyph-name="ampersand" horiz-adv-x="612" d="M592 69T592 59Q592 49 584 41Q574 31 565 31Q558 31 547 39L488 91Q466 42 420 19T299 -5H267Q158 -5 109 44T60 202Q60 277 84 323T159 391Q143 413 137 435T130 488Q130 565 166 601T279
638H304Q374 638 410 609T452 516Q453 503 446 496T427 489Q404 489 399 515Q395 554 374 570T304 586H279Q224 586 203 565T182 488Q182 453 195 430T250 371L454 191V202V253Q454 279 480 279Q506 279 506 253V202Q506 174 503 148L582 78Q592 69 592 59ZM363
47T397 66T445 129L216 331L196 349L192 348Q149 334 131 300T112 202Q112 144 127 111T175 62T267 47H299Q363 47 397 66Z" />
<glyph unicode="&apos;" glyph-name="quotesingle" horiz-adv-x="195" d="M87 460T80 467T73 484V688Q73 698 80 705T98 712Q108 712 115 705T122 688V484Q122 474 115 467T98 460Q87 460 80 467Z" />
<glyph unicode="(" glyph-name="parenleft" horiz-adv-x="266" d="M138 -164T96 -112T53 54V439Q53 558 95 612T232 667Q242 667 249 660T256 643Q256 633 249 626T232 619Q184 619 156 602T115 545T102 439V54Q102 -10 114 -46T155 -99T232 -116Q242 -116 249
-123T256 -140Q256 -150 249 -157T232 -164Q138 -164 96 -112Z" />
<glyph unicode=")" glyph-name="parenright" horiz-adv-x="266" d="M24 -164T17 -157T10 -140Q10 -130 17 -123T34 -116Q82 -116 110 -100T151 -47T164 54V439Q164 506 152 545T111 601T34 619Q24 619 17 626T10 643Q10 653 17 660T34 667Q128 667 170 613T213
439V54Q213 -60 171 -112T34 -164Q24 -164 17 -157Z" />
<glyph unicode="*" glyph-name="asterisk" horiz-adv-x="388" d="M321 449T321 437Q321 430 317 423Q310 410 298 410Q291 410 284 414L218 452V376Q218 352 194 352Q170 352 170 376V452L104 414Q97 410 90 410Q78 410 71 423Q67 430 67 437Q67 449 80 456L145
494L80 531Q67 538 67 551Q67 558 71 565Q79 578 91 578Q97 578 104 574L170 536V611Q170 636 194 636Q218 636 218 611V536L284 574Q291 578 298 578Q309 578 317 565Q321 558 321 551Q321 538 308 531L243 494L308 456Q321 449 321 437Z" />
<glyph unicode="+" glyph-name="plus" horiz-adv-x="560" d="M487 351T487 327Q487 303 463 303H293V131Q293 107 269 107Q245 107 245 131V303H98Q73 303 73 327Q73 351 98 351H245V496Q245 521 269 521Q293 521 293 496V351H463Q487 351 487 327Z" />
<glyph unicode="," glyph-name="comma" horiz-adv-x="205" d="M132 29Q132 15 126 9L80 -84Q72 -100 57 -100Q46 -100 39 -94T33 -76L56 51Q57 64 64 70T85 77H104Q132 77 132 48V29Z" />
<glyph unicode="-" glyph-name="hyphen" horiz-adv-x="471" d="M87 246T80 253T73 270Q73 280 80 287T98 294H374Q384 294 391 287T398 270Q398 260 391 253T374 246H98Q87 246 80 253Z" />
<glyph unicode="." glyph-name="period" horiz-adv-x="222" d="M88 0T81 7T73 29V48Q73 62 80 69T102 77H121Q149 77 149 48V29Q149 0 121 0H102Q88 0 81 7Z" />
<glyph unicode="/" glyph-name="slash" horiz-adv-x="341" d="M60 -137T54 -131T47 -114Q47 -107 48 -104L253 694Q257 714 278 714Q291 714 297 708T304 691Q304 685 303 681L98 -117Q94 -137 73 -137Q60 -137 54 -131Z" />
<glyph unicode="0" glyph-name="zero" horiz-adv-x="609" d="M166 -2T117 47T67 206V434Q67 542 117 591T275 641H335Q443 641 493 592T543 433V206Q543 97 493 48T335 -2H275Q166 -2 117 47ZM335 50Q421 50 456 85T491 206V433Q491 519 456 554T335 589H275Q216
589 183 574T134 526T119 434V206Q119 148 134 114T182 65T275 50H335ZM296 280T289 287T281 309V328Q281 342 288 349T310 357H329Q357 357 357 328V309Q357 280 329 280H310Q296 280 289 287Z" />
<glyph unicode="1" glyph-name="one" horiz-adv-x="354" d="M254 644T254 618V26Q254 0 228 0Q202 0 202 26V562L117 479Q108 470 99 470Q89 470 82 479Q73 487 73 496Q73 506 83 515L200 631Q213 644 232 644Q254 644 254 618Z" />
<glyph unicode="2" glyph-name="two" horiz-adv-x="567" d="M92 0Q66 0 66 26Q66 99 92 147T163 231T296 316Q358 351 387 370T432 415T449 475Q449 540 423 566T332 592H225Q166 592 140 572T109 502Q106 476 82 476Q69 476 63 483T57 503Q63 576 104 610T225
644H332Q419 644 460 603T501 475Q501 426 479 391T422 332T322 271Q244 226 207 200T147 138T119 52H480Q506 52 506 26Q506 0 480 0H92Z" />
<glyph unicode="3" glyph-name="three" horiz-adv-x="591" d="M145 1T102 37T53 152Q52 165 59 172T79 179Q103 179 105 153Q109 98 138 76T231 53H345Q416 53 444 80T472 179Q472 250 444 277T345 305H252Q240 305 233 311T226 331Q226 344 233 350T252 357H358Q412
357 434 385T456 475Q456 540 431 566T339 592H242Q183 592 157 572T127 502Q124 476 100 476Q87 476 81 483T75 503Q81 576 121 610T242 644H339Q427 644 467 603T508 475Q508 374 436 337Q481 318 502 279T524 179Q524 87 481 44T345 1H231Q145 1 102 37Z" />
<glyph unicode="4" glyph-name="four" horiz-adv-x="543" d="M497 192T503 185T510 166Q510 140 484 140H434L433 26Q433 0 407 0Q381 0 381 26L382 140H59Q33 140 33 166Q33 179 44 193L379 628Q391 644 412 644Q437 644 437 618L434 192H484Q497 192 503 185ZM104
191L382 192L385 557L104 191Z" />
<glyph unicode="5" glyph-name="five" horiz-adv-x="594" d="M159 0T116 36T67 151Q66 164 72 171T92 178Q116 178 119 152Q123 97 151 75T245 52H349Q420 52 448 80T476 179V248Q476 319 448 347T349 375H275Q180 375 145 343Q131 331 120 331Q118 331 110 333L105
335Q83 341 83 364V618Q83 644 109 644H496Q522 644 522 618Q522 592 496 592H135V399Q184 427 275 427H349Q441 427 484 384T528 248V179Q528 87 485 44T349 0H245Q159 0 116 36Z" />
<glyph unicode="6" glyph-name="six" horiz-adv-x="595" d="M153 1T110 44T67 179V475Q67 562 107 603T236 644H360Q440 644 481 610T528 503Q530 476 502 476Q478 476 476 502Q472 551 446 571T360 592H236Q170 592 145 566T119 475V363Q136 395 167 410T246
426H350Q442 426 485 383T529 247V180Q529 87 486 44T350 1H246Q153 1 110 44ZM350 53Q421 53 449 81T477 180V247Q477 318 449 346T350 374H246Q175 374 147 347T119 248V179Q119 108 147 81T246 53H350Z" />
<glyph unicode="7" glyph-name="seven" horiz-adv-x="475" d="M140 0T140 27Q142 126 154 188T196 297T285 384Q339 422 362 468T389 592H59Q33 592 33 618Q33 644 59 644H415Q441 644 441 617Q441 516 413 454T315 342Q266 307 241 271T205 179T192 27Q192 0
166 0Q140 0 140 27Z" />
<glyph unicode="8" glyph-name="eight" horiz-adv-x="605" d="M497 315T518 277T539 178Q539 86 496 43T360 0H246Q153 0 110 43T67 178Q67 239 88 277T155 335Q88 376 88 475Q88 562 128 603T257 644H354Q441 644 482 603T523 475Q523 374 454 334Q497 315 518
277ZM191 592T166 566T140 475Q140 409 165 383T254 356H369Q426 357 448 385T471 475Q471 540 445 566T354 592H257Q191 592 166 566ZM431 52T459 79T487 178Q487 249 459 276T360 304H246Q175 304 147 277T119 178Q119 107 147 80T246 52H360Q431 52 459 79Z"
/>
<glyph unicode="9" glyph-name="nine" horiz-adv-x="595" d="M442 643T485 600T528 465V169Q528 82 488 41T359 0H235Q155 0 114 34T67 141Q66 168 93 168Q117 168 119 142Q123 93 149 73T235 52H359Q425 52 450 78T476 169V281Q459 249 428 234T349 218H245Q153
218 110 261T66 397V464Q66 557 109 600T245 643H349Q442 643 485 600ZM245 591Q174 591 146 563T118 464V397Q118 327 146 299T245 270H349Q420 270 448 297T476 396V465Q476 536 448 563T349 591H245Z" />
<glyph unicode=":" glyph-name="colon" horiz-adv-x="222" d="M88 0T81 7T73 29V48Q73 62 80 69T102 77H121Q149 77 149 48V29Q149 0 121 0H102Q88 0 81 7ZM88 330T81 337T73 359V378Q73 392 80 399T102 407H121Q149 407 149 378V359Q149 330 121 330H102Q88 330 81 337Z" />
<glyph unicode=";" glyph-name="semicolon" horiz-adv-x="205" d="M132 29Q132 15 126 9L80 -84Q72 -100 57 -100Q46 -100 39 -94T33 -76L56 51Q57 64 64 70T85 77H104Q132 77 132 48V29ZM327 330T320 337T312 359V378Q312 392 319 399T341 407H360Q388 407 388
378V359Q388 330 360 330H341Q327 330 320 337Z" />
<glyph unicode="&lt;" glyph-name="less" horiz-adv-x="560" d="M454 166T454 154Q454 148 450 141Q442 127 430 127Q423 127 416 131L123 296Q106 306 106 327Q106 345 123 355L416 518Q423 522 430 522Q443 522 450 509Q454 502 454 495Q454 483 440 475L171
326L440 175Q454 166 454 154Z" />
<glyph unicode="=" glyph-name="equal" horiz-adv-x="560" d="M73 365T73 389Q73 413 98 413H463Q487 413 487 389Q487 365 463 365H98Q73 365 73 389ZM73 493T73 517Q73 541 98 541H463Q487 541 487 517Q487 493 463 493H98Q73 493 73 517Z" />
<glyph unicode="&gt;" glyph-name="greater" horiz-adv-x="560" d="M453 345T453 327Q453 306 436 296L143 131Q136 127 129 127Q117 127 109 141Q105 148 105 154Q105 166 119 175L388 326L119 475Q105 483 105 495Q105 502 109 509Q116 522 129 522Q136 522
143 518L436 355Q453 345 453 327Z" />
<glyph unicode="?" glyph-name="question" horiz-adv-x="486" d="M196 139T196 165Q196 215 210 248T245 300T297 339Q325 357 340 371T364 408T373 469Q373 534 347 560T256 586H189Q124 586 98 560T72 469Q72 443 46 443Q20 443 20 469Q20 556 61 597T189 638H256Q344
638 384 598T425 469Q425 419 411 386T376 334T324 295Q296 277 281 263T257 226T248 165Q248 139 222 139Q196 139 196 165ZM200 0T193 7T185 29V48Q185 62 192 69T214 77H233Q261 77 261 48V29Q261 0 233 0H214Q200 0 193 7Z" />
<glyph unicode="@" glyph-name="at" horiz-adv-x="720" d="M229 -3Q150 -4 115 32T80 150V403Q80 485 115 521T229 556H489Q569 556 604 520T640 402V206Q640 160 617 140T544 120Q511 120 492 131T462 174Q443 143 414 131T340 118H333Q268 118 238 148T207 243V309Q207
376 237 406T332 437H373Q401 437 419 430T452 400Q454 437 474 437Q485 437 492 431T499 413V206Q499 182 506 176T544 169Q574 169 582 175T591 206V402Q591 444 582 466T551 498T489 508H229Q189 509 168 500T138 468T129 403V150Q129 108 138 86T168 54T229
45H504Q534 45 553 51T591 75Q599 80 607 80Q618 80 625 73T632 56Q632 46 623 37Q598 16 570 7T504 -3H229ZM340 167Q397 167 423 185T450 243V308Q450 356 435 372T373 389H332Q288 389 272 373T256 309V243Q256 199 272 183T333 167H340Z" />
<glyph unicode="A" glyph-name="A" horiz-adv-x="613" d="M588 30T588 24Q588 11 571 3Q565 0 558 0Q544 0 538 16L471 174H468H144L77 16Q70 0 55 0Q50 0 42 3Q26 9 26 25Q26 33 28 37L276 624Q284 644 306 644H308Q328 644 337 624L585 37Q588 30 588 24ZM165
226H449L307 562L165 226Z" />
<glyph unicode="B" glyph-name="B" horiz-adv-x="620" d="M566 324T566 204V172Q566 87 522 44T393 0H119Q93 0 93 26V618Q93 644 119 644H380Q453 644 491 607T529 498V471Q529 392 479 360Q566 324 566 204ZM145 375H393H399H401Q477 379 477 471V498Q477 548
455 570T380 592H145V375ZM514 204Q514 267 486 295T393 323H145V52H393Q457 52 485 80T514 172V204Z" />
<glyph unicode="C" glyph-name="C" horiz-adv-x="665" d="M180 0T130 50T80 208V436Q80 545 129 594T287 644H408Q500 644 545 606T595 482Q597 456 569 456Q545 456 543 482Q539 543 509 567T408 592H287Q229 592 196 577T147 529T132 436V208Q132 149 147 116T195
67T288 52H408Q479 52 509 76T543 162Q545 188 569 188Q597 188 595 161Q590 76 545 38T408 0H288Q180 0 130 50Z" />
<glyph unicode="D" glyph-name="D" horiz-adv-x="678" d="M93 0T93 26V618Q93 644 119 644H360Q484 644 541 587T598 406V238Q598 114 542 57T360 0H119Q93 0 93 26ZM360 52Q429 52 469 70T528 128T546 238V406Q546 475 528 515T470 574T360 592H145V52H360Z" />
<glyph unicode="E" glyph-name="E" horiz-adv-x="560" d="M520 52T520 26Q520 0 494 0H119Q93 0 93 26V618Q93 644 119 644H494Q520 644 520 618Q520 592 494 592H145V352H376Q402 352 402 326Q402 300 376 300H145V52H494Q520 52 520 26Z" />
<glyph unicode="F" glyph-name="F" horiz-adv-x="506" d="M93 0T93 26V618Q93 644 119 644H480Q506 644 506 618Q506 592 480 592H145V352H374Q400 352 400 326Q400 300 374 300H145V26Q145 0 119 0Q93 0 93 26Z" />
<glyph unicode="G" glyph-name="G" horiz-adv-x="666" d="M180 0T130 50T80 208V436Q80 545 129 594T287 644H408Q500 644 545 606T595 482Q597 456 569 456Q545 456 543 482Q539 543 509 567T408 592H287Q229 592 196 577T147 529T132 436V208Q132 149 147 116T195
67T288 52H408Q460 52 489 64T531 106T544 188V251L434 252Q408 252 408 278Q408 304 434 304L570 303Q596 303 596 277V188Q596 89 552 45T408 0H288Q180 0 130 50Z" />
<glyph unicode="H" glyph-name="H" horiz-adv-x="710" d="M107 0T100 7T93 26V618Q93 630 100 637T119 644Q131 644 138 637T145 618V352H565V618Q565 630 572 637T591 644Q603 644 610 637T617 618V26Q617 14 610 7T591 0Q579 0 572 7T565 26V300H145V26Q145
14 138 7T119 0Q107 0 100 7Z" />
<glyph unicode="I" glyph-name="I" horiz-adv-x="238" d="M107 0T100 7T93 26V618Q93 630 100 637T119 644Q131 644 138 637T145 618V26Q145 14 138 7T119 0Q107 0 100 7Z" />
<glyph unicode="J" glyph-name="J" horiz-adv-x="523" d="M120 0T75 38T24 161Q23 174 30 181T50 188Q74 188 76 162Q80 100 110 76T212 52H252Q304 52 333 64T375 106T388 188V618Q388 644 414 644Q440 644 440 618V188Q440 89 396 45T252 0H212Q120 0 75 38Z" />
<glyph unicode="K" glyph-name="K" horiz-adv-x="550" d="M527 33T527 24Q527 13 516 4Q508 -3 499 -3Q489 -3 480 8L220 331L145 254V26Q145 0 119 0Q93 0 93 26V618Q93 644 119 644Q145 644 145 618V329L443 635Q452 644 461 644Q470 644 479 635Q488 626 488
616Q488 608 480 598L256 368L520 41Q527 33 527 24Z" />
<glyph unicode="L" glyph-name="L" horiz-adv-x="499" d="M93 0T93 26V618Q93 644 119 644Q145 644 145 618V52H450Q476 52 476 26Q476 0 450 0H119Q93 0 93 26Z" />
<glyph unicode="M" glyph-name="M" horiz-adv-x="783" d="M690 644T690 618V26Q690 0 664 0Q638 0 638 26V536L422 208Q412 191 391 191Q373 191 362 208L145 539V26Q145 0 119 0Q93 0 93 26V618Q93 644 119 644Q139 644 149 627L393 254L636 627Q646 644 667
644Q690 644 690 618Z" />
<glyph unicode="N" glyph-name="N" horiz-adv-x="703" d="M610 644T610 618V26Q610 0 584 0Q570 0 558 15L145 546V26Q145 0 119 0Q93 0 93 26V618Q93 644 119 644Q134 644 146 629L558 99V618Q558 644 584 644Q610 644 610 618Z" />
<glyph unicode="O" glyph-name="O" horiz-adv-x="696" d="M179 0T130 49T80 208V436Q80 545 130 595T287 644H408Q517 644 566 594T616 436V208Q616 99 567 50T408 0H288Q179 0 130 49ZM408 52Q494 52 529 87T564 208V436Q564 522 529 557T408 592H287Q229 593
196 578T147 529T132 436V208Q132 122 167 87T288 52H408Z" />
<glyph unicode="P" glyph-name="P" horiz-adv-x="560" d="M438 644T482 600T526 471V441Q526 356 483 312T353 268H145V26Q145 0 119 0Q93 0 93 26V618Q93 644 119 644H353Q438 644 482 600ZM474 471Q474 534 446 563T353 592H145V320H353Q417 320 445 348T474 441V471Z" />
<glyph unicode="Q" glyph-name="Q" horiz-adv-x="697" d="M617 -12T617 -21Q617 -29 608 -38Q601 -46 591 -46Q582 -46 574 -38L519 18Q474 0 408 0H288Q179 0 130 49T80 208V436Q80 545 130 595T287 644H408Q517 644 566 594T616 436V208Q616 93 561 45L609 -4Q617
-12 617 -21ZM452 52T479 60L440 99Q432 109 432 117Q432 126 440 134Q450 142 457 142Q466 142 475 133L524 82Q545 101 554 131T564 208V436Q564 522 529 557T408 592H287Q229 593 196 578T147 529T132 436V208Q132 122 167 87T288 52H408Q452 52 479 60Z" />
<glyph unicode="R" glyph-name="R" horiz-adv-x="592" d="M543 26T543 19Q543 7 529 -1Q521 -6 514 -6Q501 -6 494 7L329 268H145V26Q145 0 119 0Q93 0 93 26V618Q93 644 119 644H353Q438 644 482 600T526 471V441Q526 365 492 322T390 270L538 34Q543 26 543
19ZM145 320H353Q417 320 445 348T474 441V471Q474 534 446 563T353 592H145V320Z" />
<glyph unicode="S" glyph-name="S" horiz-adv-x="661" d="M169 1T126 40T80 166Q79 178 86 185T106 193Q117 193 124 186T132 167Q134 103 162 78T258 53H402Q474 53 501 80T529 179Q529 250 501 277T402 305H265Q177 305 136 346T95 475Q95 562 136 603T264 644H405Q489
644 529 606T573 488Q574 476 567 469T547 462Q536 462 529 469T521 487Q520 545 494 568T405 592H264Q199 592 173 566T147 475Q147 409 173 383T265 357H402Q495 357 538 314T581 179Q581 87 538 44T402 1H258Q169 1 126 40Z" />
<glyph unicode="T" glyph-name="T" horiz-adv-x="567" d="M272 -1T265 6T257 25V592H44Q33 592 26 599T18 618Q18 630 25 637T44 644H522Q534 644 541 637T548 618Q548 607 541 600T522 592H309V25Q309 14 302 7T283 -1Q272 -1 265 6Z" />
<glyph unicode="U" glyph-name="U" horiz-adv-x="702" d="M183 0T133 49T83 208V618Q83 629 90 636T109 644Q121 644 128 637T135 618V208Q135 122 170 87T291 52H411Q470 52 503 67T552 116T567 208V618Q567 629 574 636T593 644Q605 644 612 637T619 618V208Q619
99 570 50T411 0H291Q183 0 133 49Z" />
<glyph unicode="V" glyph-name="V" horiz-adv-x="608" d="M284 0T276 18L16 607Q13 613 13 619Q13 628 19 634T35 642Q37 643 42 643Q57 643 63 627L304 82L544 627Q552 647 572 642Q582 640 588 635T594 620Q594 615 591 607L331 18Q323 0 306 0H300Q284 0 276 18Z" />
<glyph unicode="W" glyph-name="W" horiz-adv-x="855" d="M827 643T834 637T841 620Q841 617 839 609L647 20Q641 0 622 0H617Q597 0 591 20L427 549L262 20Q258 10 253 5T236 0H231Q213 0 207 20L15 609Q13 615 13 619Q13 628 19 635T36 643H41Q60 643 64 625L236
101L397 624Q403 644 424 644H431Q451 644 457 624L619 99L790 625Q796 643 813 643Q827 643 834 637Z" />
<glyph unicode="X" glyph-name="X" horiz-adv-x="575" d="M41 15T41 27Q41 34 46 42L248 336L58 602Q52 610 52 618Q52 629 64 638Q71 643 80 643Q92 643 101 631L282 377L470 632Q479 644 489 644Q495 644 506 637Q518 628 518 617Q518 610 512 601L315 332L522
42Q528 35 528 26Q528 15 516 6Q507 0 500 0Q488 0 480 12L280 291L89 13Q81 0 69 0Q62 0 53 6Q41 15 41 27Z" />
<glyph unicode="Y" glyph-name="Y" horiz-adv-x="539" d="M525 631T525 619Q525 611 520 603L294 249V26Q294 0 268 0Q242 0 242 26V249L18 603Q13 611 13 618Q13 630 27 639Q35 644 42 644Q54 644 63 630L268 305L476 631Q484 643 496 643Q504 643 512 638Q525
631 525 619Z" />
<glyph unicode="Z" glyph-name="Z" horiz-adv-x="617" d="M562 148T568 141T574 121Q568 61 531 31T427 0H86Q58 0 58 26Q58 33 61 40T71 54L475 592H190Q146 592 123 575T96 521Q94 508 88 502T68 496Q56 496 49 503T43 523Q50 582 87 613T190 644H521Q547 644
547 618Q547 602 536 587L135 52H427Q471 52 494 69T522 123Q525 148 548 148Q562 148 568 141Z" />
<glyph unicode="[" glyph-name="bracketleft" horiz-adv-x="196" d="M53 -164T53 -140V643Q53 667 78 667H162Q172 667 179 660T186 643Q186 633 179 626T162 619H102V-116H162Q172 -116 179 -123T186 -140Q186 -150 179 -157T162 -164H78Q53 -164 53 -140Z" />
<glyph unicode="\" glyph-name="backslash" horiz-adv-x="341" d="M247 -137T243 -117L38 681Q37 685 37 691Q37 702 43 708T63 714Q84 714 88 694L293 -104Q294 -107 294 -114Q294 -125 288 -131T268 -137Q247 -137 243 -117Z" />
<glyph unicode="]" glyph-name="bracketright" horiz-adv-x="196" d="M34 -164Q24 -164 17 -157T10 -140Q10 -130 17 -123T34 -116H94V619H34Q24 619 17 626T10 643Q10 653 17 660T34 667H118Q143 667 143 643V-140Q143 -164 118 -164H34Z" />
<glyph unicode="^" glyph-name="asciicircum" horiz-adv-x="385" d="M87 415T80 422T73 439Q73 444 75 448L154 653Q163 672 182 672H203Q222 672 231 653L310 448Q312 444 312 439Q312 429 305 422T288 415Q280 415 274 419T265 431L193 617L121 431Q118 424
112 420T98 415Q87 415 80 422Z" />
<glyph unicode="_" glyph-name="underscore" horiz-adv-x="435" d="M50 -52T50 -26Q50 0 76 0H329Q355 0 355 -26Q355 -52 329 -52H76Q50 -52 50 -26Z" />
<glyph unicode="`" glyph-name="grave" horiz-adv-x="237" d="M170 516T161 516Q151 516 142 526L56 628Q50 637 50 645Q50 654 60 663Q67 670 76 670Q86 670 95 660L181 558Q187 549 187 541Q187 532 177 523Q170 516 161 516Z" />
<glyph unicode="a" glyph-name="a" horiz-adv-x="587" d="M417 472T460 429T503 292V26Q503 0 477 0Q451 0 451 26V75Q427 38 384 19T279 0H223Q146 0 110 36T73 150Q73 228 109 264T223 301H451Q449 367 421 393T323 420H265Q201 420 172 407T136 360Q132 347
126 342T109 336Q95 336 89 343T83 363Q90 420 134 446T265 472H323Q417 472 460 429ZM451 160V249H223Q167 249 146 228T125 150Q125 95 146 74T223 52H279Q434 52 449 152L451 160Z" />
<glyph unicode="b" glyph-name="b" horiz-adv-x="615" d="M449 473T492 430T535 293V180Q535 87 492 44T355 0H317Q191 0 145 69V26Q145 0 119 0Q93 0 93 26V667Q93 693 119 693Q145 693 145 667V403Q191 473 317 473H355Q449 473 492 430ZM483 293Q483 364 455
392T355 421H317Q237 421 191 396T145 321V156V151Q145 103 191 78T317 52H355Q427 52 455 80T483 180V293Z" />
<glyph unicode="c" glyph-name="c" horiz-adv-x="560" d="M167 0T124 43T80 180V293Q80 387 123 430T260 472H342Q416 472 454 447T500 369Q502 357 495 350T475 342Q453 342 448 366Q442 396 418 408T342 420H260Q188 421 160 393T132 293V180Q132 108 160 80T260
52H342Q394 52 418 64T448 106Q453 130 475 130Q488 130 495 123T500 103Q493 50 455 25T342 0H260Q167 0 124 43Z" />
<glyph unicode="d" glyph-name="d" horiz-adv-x="606" d="M522 693T522 667V26Q522 0 496 0Q470 0 470 26V68Q448 34 406 17T298 0H260Q167 0 124 43T80 180V292Q80 385 123 428T260 472H470V667Q470 693 496 693Q522 693 522 667ZM378 52T424 77T470 151V420H260Q188
420 160 392T132 292V180Q132 108 160 80T260 52H298Q378 52 424 77Z" />
<glyph unicode="e" glyph-name="e" horiz-adv-x="602" d="M132 216V179Q132 108 160 80T260 52H342Q406 52 434 68T468 125Q473 150 495 150Q509 150 515 143T520 123Q513 60 470 30T342 0H260Q167 0 124 43T80 179V292Q80 386 123 429T260 472H342Q435 472 478
429T522 292V242Q522 216 496 216H132ZM132 268H470V292Q470 364 442 392T342 420H260Q188 421 160 393T132 292V268Z" />
<glyph unicode="f" glyph-name="f" horiz-adv-x="327" d="M304 472T304 446Q304 420 278 420H154V26Q154 0 128 0Q102 0 102 26V420H59Q33 420 33 446Q33 472 59 472H102V516Q102 608 144 650T279 693Q304 693 304 667Q304 641 279 641Q209 641 182 614T154 516V472H278Q304
472 304 446Z" />
<glyph unicode="g" glyph-name="g" horiz-adv-x="606" d="M522 472T522 446V-72Q522 -138 491 -169T394 -200H208Q149 -200 118 -176T82 -99Q80 -86 86 -79T107 -72Q119 -72 125 -78T134 -98Q138 -126 154 -137T208 -148H394Q438 -148 454 -132T470 -72V70Q423
0 298 0H260Q167 0 124 43T80 179V292Q80 386 123 429T260 472H342Q390 472 421 459T470 419V446Q470 472 496 472Q522 472 522 446ZM378 52T424 77T470 151V318Q470 373 439 396T342 420H260Q188 421 160 393T132 292V179Q132 108 160 80T260 52H298Q378 52 424
77Z" />
<glyph unicode="h" glyph-name="h" horiz-adv-x="609" d="M439 473T482 430T525 293V26Q525 0 499 0Q473 0 473 26V293Q473 364 445 392T345 421H317Q239 421 197 396T147 321Q147 318 145 312V26Q145 0 119 0Q93 0 93 26V667Q93 693 119 693Q145 693 145 667V412Q198
473 317 473H345Q439 473 482 430Z" />
<glyph unicode="i" glyph-name="i" horiz-adv-x="238" d="M107 0T100 6T93 26V446Q93 459 100 465T119 472Q145 472 145 446V26Q145 0 119 0Q107 0 100 6ZM91 563T82 572T73 598V620Q73 637 82 646T108 655H131Q164 655 164 620V598Q164 563 131 563H108Q91 563 82 572Z" />
<glyph unicode="j" glyph-name="j" horiz-adv-x="238" d="M-18 -162T-11 -155T9 -148Q57 -148 75 -130T93 -64V446Q93 472 119 472Q145 472 145 446V-64Q145 -134 112 -167T9 -200Q-3 -200 -10 -193T-18 -174Q-18 -162 -11 -155ZM91 563T82 572T73 598V620Q73
637 82 646T108 655H131Q164 655 164 620V598Q164 563 131 563H108Q91 563 82 572Z" />
<glyph unicode="k" glyph-name="k" horiz-adv-x="478" d="M458 35T458 27Q458 17 447 8Q437 0 430 0Q421 0 411 10L209 238L145 182V26Q145 0 119 0Q93 0 93 26V667Q93 693 119 693Q145 693 145 667V252L399 470Q409 478 417 478Q427 478 436 467Q444 457 444
450Q444 441 433 430L249 271L450 45Q458 35 458 27Z" />
<glyph unicode="l" glyph-name="l" horiz-adv-x="290" d="M160 0T127 33T93 136V667Q93 693 119 693Q145 693 145 667V136Q145 87 163 70T230 52Q257 52 257 26Q257 13 250 7T231 0Q160 0 127 33Z" />
<glyph unicode="m" glyph-name="m" horiz-adv-x="856" d="M702 473T737 432T772 297V25Q772 -1 746 -1Q720 -1 720 25V297Q720 363 697 392T622 421H581Q515 421 487 392T459 297V25Q459 -1 433 -1Q407 -1 407 25V297Q407 363 384 392T309 421H267Q202 421 174
392T145 297V25Q145 -1 119 -1Q93 -1 93 25V446Q93 472 119 472Q145 472 145 446V407Q167 442 197 457T274 473H309Q362 473 393 455T444 394Q464 436 496 454T581 473H622Q702 473 737 432Z" />
<glyph unicode="n" glyph-name="n" horiz-adv-x="609" d="M439 472T482 429T525 292V26Q525 0 499 0Q473 0 473 26V292Q473 364 445 392T345 420H317Q238 420 194 395T146 321Q146 316 145 314V26Q145 0 119 0Q93 0 93 26V446Q93 472 119 472Q145 472 145 446V398Q193
472 317 472H345Q439 472 482 429Z" />
<glyph unicode="o" glyph-name="o" horiz-adv-x="602" d="M166 0T123 43T80 179V292Q80 387 123 430T260 472H342Q436 472 479 429T522 292V180Q522 86 479 43T342 0H260Q166 0 123 43ZM342 52Q413 52 441 80T470 180V292Q470 363 442 391T342 420H260Q189 421
161 393T132 292V179Q132 108 160 80T260 52H342Z" />
<glyph unicode="p" glyph-name="p" horiz-adv-x="615" d="M449 472T492 429T535 292V180Q535 86 492 43T355 0H145V-174Q145 -200 119 -200Q93 -200 93 -174V446Q93 472 119 472Q145 472 145 446V402Q192 472 317 472H355Q449 472 492 429ZM483 292Q483 363 455
391T355 420H317Q238 420 194 395T146 320Q146 315 145 313V52H355Q427 52 455 80T483 180V292Z" />
<glyph unicode="q" glyph-name="q" horiz-adv-x="606" d="M522 472T522 446V-174Q522 -200 496 -200Q470 -200 470 -174V0H260Q167 0 124 43T80 180V292Q80 386 123 429T260 472H298Q426 472 470 402V446Q470 472 496 472Q522 472 522 446ZM470 52V321Q470 369
424 394T298 420H260Q188 420 160 392T132 292V180Q132 108 160 80T260 52H470Z" />
<glyph unicode="r" glyph-name="r" horiz-adv-x="376" d="M364 472T364 446Q364 420 338 420Q248 420 199 379T146 262Q146 257 145 255V26Q145 0 119 0Q93 0 93 26V446Q93 472 119 472Q145 472 145 446V366Q171 417 220 444T338 472Q364 472 364 446Z" />
<glyph unicode="s" glyph-name="s" horiz-adv-x="558" d="M135 1T103 27T64 107Q63 120 69 127T89 135Q101 135 107 129T116 109Q120 78 138 66T196 53H360Q407 53 424 70T442 135Q442 182 425 199T360 217H199Q133 217 102 248T70 344Q70 410 101 441T199 473H355Q469
473 481 373Q482 360 476 353T456 346Q444 346 438 352T428 371Q424 399 408 410T355 421H199Q155 421 139 405T122 344Q122 301 138 285T199 269H360Q429 269 461 236T494 135Q494 66 462 34T360 1H196Q135 1 103 27Z" />
<glyph unicode="t" glyph-name="t" horiz-adv-x="357" d="M313 52T313 26Q313 0 286 0Q194 0 152 42T109 176V420H49Q23 420 23 446Q23 472 49 472H109V580Q109 606 135 606Q161 606 161 580V472H287Q313 472 313 446Q313 420 287 420H161V176Q161 106 188 79T286
52Q313 52 313 26Z" />
<glyph unicode="u" glyph-name="u" horiz-adv-x="609" d="M516 472T516 446V26Q516 0 490 0Q464 0 464 26V74Q416 0 292 0H264Q170 0 127 43T84 180V446Q84 472 110 472Q136 472 136 446V180Q136 108 164 80T264 52H292Q371 52 415 77T463 151Q463 156 464 158V446Q464
472 490 472Q516 472 516 446Z" />
<glyph unicode="v" glyph-name="v" horiz-adv-x="500" d="M476 463T476 448Q476 441 473 435L275 20Q269 9 262 5T243 0Q221 0 212 20L26 436Q23 442 23 448Q23 463 40 469Q46 472 53 472Q68 472 74 456L244 76L425 456Q432 472 447 472Q453 472 460 469Q476 463
476 448Z" />
<glyph unicode="w" glyph-name="w" horiz-adv-x="700" d="M676 463T676 447Q676 444 674 436L520 21Q513 0 489 0Q476 0 469 5T457 21L348 370L228 21Q221 0 197 0Q184 0 178 5T167 21L25 437Q23 445 23 447Q23 464 42 470Q50 472 53 472Q68 472 74 453L201 83L321
446Q329 467 351 467Q373 467 379 445L492 85L625 454Q631 472 647 472Q654 472 658 470Q676 463 676 447Z" />
<glyph unicode="x" glyph-name="x" horiz-adv-x="494" d="M433 43Q440 33 440 26Q440 16 428 7Q420 0 411 0Q401 0 392 11L244 201L95 12Q86 0 74 0Q65 0 58 7Q47 16 47 26Q47 36 54 44L212 243L67 429Q60 437 60 446Q60 456 71 465Q79 472 88 472Q99 472 108
461L249 280L395 461Q404 472 415 472Q424 472 432 465Q443 456 443 446Q443 440 436 429L281 238L433 43Z" />
<glyph unicode="y" glyph-name="y" horiz-adv-x="606" d="M146 -200T115 -169T84 -71Q84 -45 110 -45Q136 -45 136 -71Q136 -116 152 -132T212 -148H385Q429 -148 445 -132T461 -71V67Q433 31 391 15T289 -1H261Q169 -1 127 41T84 175V447Q84 473 110 473Q136
473 136 447V175Q136 105 163 78T261 51H289Q376 51 418 82T461 175V447Q461 473 487 473Q513 473 513 447V-71Q513 -138 482 -169T385 -200H212Q146 -200 115 -169Z" />
<glyph unicode="z" glyph-name="z" horiz-adv-x="515" d="M468 128T474 121T480 101Q466 0 354 0H87Q61 0 61 26Q61 39 72 53L368 420H172Q135 420 118 409T97 369Q94 344 71 344Q57 344 51 351T45 371Q51 423 82 447T172 472H417Q429 472 436 466T443 446Q443
433 431 418L136 52H354Q389 52 406 64T428 103Q430 116 436 122T455 128Q468 128 474 121Z" />
<glyph unicode="{" glyph-name="braceleft" horiz-adv-x="326" d="M233 -164T199 -148T149 -96T133 4V179L73 202Q53 209 53 230V262Q53 283 72 290L133 314V489Q133 556 148 594T197 650T292 667Q302 667 309 660T316 643Q316 633 309 626T292 619Q246 619 223
609T191 571T182 489V302Q182 281 163 274L103 251V241L163 219Q182 212 182 191V4Q182 -46 191 -71T223 -106T292 -116Q302 -116 309 -123T316 -140Q316 -150 309 -157T292 -164Q233 -164 199 -148Z" />
<glyph unicode="|" glyph-name="bar" horiz-adv-x="212" d="M80 -146T80 -120V673Q80 699 106 699Q132 699 132 673V-120Q132 -146 106 -146Q80 -146 80 -120Z" />
<glyph unicode="}" glyph-name="braceright" horiz-adv-x="326" d="M24 -164T17 -157T10 -140Q10 -130 17 -123T34 -116Q80 -116 103 -106T135 -71T144 4V191Q144 212 163 219L223 241V251L163 274Q144 281 144 302V489Q144 543 135 570T103 608T34 619Q24 619
17 626T10 643Q10 653 17 660T34 667Q94 667 128 650T178 595T193 489V314L254 290Q273 283 273 262V230Q273 209 253 202L193 179V4Q193 -59 178 -95T128 -148T34 -164Q24 -164 17 -157Z" />
<glyph unicode="~" glyph-name="asciitilde" horiz-adv-x="560" d="M87 262T81 268T74 284Q74 291 78 298Q101 336 127 351T194 367Q227 367 249 359T296 334Q316 321 331 315T366 308Q392 308 410 319T444 354Q451 367 464 367Q475 367 480 361T486 346Q486 338
482 331Q442 262 366 262Q337 262 318 269T277 292Q256 306 238 313T194 321Q166 321 151 312T117 273Q109 262 97 262Q87 262 81 268Z" />
<glyph unicode="&#xa0;" glyph-name="uni00A0" horiz-adv-x="250" />
<glyph unicode="&#xa1;" glyph-name="exclamdown" horiz-adv-x="222" d="M134 521T141 514T149 492V473Q149 459 142 452T120 444H101Q73 444 73 473V492Q73 521 101 521H120Q134 521 141 514ZM136 368T136 342V-147Q136 -173 110 -173Q84 -173 84 -147V342Q84
368 110 368Q136 368 136 342Z" />
<glyph unicode="&#xa2;" glyph-name="cent" horiz-adv-x="470" d="M415 211T422 204T430 185Q430 123 394 94T282 65H278V0Q278 -24 254 -24Q230 -24 230 0V65H226Q140 65 100 104T60 229V312Q60 398 100 438T226 477H230V541Q230 565 254 565Q278 565 278 541V477H282Q358
477 394 448T430 357Q430 346 423 339T404 331Q393 331 386 338T378 357Q378 396 358 410T282 425H278V117H282Q337 117 357 131T378 185Q378 196 385 203T404 211Q415 211 422 204ZM230 117V425H226Q162 426 137 401T112 312V229Q112 166 137 142T226 117H230Z"
/>
<glyph unicode="&#xa3;" glyph-name="sterling" horiz-adv-x="594" d="M551 52T551 26Q551 0 525 0H49V52Q86 52 100 72T115 139V219H54Q30 219 30 244Q30 268 54 268H115V430Q115 539 164 588T322 638H343Q442 638 486 594T531 450Q531 424 505 424Q479 424 479
450Q479 502 467 531T425 573T343 586H322Q264 586 231 571T182 523T167 430V268H348Q372 268 372 244Q372 219 348 219H167V139Q167 83 145 52H525Q551 52 551 26Z" />
<glyph unicode="&#xa4;" glyph-name="currency" horiz-adv-x="539" d="M78 137T71 144T63 163Q63 175 71 181L123 234Q87 283 87 347Q87 412 123 459L71 512Q64 519 64 531Q64 542 71 549T90 557Q100 557 108 549L160 496Q209 532 272 532Q336 532 385 495L437
549Q444 556 456 556Q467 556 474 549T482 530Q482 520 474 512L422 458Q458 409 458 347Q458 286 422 235L475 181Q482 175 482 163Q482 152 475 145T456 137Q446 137 438 145L385 198Q335 161 272 161Q210 161 160 198L108 145Q100 137 89 137Q78 137 71 144ZM329
213T367 251T406 347Q406 403 368 441T272 480Q215 480 177 442T139 347Q139 290 177 252T272 213Q329 213 367 251Z" />
<glyph unicode="&#xa5;" glyph-name="yen" horiz-adv-x="541" d="M527 630T527 618Q527 611 522 603L312 274H411Q421 274 427 268T434 252Q434 242 428 236T411 229H295V185H411Q421 185 427 179T434 163Q434 153 428 147T411 140H295V26Q295 0 269 0Q243 0 243
26V140H126Q116 140 110 146T104 163Q104 173 110 179T126 185H243V229H126Q116 229 110 235T104 252Q104 262 110 268T126 274H227L19 602Q14 610 14 618Q14 631 27 638Q35 643 43 643Q55 643 63 631L268 303L478 631Q487 644 499 644Q506 644 514 639Q527 630
527 618Z" />
<glyph unicode="&#xa6;" glyph-name="brokenbar" horiz-adv-x="212" d="M95 363T88 370T80 389V674Q80 685 87 692T106 700Q117 700 124 693T132 674V389Q132 378 125 371T106 363Q95 363 88 370ZM95 -146T88 -139T80 -120V167Q80 178 87 185T106 193Q117 193
124 186T132 167V-120Q132 -131 125 -138T106 -146Q95 -146 88 -139Z" />
<glyph unicode="&#xa7;" glyph-name="section" horiz-adv-x="545" d="M432 151T448 126T465 57Q465 -11 433 -43T331 -76H217Q149 -76 117 -44T84 57Q84 69 91 75T109 82Q121 82 128 76T135 57Q135 10 152 -8T217 -26H331Q378 -26 396 -8T414 57Q414 81 408 94T383
117T324 141L200 181Q133 202 107 234T80 328Q80 423 162 444Q114 480 114 546Q114 596 144 621T232 647H330Q389 647 418 618T447 530Q447 518 440 512T421 505Q410 505 403 511T396 530Q396 568 382 582T330 597H232Q195 597 180 585T165 546Q165 514 181 495T241
461L340 426Q402 404 428 371T455 282Q455 196 391 169Q432 151 448 126ZM131 285T147 265T215 229L330 192Q370 193 387 214T404 282Q404 320 387 341T323 378L224 413L216 416Q168 416 150 397T131 328Q131 285 147 265Z" />
<glyph unicode="&#xa8;" glyph-name="dieresis" horiz-adv-x="324" d="M78 557T71 564T63 586V605Q63 619 70 626T92 634H111Q139 634 139 605V586Q139 557 111 557H92Q78 557 71 564ZM227 557T220 564T212 586V605Q212 619 219 626T241 634H260Q288 634 288 605V586Q288
557 260 557H241Q227 557 220 564Z" />
<glyph unicode="&#xa9;" glyph-name="copyright" horiz-adv-x="797" d="M307 2T235 43T121 157T80 321Q80 413 121 485T234 599T398 640Q490 640 562 599T676 486T717 321Q717 230 676 157T563 43T398 2Q307 2 235 43ZM476 50T537 84T633 181T668 321Q668 400
634 461T538 557T398 592Q320 592 259 558T164 462T129 321Q129 243 163 181T259 85T398 50Q476 50 537 84ZM310 143T277 176T244 278V361Q244 432 277 465T380 498H426Q485 498 515 476T547 408Q548 397 542 390T523 383Q503 383 498 406Q496 430 480 439T426
449H380Q330 449 312 431T293 361V278Q293 229 312 211T380 192H426Q464 192 480 201T498 234Q503 257 523 257Q535 257 541 250T547 232Q544 186 515 165T426 143H380Q310 143 277 176Z" />
<glyph unicode="&#xaa;" glyph-name="ordfeminine" horiz-adv-x="429" d="M313 650T344 619T376 521V339Q376 314 351 314Q326 314 326 339V359Q293 314 217 314H162Q107 314 80 341T53 423Q53 478 79 504T162 531H326Q325 570 308 585T247 600H191Q153 600 136
594T112 572Q106 559 101 555T85 550Q72 550 66 557T62 576Q69 614 100 632T191 650H247Q313 650 344 619ZM267 363T296 377T326 418V482H162Q128 482 116 470T103 423Q103 388 115 376T162 363H217Q267 363 296 377Z" />
<glyph unicode="&#xab;" glyph-name="guillemotleft" horiz-adv-x="604" d="M488 118T481 123L295 277Q285 285 285 294Q285 303 295 311L481 465Q488 470 497 470Q507 470 514 463T521 446Q521 436 512 427L350 294L512 161Q521 152 521 142Q521 132 514 125T497
118Q488 118 481 123ZM287 118T280 123L94 277Q84 285 84 294Q84 303 94 311L280 465Q287 470 296 470Q306 470 313 463T320 446Q320 436 311 427L149 294L311 161Q320 152 320 142Q320 132 313 125T296 118Q287 118 280 123Z" />
<glyph unicode="&#xac;" glyph-name="logicalnot" horiz-adv-x="560" d="M455 215T449 221T442 238V330H96Q86 330 80 336T73 354Q73 365 79 371T96 378H466Q477 378 483 372T490 354V238Q490 227 484 221T466 215Q455 215 449 221Z" />
<glyph unicode="&#xad;" glyph-name="uni00AD" horiz-adv-x="471" d="M87 246T80 253T73 270Q73 280 80 287T98 294H374Q384 294 391 287T398 270Q398 260 391 253T374 246H98Q87 246 80 253Z" />
<glyph unicode="&#xae;" glyph-name="registered" horiz-adv-x="797" d="M307 2T235 42T121 155T80 320Q80 412 121 484T234 597T398 638Q490 638 562 598T676 485T717 320Q717 228 676 156T563 43T398 2Q307 2 235 42ZM476 50T537 84T633 180T668 320Q668 398
634 459T538 555T398 590Q320 590 259 556T164 460T129 320Q129 242 163 181T259 85T398 50Q476 50 537 84ZM285 155T285 179V472Q285 496 309 496H419Q466 496 492 471T518 398V383Q518 347 503 324T461 290L515 189Q519 182 519 176Q519 165 505 157Q495 153
492 153Q480 153 472 167L410 284H333V179Q333 155 309 155Q285 155 285 179ZM419 332Q446 332 457 343T469 383V398Q469 425 458 436T419 448H333V332H419Z" />
<glyph unicode="&#xaf;" glyph-name="overscore" horiz-adv-x="405" d="M50 579T50 605Q50 631 76 631H329Q355 631 355 605Q355 579 329 579H76Q50 579 50 605Z" />
<glyph unicode="&#xb0;" glyph-name="degree" horiz-adv-x="278" d="M91 444T71 464T50 522V594Q50 632 70 652T128 672H151Q188 672 208 652T228 594V522Q228 484 208 464T151 444H128Q91 444 71 464ZM151 490Q169 490 176 497T183 522V594Q183 612 176 619T151
626H128Q110 626 103 619T95 594V522Q95 504 102 497T128 490H151Z" />
<glyph unicode="&#xb1;" glyph-name="plusminus" horiz-adv-x="560" d="M73 340T73 364Q73 388 98 388H244V496Q244 507 251 513T268 520Q279 520 286 514T293 496V388H463Q487 388 487 364Q487 340 463 340H293V228Q293 217 286 211T268 204Q258 204 251 211T244
228V340H98Q73 340 73 364ZM487 179T487 155Q487 131 463 131H98Q73 131 73 155Q73 179 98 179H463Q487 179 487 155Z" />
<glyph unicode="&#xb2;" glyph-name="uni00B2" horiz-adv-x="357" d="M88 314Q76 314 69 320T62 339Q62 378 77 405T112 447T169 483Q214 510 226 521T239 551Q239 576 231 584T198 592H148Q130 592 121 588T109 572Q102 559 97 554T81 549Q68 549 62 556T57 575Q69
642 148 642H198Q290 642 290 551Q290 523 277 504T247 473T194 440Q154 416 138 403T116 365H271Q296 365 296 339Q296 314 271 314H88Z" />
<glyph unicode="&#xb3;" glyph-name="uni00B3" horiz-adv-x="326" d="M299 473T299 411Q299 362 275 339T201 315H148Q106 315 83 332T53 385Q51 397 57 404T77 411Q88 411 93 407T104 388Q107 375 117 370T148 365H201Q229 365 238 374T248 411Q248 440 239 449T201
458H170Q145 458 145 483Q145 508 170 508H198Q221 508 231 519T241 550Q241 576 233 584T199 592H150Q131 592 122 588T110 573Q105 561 100 556T83 550Q69 550 63 557T59 577Q70 643 150 643H199Q292 643 292 553Q292 514 261 495Q299 473 299 411Z" />
<glyph unicode="&#xb4;" glyph-name="acute" horiz-adv-x="236" d="M49 532T49 541Q49 549 55 558L141 660Q150 670 160 670Q169 670 176 663Q186 654 186 645Q186 637 180 628L94 526Q85 516 75 516Q66 516 59 523Q49 532 49 541Z" />
<glyph unicode="&#xb5;" glyph-name="uni00B5" horiz-adv-x="626" d="M593 51T593 26Q593 0 568 0Q531 0 507 18T472 70Q446 36 401 18T292 0H264Q171 0 136 64V-63Q136 -92 110 -92Q84 -92 84 -66V446Q84 472 110 472Q136 472 136 446V180Q136 109 164 81T264
52H292Q372 52 418 77T464 152V446Q464 472 490 472Q516 472 516 446V118Q516 83 526 69T567 52Q593 51 593 26Z" />
<glyph unicode="&#xb6;" glyph-name="paragraph" horiz-adv-x="534" d="M276 -187T269 -180T262 -163V287H201Q118 287 76 328T34 452V481Q34 563 76 605T201 647H417Q441 647 441 623V-163Q441 -173 434 -180T417 -187Q406 -187 399 -180T392 -163V599H311V-163Q311
-173 304 -180T287 -187Q276 -187 269 -180Z" />
<glyph unicode="&#xb7;" glyph-name="middot" horiz-adv-x="222" d="M88 250T81 257T73 279V298Q73 312 80 319T102 327H121Q149 327 149 298V279Q149 250 121 250H102Q88 250 81 257Z" />
<glyph unicode="&#xb8;" glyph-name="cedilla" horiz-adv-x="293" d="M50 -203T50 -117Q50 -93 74 -93Q99 -93 99 -117Q99 -140 106 -147T136 -155Q170 -155 182 -143T194 -97Q194 -87 190 -81T169 -64Q147 -48 134 -32T121 15Q121 39 145 39Q170 39 170 15Q170
2 175 -5T196 -23Q217 -37 230 -53T243 -97Q243 -152 217 -177T136 -203Q50 -203 50 -117Z" />
<glyph unicode="&#xb9;" glyph-name="uni00B9" horiz-adv-x="274" d="M214 644T214 621V340Q214 328 208 321T188 314Q175 314 169 321T162 340V563L118 519Q109 510 100 510Q90 510 81 519Q73 529 73 538Q73 546 81 556L158 630Q166 638 173 641T191 644Q214
644 214 621Z" />
<glyph unicode="&#xba;" glyph-name="ordmasculine" horiz-adv-x="419" d="M110 314T79 345T47 444V515Q47 583 78 614T177 645H243Q309 645 341 614T373 515V445Q373 378 341 346T243 314H177Q110 314 79 345ZM243 366Q287 366 304 383T321 445V515Q321 560 304
576T243 593H177Q132 594 116 578T99 515V444Q99 400 115 383T177 366H243Z" />
<glyph unicode="&#xbb;" glyph-name="guillemotright" horiz-adv-x="604" d="M298 118T291 125T284 142Q284 152 293 161L455 294L293 427Q284 436 284 446Q284 456 291 463T308 470Q317 470 324 465L510 311Q520 304 520 294Q520 284 510 277L324 123Q317 118
308 118Q298 118 291 125ZM97 118T90 125T83 142Q83 152 92 161L254 294L92 427Q83 436 83 446Q83 456 90 463T107 470Q116 470 123 465L309 311Q319 304 319 294Q319 284 309 277L123 123Q116 118 107 118Q97 118 90 125Z" />
<glyph unicode="&#xbc;" glyph-name="onequarter" horiz-adv-x="737" d="M214 644T214 621V340Q214 328 208 321T188 314Q175 314 169 321T162 340V563L118 519Q109 510 100 510Q90 510 81 519Q73 529 73 538Q73 546 81 556L158 630Q166 638 173 641T191 644Q214
644 214 621ZM126 -4T119 3T111 22Q111 30 116 38L577 648Q585 659 598 659Q609 659 616 652T624 633Q624 628 622 624T619 617L158 7Q150 -4 137 -4Q126 -4 119 3ZM670 117T670 92Q670 66 645 66H615V27Q615 2 589 2Q564 2 564 27V66H422Q396 66 396 92Q396 107
407 119L562 316Q569 325 576 328T593 332Q617 332 617 306L616 117H645Q670 117 670 92ZM464 117H565L566 246L464 117Z" />
<glyph unicode="&#xbd;" glyph-name="onehalf" horiz-adv-x="752" d="M214 644T214 621V340Q214 328 208 321T188 314Q175 314 169 321T162 340V563L118 519Q109 510 100 510Q90 510 81 519Q73 529 73 538Q73 546 81 556L158 630Q166 638 173 641T191 644Q214
644 214 621ZM126 -4T119 3T111 22Q111 30 116 38L577 648Q585 659 598 659Q609 659 616 652T624 633Q624 628 622 624T619 617L158 7Q150 -4 137 -4Q126 -4 119 3ZM484 0Q472 0 465 6T458 25Q458 64 473 91T508 133T565 169Q610 196 622 207T635 237Q635 262 627
270T594 278H544Q526 278 517 274T505 258Q498 245 493 240T477 235Q464 235 458 242T453 261Q465 328 544 328H594Q686 328 686 237Q686 209 673 190T643 159T590 126Q550 102 534 89T512 51H667Q692 51 692 25Q692 0 667 0H484Z" />
<glyph unicode="&#xbe;" glyph-name="threequarters" horiz-adv-x="788" d="M299 473T299 411Q299 362 275 339T201 315H148Q106 315 83 332T53 385Q51 397 57 404T77 411Q88 411 93 407T104 388Q107 375 117 370T148 365H201Q229 365 238 374T248 411Q248 440
239 449T201 458H170Q145 458 145 483Q145 508 170 508H198Q221 508 231 519T241 550Q241 576 233 584T199 592H150Q131 592 122 588T110 573Q105 561 100 556T83 550Q69 550 63 557T59 577Q70 643 150 643H199Q292 643 292 553Q292 514 261 495Q299 473 299 411ZM178
-4T171 3T163 22Q163 30 168 38L629 648Q637 659 650 659Q661 659 668 652T676 633Q676 628 674 624T671 617L210 7Q202 -4 189 -4Q178 -4 171 3ZM721 117T721 92Q721 66 696 66H666V27Q666 2 640 2Q615 2 615 27V66H473Q447 66 447 92Q447 107 458 119L613 316Q620
325 627 328T644 332Q668 332 668 306L667 117H696Q721 117 721 92ZM515 117H616L617 246L515 117Z" />
<glyph unicode="&#xbf;" glyph-name="questiondown" horiz-adv-x="477" d="M285 510T292 503T300 481V462Q300 448 293 441T271 433H252Q224 433 224 462V481Q224 510 252 510H271Q285 510 292 503ZM289 371T289 345Q289 295 275 262T240 210T188 171Q160 153
145 139T121 102T112 41Q112 -24 138 -50T229 -76H296Q361 -76 387 -50T413 41Q413 67 439 67Q465 67 465 41Q465 -46 424 -87T296 -128H229Q141 -128 101 -88T60 41Q60 91 74 124T109 176T161 215Q189 233 204 247T228 284T237 345Q237 371 263 371Q289 371 289
345Z" />
<glyph unicode="&#xc0;" glyph-name="Agrave" horiz-adv-x="613" d="M588 30T588 24Q588 11 571 3Q565 0 558 0Q544 0 538 16L471 174H468H144L77 16Q70 0 55 0Q50 0 42 3Q26 9 26 25Q26 33 28 37L276 624Q284 644 306 644H308Q328 644 337 624L585 37Q588 30
588 24ZM165 226H449L307 562L165 226ZM332 695T323 695Q313 695 304 705L218 807Q212 816 212 824Q212 833 222 842Q229 849 238 849Q248 849 257 839L343 737Q349 728 349 720Q349 711 339 702Q332 695 323 695Z" />
<glyph unicode="&#xc1;" glyph-name="Aacute" horiz-adv-x="613" d="M588 30T588 24Q588 11 571 3Q565 0 558 0Q544 0 538 16L471 174H468H144L77 16Q70 0 55 0Q50 0 42 3Q26 9 26 25Q26 33 28 37L276 624Q284 644 306 644H308Q328 644 337 624L585 37Q588 30
588 24ZM165 226H449L307 562L165 226ZM286 711T286 720Q286 728 292 737L378 839Q387 849 397 849Q406 849 413 842Q423 833 423 824Q423 816 417 807L331 705Q322 695 312 695Q303 695 296 702Q286 711 286 720Z" />
<glyph unicode="&#xc2;" glyph-name="Acircumflex" horiz-adv-x="613" d="M588 30T588 24Q588 11 571 3Q565 0 558 0Q544 0 538 16L471 174H468H144L77 16Q70 0 55 0Q50 0 42 3Q26 9 26 25Q26 33 28 37L276 624Q284 644 306 644H308Q328 644 337 624L585 37Q588
30 588 24ZM165 226H449L307 562L165 226ZM173 703T166 710T159 728Q159 740 169 748L268 831Q282 842 299 842H311Q328 842 342 831L441 748Q451 740 451 728Q451 718 444 711T426 703Q416 703 409 710L310 792H300L201 710Q194 703 184 703Q173 703 166 710Z"
/>
<glyph unicode="&#xc3;" glyph-name="Atilde" horiz-adv-x="613" d="M588 30T588 24Q588 11 571 3Q565 0 558 0Q544 0 538 16L471 174H468H144L77 16Q70 0 55 0Q50 0 42 3Q26 9 26 25Q26 33 28 37L276 624Q284 644 306 644H308Q328 644 337 624L585 37Q588 30
588 24ZM165 226H449L307 562L165 226ZM344 725T328 735T295 762Q281 776 273 781T251 786Q234 786 225 777T206 744Q200 724 180 727Q170 728 165 734T159 749Q159 752 161 758Q175 798 196 816T251 834Q278 834 295 824T330 795Q343 782 350 778T369 773Q385
773 395 782T412 814Q419 834 438 831Q448 830 453 824T459 809Q459 804 458 801Q444 763 423 744T369 725Q344 725 328 735Z" />
<glyph unicode="&#xc4;" glyph-name="Adieresis" horiz-adv-x="613" d="M588 30T588 24Q588 11 571 3Q565 0 558 0Q544 0 538 16L471 174H468H144L77 16Q70 0 55 0Q50 0 42 3Q26 9 26 25Q26 33 28 37L276 624Q284 644 306 644H308Q328 644 337 624L585 37Q588
30 588 24ZM165 226H449L307 562L165 226ZM210 729T203 736T195 758V777Q195 791 202 798T224 806H243Q271 806 271 777V758Q271 729 243 729H224Q210 729 203 736ZM359 729T352 736T344 758V777Q344 791 351 798T373 806H392Q420 806 420 777V758Q420 729 392
729H373Q359 729 352 736Z" />
<glyph unicode="&#xc5;" glyph-name="Aring" horiz-adv-x="613" d="M588 30T588 24Q588 11 571 3Q565 0 558 0Q544 0 538 16L471 174H468H144L77 16Q70 0 55 0Q50 0 42 3Q26 9 26 25Q26 33 28 37L276 624Q284 644 306 644H308Q328 644 337 624L585 37Q588 30 588
24ZM165 226H449L307 562L165 226ZM267 703T247 723T227 779Q227 816 247 836T303 856Q340 856 360 836T380 779Q380 743 360 723T303 703Q267 703 247 723ZM321 749T327 755T334 779Q334 798 328 804T303 810Q285 810 279 804T273 779Q273 761 279 755T303 749Q321
749 327 755Z" />
<glyph unicode="&#xc6;" glyph-name="AE" horiz-adv-x="827" d="M408 0T408 26V174L167 175L76 14Q67 -1 55 -1Q48 -1 40 4Q26 13 26 26Q26 33 30 40L362 625Q371 644 392 644H761Q787 644 787 618Q787 592 761 592H460V352H643Q669 352 669 326Q669 300 643 300H460V52H761Q787
52 787 26Q787 0 761 0H434Q408 0 408 26ZM196 226H408V586H397L196 226Z" />
<glyph unicode="&#xc7;" glyph-name="Ccedilla" horiz-adv-x="665" d="M597 188T595 161Q590 76 545 38T408 0H399Q403 -10 423 -23Q444 -37 457 -53T470 -97Q470 -152 444 -177T363 -203Q277 -203 277 -117Q277 -93 301 -93Q326 -93 326 -117Q326 -140 333 -147T363
-155Q397 -155 409 -143T421 -97Q421 -87 417 -81T396 -64Q378 -51 366 -38T349 0H288Q180 0 130 50T80 208V436Q80 545 129 594T287 644H408Q500 644 545 606T595 482Q597 456 569 456Q545 456 543 482Q539 543 509 567T408 592H287Q229 592 196 577T147 529T132
436V208Q132 149 147 116T195 67T288 52H408Q479 52 509 76T543 162Q545 188 569 188Q597 188 595 161Z" />
<glyph unicode="&#xc8;" glyph-name="Egrave" horiz-adv-x="560" d="M520 52T520 26Q520 0 494 0H119Q93 0 93 26V618Q93 644 119 644H494Q520 644 520 618Q520 592 494 592H145V352H376Q402 352 402 326Q402 300 376 300H145V52H494Q520 52 520 26ZM349 695T340
695Q330 695 321 705L235 807Q229 816 229 824Q229 833 239 842Q246 849 255 849Q265 849 274 839L360 737Q366 728 366 720Q366 711 356 702Q349 695 340 695Z" />
<glyph unicode="&#xc9;" glyph-name="Eacute" horiz-adv-x="560" d="M520 52T520 26Q520 0 494 0H119Q93 0 93 26V618Q93 644 119 644H494Q520 644 520 618Q520 592 494 592H145V352H376Q402 352 402 326Q402 300 376 300H145V52H494Q520 52 520 26ZM288 715T288
724Q288 732 294 741L380 843Q389 853 399 853Q408 853 415 846Q425 837 425 828Q425 820 419 811L333 709Q324 699 314 699Q305 699 298 706Q288 715 288 724Z" />
<glyph unicode="&#xca;" glyph-name="Ecircumflex" horiz-adv-x="560" d="M520 52T520 26Q520 0 494 0H119Q93 0 93 26V618Q93 644 119 644H494Q520 644 520 618Q520 592 494 592H145V352H376Q402 352 402 326Q402 300 376 300H145V52H494Q520 52 520 26ZM190
703T183 710T176 728Q176 740 186 748L285 831Q299 842 316 842H328Q345 842 359 831L458 748Q468 740 468 728Q468 718 461 711T443 703Q433 703 426 710L327 792H317L218 710Q211 703 201 703Q190 703 183 710Z" />
<glyph unicode="&#xcb;" glyph-name="Edieresis" horiz-adv-x="560" d="M520 52T520 26Q520 0 494 0H119Q93 0 93 26V618Q93 644 119 644H494Q520 644 520 618Q520 592 494 592H145V352H376Q402 352 402 326Q402 300 376 300H145V52H494Q520 52 520 26ZM227 729T220
736T212 758V777Q212 791 219 798T241 806H260Q288 806 288 777V758Q288 729 260 729H241Q227 729 220 736ZM376 729T369 736T361 758V777Q361 791 368 798T390 806H409Q437 806 437 777V758Q437 729 409 729H390Q376 729 369 736Z" />
<glyph unicode="&#xcc;" glyph-name="Igrave" horiz-adv-x="238" d="M107 0T100 7T93 26V618Q93 630 100 637T119 644Q131 644 138 637T145 618V26Q145 14 138 7T119 0Q107 0 100 7ZM144 695T135 695Q125 695 116 705L30 807Q24 816 24 824Q24 833 34 842Q41 849
50 849Q60 849 69 839L155 737Q161 728 161 720Q161 711 151 702Q144 695 135 695Z" />
<glyph unicode="&#xcd;" glyph-name="Iacute" horiz-adv-x="238" d="M107 0T100 7T93 26V618Q93 630 100 637T119 644Q131 644 138 637T145 618V26Q145 14 138 7T119 0Q107 0 100 7ZM83 715T83 724Q83 732 89 741L175 843Q184 853 194 853Q203 853 210 846Q220
837 220 828Q220 820 214 811L128 709Q119 699 109 699Q100 699 93 706Q83 715 83 724Z" />
<glyph unicode="&#xce;" glyph-name="Icircumflex" horiz-adv-x="238" d="M107 0T100 7T93 26V618Q93 630 100 637T119 644Q131 644 138 637T145 618V26Q145 14 138 7T119 0Q107 0 100 7ZM15 700T8 707T1 725Q1 733 6 740L83 837Q96 851 113 851H128Q146 851 157
837L234 740Q240 732 240 725Q240 715 233 708T215 700Q203 700 196 710L124 803H117L44 710Q37 700 25 700Q15 700 8 707Z" />
<glyph unicode="&#xcf;" glyph-name="Idieresis" horiz-adv-x="238" d="M107 0T100 7T93 26V618Q93 630 100 637T119 644Q131 644 138 637T145 618V26Q145 14 138 7T119 0Q107 0 100 7ZM22 729T15 736T7 758V777Q7 791 14 798T36 806H55Q83 806 83 777V758Q83
729 55 729H36Q22 729 15 736ZM171 729T164 736T156 758V777Q156 791 163 798T185 806H204Q232 806 232 777V758Q232 729 204 729H185Q171 729 164 736Z" />
<glyph unicode="&#xd0;" glyph-name="Eth" horiz-adv-x="678" d="M484 644T541 587T598 406V238Q598 114 542 57T360 0H119Q93 0 93 26V301H31Q7 301 7 325Q7 349 31 349H93V618Q93 644 119 644H360Q484 644 541 587ZM546 406Q546 475 528 515T470 574T360 592H145V349H290Q315
349 315 325Q315 301 290 301H145V52H360Q429 52 469 70T528 128T546 238V406Z" />
<glyph unicode="&#xd1;" glyph-name="Ntilde" horiz-adv-x="703" d="M610 644T610 618V26Q610 0 584 0Q570 0 558 15L145 546V26Q145 0 119 0Q93 0 93 26V618Q93 644 119 644Q134 644 146 629L558 99V618Q558 644 584 644Q610 644 610 618ZM395 725T379 735T346
762Q332 776 324 781T302 786Q285 786 276 777T257 744Q251 724 231 727Q221 728 216 734T210 749Q210 752 212 758Q226 798 247 816T302 834Q329 834 346 824T381 795Q394 782 401 778T420 773Q436 773 446 782T463 814Q470 834 489 831Q499 830 504 824T510 809Q510
804 509 801Q495 763 474 744T420 725Q395 725 379 735Z" />
<glyph unicode="&#xd2;" glyph-name="Ograve" horiz-adv-x="696" d="M179 0T130 49T80 208V436Q80 545 130 595T287 644H408Q517 644 566 594T616 436V208Q616 99 567 50T408 0H288Q179 0 130 49ZM408 52Q494 52 529 87T564 208V436Q564 522 529 557T408 592H287Q229
593 196 578T147 529T132 436V208Q132 122 167 87T288 52H408ZM373 695T364 695Q354 695 345 705L259 807Q253 816 253 824Q253 833 263 842Q270 849 279 849Q289 849 298 839L384 737Q390 728 390 720Q390 711 380 702Q373 695 364 695Z" />
<glyph unicode="&#xd3;" glyph-name="Oacute" horiz-adv-x="696" d="M179 0T130 49T80 208V436Q80 545 130 595T287 644H408Q517 644 566 594T616 436V208Q616 99 567 50T408 0H288Q179 0 130 49ZM408 52Q494 52 529 87T564 208V436Q564 522 529 557T408 592H287Q229
593 196 578T147 529T132 436V208Q132 122 167 87T288 52H408ZM312 715T312 724Q312 732 318 741L404 843Q413 853 423 853Q432 853 439 846Q449 837 449 828Q449 820 443 811L357 709Q348 699 338 699Q329 699 322 706Q312 715 312 724Z" />
<glyph unicode="&#xd4;" glyph-name="Ocircumflex" horiz-adv-x="696" d="M179 0T130 49T80 208V436Q80 545 130 595T287 644H408Q517 644 566 594T616 436V208Q616 99 567 50T408 0H288Q179 0 130 49ZM408 52Q494 52 529 87T564 208V436Q564 522 529 557T408
592H287Q229 593 196 578T147 529T132 436V208Q132 122 167 87T288 52H408ZM214 703T207 710T200 728Q200 740 210 748L309 831Q323 842 340 842H352Q369 842 383 831L482 748Q492 740 492 728Q492 718 485 711T467 703Q457 703 450 710L351 792H341L242 710Q235
703 225 703Q214 703 207 710Z" />
<glyph unicode="&#xd5;" glyph-name="Otilde" horiz-adv-x="696" d="M179 0T130 49T80 208V436Q80 545 130 595T287 644H408Q517 644 566 594T616 436V208Q616 99 567 50T408 0H288Q179 0 130 49ZM408 52Q494 52 529 87T564 208V436Q564 522 529 557T408 592H287Q229
593 196 578T147 529T132 436V208Q132 122 167 87T288 52H408ZM385 725T369 735T336 762Q322 776 314 781T292 786Q275 786 266 777T247 744Q241 724 221 727Q211 728 206 734T200 749Q200 752 202 758Q216 798 237 816T292 834Q319 834 336 824T371 795Q384 782
391 778T410 773Q426 773 436 782T453 814Q460 834 479 831Q489 830 494 824T500 809Q500 804 499 801Q485 763 464 744T410 725Q385 725 369 735Z" />
<glyph unicode="&#xd6;" glyph-name="Odieresis" horiz-adv-x="696" d="M179 0T130 49T80 208V436Q80 545 130 595T287 644H408Q517 644 566 594T616 436V208Q616 99 567 50T408 0H288Q179 0 130 49ZM408 52Q494 52 529 87T564 208V436Q564 522 529 557T408 592H287Q229
593 196 578T147 529T132 436V208Q132 122 167 87T288 52H408ZM251 729T244 736T236 758V777Q236 791 243 798T265 806H284Q312 806 312 777V758Q312 729 284 729H265Q251 729 244 736ZM400 729T393 736T385 758V777Q385 791 392 798T414 806H433Q461 806 461 777V758Q461
729 433 729H414Q400 729 393 736Z" />
<glyph unicode="&#xd7;" glyph-name="multiply" horiz-adv-x="560" d="M443 199T443 189Q443 180 435 172Q427 164 418 164Q411 164 401 172L281 292L159 170Q151 162 142 162Q135 162 125 170Q117 180 117 187Q117 196 125 204L247 326L143 430Q134 439 134 449Q134
457 142 465Q152 473 159 473Q168 473 177 464L281 360L383 462Q392 471 402 471Q410 471 418 463Q426 453 426 446Q426 437 417 428L315 326L435 206Q443 199 443 189Z" />
<glyph unicode="&#xd8;" glyph-name="Oslash" horiz-adv-x="696" d="M616 561T616 436V208Q616 99 567 50T408 0H288Q228 0 187 15L158 -32Q151 -45 139 -45Q133 -45 123 -40Q110 -31 110 -20Q110 -13 115 -5L142 39Q110 64 95 105T80 208V436Q80 545 130 595T287
644H408Q464 644 503 631L533 681Q542 694 553 694Q560 694 568 689Q582 680 582 669Q582 662 577 654L549 609Q616 561 616 436ZM132 120T169 84L475 585Q448 592 408 592H287Q229 593 196 578T147 529T132 436V208Q132 120 169 84ZM564 436Q564 484 554 515T522
564L214 60Q248 52 288 52H408Q494 52 529 87T564 208V436Z" />
<glyph unicode="&#xd9;" glyph-name="Ugrave" horiz-adv-x="702" d="M183 0T133 49T83 208V618Q83 629 90 636T109 644Q121 644 128 637T135 618V208Q135 122 170 87T291 52H411Q470 52 503 67T552 116T567 208V618Q567 629 574 636T593 644Q605 644 612 637T619
618V208Q619 99 570 50T411 0H291Q183 0 133 49ZM376 695T367 695Q357 695 348 705L262 807Q256 816 256 824Q256 833 266 842Q273 849 282 849Q292 849 301 839L387 737Q393 728 393 720Q393 711 383 702Q376 695 367 695Z" />
<glyph unicode="&#xda;" glyph-name="Uacute" horiz-adv-x="702" d="M183 0T133 49T83 208V618Q83 629 90 636T109 644Q121 644 128 637T135 618V208Q135 122 170 87T291 52H411Q470 52 503 67T552 116T567 208V618Q567 629 574 636T593 644Q605 644 612 637T619
618V208Q619 99 570 50T411 0H291Q183 0 133 49ZM315 715T315 724Q315 732 321 741L407 843Q416 853 426 853Q435 853 442 846Q452 837 452 828Q452 820 446 811L360 709Q351 699 341 699Q332 699 325 706Q315 715 315 724Z" />
<glyph unicode="&#xdb;" glyph-name="Ucircumflex" horiz-adv-x="702" d="M183 0T133 49T83 208V618Q83 629 90 636T109 644Q121 644 128 637T135 618V208Q135 122 170 87T291 52H411Q470 52 503 67T552 116T567 208V618Q567 629 574 636T593 644Q605 644 612
637T619 618V208Q619 99 570 50T411 0H291Q183 0 133 49ZM217 703T210 710T203 728Q203 740 213 748L312 831Q326 842 343 842H355Q372 842 386 831L485 748Q495 740 495 728Q495 718 488 711T470 703Q460 703 453 710L354 792H344L245 710Q238 703 228 703Q217
703 210 710Z" />
<glyph unicode="&#xdc;" glyph-name="Udieresis" horiz-adv-x="702" d="M183 0T133 49T83 208V618Q83 629 90 636T109 644Q121 644 128 637T135 618V208Q135 122 170 87T291 52H411Q470 52 503 67T552 116T567 208V618Q567 629 574 636T593 644Q605 644 612 637T619
618V208Q619 99 570 50T411 0H291Q183 0 133 49ZM254 729T247 736T239 758V777Q239 791 246 798T268 806H287Q315 806 315 777V758Q315 729 287 729H268Q254 729 247 736ZM403 729T396 736T388 758V777Q388 791 395 798T417 806H436Q464 806 464 777V758Q464 729
436 729H417Q403 729 396 736Z" />
<glyph unicode="&#xdd;" glyph-name="Yacute" horiz-adv-x="539" d="M525 631T525 619Q525 611 520 603L294 249V26Q294 0 268 0Q242 0 242 26V249L18 603Q13 611 13 618Q13 630 27 639Q35 644 42 644Q54 644 63 630L268 305L476 631Q484 643 496 643Q504 643
512 638Q525 631 525 619ZM234 715T234 724Q234 732 240 741L326 843Q335 853 345 853Q354 853 361 846Q371 837 371 828Q371 820 365 811L279 709Q270 699 260 699Q251 699 244 706Q234 715 234 724Z" />
<glyph unicode="&#xde;" glyph-name="Thorn" horiz-adv-x="512" d="M391 551T434 508T478 378V348Q478 263 434 219T305 175H145V26Q145 0 119 0Q93 0 93 26V618Q93 644 119 644Q145 644 145 618V551H305Q391 551 434 508ZM426 378Q426 442 398 470T305 499H145V227H305Q369
227 397 256T426 348V378Z" />
<glyph unicode="&#xdf;" glyph-name="germandbls" horiz-adv-x="534" d="M93 1T93 27V524Q93 612 134 652T262 693Q349 693 389 653T430 525Q430 433 364 394Q430 380 460 341T490 231V179Q490 86 448 44T312 1H251Q225 1 225 27Q225 53 251 53H312Q383 53 410
80T438 179V231Q438 302 411 329T312 357H288Q262 357 262 384Q262 408 288 411Q338 415 358 441T378 525Q378 590 353 615T262 641Q197 641 171 616T145 524V27Q145 1 119 1Q93 1 93 27Z" />
<glyph unicode="&#xe0;" glyph-name="agrave" horiz-adv-x="587" d="M417 472T460 429T503 292V26Q503 0 477 0Q451 0 451 26V75Q427 38 384 19T279 0H223Q146 0 110 36T73 150Q73 228 109 264T223 301H451Q449 367 421 393T323 420H265Q201 420 172 407T136 360Q132
347 126 342T109 336Q95 336 89 343T83 363Q90 420 134 446T265 472H323Q417 472 460 429ZM451 160V249H223Q167 249 146 228T125 150Q125 95 146 74T223 52H279Q434 52 449 152L451 160ZM315 523T306 523Q296 523 287 533L201 635Q195 644 195 652Q195 661 205
670Q212 677 221 677Q231 677 240 667L326 565Q332 556 332 548Q332 539 322 530Q315 523 306 523Z" />
<glyph unicode="&#xe1;" glyph-name="aacute" horiz-adv-x="587" d="M417 472T460 429T503 292V26Q503 0 477 0Q451 0 451 26V75Q427 38 384 19T279 0H223Q146 0 110 36T73 150Q73 228 109 264T223 301H451Q449 367 421 393T323 420H265Q201 420 172 407T136 360Q132
347 126 342T109 336Q95 336 89 343T83 363Q90 420 134 446T265 472H323Q417 472 460 429ZM451 160V249H223Q167 249 146 228T125 150Q125 95 146 74T223 52H279Q434 52 449 152L451 160ZM254 543T254 552Q254 560 260 569L346 671Q355 681 365 681Q374 681 381
674Q391 665 391 656Q391 648 385 639L299 537Q290 527 280 527Q271 527 264 534Q254 543 254 552Z" />
<glyph unicode="&#xe2;" glyph-name="acircumflex" horiz-adv-x="587" d="M417 472T460 429T503 292V26Q503 0 477 0Q451 0 451 26V75Q427 38 384 19T279 0H223Q146 0 110 36T73 150Q73 228 109 264T223 301H451Q449 367 421 393T323 420H265Q201 420 172 407T136
360Q132 347 126 342T109 336Q95 336 89 343T83 363Q90 420 134 446T265 472H323Q417 472 460 429ZM451 160V249H223Q167 249 146 228T125 150Q125 95 146 74T223 52H279Q434 52 449 152L451 160ZM186 528T179 535T172 553Q172 561 177 568L254 665Q267 679 284
679H299Q317 679 328 665L405 568Q411 560 411 553Q411 543 404 536T386 528Q374 528 367 538L295 631H288L215 538Q208 528 196 528Q186 528 179 535Z" />
<glyph unicode="&#xe3;" glyph-name="atilde" horiz-adv-x="587" d="M417 472T460 429T503 292V26Q503 0 477 0Q451 0 451 26V75Q427 38 384 19T279 0H223Q146 0 110 36T73 150Q73 228 109 264T223 301H451Q449 367 421 393T323 420H265Q201 420 172 407T136 360Q132
347 126 342T109 336Q95 336 89 343T83 363Q90 420 134 446T265 472H323Q417 472 460 429ZM451 160V249H223Q167 249 146 228T125 150Q125 95 146 74T223 52H279Q434 52 449 152L451 160ZM327 553T311 563T278 590Q264 604 256 609T234 614Q217 614 208 605T189
572Q183 552 163 555Q153 556 148 562T142 577Q142 580 144 586Q158 626 179 644T234 662Q261 662 278 652T313 623Q326 610 333 606T352 601Q368 601 378 610T395 642Q402 662 421 659Q431 658 436 652T442 637Q442 632 441 629Q427 591 406 572T352 553Q327 553
311 563Z" />
<glyph unicode="&#xe4;" glyph-name="adieresis" horiz-adv-x="587" d="M417 472T460 429T503 292V26Q503 0 477 0Q451 0 451 26V75Q427 38 384 19T279 0H223Q146 0 110 36T73 150Q73 228 109 264T223 301H451Q449 367 421 393T323 420H265Q201 420 172 407T136
360Q132 347 126 342T109 336Q95 336 89 343T83 363Q90 420 134 446T265 472H323Q417 472 460 429ZM451 160V249H223Q167 249 146 228T125 150Q125 95 146 74T223 52H279Q434 52 449 152L451 160ZM193 557T186 564T178 586V605Q178 619 185 626T207 634H226Q254
634 254 605V586Q254 557 226 557H207Q193 557 186 564ZM342 557T335 564T327 586V605Q327 619 334 626T356 634H375Q403 634 403 605V586Q403 557 375 557H356Q342 557 335 564Z" />
<glyph unicode="&#xe5;" glyph-name="aring" horiz-adv-x="587" d="M417 472T460 429T503 292V26Q503 0 477 0Q451 0 451 26V75Q427 38 384 19T279 0H223Q146 0 110 36T73 150Q73 228 109 264T223 301H451Q449 367 421 393T323 420H265Q201 420 172 407T136 360Q132
347 126 342T109 336Q95 336 89 343T83 363Q90 420 134 446T265 472H323Q417 472 460 429ZM451 160V249H223Q167 249 146 228T125 150Q125 95 146 74T223 52H279Q434 52 449 152L451 160ZM250 531T230 551T210 607Q210 644 230 664T286 684Q323 684 343 664T363
607Q363 571 343 551T286 531Q250 531 230 551ZM304 577T310 583T317 607Q317 626 311 632T286 638Q268 638 262 632T256 607Q256 589 262 583T286 577Q304 577 310 583Z" />
<glyph unicode="&#xe6;" glyph-name="ae" horiz-adv-x="923" d="M547 -6T509 15T452 82Q398 -4 259 -4H223Q146 -4 110 32T73 146Q73 224 109 260T223 296H431Q429 362 401 388T303 415H265Q191 415 162 397T133 331Q133 320 126 313T107 305Q96 305 89 312T81
331Q81 402 125 434T265 467H303Q418 467 457 388Q497 467 607 466H667Q758 466 800 419T843 270Q843 244 817 244H483V176Q483 103 510 75T606 46H667Q737 46 764 65T791 135Q791 146 798 153T817 161Q828 161 835 154T843 135Q843 62 801 28T667 -6H606Q547 -6
509 15ZM791 296Q787 360 759 387T667 414H607Q540 415 513 389T484 296H791ZM259 48Q346 48 388 78T431 172V244H223Q168 244 147 223T125 146Q125 91 146 70T223 48H259Z" />
<glyph unicode="&#xe7;" glyph-name="ccedilla" horiz-adv-x="560" d="M488 130T495 123T500 103Q493 52 457 27T353 0Q357 -10 377 -23Q398 -37 411 -53T424 -97Q424 -152 398 -177T317 -203Q231 -203 231 -117Q231 -93 255 -93Q280 -93 280 -117Q280 -140 287
-147T317 -155Q351 -155 363 -143T375 -97Q375 -87 371 -81T350 -64Q332 -51 320 -38T303 0H260Q167 0 124 43T80 180V293Q80 387 123 430T260 472H342Q416 472 454 447T500 369Q502 357 495 350T475 342Q453 342 448 366Q442 396 418 408T342 420H260Q188 421
160 393T132 293V180Q132 108 160 80T260 52H342Q394 52 418 64T448 106Q453 130 475 130Q488 130 495 123Z" />
<glyph unicode="&#xe8;" glyph-name="egrave" horiz-adv-x="602" d="M132 216V179Q132 108 160 80T260 52H342Q406 52 434 68T468 125Q473 150 495 150Q509 150 515 143T520 123Q513 60 470 30T342 0H260Q167 0 124 43T80 179V292Q80 386 123 429T260 472H342Q435
472 478 429T522 292V242Q522 216 496 216H132ZM132 268H470V292Q470 364 442 392T342 420H260Q188 421 160 393T132 292V268ZM332 523T323 523Q313 523 304 533L218 635Q212 644 212 652Q212 661 222 670Q229 677 238 677Q248 677 257 667L343 565Q349 556 349
548Q349 539 339 530Q332 523 323 523Z" />
<glyph unicode="&#xe9;" glyph-name="eacute" horiz-adv-x="602" d="M132 216V179Q132 108 160 80T260 52H342Q406 52 434 68T468 125Q473 150 495 150Q509 150 515 143T520 123Q513 60 470 30T342 0H260Q167 0 124 43T80 179V292Q80 386 123 429T260 472H342Q435
472 478 429T522 292V242Q522 216 496 216H132ZM132 268H470V292Q470 364 442 392T342 420H260Q188 421 160 393T132 292V268ZM271 543T271 552Q271 560 277 569L363 671Q372 681 382 681Q391 681 398 674Q408 665 408 656Q408 648 402 639L316 537Q307 527 297
527Q288 527 281 534Q271 543 271 552Z" />
<glyph unicode="&#xea;" glyph-name="ecircumflex" horiz-adv-x="602" d="M132 216V179Q132 108 160 80T260 52H342Q406 52 434 68T468 125Q473 150 495 150Q509 150 515 143T520 123Q513 60 470 30T342 0H260Q167 0 124 43T80 179V292Q80 386 123 429T260 472H342Q435
472 478 429T522 292V242Q522 216 496 216H132ZM132 268H470V292Q470 364 442 392T342 420H260Q188 421 160 393T132 292V268ZM203 528T196 535T189 553Q189 561 194 568L271 665Q284 679 301 679H316Q334 679 345 665L422 568Q428 560 428 553Q428 543 421 536T403
528Q391 528 384 538L312 631H305L232 538Q225 528 213 528Q203 528 196 535Z" />
<glyph unicode="&#xeb;" glyph-name="edieresis" horiz-adv-x="602" d="M132 216V179Q132 108 160 80T260 52H342Q406 52 434 68T468 125Q473 150 495 150Q509 150 515 143T520 123Q513 60 470 30T342 0H260Q167 0 124 43T80 179V292Q80 386 123 429T260 472H342Q435
472 478 429T522 292V242Q522 216 496 216H132ZM132 268H470V292Q470 364 442 392T342 420H260Q188 421 160 393T132 292V268ZM210 557T203 564T195 586V605Q195 619 202 626T224 634H243Q271 634 271 605V586Q271 557 243 557H224Q210 557 203 564ZM359 557T352
564T344 586V605Q344 619 351 626T373 634H392Q420 634 420 605V586Q420 557 392 557H373Q359 557 352 564Z" />
<glyph unicode="&#xec;" glyph-name="igrave" horiz-adv-x="238" d="M107 0T100 6T93 26V446Q93 459 100 465T119 472Q145 472 145 446V26Q145 0 119 0Q107 0 100 6ZM144 523T135 523Q125 523 116 533L30 635Q24 644 24 652Q24 661 34 670Q41 677 50 677Q60 677
69 667L155 565Q161 556 161 548Q161 539 151 530Q144 523 135 523Z" />
<glyph unicode="&#xed;" glyph-name="iacute" horiz-adv-x="238" d="M107 0T100 6T93 26V446Q93 459 100 465T119 472Q145 472 145 446V26Q145 0 119 0Q107 0 100 6ZM83 543T83 552Q83 560 89 569L175 671Q184 681 194 681Q203 681 210 674Q220 665 220 656Q220
648 214 639L128 537Q119 527 109 527Q100 527 93 534Q83 543 83 552Z" />
<glyph unicode="&#xee;" glyph-name="icircumflex" horiz-adv-x="238" d="M107 0T100 6T93 26V446Q93 459 100 465T119 472Q145 472 145 446V26Q145 0 119 0Q107 0 100 6ZM15 528T8 535T1 553Q1 561 6 568L83 665Q96 679 113 679H128Q146 679 157 665L234 568Q240
560 240 553Q240 543 233 536T215 528Q203 528 196 538L124 631H117L44 538Q37 528 25 528Q15 528 8 535Z" />
<glyph unicode="&#xef;" glyph-name="idieresis" horiz-adv-x="238" d="M107 0T100 6T93 26V446Q93 459 100 465T119 472Q145 472 145 446V26Q145 0 119 0Q107 0 100 6ZM22 557T15 564T7 586V605Q7 619 14 626T36 634H55Q83 634 83 605V586Q83 557 55 557H36Q22
557 15 564ZM171 557T164 564T156 586V605Q156 619 163 626T185 634H204Q232 634 232 605V586Q232 557 204 557H185Q171 557 164 564Z" />
<glyph unicode="&#xf0;" glyph-name="eth" horiz-adv-x="602" d="M458 642T489 562T522 318V181Q522 87 479 44T342 1H260Q166 1 123 44T80 180V293Q80 387 123 430T260 473H342Q422 473 464 425Q457 513 436 555T377 608L289 630L220 566Q212 558 203 558Q194
558 185 567Q178 574 178 584Q178 594 186 602L231 644L145 666Q125 672 125 690Q125 695 126 698Q131 719 148 719Q150 719 158 717L277 687L338 744Q348 752 355 752Q364 752 373 743Q381 733 381 726Q381 717 372 708L334 672L389 658Q458 642 489 562ZM470
309Q470 370 439 395T342 421H260Q189 421 161 393T132 293V180Q132 109 160 81T260 53H342Q413 53 441 81T470 181V309Z" />
<glyph unicode="&#xf1;" glyph-name="ntilde" horiz-adv-x="609" d="M439 472T482 429T525 292V26Q525 0 499 0Q473 0 473 26V292Q473 364 445 392T345 420H317Q238 420 194 395T146 321Q146 316 145 314V26Q145 0 119 0Q93 0 93 26V446Q93 472 119 472Q145 472
145 446V398Q193 472 317 472H345Q439 472 482 429ZM367 553T351 563T318 590Q304 604 296 609T274 614Q257 614 248 605T229 572Q223 552 203 555Q193 556 188 562T182 577Q182 580 184 586Q198 626 219 644T274 662Q301 662 318 652T353 623Q366 610 373 606T392
601Q408 601 418 610T435 642Q442 662 461 659Q471 658 476 652T482 637Q482 632 481 629Q467 591 446 572T392 553Q367 553 351 563Z" />
<glyph unicode="&#xf2;" glyph-name="ograve" horiz-adv-x="602" d="M166 0T123 43T80 179V292Q80 387 123 430T260 472H342Q436 472 479 429T522 292V180Q522 86 479 43T342 0H260Q166 0 123 43ZM342 52Q413 52 441 80T470 180V292Q470 363 442 391T342 420H260Q189
421 161 393T132 292V179Q132 108 160 80T260 52H342ZM326 523T317 523Q307 523 298 533L212 635Q206 644 206 652Q206 661 216 670Q223 677 232 677Q242 677 251 667L337 565Q343 556 343 548Q343 539 333 530Q326 523 317 523Z" />
<glyph unicode="&#xf3;" glyph-name="oacute" horiz-adv-x="602" d="M166 0T123 43T80 179V292Q80 387 123 430T260 472H342Q436 472 479 429T522 292V180Q522 86 479 43T342 0H260Q166 0 123 43ZM342 52Q413 52 441 80T470 180V292Q470 363 442 391T342 420H260Q189
421 161 393T132 292V179Q132 108 160 80T260 52H342ZM265 543T265 552Q265 560 271 569L357 671Q366 681 376 681Q385 681 392 674Q402 665 402 656Q402 648 396 639L310 537Q301 527 291 527Q282 527 275 534Q265 543 265 552Z" />
<glyph unicode="&#xf4;" glyph-name="ocircumflex" horiz-adv-x="602" d="M166 0T123 43T80 179V292Q80 387 123 430T260 472H342Q436 472 479 429T522 292V180Q522 86 479 43T342 0H260Q166 0 123 43ZM342 52Q413 52 441 80T470 180V292Q470 363 442 391T342
420H260Q189 421 161 393T132 292V179Q132 108 160 80T260 52H342ZM197 528T190 535T183 553Q183 561 188 568L265 665Q278 679 295 679H310Q328 679 339 665L416 568Q422 560 422 553Q422 543 415 536T397 528Q385 528 378 538L306 631H299L226 538Q219 528 207
528Q197 528 190 535Z" />
<glyph unicode="&#xf5;" glyph-name="otilde" horiz-adv-x="602" d="M166 0T123 43T80 179V292Q80 387 123 430T260 472H342Q436 472 479 429T522 292V180Q522 86 479 43T342 0H260Q166 0 123 43ZM342 52Q413 52 441 80T470 180V292Q470 363 442 391T342 420H260Q189
421 161 393T132 292V179Q132 108 160 80T260 52H342ZM338 553T322 563T289 590Q275 604 267 609T245 614Q228 614 219 605T200 572Q194 552 174 555Q164 556 159 562T153 577Q153 580 155 586Q169 626 190 644T245 662Q272 662 289 652T324 623Q337 610 344 606T363
601Q379 601 389 610T406 642Q413 662 432 659Q442 658 447 652T453 637Q453 632 452 629Q438 591 417 572T363 553Q338 553 322 563Z" />
<glyph unicode="&#xf6;" glyph-name="odieresis" horiz-adv-x="602" d="M166 0T123 43T80 179V292Q80 387 123 430T260 472H342Q436 472 479 429T522 292V180Q522 86 479 43T342 0H260Q166 0 123 43ZM342 52Q413 52 441 80T470 180V292Q470 363 442 391T342 420H260Q189
421 161 393T132 292V179Q132 108 160 80T260 52H342ZM204 557T197 564T189 586V605Q189 619 196 626T218 634H237Q265 634 265 605V586Q265 557 237 557H218Q204 557 197 564ZM353 557T346 564T338 586V605Q338 619 345 626T367 634H386Q414 634 414 605V586Q414
557 386 557H367Q353 557 346 564Z" />
<glyph unicode="&#xf7;" glyph-name="divide" horiz-adv-x="560" d="M73 340T73 364Q73 388 98 388H463Q487 388 487 364Q487 340 463 340H98Q73 340 73 364ZM256 163T249 170T241 192V211Q241 225 248 232T270 240H289Q317 240 317 211V192Q317 163 289 163H270Q256
163 249 170ZM256 493T249 500T241 522V541Q241 555 248 562T270 570H289Q317 570 317 541V522Q317 493 289 493H270Q256 493 249 500Z" />
<glyph unicode="&#xf8;" glyph-name="oslash" horiz-adv-x="602" d="M491 424T506 387T522 292V180Q522 86 479 43T342 0H260Q222 0 188 8L151 -54Q144 -66 132 -66Q126 -66 120 -63Q104 -57 104 -43Q104 -35 109 -27L143 27Q80 68 80 179V292Q80 387 123 430T260
472H342Q385 472 412 464L441 512Q449 524 460 524Q465 524 471 521Q488 515 488 501Q488 493 483 485L458 445Q491 424 506 387ZM132 179Q132 137 141 111T172 71L384 417Q366 420 342 420H260Q189 421 161 393T132 292V179ZM470 292Q470 335 461 361T430 401L217
55Q237 52 260 52H342Q413 52 441 80T470 180V292Z" />
<glyph unicode="&#xf9;" glyph-name="ugrave" horiz-adv-x="609" d="M516 472T516 446V26Q516 0 490 0Q464 0 464 26V74Q416 0 292 0H264Q170 0 127 43T84 180V446Q84 472 110 472Q136 472 136 446V180Q136 108 164 80T264 52H292Q371 52 415 77T463 151Q463 156
464 158V446Q464 472 490 472Q516 472 516 446ZM321 523T312 523Q302 523 293 533L207 635Q201 644 201 652Q201 661 211 670Q218 677 227 677Q237 677 246 667L332 565Q338 556 338 548Q338 539 328 530Q321 523 312 523Z" />
<glyph unicode="&#xfa;" glyph-name="uacute" horiz-adv-x="609" d="M516 472T516 446V26Q516 0 490 0Q464 0 464 26V74Q416 0 292 0H264Q170 0 127 43T84 180V446Q84 472 110 472Q136 472 136 446V180Q136 108 164 80T264 52H292Q371 52 415 77T463 151Q463 156
464 158V446Q464 472 490 472Q516 472 516 446ZM260 543T260 552Q260 560 266 569L352 671Q361 681 371 681Q380 681 387 674Q397 665 397 656Q397 648 391 639L305 537Q296 527 286 527Q277 527 270 534Q260 543 260 552Z" />
<glyph unicode="&#xfb;" glyph-name="ucircumflex" horiz-adv-x="609" d="M516 472T516 446V26Q516 0 490 0Q464 0 464 26V74Q416 0 292 0H264Q170 0 127 43T84 180V446Q84 472 110 472Q136 472 136 446V180Q136 108 164 80T264 52H292Q371 52 415 77T463 151Q463
156 464 158V446Q464 472 490 472Q516 472 516 446ZM192 528T185 535T178 553Q178 561 183 568L260 665Q273 679 290 679H305Q323 679 334 665L411 568Q417 560 417 553Q417 543 410 536T392 528Q380 528 373 538L301 631H294L221 538Q214 528 202 528Q192 528
185 535Z" />
<glyph unicode="&#xfc;" glyph-name="udieresis" horiz-adv-x="609" d="M516 472T516 446V26Q516 0 490 0Q464 0 464 26V74Q416 0 292 0H264Q170 0 127 43T84 180V446Q84 472 110 472Q136 472 136 446V180Q136 108 164 80T264 52H292Q371 52 415 77T463 151Q463
156 464 158V446Q464 472 490 472Q516 472 516 446ZM199 557T192 564T184 586V605Q184 619 191 626T213 634H232Q260 634 260 605V586Q260 557 232 557H213Q199 557 192 564ZM348 557T341 564T333 586V605Q333 619 340 626T362 634H381Q409 634 409 605V586Q409
557 381 557H362Q348 557 341 564Z" />
<glyph unicode="&#xfd;" glyph-name="yacute" horiz-adv-x="606" d="M146 -200T115 -169T84 -71Q84 -45 110 -45Q136 -45 136 -71Q136 -116 152 -132T212 -148H385Q429 -148 445 -132T461 -71V67Q433 31 391 15T289 -1H261Q169 -1 127 41T84 175V447Q84 473 110
473Q136 473 136 447V175Q136 105 163 78T261 51H289Q376 51 418 82T461 175V447Q461 473 487 473Q513 473 513 447V-71Q513 -138 482 -169T385 -200H212Q146 -200 115 -169ZM262 543T262 552Q262 560 268 569L354 671Q363 681 373 681Q382 681 389 674Q399 665
399 656Q399 648 393 639L307 537Q298 527 288 527Q279 527 272 534Q262 543 262 552Z" />
<glyph unicode="&#xfe;" glyph-name="thorn" horiz-adv-x="615" d="M93 -200T93 -174V628Q93 654 119 654Q145 654 145 628V398Q202 472 317 472H355Q449 472 492 429T535 292V181Q535 87 492 44T355 1H145V-174Q145 -200 119 -200Q93 -200 93 -174ZM355 53Q427
53 455 81T483 181V292Q483 363 455 391T355 420H317Q230 420 188 389T145 296V53H355Z" />
<glyph unicode="&#xff;" glyph-name="ydieresis" horiz-adv-x="606" d="M146 -200T115 -169T84 -71Q84 -45 110 -45Q136 -45 136 -71Q136 -116 152 -132T212 -148H385Q429 -148 445 -132T461 -71V67Q433 31 391 15T289 -1H261Q169 -1 127 41T84 175V447Q84 473
110 473Q136 473 136 447V175Q136 105 163 78T261 51H289Q376 51 418 82T461 175V447Q461 473 487 473Q513 473 513 447V-71Q513 -138 482 -169T385 -200H212Q146 -200 115 -169ZM201 557T194 564T186 586V605Q186 619 193 626T215 634H234Q262 634 262 605V586Q262
557 234 557H215Q201 557 194 564ZM350 557T343 564T335 586V605Q335 619 342 626T364 634H383Q411 634 411 605V586Q411 557 383 557H364Q350 557 343 564Z" />
<glyph unicode="&#x2013;" glyph-name="endash" horiz-adv-x="560" d="M73 247T73 271Q73 295 98 295H463Q487 295 487 271Q487 247 463 247H98Q73 247 73 271Z" />
<glyph unicode="&#x2014;" glyph-name="emdash" horiz-adv-x="815" d="M88 245T81 252T73 270Q73 280 80 287T98 294H717Q727 294 734 287T742 270Q742 260 735 253T717 245H98Q88 245 81 252Z" />
<glyph unicode="&#x2018;" glyph-name="quoteleft" horiz-adv-x="224" d="M134 685T140 679T146 663Q146 656 143 648L112 581Q126 575 126 555V536Q126 522 119 515T97 507H78Q50 507 50 536V555Q50 568 56 575L99 668Q106 685 122 685Q134 685 140 679Z" />
<glyph unicode="&#x2019;" glyph-name="quoteright" horiz-adv-x="202" d="M129 634Q129 622 123 614L80 521Q73 504 57 504Q45 504 39 510T33 526Q33 534 36 541L67 608Q53 614 53 634V653Q53 667 60 674T82 682H101Q129 682 129 653V634Z" />
<glyph unicode="&#x201a;" glyph-name="quotesinglbase" horiz-adv-x="202" d="M129 28Q129 16 123 8L80 -85Q73 -102 57 -102Q45 -102 39 -96T33 -80Q33 -73 36 -65L67 2Q53 8 53 28V47Q53 61 60 68T82 76H101Q129 76 129 47V28Z" />
<glyph unicode="&#x201c;" glyph-name="quotedblleft" horiz-adv-x="364" d="M274 685T280 679T286 663Q286 656 283 648L252 581Q266 575 266 555V536Q266 522 259 515T237 507H218Q190 507 190 536V555Q190 568 196 575L239 668Q246 685 262 685Q274 685 280
679ZM134 685T140 679T146 663Q146 656 143 648L112 581Q126 575 126 555V536Q126 522 119 515T97 507H78Q50 507 50 536V555Q50 568 56 575L99 668Q106 685 122 685Q134 685 140 679Z" />
<glyph unicode="&#x201d;" glyph-name="quotedblright" horiz-adv-x="352" d="M279 634Q279 622 273 614L230 521Q223 504 207 504Q195 504 189 510T183 526Q183 533 186 541L217 608Q203 614 203 634V653Q203 667 210 674T232 682H251Q279 682 279 653V634ZM129
634Q129 622 123 614L80 521Q73 504 57 504Q45 504 39 510T33 526Q33 533 36 541L67 608Q53 614 53 634V653Q53 667 60 674T82 682H101Q129 682 129 653V634Z" />
<glyph unicode="&#x201e;" glyph-name="quotedblbase" horiz-adv-x="352" d="M279 28Q279 16 273 8L230 -85Q223 -102 207 -102Q195 -102 189 -96T183 -80Q183 -73 186 -65L217 2Q203 8 203 28V47Q203 61 210 68T232 76H251Q279 76 279 47V28ZM129 28Q129 16 123
8L80 -85Q73 -102 57 -102Q45 -102 39 -96T33 -80Q33 -73 36 -65L67 2Q53 8 53 28V47Q53 61 60 68T82 76H101Q129 76 129 47V28Z" />
<glyph unicode="&#x2022;" glyph-name="bullet" horiz-adv-x="298" d="M104 182T89 197T73 240V278Q73 306 88 321T131 336H169Q196 336 210 321T225 278V240Q225 212 211 197T169 182H131Q104 182 89 197Z" />
<glyph unicode="&#x2039;" glyph-name="guilsinglleft" horiz-adv-x="403" d="M287 118T280 123L94 277Q84 285 84 294Q84 303 94 311L280 465Q287 470 296 470Q306 470 313 463T320 446Q320 436 311 427L149 294L311 161Q320 152 320 142Q320 132 313 125T296
118Q287 118 280 123Z" />
<glyph unicode="&#x203a;" glyph-name="guilsinglright" horiz-adv-x="403" d="M97 118T90 125T83 142Q83 152 92 161L254 294L92 427Q83 436 83 446Q83 456 90 463T107 470Q116 470 123 465L309 311Q319 304 319 294Q319 284 309 277L123 123Q116 118 107 118Q97
118 90 125Z" />
</font>
</defs>
</svg>
