<?xml version="1.0" standalone="no"?>
<!DOCTYPE svg PUBLIC "-//W3C//DTD SVG 1.1//EN" "http://www.w3.org/Graphics/SVG/1.1/DTD/svg11.dtd">
<svg xmlns="http://www.w3.org/2000/svg">
<defs >
<font id="LifeSavers" horiz-adv-x="435" ><font-face
    font-family="Life Savers"
    units-per-em="1000"
    panose-1="3 5 6 2 4 3 2 0 0 4"
    ascent="972"
    descent="-250"
    alphabetic="0" />
<glyph unicode=" " glyph-name="space" horiz-adv-x="218" />
<glyph unicode="!" glyph-name="exclam" horiz-adv-x="247" d="M96 127Q94 134 92 177T89 282T88 420T87 566T86 699T86 795Q86 821 96 828T120 836Q124 836 130 836T142 831T152 819T156 795V172Q156 137 151 119T125 101Q114 101 107 105T96 127ZM69 7Q69 16
72 25T82 43T100 56T128 62Q158 62 172 45T186 9Q186 -12 171 -29T126 -46Q95 -46 82 -29T69 7Z" />
<glyph unicode="&quot;" glyph-name="quotedbl" horiz-adv-x="281" d="M76 855Q90 855 98 849T109 834T113 815T114 798Q114 796 114 784T111 755T107 719T100 684T90 658T77 647Q64 647 57 665T45 708T40 754T39 783Q39 788 39 800T43 824T54 845T76 855ZM205
855Q219 855 227 849T238 834T242 815T243 798Q243 796 243 784T240 755T236 719T229 684T219 658T206 647Q193 647 186 665T174 708T169 754T168 783Q168 788 168 800T172 824T183 845T205 855Z" />
<glyph unicode="#" glyph-name="numbersign" horiz-adv-x="725" d="M52 227Q48 227 39 234T30 256Q30 264 38 277T57 290H186L240 416H110Q103 416 93 425T82 448Q82 459 90 469T106 479Q110 479 125 479T163 479T212 478T266 477L320 602Q329 620 335 632T347
653T362 666T386 670Q394 670 399 664T405 650Q405 648 400 634T386 596T364 543T336 477H379Q395 477 425 477T492 478L546 602Q555 620 561 632T573 653T588 666T612 670Q620 670 625 664T631 650Q631 648 626 634T612 597T591 544T563 479Q602 479 632 479T674
480Q678 480 687 471T697 451Q697 443 689 430T670 417H537L483 291H616Q623 291 633 280T644 259Q644 248 636 238T619 228Q614 228 598 228T559 228T509 229T457 229Q428 161 408 110T382 42Q377 31 370 22T339 12Q329 12 321 17T311 37Q311 40 316 56T332 99T357
158T387 230H367Q349 230 312 230T231 229Q202 161 182 110T156 42Q151 31 144 22T113 12Q103 12 95 17T85 37Q85 40 90 56T106 98T130 157T160 228Q121 227 91 227T52 227ZM310 416Q297 384 284 353T257 290Q295 290 334 290T412 291L466 416H310Z" />
<glyph unicode="$" glyph-name="dollar" horiz-adv-x="619" d="M342 786Q402 778 445 739T516 622Q512 685 510 715T508 747Q508 759 514 770T542 782Q554 782 561 778T571 769T576 758T577 749Q577 714 575 677T573 603Q573 571 574 543T575 483Q575 469 566
459T539 449Q519 449 512 467T505 508Q502 551 487 588T449 654T398 701T342 726Q341 631 341 532T340 342Q376 327 414 308T484 264T535 209T555 142Q555 102 535 73T484 25T415 -4T341 -17Q341 -25 341 -33T342 -49Q342 -65 333 -70T307 -76Q293 -76 283 -70T272
-52V-17Q223 -12 178 10T109 82Q109 61 110 44L112 6Q112 -6 104 -17T78 -29Q61 -29 52 -16T43 4Q43 10 43 22T45 49T46 79T47 105Q47 121 47 132T46 153T46 175T45 202Q45 216 51 231T79 246Q92 246 99 240T110 223T115 200T116 177Q116 154 126 132T156 91T205
59T272 42Q272 106 272 168T273 296L242 311Q210 326 177 344T116 391T71 463T53 571Q53 621 71 659T121 723T191 765T272 786V819Q272 829 276 835T286 844T298 849T308 851Q327 851 334 835T342 803V786ZM124 562Q124 517 135 487T164 436T206 402T254 378Q258
376 263 374T273 370Q273 454 273 544T272 724Q208 713 166 672T124 562ZM484 142Q484 163 472 180T440 213T394 242T340 268V43Q370 46 396 55T441 76T472 105T484 142Z" />
<glyph unicode="%" glyph-name="percent" horiz-adv-x="633" d="M29 513Q29 548 40 575T68 622T107 652T151 662Q179 662 197 656T228 639T254 617T284 595T325 578T386 571Q400 571 415 573T442 584Q454 593 464 606T483 633T501 656T521 666Q538 666 542 660T547
650Q547 647 535 622T502 558T455 468T400 365T343 259T292 162T253 86T232 42Q227 34 219 26T193 17Q179 17 172 23T165 37Q165 41 176 63T205 120T245 198T292 285T339 372T380 448T409 501T420 523Q409 521 402 521T384 520Q351 520 326 523T275 537Q275 535
275 532T276 526Q276 492 266 464T238 415T198 384T149 372Q128 372 107 381T68 407T40 451T29 513ZM347 122Q347 154 356 180T383 226T422 255T472 266Q503 266 525 255T561 225T582 180T589 125Q589 59 557 20T467 -19Q438 -19 416 -7T378 25T355 70T347 122ZM403
124Q403 113 405 98T414 70T433 47T465 37Q483 37 495 45T515 67T526 96T530 128Q530 174 511 192T470 210Q442 210 423 189T403 124ZM85 513Q85 478 101 453T146 428Q178 428 199 452T220 521Q220 567 198 586T152 606Q142 606 131 602T109 586T92 557T85 513Z"
/>
<glyph unicode="&amp;" glyph-name="ampersand" horiz-adv-x="738" d="M446 349Q420 349 413 364T405 392Q405 418 423 438T481 459Q497 459 513 454T541 436T562 401T570 342Q570 282 551 232T508 140Q543 92 564 67T599 37Q604 35 609 35T624 34T648 33T687
33Q725 32 744 29T763 8Q763 -1 757 -6T732 -14T679 -18T588 -19Q575 -19 562 -10T533 15T502 49T469 90Q423 41 373 16T259 -9Q223 -9 183 0T110 31T54 91T31 186Q31 239 50 283T96 364T154 426T206 469Q178 523 158 575T138 676Q138 714 152 744T189 795T244
827T310 838Q333 838 356 833T398 813T428 774T440 714Q440 673 426 636T389 568T340 509T292 460Q308 425 330 390T376 319T425 250T471 186Q489 219 501 256T513 336Q513 377 505 389T489 402Q480 402 480 394T478 376T470 358T446 349ZM237 414Q208 387 184
362T142 310T116 256T106 193Q106 146 122 119T162 76T212 57T260 52Q293 52 319 59T365 79T400 105T425 131Q401 160 379 189T335 253T289 326T237 414ZM366 704Q366 731 353 754T300 777Q258 777 236 750T213 674Q213 639 225 601T256 521Q270 537 289 556T325
598T354 647T366 704Z" />
<glyph unicode="&apos;" glyph-name="quotesingle" horiz-adv-x="152" d="M76 855Q90 855 98 849T109 834T113 815T114 798Q114 796 114 784T111 755T107 719T100 684T90 658T77 647Q64 647 57 665T45 708T40 754T39 783Q39 788 39 800T43 824T54 845T76 855Z" />
<glyph unicode="(" glyph-name="parenleft" horiz-adv-x="267" d="M147 6Q141 16 124 49T89 135T56 257T42 409Q42 491 63 566T110 699Q140 767 178 825Q178 825 180 828T186 836T198 844T214 848Q232 848 238 838T244 819Q244 799 224 767T181 685T137 569T117
411Q117 319 133 250T168 132T204 51T220 0Q220 -10 214 -19T191 -29Q174 -29 164 -17T147 6Z" />
<glyph unicode=")" glyph-name="parenright" horiz-adv-x="267" d="M120 813Q126 803 143 770T178 684T211 562T225 410Q225 328 204 253T157 120Q127 52 89 -6Q89 -6 87 -9T81 -17T69 -25T53 -29Q35 -29 29 -19T23 0Q23 20 43 52T86 134T130 250T150 408Q150
500 134 569T99 687T63 768T47 819Q47 829 53 838T76 848Q93 848 103 836T120 813Z" />
<glyph unicode="*" glyph-name="asterisk" horiz-adv-x="364" d="M248 828Q263 828 268 819T274 800Q274 792 265 780T246 755T226 733T217 718Q224 719 235 720T260 721T285 722T307 723Q318 723 325 715T333 695Q333 683 325 677T308 671Q297 671 283 671T254
672T229 674T215 675Q216 673 227 665T252 645T276 620T287 593Q287 580 279 575T261 570Q253 570 241 582T216 611T194 641T181 658Q179 655 172 641T154 611T133 583T112 570Q84 570 84 595Q84 604 91 615T108 637T130 658T150 675Q127 673 107 672T67 671Q56
671 44 675T31 695Q31 705 40 713T67 722Q88 722 106 722T150 718Q118 753 101 770T84 800Q84 817 91 822T110 828Q118 828 125 822T140 803T158 773T182 734Q191 750 199 766T216 796T232 819T248 828Z" />
<glyph unicode="+" glyph-name="plus" horiz-adv-x="380" d="M157 541Q157 552 166 561T189 570Q206 570 215 561T224 541Q224 524 224 497T223 440Q256 440 282 442T329 445Q336 445 343 438T350 413Q350 396 341 388T321 379H223V276Q223 269 215 260T188 250Q171
250 163 259T155 276Q155 292 156 322T158 379Q126 378 98 377T56 376Q49 376 40 383T30 408Q30 425 39 432T56 440H160Q160 473 159 498T157 541Z" />
<glyph unicode="," glyph-name="comma" horiz-adv-x="202" d="M46 36Q46 54 58 69T98 85Q118 85 136 69T155 13Q155 -10 148 -29T131 -61T109 -83T90 -91Q85 -91 77 -88T69 -72Q69 -63 75 -51T82 -12Q82 -6 77 -2T64 6T52 17T46 36Z" />
<glyph unicode="-" glyph-name="hyphen" horiz-adv-x="393" d="M314 300Q322 300 328 292T335 272Q335 264 329 252T306 239Q286 239 256 239T193 239T132 238T85 238Q74 238 67 248T59 269Q59 280 65 289T85 299Q92 299 104 299T130 298T158 298T186 297Q228
297 259 298T314 300Z" />
<glyph unicode="." glyph-name="period" horiz-adv-x="209" d="M46 34Q46 43 49 52T59 70T77 83T105 89Q135 89 149 72T163 36Q163 15 148 -2T103 -19Q72 -19 59 -2T46 34Z" />
<glyph unicode="/" glyph-name="slash" horiz-adv-x="530" d="M23 18Q57 86 79 129T115 200T137 242T151 267T163 286T178 310T202 352T241 423Q272 480 292 516T325 578T346 620T364 658T387 704T421 774Q436 805 448 818T485 831Q503 831 506 822T510 807Q510
799 505 787T496 768L91 5Q86 -6 75 -12T49 -19Q40 -19 31 -11T21 9Q21 15 23 18Z" />
<glyph unicode="0" glyph-name="zero" horiz-adv-x="593" d="M115 384Q115 329 122 269T149 158T202 75T288 42Q319 42 352 61T414 124T459 235T477 402Q477 436 475 477T466 559T447 640T416 709T368 757T301 776Q253 776 218 741T160 649T126 523T115 384ZM40
365Q40 444 53 528T96 681T177 794T303 838Q355 838 394 818T460 765T506 687T534 593T548 494T552 399Q552 279 526 199T460 70T373 1T282 -20Q240 -20 197 -1T119 62T62 181T40 365Z" />
<glyph unicode="1" glyph-name="one" horiz-adv-x="346" d="M215 51H281Q292 51 303 46T315 23Q315 12 308 6T290 0H73Q53 0 38 4T22 23Q22 38 32 43T61 48Q70 48 83 49T108 54T129 68T140 94Q143 132 144 164T147 236T149 327T152 457Q153 517 153 558T154 630T155
685T157 735Q157 739 157 745T154 756T148 765T134 769Q130 769 121 769T100 769T78 768T61 768Q47 768 35 772T22 791Q22 807 34 812T59 818Q66 818 88 818T135 819T181 820T210 821Q224 821 227 813T230 792L215 51Z" />
<glyph unicode="2" glyph-name="two" horiz-adv-x="554" d="M470 124Q475 132 482 139T503 147Q514 147 523 143T533 126Q533 116 519 93T477 22Q470 10 461 5T446 0Q411 0 380 0T319 1T258 2T193 3H84Q80 -2 68 -6T42 -11Q26 -11 20 -3T13 14Q13 22 19 27T34
40Q69 66 111 106T195 195T277 299T347 411T396 523T415 628Q415 651 408 676T384 722T340 756T273 770Q235 770 205 755T154 719T122 680T110 652Q110 645 113 640T121 629T129 618T133 602Q133 581 118 568T77 555Q61 555 52 563T38 581T32 602T31 616Q31 640
47 676T96 747T175 806T283 831Q340 831 379 815T443 771T479 706T490 626Q490 576 473 523T427 417T362 313T287 217T212 134T146 68Q177 66 220 66T305 64T378 63T417 63Q424 63 429 67T443 83L470 124Z" />
<glyph unicode="3" glyph-name="three" horiz-adv-x="532" d="M108 421Q124 433 152 449T214 485T282 527T344 575T390 629T408 688Q408 709 399 725T376 752T342 768T301 774Q274 774 248 766T199 741T157 700T128 642Q125 634 122 624T112 606T98 592T77 586Q66
586 60 590T52 599T49 609T48 615Q48 641 63 678T109 751T190 811T307 836Q325 836 354 833T412 817T462 779T483 709Q483 669 465 634T419 568T357 514T292 471T236 441T200 425Q202 425 210 427T232 431T262 435T297 437Q337 437 373 425T436 391T479 338T495
267Q495 215 468 164T394 73T287 7T160 -18Q132 -18 107 -13T61 1T29 25T17 57Q17 71 23 80T44 89Q58 89 63 79T82 58Q101 44 121 41T154 38Q193 38 239 54T326 98T393 166T420 252Q420 286 406 311T368 352T315 376T256 384Q228 384 206 379T165 366T133 354T110
348Q99 348 91 356T82 379Q82 397 92 407T108 421Z" />
<glyph unicode="4" glyph-name="four" horiz-adv-x="569" d="M437 244Q435 223 434 195T431 140T428 92T427 65Q427 53 441 51T468 49Q490 49 501 44T512 25Q512 11 500 6T468 0H223Q214 0 202 4T190 24Q190 37 200 41T220 45Q230 45 244 46T271 48T295 50T310
51Q332 53 345 61T359 89L368 244Q215 241 134 238T30 234Q13 234 1 242T-12 264Q-12 270 -10 276T-2 291Q46 355 82 405T149 496T206 573T258 643T314 715T379 798Q382 803 396 814T427 826Q445 826 457 821T469 804Q469 802 467 775T462 705T455 609T448 502T442
398T440 310L504 306Q520 305 530 297T540 273Q540 256 530 250T511 244H437ZM101 298Q105 298 134 299T203 301T289 305T370 310L398 727L99 326Q99 323 94 318T88 306Q88 303 89 301T101 298Z" />
<glyph unicode="5" glyph-name="five" horiz-adv-x="542" d="M418 812Q440 812 455 806T471 779Q471 757 455 750T423 743Q405 743 367 743T288 740T211 734T159 724L126 463Q132 465 149 469T189 479T238 488T287 492Q352 492 397 471T469 418T509 346T522 269Q522
220 503 170T443 80T342 14T198 -12Q181 -12 153 -10T97 3T50 37T30 104Q30 123 36 140T52 170T76 190T105 198Q125 198 138 188T151 156Q151 136 142 130T122 120T102 114T93 96Q93 85 102 77T125 63T157 54T194 51Q260 51 308 70T387 122T432 193T447 274Q447
300 440 327T413 375T361 410T277 424Q248 424 220 419T166 409T122 398T92 393Q71 393 64 412T56 460Q56 466 57 479T60 505Q66 547 69 576T76 633T81 694T87 775Q89 791 106 794Q132 798 176 801T267 807T355 811T418 812Z" />
<glyph unicode="6" glyph-name="six" horiz-adv-x="529" d="M370 784Q347 766 320 740T263 677T204 592T148 481Q121 417 107 373T92 285Q92 266 94 261Q100 295 117 324T161 374T226 408T311 420Q375 420 415 398T479 344T511 274T520 207Q520 172 509 133T472
60T400 4T286 -18Q236 -18 191 -4T110 42T55 125T34 251Q34 312 48 374T85 495T139 607T201 703T264 776T320 822Q328 827 337 830T356 834Q370 834 376 826T383 807Q383 799 380 794T370 784ZM282 43Q316 43 345 54T397 87T432 138T445 204Q445 234 437 261T410
310T364 343T295 356Q264 356 234 346T180 314T142 260T127 183Q127 147 141 121T179 77T229 51T282 43Z" />
<glyph unicode="7" glyph-name="seven" horiz-adv-x="467" d="M7 18Q98 190 169 323T289 549T364 690T390 743Q390 756 376 756Q296 756 222 753T61 749Q49 749 43 757T36 780Q36 799 49 804T85 809Q96 809 122 810T183 812T256 814T328 817T390 819T429 820Q455
820 471 816T487 790Q487 785 484 777T478 761T470 747T465 737L75 5Q68 -9 61 -15T36 -22Q24 -22 13 -16T2 -2Q2 5 3 9T7 18Z" />
<glyph unicode="8" glyph-name="eight" horiz-adv-x="561" d="M37 191Q37 241 53 279T92 345T143 390T191 416Q168 426 145 444T102 487T71 544T59 615Q59 657 74 696T119 766T190 814T286 832Q341 832 383 813T453 764T495 697T509 622Q509 580 493 545T454 483T404
439T356 416Q384 410 413 392T467 347T506 283T522 204Q522 159 504 119T453 47T373 -2T269 -20Q222 -20 180 -7T106 32T56 98T37 191ZM112 203Q112 170 122 141T153 90T203 54T272 41Q306 41 337 52T393 84T431 136T445 206Q445 247 430 279T391 332T338 365T279
377Q249 377 219 365T165 331T127 276T112 203ZM134 610Q134 571 148 542T183 493T231 464T283 454Q312 454 339 466T388 501T421 554T434 621Q434 649 426 676T399 724T353 758T286 771Q244 771 215 756T168 718T142 666T134 610Z" />
<glyph unicode="9" glyph-name="nine" horiz-adv-x="541" d="M223 -8Q211 -18 200 -23T175 -28Q167 -28 156 -23T145 -3Q145 8 151 14T168 28Q215 59 256 106T332 209T390 324T425 437Q406 412 382 394T332 363T279 345T226 339Q182 339 143 356T75 405T29 482T11
581Q11 623 25 667T70 748T149 807T267 830Q341 830 388 806T461 745T498 667T508 591Q508 541 500 490T477 390T445 297T408 217Q360 129 311 76T223 -8ZM276 769Q238 769 204 758T143 724T102 664T86 576Q86 540 98 509T131 455T182 419T247 406Q296 406 331
426T389 475T423 536T434 595Q434 623 425 654T397 710T348 752T276 769Z" />
<glyph unicode=":" glyph-name="colon" horiz-adv-x="233" d="M58 35Q58 44 61 53T71 71T89 84T117 90Q147 90 161 73T175 37Q175 16 160 -1T115 -18Q84 -18 71 -1T58 35ZM58 338Q58 347 61 356T71 374T89 387T117 393Q147 393 161 376T175 340Q175 319 160 302T115
285Q84 285 71 302T58 338Z" />
<glyph unicode=";" glyph-name="semicolon" horiz-adv-x="228" d="M60 36Q60 54 72 69T112 85Q132 85 150 69T169 13Q169 -10 162 -29T145 -61T123 -83T104 -91Q99 -91 91 -88T83 -72Q83 -63 89 -51T96 -12Q96 -6 91 -2T78 6T66 17T60 36ZM55 338Q55 347 58 356T68
374T86 387T114 393Q144 393 158 376T172 340Q172 319 157 302T112 285Q81 285 68 302T55 338Z" />
<glyph unicode="&lt;" glyph-name="less" horiz-adv-x="285" d="M236 496Q236 490 224 479T196 451T161 417T131 378Q143 358 161 340T195 306T224 279T236 261Q236 252 225 252Q214 252 184 268T121 305T63 347T38 378Q38 385 50 397T80 424T120 452T163 478T201
497T225 505Q236 505 236 496Z" />
<glyph unicode="=" glyph-name="equal" horiz-adv-x="385" d="M310 316Q318 316 324 308T331 288Q331 280 325 268T302 255Q282 255 252 255T189 255T128 254T81 254Q70 254 63 264T55 285Q55 296 61 305T81 315Q88 315 100 315T126 314T154 314T182 313Q224 313
255 314T310 316ZM310 484Q318 484 324 476T331 456Q331 448 325 436T302 423Q282 423 252 423T189 423T128 422T81 422Q70 422 63 432T55 453Q55 464 61 473T81 483Q88 483 100 483T126 482T154 482T182 481Q224 481 255 482T310 484Z" />
<glyph unicode="&gt;" glyph-name="greater" horiz-adv-x="285" d="M49 496Q49 505 60 505Q67 505 84 498T121 479T164 453T205 424T235 398T247 378Q247 368 222 347T165 305T102 268T60 252Q49 252 49 261Q49 267 61 278T89 305T124 339T154 378Q142 398 124
416T90 451T61 478T49 496Z" />
<glyph unicode="?" glyph-name="question" horiz-adv-x="578" d="M193 503Q193 487 176 472T132 456Q105 456 86 468T55 501T38 548T32 603Q32 660 51 702T105 773T183 816T279 831Q320 831 367 820T456 782T524 708T551 592Q551 540 533 496T489 418T431 357T375
315Q347 297 320 282T271 251T236 216T222 174Q222 155 227 135T233 97Q233 82 225 73T200 64Q182 64 174 74T164 96Q162 107 161 123T160 152Q160 201 180 233T232 290T299 334T368 380Q386 394 405 414T440 462T466 522T476 594Q476 640 459 673T413 728T348
760T275 770Q236 770 203 756T146 717T109 660T96 593Q96 553 106 533T131 513Q137 513 140 516T145 524T152 532T164 536Q180 536 186 523T193 503ZM148 -36Q148 -27 151 -18T161 0T179 13T207 19Q237 19 251 2T265 -34Q265 -55 250 -72T205 -89Q174 -89 161 -72T148
-36Z" />
<glyph unicode="@" glyph-name="at" horiz-adv-x="688" d="M584 236Q584 285 570 329T526 406T451 458T346 477Q293 477 249 459T174 407T126 328T109 227Q109 171 125 126T171 47T240 -4T325 -22Q346 -22 355 -30T364 -55Q364 -71 353 -77T324 -84Q268 -84 217
-62T128 2T66 101T43 227Q43 295 65 352T128 452T225 517T347 541Q419 541 475 517T569 451T627 354T647 237Q647 187 635 152T603 95T555 64T499 54Q465 54 450 68T428 97Q412 77 387 63T324 49Q290 49 262 62T214 97T182 150T171 215Q171 254 183 287T218 345T271
384T338 399Q359 399 383 392T424 360Q423 368 423 373T422 384Q422 396 432 403T455 411Q470 411 478 402T487 382Q487 343 486 309T484 237Q484 217 485 197T486 156Q486 130 494 123T520 115Q530 115 541 121T561 142T577 179T584 236ZM422 243Q422 287 401
313T336 339Q298 339 271 306T243 216Q243 164 266 137T329 109Q356 109 374 119T402 145T417 176T422 205V243Z" />
<glyph unicode="A" glyph-name="A" horiz-adv-x="698" d="M600 23Q606 0 635 -4T713 -9Q727 -9 740 -13T754 -31Q754 -45 745 -50T719 -55H486Q468 -55 462 -51T455 -39Q455 -28 466 -26T490 -21T515 -11T526 15Q526 20 523 35T514 71T503 115T491 160T480 198T473
223H225Q218 203 211 180T197 134T186 93T182 65Q182 59 189 56T208 51T233 49T258 49Q268 49 277 44T287 24Q287 15 280 8T253 0H-14Q-23 0 -30 6T-37 24Q-37 34 -30 39T-12 45Q-5 45 6 46T28 48T47 50T59 51Q80 53 91 62T108 89Q123 131 141 192T179 323T219
466T258 606T291 728T317 816Q319 824 327 830T353 837Q382 837 388 816L600 23ZM356 715Q351 696 343 665T325 596T304 516T282 433T261 355T244 289Q275 288 303 288T363 288Q386 288 410 288T458 289Q446 335 433 388T407 497T380 608T356 715Z" />
<glyph unicode="B" glyph-name="B" horiz-adv-x="689" d="M67 48Q77 48 89 48T113 51T131 58T139 72Q139 140 139 206T140 313Q140 364 139 426T137 548T134 657T132 733Q131 760 116 764T67 769Q41 769 41 794Q41 805 48 811T67 818Q104 818 149 818T236 819T308
820T348 821Q401 821 449 808T534 768T593 703T615 612Q615 542 576 491T469 421Q555 405 606 352T657 220Q657 159 627 117T545 49T428 12T289 0H89Q64 0 51 5T38 25Q38 39 46 43T67 48ZM289 380Q270 380 259 380T241 379T227 378T210 377V62Q251 62 294 63T379
70T458 85T523 113T567 157T583 222Q583 275 557 306T490 353T396 375T289 380ZM291 757Q274 757 259 757T233 755Q220 754 210 753V447Q210 445 228 445T280 444Q312 444 357 447T443 466T514 514T543 605Q543 651 521 681T462 727T381 750T291 757Z" />
<glyph unicode="C" glyph-name="C" horiz-adv-x="646" d="M610 219Q610 187 595 147T546 71T460 11T332 -14Q278 -14 225 9T130 83T63 213T37 405Q37 496 61 575T128 712T226 804T345 838Q386 838 418 825T473 791T510 747T533 702Q531 733 530 750T529 775T528
786T528 788Q528 800 535 811T561 823Q573 823 580 819T591 810T596 799T597 790Q597 755 595 713T593 634Q593 602 594 568T595 502Q595 493 589 481T561 468Q543 468 534 479T525 527Q525 576 516 621T485 701T429 756T346 777Q294 777 251 746T177 663T129 544T112
404Q112 331 126 266T168 153T240 76T340 48Q384 48 420 60T482 93T526 142T549 203Q553 223 558 236T581 249Q610 249 610 219Z" />
<glyph unicode="D" glyph-name="D" horiz-adv-x="698" d="M63 818Q113 820 165 820T279 821Q342 821 410 801T534 736T626 618T662 439Q662 349 638 269T564 130T441 35T269 0H75Q58 0 49 5T39 24Q39 37 46 42T70 48Q79 48 90 48T113 51T131 58T139 72Q139 127
139 165T139 241T140 324T140 437Q140 455 139 494T137 577T134 662T133 727Q133 742 128 750T113 763T91 768T65 769Q53 769 48 776T42 794Q42 802 47 809T63 818ZM273 756Q258 756 242 755T211 752V74Q211 70 217 68T233 65T253 64T273 64Q355 64 414 92T512
171T569 290T587 439Q587 504 569 562T512 663T414 731T273 756Z" />
<glyph unicode="E" glyph-name="E" horiz-adv-x="667" d="M602 315Q616 315 624 306T632 282Q632 273 631 245T627 179T622 103T616 33Q614 8 604 4T574 0Q513 0 456 1T337 2Q276 2 211 1T84 0Q67 0 53 3T38 21Q38 37 47 42T77 48Q106 48 122 55T138 84Q138 117
138 142T138 189T139 233T139 282T140 343T140 425Q140 478 139 520T137 598T135 666T134 730Q134 745 128 752T114 764T96 768T81 769Q64 769 53 775T41 794Q41 812 54 816T82 821Q115 821 151 821T222 820T285 820T333 819Q370 819 393 819T439 820T489 820T560
821Q574 821 581 814T588 785V646Q588 622 581 611T557 600Q535 600 528 613T521 640V727Q521 737 517 743T508 751T496 754T484 755H211V455Q239 454 260 453T310 452Q322 452 336 452T364 453T388 454T403 455Q409 455 412 464T417 485T419 511T420 532Q420 543
427 554T452 566Q466 566 475 559T484 535Q484 506 483 478T482 420Q482 391 483 362T484 304Q484 287 475 282T453 277Q434 277 428 285T422 306Q422 317 420 331T413 357T398 378T374 387Q363 387 348 387T310 388Q281 388 261 388T211 386V66H510Q517 66 524
67T538 71T548 82T553 103Q554 115 556 137T560 184T563 235T566 278Q567 299 578 307T602 315Z" />
<glyph unicode="F" glyph-name="F" horiz-adv-x="595" d="M137 92Q139 192 140 290T141 489Q141 523 140 552T138 610T136 668T135 732Q135 771 63 771Q51 771 46 779T41 796Q41 807 49 814T79 821Q143 821 211 820T344 819Q397 819 449 820T554 821Q575 821 581
810T588 773V647Q588 622 581 611T554 600Q533 600 527 614T521 647V714Q521 742 512 748T482 755H211V455Q240 453 260 453T308 453Q320 453 335 453T365 454T391 454T406 455Q411 455 414 463T418 482T420 503T420 517Q420 527 420 535T424 550T434 560T454 564Q476
564 480 549T484 517Q484 492 483 466T482 415Q482 390 483 362T484 309Q484 288 477 280T454 271Q440 271 431 278T422 299Q422 324 418 340T406 367T392 382T378 387Q361 388 345 388T311 389Q282 389 261 389T211 386Q211 367 211 344T211 296T210 248T210 205Q210
188 210 165T211 120T212 81T213 60H340Q346 60 352 60T363 56T372 46T376 26Q376 10 367 5T346 0H81Q68 0 53 3T38 23Q38 39 45 43T66 48Q80 48 93 49T115 54T131 68T137 92Z" />
<glyph unicode="G" glyph-name="G" horiz-adv-x="656" d="M512 254Q462 254 409 251T301 247Q280 247 270 255T259 275Q259 295 276 302T310 310Q372 310 431 315T545 321Q569 321 587 310T605 273Q605 256 604 228T603 164Q603 116 604 86T605 35Q605 19 596
11T574 2Q560 2 551 10T542 36Q542 55 543 75T544 103Q527 72 504 50T454 14T396 -7T336 -14Q283 -14 230 7T133 78T64 208T37 404Q37 491 60 570T124 708T223 803T350 838Q404 838 454 807T533 702L528 789Q528 802 536 811T560 821Q578 821 587 811T597 788Q597
767 597 751T595 718T594 685T593 648Q593 622 594 584T595 520Q595 494 588 479T561 464Q544 464 535 478T525 517Q525 572 515 619T483 702T426 757T341 777Q294 777 253 748T180 668T130 549T112 404Q112 339 124 275T164 161T236 80T345 49Q382 49 416 63T478
101T521 157T537 225Q537 242 534 248T512 254Z" />
<glyph unicode="H" glyph-name="H" horiz-adv-x="807" d="M657 732Q657 713 657 669T656 575T656 476T655 401Q655 333 656 266T660 142T663 46T665 -4H761Q772 -4 784 -9T796 -32Q796 -46 789 -50T771 -55H553Q539 -55 526 -52T512 -32Q512 -17 522 -12T541 -7Q548
-7 555 -7T569 -2T580 12T585 39V386Q553 386 522 387Q496 387 467 387T415 388Q364 388 313 388T211 386V51H307Q326 51 334 44T342 27Q342 10 335 5T317 0H95Q81 0 68 5T54 27Q54 41 64 44T83 48Q90 48 99 48T117 53T130 67T136 94Q136 171 138 245T140 401Q140
483 138 574T136 748Q136 757 130 761T114 768T94 770T76 771Q65 771 52 776T39 796Q39 814 53 817T76 821H268Q300 821 312 816T324 796Q324 780 309 776T282 771Q277 771 266 771T242 768T221 761T211 746V454Q262 452 313 452T415 452Q437 452 466 452T521 452T565
453T582 454V734Q582 743 577 747T565 754T548 756T532 757Q521 757 508 762T495 782Q495 797 509 802T532 807H724Q756 807 768 802T780 782Q780 765 765 761T738 757Q733 757 720 757T693 754T668 747T657 732Z" />
<glyph unicode="I" glyph-name="I" horiz-adv-x="354" d="M214 51H305Q316 51 325 44T335 23Q335 17 332 9T315 0H83Q68 0 55 4T42 23Q42 37 52 42T71 48Q79 48 90 48T113 53T131 67T139 94Q139 171 141 245T143 401Q143 484 141 574T139 748Q139 757 131 761T110
768T86 770T64 771Q59 771 53 772T41 775T31 783T27 796Q27 813 41 817T64 821H266Q298 821 307 815T317 796Q317 782 305 777T280 771Q276 771 266 771T244 768T223 761T214 746V51Z" />
<glyph unicode="J" glyph-name="J" horiz-adv-x="523" d="M57 135Q57 114 67 98T94 72T131 56T172 50Q233 50 266 77T315 150T334 255T337 379Q337 432 337 492T336 606T335 699T334 748Q334 757 325 761T302 768T274 770T249 771Q238 771 225 776T212 796Q212
813 226 817T249 821H446Q478 821 487 815T497 796Q497 782 485 777T460 771Q457 771 449 771T432 768T416 761T409 746V279Q409 132 351 59T167 -14Q131 -14 100 -3T46 29T9 76T-4 137Q-4 194 22 229T89 264Q97 264 106 262T124 253T137 238T143 216Q143 198 135
184T107 170Q87 170 74 182Q66 177 62 164T57 135Z" />
<glyph unicode="K" glyph-name="K" horiz-adv-x="747" d="M210 421Q230 440 259 469T321 531T385 597T442 659T484 706T500 730Q500 744 491 744T468 746Q458 746 446 751T434 770Q434 780 441 787T468 795H736Q745 795 752 789T759 771Q759 764 754 757T739 750Q721
749 700 749T660 746T624 740T600 729Q564 694 524 654T441 571T357 483T275 395Q330 323 383 254Q405 225 429 194T478 133T525 76T567 28Q575 20 609 18T686 16Q709 16 729 14T749 -2Q749 -11 742 -17T713 -28T652 -34T547 -36Q538 -36 518 -17T472 35T413 108T349
193T285 278T228 353L210 335V50H306Q317 50 329 45T341 27Q341 13 334 7T316 0H99Q92 0 84 0T69 3T58 9T53 23Q53 40 65 44T87 48Q93 48 101 48T116 53T129 67T135 94Q135 171 137 245T139 401Q139 484 137 574T135 748Q135 757 129 761T113 768T95 770T79 771Q68
771 53 776T38 796Q38 805 42 810T54 817T67 820T79 821H267Q299 821 311 816T323 796Q323 788 319 783T308 776T295 772T281 771Q276 771 265 771T241 768T220 761T210 746V421Z" />
<glyph unicode="L" glyph-name="L" horiz-adv-x="565" d="M67 48Q78 48 90 48T114 52T132 61T139 78Q139 90 139 127T140 214T140 317T141 416Q141 479 140 526T138 609T136 675T135 734Q135 747 128 754T111 765T91 770T73 771Q62 771 49 775T36 796Q36 813 50
817T73 821H275Q307 821 316 816T326 796Q326 780 314 776T289 771Q284 771 272 771T246 768T223 761T212 746V66H423Q438 66 449 73T463 97Q464 102 466 125T470 175T474 226T476 259Q476 282 481 295T509 309Q523 309 533 304T543 284Q543 266 541 234T537 165T532
92T527 29Q525 12 517 6T494 0H56Q39 0 36 9T32 24Q32 39 41 43T67 48Z" />
<glyph unicode="M" glyph-name="M" horiz-adv-x="1033" d="M998 733Q967 730 943 729T888 725Q866 723 862 709T857 678Q857 635 855 563T853 380Q853 337 854 282T855 174T857 76T858 10H970Q981 10 990 5T1000 -15Q1000 -41 980 -41H755Q741 -41 728 -37T714
-15Q714 0 724 3T743 7Q748 7 755 7T768 12T778 26T782 53V632Q746 531 710 433T643 249T589 101T555 7Q543 -28 515 -28Q504 -28 497 -23T483 -11T474 3T468 16Q454 54 433 107T387 221T336 344T285 464T242 570T211 650V51H311Q322 51 331 46T341 23Q341 14 336
7T321 0H95Q81 0 68 4T54 23Q54 40 64 44T83 48Q89 48 97 48T112 53T125 67T131 94Q136 162 138 235T140 383Q140 469 139 550T137 712Q137 734 121 741T84 750T48 755T31 775Q31 792 45 796T89 801H214Q228 801 235 795T251 761Q260 731 279 679T325 562T379 428T435
292T484 168T518 74Q532 111 551 164T593 280T639 408T684 535T725 650T757 739Q764 753 768 761T779 773T801 779T843 781H991Q1007 781 1021 778T1036 758Q1036 741 1025 739T998 733Z" />
<glyph unicode="N" glyph-name="N" horiz-adv-x="824" d="M213 708V51H313Q324 51 333 46T343 25Q343 0 323 0H97Q83 0 70 4T56 25Q56 38 66 43T85 48Q91 48 98 48T113 53T126 67T133 94Q135 162 138 237T142 388Q142 474 141 565T139 738Q139 753 123 758T86
766T50 777T33 804Q33 821 91 821H229Q241 821 248 814T269 781Q285 751 314 697T378 578T451 442T521 309T578 200T611 132V731Q611 740 605 744T590 751T572 753T556 754Q545 754 532 759T519 781Q519 804 556 804H762Q794 804 803 799T813 781Q813 764 801 759T776
754Q771 754 757 754T726 751T698 744T685 729Q684 674 684 633T683 552T682 469T681 368Q681 335 681 290T682 197T682 103T683 21Q683 7 674 -2T648 -11Q634 -11 623 -7T607 6L213 708Z" />
<glyph unicode="O" glyph-name="O" horiz-adv-x="709" d="M112 400Q112 319 129 254T178 143T254 73T351 48Q406 48 451 71T529 139T578 252T596 410Q596 486 581 553T536 670T466 748T373 777Q308 777 259 743T178 655T129 534T112 400ZM37 404Q37 455 46 507T72
607T117 697T181 771T264 820T367 838Q442 838 499 804T594 710T652 573T671 408Q671 327 657 264T618 153T561 74T493 22T420 -7T349 -16Q286 -16 230 8T130 84T62 214T37 404Z" />
<glyph unicode="P" glyph-name="P" horiz-adv-x="624" d="M81 48Q116 48 127 60T138 92Q138 148 138 187T138 263T139 339T139 437Q139 527 136 603T133 729Q133 744 125 756T84 769H70Q53 769 48 776T42 794Q42 801 47 809T70 818Q106 818 134 818T191 819T251
820T325 821Q386 821 439 809T531 770T593 700T616 595Q616 523 584 474T503 395T393 352T277 339Q268 339 257 339T235 340Q223 340 211 341V51H318Q361 51 361 25Q361 12 352 6T316 0H100Q75 0 57 4T39 23Q39 31 45 39T81 48ZM283 757Q264 757 246 755T211 750V405Q220
404 231 404Q240 403 251 403T276 403Q291 403 317 405T372 413T432 432T486 465T525 517T541 592Q541 652 512 685T443 734T358 753T283 757Z" />
<glyph unicode="Q" glyph-name="Q" horiz-adv-x="708" d="M188 -80Q188 -68 197 -58T221 -38T254 -23T291 -11Q240 -2 194 27T113 107T58 231T37 404Q37 455 46 507T73 607T118 697T180 771T259 820T356 838Q431 838 490 804T589 710T650 573T671 408Q671 296
643 218T572 91T476 17T374 -14Q400 -24 427 -38T478 -52Q497 -52 521 -44T567 -36Q580 -36 585 -43T591 -62Q591 -71 581 -80T556 -97T520 -109T479 -114Q460 -114 441 -108T403 -93T368 -78T337 -71Q319 -71 301 -75T268 -84T240 -94T221 -98Q209 -98 199 -95T188
-80ZM112 400Q112 319 129 254T176 143T249 73T343 48Q398 48 444 71T525 139T577 252T596 410Q596 486 579 553T530 670T455 748T360 777Q297 777 251 743T173 655T127 534T112 400Z" />
<glyph unicode="R" glyph-name="R" horiz-adv-x="691" d="M541 588Q541 624 527 650T491 696T441 727T384 745T329 754T283 757Q269 757 256 756T233 753Q221 751 211 750V405Q212 405 218 405T231 404T245 404T253 403Q298 403 348 410T442 437T513 494T541 588ZM214
337Q212 337 211 338V51H291Q310 51 324 47T338 25Q338 14 326 7T269 0H82Q53 0 46 8T39 27Q39 37 48 42T91 48Q98 48 106 49T122 56T133 71T138 97Q138 175 139 254T140 412Q140 494 137 573T134 735Q134 758 117 764T74 770Q42 770 42 799Q42 810 51 814T71 818Q111
818 137 818T189 819T244 820T319 821Q365 821 417 809T513 771T586 701T616 594Q616 530 590 484T522 407T424 360T308 338Q349 273 390 212Q425 159 467 103T545 6H668Q691 6 702 2T714 -18Q714 -25 708 -30T680 -38T619 -42T512 -44Q503 -44 485 -25T443 26T391
98T333 181T276 264T222 337H214Z" />
<glyph unicode="S" glyph-name="S" horiz-adv-x="613" d="M110 85Q110 64 111 47L113 9Q113 -3 105 -14T79 -26Q62 -26 53 -13T44 7Q44 13 44 25T46 52T47 82T48 108Q48 124 48 135T47 156T47 178T46 205Q46 219 52 234T80 249Q93 249 100 243T111 226T116 203T117
180Q117 154 129 130T166 87T225 56T305 44Q341 44 373 51T430 72T470 103T485 145Q485 175 461 199T399 243T320 280T243 314Q211 329 178 347T117 394T72 466T54 574Q54 630 77 678T138 761T221 817T312 837Q385 837 436 798T517 671Q513 734 511 764T509 796Q509
808 515 819T543 831Q555 831 562 827T572 818T577 807T578 798Q578 763 576 726T574 652Q574 620 575 592T576 532Q576 518 567 508T540 498Q520 498 513 516T506 557Q502 605 484 645T440 714T383 760T320 777Q279 777 244 759T182 711T141 643T125 565Q125 520
136 490T165 439T207 405T255 381Q277 371 308 359T372 332T439 298T498 257T540 206T556 145Q556 100 532 69T470 20T390 -7T308 -16Q281 -16 252 -11T195 5T146 36T110 85Z" />
<glyph unicode="T" glyph-name="T" horiz-adv-x="635" d="M118 755Q92 755 87 745T81 706V610Q81 578 74 567T47 555Q34 555 24 562T14 599Q14 607 14 619T14 645T15 672T15 693Q15 709 15 735T14 778Q14 807 21 814T52 821Q123 821 184 820T317 819Q388 819 449
820T582 821Q606 821 613 814T620 778Q620 761 620 735T619 693Q619 685 619 672T619 646T620 620T620 599Q620 569 611 562T587 555Q564 555 559 566T553 610V706Q553 735 548 745T516 755H351V51H442Q453 51 462 46T472 24Q472 15 467 8T452 0H220Q206 0 193
3T179 23Q179 40 189 44T208 48Q216 48 227 48T250 53T268 67T276 94Q276 171 278 245T280 401Q280 441 280 486T278 578T277 669T276 755H118Z" />
<glyph unicode="U" glyph-name="U" horiz-adv-x="772" d="M184 323Q184 269 188 220T211 132T270 71T383 48Q437 48 474 67T535 119T568 191T578 272V694Q578 703 571 707T555 714T535 716T518 717Q507 717 494 722T481 742Q481 767 518 767H714Q746 767 755 762T765
742Q765 725 753 721T728 717Q723 717 710 717T683 714T659 707T648 692Q648 641 647 592T646 492Q646 437 647 382T648 272Q648 198 629 144T574 55T490 3T382 -14Q336 -14 296 -6T223 20T167 63T134 125Q119 176 117 227T114 334Q114 366 114 399T115 467Q115
537 114 607T113 748Q113 757 106 761T90 768T70 770T53 771Q42 771 29 774T16 796Q16 812 30 816T53 821H250Q282 821 291 816T301 796Q301 782 289 777T264 771Q259 771 246 771T220 768T195 761T184 746V323Z" />
<glyph unicode="V" glyph-name="V" horiz-adv-x="687" d="M347 99Q392 253 428 380Q443 434 457 487T483 584T502 660T509 701Q509 714 495 715T468 717Q463 717 457 717T444 720T434 728T429 741Q429 755 438 760T468 766H711Q728 766 736 762T744 742Q744 728
734 725T714 721Q703 721 691 720T668 718T648 716T635 715Q613 713 603 704T586 677Q570 634 552 576T514 453T475 321T437 191T404 77T379 -9Q377 -17 369 -25T345 -34Q333 -34 323 -28T308 -9L96 743Q92 763 75 769T23 775Q9 775 -7 779T-23 801Q-23 815 -9
818T22 821H239Q257 821 263 817T270 801Q270 785 255 781T222 775T189 769T174 751Q174 742 181 710T201 630T228 525T260 408Q298 270 347 99Z" />
<glyph unicode="W" glyph-name="W" horiz-adv-x="1122" d="M936 681Q936 692 930 698T916 706T899 709T882 710Q872 710 860 715T848 734Q848 746 855 752T882 759H1137Q1146 759 1158 756T1170 735Q1170 723 1160 719T1140 714Q1129 714 1115 713T1088 711T1064
709T1049 708Q1008 704 1000 670Q985 611 972 561T946 462T920 365T891 258T857 134T815 -17Q810 -37 799 -44T773 -51Q759 -51 745 -45T725 -15Q709 49 691 118T656 252T622 377T594 483T574 559T565 595Q532 481 501 375Q488 329 474 281T447 185T421 94T399
16Q397 8 388 -2T364 -12Q350 -12 339 -7T323 13Q296 100 270 186T216 362T159 546T94 743Q89 763 65 769T7 775Q-7 775 -19 779T-31 797Q-31 811 -21 816T6 821H243Q261 821 267 816T274 800Q274 784 258 779T224 772T189 767T173 751Q173 741 182 707T206 621T241
507T282 377T323 242T361 115Q397 249 429 364Q442 413 456 463T482 557T503 635T519 690Q525 711 534 729T566 747Q587 747 595 733T611 690Q636 579 659 489T703 323T741 185T773 68Q780 101 795 157T828 277T866 409T900 534T926 631T936 681Z" />
<glyph unicode="X" glyph-name="X" horiz-adv-x="685" d="M203 734Q203 730 208 718T221 687T241 647T263 602Q289 549 324 485Q331 501 344 526T372 580T402 637T430 691T450 733T458 756Q458 768 451 770T421 772Q407 772 397 778T387 798Q387 810 394 815T421
821H644Q658 821 667 817T677 799Q677 788 668 783T647 776Q626 773 604 772T574 770Q552 768 543 759T525 732L358 414L553 41Q564 21 596 15T676 9Q695 9 706 4T717 -15Q717 -28 706 -32T677 -37H450Q432 -37 426 -32T419 -15Q419 -2 429 3T452 10T475 14T486
22Q486 26 479 41T461 80T435 132T405 189Q370 257 325 341Q325 340 316 321T292 273T261 209T230 144T206 91T196 65Q196 58 202 55T217 51T238 50T261 49Q275 48 285 44T295 25Q295 13 288 7T261 0H17Q8 0 -4 5T-16 24Q-16 35 -6 40T14 45Q21 45 31 46T51 48T69
50T80 51Q101 53 110 62T129 89L289 414L132 721Q122 739 100 746T42 753Q28 753 17 757T6 777Q6 799 41 799H264Q282 799 288 795T295 777Q295 763 281 759T249 752T218 747T203 734Z" />
<glyph unicode="Y" glyph-name="Y" horiz-adv-x="660" d="M188 743Q188 737 197 716T220 664T251 598T285 529T315 467T336 423Q341 438 353 462T380 516T412 576T441 634T464 681T473 711Q473 723 459 725T432 727Q416 727 405 732T393 751Q393 763 401 769T432
776H674Q683 776 695 773T707 752Q707 740 697 736T677 731Q666 731 653 730T626 728T603 726T589 725Q567 723 558 714T540 687Q518 646 493 599T444 504T399 412T362 334Q362 285 363 235Q364 192 364 143T365 51H451Q462 51 474 47T486 28Q486 11 479 6T461
0H251Q229 0 215 5T200 26Q200 48 239 48Q245 48 254 48T272 53T287 67T293 94V355Q271 404 255 439T225 502T199 554T174 603T145 660T109 735Q100 753 71 760T7 767Q-7 767 -18 771T-29 789Q-29 813 6 813H234Q252 813 261 807T270 789Q270 775 257 771T229 765T201
759T188 743Z" />
<glyph unicode="Z" glyph-name="Z" horiz-adv-x="642" d="M605 281Q605 280 604 264T602 222T599 167T596 110T593 61T592 31Q592 8 584 4T556 0Q498 0 440 0T324 1Q266 1 209 1T93 0Q56 0 38 3T19 19Q19 24 19 27T22 35T29 44T40 61Q47 72 69 105T123 186T193
292T270 409T345 525T409 627T454 703T471 739Q471 744 470 747T465 752T451 754T423 755H161Q132 755 126 746T119 712Q119 706 119 694T119 669T118 642T118 620Q118 583 111 569T87 555Q64 555 58 570T51 601Q51 624 51 645T52 690Q52 713 52 735T51 780Q51
795 54 803T67 816T93 820T135 821Q186 821 236 820T338 819Q389 819 440 820T542 821Q562 821 578 819T594 802Q594 799 589 790T578 770T565 750T558 738Q537 703 508 657T446 558T376 450T305 341T239 241T185 157T148 99T134 75Q134 69 138 67T154 65H466Q477
65 487 65T506 69T519 79T526 99Q528 116 530 141T534 191T537 240T539 276Q539 291 546 305T574 319Q590 319 597 309T605 281Z" />
<glyph unicode="[" glyph-name="bracketleft" horiz-adv-x="319" d="M106 835Q128 836 155 836T208 837T253 838T281 838Q289 838 299 835T310 816Q310 802 302 799T282 794L179 786Q165 785 162 774T158 756V10Q158 -3 177 -5T234 -7Q247 -7 260 -8T283 -13T301
-21T308 -33Q308 -42 299 -47T277 -54T249 -57T222 -58H107Q98 -58 93 -51T88 -23Q88 -7 88 23T89 92T89 171T89 251T89 319T89 366Q89 418 89 456T89 525T89 583T88 641T87 710T85 800Q85 812 91 823T106 835Z" />
<glyph unicode="\" glyph-name="backslash" horiz-adv-x="530" d="M507 18Q473 86 451 129T415 200T393 242T379 267T367 286T352 310T328 352T289 423Q258 480 238 516T205 578T184 620T166 658T143 704T109 774Q94 805 82 818T45 831Q27 831 24 822T20 807Q20
799 25 787T34 768L439 5Q444 -6 455 -12T481 -19Q490 -19 499 -11T509 9Q509 15 507 18Z" />
<glyph unicode="]" glyph-name="bracketright" horiz-adv-x="319" d="M213 835Q221 834 227 823T234 800Q233 748 233 710T232 641T231 583T230 525T230 456T230 366Q230 350 230 320T230 251T230 172T230 92T230 24T231 -23Q231 -44 226 -51T212 -58H97Q85 -58
70 -58T42 -55T20 -47T11 -33Q11 -26 18 -21T35 -13T59 -9T85 -7Q122 -7 141 -5T161 10V756Q161 763 158 774T140 786L37 794Q26 795 18 798T9 816Q9 831 19 834T38 838Q46 838 66 838T111 838T163 837T213 835Z" />
<glyph unicode="^" glyph-name="asciicircum" horiz-adv-x="315" d="M277 510Q272 510 259 517T229 535T193 558T157 581Q140 571 121 559T86 536T56 518T38 510Q27 510 27 523Q27 539 44 561T84 605T128 640T157 655Q166 655 187 640T231 605T271 562T288 527Q288
520 286 515T277 510Z" />
<glyph unicode="_" glyph-name="underscore" horiz-adv-x="357" d="M342 -25Q351 -25 359 -33T367 -53Q367 -61 360 -73T330 -86Q302 -86 260 -86T172 -86T86 -87T20 -87Q7 -87 -2 -77T-12 -56Q-12 -45 -5 -36T20 -26Q30 -26 47 -26T83 -27T123 -27T162 -28Q220
-28 264 -27T342 -25Z" />
<glyph unicode="`" glyph-name="grave" horiz-adv-x="154" d="M10 656Q10 670 22 678T50 686Q54 686 57 686T65 684Q76 681 90 659T116 610T136 558T145 523Q145 503 128 503Q124 503 118 505Q105 511 87 531T51 575T22 622T10 656Z" />
<glyph unicode="a" glyph-name="a" horiz-adv-x="468" d="M332 224Q332 235 332 245T333 261Q333 327 306 364T218 402Q201 402 182 399T148 389T122 373T111 351Q111 343 116 341T131 336Q138 335 147 328T156 305Q156 288 144 279T112 269Q81 269 68 291T55
339Q55 393 101 427T226 462Q403 462 403 267Q403 256 403 238T402 200T401 159T400 123Q400 77 404 63T422 49Q433 49 436 56T442 76Q443 82 449 90T469 98Q482 98 486 88T490 65Q490 44 484 30T466 6T442 -7T413 -11Q386 -11 365 2T334 48Q302 19 264 4T178 -11Q108
-11 67 21T25 107Q25 136 37 161T71 204T123 232T192 243Q269 243 332 197V224ZM96 108Q96 78 127 64T201 49Q228 49 251 54T293 69T321 90T332 118Q332 132 323 144T298 164T262 178T217 183Q191 183 169 178T131 162T106 138T96 108Z" />
<glyph unicode="b" glyph-name="b" horiz-adv-x="517" d="M136 334Q164 394 209 426T311 458Q360 458 394 435T448 377T477 300T486 220Q486 155 465 111T411 41T339 3T265 -9Q235 -9 213 -2T175 16T148 40T128 68Q126 44 125 29T120 4T109 -8T90 -12Q76 -12 67
-3T57 24Q57 57 58 84T60 138T62 197T64 270T65 367T66 498Q66 535 66 572T66 642T65 700T65 740Q65 767 20 767H-18Q-35 767 -49 772T-64 789Q-64 803 -42 810T20 818H110Q119 818 127 813T136 782V334ZM139 205Q139 130 170 91T263 52Q284 52 310 59T359 86T397
139T413 225Q413 274 401 307T370 360T331 388T294 397Q253 397 224 374T176 319T148 255T139 205Z" />
<glyph unicode="c" glyph-name="c" horiz-adv-x="488" d="M382 428Q381 439 381 454T380 483Q380 494 387 502T411 511Q428 511 436 502T444 478Q444 464 444 441T444 394T443 346T443 310Q443 302 433 295T407 288Q399 288 390 293T380 309Q380 361 353 391T259
422Q226 422 198 408T149 367T118 306T106 227Q106 148 143 102T249 56Q307 56 346 77T403 128Q413 144 421 149T437 154Q448 154 457 148T467 128Q467 120 465 115T457 101Q387 -6 253 -6Q200 -6 159 12T89 61T45 135T29 225Q29 279 46 326T95 407T169 462T262
482Q300 482 330 472T382 428Z" />
<glyph unicode="d" glyph-name="d" horiz-adv-x="548" d="M465 57Q465 37 471 34T502 31Q545 31 560 24T575 -2Q575 -14 565 -22T536 -30Q509 -30 491 -30T460 -30T440 -29T428 -28Q407 -26 400 -11T391 29L389 83Q366 38 320 15T220 -9Q168 -9 132 13T73 68T40
142T30 218Q30 236 33 262T44 318T68 375T106 426T164 463T244 477Q274 477 297 472T339 457T371 437T392 416V726Q392 745 381 749T352 754Q327 754 305 753T245 752Q235 752 225 755T215 766Q215 792 257 800T388 809Q426 809 445 804T465 771Q465 753 465 716T465
632T464 535T463 442T462 367T462 325Q462 309 462 239T465 57ZM250 51Q289 51 316 73T361 125T387 190T395 248Q395 268 393 288T384 334Q378 348 369 363T346 390T310 410T258 418Q221 418 192 402T144 358T114 296T103 222Q103 178 115 146T149 92T196 61T250
51Z" />
<glyph unicode="e" glyph-name="e" horiz-adv-x="491" d="M364 303Q381 303 381 311Q381 326 373 344T350 378T310 404T254 415Q223 415 198 405T155 378T126 341T111 299L364 303ZM107 239Q106 234 106 229T105 218Q105 188 115 158T144 104T192 66T258 51Q297
51 324 63T367 93T391 133T399 173Q399 181 405 193T433 205Q445 205 454 197T463 173Q463 138 453 105T417 45T349 3T242 -13Q190 -13 151 4T84 54T44 129T30 226Q30 284 46 331T92 410T164 459T257 477Q312 477 350 458T411 411T444 354T454 304Q454 281 443
261T412 241Q381 241 339 241T248 240Q238 240 219 240T179 240T139 239T107 239Z" />
<glyph unicode="f" glyph-name="f" horiz-adv-x="318" d="M94 75Q100 145 100 217Q100 265 99 313T98 409Q98 412 96 413T85 415H48Q31 415 20 421T9 445Q9 465 21 469T51 473H85Q93 473 95 478T97 491Q98 517 100 552T110 624T132 697T172 761T233 807T323 825Q360
825 385 814T424 786T444 751T450 718Q450 676 432 659T396 642Q372 642 360 656T348 686Q348 694 351 704T363 721Q369 727 373 731T378 742Q378 748 363 758T323 769Q285 769 259 755T215 716T189 662T176 600T171 538T170 484Q170 473 178 473H256Q266 473 279
469T293 445Q293 433 289 427T279 417T267 414T254 413Q249 413 240 413T221 414T202 414T188 415Q176 415 173 412T170 404V60H279Q294 60 306 56T318 30Q318 13 305 7T266 1Q257 1 243 1T214 2T183 2T156 3Q142 3 127 3T96 2T70 1T52 0Q45 0 38 0T24 3T13 11T8
26Q8 35 12 40T23 48T37 52T50 54Q74 56 83 60T94 75Z" />
<glyph unicode="g" glyph-name="g" horiz-adv-x="495" d="M240 460Q281 460 316 449Q328 465 342 480T373 506T405 523T435 530Q448 530 460 523T473 498Q473 487 467 479T449 469Q427 467 403 458T359 429Q394 407 411 374T428 301Q428 266 415 236T377 184T315
150T231 137Q217 137 206 138T181 143Q159 135 145 124T131 95Q131 75 169 67T285 57Q328 57 375 53T461 35T527 -9T553 -91Q553 -127 533 -156T475 -206T387 -238T273 -250Q224 -250 180 -241T103 -214T51 -167T31 -102Q31 -16 147 7Q108 14 84 32T59 89Q59 118
74 134T121 165Q89 186 74 221T58 294Q58 330 71 360T107 412T164 447T240 460ZM299 -1Q267 -1 233 -7T170 -26T123 -58T104 -106Q104 -127 120 -142T164 -168T224 -184T290 -189Q383 -189 431 -163T480 -99Q480 -75 468 -58T438 -31T397 -14T355 -5T320 -2T299
-1ZM247 400Q193 400 162 370T131 292Q131 253 159 225T240 197Q294 197 324 225T355 301Q355 346 327 373T247 400Z" />
<glyph unicode="h" glyph-name="h" horiz-adv-x="551" d="M459 0H513Q520 0 529 -1T548 -5T563 -15T569 -33Q569 -48 558 -53T532 -58Q527 -58 500 -58T440 -59T380 -59T348 -60Q335 -60 325 -55T315 -32Q315 -18 324 -12T343 -3Q368 0 376 6T386 36Q387 56 387
78T388 118T389 149T389 163Q389 209 388 247T377 312T350 353T299 368Q257 368 225 343T173 280Q148 233 148 186V60H228Q245 60 256 54T267 28Q267 11 258 6T228 1Q225 1 212 1T178 1T135 1T92 0T57 0T39 0Q23 0 9 4T-5 27Q-5 45 7 51T32 57H48Q57 57 62 62T71
76T75 94T76 111Q76 119 76 150T77 225T78 324T78 435T79 544T80 639T81 707T81 737Q81 770 64 770H17Q7 770 -4 770T-25 772T-41 777T-48 787Q-48 795 -41 801T-17 811T32 818T111 821Q137 821 144 815T153 789V330Q175 377 221 402T318 428Q345 428 370 421T415
392T447 332T459 233V0Z" />
<glyph unicode="i" glyph-name="i" horiz-adv-x="292" d="M197 58H254Q276 58 289 53T302 28Q302 15 293 8T272 0H93Q81 0 69 0T47 3T31 11T24 27Q24 36 28 41T40 48T58 52T83 56Q105 59 113 62T123 77Q126 109 126 146T127 213Q127 251 126 286T123 359Q122 371
119 378T108 386Q104 386 93 385T69 384T45 382T30 381Q22 381 12 386T2 397Q2 409 7 415T21 424T44 428T75 431Q88 432 103 433T132 435T159 436T179 436Q191 436 194 427T197 401V58ZM96 580Q96 587 99 597T109 617T127 632T153 639Q173 639 188 625T203 584Q203
548 184 534T146 520Q125 520 111 537T96 580Z" />
<glyph unicode="j" glyph-name="j" horiz-adv-x="263" d="M4 -79Q4 -99 -6 -110T-36 -124Q-52 -126 -52 -143Q-52 -150 -39 -160T13 -171Q64 -171 92 -138T128 -40Q131 -14 132 31T135 124T136 214T136 278V368Q136 384 130 386T111 389H21Q-17 389 -17 409Q-17
419 -7 425T26 434T87 439T180 440Q196 440 199 431T203 402Q203 395 203 369T203 307T202 231T201 156T200 94T200 61Q200 51 200 37T198 8T196 -20T194 -44Q187 -98 169 -134T126 -192T72 -223T11 -233Q-22 -233 -45 -223T-84 -196T-106 -160T-113 -120Q-113
-79 -93 -59T-47 -38Q-28 -38 -12 -48T4 -79ZM96 580Q96 587 99 597T109 617T127 632T153 639Q173 639 188 625T203 584Q203 548 184 534T146 520Q125 520 111 537T96 580Z" />
<glyph unicode="k" glyph-name="k" horiz-adv-x="483" d="M144 264Q198 315 232 347T267 387Q267 392 264 393T259 394H252Q248 394 240 397T231 412Q231 427 255 434T316 441Q408 441 444 435T480 419Q480 411 475 406T459 398T428 393T379 389Q359 387 348 376L234
268Q267 268 291 261T330 237T352 190T360 116V68Q360 42 363 28T370 5T380 -5T389 -7Q395 -7 401 -3T407 12Q407 46 440 46Q457 46 462 35T468 9Q468 -24 443 -47T380 -71Q338 -71 314 -44T290 50V116Q290 148 285 168T268 199T236 215T186 220L144 185V51H205Q228
51 239 41T250 15Q250 2 240 -2T218 -6Q196 -6 172 -5T109 -4Q93 -4 72 -5T36 -6Q19 -6 6 -1T-7 20Q-7 34 7 39T57 53Q66 55 68 65T71 105Q71 136 71 155T72 190T73 219T74 252T75 299T76 370Q76 442 76 498T74 599T73 677T72 738Q72 761 50 761H0Q-12 761 -25
765T-38 781Q-38 795 -1 806T119 817Q144 817 144 788V264Z" />
<glyph unicode="l" glyph-name="l" horiz-adv-x="256" d="M167 785Q167 760 167 733T166 682T166 643T166 626Q166 400 167 262T168 57H214Q245 57 254 47T264 25Q264 17 256 8T226 -1Q219 -1 207 -1T182 0T154 1T126 2Q116 2 104 2T79 1T55 1T35 0Q11 0 2 8T-8
26Q-8 41 0 46T13 52L46 54Q91 57 93 85Q94 113 95 144T97 214T98 302T98 413Q98 477 98 525T98 612T97 682T97 742Q97 758 94 764T78 770H16Q-5 770 -17 774T-30 791Q-30 801 -16 806T20 815T66 819T110 820Q138 820 152 816T167 785Z" />
<glyph unicode="m" glyph-name="m" horiz-adv-x="825" d="M733 36H790Q823 36 832 26T841 8Q841 -3 831 -10T801 -19Q793 -19 772 -19T727 -20T681 -21T646 -21Q604 -21 591 -14T577 10Q577 36 605 38L635 40Q645 41 650 45T658 71Q659 78 660 93T662 129T664
173T665 220Q665 309 648 346T588 384Q564 384 544 375T506 352T476 319T454 280V65H508Q531 65 538 55T545 36Q545 23 539 17T523 10Q519 10 496 10T446 10T394 9T362 9Q337 9 326 14T315 37Q315 49 321 57T339 66L349 67Q372 69 379 80T386 109Q386 126 386 145T385
202Q385 204 385 223T384 265Q382 319 367 346T316 374Q288 374 264 364T221 334T193 284T182 215V59H225Q257 59 269 48T281 24Q281 16 275 9T250 1Q246 1 240 1T216 1T160 2T56 2Q42 2 36 11T29 31Q29 39 35 47T55 56Q68 56 76 56T90 60T98 70T103 90Q105 107
109 154T114 264Q114 302 112 324T107 357T98 372T88 375H75Q2 375 2 397Q2 406 14 412T47 421T97 426T159 428Q167 428 171 424T176 406L179 341Q197 385 235 409T322 434Q414 434 445 347Q474 396 513 420T600 444Q657 444 695 406T733 282V36Z" />
<glyph unicode="n" glyph-name="n" horiz-adv-x="603" d="M511 29H565Q572 29 581 28T600 24T615 14T621 -4Q621 -19 610 -24T584 -29Q579 -29 552 -29T492 -30T432 -30T400 -31Q387 -31 377 -26T367 -3Q367 11 376 17T395 26Q420 29 428 35T438 65Q440 105 440
133T441 163Q441 209 438 251T424 325T394 376T341 395Q299 395 267 367T217 300Q206 277 201 247T195 186V74H262Q279 74 290 68T301 42Q301 25 292 20T262 15Q258 15 232 15T173 15T114 14T81 14Q65 14 52 18T38 41Q38 59 50 65T75 71H95Q104 71 109 76T118 90T122
108T123 125Q123 142 124 179T126 257T127 329T128 367Q128 400 111 400H59Q49 400 38 400T17 402T1 407T-6 417Q-6 427 1 433T28 444T78 449T158 451Q184 451 190 445T197 419L200 357Q222 404 266 429T360 455Q382 455 408 448T458 419T496 359T511 260V29Z"
/>
<glyph unicode="o" glyph-name="o" horiz-adv-x="529" d="M500 233Q500 172 478 126T422 50T344 4T259 -11Q208 -11 166 6T94 56T46 132T29 230Q29 282 46 326T94 403T170 453T271 472Q327 472 369 453T441 400T485 324T500 233ZM270 412Q237 412 207 400T154
365T118 308T104 231Q104 185 118 151T156 95T207 61T261 50Q287 50 316 61T370 94T411 152T427 235Q427 274 416 306T384 362T334 399T270 412Z" />
<glyph unicode="p" glyph-name="p" horiz-adv-x="562" d="M177 346Q203 407 250 439T347 471Q404 471 440 448T496 391T523 315T531 238Q531 166 509 119T454 42T387 1T325 -11Q292 -11 268 -4T225 15T196 41T177 68V-144H242Q268 -144 285 -153T302 -179Q302
-193 291 -197T272 -202H47Q41 -202 30 -199T19 -180Q19 -165 34 -157T75 -145Q87 -144 93 -142T103 -135T106 -119T107 -86Q107 -66 107 -47T108 -5T109 49T110 124Q110 175 110 212T108 279T107 331T106 375Q106 391 100 394T72 397H30Q24 397 16 397T-1 400T-14
407T-20 418Q-20 426 -12 432T16 441T69 447T152 449Q166 449 171 443T177 413V346ZM176 219Q176 185 182 155T205 101T250 63T322 49Q341 49 364 57T408 87T443 146T457 240Q457 264 453 294T437 349T403 392T343 410Q316 410 287 398T233 363T192 303T176 219Z"
/>
<glyph unicode="q" glyph-name="q" horiz-adv-x="524" d="M406 371Q429 393 452 402T501 411Q518 411 525 403T532 385Q532 374 525 366T505 357Q482 355 469 353T450 337Q445 328 445 312T444 281Q444 258 444 224T443 155T442 87T442 36Q442 24 442 -2T443 -56T443
-110T444 -144H477Q506 -144 517 -153T529 -173Q529 -184 522 -193T496 -203H281Q266 -203 257 -195T248 -174Q248 -158 260 -152T292 -145Q326 -143 340 -141T362 -134Q369 -129 371 -116T373 -68V80Q359 43 320 16T222 -11Q178 -11 143 6T82 53T44 125T31 216Q31
277 50 322T100 396T168 439T241 453Q271 453 296 446T341 428T378 402T406 371ZM240 49Q277 49 304 66T348 110T374 172T383 241Q383 268 377 295T354 343T311 379T244 393Q205 393 178 376T135 331T111 273T104 213Q104 183 112 154T136 102T178 64T240 49Z"
/>
<glyph unicode="r" glyph-name="r" horiz-adv-x="429" d="M414 336Q414 319 411 303T399 275T378 254T345 246Q328 246 314 255T299 285Q299 300 305 306T320 316T335 324T342 339Q342 358 329 365T296 373Q278 373 257 365T218 338T188 289T176 213V61H230Q282
61 303 53T324 27Q324 0 294 0Q279 0 261 0T225 1T188 2T156 3Q141 3 130 3T109 2T88 1T63 0Q47 0 39 8T31 28Q31 39 38 49T63 61Q87 64 94 72T103 95Q104 108 104 128T106 182T107 265T108 386Q108 400 93 400H44Q19 400 7 407T-6 423Q-6 432 9 437T47 446T94
450T137 451Q163 451 172 445T181 413V364Q205 399 236 416T302 434Q327 434 347 426T383 404T406 373T414 336Z" />
<glyph unicode="s" glyph-name="s" d="M101 33Q102 25 102 18T102 5Q102 -10 95 -20T72 -30Q68 -30 63 -29T52 -25T43 -17T39 -4Q39 1 40 20T41 54Q41 74 39 99T37 146Q37 162 41 171T64 181Q84 181 90 170T99 141Q101 127 101 119T107 100Q112 89 122 77T148
56T184 40T231 33Q247 33 264 36T297 46T321 65T331 95Q331 129 297 144T203 175Q177 181 150 190T100 214T63 255T48 320Q48 357 61 383T97 425T147 449T206 457Q235 457 256 451T293 435T317 414T332 392Q331 405 331 419T330 438Q330 461 341 468T362 475Q373
475 383 467T394 432Q394 411 394 388T392 344T390 307T389 285Q388 271 377 265T357 259Q344 259 338 268T330 284Q330 285 329 291T327 306T323 323T318 336Q306 359 281 377T209 396Q162 396 138 376T114 322Q114 302 123 288T147 264T182 248T225 235Q262 225
294 215T349 191T385 154T399 99Q399 60 382 36T341 -1T287 -19T234 -24Q216 -24 196 -22T158 -13T125 5T101 33Z" />
<glyph unicode="t" glyph-name="t" horiz-adv-x="359" d="M97 404Q78 404 54 403T12 402Q6 402 -5 408T-17 432Q-17 446 -7 452T17 461L68 466Q88 468 92 475T96 500Q96 521 96 545T102 590Q107 610 118 614T134 618Q147 618 157 612T167 575V468Q174 468 194
468T236 470T278 471T303 472Q315 472 327 466T339 443Q339 429 330 423T312 414Q276 410 239 409T167 406V152Q167 136 169 118T176 85T192 59T221 49Q237 49 247 54T264 68T275 85T282 102Q285 110 287 118T294 132T305 143T324 147Q332 147 337 143T344 134T348
124T349 117Q349 103 341 81T316 39T271 4T207 -11Q150 -11 123 30Q113 45 108 62T99 98T96 134T95 165L97 404Z" />
<glyph unicode="u" glyph-name="u" horiz-adv-x="585" d="M432 339Q432 380 405 380H329Q295 380 295 398Q295 417 326 424T430 432Q452 432 466 431T488 426T499 411T503 383Q503 372 503 357T502 316T501 252T500 156Q500 106 500 85T501 60Q501 49 506 44T529
38Q533 38 538 38T560 39Q596 39 596 15Q596 5 589 -2T565 -13T520 -20T450 -22Q439 -22 435 0T430 81Q423 65 410 47T378 14T331 -10T269 -20Q222 -20 191 -3T141 44T113 110T105 187V382Q105 405 101 412T73 420H20Q5 420 -8 424T-21 442Q-21 458 15 465T115
472Q135 472 147 471T167 466T176 452T179 427Q179 414 179 392T177 344T176 292T175 243Q175 211 176 176T188 110T219 60T281 40Q311 40 337 51T384 82T417 127T429 180L432 339Z" />
<glyph unicode="v" glyph-name="v" horiz-adv-x="510" d="M415 349Q408 334 397 305T373 241T347 167T322 97T302 41T291 12Q281 -14 253 -14Q245 -14 233 -10T216 9Q194 79 180 125T153 208T127 281T94 370Q89 384 83 391T70 403T55 408T38 411Q23 413 9 417T-6
434Q-6 446 5 449T30 453Q34 453 58 453T109 453T159 454T186 454Q202 454 213 451T224 433Q224 422 214 415T189 408Q187 408 182 408T173 407T165 403T161 395Q161 392 164 382T176 341T204 254T255 105Q272 159 287 204T313 282T332 335T339 362Q339 372 334
375T311 378Q303 378 299 384T294 400Q294 408 297 412T311 419T342 422T395 423Q442 423 468 423T508 420T525 413T529 402Q529 384 508 381T460 375Q440 373 431 368T415 349Z" />
<glyph unicode="w" glyph-name="w" horiz-adv-x="770" d="M512 95Q528 132 544 174T572 254T593 318T601 353Q601 370 584 370H574Q561 370 556 375T551 388Q551 394 554 399T570 409T607 415T674 417Q713 417 736 416T772 413T789 406T793 394Q793 376 775 373T737
370Q714 370 707 368T694 361Q690 358 682 340T658 281T616 176T551 15Q543 -3 531 -10T511 -17Q494 -17 485 -9T469 28L394 345L291 29Q286 16 278 12T255 8Q241 8 234 13T216 32L83 408Q81 414 78 416T65 418Q37 418 19 420T0 440Q0 457 16 461T65 465H189Q218
465 232 462T246 441Q246 418 208 418H170Q156 418 156 408Q156 405 159 393T173 350T204 262T258 111Q302 242 325 319T356 413Q364 424 374 428T398 433Q409 433 418 429T436 413Q437 409 438 407T441 397T447 370T459 318T479 230T512 95Z" />
<glyph unicode="x" glyph-name="x" horiz-adv-x="555" d="M312 27Q320 29 324 30T329 41Q329 45 322 57T303 86T278 120T252 156Q235 133 226 121T206 94Q201 88 194 77T186 62Q186 58 188 55T204 52Q235 52 243 43T251 26Q251 9 236 5T208 0Q196 0 188 0T172
1T156 1T135 2Q113 2 92 2T57 1Q51 1 44 1T31 5T20 13T15 29Q15 46 35 51T76 59Q90 62 100 66T118 81Q145 116 159 135T183 167T198 187T213 207L112 350Q96 372 84 378T50 386Q21 388 7 393T-8 414Q-8 430 7 436T69 443H184Q205 443 216 440T232 433T239 423T240
411Q240 402 232 393T207 384Q193 384 185 383T176 375Q176 372 182 362T198 336T221 302T251 261L276 298Q288 317 295 329T303 347Q303 350 298 353Q294 355 286 360T277 377Q277 394 289 400T321 407H505Q528 407 528 375Q528 369 522 361T506 352Q464 352 440
351T404 345Q387 339 370 319Q345 290 328 264T290 208Q329 154 354 121T395 68T419 42T434 32Q450 27 462 26T493 23Q509 22 520 17T532 -1Q532 -21 518 -24T489 -28Q464 -28 447 -28T406 -27Q389 -27 375 -27T343 -28Q317 -28 307 -17T296 2Q296 8 299 16T312
27Z" />
<glyph unicode="y" glyph-name="y" horiz-adv-x="603" d="M129 -84Q129 -101 147 -114T195 -128Q212 -128 229 -120T259 -99Q275 -85 287 -63T313 -12L118 343Q113 352 109 357T98 365T84 369T64 370Q26 371 6 374T-14 395Q-14 413 4 420T47 428H198Q224 428 231
421T239 401Q239 390 232 381T205 372Q200 372 197 371T193 359Q193 356 195 347T202 327L340 68L415 300Q423 323 423 338Q423 346 417 350T386 355Q362 355 352 363T341 383Q341 400 347 405T377 411H545Q567 411 583 405T600 383Q600 366 583 361T545 355Q521
354 513 351T499 331L397 44Q378 -10 360 -50T317 -118Q288 -152 256 -167T184 -183Q163 -183 144 -177T109 -157T85 -126T76 -84Q76 -63 82 -47T99 -20T123 -4T150 2Q163 2 174 -5T186 -28Q186 -39 182 -45T172 -54T160 -59T147 -61Q138 -62 134 -69T129 -84Z"
/>
<glyph unicode="z" glyph-name="z" horiz-adv-x="463" d="M115 376L112 322Q110 293 105 275T80 257Q62 257 55 268T48 298V395Q48 412 60 424T101 436Q125 436 141 436T173 435T205 435T246 434Q278 434 318 435T390 436Q407 436 414 431T421 419Q421 409 401
381T349 316T283 238T216 161T165 99T144 66Q144 59 161 59H350Q357 59 359 78L366 151Q368 177 374 191T402 206Q419 206 423 198T427 181L421 85Q420 74 420 53T419 18Q419 -1 405 -1Q370 -1 346 -1T304 0T268 0T229 1Q207 1 183 1T136 0T97 -1T71 -2Q45 -2 34
2T23 20Q23 29 43 57T94 123T161 202T227 279T278 339T299 368Q299 376 290 376H115Z" />
<glyph unicode="{" glyph-name="braceleft" horiz-adv-x="334" d="M193 47Q193 27 195 16T203 0T220 -6T249 -7Q256 -7 268 -7T293 -11T314 -20T323 -36Q323 -44 313 -48T288 -55T260 -57T237 -58H191Q175 -58 163 -55T141 -43T128 -16T123 32V200Q123 252 111
281T84 326T55 344T34 348Q-2 348 -2 374Q-2 388 9 394T40 400Q46 400 59 403T86 422T110 475T121 580Q121 606 121 647T120 747Q120 753 121 767T130 797T154 823T200 835Q207 835 219 835T246 836T273 837T296 838Q304 838 314 835T325 816Q325 805 317 801T297
794L246 788Q226 787 216 782T200 772T194 761T193 753V579Q191 521 179 476Q174 457 166 439T145 406T118 383T81 374Q102 374 117 367T145 347T165 319T179 287Q191 249 193 201V47Z" />
<glyph unicode="|" glyph-name="bar" horiz-adv-x="242" d="M156 802Q156 748 156 690T155 572T155 454T154 342Q154 288 154 228T154 107T154 -14T156 -128Q156 -144 147 -149T121 -155Q107 -155 97 -149T86 -131Q86 -76 86 -15T86 108T87 231T87 348Q87 403
87 462T87 582T87 703T86 818Q86 828 90 834T100 843T112 848T122 850Q141 850 148 834T156 802Z" />
<glyph unicode="}" glyph-name="braceright" horiz-adv-x="334" d="M141 733Q141 753 139 764T131 780T114 786T85 787Q78 787 66 787T41 791T20 800T11 816Q11 824 21 828T46 835T74 837T97 838H143Q159 838 171 835T193 823T206 796T211 748V580Q211 528 223
499T250 454T279 436T300 432Q336 432 336 406Q336 392 325 386T294 380Q288 380 275 377T248 358T224 305T213 200Q213 174 213 133T214 33Q214 27 213 13T204 -17T180 -43T134 -55Q127 -55 115 -55T88 -56T61 -57T38 -58Q30 -58 20 -55T9 -36Q9 -25 17 -21T37
-14L88 -8Q108 -7 118 -2T134 8T140 19T141 27V201Q143 259 155 304Q160 323 168 341T189 374T216 397T253 406Q232 406 217 413T189 433T169 461T155 493Q143 531 141 579V733Z" />
<glyph unicode="~" glyph-name="asciitilde" horiz-adv-x="423" d="M43 552Q45 557 51 564T72 580Q103 598 140 598Q155 598 172 594T208 584T244 575T277 570Q303 570 337 587Q351 595 356 597T367 600Q372 600 378 592T385 572Q385 562 380 553Q370 536 345
522T278 508Q259 508 241 511T205 519T171 528T141 532Q126 532 114 528T91 520T72 511T57 507Q49 507 45 515T40 535Q40 544 43 552Z" />
<glyph unicode="&#xa0;" glyph-name="uni00A0" horiz-adv-x="218" />
<glyph unicode="&#xa1;" glyph-name="exclamdown" horiz-adv-x="245" d="M95 496Q98 513 105 517T124 522Q144 522 149 504T155 451V-172Q155 -187 151 -195T141 -208T129 -212T119 -213Q106 -213 96 -206T85 -172Q85 -137 85 -76T85 56T86 203T88 340T90 446T95
496ZM68 626Q68 644 81 661T125 679Q154 679 169 662T185 624Q185 605 171 588T127 571Q111 571 100 576T81 590T71 607T68 626Z" />
<glyph unicode="&#xa2;" glyph-name="cent" horiz-adv-x="492" d="M405 289Q415 300 421 303T436 307Q447 307 453 300T460 282Q460 276 458 269T451 257Q419 217 383 192T300 158V59Q300 43 292 33T265 22Q249 22 240 33T230 56V156Q182 160 146 180T84 230T47
301T34 387Q34 435 48 477T88 553T150 609T231 639Q231 674 231 709T230 785Q230 795 234 801T244 810T256 815T266 817Q285 817 292 801T300 769Q300 734 300 703T299 641Q329 638 356 629T402 604T433 570T445 528Q445 516 441 503T429 480T408 462T376 455Q348
455 337 470T326 502Q326 514 330 520T340 531T349 540T354 552Q354 562 342 572T299 584Q299 560 299 533T298 466T298 366T298 218Q330 225 356 244T405 289ZM230 217Q230 235 230 255T231 314T231 415T231 578Q173 561 144 510T115 386Q115 317 142 273T230
217Z" />
<glyph unicode="&#xa3;" glyph-name="sterling" horiz-adv-x="626" d="M239 433Q265 434 287 435T325 436Q329 436 337 428T346 405Q346 391 337 382T317 373H239V208Q239 170 232 143T216 99Q206 79 194 66H480Q497 66 507 73T520 97Q521 101 522 110T524 131T527
152T528 170Q528 193 534 211T564 230Q578 230 586 221T595 200Q595 163 592 123T584 29Q584 12 576 6T551 0H63Q46 0 38 7T30 24Q30 41 43 49T74 58Q90 58 106 63T136 86T157 136T166 223Q166 242 167 277T170 372H56Q49 372 40 379T30 404Q30 422 39 428T56 435Q63
435 76 435T106 434T139 434T170 433Q170 478 168 512T166 577Q166 635 176 683T209 766T267 819T351 838Q376 838 395 830T429 810T453 784T467 756Q466 775 466 785T465 800T464 806T464 808Q464 815 470 821T490 828Q513 828 519 821T525 809Q525 787 524 762T522
715Q522 696 523 677T524 639Q524 630 519 619T494 608Q484 608 478 612T467 624T462 639T460 653Q460 671 453 693T433 733T399 765T352 778Q322 778 301 763T266 722T246 658T239 577V433Z" />
<glyph unicode="&#xa4;" glyph-name="currency" horiz-adv-x="560" d="M283 561Q352 561 399 520Q411 533 416 538T424 547Q438 564 447 571T467 579Q481 579 488 570T495 549Q495 544 489 535T473 516T454 495T434 476Q456 435 456 383Q456 352 449 328T428 283Q436
275 447 264T469 242T487 220T495 205Q495 194 487 185T467 175Q457 175 447 182T424 207Q419 210 414 217T392 242Q363 218 330 208T270 197Q240 197 212 205T159 232Q148 220 143 215T136 207Q122 190 113 183T93 175Q79 175 72 184T65 205Q65 209 70 217T84
235T103 255T122 274Q110 294 103 320T96 379Q96 438 122 479Q113 488 103 498T85 517T71 535T65 549Q65 560 72 569T93 579Q103 579 112 572T136 547Q138 544 143 539T159 522Q210 561 283 561ZM273 502Q255 502 237 495T203 472T179 433T169 379Q169 347 179
324T204 286T238 264T272 257Q290 257 309 264T345 286T372 324T383 382Q383 437 354 469T273 502Z" />
<glyph unicode="&#xa5;" glyph-name="yen" horiz-adv-x="780" d="M521 300Q529 300 535 292T542 272Q542 264 536 252T513 239Q493 239 457 239T381 239T306 238T252 238Q241 238 234 248T226 269Q226 280 232 289T252 299Q259 299 274 299T307 298T342 298T373
297Q415 297 456 298T521 300ZM367 366H252Q241 366 234 376T226 397Q226 408 232 417T252 427Q258 427 270 427T296 426T325 426T355 425L367 366ZM409 425Q442 426 472 427T521 428Q529 428 535 420T542 400Q542 392 536 380T513 367Q495 367 463 367T396 366L409
425ZM237 743Q237 737 246 716T269 664T300 598T334 529T364 467T385 423Q390 438 402 462T429 516T461 576T490 634T513 681T522 711Q522 723 508 725T481 727Q465 727 454 732T442 751Q442 763 450 769T481 776H723Q732 776 744 773T756 752Q756 740 746 736T726
731Q715 731 702 730T675 728T652 726T638 725Q616 723 607 714T589 687Q567 646 542 599T493 504T448 412T411 334Q411 285 412 235Q413 192 413 143T414 51H500Q511 51 523 47T535 28Q535 11 528 6T510 0H300Q278 0 264 5T249 26Q249 48 288 48Q294 48 303 48T321
53T336 67T342 94V355Q320 404 304 439T274 502T248 554T223 603T194 660T158 735Q149 753 120 760T56 767Q42 767 31 771T20 789Q20 813 55 813H283Q301 813 310 807T319 789Q319 775 306 771T278 765T250 759T237 743Z" />
<glyph unicode="&#xa6;" glyph-name="brokenbar" horiz-adv-x="241" d="M156 817Q156 766 155 712T154 608Q154 557 155 506T156 404Q156 391 146 386T120 380Q106 380 96 384T86 400Q86 451 86 505T87 610Q87 662 87 716T86 823Q86 828 90 833T99 841T111 847T121
850Q138 850 147 838T156 817ZM154 292Q154 241 153 187T152 82Q152 31 153 -20T154 -123Q154 -143 145 -149T120 -156Q106 -156 96 -149T86 -125Q86 -74 86 -21T87 84Q87 136 87 189T86 295Q86 306 99 310T121 314Q139 314 146 306T154 292Z" />
<glyph unicode="&#xa7;" glyph-name="section" horiz-adv-x="488" d="M79 327Q79 370 96 398T142 442Q116 458 100 483T83 552Q83 589 96 615T132 657T182 681T241 689Q270 689 291 683T328 667T352 646T367 624Q366 637 366 651T365 670Q365 693 376 700T397
707Q408 707 418 699T429 664Q429 643 429 620T427 576T425 539T424 517Q423 503 412 497T392 491Q379 491 373 500T365 516Q365 517 364 523T362 538T358 555T353 568Q341 591 316 609T244 628Q197 628 173 608T149 554Q149 534 158 520T182 496T217 480T260 467Q297
457 329 447T384 423T420 386T434 331Q434 305 426 286T405 253T375 231T340 217Q381 201 405 177T430 106Q430 67 413 43T372 6T318 -12T265 -17Q247 -17 227 -15T189 -6T156 12T132 40Q133 32 133 25T133 12Q133 -3 126 -13T103 -23Q99 -23 94 -22T83 -18T74
-10T70 3Q70 8 71 27T72 61Q72 81 70 106T68 153Q68 169 72 178T95 188Q115 188 121 177T130 148Q132 134 132 126T138 107Q143 96 153 84T179 63T215 47T262 40Q278 40 295 43T328 53T352 72T362 102Q362 136 328 151T234 182Q208 188 181 197T131 221T94 262T79
327ZM145 329Q145 312 153 300T175 278T205 263T239 256Q258 256 280 261T320 275T351 298T363 327Q363 345 350 359T317 382T277 397T240 403Q193 398 169 380T145 329Z" />
<glyph unicode="&#xa8;" glyph-name="dieresis" horiz-adv-x="342" d="M15 575Q15 582 18 591T28 610T45 625T71 631Q91 631 105 617T120 579Q120 543 102 531T64 518Q44 518 30 534T15 575ZM222 552Q222 559 225 568T235 587T252 602T278 608Q298 608 312 594T327
556Q327 520 309 508T271 495Q251 495 237 511T222 552Z" />
<glyph unicode="&#xa9;" glyph-name="copyright" horiz-adv-x="691" d="M647 251Q647 171 618 111T542 12T439 -47T329 -67Q270 -67 218 -45T127 19T66 118T43 244Q43 312 65 369T129 469T226 534T352 558Q422 558 477 534T570 467T627 370T647 251ZM584 252Q584
302 569 346T525 423T451 475T350 494Q294 494 250 476T174 424T126 345T109 244Q109 188 125 143T171 64T242 13T331 -5Q374 -5 419 10T501 58T561 138T584 252ZM424 376Q423 384 423 395T422 416Q422 424 429 431T453 439Q470 439 478 432T487 417Q487 407 487
387T486 347T486 310T486 290Q486 285 479 277T452 269Q438 269 431 274T422 289Q415 315 400 335T349 355Q298 355 271 323T243 236Q243 179 272 152T347 124Q354 124 364 125T385 129T409 140T432 161Q440 171 446 176T465 182Q479 182 485 175T491 159Q491 150
486 142Q463 109 426 87T335 65Q295 65 265 78T213 113T182 166T171 231Q171 270 183 303T218 361T271 400T338 415Q359 415 383 408T424 376Z" />
<glyph unicode="&#xaa;" glyph-name="ordfeminine" horiz-adv-x="271" d="M158 761Q158 777 148 790T112 804Q103 804 95 802T86 792Q86 787 89 786T94 783Q97 782 100 780T104 772Q104 763 96 760T78 756Q47 756 47 785Q47 810 66 824T117 838Q152 838 174 818T197
760Q197 753 197 735T196 703Q196 688 197 682T205 675Q210 675 210 678T213 686Q214 688 217 692T228 697Q238 697 240 691T242 680Q242 664 229 656T198 648Q184 648 173 653T158 672Q132 648 97 648Q68 648 52 662T35 698Q35 720 53 734T104 749Q118 749 131
746T158 734V761ZM76 699Q76 679 109 679Q127 679 137 685T148 700Q148 711 136 715T111 720Q100 720 88 716T76 699Z" />
<glyph unicode="&#xab;" glyph-name="guillemotleft" horiz-adv-x="406" d="M199 516Q199 510 191 495T169 461T141 420T114 378Q126 358 141 337T169 296T190 262T199 241Q199 236 194 230T173 224Q163 224 141 244T97 291T58 343T41 378Q41 389 58 414T97 466T141
513T173 533Q189 533 194 527T199 516ZM342 516Q342 510 334 495T312 461T284 420T257 378Q269 358 284 337T312 296T333 262T342 241Q342 236 337 230T316 224Q306 224 284 244T240 291T201 343T184 378Q184 389 201 414T240 466T284 513T316 533Q332 533 337
527T342 516Z" />
<glyph unicode="&#xac;" glyph-name="logicalnot" horiz-adv-x="390" d="M79 301Q79 301 92 301T122 300T158 300T188 299Q200 299 215 299T246 300T273 301T289 302Q295 302 302 301T316 296T328 281T333 252V180Q332 171 328 165Q324 160 318 156T299 151Q287
151 280 154T270 163T267 173T266 183V215Q266 225 260 230T225 236H78Q67 236 58 245T49 269Q49 290 58 295T79 301Z" />
<glyph unicode="&#xad;" glyph-name="uni00AD" horiz-adv-x="393" d="M314 300Q322 300 328 292T335 272Q335 264 329 252T306 239Q286 239 256 239T193 239T132 238T85 238Q74 238 67 248T59 269Q59 280 65 289T85 299Q92 299 104 299T130 298T158 298T186 297Q228
297 259 298T314 300Z" />
<glyph unicode="&#xae;" glyph-name="registered" horiz-adv-x="692" d="M647 253Q647 172 621 112T552 12T458 -47T354 -67Q291 -67 235 -45T136 19T68 118T43 244Q43 312 65 369T128 469T229 534T364 558Q432 558 485 536T574 473T628 377T647 253ZM584 252Q584
302 568 346T523 423T451 475T355 494Q296 494 250 476T173 424T125 345T109 244Q109 188 128 143T180 64T257 13T353 -5Q395 -5 436 10T510 58T563 138T584 252ZM293 214V117H324Q329 117 335 112T341 95Q341 86 337 80T327 74Q314 74 305 74T283 75Q269 75 250
75T216 74Q206 74 202 80T197 95Q197 105 200 110T209 116Q218 116 221 119T224 136Q224 167 225 195T226 255Q226 287 225 313T223 372Q223 386 221 388T213 391Q205 391 197 396T189 412Q189 423 195 428T212 433Q231 433 245 433T272 434T300 434T337 435Q357
435 379 430T421 413T454 381T467 331Q467 297 457 275T432 240T401 221T373 214Q389 192 406 171Q420 153 435 133T464 98H485Q500 98 506 92T512 76Q512 70 509 66T496 60T468 56T419 55Q414 55 400 72T369 114T332 166T297 214H293ZM397 325Q397 340 390 350T371
365T347 373T321 375Q311 375 301 373Q297 372 293 372V274Q294 274 300 274T308 273Q350 273 373 283T397 325Z" />
<glyph unicode="&#xaf;" glyph-name="overscore" horiz-adv-x="316" d="M285 557Q293 557 299 549T306 529Q306 521 300 509T277 496Q257 496 224 496T154 496T86 495T36 495Q25 495 18 505T10 526Q10 537 16 546T36 556Q43 556 58 556T91 555T126 555T157 554Q199
554 230 555T285 557Z" />
<glyph unicode="&#xb0;" glyph-name="degree" horiz-adv-x="246" d="M215 754Q215 732 207 716T185 690T154 674T119 669Q83 669 58 689T33 752Q33 788 56 812T126 837Q174 837 194 812T215 754ZM125 794Q108 794 99 782T90 752Q90 734 98 722T124 710Q142 710
150 721T158 753Q158 769 150 781T125 794Z" />
<glyph unicode="&#xb1;" glyph-name="plusminus" horiz-adv-x="441" d="M187 541Q187 552 196 558T219 565Q233 565 243 559T254 541Q254 524 254 497T253 440Q286 440 312 442T359 445Q363 445 371 439T380 415Q380 398 371 389T351 379H253V276Q251 269 243
262T218 254Q204 254 195 261T185 276Q185 292 186 322T188 379Q156 378 128 377T86 376Q79 376 70 383T60 408Q60 425 69 432T86 440H190Q190 473 189 498T187 541ZM359 225Q363 225 371 219T380 195Q380 179 371 170T351 161Q329 161 292 161T214 159T139 157T86
156Q79 156 70 163T60 188Q60 205 69 212T86 220H227Q269 220 302 222T359 225Z" />
<glyph unicode="&#xb2;" glyph-name="twosuperior" horiz-adv-x="260" d="M187 553Q193 564 201 568T217 573Q227 573 231 569T235 559Q235 551 227 538T212 512Q210 510 208 507T200 503Q181 503 158 503T112 505Q86 506 61 507Q59 505 54 502T34 498Q23 498
21 502T18 509Q18 513 26 519Q47 535 72 562T118 623T154 690T168 755Q168 769 158 780T128 791Q103 791 89 779T75 762Q75 757 80 755T86 744Q86 728 77 722T60 716Q37 716 31 726T25 750Q25 759 31 774T51 802T84 826T132 836Q181 836 203 812T226 754Q226 725
214 695T185 638T148 587T113 549L182 546L183 547Q183 547 187 553Z" />
<glyph unicode="&#xb3;" glyph-name="threesuperior" horiz-adv-x="245" d="M63 676Q77 686 93 696T123 718T146 745T155 781Q155 800 125 800Q112 800 99 788T77 753Q75 746 69 739T48 731Q43 731 37 736T31 749Q31 759 37 773T56 802T88 826T132 836Q141 836
155 835T182 828T204 812T213 784Q213 759 202 741T176 709T145 688T120 675Q122 675 126 676Q129 676 132 676T140 677Q168 677 192 660T217 609Q217 586 204 565T171 529T126 504T76 495Q53 495 36 503T19 527Q19 538 24 548T40 558Q48 558 52 555T59 547T65
540T76 536Q88 536 102 540T129 552T150 574T159 605Q159 625 145 633T111 642Q94 642 81 638T63 633Q61 633 55 636T49 655Q49 663 55 668T63 676Z" />
<glyph unicode="&#xb4;" glyph-name="acute" horiz-adv-x="154" d="M146 656Q146 645 134 622T105 575T70 531T38 505Q32 503 28 503Q11 503 11 523Q11 532 19 557T40 610T66 659T91 684Q96 686 99 686T106 686Q122 686 134 678T146 656Z" />
<glyph unicode="&#xb5;" glyph-name="mu" horiz-adv-x="660" d="M474 339Q474 359 471 369T447 380H381Q365 380 351 384T337 401Q337 411 350 417T383 427T427 431T472 432Q494 432 508 431T530 426T541 411T545 383Q545 372 545 357T544 316T543 252T542 156Q542
101 542 78T543 50Q543 34 548 32T571 29Q574 29 581 29T601 30Q610 30 624 27T638 9Q638 -2 622 -8T582 -18T533 -21T492 -22Q481 -22 477 0T472 81Q465 65 453 47T421 14T375 -10T313 -20Q280 -20 254 -7T215 32Q216 -23 217 -74T219 -174Q219 -189 212 -200T185
-211Q165 -211 156 -201T146 -177Q148 -114 149 -43T150 115Q150 173 149 239T147 382Q147 405 143 412T115 420H48Q39 420 30 425T21 439Q21 450 38 456T81 466T135 471T187 472Q208 472 214 465T221 427Q221 404 219 351T217 206Q217 174 223 144T242 91T275
54T325 40Q353 40 379 50T426 78T458 120T471 172L474 339Z" />
<glyph unicode="&#xb6;" glyph-name="paragraph" horiz-adv-x="658" d="M389 388Q389 330 389 290T390 213T390 139T391 47Q391 0 348 0Q334 0 325 10T316 37Q316 92 316 127T316 193T317 261T317 356Q265 360 213 375T120 419T53 491T27 595Q27 657 52 700T120
770T222 809T348 821Q390 821 420 821T476 820T530 819T593 818Q611 818 618 812T626 794Q626 769 593 769H559Q527 769 519 757T510 729Q510 679 507 603T504 437Q504 376 504 332T504 246T505 162T505 58Q505 49 504 39T499 20T488 6T468 0Q451 0 442 11T432
32V760Q422 763 413 765T391 767Q391 728 391 682T390 587T390 486T389 388Z" />
<glyph unicode="&#xb7;" glyph-name="middot" horiz-adv-x="211" d="M47 357Q47 366 50 375T60 393T78 406T106 412Q136 412 150 395T164 359Q164 338 149 321T104 304Q73 304 60 321T47 357Z" />
<glyph unicode="&#xb8;" glyph-name="cedilla" horiz-adv-x="228" d="M45 7L64 3L51 -69Q75 -55 92 -48T131 -40Q164 -40 186 -57T208 -103Q208 -123 198 -137T169 -161T128 -176T79 -181Q47 -181 31 -178T14 -161Q14 -154 24 -147T75 -139Q107 -139 124 -134T141
-109Q141 -95 129 -90T110 -85Q96 -85 85 -89T63 -99T42 -108T19 -113Q2 -113 -4 -105T-10 -88Q-10 -85 -9 -80T-7 -71Q-2 -50 0 -26T5 7H45Z" />
<glyph unicode="&#xb9;" glyph-name="onesuperior" horiz-adv-x="197" d="M150 544Q152 544 157 544T166 541T174 535T178 522Q178 507 170 504T154 500H52Q49 500 44 500T34 503T26 509T22 522Q22 534 33 538T47 542Q63 542 69 545T75 561Q75 575 75 585T76 607T78
637T80 683Q80 704 80 716T81 737T82 753T82 769Q82 771 81 777T73 783Q70 783 61 783T47 782Q39 782 30 784T21 802Q21 812 30 817T47 823Q50 823 62 824T87 825T113 826T128 827Q131 827 133 825T136 815Q136 810 135 779Q134 753 133 698T130 544H150Z" />
<glyph unicode="&#xba;" glyph-name="ordmasculine" horiz-adv-x="262" d="M229 744Q229 694 198 670T125 645Q84 645 59 672T33 741Q33 782 57 810T131 838Q178 838 203 810T229 744ZM133 793Q115 793 101 781T86 742Q86 715 100 703T132 690Q152 690 164 702T177
743Q177 766 165 779T133 793Z" />
<glyph unicode="&#xbb;" glyph-name="guillemotright" horiz-adv-x="406" d="M207 516Q207 521 212 527T233 533Q243 533 265 513T309 467T348 415T365 378Q365 368 348 343T309 292T265 245T233 224Q217 224 212 230T207 241Q207 247 215 261T237 295T265 336T292
378Q280 398 265 419T237 460T216 495T207 516ZM64 516Q64 521 69 527T90 533Q100 533 122 513T166 467T205 415T222 378Q222 368 205 343T166 292T122 245T90 224Q74 224 69 230T64 241Q64 247 72 261T94 295T122 336T149 378Q137 398 122 419T94 460T73 495T64
516Z" />
<glyph unicode="&#xbc;" glyph-name="onequarter" horiz-adv-x="566" d="M176 544Q178 544 183 544T192 541T200 535T204 522Q204 507 196 504T180 500H78Q75 500 70 500T60 503T52 509T48 522Q48 534 59 538T73 542Q89 542 95 545T101 561Q101 575 101 585T102
607T104 637T106 683Q106 704 106 716T107 737T108 753T108 769Q108 771 107 777T99 783Q96 783 87 783T73 782Q65 782 56 784T47 802Q47 812 56 817T73 823Q76 823 88 824T113 825T139 826T154 827Q157 827 159 825T162 815Q162 810 161 779Q160 753 159 698T156
544H176ZM34 18Q68 86 90 129T126 200T148 242T162 267T174 286T189 310T213 352T252 423Q283 480 303 516T336 578T357 620T375 658T398 704T432 774Q447 805 459 818T496 831Q514 831 517 822T521 807Q521 799 516 787T507 768L102 5Q97 -6 86 -12T60 -19Q51
-19 42 -11T32 9Q32 15 34 18ZM491 79Q489 71 488 62T487 50Q487 44 490 42T496 40Q502 40 513 38T525 20Q525 6 516 4T496 1H387Q380 1 372 5T364 20Q364 28 370 32T385 37Q394 38 402 38T414 40Q422 42 427 44T434 55L438 79Q422 79 407 79T376 78Q354 77 333
77T302 76Q276 76 276 89Q276 94 278 100T290 118Q318 156 337 182T373 230T404 272T442 320Q444 323 454 329T474 335Q476 335 481 335T491 332T500 324T504 309Q504 307 503 287T499 239T495 179T491 123H504Q531 123 531 101Q531 96 526 88T507 79H491ZM358
121Q361 121 385 121T437 124L447 256L357 133Q356 131 354 129T352 125Q352 121 358 121Z" />
<glyph unicode="&#xbd;" glyph-name="onehalf" horiz-adv-x="575" d="M177 544Q179 544 184 544T193 541T201 535T205 522Q205 507 197 504T181 500H79Q76 500 71 500T61 503T53 509T49 522Q49 534 60 538T74 542Q90 542 96 545T102 561Q102 575 102 585T103 607T105
637T107 683Q107 704 107 716T108 737T109 753T109 769Q109 771 108 777T100 783Q97 783 88 783T74 782Q66 782 57 784T48 802Q48 812 57 817T74 823Q77 823 89 824T114 825T140 826T155 827Q158 827 160 825T163 815Q163 810 162 779Q161 753 160 698T157 544H177ZM35
18Q69 86 91 129T127 200T149 242T163 267T175 286T190 310T214 352T253 423Q284 480 304 516T337 578T358 620T376 658T399 704T433 774Q448 805 460 818T497 831Q515 831 518 822T522 807Q522 799 517 787T508 768L103 5Q98 -6 87 -12T61 -19Q52 -19 43 -11T33
9Q33 15 35 18ZM491 53Q497 64 505 68T521 73Q531 73 535 69T539 59Q539 51 531 38T516 12Q514 10 512 7T504 3Q485 3 462 3T416 5Q390 6 365 7Q363 5 358 2T338 -2Q327 -2 325 2T322 9Q322 13 330 19Q351 35 376 62T422 123T458 190T472 255Q472 269 462 280T432
291Q407 291 393 279T379 262Q379 257 384 255T390 244Q390 228 381 222T364 216Q341 216 335 226T329 250Q329 259 335 274T355 302T388 326T436 336Q485 336 507 312T530 254Q530 225 518 195T489 138T452 87T417 49L486 46L487 47Q487 47 491 53Z" />
<glyph unicode="&#xbe;" glyph-name="threequarters" horiz-adv-x="565" d="M79 676Q93 686 109 696T139 718T162 745T171 781Q171 800 141 800Q128 800 115 788T93 753Q91 746 85 739T64 731Q59 731 53 736T47 749Q47 759 53 773T72 802T104 826T148 836Q157
836 171 835T198 828T220 812T229 784Q229 759 218 741T192 709T161 688T136 675Q138 675 142 676Q145 676 148 676T156 677Q184 677 208 660T233 609Q233 586 220 565T187 529T142 504T92 495Q69 495 52 503T35 527Q35 538 40 548T56 558Q64 558 68 555T75 547T81
540T92 536Q104 536 118 540T145 552T166 574T175 605Q175 625 161 633T127 642Q110 642 97 638T79 633Q77 633 71 636T65 655Q65 663 71 668T79 676ZM37 18Q71 86 93 129T129 200T151 242T165 267T177 286T192 310T216 352T255 423Q286 480 306 516T339 578T360
620T378 658T401 704T435 774Q450 805 462 818T499 831Q517 831 520 822T524 807Q524 799 519 787T510 768L105 5Q100 -6 89 -12T63 -19Q54 -19 45 -11T35 9Q35 15 37 18ZM490 79Q488 71 487 62T486 50Q486 44 489 42T495 40Q501 40 512 38T524 20Q524 6 515 4T495
1H386Q379 1 371 5T363 20Q363 28 369 32T384 37Q393 38 401 38T413 40Q421 42 426 44T433 55L437 79Q421 79 406 79T375 78Q353 77 332 77T301 76Q275 76 275 89Q275 94 277 100T289 118Q317 156 336 182T372 230T403 272T441 320Q443 323 453 329T473 335Q475
335 480 335T490 332T499 324T503 309Q503 307 502 287T498 239T494 179T490 123H503Q530 123 530 101Q530 96 525 88T506 79H490ZM357 121Q360 121 384 121T436 124L446 256L356 133Q355 131 353 129T351 125Q351 121 357 121Z" />
<glyph unicode="&#xbf;" glyph-name="questiondown" horiz-adv-x="575" d="M384 126Q384 142 401 157T445 173Q472 173 491 161T522 128T539 81T545 26Q545 -31 526 -73T472 -144T394 -187T298 -202Q257 -202 210 -191T121 -153T53 -79T26 37Q26 89 44 133T88
211T145 272T202 314Q230 332 257 347T306 378T341 413T355 455Q355 474 350 494T344 532Q344 547 352 556T377 565Q395 565 403 555T413 533Q415 522 416 506T417 477Q417 428 397 396T345 339T278 295T209 249Q191 235 172 215T137 167T111 107T101 35Q101 -12
118 -45T164 -99T229 -131T302 -141Q341 -141 374 -127T431 -88T468 -31T481 36Q481 76 471 96T446 116Q440 116 437 113T432 105T425 97T413 93Q397 93 391 106T384 126ZM297 665Q297 674 300 683T310 701T328 714T356 720Q386 720 400 703T414 667Q414 646 399
629T354 612Q323 612 310 629T297 665Z" />
<glyph unicode="&#xc0;" glyph-name="Agrave" horiz-adv-x="698" d="M291 941Q291 955 299 963T323 972Q334 972 352 961T387 935T416 903T429 877Q429 867 423 861T405 854Q394 854 375 863T338 885T305 914T291 941ZM600 23Q606 0 635 -4T713 -9Q727 -9 740
-13T754 -31Q754 -45 745 -50T719 -55H486Q468 -55 462 -51T455 -39Q455 -28 466 -26T490 -21T515 -11T526 15Q526 20 523 35T514 71T503 115T491 160T480 198T473 223H225Q218 203 211 180T197 134T186 93T182 65Q182 59 189 56T208 51T233 49T258 49Q268 49 277
44T287 24Q287 15 280 8T253 0H-14Q-23 0 -30 6T-37 24Q-37 34 -30 39T-12 45Q-5 45 6 46T28 48T47 50T59 51Q80 53 91 62T108 89Q123 131 141 192T179 323T219 466T258 606T291 728T317 816Q319 824 327 830T353 837Q382 837 388 816L600 23ZM356 715Q351 696
343 665T325 596T304 516T282 433T261 355T244 289Q275 288 303 288T363 288Q386 288 410 288T458 289Q446 335 433 388T407 497T380 608T356 715Z" />
<glyph unicode="&#xc1;" glyph-name="Aacute" horiz-adv-x="698" d="M429 941Q429 929 415 914T383 886T345 863T315 854Q304 854 298 860T291 877Q291 887 303 903T333 934T368 961T397 972Q412 972 420 964T429 941ZM600 23Q606 0 635 -4T713 -9Q727 -9 740
-13T754 -31Q754 -45 745 -50T719 -55H486Q468 -55 462 -51T455 -39Q455 -28 466 -26T490 -21T515 -11T526 15Q526 20 523 35T514 71T503 115T491 160T480 198T473 223H225Q218 203 211 180T197 134T186 93T182 65Q182 59 189 56T208 51T233 49T258 49Q268 49 277
44T287 24Q287 15 280 8T253 0H-14Q-23 0 -30 6T-37 24Q-37 34 -30 39T-12 45Q-5 45 6 46T28 48T47 50T59 51Q80 53 91 62T108 89Q123 131 141 192T179 323T219 466T258 606T291 728T317 816Q319 824 327 830T353 837Q382 837 388 816L600 23ZM356 715Q351 696
343 665T325 596T304 516T282 433T261 355T244 289Q275 288 303 288T363 288Q386 288 410 288T458 289Q446 335 433 388T407 497T380 608T356 715Z" />
<glyph unicode="&#xc2;" glyph-name="Acircumflex" horiz-adv-x="698" d="M478 848Q473 848 460 852T430 863T394 879T358 898Q341 888 322 879T287 863T257 852T239 848Q228 848 228 861Q228 877 245 896T285 932T329 960T358 972Q367 972 388 961T432 932T472
897T489 865Q489 858 487 853T478 848ZM600 23Q606 0 635 -4T713 -9Q727 -9 740 -13T754 -31Q754 -45 745 -50T719 -55H486Q468 -55 462 -51T455 -39Q455 -28 466 -26T490 -21T515 -11T526 15Q526 20 523 35T514 71T503 115T491 160T480 198T473 223H225Q218 203
211 180T197 134T186 93T182 65Q182 59 189 56T208 51T233 49T258 49Q268 49 277 44T287 24Q287 15 280 8T253 0H-14Q-23 0 -30 6T-37 24Q-37 34 -30 39T-12 45Q-5 45 6 46T28 48T47 50T59 51Q80 53 91 62T108 89Q123 131 141 192T179 323T219 466T258 606T291
728T317 816Q319 824 327 830T353 837Q382 837 388 816L600 23ZM356 715Q351 696 343 665T325 596T304 516T282 433T261 355T244 289Q275 288 303 288T363 288Q386 288 410 288T458 289Q446 335 433 388T407 497T380 608T356 715Z" />
<glyph unicode="&#xc3;" glyph-name="Atilde" horiz-adv-x="698" d="M600 23Q606 0 635 -4T713 -9Q727 -9 740 -13T754 -31Q754 -45 745 -50T719 -55H486Q468 -55 462 -51T455 -39Q455 -28 466 -26T490 -21T515 -11T526 15Q526 20 523 35T514 71T503 115T491 160T480
198T473 223H225Q218 203 211 180T197 134T186 93T182 65Q182 59 189 56T208 51T233 49T258 49Q268 49 277 44T287 24Q287 15 280 8T253 0H-14Q-23 0 -30 6T-37 24Q-37 34 -30 39T-12 45Q-5 45 6 46T28 48T47 50T59 51Q80 53 91 62T108 89Q123 131 141 192T179
323T219 466T258 606T291 728T317 816Q319 824 327 830T353 837Q382 837 388 816L600 23ZM356 715Q351 696 343 665T325 596T304 516T282 433T261 355T244 289Q275 288 303 288T363 288Q386 288 410 288T458 289Q446 335 433 388T407 497T380 608T356 715ZM197
924Q199 929 205 936T226 952Q257 970 294 970Q309 970 326 966T362 956T398 947T431 942Q457 942 491 959Q505 967 510 969T521 972Q526 972 532 964T539 944Q539 934 534 925Q524 908 499 894T432 880Q413 880 395 883T359 891T325 900T295 904Q280 904 268 900T245
892T226 883T211 879Q203 879 199 887T194 907Q194 916 197 924Z" />
<glyph unicode="&#xc4;" glyph-name="Adieresis" horiz-adv-x="698" d="M200 916Q200 923 203 932T213 951T230 966T256 972Q276 972 290 958T305 920Q305 884 287 872T249 859Q229 859 215 875T200 916ZM407 904Q407 911 410 920T420 939T437 954T463 960Q483
960 497 946T512 908Q512 872 494 860T456 847Q436 847 422 863T407 904ZM600 23Q606 0 635 -4T713 -9Q727 -9 740 -13T754 -31Q754 -45 745 -50T719 -55H486Q468 -55 462 -51T455 -39Q455 -28 466 -26T490 -21T515 -11T526 15Q526 20 523 35T514 71T503 115T491
160T480 198T473 223H225Q218 203 211 180T197 134T186 93T182 65Q182 59 189 56T208 51T233 49T258 49Q268 49 277 44T287 24Q287 15 280 8T253 0H-14Q-23 0 -30 6T-37 24Q-37 34 -30 39T-12 45Q-5 45 6 46T28 48T47 50T59 51Q80 53 91 62T108 89Q123 131 141
192T179 323T219 466T258 606T291 728T317 816Q319 824 327 830T353 837Q382 837 388 816L600 23ZM356 715Q351 696 343 665T325 596T304 516T282 433T261 355T244 289Q275 288 303 288T363 288Q386 288 410 288T458 289Q446 335 433 388T407 497T380 608T356 715Z"
/>
<glyph unicode="&#xc5;" glyph-name="Aring" horiz-adv-x="698" d="M433 914Q433 883 412 868T363 853Q333 853 312 869T291 912Q291 938 311 955T362 972Q433 972 433 914ZM362 938Q354 938 345 933T336 912Q336 897 346 892T363 887Q368 887 378 892T388 913Q388
927 380 932T362 938ZM600 23Q606 0 635 -4T713 -9Q727 -9 740 -13T754 -31Q754 -45 745 -50T719 -55H486Q468 -55 462 -51T455 -39Q455 -28 466 -26T490 -21T515 -11T526 15Q526 20 523 35T514 71T503 115T491 160T480 198T473 223H225Q218 203 211 180T197 134T186
93T182 65Q182 59 189 56T208 51T233 49T258 49Q268 49 277 44T287 24Q287 15 280 8T253 0H-14Q-23 0 -30 6T-37 24Q-37 34 -30 39T-12 45Q-5 45 6 46T28 48T47 50T59 51Q80 53 91 62T108 89Q123 131 141 192T179 323T219 466T258 606T291 728T317 816Q319 824
327 830T353 837Q382 837 388 816L600 23ZM356 715Q351 696 343 665T325 596T304 516T282 433T261 355T244 289Q275 288 303 288T363 288Q386 288 410 288T458 289Q446 335 433 388T407 497T380 608T356 715Z" />
<glyph unicode="&#xc6;" glyph-name="AE" horiz-adv-x="1054" d="M991 320Q1001 320 1006 316T1015 305T1018 291T1019 277Q1019 268 1018 241T1015 177T1009 102T1003 33Q1001 13 992 7T961 0Q892 0 828 1T694 2Q633 2 573 2T451 0Q436 0 421 5T405 24Q405 39
414 43T444 48Q491 48 508 55T525 84Q525 130 525 160T526 223H299Q286 201 272 176T245 128T225 88T217 65Q217 51 226 51T248 49Q258 49 271 45T284 25Q284 11 273 6T242 0Q210 0 181 1T119 2Q87 2 54 1T-11 0Q-25 0 -33 5T-41 22Q-41 34 -32 39T-9 45Q2 45 17
46T46 48T72 50T88 51Q110 53 122 62T145 89Q169 129 197 183T257 300T321 428T383 556T440 671T487 763Q476 768 463 768T438 769Q426 769 412 772T398 792Q398 802 403 808T416 817T432 820T449 821Q482 821 517 821T584 820T643 820T690 819Q732 819 758 819T810
820T866 820T947 821Q961 821 968 814T975 785V651Q975 632 969 617T942 601Q930 601 923 605T913 616T909 630T908 645V727Q908 737 904 743T895 751T883 754T871 755H598V455Q619 454 639 453T682 452Q696 452 713 452T745 453T773 454T790 455Q796 455 799 464T804
485T806 509T807 530Q807 551 816 558T841 566Q858 566 864 555T871 533Q871 504 870 477T869 420Q869 391 870 363T871 307Q871 292 864 283T840 274Q825 274 817 285T809 309Q809 320 807 333T800 359T786 379T761 387Q747 387 729 387T682 388Q661 388 640 388T598
386V66H897Q904 66 911 67T925 71T935 82T940 103Q941 115 943 136T947 182T950 231T953 273Q954 293 962 306T991 320ZM410 287Q439 287 468 287T526 288Q527 314 527 346T527 425Q527 481 526 517T524 581T522 634T521 694V698Q513 678 498 649T465 583T426 508T385
430T348 355T319 289Q342 289 364 288T410 287Z" />
<glyph unicode="&#xc7;" glyph-name="Ccedilla" horiz-adv-x="646" d="M610 219Q610 187 595 147T546 71T460 11T332 -14Q278 -14 225 9T130 83T63 213T37 405Q37 496 61 575T128 712T226 804T345 838Q386 838 418 825T473 791T510 747T533 702Q531 733 530 750T529
775T528 786T528 788Q528 800 535 811T561 823Q573 823 580 819T591 810T596 799T597 790Q597 755 595 713T593 634Q593 602 594 568T595 502Q595 493 589 481T561 468Q543 468 534 479T525 527Q525 576 516 621T485 701T429 756T346 777Q294 777 251 746T177 663T129
544T112 404Q112 331 126 266T168 153T240 76T340 48Q384 48 420 60T482 93T526 142T549 203Q553 223 558 236T581 249Q610 249 610 219ZM361 7L380 3L367 -69Q391 -55 408 -48T447 -40Q480 -40 502 -57T524 -103Q524 -123 514 -137T485 -161T444 -176T395 -181Q363
-181 347 -178T330 -161Q330 -154 340 -147T391 -139Q423 -139 440 -134T457 -109Q457 -95 445 -90T426 -85Q412 -85 401 -89T379 -99T358 -108T335 -113Q318 -113 312 -105T306 -88Q306 -85 307 -80T309 -71Q314 -50 316 -26T321 7H361Z" />
<glyph unicode="&#xc8;" glyph-name="Egrave" horiz-adv-x="667" d="M275 941Q275 955 283 963T307 972Q318 972 336 961T371 935T400 903T413 877Q413 867 407 861T389 854Q378 854 359 863T322 885T289 914T275 941ZM602 315Q616 315 624 306T632 282Q632 273
631 245T627 179T622 103T616 33Q614 8 604 4T574 0Q513 0 456 1T337 2Q276 2 211 1T84 0Q67 0 53 3T38 21Q38 37 47 42T77 48Q106 48 122 55T138 84Q138 117 138 142T138 189T139 233T139 282T140 343T140 425Q140 478 139 520T137 598T135 666T134 730Q134 745
128 752T114 764T96 768T81 769Q64 769 53 775T41 794Q41 812 54 816T82 821Q115 821 151 821T222 820T285 820T333 819Q370 819 393 819T439 820T489 820T560 821Q574 821 581 814T588 785V646Q588 622 581 611T557 600Q535 600 528 613T521 640V727Q521 737 517
743T508 751T496 754T484 755H211V455Q239 454 260 453T310 452Q322 452 336 452T364 453T388 454T403 455Q409 455 412 464T417 485T419 511T420 532Q420 543 427 554T452 566Q466 566 475 559T484 535Q484 506 483 478T482 420Q482 391 483 362T484 304Q484 287
475 282T453 277Q434 277 428 285T422 306Q422 317 420 331T413 357T398 378T374 387Q363 387 348 387T310 388Q281 388 261 388T211 386V66H510Q517 66 524 67T538 71T548 82T553 103Q554 115 556 137T560 184T563 235T566 278Q567 299 578 307T602 315Z" />
<glyph unicode="&#xc9;" glyph-name="Eacute" horiz-adv-x="667" d="M429 941Q429 929 415 914T383 886T345 863T315 854Q304 854 298 860T291 877Q291 887 303 903T333 934T368 961T397 972Q412 972 420 964T429 941ZM602 315Q616 315 624 306T632 282Q632 273
631 245T627 179T622 103T616 33Q614 8 604 4T574 0Q513 0 456 1T337 2Q276 2 211 1T84 0Q67 0 53 3T38 21Q38 37 47 42T77 48Q106 48 122 55T138 84Q138 117 138 142T138 189T139 233T139 282T140 343T140 425Q140 478 139 520T137 598T135 666T134 730Q134 745
128 752T114 764T96 768T81 769Q64 769 53 775T41 794Q41 812 54 816T82 821Q115 821 151 821T222 820T285 820T333 819Q370 819 393 819T439 820T489 820T560 821Q574 821 581 814T588 785V646Q588 622 581 611T557 600Q535 600 528 613T521 640V727Q521 737 517
743T508 751T496 754T484 755H211V455Q239 454 260 453T310 452Q322 452 336 452T364 453T388 454T403 455Q409 455 412 464T417 485T419 511T420 532Q420 543 427 554T452 566Q466 566 475 559T484 535Q484 506 483 478T482 420Q482 391 483 362T484 304Q484 287
475 282T453 277Q434 277 428 285T422 306Q422 317 420 331T413 357T398 378T374 387Q363 387 348 387T310 388Q281 388 261 388T211 386V66H510Q517 66 524 67T538 71T548 82T553 103Q554 115 556 137T560 184T563 235T566 278Q567 299 578 307T602 315Z" />
<glyph unicode="&#xca;" glyph-name="Ecircumflex" horiz-adv-x="667" d="M468 847Q463 847 450 851T420 862T384 878T348 898Q331 888 312 879T277 862T247 851T229 847Q218 847 218 860Q218 876 235 895T275 932T319 960T348 972Q357 972 378 960T422 932T462
896T479 864Q479 857 477 852T468 847ZM602 315Q616 315 624 306T632 282Q632 273 631 245T627 179T622 103T616 33Q614 8 604 4T574 0Q513 0 456 1T337 2Q276 2 211 1T84 0Q67 0 53 3T38 21Q38 37 47 42T77 48Q106 48 122 55T138 84Q138 117 138 142T138 189T139
233T139 282T140 343T140 425Q140 478 139 520T137 598T135 666T134 730Q134 745 128 752T114 764T96 768T81 769Q64 769 53 775T41 794Q41 812 54 816T82 821Q115 821 151 821T222 820T285 820T333 819Q370 819 393 819T439 820T489 820T560 821Q574 821 581 814T588
785V646Q588 622 581 611T557 600Q535 600 528 613T521 640V727Q521 737 517 743T508 751T496 754T484 755H211V455Q239 454 260 453T310 452Q322 452 336 452T364 453T388 454T403 455Q409 455 412 464T417 485T419 511T420 532Q420 543 427 554T452 566Q466 566
475 559T484 535Q484 506 483 478T482 420Q482 391 483 362T484 304Q484 287 475 282T453 277Q434 277 428 285T422 306Q422 317 420 331T413 357T398 378T374 387Q363 387 348 387T310 388Q281 388 261 388T211 386V66H510Q517 66 524 67T538 71T548 82T553 103Q554
115 556 137T560 184T563 235T566 278Q567 299 578 307T602 315Z" />
<glyph unicode="&#xcb;" glyph-name="Edieresis" horiz-adv-x="667" d="M188 916Q188 923 191 932T201 951T218 966T244 972Q264 972 278 958T293 920Q293 884 275 872T237 859Q217 859 203 875T188 916ZM395 904Q395 911 398 920T408 939T425 954T451 960Q471
960 485 946T500 908Q500 872 482 860T444 847Q424 847 410 863T395 904ZM602 315Q616 315 624 306T632 282Q632 273 631 245T627 179T622 103T616 33Q614 8 604 4T574 0Q513 0 456 1T337 2Q276 2 211 1T84 0Q67 0 53 3T38 21Q38 37 47 42T77 48Q106 48 122 55T138
84Q138 117 138 142T138 189T139 233T139 282T140 343T140 425Q140 478 139 520T137 598T135 666T134 730Q134 745 128 752T114 764T96 768T81 769Q64 769 53 775T41 794Q41 812 54 816T82 821Q115 821 151 821T222 820T285 820T333 819Q370 819 393 819T439 820T489
820T560 821Q574 821 581 814T588 785V646Q588 622 581 611T557 600Q535 600 528 613T521 640V727Q521 737 517 743T508 751T496 754T484 755H211V455Q239 454 260 453T310 452Q322 452 336 452T364 453T388 454T403 455Q409 455 412 464T417 485T419 511T420 532Q420
543 427 554T452 566Q466 566 475 559T484 535Q484 506 483 478T482 420Q482 391 483 362T484 304Q484 287 475 282T453 277Q434 277 428 285T422 306Q422 317 420 331T413 357T398 378T374 387Q363 387 348 387T310 388Q281 388 261 388T211 386V66H510Q517 66
524 67T538 71T548 82T553 103Q554 115 556 137T560 184T563 235T566 278Q567 299 578 307T602 315Z" />
<glyph unicode="&#xcc;" glyph-name="Igrave" horiz-adv-x="354" d="M103 941Q103 955 111 963T135 972Q146 972 164 961T199 935T228 903T241 877Q241 867 235 861T217 854Q206 854 187 863T150 885T117 914T103 941ZM214 51H305Q316 51 325 44T335 23Q335 17
332 9T315 0H83Q68 0 55 4T42 23Q42 37 52 42T71 48Q79 48 90 48T113 53T131 67T139 94Q139 171 141 245T143 401Q143 484 141 574T139 748Q139 757 131 761T110 768T86 770T64 771Q59 771 53 772T41 775T31 783T27 796Q27 813 41 817T64 821H266Q298 821 307 815T317
796Q317 782 305 777T280 771Q276 771 266 771T244 768T223 761T214 746V51Z" />
<glyph unicode="&#xcd;" glyph-name="Iacute" horiz-adv-x="354" d="M240 941Q240 929 226 914T194 886T156 863T126 854Q115 854 109 860T102 877Q102 887 114 903T144 934T179 961T208 972Q223 972 231 964T240 941ZM214 51H305Q316 51 325 44T335 23Q335 17
332 9T315 0H83Q68 0 55 4T42 23Q42 37 52 42T71 48Q79 48 90 48T113 53T131 67T139 94Q139 171 141 245T143 401Q143 484 141 574T139 748Q139 757 131 761T110 768T86 770T64 771Q59 771 53 772T41 775T31 783T27 796Q27 813 41 817T64 821H266Q298 821 307 815T317
796Q317 782 305 777T280 771Q276 771 266 771T244 768T223 761T214 746V51Z" />
<glyph unicode="&#xce;" glyph-name="Icircumflex" horiz-adv-x="354" d="M291 847Q286 847 273 851T243 862T207 878T171 898Q154 888 135 879T100 862T70 851T52 847Q41 847 41 860Q41 876 58 895T98 932T142 960T171 972Q180 972 201 960T245 932T285 896T302
864Q302 857 300 852T291 847ZM214 51H305Q316 51 325 44T335 23Q335 17 332 9T315 0H83Q68 0 55 4T42 23Q42 37 52 42T71 48Q79 48 90 48T113 53T131 67T139 94Q139 171 141 245T143 401Q143 484 141 574T139 748Q139 757 131 761T110 768T86 770T64 771Q59 771
53 772T41 775T31 783T27 796Q27 813 41 817T64 821H266Q298 821 307 815T317 796Q317 782 305 777T280 771Q276 771 266 771T244 768T223 761T214 746V51Z" />
<glyph unicode="&#xcf;" glyph-name="Idieresis" horiz-adv-x="354" d="M17 916Q17 923 20 932T30 951T47 966T73 972Q93 972 107 958T122 920Q122 884 104 872T66 859Q46 859 32 875T17 916ZM224 904Q224 911 227 920T237 939T254 954T280 960Q300 960 314 946T329
908Q329 872 311 860T273 847Q253 847 239 863T224 904ZM214 51H305Q316 51 325 44T335 23Q335 17 332 9T315 0H83Q68 0 55 4T42 23Q42 37 52 42T71 48Q79 48 90 48T113 53T131 67T139 94Q139 171 141 245T143 401Q143 484 141 574T139 748Q139 757 131 761T110
768T86 770T64 771Q59 771 53 772T41 775T31 783T27 796Q27 813 41 817T64 821H266Q298 821 307 815T317 796Q317 782 305 777T280 771Q276 771 266 771T244 768T223 761T214 746V51Z" />
<glyph unicode="&#xd0;" glyph-name="Eth" horiz-adv-x="700" d="M326 444Q334 444 340 433T347 412Q347 408 346 402T341 390T333 380T318 375Q298 375 265 375T195 375T127 374T77 374Q66 374 59 387T51 409Q51 419 57 431T77 443Q84 443 99 443T132 442T167
442T198 441Q240 441 271 442T326 444ZM65 818Q115 820 167 820T281 821Q344 821 412 801T536 736T628 618T664 439Q664 349 640 269T566 130T443 35T271 0H77Q60 0 51 5T41 24Q41 37 48 42T72 48Q81 48 92 48T115 51T133 58T141 72Q141 127 141 165T141 241T142
324T142 437Q142 455 141 494T139 577T136 662T135 727Q135 742 130 750T115 763T93 768T67 769Q55 769 50 776T44 794Q44 802 49 809T65 818ZM275 756Q260 756 244 755T213 752V74Q213 70 219 68T235 65T255 64T275 64Q357 64 416 92T514 171T571 290T589 439Q589
504 571 562T514 663T416 731T275 756Z" />
<glyph unicode="&#xd1;" glyph-name="Ntilde" horiz-adv-x="824" d="M213 708V51H313Q324 51 333 46T343 25Q343 0 323 0H97Q83 0 70 4T56 25Q56 38 66 43T85 48Q91 48 98 48T113 53T126 67T133 94Q135 162 138 237T142 388Q142 474 141 565T139 738Q139 753 123
758T86 766T50 777T33 804Q33 821 91 821H229Q241 821 248 814T269 781Q285 751 314 697T378 578T451 442T521 309T578 200T611 132V731Q611 740 605 744T590 751T572 753T556 754Q545 754 532 759T519 781Q519 804 556 804H762Q794 804 803 799T813 781Q813 764
801 759T776 754Q771 754 757 754T726 751T698 744T685 729Q684 674 684 633T683 552T682 469T681 368Q681 335 681 290T682 197T682 103T683 21Q683 7 674 -2T648 -11Q634 -11 623 -7T607 6L213 708ZM253 924Q255 929 261 936T282 952Q313 970 350 970Q365 970
382 966T418 956T454 947T487 942Q513 942 547 959Q561 967 566 969T577 972Q582 972 588 964T595 944Q595 934 590 925Q580 908 555 894T488 880Q469 880 451 883T415 891T381 900T351 904Q336 904 324 900T301 892T282 883T267 879Q259 879 255 887T250 907Q250
916 253 924Z" />
<glyph unicode="&#xd2;" glyph-name="Ograve" horiz-adv-x="709" d="M293 941Q293 955 301 963T325 972Q336 972 354 961T389 935T418 903T431 877Q431 867 425 861T407 854Q396 854 377 863T340 885T307 914T293 941ZM112 400Q112 319 129 254T178 143T254 73T351
48Q406 48 451 71T529 139T578 252T596 410Q596 486 581 553T536 670T466 748T373 777Q308 777 259 743T178 655T129 534T112 400ZM37 404Q37 455 46 507T72 607T117 697T181 771T264 820T367 838Q442 838 499 804T594 710T652 573T671 408Q671 327 657 264T618
153T561 74T493 22T420 -7T349 -16Q286 -16 230 8T130 84T62 214T37 404Z" />
<glyph unicode="&#xd3;" glyph-name="Oacute" horiz-adv-x="709" d="M429 941Q429 929 415 914T383 886T345 863T315 854Q304 854 298 860T291 877Q291 887 303 903T333 934T368 961T397 972Q412 972 420 964T429 941ZM112 400Q112 319 129 254T178 143T254 73T351
48Q406 48 451 71T529 139T578 252T596 410Q596 486 581 553T536 670T466 748T373 777Q308 777 259 743T178 655T129 534T112 400ZM37 404Q37 455 46 507T72 607T117 697T181 771T264 820T367 838Q442 838 499 804T594 710T652 573T671 408Q671 327 657 264T618
153T561 74T493 22T420 -7T349 -16Q286 -16 230 8T130 84T62 214T37 404Z" />
<glyph unicode="&#xd4;" glyph-name="Ocircumflex" horiz-adv-x="709" d="M473 847Q468 847 455 851T425 862T389 878T353 898Q336 888 317 879T282 862T252 851T234 847Q223 847 223 860Q223 876 240 895T280 932T324 960T353 972Q362 972 383 960T427 932T467
896T484 864Q484 857 482 852T473 847ZM112 400Q112 319 129 254T178 143T254 73T351 48Q406 48 451 71T529 139T578 252T596 410Q596 486 581 553T536 670T466 748T373 777Q308 777 259 743T178 655T129 534T112 400ZM37 404Q37 455 46 507T72 607T117 697T181
771T264 820T367 838Q442 838 499 804T594 710T652 573T671 408Q671 327 657 264T618 153T561 74T493 22T420 -7T349 -16Q286 -16 230 8T130 84T62 214T37 404Z" />
<glyph unicode="&#xd5;" glyph-name="Otilde" horiz-adv-x="709" d="M112 400Q112 319 129 254T178 143T254 73T351 48Q406 48 451 71T529 139T578 252T596 410Q596 486 581 553T536 670T466 748T373 777Q308 777 259 743T178 655T129 534T112 400ZM37 404Q37
455 46 507T72 607T117 697T181 771T264 820T367 838Q442 838 499 804T594 710T652 573T671 408Q671 327 657 264T618 153T561 74T493 22T420 -7T349 -16Q286 -16 230 8T130 84T62 214T37 404ZM175 924Q177 929 183 936T204 952Q235 970 272 970Q287 970 304 966T340
956T376 947T409 942Q435 942 469 959Q483 967 488 969T499 972Q504 972 510 964T517 944Q517 934 512 925Q502 908 477 894T410 880Q391 880 373 883T337 891T303 900T273 904Q258 904 246 900T223 892T204 883T189 879Q181 879 177 887T172 907Q172 916 175 924Z"
/>
<glyph unicode="&#xd6;" glyph-name="Odieresis" horiz-adv-x="709" d="M207 916Q207 923 210 932T220 951T237 966T263 972Q283 972 297 958T312 920Q312 884 294 872T256 859Q236 859 222 875T207 916ZM414 904Q414 911 417 920T427 939T444 954T470 960Q490
960 504 946T519 908Q519 872 501 860T463 847Q443 847 429 863T414 904ZM112 400Q112 319 129 254T178 143T254 73T351 48Q406 48 451 71T529 139T578 252T596 410Q596 486 581 553T536 670T466 748T373 777Q308 777 259 743T178 655T129 534T112 400ZM37 404Q37
455 46 507T72 607T117 697T181 771T264 820T367 838Q442 838 499 804T594 710T652 573T671 408Q671 327 657 264T618 153T561 74T493 22T420 -7T349 -16Q286 -16 230 8T130 84T62 214T37 404Z" />
<glyph unicode="&#xd7;" glyph-name="multiply" horiz-adv-x="371" d="M321 281Q321 269 315 261T293 252Q280 252 264 265T233 296T204 333T182 365Q176 359 164 342T136 307T106 276T79 262Q72 262 64 267T55 290Q55 301 64 310T81 330Q106 361 116 373T129
390T135 397T147 412Q115 454 97 477T68 511T56 525T53 533Q53 547 60 556T82 565Q93 565 102 557T124 530Q125 528 128 524T138 511T155 490T182 455L231 524Q251 552 264 558T288 565Q293 565 302 561T312 545Q312 537 306 530Q282 501 260 470T216 409Q232 382
250 362T284 327T310 300T321 281Z" />
<glyph unicode="&#xd8;" glyph-name="Oslash" horiz-adv-x="709" d="M112 400Q112 319 129 254T178 143T254 73T351 48Q406 48 451 71T529 139T578 252T596 410Q596 486 581 553T536 670T466 748T373 777Q308 777 259 743T178 655T129 534T112 400ZM37 404Q37
455 46 507T72 607T117 697T181 771T264 820T367 838Q442 838 499 804T594 710T652 573T671 408Q671 327 657 264T618 153T561 74T493 22T420 -7T349 -16Q286 -16 230 8T130 84T62 214T37 404ZM112 18Q146 86 168 129T204 200T226 242T240 267T252 286T267 310T291
352T330 423Q361 480 381 516T414 578T435 620T453 658T476 704T510 774Q525 805 537 818T574 831Q592 831 595 822T599 807Q599 799 594 787T585 768L180 5Q175 -6 164 -12T138 -19Q129 -19 120 -11T110 9Q110 15 112 18Z" />
<glyph unicode="&#xd9;" glyph-name="Ugrave" horiz-adv-x="772" d="M325 941Q325 955 333 963T357 972Q368 972 386 961T421 935T450 903T463 877Q463 867 457 861T439 854Q428 854 409 863T372 885T339 914T325 941ZM184 323Q184 269 188 220T211 132T270 71T383
48Q437 48 474 67T535 119T568 191T578 272V694Q578 703 571 707T555 714T535 716T518 717Q507 717 494 722T481 742Q481 767 518 767H714Q746 767 755 762T765 742Q765 725 753 721T728 717Q723 717 710 717T683 714T659 707T648 692Q648 641 647 592T646 492Q646
437 647 382T648 272Q648 198 629 144T574 55T490 3T382 -14Q336 -14 296 -6T223 20T167 63T134 125Q119 176 117 227T114 334Q114 366 114 399T115 467Q115 537 114 607T113 748Q113 757 106 761T90 768T70 770T53 771Q42 771 29 774T16 796Q16 812 30 816T53
821H250Q282 821 291 816T301 796Q301 782 289 777T264 771Q259 771 246 771T220 768T195 761T184 746V323Z" />
<glyph unicode="&#xda;" glyph-name="Uacute" horiz-adv-x="772" d="M466 941Q466 929 452 914T420 886T382 863T352 854Q341 854 335 860T328 877Q328 887 340 903T370 934T405 961T434 972Q449 972 457 964T466 941ZM184 323Q184 269 188 220T211 132T270 71T383
48Q437 48 474 67T535 119T568 191T578 272V694Q578 703 571 707T555 714T535 716T518 717Q507 717 494 722T481 742Q481 767 518 767H714Q746 767 755 762T765 742Q765 725 753 721T728 717Q723 717 710 717T683 714T659 707T648 692Q648 641 647 592T646 492Q646
437 647 382T648 272Q648 198 629 144T574 55T490 3T382 -14Q336 -14 296 -6T223 20T167 63T134 125Q119 176 117 227T114 334Q114 366 114 399T115 467Q115 537 114 607T113 748Q113 757 106 761T90 768T70 770T53 771Q42 771 29 774T16 796Q16 812 30 816T53
821H250Q282 821 291 816T301 796Q301 782 289 777T264 771Q259 771 246 771T220 768T195 761T184 746V323Z" />
<glyph unicode="&#xdb;" glyph-name="Ucircumflex" horiz-adv-x="772" d="M512 847Q507 847 494 851T464 862T428 878T392 898Q375 888 356 879T321 862T291 851T273 847Q262 847 262 860Q262 876 279 895T319 932T363 960T392 972Q401 972 422 960T466 932T506
896T523 864Q523 857 521 852T512 847ZM184 323Q184 269 188 220T211 132T270 71T383 48Q437 48 474 67T535 119T568 191T578 272V694Q578 703 571 707T555 714T535 716T518 717Q507 717 494 722T481 742Q481 767 518 767H714Q746 767 755 762T765 742Q765 725
753 721T728 717Q723 717 710 717T683 714T659 707T648 692Q648 641 647 592T646 492Q646 437 647 382T648 272Q648 198 629 144T574 55T490 3T382 -14Q336 -14 296 -6T223 20T167 63T134 125Q119 176 117 227T114 334Q114 366 114 399T115 467Q115 537 114 607T113
748Q113 757 106 761T90 768T70 770T53 771Q42 771 29 774T16 796Q16 812 30 816T53 821H250Q282 821 291 816T301 796Q301 782 289 777T264 771Q259 771 246 771T220 768T195 761T184 746V323Z" />
<glyph unicode="&#xdc;" glyph-name="Udieresis" horiz-adv-x="772" d="M240 916Q240 923 243 932T253 951T270 966T296 972Q316 972 330 958T345 920Q345 884 327 872T289 859Q269 859 255 875T240 916ZM447 904Q447 911 450 920T460 939T477 954T503 960Q523
960 537 946T552 908Q552 872 534 860T496 847Q476 847 462 863T447 904ZM184 323Q184 269 188 220T211 132T270 71T383 48Q437 48 474 67T535 119T568 191T578 272V694Q578 703 571 707T555 714T535 716T518 717Q507 717 494 722T481 742Q481 767 518 767H714Q746
767 755 762T765 742Q765 725 753 721T728 717Q723 717 710 717T683 714T659 707T648 692Q648 641 647 592T646 492Q646 437 647 382T648 272Q648 198 629 144T574 55T490 3T382 -14Q336 -14 296 -6T223 20T167 63T134 125Q119 176 117 227T114 334Q114 366 114
399T115 467Q115 537 114 607T113 748Q113 757 106 761T90 768T70 770T53 771Q42 771 29 774T16 796Q16 812 30 816T53 821H250Q282 821 291 816T301 796Q301 782 289 777T264 771Q259 771 246 771T220 768T195 761T184 746V323Z" />
<glyph unicode="&#xdd;" glyph-name="Yacute" horiz-adv-x="660" d="M407 941Q407 929 393 914T361 886T323 863T293 854Q282 854 276 860T269 877Q269 887 281 903T311 934T346 961T375 972Q390 972 398 964T407 941ZM188 743Q188 737 197 716T220 664T251 598T285
529T315 467T336 423Q341 438 353 462T380 516T412 576T441 634T464 681T473 711Q473 723 459 725T432 727Q416 727 405 732T393 751Q393 763 401 769T432 776H674Q683 776 695 773T707 752Q707 740 697 736T677 731Q666 731 653 730T626 728T603 726T589 725Q567
723 558 714T540 687Q518 646 493 599T444 504T399 412T362 334Q362 285 363 235Q364 192 364 143T365 51H451Q462 51 474 47T486 28Q486 11 479 6T461 0H251Q229 0 215 5T200 26Q200 48 239 48Q245 48 254 48T272 53T287 67T293 94V355Q271 404 255 439T225 502T199
554T174 603T145 660T109 735Q100 753 71 760T7 767Q-7 767 -18 771T-29 789Q-29 813 6 813H234Q252 813 261 807T270 789Q270 775 257 771T229 765T201 759T188 743Z" />
<glyph unicode="&#xde;" glyph-name="Thorn" horiz-adv-x="633" d="M91 48Q109 48 118 53T132 65T137 79T138 92Q138 129 138 155T138 203T138 242T139 281T139 330T139 395Q139 440 138 488T136 582T134 666T133 730Q133 745 125 757T84 770H80Q58 770 50 776T42
793Q42 819 80 819Q97 819 125 819T184 820T240 820T278 821Q285 821 294 821T310 818T323 810T328 797Q328 788 323 783T309 775T292 772T276 771Q267 771 256 771T234 767T217 758T210 740V648Q234 649 261 649T325 649Q386 649 439 637T531 598T593 528T616
423Q616 355 584 309T503 235T393 194T277 182Q268 182 257 182T235 183Q223 183 211 184V51H308Q330 51 345 46T361 25Q361 6 346 3T306 0H110Q72 0 56 5T39 24Q39 35 50 41T91 48ZM283 585Q264 585 246 583T211 578V248Q220 247 231 247Q240 246 251 246T276
246Q291 246 317 247T372 255T432 272T486 303T525 351T541 420Q541 480 512 513T443 562T358 581T283 585Z" />
<glyph unicode="&#xdf;" glyph-name="germandbls" horiz-adv-x="583" d="M368 700Q368 724 354 746T307 769Q267 769 240 755T196 716T169 662T155 600T150 538T149 484V30Q149 13 141 8T123 3Q112 3 99 3T72 2T48 1T31 0Q17 0 5 4T-8 22Q-8 37 5 40T29 44Q53
44 62 46T73 65Q74 86 75 111T77 164T78 216T78 263Q78 295 78 322T77 375T77 429T76 491Q76 518 78 553T88 625T110 698T150 762T212 807T302 825Q339 825 365 811T408 776T431 734T439 698Q439 653 417 617T367 549T317 489T294 432Q294 408 304 388T330 350T368
319T412 292Q436 279 464 261T516 221T556 172T572 114Q572 81 554 59T510 24T456 6T409 0Q392 0 374 3T338 13T306 28T284 50Q283 -11 247 -11Q239 -11 231 -3T222 16Q222 26 223 39T225 67Q225 86 223 106T220 148Q220 162 227 170T244 179Q274 179 281 141Q283
133 284 128T289 118Q306 88 340 74T412 60Q450 60 474 77T499 123Q499 155 461 187T356 257Q343 264 320 278T275 314T237 364T221 429Q221 454 232 475T259 515T294 554T330 595T357 642T368 700Z" />
<glyph unicode="&#xe0;" glyph-name="agrave" horiz-adv-x="468" d="M160 623Q160 640 173 650T209 661Q218 661 230 651T254 625T278 591T299 556T314 527T320 513Q320 503 312 499T295 495Q284 495 262 511T217 548T177 590T160 623ZM332 224Q332 235 332 245T333
261Q333 327 306 364T218 402Q201 402 182 399T148 389T122 373T111 351Q111 343 116 341T131 336Q138 335 147 328T156 305Q156 288 144 279T112 269Q81 269 68 291T55 339Q55 393 101 427T226 462Q403 462 403 267Q403 256 403 238T402 200T401 159T400 123Q400
77 404 63T422 49Q433 49 436 56T442 76Q443 82 449 90T469 98Q482 98 486 88T490 65Q490 44 484 30T466 6T442 -7T413 -11Q386 -11 365 2T334 48Q302 19 264 4T178 -11Q108 -11 67 21T25 107Q25 136 37 161T71 204T123 232T192 243Q269 243 332 197V224ZM96 108Q96
78 127 64T201 49Q228 49 251 54T293 69T321 90T332 118Q332 132 323 144T298 164T262 178T217 183Q191 183 169 178T131 162T106 138T96 108Z" />
<glyph unicode="&#xe1;" glyph-name="aacute" horiz-adv-x="468" d="M320 623Q320 612 303 591T264 548T219 511T185 495Q177 495 169 499T160 513Q160 515 165 527T180 555T201 590T225 624T249 650T271 661Q294 661 307 651T320 623ZM332 224Q332 235 332 245T333
261Q333 327 306 364T218 402Q201 402 182 399T148 389T122 373T111 351Q111 343 116 341T131 336Q138 335 147 328T156 305Q156 288 144 279T112 269Q81 269 68 291T55 339Q55 393 101 427T226 462Q403 462 403 267Q403 256 403 238T402 200T401 159T400 123Q400
77 404 63T422 49Q433 49 436 56T442 76Q443 82 449 90T469 98Q482 98 486 88T490 65Q490 44 484 30T466 6T442 -7T413 -11Q386 -11 365 2T334 48Q302 19 264 4T178 -11Q108 -11 67 21T25 107Q25 136 37 161T71 204T123 232T192 243Q269 243 332 197V224ZM96 108Q96
78 127 64T201 49Q228 49 251 54T293 69T321 90T332 118Q332 132 323 144T298 164T262 178T217 183Q191 183 169 178T131 162T106 138T96 108Z" />
<glyph unicode="&#xe2;" glyph-name="acircumflex" horiz-adv-x="468" d="M332 224Q332 235 332 245T333 261Q333 327 306 364T218 402Q201 402 182 399T148 389T122 373T111 351Q111 343 116 341T131 336Q138 335 147 328T156 305Q156 288 144 279T112 269Q81
269 68 291T55 339Q55 393 101 427T226 462Q403 462 403 267Q403 256 403 238T402 200T401 159T400 123Q400 77 404 63T422 49Q433 49 436 56T442 76Q443 82 449 90T469 98Q482 98 486 88T490 65Q490 44 484 30T466 6T442 -7T413 -11Q386 -11 365 2T334 48Q302
19 264 4T178 -11Q108 -11 67 21T25 107Q25 136 37 161T71 204T123 232T192 243Q269 243 332 197V224ZM96 108Q96 78 127 64T201 49Q228 49 251 54T293 69T321 90T332 118Q332 132 323 144T298 164T262 178T217 183Q191 183 169 178T131 162T106 138T96 108ZM343
510Q338 510 325 517T295 535T259 558T223 581Q206 571 187 559T152 536T122 518T104 510Q93 510 93 523Q93 539 110 561T150 605T194 640T223 655Q232 655 253 640T297 605T337 562T354 527Q354 520 352 515T343 510Z" />
<glyph unicode="&#xe3;" glyph-name="atilde" horiz-adv-x="468" d="M66 552Q68 557 74 564T95 580Q126 598 163 598Q178 598 195 594T231 584T267 575T300 570Q326 570 360 587Q374 595 379 597T390 600Q395 600 401 592T408 572Q408 562 403 553Q393 536 368
522T301 508Q282 508 264 511T228 519T194 528T164 532Q149 532 137 528T114 520T95 511T80 507Q72 507 68 515T63 535Q63 544 66 552ZM332 224Q332 235 332 245T333 261Q333 327 306 364T218 402Q201 402 182 399T148 389T122 373T111 351Q111 343 116 341T131
336Q138 335 147 328T156 305Q156 288 144 279T112 269Q81 269 68 291T55 339Q55 393 101 427T226 462Q403 462 403 267Q403 256 403 238T402 200T401 159T400 123Q400 77 404 63T422 49Q433 49 436 56T442 76Q443 82 449 90T469 98Q482 98 486 88T490 65Q490 44
484 30T466 6T442 -7T413 -11Q386 -11 365 2T334 48Q302 19 264 4T178 -11Q108 -11 67 21T25 107Q25 136 37 161T71 204T123 232T192 243Q269 243 332 197V224ZM96 108Q96 78 127 64T201 49Q228 49 251 54T293 69T321 90T332 118Q332 132 323 144T298 164T262 178T217
183Q191 183 169 178T131 162T106 138T96 108Z" />
<glyph unicode="&#xe4;" glyph-name="adieresis" horiz-adv-x="468" d="M332 224Q332 235 332 245T333 261Q333 327 306 364T218 402Q201 402 182 399T148 389T122 373T111 351Q111 343 116 341T131 336Q138 335 147 328T156 305Q156 288 144 279T112 269Q81 269
68 291T55 339Q55 393 101 427T226 462Q403 462 403 267Q403 256 403 238T402 200T401 159T400 123Q400 77 404 63T422 49Q433 49 436 56T442 76Q443 82 449 90T469 98Q482 98 486 88T490 65Q490 44 484 30T466 6T442 -7T413 -11Q386 -11 365 2T334 48Q302 19 264
4T178 -11Q108 -11 67 21T25 107Q25 136 37 161T71 204T123 232T192 243Q269 243 332 197V224ZM96 108Q96 78 127 64T201 49Q228 49 251 54T293 69T321 90T332 118Q332 132 323 144T298 164T262 178T217 183Q191 183 169 178T131 162T106 138T96 108ZM73 575Q73
582 76 591T86 610T103 625T129 631Q149 631 163 617T178 579Q178 543 160 531T122 518Q102 518 88 534T73 575ZM280 552Q280 559 283 568T293 587T310 602T336 608Q356 608 370 594T385 556Q385 520 367 508T329 495Q309 495 295 511T280 552Z" />
<glyph unicode="&#xe5;" glyph-name="aring" horiz-adv-x="468" d="M332 224Q332 235 332 245T333 261Q333 327 306 364T218 402Q201 402 182 399T148 389T122 373T111 351Q111 343 116 341T131 336Q138 335 147 328T156 305Q156 288 144 279T112 269Q81 269 68
291T55 339Q55 393 101 427T226 462Q403 462 403 267Q403 256 403 238T402 200T401 159T400 123Q400 77 404 63T422 49Q433 49 436 56T442 76Q443 82 449 90T469 98Q482 98 486 88T490 65Q490 44 484 30T466 6T442 -7T413 -11Q386 -11 365 2T334 48Q302 19 264
4T178 -11Q108 -11 67 21T25 107Q25 136 37 161T71 204T123 232T192 243Q269 243 332 197V224ZM96 108Q96 78 127 64T201 49Q228 49 251 54T293 69T321 90T332 118Q332 132 323 144T298 164T262 178T217 183Q191 183 169 178T131 162T106 138T96 108ZM302 581Q302
545 281 528T232 510Q202 510 181 529T160 579Q160 609 180 629T231 649Q266 649 284 631T302 581ZM231 615Q223 615 214 608T205 579Q205 557 215 551T232 544Q237 544 247 550T257 580Q257 599 249 607T231 615Z" />
<glyph unicode="&#xe6;" glyph-name="ae" horiz-adv-x="795" d="M410 244Q409 233 409 223T408 203Q408 176 415 149T438 100T480 65T546 51Q571 51 597 57T647 79T686 118T707 177Q707 181 708 186T713 197T722 205T739 209Q760 209 765 196T771 169Q771 140
758 109T719 51T651 7T553 -11Q514 -11 487 -3T440 19T407 48T382 82Q358 54 332 36T279 8T227 -7T179 -11Q108 -11 67 21T26 109Q26 138 38 163T72 207T125 237T194 248Q273 248 333 197Q333 228 333 240T334 262Q334 328 302 362T213 397Q201 397 186 395T157
389T134 378T125 360Q125 349 132 347T145 343Q154 341 161 334T168 313Q168 294 154 285T120 276Q91 276 74 295T56 343Q56 367 68 388T102 424T154 448T220 457Q277 457 319 433T377 358Q386 382 401 403T438 441T489 467T556 477Q606 477 643 460T706 416T744
356T757 291Q757 271 747 263T721 250Q714 248 693 248T644 246T581 245T512 245Q495 245 485 245T465 245T443 244T410 244ZM97 114Q97 82 128 66T207 49Q261 49 297 68T333 117Q333 144 302 166T213 188Q157 188 127 167T97 114ZM667 308Q677 308 680 312T683
322Q683 332 675 348T651 379T610 404T552 415Q519 415 495 404T454 377T428 341T414 304L667 308Z" />
<glyph unicode="&#xe7;" glyph-name="ccedilla" horiz-adv-x="488" d="M382 428Q381 439 381 454T380 483Q380 494 387 502T411 511Q428 511 436 502T444 478Q444 464 444 441T444 394T443 346T443 310Q443 302 433 295T407 288Q399 288 390 293T380 309Q380 361
353 391T259 422Q226 422 198 408T149 367T118 306T106 227Q106 148 143 102T249 56Q307 56 346 77T403 128Q413 144 421 149T437 154Q448 154 457 148T467 128Q467 120 465 115T457 101Q387 -6 253 -6Q200 -6 159 12T89 61T45 135T29 225Q29 279 46 326T95 407T169
462T262 482Q300 482 330 472T382 428ZM261 7L280 3L267 -69Q291 -55 308 -48T347 -40Q380 -40 402 -57T424 -103Q424 -123 414 -137T385 -161T344 -176T295 -181Q263 -181 247 -178T230 -161Q230 -154 240 -147T291 -139Q323 -139 340 -134T357 -109Q357 -95 345
-90T326 -85Q312 -85 301 -89T279 -99T258 -108T235 -113Q218 -113 212 -105T206 -88Q206 -85 207 -80T209 -71Q214 -50 216 -26T221 7H261Z" />
<glyph unicode="&#xe8;" glyph-name="egrave" horiz-adv-x="491" d="M181 632Q181 649 194 659T230 670Q239 670 251 660T275 634T299 600T320 565T335 536T341 522Q341 512 333 508T316 504Q305 504 283 520T238 557T198 599T181 632ZM364 303Q381 303 381 311Q381
326 373 344T350 378T310 404T254 415Q223 415 198 405T155 378T126 341T111 299L364 303ZM107 239Q106 234 106 229T105 218Q105 188 115 158T144 104T192 66T258 51Q297 51 324 63T367 93T391 133T399 173Q399 181 405 193T433 205Q445 205 454 197T463 173Q463
138 453 105T417 45T349 3T242 -13Q190 -13 151 4T84 54T44 129T30 226Q30 284 46 331T92 410T164 459T257 477Q312 477 350 458T411 411T444 354T454 304Q454 281 443 261T412 241Q381 241 339 241T248 240Q238 240 219 240T179 240T139 239T107 239Z" />
<glyph unicode="&#xe9;" glyph-name="eacute" horiz-adv-x="491" d="M345 633Q345 622 328 601T289 558T244 521T210 505Q202 505 194 509T185 523Q185 525 190 537T205 565T226 600T250 634T274 660T296 671Q319 671 332 661T345 633ZM364 303Q381 303 381 311Q381
326 373 344T350 378T310 404T254 415Q223 415 198 405T155 378T126 341T111 299L364 303ZM107 239Q106 234 106 229T105 218Q105 188 115 158T144 104T192 66T258 51Q297 51 324 63T367 93T391 133T399 173Q399 181 405 193T433 205Q445 205 454 197T463 173Q463
138 453 105T417 45T349 3T242 -13Q190 -13 151 4T84 54T44 129T30 226Q30 284 46 331T92 410T164 459T257 477Q312 477 350 458T411 411T444 354T454 304Q454 281 443 261T412 241Q381 241 339 241T248 240Q238 240 219 240T179 240T139 239T107 239Z" />
<glyph unicode="&#xea;" glyph-name="ecircumflex" horiz-adv-x="491" d="M364 303Q381 303 381 311Q381 326 373 344T350 378T310 404T254 415Q223 415 198 405T155 378T126 341T111 299L364 303ZM107 239Q106 234 106 229T105 218Q105 188 115 158T144 104T192
66T258 51Q297 51 324 63T367 93T391 133T399 173Q399 181 405 193T433 205Q445 205 454 197T463 173Q463 138 453 105T417 45T349 3T242 -13Q190 -13 151 4T84 54T44 129T30 226Q30 284 46 331T92 410T164 459T257 477Q312 477 350 458T411 411T444 354T454 304Q454
281 443 261T412 241Q381 241 339 241T248 240Q238 240 219 240T179 240T139 239T107 239ZM369 510Q364 510 351 517T321 535T285 558T249 581Q232 571 213 559T178 536T148 518T130 510Q119 510 119 523Q119 539 136 561T176 605T220 640T249 655Q258 655 279
640T323 605T363 562T380 527Q380 520 378 515T369 510Z" />
<glyph unicode="&#xeb;" glyph-name="edieresis" horiz-adv-x="491" d="M364 303Q381 303 381 311Q381 326 373 344T350 378T310 404T254 415Q223 415 198 405T155 378T126 341T111 299L364 303ZM107 239Q106 234 106 229T105 218Q105 188 115 158T144 104T192
66T258 51Q297 51 324 63T367 93T391 133T399 173Q399 181 405 193T433 205Q445 205 454 197T463 173Q463 138 453 105T417 45T349 3T242 -13Q190 -13 151 4T84 54T44 129T30 226Q30 284 46 331T92 410T164 459T257 477Q312 477 350 458T411 411T444 354T454 304Q454
281 443 261T412 241Q381 241 339 241T248 240Q238 240 219 240T179 240T139 239T107 239ZM96 584Q96 591 99 600T109 619T126 634T152 640Q172 640 186 626T201 588Q201 552 183 540T145 527Q125 527 111 543T96 584ZM303 561Q303 568 306 577T316 596T333 611T359
617Q379 617 393 603T408 565Q408 529 390 517T352 504Q332 504 318 520T303 561Z" />
<glyph unicode="&#xec;" glyph-name="igrave" horiz-adv-x="292" d="M197 58H254Q276 58 289 53T302 28Q302 15 293 8T272 0H93Q81 0 69 0T47 3T31 11T24 27Q24 36 28 41T40 48T58 52T83 56Q105 59 113 62T123 77Q126 109 126 146T127 213Q127 251 126 286T123
359Q122 371 119 378T108 386Q104 386 93 385T69 384T45 382T30 381Q22 381 12 386T2 397Q2 409 7 415T21 424T44 428T75 431Q88 432 103 433T132 435T159 436T179 436Q191 436 194 427T197 401V58ZM68 632Q68 649 81 659T117 670Q126 670 138 660T162 634T187
600T208 565T222 536T228 522Q228 512 220 508T203 504Q192 504 170 520T125 557T85 599T68 632Z" />
<glyph unicode="&#xed;" glyph-name="iacute" horiz-adv-x="292" d="M197 58H254Q276 58 289 53T302 28Q302 15 293 8T272 0H93Q81 0 69 0T47 3T31 11T24 27Q24 36 28 41T40 48T58 52T83 56Q105 59 113 62T123 77Q126 109 126 146T127 213Q127 251 126 286T123
359Q122 371 119 378T108 386Q104 386 93 385T69 384T45 382T30 381Q22 381 12 386T2 397Q2 409 7 415T21 424T44 428T75 431Q88 432 103 433T132 435T159 436T179 436Q191 436 194 427T197 401V58ZM236 633Q236 622 219 601T180 558T135 521T101 505Q93 505 85
509T76 523Q76 525 81 537T96 565T117 600T141 634T165 660T187 671Q210 671 223 661T236 633Z" />
<glyph unicode="&#xee;" glyph-name="icircumflex" horiz-adv-x="292" d="M197 58H254Q276 58 289 53T302 28Q302 15 293 8T272 0H93Q81 0 69 0T47 3T31 11T24 27Q24 36 28 41T40 48T58 52T83 56Q105 59 113 62T123 77Q126 109 126 146T127 213Q127 251 126 286T123
359Q122 371 119 378T108 386Q104 386 93 385T69 384T45 382T30 381Q22 381 12 386T2 397Q2 409 7 415T21 424T44 428T75 431Q88 432 103 433T132 435T159 436T179 436Q191 436 194 427T197 401V58ZM248 510Q243 510 230 517T200 535T164 558T128 581Q111 571 92
559T57 536T27 518T9 510Q-2 510 -2 523Q-2 539 15 561T55 605T99 640T128 655Q137 655 158 640T202 605T242 562T259 527Q259 520 257 515T248 510Z" />
<glyph unicode="&#xef;" glyph-name="idieresis" horiz-adv-x="292" d="M197 58H254Q276 58 289 53T302 28Q302 15 293 8T272 0H93Q81 0 69 0T47 3T31 11T24 27Q24 36 28 41T40 48T58 52T83 56Q105 59 113 62T123 77Q126 109 126 146T127 213Q127 251 126 286T123
359Q122 371 119 378T108 386Q104 386 93 385T69 384T45 382T30 381Q22 381 12 386T2 397Q2 409 7 415T21 424T44 428T75 431Q88 432 103 433T132 435T159 436T179 436Q191 436 194 427T197 401V58ZM4 575Q4 582 7 591T17 610T34 625T60 631Q80 631 94 617T109
579Q109 543 91 531T53 518Q33 518 19 534T4 575ZM211 552Q211 559 214 568T224 587T241 602T267 608Q287 608 301 594T316 556Q316 520 298 508T260 495Q240 495 226 511T211 552Z" />
<glyph unicode="&#xf0;" glyph-name="eth" horiz-adv-x="561" d="M455 747Q467 747 474 740T482 721Q482 711 477 704T467 694Q454 687 435 676T392 651Q400 637 404 631T417 609Q464 525 495 426T526 220Q526 185 517 144T481 66T405 6T276 -19Q208 -19 161 4T84
63T42 143T29 230Q29 289 49 333T103 407T178 452T265 467Q288 467 313 463T363 448T411 420T452 376Q448 392 439 419T416 480T384 549T343 622Q335 617 320 609T288 593T259 579T243 573Q233 573 226 583T218 602Q218 611 225 617T239 627L314 667Q285 705 252
733T186 783Q172 791 172 805Q172 816 180 824T201 832Q212 832 223 828T241 819Q255 808 268 797T295 771T326 738T361 695Q370 701 384 710T412 727T438 741T455 747ZM275 42Q328 42 362 58T416 99T444 153T452 209Q452 252 440 288T405 350T350 390T278 405Q236
405 204 391T149 352T116 295T104 227Q104 176 119 141T158 84T212 52T275 42Z" />
<glyph unicode="&#xf1;" glyph-name="ntilde" horiz-adv-x="603" d="M180 552Q182 557 188 564T209 580Q240 598 277 598Q292 598 309 594T345 584T381 575T414 570Q440 570 474 587Q488 595 493 597T504 600Q509 600 515 592T522 572Q522 562 517 553Q507 536
482 522T415 508Q396 508 378 511T342 519T308 528T278 532Q263 532 251 528T228 520T209 511T194 507Q186 507 182 515T177 535Q177 544 180 552ZM511 29H565Q572 29 581 28T600 24T615 14T621 -4Q621 -19 610 -24T584 -29Q579 -29 552 -29T492 -30T432 -30T400
-31Q387 -31 377 -26T367 -3Q367 11 376 17T395 26Q420 29 428 35T438 65Q440 105 440 133T441 163Q441 209 438 251T424 325T394 376T341 395Q299 395 267 367T217 300Q206 277 201 247T195 186V74H262Q279 74 290 68T301 42Q301 25 292 20T262 15Q258 15 232
15T173 15T114 14T81 14Q65 14 52 18T38 41Q38 59 50 65T75 71H95Q104 71 109 76T118 90T122 108T123 125Q123 142 124 179T126 257T127 329T128 367Q128 400 111 400H59Q49 400 38 400T17 402T1 407T-6 417Q-6 427 1 433T28 444T78 449T158 451Q184 451 190 445T197
419L200 357Q222 404 266 429T360 455Q382 455 408 448T458 419T496 359T511 260V29Z" />
<glyph unicode="&#xf2;" glyph-name="ograve" horiz-adv-x="529" d="M192 632Q192 649 205 659T241 670Q250 670 262 660T286 634T310 600T331 565T346 536T352 522Q352 512 344 508T327 504Q316 504 294 520T249 557T209 599T192 632ZM500 233Q500 172 478 126T422
50T344 4T259 -11Q208 -11 166 6T94 56T46 132T29 230Q29 282 46 326T94 403T170 453T271 472Q327 472 369 453T441 400T485 324T500 233ZM270 412Q237 412 207 400T154 365T118 308T104 231Q104 185 118 151T156 95T207 61T261 50Q287 50 316 61T370 94T411 152T427
235Q427 274 416 306T384 362T334 399T270 412Z" />
<glyph unicode="&#xf3;" glyph-name="oacute" horiz-adv-x="529" d="M352 632Q352 621 335 600T296 557T251 520T217 504Q209 504 201 508T192 522Q192 524 197 536T212 564T233 599T257 633T281 659T303 670Q326 670 339 660T352 632ZM500 233Q500 172 478 126T422
50T344 4T259 -11Q208 -11 166 6T94 56T46 132T29 230Q29 282 46 326T94 403T170 453T271 472Q327 472 369 453T441 400T485 324T500 233ZM270 412Q237 412 207 400T154 365T118 308T104 231Q104 185 118 151T156 95T207 61T261 50Q287 50 316 61T370 94T411 152T427
235Q427 274 416 306T384 362T334 399T270 412Z" />
<glyph unicode="&#xf4;" glyph-name="ocircumflex" horiz-adv-x="529" d="M500 233Q500 172 478 126T422 50T344 4T259 -11Q208 -11 166 6T94 56T46 132T29 230Q29 282 46 326T94 403T170 453T271 472Q327 472 369 453T441 400T485 324T500 233ZM270 412Q237 412
207 400T154 365T118 308T104 231Q104 185 118 151T156 95T207 61T261 50Q287 50 316 61T370 94T411 152T427 235Q427 274 416 306T384 362T334 399T270 412ZM379 752Q374 752 361 759T331 777T295 800T259 823Q242 813 223 801T188 778T158 760T140 752Q129 752
129 765Q129 781 146 803T186 847T230 882T259 897Q268 897 289 882T333 847T373 804T390 769Q390 762 388 757T379 752Z" />
<glyph unicode="&#xf5;" glyph-name="otilde" horiz-adv-x="529" d="M88 552Q90 557 96 564T117 580Q148 598 185 598Q200 598 217 594T253 584T289 575T322 570Q348 570 382 587Q396 595 401 597T412 600Q417 600 423 592T430 572Q430 562 425 553Q415 536 390
522T323 508Q304 508 286 511T250 519T216 528T186 532Q171 532 159 528T136 520T117 511T102 507Q94 507 90 515T85 535Q85 544 88 552ZM500 233Q500 172 478 126T422 50T344 4T259 -11Q208 -11 166 6T94 56T46 132T29 230Q29 282 46 326T94 403T170 453T271 472Q327
472 369 453T441 400T485 324T500 233ZM270 412Q237 412 207 400T154 365T118 308T104 231Q104 185 118 151T156 95T207 61T261 50Q287 50 316 61T370 94T411 152T427 235Q427 274 416 306T384 362T334 399T270 412Z" />
<glyph unicode="&#xf6;" glyph-name="odieresis" horiz-adv-x="529" d="M500 233Q500 172 478 126T422 50T344 4T259 -11Q208 -11 166 6T94 56T46 132T29 230Q29 282 46 326T94 403T170 453T271 472Q327 472 369 453T441 400T485 324T500 233ZM270 412Q237 412
207 400T154 365T118 308T104 231Q104 185 118 151T156 95T207 61T261 50Q287 50 316 61T370 94T411 152T427 235Q427 274 416 306T384 362T334 399T270 412ZM106 575Q106 582 109 591T119 610T136 625T162 631Q182 631 196 617T211 579Q211 543 193 531T155 518Q135
518 121 534T106 575ZM313 552Q313 559 316 568T326 587T343 602T369 608Q389 608 403 594T418 556Q418 520 400 508T362 495Q342 495 328 511T313 552Z" />
<glyph unicode="&#xf7;" glyph-name="divide" horiz-adv-x="385" d="M135 241Q135 250 138 259T148 277T166 290T194 296Q224 296 238 279T252 243Q252 222 237 205T192 188Q161 188 148 205T135 241ZM135 573Q135 582 138 591T148 609T166 622T194 628Q224 628
238 611T252 575Q252 554 237 537T192 520Q161 520 148 537T135 573ZM589 445Q593 445 601 439T610 415Q610 399 601 390T581 381Q559 381 522 381T444 379T369 377T316 376Q309 376 300 383T290 408Q290 425 299 432T316 440H457Q499 440 532 442T589 445Z" />
<glyph unicode="&#xf8;" glyph-name="oslash" horiz-adv-x="529" d="M101 -22Q131 38 162 96T227 215T294 338T362 470Q363 473 366 480T376 496T389 510T406 517Q427 517 433 507T440 489Q440 484 437 475T430 455T421 436T413 421L169 -35Q165 -43 154 -53T129
-64Q120 -64 108 -61T95 -44Q95 -34 101 -22ZM500 233Q500 172 478 126T422 50T344 4T259 -11Q208 -11 166 6T94 56T46 132T29 230Q29 282 46 326T94 403T170 453T271 472Q327 472 369 453T441 400T485 324T500 233ZM270 412Q237 412 207 400T154 365T118 308T104
231Q104 185 118 151T156 95T207 61T261 50Q287 50 316 61T370 94T411 152T427 235Q427 274 416 306T384 362T334 399T270 412Z" />
<glyph unicode="&#xf9;" glyph-name="ugrave" horiz-adv-x="585" d="M201 632Q201 649 214 659T250 670Q259 670 271 660T295 634T319 600T340 565T355 536T361 522Q361 512 353 508T336 504Q325 504 303 520T258 557T218 599T201 632ZM432 339Q432 380 405 380H329Q295
380 295 398Q295 417 326 424T430 432Q452 432 466 431T488 426T499 411T503 383Q503 372 503 357T502 316T501 252T500 156Q500 106 500 85T501 60Q501 49 506 44T529 38Q533 38 538 38T560 39Q596 39 596 15Q596 5 589 -2T565 -13T520 -20T450 -22Q439 -22 435
0T430 81Q423 65 410 47T378 14T331 -10T269 -20Q222 -20 191 -3T141 44T113 110T105 187V382Q105 405 101 412T73 420H20Q5 420 -8 424T-21 442Q-21 458 15 465T115 472Q135 472 147 471T167 466T176 452T179 427Q179 414 179 392T177 344T176 292T175 243Q175
211 176 176T188 110T219 60T281 40Q311 40 337 51T384 82T417 127T429 180L432 339Z" />
<glyph unicode="&#xfa;" glyph-name="uacute" horiz-adv-x="585" d="M361 623Q361 612 344 591T305 548T260 511T226 495Q218 495 210 499T201 513Q201 515 206 527T221 555T242 590T266 624T290 650T312 661Q335 661 348 651T361 623ZM432 339Q432 380 405 380H329Q295
380 295 398Q295 417 326 424T430 432Q452 432 466 431T488 426T499 411T503 383Q503 372 503 357T502 316T501 252T500 156Q500 106 500 85T501 60Q501 49 506 44T529 38Q533 38 538 38T560 39Q596 39 596 15Q596 5 589 -2T565 -13T520 -20T450 -22Q439 -22 435
0T430 81Q423 65 410 47T378 14T331 -10T269 -20Q222 -20 191 -3T141 44T113 110T105 187V382Q105 405 101 412T73 420H20Q5 420 -8 424T-21 442Q-21 458 15 465T115 472Q135 472 147 471T167 466T176 452T179 427Q179 414 179 392T177 344T176 292T175 243Q175
211 176 176T188 110T219 60T281 40Q311 40 337 51T384 82T417 127T429 180L432 339Z" />
<glyph unicode="&#xfb;" glyph-name="ucircumflex" horiz-adv-x="585" d="M432 339Q432 380 405 380H329Q295 380 295 398Q295 417 326 424T430 432Q452 432 466 431T488 426T499 411T503 383Q503 372 503 357T502 316T501 252T500 156Q500 106 500 85T501 60Q501
49 506 44T529 38Q533 38 538 38T560 39Q596 39 596 15Q596 5 589 -2T565 -13T520 -20T450 -22Q439 -22 435 0T430 81Q423 65 410 47T378 14T331 -10T269 -20Q222 -20 191 -3T141 44T113 110T105 187V382Q105 405 101 412T73 420H20Q5 420 -8 424T-21 442Q-21 458
15 465T115 472Q135 472 147 471T167 466T176 452T179 427Q179 414 179 392T177 344T176 292T175 243Q175 211 176 176T188 110T219 60T281 40Q311 40 337 51T384 82T417 127T429 180L432 339ZM397 510Q392 510 379 517T349 535T313 558T277 581Q260 571 241 559T206
536T176 518T158 510Q147 510 147 523Q147 539 164 561T204 605T248 640T277 655Q286 655 307 640T351 605T391 562T408 527Q408 520 406 515T397 510Z" />
<glyph unicode="&#xfc;" glyph-name="udieresis" horiz-adv-x="585" d="M432 339Q432 380 405 380H329Q295 380 295 398Q295 417 326 424T430 432Q452 432 466 431T488 426T499 411T503 383Q503 372 503 357T502 316T501 252T500 156Q500 106 500 85T501 60Q501
49 506 44T529 38Q533 38 538 38T560 39Q596 39 596 15Q596 5 589 -2T565 -13T520 -20T450 -22Q439 -22 435 0T430 81Q423 65 410 47T378 14T331 -10T269 -20Q222 -20 191 -3T141 44T113 110T105 187V382Q105 405 101 412T73 420H20Q5 420 -8 424T-21 442Q-21 458
15 465T115 472Q135 472 147 471T167 466T176 452T179 427Q179 414 179 392T177 344T176 292T175 243Q175 211 176 176T188 110T219 60T281 40Q311 40 337 51T384 82T417 127T429 180L432 339ZM123 575Q123 582 126 591T136 610T153 625T179 631Q199 631 213 617T228
579Q228 543 210 531T172 518Q152 518 138 534T123 575ZM330 552Q330 559 333 568T343 587T360 602T386 608Q406 608 420 594T435 556Q435 520 417 508T379 495Q359 495 345 511T330 552Z" />
<glyph unicode="&#xfd;" glyph-name="yacute" horiz-adv-x="603" d="M383 632Q383 621 366 600T327 557T282 520T248 504Q240 504 232 508T223 522Q223 524 228 536T243 564T264 599T288 633T312 659T334 670Q357 670 370 660T383 632ZM129 -84Q129 -101 147 -114T195
-128Q212 -128 229 -120T259 -99Q275 -85 287 -63T313 -12L118 343Q113 352 109 357T98 365T84 369T64 370Q26 371 6 374T-14 395Q-14 413 4 420T47 428H198Q224 428 231 421T239 401Q239 390 232 381T205 372Q200 372 197 371T193 359Q193 356 195 347T202 327L340
68L415 300Q423 323 423 338Q423 346 417 350T386 355Q362 355 352 363T341 383Q341 400 347 405T377 411H545Q567 411 583 405T600 383Q600 366 583 361T545 355Q521 354 513 351T499 331L397 44Q378 -10 360 -50T317 -118Q288 -152 256 -167T184 -183Q163 -183
144 -177T109 -157T85 -126T76 -84Q76 -63 82 -47T99 -20T123 -4T150 2Q163 2 174 -5T186 -28Q186 -39 182 -45T172 -54T160 -59T147 -61Q138 -62 134 -69T129 -84Z" />
<glyph unicode="&#xfe;" glyph-name="thorn" horiz-adv-x="517" d="M136 354Q164 406 205 432T294 458Q351 458 388 435T447 377T477 300T486 220Q486 155 466 111T413 41T339 3T255 -9Q225 -9 205 -4T170 10T145 28T127 48V-176H192Q194 -176 204 -176T226 -180T247
-189T257 -208Q257 -216 252 -221T241 -229T230 -233T223 -235Q219 -235 201 -235T163 -234T127 -233T109 -232Q108 -232 97 -232T72 -233T45 -234T26 -235Q-2 -235 -14 -229T-26 -209Q-26 -196 -20 -191T-6 -185T10 -182T24 -176Q28 -175 33 -174T44 -169T53 -153T57
-119Q57 -25 61 129T66 498Q66 533 66 569T66 636T65 692T65 730Q65 757 20 757H-8Q-16 757 -26 757T-44 761T-58 770T-64 788Q-64 799 -52 805T-24 814T4 817T20 818H110Q114 818 119 817T127 809T133 789T136 752V354ZM135 182Q135 147 145 123T172 82T210 59T256
52Q280 52 307 59T358 84T397 137T413 225Q413 274 402 307T373 360T332 388T285 397Q251 397 224 382T177 338T146 270T135 182Z" />
<glyph unicode="&#xff;" glyph-name="ydieresis" horiz-adv-x="603" d="M129 -84Q129 -101 147 -114T195 -128Q212 -128 229 -120T259 -99Q275 -85 287 -63T313 -12L118 343Q113 352 109 357T98 365T84 369T64 370Q26 371 6 374T-14 395Q-14 413 4 420T47 428H198Q224
428 231 421T239 401Q239 390 232 381T205 372Q200 372 197 371T193 359Q193 356 195 347T202 327L340 68L415 300Q423 323 423 338Q423 346 417 350T386 355Q362 355 352 363T341 383Q341 400 347 405T377 411H545Q567 411 583 405T600 383Q600 366 583 361T545
355Q521 354 513 351T499 331L397 44Q378 -10 360 -50T317 -118Q288 -152 256 -167T184 -183Q163 -183 144 -177T109 -157T85 -126T76 -84Q76 -63 82 -47T99 -20T123 -4T150 2Q163 2 174 -5T186 -28Q186 -39 182 -45T172 -54T160 -59T147 -61Q138 -62 134 -69T129
-84ZM143 575Q143 582 146 591T156 610T173 625T199 631Q219 631 233 617T248 579Q248 543 230 531T192 518Q172 518 158 534T143 575ZM350 552Q350 559 353 568T363 587T380 602T406 608Q426 608 440 594T455 556Q455 520 437 508T399 495Q379 495 365 511T350
552Z" />
<glyph unicode="&#x2013;" glyph-name="endash" horiz-adv-x="496" d="M413 300Q422 300 430 292T438 272Q438 264 431 252T401 239Q373 239 331 239T243 239T157 238T91 238Q78 238 69 248T59 269Q59 280 66 289T91 299Q101 299 118 299T154 298T194 298T233
297Q291 297 335 298T413 300Z" />
<glyph unicode="&#x2014;" glyph-name="emdash" horiz-adv-x="729" d="M649 300Q657 300 663 292T670 272Q670 264 664 252T641 239Q628 239 585 239T484 239T361 239T239 238T140 238T86 238Q75 238 68 248T60 269Q60 280 66 289T86 299Q91 299 111 299T159 299T220
298T282 298T334 297T366 297Q387 297 429 297T516 298T599 299T649 300Z" />
<glyph unicode="&#x2018;" glyph-name="quoteleft" horiz-adv-x="156" d="M84 710Q70 710 60 718Q68 715 76 715Q92 715 102 725T112 749Q112 758 108 764T99 775T90 784T86 793Q86 799 89 809T95 831T102 851T105 865Q105 871 100 875T89 880Q78 880 69 868T52
838Q57 868 64 893T83 918Q96 918 103 900T115 857T120 811T121 782Q121 777 121 765T117 741T106 720T84 710ZM34 759Q34 770 39 793T52 838Q49 812 48 791T46 767Q46 756 47 742T60 718Q34 728 34 759Z" />
<glyph unicode="&#x2019;" glyph-name="quoteright" horiz-adv-x="157" d="M76 855Q90 855 100 847Q92 850 84 850Q68 850 58 840T48 816Q48 807 52 801T61 790T70 781T74 772Q74 766 71 756T65 734T58 714T55 700Q55 694 60 690T71 685Q82 685 91 697T108 727Q103
697 96 672T77 647Q64 647 57 665T45 708T40 754T39 783Q39 788 39 800T43 824T54 845T76 855ZM126 806Q126 795 121 772T108 727Q111 753 112 774T114 798Q114 809 113 823T100 847Q126 837 126 806Z" />
<glyph unicode="&#x201a;" glyph-name="quotesinglbase" horiz-adv-x="186" d="M88 122Q102 122 112 114Q104 117 96 117Q80 117 70 107T60 83Q60 74 64 68T73 57T82 48T86 39Q86 33 83 23T77 1T70 -19T67 -33Q67 -39 72 -43T83 -48Q94 -48 103 -36T120 -6Q115
-36 108 -61T89 -86Q76 -86 69 -68T57 -25T52 21T51 50Q51 55 51 67T55 91T66 112T88 122ZM138 73Q138 62 133 39T120 -6Q123 20 124 41T126 65Q126 76 125 90T112 114Q138 104 138 73Z" />
<glyph unicode="&#x201c;" glyph-name="quotedblleft" horiz-adv-x="282" d="M84 710Q70 710 60 718Q68 715 76 715Q92 715 102 725T112 749Q112 758 108 764T99 775T90 784T86 793Q86 799 89 809T95 831T102 851T105 865Q105 871 100 875T89 880Q78 880 69 868T52
838Q57 868 64 893T83 918Q96 918 103 900T115 857T120 811T121 782Q121 777 121 765T117 741T106 720T84 710ZM34 759Q34 770 39 793T52 838Q49 812 48 791T46 767Q46 756 47 742T60 718Q34 728 34 759ZM210 710Q196 710 186 718Q194 715 202 715Q218 715 228
725T238 749Q238 758 234 764T225 775T216 784T212 793Q212 799 215 809T221 831T228 851T231 865Q231 871 226 875T215 880Q204 880 195 868T178 838Q183 868 190 893T209 918Q222 918 229 900T241 857T246 811T247 782Q247 777 247 765T243 741T232 720T210 710ZM160
759Q160 770 165 793T178 838Q175 812 174 791T172 767Q172 756 173 742T186 718Q160 728 160 759Z" />
<glyph unicode="&#x201d;" glyph-name="quotedblright" horiz-adv-x="283" d="M76 855Q90 855 100 847Q92 850 84 850Q68 850 58 840T48 816Q48 807 52 801T61 790T70 781T74 772Q74 766 71 756T65 734T58 714T55 700Q55 694 60 690T71 685Q82 685 91 697T108
727Q103 697 96 672T77 647Q64 647 57 665T45 708T40 754T39 783Q39 788 39 800T43 824T54 845T76 855ZM126 806Q126 795 121 772T108 727Q111 753 112 774T114 798Q114 809 113 823T100 847Q126 837 126 806ZM202 855Q216 855 226 847Q218 850 210 850Q194 850
184 840T174 816Q174 807 178 801T187 790T196 781T200 772Q200 766 197 756T191 734T184 714T181 700Q181 694 186 690T197 685Q208 685 217 697T234 727Q229 697 222 672T203 647Q190 647 183 665T171 708T166 754T165 783Q165 788 165 800T169 824T180 845T202
855ZM252 806Q252 795 247 772T234 727Q237 753 238 774T240 798Q240 809 239 823T226 847Q252 837 252 806Z" />
<glyph unicode="&#x201e;" glyph-name="quotedblbase" horiz-adv-x="312" d="M88 122Q102 122 112 114Q104 117 96 117Q80 117 70 107T60 83Q60 74 64 68T73 57T82 48T86 39Q86 33 83 23T77 1T70 -19T67 -33Q67 -39 72 -43T83 -48Q94 -48 103 -36T120 -6Q115 -36
108 -61T89 -86Q76 -86 69 -68T57 -25T52 21T51 50Q51 55 51 67T55 91T66 112T88 122ZM138 73Q138 62 133 39T120 -6Q123 20 124 41T126 65Q126 76 125 90T112 114Q138 104 138 73ZM214 122Q228 122 238 114Q230 117 222 117Q206 117 196 107T186 83Q186 74 190
68T199 57T208 48T212 39Q212 33 209 23T203 1T196 -19T193 -33Q193 -39 198 -43T209 -48Q220 -48 229 -36T246 -6Q241 -36 234 -61T215 -86Q202 -86 195 -68T183 -25T178 21T177 50Q177 55 177 67T181 91T192 112T214 122ZM264 73Q264 62 259 39T246 -6Q249 20
250 41T252 65Q252 76 251 90T238 114Q264 104 264 73Z" />
<glyph unicode="&#x2022;" glyph-name="bullet" horiz-adv-x="303" d="M237 360Q237 337 229 320T209 291T181 273T150 267Q116 267 92 292T67 358Q67 398 91 424T155 450Q196 450 216 423T237 360Z" />
<glyph unicode="&#x2039;" glyph-name="guilsinglleft" horiz-adv-x="263" d="M199 516Q199 510 191 495T169 461T141 420T114 378Q126 358 141 337T169 296T190 262T199 241Q199 236 194 230T173 224Q163 224 141 244T97 291T58 343T41 378Q41 389 58 414T97
466T141 513T173 533Q189 533 194 527T199 516Z" />
<glyph unicode="&#x203a;" glyph-name="guilsinglright" horiz-adv-x="263" d="M64 516Q64 510 72 495T94 461T122 420T149 378Q137 358 122 337T94 296T73 262T64 241Q64 236 69 230T90 224Q100 224 122 244T166 291T205 343T222 378Q222 389 205 414T166 466T122
513T90 533Q74 533 69 527T64 516Z" />
</font>
</defs>
</svg>
