<?xml version="1.0" standalone="no"?>
<!DOCTYPE svg PUBLIC "-//W3C//DTD SVG 1.1//EN" "http://www.w3.org/Graphics/SVG/1.1/DTD/svg11.dtd">
<svg xmlns="http://www.w3.org/2000/svg">
<defs >
<font id="Trirong" horiz-adv-x="600" ><font-face
    font-family="Trirong SemiBold"
    units-per-em="1000"
    panose-1="0 0 7 0 0 0 0 0 0 0"
    ascent="1200"
    descent="-534"
    alphabetic="0" />
<glyph unicode=" " glyph-name="space" horiz-adv-x="252" />
<glyph unicode="!" glyph-name="exclam" horiz-adv-x="321" d="M170 613L172 629Q187 710 257 710Q313 710 313 657Q313 643 310 629L306 613L172 154H117L170 613ZM87 -10T73 3T59 38Q59 43 61 55Q68 86 88 103T138 121Q162 121 176 108T190 72Q190 35 167 13T111
-10Q87 -10 73 3Z" />
<glyph unicode="&quot;" glyph-name="quotedbl" horiz-adv-x="428" d="M142 641L143 646Q150 682 166 700T217 719Q244 719 255 708T266 676Q266 662 263 647L262 641L177 422H134L142 641ZM335 641L336 646Q343 682 359 700T410 719Q437 719 448 708T459 675Q459
662 456 647L455 641L369 422H327L335 641Z" />
<glyph unicode="#" glyph-name="numbersign" horiz-adv-x="830" d="M685 463L583 230H738L729 185H564L479 -10H392L477 185H260L175 -10H89L174 185H21L29 230H193L294 463H138L148 509H314L392 689H480L401 509H618L697 689H783L705 509H857L847 463H685ZM598
463H381L280 230H497L598 463Z" />
<glyph unicode="$" glyph-name="dollar" horiz-adv-x="559" d="M521 531T521 546Q521 579 526 624Q509 643 479 653T411 663Q345 663 303 636T248 555Q246 543 246 539Q246 503 274 481T363 431Q416 406 450 385T508 328T532 241Q532 218 526 191Q508 106 437
54T266 -8L248 -97H207L224 -10Q148 -9 91 17T10 84L52 227H83Q85 211 85 199Q85 167 76 97Q95 70 128 54T206 37Q271 37 323 72T389 173Q392 188 392 200Q392 232 375 254T332 291T262 327Q212 349 181 367T129 416T107 492Q107 509 112 534Q129 617 198 661T371
710L387 785H428L413 710Q478 707 522 689T593 637L554 507H523Q521 531 521 546Z" />
<glyph unicode="%" glyph-name="percent" horiz-adv-x="901" d="M91 -8L820 727L851 695L119 -38L91 -8ZM78 318T78 452Q78 479 84 509Q102 599 159 649T314 700Q394 700 433 665T472 564Q472 539 466 509Q447 418 390 368T236 318Q78 318 78 452ZM287 362T316
406T358 509Q364 545 364 566Q364 605 350 630T305 655Q263 655 233 610T192 509Q185 478 185 451Q185 412 199 387T244 362Q287 362 316 406ZM554 -11T516 24T477 123Q477 150 483 180Q501 270 558 320T711 371Q792 371 831 336T871 235Q871 209 865 180Q846 90
788 40T633 -11Q554 -11 516 24ZM686 34T715 79T756 180Q762 207 762 237Q762 277 748 302T702 327Q660 327 631 282T590 180Q584 144 584 123Q584 84 598 59T643 34Q686 34 715 79Z" />
<glyph unicode="&amp;" glyph-name="ampersand" horiz-adv-x="727" d="M675 272T642 220T562 124L653 0H507L467 54Q355 -10 237 -10Q138 -10 80 29T22 138Q22 149 26 173Q41 247 95 295T239 388Q190 481 190 541Q190 558 192 566Q206 637 262 673T398 710Q540
710 540 616Q540 599 536 583Q529 546 505 517T450 467T362 410Q407 335 539 156Q613 230 645 330H694Q675 272 642 220ZM311 567T311 551Q311 506 345 441Q404 472 439 504T483 581Q485 589 485 604Q485 634 467 649T416 665Q378 665 351 644T314 580Q311 567
311 551ZM358 37T444 84Q324 240 263 344Q220 309 192 269T153 176Q149 152 149 142Q149 91 181 64T262 37Q358 37 444 84Z" />
<glyph unicode="&apos;" glyph-name="quotesingle" horiz-adv-x="236" d="M142 641L143 646Q150 682 166 700T217 719Q244 719 255 708T266 676Q266 662 263 647L262 641L177 422H134L142 641Z" />
<glyph unicode="(" glyph-name="parenleft" horiz-adv-x="255" d="M34 7T34 157Q34 230 50 304Q99 549 281 725H332Q274 659 240 596T186 466T146 293Q118 156 118 72Q118 -35 160 -116H109Q34 7 34 157Z" />
<glyph unicode=")" glyph-name="parenright" horiz-adv-x="255" d="M12 -52T46 12T99 142T140 313Q167 447 167 535Q167 590 157 636T126 725H177Q251 604 251 449Q251 379 236 304Q186 62 5 -116H-45Q12 -52 46 12Z" />
<glyph unicode="*" glyph-name="asterisk" horiz-adv-x="516" d="M156 334T146 342T136 363Q136 380 146 392T168 412T184 423L273 487L158 516Q148 518 141 527T134 548Q134 555 135 558Q139 577 152 587T181 597Q197 597 211 589L301 528L300 582Q300 630 304
659Q304 662 305 664Q309 683 322 694T356 706Q390 706 390 676Q390 668 389 664Q388 662 388 659Q371 605 338 528L453 589Q469 597 484 597Q498 597 507 590T516 569Q516 549 504 535T475 516L348 487L411 423Q413 420 421 412T433 396T437 380Q437 360 422 347T388
334Q366 334 355 356L306 465L213 356Q194 334 171 334Q156 334 146 342Z" />
<glyph unicode="+" glyph-name="plus" horiz-adv-x="577" d="M238 287H55L68 352H250L291 546H416L376 352H558L546 287H364L323 94H197L238 287Z" />
<glyph unicode="," glyph-name="comma" horiz-adv-x="250" d="M-8 -113Q18 -90 41 -61T74 -1L68 -2Q44 -2 30 12T16 47Q16 56 17 60Q24 91 46 112T100 133Q132 133 147 116T162 73Q162 62 159 50Q149 0 111 -55T27 -146L-8 -113Z" />
<glyph unicode="-" glyph-name="hyphen" horiz-adv-x="412" d="M62 316H386L370 244H47L62 316Z" />
<glyph unicode="." glyph-name="period" horiz-adv-x="250" d="M48 -10T33 4T18 44Q18 83 43 109T105 136Q132 136 147 121T163 81Q163 75 161 63Q154 31 131 11T76 -10Q48 -10 33 4Z" />
<glyph unicode="/" glyph-name="slash" horiz-adv-x="357" d="M377 704H429L30 0H-20L377 704Z" />
<glyph unicode="0" glyph-name="zero" horiz-adv-x="591" d="M43 -10T43 208Q43 267 59 350Q132 710 393 710Q597 710 597 492Q597 430 580 350Q507 -10 246 -10Q43 -10 43 208ZM324 37T371 118T448 350Q470 457 470 526Q470 663 384 663Q315 663 269 582T192
350Q170 242 170 173Q170 37 256 37Q324 37 371 118Z" />
<glyph unicode="1" glyph-name="one" horiz-adv-x="591" d="M74 23Q162 41 202 42L322 628L184 571L196 629L475 736L333 41Q397 36 455 24L450 0H70L74 23Z" />
<glyph unicode="2" glyph-name="two" horiz-adv-x="591" d="M0 47Q21 98 58 141T136 217T240 295Q304 341 343 373T412 445T451 532Q454 550 454 565Q454 610 427 636T348 663Q303 663 255 645T165 595L149 633Q260 710 380 710Q476 710 531 677T587 574Q587 556
582 531Q570 474 534 429T451 350T330 272Q242 218 192 179T117 89H448Q456 109 469 135T495 177H528L481 0H-9L0 47Z" />
<glyph unicode="3" glyph-name="three" horiz-adv-x="591" d="M156 -10T103 9T18 66L48 103Q74 75 119 56T208 37Q275 37 326 79T393 201Q397 218 397 240Q397 288 370 318T289 348H197L208 396H299Q358 396 398 438T450 535Q454 551 454 570Q454 614 427 638T349
663Q303 663 255 646T167 596L150 633Q260 710 381 710Q478 710 534 677T591 576Q591 555 587 538Q576 481 528 434T418 376V372Q468 360 499 326T530 240Q530 220 526 203Q504 94 420 42T225 -10Q156 -10 103 9Z" />
<glyph unicode="4" glyph-name="four" horiz-adv-x="591" d="M198 21Q262 40 303 40L327 159H15L28 224L445 701H569L475 242H580L548 159H458L434 41Q483 38 526 21L522 0H195L198 21ZM344 242L418 605H415L105 242H344Z" />
<glyph unicode="5" glyph-name="five" horiz-adv-x="591" d="M81 -10T14 66L45 103Q71 73 113 55T200 37Q270 37 321 85T389 217Q396 248 396 282Q396 334 372 364T292 395Q247 395 207 375T128 315L92 325L212 700H587L563 616H235L160 385Q202 418 244 430T338
442Q439 442 483 398T528 279Q528 250 522 218Q508 151 467 100T362 19T214 -10Q81 -10 14 66Z" />
<glyph unicode="6" glyph-name="six" horiz-adv-x="591" d="M48 -10T48 191Q48 245 61 307Q102 510 198 610T436 710Q510 710 547 689T611 633L580 596Q534 663 441 663Q375 663 309 597T201 366Q225 407 270 431T364 455Q459 455 507 411T556 289Q556 267 549
228Q527 119 448 55T248 -10Q48 -10 48 191ZM318 37T359 87T417 219Q424 253 424 287Q424 342 402 374T336 407Q285 407 242 356T182 224Q175 186 175 161Q175 106 197 72T261 37Q318 37 359 87Z" />
<glyph unicode="7" glyph-name="seven" horiz-adv-x="591" d="M173 187T272 341T485 616H189Q186 609 174 574T146 516H110L148 700H640L631 655Q548 585 467 470T325 228T237 0H111Q173 187 272 341Z" />
<glyph unicode="8" glyph-name="eight" horiz-adv-x="591" d="M132 -10T81 32T30 144Q30 172 35 193Q48 260 98 308T215 372V374Q171 382 146 419T121 505Q121 522 124 538Q142 621 214 665T393 710Q488 710 542 675T596 573Q596 554 592 538Q581 482 537 433T436
374V372Q486 357 516 320T546 230Q546 219 542 193Q523 104 452 47T246 -10Q132 -10 81 32ZM378 393T414 436T463 541Q467 558 467 578Q467 620 444 641T384 663Q338 663 303 633T254 541Q249 514 249 496Q249 450 269 422T329 393Q378 393 414 436ZM287 37T319
54T376 106T412 190Q417 213 417 241Q417 292 392 319T319 347Q262 347 221 306T164 190Q159 163 159 145Q159 92 186 65T255 37Q287 37 319 54Z" />
<glyph unicode="9" glyph-name="nine" horiz-adv-x="591" d="M130 -10T92 10T29 65L61 103Q106 37 199 37Q266 37 333 101T438 328Q418 288 371 263T276 238Q182 238 134 283T85 407Q85 438 92 469Q114 578 193 644T392 710Q594 710 594 508Q594 454 581 392Q540
190 443 90T204 -10Q130 -10 92 10ZM356 288T399 340T459 472Q465 504 465 535Q465 591 444 627T380 663Q323 663 282 611T223 477Q216 443 216 409Q216 353 238 321T305 288Q356 288 399 340Z" />
<glyph unicode=":" glyph-name="colon" horiz-adv-x="250" d="M122 352T107 367T92 406Q92 445 117 472T180 499Q207 499 222 484T237 444Q237 406 212 379T149 352Q122 352 107 367ZM48 -10T33 4T18 44Q18 83 43 109T105 136Q132 136 147 121T163 81Q163 75 161
63Q154 31 131 11T76 -10Q48 -10 33 4Z" />
<glyph unicode=";" glyph-name="semicolon" horiz-adv-x="250" d="M122 352T107 367T92 406Q92 445 117 472T180 499Q207 499 222 484T237 444Q237 406 212 379T149 352Q122 352 107 367ZM-8 -113Q18 -90 41 -61T74 -1Q70 -2 64 -2Q42 -2 29 12T16 47Q16 55 17
60Q24 91 46 112T100 133Q132 133 147 116T162 73Q162 62 159 50Q149 0 111 -55T27 -146L-8 -113Z" />
<glyph unicode="&lt;" glyph-name="less" horiz-adv-x="577" d="M64 313L72 350L598 594L582 522L179 332L505 141L490 69L64 313Z" />
<glyph unicode="=" glyph-name="equal" horiz-adv-x="577" d="M90 426H567L554 362H76L90 426ZM50 229H527L514 165H37L50 229Z" />
<glyph unicode="&gt;" glyph-name="greater" horiz-adv-x="577" d="M35 141L438 332L113 522L128 594L555 350L547 313L21 69L35 141Z" />
<glyph unicode="?" glyph-name="question" horiz-adv-x="470" d="M169 201T172 214Q185 280 216 322T298 412Q339 450 360 478T389 544Q394 567 394 582Q394 663 288 663Q244 663 204 646T119 597L105 632Q158 671 215 690T338 710Q415 710 464 679T513 583Q513
563 509 546Q501 506 481 477T437 426T372 376Q330 346 305 325T258 271T228 195Q228 192 227 187T225 175H167Q169 201 172 214ZM133 -10T120 2T106 38Q106 44 108 56Q115 86 135 103T184 121Q209 121 223 108T237 73Q237 36 214 13T157 -10Q133 -10 120 2Z" />
<glyph unicode="@" glyph-name="at" horiz-adv-x="793" d="M233 -58T168 -24T70 70T37 207Q37 249 46 292Q66 394 129 480T288 619T503 671Q587 671 651 640T751 552T786 419Q786 387 778 347Q766 286 735 235T661 152T570 121Q537 121 518 138T498 187Q498 197
499 203H495Q471 162 429 142T346 121Q278 121 246 153T213 240Q213 265 219 290Q230 344 262 391T345 466T463 495Q552 495 607 457L544 229Q542 219 542 213Q542 193 553 180T586 166Q614 166 643 189T695 254T728 348Q735 380 735 413Q735 477 706 525T624 600T499
627Q398 627 315 583T178 464T105 298Q96 255 96 214Q96 111 158 50T353 -11Q398 -11 456 -1T568 33L557 -16Q502 -36 442 -47T330 -58Q233 -58 168 -24ZM396 167T425 193T466 261L515 430Q495 442 454 442Q405 442 365 394T310 277Q305 254 305 237Q305 204 320
186T363 167Q396 167 425 193Z" />
<glyph unicode="A" glyph-name="A" horiz-adv-x="729" d="M646 29T678 16L676 0H395L398 17Q438 31 479 37L460 179H189L110 36Q149 31 184 14L182 0H-41L-38 18Q-19 24 5 30T43 39L414 704H507L607 37Q646 29 678 16ZM454 224L407 576L213 224H454Z" />
<glyph unicode="B" glyph-name="B" horiz-adv-x="605" d="M-18 15Q36 34 65 38L192 663Q154 670 119 683L122 700H422Q526 700 573 671T621 580Q621 563 616 536Q606 480 566 435T460 373V367Q523 354 551 317T579 230Q579 217 575 193Q555 96 493 48T310 0H-20L-18
15ZM339 390Q396 390 433 427T484 529Q490 556 490 576Q490 616 468 635T397 654H320L266 390H339ZM302 44Q416 44 447 198Q452 226 452 245Q452 294 427 319T351 345H257L196 44H302Z" />
<glyph unicode="C" glyph-name="C" horiz-adv-x="623" d="M185 -10T119 54T53 238Q53 290 65 350Q99 519 202 614T460 710Q536 710 585 691T665 634L626 496H594Q592 516 592 532Q592 566 598 622Q555 663 484 663Q377 663 302 579T197 350Q183 282 183 229Q183
137 223 87T345 37Q385 37 435 51T533 96L544 59Q500 26 441 8T316 -10Q185 -10 119 54Z" />
<glyph unicode="D" glyph-name="D" horiz-adv-x="672" d="M-12 17Q45 34 68 37L196 663Q160 671 124 684L127 700H436Q560 700 618 643T676 475Q676 422 662 350Q626 177 537 89T292 0H-15L-12 17ZM299 44Q390 44 444 123T530 350Q548 440 548 497Q548 573 519
613T426 654H323L198 44H299Z" />
<glyph unicode="E" glyph-name="E" horiz-adv-x="618" d="M658 700L625 533H596Q591 544 588 570T585 623Q585 638 587 654H331L272 368H450Q468 423 486 453H508L463 237H442Q438 257 438 287Q438 306 440 322H263L206 44H467Q474 68 497 108T536 165H565L515
0H-15L-12 16Q38 33 74 37L201 663Q166 669 124 684L127 700H658Z" />
<glyph unicode="F" glyph-name="F" horiz-adv-x="575" d="M646 700L612 533H583Q579 545 576 571T573 622Q573 638 575 654H331L270 358H448Q452 374 462 399T484 443H506L461 226H440Q437 252 437 281Q437 304 438 311H261L204 36Q251 28 283 15L280 0H-15L-12
16Q40 32 74 36L201 663Q156 671 124 684L127 700H646Z" />
<glyph unicode="G" glyph-name="G" horiz-adv-x="677" d="M183 -10T115 55T47 241Q47 292 59 350Q81 461 137 542T277 666T465 710Q543 710 604 690T694 634L654 496H623Q621 518 621 534Q621 566 627 622Q607 641 567 652T488 663Q378 663 300 578T192 350Q178
283 178 231Q178 139 219 88T343 37Q363 37 390 41T438 55L489 304Q437 317 417 324L421 340H690L687 328Q674 320 653 313T615 302L563 48Q523 21 454 6T315 -10Q183 -10 115 55Z" />
<glyph unicode="H" glyph-name="H" horiz-adv-x="782" d="M846 700L843 682Q837 680 810 672T762 661L634 36Q677 27 707 15L704 0H424L426 13Q465 31 505 37L565 332H259L198 36Q241 26 268 15L266 0H-15L-12 17Q45 34 68 37L196 663Q155 671 124 684L127 700H408L405
685Q373 669 326 662L268 378H575L633 664Q603 669 563 684L566 700H846Z" />
<glyph unicode="I" glyph-name="I" horiz-adv-x="352" d="M-10 17Q25 27 71 37L198 663Q168 669 126 683L129 700H414L411 682Q392 674 365 669T329 662L201 36Q232 30 275 16L272 0H-13L-10 17Z" />
<glyph unicode="J" glyph-name="J" horiz-adv-x="485" d="M86 -10T45 4T-20 45L6 78Q25 63 52 54T109 44Q154 44 187 70T231 152L335 662Q298 668 263 682L267 700H548L544 682Q484 664 465 661L363 156Q346 73 283 32T135 -10Q86 -10 45 4Z" />
<glyph unicode="K" glyph-name="K" horiz-adv-x="751" d="M756 676T744 674Q741 673 723 670T689 656L422 416L622 36Q657 29 700 16L698 0H504L330 333L244 256L199 36Q230 30 273 16L270 0H-15L-12 17Q23 27 69 37L196 663Q170 668 124 683L127 700H412L409
682Q390 674 363 669T327 662L260 333L622 659Q613 665 597 668T576 673Q564 674 551 678L555 700H768L764 678Q756 676 744 674Z" />
<glyph unicode="L" glyph-name="L" horiz-adv-x="611" d="M-12 16Q40 31 75 36L202 663Q157 673 130 684L133 700H416L412 682Q395 676 333 662L207 44H462Q469 69 492 108T532 165H560L510 0H-15L-12 16Z" />
<glyph unicode="M" glyph-name="M" horiz-adv-x="910" d="M-11 15Q22 26 69 35L196 663Q148 674 124 684L127 700H343L437 181L758 700H973L970 684Q941 675 890 661L762 35Q804 26 834 15L831 0H549L552 15Q589 27 631 35L746 597L422 76H346L241 607L124 35Q166
26 196 15L193 0H-14L-11 15Z" />
<glyph unicode="N" glyph-name="N" horiz-adv-x="752" d="M-11 15Q22 26 69 35L196 663Q151 673 124 684L127 700H338L576 165L677 664Q635 673 605 684L608 700H816L813 684Q776 672 732 664L597 0H529L244 630L124 35Q166 26 196 15L193 0H-14L-11 15Z" />
<glyph unicode="O" glyph-name="O" horiz-adv-x="719" d="M180 -10T113 55T46 241Q46 292 58 350Q92 519 195 614T457 710Q587 710 654 644T722 456Q722 407 710 350Q675 181 571 86T310 -10Q180 -10 113 55ZM416 37T482 122T579 350Q592 414 592 472Q592 562
556 612T447 663Q351 663 285 578T190 350Q175 281 175 223Q175 135 211 86T319 37Q416 37 482 122Z" />
<glyph unicode="P" glyph-name="P" horiz-adv-x="608" d="M-18 17Q31 31 64 37L192 663Q153 671 121 683L124 700H437Q547 700 596 662T645 553Q645 530 638 493Q619 397 551 335T376 273H243L194 36Q223 31 268 16L265 0H-20L-18 17ZM352 317Q414 317 454 366T510
495Q517 532 517 553Q517 601 493 627T421 654H320L251 317H352Z" />
<glyph unicode="Q" glyph-name="Q" horiz-adv-x="719" d="M587 710T654 644T722 456Q722 407 710 350Q680 204 597 112T388 -3Q391 -52 427 -82T528 -117L519 -159Q399 -149 335 -110T263 -8Q156 4 101 68T46 242Q46 292 58 350Q92 519 195 614T457 710Q587 710
654 644ZM592 414T592 472Q592 562 556 612T447 663Q351 663 285 578T190 350Q176 280 176 224Q176 136 211 87T319 37Q415 37 482 122T579 350Q592 414 592 472Z" />
<glyph unicode="R" glyph-name="R" horiz-adv-x="675" d="M636 424T585 372T456 304L543 36Q583 28 612 16L609 0H433L344 299H254L200 36Q232 30 273 16L270 0H-15L-12 17Q37 31 70 37L197 663Q158 671 126 683L129 700H478Q574 700 616 665T659 564Q659 542
652 503Q636 424 585 372ZM530 534T530 558Q530 654 427 654H327L264 344H364Q490 344 524 505Q530 534 530 558Z" />
<glyph unicode="S" glyph-name="S" horiz-adv-x="559" d="M143 -10T85 16T3 84L45 227H76Q77 220 77 204Q77 156 68 97Q87 70 120 54T198 37Q263 37 315 72T381 173Q384 187 384 199Q384 231 367 254T323 292T253 327Q203 350 173 368T121 417T99 492Q99 509 104
534Q122 620 197 665T384 710Q458 710 506 693T584 637L546 507H514Q512 529 512 545Q512 582 518 624Q500 643 470 653T403 663Q337 663 295 636T241 555Q239 543 239 538Q239 513 254 495T291 464T355 431Q409 406 442 385T499 328T523 242Q523 218 517 191Q504
129 462 84T357 14T222 -10Q143 -10 85 16Z" />
<glyph unicode="T" glyph-name="T" horiz-adv-x="638" d="M127 17L180 29L214 37L340 654H181Q173 629 152 579T119 515H90L127 700H701L664 515H635Q628 533 628 603Q628 632 630 654H471L344 36Q388 28 424 16L421 0H124L127 17Z" />
<glyph unicode="U" glyph-name="U" horiz-adv-x="759" d="M97 -10T97 158Q97 185 103 218L194 663Q149 673 122 684L124 700H409L405 682Q383 675 324 662L231 205Q226 183 226 156Q226 37 378 37Q457 37 516 77T594 205L688 664Q649 670 614 684L617 700H826L823
684Q767 665 741 662L651 218Q628 104 549 47T336 -10Q97 -10 97 158Z" />
<glyph unicode="V" glyph-name="V" horiz-adv-x="735" d="M177 662Q146 667 108 684L111 700H388L385 681Q339 666 303 661L370 108L665 663Q624 670 590 685L593 700H816L812 681Q754 662 733 660L368 -6H270L177 662Z" />
<glyph unicode="W" glyph-name="W" horiz-adv-x="995" d="M175 662Q152 666 108 684L111 700H388L385 683Q369 676 344 670T300 661L311 153L579 670H635L700 97L952 668Q915 674 891 683L893 700H1074L1071 686Q1040 670 1011 667L709 -4H598L542 481L292 -4H198L175
662Z" />
<glyph unicode="X" glyph-name="X" horiz-adv-x="677" d="M734 700L731 685Q693 669 670 664L414 389L561 37Q605 25 629 16L627 0H348L350 13Q398 34 439 39L330 298L84 34Q93 31 111 26T143 16L140 0H-39L-36 17L25 35L311 342L177 661Q143 669 111 683L114
700H393L389 681Q335 664 301 660L396 433L611 664Q586 671 552 683L555 700H734Z" />
<glyph unicode="Y" glyph-name="Y" horiz-adv-x="714" d="M175 15Q230 34 255 36L310 305L179 661Q138 670 108 683L111 700H392L388 681Q337 665 303 660L415 359L661 665Q631 672 603 684L605 700H795L791 681Q774 674 732 664L440 304L386 36Q417 30 460 16L457
0H172L175 15Z" />
<glyph unicode="Z" glyph-name="Z" horiz-adv-x="580" d="M-19 29L499 654H204Q198 633 178 592T146 533H117L150 700H647L643 681L121 44H439Q446 69 469 108T509 165H538L487 0H-24L-19 29Z" />
<glyph unicode="[" glyph-name="bracketleft" horiz-adv-x="297" d="M137 706H367L358 662H220L70 -77H207L197 -124H-33L137 706Z" />
<glyph unicode="\" glyph-name="backslash" horiz-adv-x="337" d="M112 704H163L275 0H224L112 704Z" />
<glyph unicode="]" glyph-name="bracketright" horiz-adv-x="297" d="M-36 -77H100L251 662H115L124 706H355L185 -124H-45L-36 -77Z" />
<glyph unicode="^" glyph-name="asciicircum" horiz-adv-x="550" d="M332 725H420L532 314H450L366 681L133 314H52L332 725Z" />
<glyph unicode="_" glyph-name="underscore" horiz-adv-x="455" d="M-63 -68H397L388 -114H-72L-63 -68Z" />
<glyph unicode="`" glyph-name="grave" horiz-adv-x="491" d="M276 674Q240 699 244 729Q248 746 261 756T292 766Q308 766 321 756T341 736L366 704Q380 684 433 616L406 584L276 674Z" />
<glyph unicode="a" glyph-name="a" horiz-adv-x="570" d="M74 -10T47 28T19 127Q19 158 28 203Q53 327 128 417T337 507Q385 507 422 477L426 498H552L470 98Q467 83 467 72Q467 48 483 48Q501 48 526 82T568 155L591 143Q563 77 518 34T417 -10Q385 -10 364 12T342
74Q342 88 345 103L365 201Q266 -10 136 -10Q74 -10 47 28ZM231 47T272 97T346 213T388 317L412 437Q383 470 343 470Q277 470 230 401T161 236Q150 187 150 138Q150 47 198 47Q231 47 272 97Z" />
<glyph unicode="b" glyph-name="b" horiz-adv-x="607" d="M237 -10T202 13T156 74Q146 50 119 -4L30 2L164 657Q128 665 101 675L103 686L300 706L226 347Q265 421 326 464T451 507Q515 507 555 468T595 351Q595 313 587 277Q559 137 481 64T292 -10Q237 -10 202
13ZM353 34T396 94T459 256Q471 318 471 362Q471 462 408 462Q379 462 339 431T261 348T205 242L191 171Q187 147 187 136Q187 91 212 63T285 34Q353 34 396 94Z" />
<glyph unicode="c" glyph-name="c" horiz-adv-x="509" d="M139 -10T82 42T25 184Q25 217 32 248Q57 370 145 438T355 507Q437 507 482 483T528 411Q528 405 526 391Q522 374 508 360T475 345Q457 345 448 354T439 376Q439 384 445 397T452 416Q456 433 433 448T372
463Q294 463 238 408T160 246Q153 215 153 182Q153 116 185 75T284 33Q323 33 368 47T448 86L454 53Q417 26 362 8T244 -10Q139 -10 82 42Z" />
<glyph unicode="d" glyph-name="d" horiz-adv-x="604" d="M78 -10T49 30T20 134Q20 169 28 209Q43 284 83 351T192 463T353 507Q385 507 410 497T451 470L489 657Q452 665 428 675L430 686L626 706L501 98Q498 85 498 73Q498 47 514 47Q532 47 557 81T600 155L624
143Q596 77 551 34T450 -10Q418 -10 396 12T374 74Q374 88 377 103L395 192Q347 102 280 46T142 -10Q78 -10 49 30ZM238 47T285 95T372 208T418 307L443 429Q432 445 412 456T367 467Q316 467 272 430T198 333T155 211Q149 184 149 152Q149 107 162 77T205 47Q238
47 285 95Z" />
<glyph unicode="e" glyph-name="e" horiz-adv-x="544" d="M449 507T499 481T550 400Q550 387 547 370Q528 274 411 233T151 186Q149 117 181 75T280 33Q320 33 367 47T453 86L459 53Q422 26 364 8T243 -10Q138 -10 81 42T23 185Q23 210 30 248Q55 368 138 437T343
507Q449 507 499 481ZM437 422T415 442T342 462Q271 462 224 400T159 251Q157 244 155 228Q437 255 437 388Q437 422 415 442Z" />
<glyph unicode="f" glyph-name="f" horiz-adv-x="417" d="M468 721T504 698T540 634Q540 620 538 613Q535 597 521 583T489 569Q456 569 456 594Q456 609 463 621Q464 623 466 629T468 641Q468 657 453 665T414 673Q372 673 344 641T306 557L294 498H436L427 454H285L195
12Q176 -79 118 -126T-29 -173Q-101 -173 -135 -151T-169 -90Q-169 -79 -166 -65Q-163 -49 -150 -35T-118 -21Q-101 -21 -93 -29T-85 -49Q-85 -55 -86 -58Q-88 -64 -92 -73T-96 -92Q-96 -108 -82 -116T-44 -124Q-1 -124 27 -92T65 -8L158 454H69L77 498H167L175
536Q194 627 249 674T394 721Q468 721 504 698Z" />
<glyph unicode="g" glyph-name="g" horiz-adv-x="533" d="M587 527T599 514T612 480Q612 468 610 461Q607 444 593 430T560 416Q543 416 537 424T529 446Q527 455 525 459T515 464Q507 464 484 444Q503 414 503 378Q503 358 499 341Q483 262 416 220T244 177Q187
177 143 191Q114 172 114 145Q114 128 134 122T193 115H331Q389 115 426 89T463 16Q463 5 460 -9Q444 -83 371 -120T173 -157Q-21 -157 -21 -57Q-21 -41 -19 -33Q-14 -10 2 11T46 46Q25 64 25 98Q25 106 27 118Q32 144 50 168T101 211Q53 245 53 305Q53 324 57
341Q73 421 140 464T312 507Q406 507 456 472Q489 499 513 513T565 527Q587 527 599 514ZM378 358T378 379Q378 417 359 439T303 462Q256 462 225 428T182 341Q178 324 178 304Q178 265 196 243T253 220Q300 220 332 254T374 341Q378 358 378 379ZM116 24Q103 24
98 25Q67 -2 67 -44Q67 -83 103 -100T193 -117Q256 -117 305 -96T364 -31Q365 -27 365 -19Q365 7 340 15T262 24H116Z" />
<glyph unicode="h" glyph-name="h" horiz-adv-x="673" d="M666 143Q638 77 593 34T492 -10Q459 -10 439 16T419 83Q419 98 422 116L455 276Q472 358 472 397Q472 432 459 447T416 462Q383 462 337 421T244 309L181 0L52 -10L188 657Q153 665 126 676L128 686L325
706L258 377Q298 433 350 470T462 507Q529 507 564 479T600 392Q600 367 595 344L545 101Q541 81 541 72Q541 47 556 47Q574 47 600 82T642 155L666 143Z" />
<glyph unicode="i" glyph-name="i" horiz-adv-x="324" d="M192 545T178 559T163 597Q163 633 187 657T246 682Q272 682 287 668T302 629Q302 594 278 570T219 545Q192 545 178 559ZM115 -10T93 11T70 71Q70 85 73 101L146 457Q120 463 82 475L85 486L281 505L199
104Q196 88 196 72Q196 47 210 47Q229 47 253 80T295 155L319 143Q292 77 247 34T147 -10Q115 -10 93 11Z" />
<glyph unicode="j" glyph-name="j" horiz-adv-x="330" d="M217 545T203 559T188 597Q188 633 212 657T270 682Q296 682 311 668T327 629Q327 594 302 570T243 545Q217 545 203 559ZM-160 -180T-160 -95Q-160 -88 -158 -72Q-155 -56 -141 -42T-109 -28Q-76 -28
-76 -55Q-76 -62 -77 -66Q-77 -71 -82 -81T-88 -99Q-88 -116 -74 -124T-35 -132Q7 -132 34 -100T73 -16L170 457Q142 463 107 475L110 486L306 505L199 -16Q183 -96 125 -138T-20 -180Q-160 -180 -160 -95Z" />
<glyph unicode="k" glyph-name="k" horiz-adv-x="647" d="M622 513T634 500T647 463Q647 459 645 447Q641 430 627 416T594 402Q577 402 571 410T563 432Q561 441 559 445T549 450Q541 450 529 440T514 427L367 305L474 107Q493 72 523 72Q545 72 564 100T599
168L621 153Q612 121 591 83T539 18T470 -10Q441 -10 419 10T373 76L286 238L218 181L181 0L52 -10L189 657Q154 665 126 676L128 686L325 706L231 246L484 454Q519 482 545 497T599 513Q622 513 634 500Z" />
<glyph unicode="l" glyph-name="l" horiz-adv-x="330" d="M116 -10T94 11T72 70Q72 79 76 101L189 657Q154 665 126 676L128 686L325 706L202 104Q198 82 198 73Q198 47 213 47Q232 47 256 80T298 155L322 143Q295 77 250 34T149 -10Q116 -10 94 11Z" />
<glyph unicode="m" glyph-name="m" horiz-adv-x="973" d="M974 143Q946 77 901 34T800 -10Q767 -10 747 16T727 83Q727 100 730 116L763 276Q781 359 781 400Q781 434 769 448T727 462Q696 462 656 425T570 322L505 0L381 -10L457 360Q462 383 462 406Q462 437
449 449T409 462Q376 462 334 424T246 320L181 0L52 -10L148 460Q120 465 86 478L88 488L284 508L259 387Q298 440 347 473T454 507Q518 507 550 481T583 403L582 387Q621 440 669 473T774 507Q908 507 908 393Q908 367 903 344L853 101Q849 81 849 72Q849 47 865
47Q883 47 908 81T950 155L974 143Z" />
<glyph unicode="n" glyph-name="n" horiz-adv-x="673" d="M670 143Q642 77 597 34T496 -10Q463 -10 443 16T423 83Q423 98 426 116L459 276Q476 358 476 397Q476 432 463 447T420 462Q386 462 338 418T242 299L181 0L52 -10L148 460Q120 465 86 478L88 488L284
508L256 369Q296 428 350 467T467 507Q533 507 569 479T605 392Q605 365 600 344L550 101Q546 81 546 72Q546 47 561 47Q578 47 604 82T647 155L670 143Z" />
<glyph unicode="o" glyph-name="o" horiz-adv-x="588" d="M135 -10T77 39T19 179Q19 208 27 248Q52 371 136 439T350 507Q460 507 518 458T576 318Q576 288 568 248Q543 126 459 58T244 -10Q135 -10 77 39ZM320 34T370 91T441 248Q450 290 450 326Q450 391 422
426T341 462Q275 462 225 405T153 248Q145 211 145 173Q145 107 173 71T254 34Q320 34 370 91Z" />
<glyph unicode="p" glyph-name="p" horiz-adv-x="614" d="M136 460Q108 465 74 477L76 488L271 508L239 347Q278 421 339 464T463 507Q527 507 567 467T608 349Q608 319 600 277Q571 137 493 64T304 -10Q259 -10 226 6T178 51L124 -219L-4 -229L136 460ZM364 34T407
94T470 256Q483 317 483 363Q483 411 467 436T420 462Q392 462 352 431T274 348T218 242L203 171Q200 155 200 138Q200 92 224 63T296 34Q364 34 407 94Z" />
<glyph unicode="q" glyph-name="q" horiz-adv-x="615" d="M392 192Q343 102 274 46T134 -10Q72 -10 44 29T16 132Q16 167 24 209Q39 283 80 351T189 463T351 507Q381 507 406 495T448 462L455 498H580L435 -219L307 -229L392 192ZM233 47T281 95T369 208T416 307L437
413Q428 436 408 449T361 463Q311 463 268 426T194 330T150 211Q145 181 145 153Q145 108 158 78T200 47Q233 47 281 95Z" />
<glyph unicode="r" glyph-name="r" horiz-adv-x="455" d="M467 513T480 501T494 466Q494 461 492 447Q488 430 474 416T441 402Q424 402 418 410T408 432Q406 441 404 445T394 450Q326 450 241 326L175 0L46 -10L142 460Q113 466 80 478L82 488L278 508L256 397Q286
446 336 479T440 513Q467 513 480 501Z" />
<glyph unicode="s" glyph-name="s" horiz-adv-x="478" d="M104 -10T52 13T0 88Q0 94 2 108Q5 122 19 136T55 150Q74 150 85 138T94 111Q93 106 90 99T86 86Q83 75 93 63T125 43T172 34Q226 34 259 58T300 127Q301 132 301 140Q301 168 278 184T202 221Q159 238
132 252T86 291T67 350Q67 364 70 380Q83 442 145 474T291 507Q370 507 421 486T472 415Q472 409 470 395Q467 382 454 371T418 360Q399 360 388 368T380 392Q381 397 383 403T387 417Q390 434 369 449T309 464Q264 464 234 448T197 397Q196 392 196 384Q196 356
220 340T296 302Q340 284 367 270T414 230T433 168Q433 154 430 137Q415 63 349 27T184 -10Q104 -10 52 13Z" />
<glyph unicode="t" glyph-name="t" horiz-adv-x="389" d="M185 104Q182 92 182 83Q182 47 219 47Q245 47 270 78T316 155L343 140Q282 -10 156 -10Q117 -10 86 9T54 72Q54 83 57 96L130 454H52L61 498H139L146 531Q204 549 231 633H292L265 498H405L396 454H256L185 104Z" />
<glyph unicode="u" glyph-name="u" horiz-adv-x="642" d="M653 143Q626 77 580 34T479 -10Q447 -10 425 10T402 67Q402 80 405 95L412 128Q371 69 316 30T198 -10Q132 -10 97 18T62 104Q62 130 67 152L129 460Q101 465 67 478L69 488L266 508L195 156Q187 118
187 97Q187 64 201 49T245 34Q279 34 327 78T426 197L486 498H613L532 101Q529 86 529 73Q529 47 544 47Q561 47 587 81T629 155L653 143Z" />
<glyph unicode="v" glyph-name="v" horiz-adv-x="573" d="M114 -10T87 19T59 95Q59 115 63 132L129 460Q101 465 67 478L69 488L266 508L193 146Q188 124 188 104Q188 73 200 54T238 34Q280 34 323 84T401 208T449 348Q458 395 458 428Q458 463 447 490Q482 513
520 513Q559 513 575 496T591 449Q591 429 584 397Q566 308 510 214T367 55T172 -10Q114 -10 87 19Z" />
<glyph unicode="w" glyph-name="w" horiz-adv-x="787" d="M764 513T779 489T795 426Q795 399 789 370Q770 280 729 195T615 50T434 -10Q344 -10 335 66Q261 -10 184 -10Q118 -10 91 15T63 95Q63 135 75 192L129 460Q101 465 67 478L69 488L266 508L194 154Q185
111 185 85Q185 58 195 46T230 34Q272 34 336 110Q338 126 340 132L414 498H531L454 118Q448 91 448 72Q448 53 456 44T484 34Q513 34 546 69T607 160T647 274Q663 354 663 420Q663 464 655 490Q690 513 729 513Q764 513 779 489Z" />
<glyph unicode="x" glyph-name="x" horiz-adv-x="592" d="M591 513T604 499T618 462Q618 457 616 445Q612 427 598 414T565 400Q548 400 542 408T534 431Q533 440 531 445T521 450Q512 450 497 437L344 275L424 106Q433 87 443 80T468 73Q490 73 510 102T544 169L566
154Q550 96 512 43T410 -10Q384 -10 361 6T322 56L260 186L130 49Q101 18 76 4T15 -10Q-8 -10 -21 4T-34 40Q-34 45 -32 57Q-29 74 -15 88T18 102Q35 102 41 94T49 71Q51 61 53 57T62 53Q69 53 75 58T88 69T97 79L240 228L130 460Q93 465 63 477L65 488L234 505L324
316L456 453Q483 483 509 498T568 513Q591 513 604 499Z" />
<glyph unicode="y" glyph-name="y" horiz-adv-x="584" d="M571 513T583 496T595 450Q595 435 592 420Q587 394 568 361T515 283L203 -143Q139 -232 60 -232Q38 -232 20 -217T2 -180Q2 -173 3 -170Q6 -153 20 -139T53 -124Q69 -124 76 -131T88 -153Q91 -162 94
-166T103 -171Q112 -171 133 -154T172 -112L265 17L131 461Q101 464 66 478L68 488L254 507L329 104L451 272Q476 307 492 345T509 414Q509 457 484 490Q502 502 516 507T549 513Q571 513 583 496Z" />
<glyph unicode="z" glyph-name="z" horiz-adv-x="478" d="M1 -10T-9 1T-16 27Q-13 43 0 58T38 98L386 419H139Q113 357 99 337H70L102 498H509L502 457L139 117Q160 112 204 96Q241 83 265 77T313 70Q343 70 367 95T416 167L436 159Q406 75 374 33T296 -10Q270
-10 243 -2T172 25Q162 29 121 48Q115 51 102 56T84 62Q74 62 71 45V41Q71 37 72 31T72 18Q70 5 55 -2T19 -10Q1 -10 -9 1Z" />
<glyph unicode="{" glyph-name="braceleft" horiz-adv-x="380" d="M200 -122T158 -113T98 -83T81 -27Q81 -6 90 41L117 171Q121 190 121 208Q121 237 102 250T35 264L48 325Q104 326 129 344T164 402L196 562Q208 619 230 649T302 695T447 710L438 668Q399 666
374 659T331 631T306 570L270 398Q254 316 150 294Q230 273 230 212Q230 198 228 190L193 18Q189 1 189 -16Q189 -53 213 -65T287 -79L278 -122Q200 -122 158 -113Z" />
<glyph unicode="|" glyph-name="bar" horiz-adv-x="440" d="M123 751H224V-200H123V751Z" />
<glyph unicode="}" glyph-name="braceright" horiz-adv-x="380" d="M-33 -79Q6 -78 31 -71T73 -43T100 18L135 190Q144 230 175 256T255 294Q175 313 175 376Q175 390 177 398L213 570Q216 588 216 602Q216 639 193 652T119 668L127 710Q204 710 247 701T308 671T326
617Q326 597 319 562L290 417Q285 392 285 378Q285 350 304 338T371 325L359 264Q316 264 293 254T258 225T240 171L210 26Q199 -31 177 -61T104 -107T-42 -122L-33 -79Z" />
<glyph unicode="~" glyph-name="asciitilde" horiz-adv-x="578" d="M73 299Q97 323 131 338T196 354Q221 354 243 348T309 327Q347 313 374 306T430 298Q461 298 488 311T545 353L532 288Q508 264 478 251T416 238Q385 238 357 245T287 267Q250 280 227 286T180
293Q153 293 122 278T60 237L73 299Z" />
<glyph unicode="&#xa0;" glyph-name="uni00A0" horiz-adv-x="252" />
<glyph unicode="&#xa1;" glyph-name="exclamdown" horiz-adv-x="321" d="M165 375T152 388T138 424Q138 460 161 483T217 507Q241 507 255 494T269 458Q269 453 267 441Q261 411 240 393T190 375Q165 375 152 388ZM13 -213T13 -160Q13 -146 16 -132Q20 -123 21
-116L155 342H210L157 -116Q157 -119 156 -124T154 -132Q148 -166 129 -189T69 -213Q13 -213 13 -160Z" />
<glyph unicode="&#xa2;" glyph-name="cent" horiz-adv-x="509" d="M446 504T487 480T528 411Q528 405 526 391Q522 374 508 360T475 345Q457 345 448 354T439 376Q439 384 445 397T452 416Q456 433 433 448T372 463Q294 463 238 408T160 246Q153 215 153 182Q153
116 185 75T284 33Q323 33 368 47T448 86L454 53Q421 29 372 12T266 -9L249 -91H208L225 -10Q129 -5 77 46T25 184Q25 217 32 248Q56 364 136 431T329 506L345 581H387L371 507Q446 504 487 480Z" />
<glyph unicode="&#xa3;" glyph-name="sterling" horiz-adv-x="586" d="M-13 43H56Q80 64 89 83T105 134L146 332H53L62 376H154L186 531Q204 616 276 663T458 710Q579 710 638 636L612 604Q591 635 556 652T476 669Q413 669 369 633T309 521L279 376H479L470 332H270L233
146Q226 113 211 89T166 44H431Q437 68 461 108T501 165H529L479 0H-21L-13 43Z" />
<glyph unicode="&#xa4;" glyph-name="currency" horiz-adv-x="578" d="M52 111L127 173Q107 211 107 252Q107 271 112 294Q127 361 175 414L125 478L167 513L217 449Q275 491 342 491Q406 491 451 449L528 513L553 478L476 414Q495 378 495 334Q495 313 491 294Q478
227 427 173L476 111L436 76L387 138Q326 96 262 96Q197 96 153 138L77 75L52 111ZM310 145T347 164T411 218T446 293Q449 310 449 324Q449 376 417 409T333 443Q294 443 257 423T194 369T159 293Q156 277 156 261Q156 210 188 178T271 145Q310 145 347 164Z" />
<glyph unicode="&#xa5;" glyph-name="yen" horiz-adv-x="715" d="M798 700L795 681Q779 675 737 664L522 400H663L653 357H487L444 304L423 200H622L613 157H414L389 36Q420 31 462 16L460 0H176L179 15Q225 34 259 36L284 157H95L103 200H293L314 305L295 357H135L145
400H279L183 661Q142 670 112 683L115 700H397L393 681Q335 664 307 660L403 400H453L665 665Q634 673 606 684L609 700H798Z" />
<glyph unicode="&#xa6;" glyph-name="brokenbar" horiz-adv-x="440" d="M123 751H224V339H123V751ZM123 246H224V-200H123V246Z" />
<glyph unicode="&#xa7;" glyph-name="section" horiz-adv-x="566" d="M527 583T527 598Q527 631 532 676Q515 695 485 705T417 715Q350 715 308 689T255 609Q253 597 253 592Q253 557 281 535T369 486Q423 460 456 439T513 383T537 297Q537 271 532 248Q514 162
443 110Q480 68 480 9Q480 -9 475 -36Q462 -98 420 -143T316 -211T181 -235Q102 -235 43 -209T-40 -141L3 2H33Q34 -5 34 -21Q34 -49 28 -105L26 -128Q45 -155 79 -171T157 -188Q222 -188 273 -154T339 -54Q342 -41 342 -28Q342 4 325 26T281 64T211 99Q160 121
130 139T78 188T56 263Q56 280 61 305Q80 397 170 444Q115 487 115 551Q115 571 119 588Q137 674 211 718T398 762Q472 762 521 744T599 689L560 559H529Q527 583 527 598ZM412 244T412 256Q412 290 393 314T347 353T270 391Q250 399 240 404Q197 379 186 326Q184
312 184 307Q184 270 214 247T307 195Q363 168 377 160Q400 189 409 229Q412 244 412 256Z" />
<glyph unicode="&#xa8;" glyph-name="dieresis" horiz-adv-x="491" d="M184 584T173 595T162 625Q162 654 180 675T227 696Q248 696 259 684T271 653Q271 623 252 604T205 584Q184 584 173 595ZM408 584T397 595T386 625Q386 630 388 640Q392 664 409 680T451
696Q472 696 484 684T496 652Q496 644 495 640Q490 615 472 600T429 584Q408 584 397 595Z" />
<glyph unicode="&#xa9;" glyph-name="copyright" horiz-adv-x="797" d="M251 -10T171 37T46 168T0 357Q0 462 45 545T171 676T352 724Q453 724 533 677T658 546T704 357Q704 252 659 169T533 38T352 -10Q251 -10 171 37ZM440 35T509 77T617 192T656 357Q656 448
618 521T510 636T352 678Q264 678 195 636T86 521T47 357Q47 266 86 193T194 77T352 35Q440 35 509 77ZM313 134T265 161T189 239T160 357Q160 462 213 520T372 579Q405 579 442 569T498 542L493 447H468Q464 455 459 484T452 524Q442 534 422 541T376 548Q297
548 268 499T238 357Q238 276 272 223T376 170Q399 170 433 180T486 207L490 179Q471 160 437 147T370 134Q313 134 265 161Z" />
<glyph unicode="&#xaa;" glyph-name="ordfeminine" horiz-adv-x="368" d="M116 383T96 408T76 477Q76 495 81 522Q102 620 150 665T264 710Q280 710 297 703T320 682L326 710H410L358 456Q355 444 355 436Q355 422 367 422Q382 422 399 449T427 509L441 504Q424
450 397 417T318 383Q294 383 283 398T272 436Q272 442 274 454L280 484Q260 445 224 414T160 383Q116 383 96 408ZM204 416T239 456T291 532L311 635Q310 655 297 667T263 679Q222 679 198 628T166 529Q159 489 159 467Q159 416 187 416Q204 416 239 456Z" />
<glyph unicode="&#xab;" glyph-name="guillemotleft" horiz-adv-x="531" d="M163 95T124 150T38 251L42 272Q194 383 294 505L328 424Q302 390 256 348T151 262Q191 218 220 175T262 100L196 19Q163 95 124 150ZM372 94T332 149T246 251L250 272Q402 385 503 505L536
424Q489 360 361 262Q449 161 470 100L404 19Q372 94 332 149Z" />
<glyph unicode="&#xac;" glyph-name="logicalnot" horiz-adv-x="479" d="M335 328H-11V373H387V178H335V328Z" />
<glyph unicode="&#xad;" glyph-name="uni00AD" horiz-adv-x="412" d="M62 316H386L370 244H47L62 316Z" />
<glyph unicode="&#xae;" glyph-name="registered" horiz-adv-x="797" d="M453 724T533 677T658 546T704 357Q704 252 659 169T533 38T352 -10Q251 -10 171 37T46 168T0 357Q0 462 45 545T171 676T352 724Q453 724 533 677ZM440 35T509 77T617 192T656 357Q656
448 618 521T510 636T352 678Q264 678 195 636T86 521T47 357Q47 266 86 193T194 77T352 35Q440 35 509 77ZM510 168Q538 164 554 157V146H444L353 329H299V168Q323 165 347 157V146H172V157Q185 162 199 165T220 169V546Q192 549 172 558V570H385Q518 570 518
452Q518 401 493 370T415 331L510 168ZM299 359H359Q400 359 419 383T438 453Q438 497 419 518T359 540H299V359Z" />
<glyph unicode="&#xaf;" glyph-name="overscore" horiz-adv-x="491" d="M148 760H558L550 716H140L148 760Z" />
<glyph unicode="&#xb0;" glyph-name="degree" horiz-adv-x="331" d="M158 451T129 480T99 558Q99 575 102 591Q115 651 161 691T268 731Q320 731 349 701T379 623Q379 608 376 591Q364 530 318 491T210 451Q158 451 129 480ZM249 498T274 514T314 556T329 613Q329
644 310 663T258 683Q214 683 181 650T148 571Q148 539 167 519T220 498Q249 498 274 514Z" />
<glyph unicode="&#xb1;" glyph-name="plusminus" horiz-adv-x="577" d="M245 326H63L76 390H258L295 572H421L384 390H566L554 326H371L334 145H208L245 326ZM19 76H489L476 12H5L19 76Z" />
<glyph unicode="&#xb2;" glyph-name="uni00B2" horiz-adv-x="417" d="M58 308Q77 348 109 377T193 444Q252 487 283 519T323 596Q325 603 325 615Q325 640 310 654T267 669Q240 669 209 658T148 624L139 654Q163 675 205 692T298 710Q364 710 401 688T438 620Q438
609 435 595Q428 561 407 534T361 486T290 435Q248 408 220 387T172 339H350Q354 350 364 367T383 395H404L371 271H51L58 308Z" />
<glyph unicode="&#xb3;" glyph-name="uni00B3" horiz-adv-x="417" d="M152 263T114 280T61 319L83 349Q104 326 132 315T188 304Q228 304 255 328T291 393Q293 407 293 414Q293 442 279 459T233 476H166L174 520H241Q278 520 300 543T330 598Q332 610 332 614Q332
640 314 654T264 669Q239 669 208 657T151 626L143 654Q167 675 210 692T305 710Q369 710 404 689T439 627Q439 615 436 603Q429 567 407 540T348 501L347 496Q405 479 405 423Q405 410 402 395Q390 330 336 297T202 263Q152 263 114 280Z" />
<glyph unicode="&#xb4;" glyph-name="acute" horiz-adv-x="491" d="M226 616L365 735Q401 766 428 766Q461 766 461 736Q461 703 408 674L242 584L226 616Z" />
<glyph unicode="&#xb6;" glyph-name="paragraph" horiz-adv-x="518" d="M95 16Q120 25 171 36V310Q84 317 38 370T-9 512Q-9 609 40 654T185 700H453V685Q399 666 375 663V35Q415 28 452 15V0H309V659H238V0H95V16ZM171 659Q104 659 71 620T38 512Q38 436 77 396T171
356V659Z" />
<glyph unicode="&#xb7;" glyph-name="middot" horiz-adv-x="283" d="M125 280T112 294T98 332Q98 338 100 350Q107 382 128 401T180 421Q206 421 220 407T234 367Q234 362 232 350Q225 319 204 300T151 280Q125 280 112 294Z" />
<glyph unicode="&#xb8;" glyph-name="cedilla" horiz-adv-x="491" d="M121 -241T95 -234T52 -214L78 -179Q107 -195 147 -195Q181 -195 204 -182T234 -141Q238 -119 222 -110T179 -100Q171 -100 157 -102L140 -70L201 20H258L203 -62H213Q257 -63 278 -80T300
-126Q300 -136 299 -141Q289 -189 247 -215T147 -241Q121 -241 95 -234Z" />
<glyph unicode="&#xb9;" glyph-name="uni00B9" horiz-adv-x="417" d="M89 292Q124 302 176 311L241 628L154 599L162 639L376 713L293 309Q335 305 368 293L364 271H84L89 292Z" />
<glyph unicode="&#xba;" glyph-name="ordmasculine" horiz-adv-x="375" d="M149 383T114 413T78 501Q78 520 83 547Q98 623 150 666T285 710Q354 710 390 679T427 590Q427 572 422 547Q406 470 354 427T219 383Q149 383 114 413ZM264 426T291 458T330 547Q335
574 335 591Q335 627 320 647T277 667Q240 667 213 635T174 547Q169 520 169 503Q169 467 184 447T228 426Q264 426 291 458Z" />
<glyph unicode="&#xbb;" glyph-name="guillemotright" horiz-adv-x="531" d="M8 100Q33 132 80 175T184 262Q96 358 75 424L142 505Q191 385 297 272L293 251Q227 204 166 149T43 19L8 100ZM217 100Q262 161 391 262Q351 306 323 348T283 424L349 505Q396 388
506 272L502 251Q436 204 374 149T250 19L217 100Z" />
<glyph unicode="&#xbc;" glyph-name="onequarter" horiz-adv-x="944" d="M68 292Q103 302 155 311L220 628L133 599L141 639L355 713L272 309Q311 305 348 293L343 271H63L68 292ZM770 704H816L255 0H210L770 704ZM596 23Q627 31 663 35L676 103H476L482 130L743
433H863L804 146H865L855 103H795L781 36Q811 32 835 23L831 0H592L596 23ZM686 146L731 367L540 146H686Z" />
<glyph unicode="&#xbd;" glyph-name="onehalf" horiz-adv-x="944" d="M68 292Q103 302 155 311L220 628L133 599L141 639L355 713L272 309Q311 305 348 293L343 271H63L68 292ZM757 704H803L242 0H196L757 704ZM529 36Q548 76 579 105T664 173Q723 216 753 247T793
324Q795 338 795 343Q795 369 780 383T736 397Q677 397 618 352L607 381Q632 402 675 419T769 437Q835 437 871 416T908 349Q908 337 905 323Q895 274 860 240T760 163Q712 131 688 112T643 68H821Q838 104 854 123H875L844 0H522L529 36Z" />
<glyph unicode="&#xbe;" glyph-name="threequarters" horiz-adv-x="944" d="M157 265T120 282T66 321L88 350Q109 327 137 316T193 305Q232 305 259 329T295 394Q297 402 297 417Q297 444 283 460T237 477H171L179 522H245Q283 522 305 544T334 598Q335 603 335
613Q335 640 318 654T268 669Q243 669 213 657T156 626L147 654Q171 675 214 692T309 710Q374 710 409 689T444 627Q444 586 419 550T353 502L352 498Q410 480 410 422Q410 410 407 396Q393 332 340 299T208 265Q157 265 120 282ZM768 704H814L252 0H207L768 704ZM596
23Q627 31 663 35L676 103H476L482 130L743 433H863L804 146H865L855 103H795L781 36Q811 32 835 23L831 0H592L596 23ZM686 146L731 367L540 146H686Z" />
<glyph unicode="&#xbf;" glyph-name="questiondown" horiz-adv-x="470" d="M266 367T253 379T239 414Q239 419 241 433Q246 463 266 481T316 499Q341 499 354 487T368 451Q368 414 346 391T290 367Q266 367 253 379ZM59 -221T10 -190T-39 -93Q-39 -74 -35 -57Q-27
-17 -7 12T38 63T103 112Q145 142 170 163T217 217T246 291Q247 294 249 314H308Q306 289 303 277Q290 209 259 167T176 76Q136 39 115 11T85 -55Q81 -72 81 -92Q81 -131 106 -152T188 -174Q268 -174 355 -109L369 -143Q316 -182 260 -201T137 -221Q59 -221 10
-190Z" />
<glyph unicode="&#xc0;" glyph-name="Agrave" horiz-adv-x="729" d="M380 898T380 921Q380 926 381 929Q384 944 396 955T426 967Q444 967 457 957T479 937L570 817L543 786L413 875Q380 898 380 921ZM646 29T678 16L676 0H395L398 17Q438 31 479 37L460 179H189L110
36Q149 31 184 14L182 0H-41L-38 18Q-19 24 5 30T43 39L414 704H507L607 37Q646 29 678 16ZM454 224L407 576L213 224H454Z" />
<glyph unicode="&#xc1;" glyph-name="Aacute" horiz-adv-x="729" d="M415 786L400 817L540 936Q550 946 567 956T603 967Q619 967 627 959T635 939Q635 933 634 930Q628 901 581 875L415 786ZM646 29T678 16L676 0H395L398 17Q438 31 479 37L460 179H189L110 36Q149
31 184 14L182 0H-41L-38 18Q-19 24 5 30T43 39L414 704H507L607 37Q646 29 678 16ZM454 224L407 576L213 224H454Z" />
<glyph unicode="&#xc2;" glyph-name="Acircumflex" horiz-adv-x="729" d="M477 879T436 844T358 782L314 823Q350 845 404 888T482 959H541Q554 932 590 888T654 823L595 782Q569 806 542 842T503 904H499Q477 879 436 844ZM646 29T678 16L676 0H395L398 17Q438
31 479 37L460 179H189L110 36Q149 31 184 14L182 0H-41L-38 18Q-19 24 5 30T43 39L414 704H507L607 37Q646 29 678 16ZM454 224L407 576L213 224H454Z" />
<glyph unicode="&#xc3;" glyph-name="Atilde" horiz-adv-x="729" d="M389 840T371 826T342 786H292Q310 841 343 869T423 897Q447 897 465 889T507 866Q524 855 535 850T558 844Q607 844 631 900H680Q643 786 549 786Q529 786 510 794T466 817Q447 828 435 834T411
840Q389 840 371 826ZM607 37Q646 29 678 16L676 0H395L398 17Q438 31 479 37L460 179H189L110 36Q149 31 184 14L182 0H-41L-38 18Q-19 24 5 30T43 39L414 704H507L607 37ZM454 224L407 576L213 224H454Z" />
<glyph unicode="&#xc4;" glyph-name="Adieresis" horiz-adv-x="729" d="M331 785T320 797T309 828Q309 857 328 877T373 898Q394 898 406 887T418 856Q418 851 416 841Q412 817 394 801T350 785Q331 785 320 797ZM553 785T542 797T531 829Q531 837 532 841Q537
866 555 882T598 898Q618 898 630 887T642 855Q642 826 623 806T575 785Q553 785 542 797ZM646 29T678 16L676 0H395L398 17Q438 31 479 37L460 179H189L110 36Q149 31 184 14L182 0H-41L-38 18Q-19 24 5 30T43 39L414 704H507L607 37Q646 29 678 16ZM454 224L407
576L213 224H454Z" />
<glyph unicode="&#xc5;" glyph-name="Aring" horiz-adv-x="729" d="M429 743T407 763T385 817Q385 832 387 840Q396 884 429 911T507 938Q544 938 566 918T588 864Q588 811 553 777T467 743Q429 743 407 763ZM429 807T441 796T475 784Q503 784 523 804T543 855Q543
874 531 885T498 896Q470 896 450 877T429 827Q429 807 441 796ZM646 29T678 16L676 0H395L398 17Q438 31 479 37L460 179H189L110 36Q149 31 184 14L182 0H-41L-38 18Q-19 24 5 30T43 39L414 704H507L607 37Q646 29 678 16ZM454 224L407 576L213 224H454Z" />
<glyph unicode="&#xc6;" glyph-name="AE" horiz-adv-x="981" d="M-38 16Q-6 27 40 38L531 669Q499 677 484 684L487 700H1020L987 533H958Q953 544 950 570T947 623Q947 638 949 654H692L636 382H815Q819 398 829 423T851 467H872L828 251H807Q804 277 804 306Q804
329 805 336H627L567 44H829Q836 68 859 108T898 165H927L877 0H348L351 16Q401 31 436 36L466 179H222L112 36Q158 30 191 14L189 0H-41L-38 16ZM475 224L555 613L256 224H475Z" />
<glyph unicode="&#xc7;" glyph-name="Ccedilla" horiz-adv-x="623" d="M536 710T585 691T665 634L626 496H594Q592 516 592 532Q592 566 598 622Q555 663 484 663Q377 663 302 579T197 350Q183 282 183 229Q183 137 223 87T345 37Q385 37 435 51T533 96L544 59Q505
28 451 11T337 -10L298 -67Q346 -67 370 -84T395 -131Q395 -136 393 -146Q383 -194 341 -220T242 -246Q215 -246 190 -239T148 -219L174 -184Q203 -200 242 -200Q276 -200 299 -187T329 -146Q333 -124 317 -115T275 -105Q266 -105 252 -107L236 -75L280 -9Q167
0 110 63T53 238Q53 290 65 350Q99 519 202 614T460 710Q536 710 585 691Z" />
<glyph unicode="&#xc8;" glyph-name="Egrave" horiz-adv-x="618" d="M393 888T385 901T380 929Q383 944 395 955T425 967Q443 967 456 957T478 937L569 817L542 786L412 875Q393 888 385 901ZM658 700L625 533H596Q591 544 588 570T585 623Q585 638 587 654H331L272
368H450Q468 423 486 453H508L463 237H442Q438 257 438 287Q438 306 440 322H263L206 44H467Q474 68 497 108T536 165H565L515 0H-15L-12 16Q38 33 74 37L201 663Q166 669 124 684L127 700H658Z" />
<glyph unicode="&#xc9;" glyph-name="Eacute" horiz-adv-x="618" d="M372 786L357 817L497 936Q507 946 524 956T559 967Q576 967 584 959T592 939Q592 933 591 930Q585 901 538 875L372 786ZM658 700L625 533H596Q591 544 588 570T585 623Q585 638 587 654H331L272
368H450Q468 423 486 453H508L463 237H442Q438 257 438 287Q438 306 440 322H263L206 44H467Q474 68 497 108T536 165H565L515 0H-15L-12 16Q38 33 74 37L201 663Q166 669 124 684L127 700H658Z" />
<glyph unicode="&#xca;" glyph-name="Ecircumflex" horiz-adv-x="618" d="M458 879T417 844T339 782L294 823Q331 845 385 889T462 959H522Q535 932 571 888T635 823L576 782Q550 806 523 842T484 904H480Q458 879 417 844ZM658 700L625 533H596Q591 544 588 570T585
623Q585 638 587 654H331L272 368H450Q468 423 486 453H508L463 237H442Q438 257 438 287Q438 306 440 322H263L206 44H467Q474 68 497 108T536 165H565L515 0H-15L-12 16Q38 33 74 37L201 663Q166 669 124 684L127 700H658Z" />
<glyph unicode="&#xcb;" glyph-name="Edieresis" horiz-adv-x="618" d="M332 785T321 797T310 828Q310 857 329 877T374 898Q395 898 407 887T419 856Q419 851 417 841Q413 817 395 801T351 785Q332 785 321 797ZM554 785T543 797T532 829Q532 837 533 841Q538
866 556 882T599 898Q619 898 631 887T643 855Q643 826 624 806T576 785Q554 785 543 797ZM658 700L625 533H596Q591 544 588 570T585 623Q585 638 587 654H331L272 368H450Q468 423 486 453H508L463 237H442Q438 257 438 287Q438 306 440 322H263L206 44H467Q474
68 497 108T536 165H565L515 0H-15L-12 16Q38 33 74 37L201 663Q166 669 124 684L127 700H658Z" />
<glyph unicode="&#xcc;" glyph-name="Igrave" horiz-adv-x="352" d="M244 875Q224 888 216 901T211 929Q214 944 226 955T256 967Q274 967 287 957T309 937L400 817L373 786L244 875ZM-10 17Q25 27 71 37L198 663Q168 669 126 683L129 700H414L411 682Q392 674
365 669T329 662L201 36Q232 30 275 16L272 0H-13L-10 17Z" />
<glyph unicode="&#xcd;" glyph-name="Iacute" horiz-adv-x="352" d="M188 817L328 936Q338 946 355 956T390 967Q407 967 415 959T423 939Q423 933 422 930Q416 901 369 875L203 786L188 817ZM-10 17Q25 27 71 37L198 663Q168 669 126 683L129 700H414L411 682Q392
674 365 669T329 662L201 36Q232 30 275 16L272 0H-13L-10 17Z" />
<glyph unicode="&#xce;" glyph-name="Icircumflex" horiz-adv-x="352" d="M124 823Q161 845 215 888T292 959H352Q365 932 401 888T465 823L406 782Q380 806 353 842T314 904H310Q288 879 247 844T169 782L124 823ZM-10 17Q25 27 71 37L198 663Q168 669 126 683L129
700H414L411 682Q392 674 365 669T329 662L201 36Q232 30 275 16L272 0H-13L-10 17Z" />
<glyph unicode="&#xcf;" glyph-name="Idieresis" horiz-adv-x="352" d="M155 785T144 797T133 828Q133 857 152 877T197 898Q218 898 230 886T242 854Q242 825 223 805T174 785Q155 785 144 797ZM378 785T367 796T356 827Q356 836 357 841Q362 866 379 882T422
898Q443 898 454 887T466 856Q466 851 464 841Q460 817 442 801T399 785Q378 785 367 796ZM-10 17Q25 27 71 37L198 663Q168 669 126 683L129 700H414L411 682Q392 674 365 669T329 662L201 36Q232 30 275 16L272 0H-13L-10 17Z" />
<glyph unicode="&#xd0;" glyph-name="Eth" horiz-adv-x="673" d="M560 700T618 643T676 475Q676 422 662 350Q626 177 537 89T292 0H-15L-12 17Q45 34 68 37L124 311H60L69 355H133L196 663Q160 671 124 684L127 700H436Q560 700 618 643ZM548 440T548 497Q548
573 519 613T426 654H323L262 355H408L399 311H253L198 44H299Q390 44 444 123T530 350Q548 440 548 497Z" />
<glyph unicode="&#xd1;" glyph-name="Ntilde" horiz-adv-x="752" d="M331 841T364 869T444 897Q468 897 486 889T528 866Q545 855 556 850T580 844Q628 844 652 900H701Q664 786 570 786Q550 786 531 794T487 817Q468 828 456 834T432 840Q410 840 392 826T364
786H313Q331 841 364 869ZM-11 15Q22 26 69 35L196 663Q151 673 124 684L127 700H338L576 165L677 664Q635 673 605 684L608 700H816L813 684Q776 672 732 664L597 0H529L244 630L124 35Q166 26 196 15L193 0H-14L-11 15Z" />
<glyph unicode="&#xd2;" glyph-name="Ograve" horiz-adv-x="719" d="M421 875Q402 888 394 901T388 929Q391 943 404 955T434 967Q451 967 465 957T486 937L578 817L551 786L421 875ZM180 -10T113 55T46 241Q46 292 58 350Q92 519 195 614T457 710Q587 710 654
644T722 456Q722 407 710 350Q675 181 571 86T310 -10Q180 -10 113 55ZM416 37T482 122T579 350Q592 414 592 472Q592 562 556 612T447 663Q351 663 285 578T190 350Q175 281 175 223Q175 135 211 86T319 37Q416 37 482 122Z" />
<glyph unicode="&#xd3;" glyph-name="Oacute" horiz-adv-x="719" d="M378 817L518 936Q528 946 545 956T580 967Q597 967 605 959T613 939Q613 933 612 930Q606 901 559 875L393 786L378 817ZM180 -10T113 55T46 241Q46 292 58 350Q92 519 195 614T457 710Q587
710 654 644T722 456Q722 407 710 350Q675 181 571 86T310 -10Q180 -10 113 55ZM416 37T482 122T579 350Q592 414 592 472Q592 562 556 612T447 663Q351 663 285 578T190 350Q175 281 175 223Q175 135 211 86T319 37Q416 37 482 122Z" />
<glyph unicode="&#xd4;" glyph-name="Ocircumflex" horiz-adv-x="719" d="M308 823Q344 845 398 888T476 959H535Q549 931 585 888T649 823L589 782Q563 806 536 842T497 904H493Q471 879 430 844T352 782L308 823ZM180 -10T113 55T46 241Q46 292 58 350Q92 519
195 614T457 710Q587 710 654 644T722 456Q722 407 710 350Q675 181 571 86T310 -10Q180 -10 113 55ZM416 37T482 122T579 350Q592 414 592 472Q592 562 556 612T447 663Q351 663 285 578T190 350Q175 281 175 223Q175 135 211 86T319 37Q416 37 482 122Z" />
<glyph unicode="&#xd5;" glyph-name="Otilde" horiz-adv-x="719" d="M308 841T341 869T421 897Q445 897 463 889T505 866Q522 855 533 850T556 844Q605 844 629 900H678Q641 786 547 786Q527 786 508 794T464 817Q445 828 433 834T409 840Q387 840 369 826T340
786H290Q308 841 341 869ZM180 -10T113 55T46 241Q46 292 58 350Q92 519 195 614T457 710Q587 710 654 644T722 456Q722 407 710 350Q675 181 571 86T310 -10Q180 -10 113 55ZM416 37T482 122T579 350Q592 414 592 472Q592 562 556 612T447 663Q351 663 285 578T190
350Q175 281 175 223Q175 135 211 86T319 37Q416 37 482 122Z" />
<glyph unicode="&#xd6;" glyph-name="Odieresis" horiz-adv-x="719" d="M338 785T327 797T316 829Q316 837 317 841Q322 866 340 882T381 898Q402 898 414 887T426 855Q426 826 406 806T358 785Q338 785 327 797ZM562 785T551 797T539 828Q539 836 540 841Q545
866 563 882T605 898Q626 898 637 886T649 854Q649 825 630 805T582 785Q562 785 551 797ZM180 -10T113 55T46 241Q46 292 58 350Q92 519 195 614T457 710Q587 710 654 644T722 456Q722 407 710 350Q675 181 571 86T310 -10Q180 -10 113 55ZM416 37T482 122T579
350Q592 414 592 472Q592 562 556 612T447 663Q351 663 285 578T190 350Q175 281 175 223Q175 135 211 86T319 37Q416 37 482 122Z" />
<glyph unicode="&#xd7;" glyph-name="multiply" horiz-adv-x="577" d="M47 152L241 318L114 484L187 547L317 375L519 547L565 484L371 318L498 152L425 89L294 261L93 89L47 152Z" />
<glyph unicode="&#xd8;" glyph-name="Oslash" horiz-adv-x="719" d="M669 627Q721 563 721 456Q721 402 710 350Q675 181 571 86T310 -10Q188 -10 122 48L44 -34L14 -5L93 79Q46 141 46 241Q46 292 58 350Q92 519 195 614T457 710Q573 710 638 657L700 723L733
694L669 627ZM176 277T176 222Q176 194 179 170L571 586Q536 663 447 663Q351 663 285 578T190 350Q176 277 176 222ZM592 422T592 472Q592 508 586 539L192 122Q223 37 319 37Q416 37 482 122T579 350Q592 422 592 472Z" />
<glyph unicode="&#xd9;" glyph-name="Ugrave" horiz-adv-x="759" d="M449 875Q429 888 421 901T416 929Q419 944 431 955T461 967Q479 967 492 957T514 937L605 817L579 786L449 875ZM97 -10T97 158Q97 185 103 218L194 663Q149 673 122 684L124 700H409L405 682Q383
675 324 662L231 205Q226 183 226 156Q226 37 378 37Q457 37 516 77T594 205L688 664Q649 670 614 684L617 700H826L823 684Q767 665 741 662L651 218Q628 104 549 47T336 -10Q97 -10 97 158Z" />
<glyph unicode="&#xda;" glyph-name="Uacute" horiz-adv-x="759" d="M431 817L571 936Q581 946 597 956T633 967Q650 967 658 959T666 939Q666 933 665 930Q659 901 612 875L446 786L431 817ZM97 -10T97 158Q97 185 103 218L194 663Q149 673 122 684L124 700H409L405
682Q383 675 324 662L231 205Q226 183 226 156Q226 37 378 37Q457 37 516 77T594 205L688 664Q649 670 614 684L617 700H826L823 684Q767 665 741 662L651 218Q628 104 549 47T336 -10Q97 -10 97 158Z" />
<glyph unicode="&#xdb;" glyph-name="Ucircumflex" horiz-adv-x="759" d="M329 823Q365 845 419 888T497 959H556Q570 931 606 888T670 823L610 782Q584 807 557 842T518 904H514Q493 879 452 844T373 782L329 823ZM97 -10T97 158Q97 185 103 218L194 663Q149
673 122 684L124 700H409L405 682Q383 675 324 662L231 205Q226 183 226 156Q226 37 378 37Q457 37 516 77T594 205L688 664Q649 670 614 684L617 700H826L823 684Q767 665 741 662L651 218Q628 104 549 47T336 -10Q97 -10 97 158Z" />
<glyph unicode="&#xdc;" glyph-name="Udieresis" horiz-adv-x="759" d="M378 785T367 797T356 828Q356 857 375 877T420 898Q441 898 453 887T465 856Q465 851 463 841Q459 817 441 801T397 785Q378 785 367 797ZM601 785T590 796T579 827Q579 857 597 877T645
898Q665 898 677 887T689 855Q689 826 670 806T622 785Q601 785 590 796ZM97 -10T97 158Q97 185 103 218L194 663Q149 673 122 684L124 700H409L405 682Q383 675 324 662L231 205Q226 183 226 156Q226 37 378 37Q457 37 516 77T594 205L688 664Q649 670 614 684L617
700H826L823 684Q767 665 741 662L651 218Q628 104 549 47T336 -10Q97 -10 97 158Z" />
<glyph unicode="&#xdd;" glyph-name="Yacute" horiz-adv-x="714" d="M409 817L549 936Q559 946 575 956T611 967Q628 967 636 959T644 939Q644 933 643 930Q637 901 590 875L424 786L409 817ZM175 15Q230 34 255 36L310 305L179 661Q138 670 108 683L111 700H392L388
681Q337 665 303 660L415 359L661 665Q631 672 603 684L605 700H795L791 681Q774 674 732 664L440 304L386 36Q417 30 460 16L457 0H172L175 15Z" />
<glyph unicode="&#xde;" glyph-name="Thorn" horiz-adv-x="607" d="M-18 17Q36 32 64 37L192 663Q153 671 121 683L124 700H329L303 571H436Q532 571 575 532T619 425Q619 403 612 366Q593 270 525 208T350 145H216L194 36Q223 31 268 16L265 0H-20L-18 17ZM326
190Q388 190 428 239T484 367Q491 404 491 426Q491 527 395 527H294L225 190H326Z" />
<glyph unicode="&#xdf;" glyph-name="germandbls" horiz-adv-x="717" d="M473 355T494 338T562 301Q601 283 624 269T664 230T681 171Q681 153 677 137Q662 62 596 26T442 -10Q363 -10 311 14T258 89Q258 94 260 108Q264 123 278 136T314 150Q332 150 343 138T352
111Q351 106 348 99T344 86Q342 75 352 63T383 43T430 34Q477 34 506 58T544 120Q546 132 546 136Q546 165 525 182T459 221Q423 238 401 252T363 289T347 346Q347 361 350 379Q360 429 403 458T500 497Q508 535 508 570Q508 620 488 653T417 686Q379 686 347 661T304
580L188 12Q169 -79 111 -126T-36 -173Q-108 -173 -142 -151T-176 -90Q-176 -79 -173 -65Q-169 -48 -157 -35T-125 -21Q-91 -21 -91 -50L-92 -58Q-94 -64 -98 -73T-103 -92Q-103 -108 -88 -116T-49 -124Q-8 -124 20 -92T58 -8L152 453H62L71 498H162L170 539Q189
635 259 683T430 732Q539 732 581 683T623 561Q623 520 614 482L610 462Q552 462 513 443T473 383Q473 355 494 338Z" />
<glyph unicode="&#xe0;" glyph-name="agrave" horiz-adv-x="570" d="M292 673Q272 686 264 699T259 727Q262 742 274 753T304 765Q322 765 335 755T357 735L448 615L421 584L292 673ZM74 -10T47 28T19 127Q19 158 28 203Q53 327 128 417T337 507Q385 507 422 477L426
498H552L470 98Q467 83 467 72Q467 48 483 48Q501 48 526 82T568 155L591 143Q563 77 518 34T417 -10Q385 -10 364 12T342 74Q342 88 345 103L365 201Q266 -10 136 -10Q74 -10 47 28ZM231 47T272 97T346 213T388 317L412 437Q383 470 343 470Q277 470 230 401T161
236Q150 187 150 138Q150 47 198 47Q231 47 272 97Z" />
<glyph unicode="&#xe1;" glyph-name="aacute" horiz-adv-x="570" d="M263 615L403 734Q413 744 429 754T465 765Q482 765 490 757T498 737Q498 731 497 728Q491 699 444 673L278 584L263 615ZM74 -10T47 28T19 127Q19 158 28 203Q53 327 128 417T337 507Q385 507
422 477L426 498H552L470 98Q467 83 467 72Q467 48 483 48Q501 48 526 82T568 155L591 143Q563 77 518 34T417 -10Q385 -10 364 12T342 74Q342 88 345 103L365 201Q266 -10 136 -10Q74 -10 47 28ZM231 47T272 97T346 213T388 317L412 437Q383 470 343 470Q277 470
230 401T161 236Q150 187 150 138Q150 47 198 47Q231 47 272 97Z" />
<glyph unicode="&#xe2;" glyph-name="acircumflex" horiz-adv-x="570" d="M187 621Q224 643 278 687T355 757H415Q428 730 464 686T528 621L469 580Q444 604 416 640T376 702H373Q351 677 309 641T231 580L187 621ZM74 -10T47 28T19 127Q19 158 28 203Q53 327
128 417T337 507Q385 507 422 477L426 498H552L470 98Q467 83 467 72Q467 48 483 48Q501 48 526 82T568 155L591 143Q563 77 518 34T417 -10Q385 -10 364 12T342 74Q342 88 345 103L365 201Q266 -10 136 -10Q74 -10 47 28ZM231 47T272 97T346 213T388 317L412 437Q383
470 343 470Q277 470 230 401T161 236Q150 187 150 138Q150 47 198 47Q231 47 272 97Z" />
<glyph unicode="&#xe3;" glyph-name="atilde" horiz-adv-x="570" d="M175 639T209 667T289 695Q313 695 331 687T373 664Q390 653 401 648T424 642Q473 642 497 698H546Q509 584 414 584Q395 584 377 592T333 615Q312 627 300 632T276 638Q254 638 236 624T208
584H157Q175 639 209 667ZM74 -10T47 28T19 127Q19 158 28 203Q53 327 128 417T337 507Q385 507 422 477L426 498H552L470 98Q467 83 467 72Q467 48 483 48Q501 48 526 82T568 155L591 143Q563 77 518 34T417 -10Q385 -10 364 12T342 74Q342 88 345 103L365 201Q266
-10 136 -10Q74 -10 47 28ZM231 47T272 97T346 213T388 317L412 437Q383 470 343 470Q277 470 230 401T161 236Q150 187 150 138Q150 47 198 47Q231 47 272 97Z" />
<glyph unicode="&#xe4;" glyph-name="adieresis" horiz-adv-x="570" d="M204 583T193 595T182 626Q182 655 201 675T246 696Q267 696 279 684T291 652Q291 623 272 603T223 583Q204 583 193 595ZM427 583T416 594T405 625Q405 655 423 675T471 696Q492 696 503
685T515 654Q515 649 513 639Q509 615 491 599T448 583Q427 583 416 594ZM74 -10T47 28T19 127Q19 158 28 203Q53 327 128 417T337 507Q385 507 422 477L426 498H552L470 98Q467 83 467 72Q467 48 483 48Q501 48 526 82T568 155L591 143Q563 77 518 34T417 -10Q385
-10 364 12T342 74Q342 88 345 103L365 201Q266 -10 136 -10Q74 -10 47 28ZM231 47T272 97T346 213T388 317L412 437Q383 470 343 470Q277 470 230 401T161 236Q150 187 150 138Q150 47 198 47Q231 47 272 97Z" />
<glyph unicode="&#xe5;" glyph-name="aring" horiz-adv-x="570" d="M306 575T284 595T262 649Q262 664 264 672Q273 716 306 743T384 770Q421 770 443 750T465 696Q465 643 430 609T344 575Q306 575 284 595ZM376 616T395 631T418 672Q420 682 420 687Q420 706
408 717T375 728Q351 728 332 713T307 672Q306 667 306 659Q306 639 318 628T352 616Q376 616 395 631ZM74 -10T47 28T19 127Q19 158 28 203Q53 327 128 417T337 507Q385 507 422 477L426 498H552L470 98Q467 83 467 72Q467 48 483 48Q501 48 526 82T568 155L591
143Q563 77 518 34T417 -10Q385 -10 364 12T342 74Q342 88 345 103L365 201Q266 -10 136 -10Q74 -10 47 28ZM231 47T272 97T346 213T388 317L412 437Q383 470 343 470Q277 470 230 401T161 236Q150 187 150 138Q150 47 198 47Q231 47 272 97Z" />
<glyph unicode="&#xe6;" glyph-name="ae" horiz-adv-x="863" d="M82 -10T41 18T0 102Q0 120 4 136Q20 215 86 252T241 289H360Q374 334 394 366Q399 411 365 436T281 462Q243 462 199 450T116 420V458Q162 481 218 494T329 507Q381 507 418 492T472 449Q554 507
662 507Q768 507 818 481T869 400Q869 387 866 370Q846 273 729 232T469 186Q467 117 499 75T599 33Q639 33 686 47T772 86L777 53Q740 26 683 8T561 -10Q495 -10 448 11T373 73Q328 30 267 10T148 -10Q82 -10 41 18ZM588 238T672 274T756 390Q756 423 733 442T661
462Q589 462 542 400T478 251Q474 235 474 227Q588 238 672 274ZM238 37T282 56T357 104Q342 140 342 185Q342 213 348 244H262Q211 244 175 215T129 137Q126 121 126 106Q126 70 146 54T201 37Q238 37 282 56Z" />
<glyph unicode="&#xe7;" glyph-name="ccedilla" horiz-adv-x="509" d="M437 507T482 483T528 411Q528 405 526 391Q522 374 508 360T475 345Q457 345 448 354T439 376Q439 384 445 397T452 416Q456 433 433 448T372 463Q294 463 238 408T160 246Q153 215 153 182Q153
116 185 75T284 33Q323 33 368 47T448 86L454 53Q423 30 379 14T282 -8L246 -62Q294 -62 318 -79T343 -126Q343 -131 341 -141Q331 -189 289 -215T190 -241Q163 -241 138 -234T96 -214L123 -179Q136 -186 154 -190T190 -195Q224 -195 247 -182T277 -141Q281 -119
265 -110T223 -100Q214 -100 200 -102L184 -70L224 -9Q128 -5 77 46T25 184Q25 216 32 248Q57 370 145 438T355 507Q437 507 482 483Z" />
<glyph unicode="&#xe8;" glyph-name="egrave" horiz-adv-x="544" d="M289 686T281 699T276 727Q279 742 291 753T321 765Q339 765 352 755T374 735L465 615L438 584L309 673Q289 686 281 699ZM449 507T499 481T550 400Q550 387 547 370Q528 274 411 233T151 186Q149
117 181 75T280 33Q320 33 367 47T453 86L459 53Q422 26 364 8T243 -10Q138 -10 81 42T23 185Q23 210 30 248Q55 368 138 437T343 507Q449 507 499 481ZM437 422T415 442T342 462Q271 462 224 400T159 251Q157 244 155 228Q437 255 437 388Q437 422 415 442Z" />
<glyph unicode="&#xe9;" glyph-name="eacute" horiz-adv-x="544" d="M290 584L274 615L414 734Q424 744 441 754T477 765Q509 765 509 737Q509 731 508 728Q504 700 456 673L290 584ZM449 507T499 481T550 400Q550 387 547 370Q528 274 411 233T151 186Q149 117
181 75T280 33Q320 33 367 47T453 86L459 53Q422 26 364 8T243 -10Q138 -10 81 42T23 185Q23 210 30 248Q55 368 138 437T343 507Q449 507 499 481ZM437 422T415 442T342 462Q271 462 224 400T159 251Q157 244 155 228Q437 255 437 388Q437 422 415 442Z" />
<glyph unicode="&#xea;" glyph-name="ecircumflex" horiz-adv-x="544" d="M354 677T313 642T235 580L191 621Q227 643 281 686T359 757H418Q431 729 468 686T532 621L472 580Q446 604 419 640T380 702H376Q354 677 313 642ZM449 507T499 481T550 400Q550 387 547
370Q528 274 411 233T151 186Q149 117 181 75T280 33Q320 33 367 47T453 86L459 53Q422 26 364 8T243 -10Q138 -10 81 42T23 185Q23 210 30 248Q55 368 138 437T343 507Q449 507 499 481ZM437 422T415 442T342 462Q271 462 224 400T159 251Q157 244 155 228Q437
255 437 388Q437 422 415 442Z" />
<glyph unicode="&#xeb;" glyph-name="edieresis" horiz-adv-x="544" d="M222 583T211 595T200 627Q200 635 201 639Q206 664 224 680T265 696Q286 696 298 685T310 653Q310 624 290 604T242 583Q222 583 211 595ZM446 583T435 595T423 626Q423 634 424 639Q429
664 447 680T489 696Q510 696 521 684T533 652Q533 623 514 603T466 583Q446 583 435 595ZM449 507T499 481T550 400Q550 387 547 370Q528 274 411 233T151 186Q149 117 181 75T280 33Q320 33 367 47T453 86L459 53Q422 26 364 8T243 -10Q138 -10 81 42T23 185Q23
210 30 248Q55 368 138 437T343 507Q449 507 499 481ZM437 422T415 442T342 462Q271 462 224 400T159 251Q157 244 155 228Q437 255 437 388Q437 422 415 442Z" />
<glyph unicode="&#xec;" glyph-name="igrave" horiz-adv-x="343" d="M186 673Q166 686 158 699T153 727Q156 742 168 753T198 765Q216 765 229 755T251 735L342 615L316 584L186 673ZM122 -10T100 11T78 72Q78 86 81 101L154 457Q131 462 91 475L94 486L290 505L208
104Q204 82 204 72Q204 47 219 47Q237 47 262 81T304 155L328 143Q300 76 256 33T155 -10Q122 -10 100 11Z" />
<glyph unicode="&#xed;" glyph-name="iacute" horiz-adv-x="343" d="M142 615L282 734Q292 744 309 754T344 765Q361 765 369 757T377 737Q377 731 376 728Q370 699 323 673L157 584L142 615ZM122 -10T100 11T78 72Q78 86 81 101L154 457Q131 462 91 475L94 486L290
505L208 104Q204 82 204 72Q204 47 219 47Q237 47 262 81T304 155L328 143Q300 76 256 33T155 -10Q122 -10 100 11Z" />
<glyph unicode="&#xee;" glyph-name="icircumflex" horiz-adv-x="343" d="M79 621Q116 643 170 687T247 757H307Q320 730 356 686T420 621L361 580Q336 604 308 640T268 702H265Q243 677 202 642T124 580L79 621ZM122 -10T100 11T78 72Q78 86 81 101L154 457Q131
462 91 475L94 486L290 505L208 104Q204 82 204 72Q204 47 219 47Q237 47 262 81T304 155L328 143Q300 76 256 33T155 -10Q122 -10 100 11Z" />
<glyph unicode="&#xef;" glyph-name="idieresis" horiz-adv-x="343" d="M110 583T99 595T88 626Q88 655 107 675T152 696Q173 696 185 684T197 652Q197 623 178 603T129 583Q110 583 99 595ZM333 583T322 594T311 625Q311 655 329 675T377 696Q398 696 409 685T421
654Q421 625 402 604T354 583Q333 583 322 594ZM122 -10T100 11T78 72Q78 86 81 101L154 457Q131 462 91 475L94 486L290 505L208 104Q204 82 204 72Q204 47 219 47Q237 47 262 81T304 155L328 143Q300 76 256 33T155 -10Q122 -10 100 11Z" />
<glyph unicode="&#xf0;" glyph-name="eth" horiz-adv-x="588" d="M459 661Q515 598 544 523T574 369Q574 333 566 291Q537 149 454 70T236 -10Q135 -10 83 44T30 186Q30 211 37 248Q50 311 88 369T192 464T345 502Q379 502 412 489T462 452Q449 543 388 624L202
527L195 585L351 668Q308 709 258 735L300 778Q364 749 416 703L567 786L591 730L459 661ZM442 296T442 322Q442 381 415 419T340 457Q301 457 265 430T202 356T163 248Q155 206 155 172Q155 110 178 72T247 34Q313 34 364 101T436 269Q442 296 442 322Z" />
<glyph unicode="&#xf1;" glyph-name="ntilde" horiz-adv-x="672" d="M315 638T297 624T268 584H218Q236 639 269 667T349 695Q373 695 391 687T433 664Q450 653 461 648T484 642Q533 642 557 698H606Q569 584 475 584Q455 584 436 592T392 615Q373 626 361 632T337
638Q315 638 297 624ZM670 143Q642 77 597 34T496 -10Q463 -10 443 16T423 83Q423 98 426 116L459 276Q476 358 476 397Q476 432 463 447T420 462Q386 462 338 418T242 299L181 0L52 -10L148 460Q120 465 86 478L88 488L284 508L256 369Q296 428 350 467T467 507Q533
507 569 479T605 392Q605 365 600 344L550 101Q546 81 546 72Q546 47 561 47Q578 47 604 82T647 155L670 143Z" />
<glyph unicode="&#xf2;" glyph-name="ograve" horiz-adv-x="588" d="M316 673Q296 686 288 699T283 727Q286 742 298 753T328 765Q346 765 359 755T381 735L472 615L445 584L316 673ZM135 -10T77 39T19 179Q19 208 27 248Q52 371 136 439T350 507Q460 507 518
458T576 318Q576 288 568 248Q543 126 459 58T244 -10Q135 -10 77 39ZM320 34T370 91T441 248Q450 290 450 326Q450 391 422 426T341 462Q275 462 225 405T153 248Q145 211 145 173Q145 107 173 71T254 34Q320 34 370 91Z" />
<glyph unicode="&#xf3;" glyph-name="oacute" horiz-adv-x="588" d="M272 615L412 734Q422 744 439 754T475 765Q492 765 500 757T508 736Q508 718 495 703T454 673L288 584L272 615ZM135 -10T77 39T19 179Q19 208 27 248Q52 371 136 439T350 507Q460 507 518
458T576 318Q576 288 568 248Q543 126 459 58T244 -10Q135 -10 77 39ZM320 34T370 91T441 248Q450 290 450 326Q450 391 422 426T341 462Q275 462 225 405T153 248Q145 211 145 173Q145 107 173 71T254 34Q320 34 370 91Z" />
<glyph unicode="&#xf4;" glyph-name="ocircumflex" horiz-adv-x="588" d="M202 621Q239 643 293 687T370 757H430Q443 730 479 686T543 621L484 580Q459 604 431 640T391 702H388Q366 677 324 641T246 580L202 621ZM135 -10T77 39T19 179Q19 208 27 248Q52 371
136 439T350 507Q460 507 518 458T576 318Q576 288 568 248Q543 126 459 58T244 -10Q135 -10 77 39ZM320 34T370 91T441 248Q450 290 450 326Q450 391 422 426T341 462Q275 462 225 405T153 248Q145 211 145 173Q145 107 173 71T254 34Q320 34 370 91Z" />
<glyph unicode="&#xf5;" glyph-name="otilde" horiz-adv-x="588" d="M201 639T235 667T315 695Q339 695 357 687T399 664Q416 653 427 648T450 642Q499 642 523 698H572Q555 644 522 614T440 584Q421 584 403 592T359 615Q338 627 326 632T302 638Q280 638 262
624T234 584H183Q201 639 235 667ZM135 -10T77 39T19 179Q19 208 27 248Q52 371 136 439T350 507Q460 507 518 458T576 318Q576 288 568 248Q543 126 459 58T244 -10Q135 -10 77 39ZM320 34T370 91T441 248Q450 290 450 326Q450 391 422 426T341 462Q275 462 225
405T153 248Q145 211 145 173Q145 107 173 71T254 34Q320 34 370 91Z" />
<glyph unicode="&#xf6;" glyph-name="odieresis" horiz-adv-x="588" d="M233 583T222 595T211 626Q211 655 230 675T275 696Q296 696 308 685T320 654Q320 649 318 639Q314 615 296 599T252 583Q233 583 222 595ZM456 583T445 594T434 625Q434 655 452 675T500
696Q520 696 532 685T544 653Q544 624 525 604T477 583Q456 583 445 594ZM135 -10T77 39T19 179Q19 208 27 248Q52 371 136 439T350 507Q460 507 518 458T576 318Q576 288 568 248Q543 126 459 58T244 -10Q135 -10 77 39ZM320 34T370 91T441 248Q450 290 450 326Q450
391 422 426T341 462Q275 462 225 405T153 248Q145 211 145 173Q145 107 173 71T254 34Q320 34 370 91Z" />
<glyph unicode="&#xf7;" glyph-name="divide" horiz-adv-x="577" d="M298 424T285 438T271 476Q271 511 293 534T349 558Q374 558 388 545T403 508Q403 504 401 492Q395 462 374 443T322 424Q298 424 285 438ZM68 352H558L546 287H55L68 352ZM227 81T214 95T200
132Q200 142 201 147Q207 177 228 196T279 215Q304 215 318 201T332 164Q332 129 309 105T252 81Q227 81 214 95Z" />
<glyph unicode="&#xf8;" glyph-name="oslash" horiz-adv-x="588" d="M530 446Q576 398 576 319Q576 288 568 248Q543 126 459 58T244 -10Q152 -10 96 25L35 -34L6 -3L63 52Q19 101 19 180Q19 214 26 248Q51 370 135 438T350 507Q440 507 495 474L549 527L580 495L530
446ZM145 211T145 171Q145 157 147 135L431 411Q403 462 341 462Q275 462 225 405T153 248Q145 211 145 171ZM449 290T449 325Q449 347 446 365L161 89Q189 34 254 34Q319 34 369 91T440 248Q449 290 449 325Z" />
<glyph unicode="&#xf9;" glyph-name="ugrave" horiz-adv-x="641" d="M312 696T312 719Q312 724 313 727Q316 741 328 753T358 765Q376 765 389 755T411 735L502 615L475 584L345 673Q312 696 312 719ZM653 143Q626 77 580 34T479 -10Q447 -10 425 10T402 67Q402
80 405 95L412 128Q371 69 316 30T198 -10Q132 -10 97 18T62 104Q62 130 67 152L129 460Q101 465 67 478L69 488L266 508L195 156Q187 118 187 97Q187 64 201 49T245 34Q279 34 327 78T426 197L486 498H613L532 101Q529 86 529 73Q529 47 544 47Q561 47 587 81T629
155L653 143Z" />
<glyph unicode="&#xfa;" glyph-name="uacute" horiz-adv-x="641" d="M333 584L317 615L458 734Q466 743 483 754T520 765Q537 765 545 757T553 737Q553 731 552 728Q546 699 499 673L333 584ZM653 143Q626 77 580 34T479 -10Q447 -10 425 10T402 67Q402 80 405
95L412 128Q371 69 316 30T198 -10Q132 -10 97 18T62 104Q62 130 67 152L129 460Q101 465 67 478L69 488L266 508L195 156Q187 118 187 97Q187 64 201 49T245 34Q279 34 327 78T426 197L486 498H613L532 101Q529 86 529 73Q529 47 544 47Q561 47 587 81T629 155L653
143Z" />
<glyph unicode="&#xfb;" glyph-name="ucircumflex" horiz-adv-x="641" d="M390 677T348 641T270 580L226 621Q263 643 317 687T394 757H454Q467 730 503 686T567 621L508 580Q483 604 455 640T415 702H412Q390 677 348 641ZM653 143Q626 77 580 34T479 -10Q447
-10 425 10T402 67Q402 80 405 95L412 128Q371 69 316 30T198 -10Q132 -10 97 18T62 104Q62 130 67 152L129 460Q101 465 67 478L69 488L266 508L195 156Q187 118 187 97Q187 64 201 49T245 34Q279 34 327 78T426 197L486 498H613L532 101Q529 86 529 73Q529 47
544 47Q561 47 587 81T629 155L653 143Z" />
<glyph unicode="&#xfc;" glyph-name="udieresis" horiz-adv-x="641" d="M257 583T246 595T235 626Q235 655 254 675T299 696Q320 696 332 685T344 654Q344 649 342 639Q338 615 320 599T276 583Q257 583 246 595ZM480 583T469 594T458 625Q458 655 476 675T524
696Q544 696 556 685T568 653Q568 624 549 604T501 583Q480 583 469 594ZM653 143Q626 77 580 34T479 -10Q447 -10 425 10T402 67Q402 80 405 95L412 128Q371 69 316 30T198 -10Q132 -10 97 18T62 104Q62 130 67 152L129 460Q101 465 67 478L69 488L266 508L195
156Q187 118 187 97Q187 64 201 49T245 34Q279 34 327 78T426 197L486 498H613L532 101Q529 86 529 73Q529 47 544 47Q561 47 587 81T629 155L653 143Z" />
<glyph unicode="&#xfd;" glyph-name="yacute" horiz-adv-x="584" d="M329 584L314 615L454 734Q462 743 479 754T516 765Q533 765 541 757T549 737Q549 731 548 728Q542 699 495 673L329 584ZM571 513T583 496T595 450Q595 435 592 420Q587 394 568 361T515 283L203
-143Q139 -232 60 -232Q38 -232 20 -217T2 -180Q2 -173 3 -170Q6 -153 20 -139T53 -124Q69 -124 76 -131T88 -153Q91 -162 94 -166T103 -171Q112 -171 133 -154T172 -112L265 17L131 461Q101 464 66 478L68 488L254 507L329 104L451 272Q476 307 492 345T509 414Q509
457 484 490Q502 502 516 507T549 513Q571 513 583 496Z" />
<glyph unicode="&#xfe;" glyph-name="thorn" horiz-adv-x="614" d="M176 656Q148 661 114 673L116 684L312 704L239 347Q278 421 339 464T463 507Q527 507 567 467T608 349Q608 319 600 277Q571 137 493 64T304 -10Q259 -10 226 6T178 51L124 -219L-4 -229L176
656ZM364 34T407 94T470 256Q483 317 483 363Q483 411 467 436T420 462Q392 462 352 431T274 348T218 242L203 171Q200 155 200 138Q200 92 224 63T296 34Q364 34 407 94Z" />
<glyph unicode="&#xff;" glyph-name="ydieresis" horiz-adv-x="584" d="M246 583T235 595T224 627Q224 635 225 639Q230 664 248 680T289 696Q310 696 322 685T334 653Q334 624 314 604T266 583Q246 583 235 595ZM470 583T459 595T447 626Q447 634 448 639Q453
664 471 680T513 696Q534 696 545 684T557 652Q557 623 538 603T490 583Q470 583 459 595ZM571 513T583 496T595 450Q595 435 592 420Q587 394 568 361T515 283L203 -143Q139 -232 60 -232Q38 -232 20 -217T2 -180Q2 -173 3 -170Q6 -153 20 -139T53 -124Q69 -124
76 -131T88 -153Q91 -162 94 -166T103 -171Q112 -171 133 -154T172 -112L265 17L131 461Q101 464 66 478L68 488L254 507L329 104L451 272Q476 307 492 345T509 414Q509 457 484 490Q502 502 516 507T549 513Q571 513 583 496Z" />
<glyph unicode="&#x2013;" glyph-name="endash" horiz-adv-x="659" d="M62 316H631L616 244H47L62 316Z" />
<glyph unicode="&#x2014;" glyph-name="emdash" horiz-adv-x="980" d="M62 316H954L939 244H47L62 316Z" />
<glyph unicode="&#x2018;" glyph-name="quoteleft" horiz-adv-x="245" d="M138 435T123 452T108 495Q108 506 111 518Q120 568 158 623T243 714L277 682Q214 621 196 569Q221 569 237 556T254 522Q254 518 252 508Q246 477 224 456T170 435Q138 435 123 452Z" />
<glyph unicode="&#x2019;" glyph-name="quoteright" horiz-adv-x="245" d="M110 463Q174 522 192 576L186 575Q163 575 148 588T133 622Q133 626 135 636Q141 668 163 689T218 710Q249 710 264 693T279 648Q279 641 277 627Q267 577 229 522T145 430L110 463Z" />
<glyph unicode="&#x201a;" glyph-name="quotesinglbase" horiz-adv-x="245" d="M16 0Q79 61 98 113L91 112Q67 112 53 126T39 161Q39 170 40 174Q47 205 69 226T124 247Q155 247 170 230T185 186Q185 175 182 164Q173 114 135 59T51 -32L16 0Z" />
<glyph unicode="&#x201c;" glyph-name="quotedblleft" horiz-adv-x="419" d="M138 435T123 452T108 495Q108 506 111 518Q120 568 158 623T243 714L277 682Q214 621 196 569Q221 569 237 556T254 522Q254 518 252 508Q246 477 224 456T170 435Q138 435 123 452ZM312
435T297 452T282 495Q282 506 285 518Q294 568 331 623T415 714L451 682Q389 624 369 569Q394 569 410 557T427 522Q427 518 425 508Q419 477 397 456T343 435Q312 435 297 452Z" />
<glyph unicode="&#x201d;" glyph-name="quotedblright" horiz-adv-x="419" d="M110 463Q174 522 192 576L186 575Q163 575 148 588T133 622Q133 626 135 636Q141 668 163 689T218 710Q249 710 264 693T279 648Q279 641 277 627Q267 577 229 522T145 430L110 463ZM293
463Q357 522 374 576L368 575Q345 575 331 588T317 624Q317 632 318 636Q324 668 346 689T401 710Q433 710 447 692T462 647Q462 641 460 627Q449 577 412 522T328 430L293 463Z" />
<glyph unicode="&#x201e;" glyph-name="quotedblbase" horiz-adv-x="419" d="M16 0Q79 61 98 113L91 112Q67 112 53 126T39 161Q39 170 40 174Q47 205 69 226T124 247Q155 247 170 230T185 186Q185 175 182 164Q173 114 135 59T51 -32L16 0ZM199 0Q262 61 280
113L273 112Q249 112 236 126T222 162Q222 170 223 174Q230 205 252 226T307 247Q338 247 352 231T367 188Q367 176 364 164Q355 114 318 59T234 -32L199 0Z" />
<glyph unicode="&#x2022;" glyph-name="bullet" horiz-adv-x="271" d="M108 246T90 264T72 312Q72 360 102 392T175 424Q207 424 224 406T242 357Q242 351 240 335Q232 297 204 272T139 246Q108 246 90 264Z" />
<glyph unicode="&#x2039;" glyph-name="guilsinglleft" horiz-adv-x="324" d="M163 95T124 150T38 251L42 272Q194 383 294 505L328 424Q302 390 256 348T151 262Q191 218 220 175T262 100L196 19Q163 95 124 150Z" />
<glyph unicode="&#x203a;" glyph-name="guilsinglright" horiz-adv-x="324" d="M8 100Q55 162 183 262Q96 359 75 424L141 505Q191 384 297 272L293 251Q228 204 166 149T42 19L8 100Z" />
</font>
</defs>
</svg>
