<?xml version="1.0" standalone="no"?>
<!DOCTYPE svg PUBLIC "-//W3C//DTD SVG 1.1//EN" "http://www.w3.org/Graphics/SVG/1.1/DTD/svg11.dtd">
<svg xmlns="http://www.w3.org/2000/svg">
<defs >
<font id="SpicyRice" horiz-adv-x="859" ><font-face
    font-family="Spicy Rice"
    units-per-em="2048"
    panose-1="2 14 5 6 0 0 0 2 0 0"
    ascent="2091"
    descent="-733"
    alphabetic="0" />
<glyph unicode=" " glyph-name="space" horiz-adv-x="305" />
<glyph unicode="!" glyph-name="exclam" horiz-adv-x="596" d="M596 1477Q558 1381 530 1272T482 1046T454 810T444 573Q444 535 445 498T449 424Q399 435 352 439T256 444Q227 444 198 443T139 436Q141 473 142 512T143 590Q143 717 133 845T105 1088T63 1297T12
1452Q47 1447 98 1445T209 1442Q261 1442 315 1444T421 1450T518 1461T596 1477ZM72 160Q72 203 88 241T133 309T200 354T283 371Q326 371 364 355T432 309T477 242T494 160Q494 116 478 78T432 11T365 -34T283 -51Q239 -51 201 -35T134 10T89 77T72 160Z" />
<glyph unicode="&quot;" glyph-name="quotedbl" horiz-adv-x="813" d="M377 1507Q355 1404 343 1301T323 1113Q315 1014 313 924H94Q91 1016 83 1115Q76 1200 62 1303T25 1507Q60 1504 96 1504T170 1503Q216 1503 272 1504T377 1507ZM786 1507Q775 1456 767 1404T752
1301T741 1203T733 1113Q725 1014 723 924H504Q501 1016 493 1115Q485 1200 472 1303T434 1507Q469 1504 505 1504T580 1503Q626 1503 682 1504T786 1507Z" />
<glyph unicode="#" glyph-name="numbersign" horiz-adv-x="1227" d="M532 553Q564 555 596 556T662 561Q663 572 665 589T671 624T676 659T680 686L690 750Q658 748 625 745T559 739Q557 721 554 697T546 646T539 596T532 553ZM1067 229Q1033 240 996 247T920
260Q920 214 920 169T926 78Q907 80 890 81T856 82Q832 82 791 81T706 78T621 73T555 66Q572 117 585 168T610 272H506V98L465 100Q438 101 395 100T304 95T213 87T141 78Q155 121 167 162T188 248Q148 240 111 230T37 207Q48 238 59 286T79 387T95 488T104 569Q139
561 174 558T246 553Q247 562 250 578T256 610T261 643T266 668L270 713Q222 705 177 695T86 672Q106 734 122 820T139 1016V1028Q223 1016 311 1016Q317 1081 320 1145T324 1274Q351 1271 379 1271T436 1270Q454 1270 488 1270T561 1271T633 1272T686 1274Q661
1218 642 1153T606 1022Q638 1025 669 1027T731 1034Q737 1088 741 1140T745 1241Q745 1255 745 1269T743 1296Q780 1296 831 1299T934 1306T1035 1316T1116 1327Q1091 1262 1071 1197T1034 1063Q1071 1071 1106 1079T1174 1098Q1162 1049 1153 999T1137 902T1126
815T1120 745Q1083 750 1048 752T975 754Q973 745 970 726T964 682T957 633T952 586Q996 592 1039 600T1126 618Q1115 582 1105 537T1086 441T1073 336T1067 229Z" />
<glyph unicode="$" glyph-name="dollar" horiz-adv-x="780" d="M516 1622Q508 1566 502 1510T491 1399T483 1296T477 1206Q541 1197 585 1176T658 1125T698 1062T711 995Q711 958 697 932T661 888T610 862T551 854Q497 854 465 872T417 916T396 964T391 999Q399
987 408 984T426 981Q445 981 453 990T461 1012Q461 1024 447 1039T395 1055Q383 1055 370 1051T345 1036T326 1012T319 977Q319 929 350 900T429 849T532 805T634 751T713 669T745 541Q745 480 725 429T668 337T584 269T479 227Q480 186 483 138T492 36T504 -74T520
-184Q497 -181 473 -181T424 -180Q395 -180 358 -181T289 -184Q296 -130 302 -76T312 30T320 129T326 217L289 223Q236 232 191 254T112 307T59 378T39 459Q39 498 52 527T87 575T141 604T207 614Q234 614 260 609T310 592T351 565T381 528Q375 530 369 531T356
532Q339 532 329 523T319 492Q319 470 337 455T379 440Q404 440 421 459T438 504Q438 524 425 548T385 590Q334 621 289 643T207 685T139 725T88 772T56 835T45 924Q45 978 63 1025T118 1108T206 1170T326 1204Q324 1246 321 1295T313 1399T301 1510T285 1622Q308
1619 332 1619T381 1618Q410 1618 447 1619T516 1622Z" />
<glyph unicode="%" glyph-name="percent" horiz-adv-x="1460" d="M686 1069Q686 988 667 919T607 799T506 721T360 692Q277 692 216 720T115 798T55 917T35 1069Q35 1157 61 1230T132 1355T236 1435T360 1464Q433 1464 493 1439T596 1363T662 1239T686 1069ZM465
1092Q465 1135 457 1169T433 1227T398 1263T356 1276Q335 1276 317 1260T284 1219T261 1160T252 1092Q252 1011 279 963T356 915Q406 915 435 962T465 1092ZM1227 1444Q1181 1368 1124 1264T1002 1039T871 783T739 512T614 244T506 -8Q489 -4 461 -2T402 1T341
3T289 4H252Q291 65 338 145T436 320T542 516T649 724T751 931T843 1128T919 1302T973 1444Q982 1442 995 1441T1022 1439T1049 1438T1071 1438Q1083 1438 1104 1438T1148 1439T1193 1441T1227 1444ZM1423 342Q1423 261 1404 192T1344 72T1243 -6T1098 -35Q1015
-35 954 -7T853 71T792 190T772 342Q772 430 798 503T870 628T974 708T1098 737Q1171 737 1230 712T1333 636T1399 512T1423 342ZM1202 365Q1202 408 1194 442T1170 500T1136 536T1094 549Q1073 549 1054 533T1021 492T998 433T989 365Q989 284 1016 236T1094 188Q1143
188 1172 235T1202 365Z" />
<glyph unicode="&amp;" glyph-name="ampersand" horiz-adv-x="1491" d="M1108 295Q1120 263 1143 238T1197 195T1262 168T1335 158Q1372 158 1409 169T1479 203Q1445 130 1396 74Q1375 50 1349 27T1290 -15T1219 -44T1137 -55Q1065 -55 1012 -40T917 0T839 54T770
113Q752 85 712 57T616 5T497 -34T367 -49Q302 -49 239 -31T127 32T47 148T16 328Q16 428 51 504T141 637T263 735T395 803Q383 848 378 889T373 969Q373 1080 414 1167T521 1315T674 1406T850 1438Q922 1438 989 1421T1107 1366T1190 1267T1221 1116Q1221 1049
1203 996T1152 901T1078 829T990 777T896 745T805 729Q814 703 831 665T872 587T922 508T979 444Q990 455 999 478T1020 530T1050 589T1095 645T1162 686T1257 702Q1293 702 1321 687T1370 648T1407 594T1433 531Q1458 455 1464 360Q1448 385 1426 404Q1407 421
1380 435T1317 449Q1291 449 1266 441T1214 415T1162 368T1108 295ZM817 1225Q789 1225 772 1179T754 1047Q754 1011 757 970T768 881Q797 888 818 908T852 956T871 1015T877 1079Q877 1108 873 1134T860 1181T841 1213T817 1225ZM457 596Q437 554 427 511T416
428Q416 391 425 359T452 303T497 266T563 252Q577 252 593 254T627 262Q585 311 557 357T511 445T480 525T457 596Z" />
<glyph unicode="&apos;" glyph-name="quotesingle" horiz-adv-x="403" d="M377 1507Q355 1404 343 1301T323 1113Q315 1014 313 924H94Q91 1016 83 1115Q76 1200 62 1303T25 1507Q60 1504 96 1504T170 1503Q216 1503 272 1504T377 1507Z" />
<glyph unicode="(" glyph-name="parenleft" horiz-adv-x="750" d="M780 1602Q674 1518 590 1390Q554 1336 520 1267T460 1114T417 929T401 711Q401 597 416 496T455 308T511 148T575 15Q652 -124 750 -225Q723 -225 678 -220T577 -198T459 -153T337 -77T221 38T123
199T56 413T31 690Q31 861 68 995T167 1230T308 1402T470 1517T634 1582T780 1602Z" />
<glyph unicode=")" glyph-name="parenright" horiz-adv-x="750" d="M-31 1602Q34 1602 115 1582T279 1518T441 1403T582 1231T681 995T719 690Q719 535 694 414T627 199T530 38T413 -77T290 -153T173 -198T72 -219T0 -225Q97 -124 174 15Q207 74 238 147T293 308T333
496T348 711Q348 828 332 928T289 1113T228 1267T158 1390Q74 1518 -31 1602Z" />
<glyph unicode="*" glyph-name="asterisk" horiz-adv-x="901" d="M868 1096Q799 1094 729 1082T590 1055Q646 1020 703 989T821 928L641 645Q626 679 605 721T560 806T507 886T451 950Q424 924 401 887T360 807T329 723T309 645L100 866Q147 903 190 944T272 1032Q214
1038 155 1042T35 1049L154 1378Q188 1327 237 1279T336 1196Q330 1255 317 1313T285 1427L600 1454Q572 1394 556 1324T532 1188Q591 1226 643 1275T739 1378L868 1096Z" />
<glyph unicode="+" glyph-name="plus" horiz-adv-x="874" d="M610 1077Q581 1017 568 943T551 797Q588 800 627 804T704 816T775 832T834 854Q826 809 823 766T819 678Q819 635 822 591T834 504Q805 519 771 530T701 548T627 559T553 565Q558 493 568 421T598
281Q586 285 568 288T531 292T493 294T463 295Q412 295 363 291T262 281Q285 336 298 411T317 561Q246 556 176 547T39 518Q43 530 46 548T50 585T52 622T53 651Q53 702 49 752T39 854Q95 831 169 818T317 799Q315 836 311 874T300 948T284 1018T262 1077Q305 1068
349 1065T436 1061Q481 1061 524 1064T610 1077Z" />
<glyph unicode="," glyph-name="comma" horiz-adv-x="504" d="M463 164Q463 123 447 73T407 -26T354 -117T297 -184L94 -160Q126 -135 153 -104T203 -39Q166 -36 136 -19T83 25T49 87T37 164Q37 198 48 234T83 302T149 353T250 373Q304 373 344 358T411 316T450
250T463 164Z" />
<glyph unicode="-" glyph-name="hyphen" horiz-adv-x="928" d="M860 854Q852 809 849 766T846 678Q846 635 849 591T860 504Q822 524 777 536T684 555T589 564T500 567Q391 567 280 557T66 518Q70 530 73 548T77 585T79 622T80 651Q80 702 76 752T66 854Q106 837
158 826T265 808T374 798T473 795Q514 795 566 798T672 807T775 825T860 854Z" />
<glyph unicode="." glyph-name="period" horiz-adv-x="492" d="M35 160Q35 203 51 241T96 309T163 354T246 371Q289 371 327 355T395 309T440 242T457 160Q457 116 441 78T395 11T328 -34T246 -51Q202 -51 164 -35T97 10T52 77T35 160Z" />
<glyph unicode="/" glyph-name="slash" horiz-adv-x="969" d="M944 1438Q772 1088 652 728T455 -14Q420 -8 377 -4T286 3T191 7T100 8H27Q82 97 135 209T237 445T330 701T411 962T475 1212T520 1438Q538 1434 564 1432T617 1428T671 1426T715 1425Q739 1425 768
1426T829 1429T890 1433T944 1438Z" />
<glyph unicode="0" glyph-name="zero" horiz-adv-x="1253" d="M1198 690Q1198 602 1184 514T1140 344T1064 192T954 69T808 -13T625 -43Q524 -43 443 -16T298 59T188 176T112 325T68 499T53 690Q53 867 97 1012T219 1262T401 1423T625 1481Q758 1481 864 1429T1044
1277T1158 1029T1198 690ZM793 735Q793 821 781 889T746 1004T691 1077T618 1102Q580 1102 549 1071T495 988T459 870T446 735Q446 655 456 590T488 479T541 408T618 383Q663 383 695 407T750 477T782 588T793 735Z" />
<glyph unicode="1" glyph-name="one" horiz-adv-x="854" d="M805 6Q784 8 758 10Q735 12 703 13T629 14Q548 14 441 7T209 -20Q231 25 247 94T273 241T290 401T299 552T302 673T303 743Q303 746 303 767T301 824T299 904T295 1001Q240 1012 186 1021T86 1036Q34
1043 -14 1047Q55 1112 99 1172T169 1285T209 1382T231 1460Q332 1442 416 1436T569 1430Q614 1430 650 1432T711 1436Q740 1439 762 1442Q750 1386 741 1318T725 1172T715 1009T711 834Q711 730 716 623T732 409T761 201T805 6Z" />
<glyph unicode="2" glyph-name="two" horiz-adv-x="1190" d="M47 -20Q47 119 74 219T145 394T247 520T363 614T480 693T581 773T653 870T680 1001Q680 1019 675 1040T656 1079T621 1110T567 1122Q540 1122 520 1112T486 1087T466 1054T459 1018Q459 1002 465 988T483
962T507 945T535 938Q550 938 571 944Q554 912 526 887T462 844T386 818T303 809Q249 809 202 824T119 869T63 945T43 1053Q43 1136 74 1214T170 1353T330 1450T555 1487Q702 1487 810 1445T990 1329T1097 1154T1133 936Q1133 853 1112 792T1055 686T972 608T871
548T761 495T653 441T554 374T475 285Q677 299 833 359T1096 516Q1089 463 1086 412T1083 309Q1083 226 1091 144T1118 -20Q993 -2 859 7T588 16Q448 16 313 7T47 -20Z" />
<glyph unicode="3" glyph-name="three" horiz-adv-x="1198" d="M891 705Q937 692 981 671T1060 613T1116 522T1137 387Q1137 290 1102 207T995 64T815 -31T559 -66Q430 -66 334 -30T174 68T79 207T47 369Q47 430 67 475T122 551T205 597T307 612Q349 612 389 603T465
577T529 534T575 477Q554 483 539 483Q525 483 512 477T487 459T470 434T463 403Q463 386 469 368T489 334T523 309T571 299Q603 299 625 311T660 342T678 381T684 420Q684 494 655 541T585 619T498 669T418 705Q482 723 531 744T615 797T666 878T684 1001Q684
1019 679 1040T660 1079T625 1110T571 1122Q544 1122 524 1112T490 1087T470 1054T463 1018Q463 1002 469 988T487 962T511 945T539 938Q554 938 575 944Q558 912 530 887T466 844T390 818T307 809Q253 809 206 824T123 869T67 945T47 1053Q47 1136 78 1214T174
1353T334 1450T559 1487Q706 1487 814 1448T994 1344T1101 1195T1137 1022Q1137 957 1116 903T1059 807T980 740T891 705Z" />
<glyph unicode="4" glyph-name="four" horiz-adv-x="1155" d="M1102 750Q1094 705 1091 662T1087 573Q1087 486 1102 399Q1079 410 1053 419T1001 436Q1012 322 1030 214T1077 6Q1057 8 1031 10Q1008 12 976 13T901 14Q821 14 714 7T481 -20Q499 17 513 72T537
190T554 323T565 457Q545 456 495 458T371 458T201 447T-4 416Q46 570 89 701T167 953T227 1192T266 1438Q459 1421 650 1423T1034 1442Q1011 1329 997 1172T983 834V713Q1017 721 1047 729T1102 750ZM575 684Q575 710 575 753T573 850T569 966T563 1094Q518 1007
491 903T442 690Q465 688 483 687T516 686T545 685T575 684Z" />
<glyph unicode="5" glyph-name="five" horiz-adv-x="1186" d="M522 1008Q552 1007 609 1002T735 979T874 927T1003 832T1098 681T1135 461Q1135 342 1100 245T993 78T813 -28T557 -66Q428 -66 332 -30T172 68T77 207T45 369Q45 430 65 475T120 551T203 597T305
612Q347 612 387 603T463 577T527 534T573 477Q552 483 537 483Q523 483 510 477T485 459T468 434T461 403Q461 386 467 368T487 334T521 309T569 299Q634 299 665 339T696 446Q696 504 667 548T591 623T484 671T363 694T242 694T139 670Q139 673 139 703T137 780T134
889T129 1015T120 1147T108 1272T91 1377T68 1450Q164 1430 263 1422T459 1413Q570 1413 675 1420T864 1438Q961 1449 1047 1464V934Q993 980 937 1011T826 1062T721 1089T631 1098H530L522 1008Z" />
<glyph unicode="6" glyph-name="six" horiz-adv-x="1204" d="M725 467Q725 552 696 600T604 649Q553 649 519 601T483 467Q482 429 490 395T514 334T552 292T604 276Q633 276 655 291T693 332T717 393T725 467ZM485 899Q494 908 511 918T550 937T599 950T655 956Q714
956 774 946T891 912T996 852T1082 761T1140 637T1161 475Q1161 343 1120 243T1006 74T831 -28T608 -63Q480 -63 378 -21T204 106T95 318T57 614Q57 711 65 813T98 1013T165 1196T279 1348T450 1451T688 1489Q768 1489 841 1468T970 1409T1059 1319T1092 1202Q1092
1154 1072 1113T1019 1041T942 993T852 975Q793 975 738 1006T641 1106Q652 1104 662 1103T682 1102Q702 1102 711 1114T721 1143Q721 1158 705 1173T655 1188Q601 1188 568 1161T516 1091T491 998T485 899Z" />
<glyph unicode="7" glyph-name="seven" horiz-adv-x="1026" d="M1040 1444Q991 1331 951 1223T878 1005T819 782T770 547T730 291T696 6Q671 8 640 10Q614 12 579 13T502 14Q462 14 421 13T334 7T236 -3T119 -20Q166 55 210 149T293 346T365 554T423 755T464 932T487
1069Q430 1068 370 1064T251 1049T135 1019T31 969Q34 978 36 997T40 1040T42 1090T44 1139T45 1182T45 1210Q45 1272 41 1333T31 1456Q142 1432 269 1420T529 1407T792 1414T1040 1444Z" />
<glyph unicode="8" glyph-name="eight" horiz-adv-x="1188" d="M893 745Q939 732 983 705T1062 633T1118 528T1139 387Q1139 295 1107 213T1009 69T839 -29T594 -66Q452 -66 349 -30T180 69T81 213T49 387Q49 467 70 528T125 633T204 704T295 745Q260 747 224
777T158 852T109 948T90 1042Q90 1126 121 1206T216 1348T373 1449T594 1487Q726 1487 821 1449T977 1349T1068 1206T1098 1042Q1098 995 1079 945T1029 851T962 778T893 745ZM502 1022Q502 994 510 967T532 913T561 863T594 817Q640 868 663 921T686 1022Q686
1038 682 1058T667 1097T638 1128T594 1141Q568 1141 550 1129T522 1098T507 1059T502 1022ZM502 420Q502 404 506 383T521 344T550 312T594 299Q620 299 638 312T666 343T681 383T686 420Q686 448 679 476T660 530T630 577T594 614Q574 599 557 577T528 529T509
475T502 420Z" />
<glyph unicode="9" glyph-name="nine" horiz-adv-x="1202" d="M479 958Q479 873 508 825T600 776Q625 776 647 788T685 825T710 882T721 958Q722 996 714 1030T690 1091T651 1133T600 1149Q571 1149 549 1134T511 1093T487 1032T479 958ZM719 526Q710 517 693
507T654 489T605 475T549 469Q490 469 430 479T313 513T208 574T122 664T64 789T43 950Q43 1082 84 1183T198 1352T373 1454T596 1489Q724 1489 826 1447T999 1319T1109 1107T1147 811Q1147 714 1139 612T1106 413T1039 229T925 78T754 -25T516 -63Q436 -63 363
-42T235 16T146 106T113 223Q113 271 133 313T186 385T263 433T352 451Q411 451 466 420T563 319Q540 324 522 324Q502 324 493 311T483 283Q483 267 499 253T549 238Q603 238 636 265T688 334T713 427T719 526Z" />
<glyph unicode=":" glyph-name="colon" horiz-adv-x="553" d="M66 160Q66 203 82 241T127 309T194 354T276 371Q320 371 358 355T425 309T470 242T487 160Q487 116 471 78T426 11T359 -34T276 -51Q232 -51 194 -35T128 10T83 77T66 160ZM66 872Q66 916 82 954T127
1021T194 1066T276 1083Q320 1083 358 1067T425 1022T470 955T487 872Q487 828 471 790T426 724T359 679T276 662Q232 662 194 678T128 723T83 790T66 872Z" />
<glyph unicode=";" glyph-name="semicolon" horiz-adv-x="563" d="M68 872Q68 916 84 954T129 1021T196 1066T279 1083Q322 1083 360 1067T427 1022T472 955T489 872Q489 828 473 790T428 724T361 679T279 662Q235 662 197 678T130 723T85 790T68 872ZM494 164Q494
123 478 73T438 -26T384 -117T328 -184L125 -160Q157 -135 183 -104T233 -39Q196 -36 166 -19T114 25T80 87T68 164Q68 198 79 234T114 302T180 353T281 373Q335 373 375 358T442 316T481 250T494 164Z" />
<glyph unicode="&lt;" glyph-name="less" horiz-adv-x="768" d="M655 145Q589 195 514 249T360 353T199 444T39 512Q47 555 49 600T51 688Q51 796 39 901Q81 922 130 953T231 1021T334 1101T433 1185T520 1270T588 1350L719 944Q659 934 595 912T469 858T348 791T242
717Q288 687 348 655T472 596T601 551T719 532L655 145Z" />
<glyph unicode="=" glyph-name="equal" horiz-adv-x="952" d="M872 649Q864 604 861 561T858 473Q858 430 861 386T872 299Q834 319 789 331T696 350T602 359T512 362Q404 362 293 352T78 313Q82 325 85 343T89 380T91 417T92 446Q92 497 88 547T78 649Q118 632
170 621T278 603T387 593T485 590Q526 590 578 593T684 602T787 620T872 649ZM872 1059Q864 1014 861 971T858 883Q858 839 861 796T872 709Q834 729 789 741T696 760T602 769T512 772Q404 772 293 762T78 723Q82 735 85 752T89 789T91 826T92 856Q92 907 88 957T78
1059Q118 1042 170 1031T278 1012T387 1002T485 999Q526 999 578 1002T684 1012T787 1030T872 1059Z" />
<glyph unicode="&gt;" glyph-name="greater" horiz-adv-x="768" d="M729 512Q651 486 570 445T409 353T254 249T113 145L49 532Q103 533 167 551T297 596T422 655T528 717Q480 754 422 790T300 858T173 911T49 944L180 1350Q208 1312 248 1270T335 1186T433 1101T536
1022T637 953T729 901Q717 796 717 688Q717 645 719 600T729 512Z" />
<glyph unicode="?" glyph-name="question" horiz-adv-x="1112" d="M1075 1006Q1075 923 1051 863T990 757T909 673T824 598T754 520T713 424Q663 435 616 439T520 444Q491 444 462 443T403 436Q403 505 418 553T456 638T505 707T555 776T593 860T608 977Q608 1024
598 1059T572 1118T535 1158T494 1181T456 1193T426 1196Q388 1196 368 1177T348 1137Q348 1126 351 1116T361 1097T381 1084T412 1079Q426 1080 438 1086Q449 1091 460 1102T477 1135Q499 1104 510 1065T522 983Q522 941 510 902T472 832T406 783T309 764Q240
764 188 794T102 871T50 973T33 1077Q33 1122 44 1170T78 1265T139 1353T229 1426T349 1476T504 1495Q574 1495 644 1483T777 1446T895 1382T990 1289T1052 1164T1075 1006ZM336 160Q336 203 352 241T397 309T464 354T547 371Q591 371 629 355T696 309T741 242T758
160Q758 116 742 78T697 11T630 -34T547 -51Q503 -51 465 -35T398 10T353 77T336 160Z" />
<glyph unicode="@" glyph-name="at" horiz-adv-x="1661" d="M911 295Q901 239 880 202T830 141T769 108T705 98Q685 98 661 103T611 122T561 162T517 227T487 326T475 463Q475 570 496 645T551 769T625 839T705 862Q738 862 765 853T813 829T849 797T874 762Q872
784 869 808T860 858Q902 849 944 847T1024 844Q1044 844 1061 844T1093 846Q1109 847 1122 848Q1107 785 1099 694T1090 500Q1090 452 1095 409T1113 332T1147 280T1200 260Q1216 260 1235 266T1270 294T1296 360T1307 479Q1307 597 1276 700T1186 881T1043 1002T852
1047Q746 1047 653 1003T491 882T382 702T342 481Q342 400 358 321T416 170T529 41T711 -57Q641 -80 565 -77T415 -48T275 25T158 140T79 292T49 479Q49 611 80 716T166 901T297 1039T461 1133T648 1187T848 1204Q949 1204 1045 1188T1225 1136T1379 1045T1501
914T1580 738T1608 516Q1608 417 1588 346T1534 224T1458 143T1370 95T1280 72T1200 66Q1127 66 1075 86T989 138T936 212T911 295ZM870 489V590Q870 608 868 625T859 657T840 681T807 690Q784 690 771 665T751 605T743 536T741 483Q741 466 742 441T750 393T768
353T801 336Q823 336 836 352T857 391T867 441T870 489Z" />
<glyph unicode="A" glyph-name="A" horiz-adv-x="1171" d="M1217 -12Q1155 -4 1098 -1T981 2Q822 2 655 -29Q661 -5 668 13T682 54T692 107T696 184Q696 232 689 275T668 352T634 406T586 426Q556 426 536 408T503 359T485 288T479 203Q479 158 484 126T497 69T512
27T522 -10Q453 -2 387 2T254 6Q188 6 122 2T-16 -10Q46 170 92 347T172 703T225 1065T256 1440Q330 1430 418 1426T600 1421Q679 1421 753 1425T891 1442Q898 1251 927 1066T999 700T1099 341T1217 -12ZM657 764Q655 783 645 820Q636 852 618 904T565 1040Q557
988 547 948T528 875T513 815T506 764Q506 714 529 687T582 659Q613 659 634 689T657 764Z" />
<glyph unicode="B" glyph-name="B" horiz-adv-x="1180" d="M1153 389Q1153 278 1107 200T983 73T807 -1T602 -29Q535 -27 474 -24Q448 -23 421 -23T369 -21T320 -20T281 -20Q215 -22 145 -23T6 -29Q51 32 79 127T123 332T146 557T152 774Q152 817 151 878T145
1009T134 1150T115 1282T84 1391T41 1458Q113 1447 181 1444T297 1440Q339 1440 372 1441T437 1445T503 1448T580 1450Q646 1449 712 1443T839 1420T953 1377T1044 1305T1105 1199T1128 1053Q1128 1008 1117 963T1080 875T1013 793T911 719Q1039 666 1096 584T1153
389ZM557 840Q577 855 604 880T655 936T696 1000T713 1063Q713 1095 695 1115T653 1135Q621 1135 602 1106T573 1038T559 958T555 893Q555 881 555 868T557 840ZM694 342Q694 378 683 414T654 486T612 555T563 618Q548 573 544 530T539 451Q539 399 546 365T565
309T595 279T633 270Q658 270 676 288T694 342Z" />
<glyph unicode="C" glyph-name="C" horiz-adv-x="1157" d="M1126 1059Q1126 1008 1108 956T1057 861T975 791T866 764Q812 764 774 782T711 832T674 902T662 983Q662 1025 672 1064T705 1135Q711 1114 721 1103T742 1086Q754 1080 768 1079Q800 1079 813 1096T827
1135Q827 1145 823 1155T811 1175T788 1190T754 1196Q743 1196 723 1193T677 1178T626 1140T579 1072T544 965T530 809Q530 746 542 700T575 620T621 566T674 533T726 517T772 512Q798 512 837 521T916 556T986 625T1030 739Q1065 690 1083 622T1102 479Q1102 377
1066 282T962 112T798 -6T584 -51Q497 -51 423 -24T288 53T181 168T103 313T55 477T39 653Q39 751 60 850T120 1042T216 1214T345 1354T503 1448T686 1483Q774 1483 841 1463T956 1408T1038 1329T1090 1238T1118 1145T1126 1059Z" />
<glyph unicode="D" glyph-name="D" horiz-adv-x="1282" d="M1237 709Q1237 546 1201 429T1106 231T972 100T820 23T668 -14T537 -23Q440 -23 372 -17T258 -10Q207 -10 145 -12T14 -20Q41 29 61 89T97 216T122 349T140 480Q156 628 158 784Q156 939 143 1075Q137
1133 129 1191T108 1302T80 1397T41 1464Q115 1452 181 1448T299 1444Q332 1444 363 1446T427 1450T497 1454T582 1456Q650 1456 725 1447T873 1409T1012 1330T1128 1196T1207 994T1237 709ZM748 731Q748 848 741 926T721 1051T687 1119T641 1139Q618 1139 600
1116T568 1040T548 907T541 709Q541 587 547 506T566 375T597 306T641 285Q690 285 719 392T748 731Z" />
<glyph unicode="E" glyph-name="E" horiz-adv-x="1030" d="M993 -14Q941 -4 887 1T772 10T643 13T494 14Q456 14 404 13T291 8T166 -3T41 -23Q63 22 79 90T105 236T122 393T131 542T134 661T135 731Q135 735 135 762T133 832T130 930T125 1046T116 1167T103 1282T86
1380T63 1450Q161 1436 256 1430T440 1423Q549 1423 644 1429T810 1443Q893 1452 961 1464V995Q903 1049 850 1078T756 1121Q708 1137 666 1139Q616 1139 585 1127T536 1095T512 1051T506 1001Q506 975 513 949T537 902T578 868T639 854Q668 854 692 867T733 898Q753
917 770 942V535Q754 573 733 595T691 627T654 640T631 643Q566 643 534 603T502 500Q502 454 512 422T540 370T581 341T631 332Q671 332 717 350T805 398T883 466T940 545L993 -14Z" />
<glyph unicode="F" glyph-name="F" horiz-adv-x="1016" d="M999 995Q950 1048 896 1077T796 1120T719 1136T684 1139Q634 1139 603 1127T555 1095T531 1051T524 1001Q524 977 529 951T548 904T583 868T639 854Q641 854 655 854T690 862T736 888T788 942V535Q767
573 742 595T695 627T655 640T631 643Q598 643 577 632T543 602T525 555T520 494Q523 417 535 335Q540 300 548 261T568 181T596 98T633 16Q611 17 585 19Q562 21 532 22T463 23Q418 23 365 21T257 12T146 -4T39 -31Q61 14 77 83T103 230T120 389T129 539T132 660T133
731Q133 735 133 762T131 832T128 930T123 1046T114 1167T101 1282T84 1380T61 1450Q157 1430 256 1422T453 1413Q564 1413 663 1420T837 1438Q925 1449 999 1464V995Z" />
<glyph unicode="G" glyph-name="G" horiz-adv-x="1208" d="M1188 752Q1106 549 1106 358Q1106 266 1123 173T1176 -18Q1119 -4 1070 3T973 10Q922 10 869 1T754 -27L795 133Q775 101 747 68T681 7T593 -37T479 -55Q383 -55 303 -9T164 124T74 337T41 625Q41 732
61 837T119 1038T213 1215T340 1356T497 1449T684 1483Q775 1483 843 1465T961 1416T1043 1346T1095 1263T1122 1178T1130 1098Q1130 1045 1112 996T1060 910T982 851T883 829Q827 829 786 846T718 890T678 952T664 1020Q664 1049 674 1079T702 1135Q708 1114 719
1103T741 1086Q753 1080 768 1079Q802 1079 816 1096T831 1135Q831 1145 827 1155T813 1175T790 1190T754 1196Q740 1196 716 1191T663 1169T605 1124T552 1045T513 925T498 756Q498 675 511 614T549 512T606 451T678 430Q715 430 739 449T777 495T796 551T801
600Q801 601 800 614T790 644T764 679T713 709Q831 709 950 719T1188 752Z" />
<glyph unicode="H" glyph-name="H" horiz-adv-x="1282" d="M612 6Q593 8 568 10Q547 12 516 13T446 14Q371 14 267 7T37 -20Q59 25 75 94T101 241T118 401T127 552T130 673T131 743Q131 747 131 774T129 844T126 942T121 1058T112 1179T99 1294T82 1391T59 1460Q156
1443 242 1437T399 1430Q448 1430 488 1432T556 1437Q589 1440 614 1444Q569 1319 551 1206T532 1006Q532 896 561 845T641 793Q704 793 730 857T756 1036Q756 1098 750 1161T733 1282T706 1391T672 1481Q772 1462 859 1456T1014 1450Q1060 1450 1096 1452T1158
1456Q1188 1459 1210 1462Q1199 1406 1190 1335T1173 1183T1163 1010T1159 823Q1159 714 1164 602T1180 379T1209 165T1251 -33Q1232 -31 1207 -29Q1186 -27 1155 -26T1085 -25Q1010 -25 906 -32T676 -59Q690 -31 703 13T726 108T742 213T748 317Q748 411 722 459T647
508Q605 508 579 469T553 346Q553 307 558 264T571 177T590 90T612 6Z" />
<glyph unicode="I" glyph-name="I" horiz-adv-x="672" d="M633 6Q612 8 586 10Q563 12 531 13T457 14Q376 14 269 7T37 -20Q59 25 75 94T101 241T118 401T127 552T130 673T131 743Q131 747 131 774T129 844T126 942T121 1058T112 1179T99 1294T82 1391T59 1460Q160
1442 244 1436T397 1430Q442 1430 478 1432T539 1436Q568 1439 590 1442Q578 1386 569 1318T553 1172T543 1009T539 834Q539 730 544 623T560 409T589 201T633 6Z" />
<glyph unicode="J" glyph-name="J" horiz-adv-x="1145" d="M1126 1436Q1113 1404 1104 1363T1087 1277T1074 1185T1065 1094Q1057 990 1055 879Q1055 810 1055 733T1049 576T1030 418T989 267T918 134T808 27T652 -44T440 -70Q334 -70 252 -35T112 58T26 192T-4
350Q-4 425 20 484T83 583T172 645T274 666Q347 666 411 623T510 492Q498 503 484 508T457 514Q440 514 424 507T396 486T377 455T369 416Q369 392 377 373T401 340T435 319T477 311Q523 311 554 334T605 406T632 527T641 700Q641 767 639 841T631 991T618 1137T599
1271T573 1384T541 1464Q577 1451 627 1441Q670 1433 734 1426T883 1419Q937 1419 997 1422T1126 1436Z" />
<glyph unicode="K" glyph-name="K" horiz-adv-x="1227" d="M1227 -35Q1159 -30 1102 -29T995 -27Q904 -27 842 -32T740 -43Q694 -50 666 -59Q670 -28 674 0T680 57T684 113T686 172Q686 283 678 357T653 481T614 561T563 616Q561 571 560 529T559 440Q559 393
561 343T568 237T583 117T608 -20Q570 -17 523 -13Q483 -11 428 -9T307 -6Q241 -6 167 -9T12 -20Q36 10 55 58T90 163T115 284T134 408Q152 551 158 713Q158 798 156 888T146 1067T123 1244T80 1409Q122 1406 163 1404T246 1401Q443 1401 633 1442Q589 1312 570
1185T551 930Q551 899 551 869T555 807Q640 915 685 1019T731 1223Q731 1274 720 1322T682 1419Q732 1414 781 1412T881 1409Q967 1409 1053 1417T1227 1442Q1210 1416 1196 1387T1171 1326T1150 1262T1133 1201Q1116 1132 1106 1061Q1095 991 1069 928Q1058 901
1042 873T1005 818T958 768T897 727Q967 698 1004 655T1061 558T1088 439T1108 303Q1119 243 1136 183Q1150 132 1172 73T1227 -35Z" />
<glyph unicode="L" glyph-name="L" horiz-adv-x="952" d="M952 -14Q917 -6 870 0T771 9T669 13T578 15T511 16T483 16Q421 15 349 10Q287 5 208 -4T41 -31Q61 46 76 141T101 344T116 565T121 793Q121 887 118 978T107 1154T89 1313T63 1450Q167 1431 251 1425T401
1419Q442 1419 474 1420T528 1424Q554 1427 573 1430Q551 1358 532 1274T500 1102T479 924T471 754Q471 651 484 578T522 458T584 389T668 367Q731 367 792 412T899 545L952 -14Z" />
<glyph unicode="M" glyph-name="M" horiz-adv-x="1513" d="M604 6Q587 8 562 10Q541 12 511 13T442 14Q368 14 266 7T39 -20Q92 203 112 417T133 829Q133 1009 119 1167T82 1460Q182 1442 261 1436T399 1430Q439 1430 469 1432T520 1436Q544 1439 561 1442Q595
1246 646 1055T772 670Q835 865 872 1060T922 1460L930 1442L922 1460Q1022 1442 1104 1436T1249 1430Q1291 1430 1323 1432T1378 1436Q1404 1439 1423 1442Q1402 1342 1391 1206T1380 913Q1380 802 1386 685T1404 451T1437 221T1485 6Q1465 8 1439 10Q1416 12
1385 13T1313 14Q1235 14 1130 7T899 -20Q924 30 940 108T967 274T983 449T991 606Q962 544 935 480T880 344T820 187T752 0Q714 103 683 187T625 343T571 479T516 608Q525 450 546 297T604 6Z" />
<glyph unicode="N" glyph-name="N" horiz-adv-x="1323" d="M618 6Q599 8 573 10Q551 12 520 13T449 14Q371 14 267 7T37 -20Q59 25 75 94T101 241T118 401T127 552T130 673T131 743Q131 747 131 774T129 844T126 942T121 1058T112 1179T99 1294T82 1391T59 1460Q160
1442 243 1436T391 1430Q435 1430 469 1432T527 1436Q554 1439 575 1442Q618 1230 673 1049T797 713V754Q794 917 786 1058Q782 1118 777 1179T765 1294T748 1391T725 1460Q825 1442 909 1436T1059 1430Q1103 1430 1137 1432T1195 1436Q1222 1439 1243 1442Q1231
1386 1222 1317T1206 1170T1196 1006T1192 829Q1192 726 1197 620T1213 408T1242 201T1284 6Q1266 8 1241 10Q1220 12 1190 13T1122 14Q1050 14 956 7T754 -20Q754 83 738 181T691 375T619 563T526 745Q527 651 533 555T551 365T579 181T618 6Z" />
<glyph unicode="O" glyph-name="O" horiz-adv-x="1206" d="M1163 670Q1163 518 1129 385T1026 152T852 -5T602 -63Q459 -63 354 -6T179 151T75 384T41 670Q41 782 62 886T120 1080T209 1244T323 1370T456 1452T602 1481Q728 1481 831 1420T1008 1249T1122 992T1163
670ZM754 756Q754 831 742 894T710 1004T661 1077T602 1104Q572 1104 545 1073T498 991T465 879T453 756Q453 697 463 647T493 559T539 501T602 479Q636 479 664 500T712 559T743 646T754 756Z" />
<glyph unicode="P" glyph-name="P" horiz-adv-x="1120" d="M1100 874Q1100 768 1067 684T978 540T852 448T705 416Q663 416 622 425T541 457Q550 383 570 305Q587 238 618 156T702 -6Q600 5 519 9T371 14Q282 14 222 8T123 -6Q79 -15 53 -25Q78 52 96 143T126
333T144 535T150 741Q150 852 143 958T123 1158T89 1329T43 1458Q91 1443 143 1437T250 1430Q299 1430 348 1434T446 1444T539 1453T623 1458Q665 1458 716 1447T821 1410T924 1339T1013 1230T1075 1077T1100 874ZM530 711Q555 735 587 769T649 844T697 928T717
1010Q717 1055 692 1081T635 1108Q607 1108 589 1089T558 1040T540 972T531 898T528 830T528 780Q528 763 528 746T530 711Z" />
<glyph unicode="Q" glyph-name="Q" horiz-adv-x="1206" d="M1163 670Q1163 574 1150 485T1109 317T1040 172T942 57Q1021 -86 1159 -203Q979 -261 844 -387Q819 -202 752 -43Q717 -52 680 -57T602 -63Q459 -63 354 -6T179 151T75 384T41 670Q41 782 62 886T120
1080T209 1244T323 1370T456 1452T602 1481Q728 1481 831 1420T1008 1249T1122 992T1163 670ZM754 756Q754 831 742 894T710 1004T661 1077T602 1104Q572 1104 545 1073T498 991T465 879T453 756Q453 697 463 647T493 559T539 501T602 479Q636 479 664 500T712
559T743 646T754 756Z" />
<glyph unicode="R" glyph-name="R" horiz-adv-x="1227" d="M1225 -16Q1160 -11 1104 -10T999 -8Q905 -8 842 -13T739 -25Q692 -32 664 -41Q668 -10 672 17T678 69T682 120T684 174Q684 284 676 357T651 479T612 558T561 612Q559 567 558 525T557 436Q557 390 559
340T566 234T581 115T606 -23Q605 -19 580 -14T513 -5T417 1T303 4Q226 4 149 -1T10 -23Q34 8 53 55T88 160T113 280T132 404Q150 547 156 709Q156 749 156 810T155 943T147 1091T129 1237T96 1365T45 1458Q117 1447 185 1444T301 1440Q343 1440 378 1442T449 1446T522
1450T606 1452Q669 1452 733 1446T855 1423T964 1378T1052 1306T1111 1201T1133 1059Q1133 1014 1122 969T1084 881T1017 798T915 725Q986 696 1022 653T1075 555T1092 436T1096 301Q1100 226 1115 162Q1121 135 1130 107T1153 55T1184 12T1225 -16ZM561 846Q583
862 610 886T661 940T701 1003T717 1069Q717 1101 699 1121T657 1141Q625 1141 606 1112T577 1042T563 962T559 899Q559 887 559 874T561 846Z" />
<glyph unicode="S" glyph-name="S" horiz-adv-x="1153" d="M1073 1141Q1073 1091 1055 1051T1003 981T926 936T829 920Q772 920 732 934T664 969T620 1017T596 1069T585 1115T582 1147Q594 1127 610 1122T637 1116Q665 1116 676 1131T688 1163Q688 1174 684 1186T668
1208T637 1226T588 1233Q568 1233 547 1226T509 1203T480 1164T469 1110Q469 1080 481 1051T515 995T566 948T631 913Q686 890 744 868T858 820T961 761T1046 681T1104 574T1126 430Q1126 313 1079 217T952 52T768 -54T549 -92Q446 -92 353 -62T190 22T79 146T37
301Q37 362 57 408T112 484T195 530T297 545Q339 545 379 536T455 510T519 467T565 410Q544 416 528 416Q501 416 485 400T469 352Q469 335 477 321T497 295T526 278T561 272Q581 272 598 280T628 303T648 334T655 369Q655 404 634 440T571 504Q493 552 424 587T297
653T193 717T114 791T64 889T47 1026Q47 1122 84 1206T191 1352T364 1451T596 1487Q727 1487 818 1456T965 1374T1047 1263T1073 1141Z" />
<glyph unicode="T" glyph-name="T" horiz-adv-x="1118" d="M838 4Q815 6 785 8Q759 10 724 11T645 12Q571 12 479 7T283 -14Q318 134 336 271T363 515Q373 640 375 750Q375 797 373 853Q371 901 368 964T360 1102Q313 1057 267 1006T177 899T97 786T31 674L55
1438Q149 1427 253 1421T467 1415Q623 1415 776 1426T1057 1458L1094 686Q1022 823 935 943T748 1145Q740 1077 737 1003T733 850Q733 749 739 643T758 428T791 213T838 4Z" />
<glyph unicode="U" glyph-name="U" horiz-adv-x="1200" d="M1167 1442Q1144 1327 1130 1166T1116 821Q1116 795 1116 771T1118 720T1119 666T1120 606Q1120 539 1115 463T1090 312T1036 168T943 46T798 -38T592 -70Q479 -70 398 -45T260 25T168 130T114 259T89
404T82 553Q82 586 82 608T84 649T86 687T88 732T89 795T90 887Q90 954 88 1039T77 1206T55 1357T16 1460Q117 1442 205 1436T369 1430Q417 1430 456 1432T523 1436Q556 1439 580 1442Q567 1380 554 1303T531 1138T515 953T508 756Q508 631 512 553T527 432T553
372T592 356Q623 356 644 375T680 441T701 564T709 754Q707 917 699 1058Q696 1118 691 1179T678 1294T660 1391T637 1460Q737 1442 822 1436T975 1430Q1020 1430 1055 1432T1116 1436Q1145 1439 1167 1442Z" />
<glyph unicode="V" glyph-name="V" horiz-adv-x="1208" d="M1221 1450Q1159 1270 1111 1090T1026 728T960 366T909 2Q857 7 801 8T686 10Q593 10 501 5T326 -12Q301 171 267 352T186 715T81 1075T-53 1434Q7 1426 66 1422T186 1417Q273 1417 358 1425T528 1450Q523
1391 522 1334T520 1219Q520 1027 543 845T612 485Q650 640 668 792T686 1098Q686 1274 662 1450Q731 1441 800 1438T940 1434Q1009 1434 1079 1437T1221 1450Z" />
<glyph unicode="W" glyph-name="W" horiz-adv-x="1497" d="M596 1460Q562 1270 551 1103T539 780Q591 895 641 1018T741 1276Q792 1128 843 1001T954 758V850Q954 1006 940 1157T891 1444Q895 1441 915 1437T967 1429T1043 1422T1137 1419Q1215 1419 1305 1428T1487
1460Q1465 1416 1445 1342T1408 1172T1376 965T1352 734T1337 492T1331 254Q1331 180 1333 112T1341 -20Q1241 -3 1163 3T1026 10Q988 10 959 8T910 4Q887 1 870 -2Q858 87 845 172T815 334T776 480T723 606Q700 541 684 472T656 326T640 163T635 -20Q535 -3 456
3T319 10Q280 10 251 8T202 4Q179 1 164 -2Q170 109 170 231Q170 345 165 463T150 696T126 922T93 1128T51 1305T0 1444Q29 1436 68 1431Q101 1426 147 1423T252 1419Q324 1419 411 1428T596 1460Z" />
<glyph unicode="X" glyph-name="X" horiz-adv-x="1251" d="M1278 1460Q1224 1398 1174 1316T1073 1139T971 938T864 725Q912 633 959 539T1055 354T1159 175T1278 6Q1260 7 1235 9Q1214 10 1183 11T1114 12Q1039 12 938 6T719 -20Q712 19 700 72T673 183T643 295T616
395Q598 347 581 291T547 180T519 72T500 -20Q381 0 285 6T119 12Q84 12 57 11T12 9Q-10 7 -25 6Q38 87 91 174T193 351T288 534T383 719Q342 800 302 884T214 1059T108 1250T-25 1460Q88 1442 179 1436T338 1430Q381 1430 414 1431T470 1435Q496 1437 516 1440Q522
1401 534 1350T561 1245T593 1134T627 1028Q647 1079 664 1134T696 1243T720 1347T737 1440Q757 1437 783 1435Q806 1433 838 1432T913 1430Q983 1430 1074 1436T1278 1460Z" />
<glyph unicode="Y" glyph-name="Y" horiz-adv-x="1141" d="M1118 1419Q1105 1387 1095 1346T1078 1260T1065 1168T1057 1076Q1049 971 1047 860Q1047 811 1048 760T1049 655Q1049 571 1043 486T1017 323T958 177T853 59T689 -20T453 -49Q348 -49 272 -24T146 45T73
146T49 268Q49 316 69 358T122 430T199 478T289 496Q348 496 403 465T500 365Q489 367 479 368T459 369Q387 369 387 307Q387 278 413 260T485 242Q540 242 573 271T625 344T649 440T655 541V584Q636 564 610 553T557 535T505 526T463 524Q403 524 343 540T233
600T151 722T115 926Q115 931 115 964T111 1047T100 1156T79 1272T45 1377T-6 1454Q100 1436 183 1429T330 1421Q379 1421 415 1423T476 1430Q504 1434 524 1440Q519 1399 514 1354T504 1262T497 1168T494 1077Q494 1027 498 984T511 908T536 857T575 838Q603 838
622 868T654 948T671 1060T676 1184Q676 1256 671 1321T657 1427Q675 1420 704 1416Q729 1411 769 1408T870 1405Q918 1405 979 1408T1118 1419Z" />
<glyph unicode="Z" glyph-name="Z" horiz-adv-x="1102" d="M1079 1460Q1063 1401 1028 1321T948 1145T850 943T748 729T655 512T582 305Q645 318 707 335T828 376T945 434T1055 516Q1049 463 1046 412T1042 309Q1042 226 1050 144T1077 -20Q952 -2 818 7T547 16Q407
16 270 7T2 -20Q128 288 266 567T559 1102Q434 1096 306 1056T55 948Q63 1004 67 1057T72 1163Q72 1236 64 1306T35 1446Q143 1434 258 1428T492 1421Q643 1421 791 1431T1079 1460Z" />
<glyph unicode="[" glyph-name="bracketleft" horiz-adv-x="723" d="M686 -160Q620 -160 536 -160T367 -158T204 -156T70 -152Q85 85 90 318T96 788Q96 1008 92 1225T70 1663Q125 1665 203 1667T365 1674T527 1684T662 1700L686 1391Q666 1392 640 1392T583 1393T519
1394T455 1395Q447 1245 444 1098T440 801Q440 626 444 454T457 106Q481 108 512 111T574 121T635 137T686 158V-160Z" />
<glyph unicode="\" glyph-name="backslash" horiz-adv-x="969" d="M25 1438Q49 1436 78 1434T139 1429T200 1426T254 1425Q272 1425 298 1425T351 1427T404 1431T449 1438Q466 1334 493 1213T557 962T638 701T732 445T834 209T942 8H866Q824 8 777 7T682 3T592
-4T514 -14Q437 368 317 728T25 1438Z" />
<glyph unicode="]" glyph-name="bracketright" horiz-adv-x="723" d="M37 158Q58 146 87 137T148 122T211 112T266 106Q274 281 278 453T283 801Q283 950 280 1097T268 1395Q236 1395 204 1395T141 1394T84 1393T37 1391L61 1700Q98 1694 146 1689T247 1681T357
1675T467 1670T568 1666T653 1663Q636 1443 632 1226T627 788Q627 552 632 319T653 -152Q598 -154 520 -155T356 -158T187 -159T37 -160V158Z" />
<glyph unicode="^" glyph-name="asciicircum" horiz-adv-x="766" d="M766 817Q730 806 687 795T598 771T511 744T436 711Q438 726 439 741T440 772Q440 787 437 814T429 875T418 947T404 1023Q388 1111 369 1212Q368 1212 363 1181T351 1102T335 996T319 881T306
780T301 711Q269 726 231 740T152 766T73 791T0 813Q16 829 34 864T70 946T105 1048T138 1158Q175 1286 211 1440Q227 1438 249 1437T296 1435T343 1433T383 1432Q396 1432 416 1432T457 1434T499 1436T532 1440Q572 1286 612 1158Q629 1103 648 1049T688 948T728
867T766 817Z" />
<glyph unicode="_" glyph-name="underscore" horiz-adv-x="1014" d="M905 -88Q897 -133 894 -176T891 -264Q891 -308 894 -351T905 -438Q867 -418 822 -406T729 -387T634 -378T545 -375Q436 -375 325 -385T111 -424Q115 -412 118 -395T122 -358T124 -321T125 -291Q125
-240 121 -190T111 -88Q151 -105 203 -116T310 -134T419 -144T518 -147Q559 -147 611 -144T717 -135T820 -117T905 -88Z" />
<glyph unicode="`" glyph-name="grave" horiz-adv-x="530" d="M332 1257L0 1614Q51 1642 100 1669Q142 1692 187 1719T264 1769Q273 1748 289 1718T326 1655T370 1585T416 1515Q469 1434 530 1346L332 1257Z" />
<glyph unicode="a" glyph-name="a" horiz-adv-x="1118" d="M1077 -14Q1058 -12 1033 -10Q1012 -8 983 -7T918 -6Q868 -6 809 -10T686 -25L690 256Q652 107 579 26T406 -55Q375 -55 336 -47T257 -17T178 46T109 149T61 303T43 518Q43 686 77 805T164 1001T281 1112T406
1147Q458 1147 500 1133T576 1096T633 1045T672 989Q669 1023 663 1061T649 1141Q714 1128 781 1124T905 1120Q973 1120 1015 1123Q1039 1124 1059 1126Q1048 1076 1039 1014T1024 882T1014 734T1010 575Q1010 424 1025 272T1077 -14ZM666 559V721Q666 748 663
776T650 827T619 864T565 879Q529 879 506 854T468 786T448 683T442 553Q442 513 447 472T466 398T501 343T555 322Q591 322 613 347T646 409T662 486T666 559Z" />
<glyph unicode="b" glyph-name="b" horiz-adv-x="1100" d="M29 -14Q47 53 60 141T81 331T92 543T96 764Q96 884 92 999T82 1216T66 1397T47 1528Q65 1525 89 1523Q109 1521 137 1520T203 1518Q258 1518 327 1523T477 1542Q468 1523 461 1487T447 1402T437 1298T430
1186T425 1075T422 975Q463 1064 531 1114T705 1165Q728 1165 763 1156T838 1123T917 1058T988 952T1039 797T1059 584Q1059 404 1023 283T932 88T809 -17T678 -49Q632 -49 590 -23T514 44T455 137T416 242Q419 221 424 181T436 98T448 20T461 -25Q398 -14 334
-10T213 -6Q172 -6 139 -7T81 -10Q52 -12 29 -14ZM436 563V504Q436 477 439 449T452 398T483 361T537 346Q561 346 578 360T606 398T624 450T634 509T638 565T639 610Q639 637 637 683T625 773T598 850T547 883Q523 883 506 865T476 819T456 755T444 684T438 616T436
563Z" />
<glyph unicode="c" glyph-name="c" horiz-adv-x="942" d="M913 848Q913 806 899 764T857 689T791 634T702 612Q658 612 627 627T576 666T547 721T537 786Q537 856 571 907Q576 890 585 882T603 869Q613 865 623 864Q652 864 660 877T670 907Q670 924 657 940T612
956Q603 956 587 954T550 941T508 912T470 858T441 772T430 647Q430 572 452 526T504 454T569 419T627 410Q648 410 680 417T743 445T801 500T836 592Q863 552 879 497T895 381Q895 299 865 221T779 83T645 -14T473 -51Q403 -51 343 -29T235 34T148 128T85 246T46
380T33 520Q33 598 50 679T98 835T176 976T280 1090T408 1167T557 1196Q628 1196 682 1179T776 1134T842 1070T884 995T906 918T913 848Z" />
<glyph unicode="d" glyph-name="d" horiz-adv-x="1106" d="M1075 -14Q1052 -12 1023 -10Q998 -8 965 -7T891 -6Q834 -6 770 -10T643 -25Q649 -13 656 25T669 109T681 200T690 270Q674 195 646 134T579 29T494 -39T395 -63Q371 -63 336 -60T262 -40T183 12T112
112T61 276T41 518Q41 638 58 732T105 899T174 1021T257 1104T346 1150T434 1165Q481 1165 519 1150T588 1110T642 1054T682 991Q680 1037 678 1091T673 1200T666 1308T656 1408T643 1489T627 1542Q707 1528 776 1523T901 1518Q937 1518 966 1519T1015 1523Q1039
1525 1057 1528Q1046 1478 1037 1398T1022 1216T1012 1000T1008 764Q1008 653 1011 543T1023 332T1044 142T1075 -14ZM664 559V721Q664 748 661 776T648 827T617 864T563 879Q539 879 522 860T494 811T476 744T466 671T462 603T461 553Q461 526 463 487T475 411T502
348T553 322Q589 322 611 347T644 409T660 486T664 559Z" />
<glyph unicode="e" glyph-name="e" horiz-adv-x="958" d="M915 930Q915 855 894 784T818 658T673 570T440 537Q444 488 460 455T500 402T549 372T597 358T634 354T649 354Q711 361 760 386Q781 396 801 411T837 448T864 497T877 561Q903 496 913 440T924 334Q924
244 892 169T802 38T667 -47T496 -78Q406 -78 323 -47T175 51T72 227T33 489Q33 656 81 785T210 1001T397 1134T621 1180Q679 1180 732 1167T826 1124T891 1047T915 930ZM436 702Q464 703 501 713T571 743T626 790T649 854Q649 877 633 891T592 905Q557 905 530
885T483 835T451 769T436 702Z" />
<glyph unicode="f" glyph-name="f" horiz-adv-x="776" d="M807 1597Q795 1526 789 1458T782 1323Q782 1303 782 1282T784 1241Q760 1281 724 1301T653 1321Q629 1321 606 1311T566 1281T539 1231T528 1161L778 1171Q767 1125 764 1078T760 979Q760 951 761 923T764
866Q701 874 644 880T524 887Q522 815 521 741T520 592Q520 434 528 279T565 -23Q453 0 332 0Q269 0 208 -6T86 -23Q109 76 122 190T141 422T151 656T156 874Q124 872 86 869T16 860Q21 904 24 945T27 1030Q27 1068 25 1105T16 1184L168 1176Q168 1280 194 1366T274
1515T406 1612T592 1647Q626 1647 651 1643T701 1631T750 1615T807 1597Z" />
<glyph unicode="g" glyph-name="g" horiz-adv-x="1104" d="M1069 1149Q1058 1107 1051 1047T1037 915T1028 766T1021 615Q1015 441 1014 246Q1014 144 1002 47T962 -137T890 -296T784 -421T639 -502T453 -532Q356 -532 285 -512T168 -456T99 -369T76 -256Q76 -195
97 -146T152 -63T228 -10T315 8Q372 8 422 -24T498 -125Q486 -117 469 -117Q446 -117 426 -135T406 -180Q406 -195 411 -205T426 -222T445 -230T465 -233Q476 -233 495 -230T538 -210T584 -161T626 -70T656 77T668 293Q648 204 618 153T554 77T485 45T418 39Q394
39 357 47T279 77T195 136T118 231T63 369T41 559Q41 727 75 843T164 1030T285 1133T414 1165Q459 1165 496 1151T563 1112T616 1059T657 999Q651 1043 643 1087T623 1176Q648 1165 685 1156Q717 1148 765 1143T881 1137Q961 1137 1069 1149ZM643 647Q643 675 639
714T624 790T594 853T543 879Q520 879 501 853T469 789T448 711T440 643Q440 595 445 545T461 455T490 388T532 362Q558 362 578 374T613 408T635 458T643 518V647Z" />
<glyph unicode="h" glyph-name="h" horiz-adv-x="1094" d="M1069 -41Q1015 -33 949 -29T817 -25Q754 -25 696 -29T594 -39Q615 33 627 110T646 270T655 445T657 637Q657 652 656 677T650 731T639 789T619 843T590 882T549 897Q534 897 520 882T490 841T461 782T434
711Q436 609 441 510T456 319T479 147T510 4Q493 5 470 7Q450 8 423 9T360 10Q295 10 211 5T27 -16Q41 12 52 61T71 173T84 306T93 448T98 585T101 705T102 796T102 844Q100 1011 93 1154Q90 1214 86 1275T76 1389T63 1482T45 1542Q126 1528 195 1523T319 1518Q355
1518 384 1519T433 1523Q457 1525 475 1528Q467 1493 461 1444T450 1334T442 1203T436 1057Q493 1146 559 1182T696 1219Q767 1219 826 1188T929 1091T997 925T1022 688Q1022 594 1022 494T1027 297T1041 113T1069 -41Z" />
<glyph unicode="i" glyph-name="i" horiz-adv-x="551" d="M518 4Q501 5 478 7Q458 8 431 9T369 10Q304 10 219 5T35 -16Q54 22 67 79T88 202T101 335T108 458T110 553T111 602Q109 732 102 845Q99 893 95 942T84 1034T71 1112T53 1167Q134 1153 203 1148T328 1143Q364
1143 392 1144T441 1148Q465 1150 483 1153Q465 1063 454 936T442 664Q442 581 446 496T459 327T482 161T518 4ZM59 1434Q59 1480 76 1520T124 1591T196 1639T283 1657Q329 1657 369 1640T440 1592T488 1521T506 1434Q506 1388 489 1347T441 1276T370 1228T283
1210Q237 1210 196 1227T125 1275T77 1347T59 1434Z" />
<glyph unicode="j" glyph-name="j" horiz-adv-x="516" d="M37 1434Q37 1480 54 1520T102 1591T173 1639T260 1657Q306 1657 346 1640T417 1592T465 1521T483 1434Q483 1388 466 1347T418 1276T347 1228T260 1210Q214 1210 174 1227T103 1275T55 1347T37 1434ZM481
1149Q470 1107 463 1047T449 915T440 766T433 615Q427 441 426 246Q426 144 414 47T374 -137T303 -296T197 -421T52 -502T-135 -532Q-213 -532 -273 -512T-375 -456T-439 -369T-461 -256Q-461 -208 -443 -168T-396 -99T-330 -54T-254 -37Q-204 -37 -160 -67T-90
-166Q-96 -161 -103 -160T-119 -158Q-142 -158 -162 -176T-182 -221Q-182 -238 -175 -250T-156 -270T-131 -281T-106 -285Q-87 -285 -65 -278T-20 -243T22 -159T57 -6T82 238T92 592Q92 665 90 740T81 890T63 1037T35 1176Q60 1165 97 1156Q129 1148 177 1143T293
1137Q374 1137 481 1149Z" />
<glyph unicode="k" glyph-name="k" horiz-adv-x="999" d="M999 -29Q886 -20 803 -20Q731 -20 682 -24T601 -34Q565 -40 543 -47Q551 4 555 47T559 139Q559 227 552 285T532 384T501 449T461 494Q459 458 458 423T457 350Q457 275 465 188T498 -16Q468 -14 430
-11Q398 -9 353 -8T254 -6Q200 -6 140 -8T14 -16Q34 15 49 66T76 180T94 316T106 461T113 606T115 739Q115 822 112 909T104 1079T92 1237T78 1372T64 1474T49 1530Q113 1524 182 1524Q269 1524 354 1532T518 1556Q506 1521 496 1466T479 1343T466 1200T456 1049T451
902T449 772Q449 732 450 700T453 645Q522 733 560 815T598 979Q598 1056 557 1135Q595 1131 635 1130T713 1128Q785 1128 856 1133T999 1153Q971 1111 953 1060T923 960Q910 905 901 848Q892 793 871 742Q862 720 850 698T820 654T780 614T731 582Q789 559 819
524T865 446T886 351T901 242Q910 195 924 147Q936 106 954 59T999 -29Z" />
<glyph unicode="l" glyph-name="l" horiz-adv-x="537" d="M510 4Q493 5 470 7Q450 8 423 9T360 10Q295 10 211 5T27 -16Q41 12 52 61T71 173T84 306T93 448T98 585T101 705T102 796T102 844Q100 1011 93 1154Q90 1214 86 1275T76 1389T63 1482T45 1542Q126 1528
195 1523T319 1518Q355 1518 384 1519T433 1523Q457 1525 475 1528Q466 1483 459 1414T446 1259T437 1074T434 870Q434 750 438 628T451 392T474 179T510 4Z" />
<glyph unicode="m" glyph-name="m" horiz-adv-x="1575" d="M1534 -20Q1503 -15 1469 -14T1397 -12Q1352 -12 1307 -14T1219 -21T1137 -30T1067 -39Q1080 12 1090 86T1108 250T1118 437T1122 637Q1122 652 1122 677T1119 731T1113 789T1100 843T1079 882T1047 897Q1027
897 1008 872T971 805Q974 749 976 673T979 513T980 349T982 204T984 101T987 61Q942 68 905 72T829 76Q779 76 721 68T582 43Q595 138 606 239Q615 326 623 431T631 637Q631 652 631 677T628 731T622 789T609 843T587 882T555 897Q523 897 503 879T470 829T454
758T449 672Q449 587 453 500T466 328T489 160T524 4Q507 5 484 7Q464 8 437 9T375 10Q310 10 225 5T41 -16Q53 40 62 121T77 297T86 495T90 700Q90 775 88 847T83 983T73 1101T59 1194Q140 1180 209 1175T334 1169Q370 1169 398 1170T447 1174Q471 1177 489 1180Q483
1154 479 1125T469 1061Q525 1133 589 1169T715 1206Q801 1206 855 1164T938 1028Q997 1118 1067 1162T1206 1206Q1278 1206 1334 1177T1429 1084T1487 923T1507 688Q1507 594 1507 492T1510 295T1518 117T1534 -20Z" />
<glyph unicode="n" glyph-name="n" horiz-adv-x="1112" d="M1083 -20Q1052 -15 1015 -14T938 -12Q890 -12 841 -14T744 -21T655 -30T582 -39Q625 106 648 271T672 637Q672 652 672 677T669 731T663 789T650 843T628 882T596 897Q568 897 542 877T495 824T462 748T449
659Q449 576 453 491T466 321T489 157T524 4Q507 5 484 7Q464 8 437 9T375 10Q310 10 225 5T41 -16Q53 40 62 121T77 297T86 495T90 700Q90 775 88 847T83 983T73 1101T59 1194Q140 1180 209 1175T334 1169Q370 1169 398 1170T447 1174Q471 1177 489 1180Q483 1149
478 1114T467 1038Q500 1080 537 1111T611 1164T686 1195T756 1206Q828 1206 880 1177T967 1084T1019 923T1036 688Q1036 594 1036 497T1041 307T1055 131T1083 -20Z" />
<glyph unicode="o" glyph-name="o" horiz-adv-x="1032" d="M995 584Q995 526 986 457T956 317T899 180T810 62T682 -20T510 -51Q412 -51 339 -22T213 55T126 167T72 301T45 442T37 578Q37 691 67 799T158 993T312 1130T530 1182Q614 1182 681 1157T800 1087T888
984T949 859T984 722T995 584ZM647 551Q647 574 646 608T639 681T626 757T603 825T569 874T520 893Q493 893 473 875T439 828T415 763T400 690T392 620T389 563Q389 530 394 483T413 393T451 320T516 289Q554 289 579 317T620 385T641 471T647 551Z" />
<glyph unicode="p" glyph-name="p" horiz-adv-x="1108" d="M33 1147Q56 1145 85 1143Q110 1141 143 1140T217 1139Q273 1139 337 1142T465 1157Q453 1134 445 1096T430 1006Q471 1096 539 1146T713 1196Q736 1196 771 1193T846 1173T925 1121T996 1020T1047 857T1067
614Q1067 494 1050 400T1003 233T934 111T851 28T762 -18T674 -33Q625 -33 584 -13T510 42T455 127T420 236Q421 190 424 129T431 3T440 -129T451 -251T464 -350T481 -410Q401 -396 332 -392T207 -387Q171 -387 142 -388T93 -391Q69 -393 51 -395Q61 -345 70 -265T85
-84T96 132T100 369Q100 480 97 590T85 801T64 990T33 1147ZM444 655V494Q444 467 447 439T460 388T491 351T545 336Q569 336 586 355T614 404T632 471T642 544T646 612T647 662Q647 689 645 728T633 804T606 867T555 893Q519 893 497 868T464 806T448 728T444
655Z" />
<glyph unicode="q" glyph-name="q" horiz-adv-x="1106" d="M664 684V743Q664 770 661 798T648 849T617 886T563 901Q539 901 522 887T494 849T476 797T466 739T462 682T461 637Q461 619 462 592T466 535T475 474T491 420T516 380T553 365Q577 365 594 383T624
429T644 493T656 564T662 631T664 684ZM702 -225Q685 -165 681 -98T676 31Q676 51 676 89T677 169T677 245T678 295Q660 205 633 145T571 48T491 -4T395 -20Q371 -20 336 -11T262 22T183 87T112 193T61 348T41 561Q41 681 57 774T102 938T168 1057T248 1136T335
1180T422 1194Q468 1194 506 1181T574 1147T629 1098T672 1042Q666 1084 658 1116T639 1169Q702 1158 766 1155T887 1151Q927 1151 960 1152T1019 1155Q1048 1157 1071 1159Q1062 1119 1054 1054T1040 908T1028 734T1020 545T1014 354T1012 174Q1012 78 1013 11T1019
-100T1029 -169T1045 -206T1066 -220T1096 -223Q1120 -223 1138 -207T1157 -150Q1156 -136 1150 -124Q1145 -113 1133 -102T1100 -84Q1114 -75 1136 -68T1184 -61Q1208 -61 1238 -71T1296 -105T1343 -169T1362 -270Q1362 -331 1334 -374T1260 -446T1160 -487T1053
-500Q985 -500 928 -480T826 -424T750 -337T702 -225Z" />
<glyph unicode="r" glyph-name="r" horiz-adv-x="1010" d="M586 907Q555 907 530 890T486 841T452 765T428 668Q428 583 432 496T445 324T468 158T504 4Q488 5 467 7Q449 8 424 9T365 10Q303 10 222 5T41 -16Q53 40 62 121T77 297T86 495T90 700Q90 775 88 847T83
983T73 1101T59 1194Q140 1180 206 1175T326 1169Q360 1169 386 1170T431 1174Q452 1177 469 1180Q457 1130 451 1069Q503 1132 564 1162T680 1192Q770 1192 832 1160T932 1075T987 955T1004 819Q1004 752 985 688T930 574T841 492T721 461Q662 461 621 481T552
533T513 603T500 680Q500 720 511 758T545 827Q552 805 562 794T584 777Q596 771 610 770Q647 770 665 787T684 827Q684 838 680 852T666 878T636 898T586 907Z" />
<glyph unicode="s" glyph-name="s" horiz-adv-x="934" d="M870 909Q870 869 854 837T811 783T748 748T672 735Q626 735 594 746T539 774T503 813T483 855T473 892T471 918Q480 901 494 897T516 893Q539 893 549 905T559 930Q559 938 555 948T541 966T515 981T475
987Q460 987 443 981T413 963T390 932T381 889Q381 844 404 813T464 759T549 715T647 674T744 626T829 561T890 470T913 344Q913 251 875 176T774 48T626 -34T449 -63Q364 -63 288 -40T155 24T65 121T31 242Q31 291 47 327T91 388T158 424T242 436Q275 436 308
429T370 408T422 374T459 328Q451 330 444 331T428 332Q406 332 394 321T381 283Q381 255 404 236T455 217Q471 217 485 224T509 242T524 268T530 297Q530 323 513 353T463 403Q400 442 344 470T241 523T157 573T93 631T53 710T39 821Q39 898 69 963T157 1077T297
1152T485 1180Q592 1180 665 1155T784 1091T850 1004T870 909Z" />
<glyph unicode="t" glyph-name="t" horiz-adv-x="850" d="M842 1214Q834 1169 831 1126T827 1038Q827 995 830 952T842 864Q794 889 734 901T610 920V834Q610 721 614 606T627 382T650 176T686 4Q669 5 646 7Q626 8 599 9T537 10Q472 10 387 5T203 -16Q237 179
251 389T266 801V920Q198 915 132 905T6 879Q10 890 13 908T17 945T19 982T20 1012Q20 1063 16 1113T6 1214Q54 1194 120 1182T254 1163Q248 1250 240 1324T221 1458Q302 1444 371 1439T496 1434Q532 1434 560 1435T609 1439Q633 1441 651 1444Q640 1396 633 1325T618
1165Q684 1172 742 1184T842 1214Z" />
<glyph unicode="u" glyph-name="u" horiz-adv-x="977" d="M948 1153Q939 1108 932 1048T919 919T910 774T907 623Q907 598 908 574T909 526Q909 477 904 415T882 289T836 162T760 52T644 -25T483 -55Q403 -55 342 -34T235 23T158 110T108 217T81 338T72 463Q72
478 72 481T73 486T74 489T75 505T75 546T76 625Q76 685 74 760T66 908T47 1040T16 1126Q97 1112 168 1107T299 1102Q338 1102 369 1103T424 1107Q450 1109 471 1112Q451 1014 433 890T414 604Q414 567 417 527T430 454T454 399T494 377Q524 377 541 397T566 449T576
522T578 602Q577 732 570 845Q567 893 563 942T552 1034T538 1112T520 1167Q601 1153 670 1148T793 1143Q829 1143 857 1144T906 1148Q930 1150 948 1153Z" />
<glyph unicode="v" glyph-name="v" horiz-adv-x="1008" d="M1014 1159Q963 1015 931 871T876 582T837 292T803 2Q759 5 705 6T590 8Q541 8 491 7T392 4T302 -2T225 -10Q206 137 188 282T144 572T80 860T-18 1147Q79 1135 178 1135Q316 1135 453 1159Q448 1105
446 1052T444 946Q444 800 460 659T514 381Q545 511 562 640T580 899Q580 965 575 1029T561 1159Q672 1147 784 1147Q897 1147 1014 1159Z" />
<glyph unicode="w" glyph-name="w" horiz-adv-x="1247" d="M463 1208Q450 1114 445 1039T440 895Q440 829 444 764T457 625Q499 716 539 815T621 1020Q661 902 703 801T793 606Q798 675 801 741T805 877Q805 940 801 1008T782 1155Q847 1152 907 1148T1028 1143Q1081
1143 1133 1148T1245 1167Q1164 883 1129 582T1085 -37Q1007 -23 946 -18T842 -12Q812 -12 790 -14T753 -18Q736 -21 725 -23Q715 49 705 120T681 258T649 382T606 485Q588 434 575 382T552 272T539 148T535 4Q485 10 441 12T358 14Q310 14 273 12T209 6Q178 2
156 -2Q153 104 145 220T123 454T95 683T63 893T30 1069T0 1196Q20 1193 46 1190Q69 1188 101 1186T176 1184Q233 1184 304 1189T463 1208Z" />
<glyph unicode="x" glyph-name="x" horiz-adv-x="1042" d="M1059 1167Q1013 1099 974 1032T899 892T831 743T766 580Q800 494 832 423T899 285T972 150T1059 4Q1043 5 1022 7Q1004 8 979 9T922 10Q860 10 780 5T606 -16Q601 15 591 58T569 146T545 236T524 315Q509
277 495 233T467 144T444 58T428 -16Q335 -1 256 4T117 10Q85 10 61 9T19 7Q-1 5 -16 4Q88 158 162 297T293 575Q260 640 228 705T160 842T81 994T-16 1167Q75 1152 152 1148T289 1143Q325 1143 353 1144T401 1147Q424 1149 442 1151Q447 1120 456 1080T477 997T502
908T530 823Q547 864 561 907T587 994T607 1077T621 1151Q637 1149 658 1147Q676 1145 702 1144T762 1143Q818 1143 892 1147T1059 1167Z" />
<glyph unicode="y" glyph-name="y" horiz-adv-x="1073" d="M1036 1149Q1025 1107 1018 1048T1004 921T995 779T988 635Q982 470 981 287Q981 185 969 86T929 -101T858 -265T752 -395T607 -481T420 -512Q323 -512 252 -492T135 -436T66 -348T43 -236Q43 -175 64
-126T119 -42T196 10T283 29Q339 29 389 -3T465 -104Q459 -99 452 -98T436 -96Q425 -96 414 -101T393 -115T379 -135T373 -160Q373 -175 379 -185T393 -202T412 -210T432 -213Q446 -213 467 -207T510 -182T555 -129T595 -39T623 99T633 293Q607 223 579 180T519
112T453 80T379 72Q330 72 277 89T179 151T105 273T76 469Q76 485 76 491T77 501T78 510T79 529T79 571T80 647Q80 704 78 776T70 917T51 1042T20 1126Q101 1112 172 1107T303 1102Q342 1102 373 1103T428 1107Q454 1109 475 1112Q467 1095 458 1047T439 932T424
786T418 625Q418 564 427 521T451 451T487 410T532 397Q570 397 592 428T631 506Q629 568 624 651T611 824T589 1005T555 1176Q586 1165 629 1156Q666 1148 719 1143T844 1137Q929 1137 1036 1149Z" />
<glyph unicode="z" glyph-name="z" horiz-adv-x="909" d="M870 1167Q850 1096 811 1013T725 833T625 624T528 387Q568 387 610 397T696 430T783 488T868 575Q864 544 861 504T854 420T850 328T848 233Q848 161 852 96T868 -16Q766 -1 659 6T440 14Q326 14 215
6T-2 -16Q49 107 104 227T213 462T316 681T403 879Q352 876 308 867T221 843T134 807T41 758Q74 878 74 999Q74 1041 71 1080T61 1157Q149 1146 237 1142T416 1137Q530 1137 644 1144T870 1167Z" />
<glyph unicode="{" glyph-name="braceleft" horiz-adv-x="811" d="M850 1602Q745 1567 663 1515Q628 1492 595 1464T535 1402T493 1326T477 1237Q477 1205 483 1173T498 1109T513 1043T520 973Q520 932 509 899T471 835T403 775T299 711Q360 683 401 654T467 592T502
520T512 434Q512 406 507 374T495 304T483 227T477 143Q477 90 491 46T530 -33T585 -97T648 -147Q723 -197 819 -225Q803 -225 765 -224T676 -216T564 -197T443 -162T326 -107T225 -26T155 85T129 231Q129 273 142 312T171 389T200 462T213 530Q213 557 202 582T161
629T84 672T-39 711Q33 729 80 747T156 786T195 827T207 872Q207 900 195 931T167 997T140 1069T127 1149Q127 1243 168 1313T274 1434T421 1518T582 1570T734 1596T850 1602Z" />
<glyph unicode="|" glyph-name="bar" horiz-adv-x="575" d="M528 -139Q511 -138 488 -136Q468 -135 441 -134T379 -133Q314 -133 229 -138T45 -160Q60 -132 71 -77T90 50T103 205T112 371T117 534T120 677T121 786T121 844Q119 1053 112 1226Q109 1300 105 1373T95
1510T81 1619T63 1686Q144 1672 213 1667T338 1661Q374 1661 403 1662T452 1666Q476 1668 494 1671Q485 1626 477 1547T464 1363T456 1137T453 885Q453 736 457 586T470 299T493 49T528 -139Z" />
<glyph unicode="}" glyph-name="braceright" horiz-adv-x="823" d="M-37 1602Q8 1603 79 1597T230 1571T392 1518T538 1435T645 1314T686 1149Q686 1107 673 1070T645 998T617 932T604 872Q604 849 615 828T655 786T732 748T852 711Q778 693 730 673T652 630T612
582T600 530Q600 498 613 463T641 390T669 313T682 231Q682 145 652 79T569 -38T448 -124T303 -181T147 -213T-6 -225Q89 -197 165 -147Q197 -126 227 -98T282 -34T321 46T336 143Q336 186 331 226T319 304T307 373T301 434Q301 481 311 519T346 591T411 654T514
711Q452 745 409 774T340 834T303 898T291 973Q291 1006 297 1038T312 1102T327 1168T334 1237Q334 1285 318 1326T276 1401T217 1464T148 1515Q66 1567 -37 1602Z" />
<glyph unicode="~" glyph-name="asciitilde" horiz-adv-x="1006" d="M1006 735Q970 694 938 659T869 598T790 558T692 543Q646 543 610 559T546 594T494 630T449 647Q407 647 380 632T336 591T309 532T291 463Q273 502 239 539T164 608T79 666T-2 709Q41 753 80
791T160 858T247 903T352 920Q394 920 428 904T492 868T551 832T608 815Q638 815 662 829T705 866T735 917T752 971Q773 944 803 910T868 842T938 779T1006 735Z" />
<glyph unicode="&#xa0;" glyph-name="nbspace" horiz-adv-x="305" />
<glyph unicode="&#xa1;" glyph-name="exclamdown" horiz-adv-x="590" d="M-2 -461Q36 -365 64 -256T112 -30T140 205T150 442Q150 481 149 518T145 592Q193 581 241 575T338 569Q394 569 455 580Q452 541 452 503T451 426Q451 298 461 170T489 -72T531 -281T582
-436Q544 -431 494 -430T383 -428Q332 -428 278 -430T172 -436T76 -446T-2 -461ZM522 856Q522 812 506 774T461 707T394 662T311 645Q267 645 229 661T162 706T117 773T100 856Q100 900 116 938T162 1005T229 1050T311 1067Q355 1067 393 1051T460 1006T505 939T522
856Z" />
<glyph unicode="&#xa2;" glyph-name="cent" horiz-adv-x="776" d="M510 1622Q502 1569 496 1515T486 1410T478 1311T473 1223Q552 1219 603 1189T684 1117T725 1029T737 946Q737 914 727 881T695 820T643 774T569 756Q534 756 509 768T467 799T442 844T434 897Q434
923 441 948T463 991Q468 978 474 972T488 962Q496 958 504 958Q529 958 535 968T543 991Q543 1005 532 1018T496 1032Q486 1032 462 1026T413 996T369 922T350 784Q350 724 367 687T408 630T460 602T506 594Q522 594 547 599T599 621T646 665T676 739Q699 707
711 663T723 571Q723 569 722 548T714 494T692 422T648 346T577 279T471 233Q473 192 476 143T485 39T497 -72T514 -184Q491 -181 467 -181T418 -180Q389 -180 352 -181T283 -184Q290 -128 296 -72T306 39T314 141T319 231Q251 246 198 289T109 393T54 529T35 680Q35
757 54 835T109 984T198 1109T319 1194Q317 1236 314 1286T307 1392T295 1506T279 1622Q302 1619 326 1619T375 1618Q404 1618 441 1619T510 1622Z" />
<glyph unicode="&#xa3;" glyph-name="sterling" horiz-adv-x="993" d="M735 813Q726 782 723 754T719 696Q719 667 722 640T735 584Q692 599 638 607T530 621Q536 571 552 542T590 497T635 476T680 471Q708 471 737 480T795 507T848 549T893 604L940 238Q910 242
869 245T785 251T698 254T618 255T558 256T528 256Q473 256 411 252Q357 249 287 243T141 225Q167 303 187 403T213 616Q167 613 123 608T35 594Q39 601 41 612T45 635T47 660T47 682Q47 714 45 746T35 813Q70 802 115 795T209 782Q209 903 237 986T316 1119T440
1192T602 1214Q695 1214 755 1192T850 1136T899 1066T913 999Q913 974 901 948T866 901T810 866T733 852Q696 852 670 860T627 883T602 917T594 958Q594 980 602 1000T627 1038Q629 1027 635 1021T650 1013Q658 1009 668 1010Q691 1010 698 1018T707 1038Q707 1049
695 1059T657 1069Q646 1069 623 1063T577 1029T537 947T520 793V776Q579 781 636 790T735 813Z" />
<glyph unicode="&#xa4;" glyph-name="currency" horiz-adv-x="881" d="M530 711Q530 724 527 739T515 767T490 790T446 799Q419 799 403 790T377 768T364 739T360 711Q360 697 363 682T375 653T401 632T446 623Q471 623 487 632T513 654T526 682T530 711ZM799
872Q771 863 738 842T670 795Q678 772 681 749T684 705Q684 665 672 623Q706 597 739 575T799 543Q684 465 606 350Q597 376 576 409T530 475Q491 463 440 463Q414 463 392 465T350 473Q325 442 304 412T268 358Q259 378 236 404T184 457T128 506T82 543Q108 554
141 576T207 625Q202 645 201 665T199 705Q199 725 201 747T211 793Q179 817 148 840T90 879Q110 888 136 911T188 963T237 1019T274 1065Q285 1039 309 1004T360 934Q377 939 397 941T440 944Q463 944 483 942T520 934Q548 969 571 1004T606 1065Q644 1009 693
960T799 872Z" />
<glyph unicode="&#xa5;" glyph-name="yen" horiz-adv-x="1182" d="M1030 774Q1021 745 1018 717T1014 659Q1014 632 1017 603T1030 545Q976 562 910 570T778 582Q788 492 805 404T852 238Q834 239 811 241Q791 242 763 243T698 244Q627 244 534 239T332 221Q350
249 363 291T385 382T399 482T408 580Q343 576 280 570T156 553Q160 561 163 573T168 598T171 622T172 641Q172 675 167 707T156 774Q199 763 253 756T367 743Q332 798 292 859T209 982T118 1107T23 1225Q122 1211 201 1207T340 1202Q377 1202 405 1203T454 1206Q477
1208 494 1210Q500 1183 510 1138T534 1043T562 944T592 860Q609 895 624 943T651 1042T672 1137T688 1210Q705 1208 728 1206Q748 1204 775 1203T840 1202Q900 1202 980 1206T1159 1225Q1121 1190 1077 1136T988 1017T896 880T805 741Q868 746 927 754T1030 774Z"
/>
<glyph unicode="&#xa6;" glyph-name="brokenbar" horiz-adv-x="588" d="M502 1651Q479 1464 469 1278T459 903H117Q111 1092 106 1278T82 1651Q100 1649 125 1649T177 1648T230 1647T274 1647Q297 1647 326 1647T387 1648T448 1649T502 1651ZM526 -127Q503 -127
480 -126T432 -125Q401 -125 351 -126T247 -128T143 -132T61 -137Q73 -70 82 9T99 169T110 329T118 477T122 600T123 686H465Q473 481 489 278T526 -127Z" />
<glyph unicode="&#xa7;" glyph-name="section" horiz-adv-x="1198" d="M1092 1325Q1092 1275 1073 1235T1021 1165T944 1120T848 1104Q790 1104 750 1118T682 1153T638 1201T614 1253T603 1299T600 1331Q612 1311 628 1306T655 1300Q683 1300 695 1315T707 1348Q707
1358 702 1370T686 1393T655 1410T606 1417Q586 1417 565 1410T527 1387T498 1348T487 1294Q487 1264 499 1235T533 1180T584 1133T649 1098Q704 1075 762 1053T876 1005T980 945T1065 865T1123 758T1145 614Q1145 563 1135 516T1108 426Q1125 389 1135 345T1145
246Q1145 128 1098 32T971 -132T786 -238T567 -276Q464 -276 372 -246T209 -162T97 -38T55 117Q55 178 75 224T130 300T213 345T315 360Q357 360 397 351T474 325T538 282T584 225Q561 231 547 231Q519 231 503 216T487 168Q487 151 495 137T515 111T545 94T580
88Q600 88 617 96T647 118T667 149T674 184Q674 219 652 255T590 319Q512 367 443 402T316 469T212 532T133 606T83 705T66 842Q66 939 102 1022Q84 1059 75 1104T66 1210Q66 1306 103 1390T210 1536T382 1635T614 1671Q746 1671 837 1640T984 1558T1066 1447T1092
1325ZM739 590Q728 621 709 664T662 745T602 811T532 838Q503 838 483 821T463 778Q463 759 476 741T509 706T554 674T604 647T651 626T686 610Q700 605 712 600T739 590Z" />
<glyph unicode="&#xa8;" glyph-name="dieresis" horiz-adv-x="729" d="M0 1493Q0 1527 13 1556T48 1608T100 1644T164 1657Q198 1657 227 1644T279 1609T315 1557T328 1493Q328 1459 315 1430T280 1378T228 1342T164 1329Q130 1329 101 1342T49 1377T13 1429T0
1493ZM401 1493Q401 1527 414 1556T449 1608T501 1644T565 1657Q599 1657 628 1644T680 1609T716 1557T729 1493Q729 1459 716 1430T681 1378T629 1342T565 1329Q531 1329 502 1342T450 1377T414 1429T401 1493Z" />
<glyph unicode="&#xa9;" glyph-name="copyright" horiz-adv-x="942" d="M649 852Q649 834 643 815T624 781T595 755T555 745Q536 745 522 752T499 770T486 796T481 825Q481 856 498 879Q502 866 511 862Q515 860 520 860Q543 860 543 879Q543 887 537 894T514
901Q509 901 496 898T469 881T445 839T434 762Q434 728 444 707T467 675T496 659T522 655Q531 655 545 658T574 671T599 696T614 737Q627 719 634 694T641 643Q641 607 628 573T590 512T532 469T455 453Q408 453 372 475T310 532T271 613T258 707Q258 760 275 813T322
908T396 977T492 1004Q539 1004 569 989T617 950T642 900T649 852ZM195 727Q195 661 216 603T275 502T363 433T471 408Q529 408 579 433T667 501T726 603T748 727Q748 793 727 851T668 951T580 1019T471 1044Q414 1044 364 1019T276 952T217 851T195 727ZM59 725Q59
810 91 885T180 1016T311 1104T471 1137Q556 1137 631 1105T762 1016T850 885T883 725Q883 639 851 564T762 432T631 342T471 309Q386 309 311 342T180 431T92 563T59 725Z" />
<glyph unicode="&#xaa;" glyph-name="ordfeminine" horiz-adv-x="717" d="M666 750Q654 751 639 752Q626 753 609 753T571 754Q540 754 504 752T430 743L432 848Q409 788 365 757T264 725Q236 725 199 736T127 784T69 889T45 1069Q45 1169 65 1240T116 1358T186
1425T260 1446Q292 1446 318 1438T364 1416T398 1385T422 1352Q420 1372 418 1395T410 1442Q448 1434 487 1432T561 1430Q581 1430 598 1430T629 1432Q644 1433 655 1434Q643 1374 634 1287T625 1102Q625 1012 634 921T666 750ZM418 1094V1196Q418 1211 416 1227T408
1255T389 1276T358 1284Q337 1284 325 1260T306 1204T299 1140T297 1090Q297 1074 298 1050T305 1004T322 966T352 950Q374 950 387 965T407 1002T416 1049T418 1094Z" />
<glyph unicode="&#xab;" glyph-name="guillemotleft" horiz-adv-x="1280" d="M561 154Q510 195 447 236T314 312T174 368T35 395Q43 452 48 511T53 631Q53 682 47 735Q106 760 164 792T279 859T391 931T500 1006L618 670Q577 670 529 662T432 641T337 612T252
580Q289 565 336 549T432 519T529 498T618 489L561 154ZM1176 154Q1125 195 1062 236T929 312T788 368T649 395Q657 452 662 511T668 631Q668 682 662 735Q721 760 779 792T894 859T1006 931T1114 1006L1233 670Q1191 670 1143 662T1047 641T952 612T866 580Q904
565 950 549T1046 519T1144 498T1233 489L1176 154Z" />
<glyph unicode="&#xac;" glyph-name="logicalnot" horiz-adv-x="1229" d="M715 213Q721 235 726 270T736 346T744 431T751 516T757 593T762 651H709Q641 651 550 646T366 634T190 620T55 606Q55 629 56 653T57 700Q57 763 54 835T45 969Q96 962 163 956T298 944T429
935T532 932Q557 932 606 933T716 936T845 940T974 946T1086 953T1161 961Q1153 932 1147 890T1136 795T1129 685T1126 565Q1126 468 1132 376T1153 213H715Z" />
<glyph unicode="&#xad;" glyph-name="uni00AD" horiz-adv-x="928" d="M860 854Q852 809 849 766T846 678Q846 635 849 591T860 504Q822 524 777 536T684 555T589 564T500 567Q391 567 280 557T66 518Q70 530 73 548T77 585T79 622T80 651Q80 702 76 752T66 854Q106
837 158 826T265 808T374 798T473 795Q514 795 566 798T672 807T775 825T860 854Z" />
<glyph unicode="&#xae;" glyph-name="registered" horiz-adv-x="573" d="M39 1219Q39 1270 58 1315T111 1393T189 1446T285 1466Q336 1466 381 1447T459 1394T512 1315T532 1219Q532 1167 513 1122T460 1044T381 991T285 971Q234 971 190 990T112 1043T59 1122T39
1219ZM393 1133Q393 1125 394 1116Q395 1108 396 1100T401 1083Q424 1109 437 1144T451 1221Q451 1261 438 1295T403 1355T350 1396T285 1411Q232 1411 190 1378Q200 1376 207 1377T221 1378Q240 1378 253 1379T287 1380Q307 1380 327 1377T363 1364T389 1339T399
1296Q399 1276 389 1257T352 1223Q367 1217 375 1208T387 1187T391 1162T393 1133ZM119 1221Q119 1179 132 1144T168 1083Q175 1100 179 1124T186 1170Q189 1196 190 1221Q190 1231 190 1248T189 1286T185 1328T176 1364Q150 1338 135 1301T119 1221ZM221 1069Q212
1069 203 1068T184 1067Q229 1028 285 1028Q340 1028 383 1065H371Q351 1065 337 1064T315 1062Q305 1060 299 1059Q301 1071 302 1081T303 1106Q303 1152 296 1170T276 1198V1161Q276 1141 278 1118T287 1063Q285 1065 266 1067T221 1069ZM276 1249Q286 1257 297
1270T309 1298Q309 1306 306 1309T297 1313Q290 1313 286 1307T280 1292T277 1275T276 1262V1249Z" />
<glyph unicode="&#xaf;" glyph-name="overscore" horiz-adv-x="588" d="M588 1561Q582 1529 579 1497T575 1432Q575 1400 578 1368T588 1305Q564 1316 530 1323T458 1333T385 1338T322 1339Q284 1339 243 1339T160 1336T78 1328T0 1313Q4 1322 6 1335T9 1363T10
1390T10 1413Q10 1450 8 1486T0 1561Q72 1544 149 1540T301 1536Q370 1536 445 1539T588 1561Z" />
<glyph unicode="&#xb0;" glyph-name="degree" horiz-adv-x="553" d="M520 1206Q520 1171 510 1130T473 1051T399 990T276 965Q197 965 150 989T77 1049T43 1127T35 1206Q35 1241 44 1283T79 1361T152 1421T276 1446Q354 1446 401 1422T475 1361T511 1283T520 1206ZM367
1212Q367 1225 364 1240T352 1269T327 1291T283 1300Q256 1300 239 1291T213 1269T201 1241T197 1212Q197 1198 199 1183T211 1155T237 1133T283 1124Q308 1124 324 1133T350 1155T363 1184T367 1212Z" />
<glyph unicode="&#xb1;" glyph-name="plusminus" horiz-adv-x="924" d="M637 1077Q608 1017 595 943T578 797Q615 800 654 804T731 816T802 832T860 854Q852 809 849 766T846 678Q846 635 849 591T860 504Q831 519 797 530T727 548T654 559T580 565Q585 493 595
421T625 281Q613 285 595 288T557 292T519 294T489 295Q438 295 389 291T289 281Q300 308 309 341T324 411T336 486T344 561Q273 556 203 547T66 518Q70 530 73 548T77 585T79 622T80 651Q80 702 76 752T66 854Q121 831 195 818T344 799Q342 836 338 874T327 948T311
1018T289 1077Q332 1068 376 1065T463 1061Q508 1061 551 1064T637 1077ZM858 199Q850 154 847 111T844 23Q844 -21 847 -64T858 -152Q820 -132 775 -120T682 -100T587 -91T498 -88Q389 -88 278 -98T63 -137Q68 -125 71 -108T75 -71T77 -34T78 -4Q78 47 74 97T63
199Q104 182 156 171T263 152T372 142T471 139Q512 139 564 142T670 152T773 170T858 199Z" />
<glyph unicode="&#xb2;" glyph-name="twosuperior" horiz-adv-x="705" d="M53 725Q53 794 68 844T107 931T163 994T227 1041T291 1080T346 1120T386 1169T401 1235Q401 1244 398 1255T388 1275T370 1290T340 1296Q309 1296 295 1278T281 1243Q281 1228 293 1216T322
1204Q327 1204 331 1204T342 1206Q323 1174 282 1157T195 1139Q165 1139 139 1146T93 1169T62 1208T51 1262Q51 1303 68 1342T121 1411T208 1460T332 1479Q413 1479 473 1458T572 1400T631 1312T651 1202Q651 1147 631 1111T579 1051T507 1009T427 974T350 934T289
877Q400 885 486 915T631 993Q626 967 625 941T623 889Q623 847 627 806T643 725Q574 734 500 738T350 743Q275 743 200 739T53 725Z" />
<glyph unicode="&#xb3;" glyph-name="threesuperior" horiz-adv-x="696" d="M512 1083Q537 1076 561 1066T605 1037T635 991T647 924Q647 876 628 835T569 763T469 715T328 698Q257 698 205 716T117 765T65 835T47 915Q47 946 58 968T88 1006T134 1028T190 1036Q237
1036 278 1019T338 969Q332 971 327 972T317 973Q302 973 289 961T276 932Q276 915 290 898T336 881Q354 881 365 887T384 902T394 921T397 940Q397 977 381 1001T343 1040T295 1065T252 1083Q286 1092 313 1102T359 1129T387 1170T397 1231Q397 1240 394 1250T384
1270T366 1286T336 1292Q305 1292 291 1274T276 1239Q276 1224 289 1212T317 1200Q322 1200 327 1200T338 1202Q319 1170 278 1153T190 1135Q160 1135 134 1142T89 1165T58 1204T47 1257Q47 1299 64 1338T117 1407T204 1456T328 1475Q409 1475 469 1455T568 1403T627
1328T647 1241Q647 1209 635 1182T604 1135T560 1101T512 1083Z" />
<glyph unicode="&#xb4;" glyph-name="acute" horiz-adv-x="530" d="M199 1257L0 1346Q61 1434 114 1515Q136 1549 159 1585T203 1654T241 1718T268 1769Q299 1746 343 1719T430 1669Q478 1642 530 1614L199 1257Z" />
<glyph unicode="&#xb5;" glyph-name="mu" horiz-adv-x="1026" d="M545 -528Q527 -527 504 -525Q484 -524 457 -523T395 -522Q330 -522 246 -527T61 -549Q80 -511 93 -453T114 -330T127 -197T134 -74T136 21T137 70Q126 150 124 225T121 375Q121 418 122 460T123
547Q123 611 121 677T113 815T94 963T61 1126Q142 1112 213 1107T344 1102Q383 1102 414 1103T469 1107Q495 1109 516 1112Q496 1014 478 890T459 604Q459 567 462 527T475 454T499 399T539 377Q570 377 587 397T612 449T621 522T623 602Q621 732 615 845Q612 893
608 942T597 1034T583 1112T565 1167Q646 1153 715 1148T838 1143Q874 1143 902 1144T951 1148Q975 1150 993 1153Q984 1108 977 1048T964 919T955 774T952 623Q952 598 953 574T954 526Q954 477 949 415T927 289T881 162T805 52T689 -25T528 -55Q516 -55 504 -54T481
-53Q486 -177 500 -298T545 -528Z" />
<glyph unicode="&#xb6;" glyph-name="paragraph" horiz-adv-x="1624" d="M1567 -78Q1549 -77 1526 -75Q1506 -74 1479 -73T1417 -72Q1352 -72 1267 -77T1083 -98Q1101 -62 1113 6T1134 159T1148 335T1155 508T1158 653T1159 743Q1159 742 1159 756T1159 803T1157
893T1151 1034Q1150 1047 1148 1065T1139 1101T1118 1131T1081 1143Q1060 1143 1047 1132T1027 1103T1018 1068T1014 1034Q1009 956 1008 874T1006 709Q1006 596 1009 488T1019 284T1035 111T1055 -16Q1037 -14 1013 -12Q993 -10 964 -9T899 -8Q843 -8 774 -12T625
-31Q638 -4 647 48T663 167T674 306T680 449Q663 417 640 386T586 330T517 290T432 274Q390 274 345 288T256 335T173 418T104 541T57 707T39 922Q39 1059 64 1154T129 1311T220 1408T319 1459T412 1479T483 1483Q533 1483 584 1481T695 1474T831 1465T1007 1456T1236
1449T1532 1446Q1523 1401 1515 1332T1502 1177T1494 992T1491 788Q1491 668 1495 546T1508 310T1531 97T1567 -78ZM662 963Q662 994 658 1035T643 1113T609 1175T551 1200Q519 1200 501 1174T473 1111T462 1035T459 969Q459 950 460 919T464 852T474 778T492 711T520
662T561 643Q595 643 615 657T645 695T659 746T662 801V963Z" />
<glyph unicode="&#xb7;" glyph-name="middot" horiz-adv-x="496" d="M37 754Q37 797 53 835T98 903T165 948T248 965Q292 965 330 949T397 903T442 836T459 754Q459 710 443 672T398 605T331 560T248 543Q204 543 166 559T99 604T54 671T37 754Z" />
<glyph unicode="&#xb8;" glyph-name="cedilla" horiz-adv-x="332" d="M332 -258Q332 -327 300 -365T219 -421T112 -442T0 -446Q5 -425 7 -403T10 -356Q10 -338 8 -318T0 -281Q6 -287 19 -292T48 -300T77 -305T100 -307Q128 -307 150 -295T172 -250Q172 -234 164
-223T143 -204T115 -194T86 -190Q69 -190 51 -192T16 -201L121 86H217L168 -94Q205 -94 235 -106T286 -140T320 -192T332 -258Z" />
<glyph unicode="&#xb9;" glyph-name="onesuperior" horiz-adv-x="487" d="M442 715Q430 716 416 717Q403 718 386 718T346 719Q301 719 243 716T115 702Q127 725 135 759T150 833T159 913T163 988T165 1048T166 1083Q166 1084 166 1095T166 1123T164 1164T162
1212Q132 1218 102 1222T47 1230Q18 1234 -8 1235Q30 1268 54 1298T93 1354T115 1403T127 1442Q183 1433 229 1430T313 1427Q363 1427 390 1430Q406 1432 418 1434Q405 1377 398 1298T391 1128Q391 1025 403 917T442 715Z" />
<glyph unicode="&#xba;" glyph-name="ordmasculine" horiz-adv-x="653" d="M614 1087Q614 1052 609 1011T591 927T557 845T503 775T427 726T324 707Q264 707 220 724T145 770T93 838T60 917T44 1002T39 1083Q39 1151 57 1216T112 1332T205 1414T336 1446Q411 1446
464 1413T550 1327T599 1212T614 1087ZM406 1067Q406 1088 404 1123T393 1191T370 1249T330 1274Q305 1274 290 1251T265 1195T253 1130T250 1075Q250 1055 253 1027T264 973T287 929T326 911Q349 911 364 927T389 968T402 1019T406 1067Z" />
<glyph unicode="&#xbb;" glyph-name="guillemotright" horiz-adv-x="1280" d="M1245 395Q1177 391 1106 369T965 312T833 237T719 154L662 489Q702 489 749 497T846 519T943 548T1028 580Q990 596 944 612T848 641T751 662T662 670L780 1006Q832 969 887 932T999
859T1114 792T1233 735Q1227 682 1227 629Q1227 570 1232 511T1245 395ZM631 395Q563 391 492 369T351 312T219 237T104 154L47 489Q87 489 135 497T232 519T328 548T414 580Q375 596 329 612T234 641T137 662T47 670L166 1006Q218 969 273 932T384 859T499 792T618
735Q612 682 612 629Q612 570 617 511T631 395Z" />
<glyph unicode="&#xbc;" glyph-name="onequarter" horiz-adv-x="1323" d="M479 715Q468 716 453 717Q440 718 423 718T383 719Q338 719 280 716T152 702Q164 725 172 759T187 833T196 913T200 988T202 1048T203 1083Q203 1084 203 1095T203 1123T201 1164T199
1212Q169 1218 139 1222T84 1230Q55 1234 29 1235Q67 1268 91 1298T130 1354T152 1403T164 1442Q220 1433 266 1430T350 1427Q400 1427 427 1430Q443 1432 455 1434Q442 1377 435 1298T428 1128Q428 1025 439 917T479 715ZM1118 1444Q1072 1368 1015 1264T894 1039T763
783T630 512T506 244T397 -8Q380 -4 352 -2T293 1T232 3T180 4H143Q195 85 261 200T398 449T540 724T675 999T787 1247T864 1444Q873 1442 886 1441T913 1439T940 1438T963 1438Q974 1438 995 1438T1039 1439T1084 1441T1118 1444ZM1274 375Q1269 352 1268 330T1266
287Q1266 265 1267 243T1274 199Q1261 205 1247 209T1219 217Q1225 160 1234 106T1260 2Q1249 3 1235 4Q1222 5 1204 5T1163 6Q1118 6 1060 3T932 -10Q942 8 949 35T963 94T973 160T979 227Q967 227 930 227T840 227T725 220T602 203Q633 251 666 307T729 428T781
565T813 719Q919 710 1025 711T1237 721Q1223 664 1216 586T1208 416V356Q1227 359 1243 364T1274 375ZM983 342Q983 355 983 376T983 425T981 483T977 547Q952 503 932 455T893 344Q919 342 942 342T983 342Z" />
<glyph unicode="&#xbd;" glyph-name="onehalf" horiz-adv-x="1382" d="M479 715Q468 716 453 717Q440 718 423 718T383 719Q338 719 280 716T152 702Q164 725 172 759T187 833T196 913T200 988T202 1048T203 1083Q203 1084 203 1095T203 1123T201 1164T199 1212Q169
1218 139 1222T84 1230Q55 1234 29 1235Q67 1268 91 1298T130 1354T152 1403T164 1442Q220 1433 266 1430T350 1427Q400 1427 427 1430Q443 1432 455 1434Q442 1377 435 1298T428 1128Q428 1025 439 917T479 715ZM737 -10Q737 82 763 141T827 240T911 306T994 358T1059
416T1085 500Q1085 509 1082 519T1072 539T1054 555T1024 561Q1009 561 998 556T979 543T969 526T965 508Q965 492 977 481T1006 469Q1011 469 1015 469T1026 471Q1007 439 966 421T879 403Q849 403 823 410T777 433T746 472T735 526Q735 568 752 607T805 676T892
724T1016 743Q1097 743 1157 722T1256 664T1315 577T1335 467Q1335 412 1315 376T1263 316T1191 274T1111 239T1034 199T973 141Q1084 149 1170 179T1315 258Q1310 232 1309 206T1307 154Q1307 112 1311 71T1327 -10Q1258 -1 1184 3T1034 8Q959 8 884 4T737 -10ZM1118
1444Q1072 1368 1015 1264T894 1039T763 783T630 512T506 244T397 -8Q380 -4 352 -2T293 1T232 3T180 4H143Q195 85 261 200T398 449T540 724T675 999T787 1247T864 1444Q873 1442 886 1441T913 1439T940 1438T963 1438Q974 1438 995 1438T1039 1439T1084 1441T1118
1444Z" />
<glyph unicode="&#xbe;" glyph-name="threequarters" horiz-adv-x="1401" d="M1208 1444Q1162 1368 1105 1264T984 1039T853 783T720 512T596 244T487 -8Q470 -4 442 -2T383 1T322 3T270 4H233Q285 85 351 200T488 449T630 724T765 999T877 1247T954 1444Q963
1442 976 1441T1003 1439T1030 1438T1053 1438Q1064 1438 1085 1438T1129 1439T1174 1441T1208 1444ZM1364 375Q1359 352 1358 330T1356 287Q1356 265 1357 243T1364 199Q1352 205 1338 209T1309 217Q1315 160 1324 106T1350 2Q1339 3 1325 4Q1312 5 1294 5T1253
6Q1208 6 1150 3T1022 -10Q1032 8 1040 35T1053 94T1063 160T1069 227Q1057 227 1020 227T930 227T815 220T692 203Q723 251 757 307T820 428T871 565T903 719Q1009 710 1115 711T1327 721Q1313 664 1306 586T1298 416V356Q1317 359 1333 364T1364 375ZM1073 342Q1073
355 1073 376T1073 425T1071 483T1067 547Q1042 503 1022 455T983 344Q1009 342 1032 342T1073 342ZM502 1083Q527 1076 551 1066T595 1037T625 991T637 924Q637 876 618 835T559 763T459 715T317 698Q246 698 194 716T107 765T55 835T37 915Q37 946 48 968T78
1006T124 1028T180 1036Q227 1036 268 1019T328 969Q321 971 317 972T307 973Q292 973 279 961T266 932Q266 915 280 898T326 881Q344 881 355 887T374 902T384 921T387 940Q387 977 371 1001T333 1040T285 1065T242 1083Q276 1092 303 1102T349 1129T377 1170T387
1231Q387 1240 384 1250T374 1270T356 1286T326 1292Q295 1292 281 1274T266 1239Q266 1224 279 1212T307 1200Q312 1200 316 1200T328 1202Q309 1170 268 1153T180 1135Q150 1135 124 1142T79 1165T48 1204T37 1257Q37 1299 54 1338T106 1407T193 1456T317 1475Q399
1475 459 1455T558 1403T617 1328T637 1241Q637 1209 625 1182T594 1135T550 1101T502 1083Z" />
<glyph unicode="&#xbf;" glyph-name="questiondown" horiz-adv-x="1108" d="M37 78Q42 155 70 209T136 304T218 378T300 444T365 517T397 610Q445 599 493 594T590 588Q619 588 648 590T707 598Q707 529 692 481T654 396T605 327T555 258T517 174T502 57Q502 -14
524 -57T575 -124T635 -154T684 -162Q722 -162 742 -143T762 -104Q762 -81 748 -63T698 -45Q683 -46 671 -52Q660 -57 650 -68T633 -100Q611 -71 600 -32T588 49Q588 91 600 130T638 200T704 249T801 268Q869 268 921 238T1007 162T1059 61T1077 -43Q1077 -111
1052 -184T970 -319T824 -421T606 -461Q535 -461 466 -449T333 -413T215 -349T120 -256T58 -131T35 27Q35 39 35 52T37 78ZM774 874Q774 830 758 792T713 726T646 681T563 664Q519 664 481 680T414 725T369 792T352 874Q352 918 368 956T413 1023T480 1068T563
1085Q607 1085 645 1069T712 1024T757 957T774 874Z" />
<glyph unicode="&#xc0;" glyph-name="Agrave" horiz-adv-x="1171" d="M1217 -12Q1155 -4 1098 -1T981 2Q822 2 655 -29Q661 -5 668 13T682 54T692 107T696 184Q696 232 689 275T668 352T634 406T586 426Q556 426 536 408T503 359T485 288T479 203Q479 158 484
126T497 69T512 27T522 -10Q453 -2 387 2T254 6Q188 6 122 2T-16 -10Q46 170 92 347T172 703T225 1065T256 1440Q330 1430 418 1426T600 1421Q679 1421 753 1425T891 1442Q898 1251 927 1066T999 700T1099 341T1217 -12ZM657 764Q655 783 645 820Q636 852 618 904T565
1040Q557 988 547 948T528 875T513 815T506 764Q506 714 529 687T582 659Q613 659 634 689T657 764ZM498 1495L166 1852Q217 1880 266 1907Q308 1930 353 1957T430 2007Q439 1986 455 1956T492 1893T536 1823T582 1753Q635 1672 696 1584L498 1495Z" />
<glyph unicode="&#xc1;" glyph-name="Aacute" horiz-adv-x="1171" d="M1217 -12Q1155 -4 1098 -1T981 2Q822 2 655 -29Q661 -5 668 13T682 54T692 107T696 184Q696 232 689 275T668 352T634 406T586 426Q556 426 536 408T503 359T485 288T479 203Q479 158 484
126T497 69T512 27T522 -10Q453 -2 387 2T254 6Q188 6 122 2T-16 -10Q46 170 92 347T172 703T225 1065T256 1440Q330 1430 418 1426T600 1421Q679 1421 753 1425T891 1442Q898 1251 927 1066T999 700T1099 341T1217 -12ZM657 764Q655 783 645 820Q636 852 618 904T565
1040Q557 988 547 948T528 875T513 815T506 764Q506 714 529 687T582 659Q613 659 634 689T657 764ZM668 1486L469 1575Q530 1663 583 1744Q605 1778 628 1814T672 1883T710 1947T737 1998Q768 1975 812 1948T899 1898Q947 1871 999 1843L668 1486Z" />
<glyph unicode="&#xc2;" glyph-name="Acircumflex" horiz-adv-x="1171" d="M1217 -12Q1155 -4 1098 -1T981 2Q822 2 655 -29Q661 -5 668 13T682 54T692 107T696 184Q696 232 689 275T668 352T634 406T586 426Q556 426 536 408T503 359T485 288T479 203Q479 158
484 126T497 69T512 27T522 -10Q453 -2 387 2T254 6Q188 6 122 2T-16 -10Q46 170 92 347T172 703T225 1065T256 1440Q330 1430 418 1426T600 1421Q679 1421 753 1425T891 1442Q898 1251 927 1066T999 700T1099 341T1217 -12ZM657 764Q655 783 645 820Q636 852 618
904T565 1040Q557 988 547 948T528 875T513 815T506 764Q506 714 529 687T582 659Q613 659 634 689T657 764ZM942 1596Q870 1574 795 1549T653 1489Q655 1505 656 1520T657 1550Q657 1612 637 1672T586 1786Q566 1756 553 1719T533 1641T522 1562T518 1489Q455
1518 390 1544T258 1591Q291 1622 322 1663T380 1750T430 1842T469 1931Q501 1928 533 1926T600 1923Q626 1923 654 1924T709 1931Q724 1886 748 1839T804 1748T870 1665T942 1596Z" />
<glyph unicode="&#xc3;" glyph-name="Atilde" horiz-adv-x="1171" d="M1217 -12Q1155 -4 1098 -1T981 2Q822 2 655 -29Q661 -5 668 13T682 54T692 107T696 184Q696 232 689 275T668 352T634 406T586 426Q556 426 536 408T503 359T485 288T479 203Q479 158 484
126T497 69T512 27T522 -10Q453 -2 387 2T254 6Q188 6 122 2T-16 -10Q46 170 92 347T172 703T225 1065T256 1440Q330 1430 418 1426T600 1421Q679 1421 753 1425T891 1442Q898 1251 927 1066T999 700T1099 341T1217 -12ZM657 764Q655 783 645 820Q636 852 618 904T565
1040Q557 988 547 948T528 875T513 815T506 764Q506 714 529 687T582 659Q613 659 634 689T657 764ZM949 1672Q922 1639 898 1612T846 1566T787 1537T713 1526Q678 1526 654 1538T608 1566T563 1593T506 1606Q474 1606 450 1595T408 1564T379 1520T361 1469Q332
1528 291 1577T193 1651Q230 1691 259 1721T319 1770T382 1799T459 1809Q490 1809 515 1797T564 1771T608 1745T652 1733Q674 1733 692 1744T724 1772T746 1809T758 1850Q774 1829 797 1803T845 1752T898 1705T949 1672Z" />
<glyph unicode="&#xc4;" glyph-name="Adieresis" horiz-adv-x="1171" d="M1217 -12Q1155 -4 1098 -1T981 2Q822 2 655 -29Q661 -5 668 13T682 54T692 107T696 184Q696 232 689 275T668 352T634 406T586 426Q556 426 536 408T503 359T485 288T479 203Q479 158 484
126T497 69T512 27T522 -10Q453 -2 387 2T254 6Q188 6 122 2T-16 -10Q46 170 92 347T172 703T225 1065T256 1440Q330 1430 418 1426T600 1421Q679 1421 753 1425T891 1442Q898 1251 927 1066T999 700T1099 341T1217 -12ZM657 764Q655 783 645 820Q636 852 618 904T565
1040Q557 988 547 948T528 875T513 815T506 764Q506 714 529 687T582 659Q613 659 634 689T657 764ZM236 1675Q236 1709 249 1738T284 1790T336 1826T400 1839Q434 1839 463 1826T515 1791T551 1739T564 1675Q564 1641 551 1612T516 1560T464 1524T400 1511Q366
1511 337 1524T285 1559T249 1611T236 1675ZM637 1675Q637 1709 650 1738T685 1790T737 1826T801 1839Q835 1839 864 1826T916 1791T952 1739T965 1675Q965 1641 952 1612T917 1560T865 1524T801 1511Q767 1511 738 1524T686 1559T650 1611T637 1675Z" />
<glyph unicode="&#xc5;" glyph-name="Aring" horiz-adv-x="1171" d="M817 1534Q817 1511 814 1484T799 1430Q848 1433 891 1442Q898 1251 927 1066T999 700T1099 341T1217 -12Q1155 -4 1098 -1T981 2Q822 2 655 -29Q661 -5 668 13T682 54T692 107T696 184Q696
232 689 275T668 352T634 406T586 426Q556 426 536 408T503 359T485 288T479 203Q479 158 484 126T497 69T512 27T522 -10Q453 -2 387 2T254 6Q188 6 122 2T-16 -10Q46 170 92 347T172 703T225 1065T256 1440Q276 1437 298 1435T346 1430Q337 1456 335 1482T332
1534Q332 1569 341 1611T376 1689T449 1749T573 1774Q651 1774 698 1750T772 1689T808 1611T817 1534ZM657 764Q655 783 645 820Q636 852 618 904T565 1040Q557 988 547 948T528 875T513 815T506 764Q506 714 529 687T582 659Q613 659 634 689T657 764ZM664 1540Q664
1553 661 1568T649 1597T624 1619T580 1628Q553 1628 536 1619T510 1597T498 1569T494 1540Q494 1526 496 1511T508 1482T534 1461T580 1452Q605 1452 621 1461T647 1483T660 1511T664 1540Z" />
<glyph unicode="&#xc6;" glyph-name="AE" horiz-adv-x="1610" d="M659 659Q676 659 693 669T723 696T745 734T754 778Q754 789 753 809T747 860T733 936T709 1040Q690 980 671 936T636 857T610 792T600 735Q600 698 617 679T659 659ZM1573 -14Q1550 -11 1505 -8T1399
-3T1266 0T1116 2Q1045 2 975 1T838 -5T715 -14T612 -29Q628 -16 644 17T672 93T692 185T700 279Q700 309 696 336T683 383T659 414T623 426Q588 426 560 399T511 327T480 228T469 119Q469 96 471 78T476 44T481 16T483 -10Q415 -2 349 2T217 6Q151 6 85 2T-53
-10Q40 170 117 347T258 703T374 1065T469 1440Q580 1434 684 1430T891 1425Q1050 1425 1208 1434T1540 1464V995Q1482 1049 1429 1078T1335 1121Q1287 1137 1245 1139Q1195 1139 1164 1127T1116 1095T1092 1051T1085 1001Q1085 975 1092 949T1116 902T1158 868T1219
854Q1246 854 1268 866T1308 894T1336 923T1350 940V535Q1334 573 1313 595T1271 627T1233 640T1210 643Q1177 643 1153 631T1114 598T1091 552T1083 498Q1083 467 1091 438T1116 385T1155 347T1210 332Q1251 332 1296 350T1385 398T1463 466T1520 545L1573 -14Z"
/>
<glyph unicode="&#xc7;" glyph-name="Ccedilla" horiz-adv-x="1157" d="M750 -258Q750 -327 718 -365T637 -421T530 -442T418 -446Q423 -425 425 -403T428 -356Q428 -338 426 -318T418 -281Q424 -287 437 -292T466 -300T495 -305T518 -307Q546 -307 568 -295T590
-250Q590 -234 582 -223T561 -204T533 -194T504 -190Q487 -190 469 -192T434 -201L492 -43Q383 -22 299 44T157 206T69 419T39 657Q39 754 60 853T120 1044T216 1216T345 1355T503 1449T686 1483Q774 1483 841 1463T956 1408T1038 1329T1090 1238T1118 1145T1126
1059Q1126 1010 1109 958T1059 862T978 792T866 764Q812 764 774 782T711 832T674 902T662 983Q662 1025 672 1064T705 1135Q711 1114 721 1103T742 1086Q754 1080 768 1079Q800 1079 813 1096T827 1135Q827 1145 823 1155T811 1175T788 1190T754 1196Q743 1196
723 1193T677 1178T626 1140T579 1072T544 965T530 809Q530 746 542 700T575 620T621 566T674 533T726 517T772 512Q798 512 837 521T916 556T986 625T1030 739Q1065 690 1083 622T1102 479Q1102 373 1068 281T968 119T809 4T598 -49L586 -94Q623 -94 653 -106T704
-140T738 -192T750 -258Z" />
<glyph unicode="&#xc8;" glyph-name="Egrave" horiz-adv-x="1030" d="M993 -14Q941 -4 887 1T772 10T643 13T494 14Q456 14 404 13T291 8T166 -3T41 -23Q63 22 79 90T105 236T122 393T131 542T134 661T135 731Q135 735 135 762T133 832T130 930T125 1046T116 1167T103
1282T86 1380T63 1450Q161 1436 256 1430T440 1423Q549 1423 644 1429T810 1443Q893 1452 961 1464V995Q903 1049 850 1078T756 1121Q708 1137 666 1139Q616 1139 585 1127T536 1095T512 1051T506 1001Q506 975 513 949T537 902T578 868T639 854Q668 854 692 867T733
898Q753 917 770 942V535Q754 573 733 595T691 627T654 640T631 643Q566 643 534 603T502 500Q502 454 512 422T540 370T581 341T631 332Q671 332 717 350T805 398T883 466T940 545L993 -14ZM434 1490L102 1847Q153 1875 202 1902Q244 1925 289 1952T366 2002Q375
1981 391 1951T428 1888T472 1818T518 1748Q571 1667 632 1579L434 1490Z" />
<glyph unicode="&#xc9;" glyph-name="Eacute" horiz-adv-x="1030" d="M993 -14Q941 -4 887 1T772 10T643 13T494 14Q456 14 404 13T291 8T166 -3T41 -23Q63 22 79 90T105 236T122 393T131 542T134 661T135 731Q135 735 135 762T133 832T130 930T125 1046T116 1167T103
1282T86 1380T63 1450Q161 1436 256 1430T440 1423Q549 1423 644 1429T810 1443Q893 1452 961 1464V995Q903 1049 850 1078T756 1121Q708 1137 666 1139Q616 1139 585 1127T536 1095T512 1051T506 1001Q506 975 513 949T537 902T578 868T639 854Q668 854 692 867T733
898Q753 917 770 942V535Q754 573 733 595T691 627T654 640T631 643Q566 643 534 603T502 500Q502 454 512 422T540 370T581 341T631 332Q671 332 717 350T805 398T883 466T940 545L993 -14ZM621 1486L422 1575Q483 1663 536 1744Q558 1778 581 1814T625 1883T663
1947T690 1998Q721 1975 765 1948T852 1898Q900 1871 952 1843L621 1486Z" />
<glyph unicode="&#xca;" glyph-name="Ecircumflex" horiz-adv-x="1030" d="M993 -14Q941 -4 887 1T772 10T643 13T494 14Q456 14 404 13T291 8T166 -3T41 -23Q63 22 79 90T105 236T122 393T131 542T134 661T135 731Q135 735 135 762T133 832T130 930T125 1046T116
1167T103 1282T86 1380T63 1450Q161 1436 256 1430T440 1423Q549 1423 644 1429T810 1443Q893 1452 961 1464V995Q903 1049 850 1078T756 1121Q708 1137 666 1139Q616 1139 585 1127T536 1095T512 1051T506 1001Q506 975 513 949T537 902T578 868T639 854Q668 854
692 867T733 898Q753 917 770 942V535Q754 573 733 595T691 627T654 640T631 643Q566 643 534 603T502 500Q502 454 512 422T540 370T581 341T631 332Q671 332 717 350T805 398T883 466T940 545L993 -14ZM858 1592Q786 1570 711 1545T569 1485Q571 1501 572 1516T573
1546Q573 1608 553 1668T502 1782Q482 1752 469 1715T449 1637T438 1558T434 1485Q371 1514 306 1540T174 1587Q207 1618 238 1659T296 1746T346 1838T385 1927Q417 1924 449 1922T516 1919Q542 1919 570 1920T625 1927Q640 1882 664 1835T720 1744T786 1661T858
1592Z" />
<glyph unicode="&#xcb;" glyph-name="Edieresis" horiz-adv-x="1030" d="M993 -14Q941 -4 887 1T772 10T643 13T494 14Q456 14 404 13T291 8T166 -3T41 -23Q63 22 79 90T105 236T122 393T131 542T134 661T135 731Q135 735 135 762T133 832T130 930T125 1046T116
1167T103 1282T86 1380T63 1450Q161 1436 256 1430T440 1423Q549 1423 644 1429T810 1443Q893 1452 961 1464V995Q903 1049 850 1078T756 1121Q708 1137 666 1139Q616 1139 585 1127T536 1095T512 1051T506 1001Q506 975 513 949T537 902T578 868T639 854Q668 854
692 867T733 898Q753 917 770 942V535Q754 573 733 595T691 627T654 640T631 643Q566 643 534 603T502 500Q502 454 512 422T540 370T581 341T631 332Q671 332 717 350T805 398T883 466T940 545L993 -14ZM152 1681Q152 1715 165 1744T200 1796T252 1832T316 1845Q350
1845 379 1832T431 1797T467 1745T480 1681Q480 1647 467 1618T432 1566T380 1530T316 1517Q282 1517 253 1530T201 1565T165 1617T152 1681ZM553 1681Q553 1715 566 1744T601 1796T653 1832T717 1845Q751 1845 780 1832T832 1797T868 1745T881 1681Q881 1647 868
1618T833 1566T781 1530T717 1517Q683 1517 654 1530T602 1565T566 1617T553 1681Z" />
<glyph unicode="&#xcc;" glyph-name="Igrave" horiz-adv-x="672" d="M633 6Q612 8 586 10Q563 12 531 13T457 14Q376 14 269 7T37 -20Q59 25 75 94T101 241T118 401T127 552T130 673T131 743Q131 747 131 774T129 844T126 942T121 1058T112 1179T99 1294T82 1391T59
1460Q160 1442 244 1436T397 1430Q442 1430 478 1432T539 1436Q568 1439 590 1442Q578 1386 569 1318T553 1172T543 1009T539 834Q539 730 544 623T560 409T589 201T633 6ZM229 1519L-103 1876Q-52 1904 -3 1931Q39 1954 84 1981T161 2031Q170 2010 186 1980T223
1917T267 1847T313 1777Q366 1696 427 1608L229 1519Z" />
<glyph unicode="&#xcd;" glyph-name="Iacute" horiz-adv-x="672" d="M633 6Q612 8 586 10Q563 12 531 13T457 14Q376 14 269 7T37 -20Q59 25 75 94T101 241T118 401T127 552T130 673T131 743Q131 747 131 774T129 844T126 942T121 1058T112 1179T99 1294T82 1391T59
1460Q160 1442 244 1436T397 1430Q442 1430 478 1432T539 1436Q568 1439 590 1442Q578 1386 569 1318T553 1172T543 1009T539 834Q539 730 544 623T560 409T589 201T633 6ZM441 1495L242 1584Q303 1672 356 1753Q378 1787 401 1823T445 1892T483 1956T510 2007Q541
1984 585 1957T672 1907Q720 1880 772 1852L441 1495Z" />
<glyph unicode="&#xce;" glyph-name="Icircumflex" horiz-adv-x="672" d="M633 6Q612 8 586 10Q563 12 531 13T457 14Q376 14 269 7T37 -20Q59 25 75 94T101 241T118 401T127 552T130 673T131 743Q131 747 131 774T129 844T126 942T121 1058T112 1179T99 1294T82
1391T59 1460Q160 1442 244 1436T397 1430Q442 1430 478 1432T539 1436Q568 1439 590 1442Q578 1386 569 1318T553 1172T543 1009T539 834Q539 730 544 623T560 409T589 201T633 6ZM679 1620Q607 1598 532 1573T390 1513Q392 1529 393 1544T394 1574Q394 1636 374
1696T323 1810Q303 1780 290 1743T270 1665T259 1586T255 1513Q192 1542 127 1568T-5 1615Q28 1646 59 1687T117 1774T167 1866T206 1955Q238 1952 270 1950T337 1947Q363 1947 391 1948T446 1955Q461 1910 485 1863T541 1772T607 1689T679 1620Z" />
<glyph unicode="&#xcf;" glyph-name="Idieresis" horiz-adv-x="672" d="M633 6Q612 8 586 10Q563 12 531 13T457 14Q376 14 269 7T37 -20Q59 25 75 94T101 241T118 401T127 552T130 673T131 743Q131 747 131 774T129 844T126 942T121 1058T112 1179T99 1294T82
1391T59 1460Q160 1442 244 1436T397 1430Q442 1430 478 1432T539 1436Q568 1439 590 1442Q578 1386 569 1318T553 1172T543 1009T539 834Q539 730 544 623T560 409T589 201T633 6ZM-28 1686Q-28 1720 -15 1749T20 1801T72 1837T136 1850Q170 1850 199 1837T251
1802T287 1750T300 1686Q300 1652 287 1623T252 1571T200 1535T136 1522Q102 1522 73 1535T21 1570T-15 1622T-28 1686ZM373 1686Q373 1720 386 1749T421 1801T473 1837T537 1850Q571 1850 600 1837T652 1802T688 1750T701 1686Q701 1652 688 1623T653 1571T601
1535T537 1522Q503 1522 474 1535T422 1570T386 1622T373 1686Z" />
<glyph unicode="&#xd0;" glyph-name="Eth" horiz-adv-x="1290" d="M1245 709Q1245 546 1209 429T1114 231T980 100T828 23T676 -14T545 -23Q498 -23 426 -17T266 -10Q215 -10 154 -12T23 -20Q56 40 79 118T118 278T143 442T158 592Q127 586 95 578T23 559Q27 571
30 589T34 626T36 663T37 692Q37 743 33 793T23 895Q60 879 95 868T164 850Q163 887 161 939T153 1051T140 1173T119 1291T89 1392T49 1464Q123 1452 189 1448T307 1444Q352 1444 382 1445T433 1447T470 1450T501 1453T538 1455T590 1456Q658 1456 733 1447T881
1409T1020 1330T1136 1196T1215 994T1245 709ZM662 895Q654 850 651 807T647 719Q647 676 650 632T662 545Q633 560 605 571T551 588Q554 502 561 444T581 350T611 300T649 285Q698 285 727 392T756 731Q756 848 749 926T729 1051T695 1119T649 1139Q611 1139 586
1073T551 858Q580 864 608 873T662 895Z" />
<glyph unicode="&#xd1;" glyph-name="Ntilde" horiz-adv-x="1323" d="M618 6Q599 8 573 10Q551 12 520 13T449 14Q371 14 267 7T37 -20Q59 25 75 94T101 241T118 401T127 552T130 673T131 743Q131 747 131 774T129 844T126 942T121 1058T112 1179T99 1294T82 1391T59
1460Q160 1442 243 1436T391 1430Q435 1430 469 1432T527 1436Q554 1439 575 1442Q618 1230 673 1049T797 713V754Q794 917 786 1058Q782 1118 777 1179T765 1294T748 1391T725 1460Q825 1442 909 1436T1059 1430Q1103 1430 1137 1432T1195 1436Q1222 1439 1243
1442Q1231 1386 1222 1317T1206 1170T1196 1006T1192 829Q1192 726 1197 620T1213 408T1242 201T1284 6Q1266 8 1241 10Q1220 12 1190 13T1122 14Q1050 14 956 7T754 -20Q754 83 738 181T691 375T619 563T526 745Q527 651 533 555T551 365T579 181T618 6ZM1045
1676Q1018 1643 994 1616T942 1570T883 1541T809 1530Q774 1530 750 1542T704 1570T659 1597T602 1610Q570 1610 546 1599T504 1568T475 1524T457 1473Q428 1532 387 1581T289 1655Q326 1695 355 1725T415 1774T478 1803T555 1813Q586 1813 611 1801T660 1775T704
1749T748 1737Q770 1737 788 1748T820 1776T842 1813T854 1854Q870 1833 893 1807T941 1756T994 1709T1045 1676Z" />
<glyph unicode="&#xd2;" glyph-name="Ograve" horiz-adv-x="1206" d="M1163 670Q1163 518 1129 385T1026 152T852 -5T602 -63Q459 -63 354 -6T179 151T75 384T41 670Q41 782 62 886T120 1080T209 1244T323 1370T456 1452T602 1481Q728 1481 831 1420T1008 1249T1122
992T1163 670ZM754 756Q754 831 742 894T710 1004T661 1077T602 1104Q572 1104 545 1073T498 991T465 879T453 756Q453 697 463 647T493 559T539 501T602 479Q636 479 664 500T712 559T743 646T754 756ZM494 1536L162 1893Q213 1921 262 1948Q304 1971 349 1998T426
2048Q435 2027 451 1997T488 1934T532 1864T578 1794Q631 1713 692 1625L494 1536Z" />
<glyph unicode="&#xd3;" glyph-name="Oacute" horiz-adv-x="1206" d="M1163 670Q1163 518 1129 385T1026 152T852 -5T602 -63Q459 -63 354 -6T179 151T75 384T41 670Q41 782 62 886T120 1080T209 1244T323 1370T456 1452T602 1481Q728 1481 831 1420T1008 1249T1122
992T1163 670ZM754 756Q754 831 742 894T710 1004T661 1077T602 1104Q572 1104 545 1073T498 991T465 879T453 756Q453 697 463 647T493 559T539 501T602 479Q636 479 664 500T712 559T743 646T754 756ZM779 1533L580 1622Q641 1710 694 1791Q716 1825 739 1861T783
1930T821 1994T848 2045Q879 2022 923 1995T1010 1945Q1058 1918 1110 1890L779 1533Z" />
<glyph unicode="&#xd4;" glyph-name="Ocircumflex" horiz-adv-x="1206" d="M1163 670Q1163 518 1129 385T1026 152T852 -5T602 -63Q459 -63 354 -6T179 151T75 384T41 670Q41 782 62 886T120 1080T209 1244T323 1370T456 1452T602 1481Q728 1481 831 1420T1008
1249T1122 992T1163 670ZM754 756Q754 831 742 894T710 1004T661 1077T602 1104Q572 1104 545 1073T498 991T465 879T453 756Q453 697 463 647T493 559T539 501T602 479Q636 479 664 500T712 559T743 646T754 756ZM944 1661Q872 1639 797 1614T655 1554Q657 1570
658 1585T659 1615Q659 1677 639 1737T588 1851Q568 1821 555 1784T535 1706T524 1627T520 1554Q457 1583 392 1609T260 1656Q293 1687 324 1728T382 1815T432 1907T471 1996Q503 1993 535 1991T602 1988Q628 1988 656 1989T711 1996Q726 1951 750 1904T806 1813T872
1730T944 1661Z" />
<glyph unicode="&#xd5;" glyph-name="Otilde" horiz-adv-x="1206" d="M1163 670Q1163 518 1129 385T1026 152T852 -5T602 -63Q459 -63 354 -6T179 151T75 384T41 670Q41 782 62 886T120 1080T209 1244T323 1370T456 1452T602 1481Q728 1481 831 1420T1008 1249T1122
992T1163 670ZM754 756Q754 831 742 894T710 1004T661 1077T602 1104Q572 1104 545 1073T498 991T465 879T453 756Q453 697 463 647T493 559T539 501T602 479Q636 479 664 500T712 559T743 646T754 756ZM979 1690Q952 1657 928 1630T876 1584T817 1555T743 1544Q708
1544 684 1556T638 1584T593 1611T536 1624Q504 1624 480 1613T438 1582T409 1538T391 1487Q362 1546 321 1595T223 1669Q260 1709 289 1739T349 1788T412 1817T489 1827Q520 1827 545 1815T594 1789T638 1763T682 1751Q704 1751 722 1762T754 1790T776 1827T788
1868Q804 1847 827 1821T875 1770T928 1723T979 1690Z" />
<glyph unicode="&#xd6;" glyph-name="Odieresis" horiz-adv-x="1206" d="M1163 670Q1163 518 1129 385T1026 152T852 -5T602 -63Q459 -63 354 -6T179 151T75 384T41 670Q41 782 62 886T120 1080T209 1244T323 1370T456 1452T602 1481Q728 1481 831 1420T1008 1249T1122
992T1163 670ZM754 756Q754 831 742 894T710 1004T661 1077T602 1104Q572 1104 545 1073T498 991T465 879T453 756Q453 697 463 647T493 559T539 501T602 479Q636 479 664 500T712 559T743 646T754 756ZM238 1692Q238 1726 251 1755T286 1807T338 1843T402 1856Q436
1856 465 1843T517 1808T553 1756T566 1692Q566 1658 553 1629T518 1577T466 1541T402 1528Q368 1528 339 1541T287 1576T251 1628T238 1692ZM639 1692Q639 1726 652 1755T687 1807T739 1843T803 1856Q837 1856 866 1843T918 1808T954 1756T967 1692Q967 1658 954
1629T919 1577T867 1541T803 1528Q769 1528 740 1541T688 1576T652 1628T639 1692Z" />
<glyph unicode="&#xd7;" glyph-name="multiply" horiz-adv-x="881" d="M844 842Q778 819 717 776T604 686Q629 665 658 641T718 595T781 555T844 524Q772 475 710 413T598 279Q575 347 532 407T440 520Q394 466 351 409T272 289Q261 314 232 347T166 414T95 476T35
524Q66 537 97 555T158 595T216 640T270 684Q218 732 162 773T45 850Q70 862 103 891T170 956T233 1027T281 1087Q294 1057 312 1026T352 965T396 906T440 852Q461 876 484 904T528 963T568 1025T598 1087Q648 1015 710 953T844 842Z" />
<glyph unicode="&#xd8;" glyph-name="Oslash" horiz-adv-x="1206" d="M1128 1540Q1090 1481 1052 1419T977 1290Q1021 1236 1055 1168T1114 1021T1150 854T1163 670Q1163 518 1129 385T1026 152T852 -5T602 -63Q528 -63 464 -47T346 -2L291 -117Q273 -111 250
-107T202 -99T149 -95T96 -94H53Q85 -48 121 7T195 127Q116 229 79 368T41 670Q41 782 62 886T120 1080T209 1244T323 1370T456 1452T602 1481Q664 1481 720 1465T827 1421Q841 1452 855 1482T883 1540Q892 1536 906 1534T935 1531T965 1529T991 1528Q1005 1528
1022 1529T1059 1531T1096 1535T1128 1540ZM453 756Q453 725 455 697T463 643Q515 751 566 859T666 1071Q636 1104 602 1104Q572 1104 545 1073T498 991T465 879T453 756ZM754 756Q754 807 748 854Q703 761 660 669T573 483Q580 480 587 480T602 479Q636 479 664
500T712 559T743 646T754 756Z" />
<glyph unicode="&#xd9;" glyph-name="Ugrave" horiz-adv-x="1200" d="M1167 1442Q1144 1327 1130 1166T1116 821Q1116 795 1116 771T1118 720T1119 666T1120 606Q1120 539 1115 463T1090 312T1036 168T943 46T798 -38T592 -70Q479 -70 398 -45T260 25T168 130T114
259T89 404T82 553Q82 586 82 608T84 649T86 687T88 732T89 795T90 887Q90 954 88 1039T77 1206T55 1357T16 1460Q117 1442 205 1436T369 1430Q417 1430 456 1432T523 1436Q556 1439 580 1442Q567 1380 554 1303T531 1138T515 953T508 756Q508 631 512 553T527
432T553 372T592 356Q623 356 644 375T680 441T701 564T709 754Q707 917 699 1058Q696 1118 691 1179T678 1294T660 1391T637 1460Q737 1442 822 1436T975 1430Q1020 1430 1055 1432T1116 1436Q1145 1439 1167 1442ZM504 1501L172 1858Q223 1886 272 1913Q314 1936
359 1963T436 2013Q445 1992 461 1962T498 1899T542 1829T588 1759Q641 1678 702 1590L504 1501Z" />
<glyph unicode="&#xda;" glyph-name="Uacute" horiz-adv-x="1200" d="M1167 1442Q1144 1327 1130 1166T1116 821Q1116 795 1116 771T1118 720T1119 666T1120 606Q1120 539 1115 463T1090 312T1036 168T943 46T798 -38T592 -70Q479 -70 398 -45T260 25T168 130T114
259T89 404T82 553Q82 586 82 608T84 649T86 687T88 732T89 795T90 887Q90 954 88 1039T77 1206T55 1357T16 1460Q117 1442 205 1436T369 1430Q417 1430 456 1432T523 1436Q556 1439 580 1442Q567 1380 554 1303T531 1138T515 953T508 756Q508 631 512 553T527
432T553 372T592 356Q623 356 644 375T680 441T701 564T709 754Q707 917 699 1058Q696 1118 691 1179T678 1294T660 1391T637 1460Q737 1442 822 1436T975 1430Q1020 1430 1055 1432T1116 1436Q1145 1439 1167 1442ZM723 1519L524 1608Q585 1696 638 1777Q660 1811
683 1847T727 1916T765 1980T792 2031Q823 2008 867 1981T954 1931Q1002 1904 1054 1876L723 1519Z" />
<glyph unicode="&#xdb;" glyph-name="Ucircumflex" horiz-adv-x="1200" d="M1167 1442Q1144 1327 1130 1166T1116 821Q1116 795 1116 771T1118 720T1119 666T1120 606Q1120 539 1115 463T1090 312T1036 168T943 46T798 -38T592 -70Q479 -70 398 -45T260 25T168
130T114 259T89 404T82 553Q82 586 82 608T84 649T86 687T88 732T89 795T90 887Q90 954 88 1039T77 1206T55 1357T16 1460Q117 1442 205 1436T369 1430Q417 1430 456 1432T523 1436Q556 1439 580 1442Q567 1380 554 1303T531 1138T515 953T508 756Q508 631 512
553T527 432T553 372T592 356Q623 356 644 375T680 441T701 564T709 754Q707 917 699 1058Q696 1118 691 1179T678 1294T660 1391T637 1460Q737 1442 822 1436T975 1430Q1020 1430 1055 1432T1116 1436Q1145 1439 1167 1442ZM965 1631Q893 1609 818 1584T676 1524Q678
1540 679 1555T680 1585Q680 1647 660 1707T609 1821Q589 1791 576 1754T556 1676T545 1597T541 1524Q478 1553 413 1579T281 1626Q314 1657 345 1698T403 1785T453 1877T492 1966Q524 1963 556 1961T623 1958Q649 1958 677 1959T732 1966Q747 1921 771 1874T827
1783T893 1700T965 1631Z" />
<glyph unicode="&#xdc;" glyph-name="Udieresis" horiz-adv-x="1200" d="M1167 1442Q1144 1327 1130 1166T1116 821Q1116 795 1116 771T1118 720T1119 666T1120 606Q1120 539 1115 463T1090 312T1036 168T943 46T798 -38T592 -70Q479 -70 398 -45T260 25T168 130T114
259T89 404T82 553Q82 586 82 608T84 649T86 687T88 732T89 795T90 887Q90 954 88 1039T77 1206T55 1357T16 1460Q117 1442 205 1436T369 1430Q417 1430 456 1432T523 1436Q556 1439 580 1442Q567 1380 554 1303T531 1138T515 953T508 756Q508 631 512 553T527
432T553 372T592 356Q623 356 644 375T680 441T701 564T709 754Q707 917 699 1058Q696 1118 691 1179T678 1294T660 1391T637 1460Q737 1442 822 1436T975 1430Q1020 1430 1055 1432T1116 1436Q1145 1439 1167 1442ZM227 1681Q227 1715 240 1744T275 1796T327 1832T391
1845Q425 1845 454 1832T506 1797T542 1745T555 1681Q555 1647 542 1618T507 1566T455 1530T391 1517Q357 1517 328 1530T276 1565T240 1617T227 1681ZM628 1681Q628 1715 641 1744T676 1796T728 1832T792 1845Q826 1845 855 1832T907 1797T943 1745T956 1681Q956
1647 943 1618T908 1566T856 1530T792 1517Q758 1517 729 1530T677 1565T641 1617T628 1681Z" />
<glyph unicode="&#xdd;" glyph-name="Yacute" horiz-adv-x="1141" d="M1118 1419Q1105 1387 1095 1346T1078 1260T1065 1168T1057 1076Q1049 971 1047 860Q1047 811 1048 760T1049 655Q1049 571 1043 486T1017 323T958 177T853 59T689 -20T453 -49Q348 -49 272
-24T146 45T73 146T49 268Q49 316 69 358T122 430T199 478T289 496Q348 496 403 465T500 365Q489 367 479 368T459 369Q387 369 387 307Q387 278 413 260T485 242Q540 242 573 271T625 344T649 440T655 541V584Q636 564 610 553T557 535T505 526T463 524Q403 524
343 540T233 600T151 722T115 926Q115 931 115 964T111 1047T100 1156T79 1272T45 1377T-6 1454Q100 1436 183 1429T330 1421Q379 1421 415 1423T476 1430Q504 1434 524 1440Q519 1399 514 1354T504 1262T497 1168T494 1077Q494 1027 498 984T511 908T536 857T575
838Q603 838 622 868T654 948T671 1060T676 1184Q676 1256 671 1321T657 1427Q675 1420 704 1416Q729 1411 769 1408T870 1405Q918 1405 979 1408T1118 1419ZM682 1474L483 1563Q544 1651 597 1732Q619 1766 642 1802T686 1871T724 1935T751 1986Q782 1963 826
1936T913 1886Q961 1859 1013 1831L682 1474Z" />
<glyph unicode="&#xde;" glyph-name="Thorn" horiz-adv-x="1116" d="M524 485Q549 509 581 544T643 619T691 702T711 784Q711 806 704 824T686 856T659 876T629 883Q601 883 583 864T552 815T534 747T525 673T522 605T522 555Q522 538 522 521T524 485ZM633 6Q612
8 586 10Q563 12 531 13T457 14Q376 14 269 7T37 -20Q59 25 75 94T101 241T118 401T127 552T130 673T131 743Q131 747 131 774T129 844T126 942T121 1058T112 1179T99 1294T82 1391T59 1460Q160 1442 244 1436T397 1430Q442 1430 478 1432T539 1436Q568 1439 590
1442Q581 1395 572 1341T557 1223Q569 1229 586 1231T621 1234T651 1234T668 1233Q709 1233 756 1224T851 1192T942 1130T1020 1031T1074 886T1094 690Q1094 581 1060 489T968 331T836 227T684 190Q659 190 636 194T588 207Q597 154 608 104T633 6Z" />
<glyph unicode="&#xdf;" glyph-name="germandbls" horiz-adv-x="1495" d="M618 821Q618 888 634 938T671 1030T708 1106T725 1180Q725 1203 718 1224T698 1261T670 1288T637 1298Q591 1298 567 1254T533 1131T523 940T522 694Q522 599 524 501T530 309T543 131T565
-23Q453 0 332 0Q269 0 208 -6T86 -23Q109 76 122 190T141 422T151 656T156 874Q124 872 86 869T16 860Q21 904 24 945T27 1030Q27 1068 25 1105T16 1184L168 1176Q168 1280 197 1366T284 1515T423 1612T612 1647Q717 1647 802 1622T948 1548T1042 1431T1075 1274Q1075
1208 1054 1161T1006 1075T958 1003T936 930Q936 885 960 855T1023 803T1112 764T1214 725T1317 675T1406 602T1469 496T1493 344Q1493 251 1455 176T1354 48T1206 -34T1028 -63Q944 -63 868 -40T735 24T644 121T610 242Q610 291 626 327T670 388T737 424T821 436Q854
436 887 429T949 408T1001 374T1038 328Q1030 330 1023 331T1008 332Q986 332 974 321T961 283Q961 255 983 236T1034 217Q1050 217 1064 224T1088 242T1104 268T1110 297Q1110 323 1092 353T1042 403Q979 442 924 470T821 523T736 573T672 631T632 710T618 821Z"
/>
<glyph unicode="&#xe0;" glyph-name="agrave" horiz-adv-x="1118" d="M1077 -14Q1058 -12 1033 -10Q1012 -8 983 -7T918 -6Q868 -6 809 -10T686 -25L690 256Q652 107 579 26T406 -55Q375 -55 336 -47T257 -17T178 46T109 149T61 303T43 518Q43 686 77 805T164
1001T281 1112T406 1147Q458 1147 500 1133T576 1096T633 1045T672 989Q669 1023 663 1061T649 1141Q714 1128 781 1124T905 1120Q973 1120 1015 1123Q1039 1124 1059 1126Q1048 1076 1039 1014T1024 882T1014 734T1010 575Q1010 424 1025 272T1077 -14ZM666 559V721Q666
748 663 776T650 827T619 864T565 879Q529 879 506 854T468 786T448 683T442 553Q442 513 447 472T466 398T501 343T555 322Q591 322 613 347T646 409T662 486T666 559ZM473 1209L141 1566Q192 1594 241 1621Q283 1644 328 1671T405 1721Q414 1700 430 1670T467
1607T511 1537T557 1467Q610 1386 671 1298L473 1209Z" />
<glyph unicode="&#xe1;" glyph-name="aacute" horiz-adv-x="1118" d="M1077 -14Q1058 -12 1033 -10Q1012 -8 983 -7T918 -6Q868 -6 809 -10T686 -25L690 256Q652 107 579 26T406 -55Q375 -55 336 -47T257 -17T178 46T109 149T61 303T43 518Q43 686 77 805T164
1001T281 1112T406 1147Q458 1147 500 1133T576 1096T633 1045T672 989Q669 1023 663 1061T649 1141Q714 1128 781 1124T905 1120Q973 1120 1015 1123Q1039 1124 1059 1126Q1048 1076 1039 1014T1024 882T1014 734T1010 575Q1010 424 1025 272T1077 -14ZM666 559V721Q666
748 663 776T650 827T619 864T565 879Q529 879 506 854T468 786T448 683T442 553Q442 513 447 472T466 398T501 343T555 322Q591 322 613 347T646 409T662 486T666 559ZM605 1199L406 1288Q467 1376 520 1457Q542 1491 565 1527T609 1596T647 1660T674 1711Q705
1688 749 1661T836 1611Q884 1584 936 1556L605 1199Z" />
<glyph unicode="&#xe2;" glyph-name="acircumflex" horiz-adv-x="1118" d="M1077 -14Q1058 -12 1033 -10Q1012 -8 983 -7T918 -6Q868 -6 809 -10T686 -25L690 256Q652 107 579 26T406 -55Q375 -55 336 -47T257 -17T178 46T109 149T61 303T43 518Q43 686 77 805T164
1001T281 1112T406 1147Q458 1147 500 1133T576 1096T633 1045T672 989Q669 1023 663 1061T649 1141Q714 1128 781 1124T905 1120Q973 1120 1015 1123Q1039 1124 1059 1126Q1048 1076 1039 1014T1024 882T1014 734T1010 575Q1010 424 1025 272T1077 -14ZM666 559V721Q666
748 663 776T650 827T619 864T565 879Q529 879 506 854T468 786T448 683T442 553Q442 513 447 472T466 398T501 343T555 322Q591 322 613 347T646 409T662 486T666 559ZM901 1314Q829 1292 754 1267T612 1207Q614 1223 615 1238T616 1268Q616 1330 596 1390T545
1504Q525 1474 512 1437T492 1359T481 1280T477 1207Q414 1236 349 1262T217 1309Q250 1340 281 1381T339 1468T389 1560T428 1649Q460 1646 492 1644T559 1641Q585 1641 613 1642T668 1649Q683 1604 707 1557T763 1466T829 1383T901 1314Z" />
<glyph unicode="&#xe3;" glyph-name="atilde" horiz-adv-x="1118" d="M1077 -14Q1058 -12 1033 -10Q1012 -8 983 -7T918 -6Q868 -6 809 -10T686 -25L690 256Q652 107 579 26T406 -55Q375 -55 336 -47T257 -17T178 46T109 149T61 303T43 518Q43 686 77 805T164
1001T281 1112T406 1147Q458 1147 500 1133T576 1096T633 1045T672 989Q669 1023 663 1061T649 1141Q714 1128 781 1124T905 1120Q973 1120 1015 1123Q1039 1124 1059 1126Q1048 1076 1039 1014T1024 882T1014 734T1010 575Q1010 424 1025 272T1077 -14ZM666 559V721Q666
748 663 776T650 827T619 864T565 879Q529 879 506 854T468 786T448 683T442 553Q442 513 447 472T466 398T501 343T555 322Q591 322 613 347T646 409T662 486T666 559ZM938 1400Q911 1367 887 1340T835 1294T776 1265T702 1254Q667 1254 643 1266T597 1294T552
1321T495 1334Q463 1334 439 1323T397 1292T368 1248T350 1197Q321 1256 280 1305T182 1379Q219 1419 248 1449T308 1498T371 1527T448 1537Q479 1537 504 1525T553 1499T597 1473T641 1461Q663 1461 681 1472T713 1500T735 1537T747 1578Q763 1557 786 1531T834
1480T887 1433T938 1400Z" />
<glyph unicode="&#xe4;" glyph-name="adieresis" horiz-adv-x="1118" d="M1077 -14Q1058 -12 1033 -10Q1012 -8 983 -7T918 -6Q868 -6 809 -10T686 -25L690 256Q652 107 579 26T406 -55Q375 -55 336 -47T257 -17T178 46T109 149T61 303T43 518Q43 686 77 805T164
1001T281 1112T406 1147Q458 1147 500 1133T576 1096T633 1045T672 989Q669 1023 663 1061T649 1141Q714 1128 781 1124T905 1120Q973 1120 1015 1123Q1039 1124 1059 1126Q1048 1076 1039 1014T1024 882T1014 734T1010 575Q1010 424 1025 272T1077 -14ZM666 559V721Q666
748 663 776T650 827T619 864T565 879Q529 879 506 854T468 786T448 683T442 553Q442 513 447 472T466 398T501 343T555 322Q591 322 613 347T646 409T662 486T666 559ZM195 1373Q195 1407 208 1436T243 1488T295 1524T359 1537Q393 1537 422 1524T474 1489T510
1437T523 1373Q523 1339 510 1310T475 1258T423 1222T359 1209Q325 1209 296 1222T244 1257T208 1309T195 1373ZM596 1373Q596 1407 609 1436T644 1488T696 1524T760 1537Q794 1537 823 1524T875 1489T911 1437T924 1373Q924 1339 911 1310T876 1258T824 1222T760
1209Q726 1209 697 1222T645 1257T609 1309T596 1373Z" />
<glyph unicode="&#xe5;" glyph-name="aring" horiz-adv-x="1118" d="M1077 -14Q1058 -12 1033 -10Q1012 -8 983 -7T918 -6Q868 -6 809 -10T686 -25L690 256Q652 107 579 26T406 -55Q375 -55 336 -47T257 -17T178 46T109 149T61 303T43 518Q43 686 77 805T164 1001T281
1112T406 1147Q458 1147 500 1133T576 1096T633 1045T672 989Q669 1023 663 1061T649 1141Q714 1128 781 1124T905 1120Q973 1120 1015 1123Q1039 1124 1059 1126Q1048 1076 1039 1014T1024 882T1014 734T1010 575Q1010 424 1025 272T1077 -14ZM666 559V721Q666
748 663 776T650 827T619 864T565 879Q529 879 506 854T468 786T448 683T442 553Q442 513 447 472T466 398T501 343T555 322Q591 322 613 347T646 409T662 486T666 559ZM802 1465Q802 1430 792 1388T756 1309T682 1248T559 1223Q480 1223 432 1247T359 1307T325
1385T317 1465Q317 1500 326 1542T361 1620T434 1680T559 1704Q637 1704 684 1680T758 1620T793 1542T802 1465ZM649 1471Q649 1484 646 1499T634 1528T609 1550T565 1559Q538 1559 521 1550T495 1528T483 1500T479 1471Q479 1457 481 1442T493 1413T519 1392T565
1383Q590 1383 606 1392T632 1414T645 1442T649 1471Z" />
<glyph unicode="&#xe6;" glyph-name="ae" horiz-adv-x="1747" d="M1704 930Q1704 855 1683 784T1607 658T1462 570T1229 537Q1232 488 1249 455T1289 402T1338 372T1386 358T1422 354T1438 354Q1499 361 1548 386Q1569 396 1589 411T1626 448T1652 497T1665 561Q1691
496 1701 440T1712 334Q1712 244 1680 169T1591 38T1456 -47T1284 -78Q1207 -78 1133 -55T995 20Q1000 -3 1005 -25T1016 -70Q979 -59 930 -49Q888 -41 827 -34T686 -25L684 276Q670 199 644 138T581 33T500 -32T406 -55Q375 -55 336 -47T257 -17T178 46T109 149T61
303T43 518Q43 686 77 805T164 1001T281 1112T406 1147Q458 1147 500 1133T576 1096T633 1045T672 989Q669 1023 663 1061T649 1141Q714 1128 781 1124T905 1120Q973 1120 1015 1123Q1039 1124 1059 1126Q1054 1108 1051 1087T1042 1042Q1118 1111 1212 1145T1409
1180Q1467 1180 1520 1167T1615 1124T1680 1047T1704 930ZM666 559V721Q666 748 663 776T650 827T619 864T565 879Q541 879 524 860T496 811T478 744T468 671T464 603T463 553Q463 526 465 487T477 411T504 348T555 322Q591 322 613 347T646 409T662 486T666 559ZM1391
768Q1438 814 1438 854Q1438 877 1422 891T1380 905Q1363 905 1344 897T1305 872Q1283 852 1266 826Q1251 803 1239 772T1225 702Q1262 703 1292 713T1345 736Q1371 750 1391 768Z" />
<glyph unicode="&#xe7;" glyph-name="ccedilla" horiz-adv-x="942" d="M639 -258Q639 -327 607 -365T526 -421T419 -442T307 -446Q312 -425 314 -403T317 -356Q317 -338 315 -318T307 -281Q313 -287 326 -292T355 -300T384 -305T408 -307Q435 -307 457 -295T479
-250Q479 -234 471 -223T450 -204T422 -194T393 -190Q376 -190 359 -192T324 -201L381 -41Q297 -20 233 34T124 165T58 334T35 522Q35 600 51 680T99 836T177 976T281 1091T408 1168T557 1196Q628 1196 682 1179T776 1134T842 1070T884 995T906 918T913 848Q913
809 900 767T860 691T794 634T702 612Q658 612 627 627T576 666T547 721T537 786Q537 856 571 907Q576 890 585 882T603 869Q613 865 623 864Q652 864 660 877T670 907Q670 924 657 940T612 956Q603 956 587 954T550 941T508 912T470 858T441 772T430 647Q430 572
452 526T504 454T569 419T627 410Q648 410 680 417T743 445T801 500T836 592Q863 552 879 497T895 381Q895 297 865 222T781 89T652 -6T485 -51L475 -94Q512 -94 542 -106T593 -140T627 -192T639 -258Z" />
<glyph unicode="&#xe8;" glyph-name="egrave" horiz-adv-x="958" d="M915 930Q915 855 894 784T818 658T673 570T440 537Q444 488 460 455T500 402T549 372T597 358T634 354T649 354Q711 361 760 386Q781 396 801 411T837 448T864 497T877 561Q903 496 913 440T924
334Q924 244 892 169T802 38T667 -47T496 -78Q406 -78 323 -47T175 51T72 227T33 489Q33 656 81 785T210 1001T397 1134T621 1180Q679 1180 732 1167T826 1124T891 1047T915 930ZM436 702Q464 703 501 713T571 743T626 790T649 854Q649 877 633 891T592 905Q557
905 530 885T483 835T451 769T436 702ZM398 1489L66 1846Q117 1874 166 1901Q208 1924 253 1951T330 2001Q339 1980 355 1950T392 1887T436 1817T482 1747Q535 1666 596 1578L398 1489Z" />
<glyph unicode="&#xe9;" glyph-name="eacute" horiz-adv-x="958" d="M915 930Q915 855 894 784T818 658T673 570T440 537Q444 488 460 455T500 402T549 372T597 358T634 354T649 354Q711 361 760 386Q781 396 801 411T837 448T864 497T877 561Q903 496 913 440T924
334Q924 244 892 169T802 38T667 -47T496 -78Q406 -78 323 -47T175 51T72 227T33 489Q33 656 81 785T210 1001T397 1134T621 1180Q679 1180 732 1167T826 1124T891 1047T915 930ZM436 702Q464 703 501 713T571 743T626 790T649 854Q649 877 633 891T592 905Q557
905 530 885T483 835T451 769T436 702ZM631 1257L432 1346Q493 1434 546 1515Q568 1549 591 1585T635 1654T673 1718T700 1769Q731 1746 775 1719T862 1669Q910 1642 962 1614L631 1257Z" />
<glyph unicode="&#xea;" glyph-name="ecircumflex" horiz-adv-x="958" d="M915 930Q915 855 894 784T818 658T673 570T440 537Q444 488 460 455T500 402T549 372T597 358T634 354T649 354Q711 361 760 386Q781 396 801 411T837 448T864 497T877 561Q903 496 913
440T924 334Q924 244 892 169T802 38T667 -47T496 -78Q406 -78 323 -47T175 51T72 227T33 489Q33 656 81 785T210 1001T397 1134T621 1180Q679 1180 732 1167T826 1124T891 1047T915 930ZM436 702Q464 703 501 713T571 743T626 790T649 854Q649 877 633 891T592
905Q557 905 530 885T483 835T451 769T436 702ZM819 1341Q747 1319 672 1294T530 1234Q532 1250 533 1265T534 1295Q534 1357 514 1417T463 1531Q443 1501 430 1464T410 1386T399 1307T395 1234Q332 1263 267 1289T135 1336Q168 1367 199 1408T257 1495T307 1587T346
1676Q378 1673 410 1671T477 1668Q503 1668 531 1669T586 1676Q601 1631 625 1584T681 1493T747 1410T819 1341Z" />
<glyph unicode="&#xeb;" glyph-name="edieresis" horiz-adv-x="958" d="M915 930Q915 855 894 784T818 658T673 570T440 537Q444 488 460 455T500 402T549 372T597 358T634 354T649 354Q711 361 760 386Q781 396 801 411T837 448T864 497T877 561Q903 496 913
440T924 334Q924 244 892 169T802 38T667 -47T496 -78Q406 -78 323 -47T175 51T72 227T33 489Q33 656 81 785T210 1001T397 1134T621 1180Q679 1180 732 1167T826 1124T891 1047T915 930ZM436 702Q464 703 501 713T571 743T626 790T649 854Q649 877 633 891T592
905Q557 905 530 885T483 835T451 769T436 702ZM113 1666Q113 1700 126 1729T161 1781T213 1817T277 1830Q311 1830 340 1817T392 1782T428 1730T441 1666Q441 1632 428 1603T393 1551T341 1515T277 1502Q243 1502 214 1515T162 1550T126 1602T113 1666ZM514 1666Q514
1700 527 1729T562 1781T614 1817T678 1830Q712 1830 741 1817T793 1782T829 1730T842 1666Q842 1632 829 1603T794 1551T742 1515T678 1502Q644 1502 615 1515T563 1550T527 1602T514 1666Z" />
<glyph unicode="&#xec;" glyph-name="igrave" horiz-adv-x="551" d="M518 4Q501 5 478 7Q458 8 431 9T369 10Q304 10 219 5T35 -16Q54 22 67 79T88 202T101 335T108 458T110 553T111 602Q109 732 102 845Q99 893 95 942T84 1034T71 1112T53 1167Q134 1153 203
1148T328 1143Q364 1143 392 1144T441 1148Q465 1150 483 1153Q465 1063 454 936T442 664Q442 581 446 496T459 327T482 161T518 4ZM181 1223L-151 1580Q-100 1608 -51 1635Q-9 1658 36 1685T113 1735Q122 1714 138 1684T175 1621T219 1551T265 1481Q318 1400 379
1312L181 1223Z" />
<glyph unicode="&#xed;" glyph-name="iacute" horiz-adv-x="551" d="M518 4Q501 5 478 7Q458 8 431 9T369 10Q304 10 219 5T35 -16Q54 22 67 79T88 202T101 335T108 458T110 553T111 602Q109 732 102 845Q99 893 95 942T84 1034T71 1112T53 1167Q134 1153 203
1148T328 1143Q364 1143 392 1144T441 1148Q465 1150 483 1153Q465 1063 454 936T442 664Q442 581 446 496T459 327T482 161T518 4ZM365 1215L166 1304Q227 1392 280 1473Q302 1507 325 1543T369 1612T407 1676T434 1727Q465 1704 509 1677T596 1627Q644 1600 696
1572L365 1215Z" />
<glyph unicode="&#xee;" glyph-name="icircumflex" horiz-adv-x="551" d="M518 4Q501 5 478 7Q458 8 431 9T369 10Q304 10 219 5T35 -16Q54 22 67 79T88 202T101 335T108 458T110 553T111 602Q109 732 102 845Q99 893 95 942T84 1034T71 1112T53 1167Q134 1153
203 1148T328 1143Q364 1143 392 1144T441 1148Q465 1150 483 1153Q465 1063 454 936T442 664Q442 581 446 496T459 327T482 161T518 4ZM875 1605Q803 1583 728 1558T586 1498Q588 1514 589 1529T590 1559Q590 1621 570 1681T519 1795Q499 1765 486 1728T466 1650T455
1571T451 1498Q388 1527 323 1553T191 1600Q224 1631 255 1672T313 1759T363 1851T402 1940Q434 1937 466 1935T533 1932Q559 1932 587 1933T642 1940Q657 1895 681 1848T737 1757T803 1674T875 1605Z" />
<glyph unicode="&#xef;" glyph-name="idieresis" horiz-adv-x="551" d="M518 4Q501 5 478 7Q458 8 431 9T369 10Q304 10 219 5T35 -16Q54 22 67 79T88 202T101 335T108 458T110 553T111 602Q109 732 102 845Q99 893 95 942T84 1034T71 1112T53 1167Q134 1153 203
1148T328 1143Q364 1143 392 1144T441 1148Q465 1150 483 1153Q465 1063 454 936T442 664Q442 581 446 496T459 327T482 161T518 4ZM169 1670Q169 1704 182 1733T217 1785T269 1821T333 1834Q367 1834 396 1821T448 1786T484 1734T497 1670Q497 1636 484 1607T449
1555T397 1519T333 1506Q299 1506 270 1519T218 1554T182 1606T169 1670ZM570 1670Q570 1704 583 1733T618 1785T670 1821T734 1834Q768 1834 797 1821T849 1786T885 1734T898 1670Q898 1636 885 1607T850 1555T798 1519T734 1506Q700 1506 671 1519T619 1554T583
1606T570 1670Z" />
<glyph unicode="&#xf0;" glyph-name="eth" horiz-adv-x="1036" d="M893 1665Q887 1622 883 1587T879 1516Q879 1485 882 1454T893 1384Q845 1382 799 1378T707 1364Q780 1292 834 1201T924 1008T977 798T995 584Q995 526 986 457T956 317T899 180T810 62T682 -20T510
-51Q412 -51 339 -22T213 55T126 167T72 301T45 442T37 578Q37 653 50 726T87 865T147 987T227 1084T325 1148T440 1171Q476 1171 507 1157T563 1124T604 1084T623 1053Q601 1130 572 1193T510 1307Q432 1276 362 1237T231 1155Q239 1203 242 1235T246 1294Q246
1325 242 1352T231 1417Q272 1420 315 1426T403 1442Q373 1473 345 1494T296 1530T260 1551T244 1561Q330 1557 406 1537T549 1481Q648 1513 737 1559T893 1665ZM647 551Q647 574 646 608T639 681T626 757T603 825T569 874T520 893Q493 893 473 875T439 828T415
763T400 690T392 620T389 563Q389 530 394 483T413 393T451 320T516 289Q554 289 579 317T620 385T641 471T647 551Z" />
<glyph unicode="&#xf1;" glyph-name="ntilde" horiz-adv-x="1112" d="M1083 -20Q1052 -15 1015 -14T938 -12Q890 -12 841 -14T744 -21T655 -30T582 -39Q625 106 648 271T672 637Q672 652 672 677T669 731T663 789T650 843T628 882T596 897Q568 897 542 877T495
824T462 748T449 659Q449 576 453 491T466 321T489 157T524 4Q507 5 484 7Q464 8 437 9T375 10Q310 10 225 5T41 -16Q53 40 62 121T77 297T86 495T90 700Q90 775 88 847T83 983T73 1101T59 1194Q140 1180 209 1175T334 1169Q370 1169 398 1170T447 1174Q471 1177
489 1180Q483 1149 478 1114T467 1038Q500 1080 537 1111T611 1164T686 1195T756 1206Q828 1206 880 1177T967 1084T1019 923T1036 688Q1036 594 1036 497T1041 307T1055 131T1083 -20ZM940 1427Q913 1394 889 1367T837 1321T778 1292T704 1281Q669 1281 645 1293T599
1321T554 1348T497 1361Q465 1361 441 1350T399 1319T370 1275T352 1224Q323 1283 282 1332T184 1406Q221 1446 250 1476T310 1525T373 1554T450 1564Q481 1564 506 1552T555 1526T599 1500T643 1488Q665 1488 683 1499T715 1527T737 1564T749 1605Q765 1584 788
1558T836 1507T889 1460T940 1427Z" />
<glyph unicode="&#xf2;" glyph-name="ograve" horiz-adv-x="1032" d="M995 584Q995 526 986 457T956 317T899 180T810 62T682 -20T510 -51Q412 -51 339 -22T213 55T126 167T72 301T45 442T37 578Q37 691 67 799T158 993T312 1130T530 1182Q614 1182 681 1157T800
1087T888 984T949 859T984 722T995 584ZM647 551Q647 574 646 608T639 681T626 757T603 825T569 874T520 893Q493 893 473 875T439 828T415 763T400 690T392 620T389 563Q389 530 394 483T413 393T451 320T516 289Q554 289 579 317T620 385T641 471T647 551ZM422
1498L90 1855Q141 1883 190 1910Q232 1933 277 1960T354 2010Q363 1989 379 1959T416 1896T460 1826T506 1756Q559 1675 620 1587L422 1498Z" />
<glyph unicode="&#xf3;" glyph-name="oacute" horiz-adv-x="1032" d="M995 584Q995 526 986 457T956 317T899 180T810 62T682 -20T510 -51Q412 -51 339 -22T213 55T126 167T72 301T45 442T37 578Q37 691 67 799T158 993T312 1130T530 1182Q614 1182 681 1157T800
1087T888 984T949 859T984 722T995 584ZM647 551Q647 574 646 608T639 681T626 757T603 825T569 874T520 893Q493 893 473 875T439 828T415 763T400 690T392 620T389 563Q389 530 394 483T413 393T451 320T516 289Q554 289 579 317T620 385T641 471T647 551ZM627
1248L428 1337Q489 1425 542 1506Q564 1540 587 1576T631 1645T669 1709T696 1760Q727 1737 771 1710T858 1660Q906 1633 958 1605L627 1248Z" />
<glyph unicode="&#xf4;" glyph-name="ocircumflex" horiz-adv-x="1032" d="M995 584Q995 526 986 457T956 317T899 180T810 62T682 -20T510 -51Q412 -51 339 -22T213 55T126 167T72 301T45 442T37 578Q37 691 67 799T158 993T312 1130T530 1182Q614 1182 681 1157T800
1087T888 984T949 859T984 722T995 584ZM647 551Q647 574 646 608T639 681T626 757T603 825T569 874T520 893Q493 893 473 875T439 828T415 763T400 690T392 620T389 563Q389 530 394 483T413 393T451 320T516 289Q554 289 579 317T620 385T641 471T647 551ZM858
1359Q786 1337 711 1312T569 1252Q571 1268 572 1283T573 1313Q573 1375 553 1435T502 1549Q482 1519 469 1482T449 1404T438 1325T434 1252Q371 1281 306 1307T174 1354Q207 1385 238 1426T296 1513T346 1605T385 1694Q417 1691 449 1689T516 1686Q542 1686 570
1687T625 1694Q640 1649 664 1602T720 1511T786 1428T858 1359Z" />
<glyph unicode="&#xf5;" glyph-name="otilde" horiz-adv-x="1032" d="M995 584Q995 526 986 457T956 317T899 180T810 62T682 -20T510 -51Q412 -51 339 -22T213 55T126 167T72 301T45 442T37 578Q37 691 67 799T158 993T312 1130T530 1182Q614 1182 681 1157T800
1087T888 984T949 859T984 722T995 584ZM647 551Q647 574 646 608T639 681T626 757T603 825T569 874T520 893Q493 893 473 875T439 828T415 763T400 690T392 620T389 563Q389 530 394 483T413 393T451 320T516 289Q554 289 579 317T620 385T641 471T647 551ZM893
1402Q866 1369 842 1342T790 1296T731 1267T657 1256Q622 1256 598 1268T552 1296T507 1323T450 1336Q418 1336 394 1325T352 1294T323 1250T305 1199Q276 1258 235 1307T137 1381Q174 1421 203 1451T263 1500T326 1529T403 1539Q434 1539 459 1527T508 1501T552
1475T596 1463Q618 1463 636 1474T668 1502T690 1539T702 1580Q718 1559 741 1533T789 1482T842 1435T893 1402Z" />
<glyph unicode="&#xf6;" glyph-name="odieresis" horiz-adv-x="1032" d="M995 584Q995 526 986 457T956 317T899 180T810 62T682 -20T510 -51Q412 -51 339 -22T213 55T126 167T72 301T45 442T37 578Q37 691 67 799T158 993T312 1130T530 1182Q614 1182 681 1157T800
1087T888 984T949 859T984 722T995 584ZM647 551Q647 574 646 608T639 681T626 757T603 825T569 874T520 893Q493 893 473 875T439 828T415 763T400 690T392 620T389 563Q389 530 394 483T413 393T451 320T516 289Q554 289 579 317T620 385T641 471T647 551ZM152
1404Q152 1438 165 1467T200 1519T252 1555T316 1568Q350 1568 379 1555T431 1520T467 1468T480 1404Q480 1370 467 1341T432 1289T380 1253T316 1240Q282 1240 253 1253T201 1288T165 1340T152 1404ZM553 1404Q553 1438 566 1467T601 1519T653 1555T717 1568Q751
1568 780 1555T832 1520T868 1468T881 1404Q881 1370 868 1341T833 1289T781 1253T717 1240Q683 1240 654 1253T602 1288T566 1340T553 1404Z" />
<glyph unicode="&#xf7;" glyph-name="divide" horiz-adv-x="870" d="M831 854Q823 809 820 766T817 678Q817 635 820 591T831 504Q793 524 748 536T655 555T561 564T471 567Q363 567 252 557T37 518Q41 530 44 548T48 585T50 622T51 651Q51 702 47 752T37 854Q77
837 129 826T237 808T346 798T444 795Q485 795 537 798T643 807T746 825T831 854ZM291 328Q291 362 304 391T339 443T391 479T455 492Q489 492 518 479T570 444T605 392T618 328Q618 294 605 265T570 213T519 177T455 164Q421 164 392 177T340 212T304 264T291
328ZM291 1030Q291 1064 304 1093T339 1145T391 1181T455 1194Q489 1194 518 1181T570 1146T605 1094T618 1030Q618 996 605 967T570 915T519 879T455 866Q421 866 392 879T340 914T304 966T291 1030Z" />
<glyph unicode="&#xf8;" glyph-name="oslash" horiz-adv-x="1032" d="M993 1241Q956 1188 922 1136T854 1030Q891 985 917 932T961 820T986 702T995 584Q995 526 986 457T956 317T899 180T810 62T682 -20T510 -51Q457 -51 413 -43T330 -18L287 -117Q269 -111 246
-107T198 -99T145 -95T92 -94H49L172 98Q132 147 106 206T65 329T43 456T37 578Q37 691 67 799T158 993T312 1130T530 1182Q580 1182 623 1173T705 1147Q716 1170 725 1193T748 1241Q757 1237 771 1235T800 1232T830 1230T856 1229Q870 1229 887 1230T923 1232T960
1236T993 1241ZM389 563Q389 546 389 525T393 481Q451 589 495 682T578 864Q567 877 552 885T520 893Q493 893 473 875T439 828T415 763T400 690T392 620T389 563ZM647 551Q647 569 646 595T641 651Q599 568 558 481T473 301Q491 289 516 289Q554 289 579 317T620
385T641 471T647 551Z" />
<glyph unicode="&#xf9;" glyph-name="ugrave" horiz-adv-x="977" d="M948 1153Q939 1108 932 1048T919 919T910 774T907 623Q907 598 908 574T909 526Q909 477 904 415T882 289T836 162T760 52T644 -25T483 -55Q403 -55 342 -34T235 23T158 110T108 217T81 338T72
463Q72 478 72 481T73 486T74 489T75 505T75 546T76 625Q76 685 74 760T66 908T47 1040T16 1126Q97 1112 168 1107T299 1102Q338 1102 369 1103T424 1107Q450 1109 471 1112Q451 1014 433 890T414 604Q414 567 417 527T430 454T454 399T494 377Q524 377 541 397T566
449T576 522T578 602Q577 732 570 845Q567 893 563 942T552 1034T538 1112T520 1167Q601 1153 670 1148T793 1143Q829 1143 857 1144T906 1148Q930 1150 948 1153ZM414 1469L82 1826Q133 1854 182 1881Q224 1904 269 1931T346 1981Q355 1960 371 1930T408 1867T452
1797T498 1727Q551 1646 612 1558L414 1469Z" />
<glyph unicode="&#xfa;" glyph-name="uacute" horiz-adv-x="977" d="M948 1153Q939 1108 932 1048T919 919T910 774T907 623Q907 598 908 574T909 526Q909 477 904 415T882 289T836 162T760 52T644 -25T483 -55Q403 -55 342 -34T235 23T158 110T108 217T81 338T72
463Q72 478 72 481T73 486T74 489T75 505T75 546T76 625Q76 685 74 760T66 908T47 1040T16 1126Q97 1112 168 1107T299 1102Q338 1102 369 1103T424 1107Q450 1109 471 1112Q451 1014 433 890T414 604Q414 567 417 527T430 454T454 399T494 377Q524 377 541 397T566
449T576 522T578 602Q577 732 570 845Q567 893 563 942T552 1034T538 1112T520 1167Q601 1153 670 1148T793 1143Q829 1143 857 1144T906 1148Q930 1150 948 1153ZM584 1223L385 1312Q446 1400 499 1481Q521 1515 544 1551T588 1620T626 1684T653 1735Q684 1712
728 1685T815 1635Q863 1608 915 1580L584 1223Z" />
<glyph unicode="&#xfb;" glyph-name="ucircumflex" horiz-adv-x="977" d="M948 1153Q939 1108 932 1048T919 919T910 774T907 623Q907 598 908 574T909 526Q909 477 904 415T882 289T836 162T760 52T644 -25T483 -55Q403 -55 342 -34T235 23T158 110T108 217T81
338T72 463Q72 478 72 481T73 486T74 489T75 505T75 546T76 625Q76 685 74 760T66 908T47 1040T16 1126Q97 1112 168 1107T299 1102Q338 1102 369 1103T424 1107Q450 1109 471 1112Q451 1014 433 890T414 604Q414 567 417 527T430 454T454 399T494 377Q524 377
541 397T566 449T576 522T578 602Q577 732 570 845Q567 893 563 942T552 1034T538 1112T520 1167Q601 1153 670 1148T793 1143Q829 1143 857 1144T906 1148Q930 1150 948 1153ZM848 1343Q776 1321 701 1296T559 1236Q561 1252 562 1267T563 1297Q563 1359 543 1419T492
1533Q472 1503 459 1466T439 1388T428 1309T424 1236Q361 1265 296 1291T164 1338Q197 1369 228 1410T286 1497T336 1589T375 1678Q407 1675 439 1673T506 1670Q532 1670 560 1671T615 1678Q630 1633 654 1586T710 1495T776 1412T848 1343Z" />
<glyph unicode="&#xfc;" glyph-name="udieresis" horiz-adv-x="977" d="M948 1153Q939 1108 932 1048T919 919T910 774T907 623Q907 598 908 574T909 526Q909 477 904 415T882 289T836 162T760 52T644 -25T483 -55Q403 -55 342 -34T235 23T158 110T108 217T81
338T72 463Q72 478 72 481T73 486T74 489T75 505T75 546T76 625Q76 685 74 760T66 908T47 1040T16 1126Q97 1112 168 1107T299 1102Q338 1102 369 1103T424 1107Q450 1109 471 1112Q451 1014 433 890T414 604Q414 567 417 527T430 454T454 399T494 377Q524 377
541 397T566 449T576 522T578 602Q577 732 570 845Q567 893 563 942T552 1034T538 1112T520 1167Q601 1153 670 1148T793 1143Q829 1143 857 1144T906 1148Q930 1150 948 1153ZM117 1652Q117 1686 130 1715T165 1767T217 1803T281 1816Q315 1816 344 1803T396 1768T432
1716T445 1652Q445 1618 432 1589T397 1537T345 1501T281 1488Q247 1488 218 1501T166 1536T130 1588T117 1652ZM518 1652Q518 1686 531 1715T566 1767T618 1803T682 1816Q716 1816 745 1803T797 1768T833 1716T846 1652Q846 1618 833 1589T798 1537T746 1501T682
1488Q648 1488 619 1501T567 1536T531 1588T518 1652Z" />
<glyph unicode="&#xfd;" glyph-name="yacute" horiz-adv-x="1073" d="M1036 1149Q1025 1107 1018 1048T1004 921T995 779T988 635Q982 470 981 287Q981 185 969 86T929 -101T858 -265T752 -395T607 -481T420 -512Q323 -512 252 -492T135 -436T66 -348T43 -236Q43
-175 64 -126T119 -42T196 10T283 29Q339 29 389 -3T465 -104Q459 -99 452 -98T436 -96Q425 -96 414 -101T393 -115T379 -135T373 -160Q373 -175 379 -185T393 -202T412 -210T432 -213Q446 -213 467 -207T510 -182T555 -129T595 -39T623 99T633 293Q607 223 579
180T519 112T453 80T379 72Q330 72 277 89T179 151T105 273T76 469Q76 485 76 491T77 501T78 510T79 529T79 571T80 647Q80 704 78 776T70 917T51 1042T20 1126Q101 1112 172 1107T303 1102Q342 1102 373 1103T428 1107Q454 1109 475 1112Q467 1095 458 1047T439
932T424 786T418 625Q418 564 427 521T451 451T487 410T532 397Q570 397 592 428T631 506Q629 568 624 651T611 824T589 1005T555 1176Q586 1165 629 1156Q666 1148 719 1143T844 1137Q929 1137 1036 1149ZM605 1219L406 1308Q467 1396 520 1477Q542 1511 565 1547T609
1616T647 1680T674 1731Q705 1708 749 1681T836 1631Q884 1604 936 1576L605 1219Z" />
<glyph unicode="&#xfe;" glyph-name="thorn" horiz-adv-x="1083" d="M8 1567Q31 1565 60 1563Q85 1561 118 1560T193 1559Q248 1559 312 1562T440 1577Q436 1569 433 1529T426 1430T420 1305T415 1177T410 1070T406 1006Q448 1097 515 1146T688 1196Q711 1196
746 1193T821 1173T900 1121T971 1020T1022 857T1042 614Q1042 494 1025 400T978 233T909 111T826 28T737 -18T649 -33Q602 -33 564 -18T495 22T441 78T401 141Q404 72 408 -12T418 -176T434 -319T457 -410Q376 -396 307 -392T182 -387Q146 -387 117 -388T68 -391Q44
-393 27 -395Q37 -345 45 -245T61 -13T72 274T76 590Q76 739 73 884T61 1159T39 1393T8 1567ZM420 655V494Q420 467 423 439T436 388T466 351T520 336Q544 336 561 355T589 404T607 471T617 544T622 612T623 662Q623 689 621 728T609 804T581 867T530 893Q494 893
473 868T439 806T424 728T420 655Z" />
<glyph unicode="&#xff;" glyph-name="ydieresis" horiz-adv-x="1073" d="M1036 1149Q1025 1107 1018 1048T1004 921T995 779T988 635Q982 470 981 287Q981 185 969 86T929 -101T858 -265T752 -395T607 -481T420 -512Q323 -512 252 -492T135 -436T66 -348T43 -236Q43
-175 64 -126T119 -42T196 10T283 29Q339 29 389 -3T465 -104Q459 -99 452 -98T436 -96Q425 -96 414 -101T393 -115T379 -135T373 -160Q373 -175 379 -185T393 -202T412 -210T432 -213Q446 -213 467 -207T510 -182T555 -129T595 -39T623 99T633 293Q607 223 579
180T519 112T453 80T379 72Q330 72 277 89T179 151T105 273T76 469Q76 485 76 491T77 501T78 510T79 529T79 571T80 647Q80 704 78 776T70 917T51 1042T20 1126Q101 1112 172 1107T303 1102Q342 1102 373 1103T428 1107Q454 1109 475 1112Q467 1095 458 1047T439
932T424 786T418 625Q418 564 427 521T451 451T487 410T532 397Q570 397 592 428T631 506Q629 568 624 651T611 824T589 1005T555 1176Q586 1165 629 1156Q666 1148 719 1143T844 1137Q929 1137 1036 1149ZM164 1377Q164 1411 177 1440T212 1492T264 1528T328 1541Q362
1541 391 1528T443 1493T479 1441T492 1377Q492 1343 479 1314T444 1262T392 1226T328 1213Q294 1213 265 1226T213 1261T177 1313T164 1377ZM565 1377Q565 1411 578 1440T613 1492T665 1528T729 1541Q763 1541 792 1528T844 1493T880 1441T893 1377Q893 1343 880
1314T845 1262T793 1226T729 1213Q695 1213 666 1226T614 1261T578 1313T565 1377Z" />
<glyph unicode="&#x2013;" glyph-name="endash" horiz-adv-x="952" d="M885 854Q877 809 873 766T868 678Q868 592 885 504Q846 524 797 536T696 555T593 564T500 567Q391 567 280 557T66 518Q70 530 73 548T77 585T79 622T80 651Q80 702 76 752T66 854Q106 837
158 826T265 808T374 798T473 795Q514 795 570 798T683 807T795 825T885 854Z" />
<glyph unicode="&#x2014;" glyph-name="emdash" horiz-adv-x="1362" d="M1294 854Q1286 809 1282 766T1278 678Q1278 635 1282 591T1294 504Q1268 517 1223 527T1121 544T1004 555T885 562T781 566T705 567Q669 567 617 566T506 563T383 557T261 548T151 535T66
518Q70 530 73 548T77 585T79 622T80 651Q80 702 76 752T66 854Q93 843 140 834T246 819T367 808T490 800T598 796T678 795Q705 795 754 796T864 800T990 807T1115 818T1222 834T1294 854Z" />
<glyph unicode="&#x2018;" glyph-name="quoteleft" horiz-adv-x="492" d="M33 1085Q33 1126 49 1176T89 1275T142 1366T199 1434L401 1409Q369 1384 343 1353T293 1288Q330 1285 360 1268T413 1224T447 1162T459 1085Q459 1051 448 1015T413 948T347 897T246 877Q191
877 151 892T85 934T46 1000T33 1085Z" />
<glyph unicode="&#x2019;" glyph-name="quoteright" horiz-adv-x="492" d="M461 1225Q461 1184 445 1134T405 1035T352 944T295 877L92 901Q124 926 151 957T201 1022Q164 1025 134 1042T81 1086T47 1148T35 1225Q35 1259 46 1295T81 1363T147 1414T248 1434Q302
1434 342 1419T409 1377T448 1311T461 1225Z" />
<glyph unicode="&#x201a;" glyph-name="quotesinglbase" horiz-adv-x="504" d="M463 164Q463 123 447 73T407 -26T354 -117T297 -184L94 -160Q126 -135 153 -104T203 -39Q166 -36 136 -19T83 25T49 87T37 164Q37 198 48 234T83 302T149 353T250 373Q304 373 344
358T411 316T450 250T463 164Z" />
<glyph unicode="&#x201c;" glyph-name="quotedblleft" horiz-adv-x="983" d="M524 1085Q524 1126 540 1176T580 1275T633 1366T690 1434L893 1409Q861 1384 834 1353T784 1288Q821 1285 851 1268T904 1224T938 1162T950 1085Q950 1051 939 1015T904 948T838 897T737
877Q683 877 643 892T576 934T537 1000T524 1085ZM33 1085Q33 1126 49 1176T89 1275T142 1366T199 1434L401 1409Q369 1384 343 1353T293 1288Q330 1285 360 1268T413 1224T447 1162T459 1085Q459 1051 448 1015T413 948T347 897T246 877Q191 877 151 892T85 934T46
1000T33 1085Z" />
<glyph unicode="&#x201d;" glyph-name="quotedblright" horiz-adv-x="983" d="M461 1225Q461 1184 445 1134T405 1035T352 944T295 877L92 901Q124 926 151 957T201 1022Q164 1025 134 1042T81 1086T47 1148T35 1225Q35 1259 46 1295T81 1363T147 1414T248 1434Q302
1434 342 1419T409 1377T448 1311T461 1225ZM952 1225Q952 1184 936 1134T896 1035T843 944T786 877L584 901Q616 926 642 957T692 1022Q655 1025 625 1042T572 1086T538 1148T526 1225Q526 1259 537 1295T573 1363T638 1414T739 1434Q848 1434 900 1377T952 1225Z"
/>
<glyph unicode="&#x201e;" glyph-name="quotedblbase" horiz-adv-x="995" d="M463 164Q463 123 447 73T407 -26T354 -117T297 -184L94 -160Q126 -135 153 -104T203 -39Q166 -36 136 -19T83 25T49 87T37 164Q37 198 48 234T83 302T149 353T250 373Q304 373 344
358T411 316T450 250T463 164ZM954 164Q954 123 938 73T898 -26T845 -117T788 -184L586 -160Q618 -135 644 -104T694 -39Q657 -36 627 -19T574 25T540 87T528 164Q528 198 539 234T575 302T640 353T741 373Q850 373 902 316T954 164Z" />
<glyph unicode="&#x2022;" glyph-name="bullet" horiz-adv-x="766" d="M80 698Q80 761 103 816T168 912T265 977T383 1001Q446 1001 501 978T597 913T662 816T686 698Q686 635 663 580T598 484T501 419T383 395Q320 395 265 418T169 483T104 580T80 698Z" />
<glyph unicode="&#x2039;" glyph-name="guilsinglleft" horiz-adv-x="666" d="M561 154Q510 195 447 236T314 312T174 368T35 395Q43 452 48 511T53 631Q53 682 47 735Q106 760 164 792T279 859T391 931T500 1006L618 670Q577 670 529 662T432 641T337 612T252
580Q289 565 336 549T432 519T529 498T618 489L561 154Z" />
<glyph unicode="&#x203a;" glyph-name="guilsinglright" horiz-adv-x="666" d="M631 395Q563 391 492 369T351 312T219 237T104 154L47 489Q87 489 135 497T232 519T328 548T414 580Q375 596 329 612T234 641T137 662T47 670L166 1006Q218 969 273 932T384 859T499
792T618 735Q612 682 612 629Q612 570 617 511T631 395Z" />
</font>
</defs>
</svg>
