<?xml version="1.0" standalone="no"?>
<!DOCTYPE svg PUBLIC "-//W3C//DTD SVG 1.1//EN" "http://www.w3.org/Graphics/SVG/1.1/DTD/svg11.dtd">
<svg xmlns="http://www.w3.org/2000/svg">
<defs >
<font id="Boogaloo" horiz-adv-x="342" ><font-face
    font-family="Boogaloo"
    units-per-em="1000"
    panose-1="3 6 9 2 3 2 2 2 2 3"
    ascent="943"
    descent="-246"
    alphabetic="0" />
<glyph unicode=" " glyph-name="space" horiz-adv-x="242" />
<glyph unicode="!" glyph-name="exclam" horiz-adv-x="278" d="M94 196Q76 345 76 467T95 731L241 703Q191 509 174 186L94 196ZM189 134Q200 114 200 64T184 -23L65 0Q75 37 75 77T73 146L189 134Z" />
<glyph unicode="&quot;" glyph-name="quotedbl" horiz-adv-x="348" d="M37 704L145 695Q140 578 117 426L25 434Q33 537 37 704ZM203 704L311 695Q306 578 283 426L191 434Q199 537 203 704Z" />
<glyph unicode="#" glyph-name="numbersign" horiz-adv-x="833" d="M522 726L635 717Q615 594 607 530Q675 528 735 521L708 411Q652 419 594 420Q583 305 583 301Q651 299 711 292L684 182Q630 190 574 191Q562 63 554 0H438Q449 99 456 193Q422 193 352 191Q333
49 317 -29L204 -18Q218 56 234 187Q148 185 105 185L117 295Q158 295 246 297Q254 372 257 416Q215 414 129 414L141 524Q181 524 267 526Q274 616 285 706L401 697Q393 638 384 530Q452 532 490 532Q507 657 522 726ZM476 422Q443 422 375 420Q372 387 364 301Q430
303 465 303Q473 368 476 422Z" />
<glyph unicode="$" glyph-name="dollar" horiz-adv-x="484" d="M216 617L214 732L314 724Q314 645 316 616Q370 599 405 552T440 467Q440 405 419 362L306 396Q317 424 317 445T302 481T267 497T233 484T218 448T234 400T274 361Q358 310 396 271T434 171T400
70T312 13Q312 -44 301 -116L201 -107Q211 -38 212 11Q124 32 57 143L118 202Q202 124 254 124Q291 124 291 154Q291 176 273 196T213 246Q84 339 84 448Q84 513 121 557T216 617Z" />
<glyph unicode="%" glyph-name="percent" horiz-adv-x="676" d="M144 553T132 514T120 438Q120 370 162 370Q177 370 190 398T203 464Q203 553 164 553Q144 553 132 514ZM100 279T64 320T28 435T65 576T166 643T262 593T294 468T253 336T162 279Q100 279 64 320ZM514
249T502 210T490 134Q490 66 532 66Q547 66 560 94T573 160Q573 249 534 249Q514 249 502 210ZM470 -25T434 16T398 131T435 272T536 339T632 289T664 164T623 32T532 -25Q470 -25 434 16ZM183 -23L106 6Q356 442 560 666L624 626Q508 496 405 342T183 -23Z" />
<glyph unicode="&amp;" glyph-name="ampersand" horiz-adv-x="539" d="M465 -49Q443 -27 367 45Q262 -10 205 -10Q124 -10 72 31T19 140Q19 187 50 226T141 312Q86 405 86 474Q86 565 151 628T297 692T428 645T478 531Q478 448 403 378Q368 345 305 296Q337 254
392 194Q420 213 484 258L570 178Q539 154 474 109Q489 94 521 64T565 21L465 -49ZM258 577T237 551T216 484T244 390Q353 471 353 511Q353 541 335 559T288 577ZM149 129T165 115T204 100T285 130Q242 174 205 222Q149 178 149 154Z" />
<glyph unicode="&apos;" glyph-name="quotesingle" horiz-adv-x="181" d="M37 704L145 695Q140 578 117 426L25 434Q33 537 37 704Z" />
<glyph unicode="(" glyph-name="parenleft" horiz-adv-x="354" d="M235 207Q235 -9 327 -200L197 -246Q100 -68 100 187Q100 337 135 486T223 734L319 680Q283 596 259 467T235 207Z" />
<glyph unicode=")" glyph-name="parenright" horiz-adv-x="354" d="M125 283Q125 499 33 690L163 736Q260 558 260 303Q260 153 225 4T137 -244L41 -190Q77 -106 101 23T125 283Z" />
<glyph unicode="*" glyph-name="asterisk" horiz-adv-x="475" d="M268 703Q278 682 278 662T270 602T259 536Q310 564 370 628Q408 595 439 528Q421 511 401 505T341 494T278 485Q323 442 399 408Q380 362 325 311Q305 322 293 339T263 393T235 451Q208 398 199
312Q147 317 84 353Q88 375 100 392T142 436T189 481Q165 484 134 484T46 473Q41 493 41 525T49 595Q53 596 68 596T106 587T158 560T203 535Q192 595 152 668Q195 694 268 703Z" />
<glyph unicode="+" glyph-name="plus" horiz-adv-x="833" d="M704 240Q651 245 600 245T478 243V230Q478 129 483 -1L343 8Q338 138 338 230V235Q326 233 127 223L121 343Q267 348 339 356Q344 490 354 603L494 591Q483 478 480 363Q550 365 608 365T718 360L704 240Z" />
<glyph unicode="," glyph-name="comma" horiz-adv-x="260" d="M75 197L208 153Q198 62 130 -120L38 -113Q65 51 75 197Z" />
<glyph unicode="-" glyph-name="hyphen" horiz-adv-x="324" d="M34 274L228 283Q258 283 283 280L287 172Q257 175 228 175L46 166L34 274Z" />
<glyph unicode="." glyph-name="period" horiz-adv-x="260" d="M188 159Q199 124 199 70T185 -21L50 -10Q59 66 59 106T58 171L188 159Z" />
<glyph unicode="/" glyph-name="slash" horiz-adv-x="410" d="M76 -83L-24 -73Q-7 -31 51 114T142 334Q238 566 330 731L418 684Q362 598 304 470T171 153T76 -83Z" />
<glyph unicode="0" glyph-name="zero" horiz-adv-x="484" d="M222 533T200 446T178 270T198 136T254 92Q281 92 304 161T328 318Q328 533 257 533Q222 533 200 446ZM48 252Q48 347 71 434T144 582T260 643T373 598Q458 513 458 318Q458 233 428 155T351 29T254
-18Q158 -18 103 56T48 252Z" />
<glyph unicode="1" glyph-name="one" horiz-adv-x="484" d="M366 623Q346 459 346 289T360 -18L226 -5Q219 112 219 223T227 435L171 360L95 424Q158 516 228 650L366 623Z" />
<glyph unicode="2" glyph-name="two" horiz-adv-x="484" d="M289 647Q368 647 410 597T453 471Q453 420 397 324T255 129Q277 137 345 137T451 130L439 17Q377 22 335 22Q220 22 79 -26L36 61Q145 152 239 284T333 471T289 527Q253 527 215 486T132 370L32 440Q162
647 289 647Z" />
<glyph unicode="3" glyph-name="three" horiz-adv-x="484" d="M122 604T170 623T280 643T386 602T431 488T315 333Q415 281 415 193T349 47T217 -10T96 11L78 121Q113 110 164 110T255 132T295 185T270 236T206 257T122 243L88 346Q193 381 249 420T306 492Q306
528 267 528Q215 528 126 466L62 561Q122 604 170 623Z" />
<glyph unicode="4" glyph-name="four" horiz-adv-x="484" d="M273 163Q238 163 136 151L17 232Q17 256 111 424T260 652L425 636Q401 448 395 273L459 267L445 162H393Q393 48 398 -30L278 -20Q273 51 273 163ZM166 267Q216 274 274 274Q281 406 298 521Q213 374
166 267Z" />
<glyph unicode="5" glyph-name="five" horiz-adv-x="484" d="M424 646V536Q344 536 249 521Q248 511 228 383Q330 383 390 341T450 220Q450 42 121 -28L93 80Q320 130 320 210Q320 238 291 256T219 274Q206 274 144 261L86 307L142 610Q309 646 424 646Z" />
<glyph unicode="6" glyph-name="six" horiz-adv-x="484" d="M299 388Q361 388 408 343T455 205T396 41T250 -31T113 38T61 220Q61 346 113 450Q141 507 164 545T233 649L387 636Q252 495 207 369Q255 388 299 388ZM187 248L186 220Q186 157 205 118T254 79T307
113T330 191T314 257T269 278T187 248Z" />
<glyph unicode="7" glyph-name="seven" horiz-adv-x="484" d="M401 649L433 536Q279 224 236 -15L118 -4Q170 269 317 536Q189 526 100 514L78 622Q205 639 401 649Z" />
<glyph unicode="8" glyph-name="eight" horiz-adv-x="484" d="M172 -33T113 20T54 158T134 315Q69 375 69 456T130 599T273 661T404 602T454 480Q454 384 361 313Q402 290 427 251T453 163Q453 91 394 29T254 -33ZM286 77T309 97T333 147T317 200T285 233T242
260Q174 215 174 156Q174 121 198 99T254 77ZM235 551T212 527T189 473T205 416T243 375Q286 401 310 425T334 475T316 526T266 551Z" />
<glyph unicode="9" glyph-name="nine" horiz-adv-x="484" d="M220 210Q143 210 94 266T44 401Q44 497 112 575T266 653Q335 653 393 598Q423 569 441 516T460 390Q460 231 233 -51L138 16Q225 115 295 227Q248 210 220 210ZM230 320Q277 320 336 365Q340 389 340
400Q340 475 318 509T261 543T196 499T164 401Q164 368 182 344T230 320Z" />
<glyph unicode=":" glyph-name="colon" horiz-adv-x="260" d="M188 159Q199 124 199 70T185 -21L50 -10Q59 66 59 106T58 171L188 159ZM194 465Q205 430 205 376T191 285L56 296Q65 372 65 412T64 477L194 465Z" />
<glyph unicode=";" glyph-name="semicolon" horiz-adv-x="260" d="M194 465Q205 430 205 376T191 285L56 296Q65 372 65 412T64 477L194 465ZM75 197L208 153Q198 62 130 -120L38 -113Q65 51 75 197Z" />
<glyph unicode="&lt;" glyph-name="less" horiz-adv-x="833" d="M128 250L139 359Q431 462 675 595L700 470Q504 373 286 298Q506 184 705 125L679 14Q409 88 128 250Z" />
<glyph unicode="=" glyph-name="equal" horiz-adv-x="833" d="M123 464L479 472Q628 472 720 461L702 341Q621 352 489 352L123 344V464ZM123 245L479 253Q628 253 720 242L702 122Q621 133 489 133L123 125V245Z" />
<glyph unicode="&gt;" glyph-name="greater" horiz-adv-x="833" d="M705 359L694 250Q402 147 158 14L133 139Q329 236 547 311Q327 425 128 484L154 595Q424 521 705 359Z" />
<glyph unicode="?" glyph-name="question" horiz-adv-x="419" d="M234 700Q311 700 355 651T399 526Q399 491 386 467T366 431T341 399T314 370Q280 331 252 303Q207 255 207 217Q207 203 212 186L127 196Q95 218 95 248T115 310T161 371T206 422T235 455T257
482Q279 513 279 533T267 567T234 580Q187 580 86 481L-6 561Q125 700 234 700ZM219 134Q230 114 230 64T214 -23L95 0Q105 37 105 77T103 146L219 134Z" />
<glyph unicode="@" glyph-name="at" horiz-adv-x="834" d="M531 -129Q470 -154 404 -154T271 -130T150 -58T65 71T34 258T66 452T153 600T277 693T424 726T566 702T685 630T769 500T800 311T743 131T600 59Q553 59 519 86T474 167Q426 71 371 71Q294 71 264 114T234
240T273 414T363 506Q408 506 458 482Q458 490 456 512L573 502Q573 334 566 204Q570 183 581 173T607 162Q647 162 669 208T692 326T670 463T610 564Q536 639 423 639T226 533T142 261T220 14T413 -68Q454 -68 498 -49L531 -129ZM461 389Q438 408 413 408T369
350T351 236T385 179Q398 179 420 216T460 313L461 389Z" />
<glyph unicode="A" glyph-name="A" horiz-adv-x="516" d="M353 10L330 149L181 143L143 -45L3 -33L182 692L367 676L498 -2L353 10ZM265 561L202 250L314 254L265 561Z" />
<glyph unicode="B" glyph-name="B" horiz-adv-x="523" d="M73 665Q190 701 284 701T445 651T511 526Q511 415 387 350Q503 303 503 193Q503 112 418 49T240 -15Q228 -15 69 -1Q83 214 83 361T73 665ZM376 542T347 562T284 583T212 571Q216 451 216 390Q262 394
319 431T376 512Q376 542 347 562ZM295 107T332 133T369 194T326 255T215 287Q213 169 211 110Q229 107 262 107Z" />
<glyph unicode="C" glyph-name="C" horiz-adv-x="482" d="M269 575Q225 575 192 467T159 274Q159 98 251 98Q277 98 296 120T324 167T345 233L472 223Q446 100 395 35T251 -30Q143 -30 85 51T26 259Q26 406 84 545Q112 614 162 658T278 703Q358 703 394 650Q412
624 423 597T440 528Q449 461 451 384L322 396Q322 525 298 558Q287 575 269 575Z" />
<glyph unicode="D" glyph-name="D" horiz-adv-x="502" d="M238 701Q355 701 418 609T482 386Q482 285 450 196T350 46T191 -15Q173 -15 55 -1Q69 214 69 355T60 667Q157 701 238 701ZM262 107T307 188T353 364T321 520T243 581Q219 581 198 573Q202 425 202 325T196
115Q203 107 216 107Q262 107 307 188Z" />
<glyph unicode="E" glyph-name="E" horiz-adv-x="447" d="M75 -4Q71 154 71 295T87 662Q258 688 421 688V565Q308 565 211 558Q207 446 206 386Q282 397 386 399L405 289Q338 288 204 274Q204 154 205 101Q292 108 413 131L430 21Q345 -18 229 -18L75 -4Z" />
<glyph unicode="F" glyph-name="F" horiz-adv-x="422" d="M421 688V565Q309 565 211 558Q209 529 208 456T205 365Q317 380 385 380L405 270Q293 267 204 256Q204 100 208 -19L73 -4Q71 158 71 297T87 662Q258 688 421 688Z" />
<glyph unicode="G" glyph-name="G" horiz-adv-x="498" d="M333 397Q337 417 337 462T322 546T278 585Q243 585 210 495T177 301T197 139T256 80T315 116T345 222Q309 222 268 215L247 314Q338 320 475 336Q481 284 481 241T456 134T380 21T269 -28Q165 -28 103
53T40 282Q40 391 67 486T147 642T268 703Q334 703 392 655Q422 630 440 584T459 486T450 387L333 397Z" />
<glyph unicode="H" glyph-name="H" horiz-adv-x="539" d="M201 501L202 386L352 395Q352 551 357 726L489 714Q480 555 480 370T491 -3L363 8Q354 94 352 284L205 275Q208 133 214 -14L78 -2Q67 209 67 386T75 692L207 680Q201 591 201 501Z" />
<glyph unicode="I" glyph-name="I" horiz-adv-x="289" d="M233 692Q224 534 224 336T237 -25L102 -13Q89 191 89 355T98 704L233 692Z" />
<glyph unicode="J" glyph-name="J" horiz-adv-x="410" d="M128 229Q124 209 124 178T137 119T173 92Q203 92 216 138T230 240Q230 470 212 701L353 689Q367 509 367 240Q367 150 328 68Q308 25 272 -2T188 -30Q104 -30 53 28T2 174Q2 204 10 241L128 229Z" />
<glyph unicode="K" glyph-name="K" horiz-adv-x="515" d="M67 6Q60 159 60 351T70 679L207 666Q197 542 197 359Q323 566 387 706L513 656Q441 512 318 322Q418 163 511 82L419 -22Q303 91 197 287Q197 104 204 -9L67 6Z" />
<glyph unicode="L" glyph-name="L" horiz-adv-x="388" d="M85 6Q72 212 72 383T83 695L216 683Q201 511 201 354T206 123Q242 128 383 143L403 27Q328 18 191 -3L85 6Z" />
<glyph unicode="M" glyph-name="M" horiz-adv-x="650" d="M56 -6Q48 254 48 386T65 668L253 653Q288 527 327 300Q383 483 426 696L615 679Q623 370 623 228T614 -26L477 -13Q490 113 499 521L491 522Q481 483 459 388Q413 191 370 52L279 60Q255 156 224 308T175
533L167 534Q176 200 188 -18L56 -6Z" />
<glyph unicode="N" glyph-name="N" horiz-adv-x="544" d="M500 704L501 239Q501 124 493 -8L381 3Q252 296 170 442Q171 294 171 -30L54 -17Q51 45 51 103Q51 345 78 667L211 654Q310 381 389 239Q383 541 375 715L500 704Z" />
<glyph unicode="O" glyph-name="O" horiz-adv-x="521" d="M165 -34T100 51T34 311T105 596T274 706T435 620T500 361T428 77T261 -34ZM231 587T199 510T167 315T194 141T263 84T335 162T367 357T341 531T275 587Q231 587 199 510Z" />
<glyph unicode="P" glyph-name="P" horiz-adv-x="465" d="M69 -17Q65 96 65 254T75 678Q159 709 247 709T405 644T475 479T400 307T202 200Q202 88 205 -30L69 -17ZM338 420T338 473T311 559T249 592Q240 592 208 587Q203 446 202 314Q265 334 301 377Z" />
<glyph unicode="Q" glyph-name="Q" horiz-adv-x="521" d="M165 -34T100 51T34 311T105 596T274 706T435 620T500 358T420 65Q458 14 518 -38L389 -86Q355 -44 335 -14Q298 -34 263 -34Q165 -34 100 51ZM231 587T199 510T167 315T194 141T263 84Q268 84 276 86Q255
131 246 176L338 169Q367 251 367 363T341 531T275 587Q231 587 199 510Z" />
<glyph unicode="R" glyph-name="R" horiz-adv-x="525" d="M62 -9Q75 231 75 419T74 666Q184 718 303 718Q391 718 450 662T510 504Q510 386 343 277Q434 163 529 26L433 -45Q370 50 207 265Q204 111 198 -24L62 -9ZM284 368T336 419T388 513T364 578T299 601T211
584Q211 415 210 333Q284 368 336 419Z" />
<glyph unicode="S" glyph-name="S" horiz-adv-x="475" d="M302 437Q315 486 315 519T297 573T251 595T203 567T184 503Q184 433 264 383Q344 331 373 308T414 266Q444 217 444 165Q444 75 384 22T247 -32Q157 -32 96 44Q52 99 15 181L112 228Q135 168 169 127T243
85Q268 85 288 101T308 149T283 210T216 267T151 314T100 362Q47 418 47 505T108 652T253 712T394 647T452 514T426 396L302 437Z" />
<glyph unicode="T" glyph-name="T" horiz-adv-x="387" d="M145 -2Q135 175 135 306T141 581L19 564L-3 680Q95 697 191 705L378 715L397 604Q342 601 273 595Q267 451 267 331T271 -13L145 -2Z" />
<glyph unicode="U" glyph-name="U" horiz-adv-x="539" d="M191 235Q191 183 214 142T268 101T319 129T346 203Q360 284 360 390T347 703L483 689Q497 483 497 409T495 306T487 237T471 164T444 96T404 38Q353 -17 266 -17T116 61T54 235Q54 446 77 685L213 672Q191
453 191 235Z" />
<glyph unicode="V" glyph-name="V" horiz-adv-x="475" d="M21 680L150 668Q188 419 245 189L249 190Q319 459 362 716L494 705Q427 361 295 -6L180 4Q78 365 21 680Z" />
<glyph unicode="W" glyph-name="W" horiz-adv-x="663" d="M299 626L399 617Q406 537 420 406T441 219L446 220Q517 526 538 699L669 688Q613 357 505 8L409 16Q375 134 333 325Q290 119 251 -4L155 4Q70 428 40 692L169 681Q185 512 219 219L224 220Q282 487 299 626Z" />
<glyph unicode="X" glyph-name="X" horiz-adv-x="463" d="M23 35Q87 192 163 336Q84 514 50 667L189 655Q199 581 239 437Q305 571 381 700L478 617Q395 493 306 325Q363 186 452 -8L317 6Q278 95 233 220Q154 50 128 -30L23 35Z" />
<glyph unicode="Y" glyph-name="Y" horiz-adv-x="444" d="M161 191V268Q30 545 16 667L141 655Q163 543 233 387Q316 568 362 714L478 703Q404 492 300 274Q298 184 298 116T302 -21L170 -7Q161 86 161 191Z" />
<glyph unicode="Z" glyph-name="Z" horiz-adv-x="458" d="M193 122Q229 125 288 125T440 111L423 -8Q310 7 249 7T55 -15L39 90Q227 390 315 562Q177 554 74 539L55 656Q178 682 448 685L465 598Q317 316 193 122Z" />
<glyph unicode="[" glyph-name="bracketleft" horiz-adv-x="373" d="M209 -121L366 -112L372 -210Q291 -233 180 -238L65 -227Q77 95 77 308T65 710Q162 724 236 724T349 715L379 615Q327 619 261 619L213 616Q197 351 197 191T209 -121Z" />
<glyph unicode="\" glyph-name="backslash" horiz-adv-x="410" d="M440 -73L340 -83Q320 -36 246 153T113 470T-2 684L86 731Q178 566 274 334Q306 259 364 114T440 -73Z" />
<glyph unicode="]" glyph-name="bracketright" horiz-adv-x="373" d="M185 607L28 598L22 696Q103 719 214 724L329 713Q317 391 317 177T329 -224Q232 -238 158 -238T45 -229L15 -129Q67 -133 133 -133L181 -130Q197 135 197 295T185 607Z" />
<glyph unicode="^" glyph-name="asciicircum" horiz-adv-x="1000" d="M452 742L561 731Q675 551 827 395L692 360Q574 494 500 614Q374 479 307 355L186 391Q266 559 452 742Z" />
<glyph unicode="_" glyph-name="underscore" horiz-adv-x="500" d="M0 -120L260 -112Q409 -112 501 -123L483 -233Q417 -222 270 -222L0 -230V-120Z" />
<glyph unicode="`" glyph-name="grave" horiz-adv-x="500" d="M323 572L278 515Q180 565 85 588L139 677Q210 646 323 572Z" />
<glyph unicode="a" glyph-name="a" horiz-adv-x="390" d="M61 373T103 427T213 482T313 426T346 265T334 -22L250 -15L242 17Q195 -10 146 -10T65 22T33 116T93 221T233 267V294Q233 373 195 373Q176 373 161 347T138 286L46 295Q61 373 103 427ZM135 110Q135
78 173 78Q199 78 228 90L230 174Q183 170 159 151T135 110Z" />
<glyph unicode="b" glyph-name="b" horiz-adv-x="431" d="M305 471Q353 471 376 418T400 293T385 149T336 29T259 -21Q196 -21 155 35Q155 21 157 -5L69 4Q63 124 63 326T74 733L188 723Q176 526 176 365Q243 471 305 471ZM176 194L177 116Q189 99 198 93T225
86Q250 86 269 141T288 247T283 319T259 341Q221 341 176 194Z" />
<glyph unicode="c" glyph-name="c" horiz-adv-x="354" d="M232 256Q234 270 234 292T225 337T202 360Q174 360 162 296T149 177Q149 86 186 86Q216 86 271 191L345 138Q318 65 278 22T180 -21T78 24T32 161Q32 259 64 356Q82 409 117 443T208 477T299 421T336
297Q336 268 327 247L232 256Z" />
<glyph unicode="d" glyph-name="d" horiz-adv-x="410" d="M250 453L251 577Q251 646 248 734L365 724Q367 653 367 467T351 -14L262 -6Q259 34 256 88Q213 2 163 2Q86 2 56 50T26 189T65 379T155 477Q200 477 250 453ZM253 360Q228 379 204 379T161 315T143 180T177
110Q190 110 212 153T252 264L253 360Z" />
<glyph unicode="e" glyph-name="e" horiz-adv-x="367" d="M184 72Q222 72 265 145L341 100Q322 67 305 44T252 0T174 -21Q111 -21 68 32T25 177Q25 281 62 371Q82 418 119 447T196 477T260 465T298 437T324 391T339 342T347 287Q351 239 351 200Q271 178 144 160Q147
120 158 96T184 72ZM206 379Q184 379 167 335T146 233Q199 244 238 254Q238 379 206 379Z" />
<glyph unicode="f" glyph-name="f" horiz-adv-x="287" d="M71 445Q71 580 111 657T215 735T312 671T346 493L253 503Q253 615 218 615Q188 615 188 445V416Q255 421 297 421V328Q228 328 189 323Q189 170 200 -17L83 -5Q75 133 72 307Q46 303 36 300L15 390Q25
393 71 401V445Z" />
<glyph unicode="g" glyph-name="g" horiz-adv-x="404" d="M193 -134Q224 -134 243 -71T262 87Q209 -8 153 -8T62 30T27 147T54 303T120 427T196 474Q259 474 312 423L382 413Q369 348 369 214T362 16T337 -109T287 -206T200 -242T97 -199T18 -94L102 -58Q141 -134
193 -134ZM221 372Q196 372 171 300T145 147Q145 116 153 100T172 84T200 104T236 168T265 265L267 341Q238 372 221 372Z" />
<glyph unicode="h" glyph-name="h" horiz-adv-x="425" d="M181 407Q227 464 271 464T344 434Q393 382 393 302Q393 157 382 -1L266 10Q273 157 273 299Q273 352 246 352Q214 352 177 212Q175 112 167 -15L50 -4Q63 168 63 380T56 721L173 710Q181 569 181 407Z" />
<glyph unicode="i" glyph-name="i" horiz-adv-x="236" d="M69 477L183 466V-14L69 -3V477ZM77 653L189 640L179 528L67 542L77 653Z" />
<glyph unicode="j" glyph-name="j" horiz-adv-x="252" d="M203 -5Q203 -120 164 -182T70 -245Q46 -245 11 -226T-51 -175L-16 -98Q23 -128 42 -128T76 -99T91 -15Q91 326 86 468L194 457Q203 306 203 -5ZM92 653L204 640L194 528L82 542L92 653Z" />
<glyph unicode="k" glyph-name="k" horiz-adv-x="410" d="M63 -8Q59 96 59 300T74 731L191 722Q176 477 176 250Q280 377 332 497L412 427Q367 322 292 219Q370 128 416 49L340 -23Q286 61 176 176Q176 65 180 -19L63 -8Z" />
<glyph unicode="l" glyph-name="l" horiz-adv-x="236" d="M196 722Q181 469 181 266T186 -19L68 -8Q64 96 64 287T79 731L196 722Z" />
<glyph unicode="m" glyph-name="m" horiz-adv-x="647" d="M271 446Q332 446 364 404Q416 480 467 480Q606 480 606 271Q606 153 586 -15L470 -5Q489 182 489 280T457 378Q443 378 424 333T399 233Q397 108 391 10L274 21Q282 162 282 253T257 344Q241 344 216
289T179 172Q180 80 188 -18L71 -7Q60 134 60 250T66 467L149 461Q155 434 166 363Q219 446 271 446Z" />
<glyph unicode="n" glyph-name="n" horiz-adv-x="424" d="M257 476Q389 476 389 256Q389 140 376 10L259 21Q270 135 270 251T237 368Q221 368 196 288T165 130Q167 89 173 -18L56 -7Q45 134 45 241T51 433L125 425Q127 417 140 360Q198 476 257 476Z" />
<glyph unicode="o" glyph-name="o" horiz-adv-x="368" d="M141 180Q141 67 191 67Q213 67 228 130T243 252Q243 380 201 380Q174 380 158 312T141 180ZM24 189Q24 282 62 371Q82 416 118 444T200 473T277 453T327 398Q360 331 360 252Q360 143 316 59T191 -26Q24
-26 24 189Z" />
<glyph unicode="p" glyph-name="p" horiz-adv-x="410" d="M172 405Q212 466 271 466T363 418T396 292Q396 176 347 81T241 -14Q201 -14 172 -4Q174 -142 179 -245L62 -233Q57 -53 57 149T71 499L175 488L172 405ZM202 86Q230 86 254 141T279 251T269 337T246 368Q224
368 208 342T173 267Q172 215 172 107Q187 86 202 86Z" />
<glyph unicode="q" glyph-name="q" horiz-adv-x="402" d="M373 442Q355 311 355 90T361 -239L244 -228Q238 -129 238 15Q200 -14 165 -14Q107 -14 68 38T28 173Q28 295 69 385T175 475T294 400Q302 427 305 449L373 442ZM180 79Q197 79 213 105T240 162Q242 237
248 323Q243 345 231 359T204 373Q180 373 163 313T145 198T155 112T180 79Z" />
<glyph unicode="r" glyph-name="r" horiz-adv-x="301" d="M239 361Q197 361 176 255Q178 185 178 121T174 -23L58 -13Q61 134 61 149Q61 334 43 432L118 424Q125 395 134 373Q183 478 233 478Q274 478 305 442L279 350Q263 361 239 361Z" />
<glyph unicode="s" glyph-name="s" horiz-adv-x="347" d="M237 315Q237 375 207 375Q192 375 180 361T167 322T176 281T211 250T251 225T286 198Q327 162 327 106T285 14T189 -21T94 7T25 79L79 140Q119 71 163 71Q178 71 189 79T200 103Q200 135 154 162Q105
189 77 222T49 315T99 424T206 473T297 434T331 327Q331 300 325 269L234 277Q237 300 237 315Z" />
<glyph unicode="t" glyph-name="t" horiz-adv-x="287" d="M285 418V323Q237 323 211 322Q208 222 208 -14L90 -3Q90 172 93 314Q78 314 36 309L21 391Q45 396 96 404Q98 478 104 620L223 609Q217 510 214 417Q239 418 285 418Z" />
<glyph unicode="u" glyph-name="u" horiz-adv-x="420" d="M378 469L376 311Q376 88 384 -17L285 -7Q282 35 272 78Q217 -3 162 -3T73 35T40 140Q40 270 59 450L175 439Q157 268 157 155Q157 104 189 104Q204 104 225 145T260 244Q259 266 259 296T262 479L378 469Z" />
<glyph unicode="v" glyph-name="v" horiz-adv-x="366" d="M238 -16L110 -4Q36 294 20 463L134 453Q151 269 181 123Q222 273 268 500L376 491Q319 228 238 -16Z" />
<glyph unicode="w" glyph-name="w" horiz-adv-x="516" d="M399 -12L305 -4Q280 106 260 200Q235 111 194 -15L90 -4Q29 294 15 463L129 452Q145 233 161 118Q197 260 233 444L310 437Q322 276 347 143Q382 280 424 499L532 489Q488 278 399 -12Z" />
<glyph unicode="x" glyph-name="x" horiz-adv-x="368" d="M113 -29L7 2Q53 109 123 228Q63 339 39 475L150 464Q164 394 191 320Q251 416 278 497L364 455Q329 346 241 232Q285 129 353 49L278 -22Q221 52 179 140Q130 23 113 -29Z" />
<glyph unicode="y" glyph-name="y" horiz-adv-x="376" d="M287 501L383 445Q300 188 213 -237L103 -227Q119 -148 156 -9Q60 175 35 455L147 444Q162 260 195 130Q241 344 287 501Z" />
<glyph unicode="z" glyph-name="z" horiz-adv-x="344" d="M55 461Q135 477 202 477T310 474L326 382Q238 259 152 104H200Q265 104 328 97L315 5Q253 11 203 11T62 -4L44 99Q157 308 211 381Q125 374 74 362L55 461Z" />
<glyph unicode="{" glyph-name="braceleft" horiz-adv-x="500" d="M273 121Q273 95 262 42T251 -34Q251 -74 279 -98T360 -130L340 -245Q241 -240 181 -185T121 -49Q121 -21 132 33T143 116Q143 178 67 180L52 289Q104 290 123 310T143 360T135 441T126 518Q126
608 197 668T385 734V634Q317 623 287 590T256 498Q256 479 264 435T273 368Q273 292 187 245Q273 198 273 121Z" />
<glyph unicode="|" glyph-name="bar" horiz-adv-x="500" d="M284 760L292 210Q292 -71 281 -245L201 -238Q212 -72 212 200L204 760H284Z" />
<glyph unicode="}" glyph-name="braceright" horiz-adv-x="500" d="M144 368Q144 394 155 447T166 523Q166 563 138 587T57 619L77 734Q176 729 236 674T296 538Q296 510 285 456T274 374Q274 311 350 309L365 200Q313 199 294 179T274 129T282 48T291 -29Q291
-119 220 -179T32 -245V-145Q100 -134 130 -101T161 -9Q161 10 153 54T144 121Q144 197 230 244Q144 291 144 368Z" />
<glyph unicode="~" glyph-name="asciitilde" horiz-adv-x="833" d="M97 279T151 335T265 392T404 371T520 350Q608 350 660 407L748 400Q734 317 679 271T538 224Q476 224 396 249T284 274T229 253T197 203L85 214Q97 279 151 335Z" />
<glyph unicode="&#xa0;" glyph-name="nbspace" horiz-adv-x="484" />
<glyph unicode="&#xa1;" glyph-name="exclamdown" horiz-adv-x="278" d="M185 512Q203 363 203 241T184 -23L38 5Q88 199 105 522L185 512ZM90 574Q79 594 79 644T95 731L214 708Q204 671 204 631T206 562L90 574Z" />
<glyph unicode="&#xa2;" glyph-name="cent" horiz-adv-x="484" d="M303 354Q305 368 305 390T295 435T268 458Q240 458 228 394T215 275Q215 184 252 184Q282 184 337 289L411 236Q368 120 302 88Q301 37 291 -26L191 -17Q200 43 201 85Q155 101 127 144T98 249T107
368T144 484T217 564Q214 624 214 682L314 674Q314 645 318 563Q360 543 383 495T407 403T398 345L303 354Z" />
<glyph unicode="&#xa3;" glyph-name="sterling" horiz-adv-x="484" d="M333 654Q394 654 428 601T463 466Q463 440 457 406L359 416Q363 446 363 466Q363 544 328 544Q285 544 263 343L261 329Q334 334 400 334L414 239Q305 239 246 237Q227 154 184 101Q339 122
477 123L487 13Q223 11 63 -21L17 80Q66 107 90 140T128 231Q81 228 45 222L23 300Q95 311 140 317L143 353Q166 654 333 654Z" />
<glyph unicode="&#xa4;" glyph-name="currency" horiz-adv-x="606" d="M20 232L104 322Q91 357 91 416T117 535Q46 610 7 658L103 720Q145 671 188 626Q239 663 306 663T418 634Q472 682 524 722L596 625Q547 589 490 539Q507 494 507 440T486 334L591 229L506
144Q448 206 414 240Q362 204 295 204T180 230L95 147L20 232ZM261 570T235 516T208 406T233 323T291 297Q339 297 364 347T390 448T371 534T307 570Z" />
<glyph unicode="&#xa5;" glyph-name="yen" horiz-adv-x="481" d="M171 191V219Q102 214 45 207L33 275L151 287L130 327Q94 323 45 314L33 382L99 391Q26 547 16 627L136 615Q159 514 233 367Q294 508 347 674L458 663Q417 541 364 415Q382 416 420 416L424 341Q363
341 331 340L311 297Q381 299 420 299L424 224Q337 224 289 223Q288 193 288 121T292 -21L180 -7Q171 55 171 191Z" />
<glyph unicode="&#xa6;" glyph-name="brokenbar" horiz-adv-x="500" d="M284 760Q284 667 290 421L209 426Q204 701 204 760H284ZM212 140L292 133Q290 -89 281 -245L201 -238Q210 -101 212 140Z" />
<glyph unicode="&#xa7;" glyph-name="section" horiz-adv-x="520" d="M133 132T85 183T37 307T88 435Q47 482 47 538Q47 631 110 685T255 740T394 675T452 549T426 444L302 485Q315 522 315 550T298 601T254 623T206 600T184 537T271 458T406 367T454 249Q454
163 404 106Q444 63 444 11Q444 -87 384 -139T240 -192Q157 -192 96 -122Q46 -65 15 1L112 48Q184 -75 240 -75Q268 -75 288 -60T308 -14Q308 36 221 84ZM328 244Q328 302 214 346Q188 356 176 363Q164 332 164 302Q164 246 264 203Q294 189 307 182Q328 206 328
244Z" />
<glyph unicode="&#xa8;" glyph-name="dieresis" horiz-adv-x="500" d="M213 649Q224 633 224 591T210 527L115 537Q124 586 124 612T123 657L213 649ZM368 651Q379 635 379 593T365 529L270 539Q279 588 279 614T278 659L368 651Z" />
<glyph unicode="&#xa9;" glyph-name="copyright" horiz-adv-x="746" d="M696 382Q696 280 657 190T542 43T369 -14Q232 -14 141 71T50 331T147 616T380 726T606 640T696 382ZM369 72Q438 72 488 116Q588 203 588 385Q588 513 530 576T381 639T224 553T158 333T218
136T369 72ZM401 491T379 491T341 431T324 320Q324 229 369 229Q398 229 414 299L519 291Q502 219 467 181T364 143T255 191T215 305T231 428T287 531T385 577Q417 577 440 565T476 535T496 490Q505 454 507 388L401 398Q401 491 379 491Z" />
<glyph unicode="&#xaa;" glyph-name="ordfeminine" horiz-adv-x="293" d="M39 635T71 673T155 712T233 672T258 570T250 358L176 362L170 385Q141 366 105 366T44 389T18 454T62 528T164 561V579Q164 625 143 625T112 574L27 580Q39 635 71 673ZM110 455Q110 438
126 438T160 446L162 485Q137 483 124 474T110 455Z" />
<glyph unicode="&#xab;" glyph-name="guillemotleft" horiz-adv-x="478" d="M145 425L250 400Q214 310 156 218Q202 113 255 45L159 4Q92 81 28 222Q105 329 145 425ZM345 425L450 400Q414 310 356 218Q402 113 455 45L359 4Q292 81 228 222Q305 329 345 425Z" />
<glyph unicode="&#xac;" glyph-name="logicalnot" horiz-adv-x="833" d="M123 423L479 431Q616 431 700 420Q710 356 710 283T700 173L580 183Q588 220 588 253V319Q524 321 489 321L123 313V423Z" />
<glyph unicode="&#xad;" glyph-name="sfthyphen" horiz-adv-x="324" d="M34 274L228 283Q258 283 283 280L287 172Q257 175 228 175L46 166L34 274Z" />
<glyph unicode="&#xae;" glyph-name="registered" horiz-adv-x="746" d="M696 382Q696 280 657 190T542 43T369 -14Q232 -14 141 71T50 331T147 616T380 726T606 640T696 382ZM369 72Q438 72 488 116Q588 203 588 385Q588 513 530 576T381 639T224 553T158 333T218
136T369 72ZM234 164Q242 352 242 433T241 548Q313 577 381 577T489 545T529 456Q529 388 434 327Q482 265 530 194L456 143Q440 169 347 300Q346 249 342 155L234 164ZM383 378T406 407T430 456Q430 491 392 491Q371 491 348 481Q348 460 348 419T349 358Q383
378 406 407Z" />
<glyph unicode="&#xaf;" glyph-name="overscore" horiz-adv-x="403" d="M45 635L259 644Q310 644 354 641L358 543Q310 546 259 546L57 537L45 635Z" />
<glyph unicode="&#xb0;" glyph-name="degree" horiz-adv-x="329" d="M95 519T111 503T159 487T212 516T234 578T218 625T169 640T116 612T95 552ZM317 516T271 464T158 411T52 448T12 549T58 664T171 716T277 679T317 579Z" />
<glyph unicode="&#xb1;" glyph-name="plusminus" horiz-adv-x="833" d="M704 340Q651 345 600 345T478 343Q478 269 483 179L343 188Q338 273 338 335Q150 324 127 323L121 443Q237 446 339 456Q344 548 354 623L494 611Q483 538 480 463Q550 465 608 465T718
460L704 340ZM123 105L479 113Q628 113 720 102L702 -18Q621 -7 489 -7L123 -15V105Z" />
<glyph unicode="&#xb2;" glyph-name="twosuperior" horiz-adv-x="364" d="M262 640T290 610T319 535Q319 467 197 338Q231 340 306 340L299 252Q266 255 217 255T83 237L45 311Q111 360 168 430T225 526T209 552Q190 552 118 471L52 529Q93 577 117 600Q162 640 212 640Z" />
<glyph unicode="&#xb3;" glyph-name="threesuperior" horiz-adv-x="324" d="M171 637Q213 637 246 609T279 542Q279 485 205 446Q237 440 254 420T272 369Q272 308 224 276T112 243Q77 243 55 249L46 331Q70 329 94 329T146 339T173 367T161 394T123 405T81 396L54
460Q115 478 150 502T185 542T171 559Q138 559 89 523L45 589Q110 637 171 637Z" />
<glyph unicode="&#xb4;" glyph-name="acute" horiz-adv-x="500" d="M230 515L185 572Q298 646 369 677L423 588Q328 565 230 515Z" />
<glyph unicode="&#xb5;" glyph-name="mu" horiz-adv-x="420" d="M378 469L376 311Q376 88 384 -17L285 -7Q282 35 272 78Q217 -3 165 -3Q157 -3 145 -1Q139 -74 135 -244L27 -235Q32 -97 53 68Q40 97 40 140Q40 270 59 450L175 439Q157 268 157 155Q157 104 189
104Q204 104 225 145T260 244Q259 266 259 296T262 479L378 469Z" />
<glyph unicode="&#xb6;" glyph-name="paragraph" horiz-adv-x="500" d="M268 650Q276 402 276 257T265 -10L185 -3Q196 112 196 237T195 393Q175 387 129 387T48 426T13 521Q13 734 295 734Q393 734 496 724L482 648Q475 649 425 652Q425 637 428 521T432 265T421
-5L341 2Q352 124 352 320Q352 333 344 653Q270 650 268 650Z" />
<glyph unicode="&#xb7;" glyph-name="middot" horiz-adv-x="260" d="M188 399Q199 364 199 310T185 219L50 230Q59 307 59 347T58 411L188 399Z" />
<glyph unicode="&#xb8;" glyph-name="cedilla" horiz-adv-x="500" d="M267 -6Q267 -41 275 -65Q287 -62 298 -62Q332 -62 357 -83T383 -144T350 -208T248 -232T122 -189L140 -144Q209 -181 255 -181Q272 -181 284 -174T297 -154T287 -133T263 -125T234 -132L206
-129Q207 -63 232 -6H267Z" />
<glyph unicode="&#xb9;" glyph-name="onesuperior" horiz-adv-x="274" d="M229 635Q217 561 217 454T225 245L125 253Q121 308 121 379T125 505L101 472L45 511Q89 564 135 643L229 635Z" />
<glyph unicode="&#xba;" glyph-name="ordmasculine" horiz-adv-x="276" d="M114 504Q114 444 139 444Q150 444 158 482T166 573T146 626Q132 626 123 585T114 504ZM16 511Q16 615 70 676Q101 712 146 712Q208 712 236 665T264 548T231 419T139 359Q16 359 16 511Z" />
<glyph unicode="&#xbb;" glyph-name="guillemotright" horiz-adv-x="478" d="M128 4L23 29Q59 119 117 211Q71 316 18 384L114 425Q181 348 245 207Q168 100 128 4ZM325 4L220 29Q256 119 314 211Q268 316 215 384L311 425Q378 348 442 207Q365 100 325 4Z" />
<glyph unicode="&#xbc;" glyph-name="onequarter" horiz-adv-x="771" d="M588 89Q579 89 518 82L429 129Q429 143 484 241T570 374L696 363Q681 261 679 166L726 162L718 88H678Q678 11 680 -25L591 -17Q588 16 588 89ZM536 162Q568 166 588 166Q593 248 602 282Q561
217 536 162ZM198 -23L121 6Q371 442 575 666L639 626Q523 496 420 342T198 -23ZM229 635Q217 561 217 454T225 245L125 253Q121 308 121 379T125 505L101 472L45 511Q89 564 135 643L229 635Z" />
<glyph unicode="&#xbd;" glyph-name="onehalf" horiz-adv-x="793" d="M198 -23L121 6Q371 442 575 666L639 626Q523 496 420 342T198 -23ZM229 635Q217 561 217 454T225 245L125 253Q121 308 121 379T125 505L101 472L45 511Q89 564 135 643L229 635ZM691 373T719
343T748 268Q748 200 626 71Q660 73 735 73L728 -15Q695 -12 646 -12T512 -30L474 44Q540 93 597 163T654 259T638 285Q619 285 547 204L481 262Q522 310 546 333Q591 373 641 373Z" />
<glyph unicode="&#xbe;" glyph-name="threequarters" horiz-adv-x="782" d="M599 89Q590 89 529 82L440 129Q440 143 495 241T581 374L707 363Q692 261 690 166L737 162L729 88H689Q689 11 691 -25L602 -17Q599 16 599 89ZM547 162Q579 166 599 166Q604 248 613
282Q572 217 547 162ZM209 -23L132 6Q382 442 586 666L650 626Q534 496 431 342T209 -23ZM171 637Q213 637 246 609T279 542Q279 485 205 446Q237 440 254 420T272 369Q272 308 224 276T112 243Q77 243 55 249L46 331Q70 329 94 329T146 339T173 367T161 394T123
405T81 396L54 460Q115 478 150 502T185 542T171 559Q138 559 89 523L45 589Q110 637 171 637Z" />
<glyph unicode="&#xbf;" glyph-name="questiondown" horiz-adv-x="419" d="M189 -23Q112 -23 68 26T24 151Q24 186 37 210T57 246T82 278T108 308Q142 345 171 374Q216 422 216 460Q216 474 211 491L296 481Q328 459 328 429T308 367T262 306T217 255T188 222T166
194Q144 164 144 144T156 110T189 97Q236 97 337 196L429 116Q298 -23 189 -23ZM204 543Q193 563 193 613T209 700L328 677Q318 640 318 600T320 531L204 543Z" />
<glyph unicode="&#xc0;" glyph-name="Agrave" horiz-adv-x="516" d="M353 10L330 149L181 143L143 -45L3 -33L182 692L367 676L498 -2L353 10ZM265 561L202 250L314 254L265 561ZM337 823L292 766Q194 816 99 839L153 928Q224 897 337 823Z" />
<glyph unicode="&#xc1;" glyph-name="Aacute" horiz-adv-x="516" d="M353 10L330 149L181 143L143 -45L3 -33L182 692L367 676L498 -2L353 10ZM265 561L202 250L314 254L265 561ZM244 766L199 823Q312 897 383 928L437 839Q342 816 244 766Z" />
<glyph unicode="&#xc2;" glyph-name="Acircumflex" horiz-adv-x="516" d="M353 10L330 149L181 143L143 -45L3 -33L182 692L367 676L498 -2L353 10ZM265 561L202 250L314 254L265 561ZM237 923L305 918Q336 888 406 803L348 759Q296 805 267 829Q217 794 167 750L109
793Q181 874 237 923Z" />
<glyph unicode="&#xc3;" glyph-name="Atilde" horiz-adv-x="516" d="M353 10L330 149L181 143L143 -45L3 -33L182 692L367 676L498 -2L353 10ZM265 561L202 250L314 254L265 561ZM416 857T387 822T329 786T271 795T223 804T179 781L119 813Q159 898 212 898Q232
898 262 884T307 870Q335 870 359 902L419 897Q416 857 387 822Z" />
<glyph unicode="&#xc4;" glyph-name="Adieresis" horiz-adv-x="516" d="M353 10L330 149L181 143L143 -45L3 -33L182 692L367 676L498 -2L353 10ZM265 561L202 250L314 254L265 561ZM227 900Q238 884 238 842T224 778L129 788Q138 838 138 864T137 908L227 900ZM382
902Q393 886 393 844T379 780L284 790Q293 840 293 866T292 910L382 902Z" />
<glyph unicode="&#xc5;" glyph-name="Aring" horiz-adv-x="516" d="M353 10L330 149L181 143L143 -45L3 -33L182 692L367 676L498 -2L353 10ZM265 561L202 250L314 254L265 561ZM233 806T244 795T275 783T310 802T325 844T314 877T283 888T248 869T233 828ZM395
802T360 765T275 728T194 754T163 825T198 906T283 943T364 917T395 846Z" />
<glyph unicode="&#xc6;" glyph-name="AE" horiz-adv-x="667" d="M669 688V565Q556 565 459 558Q455 446 454 386Q530 397 634 399L653 289Q586 288 452 274Q452 154 453 101Q540 108 661 131L678 21Q593 -18 477 -18L323 -4Q321 48 319 148L202 143L143 -45L3
-33L232 691L427 674Q549 688 669 688ZM325 561L230 250L319 254Q319 385 327 539L325 561Z" />
<glyph unicode="&#xc7;" glyph-name="Ccedilla" horiz-adv-x="482" d="M269 575Q225 575 192 467T159 274Q159 98 251 98Q277 98 296 120T324 167T345 233L472 223Q446 102 396 38T257 -30Q259 -48 265 -65Q277 -62 288 -62Q322 -62 347 -83T373 -144T340 -208T238
-232T112 -189L130 -144Q199 -181 245 -181Q262 -181 274 -174T287 -154T277 -133T253 -125T224 -132L196 -129Q197 -71 213 -27Q122 -13 74 66T26 259Q26 406 84 545Q112 614 162 658T278 703Q358 703 394 650Q412 624 423 597T440 528Q449 461 451 384L322 396Q322
525 298 558Q287 575 269 575Z" />
<glyph unicode="&#xc8;" glyph-name="Egrave" horiz-adv-x="447" d="M75 -4Q71 154 71 295T87 662Q258 688 421 688V565Q308 565 211 558Q207 446 206 386Q282 397 386 399L405 289Q338 288 204 274Q204 154 205 101Q292 108 413 131L430 21Q345 -18 229 -18L75
-4ZM309 823L264 766Q166 816 71 839L125 928Q196 897 309 823Z" />
<glyph unicode="&#xc9;" glyph-name="Eacute" horiz-adv-x="447" d="M75 -4Q71 154 71 295T87 662Q258 688 421 688V565Q308 565 211 558Q207 446 206 386Q282 397 386 399L405 289Q338 288 204 274Q204 154 205 101Q292 108 413 131L430 21Q345 -18 229 -18L75
-4ZM216 766L171 823Q284 897 355 928L409 839Q314 816 216 766Z" />
<glyph unicode="&#xca;" glyph-name="Ecircumflex" horiz-adv-x="447" d="M75 -4Q71 154 71 295T87 662Q258 688 421 688V565Q308 565 211 558Q207 446 206 386Q282 397 386 399L405 289Q338 288 204 274Q204 154 205 101Q292 108 413 131L430 21Q345 -18 229
-18L75 -4ZM239 923L307 918Q338 888 408 803L350 759Q298 805 269 829Q219 794 169 750L111 793Q183 874 239 923Z" />
<glyph unicode="&#xcb;" glyph-name="Edieresis" horiz-adv-x="447" d="M75 -4Q71 154 71 295T87 662Q258 688 421 688V565Q308 565 211 558Q207 446 206 386Q282 397 386 399L405 289Q338 288 204 274Q204 154 205 101Q292 108 413 131L430 21Q345 -18 229 -18L75
-4ZM229 900Q240 884 240 842T226 778L131 788Q140 838 140 864T139 908L229 900ZM384 902Q395 886 395 844T381 780L286 790Q295 840 295 866T294 910L384 902Z" />
<glyph unicode="&#xcc;" glyph-name="Igrave" horiz-adv-x="289" d="M233 692Q224 534 224 336T237 -25L102 -13Q89 191 89 355T98 704L233 692ZM226 823L181 766Q83 816 -12 839L42 928Q113 897 226 823Z" />
<glyph unicode="&#xcd;" glyph-name="Iacute" horiz-adv-x="289" d="M233 692Q224 534 224 336T237 -25L102 -13Q89 191 89 355T98 704L233 692ZM133 766L88 823Q201 897 272 928L326 839Q231 816 133 766Z" />
<glyph unicode="&#xce;" glyph-name="Icircumflex" horiz-adv-x="289" d="M233 692Q224 534 224 336T237 -25L102 -13Q89 191 89 355T98 704L233 692ZM146 923L214 918Q245 888 315 803L257 759Q205 805 176 829Q126 794 76 750L18 793Q90 874 146 923Z" />
<glyph unicode="&#xcf;" glyph-name="Idieresis" horiz-adv-x="289" d="M233 692Q224 534 224 336T237 -25L102 -13Q89 191 89 355T98 704L233 692ZM136 900Q147 884 147 842T133 778L38 788Q47 838 47 864T46 908L136 900ZM291 902Q302 886 302 844T288 780L193
790Q202 840 202 866T201 910L291 902Z" />
<glyph unicode="&#xd0;" glyph-name="Eth" horiz-adv-x="512" d="M238 701Q355 701 418 609T482 386Q482 285 450 196T350 46T191 -15Q173 -15 55 -1Q65 158 68 289Q53 288 24 288L12 396Q50 396 69 397Q68 531 60 667Q157 701 238 701ZM216 107Q262 107 307 188T353
364T321 520T243 581Q217 581 196 573L202 405Q246 405 281 402L285 294Q246 297 202 297Q200 200 196 115Q203 107 216 107Z" />
<glyph unicode="&#xd1;" glyph-name="Ntilde" horiz-adv-x="544" d="M500 704L501 239Q501 124 493 -8L381 3Q252 296 170 442Q171 294 171 -30L54 -17Q51 45 51 103Q51 345 78 667L211 654Q310 381 389 239Q383 541 375 715L500 704ZM430 857T401 822T343 786T285
795T237 804T193 781L133 813Q173 898 226 898Q246 898 276 884T321 870Q349 870 373 902L433 897Q430 857 401 822Z" />
<glyph unicode="&#xd2;" glyph-name="Ograve" horiz-adv-x="521" d="M165 -34T100 51T34 311T105 596T274 706T435 620T500 361T428 77T261 -34ZM231 587T199 510T167 315T194 141T263 84T335 162T367 357T341 531T275 587Q231 587 199 510ZM341 823L296 766Q198
816 103 839L157 928Q228 897 341 823Z" />
<glyph unicode="&#xd3;" glyph-name="Oacute" horiz-adv-x="521" d="M165 -34T100 51T34 311T105 596T274 706T435 620T500 361T428 77T261 -34ZM231 587T199 510T167 315T194 141T263 84T335 162T367 357T341 531T275 587Q231 587 199 510ZM248 766L203 823Q316
897 387 928L441 839Q346 816 248 766Z" />
<glyph unicode="&#xd4;" glyph-name="Ocircumflex" horiz-adv-x="521" d="M165 -34T100 51T34 311T105 596T274 706T435 620T500 361T428 77T261 -34ZM231 587T199 510T167 315T194 141T263 84T335 162T367 357T341 531T275 587Q231 587 199 510ZM251 923L319
918Q350 888 420 803L362 759Q310 805 281 829Q231 794 181 750L123 793Q195 874 251 923Z" />
<glyph unicode="&#xd5;" glyph-name="Otilde" horiz-adv-x="521" d="M165 -34T100 51T34 311T105 596T274 706T435 620T500 361T428 77T261 -34ZM231 587T199 510T167 315T194 141T263 84T335 162T367 357T341 531T275 587Q231 587 199 510ZM420 857T391 822T333
786T275 795T227 804T183 781L123 813Q163 898 216 898Q236 898 266 884T311 870Q339 870 363 902L423 897Q420 857 391 822Z" />
<glyph unicode="&#xd6;" glyph-name="Odieresis" horiz-adv-x="521" d="M165 -34T100 51T34 311T105 596T274 706T435 620T500 361T428 77T261 -34ZM231 587T199 510T167 315T194 141T263 84T335 162T367 357T341 531T275 587Q231 587 199 510ZM231 900Q242 884
242 842T228 778L133 788Q142 838 142 864T141 908L231 900ZM386 902Q397 886 397 844T383 780L288 790Q297 840 297 866T296 910L386 902Z" />
<glyph unicode="&#xd7;" glyph-name="multiply" horiz-adv-x="833" d="M142 96Q290 253 336 301Q200 437 129 522L225 584Q303 494 417 382Q546 510 646 586L718 489Q619 415 503 299Q647 161 713 93L628 8Q559 83 422 217Q267 57 217 11L142 96Z" />
<glyph unicode="&#xd8;" glyph-name="Oslash" horiz-adv-x="521" d="M34 310Q34 486 105 596T274 706T433 622Q481 678 525 726L589 686Q530 621 471 550Q500 471 500 362Q500 188 428 77T259 -34T99 52Q32 -52 8 -93L-69 -64L61 126Q34 204 34 310ZM263 80Q305
80 338 159T371 362Q371 399 368 429Q268 305 179 173Q192 127 214 104T263 80ZM163 310Q163 277 164 262Q264 401 352 512Q326 591 275 591Q230 591 197 513T163 310Z" />
<glyph unicode="&#xd9;" glyph-name="Ugrave" horiz-adv-x="539" d="M191 235Q191 183 214 142T268 101T319 129T346 203Q360 284 360 390T347 703L483 689Q497 483 497 409T495 306T487 237T471 164T444 96T404 38Q353 -17 266 -17T116 61T54 235Q54 446 77 685L213
672Q191 453 191 235ZM349 823L304 766Q206 816 111 839L165 928Q236 897 349 823Z" />
<glyph unicode="&#xda;" glyph-name="Uacute" horiz-adv-x="539" d="M191 235Q191 183 214 142T268 101T319 129T346 203Q360 284 360 390T347 703L483 689Q497 483 497 409T495 306T487 237T471 164T444 96T404 38Q353 -17 266 -17T116 61T54 235Q54 446 77 685L213
672Q191 453 191 235ZM256 766L211 823Q324 897 395 928L449 839Q354 816 256 766Z" />
<glyph unicode="&#xdb;" glyph-name="Ucircumflex" horiz-adv-x="539" d="M191 235Q191 183 214 142T268 101T319 129T346 203Q360 284 360 390T347 703L483 689Q497 483 497 409T495 306T487 237T471 164T444 96T404 38Q353 -17 266 -17T116 61T54 235Q54 446
77 685L213 672Q191 453 191 235ZM249 923L317 918Q348 888 418 803L360 759Q308 805 279 829Q229 794 179 750L121 793Q193 874 249 923Z" />
<glyph unicode="&#xdc;" glyph-name="Udieresis" horiz-adv-x="539" d="M191 235Q191 183 214 142T268 101T319 129T346 203Q360 284 360 390T347 703L483 689Q497 483 497 409T495 306T487 237T471 164T444 96T404 38Q353 -17 266 -17T116 61T54 235Q54 446 77
685L213 672Q191 453 191 235ZM249 900Q260 884 260 842T246 778L151 788Q160 838 160 864T159 908L249 900ZM404 902Q415 886 415 844T401 780L306 790Q315 840 315 866T314 910L404 902Z" />
<glyph unicode="&#xdd;" glyph-name="Yacute" horiz-adv-x="444" d="M161 191V268Q30 545 16 667L141 655Q163 543 233 387Q316 568 362 714L478 703Q404 492 300 274Q298 184 298 116T302 -21L170 -7Q161 86 161 191ZM210 766L165 823Q278 897 349 928L403 839Q308
816 210 766Z" />
<glyph unicode="&#xde;" glyph-name="Thorn" horiz-adv-x="465" d="M249 594Q336 594 405 529T475 364T402 192T212 85Q212 70 212 63T217 -25L82 -13Q69 191 69 355T78 704L213 692Q209 643 207 591Q228 594 249 594ZM249 477Q228 477 204 465Q203 427 203 363T205
200Q266 220 302 263T338 358T311 444T249 477Z" />
<glyph unicode="&#xdf;" glyph-name="germandbls" horiz-adv-x="475" d="M72 307Q40 302 36 300L15 390Q25 393 71 401V445Q71 580 117 657T240 735T361 675T406 513Q406 459 354 382Q337 356 337 346Q337 307 366 276Q431 211 442 172Q447 152 447 130Q447 59
411 19T327 -21Q260 -21 225 19L269 90Q283 81 298 81T321 92T330 123Q330 159 308 178T276 207T252 235Q224 270 224 322T261 428T298 508Q298 561 282 593T238 625Q213 625 198 577T183 445Q183 178 189 93T195 -17L83 -5Q75 133 72 307Z" />
<glyph unicode="&#xe0;" glyph-name="agrave" horiz-adv-x="390" d="M61 373T103 427T213 482T313 426T346 265T334 -22L250 -15L242 17Q195 -10 146 -10T65 22T33 116T93 221T233 267V294Q233 373 195 373Q176 373 161 347T138 286L46 295Q61 373 103 427ZM135
110Q135 78 173 78Q199 78 228 90L230 174Q183 170 159 151T135 110ZM287 572L242 515Q144 565 49 588L103 677Q174 646 287 572Z" />
<glyph unicode="&#xe1;" glyph-name="aacute" horiz-adv-x="390" d="M61 373T103 427T213 482T313 426T346 265T334 -22L250 -15L242 17Q195 -10 146 -10T65 22T33 116T93 221T233 267V294Q233 373 195 373Q176 373 161 347T138 286L46 295Q61 373 103 427ZM135
110Q135 78 173 78Q199 78 228 90L230 174Q183 170 159 151T135 110ZM194 515L149 572Q262 646 333 677L387 588Q292 565 194 515Z" />
<glyph unicode="&#xe2;" glyph-name="acircumflex" horiz-adv-x="390" d="M61 373T103 427T213 482T313 426T346 265T334 -22L250 -15L242 17Q195 -10 146 -10T65 22T33 116T93 221T233 267V294Q233 373 195 373Q176 373 161 347T138 286L46 295Q61 373 103 427ZM135
110Q135 78 173 78Q199 78 228 90L230 174Q183 170 159 151T135 110ZM187 672L255 667Q286 637 356 552L298 508Q246 554 217 578Q167 543 117 499L59 542Q131 623 187 672Z" />
<glyph unicode="&#xe3;" glyph-name="atilde" horiz-adv-x="390" d="M61 373T103 427T213 482T313 426T346 265T334 -22L250 -15L242 17Q195 -10 146 -10T65 22T33 116T93 221T233 267V294Q233 373 195 373Q176 373 161 347T138 286L46 295Q61 373 103 427ZM135
110Q135 78 173 78Q199 78 228 90L230 174Q183 170 159 151T135 110ZM366 606T337 571T279 535T221 544T173 553T129 530L69 562Q109 647 162 647Q182 647 212 633T257 619Q285 619 309 651L369 646Q366 606 337 571Z" />
<glyph unicode="&#xe4;" glyph-name="adieresis" horiz-adv-x="390" d="M61 373T103 427T213 482T313 426T346 265T334 -22L250 -15L242 17Q195 -10 146 -10T65 22T33 116T93 221T233 267V294Q233 373 195 373Q176 373 161 347T138 286L46 295Q61 373 103 427ZM135
110Q135 78 173 78Q199 78 228 90L230 174Q183 170 159 151T135 110ZM177 649Q188 633 188 591T174 527L79 537Q88 586 88 612T87 657L177 649ZM332 651Q343 635 343 593T329 529L234 539Q243 588 243 614T242 659L332 651Z" />
<glyph unicode="&#xe5;" glyph-name="aring" horiz-adv-x="391" d="M61 373T103 427T213 482T313 426T346 265T334 -22L250 -15L242 17Q195 -10 146 -10T65 22T33 116T93 221T233 267V294Q233 373 195 373Q176 373 161 347T138 286L46 295Q61 373 103 427ZM135
110Q135 78 173 78Q199 78 228 90L230 174Q183 170 159 151T135 110ZM169 589T180 578T211 566T246 585T261 627T250 660T219 671T184 652T169 611ZM331 585T296 548T211 511T130 537T99 608T134 689T219 726T300 700T331 629Z" />
<glyph unicode="&#xe6;" glyph-name="ae" horiz-adv-x="544" d="M61 373T103 427T205 482T301 437Q341 477 399 477Q454 477 492 436Q516 410 532 342Q544 293 544 200Q464 178 337 160Q340 120 351 96T377 72Q415 72 458 145L534 100Q515 67 498 44T445 0T361
-21T273 24Q230 -10 164 -10T65 22T33 116T93 221T233 267V294Q233 373 195 373Q176 373 161 347T138 286L46 295Q61 373 103 427ZM399 379Q377 379 360 335T339 233Q392 244 431 254Q431 379 399 379ZM135 110Q135 78 173 78Q199 78 228 90L230 174Q183 170 159
151T135 110Z" />
<glyph unicode="&#xe7;" glyph-name="ccedilla" horiz-adv-x="354" d="M232 256Q234 270 234 292T225 337T202 360Q174 360 162 296T149 177Q149 86 186 86Q216 86 271 191L345 138Q289 -14 194 -21Q194 -41 202 -65Q214 -62 225 -62Q259 -62 284 -83T310 -144T277
-208T175 -232T49 -189L67 -144Q136 -181 182 -181Q199 -181 211 -174T224 -154T214 -133T190 -125T161 -132L133 -129Q134 -65 154 -18Q101 -7 67 37T32 161Q32 259 64 356Q82 409 117 443T208 477T299 421T336 297Q336 268 327 247L232 256Z" />
<glyph unicode="&#xe8;" glyph-name="egrave" horiz-adv-x="367" d="M184 72Q222 72 265 145L341 100Q322 67 305 44T252 0T174 -21Q111 -21 68 32T25 177Q25 281 62 371Q82 418 119 447T196 477T260 465T298 437T324 391T339 342T347 287Q351 239 351 200Q271
178 144 160Q147 120 158 96T184 72ZM206 379Q184 379 167 335T146 233Q199 244 238 254Q238 379 206 379ZM278 572L233 515Q135 565 40 588L94 677Q165 646 278 572Z" />
<glyph unicode="&#xe9;" glyph-name="eacute" horiz-adv-x="367" d="M184 72Q222 72 265 145L341 100Q322 67 305 44T252 0T174 -21Q111 -21 68 32T25 177Q25 281 62 371Q82 418 119 447T196 477T260 465T298 437T324 391T339 342T347 287Q351 239 351 200Q271
178 144 160Q147 120 158 96T184 72ZM206 379Q184 379 167 335T146 233Q199 244 238 254Q238 379 206 379ZM185 515L140 572Q253 646 324 677L378 588Q283 565 185 515Z" />
<glyph unicode="&#xea;" glyph-name="ecircumflex" horiz-adv-x="367" d="M184 72Q222 72 265 145L341 100Q322 67 305 44T252 0T174 -21Q111 -21 68 32T25 177Q25 281 62 371Q82 418 119 447T196 477T260 465T298 437T324 391T339 342T347 287Q351 239 351 200Q271
178 144 160Q147 120 158 96T184 72ZM206 379Q184 379 167 335T146 233Q199 244 238 254Q238 379 206 379ZM178 672L246 667Q277 637 347 552L289 508Q237 554 208 578Q158 543 108 499L50 542Q122 623 178 672Z" />
<glyph unicode="&#xeb;" glyph-name="edieresis" horiz-adv-x="367" d="M184 72Q222 72 265 145L341 100Q322 67 305 44T252 0T174 -21Q111 -21 68 32T25 177Q25 281 62 371Q82 418 119 447T196 477T260 465T298 437T324 391T339 342T347 287Q351 239 351 200Q271
178 144 160Q147 120 158 96T184 72ZM206 379Q184 379 167 335T146 233Q199 244 238 254Q238 379 206 379ZM168 649Q179 633 179 591T165 527L70 537Q79 586 79 612T78 657L168 649ZM323 651Q334 635 334 593T320 529L225 539Q234 588 234 614T233 659L323 651Z"
/>
<glyph unicode="&#xec;" glyph-name="igrave" horiz-adv-x="236" d="M69 477L183 466V-14L69 -3V477ZM200 572L155 515Q57 565 -38 588L16 677Q87 646 200 572Z" />
<glyph unicode="&#xed;" glyph-name="iacute" horiz-adv-x="236" d="M69 477L183 466V-14L69 -3V477ZM107 515L62 572Q175 646 246 677L300 588Q205 565 107 515Z" />
<glyph unicode="&#xee;" glyph-name="icircumflex" horiz-adv-x="236" d="M69 477L183 466V-14L69 -3V477ZM100 672L168 667Q199 637 269 552L211 508Q159 554 130 578Q80 543 30 499L-28 542Q44 623 100 672Z" />
<glyph unicode="&#xef;" glyph-name="idieresis" horiz-adv-x="236" d="M69 477L183 466V-14L69 -3V477ZM90 649Q101 633 101 591T87 527L-8 537Q1 586 1 612T0 657L90 649ZM245 651Q256 635 256 593T242 529L147 539Q156 588 156 614T155 659L245 651Z" />
<glyph unicode="&#xf0;" glyph-name="eth" horiz-adv-x="368" d="M371 414T371 280T310 58T172 -30T56 30T17 179Q17 231 33 294T84 408T161 459Q187 459 218 447Q198 493 171 532Q106 505 54 474L31 531Q78 558 131 583Q108 609 84 630L172 692Q213 644 228 624Q273
641 319 654L351 591Q300 580 268 569Q371 414 371 280ZM256 280Q256 313 250 346Q212 364 196 364Q169 364 151 300T132 179Q132 80 178 80Q208 80 232 137T256 280Z" />
<glyph unicode="&#xf1;" glyph-name="ntilde" horiz-adv-x="424" d="M257 476Q389 476 389 256Q389 140 376 10L259 21Q270 135 270 251T237 368Q221 368 196 288T165 130Q167 89 173 -18L56 -7Q45 134 45 241T51 433L125 425Q127 417 140 360Q198 476 257 476ZM368
606T339 571T281 535T223 544T175 553T131 530L71 562Q111 647 164 647Q185 647 215 633T259 619Q287 619 311 651L371 646Q368 606 339 571Z" />
<glyph unicode="&#xf2;" glyph-name="ograve" horiz-adv-x="368" d="M141 180Q141 67 191 67Q213 67 228 130T243 252Q243 380 201 380Q174 380 158 312T141 180ZM24 189Q24 282 62 371Q82 416 118 444T200 473T277 453T327 398Q360 331 360 252Q360 143 316 59T191
-26Q24 -26 24 189ZM267 572L222 515Q124 565 29 588L83 677Q154 646 267 572Z" />
<glyph unicode="&#xf3;" glyph-name="oacute" horiz-adv-x="368" d="M141 180Q141 67 191 67Q213 67 228 130T243 252Q243 380 201 380Q174 380 158 312T141 180ZM24 189Q24 282 62 371Q82 416 118 444T200 473T277 453T327 398Q360 331 360 252Q360 143 316 59T191
-26Q24 -26 24 189ZM174 515L129 572Q242 646 313 677L367 588Q272 565 174 515Z" />
<glyph unicode="&#xf4;" glyph-name="ocircumflex" horiz-adv-x="368" d="M141 180Q141 67 191 67Q213 67 228 130T243 252Q243 380 201 380Q174 380 158 312T141 180ZM24 189Q24 282 62 371Q82 416 118 444T200 473T277 453T327 398Q360 331 360 252Q360 143
316 59T191 -26Q24 -26 24 189ZM184 672L252 667Q283 637 353 552L295 508Q243 554 214 578Q164 543 114 499L56 542Q128 623 184 672Z" />
<glyph unicode="&#xf5;" glyph-name="otilde" horiz-adv-x="368" d="M141 180Q141 67 191 67Q213 67 228 130T243 252Q243 380 201 380Q174 380 158 312T141 180ZM24 189Q24 282 62 371Q82 416 118 444T200 473T277 453T327 398Q360 331 360 252Q360 143 316 59T191
-26Q24 -26 24 189ZM346 606T317 571T259 535T201 544T153 553T109 530L49 562Q89 647 142 647Q162 647 192 633T237 619Q265 619 289 651L349 646Q346 606 317 571Z" />
<glyph unicode="&#xf6;" glyph-name="odieresis" horiz-adv-x="368" d="M141 180Q141 67 191 67Q213 67 228 130T243 252Q243 380 201 380Q174 380 158 312T141 180ZM24 189Q24 282 62 371Q82 416 118 444T200 473T277 453T327 398Q360 331 360 252Q360 143 316
59T191 -26Q24 -26 24 189ZM157 649Q168 633 168 591T154 527L59 537Q68 586 68 612T67 657L157 649ZM312 651Q323 635 323 593T309 529L214 539Q223 588 223 614T222 659L312 651Z" />
<glyph unicode="&#xf7;" glyph-name="divide" horiz-adv-x="833" d="M123 355L479 363Q628 363 720 352L702 232Q621 243 489 243L123 235V355ZM476 168Q486 130 486 87T473 22L343 32Q351 70 351 112T350 179L476 168ZM476 565Q486 527 486 484T473 419L343 429Q351
467 351 509T350 576L476 565Z" />
<glyph unicode="&#xf8;" glyph-name="oslash" horiz-adv-x="368" d="M46 62Q24 111 24 172T33 279T62 371T118 444T201 473Q264 473 303 431Q335 472 377 521L417 487Q367 430 333 386Q360 331 360 252Q360 143 316 59T195 -26T77 15L23 -71L-23 -46L46 62ZM191
63Q214 63 230 129T247 269Q190 188 143 115Q154 63 191 63ZM201 384Q173 384 156 320T137 190Q194 276 239 336Q227 384 201 384Z" />
<glyph unicode="&#xf9;" glyph-name="ugrave" horiz-adv-x="420" d="M378 469L376 311Q376 88 384 -17L285 -7Q282 35 272 78Q217 -3 162 -3T73 35T40 140Q40 270 59 450L175 439Q157 268 157 155Q157 104 189 104Q204 104 225 145T260 244Q259 266 259 296T262
479L378 469ZM287 572L242 515Q144 565 49 588L103 677Q174 646 287 572Z" />
<glyph unicode="&#xfa;" glyph-name="uacute" horiz-adv-x="420" d="M378 469L376 311Q376 88 384 -17L285 -7Q282 35 272 78Q217 -3 162 -3T73 35T40 140Q40 270 59 450L175 439Q157 268 157 155Q157 104 189 104Q204 104 225 145T260 244Q259 266 259 296T262
479L378 469ZM194 515L149 572Q262 646 333 677L387 588Q292 565 194 515Z" />
<glyph unicode="&#xfb;" glyph-name="ucircumflex" horiz-adv-x="420" d="M378 469L376 311Q376 88 384 -17L285 -7Q282 35 272 78Q217 -3 162 -3T73 35T40 140Q40 270 59 450L175 439Q157 268 157 155Q157 104 189 104Q204 104 225 145T260 244Q259 266 259 296T262
479L378 469ZM187 672L255 667Q286 637 356 552L298 508Q246 554 217 578Q167 543 117 499L59 542Q131 623 187 672Z" />
<glyph unicode="&#xfc;" glyph-name="udieresis" horiz-adv-x="420" d="M378 469L376 311Q376 88 384 -17L285 -7Q282 35 272 78Q217 -3 162 -3T73 35T40 140Q40 270 59 450L175 439Q157 268 157 155Q157 104 189 104Q204 104 225 145T260 244Q259 266 259 296T262
479L378 469ZM177 649Q188 633 188 591T174 527L79 537Q88 586 88 612T87 657L177 649ZM332 651Q343 635 343 593T329 529L234 539Q243 588 243 614T242 659L332 651Z" />
<glyph unicode="&#xfd;" glyph-name="yacute" horiz-adv-x="376" d="M287 501L383 445Q300 188 213 -237L103 -227Q119 -148 156 -9Q60 175 35 455L147 444Q162 260 195 130Q241 344 287 501ZM168 515L123 572Q236 646 307 677L361 588Q266 565 168 515Z" />
<glyph unicode="&#xfe;" glyph-name="thorn" horiz-adv-x="410" d="M305 471Q353 471 376 418T400 293T385 149T336 29T259 -21T182 6Q184 -139 189 -245L72 -233Q63 134 63 331T74 733L188 723Q176 526 176 365Q243 471 305 471ZM176 194L177 116Q189 99 198
93T225 86Q250 86 269 141T288 247T283 319T259 341Q221 341 176 194Z" />
<glyph unicode="&#xff;" glyph-name="ydieresis" horiz-adv-x="376" d="M287 501L383 445Q300 188 213 -237L103 -227Q119 -148 156 -9Q60 175 35 455L147 444Q162 260 195 130Q241 344 287 501ZM181 649Q192 633 192 591T178 527L83 537Q92 586 92 612T91 657L181
649ZM336 651Q347 635 347 593T333 529L238 539Q247 588 247 614T246 659L336 651Z" />
<glyph unicode="&#x2013;" glyph-name="endash" horiz-adv-x="500" d="M0 268L260 276Q409 276 501 265L483 185Q402 196 270 196L0 188V268Z" />
<glyph unicode="&#x2014;" glyph-name="emdash" horiz-adv-x="1000" d="M0 268L560 276Q834 276 1001 265L983 185Q827 196 570 196L0 188V268Z" />
<glyph unicode="&#x2018;" glyph-name="quoteleft" horiz-adv-x="208" d="M85 716L187 704Q180 588 150 422L32 458Q73 582 85 716Z" />
<glyph unicode="&#x2019;" glyph-name="quoteright" horiz-adv-x="208" d="M142 432L40 444Q47 560 77 726L195 690Q154 566 142 432Z" />
<glyph unicode="&#x201a;" glyph-name="quotesinglbase" horiz-adv-x="208" d="M124 -108L22 -96Q29 20 59 186L177 150Q136 26 124 -108Z" />
<glyph unicode="&#x201c;" glyph-name="quotedblleft" horiz-adv-x="390" d="M85 716L187 704Q180 588 150 422L32 458Q73 582 85 716ZM267 716L369 704Q362 588 332 422L214 458Q255 582 267 716Z" />
<glyph unicode="&#x201d;" glyph-name="quotedblright" horiz-adv-x="390" d="M142 432L40 444Q47 560 77 726L195 690Q154 566 142 432ZM323 432L221 444Q228 560 258 726L376 690Q335 566 323 432Z" />
<glyph unicode="&#x201e;" glyph-name="quotedblbase" horiz-adv-x="390" d="M124 -108L22 -96Q29 20 59 186L177 150Q136 26 124 -108ZM306 -108L204 -96Q211 20 241 186L359 150Q318 26 306 -108Z" />
<glyph unicode="&#x2022;" glyph-name="bullet" horiz-adv-x="590" d="M402 484Q419 453 419 390T399 239L172 260Q183 359 183 414T182 503L402 484Z" />
<glyph unicode="&#x2039;" glyph-name="guilsinglleft" horiz-adv-x="277" d="M145 425L250 400Q214 310 156 218Q202 113 255 45L159 4Q92 81 28 222Q105 329 145 425Z" />
<glyph unicode="&#x203a;" glyph-name="guilsinglright" horiz-adv-x="277" d="M128 4L23 29Q59 119 117 211Q71 316 18 384L114 425Q181 348 245 207Q168 100 128 4Z" />
</font>
</defs>
</svg>
