<?xml version="1.0" standalone="no"?>
<!DOCTYPE svg PUBLIC "-//W3C//DTD SVG 1.1//EN" "http://www.w3.org/Graphics/SVG/1.1/DTD/svg11.dtd">
<svg xmlns="http://www.w3.org/2000/svg">
<defs >
<font id="Kalam" horiz-adv-x="516" ><font-face
    font-family="Kalam Light"
    units-per-em="1000"
    panose-1="2 0 0 0 0 0 0 0 0 0"
    ascent="1063"
    descent="-531"
    alphabetic="0" />
<glyph unicode=" " horiz-adv-x="410" />
<glyph unicode="!" horiz-adv-x="314" d="M48 87T61 104T89 122T123 77T144 9Q144 5 138 0T125 -5Q103 -5 76 23T48 69ZM200 803Q213 803 235 790T258 766Q258 671 217 453T153 234Q143 234 136 244T128 262T134 300T150 379T170 489Q192 631 192 779Q192 803 200 803Z" />
<glyph unicode="&quot;" horiz-adv-x="249" d="M207 826Q216 826 229 814T243 792Q243 743 230 655T203 566Q194 566 186 577T177 595T186 675T195 806Q195 826 207 826ZM59 826Q68 826 82 814T96 792Q96 745 83 656T56 566Q46 566 38 577T29 595T38 675T47 806Q47
826 59 826Z" />
<glyph unicode="#" horiz-adv-x="589" d="M130 -10Q122 -10 112 2T102 27T128 147Q95 141 83 141T61 153T50 174Q50 192 144 209Q188 391 204 465Q153 457 142 457T121 469T111 490Q111 510 217 527Q239 639 239 667V700Q239 714 243 715T254 717T280 698T298
652T283 537Q380 548 439 552Q455 638 455 666V700Q455 714 458 715T470 717T496 698T514 650T502 557Q556 559 564 559Q609 559 609 536Q609 527 586 521T491 504Q473 413 428 240Q479 243 503 243Q548 243 548 221Q548 211 522 204T414 186L389 89Q363 -10 344
-10Q334 -10 326 3T317 27T352 177L191 156L173 91Q145 -10 130 -10ZM427 495L270 475Q250 380 208 219Q267 227 366 235Q406 391 427 495Z" />
<glyph unicode="$" horiz-adv-x="503" d="M493 571L448 579Q423 579 390 574Q359 479 317 342Q360 311 385 291T432 240T455 182Q455 114 383 67T216 17Q187 -62 169 -62Q154 -62 154 -38T163 22Q103 36 61 79T19 147T36 173Q43 173 63 152Q124 86 176 76Q183
101 252 318Q192 360 161 391T129 450T137 502T156 536Q220 594 348 625Q374 703 386 724T415 745T432 723T424 676L411 637Q439 639 449 639Q474 639 489 619T504 585T493 571ZM303 84T347 113T391 181T300 285Q286 239 265 169T236 76Q303 84 347 113ZM267 543T227
517T187 464T270 375Q295 457 327 560Q267 543 227 517Z" />
<glyph unicode="%" horiz-adv-x="835" d="M655 400Q698 400 729 357T760 246Q760 159 700 88T576 16Q537 16 507 53T477 136Q477 244 534 322T655 400ZM585 73Q620 73 661 126T702 233T688 315T651 345Q616 345 576 281T535 145Q535 116 548 95T585 73ZM645 742T653
742T673 723T686 685T648 607T537 450T437 311T379 225T330 152T290 93T256 45T232 12Q209 -16 202 -16T187 -3T179 18T194 51T250 137T332 257Q482 473 607 653Q522 599 436 599Q405 599 377 608Q387 576 387 542Q387 455 327 384T203 312Q164 312 134 349T103
432Q103 541 160 618T282 696Q297 696 307 692T334 677Q370 655 414 655T512 676T606 720ZM211 369Q246 369 287 422T329 528T314 611T278 641Q243 641 203 577T162 441Q162 412 175 391T211 369Z" />
<glyph unicode="&amp;" horiz-adv-x="660" d="M541 80Q588 80 604 76T621 61Q621 26 533 26T352 112Q194 15 120 15Q86 15 54 45T22 115Q22 147 76 196Q120 236 159 267T201 302Q210 309 218 315Q187 396 187 469T238 600T368 657Q430 657 455 624T481 543T428
435T284 300Q314 232 356 183Q401 213 462 258Q588 351 598 351Q620 351 620 330Q620 315 552 257T397 141Q468 80 541 80ZM312 605T280 563T248 465T265 353Q338 414 378 461T419 547Q419 605 358 605Q312 605 280 563ZM241 264Q124 170 104 145T83 106T94 81T123
71Q182 71 312 155Q268 209 241 264Z" />
<glyph unicode="&apos;" horiz-adv-x="104" d="M49 806Q49 826 59 826T83 814T98 792Q98 745 84 656T56 566Q46 566 38 577T29 595T39 675T49 806Z" />
<glyph unicode="(" horiz-adv-x="489" d="M513 868T525 856T537 834T516 807T460 765T384 706T300 627T224 529T168 407T146 268T167 146T221 63T290 8T359 -30Q434 -62 434 -79Q434 -98 406 -98T338 -86T254 -44T172 27T109 132T84 285T122 474T216 641T331 763T437
842T498 868Z" />
<glyph unicode=")" horiz-adv-x="490" d="M411 547Q411 456 384 368T313 214T220 92T121 -2Q20 -78 -12 -78Q-28 -78 -28 -64Q-28 -56 -1 -31T68 28T157 116T247 228T315 366T343 518T326 638T285 713T236 760T195 793T178 818Q178 844 220 844Q280 844 345 759T411 547Z" />
<glyph unicode="*" horiz-adv-x="348" d="M370 726Q370 720 331 699T258 663Q272 652 295 639T332 618T346 604T339 593T326 587Q308 587 244 643Q240 612 230 574T211 536Q205 536 199 542T193 553T198 572Q217 627 220 643Q204 628 170 607T127 586T113 592T106
607Q106 613 149 632T213 664Q189 673 152 701T115 741T125 753Q158 753 169 739Q212 689 225 683Q227 715 227 772Q227 786 239 786Q246 786 257 775T269 751T250 680Q267 691 290 709Q336 746 344 746T361 740T370 726Z" />
<glyph unicode="+" horiz-adv-x="600" d="M591 356Q591 340 518 324T335 298Q329 264 321 219T309 152T300 108Q291 69 281 69T262 83T253 112T255 143T265 203T279 294Q198 287 109 287Q89 287 72 302T55 334T81 351Q153 349 196 349T287 352Q291 381 310 534Q313
562 327 562Q338 562 357 541T376 505T347 356Q383 359 429 364Q530 375 549 375Q591 375 591 356Z" />
<glyph unicode="," horiz-adv-x="210" d="M148 30Q148 -25 98 -87T15 -150Q0 -150 0 -140T13 -114T42 -81T71 -39T84 15Q84 31 64 43T43 67T54 95T79 111Q106 111 127 87T148 30Z" />
<glyph unicode="-" horiz-adv-x="420" d="M382 324Q382 312 358 305T218 276T92 253T68 264T55 284Q55 303 165 323T329 344T382 324Z" />
<glyph unicode="." horiz-adv-x="237" d="M146 -6Q124 -6 96 22T68 69T81 105T109 122T145 77T166 9Q166 5 159 0T146 -6Z" />
<glyph unicode="/" horiz-adv-x="392" d="M113 32T89 -21T57 -75T38 -61T26 -39Q26 14 350 734Q354 742 356 747T359 754T362 758T364 761Q368 763 371 763Q379 763 393 743T407 703T376 616T295 448T220 288Q113 32 89 -21Z" />
<glyph unicode="0" horiz-adv-x="493" d="M383 470Q383 661 328 661Q304 661 270 616T203 505T149 356T126 203Q126 77 202 77Q233 77 275 139T350 296T383 470ZM368 161T309 91T198 20T104 68T62 185Q62 304 104 429T211 635T336 716Q445 716 445 474Q445 375 407 268Z" />
<glyph unicode="1" horiz-adv-x="321" d="M232 712T244 692T257 642T243 517T214 363T184 241T160 145T140 74Q121 4 105 4Q96 4 88 19T80 54T101 153T151 377T197 681Q200 712 216 712Z" />
<glyph unicode="2" horiz-adv-x="580" d="M134 76T277 99T446 122T481 120T491 108Q491 84 345 54T137 23Q109 23 84 42T59 87Q59 103 97 135T190 208T299 299T392 414T431 535T408 622T346 653T276 634T222 596T196 577Q183 577 170 585T156 605Q156 631 218
672T333 714Q404 714 449 667T494 554T466 427T382 305Q282 196 107 74Q134 76 277 99Z" />
<glyph unicode="3" horiz-adv-x="584" d="M396 353T465 320T535 230T476 124T331 46T156 18T67 45Q67 51 128 61T262 86T397 140T458 234Q458 269 393 290T263 321T197 341T200 353Q203 364 233 380T304 416T384 458T451 515T479 585Q479 650 405 650Q348 650
264 602Q236 586 230 586T209 599T193 621Q193 645 268 675T402 706T501 666T543 577T498 482Q422 407 290 359Q396 353 465 320Z" />
<glyph unicode="4" horiz-adv-x="554" d="M454 507Q465 507 481 491T498 457Q498 349 448 171T365 -8Q351 -8 351 11T362 64Q401 187 416 260Q312 206 221 206Q165 206 126 239T86 333T142 486T260 643T342 707Q373 707 373 685Q373 671 260 549Q218 503 183 443T148
336Q148 260 223 260Q265 260 310 274Q377 294 399 302T425 311Q437 393 437 474Q437 507 454 507Z" />
<glyph unicode="5" horiz-adv-x="553" d="M314 689T367 696T478 703T567 699T598 680Q598 665 412 642Q339 632 323 629Q302 625 271 571T240 492T273 436T347 379T421 316T455 246Q455 167 380 97T220 26Q155 26 103 73T51 159Q51 178 63 178Q65 178 89 153T148
104T213 79Q268 79 331 130T394 234Q394 285 317 336Q285 358 253 380T199 433T176 499T221 604T291 680Q314 689 367 696Z" />
<glyph unicode="6" horiz-adv-x="564" d="M479 238Q479 158 390 90T202 21Q143 21 105 61T66 178T113 355T222 531T337 657T407 708T436 701T450 687T411 643T310 538T206 404Q328 393 403 342T479 238ZM207 76Q275 76 345 125T415 233Q415 277 352 315T183 365Q126
258 126 158Q126 117 148 97T207 76Z" />
<glyph unicode="7" horiz-adv-x="455" d="M448 693Q461 685 469 664T478 624T453 557T376 428T302 309T233 185T161 60T129 20T114 34T107 59Q107 92 261 346T415 625Q415 634 404 641T366 648T261 635T162 621T125 640T106 675Q106 678 151 686Q269 707 347 707T448
693Z" />
<glyph unicode="8" horiz-adv-x="608" d="M533 720T570 691T607 614T552 509T394 372Q494 281 494 227Q494 152 407 89T236 25Q190 25 147 59T103 137T155 238T303 374Q290 385 264 405T222 438T185 468T150 498T124 524Q100 551 100 569Q100 601 112 601Q116
601 146 575T251 489T349 411Q441 486 478 521T530 579T545 619Q545 662 480 662Q432 662 362 641T279 619T249 632T230 656Q230 676 312 698T463 720ZM430 235Q430 266 348 336Q206 226 178 180Q165 157 165 136T185 96T235 78Q299 78 364 126T430 235Z" />
<glyph unicode="9" horiz-adv-x="478" d="M456 514Q456 491 431 426T388 306T355 170T331 49T313 9Q285 9 285 63Q285 148 363 388Q324 344 279 316T187 287T106 322T71 412T110 537T212 659T329 710T411 679T440 612T431 553Q456 552 456 514ZM127 375T146 359T190
342T233 347T270 367L300 391Q312 401 328 423T352 455T374 488T392 516Q374 518 374 532Q374 541 380 563T386 598Q386 650 336 650Q267 650 197 560T127 404Q127 375 146 359Z" />
<glyph unicode=":" horiz-adv-x="246" d="M205 363Q184 363 156 393T128 443T140 480T166 499Q183 499 203 452T224 379Q224 374 218 369T205 363ZM112 -6Q91 -6 63 24T35 74T47 111T73 129Q90 129 110 82T130 9Q130 4 124 -1T112 -6Z" />
<glyph unicode=";" horiz-adv-x="306" d="M143 -2Q143 -57 93 -119T10 -182Q-5 -182 -5 -172T8 -146T37 -113T66 -71T79 -17Q79 -1 59 11T38 35T49 63T74 79Q101 79 122 55T143 -2ZM208 363Q187 363 159 393T131 443T144 480T169 499Q186 499 206 452T227 379Q227
374 221 369T208 363Z" />
<glyph unicode="&lt;" horiz-adv-x="574" d="M521 508Q540 508 550 499T560 483T559 475T556 470T551 467T545 464T538 461T530 459T469 439T305 375T197 307Q197 290 350 222T504 140T473 125T356 158T195 234T119 299Q119 312 131 331T155 361Q201 398 337 453T521
508Z" />
<glyph unicode="=" horiz-adv-x="609" d="M55 249T250 271T502 294T559 272Q559 258 505 247T301 216T82 196Q72 197 64 210T55 232Q55 249 250 271ZM82 449T272 469T523 489T584 466Q584 454 554 447T341 417T109 394Q99 394 90 407T81 430Q82 449 272 469Z" />
<glyph unicode="&gt;" horiz-adv-x="531" d="M164 454T149 471T134 498T156 508Q213 507 303 460T446 364Q456 354 464 337T473 312T468 296T452 280T430 264T400 247T368 230T331 212T294 194Q154 122 103 122Q82 122 82 134Q82 149 161 191T320 273T400 321Q400
345 318 389T182 449Q164 454 149 471Z" />
<glyph unicode="?" horiz-adv-x="469" d="M190 -5Q168 -5 141 23T113 69T126 105T153 122T188 77T209 9Q209 5 203 0T190 -5ZM150 699T196 740T304 781T411 740T456 631Q456 593 428 547T364 465Q264 364 243 313T215 248T198 235Q178 235 178 275T200 352T254
424T318 493Q393 574 393 634Q393 672 366 697T302 722T237 699T209 642Q209 631 213 623T217 608T207 597T187 592T164 611T150 646Q150 699 196 740Z" />
<glyph unicode="@" horiz-adv-x="904" d="M577 710Q714 710 789 622T864 406T782 173T608 68Q580 68 558 87T530 138Q454 42 381 42Q335 42 294 75T253 149Q253 212 297 299T407 452T525 517T603 476T631 399T607 337Q618 328 618 317T597 255T575 178T587 134T621
117Q676 117 740 204T804 401T751 584T579 658Q479 658 388 606T235 473T137 297T100 108T161 -50T320 -114Q392 -114 451 -101T542 -75T582 -62T590 -70Q590 -103 498 -134T319 -165Q192 -165 117 -84T41 112Q41 187 65 270T136 431T247 571T397 672T577 710ZM585
345Q584 351 584 380T572 439T535 468Q497 468 443 410T349 275T309 148Q309 124 330 108T376 91Q429 91 486 159T567 327Q570 342 585 345Z" />
<glyph unicode="A" horiz-adv-x="596" d="M367 722Q395 722 418 623T458 381Q504 390 528 390T553 369Q553 356 463 330Q476 203 476 110T452 17Q423 17 419 96Q413 213 404 314Q239 270 187 256Q102 47 92 32T79 17Q67 17 57 31T47 65Q47 72 118 237Q95 232 88
232Q48 232 48 257Q48 273 146 303Q262 581 290 638T330 708T367 722ZM215 324Q327 354 399 369Q381 533 354 645Q281 485 215 324Z" />
<glyph unicode="B" horiz-adv-x="644" d="M222 634L193 633Q177 633 163 647T149 672T190 693T288 703Q428 703 499 664T571 559Q571 422 336 378H360Q457 378 518 340T580 250Q580 162 455 92T165 22Q95 22 51 48T7 106Q7 125 18 125Q24 125 36 115Q75 83 120
78Q104 94 104 127Q104 142 133 230Q221 495 221 625Q221 632 222 634ZM351 645Q318 645 255 638Q280 615 280 592Q280 555 235 384Q247 395 298 411T368 434T417 455T464 482Q507 515 507 555T461 620T351 645ZM146 76Q284 76 399 131T514 254Q514 289 439 313T276
337Q261 337 248 345T230 364Q223 338 209 287T187 209Q155 97 137 76H146Z" />
<glyph unicode="C" horiz-adv-x="589" d="M487 702Q512 702 536 678T560 639T555 623T527 632T485 641Q446 641 388 601T276 499T184 358T145 214T183 120T278 89T388 111T477 156T518 178T529 174T533 164Q533 147 491 114T385 53T271 25Q197 25 139 78T81 203T119
363T214 525T345 651T487 702Z" />
<glyph unicode="D" horiz-adv-x="633" d="M173 707Q260 707 358 660T527 529T598 356Q598 293 517 211T329 72T150 15Q130 15 113 41T95 101T153 347T211 619Q211 637 212 642Q183 650 168 663T153 689Q153 707 173 707ZM534 358Q534 438 450 521T255 633Q268
612 268 589T267 554T261 523T253 488T241 442T227 391T210 327T190 256Q166 175 155 77Q210 79 279 113T403 192T496 283T534 358Z" />
<glyph unicode="E" horiz-adv-x="604" d="M216 669Q243 701 427 701T612 682Q612 668 577 663T489 653Q424 648 414 648T383 646T318 638T268 631V621Q268 553 223 392L254 391Q306 391 362 396T452 401T486 392Q486 340 218 340Q211 340 208 341Q145 143 145
104Q145 89 154 81T178 72Q305 72 443 112Q490 125 497 125Q509 125 509 107Q509 80 399 46T195 12Q149 12 116 35T83 91Q83 137 114 237T177 451T209 641Q209 661 212 664T216 669Z" />
<glyph unicode="F" horiz-adv-x="512" d="M197 334H191Q180 291 162 221T138 129Q110 17 100 17T77 35T64 65T125 312T189 641Q189 656 197 668Q215 701 401 701T588 680Q588 668 557 664T504 657T442 652T336 641T245 633Q246 628 246 619Q246 559 204 387Q287
387 349 392T438 397T464 388Q464 377 433 365T338 343T197 334Z" />
<glyph unicode="G" horiz-adv-x="618" d="M464 704Q491 704 515 678T540 635T530 619Q526 619 506 628T466 638Q406 638 325 569T185 395T125 200Q125 150 156 115T230 80T335 137T463 296Q394 273 368 273T325 285T309 307Q309 335 461 335Q484 335 503 313T523
269Q523 224 471 66T398 -93T377 -64Q377 -38 413 65T465 222Q415 127 349 72T224 16T112 72T59 195Q59 292 122 412T283 618T464 704Z" />
<glyph unicode="H" horiz-adv-x="680" d="M122 298Q111 298 101 307T90 329Q90 339 143 352Q213 614 213 678Q213 695 216 701T229 707T254 685T268 637Q268 580 211 368Q389 402 517 411Q571 616 571 678Q571 695 574 701T588 707T613 685T628 629T581 411Q624
408 624 391Q624 376 569 367Q544 282 522 195T491 78Q473 19 464 19T445 34T434 73T504 358Q376 342 349 338T195 308Q185 273 163 191T132 78Q114 19 106 19T87 34T75 73T129 298H122Z" />
<glyph unicode="I" horiz-adv-x="311" d="M101 22T89 36T77 72T142 352T208 675Q208 693 210 698T225 704T251 682T266 635Q266 568 192 296Q184 268 172 221T152 144T135 84Q117 22 111 22Q101 22 89 36Z" />
<glyph unicode="J" horiz-adv-x="458" d="M5 143Q5 161 20 161Q26 161 50 138T111 92T181 69Q220 69 249 141T331 401T432 660Q370 651 287 627T187 603Q157 603 157 619Q157 644 275 679T441 715Q460 715 474 708T488 685T475 633T435 519T385 366Q317 133 285
73T192 13T68 62T5 143Z" />
<glyph unicode="K" horiz-adv-x="585" d="M566 702T578 695T590 677T544 626Q365 466 267 338Q267 294 288 242T348 159T436 106T511 68T538 36Q538 23 507 23T431 40T341 89T261 175T218 293Q173 234 120 71Q105 23 99 23Q89 23 79 38T68 75T136 354T205 675Q205
693 207 698T221 704T245 682T257 635Q257 568 189 324Q279 454 400 578T547 702Q566 702 578 695Z" />
<glyph unicode="L" horiz-adv-x="546" d="M205 694T208 700T222 706T248 685T263 640Q263 572 200 355T136 116T145 86T169 77Q293 77 430 118Q475 131 482 131T492 130T494 121Q494 91 387 55T186 18Q140 18 107 41T73 101T139 373T205 677Q205 694 208 700Z" />
<glyph unicode="M" horiz-adv-x="806" d="M210 704T220 704T248 685T269 643Q281 567 407 301Q526 446 582 517T671 628Q731 701 751 701Q764 701 780 685T797 656T795 631T788 597T779 558T765 507T750 452Q703 295 682 202Q642 23 634 23Q623 23 614 38T604
78Q604 128 649 314T739 619Q553 388 489 316T400 243T355 277T300 388T240 542Q221 427 180 288Q171 258 159 214T139 141T121 82Q103 23 98 23Q89 23 79 38T68 75T136 354T204 675Q204 693 207 698Z" />
<glyph unicode="N" horiz-adv-x="702" d="M615 708Q627 708 641 689T656 652Q656 559 633 411T569 141T490 19Q464 19 444 58T344 291T241 546Q198 385 158 230T110 47T96 19Q88 19 76 34T64 72T133 355T202 679Q202 697 204 702T216 708T240 691T263 643T353
409T491 88Q534 197 559 333T588 535T592 654T615 708Z" />
<glyph unicode="O" horiz-adv-x="610" d="M420 202T469 293T519 464T483 596T409 648T324 609T232 509T157 369T126 220T157 114T227 75Q281 75 350 138ZM218 19Q156 19 111 80T66 206Q66 325 120 444T253 635T405 708T531 635T584 470T531 272T390 93T218 19Z" />
<glyph unicode="P" horiz-adv-x="539" d="M549 543Q549 343 173 269Q98 14 88 14T66 28T54 64T119 313T189 619Q170 630 170 649T232 688T352 708Q435 708 492 663T549 543ZM490 536Q490 587 451 619T362 652T243 626Q248 611 248 597Q248 535 189 324Q326 353
408 411T490 536Z" />
<glyph unicode="Q" horiz-adv-x="631" d="M478 704T532 632T587 468T536 272T406 100Q422 58 444 8Q486 -92 486 -108Q486 -121 468 -121T420 -69T360 66Q292 23 225 23T114 75T70 213T101 391T181 551T289 661T402 704Q478 704 532 632ZM406 646Q380 646 350
630Q327 588 327 501Q327 343 383 164Q443 227 483 309T523 468T487 595T406 646ZM127 152T157 114T233 76T340 124Q268 340 268 485Q268 539 285 581Q219 515 173 414T127 216Q127 152 157 114Z" />
<glyph unicode="R" horiz-adv-x="575" d="M87 20Q77 20 66 33T54 69T113 311T180 612Q171 617 164 628T156 649Q156 669 218 688T338 708Q427 708 483 674T540 570Q540 520 510 478T436 409T348 364T274 333T243 314Q243 284 403 144Q416 133 435 117T467 91T492
70Q516 48 516 37Q516 22 496 22Q465 22 389 80T247 211T177 321Q145 204 132 157T110 80Q92 20 87 20ZM397 446T439 487T482 570Q482 647 360 647Q309 647 233 621Q237 612 237 597Q237 535 181 335Q192 350 243 374T345 422Z" />
<glyph unicode="S" horiz-adv-x="519" d="M452 211Q452 131 382 78T207 25Q128 25 67 73T6 160Q6 177 18 177Q25 177 47 154T108 106T191 82Q277 82 332 119T387 208Q387 239 351 283T271 365T191 447T154 521Q154 538 163 561T182 597Q213 635 294 669T426 704Q451
704 468 692T485 666Q485 658 465 654T401 640T321 615Q210 570 210 523Q210 500 331 392Q376 352 414 301T452 211Z" />
<glyph unicode="T" horiz-adv-x="530" d="M305 648L106 639Q94 639 81 656T67 685T109 699T390 701Q467 701 530 684T594 648Q594 638 564 638T477 642T361 648Q364 637 364 628Q364 565 288 288Q277 249 258 170T228 56T209 20Q198 20 186 33T174 70T236 330T305 648Z" />
<glyph unicode="U" horiz-adv-x="599" d="M185 693T187 698T201 704T228 682T245 625T202 424T158 200T183 104T246 66T327 105T407 209T470 367T495 558Q495 592 492 634T488 687T491 701T502 704Q520 704 539 680T558 608Q558 346 462 178T242 10Q180 10 140
64T99 191T142 433T185 675Q185 693 187 698Z" />
<glyph unicode="V" horiz-adv-x="532" d="M563 704Q572 704 581 697T591 677T573 632T509 525T428 377T361 241T313 140T280 71Q252 12 237 12Q219 12 193 75T122 380T78 680Q78 704 89 704Q103 704 118 687T139 650T173 432T240 105Q288 241 410 472T563 704Z" />
<glyph unicode="W" horiz-adv-x="780" d="M515 704Q618 704 674 613T730 383Q730 293 700 210T618 76T510 24Q444 24 416 116Q390 198 381 333Q355 300 313 243T233 134Q148 22 118 22Q104 22 92 45T80 100T110 356T140 669Q140 704 160 704Q174 704 192 686T211
648T196 536Q145 221 134 99Q202 206 284 305T394 404Q414 404 427 355T446 245T468 136T510 86Q575 86 622 180T670 392Q670 475 638 552Q622 588 596 611T542 634T493 652T471 683Q471 704 515 704Z" />
<glyph unicode="X" horiz-adv-x="645" d="M595 704Q603 704 617 691T631 672T630 663T623 656T614 648Q582 625 566 608T526 561T482 506T421 428Q353 341 352 340Q382 294 435 218T514 101T539 42T526 23Q503 23 440 101T310 288Q154 92 122 58T66 23Q58 23 49
31T39 45T41 55T45 61T63 80Q136 155 280 338Q144 572 144 686Q144 704 156 704Q178 704 196 691T215 661Q215 562 320 390Q487 608 530 656T595 704Z" />
<glyph unicode="Y" horiz-adv-x="582" d="M341 356Q358 356 407 442T507 614T577 700Q607 700 607 674Q607 660 577 610T491 468T404 318T342 201T296 115T264 58Q233 7 217 7Q205 7 205 24T213 66T244 134Q277 202 328 300Q269 311 216 369T132 505T101 650Q101
672 108 686T126 700T147 669T173 579T215 469T278 387T341 356Z" />
<glyph unicode="Z" horiz-adv-x="606" d="M562 581Q562 539 494 465T345 324Q128 145 128 111Q128 102 136 93T161 84Q217 84 347 102T497 121T520 118T524 103Q524 88 472 70T331 39T153 26Q120 26 93 51T65 106T110 189T219 296T348 406Q502 537 502 594Q502
611 450 624T346 637T242 629T176 621T144 636T126 667Q124 681 196 693Q232 699 278 699Q464 699 534 633Q562 606 562 581Z" />
<glyph unicode="[" horiz-adv-x="448" d="M428 793Q524 793 524 766Q524 754 501 750T425 740T354 732T332 729Q335 718 335 709Q335 653 213 267Q145 49 145 26T172 2T252 7T314 13Q329 13 329 1Q329 -22 277 -39T184 -56T112 -37T81 17T178 364T275 742Q275
753 278 759V761Q281 793 428 793Z" />
<glyph unicode="\" horiz-adv-x="600" d="M510 -39Q510 -47 499 -61T479 -75T447 -22T316 288Q291 348 242 448T161 616T129 703T143 742T165 763Q174 763 179 750Q182 742 186 734Q510 14 510 -39Z" />
<glyph unicode="]" horiz-adv-x="411" d="M362 713V702Q362 623 313 379T228 -4Q219 -40 198 -56T131 -73T33 -54T-19 -13Q-19 -1 -6 -1T58 -8T133 -15T164 11Q183 82 241 349T299 668Q299 674 301 684Q278 687 230 687Q126 687 126 709Q126 728 175 737T277 747Q362
747 362 713Z" />
<glyph unicode="^" horiz-adv-x="422" d="M351 581Q351 566 339 566Q318 566 285 628T224 758Q182 715 144 639Q118 587 109 581T94 575Q77 575 77 600T103 680T161 780T212 825Q249 825 261 808Q270 797 283 758T323 653T351 581Z" />
<glyph unicode="_" horiz-adv-x="602" d="M533 25Q533 12 484 9Q401 4 335 4T181 -2T83 -8T64 4T55 29T133 51T314 60T486 51Q533 45 533 25Z" />
<glyph unicode="`" horiz-adv-x="189" d="M13 774T12 778T10 791T21 814T41 828T55 826T66 817T78 805T94 787T113 766T129 748T143 734T154 723T163 713T169 705T173 699T176 693Q179 688 179 682T173 669T159 663T142 669T113 691T86 713T66 728T50 740T36 751T25
761T17 769Z" />
<glyph unicode="a" horiz-adv-x="447" d="M327 502T355 459T384 382T362 317Q371 307 371 291Q371 227 361 170T347 79T341 31T328 17Q311 17 306 49T301 150Q270 95 223 56T130 17T42 52T0 129Q0 193 44 281T156 436T275 502ZM332 329Q331 336 331 362T320 416T285
443Q247 443 194 386T101 253T62 128Q62 106 82 91T126 76Q178 76 232 143T314 308Q317 325 332 329Z" />
<glyph unicode="b" horiz-adv-x="502" d="M383 507Q430 507 458 464T487 352T450 203T352 68T232 14Q152 14 92 99Q68 17 58 17T36 31T24 62T54 185T116 447T147 752Q147 769 150 775T166 782T192 761T206 715Q206 553 148 311Q270 507 383 507ZM113 152Q158 72
225 72T358 162T424 358Q424 445 377 445Q317 445 241 357T113 152Z" />
<glyph unicode="c" horiz-adv-x="422" d="M126 17T81 57T35 162T76 307T181 445T305 502Q349 502 376 471T404 419T392 399T355 420T309 442Q269 442 218 393T132 276T96 166T119 100T185 76T265 88T323 111T355 123Q369 123 369 107Q369 86 303 52T182 17Z" />
<glyph unicode="d" horiz-adv-x="478" d="M445 769T448 775T463 782T489 761T504 711T482 559T406 226T336 17Q325 17 314 29T303 56T317 134Q274 83 224 50T128 17T50 53T17 134T39 242T97 363T184 461T286 502Q363 502 386 400Q436 612 445 752Q445 769 448
775ZM290 443Q245 443 194 391T110 264T77 126Q77 103 96 87T137 71Q183 71 254 134Q334 206 359 293Q359 357 341 400T290 443Z" />
<glyph unicode="e" horiz-adv-x="429" d="M407 292T354 262T232 231T87 250Q71 199 71 159T99 97T173 74T271 93T330 112Q348 112 348 96Q348 76 289 47T181 17Q112 17 64 60T15 173T51 320T145 449T259 502T361 450T407 345ZM267 446Q222 446 178 402T104 292Q162
278 219 278T313 297T350 348T323 413T267 446Z" />
<glyph unicode="f" horiz-adv-x="344" d="M78 13Q69 13 59 25T49 48T60 100T96 230T140 402Q95 393 81 393T55 403T42 423Q42 439 132 458Q147 461 154 463Q172 536 188 614Q222 780 326 780Q378 780 406 744T434 667T418 625Q405 625 396 650T373 701T332 726Q305
726 289 704Q271 679 263 649Q247 597 218 474Q254 479 283 479Q336 479 336 457Q336 445 316 439Q284 430 203 415Q106 13 78 13Z" />
<glyph unicode="g" horiz-adv-x="471" d="M422 289Q422 246 379 186Q345 110 298 -56Q285 -104 267 -149Q231 -240 157 -240T36 -205T-11 -130Q-11 -121 -5 -110T9 -99T29 -113T53 -145T91 -176T143 -191T183 -180T208 -153T228 -107T246 -51Q271 42 285 87Q200
17 141 17Q95 17 61 52T26 132Q26 197 68 284T176 436T298 502T383 448T412 334V324Q422 311 422 289ZM138 76Q199 76 267 139T373 300Q366 312 361 338Q349 418 328 435Q319 443 305 443Q262 443 209 385T120 253T84 128Q84 105 100 91T138 76Z" />
<glyph unicode="h" horiz-adv-x="522" d="M148 745Q148 767 152 774T169 782T196 760T210 714Q210 634 182 470T93 136Q212 344 277 423T389 502Q413 502 444 463T476 375T444 227T388 72T341 17Q325 17 325 34T334 80T360 156Q417 311 417 377Q417 399 404 414T378
430Q349 430 313 385T236 280T193 214T184 201T166 174T124 107Q68 17 62 17Q52 17 39 31T26 58T38 116Q87 288 106 386Q148 599 148 745Z" />
<glyph unicode="i" horiz-adv-x="226" d="M179 670T190 683T216 696T248 662T266 613Q266 588 249 588Q228 588 204 612T179 653ZM143 482T149 492T165 502T185 489T196 462Q196 395 94 73Q75 17 55 17Q45 17 38 25T31 46T40 92T65 177T88 262T107 340T123 409T136 457Z" />
<glyph unicode="j" horiz-adv-x="251" d="M144 466Q154 502 163 502Q174 502 185 490T197 456Q197 431 65 -97Q47 -169 18 -204T-59 -239T-154 -198T-200 -128Q-200 -120 -194 -109T-182 -97T-170 -103T-150 -125T-132 -147Q-96 -190 -62 -190T-4 -134T60 107T144
466ZM184 670T195 683T221 696T253 662T271 613T266 593T255 588Q234 588 209 612T184 653Z" />
<glyph unicode="k" horiz-adv-x="456" d="M322 334T294 286T266 198T288 130T336 85T385 57T407 34Q407 17 379 17Q333 17 275 68T216 181V192Q130 81 102 49T61 17T40 33T30 66T62 195T126 468T158 755Q158 771 162 776T178 782T202 761T215 715Q215 495 91 107Q261
356 357 458Q399 502 411 502T435 491T446 471T418 433T356 369Z" />
<glyph unicode="l" horiz-adv-x="233" d="M208 720Q208 506 108 136Q76 17 62 17Q52 17 41 31T30 57T60 186T120 469T150 757Q150 772 152 777T163 782T190 762T208 720Z" />
<glyph unicode="m" horiz-adv-x="783" d="M667 502Q693 502 715 466T737 356T695 149T617 17Q601 17 601 37T620 107T660 227T680 366T654 435Q639 435 626 424T605 405T586 381T565 353T541 318T516 279T487 234T457 188T422 126Q366 17 350 17Q342 17 333 27T324
48T338 96T369 172T401 270T415 379Q415 402 402 418T378 435T361 432T344 422T327 406T308 382T287 354T263 320T238 281T208 236T173 182T126 109Q69 17 62 17Q51 17 39 31T26 55T28 77T36 107T46 144Q61 189 78 249T101 378T109 475T123 503Q137 503 151 485T165
445Q165 338 93 132Q214 345 275 423T385 502Q408 502 439 464T470 379T449 260Q525 396 574 449T667 502Z" />
<glyph unicode="n" horiz-adv-x="521" d="M386 502Q412 502 443 464T475 383Q475 320 443 221T386 69T340 17Q324 17 324 34T332 77T358 150Q417 307 417 379Q417 402 404 418T381 435T363 432T346 420T328 404T307 379T285 351T261 316T235 278Q195 215 175 186T126
109Q69 17 62 17Q51 17 39 31T26 56T34 92Q67 198 76 239Q106 367 106 456Q106 503 124 503Q138 503 152 485T166 435T145 309T97 143Q213 342 277 422T386 502Z" />
<glyph unicode="o" horiz-adv-x="452" d="M304 168T327 228T351 334T336 412T294 457Q211 441 158 350T105 160Q105 85 156 67Q212 73 258 120ZM111 401T168 451T284 502T376 453T410 337Q410 219 333 118T155 17Q105 17 75 62T45 178T78 325Z" />
<glyph unicode="p" horiz-adv-x="446" d="M-23 -238T-33 -224T-44 -196T-10 -48Q91 355 91 474Q91 491 94 497T109 504T138 482T156 438T139 345Q186 423 239 465T340 507T413 458T439 339T383 190T251 65T114 18Q82 18 63 29Q52 -15 45 -49T32 -112T17 -172Q0
-238 -11 -238ZM105 76Q158 76 220 111T329 210T376 345Q376 446 333 446T215 367T101 187L74 79Q88 76 105 76Z" />
<glyph unicode="q" horiz-adv-x="450" d="M379 -98Q386 -98 392 -103T398 -115Q398 -130 365 -148T297 -189T244 -225T215 -239T197 -222T187 -187T232 -47T291 113Q253 71 205 44T118 17T45 54T10 132Q10 197 55 284T169 437T298 502Q337 502 370 471T404 419T392
398T353 421T305 444Q261 444 204 386T107 253T67 128Q67 108 82 92T117 76Q180 76 252 140T352 309Q356 323 369 323T394 314T405 292T389 231T328 63T247 -164Q341 -98 379 -98Z" />
<glyph unicode="r" horiz-adv-x="314" d="M97 405L95 459Q95 493 100 497T110 502Q124 502 138 481T152 436Q152 372 141 308Q171 371 205 416T268 480T320 498Q364 498 364 480Q364 467 333 454Q274 431 238 383T167 258T114 121T86 37T63 13Q52 13 44 27T36
54T42 90Q70 182 83 247T97 405Z" />
<glyph unicode="s" horiz-adv-x="404" d="M302 502Q334 502 360 469T387 417T375 398T340 420T292 442T213 408T159 339Q159 315 226 272Q254 254 282 233Q349 183 349 135T298 52T179 17T58 51T4 112Q4 121 9 127T22 133T48 118Q105 74 166 74Q284 74 284 136Q284
163 255 189T190 235T126 283T96 342Q96 394 171 448T302 502Z" />
<glyph unicode="t" horiz-adv-x="352" d="M197 425Q175 337 144 235T112 105T139 78Q187 78 237 98T291 119Q305 119 305 107Q305 83 250 50T149 17T77 38T51 88T64 164T100 287T137 413Q82 403 71 403T47 414T35 434Q35 452 152 475Q169 558 169 615Q169 645
184 645Q196 645 212 629T229 592T211 484Q281 494 310 494Q362 494 362 473Q362 461 338 454L197 425Z" />
<glyph unicode="u" horiz-adv-x="479" d="M393 486Q393 502 408 502Q420 502 433 484T446 445Q446 439 337 59Q325 17 309 17Q287 17 287 50T320 187Q279 108 227 63T128 17T51 52T19 130Q19 192 46 282T108 437T163 502Q174 502 182 491T191 468T164 401T108
268T80 125Q80 102 94 87T130 71Q180 71 238 148T336 316Q375 404 392 480Q393 484 393 486Z" />
<glyph unicode="v" horiz-adv-x="422" d="M376 502Q387 502 399 493T412 471Q412 448 368 352T283 163T225 42T192 13Q143 13 86 270Q56 401 56 477Q56 502 69 502T100 488T120 455Q133 211 196 85Q217 136 267 262T342 445T376 502Z" />
<glyph unicode="w" horiz-adv-x="653" d="M405 408L400 215Q400 117 410 69Q461 125 498 192T552 313T582 414T603 487T626 514Q650 514 650 461T602 294T497 97T403 13Q389 13 382 18T366 44Q349 84 349 214T355 434Q270 213 219 113T139 13Q126 13 117 22Q81
58 66 229T50 470Q50 511 74 511Q96 511 106 457Q111 428 114 303T142 69Q184 145 230 262T305 443T358 508Q384 508 394 485T405 408Z" />
<glyph unicode="x" horiz-adv-x="401" d="M325 72T336 56T347 33T341 22T328 17Q292 17 184 192Q67 49 39 27Q27 17 19 17T-2 28T-15 46T8 77Q98 170 155 240Q41 440 41 483Q41 494 44 498T60 502T94 492T114 468Q114 420 189 284Q311 445 338 473T378 502T404
493T416 475T411 460T391 441T364 414T328 372T276 306L218 234Q226 221 241 197T267 156T301 105Z" />
<glyph unicode="y" horiz-adv-x="442" d="M415 502Q428 502 441 485T454 453T445 410T415 320T375 208T321 58T262 -107Q215 -239 131 -239Q80 -239 30 -207T-20 -137Q-20 -128 -12 -117T2 -106T26 -127Q79 -191 129 -191Q148 -191 165 -174T202 -113Q230 -51
286 117Q218 17 139 17Q93 17 62 52T31 141T58 284T120 438T174 502Q184 502 193 491T203 467T176 399T120 267T92 125Q92 102 106 87T142 71Q179 71 219 112T294 218Q355 338 397 472Q402 499 406 500T415 502Z" />
<glyph unicode="z" horiz-adv-x="418" d="M54 471Q54 502 221 502Q306 502 340 480Q356 470 368 451T380 416Q380 381 332 330T227 238Q74 126 74 100Q74 76 111 76Q174 76 263 86T366 96T386 94T393 82Q393 57 287 37T109 17Q68 17 37 44T5 97T55 171T165 263T275
353T325 418Q325 442 209 442Q187 442 149 437T96 431T68 444T54 471Z" />
<glyph unicode="{" horiz-adv-x="399" d="M189 754T242 803T358 853T455 820T489 736Q489 709 478 688T453 667Q442 667 442 692T441 732T432 762Q419 791 369 791T282 755T244 660T266 533T289 435T260 377T183 349Q176 349 160 351Q169 328 169 298T141 200T113
75T143 -6T229 -32T285 -48T260 -74T201 -84Q135 -84 92 -38T49 65T83 200T118 328Q118 342 101 373Q72 392 72 412T83 432Q89 432 117 415T171 398T215 414T234 454T212 553T189 682Q189 754 242 803Z" />
<glyph unicode="|" horiz-adv-x="320" d="M77 -119T65 -105T52 -70T143 333T234 773Q234 790 237 796T252 803T279 782T294 736Q294 682 197 296Q189 265 161 146Q99 -119 88 -119Z" />
<glyph unicode="}" horiz-adv-x="490" d="M329 -11T300 -47T219 -83T124 -56T81 -5T95 20T120 8Q151 -30 210 -30Q274 -30 288 72Q295 116 299 163Q309 283 348 322Q315 337 294 365T273 424T299 492T358 559T416 628T443 706T413 771T350 798T297 786T264 758Q234
717 224 717Q216 717 203 729T190 749Q190 784 243 818T352 853T456 809T505 716T478 622T418 546Q331 462 331 424T375 366Q395 358 419 354T444 347T446 342Q446 322 419 313Q358 289 348 151Q344 96 337 43Z" />
<glyph unicode="~" horiz-adv-x="598" d="M244 425Q267 425 288 407T323 367T359 327T405 307Q430 308 449 323T478 357Q504 405 521 405Q536 405 536 378Q536 334 496 291T401 247Q362 247 326 276T244 373Q186 348 133 274Q118 253 106 253Q84 253 84 274Q85
319 139 372T244 425Z" />
<glyph unicode="&#xa0;" horiz-adv-x="410" />
<glyph unicode="&#xa1;" horiz-adv-x="316" d="M289 504T276 487T248 469T214 514T193 582Q193 586 199 591T212 596Q234 596 261 568T289 522ZM137 -212Q124 -212 102 -199T79 -175Q79 -80 120 138T184 357Q194 357 201 347T209 329T203 291T187 212T168 102Q145
-40 145 -188Q145 -212 137 -212Z" />
<glyph unicode="&#xa2;" horiz-adv-x="448" d="M388 496T410 466T432 418T421 400T383 422T337 446Q261 149 243 81Q289 86 331 105T382 125Q396 125 396 109Q396 90 336 58T226 21Q200 -73 192 -73Q187 -73 178 -63T169 -45T182 23Q130 33 96 71T61 163Q61 259
138 369T302 501Q334 605 346 605Q355 605 362 594T369 572T367 555T361 534Q354 514 352 503Q388 496 410 466ZM121 161Q121 128 141 106T195 80Q241 287 281 429Q221 394 171 310T121 161Z" />
<glyph unicode="&#xa3;" horiz-adv-x="617" d="M585 516L591 551Q591 599 545 599Q512 599 480 555T403 383Q537 383 547 376Q551 374 551 370Q551 337 385 331Q349 223 316 142Q341 117 354 106Q395 69 426 69T480 81T516 110Q547 150 565 150Q594 150 594 123T541
55T439 15Q369 15 290 88Q268 47 247 32T192 17T112 58T67 141T95 206T171 231T273 183Q297 247 324 330Q216 332 216 347Q216 359 227 372T248 385Q284 385 340 383Q397 561 448 612Q475 638 497 647T556 656T620 629T647 560Q647 540 629 522T598 503T585 516ZM176
70T198 70T249 128Q197 178 174 178Q128 178 128 140Q128 121 152 96Z" />
<glyph unicode="&#xa4;" horiz-adv-x="600" d="M443 421Q466 383 466 338Q466 244 402 178Q409 168 418 155T432 134T442 118Q452 104 452 98T446 87T434 83Q409 83 361 146Q327 126 287 126T215 148Q159 83 147 83T123 93T111 109T113 119T123 130T136 144T177
186Q149 226 149 281Q149 359 200 421Q159 501 159 515T175 530T209 522T228 500T240 459Q281 487 325 487T405 463Q458 530 480 530Q491 530 502 521T514 503T443 421ZM293 173Q344 173 378 222T412 321T385 404T321 437Q270 437 236 387T202 288T229 206T293
173Z" />
<glyph unicode="&#xa5;" horiz-adv-x="535" d="M340 350Q430 350 430 332Q430 318 397 310T266 294Q264 278 254 231Q308 234 345 234Q421 234 421 219T386 194Q359 187 240 175V174Q234 150 227 121T216 76T208 45Q199 17 192 17Q181 17 169 30T156 66T180 169Q120
163 59 163Q51 163 44 174T37 195Q37 216 195 228Q203 259 207 289Q116 282 73 282Q66 282 59 290T51 311Q51 333 208 345Q174 397 134 492T94 632Q94 648 109 648T139 638T158 619T188 524T250 379Q304 451 404 549T533 648Q542 648 551 640T561 625T514 571T396
455T289 349Q308 350 340 350Z" />
<glyph unicode="&#xa6;" horiz-adv-x="322" d="M205 430T193 444T180 479T207 607T235 773Q235 790 238 796T254 803T280 782T295 730T263 565T215 430Q205 430 193 444ZM78 -119T66 -105T53 -70T80 58T108 224Q108 241 111 247T127 254T153 233T168 181T136 16T88
-119Q78 -119 66 -105Z" />
<glyph unicode="&#xa7;" horiz-adv-x="429" d="M323 729Q355 729 378 694T401 624T384 589Q364 589 354 630Q350 645 339 657T312 670Q279 670 249 644T218 591T243 529T299 465T355 391T381 303T338 213T231 153Q283 97 283 42T242 -53T134 -93Q87 -93 47 -59T6
3Q6 16 14 30T29 45T40 41T52 23Q80 -35 129 -35Q218 -35 218 47Q218 75 192 108T134 167T76 231T49 304Q49 360 98 410T207 483Q157 544 157 592T210 684T323 729ZM279 397Q266 414 239 445Q111 388 111 302Q111 272 147 234Q161 220 175 208T192 192Q242 194
280 231T319 306T279 397Z" />
<glyph unicode="&#xa8;" horiz-adv-x="240" d="M146 807T157 820T181 834T212 801T230 753Q230 728 214 728Q194 728 170 751T146 791ZM10 807T21 820T45 834T76 801T94 753Q94 728 78 728Q58 728 34 751T10 791Z" />
<glyph unicode="&#xa9;" horiz-adv-x="708" d="M704 404Q704 256 599 158T338 60Q220 60 155 130T90 309Q90 445 200 552T447 660Q564 660 634 588T704 404ZM324 102Q473 102 559 183T646 414Q646 502 596 559T472 617Q359 617 256 532Q207 492 176 428T145 283T194
152T324 102ZM483 552T498 537T514 508T503 494Q497 494 485 498T465 503Q422 503 358 428T294 279Q294 257 312 242T357 226T412 237T460 260T486 272Q499 272 499 257Q499 237 448 206T354 175T277 207T242 286T276 396T364 506T467 552Q483 552 498 537Z" />
<glyph unicode="&#xaa;" horiz-adv-x="440" d="M314 525V538Q286 498 250 473T176 448T109 479T80 554T106 656T180 759T278 805T357 771T388 710Q388 701 384 685V681Q384 666 372 618T360 509T344 448Q332 448 323 471T314 525ZM342 693Q342 711 326 732T285
753Q229 753 181 683T133 549Q133 499 179 499T270 553T342 690V693Z" />
<glyph unicode="&#xab;" horiz-adv-x="782" d="M719 474Q738 474 748 466T759 451T754 440T740 432T724 426Q488 363 435 334Q410 321 410 310Q410 294 557 241T705 173T676 158Q622 158 481 215T339 306Q339 319 351 336T376 363Q418 395 545 434T719 474ZM409
495Q428 495 438 487T449 474T448 466T445 461T441 458T435 455T428 452T419 450T411 447Q313 416 217 375T121 311Q121 294 262 232T403 156Q403 140 368 140T191 206T50 304Q50 317 62 335T86 363Q131 398 249 446T409 495Z" />
<glyph unicode="&#xac;" horiz-adv-x="496" d="M399 410H81Q40 410 10 424T-20 455T-5 472Q-1 472 32 470Q129 466 284 466T470 456Q514 441 514 373Q514 334 482 264T409 140T350 86T332 99Q332 108 361 156Q449 304 449 380Q449 410 399 410Z" />
<glyph unicode="&#xad;" horiz-adv-x="600" d="M382 324Q382 312 358 305T218 276T92 253T68 264T55 284Q55 303 165 323T329 344T382 324Z" />
<glyph unicode="&#xae;" horiz-adv-x="545" d="M75 586T146 655T298 724T425 678T470 559Q470 464 403 401T235 338Q158 338 117 383T75 499Q75 586 146 655ZM226 365Q321 365 377 417T433 566Q433 622 401 659T322 696Q245 696 178 638T111 485Q111 428 142 397T226
365ZM354 598Q354 548 260 518Q260 514 276 498T302 474T319 461T330 452Q346 436 346 431Q346 422 334 422T286 451T236 504Q218 422 207 422Q202 422 197 428T192 442T210 516T231 608Q224 615 224 623T245 638T290 645T334 633T354 598ZM259 607Q259 594 244
535Q248 537 262 543T285 554T304 566Q326 582 326 599T293 617Q275 617 259 610V607Z" />
<glyph unicode="&#xaf;" horiz-adv-x="359" d="M349 622Q349 610 321 605T230 596T136 588Q80 581 62 581T27 595T10 621Q10 642 136 642T306 639T349 622Z" />
<glyph unicode="&#xb0;" horiz-adv-x="295" d="M221 484T245 524T270 600T257 653T221 672Q183 672 158 631T133 555T147 502T183 484Q221 484 245 524ZM74 543Q74 607 121 666T234 725Q277 725 303 694T330 608T283 493T170 434Q127 434 101 465T74 543Z" />
<glyph unicode="&#xb1;" horiz-adv-x="600" d="M574 461Q574 446 508 432T344 407Q336 367 327 312T312 236Q303 200 293 200T274 214T265 241T289 402Q211 396 137 396Q118 396 102 411T85 441Q85 460 110 460Q175 458 209 458T298 460Q317 585 317 616T332 648Q343
648 362 629T381 596T356 464Q384 467 421 472Q499 481 536 481T574 461ZM494 145Q535 145 535 133Q535 117 481 104T350 84Q194 71 120 71Q105 71 92 86T79 114T93 126Q207 126 343 135T494 145Z" />
<glyph unicode="&#xb2;" horiz-adv-x="293" d="M113 411Q246 431 255 431Q284 431 284 416Q284 399 211 383T112 367T70 378T55 403T84 441T147 491T211 556T240 632Q240 679 203 679Q180 679 158 660T130 640T114 647T102 663Q102 680 133 702T201 724T262 699T287
635Q287 575 242 522T113 411Z" />
<glyph unicode="&#xb3;" horiz-adv-x="317" d="M128 540Q128 559 198 588Q224 599 245 617T267 658T242 681T189 665T152 649T135 657T125 675Q125 692 163 708T235 725T290 703T313 651T284 596T214 550Q257 543 283 526T310 482Q310 435 247 402T123 368T62
387Q62 401 159 418Q195 425 225 441T256 481Q256 499 192 513T128 539V540Z" />
<glyph unicode="&#xb4;" horiz-adv-x="193" d="M22 663T16 668T10 680T12 693T20 706T32 720Q49 738 65 754T93 784T111 804T126 819Q142 834 153 834T173 820T183 796T182 783T178 774T171 766T160 756T146 746Q126 729 114 720T94 704T81 694T70 685T60 678T53
672T46 668T40 666Q34 663 28 663Z" />
<glyph unicode="&#xb5;" horiz-adv-x="648" d="M546 490T549 496T562 502T585 484T598 450T489 59Q477 17 460 17Q439 17 439 48T469 179Q376 17 279 17Q243 17 221 39T196 94Q181 62 145 -24T86 -155T54 -200T34 -193T25 -177T40 -132T90 -7T154 154T212 322T258
458T285 502T308 495T321 480Q321 464 299 405Q233 228 233 125Q233 102 247 87T283 71Q323 71 369 121T450 239T511 372T541 463Z" />
<glyph unicode="&#xb6;" horiz-adv-x="483" d="M242 405Q195 370 156 370T90 399T63 462Q63 533 112 622T228 746Q252 759 312 768T402 778T444 773T470 750T484 711Q483 522 380 135Q349 17 333 17Q324 17 313 27T301 48T329 170T390 444T429 736Q417 732 339
719Q340 716 340 709Q339 520 237 135Q206 17 189 17Q180 17 169 28T157 48T174 122Q230 337 242 405Z" />
<glyph unicode="&#xb7;" horiz-adv-x="237" d="M146 250Q124 250 96 278T68 325T81 361T109 378T145 333T166 265Q166 261 159 256T146 250Z" />
<glyph unicode="&#xb8;" horiz-adv-x="225" d="M126 -72Q158 -72 186 -88T215 -125Q215 -156 182 -178Q126 -215 40 -215Q10 -215 10 -198Q10 -186 38 -181T101 -166T150 -134Q146 -124 103 -116T59 -96T76 -49T99 6Q105 27 126 27T148 4T118 -72H126Z" />
<glyph unicode="&#xb9;" horiz-adv-x="150" d="M121 705Q121 726 131 726T154 713T168 691Q168 602 132 416Q121 365 108 365Q100 365 92 375T83 393T102 517T121 705Z" />
<glyph unicode="&#xba;" horiz-adv-x="452" d="M149 595Q149 563 162 536T196 496Q263 505 296 546T330 650Q330 732 273 761Q210 746 180 700T149 595ZM272 805Q325 805 355 758T385 644T333 515T200 452Q154 452 125 498T95 611T146 741T272 805Z" />
<glyph unicode="&#xbb;" horiz-adv-x="833" d="M416 465Q416 472 426 483T447 495Q483 494 551 465T678 392T736 313Q736 297 724 283Q691 253 562 196T388 138Q367 138 367 148Q367 163 518 236T670 319Q670 343 594 385T467 441T416 465ZM127 443Q127 450 138
462T160 474Q195 473 264 450T394 389T455 316Q455 294 381 253T221 180T108 148T81 159Q81 174 233 240T386 323Q386 346 313 375T184 418T127 443Z" />
<glyph unicode="&#xbc;" horiz-adv-x="761" d="M630 330Q638 330 652 315T666 286Q666 214 631 98T572 -19Q563 -19 558 -11T552 7T558 37Q586 122 594 159Q529 131 485 131T416 155T391 219T430 325T513 442T568 492T588 484T597 466T558 412Q444 276 444 221Q444
181 480 181Q513 181 555 197T604 216Q610 256 610 306Q610 330 630 330ZM573 738T582 720T591 684T547 603T430 450T324 307Q171 79 137 31T91 -17Q86 -17 78 -5T69 16Q69 38 169 186T407 525T547 721T551 728T555 732T558 736Q562 738 567 738ZM150 287T138 298T125
317T149 472T174 715Q174 735 186 735T213 722T229 697Q228 622 217 553T201 455T194 409T187 370T180 335T174 310Q167 286 160 286Q150 287 138 298Z" />
<glyph unicode="&#xbd;" horiz-adv-x="748" d="M608 59Q643 59 643 44Q643 25 550 5T410 -16Q390 -16 372 -2T353 27T377 63T437 110T506 168T565 241T590 316T577 367T543 385T502 373T469 348T447 336T427 343T414 360Q414 381 456 409T540 437T614 405T646
326Q646 246 585 177T407 30Q428 33 476 40Q594 59 608 59ZM548 738T557 720T566 684T522 603T405 450T299 307Q146 79 112 31T66 -17Q61 -17 53 -5T44 16Q44 38 144 186T382 525T522 721T526 728T530 732T534 736Q536 738 542 738ZM125 287T113 298T100 321T112
397Q149 587 149 715Q149 735 161 735T188 722T204 697Q201 607 182 501Q154 319 147 303T135 286Q125 287 113 298Z" />
<glyph unicode="&#xbe;" horiz-adv-x="829" d="M725 330Q734 330 747 315T761 286Q761 215 726 98T667 -19Q658 -19 653 -11T647 7T654 37Q680 118 690 160Q627 131 581 131T511 155T486 219T525 325T608 442T663 492T683 484T692 466T654 412Q539 274 539 221Q539
181 575 181Q609 181 651 197T700 216Q706 256 706 306Q706 330 725 330ZM669 738T678 720T687 684T643 603T526 450T420 307Q267 79 233 31T187 -17Q182 -17 174 -5T165 16Q165 38 265 186T503 525T643 721T647 728T651 732T654 736Q658 738 663 738ZM396 476Q396
419 316 377T160 334T83 357Q83 365 122 373T208 389T294 420T333 478Q333 499 292 510T209 528T167 546Q167 550 170 558T201 581T262 611T320 650T346 702Q346 736 306 736Q278 736 242 716T195 695T175 704T164 724Q164 743 212 764T302 785T371 757T400 694T359
623T263 562Q322 554 359 532T396 476Z" />
<glyph unicode="&#xbf;" horiz-adv-x="371" d="M265 596Q287 596 314 568T342 522T329 486T302 469T267 514T246 582Q246 586 252 591T265 596ZM305 -108T259 -149T151 -190T44 -149T-1 -40Q-1 -2 27 44T92 126Q191 227 212 278T240 343T257 356Q277 356 277 316T255
239T202 167T138 98Q62 17 62 -43Q62 -81 89 -106T153 -131T218 -108T246 -51Q246 -40 242 -32T238 -17T248 -6T268 -1T291 -20T305 -55Q305 -108 259 -149Z" />
<glyph unicode="&#xc0;" horiz-adv-x="596" d="M367 722Q395 722 418 623T458 381Q504 390 528 390T553 369Q553 356 463 330Q476 203 476 110T452 17Q423 17 419 96Q413 213 404 314Q239 270 187 256Q102 47 92 32T79 17Q67 17 57 31T47 65Q47 72 118 237Q95
232 88 232Q48 232 48 257Q48 273 146 303Q262 581 290 638T330 708T367 722ZM215 324Q327 354 399 369Q381 533 354 645Q281 485 215 324ZM271 891T270 895T268 908T279 931T299 945T313 943T324 934T336 922T352 904T371 883T387 865T401 851T412 840T421 830T427
822T431 816T434 810Q437 805 437 799T431 786T417 780T400 786T371 808T344 830T324 845T308 857T294 868T283 878T275 886Z" />
<glyph unicode="&#xc1;" horiz-adv-x="596" d="M367 722Q395 722 418 623T458 381Q504 390 528 390T553 369Q553 356 463 330Q476 203 476 110T452 17Q423 17 419 96Q413 213 404 314Q239 270 187 256Q102 47 92 32T79 17Q67 17 57 31T47 65Q47 72 118 237Q95
232 88 232Q48 232 48 257Q48 273 146 303Q262 581 290 638T330 708T367 722ZM215 324Q327 354 399 369Q381 533 354 645Q281 485 215 324ZM399 781T397 781T390 780T379 785T373 797T375 810T383 823T396 837Q412 855 428 871T456 901T474 921T490 936Q505 951
516 951T536 937T546 913T545 900T541 891T534 883T523 873T510 862Q489 846 477 837T457 821T444 811T433 802T423 795T416 789T409 785T403 783Z" />
<glyph unicode="&#xc2;" horiz-adv-x="596" d="M367 722Q395 722 418 623T458 381Q504 390 528 390T553 369Q553 356 463 330Q476 203 476 110T452 17Q423 17 419 96Q413 213 404 314Q239 270 187 256Q102 47 92 32T79 17Q67 17 57 31T47 65Q47 72 118 237Q95
232 88 232Q48 232 48 257Q48 273 146 303Q262 581 290 638T330 708T367 722ZM215 324Q327 354 399 369Q381 533 354 645Q281 485 215 324ZM313 821T291 805T257 788T237 794T229 815T244 845T283 875T324 899T350 915T371 927T391 936T405 939T414 938T421 936T429
932T435 928T442 921T449 914Q463 896 466 893Q533 813 533 796T514 778T480 792T439 843T408 887Q380 872 347 847Z" />
<glyph unicode="&#xc3;" horiz-adv-x="596" d="M367 722Q395 722 418 623T458 381Q504 390 528 390T553 369Q553 356 463 330Q476 203 476 110T452 17Q423 17 419 96Q413 213 404 314Q239 270 187 256Q102 47 92 32T79 17Q67 17 57 31T47 65Q47 72 118 237Q95
232 88 232Q48 232 48 257Q48 273 146 303Q262 581 290 638T330 708T367 722ZM215 324Q327 354 399 369Q381 533 354 645Q281 485 215 324ZM275 783Q253 783 253 804Q253 836 289 872T362 908Q400 908 422 871Q445 834 465 832Q478 833 489 843T506 864Q522 895
539 895T556 868T529 810T463 779Q415 779 359 858Q338 848 322 829T296 797T275 783Z" />
<glyph unicode="&#xc4;" horiz-adv-x="596" d="M367 722Q395 722 418 623T458 381Q504 390 528 390T553 369Q553 356 463 330Q476 203 476 110T452 17Q423 17 419 96Q413 213 404 314Q239 270 187 256Q102 47 92 32T79 17Q67 17 57 31T47 65Q47 72 118 237Q95
232 88 232Q48 232 48 257Q48 273 146 303Q262 581 290 638T330 708T367 722ZM215 324Q327 354 399 369Q381 533 354 645Q281 485 215 324ZM352 799Q332 799 308 822T284 862T295 891T319 905T350 872T368 824Q368 799 352 799ZM488 799Q468 799 444 822T420 862T431
891T455 905T486 872T504 824Q504 799 488 799Z" />
<glyph unicode="&#xc5;" horiz-adv-x="596" d="M367 722Q395 722 418 623T458 381Q504 390 528 390T553 369Q553 356 463 330Q476 203 476 110T452 17Q423 17 419 96Q413 213 404 314Q239 270 187 256Q102 47 92 32T79 17Q67 17 57 31T47 65Q47 72 118 237Q95
232 88 232Q48 232 48 257Q48 273 146 303Q262 581 290 638T330 708T367 722ZM215 324Q327 354 399 369Q381 533 354 645Q281 485 215 324ZM485 830T459 797T400 764T348 786T328 843T354 911T413 944T465 922T485 865ZM438 877T431 888T410 899T386 884T374 849T381
818T402 807T426 822T438 857Z" />
<glyph unicode="&#xc6;" horiz-adv-x="794" d="M168 282H165Q152 251 132 202T100 125T74 68Q49 12 37 12Q10 12 10 50Q10 59 26 97T76 210T165 426T253 632Q269 665 334 676T512 688T684 686T758 679T774 666Q774 640 573 640H521Q522 634 522 621Q522 548 471
372Q619 389 670 389Q704 389 704 365Q704 354 649 345T456 320Q399 127 399 108T408 81T432 72Q559 72 697 112Q744 125 751 125Q763 125 763 107Q763 80 653 46T449 12Q403 12 370 35T337 91Q337 139 391 313Q273 298 225 290T168 282ZM407 364Q463 544 463 639Q329
636 315 620Q305 610 185 330Q249 344 407 364Z" />
<glyph unicode="&#xc7;" horiz-adv-x="589" d="M248 -36Q280 -36 308 -52T337 -89Q337 -120 304 -142Q248 -179 162 -179Q132 -179 132 -162Q132 -150 160 -145T223 -130T272 -98Q268 -88 225 -80T181 -60Q181 -50 196 -17T218 33Q160 50 121 98T81 211T119 363T214
525T345 651T487 702Q512 702 536 678T560 639T555 623T527 632T485 641Q446 641 388 601T276 499T184 358T145 214T183 120T278 89T388 111T477 156T518 178T529 174T533 164Q533 147 491 114T385 53T271 25H267Q260 -2 240 -36H248Z" />
<glyph unicode="&#xc8;" horiz-adv-x="604" d="M216 669Q243 701 427 701T612 682Q612 668 577 663T489 653Q424 648 414 648T383 646T318 638T268 631V621Q268 553 223 392L254 391Q306 391 362 396T452 401T486 392Q486 340 218 340Q211 340 208 341Q145 143
145 104Q145 89 154 81T178 72Q305 72 443 112Q490 125 497 125Q509 125 509 107Q509 80 399 46T195 12Q149 12 116 35T83 91Q83 137 114 237T177 451T209 641Q209 661 212 664T216 669ZM323 891T322 895T320 908T331 931T351 945T365 943T376 934T388 922T404
904T423 883T439 865T453 851T464 840T473 830T479 822T483 816T486 810Q489 805 489 799T483 786T469 780T452 786T423 808T396 830T376 845T360 857T346 868T335 878T327 886Z" />
<glyph unicode="&#xc9;" horiz-adv-x="604" d="M216 669Q243 701 427 701T612 682Q612 668 577 663T489 653Q424 648 414 648T383 646T318 638T268 631V621Q268 553 223 392L254 391Q306 391 362 396T452 401T486 392Q486 340 218 340Q211 340 208 341Q145 143
145 104Q145 89 154 81T178 72Q305 72 443 112Q490 125 497 125Q509 125 509 107Q509 80 399 46T195 12Q149 12 116 35T83 91Q83 137 114 237T177 451T209 641Q209 661 212 664T216 669ZM451 781T449 781T442 780T431 785T425 797T427 810T435 823T448 837Q464
855 480 871T508 901T526 921T542 936Q557 951 568 951T588 937T598 913T597 900T593 891T586 883T575 873T562 862Q541 846 529 837T509 821T496 811T485 802T475 795T468 789T461 785T455 783Z" />
<glyph unicode="&#xca;" horiz-adv-x="604" d="M216 669Q243 701 427 701T612 682Q612 668 577 663T489 653Q424 648 414 648T383 646T318 638T268 631V621Q268 553 223 392L254 391Q306 391 362 396T452 401T486 392Q486 340 218 340Q211 340 208 341Q145 143
145 104Q145 89 154 81T178 72Q305 72 443 112Q490 125 497 125Q509 125 509 107Q509 80 399 46T195 12Q149 12 116 35T83 91Q83 137 114 237T177 451T209 641Q209 661 212 664T216 669ZM365 821T343 805T309 788T289 794T281 815T296 845T335 875T376 899T402
915T423 927T443 936T457 939T466 938T473 936T481 932T487 928T494 921T501 914Q515 896 518 893Q585 813 585 796T566 778T532 792T491 843T460 887Q432 872 399 847Z" />
<glyph unicode="&#xcb;" horiz-adv-x="604" d="M216 669Q243 701 427 701T612 682Q612 668 577 663T489 653Q424 648 414 648T383 646T318 638T268 631V621Q268 553 223 392L254 391Q306 391 362 396T452 401T486 392Q486 340 218 340Q211 340 208 341Q145 143
145 104Q145 89 154 81T178 72Q305 72 443 112Q490 125 497 125Q509 125 509 107Q509 80 399 46T195 12Q149 12 116 35T83 91Q83 137 114 237T177 451T209 641Q209 661 212 664T216 669ZM404 799Q384 799 360 822T336 862T347 891T371 905T402 872T420 824Q420
799 404 799ZM540 799Q520 799 496 822T472 862T483 891T507 905T538 872T556 824Q556 799 540 799Z" />
<glyph unicode="&#xcc;" horiz-adv-x="311" d="M153 891T152 895T150 908T161 931T181 945T195 943T206 934T218 922T234 904T253 883T269 865T283 851T294 840T303 830T309 822T313 816T316 810Q319 805 319 799T313 786T299 780T282 786T253 808T226 830T206
845T190 857T176 868T165 878T157 886ZM101 22T89 36T77 72T142 352T208 675Q208 693 210 698T225 704T251 682T266 635Q266 568 192 296Q184 268 172 221T152 144T135 84Q117 22 111 22Q101 22 89 36Z" />
<glyph unicode="&#xcd;" horiz-adv-x="311" d="M267 780T261 785T255 797T257 810T265 823T278 837Q294 855 310 871T338 901T356 921T372 936Q387 951 398 951T418 937T428 913T427 900T423 891T416 883T405 873T392 862Q371 846 359 837T339 821T326 811T315
802T305 795T298 789T291 785T284 782Q279 780 273 780ZM101 22T89 36T77 72T142 352T208 675Q208 693 210 698T225 704T251 682T266 635Q266 568 192 296Q184 268 172 221T152 144T135 84Q117 22 111 22Q101 22 89 36Z" />
<glyph unicode="&#xce;" horiz-adv-x="311" d="M282 939T287 939T296 938T303 936T311 932T317 928T324 921T331 914Q345 896 348 893Q415 813 415 796T396 778T362 792T321 843T290 887Q262 872 229 847T173 805T139 788T119 794T111 815T126 845T165 875T206
899T232 915T253 927T273 936ZM101 22T89 36T77 72T142 352T208 675Q208 693 210 698T225 704T251 682T266 635Q266 568 192 296Q184 268 172 221T152 144T135 84Q117 22 111 22Q101 22 89 36Z" />
<glyph unicode="&#xcf;" horiz-adv-x="311" d="M302 878T313 891T337 905T368 872T386 824Q386 799 370 799Q350 799 326 822T302 862ZM166 878T177 891T201 905T232 872T250 824Q250 799 234 799Q214 799 190 822T166 862ZM101 22T89 36T77 72T142 352T208 675Q208
693 210 698T225 704T251 682T266 635Q266 568 192 296Q184 268 172 221T152 144T135 84Q117 22 111 22Q101 22 89 36Z" />
<glyph unicode="&#xd0;" horiz-adv-x="603" d="M171 675Q258 675 356 628T525 497T596 324Q596 261 515 179T327 40T148 -17Q128 -17 111 9T93 70T139 271Q89 265 71 265Q13 265 13 282Q13 306 153 324Q209 525 209 587Q209 605 210 610Q181 618 166 631T151 657Q151
675 171 675ZM532 326Q532 406 448 489T253 601Q266 580 266 544T217 330Q250 333 267 333T301 327T317 311Q317 295 203 279L188 224Q164 143 153 45Q208 47 277 81T401 160T494 251T532 326Z" />
<glyph unicode="&#xd1;" horiz-adv-x="702" d="M298 804Q298 836 334 872T407 908Q445 908 468 871Q490 834 510 832Q523 833 534 843T551 864Q567 895 584 895T601 868T574 810T508 779Q460 779 404 858Q383 848 367 829T341 797T320 783Q298 783 298 804ZM615
708Q627 708 641 689T656 652Q656 559 633 411T569 141T490 19Q464 19 444 58T344 291T241 546Q198 385 158 230T110 47T96 19Q88 19 76 34T64 72T133 355T202 679Q202 697 204 702T216 708T240 691T263 643T353 409T491 88Q534 197 559 333T588 535T592 654T615
708Z" />
<glyph unicode="&#xd2;" horiz-adv-x="610" d="M361 891T360 895T358 908T369 931T389 945T403 943T414 934T426 922T442 904T461 883T477 865T491 851T502 840T511 830T517 822T521 816T524 810Q527 805 527 799T521 786T507 780T490 786T461 808T434 830T414
845T398 857T384 868T373 878T365 886ZM420 202T469 293T519 464T483 596T409 648T324 609T232 509T157 369T126 220T157 114T227 75Q281 75 350 138ZM218 19Q156 19 111 80T66 206Q66 325 120 444T253 635T405 708T531 635T584 470T531 272T390 93T218 19Z" />
<glyph unicode="&#xd3;" horiz-adv-x="610" d="M475 780T469 785T463 797T465 810T473 823T486 837Q502 855 518 871T546 901T564 921T580 936Q595 951 606 951T626 937T636 913T635 900T631 891T624 883T613 873T600 862Q579 846 567 837T547 821T534 811T523
802T513 795T506 789T499 785T492 782Q487 780 481 780ZM420 202T469 293T519 464T483 596T409 648T324 609T232 509T157 369T126 220T157 114T227 75Q281 75 350 138ZM218 19Q156 19 111 80T66 206Q66 325 120 444T253 635T405 708T531 635T584 470T531 272T390
93T218 19Z" />
<glyph unicode="&#xd4;" horiz-adv-x="610" d="M490 939T495 939T504 938T511 936T519 932T525 928T532 921T539 914Q553 896 556 893Q623 813 623 796T604 778T570 792T529 843T498 887Q470 872 437 847T381 805T347 788T327 794T319 815T334 845T373 875T414
899T440 915T461 927T481 936ZM420 202T469 293T519 464T483 596T409 648T324 609T232 509T157 369T126 220T157 114T227 75Q281 75 350 138ZM218 19Q156 19 111 80T66 206Q66 325 120 444T253 635T405 708T531 635T584 470T531 272T390 93T218 19Z" />
<glyph unicode="&#xd5;" horiz-adv-x="610" d="M343 804Q343 836 379 872T452 908Q490 908 512 871Q535 834 555 832Q568 833 579 843T596 864Q612 895 629 895T646 868T619 810T553 779Q505 779 449 858Q428 848 412 829T386 797T365 783Q343 783 343 804ZM420
202T469 293T519 464T483 596T409 648T324 609T232 509T157 369T126 220T157 114T227 75Q281 75 350 138ZM218 19Q156 19 111 80T66 206Q66 325 120 444T253 635T405 708T531 635T584 470T531 272T390 93T218 19Z" />
<glyph unicode="&#xd6;" horiz-adv-x="610" d="M510 878T521 891T545 905T576 872T594 824Q594 799 578 799Q558 799 534 822T510 862ZM374 878T385 891T409 905T440 872T458 824Q458 799 442 799Q422 799 398 822T374 862ZM420 202T469 293T519 464T483 596T409
648T324 609T232 509T157 369T126 220T157 114T227 75Q281 75 350 138ZM218 19Q156 19 111 80T66 206Q66 325 120 444T253 635T405 708T531 635T584 470T531 272T390 93T218 19Z" />
<glyph unicode="&#xd7;" horiz-adv-x="517" d="M436 152Q436 139 415 139Q375 139 261 283Q111 139 91 139Q79 139 66 148T53 166T75 193T143 250T229 325Q179 392 143 450T107 524T125 541T162 533T181 511Q181 483 270 366Q395 493 423 516T466 540T494 533T507
517T475 479T386 398L303 324Q318 306 341 277T379 230T408 194Q436 158 436 152Z" />
<glyph unicode="&#xd8;" horiz-adv-x="610" d="M553 600Q584 540 584 459T531 272T390 93T218 19Q162 19 118 71Q74 17 64 17Q38 17 38 42Q38 56 86 122Q66 164 66 206Q66 325 120 444T253 635T400 708T520 649Q571 703 590 703Q607 703 607 682T564 613L553 600ZM126
215Q126 193 130 177Q168 224 233 304T343 439Q429 546 478 603Q445 648 408 648T324 609T232 509T157 369T126 215ZM519 457Q519 505 506 547Q346 362 154 117Q185 75 233 75T350 138T469 293T519 457Z" />
<glyph unicode="&#xd9;" horiz-adv-x="599" d="M260 891T259 895T257 908T268 931T288 945T302 943T313 934T325 922T341 904T360 883T376 865T390 851T401 840T410 830T416 822T420 816T424 810Q426 805 426 799T420 786T406 780T389 786T360 808T333 830T313
845T297 857T283 868T272 878T264 886ZM185 693T187 698T201 704T228 682T245 625T202 424T158 200T183 104T246 66T327 105T407 209T470 367T495 558Q495 592 492 634T488 687T491 701T502 704Q520 704 539 680T558 608Q558 346 462 178T242 10Q180 10 140 64T99
191T142 433T185 675Q185 693 187 698Z" />
<glyph unicode="&#xda;" horiz-adv-x="599" d="M374 780T368 785T362 797T364 810T372 823T384 837Q401 855 417 871T445 901T463 921T478 936Q494 951 505 951T525 937T535 913T534 900T530 891T523 883T512 873T498 862Q478 846 466 837T446 821T433 811T422
802T412 795T405 789T398 785T392 782Q386 780 380 780ZM185 693T187 698T201 704T228 682T245 625T202 424T158 200T183 104T246 66T327 105T407 209T470 367T495 558Q495 592 492 634T488 687T491 701T502 704Q520 704 539 680T558 608Q558 346 462 178T242 10Q180
10 140 64T99 191T142 433T185 675Q185 693 187 698Z" />
<glyph unicode="&#xdb;" horiz-adv-x="599" d="M389 939T394 939T403 938T410 936T418 932T424 928T431 921T438 914Q452 896 455 893Q522 813 522 796T503 778T469 792T428 843T397 887Q369 872 336 847T280 805T246 788T226 794T218 815T233 845T272 875T313
899T339 915T360 927T380 936ZM185 693T187 698T201 704T228 682T245 625T202 424T158 200T183 104T246 66T327 105T407 209T470 367T495 558Q495 592 492 634T488 687T491 701T502 704Q520 704 539 680T558 608Q558 346 462 178T242 10Q180 10 140 64T99 191T142
433T185 675Q185 693 187 698Z" />
<glyph unicode="&#xdc;" horiz-adv-x="599" d="M409 878T420 891T444 905T475 872T493 824Q493 799 477 799Q457 799 433 822T409 862ZM273 878T284 891T308 905T339 872T357 824Q357 799 341 799Q321 799 297 822T273 862ZM185 693T187 698T201 704T228 682T245
625T202 424T158 200T183 104T246 66T327 105T407 209T470 367T495 558Q495 592 492 634T488 687T491 701T502 704Q520 704 539 680T558 608Q558 346 462 178T242 10Q180 10 140 64T99 191T142 433T185 675Q185 693 187 698Z" />
<glyph unicode="&#xdd;" horiz-adv-x="582" d="M363 780T357 785T351 797T353 810T361 823T374 837Q390 855 406 871T434 901T452 921T468 936Q483 951 494 951T514 937T524 913T523 900T519 891T512 883T501 873T488 862Q467 846 455 837T435 821T422 811T411
802T401 795T394 789T387 785T380 782Q375 780 369 780ZM341 356Q358 356 407 442T507 614T577 700Q607 700 607 674Q607 660 577 610T491 468T404 318T342 201T296 115T264 58Q233 7 217 7Q205 7 205 24T213 66T244 134Q277 202 328 300Q269 311 216 369T132 505T101
650Q101 672 108 686T126 700T147 669T173 579T215 469T278 387T341 356Z" />
<glyph unicode="&#xde;" horiz-adv-x="486" d="M145 181Q100 17 89 17T68 31T57 64T84 188Q168 506 168 614Q168 631 171 637T187 644T214 624T229 578T219 496Q260 509 286 509Q343 509 393 465T444 359Q444 282 365 230T186 178Q166 178 145 181ZM187 234Q261
234 323 272T385 352T355 420T287 446T207 426Q185 327 160 235Q169 234 187 234Z" />
<glyph unicode="&#xdf;" horiz-adv-x="577" d="M260 75L314 73Q363 73 406 104T450 180Q450 208 427 236T377 284T326 329T303 374T325 409T374 438T423 475T445 529Q445 576 414 610T344 644T272 608T225 510Q127 17 90 17Q79 17 70 30T60 61T72 126Q124 319
163 522Q179 607 230 655T358 703Q414 703 460 650T506 532Q506 490 484 459T436 415T388 390T366 372T388 347T438 307T487 251T510 180Q510 102 451 61T317 19Q280 19 259 31T238 60Q238 75 260 75Z" />
<glyph unicode="&#xe0;" horiz-adv-x="447" d="M403 594T403 592T404 584T398 573T384 567T367 573T338 595T311 617T291 632T275 644T261 655T250 665T242 674Q235 681 235 692T246 718T266 732T280 730T291 721T303 709T319 691T338 670T354 652T368 638T379
627T388 617T394 609T398 603T401 597ZM89 370T156 436T275 502T355 459T384 382T362 317Q371 307 371 291Q371 227 361 170T347 79T341 31T328 17Q311 17 306 49T301 150Q270 95 223 56T130 17T42 52T0 129Q0 193 44 281ZM332 329Q331 336 331 362T320 416T285
443Q247 443 194 386T101 253T62 128Q62 106 82 91T126 76Q178 76 232 143T314 308Q317 325 332 329Z" />
<glyph unicode="&#xe1;" horiz-adv-x="447" d="M465 731T471 734T485 738T503 724T513 700T512 687T508 678T501 670T490 660T476 650Q456 633 444 624T424 608T411 598T400 589T390 582T383 576T376 572T370 570Q364 567 358 567T346 572T340 584T342 597T350
610T362 624Q379 642 395 658T423 688T441 708T456 723ZM89 370T156 436T275 502T355 459T384 382T362 317Q371 307 371 291Q371 227 361 170T347 79T341 31T328 17Q311 17 306 49T301 150Q270 95 223 56T130 17T42 52T0 129Q0 193 44 281ZM332 329Q331 336 331
362T320 416T285 443Q247 443 194 386T101 253T62 128Q62 106 82 91T126 76Q178 76 232 143T314 308Q317 325 332 329Z" />
<glyph unicode="&#xe2;" horiz-adv-x="447" d="M433 680Q500 600 500 583T481 565T447 579T406 630T375 674Q347 659 314 634T258 592T224 575T204 581T196 602T211 632T250 662T291 686T317 702T338 714T358 723T372 726T381 725T388 723T396 719T402 715T409
708T416 700Q430 683 433 680ZM89 370T156 436T275 502T355 459T384 382T362 317Q371 307 371 291Q371 227 361 170T347 79T341 31T328 17Q311 17 306 49T301 150Q270 95 223 56T130 17T42 52T0 129Q0 193 44 281ZM332 329Q331 336 331 362T320 416T285 443Q247
443 194 386T101 253T62 128Q62 106 82 91T126 76Q178 76 232 143T314 308Q317 325 332 329Z" />
<glyph unicode="&#xe3;" horiz-adv-x="447" d="M489 682T506 682T523 655T496 597T430 566Q382 566 326 645Q305 635 289 616T263 584T242 570Q220 570 220 591Q220 623 256 659T329 695Q367 695 390 658Q412 621 432 619Q445 620 456 630T473 652Q489 682 506
682ZM89 370T156 436T275 502T355 459T384 382T362 317Q371 307 371 291Q371 227 361 170T347 79T341 31T328 17Q311 17 306 49T301 150Q270 95 223 56T130 17T42 52T0 129Q0 193 44 281ZM332 329Q331 336 331 362T320 416T285 443Q247 443 194 386T101 253T62
128Q62 106 82 91T126 76Q178 76 232 143T314 308Q317 325 332 329Z" />
<glyph unicode="&#xe4;" horiz-adv-x="447" d="M387 665T398 678T422 692T453 659T471 611Q471 586 455 586Q435 586 411 609T387 649ZM89 370T156 436T275 502T355 459T384 382T362 317Q371 307 371 291Q371 227 361 170T347 79T341 31T328 17Q311 17 306 49T301
150Q270 95 223 56T130 17T42 52T0 129Q0 193 44 281ZM332 329Q331 336 331 362T320 416T285 443Q247 443 194 386T101 253T62 128Q62 106 82 91T126 76Q178 76 232 143T314 308Q317 325 332 329ZM319 586Q299 586 275 609T251 649T262 678T286 692T317 659T335
611Q335 586 319 586Z" />
<glyph unicode="&#xe5;" horiz-adv-x="447" d="M295 665T321 698T380 731T432 709T452 652T426 584T367 551T315 573T295 630ZM341 616T348 605T369 594T393 609T405 644T398 675T377 686T353 671T341 636ZM89 370T156 436T275 502T355 459T384 382T362 317Q371
307 371 291Q371 227 361 170T347 79T341 31T328 17Q311 17 306 49T301 150Q270 95 223 56T130 17T42 52T0 129Q0 193 44 281ZM332 329Q331 336 331 362T320 416T285 443Q247 443 194 386T101 253T62 128Q62 106 82 91T126 76Q178 76 232 143T314 308Q317 325 332
329Z" />
<glyph unicode="&#xe6;" horiz-adv-x="729" d="M304 443Q258 443 206 385T121 253T88 128Q88 106 105 91T142 76Q198 76 245 131T342 299Q352 326 362 341Q360 443 304 443ZM567 446Q522 446 478 402T404 292Q463 278 520 278T613 297T650 348T623 413T567 446ZM29
132Q29 198 67 284T171 436T299 502Q340 502 369 476T408 411Q481 502 561 502Q616 502 661 450T707 345T654 262T533 231T387 250Q371 203 371 161T399 97T473 74T571 93T630 112Q648 112 648 96Q648 76 589 47T473 17T369 55T316 156Q272 86 234 52T150 17T67
51T29 132Z" />
<glyph unicode="&#xe7;" horiz-adv-x="422" d="M167 -36Q199 -36 227 -52T256 -89Q256 -120 224 -142Q167 -179 81 -179Q51 -179 51 -162Q51 -150 79 -145T142 -130T191 -98Q187 -88 144 -80T100 -60Q100 -48 114 -18T134 26Q90 42 63 77T35 170T76 307T181 445T305
502Q349 502 376 471T404 419T392 399T355 420T309 442Q269 442 218 393T132 276T96 166T119 100T185 76T265 88T323 111T355 123Q369 123 369 107Q369 86 303 52T189 17H184Q176 -5 159 -36H167Z" />
<glyph unicode="&#xe8;" horiz-adv-x="429" d="M407 292T354 262T232 231T87 250Q71 199 71 159T99 97T173 74T271 93T330 112Q348 112 348 96Q348 76 289 47T181 17Q112 17 64 60T15 173T51 320T145 449T259 502T361 450T407 345ZM267 446Q222 446 178 402T104
292Q162 278 219 278T313 297T350 348T323 413T267 446ZM190 678T189 682T187 695T198 718T218 732T232 730T243 721T255 709T271 691T290 670T306 652T320 638T331 627T340 617T346 609T350 603T354 597Q356 592 356 586T350 573T336 567T319 573T290 595T263
617T243 632T227 644T213 655T202 665T194 673Z" />
<glyph unicode="&#xe9;" horiz-adv-x="429" d="M417 731T423 734T437 738T455 724T465 700T464 687T460 678T453 670T442 660T428 650Q408 633 396 624T376 608T363 598T352 589T342 582T335 576T328 572T322 570Q316 567 310 567T298 572T292 584T294 597T302
610T314 624Q331 642 347 658T375 688T393 708T408 723ZM87 397T145 449T259 502T361 450T407 345T354 262T232 231T87 250Q71 199 71 159T99 97T173 74T271 93T330 112Q348 112 348 96Q348 76 289 47T181 17Q112 17 64 60T15 173T51 320ZM104 292Q162 278 219
278T313 297T350 348T323 413T267 446Q222 446 178 402T104 292Z" />
<glyph unicode="&#xea;" horiz-adv-x="429" d="M385 680Q452 600 452 583T433 565T399 579T358 630T327 674Q299 659 266 634T210 592T176 575T156 581T148 602T163 632T202 662T243 686T269 702T290 714T310 723T324 726T333 725T340 723T348 719T354 715T361
708T368 700Q382 683 385 680ZM87 397T145 449T259 502T361 450T407 345T354 262T232 231T87 250Q71 199 71 159T99 97T173 74T271 93T330 112Q348 112 348 96Q348 76 289 47T181 17Q112 17 64 60T15 173T51 320ZM104 292Q162 278 219 278T313 297T350 348T323
413T267 446Q222 446 178 402T104 292Z" />
<glyph unicode="&#xeb;" horiz-adv-x="429" d="M339 666T350 679T374 693T405 660T423 612Q423 587 407 587Q387 587 363 610T339 650ZM87 397T145 449T259 502T361 450T407 345T354 262T232 231T87 250Q71 199 71 159T99 97T173 74T271 93T330 112Q348 112 348
96Q348 76 289 47T181 17Q112 17 64 60T15 173T51 320ZM104 292Q162 278 219 278T313 297T350 348T323 413T267 446Q222 446 178 402T104 292ZM271 587Q251 587 227 610T203 650T214 679T238 693T269 660T287 612Q287 587 271 587Z" />
<glyph unicode="&#xec;" horiz-adv-x="226" d="M76 678T75 682T73 695T84 718T104 732T118 730T129 721T141 709T157 691T176 670T192 652T206 638T217 627T226 617T232 609T236 603T240 597Q242 592 242 586T236 573T222 567T205 573T176 595T149 617T129 632T113
644T99 655T88 665T80 673ZM130 438T140 470T162 502T185 489T196 462Q196 395 94 73Q75 17 55 17Q45 17 38 26T31 47T44 104T74 213T111 356Z" />
<glyph unicode="&#xed;" horiz-adv-x="226" d="M130 438T140 470T162 502T185 489T196 462Q196 395 94 73Q75 17 55 17Q45 17 38 26T31 47T44 104T74 213T111 356ZM189 567T183 572T177 584T179 597T187 610T200 624Q216 642 232 658T260 688T278 708T294 723Q309
738 320 738T340 724T350 700T349 687T345 678T338 670T327 660T314 650Q293 633 281 624T261 608T248 598T237 589T227 582T220 576T213 572T206 570Q201 567 195 567Z" />
<glyph unicode="&#xee;" horiz-adv-x="226" d="M130 438T140 470T162 502T185 489T196 462Q196 395 94 73Q75 17 55 17Q45 17 38 26T31 47T44 104T74 213T111 356ZM204 726T209 726T218 725T225 723T233 719T239 715T246 708T253 700Q267 683 270 680Q337 600
337 583T318 565T284 579T243 630T212 674Q184 659 151 634T95 592T61 575T41 581T33 602T48 632T87 662T128 686T154 702T175 714T195 723Z" />
<glyph unicode="&#xef;" horiz-adv-x="226" d="M130 438T140 470T162 502T185 489T196 462Q196 395 94 73Q75 17 55 17Q45 17 38 26T31 47T44 104T74 213T111 356ZM224 666T235 679T259 693T290 660T308 612Q308 587 292 587Q272 587 248 610T224 650ZM88 666T99
679T123 693T154 660T172 612Q172 587 156 587Q136 587 112 610T88 650Z" />
<glyph unicode="&#xf0;" horiz-adv-x="452" d="M302 590Q263 649 231 649Q222 649 207 641T181 632Q166 632 166 650T186 686T229 704Q302 704 357 613Q437 647 452 647T468 634Q468 616 376 574Q412 489 412 397T375 217T278 73T162 17T76 58T44 175Q44 291 109
379T270 468Q313 468 350 427Q344 497 322 549Q236 513 216 513T195 527T219 554T302 590ZM156 71Q222 71 282 171T350 372Q312 418 278 418Q211 418 159 344T106 154Q106 121 120 96T156 71Z" />
<glyph unicode="&#xf1;" horiz-adv-x="521" d="M386 502Q412 502 443 464T475 383Q475 320 443 221T386 69T340 17Q324 17 324 34T332 77T358 150Q417 307 417 379Q417 402 404 418T381 435T363 432T346 420T328 404T307 379T285 351T261 316T235 278Q195 215
175 186T126 109Q69 17 62 17Q51 17 39 31T26 56T34 92Q67 198 76 239Q106 367 106 456Q106 503 124 503Q138 503 152 485T166 435T145 309T97 143Q213 342 277 422T386 502ZM197 570Q175 570 175 591Q175 623 211 659T284 695Q322 695 344 658Q367 621 387 619Q400
620 411 630T428 652Q444 682 461 682T478 655T451 597T385 566Q337 566 281 645Q260 635 244 616T218 584T197 570Z" />
<glyph unicode="&#xf2;" horiz-adv-x="452" d="M193 678T192 682T190 695T201 718T221 732T235 730T246 721T258 709T274 691T293 670T309 652T323 638T334 627T343 617T349 609T353 603T356 597Q359 592 359 586T353 573T339 567T322 573T293 595T266 617T246
632T230 644T216 655T205 665T197 673ZM304 168T327 228T351 334T336 412T294 457Q211 441 158 350T105 160Q105 85 156 67Q212 73 258 120ZM111 401T168 451T284 502T376 453T410 337Q410 219 333 118T155 17Q105 17 75 62T45 178T78 325Z" />
<glyph unicode="&#xf3;" horiz-adv-x="452" d="M304 168T327 228T351 334T336 412T294 457Q211 441 158 350T105 160Q105 85 156 67Q212 73 258 120ZM111 401T168 451T284 502T376 453T410 337Q410 219 333 118T155 17Q105 17 75 62T45 178T78 325ZM307 567T301
572T295 584T297 597T305 610T318 624Q334 642 350 658T378 688T396 708T412 723Q427 738 438 738T458 724T468 700T467 687T463 678T456 670T445 660T432 650Q411 633 399 624T379 608T366 598T355 589T345 582T338 576T331 572T324 570Q319 567 313 567Z" />
<glyph unicode="&#xf4;" horiz-adv-x="452" d="M304 168T327 228T351 334T336 412T294 457Q211 441 158 350T105 160Q105 85 156 67Q212 73 258 120ZM111 401T168 451T284 502T376 453T410 337Q410 219 333 118T155 17Q105 17 75 62T45 178T78 325ZM322 726T327
726T336 725T343 723T351 719T357 715T364 708T371 700Q385 683 388 680Q455 600 455 583T436 565T402 579T361 630T330 674Q302 659 269 634T213 592T179 575T159 581T151 602T166 632T205 662T246 686T272 702T293 714T313 723Z" />
<glyph unicode="&#xf5;" horiz-adv-x="452" d="M175 591Q175 623 211 659T284 695Q322 695 344 658Q367 621 387 619Q400 620 411 630T428 652Q444 682 461 682T478 655T451 597T385 566Q337 566 281 645Q260 635 244 616T218 584T197 570Q175 570 175 591ZM304
168T327 228T351 334T336 412T294 457Q211 441 158 350T105 160Q105 85 156 67Q212 73 258 120ZM111 401T168 451T284 502T376 453T410 337Q410 219 333 118T155 17Q105 17 75 62T45 178T78 325Z" />
<glyph unicode="&#xf6;" horiz-adv-x="452" d="M304 168T327 228T351 334T336 412T294 457Q211 441 158 350T105 160Q105 85 156 67Q212 73 258 120ZM111 401T168 451T284 502T376 453T410 337Q410 219 333 118T155 17Q105 17 75 62T45 178T78 325ZM342 666T353
679T377 693T408 660T426 612Q426 587 410 587Q390 587 366 610T342 650ZM206 666T217 679T241 693T272 660T290 612Q290 587 274 587Q254 587 230 610T206 650Z" />
<glyph unicode="&#xf7;" horiz-adv-x="600" d="M362 448Q340 448 312 476T284 522T297 558T325 576T361 531T382 463Q382 459 375 454T362 448ZM286 55Q264 55 236 83T208 129T221 165T249 183T285 138T306 70Q306 66 299 61T286 55ZM577 350Q577 325 430 306T105
287Q85 287 68 302T51 334T76 351Q146 349 214 349T389 358T536 368T577 350Z" />
<glyph unicode="&#xf8;" horiz-adv-x="459" d="M418 337Q418 262 383 188T286 66T158 17Q117 17 86 51Q58 17 46 17Q26 17 26 36Q26 46 60 93Q45 133 45 175Q45 249 79 325T172 451T297 502Q341 502 372 468Q411 504 439 504Q454 504 454 490Q454 481 419 441L402
421Q418 381 418 337ZM102 158V146Q207 269 264 340T336 428Q319 450 299 457Q216 445 159 351T102 158ZM361 344Q361 358 358 372Q289 292 120 92Q134 72 157 65Q241 71 301 164T361 344Z" />
<glyph unicode="&#xf9;" horiz-adv-x="479" d="M393 486Q393 502 408 502Q420 502 433 484T446 445Q446 439 337 59Q325 17 309 17Q287 17 287 50T320 187Q279 108 227 63T128 17T51 52T19 130Q19 192 46 282T108 437T163 502Q174 502 182 491T191 468T164 401T108
268T80 125Q80 102 94 87T130 71Q180 71 238 148T336 316Q375 404 392 480Q393 484 393 486ZM193 678T192 682T190 695T201 718T221 732T235 730T246 721T258 709T274 691T293 670T309 652T323 638T334 627T343 617T349 609T353 603T356 597Q359 592 359 586T353
573T339 567T322 573T293 595T266 617T246 632T230 644T216 655T205 665T197 673Z" />
<glyph unicode="&#xfa;" horiz-adv-x="479" d="M420 731T426 734T440 738T458 724T468 700T467 687T463 678T456 670T445 660T432 650Q411 633 399 624T379 608T366 598T355 589T345 582T338 576T331 572T324 570Q319 567 313 567T301 572T295 584T297 597T305
610T318 624Q334 642 350 658T378 688T396 708T411 723ZM393 486Q393 502 408 502Q420 502 433 484T446 445Q446 439 337 59Q325 17 309 17Q287 17 287 50T320 187Q279 108 227 63T128 17T51 52T19 130Q19 192 46 282T108 437T163 502Q174 502 182 491T191 468T164
401T108 268T80 125Q80 102 94 87T130 71Q180 71 238 148T336 316Q375 404 392 480Q393 484 393 486Z" />
<glyph unicode="&#xfb;" horiz-adv-x="479" d="M388 680Q455 600 455 583T436 565T402 579T361 630T330 674Q302 659 269 634T213 592T179 575T159 581T151 602T166 632T205 662T246 686T272 702T293 714T313 723T327 726T336 725T343 723T351 719T357 715T364
708T371 700Q385 683 388 680ZM393 486Q393 502 408 502Q420 502 433 484T446 445Q446 439 337 59Q325 17 309 17Q287 17 287 50T320 187Q279 108 227 63T128 17T51 52T19 130Q19 192 46 282T108 437T163 502Q174 502 182 491T191 468T164 401T108 268T80 125Q80
102 94 87T130 71Q180 71 238 148T336 316Q375 404 392 480Q393 484 393 486Z" />
<glyph unicode="&#xfc;" horiz-adv-x="479" d="M393 486Q393 502 408 502Q420 502 433 484T446 445Q446 439 337 59Q325 17 309 17Q287 17 287 50T320 187Q279 108 227 63T128 17T51 52T19 130Q19 192 46 282T108 437T163 502Q174 502 182 491T191 468T164 401T108
268T80 125Q80 102 94 87T130 71Q180 71 238 148T336 316Q375 404 392 480Q393 484 393 486ZM274 587Q254 587 230 610T206 650T217 679T241 693T272 660T290 612Q290 587 274 587ZM410 587Q390 587 366 610T342 650T353 679T377 693T408 660T426 612Q426 587 410
587Z" />
<glyph unicode="&#xfd;" horiz-adv-x="442" d="M443 731T449 734T463 738T481 724T491 700T490 687T486 678T479 670T468 660T454 650Q434 633 422 624T402 608T389 598T378 589T368 582T361 576T354 572T348 570Q342 567 336 567T324 572T318 584T320 597T328
610T340 624Q357 642 373 658T401 688T419 708T434 723ZM415 502Q428 502 441 485T454 453T445 410T415 320T375 208T321 58T262 -107Q215 -239 131 -239Q80 -239 30 -207T-20 -137Q-20 -128 -12 -117T2 -106T26 -127Q79 -191 129 -191Q148 -191 165 -174T202 -113Q230
-51 286 117Q218 17 139 17Q93 17 62 52T31 141T58 284T120 438T174 502Q184 502 193 491T203 467T176 399T120 267T92 125Q92 102 106 87T142 71Q179 71 219 112T294 218Q355 338 397 472Q402 499 406 500T415 502Z" />
<glyph unicode="&#xfe;" horiz-adv-x="526" d="M205 463Q271 498 328 498T437 442T490 321T443 202T330 121T204 93Q184 93 162 101T128 125Q44 -200 35 -200T13 -186T1 -153T44 41Q170 559 170 683Q170 700 173 706T189 713T215 692T229 634T205 463ZM192 150Q277
150 354 202T431 315Q431 365 400 400T319 435T191 390Q179 329 166 278T139 169Q177 150 192 150Z" />
<glyph unicode="&#xff;" horiz-adv-x="442" d="M415 502Q428 502 441 485T454 453T445 410T415 320T375 208T321 58T262 -107Q215 -239 131 -239Q80 -239 30 -207T-20 -137Q-20 -128 -12 -117T2 -106T26 -127Q79 -191 129 -191Q148 -191 165 -174T202 -113Q230
-51 286 117Q218 17 139 17Q93 17 62 52T31 141T58 284T120 438T174 502Q184 502 193 491T203 467T176 399T120 267T92 125Q92 102 106 87T142 71Q179 71 219 112T294 218Q355 338 397 472Q402 499 406 500T415 502ZM297 586Q277 586 253 609T229 649T240 678T264
692T295 659T313 611Q313 586 297 586ZM433 586Q413 586 389 609T365 649T376 678T400 692T431 659T449 611Q449 586 433 586Z" />
<glyph unicode="&#x2013;" horiz-adv-x="603" d="M500 362Q554 362 554 341Q554 327 502 318Q405 301 356 295T252 278T161 260T113 253T91 262T80 283Q79 303 232 332T500 362Z" />
<glyph unicode="&#x2014;" horiz-adv-x="889" d="M79 288Q79 304 164 319T418 346T795 357Q860 357 860 334Q860 321 803 315T605 303T384 290T209 269T106 253T89 264T79 288Z" />
<glyph unicode="&#x2018;" horiz-adv-x="252" d="M45 650Q45 712 103 768T194 825Q212 825 212 813Q212 800 162 760Q143 746 127 723T111 677T120 645T140 630Q170 622 170 602Q170 587 157 577T120 566T70 589T45 650Z" />
<glyph unicode="&#x2019;" horiz-adv-x="251" d="M206 741Q206 679 148 623T58 566Q40 566 40 577T65 608T115 656T141 710T132 746T112 760Q82 769 82 789Q82 804 95 814T132 825T181 802T206 741Z" />
<glyph unicode="&#x201a;" horiz-adv-x="262" d="M148 30Q148 -25 98 -87T15 -150Q0 -150 0 -140T13 -114T42 -81T71 -39T84 15Q84 31 64 43T43 67T54 95T79 111Q106 111 127 87T148 30Z" />
<glyph unicode="&#x201c;" horiz-adv-x="429" d="M237 650Q237 708 284 762T372 816Q389 816 389 802T362 763Q312 714 312 674Q312 652 323 631T335 596Q335 566 303 566Q275 566 256 589T237 650ZM45 650Q45 712 98 768T184 825Q201 825 201 811Q201 802 181
780Q121 716 121 674Q121 649 132 629T144 597Q144 566 111 566Q83 566 64 589T45 650Z" />
<glyph unicode="&#x201d;" horiz-adv-x="429" d="M192 741Q192 683 145 629T57 575Q40 575 40 589Q40 599 59 618Q117 678 117 717Q117 739 106 760T94 795Q94 825 126 825Q154 825 173 802T192 741ZM384 741Q384 679 331 623T245 566Q228 566 228 580Q228 589
248 610Q308 675 308 717Q308 742 297 762T285 794Q285 825 318 825Q346 825 365 802T384 741Z" />
<glyph unicode="&#x201e;" horiz-adv-x="439" d="M325 30Q325 -25 275 -87T192 -150Q177 -150 177 -140T190 -114T219 -81T248 -39T261 15Q261 31 241 43T220 67T231 95T256 111Q283 111 304 87T325 30ZM148 30Q148 -25 98 -87T15 -150Q0 -150 0 -140T13 -114T42
-81T71 -39T84 15Q84 31 64 43T43 67T54 95T79 111Q106 111 127 87T148 30Z" />
<glyph unicode="&#x2022;" horiz-adv-x="237" d="M161 239Q134 239 100 273T65 331T81 376T116 397T160 341T186 257Q186 253 178 246T161 239Z" />
<glyph unicode="&#x2039;" horiz-adv-x="561" d="M423 495Q441 495 452 487T463 474T462 466T459 461T454 458T448 455T441 452T433 450T378 432T231 375T135 311Q135 294 275 232T416 156Q416 140 381 140T205 206T64 304Q64 317 75 335T99 363Q144 398 262 446T423
495Z" />
<glyph unicode="&#x203a;" horiz-adv-x="584" d="M170 465Q170 472 181 483T202 495Q238 494 306 465T433 392T491 313Q491 296 478 283Q446 253 317 196T143 138Q121 138 121 148Q121 163 273 236T425 319Q425 342 348 384T221 440T170 465Z" />
</font>
</defs>
</svg>
