<?xml version="1.0" standalone="no"?>
<!DOCTYPE svg PUBLIC "-//W3C//DTD SVG 1.1//EN" "http://www.w3.org/Graphics/SVG/1.1/DTD/svg11.dtd">
<svg xmlns="http://www.w3.org/2000/svg">
<defs >
<font id="Kanit" horiz-adv-x="553" ><font-face
    font-family="Kanit Light"
    units-per-em="1000"
    panose-1="0 0 4 0 0 0 0 0 0 0"
    ascent="1100"
    descent="-395"
    alphabetic="0" />
<glyph unicode=" " glyph-name="space" horiz-adv-x="380" />
<glyph unicode="!" glyph-name="exclam" horiz-adv-x="190" d="M107 487L140 644H222L189 487L112 154H42L107 487ZM13 65H103L90 0H0L13 65Z" />
<glyph unicode="&quot;" glyph-name="quotedbl" horiz-adv-x="321" d="M136 644H210L160 467H99L136 644ZM283 644H357L307 467H246L283 644Z" />
<glyph unicode="#" glyph-name="numbersign" horiz-adv-x="700" d="M128 180H38L50 237H158L247 406H133L145 464H277L372 644H444L349 464H537L632 644H705L610 464H698L686 406H580L491 237H603L591 180H461L366 0H294L388 180H200L105 0H34L128 180ZM418 237L507
406H319L230 237H418Z" />
<glyph unicode="$" glyph-name="dollar" horiz-adv-x="556" d="M194 -10Q88 -9 19 20L34 93Q113 60 209 60L259 297Q256 297 255 298Q171 321 134 354T97 439Q97 460 101 477Q117 554 174 599T335 652L352 730H416L400 654Q445 653 485 646T550 629L535 557Q468
583 385 584L336 356Q420 332 458 297T496 208Q496 191 491 168Q457 9 258 -7L242 -86H178L194 -10ZM320 581Q202 567 183 477Q180 464 180 452Q180 424 201 407T276 373L320 581ZM332 70T364 94T409 168Q413 190 413 197Q413 227 392 245T319 279L273 63Q332 70
364 94Z" />
<glyph unicode="%" glyph-name="percent" horiz-adv-x="713" d="M162 365T132 393T102 468Q102 487 106 503Q122 577 162 615T277 654Q330 654 358 627T386 549Q386 523 381 503Q367 438 327 402T215 365Q162 365 132 393ZM574 644H651L173 0H96L574 644ZM269
420T292 441T325 504Q330 529 330 543Q330 572 315 585T265 598Q223 598 199 576T165 504Q161 488 161 472Q161 446 176 433T227 420Q269 420 292 441ZM421 -10T391 18T361 93Q361 112 365 128Q381 202 421 240T536 279Q589 279 617 252T645 174Q645 148 640 128Q626
63 586 27T474 -10Q421 -10 391 18ZM528 45T551 66T584 129Q589 154 589 168Q589 197 574 210T524 223Q482 223 458 201T424 129Q420 113 420 97Q420 71 435 58T486 45Q528 45 551 66Z" />
<glyph unicode="&amp;" glyph-name="ampersand" horiz-adv-x="660" d="M129 -10T79 24T28 120Q28 130 32 152Q46 217 96 266T232 356Q199 398 184 424T169 483Q169 496 172 511Q185 574 235 614T362 654Q422 654 456 625T491 545Q491 535 487 511Q476 460 442
423T340 345L470 176Q495 213 507 270L510 284H575L572 270Q564 231 547 194T507 130L578 39L518 -6L455 73Q407 30 349 10T217 -10Q129 -10 79 24ZM355 417T382 443T418 508Q421 523 421 537Q421 564 404 577T348 591Q302 591 276 570T241 512Q239 500 239 495Q239
472 251 452T297 385Q355 417 382 443ZM287 49T332 66T415 119L272 306Q198 275 160 241T111 154Q109 146 109 132Q109 92 141 71T230 49Q287 49 332 66Z" />
<glyph unicode="&apos;" glyph-name="quotesingle" horiz-adv-x="174" d="M136 644H210L160 467H99L136 644Z" />
<glyph unicode="(" glyph-name="parenleft" horiz-adv-x="310" d="M48 4T48 154Q48 226 64 303Q88 414 142 515T281 678H374Q199 553 146 303Q130 230 130 161Q130 15 214 -72H121Q48 4 48 154Z" />
<glyph unicode=")" glyph-name="parenright" horiz-adv-x="310" d="M139 54T192 303Q208 374 208 443Q208 591 124 678H218Q290 602 290 451Q290 380 274 303Q250 191 196 90T58 -72H-36Q139 54 192 303Z" />
<glyph unicode="*" glyph-name="asterisk" horiz-adv-x="428" d="M107 377L220 480L111 529L148 578L247 525L268 644H333L304 525L424 578L439 524L307 475L379 372L326 335L264 447L154 335L107 377Z" />
<glyph unicode="+" glyph-name="plus" horiz-adv-x="477" d="M205 236H50L63 301H218L251 455H318L285 301H440L427 236H272L240 88H173L205 236Z" />
<glyph unicode="," glyph-name="comma" horiz-adv-x="202" d="M40 57H114L34 -120H-26L40 57Z" />
<glyph unicode="-" glyph-name="hyphen" horiz-adv-x="477" d="M63 301H440L427 236H50L63 301Z" />
<glyph unicode="." glyph-name="period" horiz-adv-x="174" d="M14 69H88L74 0H0L14 69Z" />
<glyph unicode="/" glyph-name="slash" horiz-adv-x="417" d="M374 662H457L83 0H0L374 662Z" />
<glyph unicode="0" glyph-name="zero" horiz-adv-x="647" d="M161 -10T107 45T53 203Q53 249 66 314Q102 483 183 568T413 654Q524 654 576 601T629 445Q629 391 613 314Q580 156 498 73T271 -10Q161 -10 107 45ZM384 60T445 127T531 314Q548 390 548 443Q548
514 513 549T398 584Q205 584 148 314Q135 251 135 208Q135 136 170 98T286 60Q384 60 445 127Z" />
<glyph unicode="1" glyph-name="one" horiz-adv-x="304" d="M224 574L118 556L132 625L323 654L184 0H102L224 574Z" />
<glyph unicode="2" glyph-name="two" horiz-adv-x="506" d="M9 44Q45 102 100 152T231 257Q300 306 335 336T388 396T415 465Q421 489 421 509Q421 547 394 565T299 584Q224 584 142 555L158 628Q193 639 239 646T327 654Q410 654 456 617T502 512Q502 485 497
465Q487 419 464 383T406 316T316 243L290 224Q221 172 182 139T114 64H419L406 0H0L9 44Z" />
<glyph unicode="3" glyph-name="three" horiz-adv-x="514" d="M126 -10T78 -2T3 17L18 89Q86 60 175 60Q263 60 309 86T369 177Q373 192 373 209Q373 252 340 273T246 295H153L174 357H251Q322 357 364 388T419 477Q423 499 423 508Q423 548 392 566T289 584Q250
584 208 576T129 555L145 626Q176 638 224 646T315 654Q407 654 456 617T505 516Q505 495 501 478Q490 425 454 382T362 323Q410 312 432 282T455 211Q455 199 451 177Q432 85 358 38T170 -10Q126 -10 78 -2Z" />
<glyph unicode="4" glyph-name="four" horiz-adv-x="541" d="M342 148H11L24 210L456 644H529L438 215H506L492 148H424L393 0H311L342 148ZM367 213L438 546L107 213H367Z" />
<glyph unicode="5" glyph-name="five" horiz-adv-x="512" d="M124 -10T79 -3T6 17L22 90Q90 60 177 60Q263 60 309 92T370 192Q376 219 376 241Q376 282 349 301T254 320H68L80 377L153 644H502L481 580H209L154 385H275Q365 385 411 348T457 241Q457 220 452
192Q412 -10 171 -10Q124 -10 79 -3Z" />
<glyph unicode="6" glyph-name="six" horiz-adv-x="569" d="M136 -10T88 29T39 152Q39 183 49 235L82 387Q110 514 192 584T399 654Q484 654 542 633L527 562Q470 584 388 584Q296 584 239 536T163 402L153 353Q196 380 246 394T337 409Q428 409 473 372T518 264Q518
233 511 201Q490 101 422 46T232 -10Q136 -10 88 29ZM325 55T373 93T437 199Q444 234 444 255Q444 300 415 322T317 345Q227 345 139 290L123 212Q116 181 116 154Q116 103 147 79T246 55Q325 55 373 93Z" />
<glyph unicode="7" glyph-name="seven" horiz-adv-x="498" d="M445 580H113L126 644H544L532 587L160 0H77L445 580Z" />
<glyph unicode="8" glyph-name="eight" horiz-adv-x="584" d="M141 -10T86 25T31 129Q31 145 36 170Q48 229 89 272T194 333Q155 348 135 376T115 442Q115 458 118 474Q136 559 201 606T381 654Q474 654 522 618T571 516Q571 499 566 474Q556 422 521 383T423
323Q473 308 498 277T523 202Q523 187 520 170Q502 80 433 35T239 -10Q141 -10 86 25ZM411 364T446 392T492 473Q496 495 496 504Q496 589 367 589Q294 589 250 560T192 474Q189 462 189 450Q189 417 210 395T271 364L344 349Q411 364 446 392ZM421 55T446 171Q449
186 449 200Q449 236 425 255T348 285L265 303Q200 290 161 260T110 172Q106 148 106 140Q106 96 141 76T253 55Q421 55 446 171Z" />
<glyph unicode="9" glyph-name="nine" horiz-adv-x="569" d="M121 -10T63 11L78 82Q135 60 217 60Q311 60 367 108T442 242L452 291Q409 264 359 250T267 235Q179 235 133 272T87 382Q87 412 94 443Q114 542 183 598T373 654Q465 654 514 612T564 485Q564 451
555 409L523 257Q496 128 416 59T206 -10Q121 -10 63 11ZM378 299T466 354L482 432Q488 461 488 484Q488 589 359 589Q283 589 233 551T168 445Q162 417 162 393Q162 347 191 323T288 299Q378 299 466 354Z" />
<glyph unicode=":" glyph-name="colon" horiz-adv-x="173" d="M84 398H157L142 329H69L84 398ZM20 97H93L78 28H5L20 97Z" />
<glyph unicode=";" glyph-name="semicolon" horiz-adv-x="202" d="M114 398H186L171 329H99L114 398ZM43 74H117L38 -103H-22L43 74Z" />
<glyph unicode="&lt;" glyph-name="less" horiz-adv-x="547" d="M55 262L69 329L560 535L544 455L148 293L475 130L458 56L55 262Z" />
<glyph unicode="=" glyph-name="equal" horiz-adv-x="482" d="M78 370H460L448 311H66L78 370ZM48 228H430L417 168H35L48 228Z" />
<glyph unicode="&gt;" glyph-name="greater" horiz-adv-x="547" d="M28 136L424 299L97 461L113 535L516 329L502 262L11 56L28 136Z" />
<glyph unicode="?" glyph-name="question" horiz-adv-x="493" d="M153 178Q164 229 197 263T291 340L319 360Q358 388 381 414T411 474Q416 499 416 514Q416 551 387 567T284 584Q241 584 197 574T116 548L131 618Q167 635 216 644T318 654Q406 654 452 619T498
520Q498 502 493 475Q483 425 452 391T359 313L336 297Q301 272 284 257T253 222T234 174L230 155H148L153 178ZM125 65H215L202 0H112L125 65Z" />
<glyph unicode="@" glyph-name="at" horiz-adv-x="768" d="M180 -132T104 -79T28 94Q28 133 39 188Q76 361 182 443T464 525Q594 525 661 474T729 325Q729 287 721 252Q699 148 648 93T499 38H482Q411 -20 308 -20Q251 -20 217 6T183 79Q183 93 186 106Q199 168
243 205T366 242H493L497 262Q502 287 502 301Q502 329 482 339T409 350Q344 350 282 330L293 384Q349 406 436 406Q498 406 531 380T564 304Q564 288 559 263L524 97Q575 97 605 134T652 252Q661 293 661 324Q661 394 613 426T450 459Q304 459 222 396T108 187Q97
132 97 95Q97 5 152 -30T324 -66Q435 -66 502 -47L487 -114Q408 -132 312 -132Q180 -132 104 -79ZM409 34T460 85L481 187H364Q309 187 284 167T250 105Q247 92 247 81Q247 56 265 45T327 34Q409 34 460 85Z" />
<glyph unicode="A" glyph-name="A" horiz-adv-x="685" d="M381 644H477L585 0H505L474 177H194L89 0H0L381 644ZM473 242L417 573L222 242H473Z" />
<glyph unicode="B" glyph-name="B" horiz-adv-x="627" d="M156 644H448Q526 644 566 612T607 519Q607 501 602 474Q579 367 491 332Q530 319 550 292T571 224Q571 207 566 184Q544 89 489 45T334 0H20L156 644ZM389 362Q447 362 480 390T524 468Q530 492 530 512Q530
547 506 564T421 581H225L178 362H389ZM333 62Q398 62 434 91T484 187Q489 212 489 227Q489 264 462 282T370 300H165L115 62H333Z" />
<glyph unicode="C" glyph-name="C" horiz-adv-x="595" d="M184 -10T120 50T55 218Q55 262 65 308Q139 654 447 654Q550 654 627 624L612 552Q534 584 439 584Q206 584 147 308Q136 256 136 218Q136 139 182 100T329 60Q430 60 513 89L498 16Q409 -10 306 -10Q184
-10 120 50Z" />
<glyph unicode="D" glyph-name="D" horiz-adv-x="642" d="M156 644H408Q516 644 570 596T624 444Q624 390 609 318Q585 206 545 137T440 34T281 0H20L156 644ZM270 64Q342 64 390 85T472 161T527 318Q545 402 545 454Q545 503 528 530T476 568T380 579H225L115 64H270Z" />
<glyph unicode="E" glyph-name="E" horiz-adv-x="555" d="M156 644H591L578 579H225L177 354H494L480 290H163L115 64H468L455 0H20L156 644Z" />
<glyph unicode="F" glyph-name="F" horiz-adv-x="522" d="M156 644H578L565 579H225L177 354H480L466 290H163L102 0H20L156 644Z" />
<glyph unicode="G" glyph-name="G" horiz-adv-x="639" d="M185 -10T120 51T55 220Q55 264 65 308Q100 472 195 563T447 654Q550 654 627 624L612 552Q534 584 439 584Q208 584 147 308Q135 256 135 214Q135 136 180 98T326 60Q413 60 486 86L529 291H357L369 347H612L547
41Q508 19 448 5T306 -10Q185 -10 120 51Z" />
<glyph unicode="H" glyph-name="H" horiz-adv-x="644" d="M156 644H238L177 354H517L578 644H660L524 0H442L503 290H163L102 0H20L156 644Z" />
<glyph unicode="I" glyph-name="I" horiz-adv-x="222" d="M156 644H238L102 0H20L156 644Z" />
<glyph unicode="J" glyph-name="J" horiz-adv-x="427" d="M35 -10T-18 13L-3 83Q19 72 52 66T117 59Q186 59 220 88T268 183L366 644H448L349 177Q330 85 273 38T112 -10Q35 -10 -18 13Z" />
<glyph unicode="K" glyph-name="K" horiz-adv-x="607" d="M156 644H238L171 325L539 644H635L341 386L507 0H419L277 333L149 222L102 0H20L156 644Z" />
<glyph unicode="L" glyph-name="L" horiz-adv-x="525" d="M156 644H238L115 64H458L445 0H20L156 644Z" />
<glyph unicode="M" glyph-name="M" horiz-adv-x="752" d="M156 644H240L363 197L676 644H768L632 0H551L660 516L377 112H322L210 516L101 0H20L156 644Z" />
<glyph unicode="N" glyph-name="N" horiz-adv-x="663" d="M156 644H230L487 126L597 644H679L543 0H468L211 517L102 0H20L156 644Z" />
<glyph unicode="O" glyph-name="O" horiz-adv-x="694" d="M175 -10T115 42T54 204Q54 254 68 322Q105 496 191 575T436 654Q555 654 615 602T676 439Q676 390 662 322Q625 149 538 70T294 -10Q175 -10 115 42ZM421 60T485 120T580 322Q595 391 595 440Q595 517
554 550T421 584Q309 584 245 524T150 322Q135 252 135 203Q135 126 176 93T309 60Q421 60 485 120Z" />
<glyph unicode="P" glyph-name="P" horiz-adv-x="582" d="M156 644H419Q506 644 553 602T600 488Q600 463 594 436Q574 339 511 286T337 233H151L102 0H20L156 644ZM338 297Q415 297 456 332T512 436Q519 471 519 489Q519 534 492 556T403 579H225L165 297H338Z" />
<glyph unicode="Q" glyph-name="Q" horiz-adv-x="694" d="M246 -172T246 -61Q246 -41 251 -8Q153 0 104 52T54 204Q54 254 68 322Q105 496 191 575T436 654Q555 654 615 602T676 439Q676 390 662 322Q627 159 548 79T330 -9Q325 -39 325 -54Q325 -80 338 -91T385
-102Q421 -102 458 -92L443 -161Q401 -172 354 -172Q246 -172 246 -61ZM421 60T485 120T580 322Q595 391 595 440Q595 517 554 550T421 584Q309 584 245 524T150 322Q135 252 135 203Q135 126 176 93T309 60Q421 60 485 120Z" />
<glyph unicode="R" glyph-name="R" horiz-adv-x="602" d="M156 644H431Q512 644 556 602T601 492Q601 471 596 444Q581 372 536 326T420 263Q437 252 444 238T458 194L501 0H417L374 187Q367 219 351 231T289 243H153L102 0H20L156 644ZM345 307Q484 307 514 444Q520
471 520 493Q520 536 495 557T414 579H225L167 307H345Z" />
<glyph unicode="S" glyph-name="S" horiz-adv-x="556" d="M93 -10T19 20L34 93Q116 60 214 60Q303 60 349 84T409 168Q413 183 413 198Q413 224 397 240T350 269T255 298Q171 321 134 354T97 439Q97 460 101 477Q118 562 186 608T378 654Q430 654 476 647T550
629L535 557Q465 584 376 584Q291 584 243 559T183 477Q180 464 180 452Q180 429 194 414T240 386T329 358Q417 334 456 298T496 209Q496 193 491 168Q473 80 404 35T206 -10Q93 -10 19 20Z" />
<glyph unicode="T" glyph-name="T" horiz-adv-x="570" d="M317 579H103L116 644H626L613 579H399L276 0H194L317 579Z" />
<glyph unicode="U" glyph-name="U" horiz-adv-x="671" d="M173 -10T116 37T58 171Q58 204 65 236L151 644H233L146 235Q139 203 139 174Q139 113 177 87T298 60Q395 60 449 101T523 235L610 644H692L606 236Q579 110 502 50T283 -10Q173 -10 116 37Z" />
<glyph unicode="V" glyph-name="V" horiz-adv-x="685" d="M136 644H217L305 83L632 644H721L341 0H245L136 644Z" />
<glyph unicode="W" glyph-name="W" horiz-adv-x="861" d="M136 644H217L226 114L462 573L477 644H544L582 114L817 644H897L612 0H527L491 490L240 0H150L136 644Z" />
<glyph unicode="X" glyph-name="X" horiz-adv-x="652" d="M295 320L139 644H233L356 381L591 644H685L393 320L552 0H457L330 257L95 0H0L295 320Z" />
<glyph unicode="Y" glyph-name="Y" horiz-adv-x="642" d="M281 240L136 644H217L332 310L589 644H678L363 240L312 0H230L281 240Z" />
<glyph unicode="Z" glyph-name="Z" horiz-adv-x="572" d="M9 46L491 579H140L153 644H608L598 593L120 64H490L477 0H0L9 46Z" />
<glyph unicode="[" glyph-name="bracketleft" horiz-adv-x="344" d="M150 706H401L390 641H218L74 -35H246L229 -99H-22L150 706Z" />
<glyph unicode="\" glyph-name="backslash" horiz-adv-x="436" d="M140 662H224L324 -54H241L140 662Z" />
<glyph unicode="]" glyph-name="bracketright" horiz-adv-x="344" d="M-18 -35H154L298 641H126L143 706H394L222 -99H-29L-18 -35Z" />
<glyph unicode="^" glyph-name="asciicircum" horiz-adv-x="459" d="M279 624H342L442 392H368L302 564L164 392H83L279 624Z" />
<glyph unicode="_" glyph-name="underscore" horiz-adv-x="549" d="M0 0H449L435 -64H-14L0 0Z" />
<glyph unicode="`" glyph-name="grave" horiz-adv-x="245" d="M146 690H220L255 522H189L146 690Z" />
<glyph unicode="a" glyph-name="a" horiz-adv-x="575" d="M38 -10T38 145Q38 180 47 223Q64 306 105 365T203 454T325 484Q370 484 403 474T466 439L473 474H555L455 0H385L389 50Q349 19 307 5T211 -10Q38 -10 38 145ZM331 56T397 113L451 371Q430 394 402 406T333
418Q170 418 129 223Q120 181 120 150Q120 99 149 78T246 56Q331 56 397 113Z" />
<glyph unicode="b" glyph-name="b" horiz-adv-x="575" d="M205 -10T169 4T106 50L90 0H20L163 674H245L195 439Q269 484 362 484Q442 484 488 443T535 319Q535 285 526 241Q498 112 433 51T258 -10Q205 -10 169 4ZM330 56T377 101T444 241Q453 283 453 315Q453
370 423 394T326 418Q245 418 180 371L126 113Q165 56 251 56Q330 56 377 101Z" />
<glyph unicode="c" glyph-name="c" horiz-adv-x="490" d="M144 -10T93 35T42 164Q42 202 50 237Q76 361 152 422T353 484Q398 484 428 478T486 457L472 392Q423 418 354 418Q263 418 208 375T132 237Q123 197 123 166Q123 108 158 82T274 56Q343 56 407 82L393
16Q324 -10 241 -10Q144 -10 93 35Z" />
<glyph unicode="d" glyph-name="d" horiz-adv-x="575" d="M130 -10T85 30T40 153Q40 192 50 236Q76 361 145 422T317 484Q409 484 466 439L516 674H598L455 0H385L389 50Q349 19 307 5T211 -10Q130 -10 85 30ZM331 56T397 113L451 371Q431 393 399 405T325 418Q247
418 200 375T132 236Q122 188 122 159Q122 106 151 81T246 56Q331 56 397 113Z" />
<glyph unicode="e" glyph-name="e" horiz-adv-x="533" d="M41 -10T41 161Q41 196 50 239Q103 484 329 484Q414 484 457 445T500 340Q500 315 494 288L475 199H124Q121 175 121 156Q121 118 136 97T185 66T280 56Q353 56 420 81L406 17Q339 -10 250 -10Q41 -10
41 161ZM414 258L423 297Q428 322 428 338Q428 378 402 398T317 418Q238 418 196 379T136 258H414Z" />
<glyph unicode="f" glyph-name="f" horiz-adv-x="346" d="M137 409H66L80 474H151L166 543Q181 613 225 651T345 690Q392 690 429 675L416 613Q386 624 352 624Q302 624 280 606T248 543L233 474H361L343 409H219L133 0H51L137 409Z" />
<glyph unicode="g" glyph-name="g" horiz-adv-x="575" d="M158 -176T122 -173T68 -166L83 -96Q101 -102 131 -105T186 -108Q263 -108 311 -83T372 -2L382 45Q307 0 215 0Q134 0 88 40T42 162Q42 198 51 241Q78 368 143 426T316 484Q369 484 405 470T469 424L485
474H555L456 9Q437 -80 368 -128T185 -176Q158 -176 122 -173ZM332 66T397 113L449 361Q410 418 323 418Q240 418 197 377T133 241Q124 199 124 168Q124 113 154 90T251 66Q332 66 397 113Z" />
<glyph unicode="h" glyph-name="h" horiz-adv-x="570" d="M163 674H245L191 423Q279 484 385 484Q454 484 490 453T526 362Q526 339 520 310L455 0H373L438 307Q443 335 443 351Q443 388 420 403T343 418Q303 418 257 401T177 355L102 0H20L163 674Z" />
<glyph unicode="i" glyph-name="i" horiz-adv-x="296" d="M225 660H316L300 585H209L225 660ZM179 409H106L128 474H275L175 0H93L179 409Z" />
<glyph unicode="j" glyph-name="j" horiz-adv-x="296" d="M225 660H316L300 585H209L225 660ZM-68 -234T-104 -220L-90 -155Q-61 -165 -32 -165Q22 -165 44 -148T75 -87L180 409H107L129 474H276L156 -94Q141 -161 98 -197T-18 -234Q-68 -234 -104 -220Z" />
<glyph unicode="k" glyph-name="k" horiz-adv-x="530" d="M163 674H245L158 265L424 474H519L285 286L430 0H344L224 242L139 175L102 0H20L163 674Z" />
<glyph unicode="l" glyph-name="l" horiz-adv-x="263" d="M81 -10T59 10T37 67Q37 85 41 102L163 674H245L125 111Q122 95 122 85Q122 70 129 65T155 59Q177 59 201 65L188 0Q159 -10 120 -10Q81 -10 59 10Z" />
<glyph unicode="m" glyph-name="m" horiz-adv-x="855" d="M120 474H194L188 420Q281 484 373 484Q469 484 486 419Q577 484 682 484Q813 484 813 371Q813 352 806 315L740 0H659L724 307Q730 334 730 354Q730 389 708 403T635 418Q595 418 557 405T489 365Q489
337 483 307L418 0H341L405 305Q412 342 412 359Q412 392 394 405T330 418Q292 418 252 402T176 357L101 0H20L120 474Z" />
<glyph unicode="n" glyph-name="n" horiz-adv-x="570" d="M120 474H194L188 420Q280 484 385 484Q526 484 526 365Q526 340 520 310L455 0H373L438 307Q444 334 444 353Q444 389 422 403T343 418Q301 418 256 402T178 358L102 0H20L120 474Z" />
<glyph unicode="o" glyph-name="o" horiz-adv-x="574" d="M138 -10T90 33T41 159Q41 195 50 237Q76 361 144 422T339 484Q435 484 484 441T533 315Q533 279 524 237Q498 113 430 52T234 -10Q138 -10 90 33ZM333 60T377 102T442 237Q452 287 452 315Q452 368 423
391T324 414Q241 414 197 372T132 237Q122 187 122 159Q122 106 151 83T249 60Q333 60 377 102Z" />
<glyph unicode="p" glyph-name="p" horiz-adv-x="575" d="M120 474H190L186 424Q225 455 267 469T363 484Q444 484 489 443T534 318Q534 281 525 236Q498 109 432 50T257 -10Q164 -10 109 35L56 -216H-26L120 474ZM329 56T375 98T443 236Q452 280 452 313Q452
367 423 392T328 418Q244 418 178 361L123 103Q167 56 249 56Q329 56 375 98Z" />
<glyph unicode="q" glyph-name="q" horiz-adv-x="611" d="M392 -242T368 -221T343 -157Q343 -137 347 -118L380 35Q305 -10 212 -10Q132 -10 87 31T41 156Q41 193 50 236Q77 363 143 423T316 484Q369 484 405 470T469 424L485 474H555L430 -114Q426 -130 426 -144Q426
-161 436 -167T471 -173Q491 -173 515 -167L501 -232Q472 -242 436 -242Q392 -242 368 -221ZM331 56T394 103L449 361Q410 418 323 418Q241 418 197 375T132 236Q122 193 122 158Q122 104 151 80T248 56Q331 56 394 103Z" />
<glyph unicode="r" glyph-name="r" horiz-adv-x="356" d="M120 474H194L187 414Q228 437 279 456T378 484L365 420Q318 411 264 392T177 353L102 0H20L120 474Z" />
<glyph unicode="s" glyph-name="s" horiz-adv-x="457" d="M126 -10T84 -4T14 12L29 84Q95 60 170 60Q235 60 264 73T301 124Q303 136 303 140Q303 163 284 175T213 206L186 216Q128 237 100 260T71 324Q71 332 75 354Q89 420 137 452T288 484Q363 484 418 465L403
393Q376 403 345 408T286 414Q225 414 195 401T157 355Q155 345 155 340Q155 324 166 314T195 296T259 272Q328 249 357 225T387 158Q387 141 383 125Q368 54 318 22T166 -10Q126 -10 84 -4Z" />
<glyph unicode="t" glyph-name="t" horiz-adv-x="358" d="M135 -10T105 16T75 92Q75 109 80 132L138 409H66L80 474H152L177 591L264 616L234 474H365L346 409H220L162 136Q158 120 158 104Q158 78 173 67T224 56Q258 56 292 66L278 4Q238 -10 190 -10Q135 -10 105 16Z" />
<glyph unicode="u" glyph-name="u" horiz-adv-x="570" d="M117 -10T81 23T45 119Q45 144 51 174L115 474H197L133 171Q128 150 128 126Q128 88 151 72T229 56Q272 56 313 72T392 116L468 474H550L450 0H376L382 54Q288 -10 184 -10Q117 -10 81 23Z" />
<glyph unicode="v" glyph-name="v" horiz-adv-x="564" d="M100 474H182L245 76L476 474H564L278 0H186L100 474Z" />
<glyph unicode="w" glyph-name="w" horiz-adv-x="736" d="M100 474H182L194 93L370 419L381 474H444L480 93L654 474H736L512 0H433L395 344L209 0H124L100 474Z" />
<glyph unicode="x" glyph-name="x" horiz-adv-x="549" d="M231 241L106 474H195L287 297L454 474H542L321 241L449 0H360L263 185L89 0H0L231 241Z" />
<glyph unicode="y" glyph-name="y" horiz-adv-x="584" d="M133 -176T97 -173T43 -166L58 -96Q76 -102 106 -105T161 -108Q250 -108 304 -84T370 -2L382 54Q340 25 289 8T184 -10Q118 -10 82 24T45 120Q45 146 51 174L115 474H197L133 171Q128 150 128 127Q128
88 151 72T229 56Q273 56 315 72T392 116L468 474H550L451 9Q431 -87 359 -131T160 -176Q133 -176 97 -173Z" />
<glyph unicode="z" glyph-name="z" horiz-adv-x="485" d="M9 45L365 409H99L113 474H478L467 423L116 64H398L385 0H0L9 45Z" />
<glyph unicode="{" glyph-name="braceleft" horiz-adv-x="296" d="M43 -104T43 -34Q43 -16 47 0L83 171Q89 198 89 218Q89 242 77 254T37 271L49 325Q90 330 108 353T137 425L173 596Q185 653 215 676T305 700H354L340 635H306Q281 635 271 626T253 588L211 386Q204
355 185 329T133 293Q174 278 174 228Q174 215 171 201L130 8Q127 -6 127 -14Q127 -28 135 -33T163 -39H197L183 -104H134Q43 -104 43 -34Z" />
<glyph unicode="|" glyph-name="bar" horiz-adv-x="182" d="M156 735H238L56 -120H-26L156 735Z" />
<glyph unicode="}" glyph-name="braceright" horiz-adv-x="296" d="M-19 -39H15Q40 -39 51 -30T68 8L111 214Q118 245 137 270T189 306Q148 321 148 372Q148 386 151 399L191 588Q194 602 194 610Q194 624 186 629T158 635H124L138 700H187Q279 700 279 630Q279
612 275 596L239 425Q233 398 233 378Q233 354 245 342T285 325L273 271Q232 266 214 243T185 171L149 0Q136 -57 106 -80T16 -104H-33L-19 -39Z" />
<glyph unicode="~" glyph-name="asciitilde" horiz-adv-x="572" d="M377 229T353 238T292 265Q253 283 230 291T181 300Q143 300 112 286T51 240L68 323Q91 347 125 361T197 375Q230 375 255 366T317 338Q346 321 370 313T420 304Q458 304 488 318T549 364L531
281Q508 257 475 243T404 229Q377 229 353 238Z" />
<glyph unicode="&#xa0;" glyph-name="uni00A0" horiz-adv-x="380" />
<glyph unicode="&#xa1;" glyph-name="exclamdown" horiz-adv-x="190" d="M132 620H222L209 555H119L132 620ZM33 133L110 466H180L115 133L82 -24H0L33 133Z" />
<glyph unicode="&#xa2;" glyph-name="cent" horiz-adv-x="490" d="M211 -9Q129 -2 86 42T42 165Q42 202 50 237Q74 351 141 412T316 482L333 560H395L378 483Q412 482 436 476T486 457L472 392Q423 417 364 418L287 56Q349 58 407 82L393 16Q338 -5 273 -9L257
-86H195L211 -9ZM302 414Q234 403 192 360T132 237Q122 189 122 162Q122 115 146 90T226 58L302 414Z" />
<glyph unicode="&#xa3;" glyph-name="sterling" horiz-adv-x="503" d="M13 65H39Q98 65 113 136L150 309H80L94 374H164L190 497Q206 573 258 613T394 654Q464 654 500 635L487 572Q475 579 451 583T403 588Q346 588 314 566T271 493L246 374H444L427 309H232L196
140Q190 113 181 95T153 65H416L403 0H0L13 65Z" />
<glyph unicode="&#xa4;" glyph-name="currency" horiz-adv-x="573" d="M22 107L118 169Q104 194 104 230Q104 250 108 269Q121 328 161 368L92 431L139 477L209 411Q236 431 268 442T332 453Q396 453 438 411L537 477L564 431L468 368Q484 338 484 302Q484 291
480 269Q469 217 425 168L495 106L448 60L377 125Q350 106 318 95T254 84Q191 84 148 125L50 60L22 107ZM304 144T340 165T398 222T420 298Q420 341 394 367T319 394Q267 394 225 358T171 269Q168 253 168 239Q168 196 193 170T266 144Q304 144 340 165Z" />
<glyph unicode="&#xa5;" glyph-name="yen" horiz-adv-x="642" d="M250 96H93L105 153H262L273 205H116L128 262H273L136 644H217L332 310L589 644H678L380 262H524L512 205H355L344 153H501L489 96H332L312 0H230L250 96Z" />
<glyph unicode="&#xa6;" glyph-name="brokenbar" horiz-adv-x="182" d="M156 735H238L172 424H90L156 735ZM40 190H122L56 -120H-26L40 190Z" />
<glyph unicode="&#xa7;" glyph-name="section" horiz-adv-x="556" d="M87 -10T19 20L34 93Q116 60 214 60Q301 60 349 84T409 168Q412 182 412 192Q412 231 376 251T252 295Q166 319 129 347T92 422Q92 440 96 456Q105 493 128 521Q121 540 121 559Q121 569 125
591Q143 674 212 719T401 765Q453 765 499 758T574 740L558 668Q488 695 399 695Q314 695 266 670T206 588Q203 575 203 564Q203 528 235 508T352 467Q448 443 486 415T525 344Q525 326 521 310Q518 294 509 273T489 237Q495 221 495 201Q495 190 491 166Q473 81
400 36T206 -10Q87 -10 19 20ZM447 299T451 311Q453 323 453 327Q453 346 439 359T395 384T306 411Q252 426 224 438T181 469Q174 457 171 446Q169 434 169 431Q169 413 182 401T222 378T304 354Q412 325 440 284Q447 299 451 311Z" />
<glyph unicode="&#xa8;" glyph-name="dieresis" horiz-adv-x="354" d="M135 636H213L197 561H119L135 636ZM311 636H389L373 561H295L311 636Z" />
<glyph unicode="&#xa9;" glyph-name="copyright" horiz-adv-x="764" d="M251 -10T190 24T95 119T61 253Q61 288 68 322Q87 413 145 489T289 609T471 654Q549 654 610 620T705 525T739 391Q739 356 732 322Q712 229 657 154T516 34T329 -10Q251 -10 190 24ZM419
50T488 85T605 182T670 322Q678 362 678 393Q678 485 622 539T458 593Q378 593 310 558T194 462T131 322Q123 282 123 251Q123 159 180 105T342 50Q419 50 488 85ZM265 91T217 135T168 259Q168 290 175 321Q190 395 232 447T332 525T455 551Q532 551 577 520L566
466Q521 493 455 493Q376 493 318 451T241 321Q233 286 233 254Q233 197 267 173T377 148Q407 148 442 156T504 177L492 121Q463 107 426 99T350 91Q265 91 217 135Z" />
<glyph unicode="&#xaa;" glyph-name="ordfeminine" horiz-adv-x="347" d="M140 380T118 395T95 440Q95 444 97 458Q106 501 136 522T220 544H307L310 556Q312 563 312 575Q312 594 298 601T246 609Q204 609 160 595L169 639Q212 654 268 654Q315 654 341 636T368
581Q368 571 365 557L329 386H280L282 415Q259 397 234 389T175 380Q140 380 118 395ZM226 421T247 430T289 459L299 504H220Q187 504 171 495T150 460Q149 456 149 449Q149 434 161 428T199 421Q226 421 247 430Z" />
<glyph unicode="&#xab;" glyph-name="guillemotleft" horiz-adv-x="602" d="M56 267L65 306L358 493L381 441L134 282L314 124L271 80L56 267ZM271 267L280 306L573 493L596 441L349 282L529 124L486 80L271 267Z" />
<glyph unicode="&#xac;" glyph-name="logicalnot" horiz-adv-x="531" d="M428 303H64L78 368H509L462 147H395L428 303Z" />
<glyph unicode="&#xad;" glyph-name="uni00AD" horiz-adv-x="477" d="M63 301H440L427 236H50L63 301Z" />
<glyph unicode="&#xae;" glyph-name="registered" horiz-adv-x="764" d="M251 -10T190 24T95 119T61 253Q61 288 68 322Q87 413 145 489T289 609T471 654Q549 654 610 620T705 525T739 391Q739 356 732 322Q712 229 657 154T516 34T329 -10Q251 -10 190 24ZM419
50T488 85T605 182T670 322Q678 362 678 393Q678 485 622 539T458 593Q378 593 310 558T194 462T131 322Q123 282 123 251Q123 159 180 105T342 50Q419 50 488 85ZM292 538H480Q535 538 565 513T596 442Q596 425 592 409Q581 359 550 326T469 285Q479 276 483 267T493
240L519 112H458L431 241Q428 256 423 262T406 271T368 273H298L263 112H201L292 538ZM407 325Q463 325 491 341T531 409Q535 433 535 440Q535 466 520 476T471 486H343L309 325H407Z" />
<glyph unicode="&#xaf;" glyph-name="overscore" horiz-adv-x="388" d="M132 624H420L408 565H120L132 624Z" />
<glyph unicode="&#xb0;" glyph-name="degree" horiz-adv-x="319" d="M177 504T152 527T127 588Q127 600 130 612Q140 660 176 690T262 720Q302 720 326 697T351 636Q351 620 349 612Q338 564 303 534T216 504Q177 504 152 527ZM255 557T276 577T297 627Q297 645
286 656T250 667Q227 667 209 651T185 612Q183 600 183 595Q183 557 227 557Q255 557 276 577Z" />
<glyph unicode="&#xb1;" glyph-name="plusminus" horiz-adv-x="477" d="M209 256H54L68 321H223L255 475H322L290 321H445L431 256H276L244 108H177L209 256ZM13 65H390L377 0H0L13 65Z" />
<glyph unicode="&#xb2;" glyph-name="uni00B2" horiz-adv-x="300" d="M85 402Q103 424 125 443T182 485Q224 514 239 531T259 569Q260 573 260 581Q260 595 249 601T210 607Q175 607 135 593L145 640Q192 654 236 654Q275 654 297 635T320 586Q320 581 318 569Q312
541 297 523T241 474Q232 466 225 461T212 452Q185 434 168 417H288L278 370H78L85 402Z" />
<glyph unicode="&#xb3;" glyph-name="uni00B3" horiz-adv-x="303" d="M137 362T114 365T79 374L89 419Q119 406 157 406Q196 406 214 415T237 448Q238 451 238 458Q238 474 224 481T180 489H143L155 530H186Q219 530 236 540T257 573Q258 576 258 582Q258 597
245 603T201 609Q169 609 131 597L141 642Q155 647 179 650T224 654Q272 654 296 638T321 593Q321 565 305 542T260 509Q299 501 299 464Q299 458 297 446Q280 362 159 362Q137 362 114 365Z" />
<glyph unicode="&#xb4;" glyph-name="acute" horiz-adv-x="245" d="M217 690H291L176 522H110L217 690Z" />
<glyph unicode="&#xb6;" glyph-name="paragraph" horiz-adv-x="628" d="M317 253Q212 253 153 289T94 412Q94 443 101 477Q127 598 208 654T413 710H678L511 -77H429L583 646H483L329 -77H247L317 253Z" />
<glyph unicode="&#xb7;" glyph-name="middot" horiz-adv-x="174" d="M67 319H141L127 250H53L67 319Z" />
<glyph unicode="&#xb8;" glyph-name="cedilla" horiz-adv-x="313" d="M2 -240T-18 -238T-50 -232L-39 -182Q-12 -190 22 -190Q70 -190 93 -179T123 -137Q125 -127 125 -123Q125 -104 108 -98T48 -91H11L60 0H118L91 -48Q135 -48 160 -67T185 -118Q185 -131 183
-138Q159 -240 18 -240Q2 -240 -18 -238Z" />
<glyph unicode="&#xb9;" glyph-name="uni00B9" horiz-adv-x="212" d="M201 598L123 582L133 628L271 654L210 370H152L201 598Z" />
<glyph unicode="&#xba;" glyph-name="ordmasculine" horiz-adv-x="365" d="M159 380T132 404T104 474Q104 492 109 517Q124 586 162 620T271 654Q324 654 351 630T379 560Q379 542 374 517Q359 448 321 414T212 380Q159 380 132 404ZM263 424T285 447T318 517Q323
542 323 558Q323 584 309 596T261 609Q220 609 197 586T164 517Q159 492 159 478Q159 450 173 437T222 424Q263 424 285 447Z" />
<glyph unicode="&#xbb;" glyph-name="guillemotright" horiz-adv-x="602" d="M27 132L273 290L94 449L137 493L352 306L343 267L50 80L27 132ZM242 132L488 290L309 449L352 493L567 306L558 267L265 80L242 132Z" />
<glyph unicode="&#xbc;" glyph-name="onequarter" horiz-adv-x="632" d="M201 598L123 582L133 628L271 654L210 370H152L201 598ZM528 644H605L127 0H50L528 644ZM456 58H306L315 101L497 284H561L522 101H553L544 58H513L501 0H444L456 58ZM476 102L505 238L371
102H476Z" />
<glyph unicode="&#xbd;" glyph-name="onehalf" horiz-adv-x="630" d="M201 598L123 582L133 628L271 654L210 370H152L201 598ZM528 644H605L127 0H50L528 644ZM336 32Q354 54 376 73T433 115Q474 144 490 161T511 199Q512 203 512 210Q512 225 500 231T461 237Q428
237 386 223L396 270Q443 284 487 284Q528 284 550 266T572 217Q572 211 570 199Q564 171 548 153T493 104Q482 95 462 81Q431 59 419 47H539L530 0H330L336 32Z" />
<glyph unicode="&#xbe;" glyph-name="threequarters" horiz-adv-x="641" d="M137 362T114 365T79 374L89 419Q119 406 157 406Q196 406 214 415T237 448Q238 451 238 458Q238 474 224 481T180 489H143L155 530H186Q219 530 236 540T257 573Q258 576 258 582Q258
597 245 603T201 609Q169 609 131 597L141 642Q155 647 179 650T224 654Q272 654 296 638T321 593Q321 565 305 542T260 509Q299 501 299 464Q299 458 297 446Q280 362 159 362Q137 362 114 365ZM537 644H614L136 0H59L537 644ZM465 58H315L324 101L506 284H570L531
101H562L553 58H522L510 0H453L465 58ZM485 102L514 238L380 102H485Z" />
<glyph unicode="&#xbf;" glyph-name="questiondown" horiz-adv-x="493" d="M342 620H432L419 555H329L342 620ZM138 -34T92 1T46 100Q46 118 51 145Q61 195 92 229T185 307L208 323Q243 348 260 363T291 398T310 446L314 465H396L391 442Q380 391 347 357T253
280L225 260Q186 232 163 206T133 146Q128 121 128 106Q128 69 157 53T260 36Q303 36 347 46T428 72L413 2Q377 -15 328 -24T226 -34Q138 -34 92 1Z" />
<glyph unicode="&#xc0;" glyph-name="Agrave" horiz-adv-x="685" d="M349 856H423L458 688H392L349 856ZM381 644H477L585 0H505L474 177H194L89 0H0L381 644ZM473 242L417 573L222 242H473Z" />
<glyph unicode="&#xc1;" glyph-name="Aacute" horiz-adv-x="685" d="M495 856H569L454 688H388L495 856ZM381 644H477L585 0H505L474 177H194L89 0H0L381 644ZM473 242L417 573L222 242H473Z" />
<glyph unicode="&#xc2;" glyph-name="Acircumflex" horiz-adv-x="685" d="M436 836H502L586 688H518L462 790L364 688H291L436 836ZM381 644H477L585 0H505L474 177H194L89 0H0L381 644ZM473 242L417 573L222 242H473Z" />
<glyph unicode="&#xc3;" glyph-name="Atilde" horiz-adv-x="685" d="M498 703T482 708T441 723Q401 741 380 741Q326 741 290 706L303 769Q318 782 343 790T393 799Q412 799 428 794T465 779Q485 770 499 766T529 761Q580 761 613 797L600 733Q587 719 564 711T516
703Q498 703 482 708ZM381 644H477L585 0H505L474 177H194L89 0H0L381 644ZM473 242L417 573L222 242H473Z" />
<glyph unicode="&#xc4;" glyph-name="Adieresis" horiz-adv-x="685" d="M332 785H409L393 710H316L332 785ZM507 785H585L569 710H491L507 785ZM381 644H477L585 0H505L474 177H194L89 0H0L381 644ZM473 242L417 573L222 242H473Z" />
<glyph unicode="&#xc5;" glyph-name="Aring" horiz-adv-x="685" d="M368 622Q350 632 340 650T330 692Q330 704 333 716Q343 763 378 793T465 824Q507 824 531 801T556 740Q556 728 553 716Q546 685 527 660T480 622L585 0H505L474 177H194L89 0H0L368 622ZM462
655T484 678T506 732Q506 753 494 765T455 777Q423 777 401 754T379 699Q379 679 391 667T429 655Q462 655 484 678ZM473 242L417 573L222 242H473Z" />
<glyph unicode="&#xc6;" glyph-name="AE" horiz-adv-x="840" d="M381 644H876L863 579H564L516 354H779L765 290H502L454 64H753L740 0H359L396 178H193L88 0H0L381 644ZM410 242L482 579H431L232 242H410Z" />
<glyph unicode="&#xc7;" glyph-name="Ccedilla" horiz-adv-x="595" d="M209 -240T189 -238T157 -232L168 -182Q195 -190 229 -190Q277 -190 300 -179T329 -137Q331 -127 331 -124Q331 -104 313 -98T255 -91H218L262 -8Q161 2 108 61T55 218Q55 262 65 308Q139
654 447 654Q550 654 627 624L612 552Q534 584 439 584Q206 584 147 308Q136 256 136 218Q136 139 182 100T329 60Q430 60 513 89L498 16Q413 -9 318 -10L298 -48Q344 -48 368 -65T392 -115Q392 -126 389 -138Q367 -240 225 -240Q209 -240 189 -238Z" />
<glyph unicode="&#xc8;" glyph-name="Egrave" horiz-adv-x="555" d="M310 856H384L419 688H353L310 856ZM156 644H591L578 579H225L177 354H494L480 290H163L115 64H468L455 0H20L156 644Z" />
<glyph unicode="&#xc9;" glyph-name="Eacute" horiz-adv-x="555" d="M442 856H516L401 688H335L442 856ZM156 644H591L578 579H225L177 354H494L480 290H163L115 64H468L455 0H20L156 644Z" />
<glyph unicode="&#xca;" glyph-name="Ecircumflex" horiz-adv-x="555" d="M368 836H434L518 688H450L394 790L296 688H223L368 836ZM156 644H591L578 579H225L177 354H494L480 290H163L115 64H468L455 0H20L156 644Z" />
<glyph unicode="&#xcb;" glyph-name="Edieresis" horiz-adv-x="555" d="M270 786H347L331 711H254L270 786ZM445 786H523L507 711H429L445 786ZM156 644H591L578 579H225L177 354H494L480 290H163L115 64H468L455 0H20L156 644Z" />
<glyph unicode="&#xcc;" glyph-name="Igrave" horiz-adv-x="222" d="M133 856H207L242 688H176L133 856ZM156 644H238L102 0H20L156 644Z" />
<glyph unicode="&#xcd;" glyph-name="Iacute" horiz-adv-x="222" d="M273 856H347L232 688H166L273 856ZM156 644H238L102 0H20L156 644Z" />
<glyph unicode="&#xce;" glyph-name="Icircumflex" horiz-adv-x="222" d="M205 836H271L355 688H287L231 790L133 688H60L205 836ZM156 644H238L102 0H20L156 644Z" />
<glyph unicode="&#xcf;" glyph-name="Idieresis" horiz-adv-x="222" d="M102 788H179L163 713H86L102 788ZM277 788H355L339 713H261L277 788ZM156 644H238L102 0H20L156 644Z" />
<glyph unicode="&#xd0;" glyph-name="Eth" horiz-adv-x="674" d="M548 644T602 596T656 444Q656 390 641 318Q617 206 577 137T472 34T313 0H52L112 284H40L54 349H126L188 644H440Q548 644 602 596ZM577 402T577 454Q577 503 560 530T508 568T412 579H257L208
349H389L375 284H194L147 64H302Q374 64 422 85T504 161T559 318Q577 402 577 454Z" />
<glyph unicode="&#xd1;" glyph-name="Ntilde" horiz-adv-x="663" d="M486 708T470 713T429 728Q389 746 368 746Q314 746 278 711L291 774Q306 787 331 795T381 804Q400 804 416 799T453 784Q473 775 487 771T517 766Q568 766 601 802L588 738Q575 724 552 716T504
708Q486 708 470 713ZM156 644H230L487 126L597 644H679L543 0H468L211 517L102 0H20L156 644Z" />
<glyph unicode="&#xd2;" glyph-name="Ograve" horiz-adv-x="694" d="M373 856H447L482 688H416L373 856ZM175 -10T115 42T54 204Q54 254 68 322Q105 496 191 575T436 654Q555 654 615 602T676 439Q676 390 662 322Q625 149 538 70T294 -10Q175 -10 115 42ZM421
60T485 120T580 322Q595 391 595 440Q595 517 554 550T421 584Q309 584 245 524T150 322Q135 252 135 203Q135 126 176 93T309 60Q421 60 485 120Z" />
<glyph unicode="&#xd3;" glyph-name="Oacute" horiz-adv-x="694" d="M515 856H589L474 688H408L515 856ZM175 -10T115 42T54 204Q54 254 68 322Q105 496 191 575T436 654Q555 654 615 602T676 439Q676 390 662 322Q625 149 538 70T294 -10Q175 -10 115 42ZM421
60T485 120T580 322Q595 391 595 440Q595 517 554 550T421 584Q309 584 245 524T150 322Q135 252 135 203Q135 126 176 93T309 60Q421 60 485 120Z" />
<glyph unicode="&#xd4;" glyph-name="Ocircumflex" horiz-adv-x="694" d="M441 836H507L591 688H523L467 790L369 688H296L441 836ZM175 -10T115 42T54 204Q54 254 68 322Q105 496 191 575T436 654Q555 654 615 602T676 439Q676 390 662 322Q625 149 538 70T294
-10Q175 -10 115 42ZM421 60T485 120T580 322Q595 391 595 440Q595 517 554 550T421 584Q309 584 245 524T150 322Q135 252 135 203Q135 126 176 93T309 60Q421 60 485 120Z" />
<glyph unicode="&#xd5;" glyph-name="Otilde" horiz-adv-x="694" d="M505 713T489 718T448 733Q408 751 387 751Q333 751 297 716L310 779Q325 792 350 800T400 809Q419 809 435 804T472 789Q492 780 506 776T536 771Q587 771 620 807L607 743Q594 729 571 721T523
713Q505 713 489 718ZM175 -10T115 42T54 204Q54 254 68 322Q105 496 191 575T436 654Q555 654 615 602T676 439Q676 390 662 322Q625 149 538 70T294 -10Q175 -10 115 42ZM421 60T485 120T580 322Q595 391 595 440Q595 517 554 550T421 584Q309 584 245 524T150
322Q135 252 135 203Q135 126 176 93T309 60Q421 60 485 120Z" />
<glyph unicode="&#xd6;" glyph-name="Odieresis" horiz-adv-x="694" d="M337 786H414L398 711H321L337 786ZM512 786H590L574 711H496L512 786ZM175 -10T115 42T54 204Q54 254 68 322Q105 496 191 575T436 654Q555 654 615 602T676 439Q676 390 662 322Q625 149
538 70T294 -10Q175 -10 115 42ZM421 60T485 120T580 322Q595 391 595 440Q595 517 554 550T421 584Q309 584 245 524T150 322Q135 252 135 203Q135 126 176 93T309 60Q421 60 485 120Z" />
<glyph unicode="&#xd7;" glyph-name="multiply" horiz-adv-x="410" d="M202 216L70 108L37 151L168 260L78 371L130 414L217 301L354 413L388 370L252 257L340 145L290 103L202 216Z" />
<glyph unicode="&#xd8;" glyph-name="Oslash" horiz-adv-x="694" d="M149 19Q54 68 54 204Q54 254 68 322Q105 496 191 575T436 654Q473 654 513 647L540 693H612L574 628Q676 579 676 438Q676 389 662 322Q625 149 538 70T294 -10Q247 -10 208 -1L179 -53H107L149
19ZM475 580Q441 584 421 584Q309 584 245 524T150 322Q134 247 134 202Q134 116 187 84L475 580ZM421 60T485 120T580 322Q595 391 595 439Q595 485 581 515T536 562L247 64Q271 60 309 60Q421 60 485 120Z" />
<glyph unicode="&#xd9;" glyph-name="Ugrave" horiz-adv-x="671" d="M372 856H446L481 688H415L372 856ZM173 -10T116 37T58 171Q58 204 65 236L151 644H233L146 235Q139 203 139 174Q139 113 177 87T298 60Q395 60 449 101T523 235L610 644H692L606 236Q579 110
502 50T283 -10Q173 -10 116 37Z" />
<glyph unicode="&#xda;" glyph-name="Uacute" horiz-adv-x="671" d="M498 856H572L457 688H391L498 856ZM173 -10T116 37T58 171Q58 204 65 236L151 644H233L146 235Q139 203 139 174Q139 113 177 87T298 60Q395 60 449 101T523 235L610 644H692L606 236Q579 110
502 50T283 -10Q173 -10 116 37Z" />
<glyph unicode="&#xdb;" glyph-name="Ucircumflex" horiz-adv-x="671" d="M429 836H495L579 688H511L455 790L357 688H284L429 836ZM173 -10T116 37T58 171Q58 204 65 236L151 644H233L146 235Q139 203 139 174Q139 113 177 87T298 60Q395 60 449 101T523 235L610
644H692L606 236Q579 110 502 50T283 -10Q173 -10 116 37Z" />
<glyph unicode="&#xdc;" glyph-name="Udieresis" horiz-adv-x="671" d="M313 786H390L374 711H297L313 786ZM488 786H566L550 711H472L488 786ZM173 -10T116 37T58 171Q58 204 65 236L151 644H233L146 235Q139 203 139 174Q139 113 177 87T298 60Q395 60 449 101T523
235L610 644H692L606 236Q579 110 502 50T283 -10Q173 -10 116 37Z" />
<glyph unicode="&#xdd;" glyph-name="Yacute" horiz-adv-x="642" d="M479 856H553L438 688H372L479 856ZM281 240L136 644H217L332 310L589 644H678L363 240L312 0H230L281 240Z" />
<glyph unicode="&#xde;" glyph-name="Thorn" horiz-adv-x="582" d="M156 644H238L213 526H396Q482 526 528 484T575 370Q575 343 570 320Q526 115 312 115H126L102 0H20L156 644ZM313 179Q388 179 431 216T488 320Q494 349 494 370Q494 417 467 439T377 461H199L140
179H313Z" />
<glyph unicode="&#xdf;" glyph-name="germandbls" horiz-adv-x="627" d="M238 -10T184 12L199 82Q246 60 325 60Q396 60 433 93T485 192Q490 217 490 234Q490 277 462 299T374 321H292L305 383H389Q453 383 486 415T531 505Q536 527 536 543Q536 585 503 607T393
630Q310 630 262 590T195 465L97 0H15L114 468Q137 576 211 638T408 700Q506 700 559 657T612 545Q612 524 608 505Q582 384 494 347Q531 335 551 306T571 233Q571 215 566 188Q546 92 486 41T323 -10Q238 -10 184 12Z" />
<glyph unicode="&#xe0;" glyph-name="agrave" horiz-adv-x="575" d="M279 690H353L388 522H322L279 690ZM38 -10T38 145Q38 180 47 223Q64 306 105 365T203 454T325 484Q370 484 403 474T466 439L473 474H555L455 0H385L389 50Q349 19 307 5T211 -10Q38 -10 38
145ZM331 56T397 113L451 371Q430 394 402 406T333 418Q170 418 129 223Q120 181 120 150Q120 99 149 78T246 56Q331 56 397 113Z" />
<glyph unicode="&#xe1;" glyph-name="aacute" horiz-adv-x="575" d="M412 690H486L371 522H305L412 690ZM38 -10T38 145Q38 180 47 223Q64 306 105 365T203 454T325 484Q370 484 403 474T466 439L473 474H555L455 0H385L389 50Q349 19 307 5T211 -10Q38 -10 38
145ZM331 56T397 113L451 371Q430 394 402 406T333 418Q170 418 129 223Q120 181 120 150Q120 99 149 78T246 56Q331 56 397 113Z" />
<glyph unicode="&#xe2;" glyph-name="acircumflex" horiz-adv-x="575" d="M340 670H406L490 522H422L366 624L268 522H195L340 670ZM38 -10T38 145Q38 180 47 223Q64 306 105 365T203 454T325 484Q370 484 403 474T466 439L473 474H555L455 0H385L389 50Q349 19
307 5T211 -10Q38 -10 38 145ZM331 56T397 113L451 371Q430 394 402 406T333 418Q170 418 129 223Q120 181 120 150Q120 99 149 78T246 56Q331 56 397 113Z" />
<glyph unicode="&#xe3;" glyph-name="atilde" horiz-adv-x="575" d="M402 542T386 547T345 562Q305 580 284 580Q230 580 194 545L207 608Q222 621 247 629T297 638Q316 638 332 633T369 618Q389 609 403 605T433 600Q484 600 517 636L504 572Q491 558 468 550T420
542Q402 542 386 547ZM38 -10T38 145Q38 180 47 223Q64 306 105 365T203 454T325 484Q370 484 403 474T466 439L473 474H555L455 0H385L389 50Q349 19 307 5T211 -10Q38 -10 38 145ZM331 56T397 113L451 371Q430 394 402 406T333 418Q170 418 129 223Q120 181 120
150Q120 99 149 78T246 56Q331 56 397 113Z" />
<glyph unicode="&#xe4;" glyph-name="adieresis" horiz-adv-x="575" d="M242 620H319L303 545H226L242 620ZM417 620H495L479 545H401L417 620ZM38 -10T38 145Q38 180 47 223Q64 306 105 365T203 454T325 484Q370 484 403 474T466 439L473 474H555L455 0H385L389
50Q349 19 307 5T211 -10Q38 -10 38 145ZM331 56T397 113L451 371Q430 394 402 406T333 418Q170 418 129 223Q120 181 120 150Q120 99 149 78T246 56Q331 56 397 113Z" />
<glyph unicode="&#xe5;" glyph-name="aring" horiz-adv-x="575" d="M302 522T278 545T254 605Q254 617 257 629Q267 676 302 706T389 737Q431 737 455 714T480 653Q480 641 477 629Q467 582 431 552T343 522Q302 522 278 545ZM386 568T408 591T430 645Q430 666
418 678T379 690Q347 690 325 667T303 612Q303 592 315 580T353 568Q386 568 408 591ZM38 -10T38 145Q38 180 47 223Q64 306 105 365T203 454T325 484Q370 484 403 474T466 439L473 474H555L455 0H385L389 50Q349 19 307 5T211 -10Q38 -10 38 145ZM331 56T397 113L451
371Q430 394 402 406T333 418Q170 418 129 223Q120 181 120 150Q120 99 149 78T246 56Q331 56 397 113Z" />
<glyph unicode="&#xe6;" glyph-name="ae" horiz-adv-x="881" d="M103 -10T64 18T24 100Q24 117 28 133Q42 202 95 241T242 281H407L413 310Q418 335 418 349Q418 384 392 399T301 415Q218 415 137 389L152 457Q228 484 326 484Q452 484 484 411Q554 484 677 484Q759
484 803 444T847 336Q847 309 842 288L823 199H472Q469 177 469 158Q469 101 504 79T628 56Q701 56 768 81L754 17Q687 -10 598 -10Q523 -10 481 12T415 80Q373 39 313 15T164 -10Q103 -10 64 18ZM762 258L771 297Q776 317 776 340Q776 379 750 398T665 418Q583
418 543 380T484 258H762ZM255 57T296 74T374 126L394 218H231Q176 218 147 198T109 133Q106 121 106 110Q106 81 129 69T200 57Q255 57 296 74Z" />
<glyph unicode="&#xe7;" glyph-name="ccedilla" horiz-adv-x="490" d="M150 -240T130 -238T98 -232L109 -182Q136 -190 170 -190Q218 -190 241 -179T270 -137Q272 -127 272 -124Q272 -104 254 -98T196 -91H159L203 -8Q124 0 83 44T42 164Q42 202 50 237Q76 361
152 422T353 484Q398 484 428 478T486 457L472 392Q423 418 354 418Q263 418 208 375T132 237Q123 197 123 166Q123 108 158 82T274 56Q343 56 407 82L393 16Q331 -7 259 -10L239 -48Q285 -48 309 -65T333 -115Q333 -126 330 -138Q308 -240 166 -240Q150 -240 130
-238Z" />
<glyph unicode="&#xe8;" glyph-name="egrave" horiz-adv-x="533" d="M252 690H326L361 522H295L252 690ZM41 -10T41 161Q41 196 50 239Q103 484 329 484Q414 484 457 445T500 340Q500 315 494 288L475 199H124Q121 175 121 156Q121 118 136 97T185 66T280 56Q353
56 420 81L406 17Q339 -10 250 -10Q41 -10 41 161ZM414 258L423 297Q428 322 428 338Q428 378 402 398T317 418Q238 418 196 379T136 258H414Z" />
<glyph unicode="&#xe9;" glyph-name="eacute" horiz-adv-x="533" d="M395 690H469L354 522H288L395 690ZM41 -10T41 161Q41 196 50 239Q103 484 329 484Q414 484 457 445T500 340Q500 315 494 288L475 199H124Q121 175 121 156Q121 118 136 97T185 66T280 56Q353
56 420 81L406 17Q339 -10 250 -10Q41 -10 41 161ZM414 258L423 297Q428 322 428 338Q428 378 402 398T317 418Q238 418 196 379T136 258H414Z" />
<glyph unicode="&#xea;" glyph-name="ecircumflex" horiz-adv-x="533" d="M324 670H390L474 522H406L350 624L252 522H179L324 670ZM41 -10T41 161Q41 196 50 239Q103 484 329 484Q414 484 457 445T500 340Q500 315 494 288L475 199H124Q121 175 121 156Q121 118
136 97T185 66T280 56Q353 56 420 81L406 17Q339 -10 250 -10Q41 -10 41 161ZM414 258L423 297Q428 322 428 338Q428 378 402 398T317 418Q238 418 196 379T136 258H414Z" />
<glyph unicode="&#xeb;" glyph-name="edieresis" horiz-adv-x="533" d="M219 620H296L280 545H203L219 620ZM394 620H472L456 545H378L394 620ZM41 -10T41 161Q41 196 50 239Q103 484 329 484Q414 484 457 445T500 340Q500 315 494 288L475 199H124Q121 175 121
156Q121 118 136 97T185 66T280 56Q353 56 420 81L406 17Q339 -10 250 -10Q41 -10 41 161ZM414 258L423 297Q428 322 428 338Q428 378 402 398T317 418Q238 418 196 379T136 258H414Z" />
<glyph unicode="&#xec;" glyph-name="igrave" horiz-adv-x="295" d="M173 690H247L282 522H216L173 690ZM179 409H106L128 474H275L175 0H93L179 409Z" />
<glyph unicode="&#xed;" glyph-name="iacute" horiz-adv-x="295" d="M308 690H382L267 522H201L308 690ZM179 409H106L128 474H275L175 0H93L179 409Z" />
<glyph unicode="&#xee;" glyph-name="icircumflex" horiz-adv-x="295" d="M224 670H290L374 522H306L250 624L152 522H79L224 670ZM179 409H106L128 474H275L175 0H93L179 409Z" />
<glyph unicode="&#xef;" glyph-name="idieresis" horiz-adv-x="295" d="M109 620H186L170 545H93L109 620ZM284 620H362L346 545H268L284 620ZM179 409H106L128 474H275L175 0H93L179 409Z" />
<glyph unicode="&#xf0;" glyph-name="eth" horiz-adv-x="573" d="M135 -10T85 30T35 143Q35 168 41 196Q86 404 306 404Q347 404 390 390T464 348L474 394Q488 466 488 497Q488 515 485 528L332 467L343 519L463 567Q436 593 363 593Q278 593 209 570L222 632Q295
654 379 654Q489 654 533 595L632 635L621 582L553 555Q562 525 562 486Q562 445 551 390L518 235Q491 107 422 49T231 -10Q135 -10 85 30ZM324 52T371 90T435 209L452 289Q423 314 386 329T308 344Q223 344 177 306T115 196Q110 169 110 153Q110 103 142 78T245
52Q324 52 371 90Z" />
<glyph unicode="&#xf1;" glyph-name="ntilde" horiz-adv-x="570" d="M407 542T391 547T350 562Q310 580 289 580Q235 580 199 545L212 608Q227 621 252 629T302 638Q321 638 337 633T374 618Q394 609 408 605T438 600Q489 600 522 636L509 572Q496 558 473 550T425
542Q407 542 391 547ZM120 474H194L188 420Q280 484 385 484Q526 484 526 365Q526 340 520 310L455 0H373L438 307Q444 334 444 353Q444 389 422 403T343 418Q301 418 256 402T178 358L102 0H20L120 474Z" />
<glyph unicode="&#xf2;" glyph-name="ograve" horiz-adv-x="574" d="M278 690H352L387 522H321L278 690ZM138 -10T90 33T41 159Q41 195 50 237Q76 361 144 422T339 484Q435 484 484 441T533 315Q533 279 524 237Q498 113 430 52T234 -10Q138 -10 90 33ZM333 60T377
102T442 237Q452 287 452 315Q452 368 423 391T324 414Q241 414 197 372T132 237Q122 187 122 159Q122 106 151 83T249 60Q333 60 377 102Z" />
<glyph unicode="&#xf3;" glyph-name="oacute" horiz-adv-x="574" d="M421 690H495L380 522H314L421 690ZM138 -10T90 33T41 159Q41 195 50 237Q76 361 144 422T339 484Q435 484 484 441T533 315Q533 279 524 237Q498 113 430 52T234 -10Q138 -10 90 33ZM333 60T377
102T442 237Q452 287 452 315Q452 368 423 391T324 414Q241 414 197 372T132 237Q122 187 122 159Q122 106 151 83T249 60Q333 60 377 102Z" />
<glyph unicode="&#xf4;" glyph-name="ocircumflex" horiz-adv-x="574" d="M345 670H411L495 522H427L371 624L273 522H200L345 670ZM138 -10T90 33T41 159Q41 195 50 237Q76 361 144 422T339 484Q435 484 484 441T533 315Q533 279 524 237Q498 113 430 52T234
-10Q138 -10 90 33ZM333 60T377 102T442 237Q452 287 452 315Q452 368 423 391T324 414Q241 414 197 372T132 237Q122 187 122 159Q122 106 151 83T249 60Q333 60 377 102Z" />
<glyph unicode="&#xf5;" glyph-name="otilde" horiz-adv-x="574" d="M410 547T394 552T353 567Q313 585 292 585Q238 585 202 550L215 613Q230 626 255 634T305 643Q324 643 340 638T377 623Q397 614 411 610T441 605Q492 605 525 641L512 577Q499 563 476 555T428
547Q410 547 394 552ZM138 -10T90 33T41 159Q41 195 50 237Q76 361 144 422T339 484Q435 484 484 441T533 315Q533 279 524 237Q498 113 430 52T234 -10Q138 -10 90 33ZM333 60T377 102T442 237Q452 287 452 315Q452 368 423 391T324 414Q241 414 197 372T132 237Q122
187 122 159Q122 106 151 83T249 60Q333 60 377 102Z" />
<glyph unicode="&#xf6;" glyph-name="odieresis" horiz-adv-x="574" d="M242 620H319L303 545H226L242 620ZM417 620H495L479 545H401L417 620ZM138 -10T90 33T41 159Q41 195 50 237Q76 361 144 422T339 484Q435 484 484 441T533 315Q533 279 524 237Q498 113
430 52T234 -10Q138 -10 90 33ZM333 60T377 102T442 237Q452 287 452 315Q452 368 423 391T324 414Q241 414 197 372T132 237Q122 187 122 159Q122 106 151 83T249 60Q333 60 377 102Z" />
<glyph unicode="&#xf7;" glyph-name="divide" horiz-adv-x="476" d="M250 465H321L307 398H236L250 465ZM63 301H439L426 236H50L63 301ZM182 145H253L239 78H168L182 145Z" />
<glyph unicode="&#xf8;" glyph-name="oslash" horiz-adv-x="574" d="M122 11Q41 50 41 159Q41 195 50 237Q76 361 144 422T339 484Q359 484 393 480L421 528H493L454 460Q533 419 533 314Q533 279 524 237Q498 113 430 52T234 -10Q204 -10 183 -6L156 -54H84L122
11ZM354 412Q334 414 324 414Q241 414 197 372T132 237Q122 185 122 158Q122 99 160 77L354 412ZM333 60T377 102T442 237Q452 287 452 314Q452 372 416 395L222 61Q231 60 249 60Q333 60 377 102Z" />
<glyph unicode="&#xf9;" glyph-name="ugrave" horiz-adv-x="570" d="M276 690H350L385 522H319L276 690ZM117 -10T81 23T45 119Q45 144 51 174L115 474H197L133 171Q128 150 128 126Q128 88 151 72T229 56Q272 56 313 72T392 116L468 474H550L450 0H376L382 54Q288
-10 184 -10Q117 -10 81 23Z" />
<glyph unicode="&#xfa;" glyph-name="uacute" horiz-adv-x="570" d="M403 690H477L362 522H296L403 690ZM117 -10T81 23T45 119Q45 144 51 174L115 474H197L133 171Q128 150 128 126Q128 88 151 72T229 56Q272 56 313 72T392 116L468 474H550L450 0H376L382 54Q288
-10 184 -10Q117 -10 81 23Z" />
<glyph unicode="&#xfb;" glyph-name="ucircumflex" horiz-adv-x="570" d="M339 670H405L489 522H421L365 624L267 522H194L339 670ZM117 -10T81 23T45 119Q45 144 51 174L115 474H197L133 171Q128 150 128 126Q128 88 151 72T229 56Q272 56 313 72T392 116L468
474H550L450 0H376L382 54Q288 -10 184 -10Q117 -10 81 23Z" />
<glyph unicode="&#xfc;" glyph-name="udieresis" horiz-adv-x="570" d="M233 617H310L294 542H217L233 617ZM408 617H486L470 542H392L408 617ZM117 -10T81 23T45 119Q45 144 51 174L115 474H197L133 171Q128 150 128 126Q128 88 151 72T229 56Q272 56 313 72T392
116L468 474H550L450 0H376L382 54Q288 -10 184 -10Q117 -10 81 23Z" />
<glyph unicode="&#xfd;" glyph-name="yacute" horiz-adv-x="584" d="M406 690H480L365 522H299L406 690ZM133 -176T97 -173T43 -166L58 -96Q76 -102 106 -105T161 -108Q250 -108 304 -84T370 -2L382 54Q340 25 289 8T184 -10Q118 -10 82 24T45 120Q45 146 51 174L115
474H197L133 171Q128 150 128 127Q128 88 151 72T229 56Q273 56 315 72T392 116L468 474H550L451 9Q431 -87 359 -131T160 -176Q133 -176 97 -173Z" />
<glyph unicode="&#xfe;" glyph-name="thorn" horiz-adv-x="575" d="M168 700H251L196 439Q270 484 363 484Q444 484 489 443T534 317Q534 281 525 236Q498 109 432 50T257 -10Q164 -10 109 35L56 -216H-26L168 700ZM332 56T377 97T443 236Q452 280 452 313Q452
367 423 392T328 418Q244 418 178 361L123 103Q167 56 249 56Q332 56 377 97Z" />
<glyph unicode="&#xff;" glyph-name="ydieresis" horiz-adv-x="584" d="M242 627H319L303 552H226L242 627ZM417 627H495L479 552H401L417 627ZM133 -176T97 -173T43 -166L58 -96Q76 -102 106 -105T161 -108Q250 -108 304 -84T370 -2L382 54Q340 25 289 8T184
-10Q118 -10 82 24T45 120Q45 146 51 174L115 474H197L133 171Q128 150 128 127Q128 88 151 72T229 56Q273 56 315 72T392 116L468 474H550L451 9Q431 -87 359 -131T160 -176Q133 -176 97 -173Z" />
<glyph unicode="&#x2013;" glyph-name="endash" horiz-adv-x="585" d="M63 301H548L535 236H50L63 301Z" />
<glyph unicode="&#x2014;" glyph-name="emdash" horiz-adv-x="877" d="M63 301H840L827 236H50L63 301Z" />
<glyph unicode="&#x2018;" glyph-name="quoteleft" horiz-adv-x="224" d="M201 654H263L175 471H100L201 654Z" />
<glyph unicode="&#x2019;" glyph-name="quoteright" horiz-adv-x="224" d="M188 654H263L162 471H100L188 654Z" />
<glyph unicode="&#x201a;" glyph-name="quotesinglbase" horiz-adv-x="224" d="M56 33H131L30 -150H-32L56 33Z" />
<glyph unicode="&#x201c;" glyph-name="quotedblleft" horiz-adv-x="355" d="M201 654H258L170 471H100L201 654ZM338 654H394L306 471H237L338 654Z" />
<glyph unicode="&#x201d;" glyph-name="quotedblright" horiz-adv-x="355" d="M189 654H258L157 471H100L189 654ZM325 654H394L293 471H237L325 654Z" />
<glyph unicode="&#x201e;" glyph-name="quotedblbase" horiz-adv-x="355" d="M63 64H132L31 -119H-26L63 64ZM199 64H268L167 -119H111L199 64Z" />
<glyph unicode="&#x2022;" glyph-name="bullet" horiz-adv-x="339" d="M112 168T85 194T58 260Q58 298 79 332T134 386T205 407Q248 407 275 380T303 312Q303 301 300 287Q289 237 247 203T154 168Q112 168 85 194Z" />
<glyph unicode="&#x2039;" glyph-name="guilsinglleft" horiz-adv-x="387" d="M56 267L65 306L358 493L381 441L134 282L314 124L271 80L56 267Z" />
<glyph unicode="&#x203a;" glyph-name="guilsinglright" horiz-adv-x="387" d="M27 132L273 290L94 449L137 493L352 306L343 267L50 80L27 132Z" />
</font>
</defs>
</svg>
