<?xml version="1.0" standalone="no"?>
<!DOCTYPE svg PUBLIC "-//W3C//DTD SVG 1.1//EN" "http://www.w3.org/Graphics/SVG/1.1/DTD/svg11.dtd">
<svg xmlns="http://www.w3.org/2000/svg">
<defs >
<font id="Palanquin" horiz-adv-x="829" ><font-face
    font-family="Palanquin"
    units-per-em="1000"
    panose-1="2 11 0 4 2 2 3 2 2 4"
    ascent="1320"
    descent="-491"
    alphabetic="0" />
<glyph unicode=" " glyph-name="space" horiz-adv-x="236" />
<glyph unicode="!" glyph-name="exclam" horiz-adv-x="252" d="M74 244L57 702H193L178 196L74 244ZM125 146Q156 146 177 125T199 73Q199 42 178 21T125 0Q95 0 74 21T52 73Q52 104 73 125T125 146Z" />
<glyph unicode="&quot;" glyph-name="quotedbl" horiz-adv-x="360" d="M276 742Q307 742 328 718T350 653Q350 597 313 536T219 443L190 504Q215 526 233 545T258 597Q240 597 221 619T202 668Q202 694 223 718T276 742ZM90 742Q121 742 143 718T166 653Q166 597
129 536T34 443L6 504Q31 526 48 545T73 597Q56 597 37 619T17 668Q17 694 38 718T90 742Z" />
<glyph unicode="#" glyph-name="numbersign" horiz-adv-x="566" d="M515 517L491 408H535L545 311H469L443 199H535L545 103H421L395 -15L284 -10L309 103H189L162 -15L52 -10L77 103H32L21 199H99L124 311H32L21 408H147L173 520L284 517L258 408H378L403 520L515
517ZM237 311L212 199H330L356 311H237Z" />
<glyph unicode="$" glyph-name="dollar" horiz-adv-x="552" d="M154 -128V3Q122 12 95 23T54 45L83 150Q114 134 162 118T253 102Q314 102 344 121T375 176Q375 210 335 236T245 288Q173 325 107 375T42 514Q42 566 71 608T154 673V808L242 804V694Q250 695 259
695T276 696Q283 696 288 696T299 694V808H388V676Q410 670 430 662T468 645L425 541Q394 556 358 569T278 583Q235 583 206 566T176 514Q176 476 214 451T304 398Q377 361 443 311T509 174Q508 120 477 77T388 9V-128L299 -119V-11Q289 -12 278 -12T255 -13H242V-128H154Z"
/>
<glyph unicode="%" glyph-name="percent" horiz-adv-x="946" d="M684 706L386 -4L255 0L553 710L684 706ZM31 533Q31 611 82 656T197 702Q261 702 312 658T363 533Q363 455 312 409T197 363Q134 363 83 408T31 533ZM140 534Q140 494 156 475T197 456Q219 456 237
475T255 532Q255 569 238 588T197 608Q175 608 158 589T140 534ZM583 169Q583 249 634 293T749 338Q812 338 862 295T913 170Q913 92 862 46T749 0Q686 0 635 44T583 169ZM691 171Q691 131 707 112T749 92Q771 92 788 112T806 169Q806 206 789 225T749 245Q727
245 709 226T691 171Z" />
<glyph unicode="&amp;" glyph-name="ampersand" horiz-adv-x="685" d="M463 541Q432 556 399 569T322 583Q285 583 265 562T244 510Q244 481 264 452T326 386L486 241Q498 271 505 307T515 386L632 339Q629 287 617 240T586 151L665 82L587 -15L511 55Q474 24
423 7T308 -11Q198 -10 120 48T42 220Q42 274 69 324T138 412Q125 431 118 454T110 505Q110 582 167 639T321 696Q370 696 418 680T507 645L463 541ZM179 221Q179 160 218 133T308 106Q340 106 368 115T418 140L241 302L220 321Q201 299 191 274T179 221Z" />
<glyph unicode="&apos;" glyph-name="quotesingle" horiz-adv-x="176" d="M90 742Q121 742 143 718T166 653Q166 597 129 536T34 443L6 504Q31 526 48 545T73 597Q56 597 37 619T17 668Q17 694 38 718T90 742Z" />
<glyph unicode="(" glyph-name="parenleft" horiz-adv-x="286" d="M169 -39Q110 39 76 130T42 321Q42 418 75 506T169 682L270 645Q227 586 195 492T162 322Q162 245 194 148T269 -1L169 -39Z" />
<glyph unicode=")" glyph-name="parenright" horiz-adv-x="286" d="M117 682Q175 604 209 512T244 321Q244 225 210 137T116 -39L16 -2Q59 57 90 151T122 321Q122 397 91 494T17 643L117 682Z" />
<glyph unicode="*" glyph-name="asterisk" horiz-adv-x="379" d="M242 668L344 690L374 599L273 579L342 481L264 420L190 519L117 420L38 481L107 578Q82 585 57 590T6 599L36 690L137 668Q137 692 137 716T139 767H241L242 668Z" />
<glyph unicode="+" glyph-name="plus" horiz-adv-x="509" d="M494 225H321V4L199 8V225H24L16 324H199V534L321 531V324H484L494 225Z" />
<glyph unicode="," glyph-name="comma" horiz-adv-x="187" d="M95 146Q126 146 148 121T171 56Q171 1 134 -60T39 -154L10 -92Q36 -70 53 -51T78 0Q61 0 42 22T23 72Q23 99 44 122T95 146Z" />
<glyph unicode="-" glyph-name="hyphen" horiz-adv-x="304" d="M288 223H27L16 325H278L288 223Z" />
<glyph unicode="." glyph-name="period" horiz-adv-x="167" d="M84 146Q115 146 135 125T156 73Q156 42 136 21T84 0Q53 0 32 21T10 73Q10 104 31 125T84 146Z" />
<glyph unicode="/" glyph-name="slash" horiz-adv-x="445" d="M440 706L141 -4L6 0L304 710L440 706Z" />
<glyph unicode="0" glyph-name="zero" horiz-adv-x="622" d="M52 285Q52 422 126 500T311 579Q423 579 495 503T568 287Q568 149 494 68T310 -13Q200 -13 126 65T52 285ZM171 288Q171 195 212 147T311 98Q366 98 408 146T451 283Q451 375 410 422T310 469Q254
469 213 423T171 288Z" />
<glyph unicode="1" glyph-name="one" horiz-adv-x="445" d="M66 90H175V417L123 387L62 475L218 566H305V90H382L393 0H76L66 90Z" />
<glyph unicode="2" glyph-name="two" horiz-adv-x="508" d="M232 579Q347 579 392 523T437 398Q437 338 404 288T297 178L202 99H449L466 0H31V87L227 259Q283 308 301 337T321 398Q321 430 297 452T230 474Q193 474 145 447T94 419L38 507Q66 529 114 554T232 579Z" />
<glyph unicode="3" glyph-name="three" horiz-adv-x="537" d="M253 579Q358 579 410 527T463 405Q463 359 437 323T382 273Q410 266 442 225T475 121Q475 38 411 -19T239 -76Q184 -76 126 -57T21 -13L87 74Q127 50 162 40T241 29Q285 29 320 53T356 120Q356 166
321 193T206 220H164L146 321H212Q273 321 308 343T344 403Q344 432 319 453T250 474Q205 474 167 458T101 422L40 509Q89 541 141 560T253 579Z" />
<glyph unicode="4" glyph-name="four" horiz-adv-x="593" d="M548 59H456V-69H325V59H48L31 166L359 571H456V166H561L548 59ZM171 166H325V363L171 166Z" />
<glyph unicode="5" glyph-name="five" horiz-adv-x="546" d="M85 206L103 566H469L455 461H213L207 342Q223 350 242 353T281 357Q393 357 448 294T504 147Q504 49 438 -13T258 -76Q202 -76 144 -57T42 -14L106 77Q146 55 181 44T261 33Q314 33 350 63T386 147Q386
196 358 224T286 253Q251 253 229 238T200 206H85Z" />
<glyph unicode="6" glyph-name="six" horiz-adv-x="559" d="M527 203Q527 119 469 53T314 -13Q204 -13 128 56T52 262Q52 372 134 489T350 634L407 549Q332 532 275 481T191 367Q217 383 248 394T310 406Q408 406 467 345T527 203ZM411 197Q411 240 383 276T304
313Q255 313 220 285T171 225Q179 167 212 131T307 94Q354 94 382 125T411 197Z" />
<glyph unicode="7" glyph-name="seven" horiz-adv-x="507" d="M49 -34L323 461H58L42 566H448L486 514L170 -69L49 -34Z" />
<glyph unicode="8" glyph-name="eight" horiz-adv-x="568" d="M516 185Q516 104 455 46T285 -13Q175 -13 114 45T52 185Q52 236 87 281T164 340Q126 357 102 391T78 468Q78 539 133 591T285 643Q380 643 435 591T491 468Q491 426 467 392T404 340Q446 326 481
281T516 185ZM194 468Q193 434 216 413T285 385Q329 392 351 413T374 468Q374 496 348 516T283 537Q246 537 220 517T194 468ZM284 92H285Q328 92 364 116T400 183Q400 219 371 249T285 288Q227 279 198 249T169 183Q169 140 204 116T284 92Z" />
<glyph unicode="9" glyph-name="nine" horiz-adv-x="559" d="M31 363Q31 447 91 513T249 579Q359 579 432 510T505 304Q505 194 424 77T209 -69L150 17Q225 35 281 84T365 196Q340 180 311 170T253 160Q154 160 93 221T31 363ZM148 369Q148 326 176 290T253 253Q304
253 339 281T387 340Q379 400 346 436T252 472Q204 472 176 441T148 369Z" />
<glyph unicode=":" glyph-name="colon" horiz-adv-x="167" d="M84 474Q115 474 135 453T156 401Q156 370 136 349T84 327Q53 327 32 348T10 401Q10 431 31 452T84 474ZM84 146Q115 146 135 125T156 73Q156 42 136 21T84 0Q53 0 32 21T10 73Q10 104 31 125T84 146Z" />
<glyph unicode=";" glyph-name="semicolon" horiz-adv-x="188" d="M99 474Q130 474 151 453T172 401Q172 370 151 349T99 327Q68 327 46 348T24 401Q24 431 46 452T99 474ZM95 146Q126 146 148 121T171 56Q171 1 134 -60T39 -154L10 -92Q36 -70 53 -51T78 0Q61
0 42 22T23 72Q23 99 44 122T95 146Z" />
<glyph unicode="&lt;" glyph-name="less" horiz-adv-x="344" d="M291 19L16 216V274L291 470L314 363L146 245L314 127L291 19Z" />
<glyph unicode="=" glyph-name="equal" horiz-adv-x="498" d="M477 311H32L21 408H468L477 311ZM477 103H32L21 199H468L477 103Z" />
<glyph unicode="&gt;" glyph-name="greater" horiz-adv-x="344" d="M54 470L329 274V216L54 19L31 127L199 245L31 363L54 470Z" />
<glyph unicode="?" glyph-name="question" horiz-adv-x="416" d="M200 701Q300 701 350 652T401 522Q401 468 354 411T236 316L219 179L127 218L119 383Q190 406 236 442T282 520Q282 554 258 573T197 593Q166 593 120 578T23 529L6 645Q52 674 99 687T200 701ZM166
146Q197 146 218 125T239 73Q239 42 218 21T166 0Q135 0 114 21T92 73Q92 104 113 125T166 146Z" />
<glyph unicode="@" glyph-name="at" horiz-adv-x="809" d="M584 389L561 194Q561 179 568 171T583 162Q611 162 635 199T659 302Q659 389 599 444T446 499Q340 499 254 425T167 225Q167 124 235 66T394 8Q429 8 474 15T561 44L593 -55Q539 -83 487 -90T384 -97Q260
-97 156 -9T52 225Q52 378 159 490T447 603Q584 603 675 519T767 307Q767 184 713 122T577 59Q555 59 535 65T498 84Q481 74 459 67T414 60Q323 60 280 105T236 223Q236 319 307 376T468 434H548L584 389ZM350 223Q350 201 364 182T412 162Q429 162 440 175T454
208L471 337H463Q418 337 384 306T350 223Z" />
<glyph unicode="A" glyph-name="A" horiz-adv-x="651" d="M323 502L234 265H414L323 502ZM381 680L645 18L515 0L454 160H196L136 0H6L271 680H381Z" />
<glyph unicode="B" glyph-name="B" horiz-adv-x="651" d="M338 680Q437 680 499 637T561 490Q561 452 544 422T498 369Q544 345 573 304T603 200Q603 106 538 53T363 0H84V680H338ZM319 572H213V403H309Q363 403 393 423T424 488Q424 536 396 554T319 572ZM362
298H213V107H353Q405 107 436 131T468 199Q468 247 439 272T362 298Z" />
<glyph unicode="C" glyph-name="C" horiz-adv-x="593" d="M505 557Q461 570 433 577T361 585Q280 585 236 519T192 338Q192 239 229 167T353 95Q396 95 433 104T502 126L551 30Q512 10 457 -2T360 -14Q201 -14 129 88T57 337Q57 494 136 594T365 694Q395 694 448
684T545 650L505 557Z" />
<glyph unicode="D" glyph-name="D" horiz-adv-x="703" d="M332 -1V0H84V680H332Q491 681 568 586T645 344Q645 186 563 94T332 -1ZM337 570H213V109H330Q412 109 461 163T511 344Q511 450 469 510T337 570Z" />
<glyph unicode="E" glyph-name="E" horiz-adv-x="580" d="M560 0H84V680H490L510 578H213V395H395L416 292H213V101H539L560 0Z" />
<glyph unicode="F" glyph-name="F" horiz-adv-x="500" d="M405 288H213V0H84V680H469L489 578H213V389H386L405 288Z" />
<glyph unicode="G" glyph-name="G" horiz-adv-x="656" d="M339 372H587V36Q548 15 493 1T375 -14Q216 -14 137 88T57 337Q57 492 147 593T391 694Q421 694 476 684T577 650L536 557Q492 570 465 577T393 585Q303 585 248 524T192 338Q192 226 237 161T372 95Q405
95 429 98T471 106V272H328L339 372Z" />
<glyph unicode="H" glyph-name="H" horiz-adv-x="694" d="M213 685V392H481V680H610V0H481V288H213V0H84V680L213 685Z" />
<glyph unicode="I" glyph-name="I" horiz-adv-x="297" d="M213 680V0H84V680H213Z" />
<glyph unicode="J" glyph-name="J" horiz-adv-x="309" d="M225 680V148Q225 79 192 43T68 -22L16 74Q69 93 81 109T94 167V680H225Z" />
<glyph unicode="K" glyph-name="K" horiz-adv-x="634" d="M201 680V395L456 695L552 621L350 387L634 0H473L265 288L201 213V0H71V680H201Z" />
<glyph unicode="L" glyph-name="L" horiz-adv-x="543" d="M533 0H84V680H213V101H513L533 0Z" />
<glyph unicode="M" glyph-name="M" horiz-adv-x="767" d="M376 206L213 415V0H84V680H166L396 366L605 680H684V0H553V392L426 213L376 206Z" />
<glyph unicode="N" glyph-name="N" horiz-adv-x="742" d="M658 680V0H528L213 455V0H84V680H213L528 226V680H658Z" />
<glyph unicode="O" glyph-name="O" horiz-adv-x="741" d="M57 337Q57 494 139 593T370 696Q530 696 607 593T684 344Q684 186 602 88T370 -14Q211 -14 134 88T57 337ZM192 338Q192 231 235 163T369 95Q451 95 500 156T549 344Q549 450 506 518T372 586Q292 586
242 519T192 338Z" />
<glyph unicode="P" glyph-name="P" horiz-adv-x="607" d="M84 0V680H297Q408 680 487 630T566 462Q565 346 481 292T288 237H213V0H84ZM293 572H213V344H295Q353 344 389 370T429 454Q429 520 393 546T293 572Z" />
<glyph unicode="Q" glyph-name="Q" horiz-adv-x="741" d="M600 -36L531 27Q497 8 457 -2T370 -14Q211 -14 134 88T57 337Q57 494 139 593T370 696Q530 696 607 593T684 344Q684 269 665 206T609 96L676 31L600 -36ZM192 338Q192 231 235 163T369 95Q388 95 407
99T442 111L359 188L447 255L519 185Q533 214 541 253T549 344Q549 450 506 518T372 586Q292 586 242 519T192 338Z" />
<glyph unicode="R" glyph-name="R" horiz-adv-x="627" d="M293 572H213V364H295Q353 364 391 387T429 465Q429 522 393 547T293 572ZM479 0L335 260Q324 259 312 259T288 258H213V0H84V680H297Q408 680 487 629T566 471Q566 408 534 363T450 292L617 0H479Z" />
<glyph unicode="S" glyph-name="S" horiz-adv-x="552" d="M83 150Q114 134 162 118T253 102Q314 102 344 121T375 176Q375 210 335 236T245 288Q173 325 107 375T42 514Q43 591 103 643T276 696Q327 696 378 680T468 645L425 541Q394 556 358 569T278 583Q235
583 206 566T176 514Q176 476 214 451T304 398Q377 361 443 311T509 174Q508 93 443 40T255 -13Q212 -13 145 6T54 45L83 150Z" />
<glyph unicode="T" glyph-name="T" horiz-adv-x="582" d="M6 680H556L577 578H344V0H213V578H6V680Z" />
<glyph unicode="U" glyph-name="U" horiz-adv-x="713" d="M209 680V257Q209 172 250 134T356 95Q422 95 462 135T503 257V680H634V247Q634 137 559 64T356 -11Q228 -12 154 62T79 247L78 680H209Z" />
<glyph unicode="V" glyph-name="V" horiz-adv-x="651" d="M270 0L6 662L134 680L327 177L514 680H645L380 0H270Z" />
<glyph unicode="W" glyph-name="W" horiz-adv-x="1035" d="M675 0L514 486L359 0H244L6 662L134 680L303 185L456 680H577L740 186L899 680H1030L791 0H675Z" />
<glyph unicode="X" glyph-name="X" horiz-adv-x="663" d="M6 9L253 344L20 661L145 680L330 428L522 680H657L395 339L644 0H508L319 256Q270 190 222 123T126 -10L6 9Z" />
<glyph unicode="Y" glyph-name="Y" horiz-adv-x="605" d="M234 0V265L6 663L140 680L298 396L463 680H600L364 260V0H234Z" />
<glyph unicode="Z" glyph-name="Z" horiz-adv-x="579" d="M555 578L156 101H548L563 0H31L16 101L404 578H60L45 680H540L555 578Z" />
<glyph unicode="[" glyph-name="bracketleft" horiz-adv-x="326" d="M198 594V13H301L321 -88H69V696H321L301 594H198Z" />
<glyph unicode="\" glyph-name="backslash" horiz-adv-x="445" d="M304 -4L6 706L141 710L440 0L304 -4Z" />
<glyph unicode="]" glyph-name="bracketright" horiz-adv-x="326" d="M127 13V594H24L6 696H258V-88H6L24 13H127Z" />
<glyph unicode="^" glyph-name="asciicircum" horiz-adv-x="454" d="M145 143H10L188 390H267L444 143H310L227 258L145 143Z" />
<glyph unicode="_" glyph-name="underscore" horiz-adv-x="414" d="M398 0H27L16 101H388L398 0Z" />
<glyph unicode="`" glyph-name="grave" horiz-adv-x="225" d="M16 753H150L210 589H111L16 753Z" />
<glyph unicode="a" glyph-name="a" horiz-adv-x="516" d="M159 145Q159 124 176 108T221 91Q248 91 275 103T328 139V213H230Q196 213 178 192T159 145ZM223 -12Q134 -12 91 31T48 145Q48 220 99 260T232 300H327Q326 337 306 357T249 378Q215 378 175 369T108
346L73 454Q101 473 158 485T247 498Q334 498 396 448T458 319V0H391L359 41Q332 20 296 4T223 -12Z" />
<glyph unicode="b" glyph-name="b" horiz-adv-x="581" d="M198 706V470Q227 486 259 495T318 504Q425 504 482 430T539 246Q539 136 481 62T318 -12Q284 -12 242 2T167 41L135 0H69V695L198 706ZM284 99Q351 99 378 147T405 246Q405 303 381 348T284 393Q263 393
241 386T198 365V127Q218 115 240 107T284 99Z" />
<glyph unicode="c" glyph-name="c" horiz-adv-x="486" d="M293 387Q238 387 207 346T176 242Q176 179 207 139T293 99Q327 99 354 107T417 132L454 38Q420 12 372 0T292 -12Q174 -12 108 57T42 242Q42 358 108 428T292 498Q323 498 370 485T454 447L417 354Q382
370 355 378T293 387Z" />
<glyph unicode="d" glyph-name="d" horiz-adv-x="592" d="M297 393Q229 393 203 345T176 246Q176 189 200 144T297 99Q320 99 345 109T393 134V358Q371 373 346 383T297 393ZM524 706V0H456L420 47Q387 19 343 4T262 -12Q156 -12 99 62T42 246Q42 356 102 430T268
504Q295 504 329 495T393 468V695L524 706Z" />
<glyph unicode="e" glyph-name="e" horiz-adv-x="545" d="M313 -12Q187 -12 115 57T42 242Q42 358 107 428T286 498Q400 498 453 423T507 244V204H180Q189 156 224 128T316 99Q349 99 375 107T437 132L475 38Q441 12 393 0T313 -12ZM384 291Q374 340 348 363T283
387Q243 387 216 363T181 291H384Z" />
<glyph unicode="f" glyph-name="f" horiz-adv-x="372" d="M81 521Q81 605 130 653T270 702Q293 702 322 693T367 671L330 577Q315 583 302 586T276 590Q242 590 227 566T211 503V475H303L344 374H211V0H81V374H6V475H81V521Z" />
<glyph unicode="g" glyph-name="g" horiz-adv-x="592" d="M297 393Q229 393 203 345T176 246Q176 189 200 144T297 99Q320 99 345 109T393 134V358Q371 373 346 383T297 393ZM524 485V1Q524 -87 465 -146T276 -206Q245 -206 186 -192T88 -151L127 -59Q172 -81
204 -91T273 -102Q331 -101 362 -74T393 2V27Q362 9 327 -1T262 -12Q156 -12 99 62T42 246Q42 356 102 430T268 504Q304 504 349 489T426 445L456 485H524Z" />
<glyph unicode="h" glyph-name="h" horiz-adv-x="585" d="M198 453Q230 478 271 491T346 504Q445 504 486 446T528 304V0H398V298Q398 344 376 368T311 393Q283 393 253 379T198 345V0H69V695L198 706V453Z" />
<glyph unicode="i" glyph-name="i" horiz-adv-x="256" d="M127 700Q158 700 179 679T201 627Q201 596 180 575T127 554Q97 554 76 575T55 627Q55 658 76 679T127 700ZM192 485V0H62V485H192Z" />
<glyph unicode="j" glyph-name="j" horiz-adv-x="278" d="M145 700Q176 700 197 679T219 627Q219 596 198 575T145 554Q114 554 93 575T72 627Q72 658 93 679T145 700ZM211 485V-11Q211 -80 171 -122T35 -194L-16 -95Q37 -76 58 -50T80 20V485H211Z" />
<glyph unicode="k" glyph-name="k" horiz-adv-x="527" d="M198 706V308L406 499L479 407L343 288L521 0H372L250 205L198 159V0H69V695L198 706Z" />
<glyph unicode="l" glyph-name="l" horiz-adv-x="266" d="M198 706V0H69V695L198 706Z" />
<glyph unicode="m" glyph-name="m" horiz-adv-x="893" d="M479 428Q510 463 561 483T654 504Q753 504 794 446T836 304V0H705V298Q705 344 683 368T619 393Q591 393 560 378T504 344Q505 334 506 324T507 304V0H376V298Q376 344 354 368T291 393Q266 393 241 383T192
356V0H62V485H130L162 441Q195 471 241 487T325 504Q382 504 420 484T479 428Z" />
<glyph unicode="n" glyph-name="n" horiz-adv-x="580" d="M169 433Q202 466 251 485T340 504Q439 504 480 446T522 304V0H392V298Q392 344 370 368T306 393Q278 393 248 379T192 345V0H62V485H130L169 433Z" />
<glyph unicode="o" glyph-name="o" horiz-adv-x="590" d="M286 -12Q171 -11 107 58T42 244Q42 360 109 429T294 498Q415 498 481 427T548 239Q548 123 476 56T286 -12ZM414 239Q414 308 384 347T297 387Q240 387 208 352T176 245Q176 173 203 136T288 99Q344 99
379 132T414 239Z" />
<glyph unicode="p" glyph-name="p" horiz-adv-x="581" d="M284 99Q351 99 378 147T405 246Q405 303 381 348T284 393Q263 393 241 386T198 365V127Q218 115 240 107T284 99ZM69 485H135L163 449Q196 474 240 489T318 504Q425 504 482 430T539 246Q539 136 481
62T318 -12Q292 -12 260 -3T198 22V-209L69 -219V485Z" />
<glyph unicode="q" glyph-name="q" horiz-adv-x="592" d="M524 485V-209L393 -219V27Q362 9 327 -1T262 -12Q156 -12 99 62T42 246Q42 356 102 430T268 504Q304 504 349 489T426 445L456 485H524ZM297 393Q229 393 203 345T176 246Q176 189 200 144T297 99Q320
99 345 109T393 134V358Q371 373 346 383T297 393Z" />
<glyph unicode="r" glyph-name="r" horiz-adv-x="358" d="M328 485L354 381Q321 381 278 362T192 306V0H62V485H130L173 414Q203 440 246 462T328 485Z" />
<glyph unicode="s" glyph-name="s" horiz-adv-x="432" d="M347 354Q312 370 282 378T218 387Q193 387 180 378T166 351Q166 339 182 328T236 304Q297 282 349 243T401 140Q401 68 350 28T199 -12Q168 -12 117 0T31 38L70 132Q105 116 137 108T197 99Q233 99 252
109T271 135Q271 155 252 171T192 200Q134 219 83 254T31 350Q31 419 82 458T220 498Q251 498 300 485T386 447L347 354Z" />
<glyph unicode="t" glyph-name="t" horiz-adv-x="372" d="M362 10Q346 -3 317 -11T264 -20Q174 -20 123 25T71 155V384H6V484H71V599L200 622V484H288L328 384H200V178Q200 140 218 116T271 91Q284 91 297 94T324 104L362 10Z" />
<glyph unicode="u" glyph-name="u" horiz-adv-x="575" d="M407 48Q374 17 326 -1T239 -20Q140 -20 99 38T57 180V485H188V186Q188 140 210 116T274 91Q300 91 329 104T382 134V485H512V0H444L407 48Z" />
<glyph unicode="v" glyph-name="v" horiz-adv-x="500" d="M192 0L6 467L140 485L252 191L358 485H495L304 0H192Z" />
<glyph unicode="w" glyph-name="w" horiz-adv-x="755" d="M475 0L374 297L277 0H167L6 467L140 485L225 203L305 485H448L533 203L612 485H749L584 0H475Z" />
<glyph unicode="x" glyph-name="x" horiz-adv-x="542" d="M6 0L189 246L22 466L155 485L272 329L394 485H536L349 227L520 0H377L265 145L150 0H6Z" />
<glyph unicode="y" glyph-name="y" horiz-adv-x="500" d="M156 -23L179 34L6 467L140 485L252 191L358 485H495L304 0L278 -64Q255 -123 197 -165T75 -222L29 -115Q64 -100 103 -79T156 -23Z" />
<glyph unicode="z" glyph-name="z" horiz-adv-x="449" d="M423 411L189 105H423L433 0H33L16 69L247 378H53L28 485H416L423 411Z" />
<glyph unicode="{" glyph-name="braceleft" horiz-adv-x="290" d="M192 532Q192 504 209 473T227 408Q227 374 219 350T192 309Q210 291 218 266T227 209Q227 177 210 145T192 85Q192 77 201 68T230 58H272L285 -42H227Q153 -42 119 -7T85 85Q85 100 90 124T105
170Q109 184 113 197T118 221Q118 241 105 253T76 265H31V351H76Q92 351 105 363T118 395Q118 405 114 420T103 453V452Q96 472 91 494T85 533Q85 590 119 624T227 659H285L272 559H230Q211 559 202 550T192 532Z" />
<glyph unicode="|" glyph-name="bar" horiz-adv-x="266" d="M198 703V-10L69 0V713L198 703Z" />
<glyph unicode="}" glyph-name="braceright" horiz-adv-x="290" d="M96 85Q96 113 79 144T62 209Q62 242 70 267T97 308Q79 326 71 351T62 408Q62 440 79 472T96 532Q96 540 87 549T59 559H17L6 659H62Q135 659 170 625T206 533Q206 517 200 493T185 447Q181 433
177 419T172 395Q172 376 184 364T213 351H258V266H213Q197 266 185 254T172 221Q172 211 176 197T187 164V165Q193 146 199 124T206 85Q206 28 171 -7T62 -42H6L17 58H59Q78 58 87 67T96 85Z" />
<glyph unicode="~" glyph-name="asciitilde" horiz-adv-x="463" d="M138 172H22Q19 262 59 300T148 339Q203 339 235 324T298 308Q306 308 315 317T325 346H441Q443 255 404 217T315 178Q260 178 228 194T164 210Q157 210 148 201T138 172Z" />
<glyph unicode="&#xa0;" glyph-name="uni00A0" horiz-adv-x="236" />
<glyph unicode="&#xa1;" glyph-name="exclamdown" horiz-adv-x="252" d="M125 555Q95 555 74 576T52 629Q52 659 73 680T125 702Q156 702 177 681T199 629Q199 598 178 577T125 555ZM178 458L192 0H57L73 505L178 458Z" />
<glyph unicode="&#xa2;" glyph-name="cent" horiz-adv-x="486" d="M357 611V487Q382 483 408 472T454 447L417 354Q382 370 355 378T293 387Q238 387 207 346T176 242Q176 179 207 139T293 99Q327 99 354 107T417 132L454 38Q435 22 410 12T359 -4V-115L229 -105V-6Q140
11 91 76T42 242Q42 341 90 407T227 491V611H357Z" />
<glyph unicode="&#xa3;" glyph-name="sterling" horiz-adv-x="514" d="M52 390H127V503Q127 587 177 635T317 684Q341 684 370 675T415 652L377 560Q363 566 349 569T323 572Q288 572 273 548T258 486V390H376L419 291H258V200Q258 172 253 147T237 101H483L503
0H64V101H68Q100 102 113 126T127 187V291H52V390Z" />
<glyph unicode="&#xa4;" glyph-name="currency" horiz-adv-x="683" d="M476 21Q447 5 414 -3T344 -13Q306 -12 272 -3T207 23L101 -85L21 11L119 111Q103 139 94 171T85 241Q85 278 94 312T120 372L21 473L101 569L207 462Q237 478 271 487T344 498Q381 497 414
488T476 463L582 569L662 473L566 376Q583 348 592 314T603 243Q602 204 593 170T566 108L662 11L582 -85L476 21ZM469 242Q468 297 430 334T342 372Q293 371 257 334T219 242Q220 188 256 150T342 111Q392 111 430 149T469 242Z" />
<glyph unicode="&#xa5;" glyph-name="yen" horiz-adv-x="605" d="M524 66H364V0H234V66H78L67 162H234V218H78L67 314H206L6 663L140 680L298 396L463 680H600L394 314H514L524 218H364V162H514L524 66Z" />
<glyph unicode="&#xa6;" glyph-name="brokenbar" horiz-adv-x="266" d="M198 703V406L69 417V713L198 703ZM198 288V-10L69 0V297L198 288Z" />
<glyph unicode="&#xa7;" glyph-name="section" horiz-adv-x="624" d="M448 260Q448 294 408 320T318 372Q285 388 252 407T190 449Q183 441 180 431T176 409Q176 371 214 345T304 292Q338 276 370 258T430 217Q438 225 443 236T448 260ZM83 43Q114 29 162 13T253
-4Q314 -4 344 15T375 71Q375 105 335 131T245 182Q173 218 107 269T42 408Q42 452 62 489T120 550Q118 562 117 574T115 599Q116 677 176 728T350 780Q399 780 449 765T540 730L498 626Q466 641 430 654T351 668Q307 668 278 651T248 600Q248 562 286 536T377
482Q449 446 515 396T581 259Q580 215 560 179T502 117Q506 105 507 94T509 69Q508 -12 443 -65T255 -119Q212 -119 145 -100T54 -59L83 43Z" />
<glyph unicode="&#xa8;" glyph-name="dieresis" horiz-adv-x="353" d="M82 732Q109 732 127 713T145 667Q145 640 127 622T82 603Q54 603 35 621T16 667Q16 694 35 713T82 732ZM272 732Q300 732 318 713T337 667Q337 640 319 622T272 603Q246 603 227 621T207
667Q207 694 226 713T272 732Z" />
<glyph unicode="&#xa9;" glyph-name="copyright" horiz-adv-x="856" d="M815 336Q815 177 711 66T428 -46Q250 -46 146 65T42 336Q42 496 146 607T428 719Q606 719 710 608T815 336ZM125 337Q125 206 206 118T428 29Q569 29 650 117T731 337Q731 468 650 556T428
645Q288 645 207 557T125 337ZM449 459Q403 459 377 427T350 337Q350 278 376 246T449 213Q480 213 504 221T561 245L596 148Q565 123 520 113T447 102Q340 102 278 165T216 337Q216 444 282 507T447 571Q475 571 519 560T596 526L561 428Q529 444 505 451T449
459Z" />
<glyph unicode="&#xaa;" glyph-name="ordfeminine" horiz-adv-x="340" d="M117 475Q117 466 122 460T141 453Q157 453 172 457T202 471V498H148Q132 498 125 491T117 475ZM137 363Q78 363 50 393T21 469Q21 518 55 547T144 576H199Q196 593 185 602T155 612Q133
612 106 605T61 591L38 673Q56 685 94 693T154 702Q211 702 254 668T298 583V371H249L225 397Q208 384 184 374T137 363Z" />
<glyph unicode="&#xab;" glyph-name="guillemotleft" horiz-adv-x="384" d="M351 83L190 221V269L351 408L372 321L288 245L372 169L351 83ZM181 83L21 221V269L181 408L204 321L119 245L204 169L181 83Z" />
<glyph unicode="&#xac;" glyph-name="logicalnot" horiz-adv-x="511" d="M490 356V112L381 117V304H24L16 406H482L490 356Z" />
<glyph unicode="&#xad;" glyph-name="softhyphen" horiz-adv-x="131" />
<glyph unicode="&#xae;" glyph-name="registered" horiz-adv-x="745" d="M714 487Q714 346 622 248T372 150Q215 150 123 248T31 487Q31 630 123 728T372 827Q530 827 622 729T714 487ZM109 488Q109 374 178 298T372 221Q495 222 565 298T636 488Q636 604 566
679T372 755Q248 755 179 680T109 488ZM360 605H326V521H361Q394 521 414 529T435 562Q435 590 415 597T360 605ZM442 304L380 447H326V304H234V681H384Q445 681 488 653T531 566Q531 529 513 504T466 465L545 304H442Z" />
<glyph unicode="&#xaf;" glyph-name="overscore" horiz-adv-x="293" d="M16 716H278V613H16V716Z" />
<glyph unicode="&#xb0;" glyph-name="degree" horiz-adv-x="251" d="M126 724Q173 724 209 691T245 610Q245 561 209 529T126 497Q77 497 42 529T6 610Q6 657 41 690T126 724ZM165 607Q165 623 154 635T126 648Q110 648 99 636T87 610Q87 594 98 581T126 568Q142
568 153 580T165 607Z" />
<glyph unicode="&#xb1;" glyph-name="plusminus" horiz-adv-x="452" d="M430 298H284V140L173 145V298H31L21 387H173V534L284 531V387H421L430 298ZM430 0H31L24 90H426L430 0Z" />
<glyph unicode="&#xb2;" glyph-name="twosuperior" horiz-adv-x="401" d="M181 771Q266 771 306 727T346 636Q346 591 322 554T242 470L189 427H344L358 337H31V419L168 531Q196 554 210 577T225 636Q225 651 212 663T174 675Q146 675 115 656T83 634L39 718Q59
734 93 752T181 771Z" />
<glyph unicode="&#xb3;" glyph-name="threesuperior" horiz-adv-x="425" d="M195 771Q275 771 314 732T354 639Q354 605 334 577T292 540Q314 535 338 504T362 427Q362 365 314 322T185 279Q143 279 99 294T21 326L71 409Q101 391 122 383T171 374Q204 374 222
389T241 426Q241 459 220 476T159 493H128L115 583H164Q210 583 221 602T233 638Q233 648 222 661T177 674Q145 674 124 663T83 636L36 717Q73 741 111 756T195 771Z" />
<glyph unicode="&#xb4;" glyph-name="acute" horiz-adv-x="225" d="M76 753H210L115 589H16L76 753Z" />
<glyph unicode="&#xb5;" glyph-name="mu" horiz-adv-x="585" d="M419 48Q385 17 337 -1T250 -20Q235 -20 222 -19T198 -15V-209L69 -219V485H198V186Q198 140 220 116T285 91Q311 91 339 104T392 134V485H522V0H454L419 48Z" />
<glyph unicode="&#xb6;" glyph-name="paragraph" horiz-adv-x="934" d="M677 0V578H475V0H344V237H321Q211 237 127 291T42 462Q42 579 121 629T310 680H902V578H808V0H677Z" />
<glyph unicode="&#xb7;" glyph-name="middot" horiz-adv-x="167" d="M84 335Q115 335 135 314T156 262Q156 231 136 210T84 189Q53 189 32 210T10 262Q10 293 31 314T84 335Z" />
<glyph unicode="&#xb8;" glyph-name="cedilla" horiz-adv-x="253" d="M92 13H185L167 -29Q197 -41 217 -66T237 -118Q237 -171 199 -196T111 -221Q92 -221 62 -214T16 -193L46 -117Q59 -124 78 -130T111 -137Q123 -137 134 -134T145 -120Q145 -105 121 -92T57 -75L92 13Z" />
<glyph unicode="&#xb9;" glyph-name="onesuperior" horiz-adv-x="389" d="M65 426H148V633L108 611L62 694L189 763H266V426H328L337 337H73L65 426Z" />
<glyph unicode="&#xba;" glyph-name="ordmasculine" horiz-adv-x="378" d="M183 363Q106 364 64 409T21 533Q21 611 66 656T188 702Q269 702 312 655T356 531Q356 454 309 409T183 363ZM246 530Q246 568 234 590T190 612Q163 612 147 594T131 533Q131 493 143
473T185 452Q216 452 231 471T246 530Z" />
<glyph unicode="&#xbb;" glyph-name="guillemotright" horiz-adv-x="384" d="M33 408L192 269V221L33 83L10 169L95 245L10 321L33 408ZM202 408L363 269V221L202 83L180 169L265 245L180 321L202 408Z" />
<glyph unicode="&#xbc;" glyph-name="onequarter" horiz-adv-x="928" d="M65 426H148V633L108 611L62 694L189 763H266V426H328L337 337H73L65 426ZM650 498L363 -4L223 0L508 501L650 498ZM886 -81H806V-165H687V-81H489L477 15L724 322H806V15H897L886 -81ZM598
15H687V122L598 15Z" />
<glyph unicode="&#xbd;" glyph-name="onehalf" horiz-adv-x="970" d="M65 426H148V633L108 611L62 694L189 763H266V426H328L337 337H73L65 426ZM650 498L363 -4L223 0L508 501L650 498ZM749 324Q835 324 874 281T914 189Q914 144 890 107T811 24L758 -20H913L927
-110H600V-27L737 85Q765 108 780 131T795 189Q795 204 781 216T743 229Q715 229 684 209T651 188L608 272Q628 288 662 306T749 324Z" />
<glyph unicode="&#xbe;" glyph-name="threequarters" horiz-adv-x="933" d="M656 498L370 -4L227 0L514 501L656 498ZM195 771Q275 771 314 732T354 639Q354 605 334 577T292 540Q314 535 338 504T362 427Q362 365 314 322T185 279Q143 279 99 294T21 326L71 409Q101
391 122 383T171 374Q204 374 222 389T241 426Q241 459 220 476T159 493H128L115 583H164Q210 583 221 602T233 638Q233 648 222 661T177 674Q145 674 124 663T83 636L36 717Q73 741 111 756T195 771ZM892 -81H812V-165H693V-81H495L482 15L730 322H812V15H902L892
-81ZM602 15H693V122L602 15Z" />
<glyph unicode="&#xbf;" glyph-name="questiondown" horiz-adv-x="458" d="M276 517Q245 517 224 538T203 591Q203 621 224 642T276 664Q307 664 328 643T350 591Q350 560 329 539T276 517ZM241 -37Q142 -37 92 13T42 142Q42 197 89 254T206 349L223 485L315 447L324
282Q252 259 206 222T160 143Q160 110 184 91T245 71Q277 71 323 85T419 136L436 19Q390 -10 343 -23T241 -37Z" />
<glyph unicode="&#xc0;" glyph-name="Agrave" horiz-adv-x="651" d="M215 903H349L409 739H310L215 903ZM323 502L234 265H414L323 502ZM381 680L645 18L515 0L454 160H196L136 0H6L271 680H381Z" />
<glyph unicode="&#xc1;" glyph-name="Aacute" horiz-adv-x="651" d="M304 903H438L343 739H244L304 903ZM323 502L234 265H414L323 502ZM381 680L645 18L515 0L454 160H196L136 0H6L271 680H381Z" />
<glyph unicode="&#xc2;" glyph-name="Acircumflex" horiz-adv-x="651" d="M255 739H132L284 903H355L507 739H388L322 804L255 739ZM323 502L234 265H414L323 502ZM381 680L645 18L515 0L454 160H196L136 0H6L271 680H381Z" />
<glyph unicode="&#xc3;" glyph-name="Atilde" horiz-adv-x="651" d="M240 750H154Q154 817 187 843T261 870Q298 870 321 853T373 835Q384 835 392 844T400 866H481Q481 798 448 772T374 745Q337 745 316 763T268 781Q257 781 249 771T240 750ZM323 502L234 265H414L323
502ZM381 680L645 18L515 0L454 160H196L136 0H6L271 680H381Z" />
<glyph unicode="&#xc4;" glyph-name="Adieresis" horiz-adv-x="651" d="M227 882Q254 882 272 863T290 817Q290 790 272 772T227 753Q199 753 180 771T161 817Q161 844 180 863T227 882ZM417 882Q445 882 463 863T482 817Q482 790 464 772T417 753Q391 753 372
771T352 817Q352 844 371 863T417 882ZM323 502L234 265H414L323 502ZM381 680L645 18L515 0L454 160H196L136 0H6L271 680H381Z" />
<glyph unicode="&#xc5;" glyph-name="Aring" horiz-adv-x="651" d="M322 943Q365 943 397 914T429 842Q429 799 397 772T322 744Q279 744 247 771T215 842Q215 885 247 914T322 943ZM322 802Q338 802 349 814T361 842Q361 858 350 869T322 881Q306 881 294 870T282
842Q282 826 294 814T322 802ZM323 502L234 265H414L323 502ZM381 680L645 18L515 0L454 160H196L136 0H6L271 680H381Z" />
<glyph unicode="&#xc6;" glyph-name="AE" horiz-adv-x="963" d="M0 18L453 680H874L893 578H597V395H778L799 292H597V101H922L942 0H466V160H234L124 0L0 18ZM304 265H466V502L304 265Z" />
<glyph unicode="&#xc7;" glyph-name="Ccedilla" horiz-adv-x="593" d="M505 557Q461 570 433 577T361 585Q280 585 236 519T192 338Q192 239 229 167T353 95Q396 95 433 104T502 126L551 30Q520 14 479 4T400 -11L393 -29Q423 -41 443 -66T463 -118Q463 -171 425
-196T337 -221Q318 -221 288 -214T242 -193L272 -117Q285 -124 304 -130T337 -137Q349 -137 360 -134T371 -120Q371 -105 347 -92T283 -75L308 -10Q177 6 117 104T57 337Q57 494 136 594T365 694Q395 694 448 684T545 650L505 557Z" />
<glyph unicode="&#xc8;" glyph-name="Egrave" horiz-adv-x="580" d="M186 903H320L380 739H281L186 903ZM560 0H84V680H490L510 578H213V395H395L416 292H213V101H539L560 0Z" />
<glyph unicode="&#xc9;" glyph-name="Eacute" horiz-adv-x="580" d="M275 903H409L314 739H215L275 903ZM560 0H84V680H490L510 578H213V395H395L416 292H213V101H539L560 0Z" />
<glyph unicode="&#xca;" glyph-name="Ecircumflex" horiz-adv-x="580" d="M226 739H103L255 903H326L478 739H359L293 804L226 739ZM560 0H84V680H490L510 578H213V395H395L416 292H213V101H539L560 0Z" />
<glyph unicode="&#xcb;" glyph-name="Edieresis" horiz-adv-x="580" d="M198 882Q225 882 243 863T261 817Q261 790 243 772T198 753Q170 753 151 771T132 817Q132 844 151 863T198 882ZM388 882Q416 882 434 863T453 817Q453 790 435 772T388 753Q362 753 343
771T323 817Q323 844 342 863T388 882ZM560 0H84V680H490L510 578H213V395H395L416 292H213V101H539L560 0Z" />
<glyph unicode="&#xcc;" glyph-name="Igrave" horiz-adv-x="297" d="M41 903H175L235 739H136L41 903ZM213 680V0H84V680H213Z" />
<glyph unicode="&#xcd;" glyph-name="Iacute" horiz-adv-x="297" d="M130 903H264L169 739H70L130 903ZM213 680V0H84V680H213Z" />
<glyph unicode="&#xce;" glyph-name="Icircumflex" horiz-adv-x="297" d="M81 739H-42L110 903H181L333 739H214L148 804L81 739ZM213 680V0H84V680H213Z" />
<glyph unicode="&#xcf;" glyph-name="Idieresis" horiz-adv-x="297" d="M53 882Q80 882 98 863T116 817Q116 790 98 772T53 753Q25 753 6 771T-13 817Q-13 844 6 863T53 882ZM243 882Q271 882 289 863T308 817Q308 790 290 772T243 753Q217 753 198 771T178 817Q178
844 197 863T243 882ZM213 680V0H84V680H213Z" />
<glyph unicode="&#xd0;" glyph-name="Eth" horiz-adv-x="710" d="M339 -1V0H90V291H29L18 392H90V680H339Q498 681 575 586T652 344Q652 186 570 94T339 -1ZM295 291H221V109H337Q419 109 468 163T518 344Q518 450 476 510T343 570H221V392H286L295 291Z" />
<glyph unicode="&#xd1;" glyph-name="Ntilde" horiz-adv-x="742" d="M297 750H211Q211 817 244 843T318 870Q355 870 378 853T430 835Q441 835 449 844T457 866H538Q538 798 505 772T431 745Q394 745 373 763T325 781Q314 781 306 771T297 750ZM658 680V0H528L213
455V0H84V680H213L528 226V680H658Z" />
<glyph unicode="&#xd2;" glyph-name="Ograve" horiz-adv-x="741" d="M263 903H397L457 739H358L263 903ZM57 337Q57 494 139 593T370 696Q530 696 607 593T684 344Q684 186 602 88T370 -14Q211 -14 134 88T57 337ZM192 338Q192 231 235 163T369 95Q451 95 500
156T549 344Q549 450 506 518T372 586Q292 586 242 519T192 338Z" />
<glyph unicode="&#xd3;" glyph-name="Oacute" horiz-adv-x="741" d="M352 903H486L391 739H292L352 903ZM57 337Q57 494 139 593T370 696Q530 696 607 593T684 344Q684 186 602 88T370 -14Q211 -14 134 88T57 337ZM192 338Q192 231 235 163T369 95Q451 95 500
156T549 344Q549 450 506 518T372 586Q292 586 242 519T192 338Z" />
<glyph unicode="&#xd4;" glyph-name="Ocircumflex" horiz-adv-x="741" d="M303 739H180L332 903H403L555 739H436L370 804L303 739ZM57 337Q57 494 139 593T370 696Q530 696 607 593T684 344Q684 186 602 88T370 -14Q211 -14 134 88T57 337ZM192 338Q192 231 235
163T369 95Q451 95 500 156T549 344Q549 450 506 518T372 586Q292 586 242 519T192 338Z" />
<glyph unicode="&#xd5;" glyph-name="Otilde" horiz-adv-x="741" d="M288 750H202Q202 817 235 843T309 870Q346 870 369 853T421 835Q432 835 440 844T448 866H529Q529 798 496 772T422 745Q385 745 364 763T316 781Q305 781 297 771T288 750ZM57 337Q57 494
139 593T370 696Q530 696 607 593T684 344Q684 186 602 88T370 -14Q211 -14 134 88T57 337ZM192 338Q192 231 235 163T369 95Q451 95 500 156T549 344Q549 450 506 518T372 586Q292 586 242 519T192 338Z" />
<glyph unicode="&#xd6;" glyph-name="Odieresis" horiz-adv-x="741" d="M275 882Q302 882 320 863T338 817Q338 790 320 772T275 753Q247 753 228 771T209 817Q209 844 228 863T275 882ZM465 882Q493 882 511 863T530 817Q530 790 512 772T465 753Q439 753 420
771T400 817Q400 844 419 863T465 882ZM57 337Q57 494 139 593T370 696Q530 696 607 593T684 344Q684 186 602 88T370 -14Q211 -14 134 88T57 337ZM192 338Q192 231 235 163T369 95Q451 95 500 156T549 344Q549 450 506 518T372 586Q292 586 242 519T192 338Z"
/>
<glyph unicode="&#xd7;" glyph-name="multiply" horiz-adv-x="551" d="M21 45L197 258L28 468L150 486L272 335L396 484H530L337 251L407 162Q429 133 462 94T514 29H381L263 174L199 97L140 25L21 45Z" />
<glyph unicode="&#xd8;" glyph-name="Oslash" horiz-adv-x="741" d="M57 337Q57 494 139 593T370 696Q530 696 607 593T684 344Q684 186 602 88T370 -14Q211 -14 134 88T57 337ZM372 586Q292 586 242 519T192 338Q192 286 202 242T233 166L407 583Q398 584 390
585T372 586ZM341 97Q348 96 355 96T369 95Q451 95 500 156T549 344Q549 392 540 433T514 506L341 97Z" />
<glyph unicode="&#xd9;" glyph-name="Ugrave" horiz-adv-x="713" d="M259 903H393L453 739H354L259 903ZM209 680V257Q209 172 250 134T356 95Q422 95 462 135T503 257V680H634V247Q634 137 559 64T356 -11Q228 -12 154 62T79 247L78 680H209Z" />
<glyph unicode="&#xda;" glyph-name="Uacute" horiz-adv-x="713" d="M319 903H453L358 739H259L319 903ZM209 680V257Q209 172 250 134T356 95Q422 95 462 135T503 257V680H634V247Q634 137 559 64T356 -11Q228 -12 154 62T79 247L78 680H209Z" />
<glyph unicode="&#xdb;" glyph-name="Ucircumflex" horiz-adv-x="713" d="M292 739H169L321 903H392L544 739H425L359 804L292 739ZM209 680V257Q209 172 250 134T356 95Q422 95 462 135T503 257V680H634V247Q634 137 559 64T356 -11Q228 -12 154 62T79 247L78 680H209Z" />
<glyph unicode="&#xdc;" glyph-name="Udieresis" horiz-adv-x="713" d="M262 882Q289 882 307 863T325 817Q325 790 307 772T262 753Q234 753 215 771T196 817Q196 844 215 863T262 882ZM452 882Q480 882 498 863T517 817Q517 790 499 772T452 753Q426 753 407
771T387 817Q387 844 406 863T452 882ZM209 680V257Q209 172 250 134T356 95Q422 95 462 135T503 257V680H634V247Q634 137 559 64T356 -11Q228 -12 154 62T79 247L78 680H209Z" />
<glyph unicode="&#xdd;" glyph-name="Yacute" horiz-adv-x="605" d="M265 903H399L304 739H205L265 903ZM234 0V265L6 663L140 680L298 396L463 680H600L364 260V0H234Z" />
<glyph unicode="&#xde;" glyph-name="Thorn" horiz-adv-x="607" d="M213 680V566H297Q408 566 487 516T566 349Q565 232 481 178T288 123H213V0H84V680H213ZM293 460H213V230H295Q353 230 389 257T429 342Q429 407 393 433T293 460Z" />
<glyph unicode="&#xdf;" glyph-name="germandbls" horiz-adv-x="640" d="M69 473Q69 575 130 638T304 702Q408 702 479 653T551 508Q551 468 528 428T470 372Q517 360 558 311T600 195Q600 105 534 53T358 0H258V107H349Q395 107 429 133T463 199Q463 242 432
270T358 299H264V403H299Q353 403 384 431T415 499Q415 542 384 566T310 590Q261 590 230 558T198 471V0H69V473Z" />
<glyph unicode="&#xe0;" glyph-name="agrave" horiz-adv-x="516" d="M139 753H273L333 589H234L139 753ZM159 145Q159 124 176 108T221 91Q248 91 275 103T328 139V213H230Q196 213 178 192T159 145ZM223 -12Q134 -12 91 31T48 145Q48 220 99 260T232 300H327Q326
337 306 357T249 378Q215 378 175 369T108 346L73 454Q101 473 158 485T247 498Q334 498 396 448T458 319V0H391L359 41Q332 20 296 4T223 -12Z" />
<glyph unicode="&#xe1;" glyph-name="aacute" horiz-adv-x="516" d="M229 753H363L268 589H169L229 753ZM159 145Q159 124 176 108T221 91Q248 91 275 103T328 139V213H230Q196 213 178 192T159 145ZM223 -12Q134 -12 91 31T48 145Q48 220 99 260T232 300H327Q326
337 306 357T249 378Q215 378 175 369T108 346L73 454Q101 473 158 485T247 498Q334 498 396 448T458 319V0H391L359 41Q332 20 296 4T223 -12Z" />
<glyph unicode="&#xe2;" glyph-name="acircumflex" horiz-adv-x="516" d="M199 589H76L229 753H298L451 589H332L266 654L199 589ZM159 145Q159 124 176 108T221 91Q248 91 275 103T328 139V213H230Q196 213 178 192T159 145ZM223 -12Q134 -12 91 31T48 145Q48
220 99 260T232 300H327Q326 337 306 357T249 378Q215 378 175 369T108 346L73 454Q101 473 158 485T247 498Q334 498 396 448T458 319V0H391L359 41Q332 20 296 4T223 -12Z" />
<glyph unicode="&#xe3;" glyph-name="atilde" horiz-adv-x="516" d="M174 600H87Q87 667 120 693T196 720Q233 720 256 703T307 685Q318 685 326 694T335 716H416Q416 648 383 622T308 595Q271 595 251 613T202 631Q191 631 183 621T174 600ZM159 145Q159 124
176 108T221 91Q248 91 275 103T328 139V213H230Q196 213 178 192T159 145ZM223 -12Q134 -12 91 31T48 145Q48 220 99 260T232 300H327Q326 337 306 357T249 378Q215 378 175 369T108 346L73 454Q101 473 158 485T247 498Q334 498 396 448T458 319V0H391L359 41Q332
20 296 4T223 -12Z" />
<glyph unicode="&#xe4;" glyph-name="adieresis" horiz-adv-x="516" d="M165 732Q192 732 210 713T229 667Q229 640 211 622T165 603Q137 603 118 621T99 667Q99 694 118 713T165 732ZM356 732Q384 732 402 713T420 667Q420 640 402 622T356 603Q330 603 311 621T291
667Q291 694 310 713T356 732ZM159 145Q159 124 176 108T221 91Q248 91 275 103T328 139V213H230Q196 213 178 192T159 145ZM223 -12Q134 -12 91 31T48 145Q48 220 99 260T232 300H327Q326 337 306 357T249 378Q215 378 175 369T108 346L73 454Q101 473 158 485T247
498Q334 498 396 448T458 319V0H391L359 41Q332 20 296 4T223 -12Z" />
<glyph unicode="&#xe5;" glyph-name="aring" horiz-adv-x="516" d="M258 793Q301 793 333 764T366 692Q366 649 334 622T258 594Q215 594 183 621T151 692Q151 735 183 764T258 793ZM258 652Q275 652 286 664T297 692Q297 708 286 719T258 731Q242 731 231 720T219
692Q219 676 230 664T258 652ZM159 145Q159 124 176 108T221 91Q248 91 275 103T328 139V213H230Q196 213 178 192T159 145ZM223 -12Q134 -12 91 31T48 145Q48 220 99 260T232 300H327Q326 337 306 357T249 378Q215 378 175 369T108 346L73 454Q101 473 158 485T247
498Q334 498 396 448T458 319V0H391L359 41Q332 20 296 4T223 -12Z" />
<glyph unicode="&#xe6;" glyph-name="ae" horiz-adv-x="828" d="M223 -12Q134 -12 91 30T48 141Q48 216 99 253T232 291H328V293Q328 333 307 355T249 378Q215 378 175 369T108 346L73 454Q101 473 158 485T247 498Q293 498 333 482T402 439Q433 467 475 482T568
498Q683 498 737 423T791 244V204H463Q472 156 506 128T599 99Q633 99 659 107T720 132L759 38Q725 12 676 0T596 -12Q527 -12 474 9T387 68Q362 39 316 14T223 -12ZM666 291Q657 340 631 363T566 387Q527 387 500 363T463 291H666ZM159 141Q159 120 176 106T221
91Q250 91 281 106T338 150Q334 163 332 176T326 204H230Q196 204 178 186T159 141Z" />
<glyph unicode="&#xe7;" glyph-name="ccedilla" horiz-adv-x="486" d="M293 387Q238 387 207 346T176 242Q176 179 207 139T293 99Q327 99 354 107T417 132L454 38Q430 19 398 8T336 -8L328 -29Q357 -41 376 -66T396 -118Q396 -171 359 -196T272 -221Q252 -221
222 -214T176 -193L206 -117Q219 -124 239 -130T272 -137Q284 -137 294 -134T304 -120Q304 -105 281 -92T218 -75L244 -8Q148 5 95 71T42 242Q42 358 108 428T292 498Q323 498 370 485T454 447L417 354Q382 370 355 378T293 387Z" />
<glyph unicode="&#xe8;" glyph-name="egrave" horiz-adv-x="545" d="M176 753H309L370 589H272L176 753ZM313 -12Q187 -12 115 57T42 242Q42 358 107 428T286 498Q400 498 453 423T507 244V204H180Q189 156 224 128T316 99Q349 99 375 107T437 132L475 38Q441
12 393 0T313 -12ZM384 291Q374 340 348 363T283 387Q243 387 216 363T181 291H384Z" />
<glyph unicode="&#xe9;" glyph-name="eacute" horiz-adv-x="545" d="M265 753H400L304 589H206L265 753ZM313 -12Q187 -12 115 57T42 242Q42 358 107 428T286 498Q400 498 453 423T507 244V204H180Q189 156 224 128T316 99Q349 99 375 107T437 132L475 38Q441
12 393 0T313 -12ZM384 291Q374 340 348 363T283 387Q243 387 216 363T181 291H384Z" />
<glyph unicode="&#xea;" glyph-name="ecircumflex" horiz-adv-x="545" d="M225 589H102L255 753H324L477 589H359L292 654L225 589ZM313 -12Q187 -12 115 57T42 242Q42 358 107 428T286 498Q400 498 453 423T507 244V204H180Q189 156 224 128T316 99Q349 99 375
107T437 132L475 38Q441 12 393 0T313 -12ZM384 291Q374 340 348 363T283 387Q243 387 216 363T181 291H384Z" />
<glyph unicode="&#xeb;" glyph-name="edieresis" horiz-adv-x="545" d="M188 732Q215 732 234 713T253 667Q253 640 234 622T188 603Q162 603 142 621T122 667Q122 694 142 713T188 732ZM380 732Q407 732 425 713T444 667Q444 640 426 622T380 603Q353 603 334
621T315 667Q315 694 334 713T380 732ZM313 -12Q187 -12 115 57T42 242Q42 358 107 428T286 498Q400 498 453 423T507 244V204H180Q189 156 224 128T316 99Q349 99 375 107T437 132L475 38Q441 12 393 0T313 -12ZM384 291Q374 340 348 363T283 387Q243 387 216
363T181 291H384Z" />
<glyph unicode="&#xec;" glyph-name="igrave" horiz-adv-x="256" d="M-1 753H134L192 589H94L-1 753ZM192 485V0H62V485H192Z" />
<glyph unicode="&#xed;" glyph-name="iacute" horiz-adv-x="256" d="M123 753H258L162 589H63L123 753ZM192 485V0H62V485H192Z" />
<glyph unicode="&#xee;" glyph-name="icircumflex" horiz-adv-x="256" d="M64 589H-59L93 753H162L316 589H197L131 654L64 589ZM192 485V0H62V485H192Z" />
<glyph unicode="&#xef;" glyph-name="idieresis" horiz-adv-x="256" d="M33 732Q60 732 78 713T97 667Q97 640 79 622T33 603Q5 603 -13 621T-32 667Q-32 694 -14 713T33 732ZM224 732Q251 732 269 713T288 667Q288 640 270 622T224 603Q197 603 178 621T159 667Q159
694 178 713T224 732ZM192 485V0H62V485H192Z" />
<glyph unicode="&#xf0;" glyph-name="eth" horiz-adv-x="559" d="M405 611L368 582Q428 523 466 443T505 264Q505 127 432 58T249 -12Q152 -12 92 54T31 204Q31 286 92 346T253 407Q284 407 315 395T372 365Q359 408 335 446T279 514L171 430L121 521L192 577Q170
589 146 598T98 612L156 699Q188 692 220 679T285 646L356 702L405 611ZM148 199Q148 159 176 127T252 94Q312 94 345 131T387 226Q374 258 339 286T253 314Q204 314 176 278T148 199Z" />
<glyph unicode="&#xf1;" glyph-name="ntilde" horiz-adv-x="580" d="M223 600H135Q135 667 169 693T244 720Q280 720 304 703T356 685Q366 685 375 694T384 716H464Q464 648 431 622T356 595Q319 595 299 613T251 631Q239 631 231 621T223 600ZM169 433Q202 466
251 485T340 504Q439 504 480 446T522 304V0H392V298Q392 344 370 368T306 393Q278 393 248 379T192 345V0H62V485H130L169 433Z" />
<glyph unicode="&#xf2;" glyph-name="ograve" horiz-adv-x="590" d="M186 753H321L380 589H281L186 753ZM286 -12Q171 -11 107 58T42 244Q42 360 109 429T294 498Q415 498 481 427T548 239Q548 123 476 56T286 -12ZM414 239Q414 308 384 347T297 387Q240 387 208
352T176 245Q176 173 203 136T288 99Q344 99 379 132T414 239Z" />
<glyph unicode="&#xf3;" glyph-name="oacute" horiz-adv-x="590" d="M276 753H409L315 589H216L276 753ZM286 -12Q171 -11 107 58T42 244Q42 360 109 429T294 498Q415 498 481 427T548 239Q548 123 476 56T286 -12ZM414 239Q414 308 384 347T297 387Q240 387 208
352T176 245Q176 173 203 136T288 99Q344 99 379 132T414 239Z" />
<glyph unicode="&#xf4;" glyph-name="ocircumflex" horiz-adv-x="590" d="M227 589H104L257 753H326L480 589H360L294 654L227 589ZM286 -12Q171 -11 107 58T42 244Q42 360 109 429T294 498Q415 498 481 427T548 239Q548 123 476 56T286 -12ZM414 239Q414 308
384 347T297 387Q240 387 208 352T176 245Q176 173 203 136T288 99Q344 99 379 132T414 239Z" />
<glyph unicode="&#xf5;" glyph-name="otilde" horiz-adv-x="590" d="M213 600H125Q125 667 159 693T233 720Q270 720 293 703T344 685Q356 685 364 694T372 716H454Q454 648 421 622T345 595Q309 595 288 613T239 631Q228 631 221 621T213 600ZM286 -12Q171 -11
107 58T42 244Q42 360 109 429T294 498Q415 498 481 427T548 239Q548 123 476 56T286 -12ZM414 239Q414 308 384 347T297 387Q240 387 208 352T176 245Q176 173 203 136T288 99Q344 99 379 132T414 239Z" />
<glyph unicode="&#xf6;" glyph-name="odieresis" horiz-adv-x="590" d="M198 732Q225 732 243 713T262 667Q262 640 244 622T198 603Q171 603 153 621T134 667Q134 694 152 713T198 732ZM389 732Q417 732 435 713T454 667Q454 640 436 622T389 603Q363 603 344
621T324 667Q324 694 343 713T389 732ZM286 -12Q171 -11 107 58T42 244Q42 360 109 429T294 498Q415 498 481 427T548 239Q548 123 476 56T286 -12ZM414 239Q414 308 384 347T297 387Q240 387 208 352T176 245Q176 173 203 136T288 99Q344 99 379 132T414 239Z"
/>
<glyph unicode="&#xf7;" glyph-name="divide" horiz-adv-x="481" d="M239 360Q207 360 185 382T162 436Q162 469 184 491T239 514Q271 514 294 492T317 436Q317 405 294 383T239 360ZM465 223H25L16 325H454L465 223ZM239 24Q207 24 185 47T162 101Q162 134 184
156T239 179Q271 179 294 157T317 101Q317 70 294 47T239 24Z" />
<glyph unicode="&#xf8;" glyph-name="oslash" horiz-adv-x="590" d="M286 -12Q171 -11 107 58T42 244Q42 360 109 429T294 498Q415 498 481 427T548 239Q548 123 476 56T286 -12ZM306 387H297Q240 387 208 352T176 245Q176 225 178 208T185 174L306 387ZM288 99Q344
99 379 132T414 239Q414 259 411 277T402 311L279 99Q280 98 283 98T288 99Z" />
<glyph unicode="&#xf9;" glyph-name="ugrave" horiz-adv-x="575" d="M162 753H296L356 589H258L162 753ZM407 48Q374 17 326 -1T239 -20Q140 -20 99 38T57 180V485H188V186Q188 140 210 116T274 91Q300 91 329 104T382 134V485H512V0H444L407 48Z" />
<glyph unicode="&#xfa;" glyph-name="uacute" horiz-adv-x="575" d="M273 753H407L311 589H213L273 753ZM407 48Q374 17 326 -1T239 -20Q140 -20 99 38T57 180V485H188V186Q188 140 210 116T274 91Q300 91 329 104T382 134V485H512V0H444L407 48Z" />
<glyph unicode="&#xfb;" glyph-name="ucircumflex" horiz-adv-x="575" d="M225 589H101L255 753H324L477 589H358L292 654L225 589ZM407 48Q374 17 326 -1T239 -20Q140 -20 99 38T57 180V485H188V186Q188 140 210 116T274 91Q300 91 329 104T382 134V485H512V0H444L407
48Z" />
<glyph unicode="&#xfc;" glyph-name="udieresis" horiz-adv-x="575" d="M196 732Q223 732 241 713T259 667Q259 640 241 622T196 603Q169 603 150 621T130 667Q130 694 149 713T196 732ZM387 732Q414 732 432 713T451 667Q451 640 433 622T387 603Q360 603 341
621T322 667Q322 694 341 713T387 732ZM407 48Q374 17 326 -1T239 -20Q140 -20 99 38T57 180V485H188V186Q188 140 210 116T274 91Q300 91 329 104T382 134V485H512V0H444L407 48Z" />
<glyph unicode="&#xfd;" glyph-name="yacute" horiz-adv-x="500" d="M234 753H369L273 589H174L234 753ZM156 -23L179 34L6 467L140 485L252 191L358 485H495L304 0L278 -64Q255 -123 197 -165T75 -222L29 -115Q64 -100 103 -79T156 -23Z" />
<glyph unicode="&#xfe;" glyph-name="thorn" horiz-adv-x="581" d="M284 99Q351 99 378 147T405 246Q405 303 381 348T284 393Q263 393 241 386T198 365V127Q218 115 240 107T284 99ZM198 706V470Q227 486 259 495T318 504Q425 504 482 430T539 246Q539 136 481
62T318 -12Q292 -12 260 -3T198 22V-209L69 -219V695L198 706Z" />
<glyph unicode="&#xff;" glyph-name="ydieresis" horiz-adv-x="500" d="M349 732Q376 732 394 713T412 667Q412 640 394 622T349 603Q321 603 302 621T283 667Q283 694 302 713T349 732ZM156 732Q183 732 202 713T221 667Q221 640 202 622T156 603Q130 603 111
621T91 667Q91 694 110 713T156 732ZM156 -23L179 34L6 467L140 485L252 191L358 485H495L304 0L278 -64Q255 -123 197 -165T75 -222L29 -115Q64 -100 103 -79T156 -23Z" />
<glyph unicode="&#x2013;" glyph-name="endash" horiz-adv-x="414" d="M398 223H27L16 325H388L398 223Z" />
<glyph unicode="&#x2014;" glyph-name="emdash" horiz-adv-x="520" d="M505 223H27L16 325H496L505 223Z" />
<glyph unicode="&#x2018;" glyph-name="quoteleft" horiz-adv-x="176" d="M85 443Q54 443 32 468T10 533Q10 589 47 650T142 742L171 682Q145 660 128 641T103 589Q120 589 139 567T158 517Q158 491 137 467T85 443Z" />
<glyph unicode="&#x2019;" glyph-name="quoteright" horiz-adv-x="176" d="M90 742Q121 742 143 718T166 653Q166 597 129 536T34 443L6 504Q31 526 48 545T73 597Q56 597 37 619T17 668Q17 694 38 718T90 742Z" />
<glyph unicode="&#x201a;" glyph-name="quotesinglbase" horiz-adv-x="176" d="M90 146Q121 146 143 121T166 56Q166 1 129 -60T34 -154L6 -92Q31 -70 48 -51T73 0Q56 0 37 22T17 72Q17 99 38 122T90 146Z" />
<glyph unicode="&#x201c;" glyph-name="quotedblleft" horiz-adv-x="360" d="M85 443Q54 443 32 468T10 533Q10 589 47 650T142 742L171 682Q145 660 128 641T103 589Q120 589 139 567T158 517Q158 491 137 467T85 443ZM270 443Q239 443 217 468T195 533Q195 589
232 650T326 742L356 682Q330 660 313 641T288 589Q304 589 324 567T344 517Q344 491 323 467T270 443Z" />
<glyph unicode="&#x201d;" glyph-name="quotedblright" horiz-adv-x="360" d="M276 742Q307 742 328 718T350 653Q350 597 313 536T219 443L190 504Q215 526 233 545T258 597Q240 597 221 619T202 668Q202 694 223 718T276 742ZM90 742Q121 742 143 718T166 653Q166
597 129 536T34 443L6 504Q31 526 48 545T73 597Q56 597 37 619T17 668Q17 694 38 718T90 742Z" />
<glyph unicode="&#x201e;" glyph-name="quotedblbase" horiz-adv-x="360" d="M276 146Q307 146 328 121T350 56Q350 1 313 -60T219 -154L190 -92Q215 -70 233 -51T258 0Q240 0 221 22T202 72Q202 99 223 122T276 146ZM90 146Q121 146 143 121T166 56Q166 1 129
-60T34 -154L6 -92Q31 -70 48 -51T73 0Q56 0 37 22T17 72Q17 99 38 122T90 146Z" />
<glyph unicode="&#x2022;" glyph-name="bullet" horiz-adv-x="279" d="M139 223Q94 223 63 254T31 330Q31 374 62 406T139 438Q184 438 216 406T248 330Q248 285 216 254T139 223Z" />
<glyph unicode="&#x2039;" glyph-name="guilsinglleft" horiz-adv-x="219" d="M181 83L21 221V269L181 408L204 316L123 245L204 174L181 83Z" />
<glyph unicode="&#x203a;" glyph-name="guilsinglright" horiz-adv-x="219" d="M38 408L198 269V221L38 83L16 174L94 245L16 316L38 408Z" />
</font>
</defs>
</svg>
