<?xml version="1.0" standalone="no"?>
<!DOCTYPE svg PUBLIC "-//W3C//DTD SVG 1.1//EN" "http://www.w3.org/Graphics/SVG/1.1/DTD/svg11.dtd">
<svg xmlns="http://www.w3.org/2000/svg">
<defs >
<font id="SairaExtraCondensed" horiz-adv-x="383" ><font-face
    font-family="Saira ExtraCondensed ExCond"
    units-per-em="1000"
    panose-1="0 0 8 8 0 0 0 0 0 0"
    ascent="1135"
    descent="-439"
    alphabetic="0" />
<glyph unicode=" " glyph-name="space" horiz-adv-x="150" />
<glyph unicode="!" glyph-name="exclam" horiz-adv-x="227" d="M44 551T44 617V688H183V617Q183 581 173 464T149 209H78Q44 551 44 617ZM52 0V121H175V0H52Z" />
<glyph unicode="&quot;" glyph-name="quotedbl" horiz-adv-x="339" d="M53 430L40 632V688H148V632L136 430H53ZM203 430L191 632V688H299V632L286 430H203Z" />
<glyph unicode="#" glyph-name="numbersign" horiz-adv-x="487" d="M249 0L268 184H179L160 0H79L98 184H39V267H105L121 419H56V502H129L148 688H230L211 502H299L319 688H400L381 502H447V419H373L357 267H430V184H350L331 0H249ZM292 419H203L186 267H275L292 419Z" />
<glyph unicode="$" glyph-name="dollar" horiz-adv-x="354" d="M140 72Q82 76 44 87V179Q62 175 90 173T140 171Q178 171 193 182T209 231Q209 259 206 271T197 287T175 294L119 306Q85 314 67 330T42 376T34 459Q34 531 60 568T140 615V696H225V617Q246 616 267
612T299 603V511Q247 520 208 520Q173 519 161 508T148 464Q148 438 150 427T159 411T179 404L236 393Q264 387 282 375T310 332T321 241Q321 164 298 126T225 76V-8H140V72Z" />
<glyph unicode="%" glyph-name="percent" horiz-adv-x="652" d="M106 312T82 328T50 383T42 503Q42 584 49 623T81 679T158 696Q210 696 234 679T266 623T274 503Q274 422 267 384T235 329T158 312Q106 312 82 328ZM131 0L452 688H521L201 0H131ZM174 377T180
383T189 415T191 503Q191 567 189 592T181 624T158 631Q142 631 136 624T127 592T124 503Q124 441 126 416T135 384T158 377Q174 377 180 383ZM443 -8T419 8T387 63T379 183Q379 264 386 303T418 359T495 376Q547 376 571 359T603 303T611 183Q611 102 604 64T572
9T495 -8Q443 -8 419 8ZM511 57T517 63T526 95T528 183Q528 247 526 272T518 304T495 311Q479 311 473 304T464 272T462 183Q462 120 464 95T472 64T495 57Q511 57 517 63Z" />
<glyph unicode="&amp;" glyph-name="ampersand" horiz-adv-x="461" d="M448 397V298H384V9Q349 2 304 -3T223 -8Q153 -8 113 10T54 70T35 181Q35 263 55 299T121 349V353Q80 366 60 405T40 519Q40 618 85 657T231 696Q264 696 306 691T384 679V590Q328 597 268
597Q215 597 193 590T163 563T155 497Q155 440 165 419T212 397H232V298H212Q186 298 173 290T154 259T148 193Q148 146 156 125T183 98T246 91Q262 91 271 92V397H448Z" />
<glyph unicode="&apos;" glyph-name="quotesingle" horiz-adv-x="188" d="M53 430L40 632V688H148V632L136 430H53Z" />
<glyph unicode="(" glyph-name="parenleft" horiz-adv-x="257" d="M99 -70T81 -23T53 96T44 297Q44 425 53 499T82 621T142 743H238Q205 678 190 637T167 517T158 297Q158 155 166 77T190 -42T238 -150H142Q99 -70 81 -23Z" />
<glyph unicode=")" glyph-name="parenright" horiz-adv-x="257" d="M52 -84T66 -43T89 77T98 297Q98 439 90 517T67 636T19 743H115Q156 670 175 622T203 499T213 297Q213 169 204 97T176 -22T115 -150H19Q52 -84 66 -43Z" />
<glyph unicode="*" glyph-name="asterisk" horiz-adv-x="390" d="M221 488L231 379H160L169 488L77 424L42 486L141 533L42 580L77 642L169 579L160 688H231L221 579L313 643L348 580L248 533L349 486L313 424L221 488Z" />
<glyph unicode="+" glyph-name="plus" horiz-adv-x="447" d="M174 82V203H52V303H174V425H273V303H394V203H273V82H174Z" />
<glyph unicode="," glyph-name="comma" horiz-adv-x="218" d="M63 -91T73 -84T86 -62T89 -15V0H46V121H171V32Q171 -42 162 -78T126 -131T42 -147V-91Q63 -91 73 -84Z" />
<glyph unicode="-" glyph-name="hyphen" horiz-adv-x="270" d="M48 233V337H222V233H48Z" />
<glyph unicode="." glyph-name="period" horiz-adv-x="218" d="M47 0V121H171V0H47Z" />
<glyph unicode="/" glyph-name="slash" horiz-adv-x="290" d="M21 -55L168 743H269L123 -55H21Z" />
<glyph unicode="0" glyph-name="zero" horiz-adv-x="400" d="M119 -8T85 22T41 119T32 344Q32 501 41 568T84 666T200 696Q282 696 316 666T359 569T368 344Q368 187 359 120T316 22T200 -8Q119 -8 85 22ZM226 101T235 113T248 172T251 344Q251 469 248 516T236
575T200 587Q174 587 165 575T152 517T149 344Q149 217 152 171T164 113T200 101Q226 101 235 113Z" />
<glyph unicode="1" glyph-name="one" horiz-adv-x="267" d="M101 0V546L16 510V624L129 688H222V0H101Z" />
<glyph unicode="2" glyph-name="two" horiz-adv-x="378" d="M149 109H349V0H29V82Q29 183 32 225T47 293T91 339L184 400Q202 412 211 421T224 448T229 497Q229 539 223 557T202 581T151 587Q110 587 36 580V681Q62 688 103 692T183 696Q237 696 271 685T327 632T349
506Q349 445 340 409T315 354T276 319L179 255Q169 249 164 244T155 229Q151 218 150 192T149 128V109Z" />
<glyph unicode="3" glyph-name="three" horiz-adv-x="362" d="M128 -8T87 -3T15 9V108Q89 101 129 101Q165 101 182 107T206 132T214 193Q214 236 208 257T189 286T149 294H67V402H149Q172 402 184 409T202 436T208 497Q208 539 202 557T179 581T124 587Q79 587
16 580V680Q49 687 89 691T161 696Q220 696 256 681T310 626T329 519Q329 444 310 405T250 353V349Q294 337 314 300T335 181Q335 111 318 70T263 11T161 -8Q128 -8 87 -3Z" />
<glyph unicode="4" glyph-name="four" horiz-adv-x="393" d="M212 0V140H16V234L118 688H241L130 249H213L243 439H332V249H380V140H332V0H212Z" />
<glyph unicode="5" glyph-name="five" horiz-adv-x="378" d="M106 101T144 101Q186 101 204 108T228 138T235 212Q235 266 229 287T205 316T142 323Q94 323 41 315V688H333V579H153V425Q176 432 212 432Q269 432 300 408T343 340T355 225Q355 135 341 86T290 14T183
-8Q150 -8 109 -3T38 9V108Q106 101 144 101Z" />
<glyph unicode="6" glyph-name="six" horiz-adv-x="392" d="M154 -8T125 1T76 37T44 116Q32 169 32 343Q32 518 52 579Q73 644 112 670T224 696Q251 696 286 691T349 677V577Q296 587 246 587Q199 587 180 573T155 520T149 384H158Q165 404 187 418T246 433Q291
433 316 420T354 363T367 230Q367 136 354 86T306 14T203 -8Q154 -8 125 1ZM224 100T234 106T248 136T252 212Q252 267 248 289T235 318T201 324Q177 324 167 317T154 290T150 222Q150 165 154 140T168 108T201 100Q224 100 234 106Z" />
<glyph unicode="7" glyph-name="seven" horiz-adv-x="352" d="M50 0L217 579H17V688H341V592L174 0H50Z" />
<glyph unicode="8" glyph-name="eight" horiz-adv-x="404" d="M137 -8T100 10T45 69T28 181Q28 264 48 300T112 349V353Q72 365 53 404T34 519Q34 588 52 626T106 680T202 696Q262 696 298 681T352 627T370 519Q370 443 351 404T292 353V349Q337 336 357 300T377
181Q377 110 360 69T305 10T202 -8Q137 -8 100 10ZM226 398T236 404T249 430T253 494Q253 540 250 559T236 585T202 592Q178 592 168 586T155 560T151 494Q151 449 154 430T168 405T202 398Q226 398 236 404ZM225 96T236 103T251 130T255 196Q255 243 252 264T237
291T202 298Q178 298 167 292T153 264T149 196Q149 151 153 131T168 103T202 96Q225 96 236 103Z" />
<glyph unicode="9" glyph-name="nine" horiz-adv-x="392" d="M140 -8T105 -3T43 11V111Q95 101 146 101Q193 101 212 115T237 168T243 304H235Q226 282 204 269T146 255Q101 255 76 268T38 325T25 458Q25 552 38 602T86 674T189 696Q237 696 266 688T315 655T345
585Q360 517 360 345Q360 256 355 198T338 103Q319 43 279 18T168 -8Q140 -8 105 -3ZM215 364T225 371T238 398T242 466Q242 523 238 548T224 580T191 588Q168 588 158 582T144 552T140 476Q140 421 144 399T157 370T191 364Q215 364 225 371Z" />
<glyph unicode=":" glyph-name="colon" horiz-adv-x="218" d="M47 389V510H171V389H47ZM47 0V121H171V0H47Z" />
<glyph unicode=";" glyph-name="semicolon" horiz-adv-x="218" d="M47 389V510H171V389H47ZM63 -91T73 -84T86 -62T89 -15V0H46V121H171V32Q171 -42 162 -78T126 -131T42 -147V-91Q63 -91 73 -84Z" />
<glyph unicode="&lt;" glyph-name="less" horiz-adv-x="448" d="M395 75L53 202V304L395 432V330L175 253L395 176V75Z" />
<glyph unicode="=" glyph-name="equal" horiz-adv-x="447" d="M52 289V389H394V289H52ZM52 117V217H394V117H52Z" />
<glyph unicode="&gt;" glyph-name="greater" horiz-adv-x="448" d="M52 75V176L273 253L52 330V432L395 304V202L52 75Z" />
<glyph unicode="?" glyph-name="question" horiz-adv-x="335" d="M79 301Q79 348 87 368T120 405L133 415Q154 430 164 441T178 468T182 514Q182 559 166 573T106 587Q83 587 27 580V681Q55 688 90 692T153 696Q224 696 263 661T302 541Q302 467 291 433T242 368L229
358Q205 339 197 329T186 306T183 264V209H79V301ZM69 0V121H192V0H69Z" />
<glyph unicode="@" glyph-name="at" horiz-adv-x="602" d="M173 -108T123 -82T60 20T47 294Q47 493 60 568T123 669T303 696Q433 696 483 670T546 568T559 294Q559 188 550 143T521 86T459 75H340L336 127H330Q324 97 305 83T260 68Q213 68 194 99T175 200Q175
274 196 303T271 333L311 331L334 329V353Q334 393 331 408T315 429T272 434Q238 434 193 428V507Q250 518 301 518Q353 518 380 502T418 449T429 345V129H463Q482 129 489 137T500 178T503 294Q503 448 498 510T473 602T404 638Q379 642 303 642Q242 642 214 640Q159
635 137 609T109 519T104 294Q104 129 110 66T141 -23T232 -53Q249 -54 303 -54Q402 -54 429 -51V-106Q407 -108 303 -108Q173 -108 123 -82ZM312 156T320 163T331 187T334 239V265H296Q278 265 272 255T266 208Q266 178 271 167T296 156Q312 156 320 163Z" />
<glyph unicode="A" glyph-name="A" horiz-adv-x="422" d="M292 0L269 151H151L128 0H9L122 688H300L414 0H292ZM213 564H207L163 257H257L213 564Z" />
<glyph unicode="B" glyph-name="B" horiz-adv-x="410" d="M43 688H231Q306 688 342 646T379 515Q379 442 359 404T296 353V349Q344 337 364 300T385 184Q385 93 349 47T230 0H43V688ZM238 401T250 419T263 490Q263 529 259 547T242 572T205 579H162V401H205Q238
401 250 419ZM232 109T244 116T260 142T264 202Q264 242 259 261T242 288T206 295H162V109H206Q232 109 244 116Z" />
<glyph unicode="C" glyph-name="C" horiz-adv-x="323" d="M285 1T259 -3T209 -8Q130 -8 93 22T44 124T32 344Q32 490 44 562T94 665T209 696Q236 696 261 692T300 681V580Q261 587 231 587Q192 587 177 573T157 511T152 344Q152 224 156 177T176 116T231 101Q269
101 302 108V8Q285 1 259 -3Z" />
<glyph unicode="D" glyph-name="D" horiz-adv-x="416" d="M43 688H204Q291 688 328 659T374 564T384 344Q384 191 375 125T328 30T204 0H43V688ZM204 109Q235 109 246 120T261 178T265 344Q265 464 261 510T246 567T204 579H162V109H204Z" />
<glyph unicode="E" glyph-name="E" horiz-adv-x="345" d="M43 0V688H317V579H164V402H298V293H164V109H317V0H43Z" />
<glyph unicode="F" glyph-name="F" horiz-adv-x="321" d="M43 0V688H304V579H164V388H288V279H164V0H43Z" />
<glyph unicode="G" glyph-name="G" horiz-adv-x="408" d="M212 288V394H372V13Q343 3 301 -2T220 -8Q140 -8 101 20T47 121T32 344Q32 493 48 566T106 668T232 696Q264 696 303 691T371 677V576Q300 587 265 587Q209 587 188 575T159 515T151 344Q151 227 155
179T174 115T223 98Q248 98 264 102V288H212Z" />
<glyph unicode="H" glyph-name="H" horiz-adv-x="436" d="M272 0V290H164V0H43V688H164V404H272V688H393V0H272Z" />
<glyph unicode="I" glyph-name="I" horiz-adv-x="210" d="M45 0V688H165V0H45Z" />
<glyph unicode="J" glyph-name="J" horiz-adv-x="245" d="M47 104T62 111T81 143T86 236V688H206V298Q206 145 195 89T147 17T6 0V103Q47 104 62 111Z" />
<glyph unicode="K" glyph-name="K" horiz-adv-x="410" d="M278 0L198 291H164V0H43V688H164V406H198L280 688H403L292 356L404 0H278Z" />
<glyph unicode="L" glyph-name="L" horiz-adv-x="311" d="M43 0V688H164V111H302V0H43Z" />
<glyph unicode="M" glyph-name="M" horiz-adv-x="611" d="M451 0V532H444L364 0H243L165 532H157V0H43V688H230L304 181H311L385 688H567V0H451Z" />
<glyph unicode="N" glyph-name="N" horiz-adv-x="439" d="M289 0L162 388H158V0H43V688H157L276 327H282V688H396V0H289Z" />
<glyph unicode="O" glyph-name="O" horiz-adv-x="423" d="M124 -8T88 22T42 119T32 344Q32 501 41 568T87 666T211 696Q298 696 335 666T381 569T391 344Q391 187 382 120T335 22T211 -8Q124 -8 88 22ZM241 101T252 113T266 172T270 344Q270 469 267 516T252 575T211
587Q181 587 171 575T156 516T152 344Q152 220 156 173T170 113T211 101Q241 101 252 113Z" />
<glyph unicode="P" glyph-name="P" horiz-adv-x="401" d="M43 688H228Q295 688 329 662T374 588T385 457Q385 378 375 330T330 253T228 225H164V0H43V688ZM208 334Q234 334 245 343T260 377T264 457Q264 513 261 537T246 570T208 579H164V334H208Z" />
<glyph unicode="Q" glyph-name="Q" horiz-adv-x="423" d="M245 -5Q230 -8 211 -8Q124 -8 88 22T42 119T32 344Q32 501 41 568T87 666T211 696Q298 696 335 666T381 569T391 344Q391 200 383 134T345 34L426 -110V-115H302L245 -5ZM241 101T252 113T266 172T270
344Q270 469 267 516T252 575T211 587Q181 587 171 575T156 516T152 344Q152 220 156 173T170 113T211 101Q241 101 252 113Z" />
<glyph unicode="R" glyph-name="R" horiz-adv-x="419" d="M279 0L221 245H219H164V0H43V688H232Q299 688 332 663T377 592T388 467Q388 389 377 343T330 272L403 0H279ZM238 351T249 359T264 391T268 465Q268 516 265 539T250 570T212 579H164V351H212Q238 351 249 359Z" />
<glyph unicode="S" glyph-name="S" horiz-adv-x="368" d="M144 -8T103 -4T33 9V108Q106 101 146 101Q174 101 189 104T213 118Q227 135 227 192Q227 236 224 254T209 280T169 295L89 312Q51 320 37 364T23 492Q23 573 43 617T100 679T197 696Q242 696 278 690T325
680V580Q315 582 289 584T232 587Q200 587 183 583T157 568Q149 558 147 542T144 496Q144 461 146 446T157 423T183 412L252 396Q283 390 303 375T336 323Q347 287 347 213Q347 122 329 74T275 9T179 -8Q144 -8 103 -4Z" />
<glyph unicode="T" glyph-name="T" horiz-adv-x="349" d="M114 0V577H7V688H342V577H235V0H114Z" />
<glyph unicode="U" glyph-name="U" horiz-adv-x="426" d="M387 688V303Q387 166 378 107T333 20T213 -8Q129 -8 93 19T48 106T39 303V688H159V256Q159 179 162 150T175 111T213 101Q240 101 250 110T264 149T267 256V688H387Z" />
<glyph unicode="V" glyph-name="V" horiz-adv-x="404" d="M113 0L8 688H130L200 130H209L277 688H396L291 0H113Z" />
<glyph unicode="W" glyph-name="W" horiz-adv-x="643" d="M384 0L324 502H318L259 0H91L13 688H135L179 131H186L250 688H397L463 131H470L512 688H630L552 0H384Z" />
<glyph unicode="X" glyph-name="X" horiz-adv-x="421" d="M285 0L213 261H205L132 0H9L123 346L11 688H137L208 437H215L287 688H410L298 350L412 0H285Z" />
<glyph unicode="Y" glyph-name="Y" horiz-adv-x="387" d="M133 0V246L-1 688H120L192 381H202L271 688H388L254 246V0H133Z" />
<glyph unicode="Z" glyph-name="Z" horiz-adv-x="362" d="M24 0V102L207 579H29V688H336V587L152 109H337V0H24Z" />
<glyph unicode="[" glyph-name="bracketleft" horiz-adv-x="261" d="M45 -150V743H233V669L157 665V-71L233 -75V-150H45Z" />
<glyph unicode="\" glyph-name="backslash" horiz-adv-x="290" d="M168 -55L21 743H123L269 -55H168Z" />
<glyph unicode="]" glyph-name="bracketright" horiz-adv-x="261" d="M28 -150V-75L104 -71V665L28 669V743H217V-150H28Z" />
<glyph unicode="^" glyph-name="asciicircum" horiz-adv-x="374" d="M257 489L187 660L116 489H15L136 750H237L358 489H257Z" />
<glyph unicode="_" glyph-name="underscore" horiz-adv-x="343" d="M0 -184V-86H343V-184H0Z" />
<glyph unicode="`" glyph-name="grave" horiz-adv-x="147" d="M55 598L0 738V743H111L147 603V598H55Z" />
<glyph unicode="a" glyph-name="a" horiz-adv-x="370" d="M66 -8T43 28T20 147Q20 205 31 238T67 286T139 301Q176 301 220 297V325Q220 372 215 391T194 416T139 422Q95 422 41 415V505Q102 518 174 518Q238 518 272 500T319 438T333 316V0H226L222 62H215Q207
26 183 9T126 -8Q66 -8 43 28ZM187 94T198 99T214 120Q220 146 220 192V223H170Q145 223 137 210T128 156Q128 120 135 107T169 94Q187 94 198 99Z" />
<glyph unicode="b" glyph-name="b" horiz-adv-x="390" d="M214 -8T190 7T158 61H150L146 0H39V743H152V454H160Q176 518 248 518Q295 518 319 495T352 416T361 255Q361 147 351 92T317 14T246 -8Q214 -8 190 7ZM224 94T233 103T245 143T248 255Q248 336 245 367T233
407T200 416Q182 416 172 408T158 380Q152 352 152 255Q152 215 153 183T157 133Q161 111 171 103T200 94Q224 94 233 103Z" />
<glyph unicode="c" glyph-name="c" horiz-adv-x="294" d="M228 -8T178 -8Q114 -8 82 19T40 101T29 255Q29 357 41 412T84 493T177 518Q234 518 271 506V416Q233 422 210 422Q178 422 165 412T147 368T142 255Q142 175 147 142T165 98T211 88Q234 88 274 94V5Q228
-8 178 -8Z" />
<glyph unicode="d" glyph-name="d" horiz-adv-x="390" d="M98 -8T74 14T39 91T29 255Q29 360 38 415T71 494T142 518Q179 518 200 502T231 454H238V743H351V0H244L240 61H233Q224 23 200 8T144 -8Q98 -8 74 14ZM210 94T220 103T234 136Q238 167 238 259Q238 344
234 368Q230 397 220 406T189 416Q166 416 157 407T145 367T142 255Q142 175 145 144T157 103T190 94Q210 94 220 103Z" />
<glyph unicode="e" glyph-name="e" horiz-adv-x="370" d="M341 221H142Q142 157 146 132T166 97T221 88Q256 88 331 95V6Q308 0 270 -4T196 -8Q119 -8 84 18T39 96T29 254Q29 359 38 411T82 491T191 518Q263 518 294 493T333 418T341 255V221ZM168 422T159 415T146
382T142 299H235V304Q235 360 232 383T220 414T190 422Q168 422 159 415Z" />
<glyph unicode="f" glyph-name="f" horiz-adv-x="264" d="M64 414H13V510H64V548Q64 641 78 680T127 731T247 743V658Q214 658 201 653T182 632T177 577V510H247V414H177V0H64V414Z" />
<glyph unicode="g" glyph-name="g" horiz-adv-x="390" d="M109 -203T53 -195V-106Q85 -107 155 -107Q195 -107 212 -98T233 -62T238 28V66H231Q222 34 201 18T142 2Q95 2 72 25T39 103T29 261Q29 366 39 420T73 496T144 518Q176 518 200 503T233 449H240L244 510H351V63Q351
-42 341 -95T295 -175T181 -203Q109 -203 53 -195ZM210 104T219 112T233 144Q236 160 237 190T238 261Q238 346 234 368Q230 396 220 406T190 416Q167 416 158 408T145 369T142 261Q142 183 145 152T157 113T190 104Q210 104 219 112Z" />
<glyph unicode="h" glyph-name="h" horiz-adv-x="392" d="M243 285Q243 350 241 375T230 408T199 416Q175 416 166 403T154 361T152 256V0H39V743H152V452H160Q179 518 256 518Q299 518 320 501T348 446T356 339V0H243V285Z" />
<glyph unicode="i" glyph-name="i" horiz-adv-x="191" d="M38 630V743H153V630H38ZM39 0V510H152V0H39Z" />
<glyph unicode="j" glyph-name="j" horiz-adv-x="191" d="M38 630V743H153V630H38ZM-12 -109Q12 -109 23 -104T36 -89T39 -57V510H152V-2Q152 -92 138 -132T92 -184T-12 -196V-109Z" />
<glyph unicode="k" glyph-name="k" horiz-adv-x="370" d="M247 0L180 206H152V0H39V743H152V303H180L249 510H362L274 267L364 0H247Z" />
<glyph unicode="l" glyph-name="l" horiz-adv-x="191" d="M39 0V743H152V0H39Z" />
<glyph unicode="m" glyph-name="m" horiz-adv-x="591" d="M441 285Q441 351 439 376T428 408T399 416Q376 416 367 404T355 362T353 256V0H240V285Q240 350 238 375T227 408T198 416Q175 416 166 403T154 361T152 256V0H39V510H146L150 448H158Q170 484 193 501T256
518Q297 518 318 501T347 448H355Q368 485 392 501T454 518Q495 518 516 501T546 447T554 345V0H441V285Z" />
<glyph unicode="n" glyph-name="n" horiz-adv-x="392" d="M243 285Q243 350 241 375T230 408T199 416Q175 416 166 403T154 361T152 256V0H39V510H146L150 448H158Q178 518 256 518Q299 518 320 501T348 446T356 339V0H243V285Z" />
<glyph unicode="o" glyph-name="o" horiz-adv-x="381" d="M116 -8T83 13T39 87T29 255Q29 369 39 421T82 496T190 518Q265 518 298 496T342 422T352 255Q352 140 342 88T299 14T190 -8Q116 -8 83 13ZM215 88T224 98T236 139T239 255Q239 339 237 370T225 412T190
422Q166 422 157 412T145 371T142 255Q142 171 144 140T156 98T190 88Q215 88 224 98Z" />
<glyph unicode="p" glyph-name="p" horiz-adv-x="390" d="M39 510H146L150 449H158Q166 487 190 502T246 518Q292 518 316 496T351 419T361 255Q361 150 352 95T319 16T248 -8Q176 -8 160 56H152V-196H39V510ZM224 94T233 103T245 143T248 255Q248 336 245 367T233
407T200 416Q181 416 171 408T156 375Q153 359 153 328T152 255Q152 164 156 141Q161 113 171 104T200 94Q224 94 233 103Z" />
<glyph unicode="q" glyph-name="q" horiz-adv-x="390" d="M238 56H231Q222 24 201 8T142 -8Q95 -8 72 15T39 94T29 255Q29 363 39 418T73 496T144 518Q176 518 200 503T233 449H240L244 510H351V-196H238V56ZM208 94T218 102T234 134Q238 161 238 255Q238 295
237 327T233 378Q229 400 220 408T190 416Q166 416 157 407T145 367T142 255Q142 175 145 144T157 103T190 94Q208 94 218 102Z" />
<glyph unicode="r" glyph-name="r" horiz-adv-x="271" d="M39 510H146L150 425H158Q171 478 195 498T260 518V397Q204 397 178 365T152 248V0H39V510Z" />
<glyph unicode="s" glyph-name="s" horiz-adv-x="317" d="M125 -8T89 -4T29 8V96Q79 88 124 88Q160 88 174 100T189 146Q189 172 187 183T177 199T153 207L82 221Q48 227 34 259T19 364Q19 446 56 482T166 518Q196 518 227 514T278 502V413Q231 422 188 422Q157
422 145 411T132 368Q132 343 134 333T142 318T162 311L223 299Q247 295 263 284T289 242T300 156Q300 65 265 29T156 -8Q125 -8 89 -4Z" />
<glyph unicode="t" glyph-name="t" horiz-adv-x="258" d="M64 0V414H13V510H64V658H177V510H246V414H177V0H64Z" />
<glyph unicode="u" glyph-name="u" horiz-adv-x="392" d="M242 62H235Q215 -8 137 -8Q94 -8 73 9T44 64T36 171V510H149V225Q149 161 152 135T163 102T194 94Q217 94 226 107T238 149T240 254V510H353V0H246L242 62Z" />
<glyph unicode="v" glyph-name="v" horiz-adv-x="361" d="M103 0L7 510H120L179 132H187L242 510H354L258 0H103Z" />
<glyph unicode="w" glyph-name="w" horiz-adv-x="557" d="M329 0L283 299H276L230 0H89L8 510H120L162 147H169L225 510H337L394 147H401L443 510H549L468 0H329Z" />
<glyph unicode="x" glyph-name="x" horiz-adv-x="367" d="M243 0L186 175H178L121 0H7L107 256L10 510H128L183 346H190L244 510H357L261 260L360 0H243Z" />
<glyph unicode="y" glyph-name="y" horiz-adv-x="392" d="M111 -203T58 -195V-105Q118 -107 158 -107Q198 -107 214 -97T235 -62T240 27V70H233Q213 2 136 2Q93 2 72 20T44 75T36 182V510H149V234Q149 170 152 145T163 112T194 104Q217 104 226 117T238 159T240
264V510H353V62Q353 -42 343 -95T297 -175T184 -203Q111 -203 58 -195Z" />
<glyph unicode="z" glyph-name="z" horiz-adv-x="335" d="M26 0V89L182 414H31V510H309V421L152 96H310V0H26Z" />
<glyph unicode="{" glyph-name="braceleft" horiz-adv-x="286" d="M147 -126T119 -77T90 26V153Q90 203 75 233T20 270V322Q60 328 75 359T90 440V567Q90 620 118 669T191 743H264Q228 700 215 662T202 555V446Q202 323 112 300V293Q202 271 202 147V38Q202 -30
215 -68T264 -150H191Q147 -126 119 -77Z" />
<glyph unicode="|" glyph-name="bar" horiz-adv-x="211" d="M52 -161V743H159V-161H52Z" />
<glyph unicode="}" glyph-name="braceright" horiz-adv-x="286" d="M58 -107T71 -69T84 38V147Q84 271 175 293V300Q84 322 84 446V555Q84 623 71 661T22 743H95Q139 719 167 670T196 567V440Q196 390 211 359T266 322V270Q226 264 211 234T196 153V26Q196 -27
168 -76T95 -150H22Q58 -107 71 -69Z" />
<glyph unicode="~" glyph-name="asciitilde" horiz-adv-x="439" d="M386 323T382 299T361 261T306 247Q276 247 244 254T206 263Q198 265 177 270T144 276Q130 276 126 268T122 236H52Q52 283 56 308T78 346T133 360Q155 360 182 355T233 344Q238 343 259 338T294
332Q309 332 313 340T317 371H386Q386 323 382 299Z" />
<glyph unicode="&#xa0;" glyph-name="uni00A0" horiz-adv-x="150" />
<glyph unicode="&#xa1;" glyph-name="exclamdown" horiz-adv-x="227" d="M52 389V510H175V389H52ZM44 -107Q44 -71 54 46T78 301H149Q163 164 173 47T183 -107V-178H44V-107Z" />
<glyph unicode="&#xa2;" glyph-name="cent" horiz-adv-x="311" d="M142 72Q96 81 73 112T41 197T33 342Q33 435 42 489T74 574T142 612V696H226V615Q266 609 280 604V511Q232 516 218 516Q185 516 171 505T152 459T147 343Q147 260 152 225T171 179T218 168Q235
168 283 174V82Q262 75 226 70V-8H142V72Z" />
<glyph unicode="&#xa3;" glyph-name="sterling" horiz-adv-x="368" d="M335 109V0H28V109H78V301H28V410H78V450Q78 542 89 593T135 670T236 696Q260 696 287 693T331 684V580Q299 587 265 587Q233 587 220 575Q207 563 203 536T198 452V410H297V301H198V109H335Z" />
<glyph unicode="&#xa4;" glyph-name="currency" horiz-adv-x="500" d="M29 77L105 154Q95 181 92 224T88 346Q88 422 91 465T104 537L29 612L100 683L177 605Q201 614 249 614Q295 614 323 605L401 683L471 612L394 535Q404 507 407 463T411 346Q411 273 408 228T395
155L471 78L401 7L324 84Q294 75 249 75Q204 75 176 84L100 7L29 77ZM274 172T283 182T295 226T298 346Q298 431 295 464T283 507T249 517Q225 517 216 507T204 465T201 346Q201 258 203 225T215 182T249 172Q274 172 283 182Z" />
<glyph unicode="&#xa5;" glyph-name="yen" horiz-adv-x="448" d="M164 0V220H44V285H153L124 373H44V438H105L29 688H150L223 381H232L301 688H418L343 438H404V373H323L294 285H404V220H284V0H164Z" />
<glyph unicode="&#xa6;" glyph-name="brokenbar" horiz-adv-x="211" d="M52 390V743H159V390H52ZM52 -161V192H159V-161H52Z" />
<glyph unicode="&#xa7;" glyph-name="section" horiz-adv-x="425" d="M163 -170T129 -165T73 -152V-53Q127 -61 176 -61Q211 -61 224 -49T238 -2Q238 21 236 31T228 47T208 59L139 92Q105 108 84 122T46 170T29 257Q29 327 47 363T103 412Q85 431 78 457T70 525Q70
617 110 656T231 696Q267 696 300 691T352 678V579Q333 583 304 585T250 588Q214 588 201 576T188 528Q188 497 193 487T214 469L280 438Q318 420 339 405T378 357T396 269Q396 199 378 162T322 113Q339 96 347 70T355 1Q355 -90 315 -130T194 -170Q163 -170 129
-165ZM264 169T271 190T278 250Q278 305 260 316L189 351Q177 357 173 357Q161 357 154 336T147 276Q147 247 152 231T170 209L238 174Q248 169 252 169Q264 169 271 190Z" />
<glyph unicode="&#xa8;" glyph-name="dieresis" horiz-adv-x="279" d="M7 633V730H106V633H7ZM172 633V730H271V633H172Z" />
<glyph unicode="&#xa9;" glyph-name="copyright" horiz-adv-x="511" d="M152 -8T112 15T61 104T50 344Q50 517 60 583T111 673T256 696Q359 696 399 673T450 584T461 344Q461 171 451 105T400 15T256 -8Q152 -8 112 15ZM341 36T370 51T408 124T416 344Q416 507
408 564T371 636T256 652Q171 652 142 637T104 564T96 344Q96 181 104 124T141 52T256 36Q341 36 370 51ZM229 156T210 172T184 227T177 344Q177 422 183 460T209 515T270 532Q305 532 319 524V468Q289 471 282 471Q262 471 255 464T245 432T243 344Q243 280 245
256T254 225T282 217Q293 217 320 220V165Q297 156 270 156Q229 156 210 172Z" />
<glyph unicode="&#xaa;" glyph-name="ordfeminine" horiz-adv-x="293" d="M58 306T41 333T23 421Q23 485 42 510T112 536Q145 536 170 533V553Q170 587 167 600T152 618T112 622Q87 622 39 617V686Q91 696 138 696Q186 696 211 682T246 636T257 546V312H175L171
355H165Q158 331 141 319T102 306Q58 306 41 333ZM147 385T154 389T166 406Q170 416 170 455V476H135Q117 476 111 467T105 428Q105 403 110 394T135 385Q147 385 154 389Z" />
<glyph unicode="&#xab;" glyph-name="guillemotleft" horiz-adv-x="369" d="M104 125L34 317L104 510H186L132 317L186 125H104ZM248 125L178 317L248 510H331L277 317L331 125H248Z" />
<glyph unicode="&#xac;" glyph-name="logicalnot" horiz-adv-x="447" d="M294 74V195H52V296H395V74H294Z" />
<glyph unicode="&#xad;" glyph-name="uni00AD" horiz-adv-x="270" d="M48 233V337H222V233H48Z" />
<glyph unicode="&#xae;" glyph-name="registered" horiz-adv-x="511" d="M359 696T399 673T450 584T461 344Q461 171 451 105T400 15T256 -8Q152 -8 112 15T61 104T50 344Q50 517 60 583T111 673T256 696Q359 696 399 673ZM341 36T370 51T408 124T416 344Q416
507 408 564T371 636T256 652Q171 652 142 637T104 564T96 344Q96 181 104 124T141 52T256 36Q341 36 370 51ZM349 368T343 343T319 304L357 160H288L258 290H233V160H167V528H266Q302 528 320 515T343 477T349 409Q349 368 343 343ZM268 349T273 353T281 369T283
408Q283 434 281 445T274 461T255 466H233V349H255Q268 349 273 353Z" />
<glyph unicode="&#xaf;" glyph-name="overscore" horiz-adv-x="270" d="M48 639V743H222V639H48Z" />
<glyph unicode="&#xb0;" glyph-name="degree" horiz-adv-x="287" d="M90 397T67 411T38 454T32 547Q32 610 37 639T66 682T144 696Q198 696 221 682T250 639T256 547Q256 483 251 455T222 412T144 397Q90 397 67 411ZM162 459T169 465T178 488T180 547Q180 590
179 605T170 627T144 634Q126 634 119 628T110 606T108 547Q108 504 109 488T118 466T144 459Q162 459 169 465Z" />
<glyph unicode="&#xb1;" glyph-name="plusminus" horiz-adv-x="447" d="M174 200V321H52V421H174V543H273V421H394V321H273V200H174ZM52 42V143H394V42H52Z" />
<glyph unicode="&#xb2;" glyph-name="uni00B2" horiz-adv-x="267" d="M116 384H226V315H41V363Q41 414 43 438T51 476T73 501Q95 516 110 525L130 538Q142 546 146 555T151 584Q151 612 144 619T112 627Q100 627 43 622V687Q90 696 130 696Q162 696 181 690T213
660T226 589Q226 541 216 520T183 485L131 451Q121 444 119 436T116 394V384Z" />
<glyph unicode="&#xb3;" glyph-name="uni00B3" horiz-adv-x="267" d="M92 307T42 317V381Q97 376 109 376Q133 376 140 384T148 420Q148 451 142 460T119 470H70V537H119Q135 537 140 546T146 585Q146 613 139 620T106 627Q78 627 43 622V687Q88 696 126 696Q177
696 200 675T223 596Q223 559 213 538T180 507V503Q203 494 214 474T226 413Q226 355 204 331T126 307Q92 307 42 317Z" />
<glyph unicode="&#xb4;" glyph-name="acute" horiz-adv-x="147" d="M0 598V603L36 743H147V738L92 598H0Z" />
<glyph unicode="&#xb5;" glyph-name="uni00B5" horiz-adv-x="395" d="M356 510V0H249L245 62H237Q228 29 210 14T160 -2H152V-189H39V510H152V225Q152 160 154 135T165 102T196 94Q220 94 229 107T241 149T243 254V510H356Z" />
<glyph unicode="&#xb6;" glyph-name="paragraph" horiz-adv-x="413" d="M128 222Q79 222 58 238T30 300T22 454Q22 561 29 608T58 671T128 688H221V-144H128V222ZM267 -144V688H361V-144H267Z" />
<glyph unicode="&#xb7;" glyph-name="middot" horiz-adv-x="218" d="M47 238V359H171V238H47Z" />
<glyph unicode="&#xb8;" glyph-name="cedilla" horiz-adv-x="141" d="M4 -189V-184L65 8H137V3L101 -189H4Z" />
<glyph unicode="&#xb9;" glyph-name="uni00B9" horiz-adv-x="207" d="M87 315V598L41 577V650L107 688H163V315H87Z" />
<glyph unicode="&#xba;" glyph-name="ordmasculine" horiz-adv-x="300" d="M94 307T69 323T37 378T29 501Q29 586 36 625T69 680T150 696Q206 696 231 680T263 625T271 501Q271 417 264 378T231 323T150 307Q94 307 69 323ZM168 381T174 388T182 417T184 501Q184
563 183 585T175 615T150 622Q133 622 127 615T118 585T116 501Q116 441 118 418T126 388T150 381Q168 381 174 388Z" />
<glyph unicode="&#xbb;" glyph-name="guillemotright" horiz-adv-x="369" d="M38 125L92 317L38 510H121L191 317L121 125H38ZM182 125L236 317L182 510H265L335 317L265 125H182Z" />
<glyph unicode="&#xbc;" glyph-name="onequarter" horiz-adv-x="555" d="M86 315V598L40 577V650L105 688H162V315H86ZM73 0L371 688H442L144 0H73ZM416 0V74H306V130L364 373H441L376 143H418L440 246H492V143H517V74H492V0H416Z" />
<glyph unicode="&#xbd;" glyph-name="onehalf" horiz-adv-x="576" d="M86 315V598L40 577V650L105 688H162V315H86ZM371 688H442L144 0H73L371 688ZM425 69H535V0H350V47Q350 100 351 123T360 161T382 186L439 223Q451 231 455 240T460 269Q460 297 453 304T421
312Q409 312 352 307V371Q397 381 439 381Q470 381 490 375T522 345T535 274Q535 225 524 204T492 170Q441 136 441 136Q429 128 427 118T425 79V69Z" />
<glyph unicode="&#xbe;" glyph-name="threequarters" horiz-adv-x="598" d="M97 376T109 376Q133 376 140 384T148 420Q148 451 142 460T119 470H70V537H119Q135 537 140 546T146 585Q146 613 139 620T106 627Q78 627 43 622V687Q88 696 126 696Q177 696 200 675T223
596Q223 559 213 538T180 507V503Q203 494 214 474T226 413Q226 355 204 331T126 307Q92 307 42 317V381Q97 376 109 376ZM116 0L414 688H485L187 0H116ZM456 0V74H347V130L405 373H482L417 143H459L481 246H533V143H558V74H533V0H456Z" />
<glyph unicode="&#xbf;" glyph-name="questiondown" horiz-adv-x="314" d="M143 389V510H267V389H143ZM112 -186T73 -152T34 -31Q34 43 45 78T92 141L123 165Q144 182 148 194T153 246V301H257V209Q257 162 249 142T216 105L204 96Q182 80 172 69T158 42T154 -4Q154
-49 170 -63T230 -77Q257 -77 309 -70V-171Q280 -177 245 -181T182 -186Q112 -186 73 -152Z" />
<glyph unicode="&#xc0;" glyph-name="Agrave" horiz-adv-x="422" d="M292 0L269 151H151L128 0H9L122 688H300L414 0H292ZM213 564H207L163 257H257L213 564ZM169 749L114 889V894H225L261 754V749H169Z" />
<glyph unicode="&#xc1;" glyph-name="Aacute" horiz-adv-x="422" d="M292 0L269 151H151L128 0H9L122 688H300L414 0H292ZM213 564H207L163 257H257L213 564ZM159 750V755L195 895H306V890L251 750H159Z" />
<glyph unicode="&#xc2;" glyph-name="Acircumflex" horiz-adv-x="422" d="M292 0L269 151H151L128 0H9L122 688H300L414 0H292ZM213 564H207L163 257H257L213 564ZM86 750V757L153 877H268L336 757V750H257L210 821L165 750H86Z" />
<glyph unicode="&#xc3;" glyph-name="Atilde" horiz-adv-x="422" d="M292 0L269 151H151L128 0H9L122 688H300L414 0H292ZM213 564H207L163 257H257L213 564ZM348 837T345 813T327 775T282 761Q255 761 206 778Q199 780 185 785T160 791Q149 791 147 783T144 750H75Q75
797 79 821T97 859T142 873Q171 873 218 856Q222 855 237 850T264 844Q274 844 276 852T279 885H348Q348 837 345 813Z" />
<glyph unicode="&#xc4;" glyph-name="Adieresis" horiz-adv-x="422" d="M292 0L269 151H151L128 0H9L122 688H300L414 0H292ZM213 564H207L163 257H257L213 564ZM79 775V872H178V775H79ZM244 775V872H343V775H244Z" />
<glyph unicode="&#xc5;" glyph-name="Aring" horiz-adv-x="422" d="M414 0H292L269 151H151L128 0H9L121 683Q105 694 101 712T97 765Q97 807 103 827T133 859T211 870Q265 870 289 859T320 828T326 765Q326 732 322 713T302 683L414 0ZM193 810T185 806T175 794T173
765Q173 746 175 738T185 726T211 722Q230 722 238 725T248 737T250 765Q250 785 248 793T238 806T211 810Q193 810 185 806ZM163 257H257L213 564H207L163 257Z" />
<glyph unicode="&#xc6;" glyph-name="AE" horiz-adv-x="556" d="M276 0L260 151H140L109 0H-11L136 688H529V579H334L355 402H510V293H365L388 109H529V0H276ZM222 564H216L155 257H252L222 564Z" />
<glyph unicode="&#xc7;" glyph-name="Ccedilla" horiz-adv-x="323" d="M269 101T302 108V8Q285 1 259 -3T209 -8H198L164 -189H67V-184L127 3Q86 18 66 56T39 160T32 344Q32 490 44 562T94 665T209 696Q236 696 261 692T300 681V580Q261 587 231 587Q192 587 177
573T157 511T152 344Q152 224 156 177T176 116T231 101Q269 101 302 108Z" />
<glyph unicode="&#xc8;" glyph-name="Egrave" horiz-adv-x="345" d="M43 0V688H317V579H164V402H298V293H164V109H317V0H43ZM145 750L90 890V895H201L237 755V750H145Z" />
<glyph unicode="&#xc9;" glyph-name="Eacute" horiz-adv-x="345" d="M43 0V688H317V579H164V402H298V293H164V109H317V0H43ZM135 750V755L171 895H282V890L227 750H135Z" />
<glyph unicode="&#xca;" glyph-name="Ecircumflex" horiz-adv-x="345" d="M43 0V688H317V579H164V402H298V293H164V109H317V0H43ZM56 750V757L123 877H238L306 757V750H227L180 821L135 750H56Z" />
<glyph unicode="&#xcb;" glyph-name="Edieresis" horiz-adv-x="345" d="M43 0V688H317V579H164V402H298V293H164V109H317V0H43ZM49 775V872H148V775H49ZM214 775V872H313V775H214Z" />
<glyph unicode="&#xcc;" glyph-name="Igrave" horiz-adv-x="210" d="M45 0V688H165V0H45ZM72 750L17 890V895H128L164 755V750H72Z" />
<glyph unicode="&#xcd;" glyph-name="Iacute" horiz-adv-x="210" d="M45 0V688H165V0H45ZM47 750V755L83 895H194V890L139 750H47Z" />
<glyph unicode="&#xce;" glyph-name="Icircumflex" horiz-adv-x="210" d="M45 0V688H165V0H45ZM-20 750V757L47 877H162L230 757V750H151L104 821L59 750H-20Z" />
<glyph unicode="&#xcf;" glyph-name="Idieresis" horiz-adv-x="210" d="M45 0V688H165V0H45ZM-27 775V872H72V775H-27ZM138 775V872H237V775H138Z" />
<glyph unicode="&#xd0;" glyph-name="Eth" horiz-adv-x="417" d="M43 293H3V403H43V688H204Q291 688 328 659T374 564T384 344Q384 191 375 125T328 30T204 0H43V293ZM235 109T246 120T261 178T265 344Q265 464 261 510T246 567T204 579H162V403H220V293H162V109H204Q235
109 246 120Z" />
<glyph unicode="&#xd1;" glyph-name="Ntilde" horiz-adv-x="439" d="M289 0L162 388H158V0H43V688H157L276 327H282V688H396V0H289ZM356 837T353 813T335 775T290 761Q263 761 214 778Q207 780 193 785T168 791Q157 791 155 783T152 750H83Q83 797 87 821T105
859T150 873Q179 873 226 856Q230 855 245 850T272 844Q282 844 284 852T287 885H356Q356 837 353 813Z" />
<glyph unicode="&#xd2;" glyph-name="Ograve" horiz-adv-x="423" d="M124 -8T88 22T42 119T32 344Q32 501 41 568T87 666T211 696Q298 696 335 666T381 569T391 344Q391 187 382 120T335 22T211 -8Q124 -8 88 22ZM241 101T252 113T266 172T270 344Q270 469 267
516T252 575T211 587Q181 587 171 575T156 516T152 344Q152 220 156 173T170 113T211 101Q241 101 252 113ZM167 750L112 890V895H223L259 755V750H167Z" />
<glyph unicode="&#xd3;" glyph-name="Oacute" horiz-adv-x="423" d="M124 -8T88 22T42 119T32 344Q32 501 41 568T87 666T211 696Q298 696 335 666T381 569T391 344Q391 187 382 120T335 22T211 -8Q124 -8 88 22ZM241 101T252 113T266 172T270 344Q270 469 267
516T252 575T211 587Q181 587 171 575T156 516T152 344Q152 220 156 173T170 113T211 101Q241 101 252 113ZM160 750V755L196 895H307V890L252 750H160Z" />
<glyph unicode="&#xd4;" glyph-name="Ocircumflex" horiz-adv-x="423" d="M124 -8T88 22T42 119T32 344Q32 501 41 568T87 666T211 696Q298 696 335 666T381 569T391 344Q391 187 382 120T335 22T211 -8Q124 -8 88 22ZM241 101T252 113T266 172T270 344Q270 469
267 516T252 575T211 587Q181 587 171 575T156 516T152 344Q152 220 156 173T170 113T211 101Q241 101 252 113ZM86 750V757L153 877H268L336 757V750H257L210 821L165 750H86Z" />
<glyph unicode="&#xd5;" glyph-name="Otilde" horiz-adv-x="423" d="M124 -8T88 22T42 119T32 344Q32 501 41 568T87 666T211 696Q298 696 335 666T381 569T391 344Q391 187 382 120T335 22T211 -8Q124 -8 88 22ZM241 101T252 113T266 172T270 344Q270 469 267
516T252 575T211 587Q181 587 171 575T156 516T152 344Q152 220 156 173T170 113T211 101Q241 101 252 113ZM349 837T346 813T328 775T283 761Q256 761 207 778Q200 780 186 785T161 791Q150 791 148 783T145 750H76Q76 797 80 821T98 859T143 873Q172 873 219
856Q223 855 238 850T265 844Q275 844 277 852T280 885H349Q349 837 346 813Z" />
<glyph unicode="&#xd6;" glyph-name="Odieresis" horiz-adv-x="423" d="M124 -8T88 22T42 119T32 344Q32 501 41 568T87 666T211 696Q298 696 335 666T381 569T391 344Q391 187 382 120T335 22T211 -8Q124 -8 88 22ZM241 101T252 113T266 172T270 344Q270 469
267 516T252 575T211 587Q181 587 171 575T156 516T152 344Q152 220 156 173T170 113T211 101Q241 101 252 113ZM79 775V872H178V775H79ZM244 775V872H343V775H244Z" />
<glyph unicode="&#xd7;" glyph-name="multiply" horiz-adv-x="421" d="M211 183L123 95L53 165L140 253L52 341L123 412L211 324L299 412L369 341L282 253L369 165L299 95L211 183Z" />
<glyph unicode="&#xd8;" glyph-name="Oslash" horiz-adv-x="423" d="M357 641Q379 606 385 542T391 344Q391 187 382 120T335 22T211 -8Q172 -8 149 -3L133 -55H32L65 48Q44 84 38 148T32 344Q32 501 41 568T87 666T211 696Q249 696 272 692L289 743H391L357 641ZM241
101T252 113T266 172T270 344Q270 469 267 516T252 575T211 587Q181 587 171 575T156 516T152 344Q152 220 156 173T170 113T211 101Q241 101 252 113Z" />
<glyph unicode="&#xd9;" glyph-name="Ugrave" horiz-adv-x="426" d="M387 688V303Q387 166 378 107T333 20T213 -8Q129 -8 93 19T48 106T39 303V688H159V256Q159 179 162 150T175 111T213 101Q240 101 250 110T264 149T267 256V688H387ZM172 750L117 890V895H228L264
755V750H172Z" />
<glyph unicode="&#xda;" glyph-name="Uacute" horiz-adv-x="426" d="M387 688V303Q387 166 378 107T333 20T213 -8Q129 -8 93 19T48 106T39 303V688H159V256Q159 179 162 150T175 111T213 101Q240 101 250 110T264 149T267 256V688H387ZM165 750V755L201 895H312V890L257
750H165Z" />
<glyph unicode="&#xdb;" glyph-name="Ucircumflex" horiz-adv-x="426" d="M387 688V303Q387 166 378 107T333 20T213 -8Q129 -8 93 19T48 106T39 303V688H159V256Q159 179 162 150T175 111T213 101Q240 101 250 110T264 149T267 256V688H387ZM88 750V757L155 877H270L338
757V750H259L212 821L167 750H88Z" />
<glyph unicode="&#xdc;" glyph-name="Udieresis" horiz-adv-x="426" d="M387 688V303Q387 166 378 107T333 20T213 -8Q129 -8 93 19T48 106T39 303V688H159V256Q159 179 162 150T175 111T213 101Q240 101 250 110T264 149T267 256V688H387ZM81 775V872H180V775H81ZM246
775V872H345V775H246Z" />
<glyph unicode="&#xdd;" glyph-name="Yacute" horiz-adv-x="387" d="M133 0V246L-1 688H120L192 381H202L271 688H388L254 246V0H133ZM149 750V755L185 895H296V890L241 750H149Z" />
<glyph unicode="&#xde;" glyph-name="Thorn" horiz-adv-x="401" d="M43 688H164V583H228Q295 583 329 557T374 483T385 352Q385 273 375 225T330 148T228 120H164V0H43V688ZM208 229Q234 229 245 238T260 272T264 352Q264 408 261 432T246 465T208 474H164V229H208Z" />
<glyph unicode="&#xdf;" glyph-name="germandbls" horiz-adv-x="396" d="M194 0V96H204Q228 96 237 105T250 144T253 255Q253 320 250 349T237 387T206 397H198V493H206Q224 493 233 499T245 523T249 574Q249 623 239 638T201 654Q181 654 171 646T157 616T152
547V0H39V545Q39 619 54 663T104 729T201 750Q286 750 324 713T363 590Q363 528 343 495T279 452V448Q326 437 346 392T366 248Q366 156 355 104T311 26T213 0H194Z" />
<glyph unicode="&#xe0;" glyph-name="agrave" horiz-adv-x="370" d="M66 -8T43 28T20 147Q20 205 31 238T67 286T139 301Q176 301 220 297V325Q220 372 215 391T194 416T139 422Q95 422 41 415V505Q102 518 174 518Q238 518 272 500T319 438T333 316V0H226L222
62H215Q207 26 183 9T126 -8Q66 -8 43 28ZM187 94T198 99T214 120Q220 146 220 192V223H170Q145 223 137 210T128 156Q128 120 135 107T169 94Q187 94 198 99ZM146 598L91 738V743H202L238 603V598H146Z" />
<glyph unicode="&#xe1;" glyph-name="aacute" horiz-adv-x="370" d="M66 -8T43 28T20 147Q20 205 31 238T67 286T139 301Q176 301 220 297V325Q220 372 215 391T194 416T139 422Q95 422 41 415V505Q102 518 174 518Q238 518 272 500T319 438T333 316V0H226L222
62H215Q207 26 183 9T126 -8Q66 -8 43 28ZM187 94T198 99T214 120Q220 146 220 192V223H170Q145 223 137 210T128 156Q128 120 135 107T169 94Q187 94 198 99ZM138 598V603L174 743H285V738L230 598H138Z" />
<glyph unicode="&#xe2;" glyph-name="acircumflex" horiz-adv-x="370" d="M66 -8T43 28T20 147Q20 205 31 238T67 286T139 301Q176 301 220 297V325Q220 372 215 391T194 416T139 422Q95 422 41 415V505Q102 518 174 518Q238 518 272 500T319 438T333 316V0H226L222
62H215Q207 26 183 9T126 -8Q66 -8 43 28ZM187 94T198 99T214 120Q220 146 220 192V223H170Q145 223 137 210T128 156Q128 120 135 107T169 94Q187 94 198 99ZM62 616V623L129 743H244L312 623V616H233L186 687L141 616H62Z" />
<glyph unicode="&#xe3;" glyph-name="atilde" horiz-adv-x="370" d="M66 -8T43 28T20 147Q20 205 31 238T67 286T139 301Q176 301 220 297V325Q220 372 215 391T194 416T139 422Q95 422 41 415V505Q102 518 174 518Q238 518 272 500T319 438T333 316V0H226L222
62H215Q207 26 183 9T126 -8Q66 -8 43 28ZM187 94T198 99T214 120Q220 146 220 192V223H170Q145 223 137 210T128 156Q128 120 135 107T169 94Q187 94 198 99ZM322 695T319 671T301 633T256 619Q229 619 180 636Q173 638 159 643T134 649Q123 649 121 641T118 608H49Q49
655 53 679T71 717T116 731Q145 731 192 714Q196 713 211 708T238 702Q248 702 250 710T253 743H322Q322 695 319 671Z" />
<glyph unicode="&#xe4;" glyph-name="adieresis" horiz-adv-x="370" d="M66 -8T43 28T20 147Q20 205 31 238T67 286T139 301Q176 301 220 297V325Q220 372 215 391T194 416T139 422Q95 422 41 415V505Q102 518 174 518Q238 518 272 500T319 438T333 316V0H226L222
62H215Q207 26 183 9T126 -8Q66 -8 43 28ZM187 94T198 99T214 120Q220 146 220 192V223H170Q145 223 137 210T128 156Q128 120 135 107T169 94Q187 94 198 99ZM55 633V730H154V633H55ZM220 633V730H319V633H220Z" />
<glyph unicode="&#xe5;" glyph-name="aring" horiz-adv-x="370" d="M66 -8T43 28T20 147Q20 205 31 238T67 286T139 301Q176 301 220 297V325Q220 372 215 391T194 416T139 422Q95 422 41 415V505Q102 518 174 518Q238 518 272 500T319 438T333 316V0H226L222
62H215Q207 26 183 9T126 -8Q66 -8 43 28ZM187 94T198 99T214 120Q220 146 220 192V223H170Q145 223 137 210T128 156Q128 120 135 107T169 94Q187 94 198 99ZM132 850T108 861T77 892T70 953Q70 995 76 1015T107 1047T185 1058Q238 1058 262 1047T293 1016T299
953Q299 912 293 892T263 861T185 850Q132 850 108 861ZM211 910T217 918T224 953Q224 981 218 989T185 998Q166 998 158 994T148 982T146 953Q146 934 148 926T158 914T185 910Q211 910 217 918Z" />
<glyph unicode="&#xe6;" glyph-name="ae" horiz-adv-x="561" d="M532 222H333Q333 157 337 132T357 97T413 88Q453 88 523 95V6Q498 0 460 -4T387 -8Q343 -8 315 3T270 40Q233 -8 148 -8Q75 -8 48 28T20 146Q20 204 31 237T67 285T139 300Q151 300 220 297V325Q220
372 215 391T194 416T139 422Q97 422 41 415V505Q104 518 174 518Q211 518 236 509T278 479Q310 518 382 518Q454 518 485 493T524 419T532 256V222ZM359 422T350 415T337 383T333 300H427V304Q427 360 424 384T411 415T381 422Q359 422 350 415ZM220 222H169Q145
222 137 210T128 156Q128 116 135 102T169 88Q188 88 199 95T215 121Q220 144 220 189V222Z" />
<glyph unicode="&#xe7;" glyph-name="ccedilla" horiz-adv-x="294" d="M274 5Q231 -8 183 -8L149 -189H52V-184L111 2Q61 22 45 79T29 255Q29 357 41 412T84 493T177 518Q234 518 271 506V416Q233 422 210 422Q178 422 165 412T147 368T142 255Q142 175 147 142T165
98T211 88Q234 88 274 94V5Z" />
<glyph unicode="&#xe8;" glyph-name="egrave" horiz-adv-x="370" d="M341 221H142Q142 157 146 132T166 97T221 88Q256 88 331 95V6Q308 0 270 -4T196 -8Q119 -8 84 18T39 96T29 254Q29 359 38 411T82 491T191 518Q263 518 294 493T333 418T341 255V221ZM168 422T159
415T146 382T142 299H235V304Q235 360 232 383T220 414T190 422Q168 422 159 415ZM150 598L95 738V743H206L242 603V598H150Z" />
<glyph unicode="&#xe9;" glyph-name="eacute" horiz-adv-x="370" d="M341 221H142Q142 157 146 132T166 97T221 88Q256 88 331 95V6Q308 0 270 -4T196 -8Q119 -8 84 18T39 96T29 254Q29 359 38 411T82 491T191 518Q263 518 294 493T333 418T341 255V221ZM168 422T159
415T146 382T142 299H235V304Q235 360 232 383T220 414T190 422Q168 422 159 415ZM146 598V603L182 743H293V738L238 598H146Z" />
<glyph unicode="&#xea;" glyph-name="ecircumflex" horiz-adv-x="370" d="M341 221H142Q142 157 146 132T166 97T221 88Q256 88 331 95V6Q308 0 270 -4T196 -8Q119 -8 84 18T39 96T29 254Q29 359 38 411T82 491T191 518Q263 518 294 493T333 418T341 255V221ZM168
422T159 415T146 382T142 299H235V304Q235 360 232 383T220 414T190 422Q168 422 159 415ZM68 616V623L135 743H250L318 623V616H239L192 687L147 616H68Z" />
<glyph unicode="&#xeb;" glyph-name="edieresis" horiz-adv-x="370" d="M341 221H142Q142 157 146 132T166 97T221 88Q256 88 331 95V6Q308 0 270 -4T196 -8Q119 -8 84 18T39 96T29 254Q29 359 38 411T82 491T191 518Q263 518 294 493T333 418T341 255V221ZM168
422T159 415T146 382T142 299H235V304Q235 360 232 383T220 414T190 422Q168 422 159 415ZM59 633V730H158V633H59ZM224 633V730H323V633H224Z" />
<glyph unicode="&#xec;" glyph-name="igrave" horiz-adv-x="191" d="M39 0V510H152V0H39ZM59 598L4 738V743H115L151 603V598H59Z" />
<glyph unicode="&#xed;" glyph-name="iacute" horiz-adv-x="191" d="M39 0V510H152V0H39ZM39 598V603L75 743H186V738L131 598H39Z" />
<glyph unicode="&#xee;" glyph-name="icircumflex" horiz-adv-x="191" d="M39 0V510H152V0H39ZM227 616V623L294 743H409L477 623V616H398L351 687L306 616H227Z" />
<glyph unicode="&#xef;" glyph-name="idieresis" horiz-adv-x="191" d="M39 0V510H152V0H39ZM219 633V730H318V633H219ZM384 633V730H483V633H384Z" />
<glyph unicode="&#xf0;" glyph-name="eth" horiz-adv-x="381" d="M115 -8T82 14T39 89T29 254Q29 356 37 409T72 490T155 518Q190 518 215 504L218 507Q204 571 188 610L107 597V665L160 673Q146 700 120 739V743H234Q250 721 268 689L344 701V633L297 626Q327
549 341 446Q352 362 352 259Q352 143 343 91T300 15T191 -8Q115 -8 82 14ZM215 88T224 98T236 140T239 255Q239 335 237 366T225 410T190 422Q165 422 156 412T145 371T142 255Q142 171 144 140T156 99T190 88Q215 88 224 98Z" />
<glyph unicode="&#xf1;" glyph-name="ntilde" horiz-adv-x="392" d="M243 285Q243 350 241 375T230 408T199 416Q175 416 166 403T154 361T152 256V0H39V510H146L150 448H158Q178 518 256 518Q299 518 320 501T348 446T356 339V0H243V285ZM336 695T333 671T315
633T270 619Q243 619 194 636Q187 638 173 643T148 649Q137 649 135 641T132 608H63Q63 655 67 679T85 717T130 731Q159 731 206 714Q210 713 225 708T252 702Q262 702 264 710T267 743H336Q336 695 333 671Z" />
<glyph unicode="&#xf2;" glyph-name="ograve" horiz-adv-x="381" d="M116 -8T83 13T39 87T29 255Q29 369 39 421T82 496T190 518Q265 518 298 496T342 422T352 255Q352 140 342 88T299 14T190 -8Q116 -8 83 13ZM215 88T224 98T236 139T239 255Q239 339 237 370T225
412T190 422Q166 422 157 412T145 371T142 255Q142 171 144 140T156 98T190 88Q215 88 224 98ZM147 598L92 738V743H203L239 603V598H147Z" />
<glyph unicode="&#xf3;" glyph-name="oacute" horiz-adv-x="381" d="M116 -8T83 13T39 87T29 255Q29 369 39 421T82 496T190 518Q265 518 298 496T342 422T352 255Q352 140 342 88T299 14T190 -8Q116 -8 83 13ZM215 88T224 98T236 139T239 255Q239 339 237 370T225
412T190 422Q166 422 157 412T145 371T142 255Q142 171 144 140T156 98T190 88Q215 88 224 98ZM137 598V603L173 743H284V738L229 598H137Z" />
<glyph unicode="&#xf4;" glyph-name="ocircumflex" horiz-adv-x="381" d="M116 -8T83 13T39 87T29 255Q29 369 39 421T82 496T190 518Q265 518 298 496T342 422T352 255Q352 140 342 88T299 14T190 -8Q116 -8 83 13ZM215 88T224 98T236 139T239 255Q239 339 237
370T225 412T190 422Q166 422 157 412T145 371T142 255Q142 171 144 140T156 98T190 88Q215 88 224 98ZM67 616V623L134 743H249L317 623V616H238L191 687L146 616H67Z" />
<glyph unicode="&#xf5;" glyph-name="otilde" horiz-adv-x="381" d="M116 -8T83 13T39 87T29 255Q29 369 39 421T82 496T190 518Q265 518 298 496T342 422T352 255Q352 140 342 88T299 14T190 -8Q116 -8 83 13ZM215 88T224 98T236 139T239 255Q239 339 237 370T225
412T190 422Q166 422 157 412T145 371T142 255Q142 171 144 140T156 98T190 88Q215 88 224 98ZM328 695T325 671T307 633T262 619Q235 619 186 636Q179 638 165 643T140 649Q129 649 127 641T124 608H55Q55 655 59 679T77 717T122 731Q151 731 198 714Q202 713
217 708T244 702Q254 702 256 710T259 743H328Q328 695 325 671Z" />
<glyph unicode="&#xf6;" glyph-name="odieresis" horiz-adv-x="381" d="M116 -8T83 13T39 87T29 255Q29 369 39 421T82 496T190 518Q265 518 298 496T342 422T352 255Q352 140 342 88T299 14T190 -8Q116 -8 83 13ZM215 88T224 98T236 139T239 255Q239 339 237
370T225 412T190 422Q166 422 157 412T145 371T142 255Q142 171 144 140T156 98T190 88Q215 88 224 98ZM60 633V730H159V633H60ZM225 633V730H324V633H225Z" />
<glyph unicode="&#xf7;" glyph-name="divide" horiz-adv-x="447" d="M172 368V454H274V368H172ZM52 203V303H394V203H52ZM172 52V139H274V52H172Z" />
<glyph unicode="&#xf8;" glyph-name="oslash" horiz-adv-x="381" d="M60 34Q41 61 35 110T29 255Q29 369 39 421T82 496T190 518Q217 518 232 513L251 565H352L320 475Q340 448 346 399T352 255Q352 140 342 88T299 14T190 -8Q164 -8 149 -4L130 -55H29L60 34ZM215
88T224 98T236 139T239 255Q239 339 237 370T225 412T190 422Q166 422 157 412T145 371T142 255Q142 171 144 140T156 98T190 88Q215 88 224 98Z" />
<glyph unicode="&#xf9;" glyph-name="ugrave" horiz-adv-x="392" d="M242 62H235Q215 -8 137 -8Q94 -8 73 9T44 64T36 171V510H149V225Q149 161 152 135T163 102T194 94Q217 94 226 107T238 149T240 254V510H353V0H246L242 62ZM155 598L100 738V743H211L247 603V598H155Z" />
<glyph unicode="&#xfa;" glyph-name="uacute" horiz-adv-x="392" d="M242 62H235Q215 -8 137 -8Q94 -8 73 9T44 64T36 171V510H149V225Q149 161 152 135T163 102T194 94Q217 94 226 107T238 149T240 254V510H353V0H246L242 62ZM146 598V603L182 743H293V738L238 598H146Z" />
<glyph unicode="&#xfb;" glyph-name="ucircumflex" horiz-adv-x="392" d="M242 62H235Q215 -8 137 -8Q94 -8 73 9T44 64T36 171V510H149V225Q149 161 152 135T163 102T194 94Q217 94 226 107T238 149T240 254V510H353V0H246L242 62ZM71 616V623L138 743H253L321
623V616H242L195 687L150 616H71Z" />
<glyph unicode="&#xfc;" glyph-name="udieresis" horiz-adv-x="392" d="M242 62H235Q215 -8 137 -8Q94 -8 73 9T44 64T36 171V510H149V225Q149 161 152 135T163 102T194 94Q217 94 226 107T238 149T240 254V510H353V0H246L242 62ZM63 633V730H162V633H63ZM228
633V730H327V633H228Z" />
<glyph unicode="&#xfd;" glyph-name="yacute" horiz-adv-x="392" d="M111 -203T58 -195V-105Q118 -107 158 -107Q198 -107 214 -97T235 -62T240 27V70H233Q213 2 136 2Q93 2 72 20T44 75T36 182V510H149V234Q149 170 152 145T163 112T194 104Q217 104 226 117T238
159T240 264V510H353V62Q353 -42 343 -95T297 -175T184 -203Q111 -203 58 -195ZM146 598V603L182 743H293V738L238 598H146Z" />
<glyph unicode="&#xfe;" glyph-name="thorn" horiz-adv-x="390" d="M39 743H152V451H160Q168 486 191 502T246 518Q292 518 316 496T351 419T361 255Q361 150 352 95T319 16T248 -8Q176 -8 160 56H152V-189H39V743ZM224 94T233 103T245 143T248 255Q248 336 245
367T233 407T200 416Q180 416 170 406T156 367Q152 344 152 255Q152 175 155 148Q160 115 170 105T200 94Q224 94 233 103Z" />
<glyph unicode="&#xff;" glyph-name="ydieresis" horiz-adv-x="392" d="M111 -203T58 -195V-105Q118 -107 158 -107Q198 -107 214 -97T235 -62T240 27V70H233Q213 2 136 2Q93 2 72 20T44 75T36 182V510H149V234Q149 170 152 145T163 112T194 104Q217 104 226 117T238
159T240 264V510H353V62Q353 -42 343 -95T297 -175T184 -203Q111 -203 58 -195ZM64 633V730H163V633H64ZM229 633V730H328V633H229Z" />
<glyph unicode="&#x2013;" glyph-name="endash" horiz-adv-x="430" d="M44 256V354H386V256H44Z" />
<glyph unicode="&#x2014;" glyph-name="emdash" horiz-adv-x="793" d="M44 256V354H750V256H44Z" />
<glyph unicode="&#x2018;" glyph-name="quoteleft" horiz-adv-x="206" d="M44 520Q44 590 52 624T86 673T165 688V636Q135 636 126 622T117 564V550H161V435H44V520Z" />
<glyph unicode="&#x2019;" glyph-name="quoteright" horiz-adv-x="206" d="M71 487T80 502T89 559V574H45V688H163V603Q163 533 155 499T121 450T41 435V487Q71 487 80 502Z" />
<glyph unicode="&#x201a;" glyph-name="quotesinglbase" horiz-adv-x="210" d="M73 -86T82 -72T91 -14V0H46V114H164V29Q164 -41 156 -75T122 -123T42 -138V-86Q73 -86 82 -72Z" />
<glyph unicode="&#x201c;" glyph-name="quotedblleft" horiz-adv-x="373" d="M44 520Q44 590 52 624T86 673T165 688V636Q135 636 126 622T117 564V550H161V435H44V520ZM211 520Q211 590 219 624T252 673T332 688V636Q302 636 293 622T284 564V550H328V435H211V520Z" />
<glyph unicode="&#x201d;" glyph-name="quotedblright" horiz-adv-x="373" d="M71 487T80 502T89 559V574H45V688H163V603Q163 533 155 499T121 450T41 435V487Q71 487 80 502ZM238 487T247 502T256 559V574H212V688H329V603Q329 533 321 499T288 450T208 435V487Q238
487 247 502Z" />
<glyph unicode="&#x201e;" glyph-name="quotedblbase" horiz-adv-x="378" d="M73 -86T82 -72T91 -14V0H46V114H164V29Q164 -41 156 -75T122 -123T42 -138V-86Q73 -86 82 -72ZM240 -86T249 -72T258 -14V0H213V114H331V29Q331 -41 323 -75T289 -123T209 -138V-86Q240
-86 249 -72Z" />
<glyph unicode="&#x2022;" glyph-name="bullet" horiz-adv-x="252" d="M218 299T213 282T190 259T125 253Q81 253 63 259T40 282T35 342Q35 387 40 404T62 428T125 435Q171 435 189 429T213 405T218 342Q218 299 213 282Z" />
<glyph unicode="&#x2039;" glyph-name="guilsinglleft" horiz-adv-x="224" d="M104 125L34 317L104 510H186L132 317L186 125H104Z" />
<glyph unicode="&#x203a;" glyph-name="guilsinglright" horiz-adv-x="224" d="M38 125L92 317L38 510H121L191 317L121 125H38Z" />
</font>
</defs>
</svg>
