<?xml version="1.0" standalone="no"?>
<!DOCTYPE svg PUBLIC "-//W3C//DTD SVG 1.1//EN" "http://www.w3.org/Graphics/SVG/1.1/DTD/svg11.dtd">
<svg xmlns="http://www.w3.org/2000/svg">
<defs >
<font id="Heebo" horiz-adv-x="1026" ><font-face
    font-family="Heebo Thin"
    units-per-em="2048"
    panose-1="0 0 3 0 0 0 0 0 0 0"
    ascent="2146"
    descent="-862"
    alphabetic="0" />
<glyph unicode=" " glyph-name="space" horiz-adv-x="490" />
<glyph unicode="!" glyph-name="exclam" horiz-adv-x="397" d="M167 401V1456H221V401H167ZM225 105T241 89T258 49Q258 26 242 10T202 -6Q179 -6 163 10T147 49Q147 72 163 88T202 105Q225 105 241 89Z" />
<glyph unicode="&quot;" glyph-name="quotedbl" horiz-adv-x="521" d="M200 1122H150L155 1390V1536H210V1393L200 1122ZM401 1122H351L357 1390V1536H411V1393L401 1122Z" />
<glyph unicode="#" glyph-name="numbersign" horiz-adv-x="1121" d="M903 986L807 462H1092V410H798L723 0H667L742 410H378L304 0H248L322 410H51V462H332L427 986H127V1040H437L512 1456H568L493 1040H857L933 1456H989L913 1040H1167V986H903ZM847 986H483L388
462H751L847 986Z" />
<glyph unicode="$" glyph-name="dollar" horiz-adv-x="1121" d="M1001 239T954 159T820 32T620 -20V-208H565V-21Q445 -17 345 27T183 166T121 409H175Q175 273 235 189T388 68T586 32Q695 32 777 75T903 190T947 344Q947 433 914 493T801 601T576 702Q434 750
349 797T216 920T168 1110Q168 1216 215 1297T350 1425T554 1477V1663H609V1476Q791 1468 892 1357T993 1047H939Q939 1156 897 1241T774 1375T579 1424Q462 1424 382 1381T262 1266T222 1112Q222 1024 251 965T360 856T593 754Q733 706 818 659T952 536T1001 346Q1001
239 954 159Z" />
<glyph unicode="%" glyph-name="percent" horiz-adv-x="1527" d="M114 1258T148 1327T245 1436T386 1477Q465 1477 527 1437T623 1327T657 1176V1099Q657 1018 623 950T528 841T388 800Q308 800 246 840T149 949T114 1099V1176Q114 1258 148 1327ZM169 1036T193
980T267 890T388 855Q457 855 505 889T578 979T602 1099V1176Q602 1240 578 1296T505 1387T386 1422Q317 1422 268 1387T194 1296T169 1176V1099Q169 1036 193 980ZM377 162L1088 1300L1133 1269L422 131L377 162ZM870 439T904 507T1000 616T1141 657Q1221 657
1283 617T1379 508T1413 357V279Q1413 197 1379 129T1284 20T1143 -21Q1063 -21 1001 19T905 128T870 279V357Q870 439 904 507ZM925 215T949 159T1023 69T1143 34Q1213 34 1261 68T1334 159T1358 279V357Q1358 426 1334 481T1261 569T1141 602Q1072 602 1023 570T950
482T925 357V279Q925 215 949 159Z" />
<glyph unicode="&amp;" glyph-name="ampersand" horiz-adv-x="1247" d="M1129 0L973 177Q781 -20 549 -20Q416 -20 318 25T168 155T115 352Q115 466 182 563T371 762L422 803Q338 907 298 992T257 1167Q257 1258 294 1328T400 1437T562 1477Q648 1477 710 1442T805
1347T838 1213Q838 1074 646 918L495 797L969 258Q1024 335 1054 429T1084 632H1139Q1139 393 1006 216L1196 0H1129ZM312 1012T462 834L621 960Q693 1017 737 1081T782 1213Q782 1269 757 1317T681 1394T562 1423Q483 1423 427 1389T341 1297T312 1169Q312 1012
462 834ZM659 34T760 82T937 217L488 725Q486 727 454 765L402 723Q266 605 218 518T169 352Q169 266 211 194T339 78T549 34Q659 34 760 82Z" />
<glyph unicode="&apos;" glyph-name="quotesingle" horiz-adv-x="340" d="M186 1122H136L145 1365V1536H200V1367L186 1122Z" />
<glyph unicode="(" glyph-name="parenleft" horiz-adv-x="607" d="M148 810T204 1022T356 1394T562 1623L581 1580Q482 1515 395 1362T255 1004T202 590V564Q202 354 255 150T395 -208T581 -427L562 -470Q449 -399 355 -246T204 119T148 566V586Q148 810 204 1022Z" />
<glyph unicode=")" glyph-name="parenright" horiz-adv-x="623" d="M461 331T405 120T255 -245T47 -470L28 -427Q127 -362 214 -208T354 150T407 564V590Q407 800 354 1004T214 1361T28 1580L47 1623Q158 1553 253 1394T404 1023T461 586V566Q461 331 405 120Z" />
<glyph unicode="*" glyph-name="asterisk" horiz-adv-x="856" d="M30 1141L48 1195L410 1062L411 1456H467L460 1061L812 1204L832 1151L472 1014L721 697L674 664L432 986L204 661L159 693L393 1017L30 1141Z" />
<glyph unicode="+" glyph-name="plus" horiz-adv-x="1151" d="M1071 649H590V146H535V649H73V702H535V1206H590V702H1071V649Z" />
<glyph unicode="," glyph-name="comma" horiz-adv-x="383" d="M235 -142T129 -255L92 -223Q139 -162 160 -106T181 25V159H235V27Q235 -142 129 -255Z" />
<glyph unicode="-" glyph-name="hyphen" horiz-adv-x="607" d="M61 639V693H531V639H61Z" />
<glyph unicode="." glyph-name="period" horiz-adv-x="439" d="M225 105T241 89T258 49Q258 26 242 10T202 -6Q179 -6 163 10T147 49Q147 72 163 88T202 105Q225 105 241 89Z" />
<glyph unicode="/" glyph-name="slash" horiz-adv-x="782" d="M42 -125L650 1456H709L101 -125H42Z" />
<glyph unicode="0" glyph-name="zero" horiz-adv-x="1121" d="M996 403T946 266T799 54T562 -20Q424 -20 326 54T176 266T125 594V862Q125 1052 175 1190T324 1403T560 1477Q699 1477 797 1403T945 1191T996 862V594Q996 403 946 266ZM942 1032T900 1158T772 1353T560
1423Q434 1423 349 1354T222 1158T179 862V596Q179 429 222 303T351 105T562 34Q688 34 773 105T900 302T942 596V862Q942 1032 900 1158Z" />
<glyph unicode="1" glyph-name="one" horiz-adv-x="1121" d="M605 0V1388L187 1231V1290L648 1460H659V0H605Z" />
<glyph unicode="2" glyph-name="two" horiz-adv-x="1121" d="M153 0V54L630 604Q767 762 829 875T891 1085Q891 1242 800 1332T536 1422Q433 1422 350 1373T219 1238T171 1045H117Q117 1163 170 1261T319 1418T536 1476Q662 1476 754 1431T896 1299T946 1085Q946
1001 905 912T802 739T646 546L224 54H1024V0H153Z" />
<glyph unicode="3" glyph-name="three" horiz-adv-x="1121" d="M848 712T927 620T1007 386Q1007 260 952 168T798 28T573 -20Q457 -20 349 27T172 170T103 405H157Q157 299 211 214T361 82T573 34Q693 34 778 75T908 195T953 382Q953 553 839 633T528 714H417V763V770H528Q651
770 740 813T875 927T921 1085Q921 1180 883 1256T764 1377T564 1422Q459 1422 373 1380T238 1258T188 1074H134Q134 1195 192 1286T348 1427T564 1476Q688 1476 781 1429T924 1292T975 1081Q975 966 902 876T703 745Q848 712 927 620Z" />
<glyph unicode="4" glyph-name="four" horiz-adv-x="1121" d="M1094 397H842V0H788V397H82V427L777 1456H827H842V451H1094V397ZM788 451V1392L704 1253L166 451H788Z" />
<glyph unicode="5" glyph-name="five" horiz-adv-x="1121" d="M299 1456H1009V1403H348L289 819Q331 855 416 885T594 916Q720 916 817 862T969 706T1024 464Q1024 241 924 111T614 -20Q497 -20 404 24T252 159T182 383H237Q253 213 349 124T614 34Q792 34 880
142T969 462Q969 577 925 668T797 810T595 862Q485 862 409 833T272 746L231 762L299 1456Z" />
<glyph unicode="6" glyph-name="six" horiz-adv-x="1121" d="M723 957T818 896T963 726T1013 480Q1013 340 961 226T815 46T602 -20Q467 -20 359 43T190 222T128 492V660Q128 939 219 1122T467 1390T821 1476H840V1422H821Q647 1422 507 1349T279 1122T183 733Q240
833 348 895T592 957Q723 957 818 896ZM708 33T789 94T915 258T959 480Q959 601 917 696T791 847T585 903Q493 903 408 866T262 765T182 622V493Q182 356 235 252T384 90T602 33Q708 33 789 94Z" />
<glyph unicode="7" glyph-name="seven" horiz-adv-x="1121" d="M366 0H311L945 1402H77V1456H1007V1422L366 0Z" />
<glyph unicode="8" glyph-name="eight" horiz-adv-x="1121" d="M807 721T878 669T988 543T1028 379Q1028 251 967 161T801 26T565 -20Q431 -20 326 25T161 160T100 379Q100 468 139 542T248 668T409 745Q287 782 214 873T141 1086Q141 1209 195 1297T345 1430T561
1476Q680 1476 777 1431T930 1297T986 1086Q986 964 912 874T716 745Q807 721 878 669ZM195 995T242 923T373 811T563 772Q666 772 750 811T883 922T932 1091Q932 1186 883 1261T748 1379T561 1422Q456 1422 373 1382T243 1267T195 1091Q195 995 242 923ZM680 34T773
74T919 190T973 374Q973 476 919 554T771 675T563 718Q448 718 355 676T208 555T154 374Q154 267 207 190T354 74T565 34Q680 34 773 74Z" />
<glyph unicode="9" glyph-name="nine" horiz-adv-x="1121" d="M753 1476T873 1331T993 903V740Q993 371 828 176T332 -20H298L300 34H332Q637 34 788 213T939 718V724Q884 606 773 537T523 468Q399 468 303 534T155 713T103 958Q103 1099 157 1217T308 1406T531
1476Q753 1476 873 1331ZM637 522T724 569T864 689T939 841V902Q939 1158 834 1290T535 1422Q423 1422 337 1357T204 1185T157 958Q157 844 201 744T328 583T523 522Q637 522 724 569Z" />
<glyph unicode=":" glyph-name="colon" horiz-adv-x="364" d="M453 105T469 89T486 49Q486 26 470 10T430 -6Q407 -6 391 10T375 49Q375 72 391 88T430 105Q453 105 469 89ZM202 1067T218 1051T235 1011Q235 988 219 972T179 956Q156 956 140 972T124 1011Q124
1034 140 1050T179 1067Q202 1067 218 1051Z" />
<glyph unicode=";" glyph-name="semicolon" horiz-adv-x="364" d="M203 1067T219 1051T236 1011Q236 988 220 972T180 956Q157 956 141 972T125 1011Q125 1034 141 1050T180 1067Q203 1067 219 1051ZM479 -142T373 -255L336 -223Q383 -162 404 -106T425 25V159H479V27Q479
-142 373 -255Z" />
<glyph unicode="&lt;" glyph-name="less" horiz-adv-x="1053" d="M919 1011L155 666L919 321V262L82 641V683V691L919 1069V1011Z" />
<glyph unicode="=" glyph-name="equal" horiz-adv-x="1142" d="M147 843V897H981V843H147ZM147 436V490H981V436H147Z" />
<glyph unicode="&gt;" glyph-name="greater" horiz-adv-x="1053" d="M950 694V651V644L114 265V324L873 668L114 1013V1072L950 694Z" />
<glyph unicode="?" glyph-name="question" horiz-adv-x="893" d="M396 475T411 531T459 636T553 740Q627 811 665 857T725 964T747 1112Q747 1203 715 1273T617 1383T458 1423Q363 1423 294 1384T187 1276T147 1116H93Q94 1227 143 1309T276 1433T458 1476Q567
1476 644 1429T761 1298T801 1110Q801 1023 778 956T708 830T581 698Q449 595 449 400H395Q396 475 411 531ZM449 105T465 89T482 49Q482 26 466 10T426 -6Q403 -6 387 10T371 49Q371 72 387 88T426 105Q449 105 465 89Z" />
<glyph unicode="@" glyph-name="at" horiz-adv-x="1902" d="M1260 1411T1431 1313T1685 1032T1769 593Q1769 571 1767 523Q1762 386 1721 262T1597 59T1397 -20Q1298 -20 1236 41T1162 210Q1052 -20 829 -20Q749 -20 692 25T604 155T574 354Q574 380 578 436Q593
602 653 727T808 920T1015 988Q1073 988 1117 974T1191 938T1265 878L1216 293Q1214 263 1214 250Q1214 124 1272 80T1400 35Q1494 35 1562 97T1667 270T1710 523Q1712 552 1712 607Q1712 964 1537 1159T997 1354Q777 1354 597 1247T308 941T184 478Q182 434 182
414Q182 180 268 -4T518 -293T910 -398Q998 -398 1088 -376T1240 -318L1264 -364Q1203 -405 1101 -429T906 -453Q664 -453 489 -349T221 -49T128 414Q128 456 129 478Q141 761 253 972T558 1297T1001 1411Q1260 1411 1431 1313ZM935 34T1021 100T1165 344L1208
851Q1137 933 1012 933Q921 933 842 879T706 713T632 436Q627 384 627 347Q627 206 678 120T827 34Q935 34 1021 100Z" />
<glyph unicode="A" glyph-name="A" horiz-adv-x="1223" d="M968 435H254L92 0H33L578 1456H630H644L1189 0H1130L968 435ZM948 489L611 1391L274 489H948Z" />
<glyph unicode="B" glyph-name="B" horiz-adv-x="1235" d="M893 742T966 692T1082 565T1125 401Q1125 274 1069 184T910 47T675 0H231H200V1456H583Q810 1456 934 1364T1059 1083Q1059 954 992 865T803 754Q893 742 966 692ZM254 1402V773H603Q1004 773 1004 1087Q1004
1243 898 1322T583 1402H254ZM797 54T886 95T1023 213T1071 399Q1071 485 1027 558T896 675T685 719H254V54H675Q797 54 886 95Z" />
<glyph unicode="C" glyph-name="C" horiz-adv-x="1327" d="M1168 215T1032 98T671 -20Q513 -20 394 60T209 285T144 619V837Q144 1026 209 1171T393 1396T671 1476Q895 1476 1031 1359T1190 1012H1136Q1113 1213 995 1317T671 1422Q531 1422 424 1350T257 1145T198
839V619Q198 444 257 312T423 107T671 34Q1093 34 1136 446H1190Q1168 215 1032 98Z" />
<glyph unicode="D" glyph-name="D" horiz-adv-x="1340" d="M774 1456T911 1375T1126 1149T1204 817V639Q1204 453 1126 308T911 81T603 0H248H200V1456H254H603Q774 1456 911 1375ZM1150 820Q1150 987 1079 1119T883 1327T603 1402H254V54H603Q758 54 883 129T1079
337T1150 639V820Z" />
<glyph unicode="E" glyph-name="E" horiz-adv-x="1166" d="M254 1402V776H984V722H254V54H1086V0H219H200V1456H254H1086V1402H254Z" />
<glyph unicode="F" glyph-name="F" horiz-adv-x="1172" d="M254 1402V772H1000V716H254V0H200V1456H254H1102V1402H254Z" />
<glyph unicode="G" glyph-name="G" horiz-adv-x="1406" d="M1199 118T1134 78T965 9T729 -20Q565 -20 438 60T239 286T168 620V858Q168 1039 237 1179T429 1398T712 1476Q865 1476 975 1422T1148 1275T1224 1062H1170Q1145 1221 1035 1321T712 1422Q566 1422 455
1351T283 1151T222 860V620Q222 449 284 316T462 109T729 34Q840 34 932 57T1086 114T1172 181V605H727V660H1226V156Q1199 118 1134 78Z" />
<glyph unicode="H" glyph-name="H" horiz-adv-x="1438" d="M1238 1456V0H1184V722H254V0H200V1456H254V776H1184V1456H1238Z" />
<glyph unicode="I" glyph-name="I" horiz-adv-x="534" d="M240 0V1456H294V0H240Z" />
<glyph unicode="J" glyph-name="J" horiz-adv-x="1125" d="M930 1456V442Q930 297 876 193T726 34T510 -20Q312 -20 201 86T90 401H144Q144 223 236 129T510 34Q612 34 695 81T827 220T876 442V1456H930Z" />
<glyph unicode="K" glyph-name="K" horiz-adv-x="1300" d="M487 766L254 551V0H200V1456H254V615L492 847L1098 1456H1176L528 804L1226 0H1156L487 766Z" />
<glyph unicode="L" glyph-name="L" horiz-adv-x="1057" d="M1002 54V0H220H200V1456H255V54H1002Z" />
<glyph unicode="M" glyph-name="M" horiz-adv-x="1756" d="M1556 0H1502V1376L898 0H855L254 1369V0H200V1456H254H277L876 79L1477 1456H1556V0Z" />
<glyph unicode="N" glyph-name="N" horiz-adv-x="1449" d="M1195 0L255 1364V0H200V1456H255L1195 95V1456H1249V0H1195Z" />
<glyph unicode="O" glyph-name="O" horiz-adv-x="1364" d="M1231 430T1164 285T972 60T683 -20Q518 -20 394 60T201 285T133 619V837Q133 1026 200 1171T392 1396T681 1476Q846 1476 971 1396T1163 1171T1231 837V619Q1231 430 1164 285ZM1177 1010T1118 1142T947
1348T681 1422Q528 1422 417 1348T247 1142T188 839V619Q188 447 247 315T418 108T683 34Q837 34 948 108T1118 314T1177 619V839Q1177 1010 1118 1142Z" />
<glyph unicode="P" glyph-name="P" horiz-adv-x="1230" d="M807 1456T912 1404T1071 1256T1125 1031Q1125 902 1072 809T914 665T655 615H254V0H200V1456H655Q807 1456 912 1404ZM796 669T889 716T1027 845T1071 1029Q1071 1136 1027 1220T890 1353T655 1402H254V669H655Q796
669 889 716Z" />
<glyph unicode="Q" glyph-name="Q" horiz-adv-x="1364" d="M1231 411T1150 258T924 33L1191 -228L1152 -263L869 10Q784 -20 683 -20Q518 -20 394 60T201 285T133 619V837Q133 1026 200 1171T392 1396T681 1476Q846 1476 971 1396T1163 1171T1231 837V619Q1231
411 1150 258ZM837 34T948 108T1118 314T1177 619V839Q1177 1010 1118 1142T947 1348T681 1422Q528 1422 417 1348T247 1142T188 839V619Q188 447 247 315T418 108T683 34Q837 34 948 108Z" />
<glyph unicode="R" glyph-name="R" horiz-adv-x="1340" d="M1198 14V0H1141L754 623H249V0H195V1456H659Q799 1456 907 1407T1076 1263T1137 1036Q1137 935 1094 850T976 710T809 637L1198 14ZM708 677Q827 677 912 727T1040 860T1083 1036Q1083 1149 1031 1231T884
1358T659 1402H249V677H708Z" />
<glyph unicode="S" glyph-name="S" horiz-adv-x="1211" d="M458 763T357 811T199 933T143 1120Q143 1228 205 1309T378 1433T626 1476Q766 1476 876 1422T1049 1271T1111 1046H1057Q1057 1153 1003 1238T851 1373T626 1422Q493 1422 396 1381T248 1272T197 1122Q197
1040 236 979T371 866T638 770Q797 729 902 678T1067 548T1127 351Q1127 236 1062 152T884 24T633 -20Q496 -20 375 22T175 161T96 411H150Q150 275 223 191T405 70T633 34Q760 34 860 74T1016 185T1072 349Q1072 442 1029 507T888 622T623 718Q458 763 357 811Z"
/>
<glyph unicode="T" glyph-name="T" horiz-adv-x="1224" d="M1169 1402H639V0H585V1402H55V1456H639H1169V1402Z" />
<glyph unicode="U" glyph-name="U" horiz-adv-x="1365" d="M1180 469Q1180 310 1116 200T940 35T683 -20Q538 -20 426 35T249 200T185 469V1456H239V469Q239 332 296 234T455 85T683 34Q810 34 910 85T1068 234T1126 469V1456H1180V469Z" />
<glyph unicode="V" glyph-name="V" horiz-adv-x="1223" d="M1189 1456L645 0H594H579L35 1456H94L583 142L612 54L641 142L1130 1456H1189Z" />
<glyph unicode="W" glyph-name="W" horiz-adv-x="1855" d="M1793 1456L1401 0H1341H1340L979 1214L929 1368L879 1214L515 0H464H454L61 1456H121L423 330L489 91L555 330L899 1456H957H959L1301 330L1366 90L1434 330L1734 1456H1793Z" />
<glyph unicode="X" glyph-name="X" horiz-adv-x="1223" d="M1081 1456H1149L645 743L1168 0H1101L611 701L119 0H54L577 743L73 1456H141L611 785L1081 1456Z" />
<glyph unicode="Y" glyph-name="Y" horiz-adv-x="1223" d="M1119 1456H1185L636 553V0H582V553L33 1456H105L609 602L1119 1456Z" />
<glyph unicode="Z" glyph-name="Z" horiz-adv-x="1224" d="M1130 54V0H111H94V44L1023 1403H134V1456H1072H1098V1418L168 54H1130Z" />
<glyph unicode="[" glyph-name="bracketleft" horiz-adv-x="439" d="M235 1610V-258H464V-312H181V1664H464V1610H235Z" />
<glyph unicode="\" glyph-name="backslash" horiz-adv-x="774" d="M115 1456L723 -125H665L57 1456H115Z" />
<glyph unicode="]" glyph-name="bracketright" horiz-adv-x="439" d="M275 1664V-312H-8V-258H220V1610H-8V1664H275Z" />
<glyph unicode="^" glyph-name="asciicircum" horiz-adv-x="849" d="M680 729L416 1382L150 729H91L390 1456H438H442L741 729H680Z" />
<glyph unicode="_" glyph-name="underscore" horiz-adv-x="845" d="M-1 -54V0H845V-54H-1Z" />
<glyph unicode="`" glyph-name="grave" horiz-adv-x="537" d="M344 1270L149 1536H215L403 1270H344Z" />
<glyph unicode="a" glyph-name="a" horiz-adv-x="1081" d="M905 157T912 99T933 9V0H871Q851 73 851 198Q792 102 684 41T425 -20Q326 -20 250 17T133 121T92 274Q92 371 152 445T325 562T592 604H851V762Q851 898 765 973T521 1048Q424 1048 345 1014T221 919T175
784L121 786Q121 870 173 942T316 1058T521 1102Q635 1102 721 1064T856 948T905 760V218Q905 157 912 99ZM578 33T687 101T851 292V549H595Q458 549 357 514T201 415T146 270Q146 205 181 151T281 65T425 33Q578 33 687 101Z" />
<glyph unicode="b" glyph-name="b" horiz-adv-x="1121" d="M718 1102T810 1036T950 846T999 552V531Q999 366 951 242T811 49T593 -20Q466 -20 372 32T224 171V0H170V1536H224V886Q278 987 371 1044T591 1102Q718 1102 810 1036ZM943 552Q943 699 904 810T787
985T592 1048Q434 1048 348 968T224 770V274Q264 165 357 100T594 34Q709 34 787 97T904 272T943 531V552Z" />
<glyph unicode="c" glyph-name="c" horiz-adv-x="1039" d="M940 328Q935 221 880 142T736 22T539 -20Q401 -20 302 48T150 238T97 520V562Q97 721 149 843T300 1033T537 1102Q644 1102 734 1059T879 930T940 725H886Q881 829 833 901T706 1011T537 1048Q409 1048
323 984T194 811T151 562V520Q151 380 193 271T323 98T539 34Q628 34 704 65T830 163T886 328H940Z" />
<glyph unicode="d" glyph-name="d" horiz-adv-x="1121" d="M951 1536V0H897V174Q844 85 750 33T528 -20Q402 -20 311 48T171 241T122 531V552Q122 722 170 846T311 1036T530 1102Q659 1102 751 1044T897 883V1536H951ZM669 34T762 98T897 269V775Q859 891 772
969T529 1048Q413 1048 335 985T217 811T178 552V531Q178 384 216 272T333 97T527 34Q669 34 762 98Z" />
<glyph unicode="e" glyph-name="e" horiz-adv-x="1032" d="M141 562V518Q141 385 196 274T348 98T561 33Q661 33 739 66T882 182L920 155Q863 73 774 27T561 -20Q430 -20 322 49T150 241T87 518V562Q87 717 148 840T313 1032T541 1102Q660 1102 753 1044T899 881T952
640V577H141V562ZM435 1048T349 994T211 844T145 631H898V644Q898 753 854 845T728 993T541 1048Q435 1048 349 994Z" />
<glyph unicode="f" glyph-name="f" horiz-adv-x="645" d="M431 1503T370 1433T308 1236V1082H594V1027H308V0H254V1027H66V1082H254V1236Q254 1390 329 1473T537 1557Q610 1557 665 1540L657 1488Q626 1496 601 1499T538 1503Q431 1503 370 1433Z" />
<glyph unicode="g" glyph-name="g" horiz-adv-x="1123" d="M950 1082V15Q950 -123 901 -224T760 -381T541 -436Q427 -436 338 -388T187 -254L225 -218Q290 -300 365 -341T539 -383Q712 -383 803 -277T895 15V172Q842 84 749 32T527 -20Q401 -20 310 48T170 241T121
531V552Q121 722 169 846T310 1036T529 1102Q657 1102 749 1045T895 885V1082H950ZM670 34T763 100T895 276V767Q859 886 773 967T528 1048Q412 1048 333 985T215 810T176 552V531Q176 384 215 272T332 97T526 34Q670 34 763 100Z" />
<glyph unicode="h" glyph-name="h" horiz-adv-x="1121" d="M779 1102T866 1006T954 700V0H900V700Q900 894 824 971T607 1049Q497 1049 418 993T292 856T226 693V0H172V1536H226V831Q277 951 378 1026T610 1102Q779 1102 866 1006Z" />
<glyph unicode="i" glyph-name="i" horiz-adv-x="422" d="M235 1476T251 1460T268 1420Q268 1397 252 1381T212 1365Q189 1365 173 1381T157 1420Q157 1443 173 1459T212 1476Q235 1476 251 1460ZM185 0V1082H239V0H185Z" />
<glyph unicode="j" glyph-name="j" horiz-adv-x="445" d="M241 1476T257 1460T274 1420Q274 1397 258 1381T218 1365Q195 1365 179 1381T163 1420Q163 1443 179 1459T218 1476Q241 1476 257 1460ZM240 -129Q240 -277 165 -357T-45 -437Q-94 -437 -143 -417L-140
-365Q-93 -383 -45 -383Q66 -383 126 -317T186 -129V1082H240V-129Z" />
<glyph unicode="k" glyph-name="k" horiz-adv-x="969" d="M883 0L385 585L383 583L226 449V0H172V1536H226V507L353 627L845 1082H922L425 622L953 0H883Z" />
<glyph unicode="l" glyph-name="l" horiz-adv-x="422" d="M185 0V1536H239V0H185Z" />
<glyph unicode="m" glyph-name="m" horiz-adv-x="1836" d="M1503 1102T1591 1006T1680 700V0H1626V700Q1626 892 1551 970T1337 1049Q1217 1049 1130 995T998 863T946 720V0H892V720Q892 902 815 975T596 1049Q484 1049 404 991T278 850T216 684V0H161V1082H216V827Q267
949 367 1025T599 1102Q739 1102 824 1040T935 846Q965 919 1022 977T1159 1068T1333 1102Q1503 1102 1591 1006Z" />
<glyph unicode="n" glyph-name="n" horiz-adv-x="1121" d="M779 1102T866 1006T954 700V0H900V700Q900 894 824 971T607 1049Q497 1049 418 993T292 856T226 693V0H172V1082H226V831Q277 951 378 1026T610 1102Q779 1102 866 1006Z" />
<glyph unicode="o" glyph-name="o" horiz-adv-x="1127" d="M90 719T150 842T317 1033T563 1102Q703 1102 810 1034T977 842T1037 562V520Q1037 363 978 240T811 49T565 -20Q426 -20 318 48T150 240T90 520V562Q90 719 150 842ZM144 389T194 278T340 100T565 34Q692
34 787 100T932 277T983 520V562Q983 691 933 802T787 980T563 1048Q436 1048 341 981T195 802T144 562V520Q144 389 194 278Z" />
<glyph unicode="p" glyph-name="p" horiz-adv-x="1121" d="M718 1102T810 1036T950 846T999 552V531Q999 366 951 242T811 49T593 -20Q466 -20 372 31T224 169V-416H170V745V1082H224V889Q279 989 371 1045T591 1102Q718 1102 810 1036ZM944 552Q944 698 905 810T787
985T592 1048Q436 1048 349 970T224 775V269Q265 162 358 98T594 34Q709 34 787 97T905 272T944 531V552Z" />
<glyph unicode="q" glyph-name="q" horiz-adv-x="1121" d="M951 1082V304V-416H897V168Q843 82 749 31T528 -20Q402 -20 311 48T171 241T122 531V552Q122 722 170 846T311 1036T530 1102Q657 1102 749 1046T897 889V1082H951ZM669 34T762 98T897 269V775Q858 888
770 968T529 1048Q413 1048 335 985T217 811T178 552V531Q178 384 216 272T333 97T527 34Q669 34 762 98Z" />
<glyph unicode="r" glyph-name="r" horiz-adv-x="685" d="M624 1102T655 1091L649 1043Q607 1049 579 1049Q434 1049 344 956T226 708V0H172V1082H226V857Q273 973 361 1037T579 1102Q624 1102 655 1091Z" />
<glyph unicode="s" glyph-name="s" horiz-adv-x="1019" d="M380 560T302 595T183 686T143 829Q143 905 187 967T313 1066T505 1102Q624 1102 711 1064T845 955T892 793H837Q837 861 798 919T684 1013T505 1048Q402 1048 333 1016T230 935T197 831Q197 770 222
727T318 647T525 579Q656 549 736 508T855 408T893 264Q893 181 847 117T714 16T513 -20Q386 -20 295 20T156 127T108 275H162Q171 147 273 91T513 34Q615 34 689 67T801 153T839 265Q839 460 509 532Q380 560 302 595Z" />
<glyph unicode="t" glyph-name="t" horiz-adv-x="648" d="M572 -8Q537 -20 459 -20Q386 -20 338 5T264 92T238 259V1027H38V1082H238V1374H293V1082H539V1027H293V259Q293 128 336 81T456 34Q496 34 563 43L572 -8Z" />
<glyph unicode="u" glyph-name="u" horiz-adv-x="1121" d="M952 1082V0H897V175Q847 82 754 31T524 -20Q356 -20 262 79T168 395V1082H222V393Q222 204 302 119T522 34Q691 34 782 113T897 321V1082H952Z" />
<glyph unicode="v" glyph-name="v" horiz-adv-x="978" d="M937 1082L516 0H465H463L43 1082H101L490 87L879 1082H937Z" />
<glyph unicode="w" glyph-name="w" horiz-adv-x="1550" d="M1456 1082L1141 0H1092H1087L820 813L769 1007L714 813L451 0H400H397L83 1082H145L366 313L425 80L499 313L742 1082H790H797L1039 313L1113 80L1173 313L1393 1082H1456Z" />
<glyph unicode="x" glyph-name="x" horiz-adv-x="978" d="M834 1082H902L522 555L922 0H855L488 508L122 0H55L455 555L75 1082H143L489 602L834 1082Z" />
<glyph unicode="y" glyph-name="y" horiz-adv-x="978" d="M944 1082L463 -180Q433 -258 408 -306T325 -395T178 -437Q159 -437 134 -434T98 -426L97 -375Q111 -378 133 -381T170 -384Q263 -384 316 -330T409 -170L474 6L43 1082H102L503 84L510 104L884 1082H944Z" />
<glyph unicode="z" glyph-name="z" horiz-adv-x="978" d="M930 54V0H102H87V44L798 1027H118V1082H846H871V1034L160 54H930Z" />
<glyph unicode="{" glyph-name="braceleft" horiz-adv-x="660" d="M377 -134T447 -240T662 -395L642 -441Q469 -386 396 -269T323 20V265Q323 397 262 470T73 543V586V609Q201 609 262 681T323 885V1132Q323 1303 396 1423T642 1597L657 1552Q514 1506 446 1397T377
1132V885Q377 765 326 683T166 576Q274 551 325 468T377 265V20Q377 -134 447 -240Z" />
<glyph unicode="|" glyph-name="bar" horiz-adv-x="406" d="M181 -270V1456H235V-270H181Z" />
<glyph unicode="}" glyph-name="braceright" horiz-adv-x="660" d="M338 754T399 682T588 609V566V543Q460 543 399 470T338 265V20Q338 -151 265 -269T19 -441L0 -395Q143 -346 213 -240T284 20V265Q284 385 336 468T495 576Q388 601 336 683T284 885V1132Q284
1288 216 1397T5 1552L19 1597Q192 1543 265 1424T338 1132V885Q338 754 399 682Z" />
<glyph unicode="~" glyph-name="asciitilde" horiz-adv-x="1412" d="M1246 668T1216 598T1125 485T977 443Q919 443 873 459T784 507T679 593Q599 665 548 692T428 720Q327 720 271 654T215 462H160Q160 550 189 620T278 732T428 774Q486 774 533 757T624 709T728
624Q806 553 859 525T977 496Q1080 496 1135 564T1190 753L1246 752Q1246 668 1216 598Z" />
<glyph unicode="&#xa1;" glyph-name="exclamdown" horiz-adv-x="406" d="M175 992T159 1008T142 1048Q142 1071 158 1087T198 1103Q221 1103 237 1087T253 1048Q253 1025 237 1009T198 992Q175 992 159 1008ZM233 696V-359H179V696H233Z" />
<glyph unicode="&#xa2;" glyph-name="cent" horiz-adv-x="1110" d="M665 34T741 65T867 163T923 328H977Q972 226 921 150T788 30T604 -19V-245H549V-19Q419 -12 326 57T183 246T134 520V562Q134 716 183 835T325 1025T549 1101V1318H604V1101Q704 1095 787 1050T921
922T977 725H923Q918 829 870 901T743 1011T574 1048Q446 1048 360 984T231 811T188 562V520Q188 380 230 271T360 98T576 34Q665 34 741 65Z" />
<glyph unicode="&#xa3;" glyph-name="sterling" horiz-adv-x="1150" d="M269 69T294 152T316 336L306 667H95V721H304L295 1039Q295 1175 340 1273T467 1424T661 1476Q779 1476 863 1428T991 1292T1035 1089H981Q981 1202 939 1277T824 1387T661 1422Q565 1422
495 1378T387 1247T349 1039L358 721H728V667H360L370 336Q375 140 303 54H1060L1061 0H99V54H219Q269 69 294 152Z" />
<glyph unicode="&#xa4;" glyph-name="currency" horiz-adv-x="1502" d="M1339 492T1302 387T1198 199L1380 13L1339 -27L1160 156Q1079 72 972 26T745 -20Q626 -20 520 26T331 154L154 -26L114 13L293 196Q224 279 187 384T149 608Q149 730 189 839T303 1032L114
1225L154 1264L342 1072Q422 1149 526 1191T745 1234Q860 1234 964 1192T1148 1071L1339 1265L1380 1225L1188 1029Q1260 945 1299 837T1339 608Q1339 492 1302 387ZM890 33T1014 110T1212 320T1285 608Q1285 764 1212 895T1015 1104T745 1181Q599 1181 475 1104T278
896T204 608Q204 452 277 320T475 111T745 33Q890 33 1014 110Z" />
<glyph unicode="&#xa5;" glyph-name="yen" horiz-adv-x="1038" d="M568 676H935V621H543V381H935V326H543V0H489V326H99V381H489V621H99V676H464L33 1456H95L487 738L512 687H521L547 738L938 1456H1000L568 676Z" />
<glyph unicode="&#xa6;" glyph-name="brokenbar" horiz-adv-x="398" d="M172 698V1456H226V698H172ZM172 482H226V-270H172V482Z" />
<glyph unicode="&#xa7;" glyph-name="section" horiz-adv-x="1223" d="M922 114T986 42T1050 -149Q1050 -257 995 -335T838 -454T600 -495Q471 -495 362 -453T184 -314T115 -64L169 -62Q169 -199 232 -283T392 -404T600 -441Q724 -441 813 -404T948 -302T995 -151Q995
-71 963 -17T847 81T607 166Q446 204 342 250T180 369T121 551Q121 659 197 730T408 823Q286 871 226 943T166 1129Q166 1233 221 1311T379 1433T618 1476Q760 1476 861 1426T1017 1280T1072 1045H1018Q1018 1151 971 1236T834 1372T618 1422Q485 1422 396 1384T264
1281T220 1132Q220 1047 253 993T370 895T616 804Q784 762 884 719T1039 608T1094 431Q1094 326 1013 255T790 164Q922 114 986 42ZM175 464T212 409T343 311T624 215L669 203Q677 200 693 196Q801 197 879 228T999 311T1040 428Q1040 512 999 569T862 671T590
766Q522 784 482 796Q380 792 311 759T209 673T175 553Q175 464 212 409Z" />
<glyph unicode="&#xa8;" glyph-name="dieresis" horiz-adv-x="906" d="M252 1477T268 1461T285 1421Q285 1398 269 1382T229 1366Q206 1366 190 1382T174 1421Q174 1444 190 1460T229 1477Q252 1477 268 1461ZM697 1477T713 1461T730 1421Q730 1398 714 1382T674
1366Q651 1366 635 1382T619 1421Q619 1444 635 1460T674 1477Q697 1477 713 1461Z" />
<glyph unicode="&#xa9;" glyph-name="copyright" horiz-adv-x="1666" d="M1027 1476T1189 1378T1447 1108T1543 729Q1543 521 1448 350T1189 79T833 -21Q640 -21 477 78T219 349T123 729Q123 936 218 1107T477 1377T833 1476Q1027 1476 1189 1378ZM1010 34T1160
127T1398 379T1487 729Q1487 919 1399 1078T1160 1329T833 1421Q656 1421 506 1329T268 1078T179 729Q179 539 267 380T506 127T833 34Q1010 34 1160 127ZM1124 462T1045 382T826 302Q732 302 659 350T546 487T506 689V768Q506 881 546 969T659 1106T826 1155Q965
1155 1045 1075T1125 842H1073Q1073 971 1010 1036T826 1102Q744 1102 684 1058T593 939T561 769V689Q561 595 592 520T684 401T826 357Q1072 357 1072 616H1124Q1124 462 1045 382Z" />
<glyph unicode="&#xaa;" glyph-name="ordfeminine" horiz-adv-x="898" d="M680 705Q663 757 658 824Q620 767 557 729T417 691Q298 691 233 747T168 900Q168 1009 252 1070T487 1132H657V1201Q657 1306 607 1364T458 1422Q346 1422 284 1377T221 1243H167Q167
1310 203 1363T306 1446T458 1476Q573 1476 642 1405T712 1200V886Q712 794 738 705H680ZM468 746T519 769T607 828T657 900V1078H488Q358 1078 290 1035T222 904Q222 830 269 788T418 746Q468 746 519 769Z" />
<glyph unicode="&#xab;" glyph-name="guillemotleft" horiz-adv-x="905" d="M216 781L510 401H440L145 771V784V790L440 1160H510L216 781ZM503 525L797 145H727L432 515V528V534L727 904H797L503 525Z" />
<glyph unicode="&#xac;" glyph-name="logicalnot" horiz-adv-x="1101" d="M915 753V700V396H861V700H122V753H915Z" />
<glyph unicode="&#xad;" glyph-name="uni00AD" horiz-adv-x="600" d="M61 639V693H531V639H61Z" />
<glyph unicode="&#xae;" glyph-name="registered" horiz-adv-x="1674" d="M1019 1476T1181 1378T1439 1108T1535 729Q1535 521 1440 350T1181 79T825 -21Q631 -21 469 78T211 349T115 729Q115 937 210 1108T468 1377T825 1476Q1019 1476 1181 1378ZM1002 34T1152
127T1390 379T1479 729Q1479 919 1391 1078T1152 1329T825 1421Q648 1421 498 1329T259 1078T170 729Q170 539 258 380T497 127T825 34Q1002 34 1152 127ZM1121 843T1081 792T967 710Q1100 670 1100 505V469Q1100 388 1117 342V326H1058Q1044 360 1044 470V504Q1044
598 1003 638T860 678H648V326H593V1156H832Q976 1156 1048 1096T1121 916Q1121 843 1081 792ZM912 734T960 755T1037 817T1066 917Q1066 981 1044 1021T971 1081T832 1101H648V734H853Q912 734 960 755Z" />
<glyph unicode="&#xaf;" glyph-name="overscore" horiz-adv-x="811" d="M132 1383V1436H699V1383H132Z" />
<glyph unicode="&#xb0;" glyph-name="degree" horiz-adv-x="783" d="M454 1476T507 1444T592 1356T624 1236Q624 1171 593 1117T508 1031T392 999Q328 999 274 1030T188 1116T156 1236Q156 1300 188 1355T274 1443T392 1476Q454 1476 507 1444ZM442 1055T482 1078T545
1143T568 1236Q568 1289 546 1331T483 1397T392 1421Q341 1421 300 1397T235 1331T211 1236Q211 1184 234 1143T299 1079T392 1055Q442 1055 482 1078Z" />
<glyph unicode="&#xb1;" glyph-name="plusminus" horiz-adv-x="1077" d="M988 805V751H569V289H515V751H72V805H515V1267H569V805H988ZM122 53H957V-1H122V53Z" />
<glyph unicode="&#xb2;" glyph-name="uni00B2" horiz-adv-x="728" d="M108 664V708L398 1003Q480 1084 515 1141T551 1247Q551 1325 501 1370T356 1415Q253 1415 197 1363T140 1226H86Q86 1291 119 1345T213 1432T356 1464Q469 1464 537 1407T605 1248Q605 1182
560 1117T426 961L175 713H651V664H108Z" />
<glyph unicode="&#xb3;" glyph-name="uni00B3" horiz-adv-x="728" d="M548 1048T592 998T637 875Q637 806 602 756T506 680T367 653Q294 653 229 678T122 755T80 881H134Q134 829 164 788T247 724T367 701Q469 701 526 747T583 874Q583 960 518 1000T341 1041H270V1080V1090H341Q412
1090 462 1111T538 1168T564 1249Q564 1322 513 1368T362 1415Q302 1415 254 1395T178 1336T150 1246H97Q97 1310 132 1359T228 1436T362 1464Q480 1464 549 1406T618 1246Q618 1188 577 1140T464 1068Q548 1048 592 998Z" />
<glyph unicode="&#xb4;" glyph-name="acute" horiz-adv-x="511" d="M381 1536L186 1270H126L315 1536H381Z" />
<glyph unicode="&#xb6;" glyph-name="paragraph" horiz-adv-x="946" d="M716 520H591Q435 520 324 580T156 746T99 988Q99 1124 156 1230T324 1396T591 1456H770V0H716V520Z" />
<glyph unicode="&#xb7;" glyph-name="middot" horiz-adv-x="472" d="M257 762T273 746T290 706Q290 683 274 667T234 651Q211 651 195 667T179 706Q179 729 195 745T234 762Q257 762 273 746Z" />
<glyph unicode="&#xb8;" glyph-name="cedilla" horiz-adv-x="490" d="M196 -76Q274 -84 323 -123T373 -245Q373 -302 339 -345T240 -411T88 -435L81 -386Q138 -386 192 -371T282 -324T318 -245Q318 -202 297 -178T236 -141T129 -121L154 0H207L196 -76Z" />
<glyph unicode="&#xb9;" glyph-name="uni00B9" horiz-adv-x="728" d="M379 664V1386L131 1305V1358L424 1455H433V664H379Z" />
<glyph unicode="&#xba;" glyph-name="ordmasculine" horiz-adv-x="914" d="M148 1238T185 1314T291 1433T452 1476Q545 1476 614 1434T720 1315T757 1141V1024Q757 927 720 851T615 733T454 690Q361 690 292 732T185 851T148 1024V1141Q148 1238 185 1314ZM202
900T265 822T454 744Q535 744 591 781T676 881T704 1024V1141Q704 1220 676 1283T591 1384T452 1422Q371 1422 315 1385T230 1284T202 1141V1024Q202 900 265 822Z" />
<glyph unicode="&#xbb;" glyph-name="guillemotright" horiz-adv-x="897" d="M492 560V547V541L198 171H128L422 551L128 940H198L492 560ZM782 560V547V541L488 171H418L712 551L418 940H488L782 560Z" />
<glyph unicode="&#xbf;" glyph-name="questiondown" horiz-adv-x="912" d="M460 990T444 1006T427 1046Q427 1069 443 1085T483 1101Q506 1101 522 1085T538 1046Q538 1023 522 1007T483 990Q460 990 444 1006ZM513 612T506 572T474 495T389 403Q305 323 263 274T191
153T162 -17Q162 -164 239 -246T461 -328Q555 -328 622 -290T724 -182T762 -21H816Q815 -138 768 -219T641 -340T461 -381Q351 -381 272 -335T150 -207T108 -15Q108 82 138 160T223 303T361 445Q409 482 430 516T455 588T460 695H514Q513 612 506 572Z" />
<glyph unicode="&#xc0;" glyph-name="Agrave" horiz-adv-x="1223" d="M968 435H254L92 0H33L578 1456H630H644L1189 0H1130L968 435ZM948 489L611 1391L274 489H948ZM607 1589L412 1855H478L666 1589H607Z" />
<glyph unicode="&#xc1;" glyph-name="Aacute" horiz-adv-x="1223" d="M968 435H254L92 0H33L578 1456H630H644L1189 0H1130L968 435ZM948 489L611 1391L274 489H948ZM821 1855L626 1589H566L755 1855H821Z" />
<glyph unicode="&#xc2;" glyph-name="Acircumflex" horiz-adv-x="1223" d="M968 435H254L92 0H33L578 1456H630H644L1189 0H1130L968 435ZM948 489L611 1391L274 489H948ZM866 1583H798L611 1779L426 1583H362V1597L592 1836H632L866 1593V1583Z" />
<glyph unicode="&#xc3;" glyph-name="Atilde" horiz-adv-x="1223" d="M968 435H254L92 0H33L578 1456H630H644L1189 0H1130L968 435ZM948 489L611 1391L274 489H948ZM940 1752T917 1710T853 1644T764 1620Q713 1620 680 1637T605 1687Q569 1716 542 1730T477 1745Q424
1745 390 1713T356 1620H301Q301 1674 324 1714T387 1777T477 1799Q526 1799 560 1782T637 1732Q675 1703 702 1689T764 1675Q816 1675 850 1710T885 1806H940Q940 1752 917 1710Z" />
<glyph unicode="&#xc4;" glyph-name="Adieresis" horiz-adv-x="1223" d="M968 435H254L92 0H33L578 1456H630H644L1189 0H1130L968 435ZM948 489L611 1391L274 489H948ZM414 1796T430 1780T447 1740Q447 1717 431 1701T391 1685Q368 1685 352 1701T336 1740Q336
1763 352 1779T391 1796Q414 1796 430 1780ZM859 1796T875 1780T892 1740Q892 1717 876 1701T836 1685Q813 1685 797 1701T781 1740Q781 1763 797 1779T836 1796Q859 1796 875 1780Z" />
<glyph unicode="&#xc5;" glyph-name="Aring" horiz-adv-x="1223" d="M968 435H254L92 0H33L578 1456H630H644L1189 0H1130L968 435ZM948 489L611 1391L274 489H948ZM661 1875T700 1852T762 1789T785 1701Q785 1653 762 1614T700 1553T614 1531Q567 1531 528 1553T466
1614T443 1701Q443 1749 465 1789T527 1852T614 1875Q661 1875 700 1852ZM665 1585T698 1617T731 1701Q731 1754 698 1787T614 1821Q563 1821 530 1788T497 1701Q497 1650 530 1618T614 1585Q665 1585 698 1617Z" />
<glyph unicode="&#xc6;" glyph-name="AE" horiz-adv-x="1816" d="M1768 54V0H1035H1016L998 425H371L115 0H50L931 1456H974H1009H1707V1402H1011L1037 786H1625V732H1039L1068 54H1768ZM996 478L957 1399L403 478H996Z" />
<glyph unicode="&#xc7;" glyph-name="Ccedilla" horiz-adv-x="1327" d="M1093 34T1136 446H1190Q1169 224 1042 107T705 -19L695 -86Q773 -94 822 -133T872 -255Q872 -312 838 -355T739 -421T587 -445L580 -396Q637 -396 691 -381T781 -334T817 -255Q817 -212
796 -188T735 -151T628 -131L651 -20Q498 -15 384 66T207 291T144 619V837Q144 1026 209 1171T393 1396T671 1476Q895 1476 1031 1359T1190 1012H1136Q1113 1213 995 1317T671 1422Q531 1422 424 1350T257 1145T198 839V619Q198 444 257 312T423 107T671 34Q1093
34 1136 446Z" />
<glyph unicode="&#xc8;" glyph-name="Egrave" horiz-adv-x="1166" d="M254 1402V776H984V722H254V54H1086V0H219H200V1456H254H1086V1402H254ZM614 1589L419 1855H485L673 1589H614Z" />
<glyph unicode="&#xc9;" glyph-name="Eacute" horiz-adv-x="1166" d="M254 1402V776H984V722H254V54H1086V0H219H200V1456H254H1086V1402H254ZM828 1855L633 1589H573L762 1855H828Z" />
<glyph unicode="&#xca;" glyph-name="Ecircumflex" horiz-adv-x="1166" d="M254 1402V776H984V722H254V54H1086V0H219H200V1456H254H1086V1402H254ZM873 1583H805L618 1779L433 1583H369V1597L599 1836H639L873 1593V1583Z" />
<glyph unicode="&#xcb;" glyph-name="Edieresis" horiz-adv-x="1166" d="M254 1402V776H984V722H254V54H1086V0H219H200V1456H254H1086V1402H254ZM421 1796T437 1780T454 1740Q454 1717 438 1701T398 1685Q375 1685 359 1701T343 1740Q343 1763 359 1779T398 1796Q421
1796 437 1780ZM866 1796T882 1780T899 1740Q899 1717 883 1701T843 1685Q820 1685 804 1701T788 1740Q788 1763 804 1779T843 1796Q866 1796 882 1780Z" />
<glyph unicode="&#xcc;" glyph-name="Igrave" horiz-adv-x="534" d="M240 0V1456H294V0H240ZM263 1589L68 1855H134L322 1589H263Z" />
<glyph unicode="&#xcd;" glyph-name="Iacute" horiz-adv-x="534" d="M240 0V1456H294V0H240ZM477 1855L282 1589H222L411 1855H477Z" />
<glyph unicode="&#xce;" glyph-name="Icircumflex" horiz-adv-x="534" d="M240 0V1456H294V0H240ZM522 1583H454L267 1779L82 1583H18V1597L248 1836H288L522 1593V1583Z" />
<glyph unicode="&#xcf;" glyph-name="Idieresis" horiz-adv-x="534" d="M240 0V1456H294V0H240ZM70 1796T86 1780T103 1740Q103 1717 87 1701T47 1685Q24 1685 8 1701T-8 1740Q-8 1763 8 1779T47 1796Q70 1796 86 1780ZM515 1796T531 1780T548 1740Q548 1717 532
1701T492 1685Q469 1685 453 1701T437 1740Q437 1763 453 1779T492 1796Q515 1796 531 1780Z" />
<glyph unicode="&#xd0;" glyph-name="Eth" horiz-adv-x="1340" d="M774 1456T911 1375T1126 1149T1204 817V639Q1204 453 1126 308T911 81T603 0H248H200V713H60V767H200V1456H254H603Q774 1456 911 1375ZM1150 820Q1150 987 1079 1119T883 1327T603 1402H254V767H647V713H254V54H603Q758
54 883 129T1079 337T1150 639V820Z" />
<glyph unicode="&#xd1;" glyph-name="Ntilde" horiz-adv-x="1449" d="M1195 0L255 1364V0H200V1456H255L1195 95V1456H1249V0H1195ZM1054 1752T1031 1710T967 1644T878 1620Q827 1620 794 1637T719 1687Q683 1716 656 1730T591 1745Q538 1745 504 1713T470 1620H415Q415
1674 438 1714T501 1777T591 1799Q640 1799 674 1782T751 1732Q789 1703 816 1689T878 1675Q930 1675 964 1710T999 1806H1054Q1054 1752 1031 1710Z" />
<glyph unicode="&#xd2;" glyph-name="Ograve" horiz-adv-x="1364" d="M1231 430T1164 285T972 60T683 -20Q518 -20 394 60T201 285T133 619V837Q133 1026 200 1171T392 1396T681 1476Q846 1476 971 1396T1163 1171T1231 837V619Q1231 430 1164 285ZM1177 1010T1118
1142T947 1348T681 1422Q528 1422 417 1348T247 1142T188 839V619Q188 447 247 315T418 108T683 34Q837 34 948 108T1118 314T1177 619V839Q1177 1010 1118 1142ZM671 1610L476 1876H542L730 1610H671Z" />
<glyph unicode="&#xd3;" glyph-name="Oacute" horiz-adv-x="1364" d="M1231 430T1164 285T972 60T683 -20Q518 -20 394 60T201 285T133 619V837Q133 1026 200 1171T392 1396T681 1476Q846 1476 971 1396T1163 1171T1231 837V619Q1231 430 1164 285ZM1177 1010T1118
1142T947 1348T681 1422Q528 1422 417 1348T247 1142T188 839V619Q188 447 247 315T418 108T683 34Q837 34 948 108T1118 314T1177 619V839Q1177 1010 1118 1142ZM885 1876L690 1610H630L819 1876H885Z" />
<glyph unicode="&#xd4;" glyph-name="Ocircumflex" horiz-adv-x="1364" d="M1231 430T1164 285T972 60T683 -20Q518 -20 394 60T201 285T133 619V837Q133 1026 200 1171T392 1396T681 1476Q846 1476 971 1396T1163 1171T1231 837V619Q1231 430 1164 285ZM1177
1010T1118 1142T947 1348T681 1422Q528 1422 417 1348T247 1142T188 839V619Q188 447 247 315T418 108T683 34Q837 34 948 108T1118 314T1177 619V839Q1177 1010 1118 1142ZM930 1604H862L675 1800L490 1604H426V1618L656 1857H696L930 1614V1604Z" />
<glyph unicode="&#xd5;" glyph-name="Otilde" horiz-adv-x="1364" d="M1231 430T1164 285T972 60T683 -20Q518 -20 394 60T201 285T133 619V837Q133 1026 200 1171T392 1396T681 1476Q846 1476 971 1396T1163 1171T1231 837V619Q1231 430 1164 285ZM1177 1010T1118
1142T947 1348T681 1422Q528 1422 417 1348T247 1142T188 839V619Q188 447 247 315T418 108T683 34Q837 34 948 108T1118 314T1177 619V839Q1177 1010 1118 1142ZM1004 1773T981 1731T917 1665T828 1641Q777 1641 744 1658T669 1708Q633 1737 606 1751T541 1766Q488
1766 454 1734T420 1641H365Q365 1695 388 1735T451 1798T541 1820Q590 1820 624 1803T701 1753Q739 1724 766 1710T828 1696Q880 1696 914 1731T949 1827H1004Q1004 1773 981 1731Z" />
<glyph unicode="&#xd6;" glyph-name="Odieresis" horiz-adv-x="1364" d="M1231 430T1164 285T972 60T683 -20Q518 -20 394 60T201 285T133 619V837Q133 1026 200 1171T392 1396T681 1476Q846 1476 971 1396T1163 1171T1231 837V619Q1231 430 1164 285ZM1177 1010T1118
1142T947 1348T681 1422Q528 1422 417 1348T247 1142T188 839V619Q188 447 247 315T418 108T683 34Q837 34 948 108T1118 314T1177 619V839Q1177 1010 1118 1142ZM478 1817T494 1801T511 1761Q511 1738 495 1722T455 1706Q432 1706 416 1722T400 1761Q400 1784
416 1800T455 1817Q478 1817 494 1801ZM923 1817T939 1801T956 1761Q956 1738 940 1722T900 1706Q877 1706 861 1722T845 1761Q845 1784 861 1800T900 1817Q923 1817 939 1801Z" />
<glyph unicode="&#xd7;" glyph-name="multiply" horiz-adv-x="1052" d="M905 -1L521 390L137 -1L98 36L483 429L125 793L164 832L521 468L877 832L916 793L559 429L944 36L905 -1Z" />
<glyph unicode="&#xd8;" glyph-name="Oslash" horiz-adv-x="1364" d="M1101 1275Q1164 1192 1197 1080T1231 837V619Q1231 430 1164 285T972 60T683 -20Q487 -20 349 92L243 -75H177L307 130Q223 215 178 340T133 619V837Q133 1026 200 1171T392 1396T681 1476Q797
1476 894 1436T1063 1320L1174 1495H1240L1101 1275ZM188 481T226 368T337 177L1034 1274Q969 1345 880 1383T681 1422Q528 1422 417 1348T247 1142T188 839V619Q188 481 226 368ZM1177 954T1150 1053T1070 1227L378 138Q502 34 683 34Q837 34 948 108T1118 314T1177
619V839Q1177 954 1150 1053Z" />
<glyph unicode="&#xd9;" glyph-name="Ugrave" horiz-adv-x="1365" d="M1180 469Q1180 310 1116 200T940 35T683 -20Q538 -20 426 35T249 200T185 469V1456H239V469Q239 332 296 234T455 85T683 34Q810 34 910 85T1068 234T1126 469V1456H1180V469ZM692 1589L497
1855H563L751 1589H692Z" />
<glyph unicode="&#xda;" glyph-name="Uacute" horiz-adv-x="1365" d="M1180 469Q1180 310 1116 200T940 35T683 -20Q538 -20 426 35T249 200T185 469V1456H239V469Q239 332 296 234T455 85T683 34Q810 34 910 85T1068 234T1126 469V1456H1180V469ZM906 1855L711
1589H651L840 1855H906Z" />
<glyph unicode="&#xdb;" glyph-name="Ucircumflex" horiz-adv-x="1365" d="M1180 469Q1180 310 1116 200T940 35T683 -20Q538 -20 426 35T249 200T185 469V1456H239V469Q239 332 296 234T455 85T683 34Q810 34 910 85T1068 234T1126 469V1456H1180V469ZM951 1583H883L696
1779L511 1583H447V1597L677 1836H717L951 1593V1583Z" />
<glyph unicode="&#xdc;" glyph-name="Udieresis" horiz-adv-x="1365" d="M1180 469Q1180 310 1116 200T940 35T683 -20Q538 -20 426 35T249 200T185 469V1456H239V469Q239 332 296 234T455 85T683 34Q810 34 910 85T1068 234T1126 469V1456H1180V469ZM499 1796T515
1780T532 1740Q532 1717 516 1701T476 1685Q453 1685 437 1701T421 1740Q421 1763 437 1779T476 1796Q499 1796 515 1780ZM944 1796T960 1780T977 1740Q977 1717 961 1701T921 1685Q898 1685 882 1701T866 1740Q866 1763 882 1779T921 1796Q944 1796 960 1780Z"
/>
<glyph unicode="&#xdd;" glyph-name="Yacute" horiz-adv-x="1223" d="M1119 1456H1185L636 553V0H582V553L33 1456H105L609 602L1119 1456ZM817 1844L622 1578H562L751 1844H817Z" />
<glyph unicode="&#xde;" glyph-name="Thorn" horiz-adv-x="1219" d="M767 1143T868 1091T1022 947T1075 738Q1075 620 1023 529T869 386T625 334H254V0H200V1456H254V1143H625Q767 1143 868 1091ZM758 388T847 438T978 568T1021 736Q1021 828 979 908T848 1039T625
1089H254V388H625Q758 388 847 438Z" />
<glyph unicode="&#xdf;" glyph-name="germandbls" horiz-adv-x="1183" d="M164 0V1143Q164 1333 249 1434T493 1535Q573 1535 644 1500T760 1402T804 1257Q804 1195 790 1152T747 1054Q717 997 701 949T685 829Q685 784 707 746T763 677T855 602Q922 550 963 511T1033
419T1062 297Q1062 201 1007 129T866 18T695 -21Q608 -21 516 5T383 68L408 117Q450 84 530 58T687 32Q779 32 852 69T966 170T1008 306Q1008 359 983 402T922 478T824 559Q760 608 722 643T658 725T631 831Q631 902 646 950T690 1061Q717 1116 730 1158T744 1259Q744
1320 710 1371T620 1451T503 1481Q218 1481 218 1143V0H164Z" />
<glyph unicode="&#xe0;" glyph-name="agrave" horiz-adv-x="1081" d="M905 157T912 99T933 9V0H871Q851 73 851 198Q792 102 684 41T425 -20Q326 -20 250 17T133 121T92 274Q92 371 152 445T325 562T592 604H851V762Q851 898 765 973T521 1048Q424 1048 345 1014T221
919T175 784L121 786Q121 870 173 942T316 1058T521 1102Q635 1102 721 1064T856 948T905 760V218Q905 157 912 99ZM578 33T687 101T851 292V549H595Q458 549 357 514T201 415T146 270Q146 205 181 151T281 65T425 33Q578 33 687 101ZM572 1269L377 1535H443L631
1269H572Z" />
<glyph unicode="&#xe1;" glyph-name="aacute" horiz-adv-x="1081" d="M905 157T912 99T933 9V0H871Q851 73 851 198Q792 102 684 41T425 -20Q326 -20 250 17T133 121T92 274Q92 371 152 445T325 562T592 604H851V762Q851 898 765 973T521 1048Q424 1048 345 1014T221
919T175 784L121 786Q121 870 173 942T316 1058T521 1102Q635 1102 721 1064T856 948T905 760V218Q905 157 912 99ZM578 33T687 101T851 292V549H595Q458 549 357 514T201 415T146 270Q146 205 181 151T281 65T425 33Q578 33 687 101ZM786 1535L591 1269H531L720
1535H786Z" />
<glyph unicode="&#xe2;" glyph-name="acircumflex" horiz-adv-x="1081" d="M905 157T912 99T933 9V0H871Q851 73 851 198Q792 102 684 41T425 -20Q326 -20 250 17T133 121T92 274Q92 371 152 445T325 562T592 604H851V762Q851 898 765 973T521 1048Q424 1048 345
1014T221 919T175 784L121 786Q121 870 173 942T316 1058T521 1102Q635 1102 721 1064T856 948T905 760V218Q905 157 912 99ZM578 33T687 101T851 292V549H595Q458 549 357 514T201 415T146 270Q146 205 181 151T281 65T425 33Q578 33 687 101ZM831 1263H763L576
1459L391 1263H327V1277L557 1516H597L831 1273V1263Z" />
<glyph unicode="&#xe3;" glyph-name="atilde" horiz-adv-x="1081" d="M905 157T912 99T933 9V0H871Q851 73 851 198Q792 102 684 41T425 -20Q326 -20 250 17T133 121T92 274Q92 371 152 445T325 562T592 604H851V762Q851 898 765 973T521 1048Q424 1048 345 1014T221
919T175 784L121 786Q121 870 173 942T316 1058T521 1102Q635 1102 721 1064T856 948T905 760V218Q905 157 912 99ZM578 33T687 101T851 292V549H595Q458 549 357 514T201 415T146 270Q146 205 181 151T281 65T425 33Q578 33 687 101ZM905 1432T882 1390T818 1324T729
1300Q678 1300 645 1317T570 1367Q534 1396 507 1410T442 1425Q389 1425 355 1393T321 1300H266Q266 1354 289 1394T352 1457T442 1479Q491 1479 525 1462T602 1412Q640 1383 667 1369T729 1355Q781 1355 815 1390T850 1486H905Q905 1432 882 1390Z" />
<glyph unicode="&#xe4;" glyph-name="adieresis" horiz-adv-x="1081" d="M905 157T912 99T933 9V0H871Q851 73 851 198Q792 102 684 41T425 -20Q326 -20 250 17T133 121T92 274Q92 371 152 445T325 562T592 604H851V762Q851 898 765 973T521 1048Q424 1048 345
1014T221 919T175 784L121 786Q121 870 173 942T316 1058T521 1102Q635 1102 721 1064T856 948T905 760V218Q905 157 912 99ZM578 33T687 101T851 292V549H595Q458 549 357 514T201 415T146 270Q146 205 181 151T281 65T425 33Q578 33 687 101ZM379 1732T395 1716T412
1676Q412 1653 396 1637T356 1621Q333 1621 317 1637T301 1676Q301 1699 317 1715T356 1732Q379 1732 395 1716ZM824 1732T840 1716T857 1676Q857 1653 841 1637T801 1621Q778 1621 762 1637T746 1676Q746 1699 762 1715T801 1732Q824 1732 840 1716Z" />
<glyph unicode="&#xe5;" glyph-name="aring" horiz-adv-x="1081" d="M905 157T912 99T933 9V0H871Q851 73 851 198Q792 102 684 41T425 -20Q326 -20 250 17T133 121T92 274Q92 371 152 445T325 562T592 604H851V762Q851 898 765 973T521 1048Q424 1048 345 1014T221
919T175 784L121 786Q121 870 173 942T316 1058T521 1102Q635 1102 721 1064T856 948T905 760V218Q905 157 912 99ZM578 33T687 101T851 292V549H595Q458 549 357 514T201 415T146 270Q146 205 181 151T281 65T425 33Q578 33 687 101ZM626 1555T665 1532T727 1469T750
1381Q750 1333 727 1294T665 1233T579 1211Q532 1211 493 1233T431 1294T408 1381Q408 1429 430 1469T492 1532T579 1555Q626 1555 665 1532ZM630 1265T663 1297T696 1381Q696 1434 663 1467T579 1501Q528 1501 495 1468T462 1381Q462 1330 495 1298T579 1265Q630
1265 663 1297Z" />
<glyph unicode="&#xe6;" glyph-name="ae" horiz-adv-x="1735" d="M870 564V500Q870 366 912 261T1044 95T1268 34Q1371 34 1455 68T1600 164L1630 122Q1566 57 1483 19T1268 -20Q1125 -20 1023 46T868 230V218H869Q842 159 786 105T644 16T448 -20Q336 -20 256
17T135 123T93 284Q93 388 142 466T288 587T523 630H813V720Q813 879 740 963T521 1048Q413 1048 335 1012T215 914T174 771L121 778Q121 871 170 945T310 1060T521 1102Q660 1102 749 1029T861 815Q914 948 1018 1025T1253 1102Q1378 1102 1469 1049T1608 896T1657
660V577H870V564ZM1147 1048T1065 994T934 846T873 632H1603V664Q1603 774 1563 861T1444 998T1253 1048Q1147 1048 1065 994ZM536 32T615 64T747 142T813 226V575H525Q401 575 316 536T190 429T148 280Q148 163 226 98T447 32Q536 32 615 64Z" />
<glyph unicode="&#xe7;" glyph-name="ccedilla" horiz-adv-x="1039" d="M628 34T704 65T830 163T886 328H940Q935 227 886 151T755 31T574 -19L564 -86Q642 -94 691 -133T741 -255Q741 -312 707 -355T608 -421T456 -445L449 -396Q506 -396 560 -381T650 -334T686
-255Q686 -212 665 -188T604 -151T497 -131L520 -20Q388 -15 293 54T147 244T97 520V562Q97 721 149 843T300 1033T537 1102Q644 1102 734 1059T879 930T940 725H886Q881 829 833 901T706 1011T537 1048Q409 1048 323 984T194 811T151 562V520Q151 380 193 271T323
98T539 34Q628 34 704 65Z" />
<glyph unicode="&#xe8;" glyph-name="egrave" horiz-adv-x="1032" d="M141 562V518Q141 385 196 274T348 98T561 33Q661 33 739 66T882 182L920 155Q863 73 774 27T561 -20Q430 -20 322 49T150 241T87 518V562Q87 717 148 840T313 1032T541 1102Q660 1102 753
1044T899 881T952 640V577H141V562ZM435 1048T349 994T211 844T145 631H898V644Q898 753 854 845T728 993T541 1048Q435 1048 349 994ZM562 1268L367 1534H433L621 1268H562Z" />
<glyph unicode="&#xe9;" glyph-name="eacute" horiz-adv-x="1032" d="M141 562V518Q141 385 196 274T348 98T561 33Q661 33 739 66T882 182L920 155Q863 73 774 27T561 -20Q430 -20 322 49T150 241T87 518V562Q87 717 148 840T313 1032T541 1102Q660 1102 753
1044T899 881T952 640V577H141V562ZM435 1048T349 994T211 844T145 631H898V644Q898 753 854 845T728 993T541 1048Q435 1048 349 994ZM776 1534L581 1268H521L710 1534H776Z" />
<glyph unicode="&#xea;" glyph-name="ecircumflex" horiz-adv-x="1032" d="M141 562V518Q141 385 196 274T348 98T561 33Q661 33 739 66T882 182L920 155Q863 73 774 27T561 -20Q430 -20 322 49T150 241T87 518V562Q87 717 148 840T313 1032T541 1102Q660 1102
753 1044T899 881T952 640V577H141V562ZM435 1048T349 994T211 844T145 631H898V644Q898 753 854 845T728 993T541 1048Q435 1048 349 994ZM821 1262H753L566 1458L381 1262H317V1276L547 1515H587L821 1272V1262Z" />
<glyph unicode="&#xeb;" glyph-name="edieresis" horiz-adv-x="1032" d="M141 562V518Q141 385 196 274T348 98T561 33Q661 33 739 66T882 182L920 155Q863 73 774 27T561 -20Q430 -20 322 49T150 241T87 518V562Q87 717 148 840T313 1032T541 1102Q660 1102 753
1044T899 881T952 640V577H141V562ZM435 1048T349 994T211 844T145 631H898V644Q898 753 854 845T728 993T541 1048Q435 1048 349 994ZM369 1731T385 1715T402 1675Q402 1652 386 1636T346 1620Q323 1620 307 1636T291 1675Q291 1698 307 1714T346 1731Q369 1731
385 1715ZM814 1731T830 1715T847 1675Q847 1652 831 1636T791 1620Q768 1620 752 1636T736 1675Q736 1698 752 1714T791 1731Q814 1731 830 1715Z" />
<glyph unicode="&#xec;" glyph-name="igrave" horiz-adv-x="406" d="M181 0V1082H235V0H181ZM204 1246L9 1512H75L263 1246H204Z" />
<glyph unicode="&#xed;" glyph-name="iacute" horiz-adv-x="406" d="M181 0V1082H235V0H181ZM418 1512L223 1246H163L352 1512H418Z" />
<glyph unicode="&#xee;" glyph-name="icircumflex" horiz-adv-x="406" d="M181 0V1082H235V0H181ZM463 1240H395L208 1436L23 1240H-41V1254L189 1493H229L463 1250V1240Z" />
<glyph unicode="&#xef;" glyph-name="idieresis" horiz-adv-x="406" d="M181 0V1082H235V0H181ZM11 1453T27 1437T44 1397Q44 1374 28 1358T-12 1342Q-35 1342 -51 1358T-67 1397Q-67 1420 -51 1436T-12 1453Q11 1453 27 1437ZM456 1453T472 1437T489 1397Q489
1374 473 1358T433 1342Q410 1342 394 1358T378 1397Q378 1420 394 1436T433 1453Q456 1453 472 1437Z" />
<glyph unicode="&#xf0;" glyph-name="eth" horiz-adv-x="1183" d="M923 1183T982 1013T1041 615V535Q1041 373 988 247T842 50T629 -20Q498 -20 394 44T232 219T173 465Q173 619 224 728T371 895T601 953Q716 953 817 908T978 780Q959 942 902 1064T752 1280L517
1149L489 1197L709 1320Q569 1441 338 1527L358 1577Q608 1486 760 1348L962 1461L991 1413L802 1308Q923 1183 982 1013ZM987 617Q987 654 986 672Q961 731 910 781T781 863T601 895Q475 895 391 839T268 686T228 465Q228 355 276 257T416 99T633 38Q740 38 820
101T943 278T987 535V617Z" />
<glyph unicode="&#xf1;" glyph-name="ntilde" horiz-adv-x="1121" d="M779 1102T866 1006T954 700V0H900V700Q900 894 824 971T607 1049Q497 1049 418 993T292 856T226 693V0H172V1082H226V831Q277 951 378 1026T610 1102Q779 1102 866 1006ZM906 1430T883 1388T819
1322T730 1298Q679 1298 646 1315T571 1365Q535 1394 508 1408T443 1423Q390 1423 356 1391T322 1298H267Q267 1352 290 1392T353 1455T443 1477Q492 1477 526 1460T603 1410Q641 1381 668 1367T730 1353Q782 1353 816 1388T851 1484H906Q906 1430 883 1388Z" />
<glyph unicode="&#xf2;" glyph-name="ograve" horiz-adv-x="1127" d="M90 719T150 842T317 1033T563 1102Q703 1102 810 1034T977 842T1037 562V520Q1037 363 978 240T811 49T565 -20Q426 -20 318 48T150 240T90 520V562Q90 719 150 842ZM144 389T194 278T340
100T565 34Q692 34 787 100T932 277T983 520V562Q983 691 933 802T787 980T563 1048Q436 1048 341 981T195 802T144 562V520Q144 389 194 278ZM562 1267L367 1533H433L621 1267H562Z" />
<glyph unicode="&#xf3;" glyph-name="oacute" horiz-adv-x="1127" d="M90 719T150 842T317 1033T563 1102Q703 1102 810 1034T977 842T1037 562V520Q1037 363 978 240T811 49T565 -20Q426 -20 318 48T150 240T90 520V562Q90 719 150 842ZM144 389T194 278T340
100T565 34Q692 34 787 100T932 277T983 520V562Q983 691 933 802T787 980T563 1048Q436 1048 341 981T195 802T144 562V520Q144 389 194 278ZM776 1533L581 1267H521L710 1533H776Z" />
<glyph unicode="&#xf4;" glyph-name="ocircumflex" horiz-adv-x="1127" d="M90 719T150 842T317 1033T563 1102Q703 1102 810 1034T977 842T1037 562V520Q1037 363 978 240T811 49T565 -20Q426 -20 318 48T150 240T90 520V562Q90 719 150 842ZM144 389T194 278T340
100T565 34Q692 34 787 100T932 277T983 520V562Q983 691 933 802T787 980T563 1048Q436 1048 341 981T195 802T144 562V520Q144 389 194 278ZM821 1261H753L566 1457L381 1261H317V1275L547 1514H587L821 1271V1261Z" />
<glyph unicode="&#xf5;" glyph-name="otilde" horiz-adv-x="1127" d="M90 719T150 842T317 1033T563 1102Q703 1102 810 1034T977 842T1037 562V520Q1037 363 978 240T811 49T565 -20Q426 -20 318 48T150 240T90 520V562Q90 719 150 842ZM144 389T194 278T340
100T565 34Q692 34 787 100T932 277T983 520V562Q983 691 933 802T787 980T563 1048Q436 1048 341 981T195 802T144 562V520Q144 389 194 278ZM895 1430T872 1388T808 1322T719 1298Q668 1298 635 1315T560 1365Q524 1394 497 1408T432 1423Q379 1423 345 1391T311
1298H256Q256 1352 279 1392T342 1455T432 1477Q481 1477 515 1460T592 1410Q630 1381 657 1367T719 1353Q771 1353 805 1388T840 1484H895Q895 1430 872 1388Z" />
<glyph unicode="&#xf6;" glyph-name="odieresis" horiz-adv-x="1127" d="M90 719T150 842T317 1033T563 1102Q703 1102 810 1034T977 842T1037 562V520Q1037 363 978 240T811 49T565 -20Q426 -20 318 48T150 240T90 520V562Q90 719 150 842ZM144 389T194 278T340
100T565 34Q692 34 787 100T932 277T983 520V562Q983 691 933 802T787 980T563 1048Q436 1048 341 981T195 802T144 562V520Q144 389 194 278ZM369 1730T385 1714T402 1674Q402 1651 386 1635T346 1619Q323 1619 307 1635T291 1674Q291 1697 307 1713T346 1730Q369
1730 385 1714ZM814 1730T830 1714T847 1674Q847 1651 831 1635T791 1619Q768 1619 752 1635T736 1674Q736 1697 752 1713T791 1730Q814 1730 830 1714Z" />
<glyph unicode="&#xf7;" glyph-name="divide" horiz-adv-x="1159" d="M607 1135T623 1119T640 1079Q640 1056 624 1040T584 1024Q561 1024 545 1040T529 1079Q529 1102 545 1118T584 1135Q607 1135 623 1119ZM73 686V738H1071V686H73ZM607 357T623 341T640 301Q640
278 624 262T584 246Q561 246 545 262T529 301Q529 324 545 340T584 357Q607 357 623 341Z" />
<glyph unicode="&#xf8;" glyph-name="oslash" horiz-adv-x="1121" d="M928 946T981 828T1034 562V520Q1034 363 975 240T808 49T562 -20Q448 -20 352 28L268 -145H205L303 57Q201 126 144 246T87 520V562Q87 719 147 842T314 1033T560 1102Q685 1102 784 1047L868
1219H931L832 1016Q928 946 981 828ZM141 391T189 282T328 107L759 996Q671 1048 560 1048Q433 1048 338 981T192 802T141 562V520Q141 391 189 282ZM980 562Q980 683 935 789T807 963L376 77Q462 34 562 34Q689 34 784 100T929 277T980 520V562Z" />
<glyph unicode="&#xf9;" glyph-name="ugrave" horiz-adv-x="1121" d="M952 1082V0H897V175Q847 82 754 31T524 -20Q356 -20 262 79T168 395V1082H222V393Q222 204 302 119T522 34Q691 34 782 113T897 321V1082H952ZM575 1270L380 1536H446L634 1270H575Z" />
<glyph unicode="&#xfa;" glyph-name="uacute" horiz-adv-x="1121" d="M952 1082V0H897V175Q847 82 754 31T524 -20Q356 -20 262 79T168 395V1082H222V393Q222 204 302 119T522 34Q691 34 782 113T897 321V1082H952ZM789 1536L594 1270H534L723 1536H789Z" />
<glyph unicode="&#xfb;" glyph-name="ucircumflex" horiz-adv-x="1121" d="M952 1082V0H897V175Q847 82 754 31T524 -20Q356 -20 262 79T168 395V1082H222V393Q222 204 302 119T522 34Q691 34 782 113T897 321V1082H952ZM834 1264H766L579 1460L394 1264H330V1278L560
1517H600L834 1274V1264Z" />
<glyph unicode="&#xfc;" glyph-name="udieresis" horiz-adv-x="1121" d="M952 1082V0H897V175Q847 82 754 31T524 -20Q356 -20 262 79T168 395V1082H222V393Q222 204 302 119T522 34Q691 34 782 113T897 321V1082H952ZM382 1477T398 1461T415 1421Q415 1398 399
1382T359 1366Q336 1366 320 1382T304 1421Q304 1444 320 1460T359 1477Q382 1477 398 1461ZM827 1477T843 1461T860 1421Q860 1398 844 1382T804 1366Q781 1366 765 1382T749 1421Q749 1444 765 1460T804 1477Q827 1477 843 1461Z" />
<glyph unicode="&#xfd;" glyph-name="yacute" horiz-adv-x="978" d="M944 1082L463 -180Q433 -258 408 -306T325 -395T178 -437Q159 -437 134 -434T98 -426L97 -375Q111 -378 133 -381T170 -384Q263 -384 316 -330T409 -170L474 6L43 1082H102L503 84L510 104L884
1082H944ZM728 1536L533 1270H473L662 1536H728Z" />
<glyph unicode="&#xfe;" glyph-name="thorn" horiz-adv-x="1121" d="M718 1102T810 1036T950 846T999 552V531Q999 366 951 242T811 49T593 -20Q466 -20 372 31T224 169V-416H170V745V1536H224V889Q279 989 371 1045T591 1102Q718 1102 810 1036ZM944 552Q944
698 905 810T787 985T592 1048Q436 1048 349 970T224 775V269Q265 162 358 98T594 34Q709 34 787 97T905 272T944 531V552Z" />
<glyph unicode="&#xff;" glyph-name="ydieresis" horiz-adv-x="978" d="M944 1082L463 -180Q433 -258 408 -306T325 -395T178 -437Q159 -437 134 -434T98 -426L97 -375Q111 -378 133 -381T170 -384Q263 -384 316 -330T409 -170L474 6L43 1082H102L503 84L510 104L884
1082H944ZM321 1477T337 1461T354 1421Q354 1398 338 1382T298 1366Q275 1366 259 1382T243 1421Q243 1444 259 1460T298 1477Q321 1477 337 1461ZM766 1477T782 1461T799 1421Q799 1398 783 1382T743 1366Q720 1366 704 1382T688 1421Q688 1444 704 1460T743 1477Q766
1477 782 1461Z" />
<glyph unicode="&#x2013;" glyph-name="endash" horiz-adv-x="1324" d="M156 721V775H1158V721H156Z" />
<glyph unicode="&#x2014;" glyph-name="emdash" horiz-adv-x="1561" d="M109 721V775H1445V721H109Z" />
<glyph unicode="&#x2018;" glyph-name="quoteleft" horiz-adv-x="320" d="M101 1441T207 1554L244 1522Q197 1461 176 1405T155 1274V1168H101V1272Q101 1441 207 1554Z" />
<glyph unicode="&#x2019;" glyph-name="quoteright" horiz-adv-x="320" d="M220 1264T114 1151L77 1183Q124 1244 145 1300T166 1431V1536H220V1433Q220 1264 114 1151Z" />
<glyph unicode="&#x201a;" glyph-name="quotesinglbase" horiz-adv-x="300" d="M190 -69T84 -182L47 -150Q94 -89 115 -33T136 98V228H190V100Q190 -69 84 -182Z" />
<glyph unicode="&#x201c;" glyph-name="quotedblleft" horiz-adv-x="500" d="M351 1441T457 1554L494 1522Q447 1461 426 1405T405 1274V1168H351V1272Q351 1441 457 1554ZM281 1441T387 1554L424 1522Q377 1461 356 1405T335 1274V1168H281V1272Q281 1441 387 1554Z" />
<glyph unicode="&#x201d;" glyph-name="quotedblright" horiz-adv-x="502" d="M220 1264T114 1151L77 1183Q124 1244 145 1300T166 1431V1536H220V1433Q220 1264 114 1151ZM402 1264T296 1151L259 1183Q306 1244 327 1300T348 1431V1536H402V1433Q402 1264 296 1151Z" />
<glyph unicode="&#x201e;" glyph-name="quotedblbase" horiz-adv-x="481" d="M190 -69T84 -182L47 -150Q94 -89 115 -33T136 98V228H190V100Q190 -69 84 -182ZM361 -69T255 -182L218 -150Q265 -89 286 -33T307 98V228H361V100Q361 -69 255 -182Z" />
<glyph unicode="&#x2022;" glyph-name="bullet" horiz-adv-x="635" d="M155 803T200 848T321 893Q398 893 443 848T489 733V703Q489 634 444 590T322 545Q246 545 201 589T155 703V733Q155 803 200 848Z" />
<glyph unicode="&#x2039;" glyph-name="guilsinglleft" horiz-adv-x="604" d="M179 561L473 181H403L108 551V564V570L403 940H473L179 561Z" />
<glyph unicode="&#x203a;" glyph-name="guilsinglright" horiz-adv-x="604" d="M470 560V547V541L176 171H106L400 551L106 940H176L470 560Z" />
</font>
</defs>
</svg>
