<?xml version="1.0" standalone="no"?>
<!DOCTYPE svg PUBLIC "-//W3C//DTD SVG 1.1//EN" "http://www.w3.org/Graphics/SVG/1.1/DTD/svg11.dtd">
<svg xmlns="http://www.w3.org/2000/svg">
<defs >
<font id="BowlbyOneSC" horiz-adv-x="1334" ><font-face
    font-family="Bowlby One SC"
    units-per-em="2048"
    panose-1="2 0 5 5 6 0 0 2 0 4"
    ascent="2248"
    descent="-876"
    alphabetic="0" />
<glyph unicode=" " glyph-name="space" horiz-adv-x="616" />
<glyph unicode="!" glyph-name="exclam" horiz-adv-x="792" d="M90 1462Q90 1496 260 1496H380Q528 1508 616 1508Q706 1508 706 1468L634 557Q633 547 623 540T596 529T559 524T516 522Q503 522 477 523T438 524Q411 524 359 522T280 520H194Q183 524 175 532T161
552T153 576T149 606T148 635T147 666L90 1462ZM121 0L112 152Q112 231 122 293T148 356H344Q448 356 510 354T604 348T646 337T656 320V4Q654 -6 629 -13T561 -24T471 -30T369 -33T273 -33T193 -33T146 -32V-16Q143 -13 133 -8T121 0Z" />
<glyph unicode="&quot;" glyph-name="quotedbl" horiz-adv-x="1284" d="M380 1508Q420 1512 452 1512Q600 1512 600 1476V1466Q612 1098 612 900Q612 861 597 852T536 842H180V1440Q180 1464 190 1484T214 1510Q242 1510 297 1509T380 1508ZM700 922V1444Q700
1469 710 1490T734 1512H1116V1480Q1128 1242 1128 896Q1128 873 1124 862T1104 850H988Q941 850 855 845T732 838V856Q729 860 722 868T711 883T704 899T700 922Z" />
<glyph unicode="#" glyph-name="numbersign" horiz-adv-x="1548" d="M224 440Q224 462 225 528T226 632Q226 654 244 661T296 668H412V812Q393 812 383 812T356 813T329 816T309 822T293 832T288 848Q288 885 290 961T292 1078Q292 1114 406 1114Q424 1114 449
1113T475 1111L522 1447Q523 1463 526 1473T539 1490T556 1501T586 1507T626 1509T680 1510H748Q783 1510 801 1504T826 1480Q815 1417 799 1291T772 1102H870V1252Q877 1333 897 1408T936 1502H1176Q1190 1502 1195 1501T1205 1495T1210 1478L1162 1104H1284Q1308
1102 1308 1032V860Q1308 818 1196 818Q1181 818 1165 819T1139 821T1126 822Q1122 795 1116 743T1106 664H1254V400Q1251 378 1232 378Q1206 378 1154 380T1074 382L1052 200Q1051 188 1051 152T1048 90T1035 35T999 -11T932 -28Q927 -28 899 -29T848 -30Q725
-30 718 8Q724 52 738 174T764 368Q750 366 724 366H684L652 84Q650 75 648 56T644 28T637 5T625 -16T604 -28T572 -34Q494 -34 350 -30L320 16L368 364H344Q261 364 243 374T224 440ZM668 648Q668 620 688 620H844L880 840Q877 868 852 868H804Q772 872 760 872H716V846Q710
816 692 750T668 648Z" />
<glyph unicode="$" glyph-name="dollar" horiz-adv-x="1444" d="M22 452Q22 488 90 488H596Q616 488 624 464T636 410T666 357T742 332Q795 332 831 357T868 432Q868 450 859 463T827 486T787 501T729 516T668 530L576 554Q291 623 174 728T56 1022Q56 1099 72
1164T115 1276T181 1363T262 1427T356 1474T452 1507T548 1530Q546 1548 546 1590V1664Q546 1666 546 1670Q546 1689 546 1699T552 1719T568 1732H648Q683 1732 748 1733T848 1734Q888 1734 888 1634Q888 1614 886 1577T884 1528Q1000 1519 1084 1492T1235 1412T1343
1273T1404 1064Q1401 1048 1388 1048Q1309 1048 1154 1043T920 1038Q887 1038 868 1051T842 1082T827 1119T798 1151T740 1164Q734 1163 718 1160T695 1156T674 1151T654 1143T639 1132T628 1116T624 1096Q624 1067 651 1048T711 1021T791 1004T860 988L966 962Q1141
919 1272 848Q1366 777 1415 676T1464 456Q1464 358 1431 278T1346 145T1218 51T1069 -13T908 -54V-156Q908 -168 912 -188V-224Q909 -260 868 -260H720Q620 -256 572 -252Q563 -247 552 -234T534 -216Q536 -206 536 -184V-150Q536 -113 533 -92T517 -60T497 -45T462
-37T420 -28Q220 26 127 144T22 452Z" />
<glyph unicode="%" glyph-name="percent" horiz-adv-x="2152" d="M18 1020Q18 1161 71 1276T231 1461T480 1532Q579 1532 656 1504T781 1430T858 1321T900 1193T912 1056Q912 968 899 893T852 747T767 628T635 549T452 520Q18 520 18 1020ZM366 1020Q366 1018
366 1013Q366 983 366 965T369 911T379 852T397 803T428 765T474 752T518 767T544 801T558 851T563 900T564 944V1108Q564 1147 562 1174T551 1232T523 1279T472 1296Q452 1295 437 1287T410 1262T391 1230T379 1188T371 1144T367 1098T366 1057T366 1020ZM528
-14Q620 154 781 447T1076 986T1330 1448L1376 1530Q1389 1543 1392 1544H1456Q1492 1544 1532 1543T1596 1539T1620 1536Q1567 1434 1344 996Q1121 599 808 -60Q795 -88 680 -88Q654 -88 612 -86T556 -84L528 -14ZM1236 460Q1244 566 1274 654T1359 811T1497 919T1688
958Q1754 958 1814 944T1935 893T2038 802T2109 658T2136 456Q2136 330 2100 231T2001 69T1854 -27T1670 -60Q1565 -60 1486 -29T1360 49T1285 165T1246 297T1236 434V460ZM1582 412Q1582 174 1692 174Q1786 174 1786 356Q1786 375 1785 414T1784 472V498Q1786
508 1786 532Q1786 565 1782 593T1768 651T1737 698T1686 716T1635 694T1604 645T1589 574T1583 506T1582 446V412Z" />
<glyph unicode="&amp;" glyph-name="ampersand" horiz-adv-x="1814" d="M1476 -32Q1359 -32 1297 -18T1172 40H1132Q918 -57 784 -68H696Q499 -68 344 -10T102 149T16 376Q16 670 376 804Q284 862 224 955T164 1148Q164 1245 208 1320T332 1440T516 1509T748 1532Q866
1532 971 1513T1169 1454T1317 1339T1372 1164Q1372 1049 1299 954T1088 764Q1140 718 1240 624Q1254 644 1262 678T1274 737T1300 781T1362 800H1480Q1504 800 1556 799T1636 798H1682Q1696 800 1726 800Q1743 797 1750 790T1760 764V724Q1749 613 1700 505T1568
312L1684 196Q1693 185 1739 143T1816 63T1848 0Q1848 -29 1810 -32H1476ZM520 400Q520 359 541 326T595 273T665 243T740 232Q842 232 960 296Q920 340 840 414T740 506L686 556Q650 588 644 588Q597 566 559 511T520 400ZM610 1144Q618 1091 668 1041T776 970Q779
970 782 971T788 972L836 1010Q875 1040 901 1079T928 1156Q928 1198 899 1226T833 1265T760 1276Q701 1276 656 1240T610 1144Z" />
<glyph unicode="&apos;" glyph-name="quotesingle" horiz-adv-x="802" d="M282 1508Q291 1508 336 1510T422 1512T506 1511T577 1500T604 1476Q605 1421 608 1217T612 902Q612 862 555 849T388 836H216Q194 850 178 872V1440Q178 1462 189 1483T216 1508H282Z" />
<glyph unicode="(" glyph-name="parenleft" horiz-adv-x="832" d="M124 614Q134 744 185 958T295 1336T380 1500Q384 1504 392 1504Q457 1507 766 1512Q779 1511 785 1504T796 1480L742 1276Q620 867 620 602Q631 300 748 -76L804 -276Q792 -297 786 -300V-324H712Q656
-324 548 -320T384 -316Q357 -306 304 -166Q245 19 242 28Q132 320 124 614Z" />
<glyph unicode=")" glyph-name="parenright" horiz-adv-x="834" d="M210 590Q211 678 201 769T166 969T125 1139T71 1327T24 1484V1524H432Q459 1524 476 1492L554 1278Q710 873 710 592Q710 457 660 268Q590 45 558 -54Q468 -303 448 -308H44Q44 -285 60 -248Q210
263 210 590Z" />
<glyph unicode="*" glyph-name="asterisk" horiz-adv-x="930" d="M372 740Q353 740 266 789T178 852Q178 862 188 882L234 970L256 1008Q245 1008 218 1007T180 1006H146Q96 1013 86 1035T76 1140Q76 1228 108 1248Q172 1248 268 1244L236 1296V1294L202 1354Q184
1394 182 1408Q182 1419 197 1430T228 1444L280 1478Q344 1518 368 1518Q383 1515 420 1448V1410V1412L472 1348V1376Q475 1380 485 1390T496 1404V1426Q505 1445 531 1479T568 1520L628 1492Q748 1434 748 1412Q748 1393 722 1352L694 1308Q677 1281 658 1240H684Q716
1248 738 1248H788Q794 1248 806 1249T824 1250T837 1245T848 1232T853 1206T856 1162Q856 1137 850 1104V1052Q850 1036 744 1029Q740 1029 738 1029T733 1029T726 1028H668L702 970Q711 958 714 944V912Q759 867 759 854L568 737L474 894L432 814Q429 808 424
799T417 785T411 774T405 764T399 756T393 749T387 744T380 741T372 740Z" />
<glyph unicode="+" glyph-name="plus" horiz-adv-x="1270" d="M84 448V476Q86 484 86 500Q86 521 85 562T84 624Q84 668 93 682T140 696H462V1016Q464 1052 474 1064T522 1076H702Q791 1076 798 1048Q798 987 797 868T796 688H1148Q1164 687 1170 676T1176 642Q1176
613 1175 555T1174 468V434Q1174 376 1160 376H790Q794 264 794 208V40Q794 8 779 -2T720 -12H476V358Q468 358 452 357T428 356Q416 356 388 357T344 358Q331 358 306 357T268 356Q243 356 193 357T118 358Q84 365 84 448Z" />
<glyph unicode="," glyph-name="comma" horiz-adv-x="734" d="M-7 -206L73 164Q97 276 124 360T165 444H521Q542 444 558 444T593 442T624 439T648 435T664 428T670 417L477 -216Q466 -240 255 -240H25L-7 -206Z" />
<glyph unicode="-" glyph-name="hyphen" horiz-adv-x="858" d="M36 360V642Q36 744 68 744Q446 744 640 746Q688 746 712 744H780Q808 739 808 610V396Q804 360 780 360Q659 360 424 350T72 340V360H36Z" />
<glyph unicode="." glyph-name="period" horiz-adv-x="774" d="M112 14V44Q112 59 113 91T114 144V196Q114 440 146 440H556Q652 440 652 412Q656 220 656 118V84Q656 77 657 63T658 40Q658 -16 636 -16H144L112 14Z" />
<glyph unicode="/" glyph-name="slash" horiz-adv-x="804" d="M-48 8Q-40 36 -34 50Q223 756 518 1532Q524 1548 612 1548Q643 1548 690 1546T746 1544H780Q812 1544 826 1537T840 1510Q840 1489 829 1455T800 1374T776 1310Q525 564 468 396L356 90Q351 76 344
51T332 14T317 -16T292 -43T252 -59T192 -68H152Q128 -72 88 -72H-14Q-25 -51 -48 8Z" />
<glyph unicode="0" glyph-name="zero" horiz-adv-x="1462" d="M708 -56Q595 -56 503 -35T342 24T222 118T135 239T76 387T40 553T20 736Q20 1495 720 1550Q841 1550 941 1523T1113 1449T1239 1337T1327 1198T1381 1042T1410 880T1418 720Q1418 530 1364 381T1213
137T988 -7T708 -56ZM556 696Q556 657 557 627T561 554T571 478T588 410T616 352T656 315T712 300Q747 300 774 315T819 351T849 409T867 474T876 549T879 620T880 687Q880 696 880 700Q884 734 884 806Q884 811 884 846T885 902T882 964T874 1030T858 1089T830
1141T789 1174T732 1188Q706 1188 684 1181T646 1158T616 1124T594 1078T578 1027T567 967T561 906T557 840T556 777T556 715Q556 702 556 696Z" />
<glyph unicode="1" glyph-name="one" horiz-adv-x="1578" d="M196 960Q196 971 196 993Q196 1156 205 1191Q214 1225 248 1247Q258 1253 285 1266L336 1294Q379 1312 426 1335T546 1408T648 1504Q888 1500 1008 1500Q1060 1500 1086 1504Q1094 1503 1098 1499T1105
1484T1107 1463T1108 1430V896Q1108 747 1114 451T1120 4Q1115 -32 976 -32Q956 -32 922 -31T876 -30Q848 -30 797 -31T722 -32Q660 -32 536 -28L510 6Q500 16 500 48Q500 200 504 488V924Q357 827 230 788Q213 788 205 794T196 816V960Z" />
<glyph unicode="2" glyph-name="two" horiz-adv-x="1458" d="M1400 1076Q1400 991 1376 918T1314 794T1220 690T1110 599T990 506T874 404Q942 404 1082 408T1296 412Q1365 412 1389 366T1414 232Q1414 205 1411 141T1408 42V24Q1408 9 1406 1T1395 -14T1368 -24H1296Q1220
-22 972 -16Q572 -16 98 -32V-12Q83 -3 74 24T64 84V376Q64 399 132 444Q407 630 526 714L588 762Q804 930 804 1062Q804 1104 780 1128T714 1152Q679 1152 659 1137T631 1099T619 1053T606 1011T580 988H116Q60 988 60 1018Q75 1162 129 1265T273 1429T476 1516T734
1544Q839 1544 934 1528T1115 1475T1263 1385T1363 1252T1400 1076Z" />
<glyph unicode="3" glyph-name="three" horiz-adv-x="1454" d="M692 -58Q545 -58 430 -33T222 49T76 206T16 448Q16 480 48 480H524Q542 480 550 476T560 458V456Q568 392 595 358T682 324Q735 324 765 355T796 436Q796 476 783 504T750 548T701 571T647 582T590
584H546Q507 584 493 607T478 678V742Q478 825 489 864T532 904H612Q692 904 736 936T780 1060Q780 1104 755 1133T688 1162Q608 1162 592 1088V1048Q582 1006 548 992Q338 992 170 1000Q162 1000 145 999T118 998Q40 998 40 1036Q55 1178 64 1215Q92 1331 185
1405Q213 1428 248 1448Q350 1508 478 1526T776 1544Q851 1544 929 1528T1084 1477T1220 1393T1317 1271T1354 1112Q1354 1035 1334 978T1274 884T1195 827T1100 788Q1255 740 1321 655T1388 440Q1388 348 1361 273T1292 146T1188 57T1065 -2T932 -37T805 -54T692
-58Z" />
<glyph unicode="4" glyph-name="four" horiz-adv-x="1432" d="M-8 248V548Q-8 574 -1 606T15 661T42 721T69 774T102 829T128 874Q185 965 312 1177T508 1496H1260V1432Q1260 1339 1256 1155T1252 878V832Q1252 800 1254 784V776Q1254 754 1252 744V708Q1252 634
1296 634Q1309 634 1338 635T1380 636Q1413 636 1422 626T1432 576Q1432 572 1428 572Q1428 567 1429 530T1432 438T1434 336Q1434 265 1428 239T1400 212H1260Q1264 88 1264 32Q1264 10 1263 1T1252 -17T1224 -28H1030Q790 -28 706 -34L672 8V226H56Q50 226 41
225T26 224T14 226T2 233T-8 248ZM406 628V602Q407 596 417 587T430 576Q475 576 572 579T714 582Q735 591 744 618V656Q742 666 742 692V716Q743 739 743 778T744 854Q744 1140 704 1140V1124Q660 1047 557 881T406 628Z" />
<glyph unicode="5" glyph-name="five" horiz-adv-x="1468" d="M68 400Q68 422 98 429T188 436H352Q396 436 482 433T616 430Q633 428 641 411T653 375T669 340T708 324Q808 324 808 492Q808 528 805 554T793 610T764 654T712 670Q676 670 660 652T642 612T631
572T596 554H152Q122 597 122 676V1422Q122 1447 123 1459T129 1489T146 1518H1246Q1267 1518 1285 1509T1308 1484V1290Q1308 1283 1308 1270Q1308 1161 1303 1140T1266 1118Q1050 1118 634 1114Q631 1084 627 1023T620 932Q670 968 748 988T902 1008Q1124 1008
1258 873T1392 524Q1392 398 1353 297T1248 131T1095 23T913 -39T720 -58Q653 -58 595 -53T472 -35T355 -1T252 56T165 138T102 252T68 400Z" />
<glyph unicode="6" glyph-name="six" horiz-adv-x="1456" d="M788 -52Q415 -52 230 155T44 752Q44 989 130 1169T382 1451T772 1556Q908 1556 1010 1531T1173 1466T1273 1366T1327 1248T1348 1118Q1348 1100 1279 1090T1105 1077T948 1075T862 1076Q822 1076 822
1092V1144Q813 1162 774 1162Q612 1162 612 900V884Q702 990 900 990Q1121 990 1266 855T1412 512Q1412 394 1375 299T1276 141T1133 35T965 -28T788 -52ZM596 466Q596 384 637 324T756 264Q806 264 841 284T895 340T920 411T928 490Q923 588 887 640T764 692Q714
692 679 674T627 623T603 552T596 466Z" />
<glyph unicode="7" glyph-name="seven" horiz-adv-x="1462" d="M68 1448Q68 1528 108 1528Q246 1529 722 1520H1332Q1374 1520 1374 1362Q1372 1154 1363 1089T1308 944Q1179 717 1094 564Q982 357 804 -4Q799 -18 793 -24T772 -30Q740 -30 676 -29T580 -28H432Q180
-28 180 8Q180 25 188 44Q274 208 426 515T620 904L704 1070Q478 1070 364 1066H134Q113 1066 100 1074T68 1112V1448Z" />
<glyph unicode="8" glyph-name="eight" horiz-adv-x="1450" d="M708 1548Q815 1548 910 1531T1090 1476T1235 1383T1331 1246T1366 1066Q1366 838 1160 764Q1216 736 1257 706T1334 633T1389 530T1408 396Q1408 177 1229 61T688 -56Q577 -56 486 -42T329 -5T214
54T132 127T78 212T46 302T28 396Q36 522 90 610T264 754Q74 840 74 1068Q74 1172 113 1256T216 1393T364 1482T534 1533T708 1548ZM558 440Q566 364 607 318T720 272Q794 272 835 317T876 432Q876 620 718 620Q648 620 603 568T558 440ZM584 1048Q584 888 722
888Q789 888 821 935T854 1052Q854 1212 714 1212Q651 1212 618 1160T584 1048Z" />
<glyph unicode="9" glyph-name="nine" horiz-adv-x="1456" d="M628 388Q631 371 634 363T644 344T665 330T700 326Q727 326 748 336T783 359T807 398T823 442T833 493T839 541T842 588Q735 524 592 524Q510 524 433 540T285 592T160 680T74 810T42 984Q42 1100
81 1195T187 1353T341 1459T522 1521T712 1540Q874 1540 1006 1484T1225 1328T1360 1088T1408 782Q1408 406 1254 192Q1201 113 1121 59T948 -22T776 -58T612 -68Q386 -68 248 52Q175 107 140 198T104 390L140 434H592Q609 434 618 420T628 388ZM520 988Q528 895
568 846T692 796Q852 796 852 996Q852 1041 846 1076T823 1143T773 1194T692 1212Q645 1212 610 1193T556 1140T529 1069T520 988Z" />
<glyph unicode=":" glyph-name="colon" horiz-adv-x="770" d="M106 52Q106 214 116 414Q116 444 328 444H412Q426 442 448 442H528Q636 442 648 414V4Q635 -32 316 -32H138L108 10Q108 18 107 31T106 52ZM110 680V708Q110 720 111 749T112 796V852Q112 1076 144
1076H528Q648 1076 648 1046V668Q648 666 648 663Q648 647 648 639T641 624T624 616H144L112 648Q112 670 110 680Z" />
<glyph unicode=";" glyph-name="semicolon" horiz-adv-x="732" d="M-8 -180V-96Q-2 -61 21 9T60 138V224Q80 310 114 385T164 460H524Q566 460 599 457T653 447T674 431L471 -187Q459 -212 234 -212Q196 -212 133 -210T48 -208H26Q8 -196 -8 -180ZM126 664Q126
670 128 672V772Q128 1056 160 1056H202Q249 1056 344 1058T492 1060Q666 1060 666 1036Q672 900 672 644Q672 628 672 620T669 602T662 587T648 580H164L130 614Q126 646 126 664Z" />
<glyph unicode="&lt;" glyph-name="less" horiz-adv-x="1270" d="M78 454Q78 467 79 493T80 532Q80 541 79 561T78 590Q78 662 116 700L1145 1091Q1166 1091 1173 1068T1180 1000Q1180 993 1180 953T1181 895T1179 847T1172 801T1160 780L512 524Q817 404 1124
292Q1152 282 1162 272T1178 235T1184 148Q1184 144 1184 135Q1184 105 1184 90T1183 51T1180 15T1173 -11T1162 -30T1146 -36Q1138 -36 1132 -34Q679 148 220 324Q215 326 197 331T171 339T148 348T125 360T107 376T91 396T82 421T78 454Z" />
<glyph unicode="=" glyph-name="equal" horiz-adv-x="1272" d="M106 456Q222 456 475 441T868 428H904Q988 428 1148 436Q1157 436 1162 424T1169 385T1171 340T1172 286V220Q1172 213 1173 198T1174 174Q1174 120 1142 120H84Q80 164 80 206Q80 211 81 222T82
238Q82 249 83 273T84 308V360Q84 424 106 456ZM84 636V860Q84 898 90 917T116 936H212Q369 936 680 934T1148 932Q1172 932 1172 776V637L116 600L84 636Z" />
<glyph unicode="&gt;" glyph-name="greater" horiz-adv-x="1268" d="M1184 456Q1184 376 1154 376Q1054 335 836 241T449 79T122 -42L78 4Q78 88 80 128V252Q83 289 362 392L732 531Q676 555 540 613T303 711T104 784Q92 791 92 832V860Q92 865 91 898T90 956Q90
973 90 988T92 1017T94 1043T98 1064T103 1078T110 1083L1164 678Q1167 676 1170 671T1176 655T1179 633T1182 606T1183 576T1184 544T1184 513T1184 483T1184 456Z" />
<glyph unicode="?" glyph-name="question" horiz-adv-x="1120" d="M176 536Q176 596 195 648T245 735T311 806T379 872T436 943T470 1030Q463 1069 435 1082T362 1096Q227 1091 88 1036L42 1074Q42 1137 43 1257T44 1442Q44 1482 127 1508T296 1541T466 1548Q726
1545 858 1476L900 1454Q985 1400 1030 1332V1304Q1050 1264 1070 1195T1092 1120Q1083 974 1032 908Q994 861 946 820T860 753T787 703T732 650T710 588Q713 573 715 541T720 492Q720 484 716 476T708 468H558Q440 468 204 456Q176 456 176 536ZM170 34V60Q170
84 172 96V196Q170 208 170 238Q170 346 200 368Q235 367 345 364T518 360Q567 358 593 357T645 353T681 345T700 333T710 314T712 286V186Q712 165 713 125T714 64V4Q711 -16 692 -16Q688 -16 688 -12Q632 -13 352 -28H202L172 8Q172 28 170 34Z" />
<glyph unicode="@" glyph-name="at" horiz-adv-x="1670" d="M72 724Q72 866 115 991T234 1208T408 1368T622 1468T856 1502Q998 1502 1130 1461T1365 1345T1530 1156T1592 904Q1592 755 1539 619T1397 399T1214 316Q1091 316 1028 480Q969 408 903 372T732 336Q609
336 517 425T424 640V676Q424 780 471 875T614 1033T832 1096Q964 1096 1044 1016L1092 944Q1106 990 1130 1086H1252L1160 579Q1160 468 1248 468Q1342 508 1383 605T1424 816Q1424 931 1394 1022T1313 1172T1191 1269T1041 1324T874 1340Q752 1340 643 1299T449
1181T313 982T262 708Q262 610 294 522T385 367T519 251T686 177T872 152Q994 152 1108 186L1156 40Q1020 -12 812 -12Q667 -12 532 44T296 198T133 432T72 724ZM632 692Q632 606 669 557T764 508Q876 508 945 579T1014 748Q1014 825 968 868T858 912Q761 912 703
850T632 692Z" />
<glyph unicode="A" glyph-name="A" horiz-adv-x="1638" d="M-48 0Q14 229 89 465T275 1029T428 1484Q440 1504 444 1508H612Q671 1508 786 1510T960 1512H1128Q1143 1512 1153 1512T1177 1509T1199 1503T1214 1491T1220 1472L1681 11Q1681 -9 1667 -16T1612 -24H1520Q1480
-24 1401 -25T1282 -26Q1270 -26 1234 -27T1172 -29T1117 -26T1068 -15T1044 8V74Q1034 124 1009 166T956 208H612L560 -4Q549 -28 448 -28H368Q325 -28 240 -31T112 -34H84Q68 -34 34 -35T-20 -36Q-28 -28 -48 0ZM646 607L674 560H740Q820 560 886 569T953 600L824
1176Q806 1176 776 1108T726 954L646 607Z" />
<glyph unicode="B" glyph-name="B" horiz-adv-x="1570" d="M92 136V1482L956 1512Q1036 1512 1106 1502T1247 1465T1369 1394T1452 1278T1484 1112Q1484 987 1429 910T1264 772Q1393 736 1460 648T1528 424Q1528 324 1490 245T1392 115T1251 32T1091 -14T928 -28Q880
-28 784 -26T638 -24Q360 -24 128 -32Q95 21 92 136ZM666 1148Q666 1103 669 1014T672 880Q672 861 696 858Q710 860 744 864T799 872T847 886T892 914T920 960T932 1032Q932 1184 722 1184Q680 1177 673 1170Q666 1162 666 1148ZM684 386Q684 312 692 312H724Q763
312 791 314T853 327T906 354T940 404T954 480Q954 505 949 526T933 562T912 588T882 606T850 618T812 626T776 630T738 632T704 634V596Q703 585 694 522T684 422V386Z" />
<glyph unicode="C" glyph-name="C" horiz-adv-x="1556" d="M1528 536Q1511 386 1449 271T1290 83T1070 -27T800 -64Q664 -64 552 -35T363 44T227 163T133 308T77 471T48 636T40 796V884Q50 1030 108 1146T249 1334T439 1453T647 1519T848 1538Q1009 1538 1132
1500T1334 1391T1456 1231T1512 1028V932Q1512 900 1292 900Q1240 900 1148 902T1026 904Q1021 904 1011 903T996 902Q970 902 957 923T939 976T928 1038T901 1090T844 1112T781 1100T738 1063T712 1011T697 944T691 874T688 798T686 728Q686 716 684 684T682 632Q682
383 814 376Q850 376 873 402T904 460T924 527T948 576H1492Q1525 573 1528 536Z" />
<glyph unicode="D" glyph-name="D" horiz-adv-x="1648" d="M106 1468Q106 1479 118 1487T155 1500T203 1508T260 1512T316 1513T366 1513T400 1512H512Q545 1512 604 1514T692 1516Q1169 1516 1374 1352L1410 1320Q1427 1304 1448 1279T1499 1202T1554 1090T1595
942T1612 760Q1612 614 1572 487T1463 267T1300 107T1097 6T872 -28H840Q797 -28 712 -26T584 -24Q333 -24 130 -32Q106 16 106 56V1468ZM694 320Q754 320 802 333T883 369T941 425T980 495T1003 577T1015 665T1018 758V820Q1018 1004 945 1091T690 1184Q685 1173
674 1154T658 1124V1076Q658 1061 657 998Q644 328 694 320Z" />
<glyph unicode="E" glyph-name="E" horiz-adv-x="1306" d="M92 36V74Q92 245 96 579T100 1084V1498H1264V1170Q1264 1167 1264 1155T1264 1139T1263 1125T1260 1110T1253 1099T1242 1088T1226 1083T1204 1080H1176Q917 1080 704 1088Q702 1072 698 1039T691 980T688
930H1164Q1194 930 1204 922T1214 896Q1214 891 1213 880T1212 864Q1212 816 1215 722T1218 580Q1215 560 1202 560Q1196 560 1192 564Q876 548 724 548H698V404Q787 404 955 412T1208 420Q1274 420 1284 392V316Q1284 268 1286 174T1288 32Q1288 -18 1248 -18Q1196
-18 1088 -17T924 -16Q780 -16 512 -23T124 -32L96 0Q92 28 92 36Z" />
<glyph unicode="F" glyph-name="F" horiz-adv-x="1264" d="M100 140V1476Q100 1510 256 1510Q273 1510 304 1509T348 1508Q427 1508 583 1511T820 1514Q875 1514 983 1512T1152 1510Q1160 1510 1176 1511T1200 1512Q1236 1512 1250 1499T1264 1446V1096Q1206 1091
1143 1090T983 1087T862 1086H724Q724 1067 723 1031T722 976V962Q724 958 724 948Q951 964 1108 964Q1155 964 1191 957T1228 936V602Q1228 558 1211 543T1158 528Q1150 528 1129 530T1096 532Q893 519 726 516Q726 455 729 332T732 148V24Q732 -5 726 -14T696
-28Q600 -28 412 -30T128 -32Q120 -20 115 -6T106 19T102 49T100 77T99 110T100 140Z" />
<glyph unicode="G" glyph-name="G" horiz-adv-x="1680" d="M42 748Q42 886 73 1001T155 1196T279 1338T429 1437T594 1499T760 1531T916 1540Q974 1540 1029 1535T1154 1518T1284 1479T1400 1416T1497 1319T1556 1184Q1561 1155 1576 1020Q1572 990 1512 990Q1426
990 1262 994T1016 998Q1004 1002 997 1014T988 1040T980 1070T966 1098T936 1119T882 1128Q840 1128 807 1114T753 1078T717 1021T695 956T683 881T679 809T678 740Q678 727 679 708T680 682V652Q680 620 681 599T686 545T699 490T722 442T760 401T817 375T894
364Q1005 364 1076 386V508H1032V506H960Q952 506 932 505T898 504L862 544V820Q862 846 898 876H970Q1045 876 1152 874T1316 872H1396Q1454 872 1486 871T1559 862T1612 836Q1612 705 1606 454T1600 90Q1600 87 1601 81T1602 70V48Q1568 8 1380 -22T1064 -52H1038Q1010
-52 955 -56T872 -60Q469 -60 256 155T42 748Z" />
<glyph unicode="H" glyph-name="H" horiz-adv-x="1654" d="M360 -26Q332 -26 295 -27T238 -30T193 -30T154 -23T127 -6T106 24T95 71T90 138Q90 354 98 727T106 1276Q106 1492 128 1504H500Q599 1504 647 1493T712 1458T728 1388Q728 1374 726 1334T724 1266V1220Q724
1188 721 1124T718 1028V1008Q720 1002 720 992H760Q777 992 812 991T864 990Q910 990 932 996V1412Q932 1462 937 1483T951 1510T984 1516Q997 1516 1026 1515T1068 1514L1142 1517Q1217 1520 1276 1520Q1548 1520 1548 1460Q1548 1444 1549 1414T1550 1368Q1550
1333 1549 1266T1548 1164Q1548 1060 1551 854T1554 544Q1554 535 1553 522T1552 504V456Q1552 392 1554 360V338Q1552 334 1552 326Q1552 273 1554 165T1556 4Q1549 -32 1364 -32H948L918 10V76Q918 143 919 274T920 472Q920 495 915 503T892 512H856Q788 512
732 504Q732 421 730 255T728 4Q716 -26 478 -26H360Z" />
<glyph unicode="I" glyph-name="I" horiz-adv-x="842" d="M82 -26Q86 265 96 400Q96 820 108 1252Q104 1336 104 1376V1406Q100 1450 100 1478Q100 1497 118 1512Q282 1500 618 1500Q698 1500 728 1504V-26H82Z" />
<glyph unicode="J" glyph-name="J" horiz-adv-x="1382" d="M624 -56Q513 -56 422 -42T246 9T103 104T11 255T-24 470Q-24 524 8 524H464Q495 524 510 509T528 472T533 428T548 391T588 376Q613 376 628 389T650 430T658 477T660 528V536Q659 608 655 814T650 1136V1476Q650
1505 692 1510Q724 1510 788 1509T884 1508Q932 1508 1026 1509T1168 1510H1262Q1285 1510 1294 1482Q1292 1464 1292 1433T1292 1384V1334Q1282 1027 1282 786V472Q1282 384 1258 309T1194 181T1099 86T984 17T860 -26T737 -49T624 -56Z" />
<glyph unicode="K" glyph-name="K" horiz-adv-x="1646" d="M160 -32Q138 -32 127 -28T112 -17T100 6V1428Q100 1450 100 1460T104 1483T113 1502T132 1512T162 1516H572Q716 1516 716 1480V1478Q712 1106 712 924L993 1509L1200 1508Q1624 1508 1624 1488Q1624
1484 1620 1484Q1426 1134 1226 788V760L1267 734L1685 15Q1685 -1 1662 -20H1020L734 538Q728 483 725 378T720 240V4Q713 -32 600 -32H160Z" />
<glyph unicode="L" glyph-name="L" horiz-adv-x="1264" d="M102 1336Q102 1499 136 1518Q146 1516 164 1516H196Q227 1516 298 1518T406 1520Q548 1520 635 1509T734 1466L722 434H744Q824 438 856 438T973 434T1138 430Q1203 430 1234 423T1266 392V8Q1253 -28
820 -28H128Q104 7 104 84V368Q104 493 106 738T108 1108Q108 1131 105 1210T102 1336Z" />
<glyph unicode="M" glyph-name="M" horiz-adv-x="2192" d="M2108 374Q2108 356 2110 319T2113 247T2114 172T2112 97T2101 34T2080 -12T2044 -28H1588Q1540 9 1540 248Q1540 335 1541 457T1542 632V702Q1542 711 1541 736T1540 776Q1500 631 1442 361T1362 0Q1352
-28 1270 -28H916Q851 -28 840 6L744 424Q731 488 716 557T679 714T648 844Q636 524 636 356V180Q636 62 638 2Q632 -20 616 -20H522Q463 -20 349 -21T176 -22Q122 -22 122 -4V1480Q122 1489 126 1495T140 1505T159 1511T182 1513T205 1514T228 1515T246 1514H364Q649
1514 765 1506T944 1498Q968 1364 1020 1100L1096 702L1256 1510Q1256 1510 1264 1508T1276 1506Q1383 1506 1592 1509T1908 1512H2056Q2084 1509 2084 1456Q2106 487 2108 374Z" />
<glyph unicode="N" glyph-name="N" horiz-adv-x="1726" d="M80 -4V448Q78 696 96 1394V1476Q96 1498 104 1502H792Q802 1502 832 1426T906 1231T968 1066L1108 700V1088Q1108 1138 1110 1271T1112 1480Q1112 1508 1272 1508Q1322 1508 1409 1506T1516 1504H1592Q1608
1504 1608 1498Q1614 1220 1614 702V8Q1607 -18 1550 -18H1524Q1472 -18 1371 -20T1218 -22H924Q910 -17 866 104Q819 235 726 483T622 760Q622 701 621 584T620 408Q620 364 622 276T624 144V18Q624 -28 584 -28H124L80 -4ZM1608 1500V1496V1500Z" />
<glyph unicode="O" glyph-name="O" horiz-adv-x="1644" d="M24 752V862Q34 1002 85 1117T214 1312T396 1445T611 1525T844 1550Q910 1550 981 1539T1133 1504T1286 1434T1408 1324Q1507 1203 1551 1071T1596 776Q1599 438 1448 232L1404 172Q1346 92 1238 39T1022
-35T804 -56Q675 -56 566 -30T378 40T237 147T136 280T71 432T35 592T24 752ZM820 1148Q779 1148 747 1129T694 1083T658 1011T636 929T625 837T621 751T620 672Q620 626 623 585T638 497T668 416T719 358T794 332Q838 332 872 346T929 383T968 444T992 517T1005
604T1011 693T1012 788Q1012 830 1010 866T1001 946T981 1023T947 1086T895 1132T820 1148Z" />
<glyph unicode="P" glyph-name="P" horiz-adv-x="1526" d="M104 136V1468Q104 1475 110 1480T131 1487T155 1490T185 1491T212 1492H1024Q1124 1492 1213 1461T1371 1369T1480 1214T1520 1000Q1520 912 1500 839T1446 715T1364 622T1265 556T1153 514T1041 488T932
476H740Q732 319 732 124V12Q729 -24 698 -24H130Q104 45 104 136ZM668 836L700 792Q741 792 778 798T852 819T914 857T956 917T972 1000Q972 1035 963 1062T940 1107T903 1138T859 1157T807 1167T755 1171T702 1172Q668 1156 668 836Z" />
<glyph unicode="Q" glyph-name="Q" horiz-adv-x="1642" d="M40 748Q40 918 86 1055T209 1283T393 1435T614 1523T856 1550Q1030 1550 1172 1491T1408 1330T1553 1088T1604 788Q1604 681 1573 576T1486 396Q1499 396 1525 397T1564 398Q1648 398 1648 336V-4Q1647
-20 1638 -29T1608 -44Q1529 -30 1332 -30Q1229 -30 1054 -49T792 -68Q388 -68 196 244Q116 324 78 466T40 748ZM620 728Q620 686 620 659T624 585T635 506T655 436T688 375T738 336T806 320V344Q806 348 816 348Q821 348 833 346T850 344Q891 344 921 366T969
429T997 511T1011 607T1014 695T1014 770L1012 810Q1012 855 1010 890T1002 970T983 1047T950 1109T898 1153T824 1168Q782 1168 748 1148T693 1092T656 1014T634 919T623 822T620 728Z" />
<glyph unicode="R" glyph-name="R" horiz-adv-x="1560" d="M1552 -4Q1530 -26 1460 -30T1286 -28T1176 -22Q1108 -22 1078 -20H978Q956 -13 941 45T912 213T896 330Q892 429 864 460T762 492H718V4Q716 -8 697 -16T643 -26T580 -29T507 -29T452 -28H308Q186 -28
124 -30Q110 -24 96 -16V1476Q96 1504 176 1504H1048Q1275 1498 1393 1396T1512 1108Q1512 866 1268 754Q1313 740 1349 715T1409 662T1451 593T1479 518T1496 435T1507 352T1514 269T1522 192V104Q1525 88 1540 59T1560 16Q1560 -4 1552 -4ZM712 1080Q712 1020
713 991T724 915T754 848Q796 848 833 857T906 886T961 945T982 1040Q982 1071 971 1094T939 1132T898 1154T848 1166T801 1171T760 1172H736Q721 1165 717 1144T712 1080Z" />
<glyph unicode="S" glyph-name="S" horiz-adv-x="1484" d="M728 -60Q610 -55 516 -40T335 10T188 97T89 232T40 422Q40 441 60 444Q66 442 80 442Q163 442 332 446T584 450Q605 450 617 437T636 404T654 365T690 332T756 318Q805 318 842 345T880 420Q880 451
848 477T764 519T664 547T566 567T508 578Q265 644 159 742T52 1010Q52 1130 96 1225T211 1381T379 1482T575 1539T780 1556Q1061 1556 1228 1452Q1289 1391 1317 1360T1372 1286T1409 1204T1424 1104L1388 1068Q1183 1060 928 1060Q896 1060 877 1067T851 1085T838
1108T826 1131T803 1149T756 1156Q748 1156 731 1153T690 1144T649 1124T632 1092Q632 1070 654 1052T702 1026T764 1009T810 996Q1028 941 1070 928Q1289 859 1380 747Q1464 643 1464 486Q1464 391 1440 313T1375 181T1275 85T1154 18T1014 -24T871 -48T728 -60Z"
/>
<glyph unicode="T" glyph-name="T" horiz-adv-x="1318" d="M-16 1198Q-16 1216 -14 1251T-12 1300Q-12 1305 -14 1336T-16 1390Q-16 1496 4 1496Q12 1496 18 1494Q227 1494 637 1499T1252 1504Q1303 1504 1316 1495T1330 1460V1432Q1330 1380 1331 1279T1332 1124Q1332
1072 1304 1072Q1248 1072 1137 1074T970 1076V4Q963 -26 936 -28Q901 -28 834 -27T732 -26Q730 -26 728 -28Q684 -28 605 -27T486 -26H426Q406 -28 368 -28L328 20Q328 172 338 472T348 924Q348 931 348 947T347 973T346 998T341 1022T332 1041T319 1055T298 1060H12Q-16
1068 -16 1198Z" />
<glyph unicode="U" glyph-name="U" horiz-adv-x="1614" d="M92 498Q96 990 96 1232V1244Q96 1251 94 1293T92 1366Q92 1486 112 1502Q117 1502 127 1501T142 1500Q310 1508 532 1508H668Q676 1507 689 1502T708 1496Q709 1447 712 1327T717 1119T718 946V556Q718
519 720 496T729 442T756 396T806 380Q848 380 874 415T900 498V864Q899 931 901 1075T902 1300V1372Q902 1383 900 1405T898 1440V1488Q901 1511 924 1516Q1116 1516 1500 1512V1496H1544Q1536 1283 1536 1000V776Q1536 731 1534 638T1532 500Q1532 370 1491 270T1383
109T1221 9T1029 -45T820 -60Q712 -60 618 -47T426 5T259 104T143 265T92 498Z" />
<glyph unicode="V" glyph-name="V" horiz-adv-x="1554" d="M-35 1475Q-35 1504 -1 1504Q96 1504 282 1506T561 1508Q589 1508 609 1480L781 484Q797 580 838 754T891 986L991 1486Q999 1510 1401 1510H1561Q1580 1503 1585 1476L1361 666Q1354 639 1335 547T1296
370T1251 193T1198 41T1143 -28Q1107 -28 1036 -25T929 -22H857Q789 -28 709 -30T537 -33T391 -36L-35 1475Z" />
<glyph unicode="W" glyph-name="W" horiz-adv-x="2130" d="M1069 780Q1065 753 1054 653T1028 443T997 223T958 40T914 -32Q871 -32 787 -30T660 -28Q467 -28 304 -36Q290 -29 280 -14T263 22T253 59T246 101T240 136Q67 961 26 1140L-44 1476Q-44 1504 -16 1514Q8
1512 60 1512H140Q164 1512 209 1514T274 1516Q293 1517 330 1516T378 1514H436Q446 1512 466 1512H496Q514 1507 532 1443T566 1267T592 1072T614 870T627 749L754 1510Q802 1506 830 1506H892Q973 1506 1126 1507T1356 1508Q1377 1508 1382 1492L1507 665Q1526
893 1554 1082L1614 1488Q1621 1512 1684 1512H1732Q1744 1513 1769 1512T1806 1510H1894Q1931 1510 1977 1509T2026 1508H2144Q2153 1508 2156 1495T2161 1450L1839 -22Q1819 -24 1791 -24T1740 -24T1687 -23T1638 -22Q1597 -22 1514 -21T1388 -20Q1383 -20 1193
-26L1069 780Z" />
<glyph unicode="X" glyph-name="X" horiz-adv-x="1600" d="M-36 0Q-36 28 0 84Q85 214 243 462T428 752Q146 1237 0 1476V1486Q0 1497 12 1506Q76 1506 202 1503T392 1500Q409 1501 439 1500T480 1498H550Q572 1500 620 1500Q633 1497 660 1451T714 1344L815 1106Q818
1112 922 1336L960 1416Q998 1500 1012 1500Q1013 1500 1014 1500T1019 1498T1024 1496Q1076 1498 1200 1502T1415 1509T1592 1512Q1620 1506 1620 1468V1456Q1267 898 1170 740L1370 433Q1420 355 1513 210T1632 24V4Q1632 -32 1570 -32Q1489 -32 1332 -34T1100
-36H1052Q999 -36 972 -16L789 371Q781 354 768 321T741 256T710 186T676 114T640 51T601 0T562 -30Q338 -26 234 -26Q191 -26 111 -27T-12 -28Q-36 -19 -36 0Z" />
<glyph unicode="Y" glyph-name="Y" horiz-adv-x="1524" d="M1569 1462Q1506 1336 1334 1010T1073 500V0Q1068 -17 1060 -24T1033 -32Q939 -32 754 -34T469 -36Q433 0 433 48Q437 70 438 98T438 169T437 224V296Q437 535 337 726Q322 757 306 791T274 857T243 922T212
988T181 1053T150 1119T117 1184L-54 1471Q-54 1484 -33 1495T9 1506H261Q313 1506 417 1505T573 1504Q587 1502 604 1475T639 1402T676 1305T712 1191T743 1082T770 986T788 922L971 1508H1535Q1549 1506 1556 1497T1569 1462Z" />
<glyph unicode="Z" glyph-name="Z" horiz-adv-x="1394" d="M14 16V48Q14 134 17 251T24 368Q25 367 53 403T157 534T316 730L608 1086Q517 1086 340 1083T72 1080Q57 1084 53 1095T48 1128V1248Q48 1258 44 1320T40 1416Q40 1496 60 1496Q400 1496 1052 1504H1264Q1322
1504 1335 1494T1348 1428Q1348 1414 1346 1393T1344 1368V1362Q1344 1275 1334 1207T1310 1094T1265 1001T1209 926T1134 843T1050 748L760 404H1336Q1347 404 1354 389T1364 340T1367 284T1368 216V124Q1368 115 1370 89T1372 48Q1372 2 1356 -11T1296 -24H1272Q1076
-24 688 -30T104 -36Q70 -36 55 -27T14 16Z" />
<glyph unicode="[" glyph-name="bracketleft" horiz-adv-x="1034" d="M160 -62V-36Q160 -19 160 112T160 270T160 416T160 574T162 720T164 878T166 1024T170 1183T175 1329T182 1484Q182 1510 234 1510H854Q932 1510 956 1481T980 1368Q980 1148 958 1148Q946
1148 914 1147T866 1146Q775 1146 652 1156V64Q696 64 781 66T912 68H950Q984 63 984 -88V-166Q984 -188 982 -198Q982 -204 983 -222T984 -250Q984 -269 982 -280T971 -302T944 -318Q821 -318 574 -322T204 -326L160 -276Q160 -248 158 -232V-162Q158 -146 159
-113T160 -62Z" />
<glyph unicode="\" glyph-name="backslash" horiz-adv-x="808" d="M-35 1524Q-35 1539 -17 1548Q85 1542 189 1542Q198 1542 209 1542T230 1543T251 1544T272 1545L857 -33Q857 -48 846 -58T817 -70H777Q764 -70 736 -71T695 -72Q679 -72 642 -71T585 -70Q523
-70 497 -76L-35 1524Z" />
<glyph unicode="]" glyph-name="bracketright" horiz-adv-x="1036" d="M852 -262Q852 -278 845 -289T825 -306T797 -315T761 -319T724 -320T684 -319T648 -318H624Q579 -317 490 -317T356 -316H92Q80 -313 72 -293T61 -231T58 -163T57 -81T58 -16Q58 34 67 47T104
60H388V154Q388 468 376 1128H252Q224 1128 168 1126T84 1124Q68 1140 50 1164V1212Q50 1247 51 1312T52 1412Q52 1419 51 1433T50 1454Q50 1509 76 1528H102Q142 1528 223 1526T344 1524Q389 1524 480 1526T616 1528Q656 1528 736 1522T856 1516Q860 1516 872
1520Q872 1490 874 1476V1428Q874 1396 873 1336T872 1244V1214Q873 973 863 506T852 -186V-262Z" />
<glyph unicode="^" glyph-name="asciicircum" horiz-adv-x="1274" d="M138 759L503 1519L766 1520L1146 776Q1146 747 1107 738T980 728H860Q853 728 847 732T834 744T824 754L636 1144L441 736Q396 736 302 738T164 740Q153 741 146 747T138 759Z" />
<glyph unicode="_" glyph-name="underscore" horiz-adv-x="1050" d="M-24 -194Q-24 -156 -18 -139T10 -122H222Q312 -122 520 -121T816 -120Q983 -120 1009 -124Q1050 -131 1059 -159Q1064 -176 1064 -224Q1064 -268 1036 -268H870Q467 -268 14 -290L-18 -248Q-24
-200 -24 -194Z" />
<glyph unicode="`" glyph-name="grave" horiz-adv-x="632" d="M-128 1756Q-128 1776 -104 1788Q126 1772 324 1772H364Q377 1769 416 1708Q494 1579 550 1492V1470Q555 1463 567 1449T588 1425T596 1408Q596 1396 591 1389T570 1380T547 1377T516 1376H192Q144
1434 -12 1608L-54 1652Q-128 1726 -128 1756Z" />
<glyph unicode="a" glyph-name="a" horiz-adv-x="1482" d="M552 248Q545 225 539 188T527 129T508 84T469 49T400 38H-32V72Q21 231 122 560T280 1058V1056Q314 1153 380 1360Q381 1362 383 1365Q392 1380 400 1388L940 1384Q1078 1384 1092 1360V1334Q1094 1325
1114 1288Q1211 991 1256 856V844Q1260 815 1274 778T1307 699T1335 632L1375 488Q1410 372 1478 178V180V160Q1481 146 1493 122T1508 88Q1508 60 1497 52T1452 44H988Q971 46 966 47T951 51T936 59T930 72L892 224Q888 243 884 245T860 248H552ZM600 604V600V604ZM820
724Q814 752 803 814T780 923T756 1010V1058Q748 1079 728 1088V1086Q704 1081 680 952V904Q678 897 671 891T664 884Q631 738 610 648Q610 638 605 613T600 584H848Q848 610 830 678V700Q829 703 825 711T820 724Z" />
<glyph unicode="b" glyph-name="b" horiz-adv-x="1408" d="M1142 748Q1193 748 1236 716T1305 636T1345 535T1360 436Q1356 314 1291 224T1116 94L1032 44H88V1388H848Q1074 1388 1206 1292Q1264 1254 1294 1182T1324 1030Q1324 928 1280 866T1142 748ZM624 620L584
371Q584 367 598 362T622 354H700Q765 359 804 386T844 478Q844 501 839 520T827 553T806 578T782 596T751 607T720 614T687 618T655 620T624 620ZM604 1060Q612 1015 612 956V936Q612 933 611 926T610 916Q610 912 611 899T612 876V844Q612 833 620 830Q646 830
661 831T704 835T751 847T788 870T816 910T826 968Q826 1013 796 1041T728 1077T642 1086Q638 1084 620 1084V1086Q604 1080 604 1060Z" />
<glyph unicode="c" glyph-name="c" horiz-adv-x="1390" d="M728 8Q561 8 428 64T210 221T81 454T36 746V760Q37 767 39 794T42 830T46 863T51 898T56 930T64 964T75 997T88 1033T104 1068V1066Q150 1162 220 1232T374 1340T546 1396T732 1414Q856 1414 956 1390T1122
1324T1235 1225T1306 1104T1340 970V884Q1337 870 1325 863T1299 854T1260 852H832V938Q827 972 803 1000T744 1028Q713 1028 690 1015T653 981T631 931T620 871T616 807T616 745Q616 725 616 716V604Q616 579 618 556T630 495T664 435T724 412Q762 412 780 444T811
521T840 582Q880 582 960 581T1080 580Q1108 580 1163 581T1246 582H1320Q1353 582 1356 542V504Q1334 305 1209 183T896 28V22Q829 8 728 8Z" />
<glyph unicode="d" glyph-name="d" horiz-adv-x="1456" d="M642 1388Q779 1388 888 1370T1098 1306T1266 1186T1372 994T1412 720Q1412 606 1385 508T1311 338T1204 212T1072 121T930 67T788 44H102V1372Q105 1372 113 1371T124 1370Q167 1370 254 1379T386 1388H642ZM654
356Q705 356 744 372T806 420T845 485T868 565T877 645T880 724V796Q879 803 874 864T852 968Q836 999 817 1021T778 1056T734 1075T687 1084T636 1086V1064H606V356H654Z" />
<glyph unicode="e" glyph-name="e" horiz-adv-x="1166" d="M84 1292Q84 1352 89 1362Q98 1376 118 1376H142Q158 1376 164 1374H216Q317 1374 521 1379T828 1384H1094Q1120 1381 1120 1358V1024Q1119 1018 1117 1014T1113 1008T1103 1001T1092 992H628V868H672Q730
868 849 872T1032 876Q1060 876 1070 865T1080 834Q1080 829 1078 817T1076 800V762Q1076 758 1077 746T1078 724V696Q1078 674 1080 652T1082 614V588Q1077 576 1074 572T1064 568V570Q1027 570 937 565T792 560H632V432Q640 432 656 431T680 430Q725 430 813
433T940 436H1068Q1120 436 1134 424Q1139 418 1142 412V92Q1142 71 1134 60T1104 48H114L84 74V1292Z" />
<glyph unicode="f" glyph-name="f" horiz-adv-x="1126" d="M88 84V1352Q88 1368 98 1375T116 1383T148 1384H1092Q1100 1384 1105 1382T1113 1377T1117 1369T1118 1360T1119 1351T1118 1344V1004H650V968Q650 956 654 904H748Q762 905 798 910T856 916H938Q966
916 980 918Q1021 918 1055 908T1092 886V828Q1092 809 1090 770T1088 710V620Q1090 612 1090 592V552Q1086 520 1028 520H964Q930 520 867 518T768 516H656V40H114L88 84Z" />
<glyph unicode="g" glyph-name="g" horiz-adv-x="1502" d="M1420 132Q1412 95 1285 66T1031 24T830 12Q752 12 695 16T558 33T405 79T268 162L226 198Q209 210 192 234L160 276Q40 465 40 716Q40 965 166 1140L194 1174V1188V1186Q374 1416 788 1416Q848 1416
918 1406T1068 1373T1219 1306T1332 1204Q1353 1176 1364 1142T1384 1053T1400 972Q1400 938 1336 938H1254Q1226 938 1140 941T1002 944H892Q878 949 867 975T852 1006V1004Q834 1044 772 1044Q731 1044 701 1027T654 984T629 920T617 849T614 776Q614 762 615
737T616 704V628Q616 592 618 565T631 504T659 448T711 411T792 396Q890 396 946 414V458Q946 466 945 479T944 500Q944 502 945 510T946 524H908Q900 524 888 523T872 522H788L754 560Q752 570 752 590V652Q752 664 753 689T754 730V758Q754 760 755 767T756 780V788Q756
806 763 817T790 840H884Q894 840 914 836H1004Q1104 832 1152 832H1248Q1400 832 1428 804Q1428 708 1424 512T1420 220V132Z" />
<glyph unicode="h" glyph-name="h" horiz-adv-x="1484" d="M1380 1334V104Q1380 83 1379 71T1370 47T1350 36H840V58Q838 60 825 67T808 80V484Q808 506 805 509T776 512H708Q684 512 652 508V76Q648 58 637 53T602 48H556Q509 48 409 46T256 44H124Q81 44 81
92L87 1352Q87 1357 90 1360T102 1370T112 1378H650V948H824V1388H1334Q1358 1388 1369 1377T1380 1334Z" />
<glyph unicode="i" glyph-name="i" horiz-adv-x="744" d="M72 38V1352Q73 1360 88 1366T106 1376H644V74Q639 53 635 46T620 38H72Z" />
<glyph unicode="j" glyph-name="j" horiz-adv-x="1228" d="M1136 480Q1136 392 1101 316T1009 186T879 95T730 38T580 20H548Q540 20 524 19T500 18Q226 18 86 168V166Q-24 285 -24 444V480Q-24 503 -19 513T4 524H76Q131 524 241 526T406 528Q441 528 455 510T468
470T476 430T512 412Q534 412 545 426T559 455T563 496T566 532V598Q566 688 568 869T570 1144V1208Q570 1219 569 1238T568 1268V1328Q568 1352 574 1363T600 1384H1070Q1129 1384 1136 1356V480ZM572 536Q566 534 568 530H572V536Z" />
<glyph unicode="k" glyph-name="k" horiz-adv-x="1470" d="M112 36Q94 66 88 78V1392H530Q533 1392 546 1392T566 1393T585 1391T606 1388T622 1381T636 1368T644 1350V906Q677 972 736 1096T824 1276L873 1381L968 1384Q988 1384 1028 1382T1088 1380H1164Q1172
1380 1187 1381T1210 1382H1268Q1272 1382 1282 1384Q1444 1384 1444 1360Q1444 1346 1426 1322Q1380 1249 1271 1056T1095 764L1486 90Q1486 89 1486 83T1486 75T1486 69T1484 62T1482 56T1478 50T1472 44Q1378 50 1192 50Q1167 50 1115 49T1038 48H902V76Q886
103 833 182T756 306L644 520V76Q630 36 534 36H112Z" />
<glyph unicode="l" glyph-name="l" horiz-adv-x="1126" d="M106 40Q103 44 97 49T82 68V500Q82 585 89 761T96 1028Q96 1048 92 1113T88 1216Q88 1357 122 1388Q330 1384 432 1384H528Q562 1384 580 1382Q582 1384 590 1384Q592 1384 607 1382T632 1380Q657 1377
674 1338V1324Q674 1313 673 1292T672 1260V1216Q671 1211 660 1199T648 1178V448H1072Q1088 448 1096 447T1112 438T1120 414V80Q1112 40 1024 40H106Z" />
<glyph unicode="m" glyph-name="m" horiz-adv-x="1972" d="M820 1372Q827 1374 842 1375T862 1378L981 769L1137 1380H1840Q1868 1380 1868 1262V84Q1866 68 1859 58T1839 45T1818 41T1792 40Q1729 40 1601 38T1408 36Q1358 67 1358 266Q1358 316 1360 396T1362
516V604Q1362 611 1361 626T1360 650Q1360 684 1364 760V684Q1350 625 1310 504T1256 324L1196 68Q1180 40 1096 40Q1055 40 990 42T890 44Q880 44 856 43T826 42Q794 42 780 50T760 82Q666 499 630 672L594 844Q580 553 580 228V52H108Q108 58 111 78T114 100Q106
292 106 574Q106 659 105 800T104 996V1350Q104 1363 108 1369T128 1388H220Q270 1388 292 1390Q393 1390 537 1381T718 1372H820ZM1364 766V768V766Z" />
<glyph unicode="n" glyph-name="n" horiz-adv-x="1548" d="M1416 1376Q1428 1372 1434 1342T1442 1265T1442 1177T1440 1091T1438 1036Q1436 996 1436 924V818Q1436 748 1438 626T1440 446V82Q1436 48 1384 48H824Q806 52 778 132Q759 185 715 306T638 518T580
696V702V696Q577 630 574 500T568 304V100Q568 70 561 59T524 40H112L68 84Q73 250 76 604T84 1128V1344Q94 1380 108 1380V1376Q176 1376 321 1380T540 1384H708Q709 1384 711 1383Q729 1376 731 1367L732 1360Q768 1263 805 1159T893 908T964 704V852Q984 1204
984 1352Q984 1368 1006 1372T1074 1376H1416Z" />
<glyph unicode="o" glyph-name="o" horiz-adv-x="1454" d="M20 724L18 746Q37 909 54 973Q93 1123 194 1224L218 1248Q266 1304 364 1344H402Q500 1385 724 1420Q780 1420 841 1412T978 1384T1122 1322T1238 1220V1192Q1402 987 1402 732Q1402 445 1270 264L1230
214Q1184 157 1116 116T970 54T823 23T682 14Q579 14 486 38T311 115T167 243T67 426T20 664V724ZM570 716Q570 364 704 364Q741 364 768 378T813 421T841 480T856 555T862 634T864 716V752Q864 804 858 852T838 948T793 1026T720 1056Q570 1056 570 760V716Z"
/>
<glyph unicode="p" glyph-name="p" horiz-adv-x="1366" d="M104 40L83 706Q83 775 85 862T90 1019T95 1178T98 1340Q98 1360 111 1365T145 1369T192 1372H908Q969 1372 1030 1357T1149 1307T1252 1223T1324 1099T1352 936Q1352 818 1302 727T1152 554Q1029 490
856 480H824Q784 472 744 472H664Q658 472 654 470Q654 208 662 74Q657 54 641 47T584 40H104ZM604 804V786Q605 785 617 780T630 772V770Q628 770 628 774Q630 772 640 772Q729 772 790 812T852 936Q852 974 839 1001T808 1042T758 1064T700 1074T634 1076Q633
1075 626 1069T616 1060V956Q604 860 604 804Z" />
<glyph unicode="q" glyph-name="q" horiz-adv-x="1454" d="M36 724Q36 1059 270 1276L328 1322Q360 1348 396 1360L472 1384Q503 1395 579 1407T712 1420H752Q906 1420 1031 1369T1240 1229T1367 1019T1412 756V732Q1402 540 1310 420H1420L1460 386V68Q1451 38
1426 32Q1414 32 1334 38T1202 44Q1111 44 945 26T688 8Q542 8 407 70L255 146L226 192V212V210L196 244Q183 267 168 282V308Q101 420 69 519T36 724ZM564 722Q564 686 564 669T566 613T571 552T581 495T599 441T626 400T664 370T714 360Q876 360 876 652V780Q876
1074 710 1074Q564 1074 564 722Z" />
<glyph unicode="r" glyph-name="r" horiz-adv-x="1402" d="M92 1376H278Q364 1376 553 1380T836 1384Q917 1384 987 1375T1126 1342T1243 1281T1322 1184T1352 1044Q1352 935 1301 858T1144 728Q1186 710 1217 681T1264 631T1296 561T1315 496T1328 419Q1331 405
1332 398Q1336 358 1366 252T1396 88Q1396 52 1374 52Q1314 52 1193 51T1012 50Q988 52 940 52H872Q852 58 833 114T806 240L784 418Q778 440 775 449T762 472T738 491T698 496H652V96Q652 93 652 87T652 78T652 70T651 63T649 56T647 51T643 47T637 43T629 41T618
40H92V1376ZM658 848Q660 846 664 840T672 829T680 824Q710 824 740 830T801 852T852 898T872 972Q872 1076 672 1076Q652 1071 652 1060V1022Q652 993 655 935T658 848Z" />
<glyph unicode="s" glyph-name="s" horiz-adv-x="1314" d="M864 988Q837 988 820 996T793 1016T771 1040T731 1060T662 1068Q649 1068 631 1066T590 1052T568 1024Q568 1005 586 992T628 973T681 960T723 946L870 910Q935 892 987 872T1097 818T1195 741T1260
636T1286 496Q1286 404 1262 332V334Q1241 270 1203 220T1113 136T1008 80T886 44T762 24T636 12Q321 28 214 112V124Q123 192 80 272T28 452Q28 476 50 476Q56 476 68 475T86 474H188Q202 476 228 476H254Q262 476 268 474Q326 476 466 476H512Q532 476 543 464T560
435T575 400T606 370T664 358Q703 358 734 378T766 438Q766 456 749 472T698 501T638 522T566 541T508 556H448Q231 620 136 718T40 968Q40 1068 77 1148T176 1279T321 1364T490 1413T668 1428Q831 1428 970 1374T1182 1232Q1208 1206 1224 1166T1244 1103T1256
1024L1228 984H1058Q1030 984 965 986T864 988Z" />
<glyph unicode="t" glyph-name="t" horiz-adv-x="1168" d="M-12 1012V1372H1152Q1168 1369 1172 1360T1176 1332V1012Q1174 988 1148 988H864V68Q864 67 863 63T862 58T861 54T859 50T857 47T855 44T851 42T846 39T840 38T832 36H768Q640 36 640 44Q632 44 616
43T592 42H512Q489 42 447 41T380 40H324L284 68V284Q285 342 292 532T300 832V858Q300 866 301 883T302 908Q302 917 301 944T300 980H50Q28 980 8 987T-12 1012Z" />
<glyph unicode="u" glyph-name="u" horiz-adv-x="1450" d="M84 1142Q80 1162 80 1256Q80 1364 100 1384H644V544Q644 414 720 414Q752 414 773 442T794 510V658Q800 1096 800 1100Q800 1274 796 1352Q796 1380 824 1392H1380V1236Q1367 857 1364 748V686Q1364
674 1363 654T1362 626Q1362 592 1364 578V500Q1364 361 1336 300V296Q1304 221 1244 167T1107 82T949 38T778 24Q750 24 736 30H712Q712 20 682 20V18Q660 17 554 28H508Q445 35 387 56T273 115T177 207T109 336T80 502Q81 554 81 646T81 813T86 960V988Q86 993
87 1004T88 1020Q88 1035 86 1065T84 1110V1144V1142Z" />
<glyph unicode="v" glyph-name="v" horiz-adv-x="1392" d="M765 880Q772 918 803 1025T841 1196V1266Q841 1268 843 1283T846 1301T849 1316T854 1333T861 1346T871 1358T883 1367T900 1374T921 1376H1377Q1379 1375 1389 1368T1405 1356T1413 1348L1078 143Q1067
101 1051 73T1013 44H329Q313 108 292 195T250 368T213 520L-30 1346Q-30 1369 3 1376V1380Q63 1380 184 1382T361 1384H525Q532 1384 534 1382T540 1372T550 1358L693 528L781 770L765 880Z" />
<glyph unicode="w" glyph-name="w" horiz-adv-x="1906" d="M560 705Q578 778 593 870T619 1034T642 1210T665 1376H1241Q1244 1352 1247 1325T1254 1272T1260 1219T1267 1166T1273 1112T1279 1059T1286 1007T1293 956L1336 673L1417 1361Q1419 1367 1424 1371T1440
1377T1459 1381T1483 1383T1508 1384T1534 1384T1557 1384Q1589 1384 1649 1382T1741 1380Q1745 1380 1762 1381T1789 1382Q1827 1382 1833 1376Q1838 1376 1850 1377T1869 1378Q1878 1378 1884 1377T1898 1373T1910 1364T1920 1350T1927 1328L1636 52H1051L940
694L871 164Q870 158 866 131T859 94T850 67T835 43T813 36Q776 36 703 39T593 42Q529 42 425 39T273 36H241L-25 1279L-19 1350Q-19 1352 -19 1358T-19 1365T-18 1371T-15 1378T-9 1383T1 1388Q29 1384 43 1384H109Q129 1384 129 1388H163Q167 1388 177 1389T197
1390H225Q236 1390 257 1391T289 1392H355V1388H421Q453 1388 469 1379T487 1340L560 705Z" />
<glyph unicode="x" glyph-name="x" horiz-adv-x="1416" d="M-43 80L373 724L4 1308L17 1342Q16 1343 8 1348T-1 1356Q-1 1369 19 1380H73Q191 1380 253 1382H313Q372 1382 429 1376H469Q478 1376 497 1375T525 1374Q530 1374 539 1375T553 1376Q565 1373 572 1364T585
1337T593 1316Q598 1305 617 1263T645 1196V1198Q652 1185 663 1161T679 1128L713 1058Q716 1053 717 1049T721 1040Q731 1064 811 1236L845 1304Q879 1372 893 1372H1377Q1390 1367 1403 1366T1420 1363T1426 1353T1429 1326L1385 1260Q1315 1159 1195 969T1035
718L1443 80Q1443 58 1428 50T1383 42H853Q831 87 776 207T689 388Q681 372 651 304T599 194T548 104T493 42Q457 42 389 43T285 44H249Q226 44 172 46T89 48H-7Q-43 60 -43 80Z" />
<glyph unicode="y" glyph-name="y" horiz-adv-x="1366" d="M545 1380L702 886Q778 1089 844 1292Q846 1300 856 1322T868 1358Q876 1382 976 1382Q983 1382 995 1381T1016 1380Q1179 1382 1368 1384Q1392 1381 1402 1335L948 513L964 446Q964 388 966 269T968
104V74Q964 60 953 51T921 40T885 37T841 37T802 38H420L388 80V498L157 991L50 1141Q-32 1305 -32 1352Q-32 1380 16 1380H545Z" />
<glyph unicode="z" glyph-name="z" horiz-adv-x="1242" d="M8 84V146Q8 154 9 175T10 208V260Q10 390 20 400Q156 557 428 896L513 995Q486 997 367 996T216 994H190Q179 994 157 993T124 992H60Q36 1004 36 1026V1372H1144Q1162 1372 1168 1372T1182 1366T1192
1348T1194 1314Q1194 1302 1192 1285T1190 1264L1194 1252Q1194 1215 1194 1180T1192 1121T1190 1079T1189 1051T1188 1040Q1180 1019 1180 1016V1000Q1106 915 967 759T772 540L728 484L680 432H1180Q1212 432 1212 352V92Q1212 62 1199 51T1156 40H38Q32 46 21
61T8 84Z" />
<glyph unicode="{" glyph-name="braceleft" horiz-adv-x="1032" d="M704 -312Q628 -312 567 -306T443 -282T337 -233T269 -149T244 -24Q241 36 240 97T239 193T239 264T235 318T227 353T211 378T184 391T144 400Q132 402 116 404T90 407T69 411T53 419T48 432Q48
478 45 567T42 706Q42 774 68 786Q100 786 124 789T175 800T217 827T236 874V1162Q236 1229 250 1282T286 1371T344 1433T414 1474T497 1497T583 1508T672 1512H888L924 1478Q924 1422 923 1314T922 1150Q916 1118 884 1118Q873 1118 851 1119T820 1120Q774 1120
752 1101T728 1024V788Q728 661 564 592H598Q672 558 697 494T722 304V268Q722 255 721 232T720 196Q720 155 723 134T740 94T779 69T852 62Q904 62 912 40V-104Q912 -303 884 -312H704Z" />
<glyph unicode="|" glyph-name="bar" horiz-adv-x="492" d="M70 -40Q70 205 79 719T88 1480V1508Q88 1527 96 1537T117 1548T144 1549T172 1550H310Q323 1550 338 1550T366 1550T387 1541T396 1516V1134Q404 570 412 288V-40Q401 -80 308 -80H248Q136 -80 102
-74L70 -40Z" />
<glyph unicode="}" glyph-name="braceright" horiz-adv-x="1034" d="M86 -276Q87 -241 88 -178T91 -63T92 36Q92 65 122 68H178Q229 68 256 89T284 172Q284 181 283 230T282 312Q287 451 321 509T452 596Q356 624 323 677T290 852Q289 870 290 902T292 944V1020Q292
1081 264 1102T150 1124Q123 1124 112 1128T100 1148Q100 1177 101 1238T102 1328Q102 1348 100 1362V1404Q100 1480 120 1496Q160 1492 182 1492Q186 1492 194 1493T208 1494Q212 1494 230 1493T252 1492Q252 1494 264 1494H336Q340 1494 347 1494Q402 1494 431
1493T514 1485T597 1464T666 1422T725 1353T761 1249T776 1104V1060Q776 1022 773 962T770 880Q770 848 783 828T823 798T871 787T924 784Q966 773 966 750Q966 726 965 675T964 596T965 513T966 430Q964 413 944 407T896 399T841 395T795 373T776 322Q776 286
778 268V204Q778 186 781 146T784 84Q784 -13 765 -86T716 -203T639 -274T545 -310T438 -320H120L86 -276Z" />
<glyph unicode="~" glyph-name="asciitilde" horiz-adv-x="1302" d="M424 762Q475 762 528 739T622 687T728 636T864 612Q905 612 935 633T996 694L1028 736V770V748Q1036 752 1050 752Q1067 752 1105 646T1144 498V490Q1140 486 1140 480Q1075 392 1014 348T868
304Q814 304 766 320L650 370Q645 372 627 381T602 394T580 404T554 415T530 423T502 430T475 434T444 436Q389 436 353 405T282 312H248Q240 313 228 318T212 324L172 438Q142 518 144 560Q200 661 267 711T424 762Z" />
<glyph unicode="&#xa0;" glyph-name="uni00A0" horiz-adv-x="720" />
<glyph unicode="&#xa1;" glyph-name="exclamdown" horiz-adv-x="784" d="M60 -390Q101 -52 120 270V416Q132 554 149 630T186 706Q252 706 341 707T454 708Q486 708 507 708T547 704T576 699T596 688T608 674T614 653T618 626T620 591T624 548V490Q626 464 655
192T692 -220V-352Q688 -366 676 -374T651 -384T617 -387T586 -390H60ZM112 876V1012Q112 1021 112 1041T113 1077T115 1115T118 1153T123 1185T131 1208T144 1216H636Q645 1216 650 1198T657 1139T659 1070T660 988V868Q653 848 613 842T496 836H376Q370 836 148
830Q129 849 112 876Z" />
<glyph unicode="&#xa2;" glyph-name="cent" horiz-adv-x="1496" d="M1360 380Q1353 284 1321 212T1231 90T1108 10T952 -48Q956 -160 956 -220Q956 -249 948 -262T916 -276H846Q810 -276 738 -274T630 -272L592 -230V-54H526Q330 -1 231 153T132 536Q132 944 600
1082Q600 1119 599 1186T598 1286Q601 1313 620 1316H932Q930 1280 930 1192V1160Q930 1108 928 1082Q1104 1074 1212 970T1344 662Q1344 640 1216 640Q1197 640 1166 641T1128 642Q1093 642 1025 641T920 640T870 646T856 674Q856 800 782 800Q746 800 721 774T685
706T669 626T664 548V504Q664 466 666 448V392Q666 368 669 347T682 302T712 266T760 252Q803 252 829 274T863 323T876 378T884 412Q1034 410 1330 410Q1351 407 1360 380Z" />
<glyph unicode="&#xa3;" glyph-name="sterling" horiz-adv-x="1440" d="M824 1546Q923 1546 1009 1530T1172 1478T1302 1387T1387 1253T1418 1072Q1418 1054 1416 1045T1410 1034T1396 1028Q1260 1028 976 1032Q935 1034 915 1046T890 1074T882 1105T865 1131T820
1142Q740 1134 740 1008Q740 986 742 951T744 900H1038Q1038 857 1039 768T1040 636Q1040 617 1034 607T1006 596H840Q812 596 794 594T764 584T747 568T741 543T740 510T742 466T744 412Q956 416 1052 416H1104Q1148 416 1236 420T1368 424Q1389 420 1394 405T1400
354V326Q1400 278 1402 180T1404 34Q1404 -4 1383 -16T1324 -28H72L44 0Q44 24 40 68V132Q40 151 38 200T36 280Q36 378 70 392H190V586Q177 586 153 587T116 588Q100 584 68 584Q43 584 25 594T6 624Q6 652 7 701T8 774Q8 782 7 805T6 840Q6 904 36 908H198Q198
924 197 959T196 1012Q196 1121 228 1210T317 1361T453 1465T626 1526T824 1546Z" />
<glyph unicode="&#xa4;" glyph-name="currency" horiz-adv-x="1478" d="M344 252Q296 319 266 417T236 618Q236 678 244 740T283 884T364 1018L363 1019L362 1020V1021H361L360 1022V1023H359L358 1024L357 1025V1026L356 1027H355L354 1028L353 1029V1030L352
1031L351 1032L350 1033L349 1034H348L347 1035L346 1036L345 1037L344 1038L343 1039V1040L342 1041L341 1042L340 1043L338 1045L337 1046L336 1047L335 1048L334 1049L333 1050L332 1051L331 1052L330 1053L329 1055L328 1056L326 1057L325 1058L324 1059L323
1061L322 1062L321 1063L319 1064L318 1066L317 1067L316 1068L314 1070L313 1071L312 1072L311 1073L309 1075L308 1076L307 1077L305 1079L304 1080L303 1082L302 1083L300 1084L299 1086L297 1087L296 1089L295 1090L293 1091L292 1093L291 1094L289 1096L288
1097L286 1099L285 1100L283 1102L282 1103L281 1105L279 1106L278 1108L276 1109L275 1111L273 1112L272 1114L270 1116L269 1117L267 1119L266 1120L264 1122L263 1124L261 1125L259 1127L258 1128L256 1130L255 1132L253 1133L252 1135L250 1137L248 1138L247
1140L245 1142L244 1143L242 1145L240 1147L239 1148L237 1150L235 1152L234 1154L232 1155L230 1157L229 1159L227 1161L225 1162L224 1164L222 1166L220 1168L218 1169L217 1171L215 1173L213 1175L212 1177L210 1178L208 1180L206 1182L205 1184L203 1186L201
1187L200 1189L198 1191Q198 1203 237 1229T282 1256L442 1084Q578 1176 746 1176Q982 1176 1102 1056L1289 1255Q1300 1255 1323 1238T1356 1210V1212Q1362 1206 1362 1200Q1362 1182 1306 1122Q1190 1000 1176 984Q1280 853 1280 584Q1280 410 1198 284L1272
206Q1332 142 1368 74V58Q1364 55 1356 53T1337 50T1324 48V40Q1322 39 1318 38T1310 34T1300 29T1291 26T1285 24L1126 194Q1057 125 978 96T798 58H752Q724 65 649 76T524 107T420 168L356 100Q294 34 268 34Q262 34 256 40H224V74Q229 84 241 110T258 146T275
174T300 206L344 252ZM494 630Q494 487 554 408T720 328H752Q776 328 794 329T840 337T888 353T932 385T970 435T994 508T1004 608Q1004 668 996 715T975 793T941 847T900 880T853 898T805 906T756 908H720Q689 908 661 902T602 878T547 830T509 749T494 630Z"
/>
<glyph unicode="&#xa5;" glyph-name="yen" horiz-adv-x="1456" d="M-48 1475Q-48 1490 21 1501T161 1512H227L281 1513Q334 1514 375 1514Q553 1514 569 1484Q583 1440 611 1354T653 1224L681 1136Q690 1107 701 1075T727 1001T748 940L905 1428Q923 1479 963
1493T1117 1508H1419Q1435 1508 1444 1508T1466 1504T1486 1494T1493 1476Q1472 1437 1428 1362T1363 1248L1199 831L1241 824Q1250 824 1269 826T1297 828Q1329 821 1329 760Q1329 749 1329 729T1330 694T1331 659T1328 625T1323 598T1313 577T1297 568H1063Q1046
510 1029 408Q1099 414 1223 414Q1294 414 1314 401T1335 344Q1335 336 1334 320T1333 296V218Q1333 171 1320 158T1269 144H1021V0Q1018 -15 1002 -23T958 -34T905 -37T848 -37T801 -36H447L417 12V44Q419 50 419 64Q419 77 418 102T417 140H393L225 132Q169 132
145 141T117 176Q117 197 118 234T119 292Q119 299 118 317T117 348Q117 412 169 412H265Q283 413 317 412T363 410H409V414Q409 429 411 453T414 495T415 531T409 558T393 568Q377 568 326 565T247 564H151Q121 571 121 668V772Q121 797 132 809T155 822T196 824Q202
824 205 824Q243 824 265 822V896L-48 1475Z" />
<glyph unicode="&#xa6;" glyph-name="brokenbar" horiz-adv-x="494" d="M80 -320Q80 -161 82 12T87 303T90 442Q90 448 89 457T88 468Q88 496 104 512H396V-320Q385 -360 302 -360H112L80 -320ZM80 778Q80 924 82 1084T87 1352T90 1480Q90 1485 89 1494T88 1508Q88
1527 96 1537T116 1548T143 1549T172 1550H312Q325 1550 339 1550T366 1550T387 1541T396 1516V780Q386 740 302 740H112L80 778Z" />
<glyph unicode="&#xa7;" glyph-name="section" horiz-adv-x="1818" d="M276 324Q335 294 425 275T584 256Q606 256 625 265T644 296Q644 304 636 313T613 330T586 344T557 356T538 364L416 412Q188 501 188 708Q188 799 240 875T386 986Q320 1018 284 1077T248
1218Q263 1378 396 1459T756 1540Q874 1540 1043 1523T1218 1478Q1218 1435 1219 1355T1220 1232Q1220 1192 1196 1192Q1185 1194 1153 1201T1107 1210T1064 1218T1017 1226T974 1230T928 1232Q904 1232 886 1226T868 1208Q868 1193 893 1180T971 1149T1034 1128H1080Q1208
1078 1273 994T1344 810Q1344 574 1146 476Q1200 440 1232 382T1264 258Q1264 181 1231 121T1150 27T1037 -29T918 -58T810 -66Q519 -66 252 -20L222 20Q220 94 220 238Q220 328 258 328Q261 328 267 326T276 324ZM680 848Q665 848 647 818T628 772Q628 743 650
719T704 679T769 652T827 637T858 632Q873 632 900 648T928 688Q928 714 893 742T818 789T732 826T680 848Z" />
<glyph unicode="&#xa8;" glyph-name="dieresis" horiz-adv-x="658" d="M-116 1432V1494Q-116 1597 -107 1690T-80 1784H248Q272 1776 272 1736V1416Q264 1388 176 1388Q162 1388 138 1389T106 1390Q70 1390 4 1387T-84 1382Q-100 1409 -116 1432ZM432 1428Q432
1767 464 1784Q536 1780 570 1780Q596 1780 648 1782T734 1784Q812 1784 816 1760Q820 1532 820 1420Q815 1396 800 1396Q796 1396 796 1398Q736 1393 625 1390T464 1382L432 1422V1428Z" />
<glyph unicode="&#xa9;" glyph-name="copyright" horiz-adv-x="1646" d="M8 734Q8 883 50 1012T168 1236T345 1400T565 1503T812 1538Q973 1538 1121 1477T1382 1310T1561 1051T1628 724Q1628 571 1562 426T1387 174T1131 1T828 -64Q599 -64 388 60Q304 109 239
174T135 306T68 450T28 594T8 734ZM828 1304Q710 1304 607 1258T432 1134T314 957T250 746Q250 597 325 466T528 255T806 176Q919 176 1023 221T1205 345T1329 533T1376 768Q1376 915 1300 1038T1099 1231T828 1304ZM822 536Q852 536 871 545T899 569T918 600T940
631T976 654T1038 664H1154Q1175 664 1188 662T1213 651T1224 624Q1200 469 1098 376T852 282Q757 282 679 309T548 381T460 486T408 612T392 748Q392 848 431 933T534 1075T678 1162T844 1194Q998 1194 1090 1107T1216 872Q1216 840 1148 840H978Q956 849 942
870T921 910T893 943T834 958Q788 958 755 937T705 882T680 812T672 738Q672 654 709 595T822 536Z" />
<glyph unicode="&#xaa;" glyph-name="ordfeminine" horiz-adv-x="844" d="M50 1056Q50 1152 137 1198T376 1244Q424 1244 508 1240V1280Q508 1340 488 1370T416 1400Q382 1400 355 1386T320 1344H76Q97 1494 428 1494Q553 1494 601 1486Q790 1456 790 1296Q790
1226 789 1097T788 904Q772 904 764 902H736Q700 902 629 904T520 906V944Q520 947 517 952T514 960V964Q408 888 274 888Q172 888 111 929T50 1056ZM312 1082Q312 1042 339 1023T408 1004Q454 1004 477 1021T508 1084V1188Q502 1188 479 1186T445 1184T414 1180T381
1172T355 1160T332 1142T318 1116T312 1082Z" />
<glyph unicode="&#xab;" glyph-name="guillemotleft" d="M-19 507L334 1044H757Q757 1025 748 990T725 932L697 880Q667 831 639 771T580 635T531 520L757 12Q757 -20 595 -20H537Q405 -24 351 -24Q338 -24 332 -20T321 2Q279 65 190 195Q46 405 -19 507ZM588
504L921 1028Q932 1044 991 1044H1013Q1048 1044 1117 1045T1221 1046Q1227 1046 1251 1047T1289 1048T1323 1045T1352 1034T1365 1014L1253 770Q1154 557 1137 524V484Q1155 441 1197 360T1255 246L1361 12Q1361 -24 1285 -24H917Q694 338 588 504Z" />
<glyph unicode="&#xac;" glyph-name="logicalnot" horiz-adv-x="1282" d="M96 634Q96 662 98 716T100 800Q100 816 99 846T98 892Q98 913 108 916Q120 916 122 914Q299 914 643 920T1158 926Q1182 923 1194 908V256Q1191 242 1190 239T1185 229T1175 221T1156
220H1096Q1060 220 989 218T880 216L844 260V592H116Q96 601 96 634Z" />
<glyph unicode="&#xad;" glyph-name="uni00AD" horiz-adv-x="858" d="M36 360V642Q36 744 68 744Q446 744 640 746Q688 746 712 744H780Q808 739 808 610V396Q804 360 780 360Q659 360 424 350T72 340V360H36Z" />
<glyph unicode="&#xae;" glyph-name="registered" horiz-adv-x="1710" d="M50 736Q50 888 99 1020T229 1246T414 1407T630 1506T852 1538Q1015 1538 1163 1478T1423 1313T1601 1055T1668 724Q1668 564 1604 418T1431 166T1175 -1T868 -64Q750 -64 626 -27T392
80Q313 131 253 198T158 329T99 470T66 607T50 736ZM858 1300Q623 1300 466 1147T308 752Q308 641 345 540T451 361T621 238T844 192Q1005 192 1133 267T1331 476T1402 776Q1402 934 1326 1055T1128 1238T858 1300ZM588 1114Q852 1120 866 1120Q990 1120 1069 1070T1148
918Q1148 851 1129 804T1079 737T1024 708T976 700L1129 415L1124 378Q1123 378 1103 377T1054 374T1000 372L839 685L736 684V612Q736 494 732 440V384Q732 376 684 376Q676 376 644 377T588 378V1114ZM736 816Q750 816 801 814T884 812Q941 812 972 829T1004
896Q1004 958 967 975T840 992Q804 992 788 990H736V816Z" />
<glyph unicode="&#xaf;" glyph-name="overscore" horiz-adv-x="678" d="M-124 1184V1344Q-124 1436 -100 1464H6Q409 1438 560 1438H624Q649 1438 700 1440T776 1442Q796 1440 796 1394Q796 1386 795 1371T794 1348V1312Q794 1293 795 1258T796 1204Q796 1177
783 1167T744 1156H-94Q-99 1161 -109 1170T-124 1184Z" />
<glyph unicode="&#xb0;" glyph-name="degree" horiz-adv-x="878" d="M108 1244Q118 1306 142 1358T205 1454T303 1523T436 1548Q560 1548 654 1459T748 1236V1224Q748 1108 658 1012T450 916Q391 916 333 936T223 994T140 1097T108 1244Z" />
<glyph unicode="&#xb1;" glyph-name="plusminus" horiz-adv-x="1266" d="M80 14Q80 41 81 89T82 164Q82 172 81 192T80 224Q80 297 120 316H148Q319 302 500 302Q553 302 662 303T824 304Q1001 304 1150 296Q1154 296 1157 294T1163 286T1167 275T1170 260T1171
242T1172 222T1172 203T1172 182T1172 162V0Q1170 -24 1124 -24H112L80 4V14ZM84 672V940Q85 955 104 964T156 976T215 979T273 978T308 976H458V1008Q458 1026 458 1053T457 1094T457 1128T461 1158T471 1178T487 1192T512 1196H744Q761 1196 770 1195T790 1188T800
1168V968H1148Q1163 965 1169 956T1176 924V688Q1176 650 1148 650H792V436H720Q682 436 612 434T508 432Q472 432 472 456V460Q468 501 468 640Q420 644 398 644H326Q303 644 259 642T192 640H148Q84 640 84 672Z" />
<glyph unicode="&#xb2;" glyph-name="uni00B2" horiz-adv-x="1160" d="M142 -24Q116 18 116 80Q116 114 113 180T110 276L536 560L564 608Q636 680 636 744Q636 772 619 789T572 806Q522 806 510 752V692H116Q120 776 147 842T217 952T319 1025T444 1067T588 1080Q680
1080 761 1061T908 1005T1013 903T1052 754Q1052 682 1030 625T966 523T882 446T781 367T684 284Q731 284 829 286T980 288Q1029 288 1046 257T1064 164Q1064 145 1062 100T1060 30V16Q1060 -16 1032 -16H980Q934 -16 859 -13T754 -10Q430 -10 142 -24Z" />
<glyph unicode="&#xb3;" glyph-name="uni00B3" horiz-adv-x="1226" d="M474 336Q490 336 500 319T515 282T538 245T584 228Q620 228 642 250T664 306Q664 340 652 362T616 394T571 407T520 410Q514 408 504 408Q476 408 459 426T442 474V520Q442 578 450 605T480
632H536Q654 632 654 744Q654 773 637 792T588 812Q556 812 540 796T523 760T514 721T492 696H384Q354 694 299 697T226 700H190Q172 700 162 701T144 709T136 726Q137 733 138 761T143 807T154 844V874Q175 928 216 967T304 1027T415 1062T532 1078T652 1082Q717
1082 785 1063T915 1009T1016 913T1056 778Q1056 734 1045 699T1019 641T977 601T930 573T878 552Q1078 494 1078 308Q1078 227 1048 164T972 64T864 2T746 -31T632 -40Q572 -40 524 -37T422 -25T326 -1T245 42T180 105T138 195T120 314Q120 336 140 336H474Z"
/>
<glyph unicode="&#xb4;" glyph-name="acute" horiz-adv-x="640" d="M28 1402L244 1769L436 1764Q444 1764 467 1763T518 1761T579 1759T643 1756T699 1750T739 1741T755 1730L484 1426Q467 1407 452 1395T425 1376T393 1366T362 1362T319 1360T268 1358H52L28 1402Z" />
<glyph unicode="&#xb5;" glyph-name="uni00B5" horiz-adv-x="1358" d="M948 -20Q934 -20 905 -20T865 -21T833 -19T805 -13T785 0T768 21T760 52T756 96V76Q727 26 684 -11T596 -48V-400Q420 -412 324 -412H292Q278 -410 256 -410H176Q169 -410 156 -411T136 -412Q82
-412 82 -386V1018Q82 1025 83 1031T87 1041T93 1049T100 1055T109 1058T119 1060T131 1061T142 1062T155 1062T168 1062L580 1058Q597 1055 605 1046T616 1016V448Q616 412 617 392T624 348T641 315T672 304Q705 304 717 329T730 392L742 1024Q742 1048 764 1048H1264Q1279
1046 1281 1042T1285 1028T1296 1008Q1296 887 1293 656T1290 310V8Q1283 -20 1236 -20H948Z" />
<glyph unicode="&#xb6;" glyph-name="paragraph" horiz-adv-x="1322" d="M804 156Q804 152 804 123T805 74T803 27T795 -13T780 -28Q744 -28 666 -30T552 -32Q476 -32 476 -4V188Q476 288 478 478T480 768Q432 770 393 774T305 788T219 815T143 858T80 922T40
1012T24 1132Q24 1190 37 1239T71 1323T126 1385T192 1430T270 1460T350 1479T434 1488T510 1491T580 1492Q588 1492 592 1492H1196Q1207 1492 1214 1491T1229 1485T1240 1469T1244 1440V-8Q1241 -35 1208 -41T1096 -48H1008Q996 -48 970 -47T932 -46Q924 -46 915
-38T897 -16T884 0V64Q884 254 892 649T900 1236H804V156Z" />
<glyph unicode="&#xb7;" glyph-name="middot" horiz-adv-x="790" d="M112 504Q120 521 130 555T148 617T174 678T216 734T283 772T384 788H428Q518 788 591 703T664 520Q664 400 586 317T396 234Q277 234 199 315T112 504Z" />
<glyph unicode="&#xb8;" glyph-name="cedilla" horiz-adv-x="604" d="M-10 -432Q-10 -416 6 -380V-352Q17 -331 23 -320T43 -295T72 -280L136 -304Q192 -327 240 -324Q324 -324 324 -284Q321 -260 280 -260Q268 -260 260 -264H228V-276Q201 -276 188 -268L144
-236Q130 -229 115 -214T95 -181L221 38H400Q432 35 432 4Q432 -5 424 -20T403 -52T388 -76Q496 -76 556 -129T616 -270Q616 -347 569 -404T448 -488T286 -516Q190 -516 90 -491T-10 -432Z" />
<glyph unicode="&#xb9;" glyph-name="uni00B9" horiz-adv-x="1030" d="M420 -22Q387 -22 372 -10T356 34Q356 142 360 341T364 648Q269 587 168 552Q147 552 144 572V672Q144 864 152 864L284 926Q334 945 386 980T460 1052Q576 1048 636 1048Q649 1048 674 1049T712
1050H740Q758 1050 768 1052Q776 1051 779 1046T783 1034T784 1008V922Q784 879 782 794T780 664Q780 556 785 335T790 4Q790 -22 690 -22Q664 -22 652 -20H620Q593 -20 540 -21T460 -22H420Z" />
<glyph unicode="&#xba;" glyph-name="ordmasculine" horiz-adv-x="938" d="M-28 1186V1200Q-20 1276 9 1335T82 1433T181 1495T296 1530T418 1540Q952 1540 952 1196Q940 836 420 836Q3 836 -28 1186Z" />
<glyph unicode="&#xbb;" glyph-name="guillemotright" horiz-adv-x="1332" d="M757 521L443 0Q411 -16 301 -16H261Q176 -24 73 -24Q1 -24 1 4Q1 38 49 130Q84 201 142 339T213 508L-2 1023Q-2 1032 6 1038T29 1047T61 1050Q77 1050 131 1051T229 1052T322 1052T402
1044T437 1028L757 521ZM571 0Q600 75 640 167T725 357T797 523L570 1019Q570 1044 651 1044H701Q737 1044 807 1045T913 1046H953Q961 1044 974 1042Q1004 1037 1014 1027Q1022 1019 1045 981L1051 972Q1136 836 1219 698Q1227 684 1260 640T1316 557T1340 501L1106
171L1013 -4Q997 -20 893 -20H793Q749 -24 733 -24Q730 -24 723 -23T711 -22H629Q571 -22 571 0Z" />
<glyph unicode="&#xbc;" glyph-name="onequarter" horiz-adv-x="2592" d="M1464 419Q1503 522 1563 624T1703 847T1824 1035H1980Q2011 1036 2081 1041T2190 1047H2352V999Q2352 936 2350 812T2348 623V539Q2348 531 2347 515T2346 491Q2346 439 2376 439H2436Q2459
439 2465 432T2472 399Q2472 395 2468 395Q2468 392 2469 366T2472 301T2474 229Q2474 178 2470 161T2450 143H2352V79Q2354 61 2354 19Q2354 3 2353 -4T2346 -18T2328 -25H1964Q1961 -21 1952 -13T1940 1V147H1532Q1528 147 1519 147T1506 147T1496 147T1487 149T1479
153T1471 160T1464 169V419ZM1754 435Q1756 430 1763 418T1772 399Q1778 399 1814 398T1873 398T1925 401T1971 409T1990 427Q1990 436 1989 453T1988 479V489Q1992 507 1992 591Q1992 785 1964 793Q1951 790 1948 781Q1852 605 1754 435ZM712 16Q720 44 726 58Q983
764 1278 1540Q1284 1556 1372 1556Q1403 1556 1450 1554T1506 1552H1540Q1572 1552 1586 1545T1600 1518Q1600 1497 1589 1463T1560 1382T1536 1318Q1285 572 1228 404L1116 98Q1111 84 1104 59T1092 22T1077 -8T1052 -35T1012 -51T952 -60H912Q888 -64 848 -64H746Q735
-43 712 16ZM369 602Q336 602 321 614T305 658Q305 766 309 965T313 1272Q218 1211 117 1176Q96 1176 93 1196V1296Q93 1488 101 1488L233 1550Q283 1569 335 1604T409 1676Q525 1672 585 1672Q598 1672 623 1673T661 1674H689Q707 1674 717 1676Q725 1675 728
1670T732 1658T733 1632V1546Q733 1503 731 1418T729 1288Q729 1180 734 959T739 628Q739 602 639 602Q613 602 601 604H569Q542 604 489 603T409 602H369Z" />
<glyph unicode="&#xbd;" glyph-name="onehalf" horiz-adv-x="2600" d="M1466 -29Q1440 13 1440 75Q1440 109 1437 175T1434 271L1860 555L1888 603Q1960 675 1960 739Q1960 767 1943 784T1896 801Q1846 801 1834 747V687H1440Q1444 771 1471 837T1541 947T1643
1020T1768 1062T1912 1075Q2004 1075 2085 1056T2232 1000T2337 898T2376 749Q2376 677 2354 620T2290 518T2206 441T2105 362T2008 279Q2055 279 2153 281T2304 283Q2353 283 2370 252T2388 159Q2388 140 2386 95T2384 25V11Q2384 -21 2356 -21H2304Q2258 -21
2183 -18T2078 -15Q1754 -15 1466 -29ZM712 16Q720 44 726 58Q983 764 1278 1540Q1284 1556 1372 1556Q1403 1556 1450 1554T1506 1552H1540Q1572 1552 1586 1545T1600 1518Q1600 1497 1589 1463T1560 1382T1536 1318Q1285 572 1228 404L1116 98Q1111 84 1104 59T1092
22T1077 -8T1052 -35T1012 -51T952 -60H912Q888 -64 848 -64H746Q735 -43 712 16ZM369 602Q336 602 321 614T305 658Q305 766 309 965T313 1272Q218 1211 117 1176Q96 1176 93 1196V1296Q93 1488 101 1488L233 1550Q283 1569 335 1604T409 1676Q525 1672 585 1672Q598
1672 623 1673T661 1674H689Q707 1674 717 1676Q725 1675 728 1670T732 1658T733 1632V1546Q733 1503 731 1418T729 1288Q729 1180 734 959T739 628Q739 602 639 602Q613 602 601 604H569Q542 604 489 603T409 602H369Z" />
<glyph unicode="&#xbe;" glyph-name="threequarters" horiz-adv-x="2588" d="M1488 419Q1527 522 1587 624T1727 847T1848 1035H2004Q2035 1036 2105 1041T2214 1047H2376V999Q2376 936 2374 812T2372 623V539Q2372 531 2371 515T2370 491Q2370 439 2400 439H2460Q2483
439 2489 432T2496 399Q2496 395 2492 395Q2492 392 2493 366T2496 301T2498 229Q2498 178 2494 161T2474 143H2376V79Q2378 61 2378 19Q2378 3 2377 -4T2370 -18T2352 -25H1988Q1985 -21 1976 -13T1964 1V147H1556Q1552 147 1543 147T1530 147T1520 147T1511 149T1503
153T1495 160T1488 169V419ZM1778 435Q1780 430 1787 418T1796 399Q1802 399 1838 398T1897 398T1949 401T1995 409T2014 427Q2014 436 2013 453T2012 479V489Q2016 507 2016 591Q2016 785 1988 793Q1975 790 1972 781Q1876 605 1778 435ZM852 16Q860 44 866 58Q1123
764 1418 1540Q1424 1556 1512 1556Q1543 1556 1590 1554T1646 1552H1680Q1712 1552 1726 1545T1740 1518Q1740 1497 1729 1463T1700 1382T1676 1318Q1425 572 1368 404L1256 98Q1251 84 1244 59T1232 22T1217 -8T1192 -35T1152 -51T1092 -60H1052Q1028 -64 988
-64H886Q875 -43 852 16ZM425 960Q441 960 451 943T466 906T489 869T535 852Q571 852 593 874T615 930Q615 964 603 986T567 1018T522 1031T471 1034Q465 1032 455 1032Q427 1032 410 1050T393 1098V1144Q393 1202 401 1229T431 1256H487Q605 1256 605 1368Q605
1397 588 1416T539 1436Q507 1436 491 1420T474 1384T465 1345T443 1320H335Q305 1318 250 1321T177 1324H141Q123 1324 113 1325T95 1333T87 1350Q88 1357 89 1385T94 1431T105 1468V1498Q126 1552 167 1591T255 1651T366 1686T483 1702T603 1706Q668 1706 736
1687T866 1633T967 1537T1007 1402Q1007 1358 996 1323T970 1265T928 1225T881 1197T829 1176Q1029 1118 1029 932Q1029 851 999 788T923 688T815 626T697 593T583 584Q523 584 475 587T373 599T277 623T196 666T131 729T89 819T71 938Q71 960 91 960H425Z" />
<glyph unicode="&#xbf;" glyph-name="questiondown" horiz-adv-x="1120" d="M416 930Q416 956 460 956H576Q636 956 753 960T930 964Q960 959 960 848V814Q960 753 933 700T866 605T785 526T709 440T664 342Q675 276 772 276Q914 279 1046 336L1092 298V-70Q1092
-110 1008 -136T838 -169T668 -176Q539 -174 446 -159T276 -104L234 -82Q149 -28 104 40V68Q83 102 65 171T42 252Q45 363 104 457T248 620L314 672Q367 713 395 750T424 834Q421 846 416 930ZM420 1378V1438Q423 1456 444 1456Q448 1456 448 1454Q504 1456 616
1462T784 1470H932L964 1436V1208Q964 1092 934 1074H776Q727 1076 649 1078Q488 1083 457 1093T424 1156V1256Q420 1340 420 1378Z" />
<glyph unicode="&#xc0;" glyph-name="Agrave" horiz-adv-x="1638" d="M458 1984Q458 2004 482 2016Q712 2000 910 2000H950Q963 1997 1002 1936Q1080 1807 1136 1720V1698Q1141 1691 1153 1677T1174 1653T1182 1636Q1182 1624 1177 1617T1156 1608T1133 1605T1102
1604H778Q730 1662 574 1836L532 1880Q458 1954 458 1984ZM-48 0Q14 229 89 465T275 1029T428 1484Q440 1504 444 1508H612Q671 1508 786 1510T960 1512H1128Q1143 1512 1153 1512T1177 1509T1199 1503T1214 1491T1220 1472L1681 11Q1681 -9 1667 -16T1612 -24H1520Q1480
-24 1401 -25T1282 -26Q1270 -26 1234 -27T1172 -29T1117 -26T1068 -15T1044 8V74Q1034 124 1009 166T956 208H612L560 -4Q549 -28 448 -28H368Q325 -28 240 -31T112 -34H84Q68 -34 34 -35T-20 -36Q-28 -28 -48 0ZM646 607L674 560H740Q820 560 886 569T953 600L824
1176Q806 1176 776 1108T726 954L646 607Z" />
<glyph unicode="&#xc1;" glyph-name="Aacute" horiz-adv-x="1638" d="M460 1654L676 2021L868 2016Q876 2016 899 2015T950 2013T1011 2011T1075 2008T1131 2002T1171 1993T1187 1982L916 1678Q899 1659 884 1647T857 1628T825 1618T794 1614T751 1612T700 1610H484L460
1654ZM-48 0Q14 229 89 465T275 1029T428 1484Q440 1504 444 1508H612Q671 1508 786 1510T960 1512H1128Q1143 1512 1153 1512T1177 1509T1199 1503T1214 1491T1220 1472L1681 11Q1681 -9 1667 -16T1612 -24H1520Q1480 -24 1401 -25T1282 -26Q1270 -26 1234 -27T1172
-29T1117 -26T1068 -15T1044 8V74Q1034 124 1009 166T956 208H612L560 -4Q549 -28 448 -28H368Q325 -28 240 -31T112 -34H84Q68 -34 34 -35T-20 -36Q-28 -28 -48 0ZM646 607L674 560H740Q820 560 886 569T953 600L824 1176Q806 1176 776 1108T726 954L646 607Z"
/>
<glyph unicode="&#xc2;" glyph-name="Acircumflex" horiz-adv-x="1638" d="M321 1675L504 1930Q515 1943 528 1963T548 1992T574 2010T621 2024T700 2030L1055 2040L1319 1671Q1319 1662 1312 1655T1293 1643T1264 1638H1196Q1036 1638 908 1630Q885 1642 869
1662T837 1715T814 1758Q810 1754 792 1723T753 1665T716 1638H402Q370 1638 346 1647T321 1675ZM-48 0Q14 229 89 465T275 1029T428 1484Q440 1504 444 1508H612Q671 1508 786 1510T960 1512H1128Q1143 1512 1153 1512T1177 1509T1199 1503T1214 1491T1220 1472L1681
11Q1681 -9 1667 -16T1612 -24H1520Q1480 -24 1401 -25T1282 -26Q1270 -26 1234 -27T1172 -29T1117 -26T1068 -15T1044 8V74Q1034 124 1009 166T956 208H612L560 -4Q549 -28 448 -28H368Q325 -28 240 -31T112 -34H84Q68 -34 34 -35T-20 -36Q-28 -28 -48 0ZM646
607L674 560H740Q820 560 886 569T953 600L824 1176Q806 1176 776 1108T726 954L646 607Z" />
<glyph unicode="&#xc3;" glyph-name="Atilde" horiz-adv-x="1638" d="M992 1624Q933 1624 826 1659T668 1694Q650 1694 646 1668T632 1642Q607 1640 560 1640T498 1638H370Q350 1646 350 1672Q350 1848 429 1934T654 2020Q701 2022 792 1996H860Q872 1993 892
1979T920 1962H954Q956 1954 958 1954Q968 1967 968 1986L1002 2014H1254Q1264 2014 1271 2007T1281 1996T1288 1978Q1275 1624 992 1624ZM968 1964V1966V1964ZM-48 0Q14 229 89 465T275 1029T428 1484Q440 1504 444 1508H612Q671 1508 786 1510T960 1512H1128Q1143
1512 1153 1512T1177 1509T1199 1503T1214 1491T1220 1472L1681 11Q1681 -9 1667 -16T1612 -24H1520Q1480 -24 1401 -25T1282 -26Q1270 -26 1234 -27T1172 -29T1117 -26T1068 -15T1044 8V74Q1034 124 1009 166T956 208H612L560 -4Q549 -28 448 -28H368Q325 -28
240 -31T112 -34H84Q68 -34 34 -35T-20 -36Q-28 -28 -48 0ZM646 607L674 560H740Q820 560 886 569T953 600L824 1176Q806 1176 776 1108T726 954L646 607Z" />
<glyph unicode="&#xc4;" glyph-name="Adieresis" horiz-adv-x="1638" d="M382 1660V1722Q382 1825 391 1918T418 2012H746Q770 2004 770 1964V1644Q762 1616 674 1616Q660 1616 636 1617T604 1618Q568 1618 502 1615T414 1610Q398 1637 382 1660ZM930 1656Q930
1995 962 2012Q1034 2008 1068 2008Q1094 2008 1146 2010T1232 2012Q1310 2012 1314 1988Q1318 1760 1318 1648Q1313 1624 1298 1624Q1294 1624 1294 1626Q1234 1621 1123 1618T962 1610L930 1650V1656ZM-48 0Q14 229 89 465T275 1029T428 1484Q440 1504 444 1508H612Q671
1508 786 1510T960 1512H1128Q1143 1512 1153 1512T1177 1509T1199 1503T1214 1491T1220 1472L1681 11Q1681 -9 1667 -16T1612 -24H1520Q1480 -24 1401 -25T1282 -26Q1270 -26 1234 -27T1172 -29T1117 -26T1068 -15T1044 8V74Q1034 124 1009 166T956 208H612L560
-4Q549 -28 448 -28H368Q325 -28 240 -31T112 -34H84Q68 -34 34 -35T-20 -36Q-28 -28 -48 0ZM646 607L674 560H740Q820 560 886 569T953 600L824 1176Q806 1176 776 1108T726 954L646 607Z" />
<glyph unicode="&#xc5;" glyph-name="Aring" horiz-adv-x="1638" d="M522 1900Q534 1925 550 1966T577 2034T609 2095T654 2149T720 2182T816 2196Q937 2196 1026 2113T1116 1904Q1116 1781 1030 1697T826 1612Q759 1612 703 1637T610 1703T551 1795T522 1900ZM704
1914Q708 1858 744 1827T826 1796Q871 1796 899 1824T928 1904Q928 1956 896 1985T820 2014Q778 2014 745 1988T704 1914ZM-48 0Q14 229 89 465T275 1029T428 1484Q440 1504 444 1508H612Q671 1508 786 1510T960 1512H1128Q1143 1512 1153 1512T1177 1509T1199
1503T1214 1491T1220 1472L1681 11Q1681 -9 1667 -16T1612 -24H1520Q1480 -24 1401 -25T1282 -26Q1270 -26 1234 -27T1172 -29T1117 -26T1068 -15T1044 8V74Q1034 124 1009 166T956 208H612L560 -4Q549 -28 448 -28H368Q325 -28 240 -31T112 -34H84Q68 -34 34 -35T-20
-36Q-28 -28 -48 0ZM646 607L674 560H740Q820 560 886 569T953 600L824 1176Q806 1176 776 1108T726 954L646 607Z" />
<glyph unicode="&#xc6;" glyph-name="AE" horiz-adv-x="2382" d="M1956 -12Q1878 -12 1752 -18T1554 -24H1156Q1151 -24 1136 -24T1112 -25T1091 -23T1070 -18T1055 -9T1044 8V74Q1034 124 1009 166T956 208H612L560 -4Q545 -28 448 -28H368Q325 -28 240 -31T112
-34H84Q68 -34 34 -35T-20 -36Q-28 -28 -48 0Q-4 164 64 374Q103 493 168 733T297 1165T436 1508H612Q671 1508 786 1510T960 1512H1128Q1144 1512 1168 1508Q1467 1516 1838 1516Q1864 1513 1870 1492Q1969 1135 1976 1110Q1976 1097 1961 1091T1926 1084H1900Q1637
1084 1424 1092Q1451 944 1454 934H1926Q1979 934 1988 900V868Q2000 820 2035 726T2082 584V574Q2082 564 2072 564L2060 568Q1752 552 1596 552H1570L1612 408Q1700 408 1865 416T2116 424Q2186 424 2200 396L2313 19Q2313 -13 2284 -14Q2283 -14 2282 -14Q2230
-14 2121 -13T1956 -12ZM646 607L674 560H740Q820 560 886 569T953 600L824 1176Q806 1176 776 1108T726 954L646 607Z" />
<glyph unicode="&#xc7;" glyph-name="Ccedilla" horiz-adv-x="1556" d="M466 -432Q466 -416 482 -380V-352Q493 -331 499 -320T519 -295T548 -280L612 -304Q668 -327 716 -324Q800 -324 800 -284Q797 -260 756 -260Q744 -260 736 -264H704V-276Q677 -276 664 -268L620
-236Q606 -229 591 -214T571 -181L697 38H876Q908 35 908 4Q908 -5 900 -20T879 -52T864 -76Q972 -76 1032 -129T1092 -270Q1092 -347 1045 -404T924 -488T762 -516Q666 -516 566 -491T466 -432ZM1528 536Q1511 386 1449 271T1290 83T1070 -27T800 -64Q664 -64
552 -35T363 44T227 163T133 308T77 471T48 636T40 796V884Q50 1030 108 1146T249 1334T439 1453T647 1519T848 1538Q1009 1538 1132 1500T1334 1391T1456 1231T1512 1028V932Q1512 900 1292 900Q1240 900 1148 902T1026 904Q1021 904 1011 903T996 902Q970 902
957 923T939 976T928 1038T901 1090T844 1112T781 1100T738 1063T712 1011T697 944T691 874T688 798T686 728Q686 716 684 684T682 632Q682 383 814 376Q850 376 873 402T904 460T924 527T948 576H1492Q1525 573 1528 536Z" />
<glyph unicode="&#xc8;" glyph-name="Egrave" horiz-adv-x="1306" d="M248 2012Q248 2032 272 2044Q502 2028 700 2028H740Q753 2025 792 1964Q870 1835 926 1748V1726Q931 1719 943 1705T964 1681T972 1664Q972 1652 967 1645T946 1636T923 1633T892 1632H568Q520
1690 364 1864L322 1908Q248 1982 248 2012ZM92 36V74Q92 245 96 579T100 1084V1498H1264V1170Q1264 1167 1264 1155T1264 1139T1263 1125T1260 1110T1253 1099T1242 1088T1226 1083T1204 1080H1176Q917 1080 704 1088Q702 1072 698 1039T691 980T688 930H1164Q1194
930 1204 922T1214 896Q1214 891 1213 880T1212 864Q1212 816 1215 722T1218 580Q1215 560 1202 560Q1196 560 1192 564Q876 548 724 548H698V404Q787 404 955 412T1208 420Q1274 420 1284 392V316Q1284 268 1286 174T1288 32Q1288 -18 1248 -18Q1196 -18 1088
-17T924 -16Q780 -16 512 -23T124 -32L96 0Q92 28 92 36Z" />
<glyph unicode="&#xc9;" glyph-name="Eacute" horiz-adv-x="1306" d="M300 1866L516 2233L708 2228Q716 2228 739 2227T790 2225T851 2223T915 2220T971 2214T1011 2205T1027 2194L756 1890Q739 1871 724 1859T697 1840T665 1830T634 1826T591 1824T540 1822H324L300
1866ZM92 36V74Q92 245 96 579T100 1084V1498H1264V1170Q1264 1167 1264 1155T1264 1139T1263 1125T1260 1110T1253 1099T1242 1088T1226 1083T1204 1080H1176Q917 1080 704 1088Q702 1072 698 1039T691 980T688 930H1164Q1194 930 1204 922T1214 896Q1214 891
1213 880T1212 864Q1212 816 1215 722T1218 580Q1215 560 1202 560Q1196 560 1192 564Q876 548 724 548H698V404Q787 404 955 412T1208 420Q1274 420 1284 392V316Q1284 268 1286 174T1288 32Q1288 -18 1248 -18Q1196 -18 1088 -17T924 -16Q780 -16 512 -23T124
-32L96 0Q92 28 92 36Z" />
<glyph unicode="&#xca;" glyph-name="Ecircumflex" horiz-adv-x="1306" d="M183 1663L366 1918Q377 1931 390 1951T410 1980T436 1998T483 2012T562 2018L917 2028L1181 1659Q1181 1650 1174 1643T1155 1631T1126 1626H1058Q898 1626 770 1618Q747 1630 731 1650T699
1703T676 1746Q672 1742 654 1711T615 1653T578 1626H264Q232 1626 208 1635T183 1663ZM92 36V74Q92 245 96 579T100 1084V1498H1264V1170Q1264 1167 1264 1155T1264 1139T1263 1125T1260 1110T1253 1099T1242 1088T1226 1083T1204 1080H1176Q917 1080 704 1088Q702
1072 698 1039T691 980T688 930H1164Q1194 930 1204 922T1214 896Q1214 891 1213 880T1212 864Q1212 816 1215 722T1218 580Q1215 560 1202 560Q1196 560 1192 564Q876 548 724 548H698V404Q787 404 955 412T1208 420Q1274 420 1284 392V316Q1284 268 1286 174T1288
32Q1288 -18 1248 -18Q1196 -18 1088 -17T924 -16Q780 -16 512 -23T124 -32L96 0Q92 28 92 36Z" />
<glyph unicode="&#xcb;" glyph-name="Edieresis" horiz-adv-x="1306" d="M218 1662V1724Q218 1827 227 1920T254 2014H582Q606 2006 606 1966V1646Q598 1618 510 1618Q496 1618 472 1619T440 1620Q404 1620 338 1617T250 1612Q234 1639 218 1662ZM766 1658Q766
1997 798 2014Q870 2010 904 2010Q930 2010 982 2012T1068 2014Q1146 2014 1150 1990Q1154 1762 1154 1650Q1149 1626 1134 1626Q1130 1626 1130 1628Q1070 1623 959 1620T798 1612L766 1652V1658ZM92 36V74Q92 245 96 579T100 1084V1498H1264V1170Q1264 1167 1264
1155T1264 1139T1263 1125T1260 1110T1253 1099T1242 1088T1226 1083T1204 1080H1176Q917 1080 704 1088Q702 1072 698 1039T691 980T688 930H1164Q1194 930 1204 922T1214 896Q1214 891 1213 880T1212 864Q1212 816 1215 722T1218 580Q1215 560 1202 560Q1196
560 1192 564Q876 548 724 548H698V404Q787 404 955 412T1208 420Q1274 420 1284 392V316Q1284 268 1286 174T1288 32Q1288 -18 1248 -18Q1196 -18 1088 -17T924 -16Q780 -16 512 -23T124 -32L96 0Q92 28 92 36Z" />
<glyph unicode="&#xcc;" glyph-name="Igrave" horiz-adv-x="828" d="M40 2008Q40 2028 64 2040Q294 2024 492 2024H532Q545 2021 584 1960Q662 1831 718 1744V1722Q723 1715 735 1701T756 1677T764 1660Q764 1648 759 1641T738 1632T715 1629T684 1628H360Q312
1686 156 1860L114 1904Q40 1978 40 2008ZM335 -26Q339 265 349 400Q349 820 361 1252Q357 1336 357 1376V1406Q353 1450 353 1478Q353 1497 371 1512Q535 1500 871 1500Q951 1500 981 1504V-26H335Z" />
<glyph unicode="&#xcd;" glyph-name="Iacute" horiz-adv-x="832" d="M160 1662L376 2029L568 2024Q576 2024 599 2023T650 2021T711 2019T775 2016T831 2010T871 2001T887 1990L616 1686Q599 1667 584 1655T557 1636T525 1626T494 1622T451 1620T400 1618H184L160
1662ZM82 -26Q86 265 96 400Q96 820 108 1252Q104 1336 104 1376V1406Q100 1450 100 1478Q100 1497 118 1512Q282 1500 618 1500Q698 1500 728 1504V-26H82Z" />
<glyph unicode="&#xce;" glyph-name="Icircumflex" horiz-adv-x="842" d="M-19 1665L164 1920Q175 1933 188 1953T208 1982T234 2000T281 2014T360 2020L715 2030L979 1661Q979 1652 972 1645T953 1633T924 1628H856Q696 1628 568 1620Q545 1632 529 1652T497
1705T474 1748Q470 1744 452 1713T413 1655T376 1628H62Q30 1628 6 1637T-19 1665ZM337 -26Q341 265 351 400Q351 820 363 1252Q359 1336 359 1376V1406Q355 1450 355 1478Q355 1497 373 1512Q537 1500 873 1500Q953 1500 983 1504V-26H337Z" />
<glyph unicode="&#xcf;" glyph-name="Idieresis" horiz-adv-x="828" d="M-4 1668V1730Q-4 1833 5 1926T32 2020H360Q384 2012 384 1972V1652Q376 1624 288 1624Q274 1624 250 1625T218 1626Q182 1626 116 1623T28 1618Q12 1645 -4 1668ZM544 1664Q544 2003 576
2020Q648 2016 682 2016Q708 2016 760 2018T846 2020Q924 2020 928 1996Q932 1768 932 1656Q927 1632 912 1632Q908 1632 908 1634Q848 1629 737 1626T576 1618L544 1658V1664ZM331 -26Q335 265 345 400Q345 820 357 1252Q353 1336 353 1376V1406Q349 1450 349
1478Q349 1497 367 1512Q531 1500 867 1500Q947 1500 977 1504V-26H331Z" />
<glyph unicode="&#xd0;" glyph-name="Eth" horiz-adv-x="1644" d="M100 1472Q100 1482 113 1489T150 1501T199 1508T258 1511T313 1512T364 1513T396 1512H508Q540 1512 599 1514T690 1516Q1152 1516 1372 1352L1408 1320Q1424 1305 1445 1279T1497 1201T1551
1089T1592 941T1610 760Q1610 614 1570 487T1460 266T1297 106T1094 6T868 -28H838Q795 -28 710 -26T580 -24Q426 -24 352 -26H128Q113 3 106 43T98 110T98 190T100 258Q100 306 102 401T104 544V618Q82 616 42 616H-20V628Q-57 637 -60 640V810Q-60 837 -51 856T-24
876H100V1472ZM692 320Q761 320 814 337T902 387T960 459T995 550T1011 651T1016 758V820Q1016 877 1011 923T988 1020T942 1105T863 1161T744 1184H688Q683 1173 672 1154T656 1124V876H792Q824 876 824 750V678Q824 630 792 630Q772 630 729 629T662 628L668
340Q671 323 692 320Z" />
<glyph unicode="&#xd1;" glyph-name="Ntilde" horiz-adv-x="1726" d="M1034 1814Q975 1814 868 1849T710 1884Q692 1884 688 1858T674 1832Q649 1830 602 1830T540 1828H412Q392 1836 392 1862Q392 2038 471 2124T696 2210Q743 2212 834 2186H902Q914 2183 934
2169T962 2152H996Q998 2144 1000 2144Q1010 2157 1010 2176L1044 2204H1296Q1306 2204 1313 2197T1323 2186T1330 2168Q1317 1814 1034 1814ZM1010 2154V2156V2154ZM80 -4V448Q78 696 96 1394V1476Q96 1498 104 1502H792Q802 1502 832 1426T906 1231T968 1066L1108
700V1088Q1108 1138 1110 1271T1112 1480Q1112 1508 1272 1508Q1322 1508 1409 1506T1516 1504H1592Q1608 1504 1608 1498Q1614 1220 1614 702V8Q1607 -18 1550 -18H1524Q1472 -18 1371 -20T1218 -22H924Q910 -17 866 104Q819 235 726 483T622 760Q622 701 621
584T620 408Q620 364 622 276T624 144V18Q624 -28 584 -28H124L80 -4ZM1608 1500V1496V1500Z" />
<glyph unicode="&#xd2;" glyph-name="Ograve" horiz-adv-x="1644" d="M384 2024Q384 2044 408 2056Q638 2040 836 2040H876Q889 2037 928 1976Q1006 1847 1062 1760V1738Q1067 1731 1079 1717T1100 1693T1108 1676Q1108 1664 1103 1657T1082 1648T1059 1645T1028
1644H704Q656 1702 500 1876L458 1920Q384 1994 384 2024ZM24 752V862Q34 1002 85 1117T214 1312T396 1445T611 1525T844 1550Q910 1550 981 1539T1133 1504T1286 1434T1408 1324Q1507 1203 1551 1071T1596 776Q1599 438 1448 232L1404 172Q1346 92 1238 39T1022
-35T804 -56Q675 -56 566 -30T378 40T237 147T136 280T71 432T35 592T24 752ZM820 1148Q779 1148 747 1129T694 1083T658 1011T636 929T625 837T621 751T620 672Q620 626 623 585T638 497T668 416T719 358T794 332Q838 332 872 346T929 383T968 444T992 517T1005
604T1011 693T1012 788Q1012 830 1010 866T1001 946T981 1023T947 1086T895 1132T820 1148Z" />
<glyph unicode="&#xd3;" glyph-name="Oacute" horiz-adv-x="1644" d="M446 1674L662 2041L854 2036Q862 2036 885 2035T936 2033T997 2031T1061 2028T1117 2022T1157 2013T1173 2002L902 1698Q885 1679 870 1667T843 1648T811 1638T780 1634T737 1632T686 1630H470L446
1674ZM24 752V862Q34 1002 85 1117T214 1312T396 1445T611 1525T844 1550Q910 1550 981 1539T1133 1504T1286 1434T1408 1324Q1507 1203 1551 1071T1596 776Q1599 438 1448 232L1404 172Q1346 92 1238 39T1022 -35T804 -56Q675 -56 566 -30T378 40T237 147T136
280T71 432T35 592T24 752ZM820 1148Q779 1148 747 1129T694 1083T658 1011T636 929T625 837T621 751T620 672Q620 626 623 585T638 497T668 416T719 358T794 332Q838 332 872 346T929 383T968 444T992 517T1005 604T1011 693T1012 788Q1012 830 1010 866T1001
946T981 1023T947 1086T895 1132T820 1148Z" />
<glyph unicode="&#xd4;" glyph-name="Ocircumflex" horiz-adv-x="1644" d="M333 1673L516 1928Q527 1941 540 1961T560 1990T586 2008T633 2022T712 2028L1067 2038L1331 1669Q1331 1660 1324 1653T1305 1641T1276 1636H1208Q1048 1636 920 1628Q897 1640 881
1660T849 1713T826 1756Q822 1752 804 1721T765 1663T728 1636H414Q382 1636 358 1645T333 1673ZM24 752V862Q34 1002 85 1117T214 1312T396 1445T611 1525T844 1550Q910 1550 981 1539T1133 1504T1286 1434T1408 1324Q1507 1203 1551 1071T1596 776Q1599 438 1448
232L1404 172Q1346 92 1238 39T1022 -35T804 -56Q675 -56 566 -30T378 40T237 147T136 280T71 432T35 592T24 752ZM820 1148Q779 1148 747 1129T694 1083T658 1011T636 929T625 837T621 751T620 672Q620 626 623 585T638 497T668 416T719 358T794 332Q838 332 872
346T929 383T968 444T992 517T1005 604T1011 693T1012 788Q1012 830 1010 866T1001 946T981 1023T947 1086T895 1132T820 1148Z" />
<glyph unicode="&#xd5;" glyph-name="Otilde" horiz-adv-x="1644" d="M984 1624Q925 1624 818 1659T660 1694Q642 1694 638 1668T624 1642Q599 1640 552 1640T490 1638H362Q342 1646 342 1672Q342 1848 421 1934T646 2020Q693 2022 784 1996H852Q864 1993 884
1979T912 1962H946Q948 1954 950 1954Q960 1967 960 1986L994 2014H1246Q1256 2014 1263 2007T1273 1996T1280 1978Q1267 1624 984 1624ZM960 1964V1966V1964ZM24 752V862Q34 1002 85 1117T214 1312T396 1445T611 1525T844 1550Q910 1550 981 1539T1133 1504T1286
1434T1408 1324Q1507 1203 1551 1071T1596 776Q1599 438 1448 232L1404 172Q1346 92 1238 39T1022 -35T804 -56Q675 -56 566 -30T378 40T237 147T136 280T71 432T35 592T24 752ZM820 1148Q779 1148 747 1129T694 1083T658 1011T636 929T625 837T621 751T620 672Q620
626 623 585T638 497T668 416T719 358T794 332Q838 332 872 346T929 383T968 444T992 517T1005 604T1011 693T1012 788Q1012 830 1010 866T1001 946T981 1023T947 1086T895 1132T820 1148Z" />
<glyph unicode="&#xd6;" glyph-name="Odieresis" horiz-adv-x="1644" d="M382 1896V1958Q382 2061 391 2154T418 2248H746Q770 2240 770 2200V1880Q762 1852 674 1852Q660 1852 636 1853T604 1854Q568 1854 502 1851T414 1846Q398 1873 382 1896ZM930 1892Q930
2231 962 2248Q1034 2244 1068 2244Q1094 2244 1146 2246T1232 2248Q1310 2248 1314 2224Q1318 1996 1318 1884Q1313 1860 1298 1860Q1294 1860 1294 1862Q1234 1857 1123 1854T962 1846L930 1886V1892ZM24 752V862Q34 1002 85 1117T214 1312T396 1445T611 1525T844
1550Q910 1550 981 1539T1133 1504T1286 1434T1408 1324Q1507 1203 1551 1071T1596 776Q1599 438 1448 232L1404 172Q1346 92 1238 39T1022 -35T804 -56Q675 -56 566 -30T378 40T237 147T136 280T71 432T35 592T24 752ZM820 1148Q779 1148 747 1129T694 1083T658
1011T636 929T625 837T621 751T620 672Q620 626 623 585T638 497T668 416T719 358T794 332Q838 332 872 346T929 383T968 444T992 517T1005 604T1011 693T1012 788Q1012 830 1010 866T1001 946T981 1023T947 1086T895 1132T820 1148Z" />
<glyph unicode="&#xd7;" glyph-name="multiply" horiz-adv-x="1282" d="M145 271L404 532L147 797Q147 808 178 844Q182 848 228 903T314 993T384 1028L644 764L916 1037L1130 808Q1130 804 1124 797T1108 782Q1075 752 1016 694T946 624L862 538L1140 268L916
44L652 296L397 49Q378 49 349 65T300 104Q294 110 264 136T211 184T166 231T145 271Z" />
<glyph unicode="&#xd8;" glyph-name="Oslash" horiz-adv-x="1644" d="M288 -180Q288 -180 288 -174Q277 -174 251 -165T209 -147L342 63Q24 270 24 752V862Q34 1002 85 1117T214 1312T396 1445T611 1525T844 1550Q1052 1550 1240 1460L1352 1633Q1361 1633 1393
1615T1426 1586Q1426 1564 1358 1458L1324 1406Q1465 1302 1530 1134T1596 776Q1599 438 1448 232L1404 172Q1346 92 1238 39T1022 -35T804 -56Q590 -56 438 8L382 -80Q351 -128 329 -154T288 -180ZM820 1148Q779 1148 747 1129T694 1083T658 1011T636 929T625
837T621 751T620 672Q620 597 632 516L972 1044Q923 1148 820 1148ZM684 392Q724 332 794 332Q838 332 872 346T929 383T968 444T992 517T1005 604T1011 693T1012 788V846Q1012 866 1008 906L684 392Z" />
<glyph unicode="&#xd9;" glyph-name="Ugrave" horiz-adv-x="1614" d="M410 2008Q410 2028 434 2040Q664 2024 862 2024H902Q915 2021 954 1960Q1032 1831 1088 1744V1722Q1093 1715 1105 1701T1126 1677T1134 1660Q1134 1648 1129 1641T1108 1632T1085 1629T1054
1628H730Q682 1686 526 1860L484 1904Q410 1978 410 2008ZM92 498Q96 990 96 1232V1244Q96 1251 94 1293T92 1366Q92 1486 112 1502Q117 1502 127 1501T142 1500Q310 1508 532 1508H668Q676 1507 689 1502T708 1496Q709 1447 712 1327T717 1119T718 946V556Q718
519 720 496T729 442T756 396T806 380Q848 380 874 415T900 498V864Q899 931 901 1075T902 1300V1372Q902 1383 900 1405T898 1440V1488Q901 1511 924 1516Q1116 1516 1500 1512V1496H1544Q1536 1283 1536 1000V776Q1536 731 1534 638T1532 500Q1532 370 1491 270T1383
109T1221 9T1029 -45T820 -60Q712 -60 618 -47T426 5T259 104T143 265T92 498Z" />
<glyph unicode="&#xda;" glyph-name="Uacute" horiz-adv-x="1614" d="M460 1666L676 2033L868 2028Q876 2028 899 2027T950 2025T1011 2023T1075 2020T1131 2014T1171 2005T1187 1994L916 1690Q899 1671 884 1659T857 1640T825 1630T794 1626T751 1624T700 1622H484L460
1666ZM92 498Q96 990 96 1232V1244Q96 1251 94 1293T92 1366Q92 1486 112 1502Q117 1502 127 1501T142 1500Q310 1508 532 1508H668Q676 1507 689 1502T708 1496Q709 1447 712 1327T717 1119T718 946V556Q718 519 720 496T729 442T756 396T806 380Q848 380 874
415T900 498V864Q899 931 901 1075T902 1300V1372Q902 1383 900 1405T898 1440V1488Q901 1511 924 1516Q1116 1516 1500 1512V1496H1544Q1536 1283 1536 1000V776Q1536 731 1534 638T1532 500Q1532 370 1491 270T1383 109T1221 9T1029 -45T820 -60Q712 -60 618
-47T426 5T259 104T143 265T92 498Z" />
<glyph unicode="&#xdb;" glyph-name="Ucircumflex" horiz-adv-x="1614" d="M323 1665L506 1920Q517 1933 530 1953T550 1982T576 2000T623 2014T702 2020L1057 2030L1321 1661Q1321 1652 1314 1645T1295 1633T1266 1628H1198Q1038 1628 910 1620Q887 1632 871
1652T839 1705T816 1748Q812 1744 794 1713T755 1655T718 1628H404Q372 1628 348 1637T323 1665ZM92 498Q96 990 96 1232V1244Q96 1251 94 1293T92 1366Q92 1486 112 1502Q117 1502 127 1501T142 1500Q310 1508 532 1508H668Q676 1507 689 1502T708 1496Q709 1447
712 1327T717 1119T718 946V556Q718 519 720 496T729 442T756 396T806 380Q848 380 874 415T900 498V864Q899 931 901 1075T902 1300V1372Q902 1383 900 1405T898 1440V1488Q901 1511 924 1516Q1116 1516 1500 1512V1496H1544Q1536 1283 1536 1000V776Q1536 731
1534 638T1532 500Q1532 370 1491 270T1383 109T1221 9T1029 -45T820 -60Q712 -60 618 -47T426 5T259 104T143 265T92 498Z" />
<glyph unicode="&#xdc;" glyph-name="Udieresis" horiz-adv-x="1614" d="M372 1896V1958Q372 2061 381 2154T408 2248H736Q760 2240 760 2200V1880Q752 1852 664 1852Q650 1852 626 1853T594 1854Q558 1854 492 1851T404 1846Q388 1873 372 1896ZM920 1892Q920
2231 952 2248Q1024 2244 1058 2244Q1084 2244 1136 2246T1222 2248Q1300 2248 1304 2224Q1308 1996 1308 1884Q1303 1860 1288 1860Q1284 1860 1284 1862Q1224 1857 1113 1854T952 1846L920 1886V1892ZM92 498Q96 990 96 1232V1244Q96 1251 94 1293T92 1366Q92
1486 112 1502Q117 1502 127 1501T142 1500Q310 1508 532 1508H668Q676 1507 689 1502T708 1496Q709 1447 712 1327T717 1119T718 946V556Q718 519 720 496T729 442T756 396T806 380Q848 380 874 415T900 498V864Q899 931 901 1075T902 1300V1372Q902 1383 900
1405T898 1440V1488Q901 1511 924 1516Q1116 1516 1500 1512V1496H1544Q1536 1283 1536 1000V776Q1536 731 1534 638T1532 500Q1532 370 1491 270T1383 109T1221 9T1029 -45T820 -60Q712 -60 618 -47T426 5T259 104T143 265T92 498Z" />
<glyph unicode="&#xdd;" glyph-name="Yacute" horiz-adv-x="1524" d="M448 1638L664 2005L856 2000Q864 2000 887 1999T938 1997T999 1995T1063 1992T1119 1986T1159 1977T1175 1966L904 1662Q887 1643 872 1631T845 1612T813 1602T782 1598T739 1596T688 1594H472L448
1638ZM1569 1462Q1506 1336 1334 1010T1073 500V0Q1068 -17 1060 -24T1033 -32Q939 -32 754 -34T469 -36Q433 0 433 48Q437 70 438 98T438 169T437 224V296Q437 535 337 726Q322 757 306 791T274 857T243 922T212 988T181 1053T150 1119T117 1184L-54 1471Q-54
1484 -33 1495T9 1506H261Q313 1506 417 1505T573 1504Q587 1502 604 1475T639 1402T676 1305T712 1191T743 1082T770 986T788 922L971 1508H1535Q1549 1506 1556 1497T1569 1462Z" />
<glyph unicode="&#xde;" glyph-name="Thorn" horiz-adv-x="1526" d="M104 136V312Q104 416 106 622T108 934V1450Q108 1557 132 1620H700Q716 1619 724 1608T734 1577T736 1540T733 1499T732 1464V1380Q869 1380 976 1372H1024Q1124 1372 1213 1339T1371 1245T1480
1086T1520 868Q1520 780 1500 707T1446 582T1363 491T1264 427T1152 386T1040 360T932 346H740V12Q738 -5 727 -14T698 -24H130Q104 45 104 136ZM706 1040V708L740 664Q785 664 823 673T896 704T952 769T972 872Q972 907 963 934T941 979T903 1009T860 1027T809
1036T759 1039T706 1040Z" />
<glyph unicode="&#xdf;" glyph-name="germandbls" horiz-adv-x="1558" d="M720 1544Q1424 1544 1424 1164Q1427 1034 1314 928L1268 884Q1214 843 1214 812Q1214 793 1242 774T1316 731T1380 692Q1480 629 1530 549T1580 340Q1580 253 1547 182T1462 66T1341 -9T1205
-51T1070 -64Q809 -64 700 34V32Q628 97 606 212Q606 207 607 172T608 112Q608 -18 592 -18Q590 -16 586 -16Q538 -22 446 -22Q394 -22 295 -20T148 -18H116Q96 -18 88 -20Q72 -17 72 -4V0Q72 113 70 350T68 712V852Q68 866 67 934T66 1030T72 1119T88 1215T119
1293T170 1364Q356 1544 720 1544ZM606 988V384H980Q1001 382 1009 366T1016 331T1019 297T1040 280Q1044 280 1050 282T1060 284Q1072 312 1072 320Q1072 349 1050 377T991 431T912 482T825 540T745 607T687 689T664 790Q664 852 693 910T772 1010Q780 1016 808
1036T853 1070T884 1107T900 1152Q900 1196 868 1216T788 1236Q734 1236 696 1214T640 1153T614 1074T606 988Z" />
<glyph unicode="&#xe0;" glyph-name="agrave" horiz-adv-x="1482" d="M284 1846Q284 1866 308 1878Q538 1862 736 1862H776Q789 1859 828 1798Q906 1669 962 1582V1560Q967 1553 979 1539T1000 1515T1008 1498Q1008 1486 1003 1479T982 1470T959 1467T928 1466H604Q556
1524 400 1698L358 1742Q284 1816 284 1846ZM552 248Q545 225 539 188T527 129T508 84T469 49T400 38H-32V72Q21 231 122 560T280 1058V1056Q314 1153 380 1360Q381 1362 383 1365Q392 1380 400 1388L940 1384Q1078 1384 1092 1360V1334Q1094 1325 1114 1288Q1211
991 1256 856V844Q1260 815 1274 778T1307 699T1335 632L1375 488Q1410 372 1478 178V180V160Q1481 146 1493 122T1508 88Q1508 60 1497 52T1452 44H988Q971 46 966 47T951 51T936 59T930 72L892 224Q888 243 884 245T860 248H552ZM600 604V600V604ZM820 724Q814
752 803 814T780 923T756 1010V1058Q748 1079 728 1088V1086Q704 1081 680 952V904Q678 897 671 891T664 884Q631 738 610 648Q610 638 605 613T600 584H848Q848 610 830 678V700Q829 703 825 711T820 724Z" />
<glyph unicode="&#xe1;" glyph-name="aacute" horiz-adv-x="1482" d="M472 1526L688 1893L880 1888Q888 1888 911 1887T962 1885T1023 1883T1087 1880T1143 1874T1183 1865T1199 1854L928 1550Q911 1531 896 1519T869 1500T837 1490T806 1486T763 1484T712 1482H496L472
1526ZM552 248Q545 225 539 188T527 129T508 84T469 49T400 38H-32V72Q21 231 122 560T280 1058V1056Q314 1153 380 1360Q381 1362 383 1365Q392 1380 400 1388L940 1384Q1078 1384 1092 1360V1334Q1094 1325 1114 1288Q1211 991 1256 856V844Q1260 815 1274 778T1307
699T1335 632L1375 488Q1410 372 1478 178V180V160Q1481 146 1493 122T1508 88Q1508 60 1497 52T1452 44H988Q971 46 966 47T951 51T936 59T930 72L892 224Q888 243 884 245T860 248H552ZM600 604V600V604ZM820 724Q814 752 803 814T780 923T756 1010V1058Q748
1079 728 1088V1086Q704 1081 680 952V904Q678 897 671 891T664 884Q631 738 610 648Q610 638 605 613T600 584H848Q848 610 830 678V700Q829 703 825 711T820 724Z" />
<glyph unicode="&#xe2;" glyph-name="acircumflex" horiz-adv-x="1482" d="M233 1513L416 1768Q427 1781 440 1801T460 1830T486 1848T533 1862T612 1868L967 1878L1231 1509Q1231 1500 1224 1493T1205 1481T1176 1476H1108Q948 1476 820 1468Q797 1480 781 1500T749
1553T726 1596Q722 1592 704 1561T665 1503T628 1476H314Q282 1476 258 1485T233 1513ZM552 248Q545 225 539 188T527 129T508 84T469 49T400 38H-32V72Q21 231 122 560T280 1058V1056Q314 1153 380 1360Q381 1362 383 1365Q392 1380 400 1388L940 1384Q1078 1384
1092 1360V1334Q1094 1325 1114 1288Q1211 991 1256 856V844Q1260 815 1274 778T1307 699T1335 632L1375 488Q1410 372 1478 178V180V160Q1481 146 1493 122T1508 88Q1508 60 1497 52T1452 44H988Q971 46 966 47T951 51T936 59T930 72L892 224Q888 243 884 245T860
248H552ZM600 604V600V604ZM820 724Q814 752 803 814T780 923T756 1010V1058Q748 1079 728 1088V1086Q704 1081 680 952V904Q678 897 671 891T664 884Q631 738 610 648Q610 638 605 613T600 584H848Q848 610 830 678V700Q829 703 825 711T820 724Z" />
<glyph unicode="&#xe3;" glyph-name="atilde" horiz-adv-x="1482" d="M912 1466Q853 1466 746 1501T588 1536Q570 1536 566 1510T552 1484Q527 1482 480 1482T418 1480H290Q270 1488 270 1514Q270 1690 349 1776T574 1862Q621 1864 712 1838H780Q792 1835 812
1821T840 1804H874Q876 1796 878 1796Q888 1809 888 1828L922 1856H1174Q1184 1856 1191 1849T1201 1838T1208 1820Q1195 1466 912 1466ZM888 1806V1808V1806ZM552 248Q545 225 539 188T527 129T508 84T469 49T400 38H-32V72Q21 231 122 560T280 1058V1056Q314
1153 380 1360Q381 1362 383 1365Q392 1380 400 1388L940 1384Q1078 1384 1092 1360V1334Q1094 1325 1114 1288Q1211 991 1256 856V844Q1260 815 1274 778T1307 699T1335 632L1375 488Q1410 372 1478 178V180V160Q1481 146 1493 122T1508 88Q1508 60 1497 52T1452
44H988Q971 46 966 47T951 51T936 59T930 72L892 224Q888 243 884 245T860 248H552ZM600 604V600V604ZM820 724Q814 752 803 814T780 923T756 1010V1058Q748 1079 728 1088V1086Q704 1081 680 952V904Q678 897 671 891T664 884Q631 738 610 648Q610 638 605 613T600
584H848Q848 610 830 678V700Q829 703 825 711T820 724Z" />
<glyph unicode="&#xe4;" glyph-name="adieresis" horiz-adv-x="1482" d="M258 1534V1596Q258 1699 267 1792T294 1886H622Q646 1878 646 1838V1518Q638 1490 550 1490Q536 1490 512 1491T480 1492Q444 1492 378 1489T290 1484Q274 1511 258 1534ZM806 1530Q806
1869 838 1886Q910 1882 944 1882Q970 1882 1022 1884T1108 1886Q1186 1886 1190 1862Q1194 1634 1194 1522Q1189 1498 1174 1498Q1170 1498 1170 1500Q1110 1495 999 1492T838 1484L806 1524V1530ZM552 248Q545 225 539 188T527 129T508 84T469 49T400 38H-32V72Q21
231 122 560T280 1058V1056Q314 1153 380 1360Q381 1362 383 1365Q392 1380 400 1388L940 1384Q1078 1384 1092 1360V1334Q1094 1325 1114 1288Q1211 991 1256 856V844Q1260 815 1274 778T1307 699T1335 632L1375 488Q1410 372 1478 178V180V160Q1481 146 1493
122T1508 88Q1508 60 1497 52T1452 44H988Q971 46 966 47T951 51T936 59T930 72L892 224Q888 243 884 245T860 248H552ZM600 604V600V604ZM820 724Q814 752 803 814T780 923T756 1010V1058Q748 1079 728 1088V1086Q704 1081 680 952V904Q678 897 671 891T664 884Q631
738 610 648Q610 638 605 613T600 584H848Q848 610 830 678V700Q829 703 825 711T820 724Z" />
<glyph unicode="&#xe5;" glyph-name="aring" horiz-adv-x="1482" d="M438 1752Q450 1777 466 1818T493 1886T525 1947T570 2001T636 2034T732 2048Q853 2048 942 1965T1032 1756Q1032 1633 946 1549T742 1464Q675 1464 619 1489T526 1555T467 1647T438 1752ZM620
1766Q624 1710 660 1679T742 1648Q787 1648 815 1676T844 1756Q844 1808 812 1837T736 1866Q694 1866 661 1840T620 1766ZM552 248Q545 225 539 188T527 129T508 84T469 49T400 38H-32V72Q21 231 122 560T280 1058V1056Q314 1153 380 1360Q381 1362 383 1365Q392
1380 400 1388L940 1384Q1078 1384 1092 1360V1334Q1094 1325 1114 1288Q1211 991 1256 856V844Q1260 815 1274 778T1307 699T1335 632L1375 488Q1410 372 1478 178V180V160Q1481 146 1493 122T1508 88Q1508 60 1497 52T1452 44H988Q971 46 966 47T951 51T936 59T930
72L892 224Q888 243 884 245T860 248H552ZM600 604V600V604ZM820 724Q814 752 803 814T780 923T756 1010V1058Q748 1079 728 1088V1086Q704 1081 680 952V904Q678 897 671 891T664 884Q631 738 610 648Q610 638 605 613T600 584H848Q848 610 830 678V700Q829 703
825 711T820 724Z" />
<glyph unicode="&#xe6;" glyph-name="ae" horiz-adv-x="2100" d="M1809 548Q1809 548 1809 550Q1772 550 1683 545T1539 540H1385L1414 426Q1463 426 1568 431T1717 436H1847Q1869 436 1878 436T1904 429T1927 412L2035 48H1027Q1023 48 1014 48T999 48T986 48T972
48T961 50T950 53T941 57T935 63T931 72L893 224Q889 243 885 245T861 248H553Q546 225 540 188T528 129T509 84T470 49T401 38L-39 40L48 408L400 1388L1583 1379Q1614 1376 1617 1358L1723 1019Q1723 1008 1701 992H1237Q1237 983 1243 974T1249 960V890Q1253
890 1267 889T1285 888H1311Q1369 888 1488 892T1669 896Q1687 896 1699 892T1717 878T1726 861T1732 840T1737 820V782L1747 768Q1757 754 1761 744V696Q1767 673 1788 640T1813 594V568Q1813 564 1813 561T1814 555T1815 551T1814 549T1809 548ZM821 724Q815
752 804 814T781 923T757 1010V1058Q749 1079 729 1088V1086Q705 1081 681 952V892Q680 891 676 890T669 887T665 884Q632 738 611 648Q611 638 606 613T601 584H849Q849 599 833 676V700Q832 703 827 711T821 724Z" />
<glyph unicode="&#xe7;" glyph-name="ccedilla" horiz-adv-x="1390" d="M382 -432Q382 -416 398 -380V-352Q409 -331 415 -320T435 -295T464 -280L528 -304Q584 -327 632 -324Q716 -324 716 -284Q713 -260 672 -260Q660 -260 652 -264H620V-276Q593 -276 580 -268L536
-236Q522 -229 507 -214T487 -181L613 38H792Q824 35 824 4Q824 -5 816 -20T795 -52T780 -76Q888 -76 948 -129T1008 -270Q1008 -347 961 -404T840 -488T678 -516Q582 -516 482 -491T382 -432ZM728 8Q561 8 428 64T210 221T81 454T36 746V760Q37 767 39 794T42
830T46 863T51 898T56 930T64 964T75 997T88 1033T104 1068V1066Q150 1162 220 1232T374 1340T546 1396T732 1414Q856 1414 956 1390T1122 1324T1235 1225T1306 1104T1340 970V884Q1337 870 1325 863T1299 854T1260 852H832V938Q827 972 803 1000T744 1028Q713
1028 690 1015T653 981T631 931T620 871T616 807T616 745Q616 725 616 716V604Q616 579 618 556T630 495T664 435T724 412Q762 412 780 444T811 521T840 582Q880 582 960 581T1080 580Q1108 580 1163 581T1246 582H1320Q1353 582 1356 542V504Q1334 305 1209 183T896
28V22Q829 8 728 8Z" />
<glyph unicode="&#xe8;" glyph-name="egrave" horiz-adv-x="1166" d="M192 1858Q192 1878 216 1890Q446 1874 644 1874H684Q697 1871 736 1810Q814 1681 870 1594V1572Q875 1565 887 1551T908 1527T916 1510Q916 1498 911 1491T890 1482T867 1479T836 1478H512Q464
1536 308 1710L266 1754Q192 1828 192 1858ZM84 1292Q84 1352 89 1362Q98 1376 118 1376H142Q158 1376 164 1374H216Q317 1374 521 1379T828 1384H1094Q1120 1381 1120 1358V1024Q1119 1018 1117 1014T1113 1008T1103 1001T1092 992H628V868H672Q730 868 849 872T1032
876Q1060 876 1070 865T1080 834Q1080 829 1078 817T1076 800V762Q1076 758 1077 746T1078 724V696Q1078 674 1080 652T1082 614V588Q1077 576 1074 572T1064 568V570Q1027 570 937 565T792 560H632V432Q640 432 656 431T680 430Q725 430 813 433T940 436H1068Q1120
436 1134 424Q1139 418 1142 412V92Q1142 71 1134 60T1104 48H114L84 74V1292Z" />
<glyph unicode="&#xe9;" glyph-name="eacute" horiz-adv-x="1166" d="M328 1510L544 1877L736 1872Q744 1872 767 1871T818 1869T879 1867T943 1864T999 1858T1039 1849T1055 1838L784 1534Q767 1515 752 1503T725 1484T693 1474T662 1470T619 1468T568 1466H352L328
1510ZM84 1292Q84 1352 89 1362Q98 1376 118 1376H142Q158 1376 164 1374H216Q317 1374 521 1379T828 1384H1094Q1120 1381 1120 1358V1024Q1119 1018 1117 1014T1113 1008T1103 1001T1092 992H628V868H672Q730 868 849 872T1032 876Q1060 876 1070 865T1080 834Q1080
829 1078 817T1076 800V762Q1076 758 1077 746T1078 724V696Q1078 674 1080 652T1082 614V588Q1077 576 1074 572T1064 568V570Q1027 570 937 565T792 560H632V432Q640 432 656 431T680 430Q725 430 813 433T940 436H1068Q1120 436 1134 424Q1139 418 1142 412V92Q1142
71 1134 60T1104 48H114L84 74V1292Z" />
<glyph unicode="&#xea;" glyph-name="ecircumflex" horiz-adv-x="1166" d="M101 1517L284 1772Q295 1785 308 1805T328 1834T354 1852T401 1866T480 1872L835 1882L1099 1513Q1099 1504 1092 1497T1073 1485T1044 1480H976Q816 1480 688 1472Q665 1484 649 1504T617
1557T594 1600Q590 1596 572 1565T533 1507T496 1480H182Q150 1480 126 1489T101 1517ZM84 1292Q84 1352 89 1362Q98 1376 118 1376H142Q158 1376 164 1374H216Q317 1374 521 1379T828 1384H1094Q1120 1381 1120 1358V1024Q1119 1018 1117 1014T1113 1008T1103
1001T1092 992H628V868H672Q730 868 849 872T1032 876Q1060 876 1070 865T1080 834Q1080 829 1078 817T1076 800V762Q1076 758 1077 746T1078 724V696Q1078 674 1080 652T1082 614V588Q1077 576 1074 572T1064 568V570Q1027 570 937 565T792 560H632V432Q640 432
656 431T680 430Q725 430 813 433T940 436H1068Q1120 436 1134 424Q1139 418 1142 412V92Q1142 71 1134 60T1104 48H114L84 74V1292Z" />
<glyph unicode="&#xeb;" glyph-name="edieresis" horiz-adv-x="1166" d="M148 1522V1584Q148 1687 157 1780T184 1874H512Q536 1866 536 1826V1506Q528 1478 440 1478Q426 1478 402 1479T370 1480Q334 1480 268 1477T180 1472Q164 1499 148 1522ZM696 1518Q696
1857 728 1874Q800 1870 834 1870Q860 1870 912 1872T998 1874Q1076 1874 1080 1850Q1084 1622 1084 1510Q1079 1486 1064 1486Q1060 1486 1060 1488Q1000 1483 889 1480T728 1472L696 1512V1518ZM84 1292Q84 1352 89 1362Q98 1376 118 1376H142Q158 1376 164 1374H216Q317
1374 521 1379T828 1384H1094Q1120 1381 1120 1358V1024Q1119 1018 1117 1014T1113 1008T1103 1001T1092 992H628V868H672Q730 868 849 872T1032 876Q1060 876 1070 865T1080 834Q1080 829 1078 817T1076 800V762Q1076 758 1077 746T1078 724V696Q1078 674 1080
652T1082 614V588Q1077 576 1074 572T1064 568V570Q1027 570 937 565T792 560H632V432Q640 432 656 431T680 430Q725 430 813 433T940 436H1068Q1120 436 1134 424Q1139 418 1142 412V92Q1142 71 1134 60T1104 48H114L84 74V1292Z" />
<glyph unicode="&#xec;" glyph-name="igrave" horiz-adv-x="674" d="M-100 1895Q-100 1915 -76 1927Q154 1911 352 1911H392Q405 1908 444 1847Q522 1718 578 1631V1609Q583 1602 595 1588T616 1564T624 1547Q624 1535 619 1528T598 1519T575 1516T544 1515H220Q172
1573 16 1747L-26 1791Q-100 1865 -100 1895ZM52 84Q51 139 56 396V604Q56 674 60 810T66 998V1024Q66 1048 82 1048H578Q602 1048 602 1020V168Q602 150 603 116T604 62T603 20T595 -13T578 -24H54Q54 -9 53 30T52 84Z" />
<glyph unicode="&#xed;" glyph-name="iacute" horiz-adv-x="676" d="M84 1543L300 1910L492 1905Q500 1905 523 1904T574 1902T635 1900T699 1897T755 1891T795 1882T811 1871L540 1567Q523 1548 508 1536T481 1517T449 1507T418 1503T375 1501T324 1499H108L84
1543ZM46 84Q45 139 50 396V604Q50 674 54 810T60 998V1024Q60 1048 76 1048H572Q596 1048 596 1020V168Q596 150 597 116T598 62T597 20T589 -13T572 -24H48Q48 -9 47 30T46 84Z" />
<glyph unicode="&#xee;" glyph-name="icircumflex" horiz-adv-x="714" d="M-127 1540L56 1795Q67 1808 80 1828T100 1857T126 1875T173 1889T252 1895L607 1905L871 1536Q871 1527 864 1520T845 1508T816 1503H748Q588 1503 460 1495Q437 1507 421 1527T389 1580T366
1623Q362 1619 344 1588T305 1530T268 1503H-46Q-78 1503 -102 1512T-127 1540ZM68 84Q67 139 72 396V604Q72 674 76 810T82 998V1024Q82 1048 98 1048H594Q618 1048 618 1020V168Q618 150 619 116T620 62T619 20T611 -13T594 -24H70Q70 -9 69 30T68 84Z" />
<glyph unicode="&#xef;" glyph-name="idieresis" horiz-adv-x="700" d="M-108 1297V1359Q-108 1462 -99 1555T-72 1649H256Q280 1641 280 1601V1281Q272 1253 184 1253Q170 1253 146 1254T114 1255Q78 1255 12 1252T-76 1247Q-92 1274 -108 1297ZM440 1293Q440
1632 472 1649Q544 1645 578 1645Q604 1645 656 1647T742 1649Q820 1649 824 1625Q828 1397 828 1285Q823 1261 808 1261Q804 1261 804 1263Q744 1258 633 1255T472 1247L440 1287V1293ZM62 84Q61 139 66 396V604Q66 674 70 810T76 998V1024Q76 1048 92 1048H588Q612
1048 612 1020V168Q612 150 613 116T614 62T613 20T605 -13T588 -24H64Q64 -9 63 30T62 84Z" />
<glyph unicode="&#xf0;" glyph-name="eth" horiz-adv-x="1452" d="M418 1390Q508 1390 567 1389T716 1381T868 1362T1008 1326T1139 1269T1246 1185T1334 1069T1387 916T1408 720Q1408 584 1370 471T1268 281T1123 151T955 71T784 40V44H740Q730 44 699 42T654
40Q614 40 592 44H522Q416 44 204 40H96V252Q96 312 97 431T98 618Q80 616 52 616H8V628Q-29 637 -32 640V700Q-28 744 -28 760Q-28 768 -30 784T-32 810Q-32 876 4 876H96V1372Q99 1372 108 1371T120 1370Q169 1370 268 1380T418 1390ZM650 356Q701 356 740 372T802
420T841 485T864 565T873 645T876 724V796Q875 803 870 864T848 968Q832 999 813 1021T774 1056T730 1075T683 1084T632 1086V1064H600Q600 1055 602 1028T604 992V936Q604 924 602 904T600 876H700Q732 876 732 734V678Q732 630 700 630H652Q636 628 604 628V540Q604
363 620 356H650Z" />
<glyph unicode="&#xf1;" glyph-name="ntilde" horiz-adv-x="1548" d="M929 1522Q870 1522 763 1557T605 1592Q587 1592 583 1566T569 1540Q544 1538 497 1538T435 1536H307Q287 1544 287 1570Q287 1746 366 1832T591 1918Q638 1920 729 1894H797Q809 1891 829
1877T857 1860H891Q893 1852 895 1852Q905 1865 905 1884L939 1912H1191Q1201 1912 1208 1905T1218 1894T1225 1876Q1212 1522 929 1522ZM905 1862V1864V1862ZM1416 1376Q1428 1372 1434 1342T1442 1265T1442 1177T1440 1091T1438 1036Q1436 996 1436 924V818Q1436
748 1438 626T1440 446V82Q1436 48 1384 48H824Q806 52 778 132Q759 185 715 306T638 518T580 696V702V696Q577 630 574 500T568 304V100Q568 70 561 59T524 40H112L68 84Q73 250 76 604T84 1128V1344Q94 1380 108 1380V1376Q176 1376 321 1380T540 1384H708Q709
1384 711 1383Q729 1376 731 1367L732 1360Q768 1263 805 1159T893 908T964 704V852Q984 1204 984 1352Q984 1368 1006 1372T1074 1376H1416Z" />
<glyph unicode="&#xf2;" glyph-name="ograve" horiz-adv-x="1454" d="M364 1908Q364 1928 388 1940Q618 1924 816 1924H856Q869 1921 908 1860Q986 1731 1042 1644V1622Q1047 1615 1059 1601T1080 1577T1088 1560Q1088 1548 1083 1541T1062 1532T1039 1529T1008
1528H684Q636 1586 480 1760L438 1804Q364 1878 364 1908ZM20 724L18 746Q37 909 54 973Q93 1123 194 1224L218 1248Q266 1304 364 1344H402Q500 1385 724 1420Q780 1420 841 1412T978 1384T1122 1322T1238 1220V1192Q1402 987 1402 732Q1402 445 1270 264L1230
214Q1184 157 1116 116T970 54T823 23T682 14Q579 14 486 38T311 115T167 243T67 426T20 664V724ZM570 716Q570 364 704 364Q741 364 768 378T813 421T841 480T856 555T862 634T864 716V752Q864 804 858 852T838 948T793 1026T720 1056Q570 1056 570 760V716Z"
/>
<glyph unicode="&#xf3;" glyph-name="oacute" horiz-adv-x="1454" d="M364 1562L580 1929L772 1924Q780 1924 803 1923T854 1921T915 1919T979 1916T1035 1910T1075 1901T1091 1890L820 1586Q803 1567 788 1555T761 1536T729 1526T698 1522T655 1520T604 1518H388L364
1562ZM20 724L18 746Q37 909 54 973Q93 1123 194 1224L218 1248Q266 1304 364 1344H402Q500 1385 724 1420Q780 1420 841 1412T978 1384T1122 1322T1238 1220V1192Q1402 987 1402 732Q1402 445 1270 264L1230 214Q1184 157 1116 116T970 54T823 23T682 14Q579 14
486 38T311 115T167 243T67 426T20 664V724ZM570 716Q570 364 704 364Q741 364 768 378T813 421T841 480T856 555T862 634T864 716V752Q864 804 858 852T838 948T793 1026T720 1056Q570 1056 570 760V716Z" />
<glyph unicode="&#xf4;" glyph-name="ocircumflex" horiz-adv-x="1454" d="M225 1549L408 1804Q419 1817 432 1837T452 1866T478 1884T525 1898T604 1904L959 1914L1223 1545Q1223 1536 1216 1529T1197 1517T1168 1512H1100Q940 1512 812 1504Q789 1516 773 1536T741
1589T718 1632Q714 1628 696 1597T657 1539T620 1512H306Q274 1512 250 1521T225 1549ZM20 724L18 746Q37 909 54 973Q93 1123 194 1224L218 1248Q266 1304 364 1344H402Q500 1385 724 1420Q780 1420 841 1412T978 1384T1122 1322T1238 1220V1192Q1402 987 1402
732Q1402 445 1270 264L1230 214Q1184 157 1116 116T970 54T823 23T682 14Q579 14 486 38T311 115T167 243T67 426T20 664V724ZM570 716Q570 364 704 364Q741 364 768 378T813 421T841 480T856 555T862 634T864 716V752Q864 804 858 852T838 948T793 1026T720 1056Q570
1056 570 760V716Z" />
<glyph unicode="&#xf5;" glyph-name="otilde" horiz-adv-x="1454" d="M898 1478Q839 1478 732 1513T574 1548Q556 1548 552 1522T538 1496Q513 1494 466 1494T404 1492H276Q256 1500 256 1526Q256 1702 335 1788T560 1874Q607 1876 698 1850H766Q778 1847 798
1833T826 1816H860Q862 1808 864 1808Q874 1821 874 1840L908 1868H1160Q1170 1868 1177 1861T1187 1850T1194 1832Q1181 1478 898 1478ZM874 1818V1820V1818ZM20 724L18 746Q37 909 54 973Q93 1123 194 1224L218 1248Q266 1304 364 1344H402Q500 1385 724 1420Q780
1420 841 1412T978 1384T1122 1322T1238 1220V1192Q1402 987 1402 732Q1402 445 1270 264L1230 214Q1184 157 1116 116T970 54T823 23T682 14Q579 14 486 38T311 115T167 243T67 426T20 664V724ZM570 716Q570 364 704 364Q741 364 768 378T813 421T841 480T856
555T862 634T864 716V752Q864 804 858 852T838 948T793 1026T720 1056Q570 1056 570 760V716Z" />
<glyph unicode="&#xf6;" glyph-name="odieresis" horiz-adv-x="1454" d="M256 1550V1612Q256 1715 265 1808T292 1902H620Q644 1894 644 1854V1534Q636 1506 548 1506Q534 1506 510 1507T478 1508Q442 1508 376 1505T288 1500Q272 1527 256 1550ZM804 1546Q804
1885 836 1902Q908 1898 942 1898Q968 1898 1020 1900T1106 1902Q1184 1902 1188 1878Q1192 1650 1192 1538Q1187 1514 1172 1514Q1168 1514 1168 1516Q1108 1511 997 1508T836 1500L804 1540V1546ZM20 724L18 746Q37 909 54 973Q93 1123 194 1224L218 1248Q266
1304 364 1344H402Q500 1385 724 1420Q780 1420 841 1412T978 1384T1122 1322T1238 1220V1192Q1402 987 1402 732Q1402 445 1270 264L1230 214Q1184 157 1116 116T970 54T823 23T682 14Q579 14 486 38T311 115T167 243T67 426T20 664V724ZM570 716Q570 364 704
364Q741 364 768 378T813 421T841 480T856 555T862 634T864 716V752Q864 804 858 852T838 948T793 1026T720 1056Q570 1056 570 760V716Z" />
<glyph unicode="&#xf7;" glyph-name="divide" horiz-adv-x="1282" d="M92 428Q92 677 144 688H204Q328 688 580 682T956 676Q1024 676 1164 680Q1182 680 1182 644T1179 550T1176 464V384H118Q112 390 105 396T97 405T94 413T92 428ZM484 128Q484 201 529 249T642
298Q710 298 759 252T808 136Q808 67 759 22T646 -24Q587 -24 536 17T484 128ZM648 1080Q713 1080 762 1039T812 928Q812 893 804 874L776 828Q754 799 718 782T644 764Q580 764 534 808T488 922Q488 991 537 1035T648 1080Z" />
<glyph unicode="&#xf8;" glyph-name="oslash" horiz-adv-x="1454" d="M210 -144Q214 -117 220 -91T232 -48T249 -3T266 34T288 76T308 114Q168 231 99 360T20 664V724L18 746Q37 909 54 973Q93 1123 194 1224L218 1248Q278 1308 364 1344H402Q458 1367 485 1377T566
1402T664 1416Q688 1416 724 1420Q863 1420 988 1380L1122 1625Q1126 1625 1139 1621T1154 1616L1202 1594Q1204 1593 1213 1590T1227 1583T1232 1570Q1229 1536 1188 1458L1148 1386Q1129 1354 1116 1324Q1200 1273 1238 1220V1192Q1402 987 1402 732Q1402 445
1270 264L1230 214Q1184 157 1116 116T970 54T823 23T682 14Q596 14 448 52L412 -20Q380 -84 355 -119T304 -154Q301 -154 297 -153T290 -152H268Q264 -152 256 -144H210ZM526 716Q526 631 538 544L800 1028Q766 1056 712 1056Q657 1056 619 1030T561 959T534 866T526
764V716ZM624 382Q656 364 696 364Q742 364 776 378T832 421T867 480T886 556T894 635T896 716V752Q896 829 884 884Q753 630 624 382Z" />
<glyph unicode="&#xf9;" glyph-name="ugrave" horiz-adv-x="1450" d="M302 1880Q302 1900 326 1912Q556 1896 754 1896H794Q807 1893 846 1832Q924 1703 980 1616V1594Q985 1587 997 1573T1018 1549T1026 1532Q1026 1520 1021 1513T1000 1504T977 1501T946 1500H622Q574
1558 418 1732L376 1776Q302 1850 302 1880ZM84 1142Q80 1162 80 1256Q80 1364 100 1384H644V544Q644 414 720 414Q752 414 773 442T794 510V658Q800 1096 800 1100Q800 1274 796 1352Q796 1380 824 1392H1380V1236Q1367 857 1364 748V686Q1364 674 1363 654T1362
626Q1362 592 1364 578V500Q1364 361 1336 300V296Q1304 221 1244 167T1107 82T949 38T778 24Q750 24 736 30H712Q712 20 682 20V18Q660 17 554 28H508Q445 35 387 56T273 115T177 207T109 336T80 502Q81 554 81 646T81 813T86 960V988Q86 993 87 1004T88 1020Q88
1035 86 1065T84 1110V1144V1142Z" />
<glyph unicode="&#xfa;" glyph-name="uacute" horiz-adv-x="1450" d="M448 1538L664 1905L856 1900Q864 1900 887 1899T938 1897T999 1895T1063 1892T1119 1886T1159 1877T1175 1866L904 1562Q887 1543 872 1531T845 1512T813 1502T782 1498T739 1496T688 1494H472L448
1538ZM84 1142Q80 1162 80 1256Q80 1364 100 1384H644V544Q644 414 720 414Q752 414 773 442T794 510V658Q800 1096 800 1100Q800 1274 796 1352Q796 1380 824 1392H1380V1236Q1367 857 1364 748V686Q1364 674 1363 654T1362 626Q1362 592 1364 578V500Q1364 361
1336 300V296Q1304 221 1244 167T1107 82T949 38T778 24Q750 24 736 30H712Q712 20 682 20V18Q660 17 554 28H508Q445 35 387 56T273 115T177 207T109 336T80 502Q81 554 81 646T81 813T86 960V988Q86 993 87 1004T88 1020Q88 1035 86 1065T84 1110V1144V1142Z"
/>
<glyph unicode="&#xfb;" glyph-name="ucircumflex" horiz-adv-x="1450" d="M219 1545L402 1800Q413 1813 426 1833T446 1862T472 1880T519 1894T598 1900L953 1910L1217 1541Q1217 1532 1210 1525T1191 1513T1162 1508H1094Q934 1508 806 1500Q783 1512 767 1532T735
1585T712 1628Q708 1624 690 1593T651 1535T614 1508H300Q268 1508 244 1517T219 1545ZM84 1142Q80 1162 80 1256Q80 1364 100 1384H644V544Q644 414 720 414Q752 414 773 442T794 510V658Q800 1096 800 1100Q800 1274 796 1352Q796 1380 824 1392H1380V1236Q1367
857 1364 748V686Q1364 674 1363 654T1362 626Q1362 592 1364 578V500Q1364 361 1336 300V296Q1304 221 1244 167T1107 82T949 38T778 24Q750 24 736 30H712Q712 20 682 20V18Q660 17 554 28H508Q445 35 387 56T273 115T177 207T109 336T80 502Q81 554 81 646T81
813T86 960V988Q86 993 87 1004T88 1020Q88 1035 86 1065T84 1110V1144V1142Z" />
<glyph unicode="&#xfc;" glyph-name="udieresis" horiz-adv-x="1450" d="M260 1552V1614Q260 1717 269 1810T296 1904H624Q648 1896 648 1856V1536Q640 1508 552 1508Q538 1508 514 1509T482 1510Q446 1510 380 1507T292 1502Q276 1529 260 1552ZM808 1548Q808
1887 840 1904Q912 1900 946 1900Q972 1900 1024 1902T1110 1904Q1188 1904 1192 1880Q1196 1652 1196 1540Q1191 1516 1176 1516Q1172 1516 1172 1518Q1112 1513 1001 1510T840 1502L808 1542V1548ZM84 1142Q80 1162 80 1256Q80 1364 100 1384H644V544Q644 414
720 414Q752 414 773 442T794 510V658Q800 1096 800 1100Q800 1274 796 1352Q796 1380 824 1392H1380V1236Q1367 857 1364 748V686Q1364 674 1363 654T1362 626Q1362 592 1364 578V500Q1364 361 1336 300V296Q1304 221 1244 167T1107 82T949 38T778 24Q750 24 736
30H712Q712 20 682 20V18Q660 17 554 28H508Q445 35 387 56T273 115T177 207T109 336T80 502Q81 554 81 646T81 813T86 960V988Q86 993 87 1004T88 1020Q88 1035 86 1065T84 1110V1144V1142Z" />
<glyph unicode="&#xfd;" glyph-name="yacute" horiz-adv-x="1366" d="M396 1548L612 1915L804 1910Q812 1910 835 1909T886 1907T947 1905T1011 1902T1067 1896T1107 1887T1123 1876L852 1572Q835 1553 820 1541T793 1522T761 1512T730 1508T687 1506T636 1504H420L396
1548ZM545 1380L702 886Q778 1089 844 1292Q846 1300 856 1322T868 1358Q876 1382 976 1382Q983 1382 995 1381T1016 1380Q1179 1382 1368 1384Q1392 1381 1402 1335L948 513L964 446Q964 388 966 269T968 104V74Q964 60 953 51T921 40T885 37T841 37T802 38H420L388
80V498L157 991L50 1141Q-32 1305 -32 1352Q-32 1380 16 1380H545Z" />
<glyph unicode="&#xfe;" glyph-name="thorn" horiz-adv-x="1366" d="M98 1696Q103 1717 116 1724T170 1732H640V1386Q677 1386 752 1381T864 1376H908Q969 1376 1030 1360T1149 1309T1252 1224T1324 1100T1352 936Q1352 818 1302 727T1152 554Q1029 490 856 480H824Q784
472 744 472H664Q658 472 654 470Q654 208 662 74Q657 54 641 47T584 40H112Q105 58 102 72V102Q102 154 99 257T96 412V706Q95 809 97 1019T98 1340V1696ZM604 804V786Q605 785 617 780T630 772V770Q628 770 628 774Q630 772 640 772Q729 772 790 812T852 936Q852
974 839 1001T808 1042T758 1064T700 1074T634 1076Q633 1075 626 1069T616 1060V956Q604 860 604 804Z" />
<glyph unicode="&#xff;" glyph-name="ydieresis" horiz-adv-x="1366" d="M252 1548V1610Q252 1713 261 1806T288 1900H616Q640 1892 640 1852V1532Q632 1504 544 1504Q530 1504 506 1505T474 1506Q438 1506 372 1503T284 1498Q268 1525 252 1548ZM800 1544Q800
1883 832 1900Q904 1896 938 1896Q964 1896 1016 1898T1102 1900Q1180 1900 1184 1876Q1188 1648 1188 1536Q1183 1512 1168 1512Q1164 1512 1164 1514Q1104 1509 993 1506T832 1498L800 1538V1544ZM545 1380L702 886Q778 1089 844 1292Q846 1300 856 1322T868
1358Q876 1382 976 1382Q983 1382 995 1381T1016 1380Q1179 1382 1368 1384Q1392 1381 1402 1335L948 513L964 446Q964 388 966 269T968 104V74Q964 60 953 51T921 40T885 37T841 37T802 38H420L388 80V498L157 991L50 1141Q-32 1305 -32 1352Q-32 1380 16 1380H545Z"
/>
<glyph unicode="&#x2013;" glyph-name="endash" horiz-adv-x="1054" d="M12 344Q9 347 2 353T-7 362T-13 371T-19 383T-22 398T-24 420V572Q-24 748 10 748Q82 748 221 746T428 744H664Q690 745 772 745T900 748H944Q951 748 969 750T1000 752Q1030 752 1047 728T1069
658T1074 574T1071 480T1068 408Q1068 364 1036 364H838Q703 364 428 354T12 344Z" />
<glyph unicode="&#x2014;" glyph-name="emdash" horiz-adv-x="2046" d="M-4 740H2036Q2052 736 2056 728T2060 704Q2059 672 2058 614T2056 526V386Q2053 372 2024 368Q1794 374 1342 374Q668 371 160 350H12L-18 392Q-18 431 -19 513T-20 640Q-20 740 -4 740Z" />
<glyph unicode="&#x2018;" glyph-name="quoteleft" horiz-adv-x="726" d="M22 900L246 1500Q254 1509 291 1511T432 1514Q533 1514 612 1505T691 1477L590 1060Q548 846 512 846Q422 840 248 840H52L22 900Z" />
<glyph unicode="&#x2019;" glyph-name="quoteright" horiz-adv-x="724" d="M20 856L118 1280Q121 1291 126 1311Q135 1351 140 1369T153 1416T168 1456T185 1483T207 1503T234 1508H520Q688 1508 688 1480V1472Q686 1472 686 1468Q556 1098 528 1014L472 866Q459
840 268 840H180Q172 840 156 839T130 838Q104 838 90 840H52V856H20Z" />
<glyph unicode="&#x201a;" glyph-name="quotesinglbase" horiz-adv-x="728" d="M32 -224L96 132Q97 135 105 172T118 229T133 286T150 347T166 396T182 434T196 446Q214 447 250 446T300 444H400Q410 444 451 445T520 446Q688 446 688 416V404Q560 33 528 -52L470
-198Q450 -224 252 -224H32Z" />
<glyph unicode="&#x201c;" glyph-name="quotedblleft" horiz-adv-x="1212" d="M-12 890L132 1284V1344Q148 1393 184 1449T234 1508H388Q447 1508 481 1508T560 1505T627 1499T649 1486L555 1096L564 1008Q556 968 540 930T510 870T488 848H12L-12 890ZM638 882L871
1522Q899 1521 944 1517T1023 1511T1099 1506T1174 1504Q1244 1504 1280 1506Q1285 1506 1288 1505T1292 1500T1294 1492T1296 1480T1298 1464L1230 1175Q1217 1105 1209 1066T1187 967T1158 878T1128 848Q924 840 828 840Q800 840 748 841T668 842L638 882Z" />
<glyph unicode="&#x201d;" glyph-name="quotedblright" horiz-adv-x="1216" d="M-16 884Q-12 901 6 985T44 1149T86 1316T130 1456T168 1510H653L433 852H16L-16 884ZM1308 1476V1468Q1286 1406 1247 1294T1174 1089T1112 914V860Q1097 832 848 832Q818 832 770
833T704 834H676Q656 847 640 872L688 1056Q696 1085 717 1197T763 1389T820 1514Q878 1512 998 1512H1060Q1308 1512 1308 1476Z" />
<glyph unicode="&#x201e;" glyph-name="quotedblbase" horiz-adv-x="1216" d="M-16 -190L157 450L232 448Q232 448 459 446Q655 441 655 423L504 -16Q503 -20 500 -28Q487 -66 479 -88T458 -145T433 -196T412 -214H16Q11 -208 0 -203T-16 -190ZM562 -223L594 -38Q604
-3 616 58T636 148V208Q646 274 672 348T724 456H796Q826 454 876 455T987 455T1099 451T1187 438T1223 411L1002 -200Q987 -228 830 -228L562 -223Z" />
<glyph unicode="&#x2022;" glyph-name="bullet" horiz-adv-x="1142" d="M156 730V734Q165 811 193 880T269 1008T394 1101T566 1136Q673 1136 767 1085T919 940T978 734T922 528T773 384T574 332Q481 332 404 367T276 460T195 587T156 730Z" />
<glyph unicode="&#x2039;" glyph-name="guilsinglleft" horiz-adv-x="734" d="M-5 512L227 916Q249 949 257 962T281 997T308 1028T329 1042H659Q738 1042 743 1016L515 490L765 17Q765 3 749 -10T717 -24Q708 -24 690 -23T661 -22Q601 -22 493 -26H325Q288 -11
253 56L118 303L51 380Q-5 457 -5 512Z" />
<glyph unicode="&#x203a;" glyph-name="guilsinglright" horiz-adv-x="730" d="M-16 1018Q-16 1044 61 1044H371Q380 1043 389 1043T406 1043T423 1036T439 1018Q548 834 665 648L749 516L414 -23L261 -16Q184 -24 81 -24Q-13 -24 -13 1L192 540L-16 1018Z" />
</font>
</defs>
</svg>
