<?xml version="1.0" standalone="no"?>
<!DOCTYPE svg PUBLIC "-//W3C//DTD SVG 1.1//EN" "http://www.w3.org/Graphics/SVG/1.1/DTD/svg11.dtd">
<svg xmlns="http://www.w3.org/2000/svg">
<defs >
<font id="Trirong" horiz-adv-x="624" ><font-face
    font-family="Trirong SemiBold"
    units-per-em="1000"
    panose-1="0 0 7 0 0 0 0 0 0 0"
    ascent="1200"
    descent="-534"
    alphabetic="0" />
<glyph unicode=" " glyph-name="space" horiz-adv-x="262" />
<glyph unicode="!" glyph-name="exclam" horiz-adv-x="334" d="M95 613L94 629Q94 710 166 710Q238 710 238 629L237 613L195 154H138L95 613ZM137 -10T119 7T101 55Q101 86 119 103T167 121Q197 121 215 104T233 55Q233 25 215 8T167 -10Q137 -10 119 7Z" />
<glyph unicode="&quot;" glyph-name="quotedbl" horiz-adv-x="446" d="M60 641V646Q60 682 73 700T122 719Q158 719 171 701T185 647V641L144 422H99L60 641ZM261 641V646Q261 682 274 700T323 719Q359 719 372 701T386 647V641L344 422H300L261 641Z" />
<glyph unicode="#" glyph-name="numbersign" horiz-adv-x="865" d="M664 463L608 230H769V185H597L550 -10H460L507 185H281L234 -10H144L191 185H31V230H201L257 463H94V509H268L311 689H402L359 509H585L628 689H718L675 509H833V463H664ZM574 463H348L292 230H518L574
463Z" />
<glyph unicode="$" glyph-name="dollar" horiz-adv-x="582" d="M556 106T493 54T328 -8V-97H285V-10Q206 -9 141 17T42 84L55 227H87Q100 191 107 97Q133 70 171 54T256 37Q324 37 371 72T418 173Q418 214 396 241T342 286T252 326Q186 352 147 374T80 435T52
534Q52 616 114 660T285 710V785H328V710Q396 708 445 690T531 637L518 507H486Q471 551 464 624Q442 643 409 653T336 663Q267 663 229 636T190 555Q190 525 209 504T256 467T335 431Q405 402 449 377T524 306T556 191Q556 106 493 54Z" />
<glyph unicode="%" glyph-name="percent" horiz-adv-x="939" d="M145 -8L749 727L788 695L181 -38L145 -8ZM126 318T77 368T28 509Q28 599 77 649T227 700Q327 700 376 650T426 509Q426 418 377 368T227 318Q126 318 77 368ZM272 362T292 407T313 509Q313 566
293 610T227 655Q183 655 162 610T140 509Q140 452 161 407T227 362Q272 362 292 407ZM611 -11T562 39T513 180Q513 270 562 320T711 371Q812 371 861 321T911 180Q911 90 862 40T711 -11Q611 -11 562 39ZM756 34T777 79T798 180Q798 236 777 281T711 327Q667 327
646 282T625 180Q625 124 646 79T711 34Q756 34 777 79Z" />
<glyph unicode="&amp;" glyph-name="ampersand" horiz-adv-x="757" d="M576 0L523 53Q424 -10 298 -10Q182 -10 111 39T39 173Q39 247 85 295T215 388Q128 503 128 566Q128 637 179 673T313 710Q397 710 440 679T484 583Q484 546 465 517T419 467T339 410Q406
330 577 156Q639 233 650 330H701Q694 273 671 221T608 125L729 0H576ZM252 550T267 517T314 441Q369 472 398 504T428 581Q428 622 405 643T341 665Q301 665 277 644T252 580Q252 550 267 517ZM414 37T493 84Q413 164 355 225T250 344Q213 309 192 269T171 176Q171
131 191 100T244 53T314 37Q414 37 493 84Z" />
<glyph unicode="&apos;" glyph-name="quotesingle" horiz-adv-x="246" d="M60 641V646Q60 682 73 700T122 719Q158 719 171 701T185 647V641L144 422H99L60 641Z" />
<glyph unicode="(" glyph-name="parenleft" horiz-adv-x="266" d="M36 62T36 304Q36 549 187 725H240Q194 659 172 596T144 466T138 293Q138 146 160 54T240 -116H187Q36 62 36 304Z" />
<glyph unicode=")" glyph-name="parenright" horiz-adv-x="266" d="M72 -52T94 12T122 142T128 313Q128 460 106 554T26 725H79Q230 549 230 304Q230 62 79 -116H26Q72 -52 94 12Z" />
<glyph unicode="*" glyph-name="asterisk" horiz-adv-x="538" d="M139 334T126 344T113 371Q113 385 121 395T138 412T151 423L230 487L104 516Q90 519 81 530T71 558Q71 577 82 587T111 597Q127 597 143 589L250 528Q230 612 225 659V664Q225 683 236 694T269
706Q291 706 302 695T313 664V659Q308 612 288 528L395 589Q411 597 427 597Q444 597 455 587T467 558Q467 542 458 531T434 516L308 487L387 423Q390 420 401 411T419 392T425 371Q425 355 412 345T382 334Q358 334 343 356L269 465L195 356Q180 334 156 334Q139
334 126 344Z" />
<glyph unicode="+" glyph-name="plus" horiz-adv-x="601" d="M235 287H45V352H235V546H366V352H556V287H366V94H235V287Z" />
<glyph unicode="," glyph-name="comma" horiz-adv-x="260" d="M65 -113Q119 -55 126 -1L120 -2Q92 -2 73 16T54 60Q54 91 73 112T125 133Q165 133 184 109T204 50Q204 0 176 -55T108 -146L65 -113Z" />
<glyph unicode="-" glyph-name="hyphen" horiz-adv-x="429" d="M46 316H383V244H46V316Z" />
<glyph unicode="." glyph-name="period" horiz-adv-x="260" d="M96 -10T76 10T56 63Q56 95 76 115T130 136Q163 136 183 116T203 63Q203 31 183 11T130 -10Q96 -10 76 10Z" />
<glyph unicode="/" glyph-name="slash" horiz-adv-x="372" d="M292 704H346L80 0H27L292 704Z" />
<glyph unicode="0" glyph-name="zero" horiz-adv-x="616" d="M36 -10T36 350Q36 710 308 710Q450 710 514 616T579 350Q579 178 515 84T308 -10Q36 -10 36 350ZM379 37T410 118T441 350Q441 500 410 581T308 663Q236 663 205 582T174 350Q174 199 205 118T308
37Q379 37 410 118Z" />
<glyph unicode="1" glyph-name="one" horiz-adv-x="616" d="M121 23Q209 41 251 42V628L119 571V629L387 736V41Q454 36 517 24V0H121V23Z" />
<glyph unicode="2" glyph-name="two" horiz-adv-x="616" d="M39 47Q51 98 80 141T145 217T236 295Q294 342 327 374T382 445T405 532Q405 591 370 627T271 663Q223 663 176 645T94 595L70 633Q112 666 168 688T294 710Q409 710 476 667T543 531Q543 474 515 429T445
350T335 272Q254 218 211 179T152 89H497Q500 107 509 134T527 177H561L549 0H39V47Z" />
<glyph unicode="3" glyph-name="three" horiz-adv-x="616" d="M214 -10T155 9T53 66L77 103Q110 75 161 56T258 37Q328 37 372 79T416 201Q416 263 380 305T276 348H181V396H276Q318 396 346 416T389 469T404 535Q404 594 370 628T272 663Q223 663 177 646T96
596L71 633Q169 710 295 710Q410 710 478 668T546 538Q546 501 528 466T478 407T405 376V372Q469 358 511 315T553 203Q553 94 478 42T286 -10Q214 -10 155 9Z" />
<glyph unicode="4" glyph-name="four" horiz-adv-x="616" d="M251 21Q313 40 356 40V159H31V224L363 701H492V242H601L586 159H492V41Q545 38 592 21V0H251V21ZM356 242V605H353L107 242H356Z" />
<glyph unicode="5" glyph-name="five" horiz-adv-x="616" d="M136 -10T49 66L74 103Q108 73 156 55T250 37Q322 37 365 85T408 217Q408 295 376 345T269 395Q222 395 185 375T116 315L75 325L121 700H512L505 616H163L134 385Q171 418 212 430T307 442Q433 442
489 379T546 218Q546 151 515 100T422 19T274 -10Q136 -10 49 66Z" />
<glyph unicode="6" glyph-name="six" horiz-adv-x="616" d="M47 -10T47 307Q47 510 126 610T353 710Q430 710 473 689T551 633L526 596Q464 663 368 663Q326 663 286 637T217 545T181 366Q197 407 239 431T331 455Q449 455 510 394T572 228Q572 119 504 55T310
-10Q47 -10 47 307ZM372 37T404 88T437 219Q437 301 404 354T312 407Q258 407 225 356T191 224Q191 147 224 92T313 37Q372 37 404 88Z" />
<glyph unicode="7" glyph-name="seven" horiz-adv-x="616" d="M189 187T260 342T424 616H115Q114 609 108 574T91 516H54V700H567V655Q495 585 435 470T339 228T295 0H164Q189 187 260 342Z" />
<glyph unicode="8" glyph-name="eight" horiz-adv-x="616" d="M167 -10T106 47T44 193Q44 260 85 308T193 372V374Q155 380 126 405T81 466T64 538Q64 620 130 665T308 710Q419 710 485 665T551 538Q551 502 535 466T490 405T423 374V372Q488 355 530 308T572
193Q572 104 511 47T308 -10Q167 -10 106 47ZM359 393T388 436T417 541Q417 601 385 632T308 663Q261 663 230 633T199 541Q199 479 228 436T308 393Q359 393 388 436ZM340 37T370 54T418 106T437 190Q437 265 403 306T308 347Q248 347 214 306T179 190Q179 140
197 106T244 54T307 37Q340 37 370 54Z" />
<glyph unicode="9" glyph-name="nine" horiz-adv-x="616" d="M187 -10T143 10T66 65L91 103Q152 37 249 37Q319 37 374 101T436 328Q422 288 379 263T286 238Q169 238 107 301T45 469Q45 540 75 594T165 679T307 710Q571 710 571 392Q571 189 492 90T264 -10Q187
-10 143 10ZM359 288T392 340T426 472Q426 549 393 606T304 663Q245 663 213 611T180 477Q180 395 213 342T305 288Q359 288 392 340Z" />
<glyph unicode=":" glyph-name="colon" horiz-adv-x="260" d="M96 352T76 372T56 425Q56 457 76 478T130 499Q163 499 183 478T203 425Q203 394 183 373T130 352Q96 352 76 372ZM96 -10T76 10T56 63Q56 95 76 115T130 136Q163 136 183 116T203 63Q203 31 183 11T130
-10Q96 -10 76 10Z" />
<glyph unicode=";" glyph-name="semicolon" horiz-adv-x="260" d="M96 352T76 372T56 425Q56 457 76 478T130 499Q163 499 183 478T203 425Q203 394 183 373T130 352Q96 352 76 372ZM65 -113Q119 -55 126 -1Q122 -2 116 -2Q90 -2 72 16T54 60Q54 91 73 112T125
133Q165 133 184 109T204 50Q204 0 176 -55T108 -146L65 -113Z" />
<glyph unicode="&lt;" glyph-name="less" horiz-adv-x="601" d="M49 313V350L545 594V522L165 332L545 141V69L49 313Z" />
<glyph unicode="=" glyph-name="equal" horiz-adv-x="601" d="M52 426H549V362H52V426ZM52 229H549V165H52V229Z" />
<glyph unicode="&gt;" glyph-name="greater" horiz-adv-x="601" d="M56 141L435 332L56 522V594L552 350V313L56 69V141Z" />
<glyph unicode="?" glyph-name="question" horiz-adv-x="490" d="M182 198T182 214Q182 260 194 296T225 356T271 412Q305 449 322 477T339 544Q339 600 309 631T208 663Q162 663 123 646T46 597L24 632Q71 671 126 690T250 710Q341 710 402 670T463 546Q463 506
449 476T413 426T356 376Q319 346 297 325T260 271T245 195Q245 183 246 175H185Q182 198 182 214ZM185 -10T168 7T150 56Q150 86 167 103T215 121Q246 121 264 104T282 56Q282 25 264 8T215 -10Q185 -10 168 7Z" />
<glyph unicode="@" glyph-name="at" horiz-adv-x="826" d="M287 -58T203 -12T77 114T34 292Q34 394 81 480T218 619T430 671Q531 671 612 631T740 516T786 347Q786 286 765 235T705 152T617 121Q578 121 553 143T525 203H521Q504 162 465 142T384 121Q298 121
257 167T215 290Q215 344 238 391T309 466T426 495Q519 495 584 457L567 229Q567 203 582 185T624 166Q653 166 678 189T719 254T734 348Q734 429 696 492T590 591T435 627Q329 627 252 583T135 464T95 298Q95 161 174 75T419 -11Q466 -11 524 -1T633 33V-16Q580
-36 520 -47T405 -58Q287 -58 203 -12ZM425 167T450 193T479 261L494 430Q470 442 428 442Q377 442 345 394T313 277Q313 226 333 197T391 167Q425 167 450 193Z" />
<glyph unicode="A" glyph-name="A" horiz-adv-x="759" d="M715 29T752 16V0H460V17Q498 31 540 37L490 179H207L156 36Q195 31 238 14V0H6V18Q24 24 47 30T85 39L331 704H427L674 37Q715 29 752 16ZM474 224L350 576L224 224H474Z" />
<glyph unicode="B" glyph-name="B" horiz-adv-x="630" d="M27 15Q78 34 108 38V663Q65 670 27 683V700H340Q467 700 522 660T577 536Q577 480 545 435T449 373V367Q531 351 568 302T606 193Q606 96 551 48T371 0H27V15ZM319 390Q379 390 410 427T441 529Q441 594
413 624T323 654H243V390H319ZM354 44Q472 44 472 198Q472 269 438 307T341 345H243V44H354Z" />
<glyph unicode="C" glyph-name="C" horiz-adv-x="649" d="M214 -10T128 85T42 350Q42 519 129 614T378 710Q457 710 512 691T607 634L595 496H562Q547 539 539 622Q487 663 413 663Q301 663 241 579T180 350Q180 203 235 120T401 37Q442 37 491 51T584 96L603
59Q565 26 507 8T381 -10Q214 -10 128 85Z" />
<glyph unicode="D" glyph-name="D" horiz-adv-x="700" d="M33 17Q88 34 112 37V663Q72 671 33 684V700H354Q515 700 589 611T664 350Q664 178 590 89T353 0H33V17ZM351 44Q446 44 486 123T526 350Q526 496 486 575T353 654H246V44H351Z" />
<glyph unicode="E" glyph-name="E" horiz-adv-x="644" d="M602 165L585 0H33V16Q82 33 118 37V663Q80 669 33 684V700H586V533H556Q546 549 535 590T521 654H254V368H439Q441 385 446 410T459 453H481V237H459Q452 256 447 280T439 322H254V44H526Q528 68 544
108T572 165H602Z" />
<glyph unicode="F" glyph-name="F" horiz-adv-x="599" d="M573 700V533H543Q533 549 522 590T508 654H254V358H439Q441 375 446 400T459 443H481V226H459Q452 245 447 270T439 311H254V36Q303 28 340 15V0H33V16Q83 31 118 36V663Q69 671 33 684V700H573Z" />
<glyph unicode="G" glyph-name="G" horiz-adv-x="705" d="M212 -10T124 85T36 350Q36 461 77 542T196 666T383 710Q464 710 531 690T637 634L625 496H592Q576 545 569 622Q545 641 502 652T417 663Q341 663 287 624T203 515T174 350Q174 204 231 121T399 37Q420
37 447 41T494 55V304Q435 318 415 324V340H695V328Q683 320 663 313T625 302V48Q588 21 520 6T379 -10Q212 -10 124 85Z" />
<glyph unicode="H" glyph-name="H" horiz-adv-x="815" d="M775 680T748 672T702 661V36Q748 27 782 15V0H490V13Q526 31 567 37V332H248V36Q294 26 325 15V0H33V17Q88 34 112 37V663Q66 672 33 684V700H325V685Q295 669 248 662V378H567V664Q534 669 490 684V700H782V682Q775
680 748 672Z" />
<glyph unicode="I" glyph-name="I" horiz-adv-x="367" d="M35 17Q67 26 115 37V663Q82 668 35 683V700H332V682Q314 674 287 669T251 662V36Q282 31 332 16V0H35V17Z" />
<glyph unicode="J" glyph-name="J" horiz-adv-x="505" d="M141 -10T96 4T19 45L39 78Q62 63 92 54T153 44Q200 44 228 70T257 152V662Q215 668 178 682V700H471V682Q465 680 439 672T393 661V156Q393 73 337 32T192 -10Q141 -10 96 4Z" />
<glyph unicode="K" glyph-name="K" horiz-adv-x="782" d="M724 30T775 16V0H573L321 333L249 257V36Q280 31 330 16V0H33V17Q65 26 113 37V663Q80 668 33 683V700H330V682Q312 674 285 669T249 662V334L556 659Q546 665 528 668T505 673Q493 674 478 678V700H700V678Q694
676 680 674Q677 673 659 670T627 656L400 416L689 36Q724 30 775 16Z" />
<glyph unicode="L" glyph-name="L" horiz-adv-x="636" d="M33 16Q82 31 119 36V663Q68 673 39 684V700H334V682Q314 676 255 662V44H521Q523 68 539 108T568 165H597L580 0H33V16Z" />
<glyph unicode="M" glyph-name="M" horiz-adv-x="948" d="M34 15Q66 26 113 35V663Q60 674 33 684V700H258L466 181L690 700H914V684Q880 673 835 661V35Q879 26 914 15V0H620V15Q654 26 699 35V597L472 76H393L170 607V35Q215 26 249 15V0H34V15Z" />
<glyph unicode="N" glyph-name="N" horiz-adv-x="783" d="M34 15Q66 26 113 35V663Q62 673 33 684V700H252L613 165V664Q569 673 534 684V700H750V684Q714 673 670 664V0H599L170 630V35Q215 26 249 15V0H34V15Z" />
<glyph unicode="O" glyph-name="O" horiz-adv-x="749" d="M210 -10T123 85T35 350Q35 519 122 614T374 710Q537 710 625 615T714 350Q714 181 626 86T374 -10Q210 -10 123 85ZM475 37T526 122T577 350Q577 492 526 577T374 663Q274 663 223 578T172 350Q172 207
223 122T374 37Q475 37 526 122Z" />
<glyph unicode="P" glyph-name="P" horiz-adv-x="633" d="M27 17Q49 23 71 28T108 37V663Q64 672 29 683V700H356Q492 700 550 646T609 493Q609 431 584 381T508 302T382 273H243V36Q276 31 324 16V0H27V17ZM348 317Q413 317 444 367T475 495Q475 570 444 612T348
654H243V317H348Z" />
<glyph unicode="Q" glyph-name="Q" horiz-adv-x="749" d="M467 -52T511 -82T623 -117V-159Q495 -149 420 -110T324 -8Q184 7 110 100T35 350Q35 519 122 614T374 710Q537 710 625 615T714 350Q714 203 647 111T454 -3Q467 -52 511 -82ZM172 207T223 122T374 37Q474
37 525 122T577 350Q577 492 526 577T374 663Q274 663 223 578T172 350Q172 207 223 122Z" />
<glyph unicode="R" glyph-name="R" horiz-adv-x="703" d="M649 29T683 16V0H499L343 299H250V36Q283 31 330 16V0H33V17Q55 23 77 28T114 37V663Q70 672 35 683V700H398Q520 700 570 649T621 503Q621 423 579 371T459 304L607 36Q649 29 683 16ZM250 344H354Q423
344 455 386T487 505Q487 579 455 616T354 654H250V344Z" />
<glyph unicode="S" glyph-name="S" horiz-adv-x="582" d="M201 -10T135 16T34 84L47 227H79Q92 187 99 97Q124 70 163 54T248 37Q315 37 362 72T409 173Q409 214 387 242T332 287T243 327Q178 353 139 375T72 435T44 534Q44 620 112 665T298 710Q375 710 429 693T522
637L510 507H477Q460 560 456 624Q434 643 401 653T328 663Q259 663 221 636T182 555Q182 525 201 504T248 467T327 431Q397 402 440 377T515 306T547 191Q547 129 513 84T418 14T283 -10Q201 -10 135 16Z" />
<glyph unicode="T" glyph-name="T" horiz-adv-x="665" d="M178 17Q195 22 233 30L264 37V654H98Q96 630 84 580T63 515H33V700H631V515H601Q592 530 580 580T566 654H400V36Q445 29 487 16V0H178V17Z" />
<glyph unicode="U" glyph-name="U" horiz-adv-x="791" d="M110 -10T110 218V663Q59 673 30 684V700H326V682Q302 674 246 662V205Q246 114 298 76T435 37Q518 37 571 77T624 205V664Q581 670 543 684V700H761V684Q706 665 680 662V218Q680 104 610 47T401 -10Q110
-10 110 218Z" />
<glyph unicode="V" glyph-name="V" horiz-adv-x="766" d="M93 662Q59 667 16 684V700H305V681Q261 666 224 661L412 108L601 663Q556 670 518 685V700H750V681Q729 674 705 668T672 660L434 -6H332L93 662Z" />
<glyph unicode="W" glyph-name="W" horiz-adv-x="1036" d="M91 662Q67 666 16 684V700H304V683Q289 676 264 670T221 661L340 153L509 670H568L757 97L899 668Q859 674 831 683V700H1019V686Q1006 679 990 674T960 667L788 -4H672L511 481L353 -4H256L91 662Z" />
<glyph unicode="X" glyph-name="X" horiz-adv-x="705" d="M674 25T701 16V0H411V13Q456 34 498 39L329 299L129 34Q180 21 194 16V0H8V17L67 35L300 343L93 661Q54 669 19 683V700H310V681Q252 664 222 660L369 433L544 664Q518 670 478 683V700H665V685Q628 669
605 664L397 389L626 37Q674 25 701 16Z" />
<glyph unicode="Y" glyph-name="Y" horiz-adv-x="744" d="M228 15Q246 22 267 28T307 36V305L95 661Q50 670 16 683V700H309V681Q253 664 224 660L405 359L596 665Q564 672 531 684V700H728V681Q705 672 670 664L443 304V36Q474 31 524 16V0H228V15Z" />
<glyph unicode="Z" glyph-name="Z" horiz-adv-x="604" d="M23 29L429 654H122Q120 632 109 591T87 533H57V700H574V681L165 44H497Q499 68 515 108T544 165H574L556 0H23V29Z" />
<glyph unicode="[" glyph-name="bracketleft" horiz-adv-x="309" d="M41 706H281V662H138V-77H281V-124H41V706Z" />
<glyph unicode="\" glyph-name="backslash" horiz-adv-x="351" d="M16 704H69L335 0H282L16 704Z" />
<glyph unicode="]" glyph-name="bracketright" horiz-adv-x="309" d="M28 -77H170V662H28V706H268V-124H28V-77Z" />
<glyph unicode="^" glyph-name="asciicircum" horiz-adv-x="573" d="M240 725H332L537 314H451L286 681L121 314H36L240 725Z" />
<glyph unicode="_" glyph-name="underscore" horiz-adv-x="474" d="M-3 -68H477V-114H-3V-68Z" />
<glyph unicode="`" glyph-name="grave" horiz-adv-x="511" d="M193 674Q149 699 149 729Q149 746 160 756T190 766Q218 766 248 736Q248 736 277 707L369 616L347 584L193 674Z" />
<glyph unicode="a" glyph-name="a" horiz-adv-x="569" d="M24 -10T24 136Q24 215 80 250T228 285H362V358Q362 412 331 437T243 462Q203 462 160 450T80 420L72 458Q116 481 171 494T284 507Q381 507 437 468T494 364V43Q532 35 562 26V15L362 -4V63Q328 26 285
8T195 -10Q24 -10 24 136ZM277 37T311 58T362 109V241H259Q207 241 181 214T154 137Q154 86 178 62T245 37Q277 37 311 58Z" />
<glyph unicode="b" glyph-name="b" horiz-adv-x="632" d="M297 -10T254 13T191 73Q178 25 168 0H79V656Q38 665 10 675V685L211 705V448Q273 507 374 507Q438 507 490 478T572 394T602 261Q602 122 537 56T354 -10Q297 -10 254 13ZM408 34T439 94T471 256Q471
358 438 410T333 462Q297 462 264 443T211 397V170Q211 113 244 74T337 34Q408 34 439 94Z" />
<glyph unicode="c" glyph-name="c" horiz-adv-x="530" d="M219 -10T158 22T63 112T30 248Q30 330 65 388T163 476T310 507Q428 507 505 440L497 323H468Q462 340 458 370T454 425Q401 462 343 462Q259 462 211 407T163 245Q163 189 181 141T238 62T336 32Q376
32 420 46T497 85L509 53Q477 26 424 8T304 -10Q219 -10 158 22Z" />
<glyph unicode="d" glyph-name="d" horiz-adv-x="628" d="M148 -10T89 50T30 238Q30 360 94 433T275 507Q319 507 355 495T421 451V656Q382 664 353 675V685L553 705V43Q596 34 621 26V17L448 -8Q443 33 440 82Q413 37 367 14T257 -10Q148 -10 89 50ZM349 34T385
71T421 171V398Q365 462 299 462Q226 462 194 394T162 237Q162 34 295 34Q349 34 385 71Z" />
<glyph unicode="e" glyph-name="e" horiz-adv-x="567" d="M538 242H159Q161 152 204 92T332 32Q373 32 419 46T501 85L514 53Q482 26 426 8T303 -10Q218 -10 156 22T60 112T26 248Q26 372 97 439T297 507Q378 507 432 475T512 389T538 269V242ZM423 286Q423 326
411 366T371 434T298 462Q236 462 202 413T161 286H423Z" />
<glyph unicode="f" glyph-name="f" horiz-adv-x="434" d="M297 673T273 644T249 557V498H397V453H249V35Q302 26 334 15V0H37V16Q102 35 117 36V453H23V498H117V538Q117 627 162 673T287 720Q358 720 410 701L402 661Q369 673 337 673Q297 673 273 644Z" />
<glyph unicode="g" glyph-name="g" horiz-adv-x="555" d="M533 124T533 -14Q533 -93 466 -125T262 -158Q154 -158 95 -125T36 -31Q36 -10 45 10T75 45Q49 73 49 112Q49 140 63 165T108 210Q35 253 35 341Q35 420 96 463T266 507Q361 507 420 473Q432 487 439 501T447
525H539Q535 503 518 478T469 430Q496 393 496 341Q496 262 435 219T266 176Q212 176 168 187Q151 173 151 155Q151 124 193 124H357Q533 124 533 -14ZM217 462T191 428T165 341Q165 288 191 254T266 220Q314 220 339 254T365 341Q365 394 340 428T266 462Q217
462 191 428ZM333 -110T371 -94T409 -45Q409 -15 388 -3T324 10H163Q149 10 143 11Q139 -2 139 -22Q139 -64 174 -87T270 -110Q333 -110 371 -94Z" />
<glyph unicode="h" glyph-name="h" horiz-adv-x="701" d="M642 28T681 15V0H397V15Q442 31 470 36V359Q470 462 377 462Q344 462 307 444T236 388V35Q274 29 309 15V0H26V15Q77 33 105 36V656Q64 665 36 675V685L236 705V434Q270 467 318 487T423 507Q503 507
552 470T601 365V35Q642 28 681 15Z" />
<glyph unicode="i" glyph-name="i" horiz-adv-x="337" d="M129 545T110 564T90 613Q90 643 109 662T160 682Q191 682 211 663T231 613Q231 583 211 564T160 545Q129 545 110 564ZM23 15Q41 21 102 36V457Q72 462 33 475V485L234 505V35Q278 26 313 15V0H23V15Z" />
<glyph unicode="j" glyph-name="j" horiz-adv-x="344" d="M155 545T136 564T116 613Q116 643 135 662T186 682Q217 682 236 663T256 613Q256 583 237 564T186 545Q155 545 136 564ZM22 -126T-28 -105L-21 -65Q6 -78 45 -78Q85 -78 106 -52T128 18V457Q98 462 59
475V485L260 505V23Q260 -51 214 -88T96 -126Q22 -126 -28 -105Z" />
<glyph unicode="k" glyph-name="k" horiz-adv-x="678" d="M618 30T664 15V0H485L294 235L237 181V35Q281 28 316 15V0H26V15Q70 32 105 36V656Q64 665 36 675V685L237 705V245L457 456Q450 458 423 466T378 483V498H616V483Q602 476 578 469T546 459Q520 451 522
452L366 304L581 37Q618 30 664 15Z" />
<glyph unicode="l" glyph-name="l" horiz-adv-x="343" d="M26 15Q47 22 105 36V656Q64 665 36 675V685L237 705V35Q281 28 316 15V0H26V15Z" />
<glyph unicode="m" glyph-name="m" horiz-adv-x="1013" d="M956 28T993 15V0H710V15Q715 17 737 25T782 36V359Q782 462 689 462Q659 462 629 444T571 392Q573 374 573 365V35Q612 29 644 15V0H377V15Q382 17 404 25T447 36V359Q447 415 424 438T358 462Q328 462
297 445T237 393V35Q278 28 316 15V0H26V15Q68 31 105 36V459Q64 468 36 478V488L237 508V439Q267 469 308 488T398 507Q457 507 499 486T560 425Q591 462 635 484T735 507Q815 507 864 470T914 365V35Q956 28 993 15Z" />
<glyph unicode="n" glyph-name="n" horiz-adv-x="700" d="M652 27T680 15V0H398V15Q443 31 470 36V359Q470 462 377 462Q344 462 307 445T237 390V35Q278 28 316 15V0H26V15Q68 31 105 36V459Q64 468 36 478V488L237 508V436Q272 468 320 487T423 507Q503 507
552 470T602 365V35Q652 27 680 15Z" />
<glyph unicode="o" glyph-name="o" horiz-adv-x="612" d="M170 -10T97 58T23 248Q23 370 96 438T306 507Q441 507 514 439T588 248Q588 126 515 58T306 -10Q170 -10 97 58ZM374 34T414 91T455 248Q455 348 415 405T306 462Q237 462 197 405T156 248Q156 148 196
91T306 34Q374 34 414 91Z" />
<glyph unicode="p" glyph-name="p" horiz-adv-x="639" d="M13 -222Q48 -212 92 -202V459Q49 468 24 477V488L224 508V442Q257 479 298 493T376 507Q491 507 553 446T615 261Q615 -10 366 -10Q323 -10 284 5T224 53V-203Q255 -208 303 -223V-239H13V-222ZM420 34T451
94T482 256Q482 360 453 411T352 462Q315 462 281 441T224 388V170Q224 113 257 74T349 34Q420 34 451 94Z" />
<glyph unicode="q" glyph-name="q" horiz-adv-x="640" d="M336 -224Q382 -208 416 -202V55Q395 22 356 6T275 -10Q158 -10 91 51T23 250Q23 331 54 389T137 477T254 507Q300 507 343 492T416 443V508L617 488V478Q581 466 548 458V-204Q579 -209 627 -223V-239H336V-224ZM347
34T381 73T416 170V395Q396 424 361 443T293 462Q222 462 189 409T156 255Q156 154 187 94T289 34Q347 34 381 73Z" />
<glyph unicode="r" glyph-name="r" horiz-adv-x="474" d="M20 16Q48 28 99 36V459Q55 469 31 478V487L216 508L227 416H231Q249 458 285 482T362 507Q392 507 415 502T460 482L435 419Q407 438 376 438Q332 438 294 410T231 335V35Q272 28 309 15V0H20V16Z" />
<glyph unicode="s" glyph-name="s" horiz-adv-x="497" d="M185 -10T127 8T36 55L44 178H73Q79 162 83 130T88 72Q108 55 139 45T207 34Q263 34 297 58T332 127Q332 151 316 167T277 195T210 221Q157 239 123 256T64 303T40 379Q40 441 98 474T243 507Q369 507
436 450L427 345H397Q391 361 388 386T384 435Q342 464 271 464Q225 464 197 448T169 397Q169 362 199 343T292 301Q347 281 381 264T439 215T463 137Q463 63 404 27T255 -10Q185 -10 127 8Z" />
<glyph unicode="t" glyph-name="t" horiz-adv-x="405" d="M380 8Q327 -10 257 -10Q179 -10 133 24T87 137V453H7V498H87V531Q143 549 154 632H219V498H365V453H219V137Q219 80 242 59T307 37Q337 37 372 48L380 8Z" />
<glyph unicode="u" glyph-name="u" horiz-adv-x="668" d="M608 31T651 19V8L450 -11V48Q415 23 370 7T276 -10Q188 -10 137 26T86 129V459Q42 468 17 478V488L217 508V139Q217 34 312 34Q341 34 380 50T450 93V459Q408 468 382 478V488L581 508V36Q608 31 651 19Z" />
<glyph unicode="v" glyph-name="v" horiz-adv-x="597" d="M73 464Q33 472 7 483V498H276V482Q247 471 199 463L318 96L456 464Q404 472 382 482V498H589V484Q563 472 524 463L343 0H237L73 464Z" />
<glyph unicode="w" glyph-name="w" horiz-adv-x="820" d="M75 464Q71 465 47 469T7 481V498H279V480Q274 478 255 472T204 462L289 141L399 449H469L584 112L678 462Q639 470 603 483V498H812V483Q781 471 744 464L616 0H523L410 335L292 0H203L75 464Z" />
<glyph unicode="x" glyph-name="x" horiz-adv-x="616" d="M568 29T610 15V0H338V16Q384 31 408 35L287 197L144 35Q189 27 219 16V0H6V14Q51 30 79 34L257 237L89 462Q58 467 19 484V498H287V481Q232 463 218 462L327 315L457 463Q409 471 383 483V498H596V483Q563
468 521 462L356 275L535 34Q568 29 610 15Z" />
<glyph unicode="y" glyph-name="y" horiz-adv-x="600" d="M594 498V484Q560 470 525 463L326 -53Q307 -104 287 -133T237 -178T162 -193Q109 -193 55 -168L77 -109Q128 -128 162 -128Q187 -128 203 -120T234 -90T266 -24L277 4L69 465Q28 471 4 483V498H274V482Q249
472 193 464L328 136L456 467Q422 470 386 482V498H594Z" />
<glyph unicode="z" glyph-name="z" horiz-adv-x="497" d="M20 22L341 453H112Q103 393 89 365H52V498H477V469L159 43H394Q399 63 408 90T426 131H466L455 0H20V22Z" />
<glyph unicode="{" glyph-name="braceleft" horiz-adv-x="396" d="M261 -122T213 -106T149 -57T134 41V171Q134 204 126 223T96 253T29 264V325Q88 326 111 344T134 402V562Q134 619 150 649T216 695T364 710V668Q323 666 299 659T260 631T246 570V398Q246 357
220 331T143 294Q192 282 219 256T246 190V18Q246 -22 260 -43T298 -71T364 -79V-122Q261 -122 213 -106Z" />
<glyph unicode="|" glyph-name="bar" horiz-adv-x="458" d="M176 751H282V-200H176V751Z" />
<glyph unicode="}" glyph-name="braceright" horiz-adv-x="396" d="M31 -79Q72 -78 96 -71T135 -43T149 18V190Q149 230 176 256T252 294Q203 305 176 331T149 398V570Q149 610 135 630T97 658T31 668V710Q130 710 179 695T245 650T262 562V417Q262 383 269 364T299
335T366 325V264Q322 264 300 254T270 225T262 171V26Q262 -31 246 -61T180 -107T31 -122V-79Z" />
<glyph unicode="~" glyph-name="asciitilde" horiz-adv-x="602" d="M61 299Q82 323 113 338T177 354Q203 354 228 348T302 327Q343 313 373 306T433 298Q465 298 490 311T541 353V288Q521 264 493 251T432 238Q400 238 369 245T291 267Q254 280 227 286T174 293Q145
293 116 278T61 237V299Z" />
<glyph unicode="&#xa0;" glyph-name="uni00A0" horiz-adv-x="262" />
<glyph unicode="&#xa1;" glyph-name="exclamdown" horiz-adv-x="334" d="M137 375T119 392T101 441Q101 471 119 489T167 507Q197 507 215 489T233 441Q233 410 215 393T167 375Q137 375 119 392ZM94 -213T94 -132L95 -116L138 342H195L237 -116L238 -132Q238
-213 166 -213Q94 -213 94 -132Z" />
<glyph unicode="&#xa2;" glyph-name="cent" horiz-adv-x="530" d="M479 28T433 11T328 -9V-91H285V-10Q206 -6 149 27T61 117T30 248Q30 364 99 431T285 506V581H328V507Q432 502 505 440L497 323H468Q462 340 458 370T454 425Q401 462 339 462Q256 462 210 407T163
245Q163 189 181 141T238 62T336 32Q376 32 420 46T497 85L509 53Q479 28 433 11Z" />
<glyph unicode="&#xa3;" glyph-name="sterling" horiz-adv-x="610" d="M26 43H98Q118 64 124 83T130 134V332H34V376H130V531Q130 616 195 663T375 710Q502 710 578 636L558 604Q531 634 490 651T402 669Q337 669 299 633T260 521V376H468V332H260V146Q260 113
249 89T212 44H488Q490 68 506 108T535 165H564L547 0H26V43Z" />
<glyph unicode="&#xa4;" glyph-name="currency" horiz-adv-x="602" d="M80 111L145 173Q103 226 103 294Q103 360 144 414L78 478L113 513L179 449Q232 491 301 491Q368 491 423 449L489 513L523 478L457 414Q498 360 498 294Q498 227 457 173L521 111L486 76L422
138Q369 96 301 96Q234 96 179 138L114 75L80 111ZM341 145T375 164T430 218T451 293Q451 334 431 368T376 423T301 443Q260 443 226 423T172 369T152 293Q152 252 172 218T226 165T301 145Q341 145 375 164Z" />
<glyph unicode="&#xa5;" glyph-name="yen" horiz-adv-x="745" d="M732 700V681Q711 673 675 664L508 400H654V357H481L447 304V200H654V157H447V36Q478 31 527 16V0H232V15Q279 34 311 36V157H114V200H311V305L280 357H114V400H254L99 661Q54 670 20 683V700H314V681Q255
664 228 660L384 400H435L600 665Q566 673 535 684V700H732Z" />
<glyph unicode="&#xa6;" glyph-name="brokenbar" horiz-adv-x="458" d="M176 751H282V339H176V751ZM176 246H282V-200H176V246Z" />
<glyph unicode="&#xa7;" glyph-name="section" horiz-adv-x="590" d="M551 52T551 -36Q551 -98 517 -143T422 -211T287 -235Q205 -235 138 -209T37 -141L51 2H83Q90 -20 94 -50T103 -128Q128 -155 167 -171T252 -188Q320 -188 366 -154T413 -54Q413 -13 391 14T337
59T248 98Q183 123 143 145T76 206T48 305Q48 398 132 444Q92 469 70 504T48 588Q48 674 116 718T302 762Q379 762 433 744T526 689L514 559H481Q465 606 460 676Q438 695 405 705T332 715Q262 715 224 689T185 609Q185 579 204 558T250 522T330 486Q399 458 443
433T519 362T551 248Q551 163 487 109Q551 52 551 -36ZM173 294T193 271T243 233T327 195Q386 171 408 160Q426 191 426 229Q426 272 402 301T344 349T248 390Q238 394 230 397T213 404Q173 379 173 326Q173 294 193 271Z" />
<glyph unicode="&#xa8;" glyph-name="dieresis" horiz-adv-x="511" d="M113 584T98 599T83 640Q83 664 98 680T138 696Q163 696 178 680T194 640Q194 615 179 600T138 584Q113 584 98 599ZM346 584T331 599T316 640Q316 664 331 680T371 696Q397 696 412 680T428
640Q428 615 413 600T371 584Q346 584 331 599Z" />
<glyph unicode="&#xa9;" glyph-name="copyright" horiz-adv-x="830" d="M310 -10T227 37T96 168T48 357Q48 462 95 545T226 676T415 724Q520 724 603 677T734 546T782 357Q782 252 735 169T604 38T415 -10Q310 -10 227 37ZM506 35T578 77T691 192T732 357Q732
448 692 521T579 636T415 678Q323 678 251 636T138 521T97 357Q97 266 137 193T250 77T415 35Q506 35 578 77ZM374 134T324 161T245 239T215 357Q215 462 271 520T436 579Q470 579 509 569T567 542L562 447H536Q532 455 526 484T519 524Q509 534 488 541T440 548Q358
548 327 499T296 357Q296 276 332 223T440 170Q464 170 500 180T555 207L559 179Q540 160 504 147T434 134Q374 134 324 161Z" />
<glyph unicode="&#xaa;" glyph-name="ordfeminine" horiz-adv-x="383" d="M77 383T50 408T23 477Q23 524 56 549T148 574H238V613Q238 679 161 679Q115 679 57 653L52 681Q110 710 186 710Q253 710 289 685T325 613V420Q337 418 372 409V401L238 387V431Q220 408
193 396T134 383Q77 383 50 408ZM185 416T204 428T238 464V542H168Q137 542 123 525T109 478Q109 416 166 416Q185 416 204 428Z" />
<glyph unicode="&#xab;" glyph-name="guillemotleft" horiz-adv-x="553" d="M198 95T145 150T35 251V272Q169 383 248 505L300 424Q281 390 242 348T151 262Q202 217 242 175T300 100L248 19Q198 95 145 150ZM416 94T363 149T252 251V272Q386 385 465 505L517
424Q481 360 369 262Q482 162 517 100L465 19Q416 94 363 149Z" />
<glyph unicode="&#xac;" glyph-name="logicalnot" horiz-adv-x="499" d="M397 328H37V373H451V178H397V328Z" />
<glyph unicode="&#xad;" glyph-name="uni00AD" horiz-adv-x="429" d="M46 316H383V244H46V316Z" />
<glyph unicode="&#xae;" glyph-name="registered" horiz-adv-x="830" d="M520 724T603 677T734 546T782 357Q782 252 735 169T604 38T415 -10Q310 -10 227 37T96 168T48 357Q48 462 95 545T226 676T415 724Q520 724 603 677ZM506 35T578 77T691 192T732 357Q732
448 692 521T579 636T415 678Q323 678 251 636T138 521T97 357Q97 266 137 193T250 77T415 35Q506 35 578 77ZM580 168Q609 164 625 157V146H511L416 329H360V168Q385 165 410 157V146H228V157Q241 162 256 165T277 169V546Q248 549 227 558V570H449Q523 570 555
539T588 452Q588 401 561 370T480 331L580 168ZM360 359H422Q466 359 485 383T505 453Q505 497 486 518T422 540H360V359Z" />
<glyph unicode="&#xaf;" glyph-name="overscore" horiz-adv-x="511" d="M42 760H469V716H42V760Z" />
<glyph unicode="&#xb0;" glyph-name="degree" horiz-adv-x="345" d="M109 451T70 490T30 591Q30 651 69 691T172 731Q236 731 275 691T315 591Q315 530 276 491T172 451Q109 451 70 490ZM212 498T238 525T264 591Q264 630 239 656T172 683Q132 683 106 657T80
591Q80 552 106 525T172 498Q212 498 238 525Z" />
<glyph unicode="&#xb1;" glyph-name="plusminus" horiz-adv-x="601" d="M235 326H45V390H235V572H366V390H556V326H366V145H235V326ZM52 76H542V12H52V76Z" />
<glyph unicode="&#xb2;" glyph-name="uni00B2" horiz-adv-x="434" d="M44 308Q56 348 83 377T156 444Q208 486 233 518T259 596Q259 629 239 649T184 669Q157 669 127 658T70 624L54 654Q75 675 115 692T209 710Q287 710 331 682T375 595Q375 560 359 533T320
484T258 435Q219 407 195 386T156 339H341Q344 350 350 367T364 395H386L378 271H44V308Z" />
<glyph unicode="&#xb3;" glyph-name="uni00B3" horiz-adv-x="434" d="M152 263T109 280T45 319L61 349Q88 326 119 315T180 304Q221 304 244 328T268 393Q268 428 248 452T190 476H120V520H189Q228 520 246 543T265 598Q265 631 242 650T181 669Q155 669 126 657T73
626L58 654Q79 675 121 692T216 710Q292 710 333 683T375 603Q375 567 358 540T305 501V496Q384 476 384 395Q384 330 336 297T204 263Q152 263 109 280Z" />
<glyph unicode="&#xb4;" glyph-name="acute" horiz-adv-x="511" d="M154 616L273 735Q304 766 332 766Q353 766 363 755T373 728Q373 699 330 674L176 584L154 616Z" />
<glyph unicode="&#xb6;" glyph-name="paragraph" horiz-adv-x="540" d="M147 16Q173 25 226 36V310Q136 317 88 370T39 512Q39 609 90 654T241 700H520V685Q465 666 439 663V35Q480 28 519 15V0H370V659H296V0H147V16ZM226 659Q157 659 123 620T88 512Q88 436
129 396T226 356V659Z" />
<glyph unicode="&#xb7;" glyph-name="middot" horiz-adv-x="295" d="M115 280T97 299T79 350Q79 381 97 401T147 421Q179 421 197 401T216 350Q216 319 198 300T147 280Q115 280 97 299Z" />
<glyph unicode="&#xb8;" glyph-name="cedilla" horiz-adv-x="511" d="M226 -241T198 -234T148 -214L169 -179Q201 -195 243 -195Q278 -195 300 -182T322 -141Q322 -119 303 -110T257 -100Q248 -100 234 -102L209 -70L254 20H313L274 -62H284Q336 -63 363 -85T390
-141Q390 -189 351 -215T253 -241Q226 -241 198 -234Z" />
<glyph unicode="&#xb9;" glyph-name="uni00B9" horiz-adv-x="434" d="M79 292Q114 302 166 311V628L82 599V639L289 713V309Q335 305 370 293V271H79V292Z" />
<glyph unicode="&#xba;" glyph-name="ordmasculine" horiz-adv-x="391" d="M109 383T64 426T19 547Q19 623 64 666T195 710Q280 710 326 667T372 547Q372 470 327 427T195 383Q109 383 64 426ZM234 426T255 458T276 547Q276 602 255 634T196 667Q158 667 136 635T114
547Q114 491 136 459T196 426Q234 426 255 458Z" />
<glyph unicode="&#xbb;" glyph-name="guillemotright" horiz-adv-x="553" d="M36 100Q55 132 95 175T185 262Q73 358 36 424L89 505Q166 385 301 272V251Q243 204 191 149T89 19L36 100ZM253 100Q288 162 401 262Q350 306 311 348T253 424L305 505Q381 387 518
272V251Q460 204 407 149T305 19L253 100Z" />
<glyph unicode="&#xbc;" glyph-name="onequarter" horiz-adv-x="983" d="M57 292Q92 302 144 311V628L60 599V639L267 713V309Q310 305 349 293V271H57V292ZM701 704H749L314 0H267L701 704ZM523 130L730 433H855V146H918V103H855V36Q885 32 914 23V0H665V23Q697
32 732 35V103H523V130ZM732 146V367L580 146H732Z" />
<glyph unicode="&#xbd;" glyph-name="onehalf" horiz-adv-x="983" d="M57 292Q92 302 144 311V628L60 599V639L267 713V309Q310 305 349 293V271H57V292ZM688 704H736L300 0H253L688 704ZM592 36Q604 76 630 105T704 173Q739 202 759 221T792 266T806 324Q806
358 786 377T731 397Q703 397 674 386T618 352L601 381Q622 402 663 419T757 437Q835 437 879 409T923 323Q923 273 894 239T805 163Q763 131 742 112T704 68H890Q893 80 899 97T912 123H934L927 0H592V36Z" />
<glyph unicode="&#xbe;" glyph-name="threequarters" horiz-adv-x="983" d="M66 350Q93 327 124 316T185 305Q226 305 249 329T273 394Q273 429 253 453T194 477H125V522H194Q233 522 251 544T269 598Q269 631 246 650T186 669Q160 669 131 657T78 626L62 654Q84
675 125 692T220 710Q297 710 338 683T380 603Q380 568 362 540T310 502V498Q388 477 388 396Q388 332 340 299T209 265Q156 265 113 282T49 321L66 350ZM699 704H747L311 0H264L699 704ZM523 130L730 433H855V146H918V103H855V36Q885 32 914 23V0H665V23Q697 32
732 35V103H523V130ZM732 146V367L580 146H732Z" />
<glyph unicode="&#xbf;" glyph-name="questiondown" horiz-adv-x="490" d="M242 367T225 385T207 433Q207 464 224 481T272 499Q303 499 320 482T338 433Q338 403 321 385T272 367Q242 367 225 385ZM146 -221T86 -181T25 -57Q25 -17 39 12T75 63T133 113Q170 142
192 163T229 217T244 291Q244 296 242 314H303Q306 293 306 277Q306 230 294 194T263 132T216 77Q182 39 166 11T149 -55Q149 -112 178 -143T281 -174Q365 -174 442 -109L464 -143Q417 -182 362 -201T238 -221Q146 -221 86 -181Z" />
<glyph unicode="&#xc0;" glyph-name="Agrave" horiz-adv-x="759" d="M270 888T259 901T248 929Q248 943 258 955T287 967Q305 967 322 957T348 937L469 817L447 786L293 875Q270 888 259 901ZM715 29T752 16V0H460V17Q498 31 540 37L490 179H207L156 36Q195 31
238 14V0H6V18Q24 24 47 30T85 39L331 704H427L674 37Q715 29 752 16ZM474 224L350 576L224 224H474Z" />
<glyph unicode="&#xc1;" glyph-name="Aacute" horiz-adv-x="759" d="M314 786L292 817L412 936Q421 946 436 956T471 967Q492 967 502 956T512 930Q512 901 468 875L314 786ZM715 29T752 16V0H460V17Q498 31 540 37L490 179H207L156 36Q195 31 238 14V0H6V18Q24
24 47 30T85 39L331 704H427L674 37Q715 29 752 16ZM474 224L350 576L224 224H474Z" />
<glyph unicode="&#xc2;" glyph-name="Acircumflex" horiz-adv-x="759" d="M360 878T324 843T255 782L201 823Q234 844 281 888T348 959H410Q429 932 476 888T557 823L503 782Q471 806 435 842T381 904H377Q360 878 324 843ZM715 29T752 16V0H460V17Q498 31 540
37L490 179H207L156 36Q195 31 238 14V0H6V18Q24 24 47 30T85 39L331 704H427L674 37Q715 29 752 16ZM474 224L350 576L224 224H474Z" />
<glyph unicode="&#xc3;" glyph-name="Atilde" horiz-adv-x="759" d="M276 840T260 826T238 786H185Q192 841 221 869T299 897Q324 897 344 890T394 866Q431 844 451 844Q503 844 515 900H567Q561 847 533 817T453 786Q432 786 411 794T361 817Q338 829 324 834T298
840Q276 840 260 826ZM715 29T752 16V0H460V17Q498 31 540 37L490 179H207L156 36Q195 31 238 14V0H6V18Q24 24 47 30T85 39L331 704H427L674 37Q715 29 752 16ZM474 224L350 576L224 224H474Z" />
<glyph unicode="&#xc4;" glyph-name="Adieresis" horiz-adv-x="759" d="M224 785T209 801T193 841Q193 866 208 882T248 898Q274 898 289 882T305 841Q305 817 290 801T248 785Q224 785 209 801ZM456 785T441 800T426 841Q426 866 441 882T482 898Q507 898 522
882T538 841Q538 817 523 801T482 785Q456 785 441 800ZM715 29T752 16V0H460V17Q498 31 540 37L490 179H207L156 36Q195 31 238 14V0H6V18Q24 24 47 30T85 39L331 704H427L674 37Q715 29 752 16ZM474 224L350 576L224 224H474Z" />
<glyph unicode="&#xc5;" glyph-name="Aring" horiz-adv-x="759" d="M331 743T303 770T274 840Q274 884 303 911T378 938Q424 938 452 911T481 840Q481 797 453 770T378 743Q331 743 303 770ZM353 896T336 881T319 840Q319 815 336 800T378 784Q403 784 419 799T435
840Q435 865 419 880T378 896Q353 896 336 881ZM715 29T752 16V0H460V17Q498 31 540 37L490 179H207L156 36Q195 31 238 14V0H6V18Q24 24 47 30T85 39L331 704H427L674 37Q715 29 752 16ZM474 224L350 576L224 224H474Z" />
<glyph unicode="&#xc6;" glyph-name="AE" horiz-adv-x="1022" d="M6 16Q35 27 82 38L459 669Q425 677 408 684V700H963V533H933Q923 549 912 590T898 654H630V382H816Q818 399 823 424T836 467H858V251H836Q829 271 824 296T816 336H630V44H903Q905 68 921 108T949
165H979L962 0H411V16Q458 31 496 36V179H242L158 36Q205 30 245 14V0H6V16ZM496 224V613L268 224H496Z" />
<glyph unicode="&#xc7;" glyph-name="Ccedilla" horiz-adv-x="649" d="M568 28T516 11T402 -10L375 -67Q431 -67 460 -89T490 -146Q490 -194 452 -220T353 -246Q326 -246 298 -239T249 -219L270 -184Q302 -200 343 -200Q379 -200 401 -187T423 -146Q423 -124 404
-115T358 -105Q348 -105 334 -107L310 -75L343 -9Q195 2 119 96T42 350Q42 519 129 614T378 710Q457 710 512 691T607 634L595 496H562Q547 539 539 622Q487 663 413 663Q301 663 241 579T180 350Q180 203 235 120T401 37Q442 37 491 51T584 96L603 59Q568 28 516
11Z" />
<glyph unicode="&#xc8;" glyph-name="Egrave" horiz-adv-x="644" d="M269 888T258 901T247 929Q247 943 257 955T286 967Q304 967 321 957T347 937L468 817L446 786L292 875Q269 888 258 901ZM602 165L585 0H33V16Q82 33 118 37V663Q80 669 33 684V700H586V533H556Q546
549 535 590T521 654H254V368H439Q441 385 446 410T459 453H481V237H459Q452 256 447 280T439 322H254V44H526Q528 68 544 108T572 165H602Z" />
<glyph unicode="&#xc9;" glyph-name="Eacute" horiz-adv-x="644" d="M269 786L247 817L367 936Q376 946 391 956T426 967Q447 967 457 956T467 930Q467 901 423 875L269 786ZM602 165L585 0H33V16Q82 33 118 37V663Q80 669 33 684V700H586V533H556Q546 549 535
590T521 654H254V368H439Q441 385 446 410T459 453H481V237H459Q452 256 447 280T439 322H254V44H526Q528 68 544 108T572 165H602Z" />
<glyph unicode="&#xca;" glyph-name="Ecircumflex" horiz-adv-x="644" d="M340 878T304 843T235 782L181 823Q214 844 261 888T328 959H390Q409 932 456 888T537 823L483 782Q451 806 415 842T361 904H357Q340 878 304 843ZM602 165L585 0H33V16Q82 33 118 37V663Q80
669 33 684V700H586V533H556Q546 549 535 590T521 654H254V368H439Q441 385 446 410T459 453H481V237H459Q452 256 447 280T439 322H254V44H526Q528 68 544 108T572 165H602Z" />
<glyph unicode="&#xcb;" glyph-name="Edieresis" horiz-adv-x="644" d="M225 785T210 801T194 841Q194 866 209 882T249 898Q275 898 290 882T306 841Q306 817 291 801T249 785Q225 785 210 801ZM457 785T442 800T427 841Q427 866 442 882T483 898Q508 898 523
882T539 841Q539 817 524 801T483 785Q457 785 442 800ZM602 165L585 0H33V16Q82 33 118 37V663Q80 669 33 684V700H586V533H556Q546 549 535 590T521 654H254V368H439Q441 385 446 410T459 453H481V237H459Q452 256 447 280T439 322H254V44H526Q528 68 544 108T572
165H602Z" />
<glyph unicode="&#xcc;" glyph-name="Igrave" horiz-adv-x="367" d="M116 875Q93 888 82 901T71 929Q71 943 81 955T110 967Q128 967 145 957T171 937L292 817L270 786L116 875ZM35 17Q67 26 115 37V663Q82 668 35 683V700H332V682Q314 674 287 669T251 662V36Q282
31 332 16V0H35V17Z" />
<glyph unicode="&#xcd;" glyph-name="Iacute" horiz-adv-x="367" d="M71 817L191 936Q200 946 215 956T250 967Q271 967 281 956T291 930Q291 901 247 875L93 786L71 817ZM35 17Q67 26 115 37V663Q82 668 35 683V700H332V682Q314 674 287 669T251 662V36Q282 31
332 16V0H35V17Z" />
<glyph unicode="&#xce;" glyph-name="Icircumflex" horiz-adv-x="367" d="M4 823Q37 844 84 888T151 959H213Q232 932 279 888T360 823L306 782Q274 806 238 842T184 904H180Q163 878 127 843T58 782L4 823ZM35 17Q67 26 115 37V663Q82 668 35 683V700H332V682Q314
674 287 669T251 662V36Q282 31 332 16V0H35V17Z" />
<glyph unicode="&#xcf;" glyph-name="Idieresis" horiz-adv-x="367" d="M41 785T26 801T10 841Q10 866 25 882T65 898Q91 898 106 882T122 841Q122 817 107 801T65 785Q41 785 26 801ZM273 785T258 800T243 841Q243 866 258 882T299 898Q324 898 339 882T355 841Q355
817 340 801T299 785Q273 785 258 800ZM35 17Q67 26 115 37V663Q82 668 35 683V700H332V682Q314 674 287 669T251 662V36Q282 31 332 16V0H35V17Z" />
<glyph unicode="&#xd0;" glyph-name="Eth" horiz-adv-x="701" d="M515 700T589 611T664 350Q664 178 590 89T353 0H33V17Q88 34 112 37V311H45V355H112V663Q72 671 33 684V700H354Q515 700 589 611ZM446 44T486 123T526 350Q526 496 486 575T353 654H246V355H398V311H246V44H351Q446
44 486 123Z" />
<glyph unicode="&#xd1;" glyph-name="Ntilde" horiz-adv-x="783" d="M214 841T243 869T321 897Q346 897 366 890T416 866Q453 844 473 844Q525 844 537 900H589Q583 847 555 817T475 786Q454 786 433 794T383 817Q360 829 346 834T320 840Q298 840 282 826T260
786H207Q214 841 243 869ZM34 15Q66 26 113 35V663Q62 673 33 684V700H252L613 165V664Q569 673 534 684V700H750V684Q714 673 670 664V0H599L170 630V35Q215 26 249 15V0H34V15Z" />
<glyph unicode="&#xd2;" glyph-name="Ograve" horiz-adv-x="749" d="M301 875Q278 888 267 901T256 929Q256 943 266 955T295 967Q313 967 330 957T356 937L477 817L455 786L301 875ZM210 -10T123 85T35 350Q35 519 122 614T374 710Q537 710 625 615T714 350Q714
181 626 86T374 -10Q210 -10 123 85ZM475 37T526 122T577 350Q577 492 526 577T374 663Q274 663 223 578T172 350Q172 207 223 122T374 37Q475 37 526 122Z" />
<glyph unicode="&#xd3;" glyph-name="Oacute" horiz-adv-x="749" d="M269 817L389 936Q398 946 413 956T448 967Q469 967 479 956T489 930Q489 901 445 875L291 786L269 817ZM210 -10T123 85T35 350Q35 519 122 614T374 710Q537 710 625 615T714 350Q714 181 626
86T374 -10Q210 -10 123 85ZM475 37T526 122T577 350Q577 492 526 577T374 663Q274 663 223 578T172 350Q172 207 223 122T374 37Q475 37 526 122Z" />
<glyph unicode="&#xd4;" glyph-name="Ocircumflex" horiz-adv-x="749" d="M195 823Q228 844 275 888T342 959H404Q423 932 470 888T551 823L497 782Q465 806 429 842T375 904H371Q354 878 318 843T249 782L195 823ZM210 -10T123 85T35 350Q35 519 122 614T374
710Q537 710 625 615T714 350Q714 181 626 86T374 -10Q210 -10 123 85ZM475 37T526 122T577 350Q577 492 526 577T374 663Q274 663 223 578T172 350Q172 207 223 122T374 37Q475 37 526 122Z" />
<glyph unicode="&#xd5;" glyph-name="Otilde" horiz-adv-x="749" d="M190 841T219 869T297 897Q322 897 342 890T392 866Q429 844 449 844Q501 844 513 900H565Q559 847 531 817T451 786Q430 786 409 794T359 817Q335 829 321 834T296 840Q274 840 258 826T236
786H183Q190 841 219 869ZM210 -10T123 85T35 350Q35 519 122 614T374 710Q537 710 625 615T714 350Q714 181 626 86T374 -10Q210 -10 123 85ZM475 37T526 122T577 350Q577 492 526 577T374 663Q274 663 223 578T172 350Q172 207 223 122T374 37Q475 37 526 122Z"
/>
<glyph unicode="&#xd6;" glyph-name="Odieresis" horiz-adv-x="749" d="M232 785T217 801T201 841Q201 866 216 882T256 898Q282 898 297 882T313 841Q313 817 298 801T256 785Q232 785 217 801ZM464 785T449 800T434 841Q434 866 449 882T490 898Q515 898 530
882T546 841Q546 817 531 801T490 785Q464 785 449 800ZM210 -10T123 85T35 350Q35 519 122 614T374 710Q537 710 625 615T714 350Q714 181 626 86T374 -10Q210 -10 123 85ZM475 37T526 122T577 350Q577 492 526 577T374 663Q274 663 223 578T172 350Q172 207 223
122T374 37Q475 37 526 122Z" />
<glyph unicode="&#xd7;" glyph-name="multiply" horiz-adv-x="601" d="M65 152L232 318L65 484L127 547L300 375L473 547L535 484L368 318L535 152L473 89L300 261L127 89L65 152Z" />
<glyph unicode="&#xd8;" glyph-name="Oslash" horiz-adv-x="749" d="M663 580T688 510T714 350Q714 181 626 86T374 -10Q247 -10 165 48L102 -34L65 -5L129 78Q35 174 35 350Q35 519 122 614T374 710Q495 710 574 657L625 723L665 694L613 627Q663 580 688 510ZM172
244T200 170L520 586Q468 663 374 663Q274 663 223 578T172 350Q172 244 200 170ZM475 37T526 122T577 350Q577 465 545 539L223 122Q276 37 374 37Q475 37 526 122Z" />
<glyph unicode="&#xd9;" glyph-name="Ugrave" horiz-adv-x="791" d="M330 875Q307 888 296 901T285 929Q285 943 295 955T324 967Q342 967 359 957T385 937L506 817L484 786L330 875ZM110 -10T110 218V663Q59 673 30 684V700H326V682Q302 674 246 662V205Q246
114 298 76T435 37Q518 37 571 77T624 205V664Q581 670 543 684V700H761V684Q706 665 680 662V218Q680 104 610 47T401 -10Q110 -10 110 218Z" />
<glyph unicode="&#xda;" glyph-name="Uacute" horiz-adv-x="791" d="M324 817L444 936Q453 946 468 956T503 967Q524 967 534 956T544 930Q544 901 500 875L346 786L324 817ZM110 -10T110 218V663Q59 673 30 684V700H326V682Q302 674 246 662V205Q246 114 298
76T435 37Q518 37 571 77T624 205V664Q581 670 543 684V700H761V684Q706 665 680 662V218Q680 104 610 47T401 -10Q110 -10 110 218Z" />
<glyph unicode="&#xdb;" glyph-name="Ucircumflex" horiz-adv-x="791" d="M217 823Q250 844 297 888T364 959H426Q445 932 492 888T573 823L519 782Q487 806 451 842T397 904H393Q376 878 340 843T271 782L217 823ZM110 -10T110 218V663Q59 673 30 684V700H326V682Q302
674 246 662V205Q246 114 298 76T435 37Q518 37 571 77T624 205V664Q581 670 543 684V700H761V684Q706 665 680 662V218Q680 104 610 47T401 -10Q110 -10 110 218Z" />
<glyph unicode="&#xdc;" glyph-name="Udieresis" horiz-adv-x="791" d="M273 785T258 801T242 841Q242 866 257 882T297 898Q323 898 338 882T354 841Q354 817 339 801T297 785Q273 785 258 801ZM505 785T490 800T475 841Q475 866 490 882T531 898Q556 898 571
882T587 841Q587 817 572 801T531 785Q505 785 490 800ZM110 -10T110 218V663Q59 673 30 684V700H326V682Q302 674 246 662V205Q246 114 298 76T435 37Q518 37 571 77T624 205V664Q581 670 543 684V700H761V684Q706 665 680 662V218Q680 104 610 47T401 -10Q110
-10 110 218Z" />
<glyph unicode="&#xdd;" glyph-name="Yacute" horiz-adv-x="744" d="M301 817L421 936Q430 946 445 956T480 967Q501 967 511 956T521 930Q521 901 477 875L323 786L301 817ZM228 15Q246 22 267 28T307 36V305L95 661Q50 670 16 683V700H309V681Q253 664 224 660L405
359L596 665Q564 672 531 684V700H728V681Q705 672 670 664L443 304V36Q474 31 524 16V0H228V15Z" />
<glyph unicode="&#xde;" glyph-name="Thorn" horiz-adv-x="632" d="M27 17Q78 32 108 37V663Q64 672 29 683V700H243V571H381Q502 571 555 515T609 366Q609 304 584 254T508 175T383 145H243V36Q276 31 324 16V0H27V17ZM348 190Q413 190 444 239T475 367Q475 443
444 485T348 527H243V190H348Z" />
<glyph unicode="&#xdf;" glyph-name="germandbls" horiz-adv-x="749" d="M459 362T486 343T570 301Q619 281 650 264T703 215T725 137Q725 61 670 26T524 -10Q459 -10 414 7T335 55L344 178H373Q379 161 383 129T387 72Q409 54 432 44T489 34Q539 34 564 58T590
120Q590 146 576 164T540 193T480 221Q433 240 404 257T354 303T333 379Q333 429 371 458T464 497Q464 565 438 625T338 686Q298 686 270 661T242 580V35Q285 28 322 15V0H31V16Q96 35 111 36V453H17V498H111V539Q111 635 173 683T341 732Q496 732 541 652T586
482V462Q532 462 496 447T459 397Q459 362 486 343Z" />
<glyph unicode="&#xe0;" glyph-name="agrave" horiz-adv-x="569" d="M208 673Q185 686 174 699T163 727Q163 741 173 753T202 765Q220 765 237 755T263 735L384 615L362 584L208 673ZM24 -10T24 136Q24 215 80 250T228 285H362V358Q362 412 331 437T243 462Q203
462 160 450T80 420L72 458Q116 481 171 494T284 507Q381 507 437 468T494 364V43Q532 35 562 26V15L362 -4V63Q328 26 285 8T195 -10Q24 -10 24 136ZM277 37T311 58T362 109V241H259Q207 241 181 214T154 137Q154 86 178 62T245 37Q277 37 311 58Z" />
<glyph unicode="&#xe1;" glyph-name="aacute" horiz-adv-x="569" d="M191 615L311 734Q320 744 335 754T370 765Q391 765 401 754T411 728Q411 699 367 673L213 584L191 615ZM24 -10T24 136Q24 215 80 250T228 285H362V358Q362 412 331 437T243 462Q203 462 160
450T80 420L72 458Q116 481 171 494T284 507Q381 507 437 468T494 364V43Q532 35 562 26V15L362 -4V63Q328 26 285 8T195 -10Q24 -10 24 136ZM277 37T311 58T362 109V241H259Q207 241 181 214T154 137Q154 86 178 62T245 37Q277 37 311 58Z" />
<glyph unicode="&#xe2;" glyph-name="acircumflex" horiz-adv-x="569" d="M101 621Q134 642 181 686T248 757H310Q329 730 376 686T457 621L403 580Q371 604 335 640T281 702H277Q260 676 224 641T155 580L101 621ZM24 -10T24 136Q24 215 80 250T228 285H362V358Q362
412 331 437T243 462Q203 462 160 450T80 420L72 458Q116 481 171 494T284 507Q381 507 437 468T494 364V43Q532 35 562 26V15L362 -4V63Q328 26 285 8T195 -10Q24 -10 24 136ZM277 37T311 58T362 109V241H259Q207 241 181 214T154 137Q154 86 178 62T245 37Q277
37 311 58Z" />
<glyph unicode="&#xe3;" glyph-name="atilde" horiz-adv-x="569" d="M94 639T123 667T201 695Q226 695 246 688T296 664Q333 642 353 642Q405 642 417 698H469Q463 645 435 615T355 584Q334 584 313 592T263 615Q240 627 226 632T200 638Q178 638 162 624T140
584H87Q94 639 123 667ZM24 -10T24 136Q24 215 80 250T228 285H362V358Q362 412 331 437T243 462Q203 462 160 450T80 420L72 458Q116 481 171 494T284 507Q381 507 437 468T494 364V43Q532 35 562 26V15L362 -4V63Q328 26 285 8T195 -10Q24 -10 24 136ZM277 37T311
58T362 109V241H259Q207 241 181 214T154 137Q154 86 178 62T245 37Q277 37 311 58Z" />
<glyph unicode="&#xe4;" glyph-name="adieresis" horiz-adv-x="569" d="M134 583T119 599T103 639Q103 664 118 680T158 696Q184 696 199 680T215 639Q215 615 200 599T158 583Q134 583 119 599ZM366 583T351 598T336 639Q336 664 351 680T392 696Q417 696 432
680T448 639Q448 615 433 599T392 583Q366 583 351 598ZM24 -10T24 136Q24 215 80 250T228 285H362V358Q362 412 331 437T243 462Q203 462 160 450T80 420L72 458Q116 481 171 494T284 507Q381 507 437 468T494 364V43Q532 35 562 26V15L362 -4V63Q328 26 285 8T195
-10Q24 -10 24 136ZM277 37T311 58T362 109V241H259Q207 241 181 214T154 137Q154 86 178 62T245 37Q277 37 311 58Z" />
<glyph unicode="&#xe5;" glyph-name="aring" horiz-adv-x="569" d="M238 575T210 602T181 672Q181 716 210 743T285 770Q331 770 359 743T388 672Q388 629 360 602T285 575Q238 575 210 602ZM310 616T326 631T342 672Q342 697 326 712T285 728Q260 728 243 713T226
672Q226 647 243 632T285 616Q310 616 326 631ZM24 -10T24 136Q24 215 80 250T228 285H362V358Q362 412 331 437T243 462Q203 462 160 450T80 420L72 458Q116 481 171 494T284 507Q381 507 437 468T494 364V43Q532 35 562 26V15L362 -4V63Q328 26 285 8T195 -10Q24
-10 24 136ZM277 37T311 58T362 109V241H259Q207 241 181 214T154 137Q154 86 178 62T245 37Q277 37 311 58Z" />
<glyph unicode="&#xe6;" glyph-name="ae" horiz-adv-x="899" d="M126 -10T75 27T24 136Q24 215 85 252T238 289H359Q359 295 365 325Q369 352 370 362Q369 411 333 436T243 462Q203 462 160 450T80 420L72 458Q116 481 171 494T284 507Q340 507 382 491T448 447Q481
475 528 491T630 507Q710 507 764 476T844 391T870 272V244H488Q490 141 537 87T668 33Q709 33 754 47T832 85L845 53Q812 26 760 8T643 -10Q574 -10 519 12T426 77Q388 32 328 11T206 -10Q126 -10 75 27ZM755 290Q752 361 722 412T628 464Q563 464 528 415T489
290H755ZM290 37T332 57T400 106Q360 162 357 244H270Q217 244 186 215T154 137Q154 85 181 61T251 37Q290 37 332 57Z" />
<glyph unicode="&#xe7;" glyph-name="ccedilla" horiz-adv-x="530" d="M375 -62T404 -84T434 -141Q434 -189 396 -215T297 -241Q270 -241 242 -234T193 -214L214 -179Q246 -195 287 -195Q323 -195 345 -182T367 -141Q367 -119 348 -110T302 -100Q292 -100 278
-102L254 -70L284 -10Q165 -4 98 66T30 248Q30 330 65 388T163 476T310 507Q428 507 505 440L497 323H468Q462 340 458 370T454 425Q401 462 343 462Q259 462 211 407T163 245Q163 189 181 141T238 62T336 32Q376 32 420 46T497 85L509 53Q482 30 440 14T345 -8L319
-62Q375 -62 404 -84Z" />
<glyph unicode="&#xe8;" glyph-name="egrave" horiz-adv-x="567" d="M203 686T192 699T181 727Q181 741 191 753T220 765Q238 765 255 755T281 735L402 615L380 584L226 673Q203 686 192 699ZM538 242H159Q161 152 204 92T332 32Q373 32 419 46T501 85L514 53Q482
26 426 8T303 -10Q218 -10 156 22T60 112T26 248Q26 372 97 439T297 507Q378 507 432 475T512 389T538 269V242ZM423 286Q423 326 411 366T371 434T298 462Q236 462 202 413T161 286H423Z" />
<glyph unicode="&#xe9;" glyph-name="eacute" horiz-adv-x="567" d="M225 584L203 615L323 734Q332 744 347 754T382 765Q403 765 413 754T423 728Q423 699 379 673L225 584ZM538 242H159Q161 152 204 92T332 32Q373 32 419 46T501 85L514 53Q482 26 426 8T303
-10Q218 -10 156 22T60 112T26 248Q26 372 97 439T297 507Q378 507 432 475T512 389T538 269V242ZM423 286Q423 326 411 366T371 434T298 462Q236 462 202 413T161 286H423Z" />
<glyph unicode="&#xea;" glyph-name="ecircumflex" horiz-adv-x="567" d="M274 676T238 641T169 580L115 621Q148 642 195 686T262 757H324Q343 730 390 686T471 621L417 580Q385 604 349 640T295 702H291Q274 676 238 641ZM538 242H159Q161 152 204 92T332 32Q373
32 419 46T501 85L514 53Q482 26 426 8T303 -10Q218 -10 156 22T60 112T26 248Q26 372 97 439T297 507Q378 507 432 475T512 389T538 269V242ZM423 286Q423 326 411 366T371 434T298 462Q236 462 202 413T161 286H423Z" />
<glyph unicode="&#xeb;" glyph-name="edieresis" horiz-adv-x="567" d="M153 583T138 599T122 639Q122 664 137 680T177 696Q203 696 218 680T234 639Q234 615 219 599T177 583Q153 583 138 599ZM385 583T370 598T355 639Q355 664 370 680T411 696Q436 696 451
680T467 639Q467 615 452 599T411 583Q385 583 370 598ZM538 242H159Q161 152 204 92T332 32Q373 32 419 46T501 85L514 53Q482 26 426 8T303 -10Q218 -10 156 22T60 112T26 248Q26 372 97 439T297 507Q378 507 432 475T512 389T538 269V242ZM423 286Q423 326 411
366T371 434T298 462Q236 462 202 413T161 286H423Z" />
<glyph unicode="&#xec;" glyph-name="igrave" horiz-adv-x="357" d="M98 673Q75 686 64 699T53 727Q53 741 63 753T92 765Q110 765 127 755T153 735L274 615L252 584L98 673ZM33 15Q51 21 112 36V457Q82 462 43 475V485L244 505V35Q288 26 323 15V0H33V15Z" />
<glyph unicode="&#xed;" glyph-name="iacute" horiz-adv-x="357" d="M65 615L185 734Q194 744 209 754T244 765Q265 765 275 754T285 728Q285 699 241 673L87 584L65 615ZM33 15Q51 21 112 36V457Q82 462 43 475V485L244 505V35Q288 26 323 15V0H33V15Z" />
<glyph unicode="&#xee;" glyph-name="icircumflex" horiz-adv-x="357" d="M-1 621Q32 642 79 686T146 757H208Q227 730 274 686T355 621L301 580Q269 604 233 640T179 702H175Q158 676 122 641T53 580L-1 621ZM33 15Q51 21 112 36V457Q82 462 43 475V485L244 505V35Q288
26 323 15V0H33V15Z" />
<glyph unicode="&#xef;" glyph-name="idieresis" horiz-adv-x="357" d="M36 583T21 599T5 639Q5 664 20 680T60 696Q86 696 101 680T117 639Q117 615 102 599T60 583Q36 583 21 599ZM268 583T253 598T238 639Q238 664 253 680T294 696Q319 696 334 680T350 639Q350
615 335 599T294 583Q268 583 253 598ZM33 15Q51 21 112 36V457Q82 462 43 475V485L244 505V35Q288 26 323 15V0H33V15Z" />
<glyph unicode="&#xf0;" glyph-name="eth" horiz-adv-x="612" d="M476 582T526 484T577 291Q577 149 507 70T297 -10Q213 -10 154 25T65 119T35 248Q35 311 63 369T151 464T302 502Q337 502 374 489T434 452Q400 543 321 624L147 527L127 585L272 668Q222 708
161 735L196 778Q269 749 333 703L472 786L509 730L386 661Q476 582 526 484ZM368 34T407 101T446 269Q446 318 428 361T378 431T306 457Q265 457 233 430T184 356T166 248Q166 159 201 97T299 34Q368 34 407 101Z" />
<glyph unicode="&#xf1;" glyph-name="ntilde" horiz-adv-x="700" d="M241 638T225 624T203 584H150Q157 639 186 667T264 695Q289 695 309 688T359 664Q396 642 416 642Q468 642 480 698H532Q526 645 498 615T418 584Q397 584 376 592T326 615Q303 627 289 632T263
638Q241 638 225 624ZM652 27T680 15V0H398V15Q443 31 470 36V359Q470 462 377 462Q344 462 307 445T237 390V35Q278 28 316 15V0H26V15Q68 31 105 36V459Q64 468 36 478V488L237 508V436Q272 468 320 487T423 507Q503 507 552 470T602 365V35Q652 27 680 15Z"
/>
<glyph unicode="&#xf2;" glyph-name="ograve" horiz-adv-x="612" d="M233 673Q210 686 199 699T188 727Q188 741 198 753T227 765Q245 765 262 755T288 735L409 615L387 584L233 673ZM170 -10T97 58T23 248Q23 370 96 438T306 507Q441 507 514 439T588 248Q588
126 515 58T306 -10Q170 -10 97 58ZM374 34T414 91T455 248Q455 348 415 405T306 462Q237 462 197 405T156 248Q156 148 196 91T306 34Q374 34 414 91Z" />
<glyph unicode="&#xf3;" glyph-name="oacute" horiz-adv-x="612" d="M201 615L321 734Q330 744 345 754T380 765Q401 765 411 754T421 728Q421 699 377 673L223 584L201 615ZM170 -10T97 58T23 248Q23 370 96 438T306 507Q441 507 514 439T588 248Q588 126 515
58T306 -10Q170 -10 97 58ZM374 34T414 91T455 248Q455 348 415 405T306 462Q237 462 197 405T156 248Q156 148 196 91T306 34Q374 34 414 91Z" />
<glyph unicode="&#xf4;" glyph-name="ocircumflex" horiz-adv-x="612" d="M127 621Q160 642 207 686T274 757H336Q355 730 402 686T483 621L429 580Q397 604 361 640T307 702H303Q286 676 250 641T181 580L127 621ZM170 -10T97 58T23 248Q23 370 96 438T306 507Q441
507 514 439T588 248Q588 126 515 58T306 -10Q170 -10 97 58ZM374 34T414 91T455 248Q455 348 415 405T306 462Q237 462 197 405T156 248Q156 148 196 91T306 34Q374 34 414 91Z" />
<glyph unicode="&#xf5;" glyph-name="otilde" horiz-adv-x="612" d="M121 639T150 667T228 695Q253 695 273 688T323 664Q360 642 380 642Q432 642 444 698H496Q490 645 462 615T382 584Q361 584 340 592T290 615Q266 627 252 632T227 638Q205 638 189 624T167
584H114Q121 639 150 667ZM170 -10T97 58T23 248Q23 370 96 438T306 507Q441 507 514 439T588 248Q588 126 515 58T306 -10Q170 -10 97 58ZM374 34T414 91T455 248Q455 348 415 405T306 462Q237 462 197 405T156 248Q156 148 196 91T306 34Q374 34 414 91Z" />
<glyph unicode="&#xf6;" glyph-name="odieresis" horiz-adv-x="612" d="M164 583T149 599T133 639Q133 664 148 680T188 696Q214 696 229 680T245 639Q245 615 230 599T188 583Q164 583 149 599ZM396 583T381 598T366 639Q366 664 381 680T422 696Q447 696 462
680T478 639Q478 615 463 599T422 583Q396 583 381 598ZM170 -10T97 58T23 248Q23 370 96 438T306 507Q441 507 514 439T588 248Q588 126 515 58T306 -10Q170 -10 97 58ZM374 34T414 91T455 248Q455 348 415 405T306 462Q237 462 197 405T156 248Q156 148 196 91T306
34Q374 34 414 91Z" />
<glyph unicode="&#xf7;" glyph-name="divide" horiz-adv-x="601" d="M264 424T246 443T228 492Q228 521 246 539T294 558Q325 558 343 540T362 492Q362 462 344 443T294 424Q264 424 246 443ZM45 352H556V287H45V352ZM263 81T245 99T227 147Q227 177 245 196T294
215Q325 215 343 196T361 147Q361 118 343 100T294 81Q263 81 245 99Z" />
<glyph unicode="&#xf8;" glyph-name="oslash" horiz-adv-x="612" d="M588 379T588 248Q588 126 515 58T306 -10Q209 -10 144 25L93 -34L56 -3L103 52Q23 121 23 248Q23 370 96 438T306 507Q400 507 463 474L508 527L548 495L506 446Q588 379 588 248ZM156 182T174
135L410 412Q369 462 306 462Q237 462 197 405T156 248Q156 182 174 135ZM374 34T414 91T455 248Q455 314 436 365L198 88Q238 34 306 34Q374 34 414 91Z" />
<glyph unicode="&#xf9;" glyph-name="ugrave" horiz-adv-x="668" d="M241 686T230 699T219 727Q219 741 229 753T258 765Q276 765 293 755T319 735L440 615L418 584L264 673Q241 686 230 699ZM608 31T651 19V8L450 -11V48Q415 23 370 7T276 -10Q188 -10 137 26T86
129V459Q42 468 17 478V488L217 508V139Q217 34 312 34Q341 34 380 50T450 93V459Q408 468 382 478V488L581 508V36Q608 31 651 19Z" />
<glyph unicode="&#xfa;" glyph-name="uacute" horiz-adv-x="668" d="M270 584L248 615L368 734Q377 744 392 754T427 765Q448 765 458 754T468 728Q468 699 424 673L270 584ZM608 31T651 19V8L450 -11V48Q415 23 370 7T276 -10Q188 -10 137 26T86 129V459Q42 468
17 478V488L217 508V139Q217 34 312 34Q341 34 380 50T450 93V459Q408 468 382 478V488L581 508V36Q608 31 651 19Z" />
<glyph unicode="&#xfb;" glyph-name="ucircumflex" horiz-adv-x="668" d="M311 676T275 641T206 580L152 621Q185 642 232 686T299 757H361Q380 730 427 686T508 621L454 580Q422 604 386 640T332 702H328Q311 676 275 641ZM608 31T651 19V8L450 -11V48Q415 23
370 7T276 -10Q188 -10 137 26T86 129V459Q42 468 17 478V488L217 508V139Q217 34 312 34Q341 34 380 50T450 93V459Q408 468 382 478V488L581 508V36Q608 31 651 19Z" />
<glyph unicode="&#xfc;" glyph-name="udieresis" horiz-adv-x="668" d="M189 583T174 599T158 639Q158 664 173 680T213 696Q239 696 254 680T270 639Q270 615 255 599T213 583Q189 583 174 599ZM421 583T406 598T391 639Q391 664 406 680T447 696Q472 696 487
680T503 639Q503 615 488 599T447 583Q421 583 406 598ZM608 31T651 19V8L450 -11V48Q415 23 370 7T276 -10Q188 -10 137 26T86 129V459Q42 468 17 478V488L217 508V139Q217 34 312 34Q341 34 380 50T450 93V459Q408 468 382 478V488L581 508V36Q608 31 651 19Z"
/>
<glyph unicode="&#xfd;" glyph-name="yacute" horiz-adv-x="600" d="M266 584L244 615L364 734Q373 744 388 754T423 765Q444 765 454 754T464 728Q464 699 420 673L266 584ZM594 498V484Q560 470 525 463L326 -53Q307 -104 287 -133T237 -178T162 -193Q109 -193
55 -168L77 -109Q128 -128 162 -128Q187 -128 203 -120T234 -90T266 -24L277 4L69 465Q28 471 4 483V498H274V482Q249 472 193 464L328 136L456 467Q422 470 386 482V498H594Z" />
<glyph unicode="&#xfe;" glyph-name="thorn" horiz-adv-x="639" d="M13 -222Q48 -212 92 -202V660Q64 665 24 677V688L224 708V442Q257 479 298 493T376 507Q491 507 553 446T615 261Q615 -10 366 -10Q323 -10 284 5T224 53V-203Q255 -208 303 -223V-239H13V-222ZM420
34T451 94T482 256Q482 360 453 411T352 462Q315 462 281 441T224 388V170Q224 113 257 74T349 34Q420 34 451 94Z" />
<glyph unicode="&#xff;" glyph-name="ydieresis" horiz-adv-x="600" d="M178 583T163 599T147 639Q147 664 162 680T202 696Q228 696 243 680T259 639Q259 615 244 599T202 583Q178 583 163 599ZM410 583T395 598T380 639Q380 664 395 680T436 696Q461 696 476
680T492 639Q492 615 477 599T436 583Q410 583 395 598ZM594 498V484Q560 470 525 463L326 -53Q307 -104 287 -133T237 -178T162 -193Q109 -193 55 -168L77 -109Q128 -128 162 -128Q187 -128 203 -120T234 -90T266 -24L277 4L69 465Q28 471 4 483V498H274V482Q249
472 193 464L328 136L456 467Q422 470 386 482V498H594Z" />
<glyph unicode="&#x2013;" glyph-name="endash" horiz-adv-x="686" d="M46 316H639V244H46V316Z" />
<glyph unicode="&#x2014;" glyph-name="emdash" horiz-adv-x="1021" d="M46 316H975V244H46V316Z" />
<glyph unicode="&#x2018;" glyph-name="quoteleft" horiz-adv-x="255" d="M93 435T74 459T54 518Q54 568 82 623T150 714L193 682Q139 621 132 569Q162 569 183 553T204 508Q204 477 185 456T133 435Q93 435 74 459Z" />
<glyph unicode="&#x2019;" glyph-name="quoteright" horiz-adv-x="255" d="M65 463Q87 487 104 516T126 576L120 575Q92 575 73 592T54 636Q54 667 73 688T125 710Q165 710 184 685T204 627Q204 577 176 522T108 430L65 463Z" />
<glyph unicode="&#x201a;" glyph-name="quotesinglbase" horiz-adv-x="255" d="M65 0Q119 61 126 113L120 112Q92 112 73 130T54 174Q54 205 73 226T125 247Q165 247 184 222T204 164Q204 114 176 59T108 -32L65 0Z" />
<glyph unicode="&#x201c;" glyph-name="quotedblleft" horiz-adv-x="436" d="M93 435T74 459T54 518Q54 568 82 623T150 714L193 682Q139 621 132 569Q162 569 183 553T204 508Q204 477 185 456T133 435Q93 435 74 459ZM274 435T255 459T235 518Q235 568 262 623T330
714L374 682Q352 658 335 629T313 569Q343 569 363 553T384 508Q384 477 366 456T314 435Q274 435 255 459Z" />
<glyph unicode="&#x201d;" glyph-name="quotedblright" horiz-adv-x="436" d="M65 463Q87 487 104 516T126 576L120 575Q92 575 73 592T54 636Q54 667 73 688T125 710Q165 710 184 685T204 627Q204 577 176 522T108 430L65 463ZM256 463Q277 486 294 516T316 576L310
575Q283 575 264 592T245 636Q245 668 263 689T316 710Q355 710 374 686T394 627Q394 577 367 522T299 430L256 463Z" />
<glyph unicode="&#x201e;" glyph-name="quotedblbase" horiz-adv-x="436" d="M65 0Q119 61 126 113L120 112Q92 112 73 130T54 174Q54 205 73 226T125 247Q165 247 184 222T204 164Q204 114 176 59T108 -32L65 0ZM256 0Q309 59 316 113L310 112Q282 112 264 130T245
174Q245 205 263 226T316 247Q355 247 374 223T394 164Q394 114 367 59T299 -32L256 0Z" />
<glyph unicode="&#x2022;" glyph-name="bullet" horiz-adv-x="282" d="M103 246T79 271T55 335Q55 374 78 399T141 424Q180 424 203 399T227 335Q227 297 203 272T141 246Q103 246 79 271Z" />
<glyph unicode="&#x2039;" glyph-name="guilsinglleft" horiz-adv-x="337" d="M198 95T145 150T35 251V272Q169 383 248 505L300 424Q281 390 242 348T151 262Q202 217 242 175T300 100L248 19Q198 95 145 150Z" />
<glyph unicode="&#x203a;" glyph-name="guilsinglright" horiz-adv-x="337" d="M36 100Q71 162 184 262Q72 360 36 424L88 505Q167 385 301 272V251Q243 204 190 149T88 19L36 100Z" />
</font>
</defs>
</svg>
