<?xml version="1.0" standalone="no"?>
<!DOCTYPE svg PUBLIC "-//W3C//DTD SVG 1.1//EN" "http://www.w3.org/Graphics/SVG/1.1/DTD/svg11.dtd">
<svg xmlns="http://www.w3.org/2000/svg">
<defs >
<font id="ExpletusSans" horiz-adv-x="477" ><font-face
    font-family="Expletus Sans"
    units-per-em="1000"
    panose-1="2 0 0 0 0 0 0 0 0 0"
    ascent="900"
    descent="-400"
    alphabetic="0" />
<glyph unicode=" " glyph-name="space" horiz-adv-x="257" />
<glyph unicode="!" glyph-name="exclam" horiz-adv-x="351" d="M187 727L166 230H66L47 727H187ZM32 68Q32 85 38 100T56 127T82 145T115 152Q150 152 173 128T197 68Q197 33 174 10T115 -14Q80 -14 56 9T32 68Z" />
<glyph unicode="&quot;" glyph-name="quotedbl" horiz-adv-x="416" d="M33 727H155V649Q155 614 148 584T127 533T89 503T33 501V727ZM237 727H359V649Q359 614 352 584T331 533T293 503T237 501V727Z" />
<glyph unicode="#" glyph-name="numbersign" horiz-adv-x="894" d="M480 141L487 156L472 154H318Q323 168 331 183T352 211T384 232T430 241H496L536 448L544 464L526 462H345L257 0H145L174 145L181 156L167 154H65V240H190L231 453L238 464L222 462H124V550H250L278
702H390L361 550H556L585 702H697L667 550H781V463H651L608 241H721V154H594L564 0H452L480 141Z" />
<glyph unicode="$" glyph-name="dollar" horiz-adv-x="514" d="M264 612Q219 612 192 591T165 537Q165 504 190 481T253 436T335 394T417 344T480 276T506 181Q506 100 455 53T316 -8V-107H210V-11Q172 -7 126 5T26 40L64 134Q118 110 165 101T251 91Q305 91 339
118T374 183Q374 218 349 242T286 288T205 329T123 377T60 440T35 529Q35 570 48 601T85 655T141 690T210 709V810H316V709Q345 706 377 700T451 680L414 589Q369 601 333 606T264 612Z" />
<glyph unicode="%" glyph-name="percent" horiz-adv-x="814" d="M576 702H687L249 0H138L576 702ZM821 191Q821 94 774 41T647 -13Q567 -13 521 40T475 191Q475 288 521 341T647 394Q727 394 774 341T821 191ZM710 191Q710 252 693 283T647 315Q620 315 603 284T585
191Q585 128 602 97T647 66Q676 66 693 97T710 191ZM352 514Q352 417 305 364T178 310Q98 310 52 363T6 514Q6 611 52 664T178 717Q258 717 305 664T352 514ZM241 514Q241 575 224 606T178 638Q151 638 134 607T116 514Q116 451 133 420T178 389Q207 389 224 420T241
514Z" />
<glyph unicode="&amp;" glyph-name="ampersand" horiz-adv-x="761" d="M297 324L288 341L279 323Q262 302 253 278T243 222Q243 167 269 130T350 93Q361 93 367 94T383 96Q421 99 445 81T491 39Q456 13 418 1T335 -11Q284 -11 243 4T171 48T125 118T108 209Q108
277 142 327T225 415Q207 439 197 458T180 493T172 522T170 550Q170 596 187 631T234 689T306 725T396 737Q429 737 471 729T550 703L520 611Q488 622 455 627T394 633Q351 633 325 613T298 559Q298 521 322 487T388 404L522 246L532 228L539 249Q553 281 562 312T576
379H691Q677 313 658 256T608 147L735 0H576L297 324Z" />
<glyph unicode="&apos;" glyph-name="quotesingle" horiz-adv-x="191" d="M27 727H149V649Q149 614 142 584T121 533T83 503T27 501V727Z" />
<glyph unicode="(" glyph-name="parenleft" horiz-adv-x="403" d="M281 296Q281 213 284 153T300 48T337 -35T405 -110L339 -176Q281 -137 246 -94T191 5T165 131T158 296Q158 389 164 460T190 586T245 684T339 767L405 702Q362 663 337 626T300 543T284 438T281 296Z" />
<glyph unicode=")" glyph-name="parenright" horiz-adv-x="401" d="M122 296Q122 379 119 438T104 543T66 626T-2 702L64 767Q122 728 157 685T212 586T238 460T245 296Q245 202 239 132T213 6T158 -93T64 -176L-2 -110Q41 -72 65 -35T102 47T118 153T122 296Z" />
<glyph unicode="*" glyph-name="asterisk" horiz-adv-x="530" d="M249 590L303 746L397 691L289 568L450 599V491L287 523L396 400L302 346L250 502L197 346L103 400L212 524L51 492V600L210 569L102 691L196 746L249 590Z" />
<glyph unicode="+" glyph-name="plus" horiz-adv-x="568" d="M47 353H227V546H333V353H515V257H333V62H227V257H47V353Z" />
<glyph unicode="," glyph-name="comma" horiz-adv-x="254" d="M56 98H178V20Q178 -15 171 -45T150 -96T112 -126T56 -128V98Z" />
<glyph unicode="-" glyph-name="hyphen" horiz-adv-x="375" d="M45 255V353H347V255H45Z" />
<glyph unicode="." glyph-name="period" horiz-adv-x="273" d="M42 67Q42 84 48 99T66 126T92 144T125 151Q160 151 183 127T207 67Q207 32 184 9T125 -15Q90 -15 66 8T42 67Z" />
<glyph unicode="/" glyph-name="slash" horiz-adv-x="332" d="M-13 -62L230 727H351L108 -62H-13Z" />
<glyph unicode="0" glyph-name="zero" horiz-adv-x="710" d="M625 349Q625 277 607 211T552 93T460 12T329 -19Q263 -19 209 6T115 79T55 195T33 349Q33 432 53 500T112 617T206 692T329 719Q407 719 463 686T555 601T608 482T625 349ZM473 349Q473 410 464 459T437
544T392 598T329 617Q292 617 265 598T220 544T194 460T185 349Q185 288 194 239T221 156T266 102T329 83Q365 83 392 102T437 155T464 239T473 349Z" />
<glyph unicode="1" glyph-name="one" horiz-adv-x="319" d="M129 0V556L23 501L-20 581L203 701H257V0H129Z" />
<glyph unicode="2" glyph-name="two" horiz-adv-x="567" d="M494 522Q494 473 467 420T400 315T316 214T238 124L222 106L245 109H505V0H44V59Q58 92 86 129T147 206T216 287T280 367T327 443T346 512Q346 560 314 585T232 611Q209 611 177 604T107 580L71 672Q121
695 164 704T242 713Q300 713 346 700T426 662T476 602T494 522Z" />
<glyph unicode="3" glyph-name="three" horiz-adv-x="528" d="M450 546Q450 456 347 392L322 382L345 377Q401 355 437 308T474 194Q474 147 453 109T396 45T311 4T208 -11Q153 -11 103 1T5 35L38 126Q84 106 120 99T186 91Q212 91 237 98T283 118T315 150T327
196Q327 230 313 252T272 287T210 305T132 311L123 396Q165 414 198 429T255 461T290 496T303 539Q303 574 275 592T206 610Q177 610 145 604T67 578L33 671Q91 695 138 703T227 712Q274 712 314 701T385 669T432 616T450 546Z" />
<glyph unicode="4" glyph-name="four" horiz-adv-x="595" d="M214 242Q236 242 252 233T281 209T301 176T314 141H23V238L315 701H483V242H564V141H483V0H350V518L352 551L337 523L173 261L157 241L178 242H214Z" />
<glyph unicode="5" glyph-name="five" horiz-adv-x="537" d="M180 442L177 428L195 432Q205 433 213 433T227 433Q288 433 337 416T420 369T472 299T490 213Q490 162 469 121T409 50T319 4T207 -12Q169 -12 124 -3T20 36L53 127Q105 107 141 99T206 90Q238 90
263 100T306 128T333 168T343 215Q343 272 301 302T193 332Q167 332 134 329T54 318L79 701H460V592H191L180 442Z" />
<glyph unicode="6" glyph-name="six" horiz-adv-x="625" d="M414 608Q361 608 321 586T254 526T214 437T200 329Q200 288 206 245T228 166T270 108T337 85Q359 85 378 96T412 125T435 169T444 224Q444 284 421 312T367 340Q354 340 336 337Q319 334 305 339T279
355T259 378T244 403Q288 426 322 434T382 442Q424 442 462 428T529 387T575 318T592 224Q592 180 575 138T525 61T446 5T340 -16Q264 -16 210 11T121 86T70 195T53 327Q53 403 79 472T152 595T266 679T414 710Q439 710 473 704T544 686L512 593Q481 602 458 605T414
608Z" />
<glyph unicode="7" glyph-name="seven" horiz-adv-x="503" d="M105 0Q117 85 134 160T175 305T233 441T311 574L326 589L301 587H38V701H476V604Q435 551 399 494T334 366T283 206T250 0H105Z" />
<glyph unicode="8" glyph-name="eight" horiz-adv-x="662" d="M574 531Q574 496 554 458T499 378L479 363L496 355Q539 326 568 285T597 178Q597 132 577 97T522 37T440 0T338 -13Q282 -13 235 -1T153 36T100 96T81 178Q81 213 99 252T166 341Q179 329 191 315T213
286T225 255T225 222Q220 208 218 199T216 178Q216 136 250 112T338 88Q395 88 426 114T457 178Q457 216 431 241T366 285T281 324T196 369T131 434T105 531Q105 574 123 608T174 665T250 701T341 714Q391 714 433 702T507 666T556 608T574 531ZM245 531Q245 509
256 492T288 461T333 435T388 410Q413 439 425 467T438 520Q438 545 430 562T409 591T378 607T341 612Q300 612 273 592T245 531Z" />
<glyph unicode="9" glyph-name="nine" horiz-adv-x="624" d="M231 92Q284 92 324 114T391 174T431 263T445 371Q445 412 439 455T417 533T375 591T308 614Q286 614 267 603T233 574T210 530T201 476Q201 416 224 388T278 360Q283 360 291 360T309 363Q326 366
340 361T365 345T386 322T401 297Q357 274 323 266T263 258Q220 258 182 272T116 313T70 382T53 476Q53 519 70 562T119 639T199 695T305 716Q381 716 435 689T524 614T575 505T592 373Q592 296 566 227T493 105T379 21T231 -10Q206 -10 172 -5T101 14L133 106Q164
98 187 95T231 92Z" />
<glyph unicode=":" glyph-name="colon" horiz-adv-x="299" d="M69 67Q69 84 75 99T93 126T119 144T152 151Q187 151 210 127T234 67Q234 32 211 9T152 -15Q117 -15 93 8T69 67ZM69 426Q69 443 75 458T93 485T119 503T152 510Q187 510 210 486T234 426Q234 391
211 368T152 344Q117 344 93 367T69 426Z" />
<glyph unicode=";" glyph-name="semicolon" horiz-adv-x="299" d="M69 426Q69 443 75 458T93 485T119 503T152 510Q187 510 210 486T234 426Q234 391 211 368T152 344Q117 344 93 367T69 426ZM90 98H212V20Q212 -15 205 -45T184 -96T146 -126T90 -128V98Z" />
<glyph unicode="&lt;" glyph-name="less" horiz-adv-x="613" d="M554 131V0L37 231V321L554 552V422L207 283L181 276L207 270L554 131Z" />
<glyph unicode="=" glyph-name="equal" horiz-adv-x="606" d="M67 259H539V161H67V259ZM67 480H539V382H67V480Z" />
<glyph unicode="&gt;" glyph-name="greater" horiz-adv-x="613" d="M402 270L428 276L402 283L55 422V552L572 321V231L55 0V131L402 270Z" />
<glyph unicode="?" glyph-name="question" horiz-adv-x="583" d="M265 737Q315 737 357 726T429 695T476 644T493 574Q493 539 479 509T443 452T397 399T350 347T315 292T300 230H182Q182 275 194 310T225 374T266 425T306 470T337 513T350 559Q350 593 324 613T255
633Q241 633 227 632T198 628T164 618T121 602L85 696Q141 721 182 729T265 737ZM158 68Q158 85 164 100T182 127T208 145T241 152Q276 152 299 128T323 68Q323 33 300 10T241 -14Q206 -14 182 9T158 68Z" />
<glyph unicode="@" glyph-name="at" horiz-adv-x="919" d="M629 170L627 149L641 161Q664 176 680 196T707 239T723 284T728 328Q728 382 709 425T654 500T569 547T461 564Q397 564 344 543T253 482T194 386T173 257Q173 186 193 130T251 34T338 -27T447 -48Q469
-48 488 -47T529 -43T575 -34T630 -19L659 -96Q623 -108 595 -115T542 -126T495 -131T447 -132Q370 -132 303 -109T185 -38T105 83T75 257Q75 350 107 423T192 546T316 622T462 648Q534 648 600 627T716 566T797 465T827 328Q827 278 807 233T753 152T671 90T568
55Q557 61 552 72T541 96L539 115L529 95Q500 66 473 57T418 47Q357 47 321 77T284 158Q284 188 295 211T332 250T399 278T500 295Q499 288 496 276T487 252T470 231T444 219Q403 213 391 197T379 162Q379 142 394 130T438 118Q464 118 488 131T536 175V304Q536
350 512 369T444 389Q423 389 403 386T349 372L323 439Q364 455 395 460T458 466Q540 466 584 425T629 299V170Z" />
<glyph unicode="A" glyph-name="A" horiz-adv-x="722" d="M224 159L171 0H30L291 727H431L692 0H544L364 541L356 578L347 539L262 280L250 260L265 262H341Q363 262 379 252T407 227T427 194T441 159H224Z" />
<glyph unicode="B" glyph-name="B" horiz-adv-x="677" d="M311 428Q337 428 361 435T403 457T432 490T443 534Q443 552 436 570T413 604T372 629T311 639Q284 639 266 638T221 632V428H311ZM360 90Q414 90 448 120T483 206Q483 236 470 259T434 299T380 325T311
334H221V0H81V716Q121 723 152 727T209 735T259 739T311 740Q378 740 430 726T516 684T569 619T587 535Q587 498 564 462T504 402L475 388L503 381Q530 371 553 353T594 310T620 259T630 205Q630 166 613 128T562 59T482 9T376 -11Q362 -11 351 -11T326 -8T298
-3T260 6Q266 19 275 34T296 61T324 82T360 90Z" />
<glyph unicode="C" glyph-name="C" horiz-adv-x="602" d="M435 -12Q342 -12 270 17T149 97T74 216T48 364Q48 442 74 510T151 630T273 710T435 740Q477 740 520 732T611 706L575 614Q531 627 500 632T435 637Q375 637 331 614T258 552T215 465T200 364Q200 312
214 263T258 176T331 114T435 91Q502 91 574 125L611 34Q566 11 522 0T435 -12Z" />
<glyph unicode="D" glyph-name="D" horiz-adv-x="747" d="M363 91Q420 91 461 115T530 178T569 266T582 365Q582 424 567 474T518 560T434 616T310 637Q290 637 269 635T224 629V0H83V714Q150 728 208 734T310 740Q410 740 488 715T621 641T704 524T733 365Q733
286 706 217T632 97T520 17T378 -12Q364 -12 353 -12T328 -9T300 -4T262 5Q268 18 277 33T298 61T326 82T363 91Z" />
<glyph unicode="E" glyph-name="E" horiz-adv-x="588" d="M83 727H519V624H226V103H535V0H83V727ZM264 331Q269 347 277 365T297 398T325 422T364 432H485V331H264Z" />
<glyph unicode="F" glyph-name="F" horiz-adv-x="584" d="M83 727H519V624H226V0H83V727ZM264 331Q269 347 277 365T297 398T325 422T364 432H485V331H264Z" />
<glyph unicode="G" glyph-name="G" horiz-adv-x="724" d="M441 637Q381 637 335 615T258 555T210 467T194 363Q194 311 210 262T256 175T332 114T438 91Q460 91 481 92T534 102V337H662V37Q635 25 605 16T544 0T487 -9T438 -12Q345 -12 272 17T147 97T69 216T42
363Q42 442 70 510T150 630T275 710T441 740Q483 740 539 730T652 696L615 600Q558 622 517 629T441 637Z" />
<glyph unicode="H" glyph-name="H" horiz-adv-x="764" d="M264 330Q269 346 277 364T297 398T325 423T364 433H541V727H682V0H541V330H264ZM83 727H226V0H83V727Z" />
<glyph unicode="I" glyph-name="I" horiz-adv-x="306" d="M222 0H83V727H222V0Z" />
<glyph unicode="J" glyph-name="J" horiz-adv-x="369" d="M290 128Q290 58 275 9T230 -78T156 -150T54 -222L-10 -140Q27 -109 56 -83T106 -27T137 39T148 128V727H290V128Z" />
<glyph unicode="K" glyph-name="K" horiz-adv-x="709" d="M434 436L693 0H529L365 322L358 346L346 324L283 243Q274 276 275 311T283 379T304 443T336 497L501 727H658L434 436ZM83 0V727H226V0H83Z" />
<glyph unicode="L" glyph-name="L" horiz-adv-x="531" d="M82 727H226V104H488V0H82V727Z" />
<glyph unicode="M" glyph-name="M" horiz-adv-x="982" d="M144 727H325L484 166L491 130L499 166L657 727H839L907 0H776L737 548L734 596L722 548L564 10H417L257 549L245 596L242 549L205 0H74L144 727Z" />
<glyph unicode="N" glyph-name="N" horiz-adv-x="778" d="M230 509L214 545L216 511V0H94V727H232L539 238L553 198L551 238V727H677V0H551L230 509Z" />
<glyph unicode="O" glyph-name="O" horiz-adv-x="789" d="M405 639Q353 639 314 617T249 557T209 469T195 364Q195 312 208 263T248 175T314 113T405 89Q446 89 484 107T551 161T597 247T615 364Q615 423 601 473T559 560T493 618T405 639ZM405 -14Q318 -14 251
15T138 94T67 214T43 364Q43 442 67 511T138 631T252 712T405 742Q503 742 571 708T683 620T746 498T766 364Q766 290 742 222T673 102T560 18T405 -14Z" />
<glyph unicode="P" glyph-name="P" horiz-adv-x="643" d="M597 513Q597 463 578 424T526 356T452 310T365 289Q342 287 317 288T264 298Q270 312 277 327T295 356T319 378T350 389Q371 391 389 401T420 428T442 467T450 513Q450 539 440 561T412 601T368 628T311
638Q297 638 288 638T269 637T250 635T227 632V0H83V718Q123 725 154 729T210 736T260 740T311 741Q372 741 424 725T514 680T575 608T597 513Z" />
<glyph unicode="Q" glyph-name="Q" horiz-adv-x="781" d="M394 -14Q313 -14 249 14T138 92T68 211T43 364Q43 446 68 515T141 634T255 713T405 742Q489 742 556 714T669 636T741 516T766 364Q766 295 741 231T675 114L737 50L661 -26L414 226L490 303L570 221L583
200L589 226Q603 258 609 294T615 364Q615 419 602 469T562 557T496 617T405 639Q353 639 314 617T249 557T209 469T195 364Q195 312 208 263T246 175T309 113T394 89Q401 89 413 90T435 91Q451 91 467 86T496 72T521 53T540 34Q504 10 467 -2T394 -14Z" />
<glyph unicode="R" glyph-name="R" horiz-adv-x="684" d="M597 518Q597 458 570 414T498 343L470 332Q474 330 481 327T492 321Q522 295 539 260T568 183T593 95T628 0H481Q463 38 453 81T430 166T402 242T358 299Q337 297 314 298T264 308Q270 322 277 337T295
366T319 389T350 400Q371 402 389 411T420 436T442 473T450 518Q450 544 439 566T410 604T366 629T311 638Q297 638 288 638T269 637T250 635T227 632V0H83V718Q123 725 154 729T210 736T260 740T311 741Q370 741 422 726T513 683T574 613T597 518Z" />
<glyph unicode="S" glyph-name="S" horiz-adv-x="577" d="M289 640Q244 640 217 618T190 562Q190 528 215 503T278 456T360 411T442 358T505 287T531 188Q531 140 513 103T461 40T380 1T276 -13Q233 -13 177 -2T51 42L89 135Q143 109 190 100T276 90Q303 90 325
97T364 118T390 148T399 185Q399 221 374 247T311 295T230 340T148 390T85 457T60 550Q60 599 77 635T125 694T195 728T280 740Q303 740 324 739T369 734T418 724T476 707L439 616Q394 629 358 634T289 640Z" />
<glyph unicode="T" glyph-name="T" horiz-adv-x="534" d="M5 624V727H527V624H337V0H195V624H5Z" />
<glyph unicode="U" glyph-name="U" horiz-adv-x="727" d="M374 -14Q307 -14 253 5T162 61T104 152T83 278V727H224V263Q224 222 235 190T267 136T314 101T374 89Q406 89 433 101T481 135T512 190T524 263V727H664V278Q664 212 644 158T587 66T495 7T374 -14Z" />
<glyph unicode="V" glyph-name="V" horiz-adv-x="667" d="M263 0L8 727H160L331 175L338 137L345 174L516 727H663L410 0H263Z" />
<glyph unicode="W" glyph-name="W" horiz-adv-x="1059" d="M611 717L739 194L749 138L757 192L892 727H1028L823 0H682L540 535L531 576L523 536L381 0H237L31 727H170L305 193L313 138L324 193L454 717H611Z" />
<glyph unicode="X" glyph-name="X" horiz-adv-x="661" d="M40 727H198L321 488L331 457L339 488L462 727H619L402 368L630 0H475L40 727ZM182 0H29L227 325Q236 312 248 291T267 246T275 195T263 145L182 0Z" />
<glyph unicode="Y" glyph-name="Y" horiz-adv-x="699" d="M414 339V0H276V322L25 727H181L414 339ZM502 727H656L444 377Q434 390 423 410T404 455T396 506T408 557L502 727Z" />
<glyph unicode="Z" glyph-name="Z" horiz-adv-x="612" d="M78 727H584V668L228 115L212 100L235 103H593V0H47V59L402 612L418 629L394 626H78V727Z" />
<glyph unicode="[" glyph-name="bracketleft" horiz-adv-x="447" d="M122 771H425V667H254V-95H425V-199H122V771Z" />
<glyph unicode="\" glyph-name="backslash" horiz-adv-x="332" d="M230 -62L-13 727H108L351 -62H230Z" />
<glyph unicode="]" glyph-name="bracketright" horiz-adv-x="447" d="M343 -199H40V-95H211V667H40V771H343V-199Z" />
<glyph unicode="^" glyph-name="asciicircum" horiz-adv-x="628" d="M183 210H54L265 727H366L577 210H450L323 543L316 574L309 543L183 210Z" />
<glyph unicode="_" glyph-name="underscore" horiz-adv-x="497" d="M27 -95V0H470V-95H27Z" />
<glyph unicode="`" glyph-name="grave" horiz-adv-x="196" d="M20 727H127L193 602Q163 594 137 600T92 631L20 727Z" />
<glyph unicode="a" glyph-name="a" horiz-adv-x="542" d="M398 0Q384 8 376 21T361 50L358 70L346 53Q301 12 267 0T195 -13Q159 -13 131 -1T82 33T51 81T40 138Q40 169 53 198T97 250T182 290T314 313Q309 278 294 252T246 220Q208 214 191 195T174 151Q174 125
192 108T237 90Q266 90 295 109T350 160V311Q350 363 322 394T240 425Q215 425 187 420T123 402L89 490Q134 510 181 519T263 528Q370 528 427 473T485 311V126Q485 98 488 67T501 0H398Z" />
<glyph unicode="b" glyph-name="b" horiz-adv-x="610" d="M330 425Q313 424 301 430T280 447T263 472T248 502Q277 514 306 520T362 526Q410 526 448 504T512 447T553 367T568 277Q568 216 549 163T494 70T407 8T293 -15Q238 -15 186 -3T73 42V758H212V98Q235
92 254 90T293 88Q322 88 345 102T385 141T410 201T419 277Q419 301 415 327T400 376T372 412T330 425Z" />
<glyph unicode="c" glyph-name="c" horiz-adv-x="430" d="M296 530Q323 530 355 525T417 508L383 415Q359 421 336 424T296 427Q242 427 209 382T176 259Q176 180 209 135T296 90Q317 90 341 95T397 114L431 22Q392 4 358 -4T296 -13Q244 -13 196 2T110 51T51
135T28 259Q28 327 50 378T110 462T195 513T296 530Z" />
<glyph unicode="d" glyph-name="d" horiz-adv-x="619" d="M261 -13Q207 -13 164 7T92 65T48 152T32 262Q32 315 50 363T98 447T169 504T252 526Q278 526 302 523T366 508Q352 473 334 452T291 428Q260 426 239 413T205 379T186 327T180 262Q180 227 187 196T207
142T241 104T286 90Q341 90 402 160V758H541V126Q541 98 544 67T556 0H449Q436 7 428 20T414 47L409 70L392 48Q353 13 322 0T261 -13Z" />
<glyph unicode="e" glyph-name="e" horiz-adv-x="564" d="M388 317Q391 340 386 361T370 398T341 423T300 433Q279 433 259 424T221 396T194 346T183 272Q183 185 222 138T324 90Q359 90 392 98T470 127L505 34Q451 8 404 -2T309 -13Q240 -13 191 12T109 76T61
166T45 267Q45 329 65 378T121 460T205 512T307 530Q362 530 408 508T482 447T516 354T501 235H221Q232 270 252 293T299 317H388Z" />
<glyph unicode="f" glyph-name="f" horiz-adv-x="437" d="M105 418H22V497L105 517V545Q105 594 120 634T164 703T233 747T324 763Q349 763 383 757T457 733L426 644Q397 652 377 656T339 660Q290 660 264 629T237 545V0H105V418ZM415 517V418H271Q276 434 284
452T304 484T332 507T371 517H415Z" />
<glyph unicode="g" glyph-name="g" horiz-adv-x="591" d="M190 240Q190 216 194 190T207 143T233 108T276 95Q306 96 323 76T357 26Q329 11 300 1T244 -9Q196 -9 159 13T95 70T55 150T41 240Q41 300 60 352T115 444T203 506T323 529Q344 529 365 528T410 524T463
514T529 499V0Q529 -69 508 -116T451 -193T367 -236T264 -250Q225 -250 175 -242T66 -208L101 -115Q152 -135 188 -142T256 -150Q284 -150 308 -141T352 -115T382 -72T393 -11V418Q373 423 357 424T329 426Q295 426 269 413T226 375T199 316T190 240Z" />
<glyph unicode="h" glyph-name="h" horiz-adv-x="608" d="M73 0V758H212V0H73ZM396 367Q396 392 386 408T352 424Q343 424 337 422T318 419Q307 418 297 423T279 438T263 460T248 486Q297 514 332 522T396 530Q422 530 447 520T491 490T523 440T535 369V0H396V367Z" />
<glyph unicode="i" glyph-name="i" horiz-adv-x="280" d="M70 0V517H210V0H70ZM58 667Q58 702 81 726T140 751Q175 751 198 727T222 667Q222 632 199 609T140 585Q105 585 82 608T58 667Z" />
<glyph unicode="j" glyph-name="j" horiz-adv-x="295" d="M222 48Q222 1 213 -37T181 -109T120 -177T24 -249L-35 -176Q2 -144 25 -119T61 -69T78 -17T83 48V517H222V48ZM71 667Q71 702 94 726T153 751Q188 751 212 727T236 667Q236 632 212 609T153 585Q118 585
95 608T71 667Z" />
<glyph unicode="k" glyph-name="k" horiz-adv-x="624" d="M212 0H73V758H212V0ZM407 338L606 0H452L334 233L327 257L313 237L259 180Q248 249 268 306T324 408L414 517H575L407 338Z" />
<glyph unicode="l" glyph-name="l" horiz-adv-x="282" d="M214 0H75V758H214V0Z" />
<glyph unicode="m" glyph-name="m" horiz-adv-x="930" d="M176 517Q200 490 207 464T215 407V0H75V391Q75 419 72 450T60 517H176ZM394 367Q394 392 385 408T350 424Q341 424 332 422T311 419Q299 418 289 423T269 439T252 461T237 488Q291 510 327 520T399 530Q425
530 449 520T492 490T522 440T534 369V0H394V367ZM713 367Q713 392 702 408T663 424Q654 424 644 422T620 418Q608 417 597 422T577 438T559 460T544 487Q599 510 637 520T710 530Q736 530 761 520T807 490T839 440T852 369V0H713V367Z" />
<glyph unicode="n" glyph-name="n" horiz-adv-x="578" d="M153 517Q177 490 185 464T193 407V0H53V391Q53 449 37 517H153ZM376 367Q376 392 366 408T330 424Q320 424 311 422T288 418Q276 417 266 423T248 438T232 460T217 484Q267 510 304 520T376 530Q402 530
427 520T471 490T503 440T515 369V0H376V367Z" />
<glyph unicode="o" glyph-name="o" horiz-adv-x="610" d="M570 259Q570 195 547 145T486 59T400 6T302 -13Q249 -13 201 5T115 57T56 143T34 259Q34 329 59 380T124 465T211 514T302 530Q362 530 411 510T495 454T550 369T570 259ZM302 89Q331 89 353 102T391
139T413 193T421 259Q421 294 414 324T391 378T354 414T302 428Q273 428 251 415T213 378T190 325T182 259Q182 221 190 190T214 137T252 102T302 89Z" />
<glyph unicode="p" glyph-name="p" horiz-adv-x="621" d="M353 530Q407 530 449 509T521 452T566 365T582 255Q582 202 564 154T516 70T445 13T362 -9Q336 -9 312 -6T248 9Q262 44 279 65T322 89Q384 93 409 138T434 255Q434 290 427 321T406 375T373 413T328
427Q272 427 212 357V-241H73V391Q73 419 70 450T58 517H165Q178 509 187 495T202 466L205 446L220 466Q260 503 291 516T353 530Z" />
<glyph unicode="q" glyph-name="q" horiz-adv-x="605" d="M281 95Q311 96 328 75T363 26Q334 11 305 1T249 -9Q201 -9 164 13T100 70T60 150T46 240Q46 300 65 352T120 444T209 506T329 529Q350 529 370 528T415 524T468 514T535 499V-241H399V418Q379 423 362
424T334 426Q300 426 274 413T231 375T204 316T195 240Q195 216 199 190T212 143T238 108T281 95Z" />
<glyph unicode="r" glyph-name="r" horiz-adv-x="391" d="M156 517Q164 510 173 490T187 443L189 419L199 443Q219 483 251 505T316 527Q345 527 381 515L365 402Q345 408 332 410T306 412Q280 412 260 399T226 364T205 310T197 241V0H66V391Q66 419 63 450T50 517H156Z" />
<glyph unicode="s" glyph-name="s" horiz-adv-x="436" d="M62 125Q109 107 145 100T213 93Q250 93 267 108T284 143Q284 165 266 180T221 208T163 234T105 265T60 310T42 377Q42 401 51 427T83 475T140 511T227 526Q261 526 296 521T380 500L348 410Q309 420 285
423T236 427Q207 427 191 416T174 383Q174 362 192 347T237 319T295 292T353 259T398 214T416 148Q416 112 401 83T361 33T304 1T236 -10Q197 -10 147 -3T30 32L62 125Z" />
<glyph unicode="t" glyph-name="t" horiz-adv-x="455" d="M104 418H21V497L104 517V640L236 683V198Q236 147 257 119T314 90Q328 90 346 93T391 105L420 14Q382 1 354 -6T300 -13Q204 -13 154 41T104 198V418ZM370 418Q348 418 332 427T303 451T283 482T270 517H415V418H370Z"
/>
<glyph unicode="u" glyph-name="u" horiz-adv-x="613" d="M427 0Q404 27 396 53T388 110V517H528V126Q528 68 544 0H427ZM205 150Q205 125 215 109T251 93Q261 93 270 95T293 99Q305 100 314 94T333 79T349 57T364 33Q314 7 277 -3T205 -13Q179 -13 154 -3T110
27T78 77T66 148V517H205V150Z" />
<glyph unicode="v" glyph-name="v" horiz-adv-x="547" d="M200 0L6 517H153L269 151L276 121L283 151L398 517H543L349 0H200Z" />
<glyph unicode="w" glyph-name="w" horiz-adv-x="872" d="M534 0L351 517H499L603 151L610 121L617 151L720 517H865L683 0H534ZM348 0H202L20 517H167L271 151L278 121L285 151L359 347Q371 325 381 294T397 228T401 156T385 87L348 0Z" />
<glyph unicode="x" glyph-name="x" horiz-adv-x="514" d="M11 517H170L248 372L254 351L262 372L341 517H493L322 256L503 0H347Q309 63 269 125T186 250L11 517ZM153 0H2L156 220Q166 208 176 191T193 154T200 111T190 68L153 0Z" />
<glyph unicode="y" glyph-name="y" horiz-adv-x="600" d="M127 -146Q153 -146 172 -134T206 -99T233 -42T261 37L409 517H552L369 11Q344 -54 322 -102T274 -183T213 -231T127 -248Q107 -247 84 -244T36 -229L68 -139Q85 -144 99 -145T127 -146ZM235 281Q245 248
246 210T241 136T225 67T201 13L15 517H165L235 281Z" />
<glyph unicode="z" glyph-name="z" horiz-adv-x="474" d="M57 517H433V458L206 112L191 95L213 98H435V0H30V59L259 407L274 424L253 421H57V517Z" />
<glyph unicode="{" glyph-name="braceleft" horiz-adv-x="403" d="M162 425Q166 488 177 538T209 628T261 702T339 767L405 702Q373 674 352 647T316 589T295 522T284 439Q281 397 261 366T209 314L185 303L208 293Q240 272 260 241T284 168Q287 118 294 79T316
8T351 -53T405 -110L339 -176Q292 -144 260 -109T207 -30T175 66T160 187Q157 222 129 242T63 270V342Q101 349 130 369T162 425Z" />
<glyph unicode="|" glyph-name="bar" horiz-adv-x="317" d="M115 -293V811H241V-293H115Z" />
<glyph unicode="}" glyph-name="braceright" horiz-adv-x="428" d="M319 425Q322 390 351 370T418 342V270Q380 263 352 243T321 187Q317 119 306 66T275 -30T222 -108T142 -176L76 -110Q108 -82 129 -54T165 7T186 79T197 168Q200 210 220 240T272 292L297 303L271
314Q239 335 220 366T197 439Q194 485 187 521T165 589T129 647T76 702L142 767Q188 736 219 703T271 629T303 538T319 425Z" />
<glyph unicode="~" glyph-name="asciitilde" horiz-adv-x="614" d="M63 236Q64 274 78 304T113 354T162 385T219 396Q254 396 280 385T329 360T369 335T405 324Q425 324 437 341T454 385L569 377Q567 334 552 304T516 255T469 226T421 217Q381 217 355 228T308
252T272 277T236 289Q219 289 202 276T181 228L63 236Z" />
<glyph unicode="&#xa1;" glyph-name="exclamdown" horiz-adv-x="351" d="M47 -210L66 287H166L187 -210H47ZM32 449Q32 484 56 507T115 531Q150 531 173 508T197 449Q197 414 174 390T115 365Q97 365 82 371T56 389T39 416T32 449Z" />
<glyph unicode="&#xa2;" glyph-name="cent" horiz-adv-x="427" d="M327 624Q349 622 372 617T417 604L383 511Q359 517 336 520T296 523Q242 523 209 478T176 355Q176 276 209 231T296 186Q317 186 341 191T397 210L431 118Q402 104 376 97T327 85V-14H229V89Q187
98 151 118T87 170T44 249T28 355Q28 412 44 456T87 534T150 588T229 618V716H327V624Z" />
<glyph unicode="&#xa3;" glyph-name="sterling" horiz-adv-x="513" d="M279 197Q274 175 267 161T249 130L231 110L253 112H483V0H34V76Q88 103 122 145T157 242Q157 257 157 271T154 305H55V402H138Q134 425 132 452T129 512Q129 563 146 600T195 662T270 699T365
712Q400 712 439 704T525 675L490 580Q452 596 419 602T365 608Q316 608 289 584T262 511Q262 466 267 425T278 346T284 271T279 197ZM402 305Q379 305 364 314T337 337T319 369T307 402H468V305H402Z" />
<glyph unicode="&#xa4;" glyph-name="currency" horiz-adv-x="513" d="M358 340Q358 366 350 389T328 431T295 459T255 470Q235 470 216 461T183 434T161 393T152 340Q152 311 160 287T183 246T216 220T255 210Q276 210 295 220T328 249T350 290T358 340ZM444
341Q444 305 435 274T414 226L493 153L443 100L366 171Q349 157 320 147T256 136Q223 136 196 146T149 170L75 99L21 155L99 226Q86 243 76 272T65 341Q65 379 75 408T99 454L21 525L75 581L149 510Q169 524 196 534T256 544Q291 544 320 534T366 509L443 580L493
527L414 454Q426 437 435 407T444 341Z" />
<glyph unicode="&#xa5;" glyph-name="yen" horiz-adv-x="660" d="M393 339V319H536V252H393V195H536V128H393V0H255V128H111V195H255V252H111V319H255V322L4 727H160L393 339ZM481 727H635L423 377Q413 390 402 410T383 455T375 506T387 557L481 727Z" />
<glyph unicode="&#xa6;" glyph-name="brokenbar" horiz-adv-x="254" d="M68 387V811H194V387H68ZM68 -293V141H194V-293H68Z" />
<glyph unicode="&#xa7;" glyph-name="section" horiz-adv-x="500" d="M472 325Q472 293 456 268T411 224L388 214L408 203Q432 183 447 157T463 94Q463 61 446 35T401 -11T334 -40T252 -51Q235 -51 210 -49T155 -43T95 -30T37 -9L72 75Q117 58 160 49T240 40Q283
40 313 52T343 93Q343 120 321 137T266 169T193 198T121 232T65 280T43 352Q43 381 62 407T111 454L132 463L112 473Q85 493 69 520T52 585Q52 613 67 638T108 681T170 709T250 720Q284 720 324 715T416 694L381 610Q343 621 315 625T262 629Q219 629 196 618T172
586Q172 559 194 541T249 509T322 480T394 446T450 397T472 325ZM356 330Q356 346 344 358T310 380T263 401T208 422Q182 406 171 392T159 357Q159 339 172 326T207 301T256 279T313 256Q356 289 356 330Z" />
<glyph unicode="&#xa8;" glyph-name="dieresis" horiz-adv-x="528" d="M107 670Q107 696 125 714T170 733Q196 733 215 715T234 670Q234 644 215 626T170 607Q144 607 126 625T107 670ZM302 670Q302 696 320 714T365 733Q391 733 410 715T429 670Q429 644 410
626T365 607Q339 607 321 625T302 670Z" />
<glyph unicode="&#xa9;" glyph-name="copyright" horiz-adv-x="720" d="M357 690Q431 690 492 665T597 596T665 491T689 357Q689 289 664 228T595 121T490 48T357 21Q282 21 221 46T115 115T47 221T22 357Q22 424 47 484T116 590T222 663T357 690ZM357 613Q306
613 262 595T185 543T133 462T114 354Q114 295 133 248T184 168T261 117T357 99Q407 99 450 117T526 168T578 249T597 357Q597 415 578 462T527 543T451 595T357 613ZM377 176Q341 176 309 188T254 223T218 279T204 357Q204 400 217 434T254 490T309 525T377 537Q416
537 460 523L438 459Q420 465 406 467T377 470Q339 470 316 438T292 357Q292 308 315 275T377 242Q391 242 408 245T448 259L469 199Q441 185 417 181T377 176Z" />
<glyph unicode="&#xaa;" glyph-name="ordfeminine" horiz-adv-x="527" d="M344 422Q344 380 347 351T355 302H285Q277 310 272 318T262 338L261 350L253 338Q234 318 208 307T151 295Q102 295 69 320T35 394Q35 443 78 472T230 514Q229 508 226 498T218 478T203
459T180 448Q151 443 139 430T127 399Q127 382 138 370T170 358Q193 358 215 368T255 401V527Q255 569 232 586T172 603Q153 603 133 600T90 588L70 647Q104 662 133 666T185 671Q264 671 304 632T344 522V422Z" />
<glyph unicode="&#xab;" glyph-name="guillemotleft" horiz-adv-x="613" d="M48 258L281 472L336 418L210 258L336 98L281 45L48 258ZM322 258L555 472L610 418L484 258L610 98L555 45L322 258Z" />
<glyph unicode="&#xac;" glyph-name="logicalnot" horiz-adv-x="591" d="M546 455V156H439V357H43V455H546Z" />
<glyph unicode="&#xad;" glyph-name="uni00AD" horiz-adv-x="375" d="M45 255V353H347V255H45Z" />
<glyph unicode="&#xae;" glyph-name="registered" horiz-adv-x="720" d="M357 690Q431 690 492 665T597 596T665 491T689 357Q689 289 664 228T595 121T490 48T357 21Q282 21 221 46T115 115T47 221T22 357Q22 424 47 484T116 590T222 663T357 690ZM357 613Q306
613 262 595T185 543T133 462T114 354Q114 295 133 248T184 168T261 117T357 99Q407 99 450 117T526 168T578 249T597 357Q597 415 578 462T527 543T451 595T357 613ZM498 431Q498 404 486 382T450 347L428 343L447 333Q461 322 468 307T481 272T493 232T509 189H423Q414
209 410 230T401 270T387 303T360 325H336Q340 345 350 362T382 385Q399 390 406 402T413 431Q413 472 354 472Q345 472 341 472T323 469V189H241V521Q270 528 299 532T354 536Q418 536 458 508T498 431Z" />
<glyph unicode="&#xaf;" glyph-name="overscore" horiz-adv-x="500" d="M110 603V687H412V603H110Z" />
<glyph unicode="&#xb0;" glyph-name="degree" horiz-adv-x="337" d="M104 623Q104 585 125 566T175 546Q204 546 225 565T247 623Q247 661 226 681T175 701Q146 701 125 681T104 623ZM19 623Q19 656 32 683T66 731T116 762T175 773Q205 773 233 763T283 733T318
685T331 623Q331 590 318 563T284 515T234 484T175 473Q145 473 117 483T67 513T32 560T19 623Z" />
<glyph unicode="&#xb1;" glyph-name="plusminus" horiz-adv-x="568" d="M47 383H227V526H333V383H515V287H333V142H227V287H47V383ZM47 0V98H515V0H47Z" />
<glyph unicode="&#xb2;" glyph-name="twosuperior" horiz-adv-x="402" d="M337 628Q337 592 321 562T282 503T233 448T187 392L178 382L191 384H334V310H69V355Q95 401 126 438T185 506T230 565T248 621Q248 643 231 655T185 667Q168 667 151 663T118 652L90 711Q117
725 147 730T201 736Q260 736 298 708T337 628Z" />
<glyph unicode="&#xb3;" glyph-name="threesuperior" horiz-adv-x="381" d="M307 638Q307 606 286 581T230 540Q247 536 263 527T292 503T313 471T321 430Q321 400 309 376T274 336T222 310T158 301Q127 301 99 310T55 329L77 390Q95 382 116 377T157 371Q191
371 211 389T231 433Q231 465 207 482T132 499L125 555L157 568Q184 579 200 593T217 631Q217 643 205 654T170 665Q138 665 96 651L71 710Q100 724 125 729T176 735Q231 735 269 712T307 638Z" />
<glyph unicode="&#xb4;" glyph-name="acute" horiz-adv-x="322" d="M199 645Q184 627 165 617T125 603T85 598T53 602L139 740H278L199 645Z" />
<glyph unicode="&#xb5;" glyph-name="mu" horiz-adv-x="553" d="M390 52Q368 21 339 6T265 -10Q248 -10 228 -4T191 14L177 31L178 7V-211H56V517H184V210Q184 150 209 119T274 88Q321 88 350 119T379 199V517H508V164Q508 122 520 105T563 90L575 5Q558 -2 536
-5T503 -8Q477 -8 448 6T404 53L399 71L390 52Z" />
<glyph unicode="&#xb6;" glyph-name="paragraph" horiz-adv-x="609" d="M325 304Q323 305 323 305Q278 309 238 325T169 370T122 436T104 520Q104 563 120 603T168 673T246 722T353 740Q380 740 404 739T451 736T498 730T551 720V-30H478V658Q455 662 436 663T398
666V-30H325V304Z" />
<glyph unicode="&#xb7;" glyph-name="middot" horiz-adv-x="306" d="M69 304Q69 321 75 336T93 363T119 381T152 388Q187 388 210 364T234 304Q234 269 211 246T152 222Q117 222 93 245T69 304Z" />
<glyph unicode="&#xb8;" glyph-name="cedilla" horiz-adv-x="500" d="M291 3L280 -43Q310 -50 335 -70T361 -123Q361 -146 350 -162T320 -190T280 -207T234 -213Q199 -213 153 -193L171 -138Q190 -145 204 -147T234 -150Q251 -150 262 -144T274 -126Q274 -111
255 -103T200 -91L223 -3L291 3Z" />
<glyph unicode="&#xb9;" glyph-name="onesuperior" horiz-adv-x="319" d="M167 309V614L111 587L76 651L218 727H266V309H167Z" />
<glyph unicode="&#xba;" glyph-name="ordmasculine" horiz-adv-x="430" d="M214 671Q258 671 291 657T347 618T381 559T393 483Q393 445 382 411T349 351T294 310T214 294Q132 294 84 343T35 483Q35 522 46 556T81 615T137 656T214 671ZM214 364Q258 364 279 397T301
483Q301 536 279 569T214 602Q173 602 151 569T128 483Q128 459 133 438T148 400T175 374T214 364Z" />
<glyph unicode="&#xbb;" glyph-name="guillemotright" horiz-adv-x="613" d="M370 45L315 98L441 258L315 418L370 472L603 258L370 45ZM97 45L42 98L168 258L42 418L97 472L330 258L97 45Z" />
<glyph unicode="&#xbc;" glyph-name="onequarter" horiz-adv-x="698" d="M66 0L502 727H610L174 0H66ZM525 423H618V151H666V82H618V0H534V304L430 151H450Q462 151 471 145T488 128T500 106T509 82H338V143L525 423ZM107 309V614L51 587L16 651L158 727H206V309H107Z" />
<glyph unicode="&#xbd;" glyph-name="onehalf" horiz-adv-x="763" d="M66 0L502 727H610L174 0H66ZM107 309V614L51 587L16 651L158 727H206V309H107ZM690 318Q690 282 674 252T635 195T587 140T541 84L531 72L548 74H687V0H422V45Q448 91 479 128T538 196T583
255T601 311Q601 333 584 345T538 357Q521 357 504 353T471 342L443 401Q470 415 500 420T554 426Q613 426 651 398T690 318Z" />
<glyph unicode="&#xbe;" glyph-name="threequarters" horiz-adv-x="716" d="M102 0L538 727H646L210 0H102ZM561 423H654V151H702V82H654V0H570V304L466 151H486Q498 151 507 145T524 128T536 106T545 82H374V143L561 423ZM277 638Q277 606 256 581T200 540Q217
536 233 527T262 503T283 471T291 430Q291 400 279 376T244 336T192 310T128 301Q97 301 69 310T25 329L47 390Q65 382 86 377T127 371Q161 371 181 389T201 433Q201 465 177 482T102 499L95 555L127 568Q154 579 170 593T187 631Q187 643 175 654T140 665Q108
665 66 651L41 710Q70 724 95 729T146 735Q201 735 239 712T277 638Z" />
<glyph unicode="&#xbf;" glyph-name="questiondown" horiz-adv-x="583" d="M315 -221Q265 -221 223 -210T151 -179T104 -128T87 -58Q87 -23 101 7T137 64T183 117T230 169T265 224T280 286H398Q398 240 386 205T355 142T314 91T274 46T243 3T230 -43Q230 -77 256
-97T325 -117Q353 -117 382 -112T459 -86L495 -180Q439 -205 398 -213T315 -221ZM422 448Q422 431 416 416T398 389T372 371T339 364Q304 364 281 388T257 448Q257 483 280 506T339 530Q374 530 398 507T422 448Z" />
<glyph unicode="&#xc0;" glyph-name="Agrave" horiz-adv-x="687" d="M210 890H343L417 765Q404 762 385 762T344 765T304 780T271 808L210 890ZM208 159L155 0H14L275 727H415L676 0H528L348 541L340 578L331 539L246 280L234 260L249 262H325Q347 262 363 252T391
227T411 194T425 159H208Z" />
<glyph unicode="&#xc1;" glyph-name="Aacute" horiz-adv-x="687" d="M426 808Q411 791 391 781T351 767T311 762T279 765L365 890H498L426 808ZM206 159L153 0H12L273 727H413L674 0H526L346 541L338 578L329 539L244 280L232 260L247 262H323Q345 262 361 252T389
227T409 194T423 159H206Z" />
<glyph unicode="&#xc2;" glyph-name="Acircumflex" horiz-adv-x="687" d="M392 890L499 774L418 756L340 812L264 756L184 774L289 890H392ZM208 159L155 0H14L275 727H415L676 0H528L348 541L340 578L331 539L246 280L234 260L249 262H325Q347 262 363 252T391
227T411 194T425 159H208Z" />
<glyph unicode="&#xc3;" glyph-name="Atilde" horiz-adv-x="687" d="M188 783Q189 811 197 833T220 870T251 893T287 901Q309 901 326 893T357 875T382 857T405 848Q418 848 426 860T436 893L509 887Q507 855 498 833T475 797T445 776T415 769Q390 769 373 777T344
795T321 813T298 822Q287 822 276 813T263 777L188 783ZM208 159L155 0H14L275 727H415L676 0H528L348 541L340 578L331 539L246 280L234 260L249 262H325Q347 262 363 252T391 227T411 194T425 159H208Z" />
<glyph unicode="&#xc4;" glyph-name="Adieresis" horiz-adv-x="687" d="M182 840Q182 866 200 884T245 903Q271 903 290 885T309 840Q309 814 290 796T245 777Q219 777 201 795T182 840ZM377 840Q377 866 395 884T440 903Q466 903 485 885T504 840Q504 814 485
796T440 777Q414 777 396 795T377 840ZM208 159L155 0H14L275 727H415L676 0H528L348 541L340 578L331 539L246 280L234 260L249 262H325Q347 262 363 252T391 227T411 194T425 159H208Z" />
<glyph unicode="&#xc5;" glyph-name="Aring" horiz-adv-x="687" d="M209 159L156 0H15L275 725Q237 752 237 797Q237 818 245 836T269 867T304 887T348 895Q396 895 426 869T456 798Q456 775 446 756T417 724L677 0H529L348 546L341 574L334 545L247 280L235 260L248
262H326Q348 262 364 252T392 227T412 194T426 159H209ZM347 760Q365 760 374 771T384 799Q384 816 375 827T347 839Q330 839 321 828T312 798Q312 784 321 772T347 760Z" />
<glyph unicode="&#xc6;" glyph-name="AE" horiz-adv-x="975" d="M218 159L141 0H0L372 727H844V624H546L624 103H915V0H506L423 552L420 589L406 554L274 280L259 260L279 262H346Q368 262 384 252T412 227T432 194T446 159H218ZM626 331Q632 349 640 367T662
400T695 423T740 432H854V331H626Z" />
<glyph unicode="&#xc7;" glyph-name="Ccedilla" horiz-adv-x="652" d="M435 -12Q427 -12 420 -12T405 -11L398 -43Q428 -50 453 -70T479 -123Q479 -146 468 -162T438 -190T398 -207T352 -213Q317 -213 271 -193L289 -138Q308 -145 322 -147T352 -150Q369 -150
380 -144T392 -126Q392 -111 373 -103T318 -91L341 -3Q270 10 216 43T124 125T68 234T48 364Q48 442 74 510T151 630T273 710T435 740Q477 740 520 732T611 706L575 614Q531 627 500 632T435 637Q375 637 331 614T258 552T215 465T200 364Q200 312 214 263T258
176T331 114T435 91Q502 91 574 125L611 34Q566 11 522 0T435 -12Z" />
<glyph unicode="&#xc8;" glyph-name="Egrave" horiz-adv-x="577" d="M67 727H503V624H210V103H519V0H67V727ZM248 331Q253 347 261 365T281 398T309 422T348 432H469V331H248ZM168 890H301L375 765Q362 762 343 762T302 765T262 780T229 808L168 890Z" />
<glyph unicode="&#xc9;" glyph-name="Eacute" horiz-adv-x="577" d="M67 727H503V624H210V103H519V0H67V727ZM248 331Q253 347 261 365T281 398T309 422T348 432H469V331H248ZM381 808Q366 791 346 781T306 767T266 762T234 765L320 890H453L381 808Z" />
<glyph unicode="&#xca;" glyph-name="Ecircumflex" horiz-adv-x="577" d="M67 727H503V624H210V103H519V0H67V727ZM248 331Q253 347 261 365T281 398T309 422T348 432H469V331H248ZM354 890L461 774L380 756L302 812L226 756L146 774L251 890H354Z" />
<glyph unicode="&#xcb;" glyph-name="Edieresis" horiz-adv-x="577" d="M67 727H503V624H210V103H519V0H67V727ZM248 331Q253 347 261 365T281 398T309 422T348 432H469V331H248ZM139 840Q139 866 157 884T202 903Q228 903 247 885T266 840Q266 814 247 796T202
777Q176 777 158 795T139 840ZM334 840Q334 866 352 884T397 903Q423 903 442 885T461 840Q461 814 442 796T397 777Q371 777 353 795T334 840Z" />
<glyph unicode="&#xcc;" glyph-name="Igrave" horiz-adv-x="279" d="M212 0H73V727H212V0ZM6 890H139L213 765Q200 762 181 762T140 765T100 780T67 808L6 890Z" />
<glyph unicode="&#xcd;" glyph-name="Iacute" horiz-adv-x="321" d="M204 0H65V727H204V0ZM215 808Q200 791 180 781T140 767T100 762T68 765L154 890H287L215 808Z" />
<glyph unicode="&#xce;" glyph-name="Icircumflex" horiz-adv-x="321" d="M229 0H90V727H229V0ZM211 890L318 774L237 756L159 812L83 756L3 774L108 890H211Z" />
<glyph unicode="&#xcf;" glyph-name="Idieresis" horiz-adv-x="350" d="M243 0H104V727H243V0ZM12 840Q12 866 30 884T75 903Q101 903 120 885T139 840Q139 814 120 796T75 777Q49 777 31 795T12 840ZM207 840Q207 866 225 884T270 903Q296 903 315 885T334 840Q334
814 315 796T270 777Q244 777 226 795T207 840Z" />
<glyph unicode="&#xd0;" glyph-name="Eth" horiz-adv-x="713" d="M347 91Q404 91 445 115T514 178T553 266T566 365Q566 424 551 474T502 560T418 616T294 637Q274 637 253 635T208 629V401H411V310H208V0H67V310H-12V401H67V714Q134 728 192 734T294 740Q394
740 472 715T605 641T688 524T717 365Q717 286 690 217T616 97T504 17T362 -12Q348 -12 337 -12T312 -9T284 -4T246 5Q252 18 261 33T282 61T310 82T347 91Z" />
<glyph unicode="&#xd1;" glyph-name="Ntilde" horiz-adv-x="749" d="M218 511L204 545L206 511V0H84V727H222L531 236L543 203L541 238V727H667V0H541L218 511ZM217 783Q218 811 226 833T249 870T280 893T316 901Q338 901 355 893T386 875T411 857T434 848Q447
848 455 860T465 893L538 887Q536 855 527 833T504 797T474 776T444 769Q419 769 402 777T373 795T350 813T327 822Q316 822 305 813T292 777L217 783Z" />
<glyph unicode="&#xd2;" glyph-name="Ograve" horiz-adv-x="791" d="M383 89Q435 89 474 112T539 174T579 262T593 364Q593 419 580 469T540 557T474 617T383 639Q331 639 292 617T227 557T187 469T173 364Q173 312 186 263T226 175T292 113T383 89ZM383 -14Q298
-14 231 14T118 92T46 211T21 364Q21 446 46 515T119 634T233 713T383 742Q467 742 534 714T647 636T719 516T744 364Q744 282 717 213T642 93T528 15T383 -14ZM217 890H350L424 765Q411 762 392 762T351 765T311 780T278 808L217 890Z" />
<glyph unicode="&#xd3;" glyph-name="Oacute" horiz-adv-x="791" d="M381 89Q433 89 472 112T537 174T577 262T591 364Q591 419 578 469T538 557T472 617T381 639Q329 639 290 617T225 557T185 469T171 364Q171 312 184 263T224 175T290 113T381 89ZM381 -14Q296
-14 229 14T116 92T44 211T19 364Q19 446 44 515T117 634T231 713T381 742Q465 742 532 714T645 636T717 516T742 364Q742 282 715 213T640 93T526 15T381 -14ZM477 808Q462 791 442 781T402 767T362 762T330 765L416 890H549L477 808Z" />
<glyph unicode="&#xd4;" glyph-name="Ocircumflex" horiz-adv-x="791" d="M381 89Q433 89 472 112T537 174T577 262T591 364Q591 419 578 469T538 557T472 617T381 639Q329 639 290 617T225 557T185 469T171 364Q171 312 184 263T224 175T290 113T381 89ZM381
-14Q296 -14 229 14T116 92T44 211T19 364Q19 446 44 515T117 634T231 713T381 742Q465 742 532 714T645 636T717 516T742 364Q742 282 715 213T640 93T526 15T381 -14ZM435 890L542 774L461 756L383 812L307 756L227 774L332 890H435Z" />
<glyph unicode="&#xd5;" glyph-name="Otilde" horiz-adv-x="791" d="M382 89Q434 89 473 112T538 174T578 262T592 364Q592 419 579 469T539 557T473 617T382 639Q330 639 291 617T226 557T186 469T172 364Q172 312 185 263T225 175T291 113T382 89ZM382 -14Q297
-14 230 14T117 92T45 211T20 364Q20 446 45 515T118 634T232 713T382 742Q466 742 533 714T646 636T718 516T743 364Q743 282 716 213T641 93T527 15T382 -14ZM226 783Q227 811 235 833T258 870T289 893T325 901Q347 901 364 893T395 875T420 857T443 848Q456
848 464 860T474 893L547 887Q545 855 536 833T513 797T483 776T453 769Q428 769 411 777T382 795T359 813T336 822Q325 822 314 813T301 777L226 783Z" />
<glyph unicode="&#xd6;" glyph-name="Odieresis" horiz-adv-x="791" d="M382 89Q434 89 473 112T538 174T578 262T592 364Q592 419 579 469T539 557T473 617T382 639Q330 639 291 617T226 557T186 469T172 364Q172 312 185 263T225 175T291 113T382 89ZM382 -14Q297
-14 230 14T117 92T45 211T20 364Q20 446 45 515T118 634T232 713T382 742Q466 742 533 714T646 636T718 516T743 364Q743 282 716 213T641 93T527 15T382 -14ZM223 840Q223 866 241 884T286 903Q312 903 331 885T350 840Q350 814 331 796T286 777Q260 777 242
795T223 840ZM418 840Q418 866 436 884T481 903Q507 903 526 885T545 840Q545 814 526 796T481 777Q455 777 437 795T418 840Z" />
<glyph unicode="&#xd7;" glyph-name="multiply" horiz-adv-x="568" d="M39 139L205 306L39 471L115 546L281 381L445 546L520 471L356 306L522 139L447 64L281 230L114 64L39 139Z" />
<glyph unicode="&#xd8;" glyph-name="Oslash" horiz-adv-x="791" d="M616 665Q677 614 710 537T743 364Q743 282 716 213T641 93T527 15T382 -14Q341 -14 305 -8T237 11L196 -60H77L149 62Q86 113 53 190T20 364Q20 446 45 515T118 634T232 713T382 742Q462 742
526 716L570 789H689L616 665ZM382 89Q434 89 473 112T538 174T578 262T592 364Q592 416 581 462T546 546L308 144Q297 159 286 176T269 212T263 251T275 294L469 619Q431 639 382 639Q330 639 291 617T226 557T186 469T172 364Q172 312 185 263T225 175T291 113T382
89Z" />
<glyph unicode="&#xd9;" glyph-name="Ugrave" horiz-adv-x="694" d="M348 -14Q281 -14 227 5T136 61T78 152T57 278V727H198V263Q198 222 209 190T241 136T288 101T348 89Q380 89 407 101T455 135T486 190T498 263V727H638V278Q638 212 618 158T561 66T469 7T348
-14ZM200 890H333L407 765Q394 762 375 762T334 765T294 780T261 808L200 890Z" />
<glyph unicode="&#xda;" glyph-name="Uacute" horiz-adv-x="694" d="M347 -14Q280 -14 226 5T135 61T77 152T56 278V727H197V263Q197 222 208 190T240 136T287 101T347 89Q379 89 406 101T454 135T485 190T497 263V727H637V278Q637 212 617 158T560 66T468 7T347
-14ZM437 808Q422 791 402 781T362 767T322 762T290 765L376 890H509L437 808Z" />
<glyph unicode="&#xdb;" glyph-name="Ucircumflex" horiz-adv-x="694" d="M347 -14Q280 -14 226 5T135 61T77 152T56 278V727H197V263Q197 222 208 190T240 136T287 101T347 89Q379 89 406 101T454 135T485 190T497 263V727H637V278Q637 212 617 158T560 66T468
7T347 -14ZM398 890L505 774L424 756L346 812L270 756L190 774L295 890H398Z" />
<glyph unicode="&#xdc;" glyph-name="Udieresis" horiz-adv-x="694" d="M346 -14Q279 -14 225 5T134 61T76 152T55 278V727H196V263Q196 222 207 190T239 136T286 101T346 89Q378 89 405 101T453 135T484 190T496 263V727H636V278Q636 212 616 158T559 66T467
7T346 -14ZM187 840Q187 866 205 884T250 903Q276 903 295 885T314 840Q314 814 295 796T250 777Q224 777 206 795T187 840ZM382 840Q382 866 400 884T445 903Q471 903 490 885T509 840Q509 814 490 796T445 777Q419 777 401 795T382 840Z" />
<glyph unicode="&#xdd;" glyph-name="Yacute" horiz-adv-x="660" d="M394 339V0H256V322L5 727H161L394 339ZM482 727H636L424 377Q414 390 403 410T384 455T376 506T388 557L482 727ZM433 808Q418 791 398 781T358 767T318 762T286 765L372 890H505L433 808Z" />
<glyph unicode="&#xde;" glyph-name="Thorn" horiz-adv-x="609" d="M577 364Q577 312 558 272T506 202T432 156T345 135Q322 133 297 134T244 144Q250 158 257 173T275 202T299 224T330 235Q351 237 369 247T400 275T422 315T430 364Q430 420 392 457T291 494Q277
494 268 494T249 493T230 491T207 488V0H71V727H207V594Q228 596 248 596T291 597Q352 597 404 582T494 536T555 463T577 364Z" />
<glyph unicode="&#xdf;" glyph-name="germandbls" horiz-adv-x="567" d="M284 115Q316 101 339 97T378 92Q405 92 423 106T441 144Q441 165 428 181T396 213T354 245T312 283T280 333T267 401Q267 423 275 444T299 485T335 520T382 546Q385 557 385 567T386 588Q386
620 363 641T301 663Q257 663 229 635T201 555V0L68 -1V544Q68 600 86 641T135 709T207 749T294 763Q340 763 377 751T441 715T481 660T495 588Q495 537 457 476Q423 462 406 445T389 401Q389 379 402 363T434 332T476 300T518 263T550 212T563 141Q563 104 549
76T511 28T457 -2T394 -12Q364 -12 331 -6T249 25L284 115Z" />
<glyph unicode="&#xe0;" glyph-name="agrave" horiz-adv-x="527" d="M107 740H241L314 602Q301 599 283 599T245 604T206 620T171 649L107 740ZM384 0Q367 9 358 27T342 63Q317 39 297 25T257 2T220 -10T181 -13Q145 -13 117 -1T68 33T37 81T26 138Q26 169 39
198T83 250T168 290T300 313Q295 278 280 252T232 220Q194 214 177 195T160 151Q160 125 178 108T223 90Q252 90 281 109T336 160V311Q336 363 308 394T226 425Q201 425 173 420T109 402L75 490Q120 510 159 519T234 528Q352 528 411 473T471 311V126Q471 98 474
67T487 0H384Z" />
<glyph unicode="&#xe1;" glyph-name="aacute" horiz-adv-x="527" d="M347 645Q332 627 313 617T273 603T233 598T201 602L287 740H426L347 645ZM384 0Q367 9 358 27T342 63Q317 39 297 25T257 2T220 -10T181 -13Q145 -13 117 -1T68 33T37 81T26 138Q26 169 39
198T83 250T168 290T300 313Q295 278 280 252T232 220Q194 214 177 195T160 151Q160 125 178 108T223 90Q252 90 281 109T336 160V311Q336 363 308 394T226 425Q201 425 173 420T109 402L75 490Q120 510 159 519T234 528Q352 528 413 473T474 311V126Q474 98 477
67T490 0H384Z" />
<glyph unicode="&#xe2;" glyph-name="acircumflex" horiz-adv-x="527" d="M318 743L425 603L344 585L266 658L190 585L110 603L215 743H318ZM384 0Q367 9 358 27T342 63Q317 39 297 25T257 2T220 -10T181 -13Q145 -13 117 -1T68 33T37 81T26 138Q26 169 39 198T83
250T168 290T300 313Q295 278 280 252T232 220Q194 214 177 195T160 151Q160 125 178 108T223 90Q252 90 281 109T336 160V311Q336 363 308 394T226 425Q201 425 173 420T109 402L75 490Q120 510 159 519T234 528Q352 528 413 473T474 311V126Q474 98 477 67T490
0H384Z" />
<glyph unicode="&#xe3;" glyph-name="atilde" horiz-adv-x="527" d="M105 624Q106 652 114 674T137 711T168 734T204 742Q226 742 243 734T274 716T299 698T322 689Q335 689 343 701T353 734L426 728Q424 696 415 674T392 638T362 617T332 610Q307 610 290 618T261
636T238 654T215 663Q204 663 193 654T180 618L105 624ZM385 0Q368 9 359 27T343 63Q318 39 298 25T258 2T221 -10T182 -13Q146 -13 118 -1T69 33T38 81T27 138Q27 169 40 198T84 250T169 290T301 313Q296 278 281 252T233 220Q195 214 178 195T161 151Q161 125
179 108T224 90Q253 90 282 109T337 160V311Q337 363 309 394T227 425Q202 425 174 420T110 402L76 490Q121 510 160 519T235 528Q353 528 414 473T475 311V126Q475 98 478 67T491 0H385Z" />
<glyph unicode="&#xe4;" glyph-name="adieresis" horiz-adv-x="527" d="M107 670Q107 696 125 714T170 733Q196 733 215 715T234 670Q234 644 215 626T170 607Q144 607 126 625T107 670ZM385 0Q368 9 359 27T343 63Q318 39 298 25T258 2T221 -10T182 -13Q146 -13
118 -1T69 33T38 81T27 138Q27 169 40 198T84 250T169 290T301 313Q296 278 281 252T233 220Q195 214 178 195T161 151Q161 125 179 108T224 90Q253 90 282 109T337 160V311Q337 363 309 394T227 425Q202 425 174 420T110 402L76 490Q121 510 160 519T235 528Q353
528 414 473T475 311V126Q475 98 478 67T491 0H385ZM302 670Q302 696 320 714T365 733Q391 733 410 715T429 670Q429 644 410 626T365 607Q339 607 321 625T302 670Z" />
<glyph unicode="&#xe5;" glyph-name="aring" horiz-adv-x="527" d="M385 0Q368 9 359 27T343 63Q318 39 298 25T258 2T221 -10T182 -13Q146 -13 118 -1T69 33T38 81T27 138Q27 169 40 198T84 250T169 290T301 313Q296 278 281 252T233 220Q195 214 178 195T161
151Q161 125 179 108T224 90Q253 90 282 109T337 160V311Q337 363 309 394T227 425Q202 425 174 420T110 402L76 490Q121 510 168 519T250 528Q357 528 416 473T475 311V126Q475 98 478 67T491 0H385ZM267 560Q219 560 188 586T157 653Q157 674 165 692T189 723T224
743T268 751Q316 751 346 725T376 654Q376 633 368 616T344 587T309 567T267 560ZM267 616Q285 616 294 627T304 655Q304 672 295 683T267 695Q250 695 241 684T232 654Q232 640 241 628T267 616Z" />
<glyph unicode="&#xe6;" glyph-name="ae" horiz-adv-x="850" d="M680 317Q683 340 678 361T662 398T633 423T592 433Q571 433 551 424T513 396T486 346T475 272Q475 185 514 138T616 90Q651 90 684 98T762 127L797 34Q743 8 696 -2T601 -13Q566 -13 534 -1T477
30T433 73T407 121Q391 85 368 60T317 19T261 -5T207 -13Q167 -13 134 -3T77 27T40 75T27 138Q27 169 40 198T84 250T169 290T301 313Q296 278 281 252T233 220Q195 214 178 195T161 151Q161 125 179 108T224 90Q250 90 271 103T306 139T329 194T337 265V311Q337
363 309 394T227 425Q202 425 174 420T110 402L76 490Q121 510 168 519T250 528Q298 528 343 501T417 420Q431 445 451 465T496 500T546 522T599 530Q654 530 700 508T774 447T808 354T793 235H513Q524 270 544 293T591 317H680Z" />
<glyph unicode="&#xe7;" glyph-name="ccedilla" horiz-adv-x="427" d="M285 530Q312 530 344 525T406 508L372 415Q348 421 325 424T285 427Q231 427 198 382T165 259Q165 180 198 135T285 90Q306 90 330 95T386 114L420 22Q382 5 348 -3T287 -13L280 -43Q310
-50 335 -70T361 -123Q361 -146 350 -162T320 -190T280 -207T234 -213Q199 -213 153 -193L171 -138Q190 -145 204 -147T234 -150Q251 -150 262 -144T274 -126Q274 -111 255 -103T200 -91L222 -7Q180 1 143 20T77 72T33 151T17 259Q17 327 39 378T99 462T184 513T285
530Z" />
<glyph unicode="&#xe8;" glyph-name="egrave" horiz-adv-x="544" d="M377 317Q380 340 375 361T359 398T330 423T289 433Q268 433 248 424T210 396T183 346T172 272Q172 185 211 138T313 90Q348 90 381 98T459 127L494 34Q440 8 393 -2T298 -13Q229 -13 180 12T98
76T50 166T34 267Q34 329 54 378T110 460T194 512T296 530Q351 530 397 508T471 447T505 354T490 235H210Q221 270 241 293T288 317H377ZM133 740H267L340 602Q327 599 309 599T271 604T232 620T197 649L133 740Z" />
<glyph unicode="&#xe9;" glyph-name="eacute" horiz-adv-x="544" d="M376 317Q379 340 374 361T358 398T329 423T288 433Q267 433 247 424T209 396T182 346T171 272Q171 185 210 138T312 90Q347 90 380 98T458 127L493 34Q439 8 392 -2T297 -13Q228 -13 179 12T97
76T49 166T33 267Q33 329 53 378T109 460T193 512T295 530Q350 530 396 508T470 447T504 354T489 235H209Q220 270 240 293T287 317H376ZM372 645Q357 627 338 617T298 603T258 598T226 602L312 740H451L372 645Z" />
<glyph unicode="&#xea;" glyph-name="ecircumflex" horiz-adv-x="544" d="M375 317Q378 340 373 361T357 398T328 423T287 433Q266 433 246 424T208 396T181 346T170 272Q170 185 209 138T311 90Q346 90 379 98T457 127L492 34Q438 8 391 -2T296 -13Q227 -13 178
12T96 76T48 166T32 267Q32 329 52 378T108 460T192 512T294 530Q349 530 395 508T469 447T503 354T488 235H208Q219 270 239 293T286 317H375ZM343 743L450 603L369 585L291 658L215 585L135 603L240 743H343Z" />
<glyph unicode="&#xeb;" glyph-name="edieresis" horiz-adv-x="544" d="M377 317Q380 340 375 361T359 398T330 423T289 433Q268 433 248 424T210 396T183 346T172 272Q172 185 211 138T313 90Q348 90 381 98T459 127L494 34Q440 8 393 -2T298 -13Q229 -13 180
12T98 76T50 166T34 267Q34 329 54 378T110 460T194 512T296 530Q351 530 397 508T471 447T505 354T490 235H210Q221 270 241 293T288 317H377ZM124 670Q124 696 142 714T187 733Q213 733 232 715T251 670Q251 644 232 626T187 607Q161 607 143 625T124 670ZM319
670Q319 696 337 714T382 733Q408 733 427 715T446 670Q446 644 427 626T382 607Q356 607 338 625T319 670Z" />
<glyph unicode="&#xec;" glyph-name="igrave" horiz-adv-x="276" d="M89 0V517H229V0H89ZM-3 740H131L204 602Q191 599 173 599T135 604T96 620T61 649L-3 740Z" />
<glyph unicode="&#xed;" glyph-name="iacute" horiz-adv-x="273" d="M48 0V517H188V0H48ZM201 645Q186 627 167 617T127 603T87 598T55 602L141 740H280L201 645Z" />
<glyph unicode="&#xee;" glyph-name="icircumflex" horiz-adv-x="337" d="M97 0V517H237V0H97ZM219 743L326 603L245 585L167 658L91 585L11 603L116 743H219Z" />
<glyph unicode="&#xef;" glyph-name="idieresis" horiz-adv-x="352" d="M106 0V517H246V0H106ZM14 670Q14 696 32 714T77 733Q103 733 122 715T141 670Q141 644 122 626T77 607Q51 607 33 625T14 670ZM209 670Q209 696 227 714T272 733Q298 733 317 715T336 670Q336
644 317 626T272 607Q246 607 228 625T209 670Z" />
<glyph unicode="&#xf0;" glyph-name="eth" horiz-adv-x="557" d="M550 259Q550 201 529 152T472 66T387 8T282 -13Q226 -13 177 6T92 60T35 146T14 259Q14 316 35 365T92 451T177 509T282 530Q299 530 319 527T356 515Q317 563 267 600L152 546L125 604L204 642Q183
654 162 665T120 686L163 762Q199 747 234 729T301 688L411 741L440 682L360 644Q402 608 437 566T497 476T536 373T550 259ZM162 259Q162 224 170 193T193 139T230 103T282 89Q311 89 333 102T371 139T393 193T401 259Q401 294 394 324T371 378T334 414T282 428Q253
428 231 415T193 378T170 325T162 259Z" />
<glyph unicode="&#xf1;" glyph-name="ntilde" horiz-adv-x="596" d="M163 517Q187 490 195 464T203 407V0H63V391Q63 449 47 517H163ZM386 367Q386 392 376 408T340 424Q330 424 321 422T298 418Q286 417 276 423T258 438T242 460T227 484Q277 510 314 520T386
530Q412 530 437 520T481 490T513 440T525 369V0H386V367ZM132 624Q133 652 141 674T164 711T195 734T231 742Q253 742 270 734T301 716T326 698T349 689Q362 689 370 701T380 734L453 728Q451 696 442 674T419 638T389 617T359 610Q334 610 317 618T288 636T265
654T242 663Q231 663 220 654T207 618L132 624Z" />
<glyph unicode="&#xf2;" glyph-name="ograve" horiz-adv-x="566" d="M549 259Q549 201 528 152T471 66T386 8T281 -13Q225 -13 176 6T91 60T34 146T13 259Q13 316 34 365T91 451T176 509T281 530Q337 530 386 511T471 457T528 371T549 259ZM161 259Q161 224 169
193T192 139T229 103T281 89Q310 89 332 102T370 139T392 193T400 259Q400 294 393 324T370 378T333 414T281 428Q252 428 230 415T192 378T169 325T161 259ZM134 740H268L341 602Q328 599 310 599T272 604T233 620T198 649L134 740Z" />
<glyph unicode="&#xf3;" glyph-name="oacute" horiz-adv-x="566" d="M549 259Q549 201 528 152T471 66T386 8T281 -13Q225 -13 176 6T91 60T34 146T13 259Q13 316 34 365T91 451T176 509T281 530Q337 530 386 511T471 457T528 371T549 259ZM161 259Q161 224 169
193T192 139T229 103T281 89Q310 89 332 102T370 139T392 193T400 259Q400 294 393 324T370 378T333 414T281 428Q252 428 230 415T192 378T169 325T161 259ZM364 645Q349 627 330 617T290 603T250 598T218 602L304 740H443L364 645Z" />
<glyph unicode="&#xf4;" glyph-name="ocircumflex" horiz-adv-x="566" d="M549 259Q549 201 528 152T471 66T386 8T281 -13Q225 -13 176 6T91 60T34 146T13 259Q13 316 34 365T91 451T176 509T281 530Q337 530 386 511T471 457T528 371T549 259ZM161 259Q161 224
169 193T192 139T229 103T281 89Q310 89 332 102T370 139T392 193T400 259Q400 294 393 324T370 378T333 414T281 428Q252 428 230 415T192 378T169 325T161 259ZM332 743L439 603L358 585L280 658L204 585L124 603L229 743H332Z" />
<glyph unicode="&#xf5;" glyph-name="otilde" horiz-adv-x="566" d="M549 259Q549 201 528 152T471 66T386 8T281 -13Q225 -13 176 6T91 60T34 146T13 259Q13 316 34 365T91 451T176 509T281 530Q337 530 386 511T471 457T528 371T549 259ZM161 259Q161 224 169
193T192 139T229 103T281 89Q310 89 332 102T370 139T392 193T400 259Q400 294 393 324T370 378T333 414T281 428Q252 428 230 415T192 378T169 325T161 259ZM121 624Q122 652 130 674T153 711T184 734T220 742Q242 742 259 734T290 716T315 698T338 689Q351 689
359 701T369 734L442 728Q440 696 431 674T408 638T378 617T348 610Q323 610 306 618T277 636T254 654T231 663Q220 663 209 654T196 618L121 624Z" />
<glyph unicode="&#xf6;" glyph-name="odieresis" horiz-adv-x="566" d="M548 259Q548 201 527 152T470 66T385 8T280 -13Q224 -13 175 6T90 60T33 146T12 259Q12 316 33 365T90 451T175 509T280 530Q336 530 385 511T470 457T527 371T548 259ZM160 259Q160 224
168 193T191 139T228 103T280 89Q309 89 331 102T369 139T391 193T399 259Q399 294 392 324T369 378T332 414T280 428Q251 428 229 415T191 378T168 325T160 259ZM120 670Q120 696 138 714T183 733Q209 733 228 715T247 670Q247 644 228 626T183 607Q157 607 139
625T120 670ZM315 670Q315 696 333 714T378 733Q404 733 423 715T442 670Q442 644 423 626T378 607Q352 607 334 625T315 670Z" />
<glyph unicode="&#xf7;" glyph-name="divide" horiz-adv-x="568" d="M219 112Q219 140 236 157T280 175Q308 175 325 158T343 112Q343 85 326 68T280 51Q253 51 236 68T219 112ZM47 353H515V257H47V353ZM220 494Q220 521 237 538T280 556Q307 556 324 539T342
494Q342 468 325 451T280 434Q254 434 237 451T220 494Z" />
<glyph unicode="&#xf8;" glyph-name="oslash" horiz-adv-x="500" d="M547 259Q547 201 527 152T470 66T386 8T281 -13Q255 -13 231 -9T183 3L143 -66H46L110 43Q65 78 41 133T16 259Q16 316 36 365T92 451T176 509T281 530Q337 530 388 510L426 573H520L458 468Q500
432 523 379T547 259ZM159 259Q159 224 167 193T190 139T229 103T281 89Q310 89 332 102T370 139T394 193T402 259Q402 283 398 305T385 346L256 128Q247 138 239 151T225 179T220 210T229 245L331 415Q307 428 281 428Q252 428 229 415T191 378T167 325T159 259Z"
/>
<glyph unicode="&#xf9;" glyph-name="ugrave" horiz-adv-x="587" d="M409 0Q386 27 378 53T370 110V517H510V126Q510 68 526 0H409ZM187 150Q187 125 197 109T233 93Q243 93 252 95T275 99Q287 100 296 94T315 79T331 57T346 33Q296 7 259 -3T187 -13Q161 -13
136 -3T92 27T60 77T48 148V517H187V150ZM128 740H262L335 602Q322 599 304 599T266 604T227 620T192 649L128 740Z" />
<glyph unicode="&#xfa;" glyph-name="uacute" horiz-adv-x="587" d="M411 0Q388 27 380 53T372 110V517H512V126Q512 68 528 0H411ZM189 150Q189 125 199 109T235 93Q245 93 254 95T277 99Q289 100 298 94T317 79T333 57T348 33Q298 7 261 -3T189 -13Q163 -13
138 -3T94 27T62 77T50 148V517H189V150ZM376 645Q361 627 342 617T302 603T262 598T230 602L316 740H455L376 645Z" />
<glyph unicode="&#xfb;" glyph-name="ucircumflex" horiz-adv-x="587" d="M411 0Q388 27 380 53T372 110V517H512V126Q512 68 528 0H411ZM189 150Q189 125 199 109T235 93Q245 93 254 95T277 99Q289 100 298 94T317 79T333 57T348 33Q298 7 261 -3T189 -13Q163
-13 138 -3T94 27T62 77T50 148V517H189V150ZM332 743L439 603L358 585L280 658L204 585L124 603L229 743H332Z" />
<glyph unicode="&#xfc;" glyph-name="udieresis" horiz-adv-x="587" d="M410 0Q387 27 379 53T371 110V517H511V126Q511 68 527 0H410ZM188 150Q188 125 198 109T234 93Q244 93 253 95T276 99Q288 100 297 94T316 79T332 57T347 33Q297 7 260 -3T188 -13Q162 -13
137 -3T93 27T61 77T49 148V517H188V150ZM124 670Q124 696 142 714T187 733Q213 733 232 715T251 670Q251 644 232 626T187 607Q161 607 143 625T124 670ZM319 670Q319 696 337 714T382 733Q408 733 427 715T446 670Q446 644 427 626T382 607Q356 607 338 625T319
670Z" />
<glyph unicode="&#xfd;" glyph-name="yacute" horiz-adv-x="529" d="M109 -146Q135 -146 154 -134T188 -99T215 -42T243 37L391 517H534L351 11Q326 -54 304 -102T256 -183T195 -231T109 -248Q89 -247 66 -244T18 -229L50 -139Q67 -144 81 -145T109 -146ZM217
281Q227 248 228 210T223 136T207 67T183 13L-3 517H147L217 281ZM358 645Q343 627 324 617T284 603T244 598T212 602L298 740H437L358 645Z" />
<glyph unicode="&#xfe;" glyph-name="thorn" horiz-adv-x="598" d="M73 758H205V98Q228 92 247 90T286 88Q315 88 338 102T378 141T403 201T412 277Q412 301 408 327T393 376T365 412T323 425Q306 424 294 430T273 447T256 472T241 502Q270 514 299 520T355 526Q403
526 441 504T505 447T546 367T561 277Q561 216 542 163T487 70T400 8T286 -15Q265 -15 245 -14T205 -8V-241H73V758Z" />
<glyph unicode="&#xff;" glyph-name="ydieresis" horiz-adv-x="529" d="M108 -146Q134 -146 153 -134T187 -99T214 -42T242 37L390 517H533L350 11Q325 -54 303 -102T255 -183T194 -231T108 -248Q88 -247 65 -244T17 -229L49 -139Q66 -144 80 -145T108 -146ZM216
281Q226 248 227 210T222 136T206 67T182 13L-4 517H146L216 281ZM106 670Q106 696 124 714T169 733Q195 733 214 715T233 670Q233 644 214 626T169 607Q143 607 125 625T106 670ZM301 670Q301 696 319 714T364 733Q390 733 409 715T428 670Q428 644 409 626T364
607Q338 607 320 625T301 670Z" />
<glyph unicode="&#x2013;" glyph-name="endash" horiz-adv-x="540" d="M45 226V324H469V226H45Z" />
<glyph unicode="&#x2014;" glyph-name="emdash" horiz-adv-x="849" d="M45 226V324H784V226H45Z" />
<glyph unicode="&#x2018;" glyph-name="quoteleft" horiz-adv-x="205" d="M149 501H27V579Q27 613 34 643T55 695T93 725T149 727V501Z" />
<glyph unicode="&#x2019;" glyph-name="quoteright" horiz-adv-x="191" d="M27 727H149V649Q149 614 142 584T121 533T83 503T27 501V727Z" />
<glyph unicode="&#x201a;" glyph-name="quotesinglbase" horiz-adv-x="197" d="M56 98H178V20Q178 -15 171 -45T150 -96T112 -126T56 -128V98Z" />
<glyph unicode="&#x201c;" glyph-name="quotedblleft" horiz-adv-x="396" d="M359 501H237V579Q237 613 244 643T265 695T303 725T359 727V501ZM155 501H33V579Q33 613 40 643T61 695T99 725T155 727V501Z" />
<glyph unicode="&#x201d;" glyph-name="quotedblright" horiz-adv-x="416" d="M33 727H155V649Q155 614 148 584T127 533T89 503T33 501V727ZM237 727H359V649Q359 614 352 584T331 533T293 503T237 501V727Z" />
<glyph unicode="&#x201e;" glyph-name="quotedblbase" horiz-adv-x="394" d="M33 98H155V20Q155 -15 148 -45T127 -96T89 -126T33 -128V98ZM237 98H359V20Q359 -15 352 -45T331 -96T293 -126T237 -128V98Z" />
<glyph unicode="&#x2022;" glyph-name="bullet" horiz-adv-x="500" d="M164 315Q164 356 190 383T257 410Q298 410 325 383T352 315Q352 274 325 248T257 222Q216 222 190 248T164 315Z" />
<glyph unicode="&#x2039;" glyph-name="guilsinglleft" horiz-adv-x="613" d="M174 258L407 472L462 418L336 258L462 98L407 45L174 258Z" />
<glyph unicode="&#x203a;" glyph-name="guilsinglright" horiz-adv-x="613" d="M244 45L189 98L315 258L189 418L244 472L477 258L244 45Z" />
</font>
</defs>
</svg>
