<?xml version="1.0" standalone="no"?>
<!DOCTYPE svg PUBLIC "-//W3C//DTD SVG 1.1//EN" "http://www.w3.org/Graphics/SVG/1.1/DTD/svg11.dtd">
<svg xmlns="http://www.w3.org/2000/svg">
<defs >
<font id="Exo" horiz-adv-x="536" ><font-face
    font-family="Exo ExtraLight"
    units-per-em="1000"
    panose-1="0 0 3 0 0 0 0 0 0 0"
    ascent="1002"
    descent="-327"
    alphabetic="0" />
<glyph unicode=" " glyph-name="space" horiz-adv-x="277" />
<glyph unicode="!" glyph-name="exclam" horiz-adv-x="262" d="M109 732H150L143 197H114L109 732ZM105 0T105 13V80Q105 94 118 94H139Q146 94 149 90T153 80V13Q153 0 139 0H118Q105 0 105 13Z" />
<glyph unicode="&quot;" glyph-name="quotedbl" horiz-adv-x="221" d="M43 675V742H84V675L77 513H50L43 675ZM137 675V742H178V675L171 513H144L137 675Z" />
<glyph unicode="#" glyph-name="numbersign" horiz-adv-x="664" d="M200 243H26L30 267H205L235 461H59L64 485H240L280 732H304L264 485H440L480 732H504L464 485H641L637 461H459L429 267H606L602 243H424L385 0H361L400 243H224L185 0H161L200 243ZM405 267L435
461H259L229 267H405Z" />
<glyph unicode="$" glyph-name="dollar" horiz-adv-x="609" d="M422 389T463 346T505 227V163Q505 1 305 -6V-88H278V-6Q231 -5 164 -1T68 9V38Q143 31 284 31Q369 31 417 59T465 162V225Q465 286 435 317T336 349H248Q161 349 115 387T68 512V557Q68 655 118
697T268 739H283L278 742L289 824L305 813L295 738Q338 736 391 732T473 722V692Q466 692 450 694Q431 695 374 698T270 702Q188 702 148 670T108 556V514Q108 445 143 417T247 389H338Q422 389 463 346Z" />
<glyph unicode="%" glyph-name="percent" horiz-adv-x="955" d="M111 349T83 379T54 475V606Q54 672 82 702T184 732H285Q356 732 384 702T413 606V475Q413 409 385 379T283 349H182Q111 349 83 379ZM677 732H708L269 0H237L677 732ZM280 376Q337 376 361 397T386
478V603Q386 659 364 682T282 705H186Q147 705 125 697T92 666T81 603V478Q81 419 104 398T184 376H280ZM601 3T573 33T544 129V260Q544 326 572 356T674 386H775Q846 386 874 356T903 260V129Q903 63 875 33T773 3H672Q601 3 573 33ZM770 30Q827 30 851 51T876
132V257Q876 313 854 336T772 359H676Q637 359 615 351T582 320T571 257V132Q571 73 594 52T674 30H770Z" />
<glyph unicode="&amp;" glyph-name="ampersand" horiz-adv-x="659" d="M183 -6T139 18T69 85T44 187Q44 295 141 377L210 436L188 467Q135 538 135 607Q135 672 180 702T297 733Q381 733 455 724V696H302Q176 696 176 604Q176 575 187 546T227 479L459 163L612
309L628 292L558 205L483 134L582 0H534L454 108L423 80Q372 33 329 14T238 -6Q183 -6 139 18ZM282 33T317 49T394 105L429 138L231 406L171 356Q84 284 84 190Q84 118 126 76T242 33Q282 33 317 49Z" />
<glyph unicode="&apos;" glyph-name="quotesingle" horiz-adv-x="127" d="M43 675V742H84V675L77 513H50L43 675Z" />
<glyph unicode="(" glyph-name="parenleft" horiz-adv-x="325" d="M177 -73T136 54T95 326Q95 467 137 595T257 860H299Q220 720 178 592T136 326Q136 186 177 60T299 -210H257Q177 -73 136 54Z" />
<glyph unicode=")" glyph-name="parenright" horiz-adv-x="324" d="M108 -68T148 57T188 326Q188 467 148 592T25 860H67Q149 723 189 597T229 326Q229 179 190 54T67 -210H25Q108 -68 148 57Z" />
<glyph unicode="*" glyph-name="asterisk" horiz-adv-x="464" d="M201 723L220 729L286 605L256 592L201 723ZM278 554L390 637L402 620L300 530L278 554ZM64 589V609L206 615V584L64 589ZM141 410L173 544L206 538L159 404L141 410ZM233 491L249 520L366 436L355
421L233 491Z" />
<glyph unicode="+" glyph-name="plus" horiz-adv-x="609" d="M528 338H323V132H286V338H80V375H286V580H323V375H528V338Z" />
<glyph unicode="," glyph-name="comma" horiz-adv-x="181" d="M77 -72T74 -71T69 -70V-58Q79 -58 83 -55T87 -43V1H80Q75 1 71 5T67 16V79Q67 94 80 94H100Q114 94 114 79V-34Q114 -72 82 -72Q77 -72 74 -71Z" />
<glyph unicode="-" glyph-name="hyphen" horiz-adv-x="340" d="M26 309H313V272H26V309Z" />
<glyph unicode="." glyph-name="period" horiz-adv-x="181" d="M67 0T67 13V80Q67 94 80 94H101Q108 94 111 90T115 80V13Q115 0 101 0H80Q67 0 67 13Z" />
<glyph unicode="/" glyph-name="slash" horiz-adv-x="369" d="M306 770H343L62 -72H25L306 770Z" />
<glyph unicode="0" glyph-name="zero" horiz-adv-x="660" d="M186 -1T138 39T89 165V572Q89 652 138 695T264 739H401Q488 739 529 694T571 572V165Q571 79 526 39T401 -1H264Q186 -1 138 39ZM395 37Q530 37 530 168V570Q530 635 496 668T396 702H268Q204 702
167 667T130 570V169Q130 104 167 71T269 37H395Z" />
<glyph unicode="1" glyph-name="one" horiz-adv-x="357" d="M214 698L51 643V670L216 741H255V0H214V698Z" />
<glyph unicode="2" glyph-name="two" horiz-adv-x="596" d="M59 35L345 305Q416 371 444 426T472 555Q472 624 432 662T285 701H90V731L125 733Q229 739 296 739Q413 739 463 691T513 557Q513 479 482 417T375 283L117 39H542V0H59V35Z" />
<glyph unicode="3" glyph-name="three" horiz-adv-x="589" d="M145 -6T47 2V32H295Q371 32 416 61T462 167V225Q462 289 419 318T317 349L125 357V384L316 391Q451 396 451 504V567Q451 631 409 666T288 701H76V731Q159 739 301 739Q396 739 444 693T492 572V505Q492
459 472 430T426 387T378 370Q402 366 431 350T482 302T504 223V163Q504 81 452 38T305 -6Q145 -6 47 2Z" />
<glyph unicode="4" glyph-name="four" horiz-adv-x="581" d="M400 205H41L28 234L326 733H368L74 241H400V466L411 525H441V241H555V213L441 205V2H400V205Z" />
<glyph unicode="5" glyph-name="five" horiz-adv-x="643" d="M173 -4T97 3V33H350Q427 33 477 70T528 174V272Q528 333 490 367T379 401H290Q181 401 162 301H124L145 733H547V696H182L166 373Q178 399 211 418T296 437H388Q473 437 521 393T569 277V168Q569 85
508 41T351 -4Q173 -4 97 3Z" />
<glyph unicode="6" glyph-name="six" horiz-adv-x="632" d="M214 -2T172 30T107 145T83 372Q83 556 148 647T333 739Q389 739 513 732V702H327Q232 702 178 624T124 391Q172 395 236 397T347 399Q449 399 503 367T557 253V151Q557 71 511 35T393 -2H276Q214 -2
172 30ZM388 36Q447 36 482 61T517 153V249Q517 316 474 339T342 362H124Q124 236 142 165T194 65T280 36H388Z" />
<glyph unicode="7" glyph-name="seven" horiz-adv-x="538" d="M440 692H38V733H471L490 705L208 0H161L440 692Z" />
<glyph unicode="8" glyph-name="eight" horiz-adv-x="651" d="M184 -1T140 33T95 137V245Q95 299 127 330T196 370Q151 389 130 423T109 500V585Q109 664 151 701T264 738H401Q471 738 507 702T543 585V500Q543 460 521 426T463 379Q508 371 532 336T557 253V137Q557
68 516 34T400 -1H265Q184 -1 140 33ZM389 392Q445 392 474 424T503 496V578Q503 645 477 673T396 702H269Q205 702 178 673T150 578V496Q150 451 180 422T268 392H389ZM395 36Q516 36 516 138V247Q516 307 488 331T389 356H268Q241 356 211 345T158 310T136 247V138Q136
85 172 61T269 36H395Z" />
<glyph unicode="9" glyph-name="nine" horiz-adv-x="632" d="M244 -4T120 3V33H306Q401 33 455 111T509 344Q462 340 398 338T286 336Q184 336 130 368T76 482V584Q76 664 122 700T240 736H358Q420 736 461 704T526 590T550 363Q550 179 486 88T301 -4Q244 -4
120 3ZM509 373Q509 499 491 570T440 670T354 699H245Q186 699 151 674T116 582V486Q116 419 159 396T291 373H509Z" />
<glyph unicode=":" glyph-name="colon" horiz-adv-x="181" d="M67 0T67 13V80Q67 94 80 94H101Q108 94 111 90T115 80V13Q115 0 101 0H80Q67 0 67 13ZM67 438T67 451V518Q67 532 80 532H101Q108 532 111 528T115 518V451Q115 438 101 438H80Q67 438 67 451Z" />
<glyph unicode=";" glyph-name="semicolon" horiz-adv-x="181" d="M67 438T67 451V518Q67 532 80 532H101Q108 532 111 528T115 518V451Q115 438 101 438H80Q67 438 67 451ZM77 -72T74 -71T69 -70V-58Q79 -58 83 -55T87 -43V1H80Q75 1 71 5T67 16V79Q67 94 80
94H100Q114 94 114 79V-34Q114 -72 82 -72Q77 -72 74 -71Z" />
<glyph unicode="&lt;" glyph-name="less" horiz-adv-x="609" d="M96 329V368L511 503V468L133 349L511 228V193L96 329Z" />
<glyph unicode="=" glyph-name="equal" horiz-adv-x="609" d="M80 511H528V474H80V511ZM80 495H528V458H80V495Z" />
<glyph unicode="&gt;" glyph-name="greater" horiz-adv-x="609" d="M98 228L476 348L98 468V503L513 368V329L98 193V228Z" />
<glyph unicode="?" glyph-name="question" horiz-adv-x="532" d="M182 332H221Q288 332 327 344T384 385T402 465V540Q402 628 367 665T252 702Q198 702 150 693T46 661V688Q134 739 263 739Q362 739 402 690T443 543V465Q443 378 390 337T216 296V196H182V332ZM175
0T175 13V80Q175 94 188 94H209Q216 94 219 90T223 80V13Q223 0 209 0H188Q175 0 175 13Z" />
<glyph unicode="@" glyph-name="at" horiz-adv-x="868" d="M178 -153T131 -106T83 31V371Q83 433 116 487T258 541H455Q521 541 566 509T612 398V29H586L577 92Q575 91 508 56T361 20Q305 20 269 54T233 140V191Q233 245 268 276T365 307H576V395Q576 451 544
478T453 505H258Q119 505 119 370V33Q119 -46 160 -81T258 -116H577Q652 -116 688 -79T725 33V535Q725 607 687 651T577 695H186V719Q244 731 477 731H577Q661 731 711 681T761 535V33Q761 -54 719 -103T578 -153H258Q178 -153 131 -106ZM413 56T474 75T576 116V284L373
275Q331 273 301 256T270 190V148Q270 106 298 81T374 56Q413 56 474 75Z" />
<glyph unicode="A" glyph-name="A" horiz-adv-x="669" d="M307 733H362L625 0H581L494 241H174L87 0H44L307 733ZM481 279L334 695L184 279H481Z" />
<glyph unicode="B" glyph-name="B" horiz-adv-x="590" d="M85 733H337Q515 733 515 548Q515 482 484 438T410 381Q459 370 500 328T542 204Q542 91 492 46T345 0H85V733ZM343 396Q402 396 438 439T475 555Q475 696 337 696H126V396H343ZM344 37Q421 37 461 73T502
209Q502 279 457 320T344 362H126V37H344Z" />
<glyph unicode="C" glyph-name="C" horiz-adv-x="578" d="M225 -6T172 23T93 132T67 369Q67 515 93 595T176 707T329 739Q365 739 424 733T530 717V688Q500 693 442 697T331 702Q246 702 199 675T130 575T108 368Q108 226 129 154T196 57T327 31Q448 31 530 45V15Q482
5 424 0T322 -6Q225 -6 172 23Z" />
<glyph unicode="D" glyph-name="D" horiz-adv-x="663" d="M85 733H363Q485 733 540 643T596 367Q596 198 536 99T363 0H85V733ZM361 37Q457 37 506 126T555 367Q555 484 535 556T473 662T361 696H126V37H361Z" />
<glyph unicode="E" glyph-name="E" horiz-adv-x="582" d="M161 -3T123 24T85 128V598Q85 668 122 700T214 733Q282 733 359 731T464 728L517 726V695H223Q177 695 152 671T126 594V382L476 379V349L126 345V134Q126 74 154 55T231 35H517V4L468 2Q438 1 360 -1T222
-3Q161 -3 123 24Z" />
<glyph unicode="F" glyph-name="F" horiz-adv-x="559" d="M85 598Q85 668 122 700T214 733Q338 733 517 726V695H222Q176 695 151 670T126 594V368L476 364V334L126 331V0H85V598Z" />
<glyph unicode="G" glyph-name="G" horiz-adv-x="645" d="M210 -5T159 31T88 148T67 370Q67 502 88 582T161 700T303 739Q351 739 418 733T533 718V688Q396 702 306 702Q229 702 186 668T126 563T108 368Q108 235 125 165T187 64T314 33Q362 33 417 46T520 80V338H318V366Q392
376 479 376Q526 376 561 371V0H532L524 53Q476 29 418 12T303 -5Q210 -5 159 31Z" />
<glyph unicode="H" glyph-name="H" horiz-adv-x="669" d="M85 733H126V374H544V733H585V0H544V337H126V0H85V733Z" />
<glyph unicode="I" glyph-name="I" horiz-adv-x="210" d="M85 733H126V0H85V733Z" />
<glyph unicode="J" glyph-name="J" horiz-adv-x="374" d="M110 -6T79 1T27 18V48Q52 41 81 36T131 31Q189 31 218 56T248 153V733H289V150Q289 64 252 29T136 -6Q110 -6 79 1Z" />
<glyph unicode="K" glyph-name="K" horiz-adv-x="583" d="M85 733H126V386H273L502 733H546L305 367L547 0H502L272 348H126V0H85V733Z" />
<glyph unicode="L" glyph-name="L" horiz-adv-x="530" d="M85 0T85 133V733H126V136Q126 79 152 59T223 39H502V0H217Q85 0 85 133Z" />
<glyph unicode="M" glyph-name="M" horiz-adv-x="809" d="M704 0L626 675L423 0H386L178 674L104 0H65L146 733H194L404 59L610 733H660L744 0H704Z" />
<glyph unicode="N" glyph-name="N" horiz-adv-x="670" d="M103 733H138L563 73V733H604V0H569L144 661V0H103V733Z" />
<glyph unicode="O" glyph-name="O" horiz-adv-x="679" d="M239 -6T182 20T96 125T67 362Q67 519 97 600T184 710T340 739Q440 739 497 711T584 601T613 362Q613 205 584 126T498 20T340 -6Q239 -6 182 20ZM429 31T477 55T548 149T572 362Q572 511 549 583T478
679T340 702Q255 702 207 679T133 582T108 362Q108 219 130 149T200 55T340 31Q429 31 477 55Z" />
<glyph unicode="P" glyph-name="P" horiz-adv-x="594" d="M85 733H366Q547 733 547 509Q547 379 491 328T358 277Q311 278 243 280T126 284V0H85V733ZM355 314Q505 314 505 508Q505 614 466 655T364 696H126V314H355Z" />
<glyph unicode="Q" glyph-name="Q" horiz-adv-x="679" d="M239 -6T182 20T96 125T67 362Q67 519 97 600T184 710T340 739Q440 739 497 711T584 601T613 362Q613 205 584 126T498 20T340 -6Q239 -6 182 20ZM429 31T477 55T548 149T572 362Q572 511 549 583T478
679T340 702Q255 702 207 679T133 582T108 362Q108 219 130 149T200 55T340 31Q429 31 477 55ZM453 -155T413 -123T361 -34H389Q404 -76 435 -97T504 -119Q529 -119 551 -111V-147Q525 -155 502 -155Q453 -155 413 -123Z" />
<glyph unicode="R" glyph-name="R" horiz-adv-x="597" d="M85 733H365Q445 733 495 692T546 528Q546 332 392 320L550 0H509L353 316H333Q188 319 126 322V0H85V733ZM361 352Q429 352 467 388T505 528Q505 627 466 661T361 696H126V352H361Z" />
<glyph unicode="S" glyph-name="S" horiz-adv-x="572" d="M245 -6T173 -2T68 9V38Q143 31 284 31Q369 31 417 59T465 162V225Q465 286 435 317T336 349H248Q161 349 115 387T68 512V557Q68 655 118 697T268 739Q307 739 372 734T473 722V692Q466 692 450 694Q431
695 374 698T270 702Q188 702 148 670T108 556V514Q108 445 143 417T247 389H338Q422 389 463 346T505 227V163Q505 -6 285 -6Q245 -6 173 -2Z" />
<glyph unicode="T" glyph-name="T" horiz-adv-x="555" d="M257 696H16V733H539V696H298V0H257V696Z" />
<glyph unicode="U" glyph-name="U" horiz-adv-x="670" d="M204 -6T140 45T75 223V733H116V223Q116 115 170 73T335 31Q446 31 500 73T555 223V733H596V223Q596 97 531 46T335 -6Q204 -6 140 45Z" />
<glyph unicode="V" glyph-name="V" horiz-adv-x="669" d="M44 733H86L334 40L583 733H625L362 0H307L44 733Z" />
<glyph unicode="W" glyph-name="W" horiz-adv-x="991" d="M44 733H86L267 48L472 733H520L725 48L906 733H947L752 0H702L496 683L289 0H239L44 733Z" />
<glyph unicode="X" glyph-name="X" horiz-adv-x="601" d="M326 361L555 0H510L300 332L93 0H49L278 366L46 733H90L304 396L511 733H555L326 361Z" />
<glyph unicode="Y" glyph-name="Y" horiz-adv-x="612" d="M286 255L46 733H89L307 296L524 733H567L327 255V0H286V255Z" />
<glyph unicode="Z" glyph-name="Z" horiz-adv-x="552" d="M46 35L464 696H46V733H514V698L96 37H514V0H46V35Z" />
<glyph unicode="[" glyph-name="bracketleft" horiz-adv-x="329" d="M167 -210T138 -156T108 -33V667Q108 736 138 789T250 842H304V807H256Q206 807 178 772T149 664V-32Q149 -96 175 -135T256 -175H304V-210H250Q167 -210 138 -156Z" />
<glyph unicode="\" glyph-name="backslash" horiz-adv-x="369" d="M25 770H62L343 -72H306L25 770Z" />
<glyph unicode="]" glyph-name="bracketright" horiz-adv-x="329" d="M25 -175H73Q129 -175 154 -136T180 -32V664Q180 738 152 772T73 807H25V842H79Q161 842 191 789T221 667V-33Q221 -102 192 -156T79 -210H25V-175Z" />
<glyph unicode="^" glyph-name="asciicircum" horiz-adv-x="404" d="M193 662H224L341 531H314L208 640L91 531H64L193 662Z" />
<glyph unicode="_" glyph-name="underscore" horiz-adv-x="609" d="M0 -111H609V-148H0V-111Z" />
<glyph unicode="`" glyph-name="grave" horiz-adv-x="205" d="M25 765H64L180 631H156L25 765Z" />
<glyph unicode="a" glyph-name="a" horiz-adv-x="541" d="M126 -6T89 29T51 127V160Q51 225 93 263T213 301H418V383Q418 444 385 475T268 507H99V532Q200 541 281 541Q374 541 416 502T459 384V0H429L419 63Q414 59 373 42T280 9T185 -6Q126 -6 89 29ZM232 29T281
41T368 67T418 86V277L214 271Q150 268 121 239T92 160V134Q92 79 124 54T199 29Q232 29 281 41Z" />
<glyph unicode="b" glyph-name="b" horiz-adv-x="574" d="M265 -6T216 12T127 56L117 0H86V763H127V478Q172 504 224 521T316 538Q412 538 460 475T508 263Q508 137 463 66T317 -6Q265 -6 216 12ZM388 30T427 90T467 264Q467 358 448 410T395 483T309 503Q260
503 221 491T127 450V82Q174 58 216 44T309 30Q388 30 427 90Z" />
<glyph unicode="c" glyph-name="c" horiz-adv-x="490" d="M208 -6T163 17T92 100T66 266Q66 373 91 432T161 514T274 537Q359 537 444 529V503H280Q222 503 185 484T128 412T107 263Q107 129 151 79T280 28H452V3Q349 -6 273 -6Q208 -6 163 17Z" />
<glyph unicode="d" glyph-name="d" horiz-adv-x="570" d="M158 -6T112 60T66 263Q66 363 86 423T151 510T268 538Q347 538 447 504V763H488V0H457L447 56Q424 36 364 15T258 -6Q158 -6 112 60ZM314 29T357 43T447 83V475Q385 491 353 497T275 504Q214 504 178
482T124 407T107 264Q107 141 144 85T265 29Q314 29 357 43Z" />
<glyph unicode="e" glyph-name="e" horiz-adv-x="543" d="M196 -6T151 19T86 104T66 268Q66 373 87 431T154 513T282 538Q384 538 430 500T477 366Q477 246 336 246H107Q107 163 121 117T174 49T286 28H466V3Q369 -6 279 -6Q196 -6 151 19ZM334 277Q389 277 414
296T439 366Q439 420 424 450T375 492T282 505Q212 505 175 486T123 418T107 277H334Z" />
<glyph unicode="f" glyph-name="f" horiz-adv-x="354" d="M111 497H26V523L111 532V608Q111 689 141 729T251 769Q290 769 316 766T349 762V734H255Q194 734 173 705T152 609V532H333V497H152V0H111V497Z" />
<glyph unicode="g" glyph-name="g" horiz-adv-x="573" d="M548 509L406 501Q429 489 446 475T476 431T490 351Q490 284 446 237T304 189H224Q170 189 143 174T116 122Q116 96 134 83T178 70H371Q462 70 505 35T548 -69V-95Q548 -165 498 -204T356 -244H213Q132
-244 85 -210T37 -110V-81Q37 -35 62 -3T129 45Q105 55 92 74T78 119Q78 157 101 178T170 208Q68 245 68 364Q68 453 121 493T264 534H548V509ZM451 430T414 464T312 499H254Q183 499 145 467T107 362Q107 291 141 257T239 223H300Q451 223 451 353Q451 430 414
464ZM213 35Q156 35 116 7T75 -77V-105Q75 -161 112 -186T219 -211H354Q428 -211 469 -182T510 -96V-73Q510 -20 478 7T367 35H213Z" />
<glyph unicode="h" glyph-name="h" horiz-adv-x="584" d="M86 763H127V471Q174 502 228 521T337 541Q389 541 426 518T482 455T501 368V0H460V365Q460 424 425 464T329 504Q272 504 229 490T127 444V0H86V763Z" />
<glyph unicode="i" glyph-name="i" horiz-adv-x="214" d="M82 637T82 650V717Q82 730 95 730H120Q132 730 132 717V650Q132 637 120 637H95Q82 637 82 650ZM86 532H127V0H86V532Z" />
<glyph unicode="j" glyph-name="j" horiz-adv-x="214" d="M82 637T82 650V717Q82 730 95 730H120Q132 730 132 717V650Q132 637 120 637H95Q82 637 82 650ZM86 532H127V24Q127 -101 116 -237H86V532Z" />
<glyph unicode="k" glyph-name="k" horiz-adv-x="480" d="M86 763H127V305H211L399 532H445L241 286L455 0H408L207 268H127V0H86V763Z" />
<glyph unicode="l" glyph-name="l" horiz-adv-x="283" d="M148 0T117 37T86 170V763H127V173Q127 119 137 90T165 50T213 35L274 28V0H211Q148 0 117 37Z" />
<glyph unicode="m" glyph-name="m" horiz-adv-x="958" d="M86 532H115L127 471Q235 541 338 541Q387 541 423 519T480 460Q522 491 588 516T710 541Q762 541 799 518T856 454T875 367V0H834V365Q834 424 798 464T702 504Q652 504 597 486T487 436Q501 400 501
365V0H460V365Q460 424 425 464T329 504Q272 504 229 490T127 444V0H86V532Z" />
<glyph unicode="n" glyph-name="n" horiz-adv-x="584" d="M86 532H115L127 471Q174 502 228 521T337 541Q389 541 426 517T482 454T501 368V0H460V365Q460 424 425 464T329 504Q272 504 229 490T127 444V0H86V532Z" />
<glyph unicode="o" glyph-name="o" horiz-adv-x="578" d="M211 -6T164 16T91 97T66 267Q66 378 91 436T163 516T288 538Q365 538 413 517T486 436T512 267Q512 156 487 97T413 16T288 -6Q211 -6 164 16ZM353 29T391 46T450 114T471 267Q471 368 450 419T391 486T288
503Q223 503 186 487T128 419T107 267Q107 166 127 115T185 46T288 29Q353 29 391 46Z" />
<glyph unicode="p" glyph-name="p" horiz-adv-x="574" d="M86 532H117L127 476Q159 497 215 517T316 538Q384 538 427 499T489 399T508 268Q508 -6 316 -6Q271 -6 222 10T127 53V-237H86V532ZM467 30T467 268Q467 348 445 400T388 478T310 503Q260 503 218 489T127
450V82Q223 30 309 30Q467 30 467 268Z" />
<glyph unicode="q" glyph-name="q" horiz-adv-x="570" d="M447 56Q402 27 351 11T252 -6Q153 -6 110 62T66 268Q66 538 262 538Q384 538 488 528V-237H447V56ZM307 29T352 42T447 83V504H266Q107 504 107 269Q107 144 142 87T258 29Q307 29 352 42Z" />
<glyph unicode="r" glyph-name="r" horiz-adv-x="407" d="M86 532H116L127 433Q171 483 220 510T328 538Q359 538 380 532V491Q355 496 325 496Q268 496 226 475T127 403V0H86V532Z" />
<glyph unicode="s" glyph-name="s" horiz-adv-x="497" d="M224 -6T152 -3T60 3V28H268Q313 28 341 35T386 63T403 127V154Q403 198 374 222T286 246H215Q137 246 97 274T57 370V397Q57 470 99 503T229 537Q270 537 329 534T421 527V502H225Q158 502 127 479T95
397V372Q95 319 125 301T219 283H290Q360 283 400 250T441 157V125Q441 51 395 23T264 -6Q224 -6 152 -3Z" />
<glyph unicode="t" glyph-name="t" horiz-adv-x="355" d="M178 0T143 39T108 163L111 497H25V523L110 532L119 681H149V532H317V497H149V163Q149 90 176 64T244 35L309 29V0H248Q178 0 143 39Z" />
<glyph unicode="u" glyph-name="u" horiz-adv-x="584" d="M168 -6T127 33T86 159V532H127V165Q127 90 160 61T264 31Q319 31 362 44T460 88V532H501V0H472L460 61Q414 31 360 13T249 -6Q168 -6 127 33Z" />
<glyph unicode="v" glyph-name="v" horiz-adv-x="521" d="M22 532H64L259 39L457 532H498L281 0H235L22 532Z" />
<glyph unicode="w" glyph-name="w" horiz-adv-x="781" d="M22 532H64L220 39L372 532H411L562 39L717 532H759L586 0H541L391 483L240 0H196L22 532Z" />
<glyph unicode="x" glyph-name="x" horiz-adv-x="488" d="M268 264L460 0H416L242 239L71 0H29L221 268L29 532H73L247 292L417 531L460 532L268 264Z" />
<glyph unicode="y" glyph-name="y" horiz-adv-x="526" d="M290 0Q257 1 223 25T166 115L22 532H66L205 124Q235 38 300 38L461 532H503L289 -138L244 -237H216L290 0Z" />
<glyph unicode="z" glyph-name="z" horiz-adv-x="489" d="M55 34L392 497H48V532H441V498L101 35H441V0H55V34Z" />
<glyph unicode="{" glyph-name="braceleft" horiz-adv-x="306" d="M178 -210T145 -163T111 -38V242Q111 275 84 295T25 313V355Q112 363 112 426V656Q112 741 149 791T280 842V807Q215 807 184 771T153 648V422Q153 385 130 362T71 334Q106 329 129 305T152 249V-31Q152
-111 182 -143T280 -176V-210Q178 -210 145 -163Z" />
<glyph unicode="|" glyph-name="bar" horiz-adv-x="254" d="M108 770H145V-72H108V770Z" />
<glyph unicode="}" glyph-name="braceright" horiz-adv-x="306" d="M25 -176Q92 -176 122 -144T153 -31V249Q153 281 176 305T235 334Q199 339 176 362T152 422V648Q152 735 121 771T25 807V842Q120 842 156 792T193 656V426Q193 363 280 355V313Q248 315 221
295T194 242V-38Q194 -88 182 -125T133 -186T25 -210V-176Z" />
<glyph unicode="~" glyph-name="asciitilde" horiz-adv-x="466" d="M280 540T265 549T223 578Q205 593 193 601T170 609Q145 609 126 599T70 561L64 575Q96 604 120 619T172 634Q187 634 203 625T243 596Q262 580 274 573T297 565Q322 565 345 579T395 617L403
603Q373 572 349 556T296 540Q280 540 265 549Z" />
<glyph unicode="&#xa0;" glyph-name="uni00A0" horiz-adv-x="277" />
<glyph unicode="&#xa1;" glyph-name="exclamdown" horiz-adv-x="262" d="M157 532T157 519V452Q157 438 144 438H123Q116 438 113 442T109 452V519Q109 532 123 532H144Q157 532 157 519ZM153 -200H112L119 335H148L153 -200Z" />
<glyph unicode="&#xa2;" glyph-name="cent" horiz-adv-x="488" d="M248 -5Q186 -5 144 15T77 95T51 266Q51 378 75 436T141 515T248 536V620H275V535Q345 531 430 509V485Q345 502 247 502Q193 502 160 484T110 414T92 262Q92 168 111 117T164 48T252 29Q306 29
343 34T437 51V25Q390 10 355 4T275 -4V-83H248V-5Z" />
<glyph unicode="&#xa3;" glyph-name="sterling" horiz-adv-x="609" d="M67 29L185 37V344L67 348V372L185 377V530Q185 611 209 655T275 717T380 734Q409 734 489 729L520 727V697H383Q327 697 294 684T244 636T226 532V377L458 373V348L226 344V37H536V0H67V29Z" />
<glyph unicode="&#xa4;" glyph-name="currency" horiz-adv-x="609" d="M462 301T427 256L524 159L501 136L404 233Q359 198 304 198Q247 198 205 234L107 136L84 159L182 257Q147 300 147 356Q147 412 182 455L84 553L107 576L205 478Q247 514 304 514Q359 514
404 479L501 576L524 553L427 456Q462 411 462 356Q462 301 427 256ZM338 229T367 246T414 293T431 356Q431 390 414 419T368 466T304 483Q270 483 242 466T196 420T179 356Q179 322 196 293T241 247T304 229Q338 229 367 246Z" />
<glyph unicode="&#xa5;" glyph-name="yen" horiz-adv-x="609" d="M333 291H529V260H318L315 255V172H529V141H315V0H274V141H80V172H274V255L271 260H80V291H256L34 733H77L295 296L512 733H555L333 291Z" />
<glyph unicode="&#xa6;" glyph-name="brokenbar" horiz-adv-x="254" d="M108 770H145V429H108V770ZM108 256H145V-72H108V256Z" />
<glyph unicode="&#xa7;" glyph-name="section" horiz-adv-x="556" d="M270 -6T201 -4T107 1V29H313Q390 29 418 51T446 116V183Q446 212 440 225T412 244T346 250H204Q126 250 94 272T61 350V409Q61 455 77 475T127 501Q97 508 84 532T71 590V658Q71 727 109 755T225
784Q275 784 350 782T450 777V749H228Q168 749 140 730T111 655V591Q111 550 133 537T209 524H351Q411 524 442 514T484 481T496 419V360Q496 316 482 296T434 272Q466 265 476 243T486 185V115Q486 49 444 22T317 -6Q270 -6 201 -4ZM346 284Q399 284 420 288T449
306T456 356V415Q456 447 448 462T416 483T346 489H209Q166 489 143 483T111 461T101 413V355Q101 318 123 301T209 284H346Z" />
<glyph unicode="&#xa8;" glyph-name="dieresis" horiz-adv-x="421" d="M99 662T95 666T91 675V742Q91 755 104 755H123Q136 755 136 742V675Q136 662 123 662H104Q99 662 95 666ZM293 662T289 666T285 675V742Q285 755 299 755H317Q331 755 331 742V675Q331 669
327 666T317 662H299Q293 662 289 666Z" />
<glyph unicode="&#xa9;" glyph-name="copyright" horiz-adv-x="857" d="M228 0T173 58T94 201T70 368Q70 519 125 625T314 732H565Q694 732 740 621T787 368Q787 265 763 182T688 49T565 0H314Q228 0 173 58ZM564 23Q620 23 665 62T736 180T763 368Q763 521 717
615T565 709H314Q220 709 157 629T94 362Q94 280 119 202T193 74T314 23H564ZM324 147T285 194T246 365Q246 479 285 531T392 583Q425 583 477 578T569 565V548Q527 554 478 557T396 560Q270 560 270 362Q270 266 299 218T396 170Q508 170 575 186V169Q532 156
491 152T392 147Q324 147 285 194Z" />
<glyph unicode="&#xaa;" glyph-name="ordfeminine" horiz-adv-x="407" d="M38 526T69 553T158 581H310V640Q310 684 286 706T200 728H73V751Q141 759 213 759Q282 759 314 730T347 642V360H320L311 406Q307 403 277 390T208 367T138 356Q93 356 66 381T38 453V479Q38
526 69 553ZM175 385T210 394T274 412T310 426V563L161 557Q115 556 94 535T73 478V460Q73 420 95 403T150 385Q175 385 210 394ZM38 296H356V269H38V296Z" />
<glyph unicode="&#xab;" glyph-name="guillemotleft" horiz-adv-x="606" d="M64 279L272 484L296 460L112 279L302 94L276 69L64 279ZM314 279L522 484L546 460L362 279L552 94L526 69L314 279Z" />
<glyph unicode="&#xac;" glyph-name="logicalnot" horiz-adv-x="609" d="M528 495V218H491V458H80V495H528Z" />
<glyph unicode="&#xad;" glyph-name="uni00AD" horiz-adv-x="340" d="M26 309H313V272H26V309Z" />
<glyph unicode="&#xae;" glyph-name="registered" horiz-adv-x="857" d="M228 0T173 58T94 201T70 368Q70 519 125 625T314 732H565Q694 732 740 621T787 368Q787 265 763 182T688 49T565 0H314Q228 0 173 58ZM564 23Q620 23 665 62T736 180T763 368Q763 521 717
615T565 709H314Q220 709 157 629T94 362Q94 280 119 202T193 74T314 23H564ZM280 580H458Q516 580 549 553T583 453Q583 403 566 380T532 352T477 343L585 153H559L451 342L304 347V153H280V580ZM463 363Q514 363 536 380T559 452Q559 509 535 533T463 557H304V363H463Z"
/>
<glyph unicode="&#xaf;" glyph-name="overscore" horiz-adv-x="383" d="M64 710H320V685H64V710Z" />
<glyph unicode="&#xb0;" glyph-name="degree" horiz-adv-x="335" d="M115 506T80 541T44 631Q44 686 79 721T169 757Q223 757 257 722T292 631Q292 576 258 541T169 506Q115 506 80 541ZM213 527T241 556T270 631Q270 676 242 706T169 736Q124 736 95 706T65 631Q65
586 94 557T169 527Q213 527 241 556Z" />
<glyph unicode="&#xb1;" glyph-name="plusminus" horiz-adv-x="609" d="M80 175H528V138H80V175ZM528 488H323V282H286V488H80V525H286V730H323V525H528V488Z" />
<glyph unicode="&#xb2;" glyph-name="uni00B2" horiz-adv-x="457" d="M52 310L263 507Q315 556 335 596T356 687Q356 736 327 763T220 791H74V817Q177 824 229 824Q317 824 355 789T393 690Q393 632 370 587T289 488L103 315H415V280H52V310Z" />
<glyph unicode="&#xb3;" glyph-name="uni00B3" horiz-adv-x="457" d="M108 276T42 283V309H227Q284 309 317 330T350 405V447Q350 492 319 512T244 535L101 540V565L243 570Q342 575 342 651V696Q342 741 311 766T222 791H64V817Q121 824 234 824Q306 824 342
791T378 700V652Q378 604 351 580T294 553Q326 548 357 521T388 445V402Q388 341 349 309T236 276Q108 276 42 283Z" />
<glyph unicode="&#xb4;" glyph-name="acute" horiz-adv-x="205" d="M141 765H180L49 631H25L141 765Z" />
<glyph unicode="&#xb5;" glyph-name="uni00B5" horiz-adv-x="584" />
<glyph unicode="&#xb6;" glyph-name="paragraph" horiz-adv-x="572" d="M288 324Q280 318 258 316T205 314Q127 314 85 357T42 467V593Q42 660 90 696T207 733H549V697H464V0H430V699H322V-270H288V324ZM288 348V699H208Q145 699 111 669T76 588V471Q76 399 120
374T208 348H288Z" />
<glyph unicode="&#xb7;" glyph-name="middot" horiz-adv-x="263" d="M116 354T112 358T108 367V390Q108 403 122 403H143Q156 403 156 390V367Q156 354 143 354H122Q116 354 112 358Z" />
<glyph unicode="&#xb8;" glyph-name="cedilla" horiz-adv-x="264" d="M143 -58T160 -74T178 -119Q178 -150 155 -167T88 -185H64V-168L89 -166Q120 -164 136 -152T152 -115Q152 -93 136 -81T75 -67L127 11H148L103 -57Q143 -58 160 -74Z" />
<glyph unicode="&#xb9;" glyph-name="uni00B9" horiz-adv-x="457" d="M399 313V280H74V313H218V789L82 749V775L220 826H254V313H399Z" />
<glyph unicode="&#xba;" glyph-name="ordmasculine" horiz-adv-x="434" d="M275 756T311 740T367 681T386 556Q386 475 367 432T312 372T217 356Q158 356 122 372T67 431T48 556Q48 638 67 681T121 740T217 756Q275 756 311 740ZM263 385T291 397T334 447T349
556Q349 629 334 666T292 715T217 727Q169 727 142 715T100 666T85 556Q85 483 99 447T142 398T217 385Q263 385 291 397ZM57 296H377V269H57V296Z" />
<glyph unicode="&#xbb;" glyph-name="guillemotright" horiz-adv-x="606" d="M60 93L245 274L55 459L81 484L293 274L84 69L60 93ZM310 93L495 274L305 459L331 484L543 274L334 69L310 93Z" />
<glyph unicode="&#xbc;" glyph-name="onequarter" horiz-adv-x="1275" d="M809 770H843L465 0H430L809 770ZM1111 148H844L835 175L1054 540H1091L875 179H1111V337L1121 386H1147V179H1230V155L1147 148V1H1111V148ZM408 313V280H83V313H227V789L91 749V775L229
826H263V313H408Z" />
<glyph unicode="&#xbd;" glyph-name="onehalf" horiz-adv-x="1275" d="M809 770H843L465 0H430L809 770ZM847 30L1058 227Q1110 276 1130 316T1151 407Q1151 456 1122 483T1015 511H869V537Q972 544 1024 544Q1112 544 1150 509T1188 410Q1188 352 1165 307T1084
208L898 35H1210V0H847V30ZM408 313V280H83V313H227V789L91 749V775L229 826H263V313H408Z" />
<glyph unicode="&#xbe;" glyph-name="threequarters" horiz-adv-x="1275" d="M809 770H843L465 0H430L809 770ZM1111 148H844L835 175L1054 540H1091L875 179H1111V337L1121 386H1147V179H1230V155L1147 148V1H1111V148ZM118 276T52 283V309H237Q294 309 327 330T360
405V447Q360 492 329 512T254 535L111 540V565L253 570Q352 575 352 651V696Q352 741 321 766T232 791H74V817Q131 824 244 824Q316 824 352 791T388 700V652Q388 604 361 580T304 553Q336 548 367 521T398 445V402Q398 341 359 309T246 276Q118 276 52 283Z" />
<glyph unicode="&#xbf;" glyph-name="questiondown" horiz-adv-x="532" d="M357 532T357 519V452Q357 438 344 438H323Q316 438 313 442T309 452V519Q309 532 323 532H344Q357 532 357 519ZM350 200H311Q244 200 205 188T148 147T130 67V-8Q130 -96 165 -133T280
-170Q335 -170 382 -161T486 -129V-156Q398 -207 269 -207Q170 -207 130 -158T89 -11V67Q89 154 142 195T316 236V336H350V200Z" />
<glyph unicode="&#xc0;" glyph-name="Agrave" horiz-adv-x="669" d="M307 733H362L625 0H581L494 241H174L87 0H44L307 733ZM481 279L334 695L184 279H481ZM190 925H229L345 791H321L190 925Z" />
<glyph unicode="&#xc1;" glyph-name="Aacute" horiz-adv-x="669" d="M307 733H362L625 0H581L494 241H174L87 0H44L307 733ZM481 279L334 695L184 279H481ZM441 925H480L349 791H325L441 925Z" />
<glyph unicode="&#xc2;" glyph-name="Acircumflex" horiz-adv-x="669" d="M307 733H362L625 0H581L494 241H174L87 0H44L307 733ZM481 279L334 695L184 279H481ZM321 923H352L469 791H442L336 901L219 791H192L321 923Z" />
<glyph unicode="&#xc3;" glyph-name="Atilde" horiz-adv-x="669" d="M307 733H362L625 0H581L494 241H174L87 0H44L307 733ZM481 279L334 695L184 279H481ZM172 866T198 888T261 911Q283 911 302 902T349 874Q376 857 390 850T422 842Q453 842 473 860T493 912H515Q514
869 490 843T422 817Q402 817 384 826T339 852Q312 870 296 878T261 886Q232 886 213 869T193 817H171Q172 866 198 888Z" />
<glyph unicode="&#xc4;" glyph-name="Adieresis" horiz-adv-x="669" d="M307 733H362L625 0H581L494 241H174L87 0H44L307 733ZM481 279L334 695L184 279H481ZM186 822T183 826T179 835V902Q179 915 192 915H211Q224 915 224 902V835Q224 822 211 822H192Q186
822 183 826ZM435 822T431 826T427 835V902Q427 915 440 915H459Q472 915 472 902V835Q472 822 459 822H440Q435 822 431 826Z" />
<glyph unicode="&#xc5;" glyph-name="Aring" horiz-adv-x="669" d="M307 733H362L625 0H581L494 241H174L87 0H44L307 733ZM481 279L334 695L184 279H481ZM281 761T255 784T229 865Q229 922 255 945T334 969Q387 969 412 946T437 865Q437 808 412 785T334 761Q281
761 255 784ZM377 782T395 800T414 865Q414 912 396 930T334 948Q291 948 272 930T252 865Q252 818 271 800T334 782Q377 782 395 800Z" />
<glyph unicode="&#xc6;" glyph-name="AE" horiz-adv-x="954" d="M555 -3T521 26T486 120V240H236L86 0H44L431 630Q462 681 500 707T599 733Q662 733 737 731T841 728L889 726V695H604Q561 695 543 678T525 623V382L848 379V349L525 345V134Q525 82 551 59T632
35H889V4L842 2Q817 1 748 -1T620 -3Q555 -3 521 26ZM486 276V644L256 276H486Z" />
<glyph unicode="&#xc7;" glyph-name="Ccedilla" horiz-adv-x="578" d="M246 702T199 675T130 575T108 368Q108 226 129 154T196 57T327 31Q448 31 530 45V15Q486 6 434 1T338 -6L304 -57Q344 -58 361 -74T379 -119Q379 -150 356 -167T289 -185H265V-168L290 -166Q321
-164 337 -152T353 -115Q353 -93 337 -81T276 -67L317 -6Q223 -5 170 24T92 134T67 369Q67 515 93 595T176 707T329 739Q365 739 424 733T530 717V688Q500 693 442 697T331 702Q246 702 199 675Z" />
<glyph unicode="&#xc8;" glyph-name="Egrave" horiz-adv-x="582" d="M161 -3T123 24T85 128V598Q85 668 122 700T214 733Q282 733 359 731T464 728L517 726V695H223Q177 695 152 671T126 594V382L476 379V349L126 345V134Q126 74 154 55T231 35H517V4L468 2Q438
1 360 -1T222 -3Q161 -3 123 24ZM166 925H205L321 791H297L166 925Z" />
<glyph unicode="&#xc9;" glyph-name="Eacute" horiz-adv-x="582" d="M161 -3T123 24T85 128V598Q85 668 122 700T214 733Q282 733 359 731T464 728L517 726V695H223Q177 695 152 671T126 594V382L476 379V349L126 345V134Q126 74 154 55T231 35H517V4L468 2Q438
1 360 -1T222 -3Q161 -3 123 24ZM417 925H456L325 791H301L417 925Z" />
<glyph unicode="&#xca;" glyph-name="Ecircumflex" horiz-adv-x="582" d="M161 -3T123 24T85 128V598Q85 668 122 700T214 733Q282 733 359 731T464 728L517 726V695H223Q177 695 152 671T126 594V382L476 379V349L126 345V134Q126 74 154 55T231 35H517V4L468
2Q438 1 360 -1T222 -3Q161 -3 123 24ZM297 923H328L445 791H418L312 901L195 791H168L297 923Z" />
<glyph unicode="&#xcb;" glyph-name="Edieresis" horiz-adv-x="582" d="M161 -3T123 24T85 128V598Q85 668 122 700T214 733Q282 733 359 731T464 728L517 726V695H223Q177 695 152 671T126 594V382L476 379V349L126 345V134Q126 74 154 55T231 35H517V4L468 2Q438
1 360 -1T222 -3Q161 -3 123 24ZM162 822T159 826T155 835V902Q155 915 168 915H187Q200 915 200 902V835Q200 822 187 822H168Q162 822 159 826ZM411 822T407 826T403 835V902Q403 915 416 915H435Q448 915 448 902V835Q448 822 435 822H416Q411 822 407 826Z"
/>
<glyph unicode="&#xcc;" glyph-name="Igrave" horiz-adv-x="210" d="M85 733H126V0H85V733ZM-39 925H0L116 791H92L-39 925Z" />
<glyph unicode="&#xcd;" glyph-name="Iacute" horiz-adv-x="210" d="M85 733H126V0H85V733ZM212 925H251L120 791H96L212 925Z" />
<glyph unicode="&#xce;" glyph-name="Icircumflex" horiz-adv-x="210" d="M85 733H126V0H85V733ZM92 923H123L240 791H213L107 901L-10 791H-37L92 923Z" />
<glyph unicode="&#xcf;" glyph-name="Idieresis" horiz-adv-x="210" d="M85 733H126V0H85V733ZM-43 822T-46 826T-50 835V902Q-50 915 -37 915H-18Q-5 915 -5 902V835Q-5 822 -18 822H-37Q-43 822 -46 826ZM206 822T202 826T198 835V902Q198 915 211 915H230Q243
915 243 902V835Q243 822 230 822H211Q206 822 202 826Z" />
<glyph unicode="&#xd0;" glyph-name="Eth" horiz-adv-x="663" d="M485 733T540 643T596 367Q596 198 536 99T363 0H85V356H16V388H85V733H363Q485 733 540 643ZM457 37T506 126T555 367Q555 484 535 556T473 662T361 696H126V388H322V356H126V37H361Q457 37 506 126Z" />
<glyph unicode="&#xd1;" glyph-name="Ntilde" horiz-adv-x="670" d="M103 733H138L563 73V733H604V0H569L144 661V0H103V733ZM176 866T202 888T265 911Q287 911 306 902T353 874Q380 857 394 850T426 842Q457 842 477 860T497 912H519Q518 869 494 843T426 817Q406
817 388 826T343 852Q316 870 300 878T265 886Q236 886 217 869T197 817H175Q176 866 202 888Z" />
<glyph unicode="&#xd2;" glyph-name="Ograve" horiz-adv-x="679" d="M239 -6T182 20T96 125T67 362Q67 519 97 600T184 710T340 739Q440 739 497 711T584 601T613 362Q613 205 584 126T498 20T340 -6Q239 -6 182 20ZM429 31T477 55T548 149T572 362Q572 511 549
583T478 679T340 702Q255 702 207 679T133 582T108 362Q108 219 130 149T200 55T340 31Q429 31 477 55ZM196 925H235L351 791H327L196 925Z" />
<glyph unicode="&#xd3;" glyph-name="Oacute" horiz-adv-x="679" d="M239 -6T182 20T96 125T67 362Q67 519 97 600T184 710T340 739Q440 739 497 711T584 601T613 362Q613 205 584 126T498 20T340 -6Q239 -6 182 20ZM429 31T477 55T548 149T572 362Q572 511 549
583T478 679T340 702Q255 702 207 679T133 582T108 362Q108 219 130 149T200 55T340 31Q429 31 477 55ZM447 925H486L355 791H331L447 925Z" />
<glyph unicode="&#xd4;" glyph-name="Ocircumflex" horiz-adv-x="679" d="M239 -6T182 20T96 125T67 362Q67 519 97 600T184 710T340 739Q440 739 497 711T584 601T613 362Q613 205 584 126T498 20T340 -6Q239 -6 182 20ZM429 31T477 55T548 149T572 362Q572 511
549 583T478 679T340 702Q255 702 207 679T133 582T108 362Q108 219 130 149T200 55T340 31Q429 31 477 55ZM327 923H358L475 791H448L342 901L225 791H198L327 923Z" />
<glyph unicode="&#xd5;" glyph-name="Otilde" horiz-adv-x="679" d="M239 -6T182 20T96 125T67 362Q67 519 97 600T184 710T340 739Q440 739 497 711T584 601T613 362Q613 205 584 126T498 20T340 -6Q239 -6 182 20ZM429 31T477 55T548 149T572 362Q572 511 549
583T478 679T340 702Q255 702 207 679T133 582T108 362Q108 219 130 149T200 55T340 31Q429 31 477 55ZM178 866T204 888T267 911Q289 911 308 902T355 874Q382 857 396 850T428 842Q459 842 479 860T499 912H521Q520 869 496 843T428 817Q408 817 390 826T345
852Q318 870 302 878T267 886Q238 886 219 869T199 817H177Q178 866 204 888Z" />
<glyph unicode="&#xd6;" glyph-name="Odieresis" horiz-adv-x="679" d="M239 -6T182 20T96 125T67 362Q67 519 97 600T184 710T340 739Q440 739 497 711T584 601T613 362Q613 205 584 126T498 20T340 -6Q239 -6 182 20ZM429 31T477 55T548 149T572 362Q572 511
549 583T478 679T340 702Q255 702 207 679T133 582T108 362Q108 219 130 149T200 55T340 31Q429 31 477 55ZM192 822T189 826T185 835V902Q185 915 198 915H217Q230 915 230 902V835Q230 822 217 822H198Q192 822 189 826ZM441 822T437 826T433 835V902Q433 915
446 915H465Q478 915 478 902V835Q478 822 465 822H446Q441 822 437 826Z" />
<glyph unicode="&#xd7;" glyph-name="multiply" horiz-adv-x="609" d="M304 383L277 356L132 501L159 528L304 383ZM331 356L304 383L449 528L476 501L331 356ZM277 356L304 329L159 184L132 211L277 356ZM331 356L476 211L449 184L304 329L331 356Z" />
<glyph unicode="&#xd8;" glyph-name="Oslash" horiz-adv-x="679" d="M583 621T598 549T613 362Q613 205 584 126T498 20T340 -6Q271 -6 225 5T146 46L116 0H81L126 68Q96 109 82 180T67 362Q67 519 97 600T184 710T340 739Q408 739 454 728T532 686L563 733H598L552
663Q583 621 598 549ZM108 264T117 202T149 104L511 653Q484 682 444 692T340 702Q255 702 207 679T133 582T108 362Q108 264 117 202ZM429 31T477 55T548 149T572 362Q572 462 562 526T529 628L168 79Q194 51 235 41T340 31Q429 31 477 55Z" />
<glyph unicode="&#xd9;" glyph-name="Ugrave" horiz-adv-x="670" d="M204 -6T140 45T75 223V733H116V223Q116 115 170 73T335 31Q446 31 500 73T555 223V733H596V223Q596 97 531 46T335 -6Q204 -6 140 45ZM190 925H229L345 791H321L190 925Z" />
<glyph unicode="&#xda;" glyph-name="Uacute" horiz-adv-x="670" d="M204 -6T140 45T75 223V733H116V223Q116 115 170 73T335 31Q446 31 500 73T555 223V733H596V223Q596 97 531 46T335 -6Q204 -6 140 45ZM441 925H480L349 791H325L441 925Z" />
<glyph unicode="&#xdb;" glyph-name="Ucircumflex" horiz-adv-x="670" d="M204 -6T140 45T75 223V733H116V223Q116 115 170 73T335 31Q446 31 500 73T555 223V733H596V223Q596 97 531 46T335 -6Q204 -6 140 45ZM321 923H352L469 791H442L336 901L219 791H192L321 923Z" />
<glyph unicode="&#xdc;" glyph-name="Udieresis" horiz-adv-x="670" d="M204 -6T140 45T75 223V733H116V223Q116 115 170 73T335 31Q446 31 500 73T555 223V733H596V223Q596 97 531 46T335 -6Q204 -6 140 45ZM186 822T183 826T179 835V902Q179 915 192 915H211Q224
915 224 902V835Q224 822 211 822H192Q186 822 183 826ZM435 822T431 826T427 835V902Q427 915 440 915H459Q472 915 472 902V835Q472 822 459 822H440Q435 822 431 826Z" />
<glyph unicode="&#xdd;" glyph-name="Yacute" horiz-adv-x="612" d="M286 255L46 733H89L307 296L524 733H567L327 255V0H286V255ZM414 925H453L322 791H298L414 925Z" />
<glyph unicode="&#xde;" glyph-name="Thorn" horiz-adv-x="546" d="M85 733H126V590H318Q499 590 499 384Q499 264 443 218T310 172Q273 173 219 175T126 179V0H85V733ZM307 209Q457 209 457 384Q457 479 418 516T316 553H126V209H307Z" />
<glyph unicode="&#xdf;" glyph-name="germandbls" horiz-adv-x="571" d="M339 -8T293 -4T216 7V33Q309 28 381 28Q452 28 479 61T507 134V163Q507 199 480 215T401 244Q360 255 337 264T297 294T280 347Q280 386 302 414T368 480Q411 517 433 546T456 614Q456
672 414 702T291 732Q208 732 163 686T117 553V0H76V555Q76 649 131 709T291 769Q397 769 446 727T495 616Q495 582 482 555T449 508T398 461Q359 429 340 406T320 350Q320 317 345 303T421 275Q462 264 487 254T529 222T547 165V134Q547 65 503 29T386 -8Q339
-8 293 -4Z" />
<glyph unicode="&#xe0;" glyph-name="agrave" horiz-adv-x="541" d="M126 -6T89 29T51 127V160Q51 225 93 263T213 301H418V383Q418 444 385 475T268 507H99V532Q200 541 281 541Q374 541 416 502T459 384V0H429L419 63Q414 59 373 42T280 9T185 -6Q126 -6 89
29ZM232 29T281 41T368 67T418 86V277L214 271Q150 268 121 239T92 160V134Q92 79 124 54T199 29Q232 29 281 41ZM144 765H183L299 631H275L144 765Z" />
<glyph unicode="&#xe1;" glyph-name="aacute" horiz-adv-x="541" d="M126 -6T89 29T51 127V160Q51 225 93 263T213 301H418V383Q418 444 385 475T268 507H99V532Q200 541 281 541Q374 541 416 502T459 384V0H429L419 63Q414 59 373 42T280 9T185 -6Q126 -6 89
29ZM232 29T281 41T368 67T418 86V277L214 271Q150 268 121 239T92 160V134Q92 79 124 54T199 29Q232 29 281 41ZM359 765H398L267 631H243L359 765Z" />
<glyph unicode="&#xe2;" glyph-name="acircumflex" horiz-adv-x="541" d="M126 -6T89 29T51 127V160Q51 225 93 263T213 301H418V383Q418 444 385 475T268 507H99V532Q200 541 281 541Q374 541 416 502T459 384V0H429L419 63Q414 59 373 42T280 9T185 -6Q126 -6
89 29ZM232 29T281 41T368 67T418 86V277L214 271Q150 268 121 239T92 160V134Q92 79 124 54T199 29Q232 29 281 41ZM257 763H288L405 631H378L272 741L155 631H128L257 763Z" />
<glyph unicode="&#xe3;" glyph-name="atilde" horiz-adv-x="541" d="M126 -6T89 29T51 127V160Q51 225 93 263T213 301H418V383Q418 444 385 475T268 507H99V532Q200 541 281 541Q374 541 416 502T459 384V0H429L419 63Q414 59 373 42T280 9T185 -6Q126 -6 89
29ZM232 29T281 41T368 67T418 86V277L214 271Q150 268 121 239T92 160V134Q92 79 124 54T199 29Q232 29 281 41ZM114 706T140 728T203 751Q225 751 244 742T291 714Q318 697 333 690T364 682Q395 682 415 700T435 752H457Q456 709 432 683T364 657Q344 657 326
666T281 692Q254 710 238 718T203 726Q174 726 155 709T135 657H113Q114 706 140 728Z" />
<glyph unicode="&#xe4;" glyph-name="adieresis" horiz-adv-x="541" d="M126 -6T89 29T51 127V160Q51 225 93 263T213 301H418V383Q418 444 385 475T268 507H99V532Q200 541 281 541Q374 541 416 502T459 384V0H429L419 63Q414 59 373 42T280 9T185 -6Q126 -6
89 29ZM232 29T281 41T368 67T418 86V277L214 271Q150 268 121 239T92 160V134Q92 79 124 54T199 29Q232 29 281 41ZM158 662T154 666T150 675V742Q150 755 163 755H182Q195 755 195 742V675Q195 662 182 662H163Q158 662 154 666ZM352 662T348 666T344 675V742Q344
755 358 755H376Q390 755 390 742V675Q390 669 386 666T376 662H358Q352 662 348 666Z" />
<glyph unicode="&#xe5;" glyph-name="aring" horiz-adv-x="541" d="M126 -6T89 29T51 127V160Q51 225 93 263T213 301H418V383Q418 444 385 475T268 507H99V532Q200 541 281 541Q374 541 416 502T459 384V0H429L419 63Q414 59 373 42T280 9T185 -6Q126 -6 89 29ZM232
29T281 41T368 67T418 86V277L214 271Q150 268 121 239T92 160V134Q92 79 124 54T199 29Q232 29 281 41ZM217 598T191 621T165 702Q165 759 191 782T270 806Q323 806 348 783T373 702Q373 645 348 622T270 598Q217 598 191 621ZM313 619T331 637T350 702Q350 749
332 767T270 785Q227 785 208 767T188 702Q188 655 207 637T270 619Q313 619 331 637Z" />
<glyph unicode="&#xe6;" glyph-name="ae" horiz-adv-x="898" d="M122 -6T87 29T52 130V158Q52 222 93 258T208 294H418V383Q418 439 385 473T274 507H100V532Q185 541 281 541Q342 541 386 515T445 434Q462 492 508 515T627 538Q733 538 782 500T831 367Q831 307
796 285T688 262H459Q458 129 507 79T646 28H818V3Q730 -6 636 -6Q554 -6 511 27T442 113Q395 62 328 28T186 -6Q122 -6 87 29ZM687 293Q740 293 766 307T792 368Q792 418 777 447T726 490T626 504Q559 504 525 487T475 426T459 293H687ZM258 29T321 58T433 140Q419
193 418 265L212 264Q150 263 122 235T93 158V135Q93 79 121 54T195 29Q258 29 321 58Z" />
<glyph unicode="&#xe7;" glyph-name="ccedilla" horiz-adv-x="490" d="M351 -6T277 -6L243 -57Q283 -58 300 -74T318 -119Q318 -150 295 -167T228 -185H204V-168L229 -166Q260 -164 276 -152T292 -115Q292 -93 276 -81T215 -67L256 -6Q165 -2 116 58T66 266Q66
373 91 432T161 514T274 537Q359 537 444 529V503H280Q222 503 185 484T128 412T107 263Q107 129 151 79T280 28H452V3Q351 -6 277 -6Z" />
<glyph unicode="&#xe8;" glyph-name="egrave" horiz-adv-x="543" d="M196 -6T151 19T86 104T66 268Q66 373 87 431T154 513T282 538Q384 538 430 500T477 366Q477 246 336 246H107Q107 163 121 117T174 49T286 28H466V3Q369 -6 279 -6Q196 -6 151 19ZM334 277Q389
277 414 296T439 366Q439 420 424 450T375 492T282 505Q212 505 175 486T123 418T107 277H334ZM144 765H183L299 631H275L144 765Z" />
<glyph unicode="&#xe9;" glyph-name="eacute" horiz-adv-x="543" d="M196 -6T151 19T86 104T66 268Q66 373 87 431T154 513T282 538Q384 538 430 500T477 366Q477 246 336 246H107Q107 163 121 117T174 49T286 28H466V3Q369 -6 279 -6Q196 -6 151 19ZM334 277Q389
277 414 296T439 366Q439 420 424 450T375 492T282 505Q212 505 175 486T123 418T107 277H334ZM359 765H398L267 631H243L359 765Z" />
<glyph unicode="&#xea;" glyph-name="ecircumflex" horiz-adv-x="543" d="M196 -6T151 19T86 104T66 268Q66 373 87 431T154 513T282 538Q384 538 430 500T477 366Q477 246 336 246H107Q107 163 121 117T174 49T286 28H466V3Q369 -6 279 -6Q196 -6 151 19ZM334
277Q389 277 414 296T439 366Q439 420 424 450T375 492T282 505Q212 505 175 486T123 418T107 277H334ZM257 763H288L405 631H378L272 741L155 631H128L257 763Z" />
<glyph unicode="&#xeb;" glyph-name="edieresis" horiz-adv-x="543" d="M196 -6T151 19T86 104T66 268Q66 373 87 431T154 513T282 538Q384 538 430 500T477 366Q477 246 336 246H107Q107 163 121 117T174 49T286 28H466V3Q369 -6 279 -6Q196 -6 151 19ZM334 277Q389
277 414 296T439 366Q439 420 424 450T375 492T282 505Q212 505 175 486T123 418T107 277H334ZM158 662T154 666T150 675V742Q150 755 163 755H182Q195 755 195 742V675Q195 662 182 662H163Q158 662 154 666ZM352 662T348 666T344 675V742Q344 755 358 755H376Q390
755 390 742V675Q390 669 386 666T376 662H358Q352 662 348 666Z" />
<glyph unicode="&#xec;" glyph-name="igrave" horiz-adv-x="210" d="M86 532H127V0H86V532ZM237 765H276L392 631H368L237 765Z" />
<glyph unicode="&#xed;" glyph-name="iacute" horiz-adv-x="210" d="M86 532H127V0H86V532ZM196 765H235L104 631H80L196 765Z" />
<glyph unicode="&#xee;" glyph-name="icircumflex" horiz-adv-x="210" d="M86 532H127V0H86V532ZM350 763H381L498 631H471L365 741L248 631H221L350 763Z" />
<glyph unicode="&#xef;" glyph-name="idieresis" horiz-adv-x="210" d="M86 532H127V0H86V532ZM-5 662T-9 666T-13 675V742Q-13 755 0 755H19Q32 755 32 742V675Q32 662 19 662H0Q-5 662 -9 666ZM189 662T185 666T181 675V742Q181 755 195 755H213Q227 755 227
742V675Q227 669 223 666T213 662H195Q189 662 185 666Z" />
<glyph unicode="&#xf0;" glyph-name="eth" horiz-adv-x="578" d="M512 267V266V265V265Q512 155 487 96T413 16T288 -6Q211 -6 164 15T91 96T66 266Q66 376 91 434T163 514T285 536Q351 536 393 519T459 455Q432 593 357 660L198 598L192 618L338 676Q272 726
159 739V768Q294 755 372 689L506 742L514 722L390 673Q449 616 480 517T512 269V267ZM353 29T391 46T450 114T471 266Q471 366 450 417T391 484T288 501Q223 501 186 485T128 417T107 266Q107 165 127 114T185 46T288 29Q353 29 391 46Z" />
<glyph unicode="&#xf1;" glyph-name="ntilde" horiz-adv-x="584" d="M86 532H115L127 471Q174 502 228 521T337 541Q389 541 426 517T482 454T501 368V0H460V365Q460 424 425 464T329 504Q272 504 229 490T127 444V0H86V532ZM135 706T161 728T224 751Q246 751
265 742T312 714Q339 697 354 690T385 682Q416 682 436 700T456 752H478Q477 709 453 683T385 657Q365 657 347 666T302 692Q275 710 259 718T224 726Q195 726 176 709T156 657H134Q135 706 161 728Z" />
<glyph unicode="&#xf2;" glyph-name="ograve" horiz-adv-x="578" d="M211 -6T164 16T91 97T66 267Q66 378 91 436T163 516T288 538Q365 538 413 517T486 436T512 267Q512 156 487 97T413 16T288 -6Q211 -6 164 16ZM353 29T391 46T450 114T471 267Q471 368 450
419T391 486T288 503Q223 503 186 487T128 419T107 267Q107 166 127 115T185 46T288 29Q353 29 391 46ZM162 765H201L317 631H293L162 765Z" />
<glyph unicode="&#xf3;" glyph-name="oacute" horiz-adv-x="578" d="M211 -6T164 16T91 97T66 267Q66 378 91 436T163 516T288 538Q365 538 413 517T486 436T512 267Q512 156 487 97T413 16T288 -6Q211 -6 164 16ZM353 29T391 46T450 114T471 267Q471 368 450
419T391 486T288 503Q223 503 186 487T128 419T107 267Q107 166 127 115T185 46T288 29Q353 29 391 46ZM377 765H416L285 631H261L377 765Z" />
<glyph unicode="&#xf4;" glyph-name="ocircumflex" horiz-adv-x="578" d="M211 -6T164 16T91 97T66 267Q66 378 91 436T163 516T288 538Q365 538 413 517T486 436T512 267Q512 156 487 97T413 16T288 -6Q211 -6 164 16ZM353 29T391 46T450 114T471 267Q471 368
450 419T391 486T288 503Q223 503 186 487T128 419T107 267Q107 166 127 115T185 46T288 29Q353 29 391 46ZM275 763H306L423 631H396L290 741L173 631H146L275 763Z" />
<glyph unicode="&#xf5;" glyph-name="otilde" horiz-adv-x="578" d="M211 -6T164 16T91 97T66 267Q66 378 91 436T163 516T288 538Q365 538 413 517T486 436T512 267Q512 156 487 97T413 16T288 -6Q211 -6 164 16ZM353 29T391 46T450 114T471 267Q471 368 450
419T391 486T288 503Q223 503 186 487T128 419T107 267Q107 166 127 115T185 46T288 29Q353 29 391 46ZM132 706T158 728T221 751Q243 751 262 742T309 714Q336 697 351 690T382 682Q413 682 433 700T453 752H475Q474 709 450 683T382 657Q362 657 344 666T299
692Q272 710 256 718T221 726Q192 726 173 709T153 657H131Q132 706 158 728Z" />
<glyph unicode="&#xf6;" glyph-name="odieresis" horiz-adv-x="578" d="M211 -6T164 16T91 97T66 267Q66 378 91 436T163 516T288 538Q365 538 413 517T486 436T512 267Q512 156 487 97T413 16T288 -6Q211 -6 164 16ZM353 29T391 46T450 114T471 267Q471 368 450
419T391 486T288 503Q223 503 186 487T128 419T107 267Q107 166 127 115T185 46T288 29Q353 29 391 46ZM176 662T172 666T168 675V742Q168 755 181 755H200Q213 755 213 742V675Q213 662 200 662H181Q176 662 172 666ZM370 662T366 666T362 675V742Q362 755 376
755H394Q408 755 408 742V675Q408 669 404 666T394 662H376Q370 662 366 666Z" />
<glyph unicode="&#xf7;" glyph-name="divide" horiz-adv-x="609" d="M282 511T276 517T269 534V568Q269 580 275 586T293 593H315Q340 593 340 568V534Q340 511 315 511H293Q282 511 276 517ZM80 375H528V338H80V375ZM282 119T276 125T269 142V176Q269 188 275
194T293 201H315Q340 201 340 176V142Q340 119 315 119H293Q282 119 276 125Z" />
<glyph unicode="&#xf8;" glyph-name="oslash" horiz-adv-x="578" d="M466 473Q512 410 512 267Q512 156 487 97T413 16T288 -6Q232 -6 193 5T126 42L93 0H64L111 60Q66 124 66 267Q66 378 91 436T163 516T288 538Q345 538 384 528T452 490L485 532H513L466 473ZM107
146T137 93L427 459Q405 485 372 494T288 503Q223 503 186 487T128 419T107 267Q107 146 137 93ZM471 386T440 440L151 73Q172 48 205 39T288 29Q353 29 391 46T450 114T471 267Q471 386 440 440Z" />
<glyph unicode="&#xf9;" glyph-name="ugrave" horiz-adv-x="584" d="M168 -6T127 33T86 159V532H127V165Q127 90 160 61T264 31Q319 31 362 44T460 88V532H501V0H472L460 61Q414 31 360 13T249 -6Q168 -6 127 33ZM156 765H195L311 631H287L156 765Z" />
<glyph unicode="&#xfa;" glyph-name="uacute" horiz-adv-x="584" d="M168 -6T127 33T86 159V532H127V165Q127 90 160 61T264 31Q319 31 362 44T460 88V532H501V0H472L460 61Q414 31 360 13T249 -6Q168 -6 127 33ZM371 765H410L279 631H255L371 765Z" />
<glyph unicode="&#xfb;" glyph-name="ucircumflex" horiz-adv-x="584" d="M168 -6T127 33T86 159V532H127V165Q127 90 160 61T264 31Q319 31 362 44T460 88V532H501V0H472L460 61Q414 31 360 13T249 -6Q168 -6 127 33ZM269 763H300L417 631H390L284 741L167 631H140L269
763Z" />
<glyph unicode="&#xfc;" glyph-name="udieresis" horiz-adv-x="584" d="M168 -6T127 33T86 159V532H127V165Q127 90 160 61T264 31Q319 31 362 44T460 88V532H501V0H472L460 61Q414 31 360 13T249 -6Q168 -6 127 33ZM170 662T166 666T162 675V742Q162 755 175
755H194Q207 755 207 742V675Q207 662 194 662H175Q170 662 166 666ZM364 662T360 666T356 675V742Q356 755 370 755H388Q402 755 402 742V675Q402 669 398 666T388 662H370Q364 662 360 666Z" />
<glyph unicode="&#xfd;" glyph-name="yacute" horiz-adv-x="526" d="M290 0Q257 1 223 25T166 115L22 532H66L205 124Q235 38 300 38L461 532H503L289 -138L244 -237H216L290 0ZM351 765H390L259 631H235L351 765Z" />
<glyph unicode="&#xfe;" glyph-name="thorn" horiz-adv-x="574" d="M86 763H127V476Q159 497 215 517T316 538Q383 538 426 499T488 399T508 268Q508 131 459 63T316 -6Q271 -6 222 10T127 53V-237H86V763ZM467 30T467 267Q467 347 445 400T388 478T310 503Q260
503 218 489T127 450V82Q223 30 309 30Q467 30 467 267Z" />
<glyph unicode="&#xff;" glyph-name="ydieresis" horiz-adv-x="526" d="M290 0Q257 1 223 25T166 115L22 532H66L205 124Q235 38 300 38L461 532H503L289 -138L244 -237H216L290 0ZM150 662T146 666T142 675V742Q142 755 155 755H174Q187 755 187 742V675Q187
662 174 662H155Q150 662 146 666ZM344 662T340 666T336 675V742Q336 755 350 755H368Q382 755 382 742V675Q382 669 378 666T368 662H350Q344 662 340 666Z" />
<glyph unicode="&#x2013;" glyph-name="endash" horiz-adv-x="526" d="M26 309H499V271H26V309Z" />
<glyph unicode="&#x2014;" glyph-name="emdash" horiz-adv-x="749" d="M26 309H722V271H26V309Z" />
<glyph unicode="&#x2018;" glyph-name="quoteleft" horiz-adv-x="165" d="M59 544T59 561V698Q59 724 69 733T93 743Q100 743 105 742V728Q85 728 85 708V646H92Q107 646 107 629V561Q107 552 104 548T92 544H69Q59 544 59 561Z" />
<glyph unicode="&#x2019;" glyph-name="quoteright" horiz-adv-x="165" d="M64 543T60 544V558Q80 558 80 578V640H73Q58 640 58 657V725Q58 734 61 738T73 742H96Q106 742 106 725V588Q106 562 96 553T71 543Q64 543 60 544Z" />
<glyph unicode="&#x201a;" glyph-name="quotesinglbase" horiz-adv-x="165" d="M60 -102V-88Q80 -88 80 -68V-6H73Q58 -6 58 11V79Q58 88 61 92T73 96H96Q106 96 106 79V-58Q106 -84 96 -93T71 -103L60 -102Z" />
<glyph unicode="&#x201c;" glyph-name="quotedblleft" horiz-adv-x="257" d="M59 544T59 561V698Q59 724 69 733T93 743Q100 743 105 742V728Q85 728 85 708V646H92Q107 646 107 629V561Q107 552 104 548T92 544H69Q59 544 59 561ZM151 544T151 561V698Q151 724
161 733T185 743Q192 743 197 742V728Q177 728 177 708V646H184Q199 646 199 629V561Q199 552 196 548T184 544H161Q151 544 151 561Z" />
<glyph unicode="&#x201d;" glyph-name="quotedblright" horiz-adv-x="257" d="M64 543T60 544V558Q80 558 80 578V640H73Q58 640 58 657V725Q58 734 61 738T73 742H96Q106 742 106 725V588Q106 562 96 553T71 543Q64 543 60 544ZM156 543T152 544V558Q172 558
172 578V640H165Q150 640 150 657V725Q150 734 153 738T165 742H188Q198 742 198 725V588Q198 562 188 553T163 543Q156 543 152 544Z" />
<glyph unicode="&#x201e;" glyph-name="quotedblbase" horiz-adv-x="257" d="M60 -102V-88Q80 -88 80 -68V-6H73Q58 -6 58 11V79Q58 88 61 92T73 96H96Q106 96 106 79V-58Q106 -84 96 -93T71 -103L60 -102ZM152 -102V-88Q172 -88 172 -68V-6H165Q150 -6 150 11V79Q150
88 153 92T165 96H188Q198 96 198 79V-58Q198 -84 188 -93T163 -103L152 -102Z" />
<glyph unicode="&#x2022;" glyph-name="bullet" horiz-adv-x="320" d="M126 328T117 336T108 360V402Q108 418 116 427T141 437H177Q212 437 212 402V360Q212 328 177 328H141Q126 328 117 336Z" />
<glyph unicode="&#x2039;" glyph-name="guilsinglleft" horiz-adv-x="356" d="M64 279L272 484L296 460L112 279L302 94L276 69L64 279Z" />
<glyph unicode="&#x203a;" glyph-name="guilsinglright" horiz-adv-x="356" d="M60 93L245 274L55 459L81 484L293 274L84 69L60 93Z" />
</font>
</defs>
</svg>
