<?xml version="1.0" standalone="no"?>
<!DOCTYPE svg PUBLIC "-//W3C//DTD SVG 1.1//EN" "http://www.w3.org/Graphics/SVG/1.1/DTD/svg11.dtd">
<svg xmlns="http://www.w3.org/2000/svg">
<defs >
<font id="JosefinSlab" horiz-adv-x="506" ><font-face
    font-family="Josefin Slab Thin"
    units-per-em="1000"
    panose-1="2 0 0 0 0 0 0 0 0 0"
    ascent="931"
    descent="-250"
    alphabetic="0" />
<glyph unicode=" " glyph-name="space" horiz-adv-x="300" />
<glyph unicode="!" glyph-name="exclam" horiz-adv-x="201" d="M100 36Q93 36 87 42T81 56Q81 65 87 70T100 76Q108 76 114 71T120 56Q120 48 114 42T100 36ZM93 750H107V166H93V750Z" />
<glyph unicode="&quot;" glyph-name="quotedbl" horiz-adv-x="293" d="M196 472V720H214Q213 657 212 596T210 472H196ZM63 472V720H81Q80 657 79 596T77 472H63Z" />
<glyph unicode="#" glyph-name="numbersign" horiz-adv-x="571" d="M182 407Q177 365 172 323T162 239H332Q337 281 342 323T352 407H182ZM304 0Q311 57 317 112T330 225H160Q153 168 147 113T134 0H120Q127 57 133 112T146 225H29Q29 229 29 232T30 239H148Q153
281 158 323T168 407H52Q52 411 52 414T53 421H170L197 643H211L184 421H354L381 643H395L368 421H504Q504 417 504 414T503 407H366Q361 365 356 323T346 239H481Q481 235 481 232T480 225H344Q337 168 331 113T318 0H304Z" />
<glyph unicode="$" glyph-name="dollar" horiz-adv-x="567" d="M372 546V653Q353 667 322 677T245 690V380Q281 369 317 357T383 325T430 271T450 186Q451 142 435 107T391 47T326 7T245 -8V-68H232V-8Q193 -7 163 1T109 20T71 43T46 64V164H60V74Q88 45 130 26T232
6V367Q201 376 172 386T120 413T83 454T66 517Q64 550 73 582T102 642T154 686T232 704V764H245V704Q277 703 316 695T386 660V546H372ZM436 182Q436 230 420 261T376 311T315 342T245 363V6Q282 7 316 20T377 56T420 111T436 182ZM80 530Q80 494 92 470T126 430T174
403T232 383V690Q194 689 166 676T118 640T90 589T80 530Z" />
<glyph unicode="%" glyph-name="percent" horiz-adv-x="726" d="M426 112Q426 92 433 75T454 46T484 26T522 18Q542 18 559 25T590 45T610 75T618 112Q618 131 611 148T590 179T560 199T522 207Q502 207 485 200T454 179T434 149T426 112ZM522 4Q499 4 479 12T444
35T421 70T412 113Q412 135 420 155T444 189T479 212T522 221Q544 221 564 213T599 190T623 155T632 113Q632 90 623 70T599 36T564 13T522 4ZM122 388Q122 368 129 351T150 322T180 302T218 294Q238 294 255 301T286 321T306 351T314 388Q314 407 307 424T286
455T256 475T218 483Q198 483 181 476T150 455T130 425T122 388ZM218 280Q195 280 175 288T140 311T117 346T108 389Q108 411 116 431T140 465T175 488T218 497Q240 497 260 489T295 466T319 431T328 389Q328 366 319 346T295 312T260 289T218 280ZM208 0Q283 126
357 250T506 500H522Q447 374 373 250T224 0H208Z" />
<glyph unicode="&amp;" glyph-name="ampersand" horiz-adv-x="700" d="M481 375H601V361H495V274Q495 249 495 225T494 176T485 129T466 84L525 -11L514 -19L457 72Q431 36 390 15T300 -7Q259 -7 224 8T163 49T121 111T106 187Q106 223 118 255T152 313T204 356T269
379L197 496Q179 526 172 558T169 621T192 679T243 726Q271 743 300 746T358 745T410 729T454 706L448 693Q425 706 401 717T352 733T302 735T251 715Q220 695 203 670T182 618T184 561T208 504L457 98Q468 118 474 140T481 187V375ZM120 187Q120 149 134 117T172
60T229 21T300 7Q347 7 386 28T449 85L277 366Q244 362 215 347T165 307T132 252T120 187Z" />
<glyph unicode="&apos;" glyph-name="quotesingle" horiz-adv-x="147" d="M67 472V720H85Q84 657 83 596T81 472H67Z" />
<glyph unicode="(" glyph-name="parenleft" horiz-adv-x="394" d="M147 292Q147 367 161 435T198 561T250 666T312 747Q313 741 313 736T315 724Q286 691 259 646T209 546T174 427T161 292Q161 221 174 157T209 38T258 -62T315 -140Q314 -146 314 -151T312 -163Q280
-130 251 -83T198 23T161 149T147 292Z" />
<glyph unicode=")" glyph-name="parenright" horiz-adv-x="400" d="M279 292Q279 217 265 149T228 23T175 -82T114 -163Q113 -157 113 -152T111 -140Q140 -107 167 -62T217 38T252 157T265 292Q265 363 252 427T217 546T168 646T111 724Q112 730 112 735T114 747Q145
714 175 667T228 561T265 435T279 292Z" />
<glyph unicode="*" glyph-name="asterisk" horiz-adv-x="335" d="M182 575Q210 559 238 543T294 511L285 496L174 562Q173 530 173 498T172 434H158V561Q130 545 103 530T48 498L39 513L150 576L39 642Q41 645 42 648T46 654Q74 637 102 622T158 589V720H176Q175
687 175 655T174 589Q203 605 231 621T288 653Q290 650 291 647T295 641Q266 624 239 608T182 575Z" />
<glyph unicode="+" glyph-name="plus" horiz-adv-x="543" d="M259 51V225H86V239H259V411H273V239H446V225H273V51H259Z" />
<glyph unicode="," glyph-name="comma" horiz-adv-x="200" d="M127 86Q105 34 84 -17T41 -120H27Q47 -68 65 -17T104 86H127Z" />
<glyph unicode="-" glyph-name="hyphen" horiz-adv-x="300" d="M53 184V198H237V184H53Z" />
<glyph unicode="." glyph-name="period" horiz-adv-x="163" d="M66 20Q66 28 72 34T86 40Q94 40 100 34T106 20Q106 12 100 6T86 0Q78 0 72 6T66 20Z" />
<glyph unicode="/" glyph-name="slash" horiz-adv-x="322" d="M17 -19Q87 171 156 358T295 736H309Q239 546 170 359T31 -19H17Z" />
<glyph unicode="0" glyph-name="zero" horiz-adv-x="616" d="M36 327Q36 375 50 432T97 540T181 624T308 658Q382 658 433 624T515 539T559 430T573 324Q573 255 551 195T492 89T406 19T301 -7Q246 -7 198 19T113 91T57 196T36 327ZM51 328Q51 255 72 196T128
95T209 30T303 7Q351 7 397 29T479 92T537 192T559 323Q559 396 540 455T487 556T407 621T307 644Q253 644 207 623T126 560T71 460T51 328Z" />
<glyph unicode="1" glyph-name="one" horiz-adv-x="249" d="M67 14H147V636H34V650H161V14H241V0H67V14Z" />
<glyph unicode="2" glyph-name="two" horiz-adv-x="495" d="M89 14H435V127H449V0H53Q117 62 178 122T285 240T360 351T389 452Q389 508 373 545T333 604T281 635T228 644Q178 644 147 627T97 583T71 526T64 469Q64 398 104 355L95 347Q74 371 62 399T50 469Q50
509 61 543T95 603T151 643T228 658Q267 658 299 644T354 603T390 542T403 464Q403 406 374 349T298 235T197 124T89 14Z" />
<glyph unicode="3" glyph-name="three" horiz-adv-x="515" d="M178 361L390 636H117V568H103V650H422L223 398Q268 400 308 386T379 344T428 279T446 195Q446 153 430 116T386 52T321 8T242 -8Q197 -8 159 10T93 58L103 71Q127 42 162 24T239 6Q278 6 313 21T375
62T416 122T432 195Q432 234 417 268T375 328T314 369T239 384Q223 384 208 378T178 361Z" />
<glyph unicode="4" glyph-name="four" horiz-adv-x="505" d="M312 14H389V183H37L403 658V197H500V183H403V14H486V0H312V14ZM389 617L67 197H389V617Z" />
<glyph unicode="5" glyph-name="five" horiz-adv-x="543" d="M430 650V568H416V636H157V372Q180 383 204 389T255 395Q297 395 334 380T399 337T443 274T460 195Q460 153 444 116T400 52T335 8T255 -8Q214 -8 179 7T115 48L126 58Q150 33 182 20T253 6Q293 6 328
21T389 62T430 122T446 195Q446 234 431 267T389 326T328 366T253 381Q218 381 189 370T143 341V650H430Z" />
<glyph unicode="6" glyph-name="six" horiz-adv-x="520" d="M63 193Q63 154 78 120T118 61T179 21T253 6Q292 6 327 20T388 60T429 120T444 193Q444 232 429 266T388 325T327 366T253 381Q214 381 179 366T119 326T78 266T63 193ZM50 193Q50 266 81 328T160 445T267
545T382 633Q384 630 387 627T392 620Q325 576 274 533T187 451T127 377T91 314Q119 351 161 373T254 395Q296 395 333 379T398 336T442 272T458 193Q458 151 442 115T399 51T334 8T254 -8Q212 -8 175 8T110 51T66 114T50 193Z" />
<glyph unicode="7" glyph-name="seven" horiz-adv-x="469" d="M415 650L123 0H105L392 636H28V568H14V650H415Z" />
<glyph unicode="8" glyph-name="eight" horiz-adv-x="510" d="M122 511Q122 486 132 465T160 429T202 405T254 396Q281 396 304 404T345 428T372 465T382 511Q382 538 373 562T346 604T305 633T254 644Q226 644 202 633T160 604T132 562T122 511ZM67 195Q67 157
81 123T121 62T180 21T253 5Q293 5 328 20T389 62T430 122T446 195Q446 234 431 267T389 326T328 366T253 381Q214 381 180 367T121 327T82 268T67 195ZM53 195Q53 230 64 261T96 318T143 362T204 389Q162 403 135 437T108 518Q108 547 119 572T150 617T196 647T252
658Q282 658 308 647T353 616T384 570T396 514Q396 470 371 437T304 389Q337 381 365 363T415 320T448 263T460 195Q460 153 444 116T400 52T335 8T255 -8Q213 -8 177 8T113 51T69 116T53 195Z" />
<glyph unicode="9" glyph-name="nine" horiz-adv-x="525" d="M450 432Q450 471 435 505T395 564T334 604T260 619Q221 619 186 605T125 565T84 505T69 432Q69 393 84 359T125 299T186 259T260 244Q299 244 334 258T394 298T435 358T450 432ZM463 432Q463 359 432
297T353 180T246 80T131 -8Q129 -5 126 -2T121 5Q188 49 239 92T326 174T386 248T422 311Q394 274 352 252T259 230Q217 230 180 246T115 289T71 353T55 432Q55 474 71 510T114 574T179 617T259 633Q301 633 338 617T403 574T447 511T463 432Z" />
<glyph unicode=":" glyph-name="colon" horiz-adv-x="175" d="M65 270Q65 278 71 284T85 290Q93 290 99 284T105 270Q105 262 99 256T85 250Q77 250 71 256T65 270ZM65 20Q65 28 71 34T85 40Q93 40 99 34T105 20Q105 12 99 6T85 0Q77 0 71 6T65 20Z" />
<glyph unicode=";" glyph-name="semicolon" horiz-adv-x="201" d="M88 270Q88 278 94 284T108 290Q116 290 122 284T128 270Q128 262 122 256T108 250Q100 250 94 256T88 270ZM112 86Q90 34 69 -17T26 -120H12Q32 -68 50 -17T89 86H112Z" />
<glyph unicode="&lt;" glyph-name="less" horiz-adv-x="680" d="M553 1V-15Q443 48 334 111T115 238Q225 301 334 364T553 491V475Q450 415 347 357T141 238Q244 178 347 120T553 1Z" />
<glyph unicode="=" glyph-name="equal" horiz-adv-x="708" d="M606 164V150H100V164H606ZM606 358V344H100V358H606Z" />
<glyph unicode="&gt;" glyph-name="greater" horiz-adv-x="650" d="M115 -15V1Q218 61 321 119T527 238Q424 298 321 356T115 475V491Q225 428 334 365T553 238Q443 175 334 112T115 -15Z" />
<glyph unicode="?" glyph-name="question" horiz-adv-x="452" d="M44 596Q41 597 38 597T31 599Q51 657 101 694T216 732Q257 732 293 717T355 675T397 613T412 537Q412 483 386 443T314 370Q294 356 278 347T249 325T229 294T222 242V164H208V261Q208 292 219
310T249 343T291 372T339 408Q370 435 384 467T398 537Q398 576 384 609T346 666T288 704T216 718Q186 718 159 709T109 684T70 646T44 596ZM215 25Q208 25 202 31T196 45Q196 54 202 59T215 65Q223 65 229 60T235 45Q235 37 229 31T215 25Z" />
<glyph unicode="@" glyph-name="at" horiz-adv-x="990" d="M310 188Q310 150 324 118T362 61T419 22T490 8Q527 8 560 22T618 60T657 117T671 188Q671 225 657 258T618 316T560 355T490 369Q452 369 420 355T363 316T324 258T310 188ZM885 188Q883 129 871 92T840
35T798 7T749 0H671V54Q671 70 671 85T672 117Q661 90 643 68T602 29T550 3T490 -6Q449 -6 414 9T353 50T311 112T296 188Q296 228 311 264T352 326T414 367T490 383Q552 383 600 349T671 260Q671 289 672 317T675 375H685V13H756Q810 13 839 55T871 188Q871 267
841 337T759 459T638 541T489 571Q410 571 341 541T220 459T138 337T108 188Q108 109 138 40T219 -81T340 -163T489 -193Q551 -193 606 -174T708 -123Q710 -126 712 -128T717 -134Q667 -168 611 -187T489 -207Q407 -207 335 -176T210 -91T125 35T94 189Q94 271
125 343T209 469T335 554T489 585Q571 585 643 554T769 469T854 343T885 188Z" />
<glyph unicode="A" glyph-name="A" horiz-adv-x="828" d="M35 14H109Q185 194 261 372T414 732Q490 551 566 373T718 14H793V0H619V14H703Q671 89 639 164T575 316H253Q221 240 189 165T125 14H209V0H35V14ZM423 675L414 700Q413 698 412 695T409 686Q407 681
405 675Q371 587 334 502T259 330H569L423 675Z" />
<glyph unicode="B" glyph-name="B" horiz-adv-x="516" d="M35 14H106V686H35V700H251Q296 700 333 690T398 659T439 605T454 525Q454 463 423 416T327 352Q357 346 385 332T434 296T468 245T481 180Q481 135 463 102T416 46T348 12T269 0H35V14ZM120 344V14H268Q308
14 344 24T408 54T451 105T467 177Q467 220 449 252T400 304T330 334T249 344H120ZM120 686V358H267Q347 358 393 405T440 528Q440 570 427 600T391 649T335 677T263 686H120Z" />
<glyph unicode="C" glyph-name="C" horiz-adv-x="610" d="M561 546V649Q523 671 480 682T392 694Q321 694 259 667T150 592T76 482T49 348Q49 277 76 215T149 107T257 33T389 6Q437 6 481 18T565 54L574 42Q534 19 489 6T392 -8Q318 -8 253 20T140 96T63 210T35
349Q35 423 63 488T139 602T253 679T392 708Q443 708 488 695T575 658V546H561Z" />
<glyph unicode="D" glyph-name="D" horiz-adv-x="632" d="M35 14H108V686H35V700H245Q317 700 381 676T493 606T569 495T597 350Q597 291 577 229T510 116T391 33T211 0H35V14ZM122 686V14H220Q319 14 388 45T501 125T564 233T584 350Q584 427 558 489T485 595T379
662T251 686H122Z" />
<glyph unicode="E" glyph-name="E" horiz-adv-x="571" d="M35 14H117V686H35V700H522V546H508V686H131V360H483V346H131V14H522V154H536V0H35V14Z" />
<glyph unicode="F" glyph-name="F" horiz-adv-x="557" d="M35 14H117V686H35V700H522V546H508V686H131V360H483V346H131V14H209V0H35V14Z" />
<glyph unicode="G" glyph-name="G" horiz-adv-x="609" d="M574 298V40Q534 17 489 4T392 -10Q318 -10 253 18T140 94T63 208T35 347Q35 421 63 486T139 600T253 677T392 706Q443 706 488 693T575 656L567 644Q529 667 485 679T392 692Q321 692 259 665T150 590T76
480T49 346Q49 275 76 213T149 105T257 31T389 4Q436 4 479 15T560 49V284H388V298H574Z" />
<glyph unicode="H" glyph-name="H" horiz-adv-x="716" d="M507 700H681V686H604V14H681V0H507V14H590V346H126V14H209V0H35V14H112V686H35V700H209V686H126V360H590V686H507V700Z" />
<glyph unicode="I" glyph-name="I" horiz-adv-x="244" d="M35 14H112V686H35V700H209V686H126V14H209V0H35V14Z" />
<glyph unicode="J" glyph-name="J" horiz-adv-x="255" d="M35 700H220V90Q220 34 206 -8T166 -80T107 -125T35 -142V-128Q72 -126 103 -111T157 -67T193 2T206 93V686H35V700Z" />
<glyph unicode="K" glyph-name="K" horiz-adv-x="686" d="M477 14H543Q465 114 387 214T229 414L125 316Q125 240 125 165T126 14H209V0H35V14H112V686H35V700H209V686H126V360Q126 352 126 346T125 331L142 351L493 686H429V700H603V686H515L240 424Q321 321
401 219T563 14H651V0H477V14Z" />
<glyph unicode="L" glyph-name="L" horiz-adv-x="566" d="M35 14H112V686H35V700H209V686H126V14H517V154H531V0H35V14Z" />
<glyph unicode="M" glyph-name="M" horiz-adv-x="961" d="M821 700H921V686H844V14H926V0H752V14H830V645L831 690L822 678Q811 663 788 634T736 566T672 482T604 392T537 305T478 228Q383 352 300 461T134 677L125 690Q125 679 125 668T126 645V14H209V0H35V14H112V686H35V700H135Q201
614 264 532Q291 497 319 460T376 385T430 314T478 253Q564 364 649 476T821 700Z" />
<glyph unicode="N" glyph-name="N" horiz-adv-x="840" d="M35 14H112V686H35V700H138L693 28L712 2L709 34V686H631V700H805V686H723V-32L142 670L124 690L126 664V14H209V0H35V14Z" />
<glyph unicode="O" glyph-name="O" horiz-adv-x="786" d="M35 349Q35 423 63 488T139 602T253 679T392 708Q466 708 531 680T645 603T722 489T751 349Q751 275 723 210T646 97T532 20T392 -8Q318 -8 253 20T140 96T63 210T35 349ZM49 348Q49 277 76 215T149 107T257
33T389 6Q460 6 523 33T634 106T709 215T737 349Q737 420 710 482T635 592T526 666T392 694Q321 694 259 667T150 592T76 482T49 348Z" />
<glyph unicode="P" glyph-name="P" horiz-adv-x="481" d="M35 14H106V686H35V700H246Q275 700 310 690T375 659T425 604T446 522Q446 439 391 390T232 341H120V14H209V0H35V14ZM120 355H235Q293 355 331 371T391 411T423 465T432 522Q432 555 417 584T376 636T314
672T236 686H120V355Z" />
<glyph unicode="Q" glyph-name="Q" horiz-adv-x="808" d="M49 348Q49 277 76 215T149 107T257 33T389 6Q460 6 523 33T634 106T709 215T737 349Q737 420 710 482T635 592T526 666T392 694Q321 694 259 667T150 592T76 482T49 348ZM35 349Q35 423 63 488T139 602T253
679T392 708Q466 708 531 680T645 603T722 489T751 349Q751 291 734 239T685 143T611 66T516 14H773V0H466Q428 -8 392 -8Q318 -8 253 20T140 96T63 210T35 349Z" />
<glyph unicode="R" glyph-name="R" horiz-adv-x="569" d="M35 14H106V686H35V700H246Q275 700 310 690T375 659T425 604T446 522Q446 453 407 407T294 346L450 14H534V0H442L279 344Q256 341 232 341H120V14H209V0H35V14ZM120 355H235Q293 355 331 371T391 411T423
465T432 522Q432 555 417 584T376 636T314 672T236 686H120V355Z" />
<glyph unicode="S" glyph-name="S" horiz-adv-x="478" d="M46 64V164H60V74Q89 45 131 26T236 6Q275 6 311 18T374 54T419 109T436 182Q436 228 421 258T380 308T323 339T256 360T189 380T130 407T86 450T66 517Q64 550 73 583T104 644T158 687T238 704Q254 704
273 702T312 696T351 682T386 660V546H372V653Q352 668 318 679T236 690Q197 690 168 677T119 641T90 590T80 530Q80 476 107 448T174 403T262 375T351 344T421 287T450 186Q451 142 435 106T389 45T321 6T238 -8Q198 -8 167 0T112 19T72 43T46 64Z" />
<glyph unicode="T" glyph-name="T" horiz-adv-x="623" d="M225 14H304V686H49V546H35V700H588V546H574V686H318V14H399V0H225V14Z" />
<glyph unicode="U" glyph-name="U" horiz-adv-x="674" d="M35 700H209V686H126V229Q126 175 141 134T185 64T252 21T337 6Q382 6 421 20T488 63T532 133T548 229V686H465V700H639V686H562V226Q562 169 545 125T497 52T426 7T337 -8Q289 -8 248 7T176 51T129 125T112
226V686H35V700Z" />
<glyph unicode="V" glyph-name="V" horiz-adv-x="844" d="M35 700H209V686H133Q203 519 273 355T413 25L422 0L431 25Q501 191 571 355T711 686H635V700H809V686H726Q650 505 574 327T422 -32Q346 148 270 326T117 686H35V700Z" />
<glyph unicode="W" glyph-name="W" horiz-adv-x="1220" d="M35 700H209V686H133Q202 519 271 355T413 25L422 0Q462 108 508 213T600 425Q573 490 546 555T490 686H411V700H585V686H505Q574 519 643 355T785 25L794 0L803 25Q873 191 943 355T1083 686H1011V700H1185V686H1098Q1022
505 946 327T794 -32L617 385L608 407Q560 297 515 188T422 -32Q346 148 270 326T117 686H35V700Z" />
<glyph unicode="X" glyph-name="X" horiz-adv-x="710" d="M35 700H209V686H150Q201 609 250 533T349 381L357 368L365 381L560 686H501V700H675V686H576Q523 602 471 521T365 356Q421 269 476 185T588 14H675V0H501V14H571L397 279Q386 296 376 314T353 348L345
335Q294 254 242 175T139 14H209V0H35V14H124L345 360L134 686H35V700Z" />
<glyph unicode="Y" glyph-name="Y" horiz-adv-x="718" d="M273 14H352V262Q288 368 225 474T97 686H35V700H209V686H114Q173 588 231 492T347 298L359 272H360L371 298L602 686H509V700H683V686H619Q556 579 493 474T366 262V14H447V0H273V14Z" />
<glyph unicode="Z" glyph-name="Z" horiz-adv-x="629" d="M594 174V0H35V14L545 686H52V735H68V700H565V686L55 14H580V174H594Z" />
<glyph unicode="[" glyph-name="bracketleft" horiz-adv-x="338" d="M83 -149V746H246V732H99V-135H246V-149H83Z" />
<glyph unicode="\" glyph-name="backslash" horiz-adv-x="320" d="M31 736Q101 546 170 359T309 -19H295Q225 171 156 358T17 736H31Z" />
<glyph unicode="]" glyph-name="bracketright" horiz-adv-x="342" d="M251 746V-149H88V-135H235V732H88V746H251Z" />
<glyph unicode="^" glyph-name="asciicircum" horiz-adv-x="470" d="M232 660Q262 615 292 570T352 479H336Q310 517 284 556T232 633Q206 595 180 556T128 479H112Q142 524 172 569T232 660Z" />
<glyph unicode="_" glyph-name="underscore" horiz-adv-x="600" d="M500 0H100V14H500V0Z" />
<glyph unicode="`" glyph-name="grave" horiz-adv-x="200" d="M2 612Q25 579 47 546T92 479H76Q53 512 31 545T-14 612H2Z" />
<glyph unicode="a" glyph-name="a" horiz-adv-x="532" d="M35 188Q35 228 50 264T91 326T153 367T229 383Q291 383 339 349T410 260Q410 289 411 317T414 375H424V14H497V0H410V54Q410 70 410 85T411 117Q400 90 382 68T341 29T289 3T229 -6Q188 -6 153 9T92 50T50
112T35 188ZM49 188Q49 150 63 118T101 61T158 22T229 8Q266 8 299 22T357 60T396 117T410 188Q410 225 396 258T357 316T299 355T229 369Q191 369 159 355T102 316T63 258T49 188Z" />
<glyph unicode="b" glyph-name="b" horiz-adv-x="532" d="M35 14H108V736H35V750H122V321V260Q132 287 150 309T191 348T243 374T303 383Q343 383 378 368T440 326T482 264T497 188Q497 147 482 112T441 51T379 9T303 -6Q272 -6 244 3T192 28T150 67T121 117Q121
101 121 86T122 54V0H35V14ZM483 188Q483 225 469 258T431 316T373 355T303 369Q265 369 233 355T175 316T136 258T122 188Q122 150 136 118T175 61T232 22T303 8Q340 8 373 22T430 60T469 117T483 188Z" />
<glyph unicode="c" glyph-name="c" horiz-adv-x="387" d="M352 37Q326 17 295 6T229 -6Q188 -6 153 9T92 50T50 112T35 188Q35 228 50 264T91 326T153 367T229 383Q264 383 295 372T352 340V253H338V332Q315 349 288 359T229 369Q191 369 159 355T102 316T63 258T49
188Q49 150 63 118T101 61T158 22T229 8Q261 8 290 18T342 47L352 37Z" />
<glyph unicode="d" glyph-name="d" horiz-adv-x="532" d="M410 54Q410 70 410 85T411 117Q400 90 382 68T341 29T289 3T229 -6Q188 -6 153 9T92 50T50 112T35 188Q35 228 50 264T91 326T153 367T229 383Q260 383 288 374T340 349T381 310T410 260V379V736H337V750H424V14H497V0H410V54ZM49
188Q49 150 63 118T101 61T158 22T229 8Q266 8 299 22T357 60T396 117T410 188Q410 225 396 258T357 316T299 355T229 369Q191 369 159 355T102 316T63 258T49 188Z" />
<glyph unicode="e" glyph-name="e" horiz-adv-x="435" d="M229 369Q184 369 147 349T85 295T52 220T56 135Q137 168 218 200T380 266Q360 312 320 340T229 369ZM398 259Q313 224 230 191T61 122Q81 71 126 40T229 8Q265 8 297 21T353 57Q355 54 357 52T362 46Q336
22 302 8T229 -6Q188 -6 153 9T92 50T50 112T35 188Q35 228 50 264T91 326T153 367T229 383Q287 383 332 349T398 259Z" />
<glyph unicode="f" glyph-name="f" horiz-adv-x="281" d="M35 14H96V361H35V375H96V518Q96 573 110 616T150 688T209 732T281 750V736Q247 736 216 721T162 678T124 611T110 522V375H240V361H110V14H209V0H35V14Z" />
<glyph unicode="g" glyph-name="g" horiz-adv-x="533" d="M414 375H498V361H424V-18Q424 -74 410 -116T370 -188T311 -233T239 -250Q198 -248 156 -236T88 -190L101 -183Q125 -213 164 -224T239 -236Q273 -236 304 -221T359 -178T396 -111T410 -22V54Q410 70 410
85T411 117Q400 90 382 68T341 29T289 3T229 -6Q188 -6 153 9T92 50T50 112T35 188Q35 228 50 264T91 326T153 367T229 383Q291 383 339 349T410 260Q410 289 411 317T414 375ZM49 188Q49 150 63 118T101 61T158 22T229 8Q266 8 299 22T357 60T396 117T410 188Q410
225 396 258T357 316T299 355T229 369Q191 369 159 355T102 316T63 258T49 188Z" />
<glyph unicode="h" glyph-name="h" horiz-adv-x="522" d="M313 14H392V277Q390 313 366 339T297 368Q263 368 233 357T179 327T142 280T128 220V14H209V0H35V14H114V736H41V750H128V322L125 277Q145 324 189 353T290 382Q343 382 373 351T406 270V14H487V0H313V14Z" />
<glyph unicode="i" glyph-name="i" horiz-adv-x="244" d="M35 14H117V361H35V375H131V14H209V0H35V14ZM104 500Q104 508 110 514T124 520Q132 520 138 514T144 500Q144 492 138 486T124 480Q116 480 110 486T104 500Z" />
<glyph unicode="j" glyph-name="j" horiz-adv-x="166" d="M35 375H131V-7Q131 -64 116 -107T74 -180L62 -171Q87 -143 102 -103T117 -11V361H35V375ZM104 500Q104 508 110 514T124 520Q132 520 138 514T144 500Q144 492 138 486T124 480Q116 480 110 486T104 500Z" />
<glyph unicode="k" glyph-name="k" horiz-adv-x="487" d="M278 14H351Q312 67 273 119T195 225L121 155V14H209V0H35V14H107V736H34V750H121V176L319 361H243V375H417V361H338Q320 343 304 328T273 298T242 268T207 235Q247 179 287 124T369 14H452V0H278V14Z" />
<glyph unicode="l" glyph-name="l" horiz-adv-x="244" d="M35 14H107V736H34V750H121V14H209V0H35V14Z" />
<glyph unicode="m" glyph-name="m" horiz-adv-x="800" d="M591 14H670V277Q668 313 644 339T575 368Q542 368 512 358T459 328T422 283T406 226V14H487V0H313V14H392V277Q390 313 366 339T297 368Q263 368 233 357T179 327T142 280T128 220V14H209V0H35V14H114V361H39V375H122L124
322Q124 309 124 300T125 277Q145 324 189 353T290 382Q339 382 369 355T405 282Q426 327 469 354T568 382Q621 382 651 351T684 270V14H765V0H591V14Z" />
<glyph unicode="n" glyph-name="n" horiz-adv-x="522" d="M313 14H392V277Q390 313 366 339T297 368Q263 368 233 357T179 327T142 280T128 220V14H209V0H35V14H114V361H39V375H122L124 322Q124 309 124 300T125 277Q145 324 189 353T290 382Q343 382 373 351T406
270V14H487V0H313V14Z" />
<glyph unicode="o" glyph-name="o" horiz-adv-x="461" d="M36 188Q36 228 51 264T92 326T154 368T230 384Q270 384 306 369T368 327T410 264T426 188Q426 147 411 112T369 51T306 9T230 -6Q189 -6 154 9T93 50T51 112T36 188ZM50 188Q50 150 64 118T102 61T159
22T230 8Q267 8 300 22T358 60T397 117T411 188Q411 225 397 258T358 316T300 355T230 369Q192 369 160 355T103 316T64 258T50 188Z" />
<glyph unicode="p" glyph-name="p" horiz-adv-x="532" d="M42 -236H108V361H35V375H118Q118 346 119 316T121 257Q142 312 191 346T303 381Q343 381 378 366T440 325T482 263T497 187Q497 146 482 111T441 49T379 8T303 -8Q272 -8 244 1T192 26T150 65T122 115Q122
101 122 88T123 61V-236H216V-250H42V-236ZM483 187Q483 224 469 257T431 314T373 353T303 367Q265 367 233 353T175 315T136 257T122 187Q122 149 136 117T175 59T232 20T303 6Q340 6 373 20T430 59T469 116T483 187Z" />
<glyph unicode="q" glyph-name="q" horiz-adv-x="532" d="M321 -236H409V61Q409 75 409 88T410 115Q399 88 382 66T341 27T289 1T229 -8Q188 -8 153 7T92 49T50 110T35 187Q35 227 50 262T91 324T153 366T229 381Q292 381 341 347T411 257Q411 286 412 316T414
375H497V361H424V-236H495V-250H321V-236ZM49 187Q49 149 63 117T101 59T158 20T229 6Q266 6 299 20T357 59T396 116T410 187Q410 224 396 257T357 314T299 353T229 367Q191 367 159 353T102 315T63 257T49 187Z" />
<glyph unicode="r" glyph-name="r" horiz-adv-x="326" d="M35 14H114V361H39V375H122L124 322Q124 309 124 300T125 277Q146 325 190 352T291 382V368Q258 367 229 356T177 325T141 278T128 220V14H209V0H35V14Z" />
<glyph unicode="s" glyph-name="s" horiz-adv-x="315" d="M69 91V32Q92 15 119 11T172 6Q187 6 204 12T235 29T260 58T270 98Q270 129 255 146T218 172T170 189T121 205T84 232T69 280Q69 304 77 322T100 353T133 372T170 379Q170 379 182 379T209 376T241 367T269
349V284H255V343Q246 352 232 356T205 363T181 365T168 365Q155 365 141 361T113 348T92 323T83 285Q82 256 97 241T134 216T183 200T231 182T269 153T284 101Q284 82 277 63T256 28T220 2T168 -8Q163 -8 150 -7T119 -3T85 7T55 26V91H69Z" />
<glyph unicode="t" glyph-name="t" horiz-adv-x="300" d="M124 619H138V375H265V361H138V14H225V0H124V361H35V375H124V619Z" />
<glyph unicode="u" glyph-name="u" horiz-adv-x="518" d="M35 375H128V98Q130 62 154 36T223 7Q257 7 287 18T341 48T378 95T392 155V361H313V375H406V14H483V0H400L397 53L395 98Q375 50 331 22T230 -7Q177 -7 147 24T114 105V361H35V375Z" />
<glyph unicode="v" glyph-name="v" horiz-adv-x="590" d="M35 375H196V361H122Q166 273 209 185T298 8Q339 90 384 180T474 361H416V375H555V361H489Q441 264 394 169T298 -23Q250 74 203 169T107 361H35V375Z" />
<glyph unicode="w" glyph-name="w" horiz-adv-x="860" d="M686 375H825V361H761Q713 264 666 169T570 -23L434 251L298 -23Q250 74 203 169T107 361H35V375H196V361H122Q166 272 209 184T298 8Q330 73 362 137T426 266Q414 289 402 313T379 361H305V375H466V361H394Q438
272 481 184T570 8Q615 97 658 184T746 361H686V375Z" />
<glyph unicode="x" glyph-name="x" horiz-adv-x="488" d="M35 375H209V361H121L240 198L357 361H279V375H453V361H374L248 186Q280 142 311 100T374 14H453V0H279V14H358Q328 56 299 95T240 175Q211 134 183 94T125 14H209V0H35V14H107Q139 57 169 100T231 187Q199
231 167 273T103 361H35V375Z" />
<glyph unicode="y" glyph-name="y" horiz-adv-x="590" d="M92 -236H173Q202 -178 231 -120T289 -4Q243 87 198 178T107 361H35V375H196V361H125Q168 273 211 187T298 14Q340 97 383 185T471 361H416V375H555V361H489Q414 211 341 63T192 -236H266V-250H92V-236Z" />
<glyph unicode="z" glyph-name="z" horiz-adv-x="429" d="M394 65V0H35V14Q119 102 197 187T359 361H47V410H61V375H377V361Q293 273 215 188T53 14H380V65H394Z" />
<glyph unicode="{" glyph-name="braceleft" horiz-adv-x="272" d="M30 287V311Q54 312 69 325T94 359T106 402T109 446V628Q109 673 116 697T136 732T163 744T195 746H232V732H175Q144 732 134 706T123 620V470Q123 423 118 393T103 345T82 316T57 299Q70 291
82 281T103 252T117 204T123 128V-22Q123 -82 133 -108T175 -134H232V-148H195Q175 -148 159 -146T132 -130T115 -85T109 6V152Q109 172 106 195T94 239T70 272T30 287Z" />
<glyph unicode="|" glyph-name="bar" horiz-adv-x="219" d="M99 -232V700H113V-232H99Z" />
<glyph unicode="}" glyph-name="braceright" horiz-adv-x="320" d="M290 311V287Q258 285 242 265T219 217T212 161T211 116V-30Q211 -76 204 -100T184 -135T157 -147T125 -148H88V-134H145Q176 -134 186 -108T197 -22V165Q197 199 204 222T221 260T242 285T263
299Q250 306 238 316T217 344T203 393T197 470V620Q197 680 187 706T145 732H88V746H125Q141 746 156 745T184 733T203 698T211 628V482Q211 470 211 454T213 418T219 381T232 347T255 322T290 311Z" />
<glyph unicode="~" glyph-name="asciitilde" horiz-adv-x="489" d="M265 497Q249 515 237 521T211 527Q203 527 193 525T172 516T155 500T145 472Q142 473 139 473T132 474Q133 492 141 505T160 526T186 537T214 541Q234 541 250 531T283 503Q299 485 311 479T337
473Q345 473 355 475T376 484T393 500T403 528Q406 527 409 527T416 526Q415 508 407 495T388 474T362 463T334 459Q314 459 298 469T265 497Z" />
<glyph unicode="&#xa0;" glyph-name="uni00A0" horiz-adv-x="300" />
<glyph unicode="&#xa1;" glyph-name="exclamdown" horiz-adv-x="200" d="M100 504Q93 504 87 498T81 484Q81 475 87 470T100 464Q108 464 114 469T120 484Q120 492 114 498T100 504ZM93 -210H107V374H93V-210Z" />
<glyph unicode="&#xa2;" glyph-name="cent" horiz-adv-x="385" d="M343 47L353 37Q327 17 296 6T229 -6V-68H215V-5Q177 -2 145 14T88 55T50 115T36 188Q36 227 50 261T88 321T144 363T215 382V438H229V383Q264 383 296 372T353 340Q352 339 352 339H353V252H339V332Q316
349 288 359T229 369V8Q261 8 290 18T343 47ZM50 188Q50 152 62 121T97 65T150 26T215 8V368Q180 365 150 350T98 311T63 256T50 188Z" />
<glyph unicode="&#xa3;" glyph-name="sterling" horiz-adv-x="574" d="M486 0H26V14H70Q88 14 98 21T114 46T120 92T122 164V311H57V325H122V500Q122 570 165 602T281 634Q348 634 382 610T437 545L427 539Q414 563 401 578T371 603T333 616T281 620Q239 620 211
611T167 585T143 548T136 504V325H265V311H136V109Q136 80 132 54T113 14H472V123H486V0Z" />
<glyph unicode="&#xa4;" glyph-name="currency" horiz-adv-x="500" d="M129 361Q129 336 138 315T164 277T201 252T247 242Q271 242 292 251T330 277T355 314T365 361Q365 386 356 407T330 445T293 470T247 480Q223 480 202 471T164 445T139 408T129 361ZM115
361Q115 386 123 408T147 448L109 486L119 496L157 458Q174 475 197 484T247 494Q273 494 296 484T337 457L375 495L385 485L347 447Q362 430 370 408T379 361Q379 335 370 312T344 271L385 230L375 220L334 261Q298 228 247 228Q222 228 200 236T160 260L119 219L109
229L150 270Q115 308 115 361Z" />
<glyph unicode="&#xa5;" glyph-name="yen" horiz-adv-x="638" d="M503 100H344V14H425V0H251V14H330V100H170V114H330V262Q329 262 329 263H170V277H321L75 686H13V700H187V686H92Q150 589 210 494T325 298L337 272H338L349 298L580 686H487V700H661V686H597Q536
583 475 482T353 277H503V263H344V262V114H503V100Z" />
<glyph unicode="&#xa6;" glyph-name="brokenbar" horiz-adv-x="215" d="M116 -233H102V117H116V-233ZM116 350H102V700H116V350Z" />
<glyph unicode="&#xa7;" glyph-name="section" horiz-adv-x="500" d="M173 311Q187 286 210 274T261 262Q281 262 298 270T328 291T348 322T355 358Q355 382 346 401T321 432T288 452T250 459Q228 459 211 451T183 428T165 397T159 363Q159 336 173 311ZM248 154L161
304Q145 330 145 362Q145 382 152 402T174 437T208 462T252 472Q285 472 313 456Q296 483 279 512T249 569T227 618T218 653Q218 668 225 679T245 700T271 716T298 730Q300 727 301 724T305 718Q294 711 282 705T258 691T240 675T232 652Q232 637 240 616T266 566L353
415Q368 388 368 359Q368 338 360 318T338 282T303 257T259 247Q228 247 200 264L264 154Q281 124 288 103T295 68Q295 51 288 39T269 18T243 3T216 -10Q214 -7 213 -4T209 2Q220 9 232 15T256 29T274 45T282 68Q282 83 274 104T248 154Z" />
<glyph unicode="&#xa8;" glyph-name="dieresis" horiz-adv-x="370" d="M247 500Q247 508 253 514T267 520Q275 520 281 514T287 500Q287 492 281 486T267 480Q259 480 253 486T247 500ZM82 500Q82 508 88 514T102 520Q110 520 116 514T122 500Q122 492 116 486T102
480Q94 480 88 486T82 500Z" />
<glyph unicode="&#xa9;" glyph-name="copyright" horiz-adv-x="793" d="M399 132Q449 132 493 150T570 200T622 276T641 371Q641 423 622 467T570 544T493 595T399 613Q350 613 307 595T230 545T178 468T159 371Q159 320 178 277T230 201T306 150T399 132ZM400
118Q346 118 300 137T219 190T165 270T145 372Q145 427 164 474T218 555T299 608T400 627Q454 627 500 608T581 555T635 474T655 372Q655 317 636 271T582 190T501 137T400 118ZM495 464V511Q461 531 419 531Q387 531 359 519T310 485T277 435T264 374Q264 342
276 314T309 265T358 232T418 220Q440 220 460 225T497 241L501 236Q483 225 463 219T419 213Q386 213 357 226T305 261T271 312T258 375Q258 409 270 438T305 490T356 524T419 537Q463 537 502 515V464H495Z" />
<glyph unicode="&#xaa;" glyph-name="ordfeminine" horiz-adv-x="585" d="M83 442Q83 470 94 496T124 541T168 571T223 582Q268 582 303 557T354 494Q354 514 354 535T357 576H364V316H417V306H354V345Q354 356 354 367T354 390Q347 371 334 355T304 327T267 309T223
302Q194 302 169 312T124 342T94 387T83 442ZM93 442Q93 414 103 391T131 350T172 322T223 312Q250 312 273 322T315 349T344 390T354 442Q354 468 344 492T316 534T274 562T223 572Q196 572 173 562T132 534T104 492T93 442Z" />
<glyph unicode="&#xab;" glyph-name="guillemotleft" horiz-adv-x="601" d="M459 77L288 239Q331 280 373 319T459 400V383Q424 347 388 311T317 239Q352 202 388 166T459 93V77ZM288 77L117 239Q160 280 202 319T288 400V383Q253 347 217 311T146 239Q181 202
217 166T288 93V77Z" />
<glyph unicode="&#xac;" glyph-name="logicalnot" horiz-adv-x="559" d="M446 148V227H100V241H460V148H446Z" />
<glyph unicode="&#xad;" glyph-name="uni00AD" horiz-adv-x="300" d="M53 184V198H237V184H53Z" />
<glyph unicode="&#xae;" glyph-name="registered" horiz-adv-x="801" d="M399 132Q449 132 493 150T570 200T622 276T641 371Q641 423 622 467T570 544T493 595T399 613Q350 613 307 595T230 545T178 468T159 371Q159 320 178 277T230 201T306 150T399 132ZM400
118Q346 118 300 137T219 190T165 270T145 372Q145 427 164 474T218 555T299 608T400 627Q454 627 500 608T581 555T635 474T655 372Q655 317 636 271T582 190T501 137T400 118ZM311 217H344V534H311V541H410Q423 541 439 537T470 522T494 495T504 457Q504 424
486 403T433 374L506 217H546V210H503L426 373Q421 372 415 372T403 371H351V217H393V210H311V217ZM351 378H405Q432 378 450 385T478 404T493 430T498 457Q498 488 472 511T405 534H351V378Z" />
<glyph unicode="&#xaf;" glyph-name="overscore" horiz-adv-x="399" d="M85 492V506H315V492H85Z" />
<glyph unicode="&#xb0;" glyph-name="degree" horiz-adv-x="282" d="M138 498Q164 498 182 516T200 560Q200 586 182 604T138 622Q112 622 94 604T75 560Q75 534 93 516T138 498ZM61 559Q61 592 83 614T138 636Q170 636 192 614T214 559Q214 527 192 506T138 484Q105
484 83 505T61 559Z" />
<glyph unicode="&#xb1;" glyph-name="plusminus" horiz-adv-x="524" d="M259 211V385H86V399H259V571H273V399H446V385H273V211H259ZM446 136H86V150H446V136Z" />
<glyph unicode="&#xb2;" glyph-name="twosuperior" horiz-adv-x="398" d="M120 382H292V438H298V375H102Q134 406 164 435T217 493T254 548T269 598Q269 626 261 644T241 673T215 688T189 693Q164 693 149 685T124 663T112 635T108 607Q108 572 128 550L123 546Q113
558 107 572T101 607Q101 626 106 643T123 673T151 693T189 700Q208 700 224 693T251 673T269 643T276 604Q276 576 261 548T224 491T174 436T120 382Z" />
<glyph unicode="&#xb3;" glyph-name="threesuperior" horiz-adv-x="419" d="M138 558L242 693H108V660H101V700H258L160 576Q182 577 202 570T237 550T261 517T270 476Q270 455 262 437T240 406T208 384T169 376Q147 376 129 385T96 409L101 415Q113 401 130 392T168
383Q187 383 204 390T235 410T255 440T263 476Q263 495 256 512T235 541T205 561T168 569Q160 569 153 566T138 558Z" />
<glyph unicode="&#xb4;" glyph-name="acute" horiz-adv-x="218" d="M100 479Q123 512 145 545T190 612H206Q183 579 161 546T116 479H100Z" />
<glyph unicode="&#xb5;" glyph-name="mu" horiz-adv-x="545" d="M316 375H409V14H486V0H403L400 53L398 98Q378 50 334 22T233 -7Q197 -7 171 8T131 49V-201H117V361H38V375H131V98Q133 62 157 36T226 7Q260 7 290 18T344 48T381 95T395 155V361H316V375Z" />
<glyph unicode="&#xb6;" glyph-name="paragraph" horiz-adv-x="525" d="M215 0H201V423Q167 423 137 435T85 470T51 522T38 586Q38 620 50 650T85 702T137 737T201 750H486V736H378V14H486V0H364V736H215V0Z" />
<glyph unicode="&#xb7;" glyph-name="middot" horiz-adv-x="163" d="M66 280Q66 288 72 294T86 300Q94 300 100 294T106 280Q106 272 100 266T86 260Q78 260 72 266T66 280Z" />
<glyph unicode="&#xb8;" glyph-name="cedilla" horiz-adv-x="452" d="M193 0H207V-6Q207 -32 221 -42T248 -61Q271 -76 280 -94T290 -127Q290 -178 265 -200T206 -223Q180 -223 158 -209T125 -165Q129 -164 132 -163T140 -161Q146 -182 163 -195T206 -209Q237
-209 256 -189T276 -137Q276 -109 263 -94T235 -69T206 -47T193 -16V0Z" />
<glyph unicode="&#xb9;" glyph-name="onesuperior" horiz-adv-x="249" d="M85 407H121V694H70V700H128V407H164V401H85V407Z" />
<glyph unicode="&#xba;" glyph-name="ordmasculine" horiz-adv-x="469" d="M91 442Q91 470 102 496T132 541T176 572T231 583Q260 583 286 572T331 542T361 496T372 442Q372 412 361 387T331 343T286 313T231 302Q201 302 176 312T132 342T102 387T91 442ZM101
442Q101 414 111 391T139 350T180 322T231 312Q258 312 281 322T323 349T351 390T361 442Q361 468 351 492T323 534T282 562T231 572Q203 572 180 562T139 534T111 492T101 442Z" />
<glyph unicode="&#xbb;" glyph-name="guillemotright" horiz-adv-x="601" d="M117 77L288 239Q245 280 203 319T117 400V383Q152 347 188 311T259 239Q224 202 188 166T117 93V77ZM288 77L459 239Q416 280 374 319T288 400V383Q323 347 359 311T430 239Q395 202
359 166T288 93V77Z" />
<glyph unicode="&#xbc;" glyph-name="onequarter" horiz-adv-x="968" d="M295 -19Q365 171 434 358T573 735H587Q517 545 448 358T309 -19H295ZM706 10H763V136H501L773 490V147H845V136H773V10H835V0H706V10ZM763 459L524 147H763V459ZM161 244H218V685H138V695H228V244H285V234H161V244Z"
/>
<glyph unicode="&#xbd;" glyph-name="onehalf" horiz-adv-x="1069" d="M145 244H201V685H121V695H211V244H268V234H145V244ZM616 10H860V90H870V0H590Q636 44 679 86T755 170T808 248T828 319Q828 359 817 385T788 426T752 448T714 455Q679 455 657 443T621 412T603
372T598 331Q598 281 627 251L620 245Q605 262 597 282T588 331Q588 360 596 384T620 426T660 454T714 465Q742 465 764 455T803 426T829 383T838 328Q838 287 817 247T764 166T692 87T616 10ZM295 -19Q365 171 434 358T573 735H587Q517 545 448 358T309 -19H295Z"
/>
<glyph unicode="&#xbe;" glyph-name="threequarters" horiz-adv-x="1276" d="M219 485L382 697H172V645H161V708H407L254 513Q288 515 319 504T374 472T412 421T426 357Q426 324 414 296T380 246T330 213T268 200Q234 200 205 214T154 251L161 261Q180 238 207
225T266 211Q296 211 323 222T371 254T403 300T415 357Q415 387 403 413T371 459T324 490T266 502Q254 502 242 498T219 485ZM460 -19Q530 171 599 358T738 736H752Q682 546 613 359T474 -19H460ZM904 10H962V136H700L972 490V147H1045V136H972V10H1034V0H904V10ZM962
459L722 147H962V459Z" />
<glyph unicode="&#xbf;" glyph-name="questiondown" horiz-adv-x="410" d="M405 -57Q408 -58 411 -58T418 -60Q398 -118 348 -155T233 -193Q192 -193 156 -178T94 -136T52 -74T37 2Q37 56 63 96T135 169Q155 183 171 192T200 214T220 245T227 297V375H241V278Q241
247 230 229T200 196T158 167T110 131Q79 104 65 72T51 2Q51 -37 65 -70T103 -127T161 -165T233 -179Q263 -179 290 -170T340 -145T379 -107T405 -57ZM234 514Q241 514 247 508T253 494Q253 485 247 480T234 474Q226 474 220 479T214 494Q214 502 220 508T234 514Z"
/>
<glyph unicode="&#xc0;" glyph-name="Agrave" horiz-adv-x="828" d="M35 14H109Q185 194 261 372T414 732Q490 551 566 373T718 14H793V0H619V14H703Q671 89 639 164T575 316H253Q221 240 189 165T125 14H209V0H35V14ZM423 675L414 700Q413 698 412 695T409 686Q407
681 405 675Q371 587 334 502T259 330H569L423 675ZM329 883Q352 850 374 817T419 750H403Q380 783 358 816T313 883H329Z" />
<glyph unicode="&#xc1;" glyph-name="Aacute" horiz-adv-x="828" d="M408 750Q431 783 453 816T498 883H514Q491 850 469 817T424 750H408ZM35 14H109Q185 194 261 372T414 732Q490 551 566 373T718 14H793V0H619V14H703Q671 89 639 164T575 316H253Q221 240 189
165T125 14H209V0H35V14ZM423 675L414 700Q413 698 412 695T409 686Q407 681 405 675Q371 587 334 502T259 330H569L423 675Z" />
<glyph unicode="&#xc2;" glyph-name="Acircumflex" horiz-adv-x="828" d="M414 931Q444 886 474 841T534 750H518Q492 788 466 827T414 904Q388 866 362 827T310 750H294Q324 795 354 840T414 931ZM35 14H109Q185 194 261 372T414 732Q490 551 566 373T718 14H793V0H619V14H703Q671
89 639 164T575 316H253Q221 240 189 165T125 14H209V0H35V14ZM423 675L414 700Q413 698 412 695T409 686Q407 681 405 675Q371 587 334 502T259 330H569L423 675Z" />
<glyph unicode="&#xc3;" glyph-name="Atilde" horiz-adv-x="828" d="M405 790Q389 808 377 814T351 820Q343 820 333 818T312 809T295 793T285 765Q282 766 279 766T272 767Q273 785 281 798T300 819T326 830T354 834Q374 834 390 824T423 796Q439 778 451 772T477
766Q485 766 495 768T516 777T533 793T543 821Q546 820 549 820T556 819Q555 801 547 788T528 767T502 756T474 752Q454 752 438 762T405 790ZM35 14H109Q185 194 261 372T414 732Q490 551 566 373T718 14H793V0H619V14H703Q671 89 639 164T575 316H253Q221 240
189 165T125 14H209V0H35V14ZM423 675L414 700Q413 698 412 695T409 686Q407 681 405 675Q371 587 334 502T259 330H569L423 675Z" />
<glyph unicode="&#xc4;" glyph-name="Adieresis" horiz-adv-x="828" d="M477 790Q477 798 483 804T497 810Q505 810 511 804T517 790Q517 782 511 776T497 770Q489 770 483 776T477 790ZM312 790Q312 798 318 804T332 810Q340 810 346 804T352 790Q352 782 346
776T332 770Q324 770 318 776T312 790ZM35 14H109Q185 194 261 372T414 732Q490 551 566 373T718 14H793V0H619V14H703Q671 89 639 164T575 316H253Q221 240 189 165T125 14H209V0H35V14ZM423 675L414 700Q413 698 412 695T409 686Q407 681 405 675Q371 587 334
502T259 330H569L423 675Z" />
<glyph unicode="&#xc5;" glyph-name="Aring" horiz-adv-x="828" d="M35 14H109Q185 194 261 372T414 732Q490 551 566 373T718 14H793V0H619V14H703Q671 89 639 164T575 316H253Q221 240 189 165T125 14H209V0H35V14ZM423 675L414 700Q413 698 412 695T409 686Q407
681 405 675Q371 587 334 502T259 330H569L423 675ZM366 834Q366 814 380 800T415 785Q435 785 449 799T464 834Q464 854 450 868T415 883Q395 883 381 869T366 834ZM352 834Q352 861 370 879T415 897Q442 897 460 879T478 834Q478 807 460 789T415 771Q388 771
370 789T352 834Z" />
<glyph unicode="&#xc6;" glyph-name="AE" horiz-adv-x="775" d="M712 546V686H416V360H687V346H416V14H726V154H740V0H402V316H255Q223 240 191 165T127 14H209V0H35V14H112Q185 186 257 356T402 700H726V546H712ZM402 330V666Q370 580 333 498T261 330H402Z" />
<glyph unicode="&#xc7;" glyph-name="Ccedilla" horiz-adv-x="610" d="M561 484V649Q523 671 480 682T392 694Q321 694 259 667T150 592T76 482T49 348Q49 277 76 215T149 107T257 33T389 6Q437 6 481 18T565 54L574 42Q534 19 489 6T392 -8Q392 -17 394 -21Q399
-38 410 -46T433 -61Q456 -76 465 -94T475 -127Q475 -178 450 -200T391 -223Q365 -223 343 -209T310 -165L325 -161Q331 -182 348 -195T391 -209Q422 -209 441 -189T461 -137Q461 -109 448 -94T420 -69T391 -47T378 -16V-7Q306 -4 244 24T135 101T62 213T35 349Q35
423 63 488T139 602T253 679T392 708Q443 708 488 695T575 658V484H561Z" />
<glyph unicode="&#xc8;" glyph-name="Egrave" horiz-adv-x="571" d="M35 14H117V686H35V700H522V546H508V686H131V360H483V346H131V14H522V154H536V0H35V14ZM215 883Q238 850 260 817T305 750H289Q266 783 244 816T199 883H215Z" />
<glyph unicode="&#xc9;" glyph-name="Eacute" horiz-adv-x="571" d="M35 14H117V686H35V700H522V546H508V686H131V360H483V346H131V14H522V154H536V0H35V14ZM277 750Q300 783 322 816T367 883H383Q360 850 338 817T293 750H277Z" />
<glyph unicode="&#xca;" glyph-name="Ecircumflex" horiz-adv-x="571" d="M35 14H117V686H35V700H522V546H508V686H131V360H483V346H131V14H522V154H536V0H35V14ZM300 931Q330 886 360 841T420 750H404Q378 788 352 827T300 904Q274 866 248 827T196 750H180Q210
795 240 840T300 931Z" />
<glyph unicode="&#xcb;" glyph-name="Edieresis" horiz-adv-x="571" d="M35 14H117V686H35V700H522V546H508V686H131V360H483V346H131V14H522V154H536V0H35V14ZM359 790Q359 798 365 804T379 810Q387 810 393 804T399 790Q399 782 393 776T379 770Q371 770 365
776T359 790ZM194 790Q194 798 200 804T214 810Q222 810 228 804T234 790Q234 782 228 776T214 770Q206 770 200 776T194 790Z" />
<glyph unicode="&#xcc;" glyph-name="Igrave" horiz-adv-x="244" d="M35 14H112V686H35V700H209V686H126V14H209V0H35V14ZM31 883Q54 850 76 817T121 750H105Q82 783 60 816T15 883H31Z" />
<glyph unicode="&#xcd;" glyph-name="Iacute" horiz-adv-x="244" d="M35 14H112V686H35V700H209V686H126V14H209V0H35V14ZM119 750Q142 783 164 816T209 883H225Q202 850 180 817T135 750H119Z" />
<glyph unicode="&#xce;" glyph-name="Icircumflex" horiz-adv-x="244" d="M35 14H112V686H35V700H209V686H126V14H209V0H35V14ZM121 931Q151 886 181 841T241 750H225Q199 788 173 827T121 904Q95 866 69 827T17 750H1Q31 795 61 840T121 931Z" />
<glyph unicode="&#xcf;" glyph-name="Idieresis" horiz-adv-x="241" d="M35 14H112V686H35V700H209V686H126V14H209V0H35V14ZM184 790Q184 798 190 804T204 810Q212 810 218 804T224 790Q224 782 218 776T204 770Q196 770 190 776T184 790ZM19 790Q19 798 25 804T39
810Q47 810 53 804T59 790Q59 782 53 776T39 770Q31 770 25 776T19 790Z" />
<glyph unicode="&#xd0;" glyph-name="Eth" horiz-adv-x="632" d="M44 360H108V686H35V700H245Q317 700 381 676T493 606T569 495T597 350Q597 291 577 229T510 116T391 33T211 0H35V14H108V346H44V360ZM122 686V360H346V346H122V15H220Q319 15 388 46T501 126T564
234T584 350Q584 427 558 489T485 595T379 662T251 686H122Z" />
<glyph unicode="&#xd1;" glyph-name="Ntilde" horiz-adv-x="802" d="M35 14H112V686H35V700H138L693 28L712 2L709 34V686H631V700H805V686H723V-32L142 670L124 690L126 664V14H209V0H35V14ZM403 790Q387 808 375 814T349 820Q341 820 331 818T310 809T293 793T283
765Q280 766 277 766T270 767Q271 785 279 798T298 819T324 830T352 834Q372 834 388 824T421 796Q437 778 449 772T475 766Q483 766 493 768T514 777T531 793T541 821Q544 820 547 820T554 819Q553 801 545 788T526 767T500 756T472 752Q452 752 436 762T403 790Z"
/>
<glyph unicode="&#xd2;" glyph-name="Ograve" horiz-adv-x="786" d="M35 349Q35 423 63 488T139 602T253 679T392 708Q466 708 531 680T645 603T722 489T751 349Q751 275 723 210T646 97T532 20T392 -8Q318 -8 253 20T140 96T63 210T35 349ZM49 348Q49 277 76
215T149 107T257 33T389 6Q460 6 523 33T634 106T709 215T737 349Q737 420 710 482T635 592T526 666T392 694Q321 694 259 667T150 592T76 482T49 348ZM300 883Q323 850 345 817T390 750H374Q351 783 329 816T284 883H300Z" />
<glyph unicode="&#xd3;" glyph-name="Oacute" horiz-adv-x="786" d="M35 349Q35 423 63 488T139 602T253 679T392 708Q466 708 531 680T645 603T722 489T751 349Q751 275 723 210T646 97T532 20T392 -8Q318 -8 253 20T140 96T63 210T35 349ZM49 348Q49 277 76
215T149 107T257 33T389 6Q460 6 523 33T634 106T709 215T737 349Q737 420 710 482T635 592T526 666T392 694Q321 694 259 667T150 592T76 482T49 348ZM410 750Q433 783 455 816T500 883H516Q493 850 471 817T426 750H410Z" />
<glyph unicode="&#xd4;" glyph-name="Ocircumflex" horiz-adv-x="786" d="M35 349Q35 423 63 488T139 602T253 679T392 708Q466 708 531 680T645 603T722 489T751 349Q751 275 723 210T646 97T532 20T392 -8Q318 -8 253 20T140 96T63 210T35 349ZM49 348Q49 277
76 215T149 107T257 33T389 6Q460 6 523 33T634 106T709 215T737 349Q737 420 710 482T635 592T526 666T392 694Q321 694 259 667T150 592T76 482T49 348ZM397 931Q427 886 457 841T517 750H501Q475 788 449 827T397 904Q371 866 345 827T293 750H277Q307 795 337
840T397 931Z" />
<glyph unicode="&#xd5;" glyph-name="Otilde" horiz-adv-x="786" d="M35 349Q35 423 63 488T139 602T253 679T392 708Q466 708 531 680T645 603T722 489T751 349Q751 275 723 210T646 97T532 20T392 -8Q318 -8 253 20T140 96T63 210T35 349ZM49 348Q49 277 76
215T149 107T257 33T389 6Q460 6 523 33T634 106T709 215T737 349Q737 420 710 482T635 592T526 666T392 694Q321 694 259 667T150 592T76 482T49 348ZM390 790Q374 808 362 814T336 820Q328 820 318 818T297 809T280 793T270 765Q267 766 264 766T257 767Q258
785 266 798T285 819T311 830T339 834Q359 834 375 824T408 796Q424 778 436 772T462 766Q470 766 480 768T501 777T518 793T528 821Q531 820 534 820T541 819Q540 801 532 788T513 767T487 756T459 752Q439 752 423 762T390 790Z" />
<glyph unicode="&#xd6;" glyph-name="Odieresis" horiz-adv-x="786" d="M35 349Q35 423 63 488T139 602T253 679T392 708Q466 708 531 680T645 603T722 489T751 349Q751 275 723 210T646 97T532 20T392 -8Q318 -8 253 20T140 96T63 210T35 349ZM49 348Q49 277
76 215T149 107T257 33T389 6Q460 6 523 33T634 106T709 215T737 349Q737 420 710 482T635 592T526 666T392 694Q321 694 259 667T150 592T76 482T49 348ZM459 790Q459 798 465 804T479 810Q487 810 493 804T499 790Q499 782 493 776T479 770Q471 770 465 776T459
790ZM294 790Q294 798 300 804T314 810Q322 810 328 804T334 790Q334 782 328 776T314 770Q306 770 300 776T294 790Z" />
<glyph unicode="&#xd7;" glyph-name="multiply" horiz-adv-x="500" d="M385 0L262 123Q231 92 201 62T140 0L130 10Q161 41 191 71T252 133L131 254L141 264L262 143Q293 174 323 204T385 265L395 255Q364 224 334 194T272 133L395 10L385 0Z" />
<glyph unicode="&#xd8;" glyph-name="Oslash" horiz-adv-x="786" d="M49 348Q49 272 79 207T160 95Q271 228 380 358T601 622Q557 656 504 675T392 694Q321 694 259 667T150 592T76 482T49 348ZM389 6Q460 6 523 33T634 106T709 215T737 349Q737 429 703 498T610
615L169 87Q214 49 270 28T389 6ZM35 349Q35 423 63 488T139 602T253 679T392 708Q454 708 509 688T611 633Q627 652 642 670T673 708Q675 706 677 704T682 700Q666 681 651 663T620 626Q680 576 715 505T751 349Q751 275 723 210T646 97T532 20T392 -8Q326 -8
267 14T161 77Q143 56 126 35T90 -8Q88 -6 86 -4T81 0Q99 21 116 42T152 85Q98 134 67 202T35 349Z" />
<glyph unicode="&#xd9;" glyph-name="Ugrave" horiz-adv-x="674" d="M35 700H209V686H126V229Q126 175 141 134T185 64T252 21T337 6Q382 6 421 20T488 63T532 133T548 229V686H465V700H639V686H562V226Q562 169 545 125T497 52T426 7T337 -8Q289 -8 248 7T176
51T129 125T112 226V686H35V700ZM254 883Q277 850 299 817T344 750H328Q305 783 283 816T238 883H254Z" />
<glyph unicode="&#xda;" glyph-name="Uacute" horiz-adv-x="674" d="M35 700H209V686H126V229Q126 175 141 134T185 64T252 21T337 6Q382 6 421 20T488 63T532 133T548 229V686H465V700H639V686H562V226Q562 169 545 125T497 52T426 7T337 -8Q289 -8 248 7T176
51T129 125T112 226V686H35V700ZM339 750Q362 783 384 816T429 883H445Q422 850 400 817T355 750H339Z" />
<glyph unicode="&#xdb;" glyph-name="Ucircumflex" horiz-adv-x="674" d="M35 700H209V686H126V229Q126 175 141 134T185 64T252 21T337 6Q382 6 421 20T488 63T532 133T548 229V686H465V700H639V686H562V226Q562 169 545 125T497 52T426 7T337 -8Q289 -8 248
7T176 51T129 125T112 226V686H35V700ZM340 931Q370 886 400 841T460 750H444Q418 788 392 827T340 904Q314 866 288 827T236 750H220Q250 795 280 840T340 931Z" />
<glyph unicode="&#xdc;" glyph-name="Udieresis" horiz-adv-x="674" d="M35 700H209V686H126V229Q126 175 141 134T185 64T252 21T337 6Q382 6 421 20T488 63T532 133T548 229V686H465V700H639V686H562V226Q562 169 545 125T497 52T426 7T337 -8Q289 -8 248 7T176
51T129 125T112 226V686H35V700ZM398 791Q398 799 404 805T418 811Q426 811 432 805T438 791Q438 783 432 777T418 771Q410 771 404 777T398 791ZM233 791Q233 799 239 805T253 811Q261 811 267 805T273 791Q273 783 267 777T253 771Q245 771 239 777T233 791Z"
/>
<glyph unicode="&#xdd;" glyph-name="Yacute" horiz-adv-x="718" d="M273 14H352V262Q288 368 225 474T97 686H35V700H209V686H114Q173 588 231 492T347 298L359 272H360L371 298L602 686H509V700H683V686H619Q556 579 493 474T366 262V14H447V0H273V14ZM372 750Q395
783 417 816T462 883H478Q455 850 433 817T388 750H372Z" />
<glyph unicode="&#xde;" glyph-name="Thorn" horiz-adv-x="481" d="M35 14H106V686H35V700H209V686H120V535H246Q275 535 310 525T375 494T425 439T446 357Q446 274 391 225T232 176H120V14H209V0H35V14ZM120 190H235Q293 190 331 206T391 246T423 300T432 357Q432
390 417 419T376 471T314 507T236 521H120V190Z" />
<glyph unicode="&#xdf;" glyph-name="germandbls" horiz-adv-x="542" d="M35 14H118V370H53V384H118V426Q118 481 132 524T172 596T231 640T303 658Q332 657 357 646T402 615T432 569T443 514Q443 470 418 437T351 389Q384 381 412 363T462 320T495 263T507 195Q507
153 491 116T447 52T382 8T302 -8Q273 -8 246 0T196 22L202 33Q246 5 300 5Q340 5 375 20T436 62T477 122T493 195Q493 233 478 266T437 325T377 366T303 381V388V396Q329 396 352 404T392 428T419 465T429 511Q429 537 420 561T394 603T354 633T303 644Q269 644
238 629T184 586T146 519T132 430V0H35V14Z" />
<glyph unicode="&#xe0;" glyph-name="agrave" horiz-adv-x="532" d="M35 188Q35 228 50 264T91 326T153 367T229 383Q291 383 339 349T410 260Q410 289 411 317T414 375H424V14H497V0H410V54Q410 70 410 85T411 117Q400 90 382 68T341 29T289 3T229 -6Q188 -6
153 9T92 50T50 112T35 188ZM49 188Q49 150 63 118T101 61T158 22T229 8Q266 8 299 22T357 60T396 117T410 188Q410 225 396 258T357 316T299 355T229 369Q191 369 159 355T102 316T63 258T49 188ZM159 612Q182 579 204 546T249 479H233Q210 512 188 545T143 612H159Z"
/>
<glyph unicode="&#xe1;" glyph-name="aacute" horiz-adv-x="532" d="M35 188Q35 228 50 264T91 326T153 367T229 383Q291 383 339 349T410 260Q410 289 411 317T414 375H424V14H497V0H410V54Q410 70 410 85T411 117Q400 90 382 68T341 29T289 3T229 -6Q188 -6
153 9T92 50T50 112T35 188ZM49 188Q49 150 63 118T101 61T158 22T229 8Q266 8 299 22T357 60T396 117T410 188Q410 225 396 258T357 316T299 355T229 369Q191 369 159 355T102 316T63 258T49 188ZM232 479Q255 512 277 545T322 612H338Q315 579 293 546T248 479H232Z"
/>
<glyph unicode="&#xe2;" glyph-name="acircumflex" horiz-adv-x="532" d="M35 188Q35 228 50 264T91 326T153 367T229 383Q291 383 339 349T410 260Q410 289 411 317T414 375H424V14H497V0H410V54Q410 70 410 85T411 117Q400 90 382 68T341 29T289 3T229 -6Q188
-6 153 9T92 50T50 112T35 188ZM49 188Q49 150 63 118T101 61T158 22T229 8Q266 8 299 22T357 60T396 117T410 188Q410 225 396 258T357 316T299 355T229 369Q191 369 159 355T102 316T63 258T49 188ZM261 660Q291 615 321 570T381 479H365Q339 517 313 556T261
633Q235 595 209 556T157 479H141Q171 524 201 569T261 660Z" />
<glyph unicode="&#xe3;" glyph-name="atilde" horiz-adv-x="532" d="M35 188Q35 228 50 264T91 326T153 367T229 383Q291 383 339 349T410 260Q410 289 411 317T414 375H424V14H497V0H410V54Q410 70 410 85T411 117Q400 90 382 68T341 29T289 3T229 -6Q188 -6
153 9T92 50T50 112T35 188ZM49 188Q49 150 63 118T101 61T158 22T229 8Q266 8 299 22T357 60T396 117T410 188Q410 225 396 258T357 316T299 355T229 369Q191 369 159 355T102 316T63 258T49 188ZM481 497Q465 515 453 521T427 527Q419 527 409 525T388 516T371
500T361 472Q358 473 355 473T348 474Q349 492 357 505T376 526T402 537T430 541Q450 541 466 531T499 503Q515 485 527 479T553 473Q561 473 571 475T592 484T609 500T619 528Q622 527 625 527T632 526Q631 508 623 495T604 474T578 463T550 459Q530 459 514 469T481
497Z" />
<glyph unicode="&#xe4;" glyph-name="adieresis" horiz-adv-x="532" d="M35 188Q35 228 50 264T91 326T153 367T229 383Q291 383 339 349T410 260Q410 289 411 317T414 375H424V14H497V0H410V54Q410 70 410 85T411 117Q400 90 382 68T341 29T289 3T229 -6Q188
-6 153 9T92 50T50 112T35 188ZM49 188Q49 150 63 118T101 61T158 22T229 8Q266 8 299 22T357 60T396 117T410 188Q410 225 396 258T357 316T299 355T229 369Q191 369 159 355T102 316T63 258T49 188ZM304 500Q304 508 310 514T324 520Q332 520 338 514T344 500Q344
492 338 486T324 480Q316 480 310 486T304 500ZM139 500Q139 508 145 514T159 520Q167 520 173 514T179 500Q179 492 173 486T159 480Q151 480 145 486T139 500Z" />
<glyph unicode="&#xe5;" glyph-name="aring" horiz-adv-x="532" d="M35 188Q35 228 50 264T91 326T153 367T229 383Q291 383 339 349T410 260Q410 289 411 317T414 375H424V14H497V0H410V54Q410 70 410 85T411 117Q400 90 382 68T341 29T289 3T229 -6Q188 -6 153
9T92 50T50 112T35 188ZM49 188Q49 150 63 118T101 61T158 22T229 8Q266 8 299 22T357 60T396 117T410 188Q410 225 396 258T357 316T299 355T229 369Q191 369 159 355T102 316T63 258T49 188ZM196 540Q196 520 210 506T245 491Q265 491 279 505T294 540Q294 560
280 574T245 589Q225 589 211 575T196 540ZM182 540Q182 567 200 585T245 603Q272 603 290 585T308 540Q308 513 290 495T245 477Q218 477 200 495T182 540Z" />
<glyph unicode="&#xe6;" glyph-name="ae" horiz-adv-x="580" d="M346 241V191Q391 209 436 227T527 264Q507 310 467 338T376 367Q342 367 310 354Q330 338 338 311T346 241ZM332 177H238Q222 177 191 177T128 172T73 148T49 97Q49 68 63 50T98 21T145 8T194 4Q219
4 244 8T288 24T320 55T332 105V177ZM80 332Q77 335 74 338T67 344Q76 352 90 358T122 370T157 378T191 381Q262 381 296 364Q333 381 376 381Q434 381 479 347T545 257Q495 237 446 217T346 176V128Q346 89 337 64T305 20Q339 6 376 6Q412 6 444 19T500 55Q502
52 504 50T509 44Q483 20 449 6T376 -8Q329 -8 292 10Q255 -10 192 -10Q157 -10 128 -5T79 12T47 44T35 96Q35 123 48 141T82 170T130 186T186 191H332V243Q332 274 327 297T307 336T264 359T190 367Q176 367 160 364T129 356T101 345T80 332Z" />
<glyph unicode="&#xe7;" glyph-name="ccedilla" horiz-adv-x="387" d="M342 47L352 37Q350 36 333 27T294 9T256 -6T239 -10Q240 -32 254 -42T280 -61Q303 -76 312 -94T322 -127Q322 -178 297 -200T238 -223Q220 -223 204 -217Q188 -210 176 -198T157 -165L172
-161Q178 -183 196 -196T238 -209Q269 -209 288 -189T308 -137Q308 -109 295 -94T267 -69T238 -47T225 -16V-6Q185 -5 151 10T91 51T50 113T35 188Q35 228 50 264T91 326T153 367T229 383Q264 383 295 372T352 340V252H338V332Q315 349 288 359T229 369Q191 369
159 355T102 316T63 258T49 188Q49 150 63 118T101 61T158 22T229 8Q261 8 290 18T342 47Z" />
<glyph unicode="&#xe8;" glyph-name="egrave" horiz-adv-x="435" d="M229 369Q184 369 147 349T85 295T52 220T56 135Q137 168 218 200T380 266Q360 312 320 340T229 369ZM398 259Q313 224 230 191T61 122Q81 71 126 40T229 8Q265 8 297 21T353 57Q355 54 357
52T362 46Q336 22 302 8T229 -6Q188 -6 153 9T92 50T50 112T35 188Q35 228 50 264T91 326T153 367T229 383Q287 383 332 349T398 259ZM142 612Q165 579 187 546T232 479H216Q193 512 171 545T126 612H142Z" />
<glyph unicode="&#xe9;" glyph-name="eacute" horiz-adv-x="435" d="M229 369Q184 369 147 349T85 295T52 220T56 135Q137 168 218 200T380 266Q360 312 320 340T229 369ZM398 259Q313 224 230 191T61 122Q81 71 126 40T229 8Q265 8 297 21T353 57Q355 54 357
52T362 46Q336 22 302 8T229 -6Q188 -6 153 9T92 50T50 112T35 188Q35 228 50 264T91 326T153 367T229 383Q287 383 332 349T398 259ZM233 479Q256 512 278 545T323 612H339Q316 579 294 546T249 479H233Z" />
<glyph unicode="&#xea;" glyph-name="ecircumflex" horiz-adv-x="435" d="M229 369Q184 369 147 349T85 295T52 220T56 135Q137 168 218 200T380 266Q360 312 320 340T229 369ZM398 259Q313 224 230 191T61 122Q81 71 126 40T229 8Q265 8 297 21T353 57Q355 54
357 52T362 46Q336 22 302 8T229 -6Q188 -6 153 9T92 50T50 112T35 188Q35 228 50 264T91 326T153 367T229 383Q287 383 332 349T398 259ZM486 660Q516 615 546 570T606 479H590Q564 517 538 556T486 633Q460 595 434 556T382 479H366Q396 524 426 569T486 660Z"
/>
<glyph unicode="&#xeb;" glyph-name="edieresis" horiz-adv-x="435" d="M229 369Q184 369 147 349T85 295T52 220T56 135Q137 168 218 200T380 266Q360 312 320 340T229 369ZM398 259Q313 224 230 191T61 122Q81 71 126 40T229 8Q265 8 297 21T353 57Q355 54 357
52T362 46Q336 22 302 8T229 -6Q188 -6 153 9T92 50T50 112T35 188Q35 228 50 264T91 326T153 367T229 383Q287 383 332 349T398 259ZM297 500Q297 508 303 514T317 520Q325 520 331 514T337 500Q337 492 331 486T317 480Q309 480 303 486T297 500ZM132 500Q132
508 138 514T152 520Q160 520 166 514T172 500Q172 492 166 486T152 480Q144 480 138 486T132 500Z" />
<glyph unicode="&#xec;" glyph-name="igrave" horiz-adv-x="244" d="M35 14H117V361H35V375H131V14H209V0H35V14ZM40 612Q63 579 85 546T130 479H114Q91 512 69 545T24 612H40Z" />
<glyph unicode="&#xed;" glyph-name="iacute" horiz-adv-x="244" d="M35 14H117V361H35V375H131V14H209V0H35V14ZM118 479Q141 512 163 545T208 612H224Q201 579 179 546T134 479H118Z" />
<glyph unicode="&#xee;" glyph-name="icircumflex" horiz-adv-x="244" d="M35 14H117V361H35V375H131V14H209V0H35V14ZM382 660Q412 615 442 570T502 479H486Q460 517 434 556T382 633Q356 595 330 556T278 479H262Q292 524 322 569T382 660Z" />
<glyph unicode="&#xef;" glyph-name="idieresis" horiz-adv-x="244" d="M35 14H117V361H35V375H131V14H209V0H35V14ZM444 500Q444 508 450 514T464 520Q472 520 478 514T484 500Q484 492 478 486T464 480Q456 480 450 486T444 500ZM279 500Q279 508 285 514T299
520Q307 520 313 514T319 500Q319 492 313 486T299 480Q291 480 285 486T279 500Z" />
<glyph unicode="&#xf0;" glyph-name="eth" horiz-adv-x="459" d="M49 188Q49 150 63 118T101 61T158 22T229 8Q266 8 299 22T357 60T396 117T410 188Q410 225 396 258T357 316T299 355T229 369Q191 369 159 355T102 316T63 258T49 188ZM129 547Q148 567 167 588T205
629Q183 652 160 674T111 717L117 726Q165 690 213 637Q230 657 248 675T283 714Q285 712 287 711T291 707Q273 687 256 668T220 629Q261 581 298 526T363 414T407 300T424 188Q424 147 409 112T367 51T305 9T229 -6Q188 -6 153 9T92 50T50 112T35 188Q35 228 50
264T91 326T153 367T229 383Q280 383 323 359T392 295Q386 323 373 359T337 438T285 526T212 620L137 539L129 547Z" />
<glyph unicode="&#xf1;" glyph-name="ntilde" horiz-adv-x="522" d="M313 14H392V277Q390 313 366 339T297 368Q263 368 233 357T179 327T142 280T128 220V14H209V0H35V14H114V361H39V375H122L124 322Q124 309 124 300T125 277Q145 324 189 353T290 382Q343 382
373 351T406 270V14H487V0H313V14ZM520 743Q504 761 492 767T466 773Q458 773 448 771T427 762T410 746T400 718Q397 719 394 719T387 720Q388 738 396 751T415 772T441 783T469 787Q489 787 505 777T538 749Q554 731 566 725T592 719Q600 719 610 721T631 730T648
746T658 774Q661 773 664 773T671 772Q670 754 662 741T643 720T617 709T589 705Q569 705 553 715T520 743Z" />
<glyph unicode="&#xf2;" glyph-name="ograve" horiz-adv-x="461" d="M36 188Q36 228 51 264T92 326T154 368T230 384Q270 384 306 369T368 327T410 264T426 188Q426 147 411 112T369 51T306 9T230 -6Q189 -6 154 9T93 50T51 112T36 188ZM50 188Q50 150 64 118T102
61T159 22T230 8Q267 8 300 22T358 60T397 117T411 188Q411 225 397 258T358 316T300 355T230 369Q192 369 160 355T103 316T64 258T50 188ZM149 612Q172 579 194 546T239 479H223Q200 512 178 545T133 612H149Z" />
<glyph unicode="&#xf3;" glyph-name="oacute" horiz-adv-x="461" d="M36 188Q36 228 51 264T92 326T154 368T230 384Q270 384 306 369T368 327T410 264T426 188Q426 147 411 112T369 51T306 9T230 -6Q189 -6 154 9T93 50T51 112T36 188ZM50 188Q50 150 64 118T102
61T159 22T230 8Q267 8 300 22T358 60T397 117T411 188Q411 225 397 258T358 316T300 355T230 369Q192 369 160 355T103 316T64 258T50 188ZM231 479Q254 512 276 545T321 612H337Q314 579 292 546T247 479H231Z" />
<glyph unicode="&#xf4;" glyph-name="ocircumflex" horiz-adv-x="461" d="M36 188Q36 228 51 264T92 326T154 368T230 384Q270 384 306 369T368 327T410 264T426 188Q426 147 411 112T369 51T306 9T230 -6Q189 -6 154 9T93 50T51 112T36 188ZM50 188Q50 150 64
118T102 61T159 22T230 8Q267 8 300 22T358 60T397 117T411 188Q411 225 397 258T358 316T300 355T230 369Q192 369 160 355T103 316T64 258T50 188ZM235 660Q265 615 295 570T355 479H339Q313 517 287 556T235 633Q209 595 183 556T131 479H115Q145 524 175 569T235
660Z" />
<glyph unicode="&#xf5;" glyph-name="otilde" horiz-adv-x="461" d="M36 188Q36 228 51 264T92 326T154 368T230 384Q270 384 306 369T368 327T410 264T426 188Q426 147 411 112T369 51T306 9T230 -6Q189 -6 154 9T93 50T51 112T36 188ZM50 188Q50 150 64 118T102
61T159 22T230 8Q267 8 300 22T358 60T397 117T411 188Q411 225 397 258T358 316T300 355T230 369Q192 369 160 355T103 316T64 258T50 188ZM488 497Q472 515 460 521T434 527Q426 527 416 525T395 516T378 500T368 472Q365 473 362 473T355 474Q356 492 364 505T383
526T409 537T437 541Q457 541 473 531T506 503Q522 485 534 479T560 473Q568 473 578 475T599 484T616 500T626 528Q629 527 632 527T639 526Q638 508 630 495T611 474T585 463T557 459Q537 459 521 469T488 497Z" />
<glyph unicode="&#xf6;" glyph-name="odieresis" horiz-adv-x="461" d="M36 188Q36 228 51 264T92 326T154 368T230 384Q270 384 306 369T368 327T410 264T426 188Q426 147 411 112T369 51T306 9T230 -6Q189 -6 154 9T93 50T51 112T36 188ZM50 188Q50 150 64 118T102
61T159 22T230 8Q267 8 300 22T358 60T397 117T411 188Q411 225 397 258T358 316T300 355T230 369Q192 369 160 355T103 316T64 258T50 188ZM297 500Q297 508 303 514T317 520Q325 520 331 514T337 500Q337 492 331 486T317 480Q309 480 303 486T297 500ZM132 500Q132
508 138 514T152 520Q160 520 166 514T172 500Q172 492 166 486T152 480Q144 480 138 486T132 500Z" />
<glyph unicode="&#xf7;" glyph-name="divide" horiz-adv-x="501" d="M428 210H68V224H428V210ZM231 341Q231 349 237 355T251 361Q259 361 265 355T271 341Q271 333 265 327T251 321Q243 321 237 327T231 341ZM231 91Q231 99 237 105T251 111Q259 111 265 105T271
91Q271 83 265 77T251 71Q243 71 237 77T231 91Z" />
<glyph unicode="&#xf8;" glyph-name="oslash" horiz-adv-x="458" d="M49 188Q49 150 63 117T103 58Q161 127 218 196T334 335Q312 351 285 360T229 369Q191 369 159 355T102 316T63 258T49 188ZM229 8Q266 8 299 22T357 60T396 117T410 188Q410 230 392 266T344
327Q286 258 228 189T112 50Q162 8 229 8ZM35 188Q35 228 50 264T91 326T153 367T229 383Q261 383 290 373T344 346Q352 355 359 364T375 383Q377 381 379 379T384 375Q376 366 369 357T353 338Q385 312 404 273T424 188Q424 147 409 112T367 51T305 9T229 -6Q193
-6 161 6T103 39Q93 27 84 16T64 -8Q62 -6 60 -4T55 0Q65 12 74 23T94 47Q66 73 51 109T35 188Z" />
<glyph unicode="&#xf9;" glyph-name="ugrave" horiz-adv-x="518" d="M35 375H128V98Q130 62 154 36T223 7Q257 7 287 18T341 48T378 95T392 155V361H313V375H406V14H483V0H400L397 53L395 98Q375 50 331 22T230 -7Q177 -7 147 24T114 105V361H35V375ZM168 612Q191
579 213 546T258 479H242Q219 512 197 545T152 612H168Z" />
<glyph unicode="&#xfa;" glyph-name="uacute" horiz-adv-x="518" d="M35 375H128V98Q130 62 154 36T223 7Q257 7 287 18T341 48T378 95T392 155V361H313V375H406V14H483V0H400L397 53L395 98Q375 50 331 22T230 -7Q177 -7 147 24T114 105V361H35V375ZM231 479Q254
512 276 545T321 612H337Q314 579 292 546T247 479H231Z" />
<glyph unicode="&#xfb;" glyph-name="ucircumflex" horiz-adv-x="518" d="M35 375H128V98Q130 62 154 36T223 7Q257 7 287 18T341 48T378 95T392 155V361H313V375H406V14H483V0H400L397 53L395 98Q375 50 331 22T230 -7Q177 -7 147 24T114 105V361H35V375ZM266
660Q296 615 326 570T386 479H370Q344 517 318 556T266 633Q240 595 214 556T162 479H146Q176 524 206 569T266 660Z" />
<glyph unicode="&#xfc;" glyph-name="udieresis" horiz-adv-x="518" d="M35 375H128V98Q130 62 154 36T223 7Q257 7 287 18T341 48T378 95T392 155V361H313V375H406V14H483V0H400L397 53L395 98Q375 50 331 22T230 -7Q177 -7 147 24T114 105V361H35V375ZM322 500Q322
508 328 514T342 520Q350 520 356 514T362 500Q362 492 356 486T342 480Q334 480 328 486T322 500ZM157 500Q157 508 163 514T177 520Q185 520 191 514T197 500Q197 492 191 486T177 480Q169 480 163 486T157 500Z" />
<glyph unicode="&#xfd;" glyph-name="yacute" horiz-adv-x="590" d="M92 -236H173Q202 -178 231 -120T289 -4Q243 87 198 178T107 361H35V375H196V361H125Q168 273 211 187T298 14Q340 97 383 185T471 361H416V375H555V361H489Q414 211 341 63T192 -236H266V-250H92V-236ZM298
479Q321 512 343 545T388 612H404Q381 579 359 546T314 479H298Z" />
<glyph unicode="&#xfe;" glyph-name="thorn" horiz-adv-x="498" d="M16 -236H93V736H16V750H190V736H107V321Q107 305 107 289T106 257Q127 312 176 346T288 381Q328 381 363 366T425 325T467 263T482 187Q482 146 467 111T426 49T364 8T288 -8Q257 -8 229 1T177
26T135 65T107 115Q107 101 107 88T108 61V-236H190V-250H16V-236ZM468 187Q468 224 454 257T416 314T358 353T288 367Q250 367 218 353T160 315T121 257T107 187Q107 149 121 117T160 59T217 20T288 6Q325 6 358 20T415 59T454 116T468 187Z" />
<glyph unicode="&#xff;" glyph-name="ydieresis" horiz-adv-x="590" d="M92 -236H173Q202 -178 231 -120T289 -4Q243 87 198 178T107 361H35V375H196V361H125Q168 273 211 187T298 14Q340 97 383 185T471 361H416V375H555V361H489Q414 211 341 63T192 -236H266V-250H92V-236ZM362
500Q362 508 368 514T382 520Q390 520 396 514T402 500Q402 492 396 486T382 480Q374 480 368 486T362 500ZM197 500Q197 508 203 514T217 520Q225 520 231 514T237 500Q237 492 231 486T217 480Q209 480 203 486T197 500Z" />
<glyph unicode="&#x2013;" glyph-name="endash" horiz-adv-x="509" d="M100 179V193H401V179H100Z" />
<glyph unicode="&#x2014;" glyph-name="emdash" horiz-adv-x="700" d="M99 179V193H601V179H99Z" />
<glyph unicode="&#x2018;" glyph-name="quoteleft" horiz-adv-x="164" d="M92 590L86 572Q57 598 45 634T40 711Q45 709 49 708T59 704Q52 669 61 640T92 590Z" />
<glyph unicode="&#x2019;" glyph-name="quoteright" horiz-adv-x="164" d="M65 572L59 590Q80 610 89 639T92 704Q97 706 101 707T111 711Q119 671 107 635T65 572Z" />
<glyph unicode="&#x201a;" glyph-name="quotesinglbase" horiz-adv-x="146" d="M26 -47L20 -29Q41 -9 50 20T53 85Q58 87 62 88T72 92Q80 52 68 16T26 -47Z" />
<glyph unicode="&#x201c;" glyph-name="quotedblleft" horiz-adv-x="249" d="M187 590L181 572Q152 598 140 634T135 711Q140 709 144 708T154 704Q147 669 156 640T187 590ZM83 590L77 572Q48 598 36 634T31 711Q36 709 40 708T50 704Q43 669 52 640T83 590Z" />
<glyph unicode="&#x201d;" glyph-name="quotedblright" horiz-adv-x="248" d="M50 572L44 590Q65 610 74 639T77 704Q82 706 86 707T96 711Q104 671 92 635T50 572ZM154 572L148 590Q169 610 178 639T181 704Q186 706 190 707T200 711Q208 671 196 635T154 572Z" />
<glyph unicode="&#x201e;" glyph-name="quotedblbase" horiz-adv-x="234" d="M26 -47L20 -29Q41 -9 50 20T53 85Q58 87 62 88T72 92Q80 52 68 16T26 -47ZM130 -47L124 -29Q145 -9 154 20T157 85Q162 87 166 88T176 92Q184 52 172 16T130 -47Z" />
<glyph unicode="&#x2022;" glyph-name="bullet" horiz-adv-x="479" d="M174 300Q174 328 193 347T239 366Q267 366 286 347T305 300Q305 273 286 254T239 235Q212 235 193 254T174 300Z" />
<glyph unicode="&#x2039;" glyph-name="guilsinglleft" horiz-adv-x="392" d="M288 77L117 239Q160 280 202 319T288 400V383Q253 347 217 311T146 239Q181 202 217 166T288 93V77Z" />
<glyph unicode="&#x203a;" glyph-name="guilsinglright" horiz-adv-x="392" d="M117 77L288 239Q245 280 203 319T117 400V383Q152 347 188 311T259 239Q224 202 188 166T117 93V77Z" />
</font>
</defs>
</svg>
