<?xml version="1.0" standalone="no"?>
<!DOCTYPE svg PUBLIC "-//W3C//DTD SVG 1.1//EN" "http://www.w3.org/Graphics/SVG/1.1/DTD/svg11.dtd">
<svg xmlns="http://www.w3.org/2000/svg">
<defs >
<font id="ArchivoNarrow" horiz-adv-x="481" ><font-face
    font-family="Archivo Narrow SemiBold"
    units-per-em="1000"
    panose-1="2 11 7 6 2 2 2 2 11 4"
    ascent="878"
    descent="-210"
    alphabetic="0" />
<glyph unicode=" " glyph-name="space" horiz-adv-x="228" />
<glyph unicode="!" glyph-name="exclam" horiz-adv-x="258" d="M60 686H199L167 188H92L60 686ZM68 127H193V0H68V127Z" />
<glyph unicode="&quot;" glyph-name="quotedbl" horiz-adv-x="355" d="M42 539V686H151V539L130 407H64L42 539ZM207 539V686H315V539L294 407H229L207 539Z" />
<glyph unicode="#" glyph-name="numbersign" horiz-adv-x="456" d="M70 190H6V271H88L120 417H45V498H138L183 697H267L222 498H302L347 697H431L386 498H448V417H368L336 271H408V190H318L275 0H191L234 190H154L111 0H27L70 190ZM252 271L284 417H204L172 271H252Z" />
<glyph unicode="$" glyph-name="dollar" horiz-adv-x="456" d="M199 69Q122 76 81 120T40 231Q40 239 40 242T41 246H141V238Q141 203 157 182T199 154V309Q152 324 122 338T70 383T49 461Q49 528 90 568T199 616V723H252V617Q319 611 360 573T401 475L400 453H300V463Q300
490 288 508T252 533V394Q303 380 335 365T390 319T413 235Q413 155 370 115T252 69V-49H199V69ZM199 533Q175 527 163 509T150 470Q150 449 162 436T199 412V533ZM279 158T296 175T313 221Q313 247 297 263T252 291V152Q279 158 296 175Z" />
<glyph unicode="%" glyph-name="percent" horiz-adv-x="729" d="M106 337T72 377T38 517Q38 616 72 657T173 698Q240 698 274 657T308 517Q308 418 274 378T173 337Q106 337 72 377ZM536 686H617L198 0H118L536 686ZM203 405T214 431T225 510V525Q225 577 214
603T173 630Q143 630 132 604T121 525V510Q121 458 132 432T173 405Q203 405 214 431ZM493 -12T459 28T425 168Q425 267 459 308T560 349Q627 349 660 309T694 168Q694 69 661 29T560 -12Q493 -12 459 28ZM589 56T600 83T612 161V176Q612 227 601 254T560 281Q530
281 519 254T507 176V161Q507 110 518 83T560 56Q589 56 600 83Z" />
<glyph unicode="&amp;" glyph-name="ampersand" horiz-adv-x="577" d="M161 -12T99 41T36 184Q36 249 66 292T147 352V356Q101 380 75 416T49 510Q49 600 109 649T271 698Q334 698 383 675T459 609T486 510V485H379V501Q379 553 351 579T269 606Q220 606 191 580T161
505Q161 453 189 424T262 394H306V303H264Q148 303 148 190Q148 135 179 108T265 80Q379 80 379 191V394H562V302H486V194Q486 99 428 44T262 -12Q161 -12 99 41Z" />
<glyph unicode="&apos;" glyph-name="quotesingle" horiz-adv-x="182" d="M36 539V686H145V539L124 407H58L36 539Z" />
<glyph unicode="(" glyph-name="parenleft" horiz-adv-x="273" d="M113 -65T73 50T33 288Q33 411 73 527T188 735H258Q203 638 169 520T135 290Q135 178 169 59T258 -157H188Q113 -65 73 50Z" />
<glyph unicode=")" glyph-name="parenright" horiz-adv-x="273" d="M70 -61T104 58T138 290Q138 402 104 520T15 735H85Q160 643 200 527T240 288Q240 165 200 50T85 -157H15Q70 -61 104 58Z" />
<glyph unicode="*" glyph-name="asterisk" horiz-adv-x="319" d="M132 492L51 434L14 499L103 540L14 582L51 645L132 588L122 686H197L187 589L268 645L305 582L216 540L305 499L268 434L187 492L197 394H122L132 492Z" />
<glyph unicode="+" glyph-name="plus" horiz-adv-x="479" d="M190 206H36V304H190V511H287V304H442V206H287V0H190V206Z" />
<glyph unicode="," glyph-name="comma" horiz-adv-x="228" d="M101 0H52V127H177V11L117 -145H52L101 0Z" />
<glyph unicode="-" glyph-name="hyphen" horiz-adv-x="273" d="M14 326H259V214H14V326Z" />
<glyph unicode="." glyph-name="period" horiz-adv-x="228" d="M52 127H177V0H52V127Z" />
<glyph unicode="/" glyph-name="slash" horiz-adv-x="228" d="M148 735H228L82 -49H1L148 735Z" />
<glyph unicode="0" glyph-name="zero" horiz-adv-x="456" d="M163 -12T121 20T56 129T33 343Q33 479 55 556T120 666T228 698Q292 698 334 666T400 556T423 343Q423 208 400 130T335 20T228 -12Q163 -12 121 20ZM276 79T294 134T312 308V378Q312 497 294 552T228
607Q180 607 162 552T144 378V308Q144 189 162 134T228 79Q276 79 294 134Z" />
<glyph unicode="1" glyph-name="one" horiz-adv-x="456" d="M43 91H201V540H42V610Q86 615 149 636T258 686H308V91H452V0H43V91Z" />
<glyph unicode="2" glyph-name="two" horiz-adv-x="456" d="M35 20Q35 108 100 197Q122 227 174 283Q219 334 244 366T288 438T306 521Q306 555 289 579T232 604Q192 604 173 573T154 491V450H44Q43 453 42 464T41 490Q41 594 96 646T236 698Q317 698 367 654T418
520Q418 463 395 410T339 315T255 215Q206 161 188 135Q172 111 168 102H421V0H35V20Z" />
<glyph unicode="3" glyph-name="three" horiz-adv-x="456" d="M133 -12T81 43T28 194V209H139V191Q139 137 161 108T225 79Q265 79 288 107T312 190Q312 303 219 303H178V394H221Q255 394 277 423T300 505Q300 556 280 581T226 607Q191 607 171 580T151 501V485H40V510Q40
566 63 608T129 674T225 698Q310 698 360 649T411 510Q411 453 388 417T322 356V352Q368 335 395 292T423 184Q423 94 369 41T228 -12Q133 -12 81 43Z" />
<glyph unicode="4" glyph-name="four" horiz-adv-x="456" d="M265 160H12V248Q65 342 110 461T187 698H294Q277 615 241 524T167 358T107 251H265V426Q301 503 324 596H372V251H442V160H372V0H265V160Z" />
<glyph unicode="5" glyph-name="five" horiz-adv-x="456" d="M141 -12T87 48T33 213H145Q145 151 168 115T232 78Q272 78 295 115T319 224Q319 286 297 321T239 356Q211 356 190 339T155 291L52 306L75 686H401V584H169L158 406Q205 446 264 446Q337 446 383 389T430
224Q430 112 377 50T232 -12Q141 -12 87 48Z" />
<glyph unicode="6" glyph-name="six" horiz-adv-x="456" d="M136 -12T85 64T33 323Q33 462 56 545T122 663T229 698Q318 698 361 637T405 475H295Q295 607 225 607Q177 607 161 551T144 373Q163 400 192 415T255 431Q337 431 380 370T423 210Q423 143 399 93T333
15T237 -12Q136 -12 85 64ZM271 79T291 115T312 210Q312 270 292 306T232 342Q192 342 172 306T151 210Q151 152 171 116T232 79Q271 79 291 115Z" />
<glyph unicode="7" glyph-name="seven" horiz-adv-x="456" d="M106 156T164 309T309 584H26V686H430V615Q344 485 284 340T224 51Q224 24 225 0H106Q106 156 164 309Z" />
<glyph unicode="8" glyph-name="eight" horiz-adv-x="456" d="M130 -12T82 43T33 188Q33 308 121 352Q85 376 66 416T47 507Q47 590 94 644T228 698Q314 698 361 644T409 507Q409 457 390 417T334 352Q423 308 423 188Q423 99 375 44T228 -12Q130 -12 82 43ZM262
396T281 423T301 501Q301 552 282 579T228 607Q194 607 175 580T156 501Q156 450 175 423T228 396Q262 396 281 423ZM269 79T290 108T312 192Q312 246 291 275T228 305Q187 305 166 276T144 192Q144 138 165 109T228 79Q269 79 290 108Z" />
<glyph unicode="9" glyph-name="nine" horiz-adv-x="456" d="M138 -12T95 49T51 211H161Q161 79 232 79Q279 79 294 135T312 312Q293 285 264 270T201 255Q119 255 76 316T33 476Q33 543 57 593T123 671T219 698Q320 698 371 622T423 363Q423 158 374 73T228 -12Q138
-12 95 49ZM264 344T284 380T305 476Q305 534 285 570T224 607Q185 607 165 571T144 476Q144 416 164 380T224 344Q264 344 284 380Z" />
<glyph unicode=":" glyph-name="colon" horiz-adv-x="258" d="M58 526H183V399H58V526ZM58 127H183V0H58V127Z" />
<glyph unicode=";" glyph-name="semicolon" horiz-adv-x="258" d="M58 526H183V399H58V526ZM107 0H57V127H182V11L123 -145H57L107 0Z" />
<glyph unicode="&lt;" glyph-name="less" horiz-adv-x="479" d="M37 198V318L443 522V413L132 259L443 104V-5L37 198Z" />
<glyph unicode="=" glyph-name="equal" horiz-adv-x="479" d="M36 409H442V311H36V409ZM36 196H442V99H36V196Z" />
<glyph unicode="&gt;" glyph-name="greater" horiz-adv-x="479" d="M37 104L348 259L37 413V522L443 318V198L37 -5V104Z" />
<glyph unicode="?" glyph-name="question" horiz-adv-x="486" d="M199 239Q199 280 214 307T259 370Q290 407 305 436T321 509Q321 539 305 570T244 601Q196 601 179 566T161 486Q161 475 161 468T162 459H49Q48 463 47 473T46 494Q46 551 69 597T138 671T252
698Q336 698 387 649T438 520Q438 473 428 440T403 384T364 336Q337 305 324 282T311 224V191H199V239ZM193 127H318V0H193V127Z" />
<glyph unicode="@" glyph-name="at" horiz-adv-x="811" d="M216 -153T124 -51T32 262Q32 415 83 512T220 654T417 698Q583 698 681 606T779 321Q779 215 749 148T675 52T584 22Q540 22 518 38T485 85H480Q459 54 431 38T361 22Q315 22 278 52T240 156Q240 247
301 283T478 320V374Q478 406 466 423T419 440Q386 440 372 423T357 381V369H262Q261 374 261 389Q261 450 304 485T420 521Q498 521 537 485T576 382V143Q576 105 607 105Q650 105 681 156T712 322Q712 481 633 557T416 634Q266 634 183 540T100 261Q100 86 170
-1T385 -89Q420 -89 468 -80T542 -57V-126Q513 -137 466 -145T385 -153Q216 -153 124 -51ZM434 104T456 134T478 213V246Q414 246 377 228T340 164Q340 104 397 104Q434 104 456 134Z" />
<glyph unicode="A" glyph-name="A" horiz-adv-x="577" d="M220 686H356L576 0H458L414 141H154L111 0H0L220 686ZM382 244L305 499Q299 518 293 547T286 586H282Q281 576 276 546T264 499L186 244H382Z" />
<glyph unicode="B" glyph-name="B" horiz-adv-x="577" d="M62 686H345Q398 686 439 665T504 606T528 517Q528 460 499 418T423 360V356Q476 340 510 294T544 183Q544 127 517 86T445 22T345 0H62V686ZM313 402Q358 402 384 429T411 495Q411 538 386 561T319 584H176V402H313ZM327
102Q371 102 399 127T427 198Q427 242 399 271T321 300H176V102H327Z" />
<glyph unicode="C" glyph-name="C" horiz-adv-x="592" d="M176 -12T107 76T37 343Q37 521 106 609T309 698Q421 698 488 632T556 433H439Q439 514 404 556T309 598Q232 598 194 539T155 368V318Q155 206 194 147T311 88Q373 88 408 129T444 251H556Q556 121 489
55T309 -12Q176 -12 107 76Z" />
<glyph unicode="D" glyph-name="D" horiz-adv-x="592" d="M63 686H283Q411 686 482 601T553 353Q553 180 482 90T283 0H63V686ZM272 102Q349 102 392 159T435 328V378Q435 479 392 531T272 584H178V102H272Z" />
<glyph unicode="E" glyph-name="E" horiz-adv-x="547" d="M63 686H496V584H178V402H452V300H178V102H502V0H63V686Z" />
<glyph unicode="F" glyph-name="F" horiz-adv-x="501" d="M63 686H464V584H178V394H425V292H178V0H63V686Z" />
<glyph unicode="G" glyph-name="G" horiz-adv-x="638" d="M303 368H582V0H508L487 76Q454 32 408 10T306 -12Q176 -12 108 76T39 343Q39 521 113 609T325 698Q396 698 454 670T547 585T582 448H465Q465 520 425 559T322 598Q241 598 199 539T157 368V318Q157 205
198 147T321 88Q389 88 427 134T465 263V269H303V368Z" />
<glyph unicode="H" glyph-name="H" horiz-adv-x="592" d="M63 686H178V402H414V686H529V0H414V300H178V0H63V686Z" />
<glyph unicode="I" glyph-name="I" horiz-adv-x="228" d="M57 686H171V0H57V686Z" />
<glyph unicode="J" glyph-name="J" horiz-adv-x="440" d="M106 -12T58 33T10 163V213H124V168Q124 129 142 109T195 88Q229 88 246 108T264 168V686H379V163Q379 78 331 33T195 -12Q106 -12 58 33Z" />
<glyph unicode="K" glyph-name="K" horiz-adv-x="577" d="M63 686H178V331L437 686H564L360 408L571 0H442L286 316L178 188V0H63V686Z" />
<glyph unicode="L" glyph-name="L" horiz-adv-x="486" d="M63 686H178V106H464V0H63V686Z" />
<glyph unicode="M" glyph-name="M" horiz-adv-x="683" d="M56 686H220L318 283Q325 254 333 201T343 129H347Q349 147 356 202T370 283L467 686H627V0H519V458Q519 476 521 515T525 567H521Q506 495 497 459L387 0H287L176 461L164 515L153 567H149Q150 553 152
519T155 458V0H56V686Z" />
<glyph unicode="N" glyph-name="N" horiz-adv-x="592" d="M63 686H164L390 290Q398 278 409 252T425 216L428 219L427 287V686H529V0H429L201 398Q194 410 182 436T166 472L162 469Q162 461 163 441T165 401V0H63V686Z" />
<glyph unicode="O" glyph-name="O" horiz-adv-x="638" d="M185 -12T112 77T39 343Q39 520 112 609T319 698Q453 698 526 609T599 343Q599 166 526 77T319 -12Q185 -12 112 77ZM397 88T439 147T481 318V368Q481 479 439 538T319 598Q241 598 199 539T157 368V318Q157
207 199 148T319 88Q397 88 439 147Z" />
<glyph unicode="P" glyph-name="P" horiz-adv-x="547" d="M63 686H308Q410 686 465 630T520 482Q520 419 494 372T420 298T308 272H178V0H63V686ZM299 374Q348 374 375 403T402 482Q402 529 375 556T299 584H178V374H299Z" />
<glyph unicode="Q" glyph-name="Q" horiz-adv-x="638" d="M331 -12H319Q185 -12 112 77T39 343Q39 520 112 609T319 698Q453 698 526 609T599 343Q599 214 559 132T445 14L581 -124H437L331 -12ZM397 88T439 147T481 318V368Q481 479 439 538T319 598Q241 598
199 539T157 368V318Q157 207 199 148T319 88Q397 88 439 147Z" />
<glyph unicode="R" glyph-name="R" horiz-adv-x="592" d="M63 686H347Q447 686 501 633T555 492Q555 429 524 383T438 316L572 0H447L328 292H178V0H63V686ZM334 394Q382 394 407 420T433 492Q433 535 409 559T337 584H178V394H334Z" />
<glyph unicode="S" glyph-name="S" horiz-adv-x="547" d="M204 -12T151 11T66 81T34 199L35 220H153L152 202Q152 149 184 119T271 88Q330 88 359 113T389 180Q389 215 370 237T324 272T246 302Q183 322 144 342T76 403T48 509Q48 600 112 649T273 698Q370 698
431 649T493 499V487H376V498Q376 544 348 571T273 598Q224 598 195 576T166 517Q166 487 184 468T229 436T303 409Q368 389 408 369T478 309T507 203Q507 91 444 40T269 -12Q204 -12 151 11Z" />
<glyph unicode="T" glyph-name="T" horiz-adv-x="501" d="M194 584H18V686H484V584H308V0H194V584Z" />
<glyph unicode="U" glyph-name="U" horiz-adv-x="592" d="M186 -12T125 47T64 218V686H178V219Q178 156 209 122T296 88Q352 88 383 122T414 219V686H529V218Q529 106 468 47T296 -12Q186 -12 125 47Z" />
<glyph unicode="V" glyph-name="V" horiz-adv-x="547" d="M3 686H123L276 161H280L433 686H544L335 0H212L3 686Z" />
<glyph unicode="W" glyph-name="W" horiz-adv-x="774" d="M3 686H119L209 246Q213 225 218 189T224 141H228Q229 152 233 187T243 246L324 686H462L545 246Q550 215 554 184T559 141H563Q564 152 569 187T579 246L670 686H770L618 0H494L404 447Q399 471 394 508T388
558H384Q383 545 378 507T368 447L280 0H156L3 686Z" />
<glyph unicode="X" glyph-name="X" horiz-adv-x="547" d="M204 359L20 686H150L276 455H279L406 686H526L341 363L545 0H416L270 266H267L121 0H1L204 359Z" />
<glyph unicode="Y" glyph-name="Y" horiz-adv-x="547" d="M217 268L3 686H125L276 379H280L430 686H544L331 268V0H217V268Z" />
<glyph unicode="Z" glyph-name="Z" horiz-adv-x="501" d="M17 45L314 584H38V686H473V640L175 102H480V0H17V45Z" />
<glyph unicode="[" glyph-name="bracketleft" horiz-adv-x="258" d="M49 735H234V650H151V-76H234V-161H49V735Z" />
<glyph unicode="\" glyph-name="backslash" horiz-adv-x="228" d="M1 735H81L228 -49H147L1 735Z" />
<glyph unicode="]" glyph-name="bracketright" horiz-adv-x="258" d="M23 -76H106V650H23V735H209V-161H23V-76Z" />
<glyph unicode="^" glyph-name="asciicircum" horiz-adv-x="447" d="M172 686H279L429 294H326L225 579L126 294H22L172 686Z" />
<glyph unicode="_" glyph-name="underscore" horiz-adv-x="456" d="M0 -66H455V-129H0V-66Z" />
<glyph unicode="`" glyph-name="grave" horiz-adv-x="273" d="M23 720L24 723H134L220 591H131L23 720Z" />
<glyph unicode="a" glyph-name="a" horiz-adv-x="456" d="M104 -12T63 21T21 136Q21 237 89 277T284 317V377Q284 411 270 430T219 449Q183 449 167 430T150 384V370H45Q44 376 44 392Q44 460 92 499T219 538Q305 538 348 499T391 386V114Q391 96 399 88T419 79H446V4Q416
-11 381 -11Q347 -11 324 7T291 57H286Q263 23 232 6T155 -12Q104 -12 63 21ZM236 79T260 112T284 199V235Q213 235 172 216T131 145Q131 79 194 79Q236 79 260 112Z" />
<glyph unicode="b" glyph-name="b" horiz-adv-x="486" d="M241 -12T210 7T160 64H155L144 0H57V723H164V473H169Q182 503 213 520T284 538Q356 538 400 470T445 264Q445 124 402 56T278 -12Q241 -12 210 7ZM293 85T313 124T333 244V282Q333 363 313 402T249 441Q205
441 185 401T164 279V244Q164 164 184 125T249 85Q293 85 313 124Z" />
<glyph unicode="c" glyph-name="c" horiz-adv-x="440" d="M132 -12T86 54T39 263Q39 404 86 471T229 538Q405 538 405 329H295Q295 390 280 418T229 447Q188 447 170 406T151 282V244Q151 161 170 120T232 79Q267 79 283 108T299 197H405Q405 96 361 42T232 -12Q132
-12 86 54Z" />
<glyph unicode="d" glyph-name="d" horiz-adv-x="486" d="M128 -12T85 56T41 264Q41 401 85 469T202 538Q241 538 272 521T317 473H322V723H429V0H342L330 64H325Q307 27 276 8T208 -12Q128 -12 85 56ZM281 85T301 124T322 244V279Q322 360 302 400T237 441Q193
441 173 402T152 282V244Q152 163 172 124T237 85Q281 85 301 124Z" />
<glyph unicode="e" glyph-name="e" horiz-adv-x="456" d="M137 -12T86 55T35 263Q35 538 235 538Q328 538 374 474T420 273V235H146Q147 155 169 116T239 77Q273 77 293 105T314 184H420Q420 89 370 39T238 -12Q137 -12 86 55ZM307 317Q307 381 289 415T235 449Q193
449 172 416T147 317H307Z" />
<glyph unicode="f" glyph-name="f" horiz-adv-x="258" d="M60 435H9V526H60V597Q60 654 87 692T177 731Q196 731 219 728T258 719V641H210Q189 641 178 630T167 596V526H258V435H167V0H60V435Z" />
<glyph unicode="g" glyph-name="g" horiz-adv-x="486" d="M82 -182T49 -148T15 -60Q15 -22 33 6T82 49Q62 61 51 82T40 128Q40 160 61 183T116 220Q53 268 53 360Q53 442 102 490T239 538Q285 538 323 522Q352 540 364 564T379 613H469Q469 560 447 527T383 482Q427
435 427 360Q427 278 378 230T241 181H189Q172 181 161 171T149 144Q149 129 159 119T186 108H357Q409 108 443 71T478 -24Q478 -94 432 -138T314 -182H136Q82 -182 49 -148ZM278 263T298 288T319 360Q319 406 299 431T239 456Q201 456 181 431T160 360Q160 314
180 289T239 263Q278 263 298 288ZM314 -98Q338 -98 354 -83T370 -44Q370 -21 356 -7T317 8H175Q152 8 138 -7T123 -44Q123 -68 137 -83T175 -98H314Z" />
<glyph unicode="h" glyph-name="h" horiz-adv-x="486" d="M57 723H164V470H168Q188 501 219 519T292 538Q429 538 429 372V0H322V349Q322 399 304 420T251 441Q214 441 189 408T164 323V0H57V723Z" />
<glyph unicode="i" glyph-name="i" horiz-adv-x="212" d="M53 723H160V618H53V723ZM53 526H160V0H53V526Z" />
<glyph unicode="j" glyph-name="j" horiz-adv-x="212" d="M53 723H160V618H53V723ZM24 -182T1 -179T-38 -170V-92H6Q53 -92 53 -44V526H160V-48Q160 -105 133 -143T44 -182Q24 -182 1 -179Z" />
<glyph unicode="k" glyph-name="k" horiz-adv-x="440" d="M56 723H163V305L318 526H433L278 311L441 0H322L211 226L163 169V0H56V723Z" />
<glyph unicode="l" glyph-name="l" horiz-adv-x="212" d="M53 723H160V0H53V723Z" />
<glyph unicode="m" glyph-name="m" horiz-adv-x="713" d="M57 526H144L155 462H161Q181 497 213 517T285 538Q369 538 397 461Q419 496 454 517T531 538Q659 538 659 372V0H552V349Q552 399 536 420T489 441Q456 441 434 410T411 328V0H305V349Q305 399 289 420T242
441Q208 441 186 409T164 323V0H57V526Z" />
<glyph unicode="n" glyph-name="n" horiz-adv-x="486" d="M57 526H144L155 462H161Q183 497 216 517T292 538Q429 538 429 372V0H322V349Q322 399 304 420T251 441Q214 441 189 408T164 323V0H57V526Z" />
<glyph unicode="o" glyph-name="o" horiz-adv-x="486" d="M142 -12T92 55T41 263Q41 404 91 471T243 538Q345 538 395 471T446 263Q446 123 396 56T243 -12Q142 -12 92 55ZM290 79T312 120T334 244V282Q334 365 312 406T243 447Q196 447 174 406T152 282V244Q152
161 174 120T243 79Q290 79 312 120Z" />
<glyph unicode="p" glyph-name="p" horiz-adv-x="486" d="M57 526H144L155 462H160Q179 499 210 518T278 538Q358 538 401 470T445 262Q445 125 401 57T284 -12Q244 -12 213 4T169 51H164V-173H57V526ZM293 85T313 124T333 244V282Q333 363 313 402T249 441Q205
441 185 402T164 282V245Q164 165 184 125T249 85Q293 85 313 124Z" />
<glyph unicode="q" glyph-name="q" horiz-adv-x="486" d="M322 51H317Q303 21 272 5T202 -12Q130 -12 86 56T41 262Q41 402 84 470T208 538Q245 538 276 519T325 462H330L342 526H429V-173H322V51ZM281 85T301 125T322 245V282Q322 362 302 401T237 441Q193 441
173 402T152 282V244Q152 163 172 124T237 85Q281 85 301 125Z" />
<glyph unicode="r" glyph-name="r" horiz-adv-x="303" d="M57 526H144L157 452H163Q190 538 253 538Q271 538 283 535T299 530V425H262Q218 425 191 397T164 303V0H57V526Z" />
<glyph unicode="s" glyph-name="s" horiz-adv-x="440" d="M128 -12T81 33T33 151Q33 159 33 162T34 166H144V158Q144 117 166 97T220 77Q250 77 272 93T294 141Q294 175 269 191T192 223Q144 238 114 252T63 298T42 381Q42 456 92 497T222 538Q297 538 344 499T391
395L390 373H281V377Q279 449 217 449Q186 449 169 432T152 390Q152 360 175 346T247 318Q296 304 327 290T380 243T403 155Q403 68 353 28T216 -12Q128 -12 81 33Z" />
<glyph unicode="t" glyph-name="t" horiz-adv-x="258" d="M114 -11T88 27T61 123V435H11V526H61L79 673H168V526H242V435H168V124Q168 79 212 79H242V1Q229 -4 210 -7T175 -11Q114 -11 88 27Z" />
<glyph unicode="u" glyph-name="u" horiz-adv-x="486" d="M57 -12T57 154V526H164V177Q164 127 181 106T234 85Q271 85 296 117T322 202V526H429V0H342L330 64H324Q303 29 270 9T193 -12Q57 -12 57 154Z" />
<glyph unicode="v" glyph-name="v" horiz-adv-x="440" d="M6 526H120L189 286Q199 251 215 173L223 137H227L234 174Q236 185 244 224T259 287L327 526H435L276 0H165L6 526Z" />
<glyph unicode="w" glyph-name="w" horiz-adv-x="622" d="M1 526H111L166 283Q175 244 180 195T187 131H191Q192 145 197 192T211 282L259 526H370L418 281Q425 249 431 198T438 131H442Q444 146 451 195T467 281L520 526H621L493 0H382L329 268Q322 301 318 342T313
395H308Q307 383 303 343T293 268L241 0H130L1 526Z" />
<glyph unicode="x" glyph-name="x" horiz-adv-x="440" d="M158 270L16 526H139L222 364H226L311 526H427L284 274L435 0H312L219 180H215L120 0H5L158 270Z" />
<glyph unicode="y" glyph-name="y" horiz-adv-x="440" d="M87 -182T68 -179T42 -173V-93H87Q118 -93 141 -71T176 0L6 526H120L203 256Q207 242 224 163L230 134H234L240 163Q253 235 259 256L327 526H435L294 27Q267 -70 224 -126T113 -182Q87 -182 68 -179Z" />
<glyph unicode="z" glyph-name="z" horiz-adv-x="410" d="M21 47L234 435H34V526H380V480L166 91H389V0H21V47Z" />
<glyph unicode="{" glyph-name="braceleft" horiz-adv-x="304" d="M198 -159T149 -128T100 -11V183Q100 214 77 228T23 243V333Q54 333 77 347T100 393V587Q100 673 149 704T283 735V665Q250 665 227 651T204 600Q204 558 200 478L197 401Q195 347 172 320T96
293V283Q148 283 171 256T197 175L200 98Q204 18 204 -24Q204 -61 227 -75T283 -89V-159Q198 -159 149 -128Z" />
<glyph unicode="|" glyph-name="bar" horiz-adv-x="224" d="M69 723H155V-173H69V723Z" />
<glyph unicode="}" glyph-name="braceright" horiz-adv-x="304" d="M21 -89Q54 -89 77 -75T100 -24Q100 43 105 130L107 175Q109 229 132 256T208 283V293Q155 293 132 320T107 401L105 446Q100 533 100 600Q100 636 77 650T21 665V735Q106 735 155 704T204 587V393Q204
362 227 348T281 333V243Q250 243 227 229T204 183V-11Q204 -97 155 -128T21 -159V-89Z" />
<glyph unicode="~" glyph-name="asciitilde" horiz-adv-x="479" d="M30 312Q30 315 45 334T88 369T151 385Q172 385 191 378T238 355Q266 340 286 332T328 324Q360 324 386 340T431 375T449 397V287Q449 284 434 265T391 230T328 214Q307 214 288 221T241 244Q213
259 193 267T151 275Q119 275 93 259T48 224T30 202V312Z" />
<glyph unicode="&#xa0;" glyph-name="uni00A0" horiz-adv-x="228" />
<glyph unicode="&#xa1;" glyph-name="exclamdown" horiz-adv-x="273" d="M81 526H206V399H81V526ZM105 338H180L213 -160H74L105 338Z" />
<glyph unicode="&#xa2;" glyph-name="cent" horiz-adv-x="456" d="M208 70Q123 79 83 145T43 343Q43 473 83 540T208 616V723H261V617Q416 602 416 409H313Q313 461 301 489T261 525V159Q290 166 303 195T317 277H416Q416 183 376 130T261 69V-49H208V70ZM208
524Q147 503 147 362V324Q147 255 161 215T208 162V524Z" />
<glyph unicode="&#xa3;" glyph-name="sterling" horiz-adv-x="456" d="M23 98H78V293H12V385H78V499Q78 597 123 647T252 698Q334 698 380 650T426 504V491H320V514Q320 560 302 583T252 607Q220 607 203 586T186 522V385H310V293H185L175 98H422V0H23V98Z" />
<glyph unicode="&#xa4;" glyph-name="currency" horiz-adv-x="456" d="M155 104T98 155L56 112L-1 169L49 219Q18 273 18 342Q18 407 48 464L-1 514L55 571L97 529Q156 581 228 581Q263 581 296 568T358 529L400 571L456 514L407 465Q438 408 438 342Q438 277
407 218L456 169L400 112L357 155Q300 104 228 104Q155 104 98 155ZM263 187T293 208T340 264T358 342Q358 385 341 420T293 477T228 498Q193 498 163 477T115 421T97 342Q97 300 114 265T162 208T228 187Q263 187 293 208Z" />
<glyph unicode="&#xa5;" glyph-name="yen" horiz-adv-x="456" d="M173 158H27V234H173V304H27V380H140L3 686H122L230 413H234L341 686H452L316 380H429V303H283V234H429V158H283V0H173V158Z" />
<glyph unicode="&#xa6;" glyph-name="brokenbar" horiz-adv-x="224" d="M69 723H155V348H69V723ZM69 202H155V-173H69V202Z" />
<glyph unicode="&#xa7;" glyph-name="section" horiz-adv-x="456" d="M154 -182T107 -143T60 -39L61 -17H171Q171 -93 234 -93Q265 -93 282 -76T299 -34Q299 -5 285 16T250 52T191 86Q144 111 116 131T68 185T48 271Q48 312 66 348T114 411Q60 462 60 541Q60 616
109 657T240 698Q315 698 362 659T409 555L408 533H298Q298 609 235 609Q204 609 187 592T170 550Q170 521 184 500T219 464T278 430Q325 405 353 385T401 331T421 245Q421 203 403 167T355 105Q409 53 409 -25Q409 -100 360 -141T229 -182Q154 -182 107 -143ZM316
177T316 215Q316 249 301 273T263 314T201 353L178 366Q153 339 153 301Q153 267 168 243T205 202T266 163L290 149Q316 177 316 215Z" />
<glyph unicode="&#xa8;" glyph-name="dieresis" horiz-adv-x="273" d="M5 723H101V619H5V723ZM172 723H268V619H172V723Z" />
<glyph unicode="&#xa9;" glyph-name="copyright" horiz-adv-x="604" d="M215 -12T151 31T52 155T18 343Q18 451 52 531T150 654T302 698Q389 698 453 655T552 531T586 343Q586 235 552 155T454 32T302 -12Q215 -12 151 31ZM373 40T425 77T506 183T534 343Q534
435 506 503T426 608T302 646Q231 646 179 609T98 503T70 343Q70 251 98 183T178 78T302 40Q373 40 425 77ZM226 136T185 188T144 345Q144 450 185 502T304 555Q370 555 410 516T450 398H373Q373 442 355 465T304 488Q263 488 243 455T222 360V331Q222 203 306
203Q339 203 357 225T376 291H450Q450 215 410 176T304 136Q226 136 185 188Z" />
<glyph unicode="&#xaa;" glyph-name="ordfeminine" horiz-adv-x="303" d="M72 363T44 385T16 463Q16 531 61 558T190 586V625Q190 647 182 659T151 671Q128 671 118 659T107 630V620H33Q32 625 32 635Q32 681 64 707T150 734Q209 734 238 708T267 631V451Q267
440 272 434T286 428H304V373Q286 364 259 364Q237 364 221 376T199 409H196Q180 386 160 375T107 363Q72 363 44 385ZM159 428T174 449T190 505V529Q95 529 95 469Q95 448 104 438T134 428Q159 428 174 449Z" />
<glyph unicode="&#xab;" glyph-name="guillemotleft" horiz-adv-x="456" d="M31 326L169 526H253L143 326L253 126H169L31 326ZM203 326L341 526H425L316 326L425 126H341L203 326Z" />
<glyph unicode="&#xac;" glyph-name="logicalnot" horiz-adv-x="479" d="M344 353H32V460H442V190H344V353Z" />
<glyph unicode="&#xad;" glyph-name="uni00AD" horiz-adv-x="273" d="M14 326H259V214H14V326Z" />
<glyph unicode="&#xae;" glyph-name="registered" horiz-adv-x="604" d="M215 -12T151 31T52 155T18 343Q18 451 52 531T150 654T302 698Q389 698 453 655T552 531T586 343Q586 235 552 155T454 32T302 -12Q215 -12 151 31ZM373 40T425 77T506 183T534 343Q534
435 506 503T426 608T302 646Q231 646 179 609T98 503T70 343Q70 251 98 183T178 78T302 40Q373 40 425 77ZM363 140T363 216Q363 268 345 289T301 311H250V143H174V547H333Q381 547 412 519T443 446Q443 409 426 386T380 351V347Q401 340 420 315T439 239Q439
202 446 187T468 166V147Q464 144 453 142T432 140Q363 140 363 216ZM305 380Q332 380 348 394T365 431Q365 453 350 465T308 478H250V380H305Z" />
<glyph unicode="&#xaf;" glyph-name="overscore" horiz-adv-x="273" d="M10 681H263V599H10V681Z" />
<glyph unicode="&#xb0;" glyph-name="degree" horiz-adv-x="400" d="M160 419T128 437T77 488T58 558Q58 596 76 628T127 679T198 698Q236 698 268 680T319 629T338 558Q338 520 320 488T269 438T198 419Q160 419 128 437ZM230 482T252 504T274 558Q274 590 252
612T198 634Q166 634 144 612T121 558Q121 527 143 505T198 482Q230 482 252 504Z" />
<glyph unicode="&#xb1;" glyph-name="plusminus" horiz-adv-x="549" d="M225 315H71V412H225V589H322V412H477V315H322V138H225V315ZM71 96H477V0H71V96Z" />
<glyph unicode="&#xb2;" glyph-name="uni00B2" horiz-adv-x="273" d="M18 338Q18 380 37 412T96 490Q136 533 155 562T174 627Q174 643 166 655T137 668Q118 668 108 652T98 609V580H25Q24 583 23 590T22 608Q22 672 55 703T140 734Q189 734 220 708T251 626Q251
593 238 563T207 511T156 449Q153 446 137 428T110 391H253V321H18V338Z" />
<glyph unicode="&#xb3;" glyph-name="uni00B3" horiz-adv-x="273" d="M80 313T49 346T17 438V452H93V436Q93 378 136 378Q156 378 168 392T180 436Q180 495 133 495H105V559H134Q151 559 162 574T174 617Q174 643 164 656T137 669Q120 669 110 656T100 615V600H24V620Q24
671 55 702T136 734Q188 734 219 704T250 620Q250 588 238 567T200 530Q225 517 240 492T256 432Q256 377 224 345T138 313Q80 313 49 346Z" />
<glyph unicode="&#xb4;" glyph-name="acute" horiz-adv-x="273" d="M141 723H251L252 720L144 591H55L141 723Z" />
<glyph unicode="&#xb5;" glyph-name="uni00B5" horiz-adv-x="486" d="M57 526H164V174Q164 126 181 106T234 85Q271 85 296 117T322 202V526H429V0H342L330 64H324Q304 29 274 9T206 -12Q183 -12 164 -4V-173H57V526Z" />
<glyph unicode="&#xb6;" glyph-name="paragraph" horiz-adv-x="451" d="M187 250Q139 256 101 286T40 364T18 467Q18 527 43 577T113 656T210 686H439V615H391V-173H315V615H262V-173H187V250Z" />
<glyph unicode="&#xb7;" glyph-name="middot" horiz-adv-x="228" d="M56 406H171V281H56V406Z" />
<glyph unicode="&#xb8;" glyph-name="cedilla" horiz-adv-x="273" d="M74 -182T36 -174V-125H109Q127 -125 136 -120T145 -101Q145 -89 138 -83T111 -77H78L90 11H153L148 -34Q183 -36 205 -52T227 -101Q227 -146 194 -164T120 -182Q74 -182 36 -174Z" />
<glyph unicode="&#xb9;" glyph-name="uni00B9" horiz-adv-x="273" d="M35 386H111V627H34V679Q58 682 91 694T149 723H185V386H253V321H35V386Z" />
<glyph unicode="&#xba;" glyph-name="ordmasculine" horiz-adv-x="299" d="M82 362T48 407T14 548Q14 643 48 688T151 734Q220 734 254 689T288 548Q288 453 254 408T151 362Q82 362 48 407ZM181 428T195 454T209 535V561Q209 615 195 641T151 668Q121 668 108
642T94 561V535Q94 481 107 455T151 428Q181 428 195 454Z" />
<glyph unicode="&#xbb;" glyph-name="guillemotright" horiz-adv-x="456" d="M140 326L31 526H115L253 326L115 126H31L140 326ZM313 326L203 526H287L425 326L287 126H203L313 326Z" />
<glyph unicode="&#xbc;" glyph-name="onequarter" horiz-adv-x="684" d="M528 698H592L191 -12H125L528 698ZM33 349H108V590H32V642Q56 645 89 657T146 686H182V349H251V283H33V349ZM540 91H394V149Q453 254 497 414H570Q555 345 523 270T466 156H540V212Q551
235 565 273T586 336H613V156H655V91H613V0H540V91Z" />
<glyph unicode="&#xbd;" glyph-name="onehalf" horiz-adv-x="684" d="M521 698H585L183 -12H118L521 698ZM33 349H108V590H32V642Q56 645 89 657T146 686H182V349H251V283H33V349ZM421 17Q421 59 440 91T499 169Q539 213 558 242T577 306Q577 323 569 335T540
347Q521 347 511 331T501 289V260H428Q427 262 426 270T425 288Q425 351 458 382T543 414Q592 414 623 387T654 305Q654 273 641 243T610 191T559 129Q556 126 540 108T513 70H655V0H421V17Z" />
<glyph unicode="&#xbe;" glyph-name="threequarters" horiz-adv-x="684" d="M92 277T60 310T28 402V416H104V400Q104 342 148 342Q168 342 179 356T191 400Q191 459 145 459H116V523H146Q162 523 173 538T185 581Q185 607 175 620T149 633Q131 633 121 620T111
579V564H35V584Q35 635 66 666T148 698Q199 698 230 668T261 584Q261 552 249 531T211 494Q236 481 251 456T267 396Q267 341 235 309T150 277Q92 277 60 310ZM522 698H587L185 -12H120L522 698ZM538 91H392V149Q451 254 495 414H568Q553 345 521 270T464 156H538V212Q549
235 563 273T584 336H611V156H653V91H611V0H538V91Z" />
<glyph unicode="&#xbf;" glyph-name="questiondown" horiz-adv-x="501" d="M176 526H301V399H176V526ZM159 -172T108 -123T56 5Q56 51 66 84T91 139T129 188Q156 219 169 242T182 302V335H295V287Q295 246 280 218T235 154Q204 118 189 89T173 16Q173 -14 189
-44T251 -75Q298 -75 315 -40T333 40Q333 51 333 58T332 67H445Q446 63 447 53T448 32Q448 -58 395 -115T243 -172Q159 -172 108 -123Z" />
<glyph unicode="&#xc0;" glyph-name="Agrave" horiz-adv-x="577" d="M157 880L158 883H268L354 751H265L157 880ZM220 686H356L576 0H458L414 141H154L111 0H0L220 686ZM382 244L305 499Q299 518 293 547T286 586H282Q281 576 276 546T264 499L186 244H382Z" />
<glyph unicode="&#xc1;" glyph-name="Aacute" horiz-adv-x="577" d="M309 883H418L419 880L311 751H223L309 883ZM220 686H356L576 0H458L414 141H154L111 0H0L220 686ZM382 244L305 499Q299 518 293 547T286 586H282Q281 576 276 546T264 499L186 244H382Z" />
<glyph unicode="&#xc2;" glyph-name="Acircumflex" horiz-adv-x="577" d="M244 883H335L420 748H333L288 820L243 748H158L244 883ZM220 686H356L576 0H458L414 141H154L111 0H0L220 686ZM382 244L305 499Q299 518 293 547T286 586H282Q281 576 276 546T264 499L186
244H382Z" />
<glyph unicode="&#xc3;" glyph-name="Atilde" horiz-adv-x="577" d="M128 812T151 847T221 883Q237 883 251 879T287 865Q325 848 348 848Q381 848 385 883H449Q449 838 425 803T354 767Q339 767 325 771T289 785Q251 802 228 802Q196 802 191 767H128Q128 812
151 847ZM220 686H356L576 0H458L414 141H154L111 0H0L220 686ZM382 244L305 499Q299 518 293 547T286 586H282Q281 576 276 546T264 499L186 244H382Z" />
<glyph unicode="&#xc4;" glyph-name="Adieresis" horiz-adv-x="577" d="M158 883H253V779H158V883ZM323 883H420V779H323V883ZM220 686H356L576 0H458L414 141H154L111 0H0L220 686ZM382 244L305 499Q299 518 293 547T286 586H282Q281 576 276 546T264 499L186 244H382Z" />
<glyph unicode="&#xc5;" glyph-name="Aring" horiz-adv-x="577" d="M249 722T221 750T192 818Q192 858 220 886T288 914Q328 914 356 886T384 818Q384 778 356 750T288 722Q249 722 221 750ZM308 770T322 784T336 818Q336 837 322 851T288 865Q268 865 254 851T240
818Q240 798 254 784T288 770Q308 770 322 784ZM220 686H356L576 0H458L414 141H154L111 0H0L220 686ZM382 244L305 499Q299 518 293 547T286 586H282Q281 576 276 546T264 499L186 244H382Z" />
<glyph unicode="&#xc6;" glyph-name="AE" horiz-adv-x="820" d="M263 686H773V584H428L472 402H729V300H496L543 102H779V0H449L416 141H156L103 0H-6L263 686ZM392 244L330 515Q328 523 323 546Q322 554 319 566H315L308 545L296 513L194 244H392Z" />
<glyph unicode="&#xc7;" glyph-name="Ccedilla" horiz-adv-x="592" d="M248 -182T210 -174V-125H283Q301 -125 310 -120T319 -101Q319 -89 312 -83T285 -77H252L261 -9Q151 6 94 93T37 343Q37 521 106 609T309 698Q421 698 488 632T556 433H439Q439 514 404 556T309
598Q232 598 194 539T155 368V318Q155 206 194 147T311 88Q373 88 408 129T444 251H556Q556 127 493 61T324 -11L322 -34Q357 -36 379 -52T401 -101Q401 -146 368 -164T294 -182Q248 -182 210 -174Z" />
<glyph unicode="&#xc8;" glyph-name="Egrave" horiz-adv-x="547" d="M142 880L143 883H253L339 751H250L142 880ZM63 686H496V584H178V402H452V300H178V102H502V0H63V686Z" />
<glyph unicode="&#xc9;" glyph-name="Eacute" horiz-adv-x="547" d="M294 883H404L405 880L297 751H208L294 883ZM63 686H496V584H178V402H452V300H178V102H502V0H63V686Z" />
<glyph unicode="&#xca;" glyph-name="Ecircumflex" horiz-adv-x="547" d="M228 883H320L405 748H318L274 820L229 748H142L228 883ZM63 686H496V584H178V402H452V300H178V102H502V0H63V686Z" />
<glyph unicode="&#xcb;" glyph-name="Edieresis" horiz-adv-x="547" d="M143 883H238V779H143V883ZM309 883H405V779H309V883ZM63 686H496V584H178V402H452V300H178V102H502V0H63V686Z" />
<glyph unicode="&#xcc;" glyph-name="Igrave" horiz-adv-x="228" d="M-17 880L-16 883H94L180 751H91L-17 880ZM57 686H171V0H57V686Z" />
<glyph unicode="&#xcd;" glyph-name="Iacute" horiz-adv-x="228" d="M134 883H244L245 880L138 751H48L134 883ZM57 686H171V0H57V686Z" />
<glyph unicode="&#xce;" glyph-name="Icircumflex" horiz-adv-x="228" d="M69 883H161L246 748H159L115 820L70 748H-18L69 883ZM57 686H171V0H57V686Z" />
<glyph unicode="&#xcf;" glyph-name="Idieresis" horiz-adv-x="228" d="M-17 883H79V779H-17V883ZM150 883H246V779H150V883ZM57 686H171V0H57V686Z" />
<glyph unicode="&#xd0;" glyph-name="Eth" horiz-adv-x="592" d="M63 316H8V394H63V686H283Q411 686 482 601T553 353Q553 180 482 90T283 0H63V316ZM272 102Q349 102 392 159T435 328V378Q435 479 392 531T272 584H178V394H314V316H178V102H272Z" />
<glyph unicode="&#xd1;" glyph-name="Ntilde" horiz-adv-x="592" d="M136 812T159 847T229 883Q245 883 259 879T295 865Q333 848 356 848Q389 848 393 883H456Q456 838 433 803T362 767Q347 767 333 771T297 785Q259 802 236 802Q203 802 199 767H136Q136 812
159 847ZM63 686H164L390 290Q398 278 409 252T425 216L428 219L427 287V686H529V0H429L201 398Q194 410 182 436T166 472L162 469Q162 461 163 441T165 401V0H63V686Z" />
<glyph unicode="&#xd2;" glyph-name="Ograve" horiz-adv-x="638" d="M188 880L189 883H299L385 751H296L188 880ZM185 -12T112 77T39 343Q39 520 112 609T319 698Q453 698 526 609T599 343Q599 166 526 77T319 -12Q185 -12 112 77ZM397 88T439 147T481 318V368Q481
479 439 538T319 598Q241 598 199 539T157 368V318Q157 207 199 148T319 88Q397 88 439 147Z" />
<glyph unicode="&#xd3;" glyph-name="Oacute" horiz-adv-x="638" d="M339 883H450L451 880L343 751H253L339 883ZM185 -12T112 77T39 343Q39 520 112 609T319 698Q453 698 526 609T599 343Q599 166 526 77T319 -12Q185 -12 112 77ZM397 88T439 147T481 318V368Q481
479 439 538T319 598Q241 598 199 539T157 368V318Q157 207 199 148T319 88Q397 88 439 147Z" />
<glyph unicode="&#xd4;" glyph-name="Ocircumflex" horiz-adv-x="638" d="M274 883H366L451 748H364L320 820L275 748H188L274 883ZM185 -12T112 77T39 343Q39 520 112 609T319 698Q453 698 526 609T599 343Q599 166 526 77T319 -12Q185 -12 112 77ZM397 88T439
147T481 318V368Q481 479 439 538T319 598Q241 598 199 539T157 368V318Q157 207 199 148T319 88Q397 88 439 147Z" />
<glyph unicode="&#xd5;" glyph-name="Otilde" horiz-adv-x="638" d="M159 812T183 847T253 883Q269 883 283 879T319 865Q338 857 351 853T380 848Q412 848 416 883H480Q480 838 456 803T386 767Q371 767 357 771T321 785Q283 802 260 802Q244 802 235 794T222
767H159Q159 812 183 847ZM185 -12T112 77T39 343Q39 520 112 609T319 698Q453 698 526 609T599 343Q599 166 526 77T319 -12Q185 -12 112 77ZM397 88T439 147T481 318V368Q481 479 439 538T319 598Q241 598 199 539T157 368V318Q157 207 199 148T319 88Q397 88
439 147Z" />
<glyph unicode="&#xd6;" glyph-name="Odieresis" horiz-adv-x="638" d="M189 883H284V779H189V883ZM355 883H451V779H355V883ZM185 -12T112 77T39 343Q39 520 112 609T319 698Q453 698 526 609T599 343Q599 166 526 77T319 -12Q185 -12 112 77ZM397 88T439 147T481
318V368Q481 479 439 538T319 598Q241 598 199 539T157 368V318Q157 207 199 148T319 88Q397 88 439 147Z" />
<glyph unicode="&#xd7;" glyph-name="multiply" horiz-adv-x="479" d="M32 109L180 256L32 404L98 471L246 323L395 471L461 404L313 256L461 109L395 41L246 188L98 41L32 109Z" />
<glyph unicode="&#xd8;" glyph-name="Oslash" horiz-adv-x="638" d="M114 75Q39 165 39 343Q39 520 112 609T319 698Q413 698 475 655L518 723H596L524 610Q599 518 599 343Q599 166 526 77T319 -12Q226 -12 163 30L121 -37H43L114 75ZM418 562Q379 598 319 598Q241
598 199 539T157 368V318Q157 237 180 182L418 562ZM397 88T439 147T481 318V368Q481 449 457 503L220 123Q260 88 319 88Q397 88 439 147Z" />
<glyph unicode="&#xd9;" glyph-name="Ugrave" horiz-adv-x="592" d="M165 880L166 883H276L362 751H273L165 880ZM186 -12T125 47T64 218V686H178V219Q178 156 209 122T296 88Q352 88 383 122T414 219V686H529V218Q529 106 468 47T296 -12Q186 -12 125 47Z" />
<glyph unicode="&#xda;" glyph-name="Uacute" horiz-adv-x="592" d="M316 883H426L427 880L319 751H230L316 883ZM186 -12T125 47T64 218V686H178V219Q178 156 209 122T296 88Q352 88 383 122T414 219V686H529V218Q529 106 468 47T296 -12Q186 -12 125 47Z" />
<glyph unicode="&#xdb;" glyph-name="Ucircumflex" horiz-adv-x="592" d="M251 883H342L428 748H341L296 820L251 748H165L251 883ZM186 -12T125 47T64 218V686H178V219Q178 156 209 122T296 88Q352 88 383 122T414 219V686H529V218Q529 106 468 47T296 -12Q186
-12 125 47Z" />
<glyph unicode="&#xdc;" glyph-name="Udieresis" horiz-adv-x="592" d="M165 883H261V779H165V883ZM331 883H428V779H331V883ZM186 -12T125 47T64 218V686H178V219Q178 156 209 122T296 88Q352 88 383 122T414 219V686H529V218Q529 106 468 47T296 -12Q186 -12 125 47Z" />
<glyph unicode="&#xdd;" glyph-name="Yacute" horiz-adv-x="547" d="M294 883H404L405 880L297 751H208L294 883ZM217 268L3 686H125L276 379H280L430 686H544L331 268V0H217V268Z" />
<glyph unicode="&#xde;" glyph-name="Thorn" horiz-adv-x="547" d="M63 686H178V559H308Q410 559 465 503T520 355Q520 292 494 245T420 171T308 145H178V0H63V686ZM299 247Q347 247 374 276T402 355Q402 402 375 429T299 457H178V247H299Z" />
<glyph unicode="&#xdf;" glyph-name="germandbls" horiz-adv-x="501" d="M43 519Q43 629 101 682T254 735Q340 735 394 685T449 548Q449 498 423 455T354 395V391Q405 372 437 322T470 214Q470 151 444 103T372 27T270 0H201V92H258Q301 92 331 128T361 215Q361
264 331 298T258 333H201V432H254Q289 432 314 465T340 545Q340 590 317 617T249 644Q204 644 177 613T150 525V0H43V519Z" />
<glyph unicode="&#xe0;" glyph-name="agrave" horiz-adv-x="456" d="M88 720L89 723H199L285 591H196L88 720ZM104 -12T63 21T21 136Q21 237 89 277T284 317V377Q284 411 270 430T219 449Q183 449 167 430T150 384V370H45Q44 376 44 392Q44 460 92 499T219 538Q305
538 348 499T391 386V114Q391 96 399 88T419 79H446V4Q416 -11 381 -11Q347 -11 324 7T291 57H286Q263 23 232 6T155 -12Q104 -12 63 21ZM236 79T260 112T284 199V235Q213 235 172 216T131 145Q131 79 194 79Q236 79 260 112Z" />
<glyph unicode="&#xe1;" glyph-name="aacute" horiz-adv-x="456" d="M239 723H349L350 720L242 591H153L239 723ZM104 -12T63 21T21 136Q21 237 89 277T284 317V377Q284 411 270 430T219 449Q183 449 167 430T150 384V370H45Q44 376 44 392Q44 460 92 499T219
538Q305 538 348 499T391 386V114Q391 96 399 88T419 79H446V4Q416 -11 381 -11Q347 -11 324 7T291 57H286Q263 23 232 6T155 -12Q104 -12 63 21ZM236 79T260 112T284 199V235Q213 235 172 216T131 145Q131 79 194 79Q236 79 260 112Z" />
<glyph unicode="&#xe2;" glyph-name="acircumflex" horiz-adv-x="456" d="M175 723H267L352 588H266L221 660L176 588H90L175 723ZM104 -12T63 21T21 136Q21 237 89 277T284 317V377Q284 411 270 430T219 449Q183 449 167 430T150 384V370H45Q44 376 44 392Q44
460 92 499T219 538Q305 538 348 499T391 386V114Q391 96 399 88T419 79H446V4Q416 -11 381 -11Q347 -11 324 7T291 57H286Q263 23 232 6T155 -12Q104 -12 63 21ZM236 79T260 112T284 199V235Q213 235 172 216T131 145Q131 79 194 79Q236 79 260 112Z" />
<glyph unicode="&#xe3;" glyph-name="atilde" horiz-adv-x="456" d="M60 652T84 687T154 723Q170 723 184 719T220 705Q258 688 281 688Q313 688 318 723H381Q381 678 357 643T287 607Q272 607 258 611T222 625Q184 642 161 642Q128 642 124 607H60Q60 652 84
687ZM104 -12T63 21T21 136Q21 237 89 277T284 317V377Q284 411 270 430T219 449Q183 449 167 430T150 384V370H45Q44 376 44 392Q44 460 92 499T219 538Q305 538 348 499T391 386V114Q391 96 399 88T419 79H446V4Q416 -11 381 -11Q347 -11 324 7T291 57H286Q263
23 232 6T155 -12Q104 -12 63 21ZM236 79T260 112T284 199V235Q213 235 172 216T131 145Q131 79 194 79Q236 79 260 112Z" />
<glyph unicode="&#xe4;" glyph-name="adieresis" horiz-adv-x="456" d="M90 723H185V619H90V723ZM256 723H352V619H256V723ZM104 -12T63 21T21 136Q21 237 89 277T284 317V377Q284 411 270 430T219 449Q183 449 167 430T150 384V370H45Q44 376 44 392Q44 460 92
499T219 538Q305 538 348 499T391 386V114Q391 96 399 88T419 79H446V4Q416 -11 381 -11Q347 -11 324 7T291 57H286Q263 23 232 6T155 -12Q104 -12 63 21ZM236 79T260 112T284 199V235Q213 235 172 216T131 145Q131 79 194 79Q236 79 260 112Z" />
<glyph unicode="&#xe5;" glyph-name="aring" horiz-adv-x="456" d="M182 561T154 589T125 658Q125 698 153 725T221 753Q261 753 289 725T317 658Q317 618 289 590T221 561Q182 561 154 589ZM240 610T254 624T268 658Q268 677 254 691T221 705Q201 705 187 692T173
658Q173 638 187 624T221 610Q240 610 254 624ZM104 -12T63 21T21 136Q21 237 89 277T284 317V377Q284 411 270 430T219 449Q183 449 167 430T150 384V370H45Q44 376 44 392Q44 460 92 499T219 538Q305 538 348 499T391 386V114Q391 96 399 88T419 79H446V4Q416
-11 381 -11Q347 -11 324 7T291 57H286Q263 23 232 6T155 -12Q104 -12 63 21ZM236 79T260 112T284 199V235Q213 235 172 216T131 145Q131 79 194 79Q236 79 260 112Z" />
<glyph unicode="&#xe6;" glyph-name="ae" horiz-adv-x="729" d="M131 -12T85 20T38 136Q38 237 106 277T301 317V377Q301 411 287 430T236 449Q200 449 184 430T167 384V370H62Q61 376 61 392Q61 460 109 499T236 538Q327 538 371 485Q420 538 501 538Q594 538
640 474T686 273V235H412Q413 155 435 116T505 77Q539 77 559 105T580 184H686Q686 89 636 39T504 -12Q395 -12 346 62Q284 -12 190 -12Q131 -12 85 20ZM573 317Q573 381 555 415T501 449Q459 449 438 416T413 317H573ZM252 79T276 111T301 196V235Q230 235 189
216T148 145Q148 79 211 79Q252 79 276 111Z" />
<glyph unicode="&#xe7;" glyph-name="ccedilla" horiz-adv-x="440" d="M172 -182T134 -174V-125H207Q225 -125 234 -120T243 -101Q243 -89 236 -83T209 -77H176L185 -7Q110 6 75 72T39 263Q39 404 86 471T229 538Q405 538 405 329H295Q295 390 280 418T229 447Q188
447 170 406T151 282V244Q151 161 170 120T232 79Q267 79 283 108T299 197H405Q405 102 365 48T248 -11L246 -34Q281 -36 303 -52T325 -101Q325 -146 292 -164T218 -182Q172 -182 134 -174Z" />
<glyph unicode="&#xe8;" glyph-name="egrave" horiz-adv-x="456" d="M101 720L102 723H212L298 591H209L101 720ZM137 -12T86 55T35 263Q35 538 235 538Q328 538 374 474T420 273V235H146Q147 155 169 116T239 77Q273 77 293 105T314 184H420Q420 89 370 39T238
-12Q137 -12 86 55ZM307 317Q307 381 289 415T235 449Q193 449 172 416T147 317H307Z" />
<glyph unicode="&#xe9;" glyph-name="eacute" horiz-adv-x="456" d="M252 723H362L363 720L255 591H166L252 723ZM137 -12T86 55T35 263Q35 538 235 538Q328 538 374 474T420 273V235H146Q147 155 169 116T239 77Q273 77 293 105T314 184H420Q420 89 370 39T238
-12Q137 -12 86 55ZM307 317Q307 381 289 415T235 449Q193 449 172 416T147 317H307Z" />
<glyph unicode="&#xea;" glyph-name="ecircumflex" horiz-adv-x="456" d="M183 723H275L360 588H273L229 660L184 588H97L183 723ZM137 -12T86 55T35 263Q35 538 235 538Q328 538 374 474T420 273V235H146Q147 155 169 116T239 77Q273 77 293 105T314 184H420Q420
89 370 39T238 -12Q137 -12 86 55ZM307 317Q307 381 289 415T235 449Q193 449 172 416T147 317H307Z" />
<glyph unicode="&#xeb;" glyph-name="edieresis" horiz-adv-x="456" d="M97 723H193V619H97V723ZM264 723H360V619H264V723ZM137 -12T86 55T35 263Q35 538 235 538Q328 538 374 474T420 273V235H146Q147 155 169 116T239 77Q273 77 293 105T314 184H420Q420 89
370 39T238 -12Q137 -12 86 55ZM307 317Q307 381 289 415T235 449Q193 449 172 416T147 317H307Z" />
<glyph unicode="&#xec;" glyph-name="igrave" horiz-adv-x="228" d="M-17 720L-16 723H94L180 591H91L-17 720ZM61 526H168V0H61V526Z" />
<glyph unicode="&#xed;" glyph-name="iacute" horiz-adv-x="228" d="M134 723H244L245 720L138 591H48L134 723ZM61 526H168V0H61V526Z" />
<glyph unicode="&#xee;" glyph-name="icircumflex" horiz-adv-x="228" d="M69 723H161L246 588H159L115 660L70 588H-18L69 723ZM61 526H168V0H61V526Z" />
<glyph unicode="&#xef;" glyph-name="idieresis" horiz-adv-x="228" d="M-17 723H79V619H-17V723ZM150 723H246V619H150V723ZM61 526H168V0H61V526Z" />
<glyph unicode="&#xf0;" glyph-name="eth" horiz-adv-x="486" d="M142 -12T92 55T41 263Q41 398 89 468T221 538Q243 538 270 529L272 532Q259 558 228 600L103 589V658L177 665L143 701L126 719L128 723H241Q271 695 289 675L414 686V618L341 611Q446 461 446
263Q446 123 396 56T243 -12Q142 -12 92 55ZM290 79T312 120T334 244V282Q334 365 312 406T243 447Q196 447 174 406T152 282V244Q152 161 174 120T243 79Q290 79 312 120Z" />
<glyph unicode="&#xf1;" glyph-name="ntilde" horiz-adv-x="486" d="M83 652T106 687T176 723Q192 723 206 719T242 705Q280 688 303 688Q336 688 340 723H404Q404 678 380 643T309 607Q294 607 280 611T244 625Q206 642 183 642Q151 642 146 607H83Q83 652 106
687ZM57 526H144L155 462H161Q183 497 216 517T292 538Q429 538 429 372V0H322V349Q322 399 304 420T251 441Q214 441 189 408T164 323V0H57V526Z" />
<glyph unicode="&#xf2;" glyph-name="ograve" horiz-adv-x="486" d="M111 720L112 723H222L308 591H220L111 720ZM142 -12T92 55T41 263Q41 404 91 471T243 538Q345 538 395 471T446 263Q446 123 396 56T243 -12Q142 -12 92 55ZM290 79T312 120T334 244V282Q334
365 312 406T243 447Q196 447 174 406T152 282V244Q152 161 174 120T243 79Q290 79 312 120Z" />
<glyph unicode="&#xf3;" glyph-name="oacute" horiz-adv-x="486" d="M263 723H373L374 720L266 591H177L263 723ZM142 -12T92 55T41 263Q41 404 91 471T243 538Q345 538 395 471T446 263Q446 123 396 56T243 -12Q142 -12 92 55ZM290 79T312 120T334 244V282Q334
365 312 406T243 447Q196 447 174 406T152 282V244Q152 161 174 120T243 79Q290 79 312 120Z" />
<glyph unicode="&#xf4;" glyph-name="ocircumflex" horiz-adv-x="486" d="M198 723H289L374 588H287L243 660L198 588H112L198 723ZM142 -12T92 55T41 263Q41 404 91 471T243 538Q345 538 395 471T446 263Q446 123 396 56T243 -12Q142 -12 92 55ZM290 79T312 120T334
244V282Q334 365 312 406T243 447Q196 447 174 406T152 282V244Q152 161 174 120T243 79Q290 79 312 120Z" />
<glyph unicode="&#xf5;" glyph-name="otilde" horiz-adv-x="486" d="M83 652T106 687T176 723Q192 723 206 719T242 705Q280 688 303 688Q336 688 340 723H404Q404 678 380 643T309 607Q294 607 280 611T244 625Q206 642 183 642Q151 642 146 607H83Q83 652 106
687ZM142 -12T92 55T41 263Q41 404 91 471T243 538Q345 538 395 471T446 263Q446 123 396 56T243 -12Q142 -12 92 55ZM290 79T312 120T334 244V282Q334 365 312 406T243 447Q196 447 174 406T152 282V244Q152 161 174 120T243 79Q290 79 312 120Z" />
<glyph unicode="&#xf6;" glyph-name="odieresis" horiz-adv-x="486" d="M112 723H207V619H112V723ZM278 723H374V619H278V723ZM142 -12T92 55T41 263Q41 404 91 471T243 538Q345 538 395 471T446 263Q446 123 396 56T243 -12Q142 -12 92 55ZM290 79T312 120T334
244V282Q334 365 312 406T243 447Q196 447 174 406T152 282V244Q152 161 174 120T243 79Q290 79 312 120Z" />
<glyph unicode="&#xf7;" glyph-name="divide" horiz-adv-x="549" d="M225 467H323V362H225V467ZM36 304H512V206H36V304ZM225 148H323V44H225V148Z" />
<glyph unicode="&#xf8;" glyph-name="oslash" horiz-adv-x="501" d="M101 52Q48 120 48 263Q48 404 98 471T251 538Q310 538 352 514L376 558H445L399 475Q453 408 453 263Q453 122 403 55T251 -12Q191 -12 147 12L124 -32H55L101 52ZM304 426Q281 447 251 447Q204
447 182 406T160 282V244Q160 205 165 170L304 426ZM298 79T319 120T341 244V282Q341 326 335 357L196 101Q218 79 251 79Q298 79 319 120Z" />
<glyph unicode="&#xf9;" glyph-name="ugrave" horiz-adv-x="486" d="M111 720L112 723H222L308 591H220L111 720ZM57 -12T57 154V526H164V177Q164 127 181 106T234 85Q271 85 296 117T322 202V526H429V0H342L330 64H324Q303 29 270 9T193 -12Q57 -12 57 154Z" />
<glyph unicode="&#xfa;" glyph-name="uacute" horiz-adv-x="486" d="M263 723H373L374 720L266 591H177L263 723ZM57 -12T57 154V526H164V177Q164 127 181 106T234 85Q271 85 296 117T322 202V526H429V0H342L330 64H324Q303 29 270 9T193 -12Q57 -12 57 154Z" />
<glyph unicode="&#xfb;" glyph-name="ucircumflex" horiz-adv-x="486" d="M198 723H289L374 588H287L243 660L198 588H112L198 723ZM57 -12T57 154V526H164V177Q164 127 181 106T234 85Q271 85 296 117T322 202V526H429V0H342L330 64H324Q303 29 270 9T193 -12Q57
-12 57 154Z" />
<glyph unicode="&#xfc;" glyph-name="udieresis" horiz-adv-x="486" d="M112 723H207V619H112V723ZM278 723H374V619H278V723ZM57 -12T57 154V526H164V177Q164 127 181 106T234 85Q271 85 296 117T322 202V526H429V0H342L330 64H324Q303 29 270 9T193 -12Q57 -12 57 154Z" />
<glyph unicode="&#xfd;" glyph-name="yacute" horiz-adv-x="440" d="M240 723H350L351 720L243 591H155L240 723ZM87 -182T68 -179T42 -173V-93H87Q118 -93 141 -71T176 0L6 526H120L203 256Q207 242 224 163L230 134H234L240 163Q253 235 259 256L327 526H435L294
27Q267 -70 224 -126T113 -182Q87 -182 68 -179Z" />
<glyph unicode="&#xfe;" glyph-name="thorn" horiz-adv-x="486" d="M57 723H164V471L166 470Q184 503 213 520T278 538Q358 538 401 470T445 262Q445 125 401 57T284 -12Q244 -12 213 4T169 51H164V-173H57V723ZM293 85T313 124T333 244V282Q333 363 313 402T249
441Q205 441 185 402T164 282V245Q164 165 184 125T249 85Q293 85 313 124Z" />
<glyph unicode="&#xff;" glyph-name="ydieresis" horiz-adv-x="440" d="M89 723H185V619H89V723ZM256 723H352V619H256V723ZM87 -182T68 -179T42 -173V-93H87Q118 -93 141 -71T176 0L6 526H120L203 256Q207 242 224 163L230 134H234L240 163Q253 235 259 256L327
526H435L294 27Q267 -70 224 -126T113 -182Q87 -182 68 -179Z" />
<glyph unicode="&#x2013;" glyph-name="endash" horiz-adv-x="456" d="M0 315H456V225H0V315Z" />
<glyph unicode="&#x2014;" glyph-name="emdash" horiz-adv-x="820" d="M0 315H820V225H0V315Z" />
<glyph unicode="&#x2018;" glyph-name="quoteleft" horiz-adv-x="212" d="M44 530L103 686H169L119 541H169V414H44V530Z" />
<glyph unicode="&#x2019;" glyph-name="quoteright" horiz-adv-x="212" d="M94 559H44V686H169V570L109 414H44L94 559Z" />
<glyph unicode="&#x201a;" glyph-name="quotesinglbase" horiz-adv-x="212" d="M92 0H42V127H167V11L107 -145H42L92 0Z" />
<glyph unicode="&#x201c;" glyph-name="quotedblleft" horiz-adv-x="363" d="M36 530L96 686H161L112 541H161V414H36V530ZM200 530L260 686H325L275 541H325V414H200V530Z" />
<glyph unicode="&#x201d;" glyph-name="quotedblright" horiz-adv-x="363" d="M88 559H38V686H163V570L103 414H38L88 559ZM252 559H202V686H327V570L267 414H202L252 559Z" />
<glyph unicode="&#x201e;" glyph-name="quotedblbase" horiz-adv-x="363" d="M88 0H38V127H163V11L103 -145H38L88 0ZM252 0H202V127H327V11L267 -145H202L252 0Z" />
<glyph unicode="&#x2022;" glyph-name="bullet" horiz-adv-x="287" d="M95 224T61 259T27 344Q27 393 61 428T143 463Q192 463 226 428T260 344Q260 295 226 260T143 224Q95 224 61 259Z" />
<glyph unicode="&#x2039;" glyph-name="guilsinglleft" horiz-adv-x="273" d="M22 326L160 526H244L135 326L244 126H160L22 326Z" />
<glyph unicode="&#x203a;" glyph-name="guilsinglright" horiz-adv-x="273" d="M138 326L29 526H113L251 326L113 126H29L138 326Z" />
</font>
</defs>
</svg>
