<?xml version="1.0" standalone="no"?>
<!DOCTYPE svg PUBLIC "-//W3C//DTD SVG 1.1//EN" "http://www.w3.org/Graphics/SVG/1.1/DTD/svg11.dtd">
<svg xmlns="http://www.w3.org/2000/svg">
<defs >
<font id="FascinateInline" horiz-adv-x="1123" ><font-face
    font-family="Fascinate Inline"
    units-per-em="2048"
    panose-1="2 15 11 6 8 8 7 2 5 4"
    ascent="2125"
    descent="-591"
    alphabetic="0" />
<glyph unicode=" " glyph-name="space" horiz-adv-x="614" />
<glyph unicode="!" glyph-name="exclam" horiz-adv-x="911" d="M436 526Q401 526 386 539T367 571T364 614T362 659Q356 698 336 736T290 812T234 888T180 966T139 1048T123 1135Q123 1204 149 1264T220 1370T327 1442T457 1468Q525 1468 585 1442T691 1371T762
1265T788 1135Q788 1090 772 1048T732 967T678 889T622 813T575 737T549 659Q546 638 547 615T545 572T525 539T475 526H436ZM226 211Q226 259 244 301T294 374T368 424T458 442Q506 442 548 424T621 375T671 301T689 211Q689 163 671 121T622 48T548 -2T458 -20Q410
-20 368 -2T295 47T245 121T226 211ZM475 357Q499 327 513 290T527 211Q527 170 513 133T475 65Q502 68 526 80T567 112T594 157T604 211Q604 239 594 264T567 309T526 341T475 357ZM501 1396Q556 1350 588 1282T621 1135Q621 1090 611 1054T586 985T554 921T520
856T492 781T477 689Q484 732 503 769T548 842T601 912T651 981T688 1054T703 1135Q703 1184 688 1226T646 1302T582 1359T501 1396Z" />
<glyph unicode="&quot;" glyph-name="quotedbl" horiz-adv-x="709" d="M297 907Q297 890 290 875T256 860H172Q163 860 154 861T138 866T127 880T123 907V1389Q123 1406 127 1415T138 1429T154 1435T172 1436H256Q282 1436 289 1421T297 1389V907ZM586 907Q586
890 579 875T545 860H461Q452 860 443 861T427 866T416 880T412 907V1389Q412 1406 416 1415T427 1429T443 1435T461 1436H545Q571 1436 578 1421T586 1389V907Z" />
<glyph unicode="#" glyph-name="numbersign" horiz-adv-x="952" d="M658 484L606 172Q603 155 593 140T557 125H526Q509 125 496 129T483 156Q483 163 484 166Q484 169 485 172L537 484H310L258 172Q255 155 245 140T209 125H178Q161 125 148 129T135 156Q135
163 136 166Q136 169 137 172L189 484H102Q81 484 81 506V647Q81 668 104 668H220L258 893H161Q140 893 140 915V1056Q140 1077 163 1077H289L342 1389Q345 1406 350 1415T363 1429T379 1435T397 1436H428Q448 1436 456 1428T465 1405Q465 1403 465 1401T463 1389L410
1077H637L690 1389Q693 1406 698 1415T711 1429T727 1435T745 1436H776Q796 1436 804 1428T813 1405Q813 1403 813 1400T811 1389L758 1077H849Q870 1077 870 1056V915Q870 893 849 893H727L689 668H790Q811 668 811 647V506Q811 484 790 484H658ZM341 668H568L606
893H379L341 668Z" />
<glyph unicode="$" glyph-name="dollar" horiz-adv-x="944" d="M555 1307Q630 1319 705 1319Q743 1319 775 1317T825 1313Q834 1312 839 1309T844 1295V1212Q844 1201 838 1200T828 1198Q764 1195 735 1165T705 1059Q705 1032 716 1004T745 944T783 875T821 796T850
703T862 592Q862 525 843 461T786 341T691 239T555 162V-106Q555 -123 548 -138T514 -154H442Q433 -154 424 -153T409 -148T398 -133T393 -106V119Q358 114 322 112T246 109Q184 109 138 113T72 121Q67 122 64 125T61 139V223Q61 230 64 232T72 234Q76 234 83 233T96
232Q151 232 188 275T225 403Q225 459 215 498T188 568T153 627T118 688T91 764T80 870Q80 947 104 1009T171 1121T271 1206T393 1266V1489Q393 1506 397 1515T407 1529T422 1535T440 1536H511Q537 1536 546 1524T555 1489V1307ZM473 209Q539 233 594 268T690 352T754
460T777 592Q777 652 766 701T737 792T699 870T661 940T632 1005T620 1071Q620 1132 650 1176T743 1238Q693 1236 655 1221T592 1181T553 1124T540 1055Q540 1005 564 954T618 847T672 727T697 589Q697 474 642 376T473 209Z" />
<glyph unicode="%" glyph-name="percent" horiz-adv-x="1544" d="M397 6Q392 -2 383 -10T360 -18Q354 -18 349 -16T338 -10L291 20Q280 27 271 35T262 55Q262 68 274 86L1139 1427Q1150 1443 1158 1448T1174 1454Q1183 1454 1190 1451T1206 1442L1251 1409Q1263
1400 1268 1393T1274 1376Q1274 1370 1272 1364T1264 1350L397 6ZM61 1094Q61 1165 87 1227T160 1336T268 1409T401 1436Q473 1436 535 1410T643 1337T716 1228T743 1094Q743 1023 717 961T644 853T535 781T401 754Q330 754 269 780T161 853T88 961T61 1094ZM528
924Q549 924 568 933T601 963T624 1015T633 1094Q633 1141 625 1173T602 1226T568 1256T528 1266Q507 1266 489 1257T456 1227T433 1174T424 1094Q424 1048 432 1016T455 963T488 934T528 924ZM801 340Q801 411 824 473T890 582T990 655T1120 682Q1192 682 1257
656T1373 583T1453 474T1483 340Q1483 269 1457 208T1384 100T1275 27T1141 0Q1070 0 1008 26T900 99T828 207T801 340ZM1268 170Q1289 170 1307 179T1340 209T1363 261T1372 340Q1372 387 1364 419T1341 472T1308 502T1268 512Q1247 512 1228 503T1195 473T1172
420T1163 340Q1163 294 1171 262T1194 209T1228 180T1268 170ZM451 894Q430 898 412 912T379 952T356 1012T347 1094Q347 1141 355 1177T378 1238T411 1277T451 1296Q412 1296 380 1282T324 1242T288 1179T275 1094Q275 1048 287 1011T323 948T379 908T451 894ZM1190
139Q1169 143 1151 157T1118 197T1095 257T1086 339Q1086 386 1094 422T1117 483T1150 522T1190 541Q1151 541 1119 527T1063 487T1027 424T1014 339Q1014 293 1026 256T1062 193T1118 153T1190 139Z" />
<glyph unicode="&amp;" glyph-name="ampersand" horiz-adv-x="1480" d="M435 584Q358 599 290 630T171 711T90 830T60 989Q60 1081 102 1163T225 1308T426 1407T701 1444Q786 1444 865 1433T1021 1397T1169 1331T1311 1230Q1313 1228 1315 1226T1318 1218Q1318
1215 1315 1209L1253 1108Q1248 1102 1244 1102Q1239 1102 1236 1105Q1213 1126 1172 1157T1075 1217T953 1267T813 1288Q783 1288 774 1278T765 1249V689Q765 673 775 660T808 647H1397Q1407 647 1413 641T1420 624V531Q1420 508 1397 508H1304Q1293 359 1249
259T1130 98T951 12T715 -14Q595 -14 493 5T316 65T200 166T158 309Q158 369 179 416T238 498T326 554T435 584ZM762 180Q762 162 769 152T787 138T810 134T830 133Q906 133 962 157T1056 229T1115 347T1144 508H806Q777 508 770 495T762 463V180ZM680 1288Q677
1288 669 1287T649 1285T626 1281T602 1273V142Q611 140 622 139T645 136T665 134T680 133V1288Z" />
<glyph unicode="&apos;" glyph-name="quotesingle" horiz-adv-x="420" d="M297 907Q297 890 290 875T256 860H172Q163 860 154 861T138 866T127 880T123 907V1389Q123 1406 127 1415T138 1429T154 1435T172 1436H256Q282 1436 289 1421T297 1389V907Z" />
<glyph unicode="(" glyph-name="parenleft" horiz-adv-x="862" d="M102 614Q102 758 125 880T189 1103T283 1287T394 1434T514 1546T632 1626Q640 1631 650 1634T670 1638Q681 1638 689 1631T698 1602V-375Q698 -395 690 -402T670 -410Q660 -410 650 -407T632
-398Q576 -366 515 -319T395 -207T283 -60T190 124T126 348T102 614ZM535 -237Q544 -244 555 -252T577 -269T597 -283T613 -294V1527Q596 1516 586 1509T569 1497T554 1485T535 1471V-237Z" />
<glyph unicode=")" glyph-name="parenright" horiz-adv-x="862" d="M760 614Q760 470 737 348T673 125T579 -59T468 -206T348 -318T230 -398Q222 -403 212 -406T192 -410Q181 -410 173 -403T164 -375V1602Q164 1623 172 1630T192 1638Q202 1638 212 1635T230 1626Q286
1594 347 1547T467 1435T579 1288T672 1104T736 880T760 614ZM315 1459Q364 1387 413 1299T503 1105T567 876T592 614Q592 474 568 350T503 119T414 -79T315 -241Q384 -184 448 -105T563 80T644 317T675 614Q675 778 645 909T564 1143T449 1324T315 1459Z" />
<glyph unicode="*" glyph-name="asterisk" horiz-adv-x="765" d="M506 1082L640 916Q648 907 648 896Q648 881 631 869L547 810Q535 803 528 803Q513 805 503 820L383 1018L263 820Q253 805 238 803Q229 803 219 810L135 869Q117 882 118 896Q118 906 125 916L259
1082L61 1159Q40 1168 40 1185Q40 1193 44 1200L87 1292Q97 1313 114 1313Q123 1313 131 1309L312 1209L300 1403Q297 1436 334 1436H436Q470 1436 467 1403L454 1209L635 1309Q643 1313 652 1313Q668 1313 679 1292L722 1200Q724 1196 724 1192T725 1185Q725 1168
705 1159L506 1082Z" />
<glyph unicode="+" glyph-name="plus" horiz-adv-x="1024" d="M619 630H873Q894 630 894 609V438Q894 416 873 416H619V162Q619 141 597 141H426Q405 141 405 162V416H151Q130 416 130 438V609Q130 630 151 630H405V884Q405 905 426 905H597Q619 905 619 884V630Z" />
<glyph unicode="," glyph-name="comma" horiz-adv-x="668" d="M102 211Q102 259 120 301T170 374T244 424T334 442Q382 442 424 424T497 375T547 301T565 211Q565 180 556 148T536 89L406 -219Q400 -232 396 -241T387 -257T373 -265T350 -268H229Q200 -268 200
-249Q200 -238 207 -224L300 -17Q258 -11 222 9T160 59T118 128T102 211ZM351 357Q375 327 389 290T403 211Q403 170 389 133T351 65Q378 68 402 80T443 112T470 157T480 211Q480 239 470 264T443 309T402 341T351 357Z" />
<glyph unicode="-" glyph-name="hyphen" horiz-adv-x="800" d="M121 336Q100 336 100 358V598Q100 619 121 619H679Q700 619 700 598V358Q700 336 679 336H121Z" />
<glyph unicode="." glyph-name="period" horiz-adv-x="668" d="M102 211Q102 259 120 301T170 374T244 424T334 442Q382 442 424 424T497 375T547 301T565 211Q565 163 547 121T498 48T424 -2T334 -20Q286 -20 244 -2T171 47T121 121T102 211ZM351 357Q375 327
389 290T403 211Q403 170 389 133T351 65Q378 68 402 80T443 112T470 157T480 211Q480 239 470 264T443 309T402 341T351 357Z" />
<glyph unicode="/" glyph-name="slash" horiz-adv-x="644" d="M205 -3Q202 -14 194 -26T169 -39Q164 -39 154 -37L90 -23Q75 -19 63 -12T50 12Q50 17 51 22T54 35L439 1445Q446 1470 455 1476T477 1483Q488 1483 499 1479L561 1462Q578 1457 586 1450T594 1429Q594
1420 591 1410L205 -3Z" />
<glyph unicode="0" glyph-name="zero" horiz-adv-x="1220" d="M61 510Q61 624 104 724T221 898T396 1016T610 1059Q724 1059 824 1016T998 899T1116 724T1159 510Q1159 396 1116 296T999 122T824 4T610 -39Q496 -39 396 4T222 121T104 296T61 510ZM850 233Q883
233 913 248T967 297T1004 382T1018 510Q1018 585 1004 637T967 723T914 771T850 786Q817 786 787 771T733 723T696 638T682 510Q682 435 696 383T733 297T786 249T850 233ZM765 187Q732 192 702 215T648 278T611 377T597 510Q597 585 611 642T648 740T701 804T765
832Q713 832 668 810T588 746T535 645T515 510Q515 435 534 376T588 274T667 210T765 187Z" />
<glyph unicode="1" glyph-name="one" horiz-adv-x="1010" d="M67 800Q64 799 59 798T47 796Q33 796 23 802T10 824L2 892Q1 897 1 901Q0 904 0 907T0 911Q0 928 6 938T42 953L726 1052Q742 1054 764 1056T793 1059Q837 1059 860 1041T893 998T904 943T905 893V138Q905
115 904 91T889 47T845 13T756 0H342Q299 0 272 9T229 35T207 78T201 139V846L67 800ZM820 929Q820 952 814 964T785 976Q777 976 767 974T742 970V84Q766 84 781 85T805 93T817 112T820 148V929Z" />
<glyph unicode="2" glyph-name="two" horiz-adv-x="1044" d="M86 0Q67 0 58 5T48 26Q48 37 55 49T74 76Q119 135 157 204T223 346T267 488T283 618Q283 687 274 733T249 807T210 848T160 860Q148 860 135 855T109 845T88 834T73 829Q64 829 61 836L18 903Q15 907
15 912Q15 917 17 920T22 925Q61 956 113 981T227 1023T356 1049T494 1059Q585 1059 655 1044T778 1003T866 940T924 864T955 779T965 692Q965 624 940 553T860 411T719 270T512 134Q588 138 667 141T813 146T927 150T988 152Q1019 152 1031 143T1044 108V40Q1044
34 1043 27T1036 14T1021 4T994 0H86ZM672 963Q707 936 731 904T770 837T791 765T798 692Q798 573 705 444T427 174Q548 240 634 303T774 431T854 559T880 692Q880 737 870 778T835 854T770 916T672 963Z" />
<glyph unicode="3" glyph-name="three" horiz-adv-x="981" d="M186 316Q180 322 180 329Q180 336 187 345L475 666H141Q117 666 104 671T84 686T76 706T74 727V975Q74 993 89 1008T139 1024H850Q886 1024 903 1006T920 964Q920 928 891 897L496 477Q591 476 675
449T823 369T924 237T961 53Q961 -48 917 -131T797 -273T617 -366T393 -399Q352 -399 308 -395T218 -383T126 -362T38 -332Q33 -330 29 -326T24 -314Q24 -312 26 -306L52 -228Q55 -219 58 -217T67 -215Q70 -215 83 -220T115 -230T158 -241T209 -246Q254 -246 292
-226T357 -168T399 -77T414 45Q414 169 387 232T299 295Q276 295 261 285T233 275Q225 275 220 281L186 316ZM634 387Q708 334 751 251T794 53Q794 -57 745 -145T605 -294Q666 -273 716 -241T802 -165T856 -68T876 53Q876 125 859 180T809 275T733 343T634 387Z"
/>
<glyph unicode="4" glyph-name="four" horiz-adv-x="1149" d="M1128 143Q1149 143 1149 122V22Q1149 0 1128 0H991V-322Q991 -345 981 -357T942 -369H838Q812 -369 805 -354T797 -322V0H168Q93 0 62 21T31 87Q31 109 39 139L223 885Q232 919 242 945T272 989T321
1015T399 1024H682Q721 1024 746 1016T786 995T805 964T811 928Q811 910 808 892T801 858L636 143H797V429Q797 446 804 459T838 473H946Q972 473 981 463T991 429V143H1128ZM720 888Q725 909 718 924T688 940H653L469 143H548L720 888Z" />
<glyph unicode="5" glyph-name="five" horiz-adv-x="1012" d="M101 289Q90 289 86 295T84 309L188 982Q189 989 191 996T198 1010T214 1020T244 1024H817Q883 1024 883 973V727Q883 696 864 681T817 666H272L237 471Q256 478 280 486T336 501T406 513T492 518Q595
518 684 488T840 401T943 262T981 74Q981 -43 937 -132T815 -280T628 -369T393 -399Q303 -399 204 -384T17 -332Q13 -330 7 -325T6 -306L33 -217Q36 -207 39 -202T53 -196Q60 -196 71 -201T99 -213T137 -225T186 -231Q225 -231 262 -210T328 -151T375 -57T393 66Q393
127 384 176T359 259T320 311T268 329Q254 329 240 325T206 303Q200 298 194 294T177 289H101ZM613 -303Q678 -283 730 -251T819 -173T876 -66T896 74Q896 146 878 203T827 304T746 377T641 426Q722 369 767 281T813 74Q813 -56 760 -150T613 -303ZM808 922Q808
936 800 943T779 950H737V740H779Q793 740 800 748T808 769V922Z" />
<glyph unicode="6" glyph-name="six" horiz-adv-x="1200" d="M1139 479Q1139 365 1099 270T987 107T816 0T600 -39Q488 -39 390 1T218 112T103 282T61 500Q61 602 87 698T159 883T271 1054T413 1207T579 1339T762 1448Q767 1450 772 1453T785 1456Q799 1456 811
1437L869 1343Q874 1334 874 1326Q874 1315 866 1309T850 1299Q814 1279 767 1250T669 1180T565 1090T461 979Q490 988 519 992T588 997Q710 997 811 957T985 846T1098 681T1139 479ZM829 766Q796 766 766 751T713 702T676 617T662 489Q662 415 675 364T712 280T766
234T829 219Q862 219 892 233T946 280T983 363T997 489Q997 564 984 616T947 702T893 750T829 766ZM744 179Q711 183 681 204T628 263T591 358T577 489Q577 564 590 621T627 718T681 780T744 806Q696 806 651 786T572 726T516 627T495 489Q495 411 516 353T571
256T651 198T744 179Z" />
<glyph unicode="7" glyph-name="seven" horiz-adv-x="1030" d="M189 -278Q148 -279 124 -255T100 -190Q100 -181 101 -172T105 -153L367 863L58 848Q34 848 22 854T5 869T0 888T0 909V975Q0 984 2 993T11 1008T28 1019T56 1024H913Q958 1024 977 1004T996 949Q996
937 993 921T985 887L711 -169Q696 -227 664 -252T587 -278H189ZM897 888Q899 895 900 901T901 915Q901 926 895 933T872 940H832L537 -194H576Q595 -194 608 -182T626 -153L897 888Z" />
<glyph unicode="8" glyph-name="eight" horiz-adv-x="1182" d="M547 -37Q458 -37 371 -16T215 52T104 173T61 352Q61 423 80 478T132 578T212 655T313 715Q278 744 244 781T181 863T135 956T117 1057Q117 1152 150 1227T245 1355T394 1436T590 1464Q681 1464 767
1444T921 1378T1028 1260T1069 1085Q1069 1000 1026 926T899 795Q952 753 993 711T1062 622T1105 523T1120 410Q1120 321 1086 240T980 98T802 0T547 -37ZM614 297Q614 346 601 387T562 467T496 542T403 621Q306 590 255 520T203 360Q203 300 223 254T276 177T350
129T434 113Q482 113 516 130T572 173T604 232T614 297ZM598 1176Q598 1134 616 1093T665 1013T735 941T814 877Q839 893 860 916T896 966T919 1023T928 1085Q928 1137 912 1180T870 1255T808 1305T735 1323Q706 1323 682 1315T638 1289T609 1243T598 1176ZM763
63Q902 111 968 198T1035 410Q1035 475 1013 530T954 633T870 723T775 807T679 888T596 971T537 1061T514 1163Q514 1214 527 1251T560 1314T607 1353T660 1373Q604 1371 562 1354T492 1309T449 1242T434 1160Q434 1097 456 1045T515 948T599 861T694 780T790 698T873
610T932 510T955 391Q955 277 909 199T763 63Z" />
<glyph unicode="9" glyph-name="nine" horiz-adv-x="1200" d="M61 541Q61 648 103 742T218 907T389 1018T600 1059Q712 1059 810 1023T982 919T1097 755T1139 541Q1139 388 1083 248T930 -13T707 -233T438 -405Q434 -407 430 -409T420 -411Q412 -411 408 -408T396
-394L328 -295Q323 -288 323 -282Q323 -274 328 -271T338 -265Q374 -247 420 -221T517 -159T622 -73T729 39Q700 30 672 27T612 23Q490 23 389 63T215 173T102 337T61 541ZM829 264Q862 264 892 279T946 328T983 413T997 541Q997 615 984 667T947 753T893 801T829
817Q796 817 766 802T713 753T676 668T662 541Q662 466 675 414T712 328T766 280T829 264ZM744 218Q711 222 681 245T628 309T591 408T577 541Q577 615 590 673T627 771T681 835T744 863Q696 863 651 842T572 780T516 679T495 541Q495 463 516 403T571 301T651
239T744 218Z" />
<glyph unicode=":" glyph-name="colon" horiz-adv-x="729" d="M133 211Q133 259 151 301T201 374T275 424T365 442Q413 442 455 424T528 375T578 301T596 211Q596 163 578 121T529 48T455 -2T365 -20Q317 -20 275 -2T202 47T152 121T133 211ZM382 357Q406 327
420 290T434 211Q434 170 420 133T382 65Q409 68 433 80T474 112T501 157T511 211Q511 239 501 264T474 309T433 341T382 357ZM133 813Q133 861 151 903T201 976T275 1026T365 1044Q413 1044 455 1026T528 977T578 903T596 813Q596 765 578 723T529 650T455 600T365
582Q317 582 275 600T202 649T152 723T133 813ZM382 959Q406 929 420 892T434 813Q434 772 420 735T382 667Q409 670 433 682T474 714T501 759T511 813Q511 841 501 866T474 911T433 943T382 959Z" />
<glyph unicode=";" glyph-name="semicolon" horiz-adv-x="729" d="M133 813Q133 861 151 903T201 976T275 1026T365 1044Q413 1044 455 1026T528 977T578 903T596 813Q596 765 578 723T529 650T455 600T365 582Q317 582 275 600T202 649T152 723T133 813ZM382
959Q406 929 420 892T434 813Q434 772 420 735T382 667Q409 670 433 682T474 714T501 759T511 813Q511 841 501 866T474 911T433 943T382 959ZM132 211Q132 259 150 301T200 374T274 424T364 442Q412 442 454 424T527 375T577 301T595 211Q595 180 586 148T566
89L436 -219Q430 -232 426 -241T417 -257T403 -265T380 -268H259Q230 -268 230 -249Q230 -238 237 -224L330 -17Q288 -11 252 9T190 59T148 128T132 211ZM381 357Q405 327 419 290T433 211Q433 170 419 133T381 65Q408 68 432 80T473 112T500 157T510 211Q510 239
500 264T473 309T432 341T381 357Z" />
<glyph unicode="&lt;" glyph-name="less" horiz-adv-x="1024" d="M436 523L868 258Q879 252 879 242Q879 236 875 229L789 81Q781 69 773 69Q766 69 761 73L150 448Q140 454 137 462T133 482V564Q133 575 136 583T150 598L761 973Q766 977 773 977Q781 977 789
965L875 817Q879 810 879 804Q879 794 868 788L436 523Z" />
<glyph unicode="=" glyph-name="equal" horiz-adv-x="1024" d="M171 616Q150 616 150 638V809Q150 830 171 830H853Q874 830 874 809V638Q874 616 853 616H171ZM171 216Q150 216 150 238V409Q150 430 171 430H853Q874 430 874 409V238Q874 216 853 216H171Z" />
<glyph unicode="&gt;" glyph-name="greater" horiz-adv-x="1024" d="M588 523L156 788Q145 794 145 804Q145 810 149 817L235 965Q241 977 251 977Q256 977 263 973L874 598Q884 592 887 584T891 564V482Q891 471 888 463T874 448L263 73Q256 69 251 69Q241 69
235 81L149 229Q145 236 145 242Q145 252 156 258L588 523Z" />
<glyph unicode="?" glyph-name="question" horiz-adv-x="1077" d="M995 1112Q995 1073 989 1030T965 944T910 861T815 787T668 730T457 696V573Q457 556 450 541T416 526H326Q319 526 312 527T298 532T287 546T283 573V810Q283 819 287 821T293 825Q345 850 379
886T434 963T462 1044T471 1116Q471 1212 421 1264T279 1317Q237 1317 200 1305T141 1281Q136 1279 133 1277T125 1275Q117 1275 111 1285L71 1347Q67 1354 67 1359Q67 1365 71 1369T79 1375Q151 1423 259 1451T504 1479Q640 1479 734 1446T886 1360T969 1242T995
1112ZM139 211Q139 259 157 301T207 374T281 424T371 442Q419 442 461 424T534 375T584 301T602 211Q602 163 584 121T535 48T461 -2T371 -20Q323 -20 281 -2T208 47T158 121T139 211ZM388 357Q412 327 426 290T440 211Q440 170 426 133T388 65Q415 68 439 80T480
112T507 157T517 211Q517 239 507 264T480 309T439 341T388 357ZM671 801Q750 828 797 863T870 939T902 1024T910 1112Q910 1158 897 1201T854 1282T780 1348T671 1398Q713 1371 742 1337T791 1266T819 1190T828 1112Q828 1075 823 1034T802 953T754 873T671 801Z"
/>
<glyph unicode="@" glyph-name="at" horiz-adv-x="1736" d="M832 285Q763 285 699 298T585 344T506 430T476 567Q476 643 509 696T592 782T702 832T816 854V882Q816 915 806 934T782 963T751 976T723 979Q691 979 665 970T619 951T585 931T563 922Q555 922 551
924T544 934L521 986Q519 990 518 995T516 1002Q516 1009 521 1013T530 1021Q554 1041 589 1061T669 1097T765 1124T872 1134Q956 1134 1028 1121T1154 1070T1239 961T1270 774V440Q1321 454 1361 485T1430 562T1474 662T1489 780Q1489 907 1450 1009T1336 1184T1152
1294T904 1333Q773 1333 654 1286T445 1155T302 954T248 698Q248 566 298 455T434 264T636 138T883 93Q943 93 998 100T1105 124Q1110 125 1116 128T1130 131T1145 127T1157 112L1193 28Q1201 9 1192 3T1175 -7Q1106 -35 1036 -45T883 -55Q775 -55 675 -30T488
44T330 159T207 310T128 492T100 698Q100 811 129 913T212 1102T339 1259T503 1378T694 1454T904 1481Q1066 1481 1201 1433T1432 1293T1582 1072T1636 780Q1636 672 1599 582T1497 425T1346 322T1163 285H832ZM816 727Q765 727 728 715T666 682T629 631T616 566Q616
494 665 454T816 413V727ZM1000 1063Q1050 1024 1078 955T1107 774V414H1185V774Q1185 849 1172 900T1135 985T1076 1037T1000 1063Z" />
<glyph unicode="A" glyph-name="A" horiz-adv-x="1249" d="M678 1436Q696 1436 709 1432T732 1416T752 1387T771 1343L1230 117Q1235 103 1237 92T1239 70Q1239 34 1218 17T1172 0H605Q579 0 562 6T532 22T514 41T505 59L494 94H213L206 64Q203 49 199 38T189
18T173 5T145 0H42Q10 0 10 25Q10 34 13 46T23 76L441 1341Q456 1388 475 1411T529 1436H678ZM244 217H460L349 608L244 217ZM689 1320Q681 1341 670 1346T630 1352H595L1068 84H1116Q1134 84 1140 91T1139 119L689 1320Z" />
<glyph unicode="B" glyph-name="B" horiz-adv-x="1315" d="M92 1296Q92 1331 98 1357T121 1400T168 1427T246 1436H692Q801 1436 902 1410T1081 1326T1206 1176T1253 950Q1253 764 1194 648T1028 484Q1102 460 1139 409T1176 285Q1176 192 1134 136T1023 50T871
10T702 0H246Q198 0 168 9T121 35T98 78T92 139V1296ZM1112 934Q1112 1006 1096 1066T1047 1173T962 1249T838 1290V546Q910 556 962 590T1047 677T1096 795T1112 934ZM838 139Q942 143 988 181T1034 272Q1034 297 1024 322T990 366T929 399T838 415V139ZM753 1305Q738
1307 719 1308T675 1309V132Q700 132 722 132T753 134V1305Z" />
<glyph unicode="C" glyph-name="C" horiz-adv-x="1248" d="M817 722Q817 599 827 510T853 358T892 257T939 197T987 168T1034 160Q1059 160 1079 166T1115 181T1141 196T1158 203Q1166 203 1172 194L1215 126Q1218 120 1218 116Q1218 111 1214 108T1207 101Q1176
77 1128 52T1019 7T883 -26T727 -39Q652 -39 574 -25T421 24T282 116T167 257T90 456T61 722Q61 873 89 987T167 1186T281 1328T421 1419T573 1468T727 1483Q809 1483 883 1470T1018 1437T1128 1392T1207 1343Q1210 1340 1214 1337T1218 1328Q1218 1324 1215 1318L1172
1250Q1166 1241 1158 1241Q1152 1241 1142 1247T1115 1262T1079 1277T1034 1284Q1012 1284 988 1277T939 1248T893 1188T854 1087T827 935T817 722ZM648 722Q648 598 659 507T691 351T739 242T798 172T863 130T930 107Q919 114 900 126T859 164T814 232T773 341T743
500T731 722Q731 850 742 943T772 1103T813 1211T858 1279T900 1317T930 1337Q897 1328 864 1314T799 1273T740 1202T692 1094T660 937T648 722Z" />
<glyph unicode="D" glyph-name="D" horiz-adv-x="1393" d="M92 1296Q92 1331 98 1357T121 1400T168 1427T246 1436H727Q802 1436 876 1426T1017 1388T1141 1314T1241 1191T1307 1011T1331 764Q1331 597 1306 476T1237 269T1134 132T1006 50T864 10T717 0H246Q198
0 168 9T121 35T98 78T92 139V1296ZM1190 743Q1190 867 1170 969T1107 1143T998 1255T838 1296V139Q931 140 998 187T1107 317T1170 508T1190 743ZM753 1298H675V138H753V1298Z" />
<glyph unicode="E" glyph-name="E" horiz-adv-x="1309" d="M838 934V123Q935 137 1016 148Q1050 153 1084 157T1148 166T1198 172T1227 174Q1244 174 1256 168T1268 141V49Q1268 31 1259 16T1216 0H244Q197 0 168 9T121 35T98 78T92 139V1262Q92 1319 105 1353T142
1406T199 1430T274 1436H1178Q1212 1436 1221 1421T1231 1386V1315Q1231 1295 1221 1289T1193 1282Q1183 1282 1163 1284T1115 1289T1057 1297T995 1306Q923 1317 838 1331V1077H1210Q1231 1077 1231 1056V956Q1231 934 1210 934H838ZM753 1345L675 1356V101L753
111V1345Z" />
<glyph unicode="F" glyph-name="F" horiz-adv-x="1272" d="M836 150Q836 127 831 101T809 53T762 15T684 0H244Q197 0 168 9T121 35T98 78T92 139V1262Q92 1319 105 1353T142 1406T199 1430T274 1436H1203Q1251 1436 1251 1386V1294Q1251 1274 1239 1268T1210
1262Q1200 1262 1179 1265T1130 1272T1070 1283T1004 1296Q927 1311 836 1331V1077H1208Q1229 1077 1229 1056V956Q1229 934 1208 934H836V150ZM751 1346L673 1362V84Q697 84 712 85T736 93T748 112T751 148V1346Z" />
<glyph unicode="G" glyph-name="G" horiz-adv-x="1356" d="M1034 1284Q1012 1284 988 1277T939 1250T893 1195T854 1101T827 961T817 764Q817 651 827 567T853 423T892 325T939 264T987 234T1034 225Q1064 225 1090 238V621Q1090 637 1097 652T1130 668H1235Q1244
668 1253 667T1269 662T1280 648T1284 621V47Q1284 30 1280 21T1269 7T1253 1T1235 0H1130Q1117 0 1110 4T1098 15T1092 30T1090 47V76Q1058 53 1019 32T934 -5T833 -30T717 -39Q644 -39 567 -26T418 20T280 112T167 259T90 472T61 764Q61 906 89 1014T167 1203T281
1337T421 1423T573 1469T727 1483Q809 1483 883 1470T1018 1437T1128 1392T1207 1343Q1210 1340 1214 1337T1218 1328Q1218 1324 1215 1318L1172 1250Q1166 1241 1158 1241Q1152 1241 1142 1247T1115 1262T1079 1277T1034 1284ZM648 764Q648 649 659 563T691 413T739
307T798 237T863 194T930 171Q919 177 900 190T859 230T814 298T773 403T743 555T731 764Q731 883 742 970T772 1119T813 1220T858 1283T900 1318T930 1337Q897 1329 864 1316T799 1277T740 1211T692 1110T660 964T648 764Z" />
<glyph unicode="H" glyph-name="H" horiz-adv-x="1356" d="M1008 524H838V162Q838 139 834 111T814 59T765 17T674 0H246Q198 0 168 9T121 35T98 78T92 139V1296Q92 1331 98 1357T121 1400T168 1427T246 1436H692Q750 1436 780 1419T823 1377T837 1323T838 1270V668H1008V1389Q1008
1406 1017 1421T1052 1436H1156Q1165 1436 1173 1435T1188 1430T1198 1416T1202 1389V668H1298Q1319 668 1319 647V546Q1319 524 1298 524H1202V47Q1202 30 1199 21T1189 7T1174 1T1156 0H1049Q1023 0 1016 15T1008 47V524ZM753 1288Q753 1310 750 1323T738 1342T714
1350T675 1352V84Q699 84 714 85T738 93T750 112T753 148V1288Z" />
<glyph unicode="I" glyph-name="I" horiz-adv-x="931" d="M92 1296Q92 1331 98 1357T121 1400T168 1427T246 1436H692Q750 1436 780 1419T823 1377T837 1323T838 1270V162Q838 139 834 111T814 59T765 17T674 0H246Q198 0 168 9T121 35T98 78T92 139V1296ZM753
1288Q753 1310 750 1323T738 1342T714 1350T675 1352V84Q699 84 714 85T738 93T750 112T753 148V1288Z" />
<glyph unicode="J" glyph-name="J" horiz-adv-x="1106" d="M20 137Q20 150 24 153T34 157Q46 157 72 148T143 139Q268 139 268 294V1297Q268 1320 271 1344T289 1389T333 1423T414 1436H860Q908 1436 938 1427T985 1401T1008 1357T1014 1296V503Q1014 383 987
296T915 148T809 51T684 -6T553 -32T427 -39Q294 -39 198 -22T38 28Q33 30 27 36T20 60V137ZM929 1288Q929 1310 926 1323T914 1342T890 1350T851 1352V490Q851 443 850 400T843 315T825 230T792 142Q830 174 856 211T898 294T922 396T929 523V1288Z" />
<glyph unicode="K" glyph-name="K" horiz-adv-x="1264" d="M92 1296Q92 1331 98 1357T121 1400T168 1427T246 1436H692Q744 1436 773 1423T816 1388T834 1342T838 1293V1175L1088 1418Q1102 1432 1113 1439T1135 1447Q1145 1447 1152 1442T1169 1428L1225 1369Q1232
1361 1236 1355T1240 1340Q1240 1320 1216 1301L910 1062Q1052 1049 1117 980T1182 782V47Q1182 30 1178 21T1167 7T1151 1T1133 0H1049Q1023 0 1016 15T1008 47V793Q1008 839 1000 869T971 917T919 944T838 955V162Q838 139 834 111T814 59T765 17T674 0H246Q198
0 168 9T121 35T98 78T92 139V1296ZM753 1288Q753 1310 750 1323T738 1342T714 1350T675 1352V84Q699 84 714 85T738 93T750 112T753 148V1288Z" />
<glyph unicode="L" glyph-name="L" horiz-adv-x="1185" d="M92 1296Q92 1331 98 1357T121 1400T168 1427T246 1436H692Q750 1436 780 1419T823 1377T837 1323T838 1270V137Q907 147 966 155Q991 158 1016 161T1063 168T1102 172T1127 174Q1144 174 1154 168T1165
141V49Q1165 31 1150 16T1100 0H244Q197 0 168 9T121 35T98 78T92 139V1296ZM753 1288Q753 1310 750 1323T738 1342T714 1350T675 1352V114L753 126V1288Z" />
<glyph unicode="M" glyph-name="M" horiz-adv-x="1790" d="M952 633L717 200Q702 172 681 154T623 135Q589 135 567 154T529 199L281 625Q287 490 292 376Q294 327 296 278T300 187T303 113T306 65Q307 50 306 38T298 18T281 5T251 0H141Q123 0 108 11T92 57V1329Q92
1348 97 1367T116 1401T152 1426T206 1436H528Q567 1436 595 1423T643 1378L912 951L1092 1296Q1108 1327 1123 1352T1158 1396T1209 1425T1288 1436H1554Q1592 1436 1619 1426T1664 1399T1690 1359T1698 1309V139Q1698 108 1693 83T1673 39T1629 10T1554 0H1092Q1051
0 1024 9T981 35T959 78T952 139V633ZM569 1324Q557 1344 543 1348T512 1352H462L822 780L863 857L569 1324ZM1613 1288Q1613 1310 1610 1323T1598 1342T1574 1350T1535 1352V84Q1559 84 1574 85T1598 93T1610 112T1613 148V1288Z" />
<glyph unicode="N" glyph-name="N" horiz-adv-x="1380" d="M1239 1436Q1258 1436 1273 1424T1288 1378V74Q1288 0 1218 0H871Q838 0 817 13T778 43L266 578Q275 448 284 339Q287 292 291 246T298 160T303 90T307 47Q309 30 302 15T267 0H141Q123 0 108 11T92 57V1362Q92
1436 174 1436H512Q550 1436 575 1420T627 1378L1114 895Q1104 1014 1096 1115Q1092 1158 1089 1201T1082 1281T1077 1347T1073 1389Q1071 1405 1079 1420T1119 1436H1239ZM558 1325Q540 1343 529 1347T497 1352H426L1114 668V774L558 1325Z" />
<glyph unicode="O" glyph-name="O" horiz-adv-x="1454" d="M727 -39Q647 -39 567 -25T412 23T274 113T163 254T88 454T61 723Q61 875 88 991T162 1191T274 1332T412 1421T566 1469T727 1483Q807 1483 888 1469T1043 1422T1181 1332T1292 1192T1366 991T1393 723Q1393
571 1366 455T1292 255T1181 114T1043 23T888 -25T727 -39ZM817 723Q817 598 835 514T885 379T954 307T1034 285Q1075 285 1114 306T1183 379T1232 514T1251 723Q1251 848 1233 932T1184 1067T1114 1139T1034 1161Q993 1161 955 1140T885 1067T836 932T817 723ZM732
723Q732 848 752 939T805 1090T877 1181T959 1221Q900 1218 844 1190T745 1103T675 951T649 723Q649 589 675 496T744 343T844 256T959 225Q918 232 878 264T805 356T753 507T732 723Z" />
<glyph unicode="P" glyph-name="P" horiz-adv-x="1294" d="M92 1296Q92 1331 98 1357T121 1400T168 1427T246 1436H692Q761 1436 829 1428T959 1399T1075 1347T1168 1268T1230 1157T1253 1010Q1253 887 1220 803T1129 663T997 579T838 537V162Q838 139 834 111T814
59T765 17T674 0H246Q198 0 168 9T121 35T98 78T92 139V1296ZM1112 995Q1112 1055 1096 1105T1047 1194T962 1257T838 1291V670Q910 681 962 710T1047 782T1096 879T1112 995ZM753 1303Q733 1304 712 1304T675 1305V84Q699 84 714 85T738 93T750 112T753 148V1303Z"
/>
<glyph unicode="Q" glyph-name="Q" horiz-adv-x="1454" d="M727 -39Q647 -39 567 -25T412 23T274 113T163 254T88 454T61 723Q61 875 88 991T162 1191T274 1332T412 1421T566 1469T727 1483Q807 1483 888 1469T1043 1422T1181 1332T1292 1192T1366 991T1393 723Q1393
555 1361 433T1273 223L1414 22Q1425 5 1425 -7Q1425 -21 1416 -31T1394 -49L1331 -84Q1324 -88 1317 -90T1302 -93Q1290 -93 1279 -86T1259 -62L1169 103Q1122 63 1069 36T960 -7T844 -31T727 -39ZM1078 449Q1102 464 1122 437L1173 364Q1207 413 1229 500T1251
723Q1251 848 1233 932T1184 1067T1114 1139T1034 1161Q993 1161 955 1140T885 1067T836 932T817 723Q817 598 835 514T885 379T954 307T1034 285Q1053 285 1069 289L1020 380Q1013 393 1015 404T1031 424L1078 449ZM732 723Q732 848 752 939T805 1090T877 1181T959
1221Q900 1218 844 1190T745 1103T675 951T649 723Q649 589 675 496T744 343T844 256T959 225Q918 232 878 264T805 356T753 507T732 723Z" />
<glyph unicode="R" glyph-name="R" horiz-adv-x="1322" d="M997 272Q959 251 920 237T838 214V139Q838 107 831 82T807 38T761 10T689 0H246Q198 0 168 9T121 35T98 78T92 139V1296Q92 1331 98 1357T121 1400T168 1427T246 1436H692Q764 1436 833 1424T965 1386T1080
1315T1171 1207T1231 1056T1253 858Q1253 762 1241 684T1208 543T1158 432T1092 346L1292 82Q1302 68 1302 55Q1302 40 1292 29T1269 11L1209 -24Q1202 -28 1195 -30T1179 -33Q1168 -33 1157 -26T1137 -2L997 272ZM1112 840Q1112 930 1096 1006T1047 1140T962 1236T838
1288V345Q910 361 962 403T1047 510T1096 657T1112 840ZM753 1303Q733 1304 712 1304T675 1305V84Q699 84 714 85T738 93T750 112T753 148V1303Z" />
<glyph unicode="S" glyph-name="S" horiz-adv-x="1293" d="M326 1092Q337 1201 385 1274T504 1390T662 1452T838 1470Q911 1470 981 1464T1110 1450T1212 1434T1275 1422Q1287 1419 1287 1411Q1287 1409 1285 1399L1270 1327Q1268 1320 1265 1319T1258 1317Q1214
1317 1182 1302T1129 1260T1097 1196T1082 1116L1022 389Q1014 301 977 223T874 87T712 -5T492 -39Q409 -39 332 -31T192 -12T84 9T18 25Q6 28 6 36Q6 37 8 47L25 123Q27 130 30 131T37 133Q81 133 118 146T184 189T230 267T256 385L326 1092ZM635 56Q711 74 766
109T858 191T914 288T938 389L998 1116Q1001 1156 1010 1192T1036 1257T1078 1306T1139 1335Q1068 1332 1026 1311T960 1259T929 1189T917 1116L856 389Q852 343 836 296T791 205T723 123T635 56Z" />
<glyph unicode="T" glyph-name="T" horiz-adv-x="1413" d="M334 1290Q269 1276 214 1265Q190 1260 167 1256T122 1249T85 1243T60 1241Q43 1241 32 1247T20 1274V1386Q20 1405 36 1420T86 1436H1327Q1361 1436 1377 1421T1393 1386V1274Q1393 1254 1382 1248T1353
1241Q1344 1241 1328 1243T1291 1248T1247 1256T1199 1265Q1144 1276 1079 1290V137Q1079 103 1073 78T1051 35T1005 9T931 0H485Q438 0 409 9T363 35T340 78T334 139V1290ZM994 1311L916 1328V84Q940 84 955 85T979 93T991 112T994 148V1311Z" />
<glyph unicode="U" glyph-name="U" horiz-adv-x="1294" d="M1202 517Q1202 403 1180 318T1119 170T1027 68T912 4T780 -29T639 -39Q571 -39 504 -31T376 0T263 61T173 162T114 311T92 517V1296Q92 1331 98 1357T121 1400T168 1427T246 1436H692Q750 1436 780 1419T823
1377T837 1323T838 1270V149Q928 167 968 232T1008 425V1389Q1008 1406 1015 1421T1049 1436H1153Q1162 1436 1171 1435T1187 1430T1198 1416T1202 1389V517ZM753 1288Q753 1310 750 1323T738 1342T714 1350T675 1352V138H753V1288Z" />
<glyph unicode="V" glyph-name="V" horiz-adv-x="1229" d="M891 827L1029 1354Q1033 1372 1037 1387T1047 1413T1064 1430T1093 1436H1194Q1209 1436 1218 1430T1227 1410Q1227 1391 1217 1360L799 94Q784 48 764 24T700 0H561Q538 0 523 9T498 31T481 61T469
92L10 1319Q0 1345 0 1366Q0 1401 22 1418T68 1436H635Q660 1436 677 1431T707 1415T727 1390T740 1358L891 827ZM664 1321Q659 1338 648 1345T620 1352H575L811 522L850 669L664 1321Z" />
<glyph unicode="W" glyph-name="W" horiz-adv-x="1884" d="M1524 729L1686 1354Q1690 1372 1694 1387T1704 1413T1720 1430T1747 1436H1846Q1882 1436 1882 1410Q1882 1391 1872 1360L1475 94Q1461 47 1438 24T1379 0H1237Q1215 0 1200 9T1174 31T1156 61T1145
92L964 681L799 94Q786 47 765 24T708 0H541Q518 0 503 9T478 31T461 61T449 92L10 1319Q0 1345 0 1368Q0 1403 20 1419T69 1436H492Q517 1436 535 1430T565 1414T583 1395T592 1376L805 729L871 982L768 1319Q763 1333 761 1346T758 1370Q758 1405 777 1420T825
1436H1249Q1274 1436 1291 1432T1320 1421T1338 1402T1350 1376L1524 729ZM532 1319Q524 1342 511 1347T485 1352H440L734 455L769 593L532 1319ZM1290 1315Q1284 1338 1275 1345T1249 1352H1203L1448 433L1486 582L1290 1315Z" />
<glyph unicode="X" glyph-name="X" horiz-adv-x="1368" d="M443 427L264 82Q255 65 247 51T229 25T204 7T170 0H55Q40 0 31 7T21 30Q21 48 37 76L349 634L39 1319Q27 1346 27 1367Q27 1402 49 1419T96 1436H664Q689 1436 706 1430T735 1414T753 1395T764 1376L888
1102L1018 1354Q1027 1370 1035 1385T1053 1411T1078 1429T1112 1436H1227Q1243 1436 1252 1429T1262 1406Q1262 1389 1245 1360L983 891L1335 117Q1347 90 1347 69Q1347 52 1341 39T1324 18T1302 5T1278 0H711Q685 0 668 6T640 22T621 41T610 59L443 427ZM698
1319Q688 1342 676 1347T651 1352H602L1178 84H1214Q1231 84 1243 92T1244 124L698 1319Z" />
<glyph unicode="Y" glyph-name="Y" horiz-adv-x="1229" d="M264 760L10 1319Q4 1333 2 1344T0 1366Q0 1401 22 1418T68 1436H614Q639 1436 657 1430T687 1414T705 1395T715 1376L891 893L1051 1354Q1057 1371 1062 1386T1075 1412T1094 1429T1123 1436H1215Q1229
1436 1239 1430T1249 1410Q1249 1391 1237 1360L1010 782V140Q1010 105 1003 79T980 36T936 9T866 0H394Q355 0 330 9T291 35T270 78T264 139V760ZM847 84Q871 84 886 85T910 93T922 112T925 148V560L646 1321Q640 1338 630 1345T602 1352H554L847 552V84Z" />
<glyph unicode="Z" glyph-name="Z" horiz-adv-x="1323" d="M106 1386Q106 1405 118 1420T164 1436H1187Q1225 1436 1245 1424T1266 1378Q1266 1358 1258 1333T1241 1284L807 154Q913 171 999 184Q1036 190 1072 195T1138 205T1190 212T1219 215Q1236 215 1249
209T1262 182V49Q1262 31 1250 16T1204 0H137Q88 0 72 18T55 61Q55 90 65 119T92 193L512 1282Q422 1264 347 1251Q315 1245 283 1240T224 1231T177 1224T149 1221Q132 1221 119 1227T106 1253V1386ZM1154 1300Q1161 1319 1161 1329Q1161 1340 1155 1346T1131 1352H1089L617
124L706 137L1154 1300Z" />
<glyph unicode="[" glyph-name="bracketleft" horiz-adv-x="911" d="M193 -371Q184 -371 175 -370T159 -365T148 -351T143 -324V1550Q143 1567 147 1576T159 1590T175 1596T193 1597H849Q870 1597 870 1576V1476Q870 1454 849 1454H686V-228H849Q870 -228 870
-249V-349Q870 -371 849 -371H193ZM601 1454H523V-228H601V1454Z" />
<glyph unicode="\" glyph-name="backslash" horiz-adv-x="644" d="M53 1410Q50 1420 50 1429Q50 1443 58 1450T83 1462L145 1479Q156 1483 167 1483Q180 1483 189 1477T205 1445L590 35Q592 28 593 23T594 12Q594 -5 582 -12T554 -23L490 -37Q480 -39 475 -39Q459
-39 451 -27T439 -3L53 1410Z" />
<glyph unicode="]" glyph-name="bracketright" horiz-adv-x="911" d="M64 -371Q43 -371 43 -349V-249Q43 -228 64 -228H227V1454H64Q43 1454 43 1476V1576Q43 1597 64 1597H720Q729 1597 738 1596T754 1591T765 1577T770 1550V-324Q770 -341 766 -350T754 -364T738
-370T720 -371H64ZM685 1454H607V-228H685V1454Z" />
<glyph unicode="^" glyph-name="asciicircum" horiz-adv-x="1024" d="M512 1224L247 887Q241 879 231 879Q228 879 225 879T218 883L90 989Q85 994 82 997T78 1005Q78 1012 82 1017L407 1419Q421 1436 441 1436H583Q603 1436 617 1419L942 1017Q946 1012 946 1005Q946
1000 943 997T934 989L806 883Q803 880 799 880T793 879Q788 879 785 882T777 890L512 1224Z" />
<glyph unicode="_" glyph-name="underscore" horiz-adv-x="824" d="M21 -512Q0 -512 0 -490V-310Q0 -289 21 -289H803Q824 -289 824 -310V-490Q824 -512 803 -512H21Z" />
<glyph unicode="`" glyph-name="grave" horiz-adv-x="820" d="M124 1401Q115 1407 115 1416Q115 1423 122 1431L214 1561Q221 1570 229 1570Q235 1570 243 1564L597 1296Q606 1288 606 1281Q606 1274 600 1267L533 1169Q527 1159 516 1159Q513 1159 510 1161T503
1165L124 1401Z" />
<glyph unicode="a" glyph-name="a" horiz-adv-x="1290" d="M510 0Q456 0 402 7T298 29T205 70T131 132T81 219T63 334Q63 421 96 483T184 586T312 649T461 677V746Q461 785 451 808T426 842T392 857T356 861Q336 861 314 855T270 841T230 822T198 804Q192 800
187 797T177 794Q168 794 160 807L126 861Q121 868 121 876Q121 884 127 890T140 900Q173 923 224 947T338 990T476 1021T629 1033Q704 1033 775 1028T910 1007T1026 960T1117 879T1177 756T1198 581V135Q1198 102 1192 77T1169 34T1122 9T1044 0H510ZM461 550Q389
550 340 532T261 484T218 415T205 333Q205 291 218 254T261 188T340 144T461 128V550ZM1035 84Q1059 84 1074 85T1098 93T1110 112T1113 148V603Q1113 684 1096 739T1054 830T998 884T942 912Q954 899 970 875T1001 814T1025 726T1035 607V84Z" />
<glyph unicode="b" glyph-name="b" horiz-adv-x="1319" d="M651 -20Q520 -20 416 15T240 116T130 281T92 505V1501Q92 1535 98 1561T121 1605T168 1631T246 1640H684Q727 1640 755 1631T799 1605T822 1561T829 1498V1024Q917 1008 996 973T1136 876T1231 724T1266
508Q1266 403 1242 324T1174 185T1072 87T945 24T801 -10T651 -20ZM829 122Q907 132 963 164T1054 248T1107 365T1124 508Q1124 584 1107 651T1054 769T963 853T829 896V122ZM744 1490Q744 1512 741 1525T729 1544T705 1552T666 1554V102Q671 102 681 102T702 103T725
105T744 108V1490Z" />
<glyph unicode="c" glyph-name="c" horiz-adv-x="1206" d="M780 506Q780 405 801 338T856 232T927 176T998 160Q1023 160 1044 166T1081 181T1108 196T1125 203Q1134 203 1137 200T1146 189L1181 135Q1186 127 1186 121Q1186 114 1182 110T1174 103Q1141 80 1093
55T982 8T840 -27T670 -41Q595 -41 520 -29T377 10T249 79T147 182T78 323T53 506Q53 608 78 688T146 829T249 932T376 1002T520 1041T670 1053Q752 1053 828 1041T968 1008T1084 963T1168 914Q1172 911 1176 907T1180 896Q1180 889 1175 882L1140 828Q1135 820
1132 817T1119 814Q1113 814 1103 820T1078 833T1043 847T998 854Q965 854 927 838T856 781T802 674T780 506ZM913 120Q881 127 843 150T772 218T717 334T695 506Q695 607 717 678T772 794T843 863T913 894Q859 893 806 872T709 804T640 685T613 506Q613 401 639
328T709 209T805 142T913 120Z" />
<glyph unicode="d" glyph-name="d" horiz-adv-x="1319" d="M1227 139Q1227 104 1221 78T1198 35T1151 9T1073 0H636Q563 2 492 13T356 49T236 113T140 209T76 342T53 518Q53 641 88 729T183 878T322 973T490 1024V1498Q490 1533 495 1559T516 1603T560 1629T635
1638H1073Q1121 1638 1151 1629T1198 1603T1221 1560T1227 1499V139ZM195 517Q195 443 212 379T264 265T356 183T490 142V896Q412 887 356 855T265 772T212 657T195 517ZM1142 1490Q1142 1512 1139 1525T1127 1544T1103 1552T1064 1554V84Q1088 84 1103 85T1127
93T1139 112T1142 148V1490Z" />
<glyph unicode="e" glyph-name="e" horiz-adv-x="1311" d="M998 166Q1025 166 1047 173T1086 190T1115 206T1133 214Q1142 214 1145 211T1154 200L1189 146Q1194 138 1194 132Q1194 125 1190 121T1182 114Q1149 91 1101 65T990 16T846 -20T670 -35Q595 -35 520
-23T377 15T249 83T147 186T78 327T53 512Q53 614 78 694T146 836T249 939T376 1008T520 1047T670 1059Q795 1059 902 1031T1089 939T1213 771T1258 516V460Q1258 442 1249 432T1219 422H805Q813 348 833 299T880 220T938 178T998 166ZM1116 545Q1116 625 1104
677T1070 761T1021 806T961 819Q938 819 911 810T861 772T821 689T801 545H1116ZM932 110Q900 117 862 138T791 205T736 323T714 506Q714 607 733 677T784 792T854 859T932 888Q872 886 818 865T722 797T656 679T632 506Q632 398 660 323T731 200T828 131T932 110Z"
/>
<glyph unicode="f" glyph-name="f" horiz-adv-x="1121" d="M873 416V140Q873 104 868 78T847 34T802 9T723 0H289Q241 0 211 9T164 35T141 78T135 139V416H52Q31 416 31 438V518Q31 539 52 539H135V1143Q135 1251 157 1331T218 1468T309 1563T421 1621T545 1651T674
1659Q729 1659 789 1652T906 1634T1012 1607T1095 1575Q1103 1571 1112 1563T1121 1535V1465Q1121 1452 1116 1450T1107 1447Q1094 1447 1079 1453T1034 1459Q1001 1459 972 1446T920 1398T886 1306T873 1160V539H1073Q1094 539 1094 518V438Q1094 416 1073 416H873ZM710
84Q734 84 749 85T773 93T785 112T788 148V1200Q788 1288 803 1343T841 1432T893 1482T949 1509Q913 1510 871 1495T793 1443T734 1348T710 1200V84Z" />
<glyph unicode="g" glyph-name="g" horiz-adv-x="1372" d="M670 100Q594 100 519 110T375 144Q374 139 374 135T374 125Q374 95 384 70T415 25T472 -5T557 -16Q612 -16 659 -10T751 4T841 18T938 25Q987 25 1034 8T1117 -43T1176 -126T1198 -238Q1198 -294 1188
-336T1166 -416Q1164 -421 1159 -428T1138 -435H1064Q1050 -435 1046 -429T1040 -418Q1021 -371 893 -371Q838 -371 784 -377T674 -391T558 -405T430 -412Q337 -412 273 -381T168 -303T110 -198T92 -90Q92 -35 104 10T137 93T183 159T235 213Q153 269 103 359T53
580Q53 669 78 739T146 863T249 954T376 1014T520 1048T670 1059Q737 1059 807 1052T943 1027T1069 977T1175 898L1284 1009Q1295 1020 1305 1025T1325 1030Q1341 1030 1354 1017L1403 965Q1415 951 1415 936Q1415 914 1390 896L1245 794Q1265 751 1275 700T1286
588Q1286 486 1260 410T1189 280T1083 191T955 136T813 108T670 100ZM1004 690Q999 695 999 705Q999 717 1008 726L1072 792Q1052 807 1029 813T981 819Q957 819 928 812T872 779T827 707T809 580Q809 501 823 454T862 381T917 348T981 340Q1012 340 1042 350T1094
388T1131 463T1145 586Q1145 661 1128 710L1061 663Q1053 658 1045 658Q1032 658 1024 668L1004 690ZM896 286Q867 290 837 308T781 361T740 451T724 580Q724 655 743 708T790 796T846 848T896 869Q857 869 813 854T732 804T669 714T644 580Q644 501 665 445T722
354T802 303T896 286ZM965 -57Q997 -90 1015 -135T1033 -238Q1033 -263 1030 -280T1025 -307Q1046 -310 1067 -324T1096 -351Q1102 -338 1107 -308T1113 -238Q1113 -164 1074 -115T965 -57Z" />
<glyph unicode="h" glyph-name="h" horiz-adv-x="1245" d="M829 1005Q851 1022 882 1033T950 1044Q1046 1044 1099 978T1153 784V47Q1153 30 1149 21T1138 7T1122 1T1104 0H1040Q1014 0 1007 15T999 47V794Q999 851 979 881T913 911Q890 911 867 899T829 872V140Q829
105 825 79T806 36T763 9T687 0H224Q185 0 160 9T119 35T98 78T92 139V1499Q92 1533 98 1559T121 1603T168 1629T246 1638H684Q729 1638 757 1630T802 1605T823 1561T829 1499V1005ZM744 1490Q744 1512 741 1525T729 1544T705 1552T666 1554V84Q690 84 705 85T729
93T741 112T744 148V1490Z" />
<glyph unicode="i" glyph-name="i" horiz-adv-x="921" d="M92 885Q92 919 98 945T121 989T168 1015T246 1024H684Q730 1024 758 1016T803 990T824 947T829 885V137Q829 103 824 78T803 35T759 9T684 0H246Q198 0 168 9T121 35T98 78T92 139V885ZM129 1452Q129
1521 155 1582T227 1688T333 1759T463 1786Q531 1786 591 1760T697 1688T768 1582T795 1452Q795 1384 769 1324T697 1218T592 1147T463 1120Q394 1120 333 1146T227 1218T156 1323T129 1452ZM744 876Q744 898 741 911T729 930T705 938T666 940V84Q690 84 705 85T729
93T741 112T744 148V876ZM628 1452Q628 1382 601 1320T526 1212Q566 1222 599 1245T657 1299T696 1370T710 1452Q710 1495 696 1534T658 1604T600 1658T526 1692Q573 1646 600 1584T628 1452Z" />
<glyph unicode="j" glyph-name="j" horiz-adv-x="921" d="M129 1452Q129 1521 155 1582T227 1688T333 1759T463 1786Q531 1786 591 1760T697 1688T768 1582T795 1452Q795 1384 769 1324T697 1218T592 1147T463 1120Q394 1120 333 1146T227 1218T156 1323T129 1452ZM-135
-262Q-135 -249 -131 -246T-121 -242Q-115 -242 -109 -244T-93 -248T-69 -252T-33 -254Q92 -254 92 -99V885Q92 908 95 932T113 977T157 1011T238 1024H675Q723 1024 753 1015T800 989T823 945T829 884V109Q829 -11 803 -98T732 -246T629 -343T506 -400T376 -427T251
-434Q119 -434 30 -417T-117 -368Q-122 -366 -128 -360T-135 -336V-262ZM744 876Q744 898 741 911T729 930T705 938T666 940V91Q666 44 665 1T658 -86T640 -172T607 -260Q645 -228 671 -190T713 -106T737 -3T744 124V876ZM628 1452Q628 1382 601 1320T526 1212Q566
1222 599 1245T657 1299T696 1370T710 1452Q710 1495 696 1534T658 1604T600 1658T526 1692Q573 1646 600 1584T628 1452Z" />
<glyph unicode="k" glyph-name="k" horiz-adv-x="1217" d="M92 1499Q92 1533 98 1559T121 1603T168 1629T246 1638H684Q730 1638 758 1629T802 1603T823 1560T829 1499V777L1069 1015Q1080 1026 1090 1030T1108 1035Q1126 1035 1139 1020L1189 968Q1200 955 1200
943Q1200 932 1193 921T1168 897L855 666Q938 663 995 645T1087 591T1137 504T1153 383V47Q1153 30 1149 21T1138 7T1122 1T1104 0H1040Q1014 0 1007 15T999 47V393Q999 439 991 469T962 518T910 545T829 556V137Q829 103 823 78T798 35T748 9T666 0H246Q198 0
168 9T121 35T98 78T92 139V1499ZM744 1490Q744 1512 741 1525T729 1544T705 1552T666 1554V84Q690 84 705 85T729 93T741 112T744 148V1490Z" />
<glyph unicode="l" glyph-name="l" horiz-adv-x="921" d="M92 1499Q92 1533 98 1559T121 1603T168 1629T246 1638H684Q730 1638 758 1630T802 1604T823 1561T829 1500V137Q829 103 823 78T801 35T757 9T682 0H246Q198 0 168 9T121 35T98 78T92 139V1499ZM744 1490Q744
1512 741 1525T729 1544T705 1552T666 1554V84Q690 84 705 85T729 93T741 112T744 148V1490Z" />
<glyph unicode="m" glyph-name="m" horiz-adv-x="1569" d="M92 885Q92 919 98 945T121 989T168 1015T246 1024H655Q700 1024 731 1015T776 984Q789 994 808 1004T849 1024T897 1038T950 1044Q1042 1044 1094 983Q1107 994 1127 1005T1171 1024T1221 1038T1274
1044Q1370 1044 1423 978T1477 784V47Q1477 30 1473 21T1461 7T1445 1T1427 0H1364Q1338 0 1331 15T1323 47V794Q1323 851 1303 881T1237 911Q1225 911 1212 907T1187 896T1164 882T1146 867Q1149 848 1151 828T1153 784V47Q1153 30 1149 21T1138 7T1122 1T1104
0H1040Q1014 0 1007 15T999 47V794Q999 851 979 881T913 911Q890 911 867 899T829 872V140Q829 105 823 79T800 36T753 9T675 0H246Q198 0 168 9T121 35T98 78T92 139V885ZM744 876Q744 911 726 925T666 940V84Q690 84 705 85T729 93T741 112T744 148V876Z" />
<glyph unicode="n" glyph-name="n" horiz-adv-x="1245" d="M92 885Q92 919 98 945T121 989T168 1015T246 1024H655Q700 1024 732 1015T779 984Q792 993 810 1003T851 1023T898 1038T950 1044Q1046 1044 1099 978T1153 784V47Q1153 30 1149 21T1138 7T1122 1T1104
0H1040Q1014 0 1007 15T999 47V794Q999 851 979 881T913 911Q890 911 867 899T829 872V140Q829 105 823 79T800 36T753 9T675 0H246Q198 0 168 9T121 35T98 78T92 139V885ZM744 876Q744 911 726 925T666 940V84Q690 84 705 85T729 93T741 112T744 148V876Z" />
<glyph unicode="o" glyph-name="o" horiz-adv-x="1339" d="M670 -35Q595 -35 520 -23T377 15T249 83T147 186T78 327T53 512Q53 614 78 694T146 836T249 939T376 1008T520 1047T670 1059Q739 1059 811 1051T952 1020T1081 959T1187 860T1259 717T1286 520Q1286
404 1260 318T1189 170T1083 68T955 6T813 -26T670 -35ZM977 205Q1008 205 1038 218T1092 267T1130 363T1145 520Q1145 610 1131 668T1092 759T1038 806T977 819Q953 819 924 809T869 767T826 674T809 512Q809 411 823 350T860 257T913 215T977 205ZM902 165Q869
171 837 188T780 243T740 346T724 512Q724 579 732 630T755 718T789 780T827 821T866 846T902 859Q867 859 822 844T737 789T670 683T642 512Q642 408 666 341T727 235T811 181T902 165Z" />
<glyph unicode="p" glyph-name="p" horiz-adv-x="1319" d="M666 1047Q740 1047 813 1036T953 1000T1077 935T1176 836T1242 699T1266 518Q1266 392 1230 301T1134 147T995 50T829 0V-272Q829 -308 823 -334T802 -377T758 -403T684 -412H246Q198 -412 168 -403T121
-377T98 -333T92 -272V528Q92 652 130 749T242 912T422 1012T666 1047ZM1124 519Q1124 596 1107 662T1054 779T963 862T829 904V128Q907 138 962 171T1054 256T1107 375T1124 519ZM745 915Q737 916 726 917T704 919T682 920T667 920L666 -328Q690 -328 705 -327T729
-319T741 -300T744 -264L745 915Z" />
<glyph unicode="q" glyph-name="q" horiz-adv-x="1319" d="M1227 -272Q1227 -307 1221 -333T1198 -376T1151 -403T1073 -412H635Q593 -412 565 -404T521 -379T497 -335T490 -273V0Q402 16 323 51T183 146T88 295T53 507Q53 605 76 682T141 816T238 913T361 977T499
1013T645 1024H1073Q1121 1024 1151 1015T1198 989T1221 946T1227 885V-272ZM195 507Q195 432 212 367T264 252T356 170T490 128V881Q412 872 356 841T265 760T212 646T195 507ZM1142 876Q1142 898 1139 911T1127 930T1103 938T1064 940V-328Q1088 -328 1103 -327T1127
-319T1139 -300T1142 -264V876Z" />
<glyph unicode="r" glyph-name="r" horiz-adv-x="1111" d="M92 885Q92 919 98 945T121 989T168 1015T246 1024H684Q730 1024 758 1015T802 988T823 943T829 880V806L1051 1022Q1073 1043 1092 1043Q1103 1043 1111 1039T1126 1028L1171 981Q1186 966 1186 948Q1186
937 1180 926T1159 903L829 647V141Q829 106 824 80T802 36T753 9T666 0H246Q198 0 168 9T121 35T98 78T92 139V885ZM744 876Q744 898 741 911T729 930T705 938T666 940V84Q690 84 705 85T729 93T741 112T744 148V876Z" />
<glyph unicode="s" glyph-name="s" horiz-adv-x="1248" d="M805 1059Q869 1059 933 1052T1054 1032T1159 1006T1237 977Q1242 975 1247 971T1253 956Q1253 953 1252 948T1250 938L1238 879Q1236 867 1233 865T1226 862Q1221 862 1207 865T1177 868Q1120 868 1087
838T1045 731L989 264Q981 202 948 148T851 53T696 -11T479 -35Q401 -35 327 -26T191 -3T82 24T12 46Q4 48 0 51T-5 63Q-5 67 -4 72T-1 84L11 140Q13 148 18 153T36 158Q69 158 102 161T164 180T214 226T244 313L314 795Q325 871 370 922T481 1003T632 1046T805
1059ZM615 58Q753 74 824 135T907 289L960 731Q969 807 1004 857T1102 918Q1046 918 1007 903T940 863T899 803T880 731L827 289Q822 250 807 214T765 148T702 94T615 58Z" />
<glyph unicode="t" glyph-name="t" horiz-adv-x="1124" d="M21 696Q0 696 0 718V798Q0 819 21 819H125V1046Q125 1061 129 1076T154 1099L706 1303Q744 1317 769 1324T813 1331Q820 1331 828 1329T844 1320T857 1304T862 1278V819H1042Q1063 819 1063 798V718Q1063
696 1042 696H862V293Q862 222 885 193T958 164Q969 164 981 166T1003 171T1023 176T1038 179Q1049 179 1049 166V89Q1049 69 1041 62T1027 53Q989 37 938 21T827 -7T701 -27T569 -35Q474 -35 393 -26T252 18T159 119T125 301V696H21ZM777 1188Q777 1208 773 1220T751
1233Q745 1233 736 1231T715 1224L699 1217V267Q699 222 714 194T751 150T798 129T843 123Q828 135 816 147T795 176T782 213T777 263V1188Z" />
<glyph unicode="u" glyph-name="u" horiz-adv-x="1245" d="M829 244Q829 187 847 160T911 133Q934 133 959 143T999 162V977Q999 994 1006 1009T1040 1024H1104Q1113 1024 1122 1023T1137 1018T1148 1004T1153 977V47Q1153 30 1149 21T1138 7T1122 1T1104 0H1040Q1014
0 1007 15T999 63Q977 55 938 41T838 14T697 -10T510 -20Q402 -20 324 -2T194 56T117 162T92 322V885Q92 919 98 945T121 989T168 1015T246 1024H684Q742 1024 772 1007T815 965T828 911T829 858V244ZM744 876Q744 898 741 911T729 930T705 938T666 940V237Q666
196 682 171T719 133T761 114T792 109Q767 135 756 162T744 233V876Z" />
<glyph unicode="v" glyph-name="v" horiz-adv-x="1140" d="M803 590L942 965Q951 991 961 1007T1004 1024H1110Q1139 1024 1139 1007Q1139 996 1128 971L745 68Q731 34 714 17T664 0H506Q485 0 471 6T448 23T432 44T422 66L10 940Q1 959 1 975Q1 1001 20 1012T59
1024H547Q572 1024 589 1022T617 1015T635 1001T647 981L803 590ZM587 909Q574 940 543 940H495L722 371L761 475L587 909Z" />
<glyph unicode="w" glyph-name="w" horiz-adv-x="1764" d="M1397 535L1540 967Q1544 979 1548 989T1559 1007T1578 1019T1610 1024H1718Q1738 1024 1746 1017T1754 999Q1754 988 1747 971L1382 94Q1363 48 1341 24T1282 0H1122Q1100 0 1084 9T1055 32T1035 62T1022
92L877 480L717 94Q698 48 676 24T616 0H457Q434 0 418 9T390 32T370 62T356 92L18 942Q10 961 10 977Q10 1003 27 1013T63 1024H459Q484 1024 501 1021T531 1011T552 993T567 963L731 535L790 714L705 942Q697 964 697 978Q697 1004 713 1014T750 1024H1145Q1195
1024 1218 1012T1253 963L1397 535ZM498 909Q485 940 454 940H406L649 304L687 416L498 909ZM1186 909Q1173 940 1142 940H1102L1318 296L1355 407L1186 909Z" />
<glyph unicode="x" glyph-name="x" horiz-adv-x="1302" d="M393 317L257 82Q248 66 240 51T221 25T197 7T163 0H48Q33 0 24 7T14 30Q14 39 17 50T30 76L288 498L32 942Q20 961 20 978Q20 1024 80 1024H657Q707 1024 726 1013T757 983L886 763L990 942Q999 958
1007 973T1026 999T1051 1017T1085 1024H1199Q1215 1024 1224 1017T1234 994Q1234 974 1218 948L993 581L1277 95Q1285 82 1290 70T1296 46Q1296 29 1290 20T1274 6T1253 1T1229 0H642Q617 0 600 6T571 22T553 41T542 59L393 317ZM707 907Q694 928 685 934T653
940H606L1106 84H1151Q1168 84 1174 92T1166 124L707 907Z" />
<glyph unicode="y" glyph-name="y" horiz-adv-x="1148" d="M802 599L942 965Q947 978 951 988T961 1007T977 1019T1003 1024H1120Q1148 1024 1148 1008Q1148 995 1138 971L573 -362Q567 -375 563 -384T554 -400T540 -409T518 -412H389Q359 -412 359 -394Q359 -382
371 -358L505 -70L10 940Q0 962 0 978Q0 1003 19 1013T59 1024H566Q602 1024 621 1010T647 981L802 599ZM587 909Q574 940 543 940H495L718 383L757 484L587 909Z" />
<glyph unicode="z" glyph-name="z" horiz-adv-x="1151" d="M66 991Q66 1008 73 1016T103 1024H1069Q1107 1024 1122 1015T1137 983Q1137 955 1119 922L720 141Q813 144 890 147Q923 148 955 149T1016 152T1064 153T1092 154Q1109 154 1124 148T1139 121V49Q1139
31 1128 16T1082 0H77Q48 0 34 12T20 41Q20 61 27 80T52 131L440 884Q362 880 295 877Q266 875 237 874T182 872T134 871T101 870Q89 870 78 875T66 901V991ZM1006 888Q1010 896 1012 903T1015 917Q1015 940 983 940H948L536 134L622 137L1006 888Z" />
<glyph unicode="{" glyph-name="braceleft" horiz-adv-x="954" d="M729 -99Q729 -162 761 -195T852 -228H893Q914 -228 914 -250V-350Q914 -371 893 -371H607Q511 -371 440 -344T320 -267T249 -144T225 20V377Q225 427 222 459T202 509T152 534T61 541Q40 541
40 562V664Q40 686 61 686Q119 686 152 693T201 718T221 768T225 850V1206Q225 1297 248 1369T320 1492T439 1570T607 1597H893Q914 1597 914 1576V1476Q914 1454 893 1454H852Q793 1454 761 1421T729 1325V880Q729 821 717 778T685 704T639 652T584 612Q612 595
638 574T685 521T717 448T729 347V-99ZM501 649Q529 665 555 680T601 721T632 783T644 880V1325Q644 1356 652 1385T676 1438T715 1476T767 1494Q716 1494 678 1480T615 1441T578 1387T566 1325V880Q566 834 563 799T551 736T531 687T501 649ZM501 578Q518 561
530 540T551 492T562 429T566 347V-98Q566 -130 578 -160T615 -214T678 -252T767 -267Q738 -264 715 -249T676 -211T652 -159T644 -98V347Q644 406 633 443T601 506T555 546T501 578Z" />
<glyph unicode="|" glyph-name="bar" horiz-adv-x="511" d="M173 1489Q173 1506 177 1515T187 1529T202 1535T220 1536H296Q322 1536 330 1523T339 1489V-465Q339 -482 332 -497T298 -512H222Q213 -512 204 -511T189 -506T178 -492T173 -465V1489Z" />
<glyph unicode="}" glyph-name="braceright" horiz-adv-x="954" d="M225 347Q225 405 237 447T269 521T315 573T370 612Q341 630 315 651T269 704T237 778T225 880V1325Q225 1388 193 1421T102 1454H61Q40 1454 40 1476V1576Q40 1597 61 1597H347Q443 1597 514
1570T634 1493T705 1370T729 1206V850Q729 800 732 768T752 718T801 693T893 686Q914 686 914 664V562Q914 541 893 541Q834 541 802 534T753 509T733 459T729 377V20Q729 -71 706 -143T634 -266T515 -344T347 -371H61Q40 -371 40 -350V-250Q40 -228 61 -228H102Q161
-228 193 -195T225 -99V347ZM706 667Q670 692 657 740T644 850V1206Q644 1343 591 1421T430 1528Q498 1478 532 1397T566 1206V850Q566 805 570 772T590 717T632 682T706 667ZM706 560Q660 557 633 545T590 511T571 455T566 377V21Q566 -88 532 -169T430 -301Q538
-272 591 -194T644 21V377Q644 438 657 486T706 560Z" />
<glyph unicode="~" glyph-name="asciitilde" horiz-adv-x="1024" d="M908 627Q924 619 927 610T926 588Q906 524 879 478T817 401T744 357T663 342Q618 342 576 363T497 411T430 458T378 480Q359 480 345 471T319 448T298 414T282 374Q281 371 279 366T273 358T261
355T241 361L116 421Q94 432 94 443T97 463Q115 526 142 571T205 647T279 691T361 706Q406 706 448 685T527 637T594 590T646 568Q665 568 680 577T706 601T727 636T743 677Q745 683 750 691T774 691L908 627Z" />
<glyph unicode="&#xa0;" glyph-name="nbspace" horiz-adv-x="614" />
<glyph unicode="&#xa1;" glyph-name="exclamdown" horiz-adv-x="911" d="M475 912Q510 912 525 899T544 867T548 824T549 779Q555 739 575 701T621 626T677 550T731 472T772 390T788 303Q788 234 762 174T691 68T586 -4T457 -30Q388 -30 327 -4T221 67T149 173T123
303Q123 348 139 390T179 471T233 549T289 625T336 701T362 779Q365 800 364 823T367 866T386 899T436 912H475ZM226 1227Q226 1275 244 1317T294 1390T368 1440T458 1458Q506 1458 548 1440T621 1391T671 1317T689 1227Q689 1179 671 1137T622 1064T548 1014T458
996Q410 996 368 1014T295 1063T245 1137T226 1227ZM475 1081Q502 1084 526 1096T567 1128T594 1173T604 1227Q604 1255 594 1280T567 1325T526 1357T475 1373Q499 1343 513 1306T527 1227Q527 1185 513 1148T475 1081ZM501 42Q545 55 582 78T646 135T688 211T703
303Q703 346 689 383T651 456T601 526T549 595T504 668T477 749Q480 698 492 658T520 583T553 517T586 454T611 385T621 303Q621 225 589 157T501 42Z" />
<glyph unicode="&#xa2;" glyph-name="cent" horiz-adv-x="1030" d="M72 512Q72 632 106 720T198 869T328 964T479 1013V1223Q479 1240 483 1249T493 1263T508 1269T526 1270H601Q627 1270 634 1257T641 1223V1022Q739 1014 819 981T951 909Q956 905 962 900T968
886Q968 878 963 871L930 819Q925 811 922 810T916 808Q911 808 902 812T880 823T847 833T803 838Q771 838 743 823T692 771T656 670T643 512Q643 417 656 355T691 255T742 203T803 188Q828 188 849 193T885 206T910 218T924 224Q928 224 931 222T940 212L973 160Q978
152 978 145Q978 137 972 132T961 122Q935 102 903 83T831 46T745 17T641 1V-207Q641 -224 634 -239T600 -254H528Q519 -254 510 -253T495 -248T484 -234T479 -207V10Q401 24 328 59T198 154T107 303T72 512ZM717 151Q689 158 661 180T609 244T572 351T557 512Q557
607 571 673T609 781T660 845T717 875Q674 875 632 854T555 789T500 676T478 512Q478 417 499 349T555 236T631 172T717 151Z" />
<glyph unicode="&#xa3;" glyph-name="sterling" horiz-adv-x="1249" d="M62 457Q41 457 41 479V559Q41 580 62 580H145V819Q145 941 170 1033T239 1195T339 1310T461 1384T593 1424T725 1436Q782 1436 839 1429T949 1410T1046 1382T1121 1349Q1126 1347 1131 1342T1137
1319V1241Q1137 1227 1129 1227T1114 1228Q1092 1234 1070 1237T1026 1241Q991 1241 959 1230T902 1190T863 1112T848 989V580H1062Q1083 580 1083 559V479Q1083 457 1062 457H848V130Q902 134 956 138T1056 145T1136 150T1188 152Q1205 152 1217 146T1229 119V49Q1229
40 1228 31T1223 16T1209 5T1183 0H62Q38 0 29 7T20 41V98Q20 120 31 126T59 132L145 129V457H62ZM685 99Q699 103 721 107T763 116V976Q763 1064 778 1119T816 1208T868 1258T924 1285Q888 1286 846 1271T768 1219T709 1124T685 976V99Z" />
<glyph unicode="&#xa4;" glyph-name="currency" horiz-adv-x="974" d="M213 441Q190 478 177 521T164 612Q164 660 177 703T213 784L89 909Q78 920 74 928T70 943Q70 953 75 960T89 976L128 1015Q143 1030 158 1030Q167 1030 175 1025T191 1012L316 887Q354 910
397 923T488 937Q535 937 578 924T659 887L783 1011Q794 1022 802 1026T817 1030Q827 1030 834 1025T850 1011L889 972Q904 957 904 942Q904 933 899 925T886 909L762 785Q785 747 798 704T812 612Q812 564 799 521T762 441L886 317Q893 309 898 301T904 283Q904
269 890 255L851 216Q843 208 835 202T817 196Q801 196 783 215L659 338Q621 315 579 302T488 289Q440 289 397 302T315 338L191 214Q183 206 175 201T157 196Q143 196 129 210L90 249Q82 257 76 264T70 283Q70 298 89 317L213 441ZM311 612Q311 576 325 544T363
488T419 450T488 436Q524 436 556 450T612 488T650 544T664 612Q664 649 650 681T612 737T556 775T488 789Q451 789 419 775T363 737T325 681T311 612Z" />
<glyph unicode="&#xa5;" glyph-name="yen" horiz-adv-x="1249" d="M991 787H1173Q1194 787 1194 766V686Q1194 664 1173 664H989V582H1173Q1194 582 1194 561V481Q1194 459 1173 459H989V138Q989 103 983 77T959 34T909 9T825 0H438Q390 0 361 9T314 35T291 78T285
139V459H101Q80 459 80 481V561Q80 582 101 582H285V664H101Q80 664 80 686V766Q80 787 101 787H273L31 1319Q19 1346 19 1367Q19 1402 41 1419T88 1436H594Q619 1436 637 1430T666 1414T684 1395T694 1376L870 893L1030 1354Q1036 1371 1041 1386T1054 1412T1073
1429T1102 1436H1198Q1229 1436 1229 1409Q1229 1391 1217 1360L991 787ZM826 84Q850 84 865 85T889 93T901 112T904 148V560L625 1321Q619 1338 609 1345T581 1352H533L826 552V84Z" />
<glyph unicode="&#xa6;" glyph-name="brokenbar" horiz-adv-x="511" d="M173 1489Q173 1506 177 1515T187 1529T202 1535T220 1536H296Q322 1536 330 1523T339 1489V806Q339 789 332 774T298 759H222Q213 759 204 760T189 765T178 779T173 806V1489ZM173 218Q173
235 177 244T187 258T202 264T220 265H296Q322 265 330 252T339 218V-465Q339 -482 332 -497T298 -512H222Q213 -512 204 -511T189 -506T178 -492T173 -465V218Z" />
<glyph unicode="&#xa7;" glyph-name="section" horiz-adv-x="912" d="M827 700Q827 624 794 562T697 455Q716 435 734 412T766 361T788 300T797 224Q797 165 773 112T704 19T597 -44T457 -68Q350 -68 277 -47T161 -5Q156 -3 150 3T150 26L175 95Q180 108 182 112T193
117Q198 117 210 111T241 99T281 86T327 80Q350 80 373 85T414 101T443 132T455 179Q455 216 428 246T359 306T270 371T181 450T113 556T85 698Q85 774 117 836T211 943Q173 987 149 1040T125 1164Q125 1223 146 1273T208 1359T308 1415T445 1436Q523 1436 585
1419T693 1384Q700 1381 709 1375T711 1349L689 1287Q686 1278 682 1271T669 1264Q661 1264 639 1274T581 1285Q523 1285 495 1258T467 1189Q467 1152 493 1123T560 1066T647 1006T734 933T800 835T827 700ZM567 546Q584 561 588 582T592 621Q592 651 574 676T524
728T447 783T348 852Q329 841 321 824T313 790Q313 751 334 721T391 662T473 607T567 546ZM664 512Q714 554 735 599T757 700Q757 767 731 816T664 904T577 973T490 1034T424 1098T397 1176Q397 1233 425 1266T511 1319Q459 1318 426 1303T372 1267T344 1221T336
1175Q336 1117 362 1076T429 1002T516 938T603 873T669 792T696 682Q696 644 690 599T664 512ZM666 219Q666 89 555 7Q636 33 681 87T727 224Q727 276 706 318T652 395T575 461T486 520T397 577T320 636T265 702T244 779Q244 803 254 829T298 882Q262 874 240 857T205
821T188 783T183 753Q183 708 204 671T258 601T335 539T424 482T513 426T590 366T645 298T666 219Z" />
<glyph unicode="&#xa8;" glyph-name="dieresis" horiz-adv-x="820" d="M83 1330Q83 1357 93 1381T121 1422T163 1450T214 1461Q241 1461 265 1451T306 1423T334 1381T345 1330Q345 1303 335 1279T307 1238T265 1210T214 1199Q187 1199 163 1209T122 1237T94 1279T83
1330ZM475 1330Q475 1357 485 1381T513 1422T555 1450T606 1461Q633 1461 657 1451T698 1423T726 1381T737 1330Q737 1303 727 1279T699 1238T657 1210T606 1199Q579 1199 555 1209T514 1237T486 1279T475 1330Z" />
<glyph unicode="&#xa9;" glyph-name="copyright" horiz-adv-x="1724" d="M102 725Q102 830 129 927T205 1108T324 1262T478 1381T660 1458T862 1485Q967 1485 1064 1458T1245 1382T1399 1263T1518 1109T1595 927T1622 725Q1622 620 1595 523T1519 342T1400 188T1246
69T1064 -8T862 -35Q704 -35 566 24T325 187T162 429T102 725ZM246 725Q246 597 294 485T426 290T622 158T862 109Q947 109 1026 131T1173 193T1298 289T1394 414T1457 561T1479 725Q1479 810 1457 888T1395 1035T1298 1160T1174 1257T1026 1319T862 1341Q777 1341
699 1319T552 1257T427 1161T330 1036T268 889T246 725ZM915 717Q915 640 931 588T972 505T1028 461T1092 448Q1124 448 1151 462T1195 486Q1203 491 1209 492T1223 481L1247 440Q1255 427 1248 420T1235 408Q1211 391 1177 372T1099 337T999 311T879 300Q800 300
722 321T583 391T483 520T444 717Q444 835 482 915T582 1045T722 1115T879 1137Q936 1137 988 1128T1084 1105T1164 1072T1224 1037Q1230 1032 1237 1025T1236 1005L1212 964Q1204 952 1198 953T1184 959Q1168 968 1143 978T1092 989Q1060 989 1029 976T972 932T931
848T915 717ZM1012 418Q980 422 949 440T892 494T851 585T835 717Q835 795 851 851T892 943T948 997T1012 1019Q969 1019 924 1001T843 946T783 852T759 717Q759 640 782 584T842 490T924 436T1012 418Z" />
<glyph unicode="&#xaa;" glyph-name="ordfeminine" horiz-adv-x="984" d="M386 689Q325 689 265 701T158 741T81 818T51 939Q51 1004 76 1051T142 1128T237 1175T349 1197V1240Q349 1269 342 1286T323 1313T297 1324T270 1327Q255 1327 239 1323T206 1312T176
1298T152 1284Q147 1281 144 1279T136 1276Q130 1276 123 1286L98 1335Q94 1340 94 1346Q94 1352 98 1356T108 1364Q133 1381 171 1399T257 1431T360 1455T475 1464Q560 1464 637 1454T773 1409T867 1307T902 1125V790Q902 765 898 746T880 715T845 696T786 689H386ZM349
1091Q295 1091 260 1078T204 1044T175 996T167 939Q167 910 175 884T204 838T260 807T349 795V1091ZM760 759Q778 759 791 760T812 766T825 780T829 807V1134Q829 1195 815 1237T779 1306T734 1348T690 1369Q699 1360 711 1342T734 1295T752 1227T760 1137V759Z"
/>
<glyph unicode="&#xab;" glyph-name="guillemotleft" horiz-adv-x="1052" d="M337 520L470 381Q482 369 488 356T496 329T499 303T499 280V62Q499 31 475 31Q462 31 451 43T435 61L79 487Q73 495 67 503T60 520Q60 529 66 537T79 553L435 979Q440 984 451 996T475
1009Q499 1009 499 978V760Q499 750 499 738T497 712T488 685T470 659L337 520ZM789 520L922 381Q934 369 940 356T948 329T951 303T951 280V62Q951 31 927 31Q914 31 903 43T887 61L531 487Q525 495 519 503T512 520Q512 529 518 537T531 553L887 979Q892 984
903 996T927 1009Q951 1009 951 978V760Q951 750 951 738T949 712T940 685T922 659L789 520Z" />
<glyph unicode="&#xac;" glyph-name="logicalnot" horiz-adv-x="1024" d="M874 302Q874 281 852 281H681Q660 281 660 302V566H151Q130 566 130 588V759Q130 780 151 780H853Q874 780 874 759V302Z" />
<glyph unicode="&#xad;" glyph-name="uni00AD" horiz-adv-x="800" d="M121 336Q100 336 100 358V598Q100 619 121 619H679Q700 619 700 598V358Q700 336 679 336H121Z" />
<glyph unicode="&#xae;" glyph-name="registered" horiz-adv-x="1274" d="M102 950Q102 1061 144 1158T259 1328T429 1443T637 1485Q748 1485 845 1443T1014 1328T1129 1158T1171 950Q1171 839 1129 742T1015 573T845 458T637 416Q526 416 429 458T259 572T144
742T102 950ZM229 950Q229 866 261 792T348 662T478 575T637 543Q721 543 795 575T925 662T1012 791T1044 950Q1044 1035 1012 1109T925 1238T796 1326T637 1358Q553 1358 479 1326T349 1239T261 1109T229 950ZM440 1182Q440 1208 451 1221T498 1235H653Q695 1235
736 1225T809 1190T861 1127T881 1028Q881 972 863 935T814 873L895 737Q902 726 900 719T890 707L846 686Q839 683 831 685T817 698L754 841Q720 829 682 826V741Q682 717 672 704T630 690H498Q463 690 452 703T440 743V1182ZM682 899Q715 899 738 909T777 938T800
979T807 1028Q807 1055 800 1079T778 1121T739 1150T682 1161V899ZM637 1161H597V732Q616 732 626 735T637 756V1161Z" />
<glyph unicode="&#xaf;" glyph-name="overscore" horiz-adv-x="820" d="M144 1227Q123 1227 123 1249V1409Q123 1430 144 1430H676Q697 1430 697 1409V1249Q697 1227 676 1227H144Z" />
<glyph unicode="&#xb0;" glyph-name="degree" horiz-adv-x="589" d="M50 1219Q50 1270 69 1314T122 1392T199 1444T295 1464Q346 1464 390 1445T468 1392T520 1315T539 1219Q539 1168 520 1124T468 1046T391 994T295 975Q244 975 200 994T122 1046T70 1123T50
1219ZM168 1220Q168 1193 178 1170T205 1130T245 1103T295 1093Q322 1093 345 1103T385 1130T411 1170T421 1220Q421 1247 412 1270T385 1310T345 1337T295 1347Q269 1347 246 1337T205 1310T178 1270T168 1220Z" />
<glyph unicode="&#xb1;" glyph-name="plusminus" horiz-adv-x="1024" d="M619 516V312Q619 291 597 291H426Q405 291 405 312V516H151Q130 516 130 538V709Q130 730 151 730H405V934Q405 955 426 955H597Q619 955 619 934V730H873Q894 730 894 709V538Q894 516
873 516H619ZM151 0Q130 0 130 22V193Q130 214 151 214H873Q894 214 894 193V22Q894 0 873 0H151Z" />
<glyph unicode="&#xb2;" glyph-name="twosuperior" horiz-adv-x="780" d="M66 567Q52 567 46 571T39 589Q39 598 44 608T58 631Q90 680 117 738T165 857T197 977T209 1086Q209 1144 203 1181T185 1240T157 1270T120 1279Q110 1279 101 1276T85 1268T71 1260T61
1256Q56 1256 52 1262L17 1325Q15 1331 15 1333Q15 1337 16 1339T20 1344Q48 1370 86 1390T168 1425T262 1448T362 1456Q461 1456 526 1428T631 1356T686 1257T703 1148Q703 1091 685 1033T627 917T525 802T375 690Q430 693 487 695T592 700T675 704T719 705Q742
705 751 697T760 668V601Q760 591 754 579T724 567H66ZM443 1387Q473 1364 492 1336T524 1277T541 1213T546 1148Q546 1100 538 1051T508 952T448 854T352 757Q424 806 475 854T560 950T608 1047T623 1148Q623 1189 614 1226T584 1294T529 1349T443 1387Z" />
<glyph unicode="&#xb3;" glyph-name="threesuperior" horiz-adv-x="698" d="M120 1011Q111 1019 120 1028L288 1195H98Q82 1195 74 1198T61 1207T55 1218T54 1231V1406Q54 1417 64 1426T97 1436H603Q624 1436 635 1428T649 1408T647 1383T631 1358L366 1090Q430
1089 487 1073T586 1024T653 942T678 829Q678 767 646 717T558 629T431 572T277 552Q250 552 219 554T155 562T90 574T29 592Q24 594 22 597T21 608L45 682Q47 688 50 688T56 689Q60 689 70 686T95 680T126 674T160 671Q221 671 256 706T291 825Q291 903 274 938T215
973Q204 973 191 970T169 963Q167 962 162 961T152 965L120 1011ZM370 620Q420 632 462 650T534 695T581 755T598 829Q598 873 584 906T545 964T484 1005T405 1030Q459 998 491 946T523 829Q523 800 513 771T484 713T436 661T370 620Z" />
<glyph unicode="&#xb4;" glyph-name="acute" horiz-adv-x="820" d="M317 1165Q313 1163 310 1161T304 1159Q293 1159 287 1169L220 1267Q214 1274 214 1281Q214 1288 223 1296L577 1564Q584 1570 591 1570Q598 1570 606 1561L698 1431Q705 1423 705 1416Q705 1407
696 1401L317 1165Z" />
<glyph unicode="&#xb5;" glyph-name="micro" horiz-adv-x="1321" d="M130 914Q130 957 152 987T229 1018H540Q569 1018 589 1010T621 989T638 957T644 919V285Q644 225 674 199T752 173Q775 173 795 178T831 196T855 230T864 284V971Q864 979 865 987T871 1002T887
1013T916 1018H1142Q1151 1018 1160 1017T1175 1012T1186 998T1191 971V47Q1191 30 1187 21T1176 7T1160 1T1142 0H961Q943 0 932 4T913 20T904 56T901 118L892 121Q885 84 876 54T854 3T823 -29T779 -41Q757 -41 738 -34T703 -9T675 41T654 120L644 116V-370Q644
-426 622 -451T540 -477H227Q209 -477 192 -472T161 -457T139 -431T130 -392V914ZM559 876Q559 898 556 911T544 930T520 938T481 940V-393Q505 -393 520 -392T544 -384T556 -365T559 -329V876ZM1096 876Q1096 898 1093 911T1081 930T1057 938T1018 940V84Q1042
84 1057 85T1081 93T1093 112T1096 148V876Z" />
<glyph unicode="&#xb6;" glyph-name="paragraph" horiz-adv-x="1174" d="M743 -219Q743 -236 736 -251T702 -266H639Q630 -266 621 -265T605 -260T594 -246T590 -219V528Q494 535 405 559T246 638T134 782T92 1010Q92 1091 115 1154T177 1264T270 1344T385 1397T511
1427T639 1436H702Q728 1436 735 1421T743 1389V-219ZM969 -219Q969 -236 962 -251T928 -266H864Q855 -266 846 -265T831 -260T820 -246T815 -219V1389Q815 1406 819 1415T830 1429T846 1435T864 1436H928Q954 1436 961 1421T969 1389V-219ZM590 1296Q495 1296
428 1275T317 1214T254 1119T233 995Q233 926 253 866T317 761T427 690T590 664V1296Z" />
<glyph unicode="&#xb7;" glyph-name="middot" horiz-adv-x="668" d="M102 557Q102 605 120 647T170 720T244 770T334 788Q382 788 424 770T497 721T547 647T565 557Q565 509 547 467T498 394T424 344T334 326Q286 326 244 344T171 393T121 467T102 557ZM351 703Q375
673 389 636T403 557Q403 516 389 479T351 411Q378 414 402 426T443 458T470 503T480 557Q480 585 470 610T443 655T402 687T351 703Z" />
<glyph unicode="&#xb8;" glyph-name="cedilla" horiz-adv-x="820" d="M440 -107Q511 -118 557 -140T632 -194T671 -261T682 -337Q682 -408 653 -456T574 -535T463 -578T334 -591Q313 -591 280 -589T216 -578T162 -557T139 -520V-424Q139 -414 144 -411T154 -407Q166
-407 181 -412T218 -423T270 -434T344 -439Q387 -439 417 -431T466 -407T493 -373T501 -333Q501 -308 491 -288T457 -253T398 -230T309 -222Q304 -222 296 -221T287 -203Q287 -199 291 -176T302 -122T316 -55T329 10H465L440 -107Z" />
<glyph unicode="&#xb9;" glyph-name="onesuperior" horiz-adv-x="727" d="M45 1252Q43 1252 40 1251T31 1250Q22 1250 16 1254T7 1267L1 1345Q0 1348 0 1351V1357Q0 1367 4 1373T28 1382L506 1441Q517 1443 531 1444T551 1446Q581 1446 596 1438T618 1416T625
1384T626 1348V650Q626 636 625 622T616 595T587 575T527 567H229Q200 567 182 572T154 587T139 613T135 650V1280L45 1252ZM546 1316Q546 1339 540 1351T511 1363Q503 1363 496 1362T474 1359V645Q498 645 512 646T533 654T543 673T546 709V1316Z" />
<glyph unicode="&#xba;" glyph-name="ordmasculine" horiz-adv-x="1024" d="M512 644Q428 644 345 664T197 732T91 858T50 1054Q50 1169 90 1247T196 1374T345 1443T512 1464Q564 1464 618 1458T723 1435T820 1389T900 1315T954 1207T974 1060Q974 973 955 908T901
797T822 721T725 674T619 651T512 644ZM738 834Q762 834 783 844T822 879T849 948T859 1060Q859 1124 849 1165T821 1231T783 1264T738 1274Q720 1274 699 1267T660 1236T629 1170T617 1054Q617 982 626 939T652 872T691 841T738 834ZM677 794Q652 799 628 812T586
853T556 930T544 1054Q544 1130 558 1178T592 1254T636 1296T677 1314Q647 1314 612 1303T546 1262T495 1182T474 1054Q474 976 492 926T539 847T604 806T677 794Z" />
<glyph unicode="&#xbb;" glyph-name="guillemotright" horiz-adv-x="1052" d="M715 520L582 659Q570 671 564 684T556 711T553 737T553 760V978Q553 1009 577 1009Q590 1009 601 997T617 979L973 553Q979 545 985 537T992 520Q992 511 986 503T973 487L617 61Q612
56 601 44T577 31Q553 31 553 62V280Q553 290 553 302T555 328T564 355T582 381L715 520ZM263 520L130 659Q118 671 112 684T104 711T101 737T101 760V978Q101 1009 125 1009Q138 1009 149 997T165 979L521 553Q527 545 533 537T540 520Q540 511 534 503T521 487L165
61Q160 56 149 44T125 31Q101 31 101 62V280Q101 290 101 302T103 328T112 355T130 381L263 520Z" />
<glyph unicode="&#xbc;" glyph-name="onequarter" horiz-adv-x="1647" d="M397 6Q391 -2 382 -10T360 -18Q349 -18 338 -10L291 20Q280 27 271 35T262 55Q262 68 274 86L1139 1427Q1150 1443 1158 1448T1174 1454Q1183 1454 1190 1451T1206 1442L1251 1409Q1274
1395 1274 1376Q1274 1370 1272 1364T1264 1350L397 6ZM45 1252Q43 1252 40 1251T31 1250Q22 1250 16 1254T7 1267L1 1345Q0 1348 0 1351V1357Q0 1366 4 1372T28 1382L466 1441Q477 1443 491 1444T511 1446Q541 1446 556 1438T578 1416T585 1384T586 1348V750Q586
736 585 722T576 695T547 675T487 667H229Q200 667 182 672T154 687T139 713T135 750V1280L45 1252ZM1593 317Q1607 317 1607 304V214Q1607 201 1593 201H1501V28Q1501 14 1495 7T1468 0H1368Q1351 0 1346 9T1341 28V201H909Q858 201 838 214T817 253Q817 266 822
284L945 692Q951 713 958 728T978 754T1011 770T1063 775H1254Q1280 775 1297 771T1323 758T1336 740T1340 718Q1340 707 1338 696T1334 676L1239 317H1341V468Q1341 479 1346 487T1368 495H1471Q1488 495 1494 489T1501 468V317H1593ZM506 1316Q506 1339 500 1351T471
1363Q463 1363 456 1362T434 1359V745Q458 745 472 746T493 754T503 773T506 809V1316ZM1244 652Q1245 657 1245 660T1246 668Q1246 681 1239 689T1211 697H1183L1083 317H1156L1244 652Z" />
<glyph unicode="&#xbd;" glyph-name="onehalf" horiz-adv-x="1711" d="M397 6Q391 -2 382 -10T360 -18Q349 -18 338 -10L291 20Q280 27 271 35T262 55Q262 68 274 86L1139 1427Q1150 1443 1158 1448T1174 1454Q1183 1454 1190 1451T1206 1442L1251 1409Q1274 1395
1274 1376Q1274 1370 1272 1364T1264 1350L397 6ZM45 1252Q43 1252 40 1251T31 1250Q22 1250 16 1254T7 1267L1 1345Q0 1348 0 1351V1357Q0 1367 4 1373T28 1382L466 1441Q477 1443 491 1444T511 1446Q541 1446 556 1438T578 1416T585 1384T586 1348V750Q586 736
585 722T576 695T547 675T487 667H229Q200 667 182 672T154 687T139 713T135 750V1280L45 1252ZM977 0Q963 0 957 4T950 20Q950 28 955 37T969 58Q1001 103 1028 155T1076 262T1108 370T1120 468Q1120 520 1114 553T1096 606T1068 634T1031 642Q1021 642 1012 639T996
632T982 625T972 621Q968 621 963 626L928 683Q927 685 927 686T926 690Q926 694 927 696T931 700Q959 723 997 742T1079 774T1173 794T1273 801Q1372 801 1437 776T1542 711T1597 622T1614 523Q1614 472 1596 422T1538 321T1436 220T1286 121Q1341 124 1398 126T1503
130T1586 133T1630 134Q1653 134 1662 127T1671 101V31Q1671 22 1665 11T1635 0H977ZM506 1316Q506 1339 500 1351T471 1363Q463 1363 456 1362T434 1359V745Q458 745 472 746T493 754T503 773T506 809V1316ZM1321 234Q1380 272 1421 306T1487 374T1523 444T1534
523Q1534 559 1526 591T1497 651T1443 698T1362 732Q1414 690 1436 635T1458 523Q1458 486 1452 451T1431 379T1389 307T1321 234Z" />
<glyph unicode="&#xbe;" glyph-name="threequarters" horiz-adv-x="1657" d="M407 6Q401 -2 392 -10T370 -18Q359 -18 348 -10L301 20Q290 27 281 35T272 55Q272 68 284 86L1149 1427Q1160 1443 1168 1448T1184 1454Q1193 1454 1200 1451T1216 1442L1261 1409Q1284
1395 1284 1376Q1284 1370 1282 1364T1274 1350L407 6ZM138 1066Q136 1071 135 1074T138 1081L283 1216H107Q91 1216 83 1219T70 1226T64 1236T63 1247V1410Q63 1420 73 1428T106 1436H602Q622 1436 633 1429T647 1412T646 1390T630 1368L380 1135Q443 1134 497
1120T591 1077T653 1006T676 907Q676 853 644 809T558 733T433 684T282 666Q256 666 225 668T162 674T99 685T39 701Q34 703 32 706T31 715L55 789Q57 794 59 794T65 795Q69 795 79 793T103 788T133 783T167 780Q197 780 221 785T261 805T287 843T296 904Q296 972
279 1002T221 1033Q210 1033 197 1030T176 1024Q174 1023 169 1022T160 1026L138 1066ZM1603 317Q1617 317 1617 304V214Q1617 201 1603 201H1511V28Q1511 14 1505 7T1478 0H1378Q1361 0 1356 9T1351 28V201H919Q868 201 848 214T827 253Q827 266 832 284L955 692Q961
713 968 728T988 754T1021 770T1073 775H1264Q1290 775 1307 771T1333 758T1346 740T1350 718Q1350 707 1348 696T1344 676L1249 317H1351V468Q1351 479 1356 487T1378 495H1481Q1498 495 1504 489T1511 468V317H1603ZM1254 652Q1255 657 1255 660T1256 668Q1256
681 1249 689T1221 697H1193L1093 317H1166L1254 652ZM423 1075Q468 1046 494 1002T520 907Q520 883 511 859T486 812T449 770T404 735Q446 744 481 759T542 797T582 847T596 911Q596 952 584 981T550 1029T495 1059T423 1075Z" />
<glyph unicode="&#xbf;" glyph-name="questiondown" horiz-adv-x="1077" d="M82 337Q82 376 88 419T112 505T167 588T262 662T409 719T620 753V876Q620 893 627 908T661 923H751Q758 923 765 922T779 917T790 903T794 876V639Q794 630 790 628T784 624Q732 599
698 563T643 486T615 405T606 333Q606 237 656 185T798 132Q840 132 877 144T936 168Q941 170 944 172T952 174Q960 174 966 164L1006 102Q1010 95 1010 90Q1010 84 1006 80T998 74Q926 26 818 -2T573 -30Q436 -30 343 3T191 89T108 207T82 337ZM475 1238Q475 1286
493 1328T543 1401T617 1451T707 1469Q755 1469 797 1451T870 1402T920 1328T938 1238Q938 1190 920 1148T871 1075T797 1025T707 1007Q659 1007 617 1025T544 1074T494 1148T475 1238ZM724 1384Q748 1354 762 1317T776 1238Q776 1197 762 1160T724 1092Q751 1095
775 1107T816 1139T843 1184T853 1238Q853 1266 843 1291T816 1336T775 1368T724 1384ZM611 133Q567 165 544 217T521 333Q521 364 530 405T560 490T615 573T699 644Q623 618 573 580T493 499T451 413T439 333Q439 242 483 191T611 133Z" />
<glyph unicode="&#xc0;" glyph-name="Agrave" horiz-adv-x="1249" d="M678 1436Q696 1436 709 1432T732 1416T752 1387T771 1343L1230 117Q1235 103 1237 92T1239 70Q1239 34 1218 17T1172 0H605Q579 0 562 6T532 22T514 41T505 59L494 94H213L206 64Q203 49 199
38T189 18T173 5T145 0H42Q10 0 10 25Q10 34 13 46T23 76L441 1341Q456 1388 475 1411T529 1436H678ZM244 217H460L349 608L244 217ZM689 1320Q681 1341 670 1346T630 1352H595L1068 84H1116Q1134 84 1140 91T1139 119L689 1320ZM317 1770Q308 1776 308 1785Q308
1792 315 1800L407 1930Q414 1939 422 1939Q428 1939 436 1933L790 1665Q799 1657 799 1650Q799 1643 793 1636L726 1538Q720 1528 709 1528Q706 1528 703 1530T696 1534L317 1770Z" />
<glyph unicode="&#xc1;" glyph-name="Aacute" horiz-adv-x="1249" d="M678 1436Q696 1436 709 1432T732 1416T752 1387T771 1343L1230 117Q1235 103 1237 92T1239 70Q1239 34 1218 17T1172 0H605Q579 0 562 6T532 22T514 41T505 59L494 94H213L206 64Q203 49 199
38T189 18T173 5T145 0H42Q10 0 10 25Q10 34 13 46T23 76L441 1341Q456 1388 475 1411T529 1436H678ZM244 217H460L349 608L244 217ZM689 1320Q681 1341 670 1346T630 1352H595L1068 84H1116Q1134 84 1140 91T1139 119L689 1320ZM510 1534Q506 1532 503 1530T497
1528Q486 1528 480 1538L413 1636Q407 1643 407 1650Q407 1657 416 1665L770 1933Q777 1939 784 1939Q791 1939 799 1930L891 1800Q898 1792 898 1785Q898 1776 889 1770L510 1534Z" />
<glyph unicode="&#xc2;" glyph-name="Acircumflex" horiz-adv-x="1249" d="M678 1436Q696 1436 709 1432T732 1416T752 1387T771 1343L1230 117Q1235 103 1237 92T1239 70Q1239 34 1218 17T1172 0H605Q579 0 562 6T532 22T514 41T505 59L494 94H213L206 64Q203
49 199 38T189 18T173 5T145 0H42Q10 0 10 25Q10 34 13 46T23 76L441 1341Q456 1388 475 1411T529 1436H678ZM244 217H460L349 608L244 217ZM689 1320Q681 1341 670 1346T630 1352H595L1068 84H1116Q1134 84 1140 91T1139 119L689 1320ZM603 1692L379 1534Q375
1532 372 1530T366 1528Q356 1528 349 1538L282 1626Q276 1633 276 1640Q276 1647 285 1655L589 1913Q592 1915 595 1917T603 1919Q608 1919 611 1917T617 1913L921 1655Q930 1647 930 1640Q930 1633 924 1626L857 1538Q849 1528 840 1528Q837 1528 834 1530T827
1534L603 1692Z" />
<glyph unicode="&#xc3;" glyph-name="Atilde" horiz-adv-x="1249" d="M678 1436Q696 1436 709 1432T732 1416T752 1387T771 1343L1230 117Q1235 103 1237 92T1239 70Q1239 34 1218 17T1172 0H605Q579 0 562 6T532 22T514 41T505 59L494 94H213L206 64Q203 49 199
38T189 18T173 5T145 0H42Q10 0 10 25Q10 34 13 46T23 76L441 1341Q456 1388 475 1411T529 1436H678ZM244 217H460L349 608L244 217ZM689 1320Q681 1341 670 1346T630 1352H595L1068 84H1116Q1134 84 1140 91T1139 119L689 1320ZM920 1852Q934 1852 935 1842T935
1821Q927 1770 910 1724T868 1644T809 1589T734 1568Q698 1568 663 1583T597 1616T539 1649T496 1664Q473 1664 460 1657T438 1638T426 1611T420 1579Q419 1573 414 1571T387 1568H287Q277 1568 274 1572T270 1582T270 1593T272 1602Q278 1652 295 1697T338 1775T398
1829T473 1849Q509 1849 544 1834T610 1802T668 1769T711 1754Q734 1754 748 1761T770 1781T782 1808T788 1841Q789 1847 793 1849T813 1852H920Z" />
<glyph unicode="&#xc4;" glyph-name="Adieresis" horiz-adv-x="1249" d="M678 1436Q696 1436 709 1432T732 1416T752 1387T771 1343L1230 117Q1235 103 1237 92T1239 70Q1239 34 1218 17T1172 0H605Q579 0 562 6T532 22T514 41T505 59L494 94H213L206 64Q203 49
199 38T189 18T173 5T145 0H42Q10 0 10 25Q10 34 13 46T23 76L441 1341Q456 1388 475 1411T529 1436H678ZM244 217H460L349 608L244 217ZM689 1320Q681 1341 670 1346T630 1352H595L1068 84H1116Q1134 84 1140 91T1139 119L689 1320ZM276 1699Q276 1726 286 1750T314
1791T356 1819T407 1830Q434 1830 458 1820T499 1792T527 1750T538 1699Q538 1672 528 1648T500 1607T458 1579T407 1568Q380 1568 356 1578T315 1606T287 1648T276 1699ZM668 1699Q668 1726 678 1750T706 1791T748 1819T799 1830Q826 1830 850 1820T891 1792T919
1750T930 1699Q930 1672 920 1648T892 1607T850 1579T799 1568Q772 1568 748 1578T707 1606T679 1648T668 1699Z" />
<glyph unicode="&#xc5;" glyph-name="Aring" horiz-adv-x="1249" d="M346 1640Q346 1693 366 1740T421 1822T503 1877T603 1898Q656 1898 702 1878T783 1822T838 1740T858 1640Q858 1568 823 1510T730 1418Q741 1407 750 1389T771 1343L1230 117Q1235 103 1237
92T1239 70Q1239 34 1218 17T1172 0H605Q579 0 562 6T532 22T514 41T505 59L494 94H213L206 64Q203 49 199 38T189 18T173 5T145 0H42Q10 0 10 25Q10 34 13 46T23 76L441 1341Q449 1367 458 1385T479 1416Q419 1448 383 1507T346 1640ZM244 217H460L349 608L244
217ZM493 1642Q493 1619 501 1599T525 1564T560 1541T603 1532Q626 1532 645 1540T679 1564T702 1599T711 1642Q711 1665 703 1685T680 1719T646 1742T603 1751Q580 1751 560 1743T525 1720T502 1685T493 1642ZM689 1320Q681 1341 670 1346T630 1352H595L1068 84H1116Q1134
84 1140 91T1139 119L689 1320Z" />
<glyph unicode="&#xc6;" glyph-name="AE" horiz-adv-x="1702" d="M1231 123Q1231 122 1256 125T1319 135T1405 147T1495 160T1574 170T1626 174Q1641 174 1651 167T1661 141V49Q1661 31 1651 16T1606 0H637Q590 0 561 9T514 35T491 78T485 139V186H176L133 82Q126
65 120 50T105 24T83 7T50 0H-25Q-48 0 -59 3T-71 19Q-71 30 -57 63L500 1341Q520 1388 545 1412T616 1436H1571Q1600 1436 1612 1421T1624 1386V1315Q1624 1296 1613 1289T1590 1282Q1573 1282 1540 1286T1467 1295T1385 1307T1309 1319T1253 1328T1231 1331V1077H1603Q1624
1077 1624 1056V956Q1624 934 1603 934H1231V123ZM485 309V938L221 309H485ZM1146 1345L1068 1356V101L1146 111V1345Z" />
<glyph unicode="&#xc7;" glyph-name="Ccedilla" horiz-adv-x="1282" d="M817 722Q817 599 827 510T853 358T892 257T939 197T987 168T1034 160Q1059 160 1079 166T1115 181T1141 196T1158 203Q1166 203 1172 194L1215 126Q1218 120 1218 116Q1218 111 1214 108T1207
101Q1178 78 1134 55T1033 12T908 -21T764 -38L750 -107Q821 -118 867 -140T942 -194T981 -261T992 -337Q992 -408 963 -456T884 -535T773 -578T644 -591Q623 -591 590 -589T526 -578T472 -557T449 -520V-424Q449 -414 454 -411T464 -407Q476 -407 491 -412T528
-423T580 -434T654 -439Q697 -439 727 -431T776 -407T803 -373T811 -333Q811 -308 801 -288T767 -253T708 -230T619 -222Q614 -222 606 -221T597 -203Q597 -199 600 -183T608 -142T618 -90T630 -33Q561 -25 492 -4T360 57T242 154T147 294T84 481T61 722Q61 873
89 987T167 1186T281 1328T421 1419T573 1468T727 1483Q809 1483 883 1470T1018 1437T1128 1392T1207 1343Q1210 1340 1214 1337T1218 1328Q1218 1324 1215 1318L1172 1250Q1166 1241 1158 1241Q1152 1241 1142 1247T1115 1262T1079 1277T1034 1284Q1012 1284 988
1277T939 1248T893 1188T854 1087T827 935T817 722ZM648 722Q648 598 659 507T691 351T739 242T798 172T863 130T930 107Q919 114 900 126T859 164T814 232T773 341T743 500T731 722Q731 850 742 943T772 1103T813 1211T858 1279T900 1317T930 1337Q897 1328 864
1314T799 1273T740 1202T692 1094T660 937T648 722Z" />
<glyph unicode="&#xc8;" glyph-name="Egrave" horiz-adv-x="1309" d="M838 934V123Q935 137 1016 148Q1050 153 1084 157T1148 166T1198 172T1227 174Q1244 174 1256 168T1268 141V49Q1268 31 1259 16T1216 0H244Q197 0 168 9T121 35T98 78T92 139V1262Q92 1319
105 1353T142 1406T199 1430T274 1436H1178Q1212 1436 1221 1421T1231 1386V1315Q1231 1295 1221 1289T1193 1282Q1183 1282 1163 1284T1115 1289T1057 1297T995 1306Q923 1317 838 1331V1077H1210Q1231 1077 1231 1056V956Q1231 934 1210 934H838ZM753 1345L675
1356V101L753 111V1345ZM378 1770Q369 1776 369 1785Q369 1792 376 1800L468 1930Q475 1939 483 1939Q489 1939 497 1933L851 1665Q860 1657 860 1650Q860 1643 854 1636L787 1538Q781 1528 770 1528Q767 1528 764 1530T757 1534L378 1770Z" />
<glyph unicode="&#xc9;" glyph-name="Eacute" horiz-adv-x="1309" d="M838 934V123Q935 137 1016 148Q1050 153 1084 157T1148 166T1198 172T1227 174Q1244 174 1256 168T1268 141V49Q1268 31 1259 16T1216 0H244Q197 0 168 9T121 35T98 78T92 139V1262Q92 1319
105 1353T142 1406T199 1430T274 1436H1178Q1212 1436 1221 1421T1231 1386V1315Q1231 1295 1221 1289T1193 1282Q1183 1282 1163 1284T1115 1289T1057 1297T995 1306Q923 1317 838 1331V1077H1210Q1231 1077 1231 1056V956Q1231 934 1210 934H838ZM753 1345L675
1356V101L753 111V1345ZM571 1534Q567 1532 564 1530T558 1528Q547 1528 541 1538L474 1636Q468 1643 468 1650Q468 1657 477 1665L831 1933Q838 1939 845 1939Q852 1939 860 1930L952 1800Q959 1792 959 1785Q959 1776 950 1770L571 1534Z" />
<glyph unicode="&#xca;" glyph-name="Ecircumflex" horiz-adv-x="1309" d="M838 934V123Q935 137 1016 148Q1050 153 1084 157T1148 166T1198 172T1227 174Q1244 174 1256 168T1268 141V49Q1268 31 1259 16T1216 0H244Q197 0 168 9T121 35T98 78T92 139V1262Q92
1319 105 1353T142 1406T199 1430T274 1436H1178Q1212 1436 1221 1421T1231 1386V1315Q1231 1295 1221 1289T1193 1282Q1183 1282 1163 1284T1115 1289T1057 1297T995 1306Q923 1317 838 1331V1077H1210Q1231 1077 1231 1056V956Q1231 934 1210 934H838ZM753 1345L675
1356V101L753 111V1345ZM664 1692L440 1534Q436 1532 433 1530T427 1528Q417 1528 410 1538L343 1626Q337 1633 337 1640Q337 1647 346 1655L650 1913Q653 1915 656 1917T664 1919Q669 1919 672 1917T678 1913L982 1655Q991 1647 991 1640Q991 1633 985 1626L918
1538Q910 1528 901 1528Q898 1528 895 1530T888 1534L664 1692Z" />
<glyph unicode="&#xcb;" glyph-name="Edieresis" horiz-adv-x="1309" d="M838 934V123Q935 137 1016 148Q1050 153 1084 157T1148 166T1198 172T1227 174Q1244 174 1256 168T1268 141V49Q1268 31 1259 16T1216 0H244Q197 0 168 9T121 35T98 78T92 139V1262Q92
1319 105 1353T142 1406T199 1430T274 1436H1178Q1212 1436 1221 1421T1231 1386V1315Q1231 1295 1221 1289T1193 1282Q1183 1282 1163 1284T1115 1289T1057 1297T995 1306Q923 1317 838 1331V1077H1210Q1231 1077 1231 1056V956Q1231 934 1210 934H838ZM753 1345L675
1356V101L753 111V1345ZM337 1699Q337 1726 347 1750T375 1791T417 1819T468 1830Q495 1830 519 1820T560 1792T588 1750T599 1699Q599 1672 589 1648T561 1607T519 1579T468 1568Q441 1568 417 1578T376 1606T348 1648T337 1699ZM729 1699Q729 1726 739 1750T767
1791T809 1819T860 1830Q887 1830 911 1820T952 1792T980 1750T991 1699Q991 1672 981 1648T953 1607T911 1579T860 1568Q833 1568 809 1578T768 1606T740 1648T729 1699Z" />
<glyph unicode="&#xcc;" glyph-name="Igrave" horiz-adv-x="931" d="M92 1296Q92 1331 98 1357T121 1400T168 1427T246 1436H692Q750 1436 780 1419T823 1377T837 1323T838 1270V162Q838 139 834 111T814 59T765 17T674 0H246Q198 0 168 9T121 35T98 78T92 139V1296ZM753
1288Q753 1310 750 1323T738 1342T714 1350T675 1352V84Q699 84 714 85T738 93T750 112T753 148V1288ZM183 1770Q174 1776 174 1785Q174 1792 181 1800L273 1930Q280 1939 288 1939Q294 1939 302 1933L656 1665Q665 1657 665 1650Q665 1643 659 1636L592 1538Q586
1528 575 1528Q572 1528 569 1530T562 1534L183 1770Z" />
<glyph unicode="&#xcd;" glyph-name="Iacute" horiz-adv-x="931" d="M92 1296Q92 1331 98 1357T121 1400T168 1427T246 1436H692Q750 1436 780 1419T823 1377T837 1323T838 1270V162Q838 139 834 111T814 59T765 17T674 0H246Q198 0 168 9T121 35T98 78T92 139V1296ZM753
1288Q753 1310 750 1323T738 1342T714 1350T675 1352V84Q699 84 714 85T738 93T750 112T753 148V1288ZM376 1534Q372 1532 369 1530T363 1528Q352 1528 346 1538L279 1636Q273 1643 273 1650Q273 1657 282 1665L636 1933Q643 1939 650 1939Q657 1939 665 1930L757
1800Q764 1792 764 1785Q764 1776 755 1770L376 1534Z" />
<glyph unicode="&#xce;" glyph-name="Icircumflex" horiz-adv-x="931" d="M92 1296Q92 1331 98 1357T121 1400T168 1427T246 1436H692Q750 1436 780 1419T823 1377T837 1323T838 1270V162Q838 139 834 111T814 59T765 17T674 0H246Q198 0 168 9T121 35T98 78T92
139V1296ZM753 1288Q753 1310 750 1323T738 1342T714 1350T675 1352V84Q699 84 714 85T738 93T750 112T753 148V1288ZM469 1692L245 1534Q241 1532 238 1530T232 1528Q222 1528 215 1538L148 1626Q142 1633 142 1640Q142 1647 151 1655L455 1913Q458 1915 461 1917T469
1919Q474 1919 477 1917T483 1913L787 1655Q796 1647 796 1640Q796 1633 790 1626L723 1538Q715 1528 706 1528Q703 1528 700 1530T693 1534L469 1692Z" />
<glyph unicode="&#xcf;" glyph-name="Idieresis" horiz-adv-x="931" d="M92 1296Q92 1331 98 1357T121 1400T168 1427T246 1436H692Q750 1436 780 1419T823 1377T837 1323T838 1270V162Q838 139 834 111T814 59T765 17T674 0H246Q198 0 168 9T121 35T98 78T92
139V1296ZM753 1288Q753 1310 750 1323T738 1342T714 1350T675 1352V84Q699 84 714 85T738 93T750 112T753 148V1288ZM142 1699Q142 1726 152 1750T180 1791T222 1819T273 1830Q300 1830 324 1820T365 1792T393 1750T404 1699Q404 1672 394 1648T366 1607T324 1579T273
1568Q246 1568 222 1578T181 1606T153 1648T142 1699ZM534 1699Q534 1726 544 1750T572 1791T614 1819T665 1830Q692 1830 716 1820T757 1792T785 1750T796 1699Q796 1672 786 1648T758 1607T716 1579T665 1568Q638 1568 614 1578T573 1606T545 1648T534 1699Z"
/>
<glyph unicode="&#xd0;" glyph-name="Eth" horiz-adv-x="1423" d="M21 524Q0 524 0 546V647Q0 668 21 668H122V1296Q122 1331 128 1357T151 1400T198 1427T276 1436H757Q832 1436 906 1426T1047 1388T1171 1314T1271 1191T1337 1011T1361 764Q1361 597 1336 476T1267
269T1164 132T1036 50T894 10T747 0H276Q228 0 198 9T151 35T128 78T122 139V524H21ZM868 139Q961 140 1028 187T1137 317T1200 508T1220 743Q1220 867 1200 969T1137 1143T1028 1255T868 1296V668H1027Q1048 668 1048 647V546Q1048 524 1027 524H868V139ZM753
1298H675V138H753V1298Z" />
<glyph unicode="&#xd1;" glyph-name="Ntilde" horiz-adv-x="1380" d="M1239 1436Q1258 1436 1273 1424T1288 1378V74Q1288 0 1218 0H871Q838 0 817 13T778 43L266 578Q275 448 284 339Q287 292 291 246T298 160T303 90T307 47Q309 30 302 15T267 0H141Q123 0 108
11T92 57V1362Q92 1436 174 1436H512Q550 1436 575 1420T627 1378L1114 895Q1104 1014 1096 1115Q1092 1158 1089 1201T1082 1281T1077 1347T1073 1389Q1071 1405 1079 1420T1119 1436H1239ZM558 1325Q540 1343 529 1347T497 1352H426L1114 668V774L558 1325ZM1010
1895Q1024 1895 1025 1885T1025 1864Q1017 1813 1000 1767T958 1687T899 1632T824 1611Q788 1611 753 1626T687 1659T629 1692T586 1707Q563 1707 550 1700T528 1681T516 1654T510 1622Q509 1616 504 1614T477 1611H377Q367 1611 364 1615T360 1625T360 1636T362
1645Q368 1695 385 1740T428 1818T488 1872T563 1892Q599 1892 634 1877T700 1845T758 1812T801 1797Q824 1797 838 1804T860 1824T872 1851T878 1884Q879 1890 883 1892T903 1895H1010Z" />
<glyph unicode="&#xd2;" glyph-name="Ograve" horiz-adv-x="1454" d="M727 -39Q647 -39 567 -25T412 23T274 113T163 254T88 454T61 723Q61 875 88 991T162 1191T274 1332T412 1421T566 1469T727 1483Q807 1483 888 1469T1043 1422T1181 1332T1292 1192T1366 991T1393
723Q1393 571 1366 455T1292 255T1181 114T1043 23T888 -25T727 -39ZM817 723Q817 598 835 514T885 379T954 307T1034 285Q1075 285 1114 306T1183 379T1232 514T1251 723Q1251 848 1233 932T1184 1067T1114 1139T1034 1161Q993 1161 955 1140T885 1067T836 932T817
723ZM732 723Q732 848 752 939T805 1090T877 1181T959 1221Q900 1218 844 1190T745 1103T675 951T649 723Q649 589 675 496T744 343T844 256T959 225Q918 232 878 264T805 356T753 507T732 723ZM510 1813Q501 1819 501 1828Q501 1835 508 1843L600 1973Q607 1982
615 1982Q621 1982 629 1976L983 1708Q992 1700 992 1693Q992 1686 986 1679L919 1581Q913 1571 902 1571Q899 1571 896 1573T889 1577L510 1813Z" />
<glyph unicode="&#xd3;" glyph-name="Oacute" horiz-adv-x="1454" d="M727 -39Q647 -39 567 -25T412 23T274 113T163 254T88 454T61 723Q61 875 88 991T162 1191T274 1332T412 1421T566 1469T727 1483Q807 1483 888 1469T1043 1422T1181 1332T1292 1192T1366 991T1393
723Q1393 571 1366 455T1292 255T1181 114T1043 23T888 -25T727 -39ZM817 723Q817 598 835 514T885 379T954 307T1034 285Q1075 285 1114 306T1183 379T1232 514T1251 723Q1251 848 1233 932T1184 1067T1114 1139T1034 1161Q993 1161 955 1140T885 1067T836 932T817
723ZM732 723Q732 848 752 939T805 1090T877 1181T959 1221Q900 1218 844 1190T745 1103T675 951T649 723Q649 589 675 496T744 343T844 256T959 225Q918 232 878 264T805 356T753 507T732 723ZM607 1577Q603 1575 600 1573T594 1571Q583 1571 577 1581L510 1679Q504
1686 504 1693Q504 1700 513 1708L867 1976Q874 1982 881 1982Q888 1982 896 1973L988 1843Q995 1835 995 1828Q995 1819 986 1813L607 1577Z" />
<glyph unicode="&#xd4;" glyph-name="Ocircumflex" horiz-adv-x="1454" d="M727 -39Q647 -39 567 -25T412 23T274 113T163 254T88 454T61 723Q61 875 88 991T162 1191T274 1332T412 1421T566 1469T727 1483Q807 1483 888 1469T1043 1422T1181 1332T1292 1192T1366
991T1393 723Q1393 571 1366 455T1292 255T1181 114T1043 23T888 -25T727 -39ZM817 723Q817 598 835 514T885 379T954 307T1034 285Q1075 285 1114 306T1183 379T1232 514T1251 723Q1251 848 1233 932T1184 1067T1114 1139T1034 1161Q993 1161 955 1140T885 1067T836
932T817 723ZM732 723Q732 848 752 939T805 1090T877 1181T959 1221Q900 1218 844 1190T745 1103T675 951T649 723Q649 589 675 496T744 343T844 256T959 225Q918 232 878 264T805 356T753 507T732 723ZM727 1735L503 1577Q499 1575 496 1573T490 1571Q480 1571
473 1581L406 1669Q400 1676 400 1683Q400 1690 409 1698L713 1956Q716 1958 719 1960T727 1962Q732 1962 735 1960T741 1956L1045 1698Q1054 1690 1054 1683Q1054 1676 1048 1669L981 1581Q973 1571 964 1571Q961 1571 958 1573T951 1577L727 1735Z" />
<glyph unicode="&#xd5;" glyph-name="Otilde" horiz-adv-x="1454" d="M727 -39Q647 -39 567 -25T412 23T274 113T163 254T88 454T61 723Q61 875 88 991T162 1191T274 1332T412 1421T566 1469T727 1483Q807 1483 888 1469T1043 1422T1181 1332T1292 1192T1366 991T1393
723Q1393 571 1366 455T1292 255T1181 114T1043 23T888 -25T727 -39ZM817 723Q817 598 835 514T885 379T954 307T1034 285Q1075 285 1114 306T1183 379T1232 514T1251 723Q1251 848 1233 932T1184 1067T1114 1139T1034 1161Q993 1161 955 1140T885 1067T836 932T817
723ZM732 723Q732 848 752 939T805 1090T877 1181T959 1221Q900 1218 844 1190T745 1103T675 951T649 723Q649 589 675 496T744 343T844 256T959 225Q918 232 878 264T805 356T753 507T732 723ZM1047 1895Q1061 1895 1062 1885T1062 1864Q1054 1813 1037 1767T995
1687T936 1632T861 1611Q825 1611 790 1626T724 1659T666 1692T623 1707Q600 1707 587 1700T565 1681T553 1654T547 1622Q546 1616 541 1614T514 1611H414Q404 1611 401 1615T397 1625T397 1636T399 1645Q405 1695 422 1740T465 1818T525 1872T600 1892Q636 1892
671 1877T737 1845T795 1812T838 1797Q861 1797 875 1804T897 1824T909 1851T915 1884Q916 1890 920 1892T940 1895H1047Z" />
<glyph unicode="&#xd6;" glyph-name="Odieresis" horiz-adv-x="1454" d="M727 -39Q647 -39 567 -25T412 23T274 113T163 254T88 454T61 723Q61 875 88 991T162 1191T274 1332T412 1421T566 1469T727 1483Q807 1483 888 1469T1043 1422T1181 1332T1292 1192T1366
991T1393 723Q1393 571 1366 455T1292 255T1181 114T1043 23T888 -25T727 -39ZM817 723Q817 598 835 514T885 379T954 307T1034 285Q1075 285 1114 306T1183 379T1232 514T1251 723Q1251 848 1233 932T1184 1067T1114 1139T1034 1161Q993 1161 955 1140T885 1067T836
932T817 723ZM732 723Q732 848 752 939T805 1090T877 1181T959 1221Q900 1218 844 1190T745 1103T675 951T649 723Q649 589 675 496T744 343T844 256T959 225Q918 232 878 264T805 356T753 507T732 723ZM400 1742Q400 1769 410 1793T438 1834T480 1862T531 1873Q558
1873 582 1863T623 1835T651 1793T662 1742Q662 1715 652 1691T624 1650T582 1622T531 1611Q504 1611 480 1621T439 1649T411 1691T400 1742ZM792 1742Q792 1769 802 1793T830 1834T872 1862T923 1873Q950 1873 974 1863T1015 1835T1043 1793T1054 1742Q1054 1715
1044 1691T1016 1650T974 1622T923 1611Q896 1611 872 1621T831 1649T803 1691T792 1742Z" />
<glyph unicode="&#xd7;" glyph-name="multiply" horiz-adv-x="1024" d="M512 674L720 882Q728 890 735 890Q742 890 750 882L871 761Q878 754 878 746Q878 738 871 731L663 523L871 315Q878 308 878 300Q878 292 871 285L750 164Q742 156 735 156Q728 156 720
164L512 372L304 164Q296 156 289 156Q282 156 274 164L153 285Q145 293 145 300Q145 307 153 315L361 523L153 731Q145 739 145 746Q145 753 153 761L274 882Q281 889 289 889Q297 889 304 882L512 674Z" />
<glyph unicode="&#xd8;" glyph-name="Oslash" horiz-adv-x="1475" d="M1331 1107Q1360 1031 1376 936T1393 723Q1393 571 1366 455T1292 255T1181 114T1043 23T888 -25T727 -39Q688 -39 651 -36L483 -320Q476 -333 462 -333Q452 -333 446 -328L378 -281Q373 -277
370 -273T366 -260Q366 -253 372 -242L508 -12Q418 12 337 64T194 203T97 418T61 723Q61 875 88 991T162 1191T274 1332T412 1421T566 1469T727 1483Q800 1483 873 1472T1016 1433T1146 1360T1256 1247L1399 1488Q1406 1501 1419 1501Q1427 1501 1435 1496L1506
1450Q1518 1442 1518 1431Q1518 1422 1512 1412L1331 1107ZM1251 723Q1251 789 1246 842T1231 939L891 368Q921 323 958 304T1034 285Q1075 285 1114 306T1183 379T1232 514T1251 723ZM817 723Q817 612 832 533L1165 1094Q1136 1130 1103 1145T1034 1161Q993 1161
955 1140T885 1067T836 932T817 723ZM732 723Q732 848 752 939T805 1090T877 1181T959 1221Q900 1218 844 1190T745 1103T675 951T649 723Q649 589 675 496T744 343T844 256T959 225Q918 232 878 264T805 356T753 507T732 723Z" />
<glyph unicode="&#xd9;" glyph-name="Ugrave" horiz-adv-x="1294" d="M1202 517Q1202 403 1180 318T1119 170T1027 68T912 4T780 -29T639 -39Q571 -39 504 -31T376 0T263 61T173 162T114 311T92 517V1296Q92 1331 98 1357T121 1400T168 1427T246 1436H692Q750
1436 780 1419T823 1377T837 1323T838 1270V149Q928 167 968 232T1008 425V1389Q1008 1406 1015 1421T1049 1436H1153Q1162 1436 1171 1435T1187 1430T1198 1416T1202 1389V517ZM753 1288Q753 1310 750 1323T738 1342T714 1350T675 1352V138H753V1288ZM396 1770Q387
1776 387 1785Q387 1792 394 1800L486 1930Q493 1939 501 1939Q507 1939 515 1933L869 1665Q878 1657 878 1650Q878 1643 872 1636L805 1538Q799 1528 788 1528Q785 1528 782 1530T775 1534L396 1770Z" />
<glyph unicode="&#xda;" glyph-name="Uacute" horiz-adv-x="1294" d="M1202 517Q1202 403 1180 318T1119 170T1027 68T912 4T780 -29T639 -39Q571 -39 504 -31T376 0T263 61T173 162T114 311T92 517V1296Q92 1331 98 1357T121 1400T168 1427T246 1436H692Q750
1436 780 1419T823 1377T837 1323T838 1270V149Q928 167 968 232T1008 425V1389Q1008 1406 1015 1421T1049 1436H1153Q1162 1436 1171 1435T1187 1430T1198 1416T1202 1389V517ZM753 1288Q753 1310 750 1323T738 1342T714 1350T675 1352V138H753V1288ZM589 1534Q585
1532 582 1530T576 1528Q565 1528 559 1538L492 1636Q486 1643 486 1650Q486 1657 495 1665L849 1933Q856 1939 863 1939Q870 1939 878 1930L970 1800Q977 1792 977 1785Q977 1776 968 1770L589 1534Z" />
<glyph unicode="&#xdb;" glyph-name="Ucircumflex" horiz-adv-x="1294" d="M1202 517Q1202 403 1180 318T1119 170T1027 68T912 4T780 -29T639 -39Q571 -39 504 -31T376 0T263 61T173 162T114 311T92 517V1296Q92 1331 98 1357T121 1400T168 1427T246 1436H692Q750
1436 780 1419T823 1377T837 1323T838 1270V149Q928 167 968 232T1008 425V1389Q1008 1406 1015 1421T1049 1436H1153Q1162 1436 1171 1435T1187 1430T1198 1416T1202 1389V517ZM753 1288Q753 1310 750 1323T738 1342T714 1350T675 1352V138H753V1288ZM682 1692L458
1534Q454 1532 451 1530T445 1528Q435 1528 428 1538L361 1626Q355 1633 355 1640Q355 1647 364 1655L668 1913Q671 1915 674 1917T682 1919Q687 1919 690 1917T696 1913L1000 1655Q1009 1647 1009 1640Q1009 1633 1003 1626L936 1538Q928 1528 919 1528Q916 1528
913 1530T906 1534L682 1692Z" />
<glyph unicode="&#xdc;" glyph-name="Udieresis" horiz-adv-x="1294" d="M1202 517Q1202 403 1180 318T1119 170T1027 68T912 4T780 -29T639 -39Q571 -39 504 -31T376 0T263 61T173 162T114 311T92 517V1296Q92 1331 98 1357T121 1400T168 1427T246 1436H692Q750
1436 780 1419T823 1377T837 1323T838 1270V149Q928 167 968 232T1008 425V1389Q1008 1406 1015 1421T1049 1436H1153Q1162 1436 1171 1435T1187 1430T1198 1416T1202 1389V517ZM753 1288Q753 1310 750 1323T738 1342T714 1350T675 1352V138H753V1288ZM355 1699Q355
1726 365 1750T393 1791T435 1819T486 1830Q513 1830 537 1820T578 1792T606 1750T617 1699Q617 1672 607 1648T579 1607T537 1579T486 1568Q459 1568 435 1578T394 1606T366 1648T355 1699ZM747 1699Q747 1726 757 1750T785 1791T827 1819T878 1830Q905 1830 929
1820T970 1792T998 1750T1009 1699Q1009 1672 999 1648T971 1607T929 1579T878 1568Q851 1568 827 1578T786 1606T758 1648T747 1699Z" />
<glyph unicode="&#xdd;" glyph-name="Yacute" horiz-adv-x="1229" d="M264 760L10 1319Q4 1333 2 1344T0 1366Q0 1401 22 1418T68 1436H614Q639 1436 657 1430T687 1414T705 1395T715 1376L891 893L1051 1354Q1057 1371 1062 1386T1075 1412T1094 1429T1123 1436H1215Q1229
1436 1239 1430T1249 1410Q1249 1391 1237 1360L1010 782V140Q1010 105 1003 79T980 36T936 9T866 0H394Q355 0 330 9T291 35T270 78T264 139V760ZM847 84Q871 84 886 85T910 93T922 112T925 148V560L646 1321Q640 1338 630 1345T602 1352H554L847 552V84ZM623
1534Q619 1532 616 1530T610 1528Q599 1528 593 1538L526 1636Q520 1643 520 1650Q520 1657 529 1665L883 1933Q890 1939 897 1939Q904 1939 912 1930L1004 1800Q1011 1792 1011 1785Q1011 1776 1002 1770L623 1534Z" />
<glyph unicode="&#xde;" glyph-name="Thorn" horiz-adv-x="1294" d="M92 1296Q92 1331 98 1357T121 1400T168 1427T246 1436H692Q738 1436 767 1428T811 1402T832 1359T838 1298V1157Q923 1145 998 1119T1130 1044T1220 922T1253 743Q1253 620 1220 536T1129 397T997
313T838 271V133Q838 99 833 74T813 33T772 8T703 0H225Q185 0 160 9T119 35T98 78T92 139V1296ZM1112 729Q1112 789 1096 839T1047 927T962 991T838 1025V403Q910 414 962 443T1047 516T1096 613T1112 729ZM753 1288Q753 1310 750 1323T738 1342T714 1350T675
1352V84Q699 84 714 85T738 93T750 112T753 148V1288Z" />
<glyph unicode="&#xdf;" glyph-name="germandbls" horiz-adv-x="1411" d="M889 117Q889 129 896 131T908 133Q961 134 1005 140T1082 162T1133 204T1151 272Q1151 323 1133 352T1083 395T1007 413T911 416Q906 416 898 417T889 435V521Q889 535 896 537T908 539Q998
543 1065 583T1178 691T1247 850T1270 1047Q1270 1140 1251 1223T1196 1367T1106 1465T983 1501Q953 1501 927 1495T883 1472T853 1431T842 1367V136Q842 104 835 79T811 37T766 10T696 0H258Q210 0 180 9T133 35T110 78T104 139V1199Q104 1293 134 1363T216 1485T334
1570T476 1623T625 1651T769 1659Q848 1659 926 1650T1076 1616T1208 1548T1315 1437T1385 1273T1411 1047Q1411 915 1386 823T1322 667T1235 563T1139 494Q1166 482 1193 464T1243 421T1278 361T1292 281Q1292 204 1263 151T1181 65T1060 17T910 0Q905 0 897 2T889
20V117ZM679 84Q703 84 718 85T742 93T754 112T757 148V1360Q757 1409 769 1444T803 1503T851 1541T907 1563Q859 1564 818 1553T745 1518T697 1454T679 1360V84Z" />
<glyph unicode="&#xe0;" glyph-name="agrave" horiz-adv-x="1290" d="M510 0Q456 0 402 7T298 29T205 70T131 132T81 219T63 334Q63 421 96 483T184 586T312 649T461 677V746Q461 785 451 808T426 842T392 857T356 861Q336 861 314 855T270 841T230 822T198 804Q192
800 187 797T177 794Q168 794 160 807L126 861Q121 868 121 876Q121 884 127 890T140 900Q173 923 224 947T338 990T476 1021T629 1033Q704 1033 775 1028T910 1007T1026 960T1117 879T1177 756T1198 581V135Q1198 102 1192 77T1169 34T1122 9T1044 0H510ZM461
550Q389 550 340 532T261 484T218 415T205 333Q205 291 218 254T261 188T340 144T461 128V550ZM1035 84Q1059 84 1074 85T1098 93T1110 112T1113 148V603Q1113 684 1096 739T1054 830T998 884T942 912Q954 899 970 875T1001 814T1025 726T1035 607V84ZM382 1401Q373
1407 373 1416Q373 1423 380 1431L472 1561Q479 1570 487 1570Q493 1570 501 1564L855 1296Q864 1288 864 1281Q864 1274 858 1267L791 1169Q785 1159 774 1159Q771 1159 768 1161T761 1165L382 1401Z" />
<glyph unicode="&#xe1;" glyph-name="aacute" horiz-adv-x="1290" d="M510 0Q456 0 402 7T298 29T205 70T131 132T81 219T63 334Q63 421 96 483T184 586T312 649T461 677V746Q461 785 451 808T426 842T392 857T356 861Q336 861 314 855T270 841T230 822T198 804Q192
800 187 797T177 794Q168 794 160 807L126 861Q121 868 121 876Q121 884 127 890T140 900Q173 923 224 947T338 990T476 1021T629 1033Q704 1033 775 1028T910 1007T1026 960T1117 879T1177 756T1198 581V135Q1198 102 1192 77T1169 34T1122 9T1044 0H510ZM461
550Q389 550 340 532T261 484T218 415T205 333Q205 291 218 254T261 188T340 144T461 128V550ZM1035 84Q1059 84 1074 85T1098 93T1110 112T1113 148V603Q1113 684 1096 739T1054 830T998 884T942 912Q954 899 970 875T1001 814T1025 726T1035 607V84ZM575 1165Q571
1163 568 1161T562 1159Q551 1159 545 1169L478 1267Q472 1274 472 1281Q472 1288 481 1296L835 1564Q842 1570 849 1570Q856 1570 864 1561L956 1431Q963 1423 963 1416Q963 1407 954 1401L575 1165Z" />
<glyph unicode="&#xe2;" glyph-name="acircumflex" horiz-adv-x="1290" d="M510 0Q456 0 402 7T298 29T205 70T131 132T81 219T63 334Q63 421 96 483T184 586T312 649T461 677V746Q461 785 451 808T426 842T392 857T356 861Q336 861 314 855T270 841T230 822T198
804Q192 800 187 797T177 794Q168 794 160 807L126 861Q121 868 121 876Q121 884 127 890T140 900Q173 923 224 947T338 990T476 1021T629 1033Q704 1033 775 1028T910 1007T1026 960T1117 879T1177 756T1198 581V135Q1198 102 1192 77T1169 34T1122 9T1044 0H510ZM461
550Q389 550 340 532T261 484T218 415T205 333Q205 291 218 254T261 188T340 144T461 128V550ZM1035 84Q1059 84 1074 85T1098 93T1110 112T1113 148V603Q1113 684 1096 739T1054 830T998 884T942 912Q954 899 970 875T1001 814T1025 726T1035 607V84ZM668 1323L444
1165Q440 1163 437 1161T431 1159Q421 1159 414 1169L347 1257Q341 1264 341 1271Q341 1278 350 1286L654 1544Q657 1546 660 1548T668 1550Q673 1550 676 1548T682 1544L986 1286Q995 1278 995 1271Q995 1264 989 1257L922 1169Q914 1159 905 1159Q902 1159 899
1161T892 1165L668 1323Z" />
<glyph unicode="&#xe3;" glyph-name="atilde" horiz-adv-x="1290" d="M510 0Q456 0 402 7T298 29T205 70T131 132T81 219T63 334Q63 421 96 483T184 586T312 649T461 677V746Q461 785 451 808T426 842T392 857T356 861Q336 861 314 855T270 841T230 822T198 804Q192
800 187 797T177 794Q168 794 160 807L126 861Q121 868 121 876Q121 884 127 890T140 900Q173 923 224 947T338 990T476 1021T629 1033Q704 1033 775 1028T910 1007T1026 960T1117 879T1177 756T1198 581V135Q1198 102 1192 77T1169 34T1122 9T1044 0H510ZM461
550Q389 550 340 532T261 484T218 415T205 333Q205 291 218 254T261 188T340 144T461 128V550ZM1035 84Q1059 84 1074 85T1098 93T1110 112T1113 148V603Q1113 684 1096 739T1054 830T998 884T942 912Q954 899 970 875T1001 814T1025 726T1035 607V84ZM985 1483Q999
1483 1000 1473T1000 1452Q992 1401 975 1355T933 1275T874 1220T799 1199Q763 1199 728 1214T662 1247T604 1280T561 1295Q538 1295 525 1288T503 1269T491 1242T485 1210Q484 1204 479 1202T452 1199H352Q342 1199 339 1203T335 1213T335 1224T337 1233Q343 1283
360 1328T403 1406T463 1460T538 1480Q574 1480 609 1465T675 1433T733 1400T776 1385Q799 1385 813 1392T835 1412T847 1439T853 1472Q854 1478 858 1480T878 1483H985Z" />
<glyph unicode="&#xe4;" glyph-name="adieresis" horiz-adv-x="1290" d="M510 0Q456 0 402 7T298 29T205 70T131 132T81 219T63 334Q63 421 96 483T184 586T312 649T461 677V746Q461 785 451 808T426 842T392 857T356 861Q336 861 314 855T270 841T230 822T198
804Q192 800 187 797T177 794Q168 794 160 807L126 861Q121 868 121 876Q121 884 127 890T140 900Q173 923 224 947T338 990T476 1021T629 1033Q704 1033 775 1028T910 1007T1026 960T1117 879T1177 756T1198 581V135Q1198 102 1192 77T1169 34T1122 9T1044 0H510ZM461
550Q389 550 340 532T261 484T218 415T205 333Q205 291 218 254T261 188T340 144T461 128V550ZM1035 84Q1059 84 1074 85T1098 93T1110 112T1113 148V603Q1113 684 1096 739T1054 830T998 884T942 912Q954 899 970 875T1001 814T1025 726T1035 607V84ZM341 1330Q341
1357 351 1381T379 1422T421 1450T472 1461Q499 1461 523 1451T564 1423T592 1381T603 1330Q603 1303 593 1279T565 1238T523 1210T472 1199Q445 1199 421 1209T380 1237T352 1279T341 1330ZM733 1330Q733 1357 743 1381T771 1422T813 1450T864 1461Q891 1461 915
1451T956 1423T984 1381T995 1330Q995 1303 985 1279T957 1238T915 1210T864 1199Q837 1199 813 1209T772 1237T744 1279T733 1330Z" />
<glyph unicode="&#xe5;" glyph-name="aring" horiz-adv-x="1290" d="M510 0Q456 0 402 7T298 29T205 70T131 132T81 219T63 334Q63 421 96 483T184 586T312 649T461 677V746Q461 785 451 808T426 842T392 857T356 861Q336 861 314 855T270 841T230 822T198 804Q192
800 187 797T177 794Q168 794 160 807L126 861Q121 868 121 876Q121 884 127 890T140 900Q173 923 224 947T338 990T476 1021T629 1033Q704 1033 775 1028T910 1007T1026 960T1117 879T1177 756T1198 581V135Q1198 102 1192 77T1169 34T1122 9T1044 0H510ZM461
550Q389 550 340 532T261 484T218 415T205 333Q205 291 218 254T261 188T340 144T461 128V550ZM1035 84Q1059 84 1074 85T1098 93T1110 112T1113 148V603Q1113 684 1096 739T1054 830T998 884T942 912Q954 899 970 875T1001 814T1025 726T1035 607V84ZM411 1404Q411
1457 431 1504T486 1586T568 1641T668 1662Q721 1662 767 1642T848 1586T903 1504T923 1404Q923 1351 903 1305T849 1224T768 1169T668 1149Q615 1149 568 1169T486 1223T431 1304T411 1404ZM558 1406Q558 1383 566 1363T590 1328T625 1305T668 1296Q691 1296 710
1304T744 1328T767 1363T776 1406Q776 1429 768 1449T745 1483T711 1506T668 1515Q645 1515 625 1507T590 1484T567 1449T558 1406Z" />
<glyph unicode="&#xe6;" glyph-name="ae" horiz-adv-x="1692" d="M451 115Q489 115 524 120T586 137Q524 200 489 294T453 516V567Q381 562 332 542T253 491T209 422T195 342Q195 297 208 256T252 184T332 134T451 115ZM1342 819Q1319 819 1292 810T1242 772T1202
689T1182 545H1497Q1497 625 1485 677T1451 761T1402 806T1342 819ZM357 877Q336 877 313 871T267 855T225 836T191 817Q185 813 180 810T170 807Q161 807 153 820L119 875Q114 882 114 890Q114 898 120 904T133 914Q166 937 217 962T332 1009T471 1045T627 1059Q676
1059 714 1054T782 1039T838 1016T887 985Q937 1016 1007 1037T1163 1059Q1217 1059 1273 1049T1383 1013T1482 946T1564 842T1619 695T1639 499V422H1186Q1195 347 1215 298T1261 220T1318 178T1378 166Q1408 166 1431 174T1472 192T1501 210T1517 218Q1525 218
1533 206L1569 147Q1571 143 1573 140T1575 133Q1575 126 1570 122T1562 115Q1529 88 1478 61T1361 13T1217 -22T1051 -35Q960 -35 878 -17T717 41Q651 13 583 0T449 -14Q362 -14 289 9T164 77T82 188T53 342Q53 434 87 498T177 603T305 665T453 693V758Q453 797
446 820T425 856T395 873T357 877ZM1313 109Q1281 116 1243 137T1172 204T1117 322T1095 505Q1095 606 1114 676T1165 791T1235 858T1313 887Q1253 885 1199 864T1103 796T1037 678T1013 505Q1013 397 1041 322T1112 199T1209 130T1313 109Z" />
<glyph unicode="&#xe7;" glyph-name="ccedilla" horiz-adv-x="1206" d="M780 506Q780 405 801 338T856 232T927 176T998 160Q1023 160 1044 166T1081 181T1108 196T1125 203Q1134 203 1137 200T1146 189L1181 135Q1186 127 1186 121Q1186 114 1182 110T1174 103Q1143
81 1099 58T998 14T870 -21T716 -40L702 -107Q773 -118 819 -140T894 -194T933 -261T944 -337Q944 -408 915 -456T836 -535T725 -578T596 -591Q575 -591 542 -589T478 -578T424 -557T401 -520V-424Q401 -414 406 -411T416 -407Q428 -407 443 -412T480 -423T532
-434T606 -439Q649 -439 679 -431T728 -407T755 -373T763 -333Q763 -308 753 -288T719 -253T660 -230T571 -222Q566 -222 558 -221T549 -203Q549 -199 552 -183T560 -144T570 -92T582 -36Q480 -27 385 7T216 106T98 269T53 506Q53 608 78 688T146 829T249 932T376
1002T520 1041T670 1053Q752 1053 828 1041T968 1008T1084 963T1168 914Q1172 911 1176 907T1180 896Q1180 889 1175 882L1140 828Q1135 820 1132 817T1119 814Q1113 814 1103 820T1078 833T1043 847T998 854Q965 854 927 838T856 781T802 674T780 506ZM913 120Q881
127 843 150T772 218T717 334T695 506Q695 607 717 678T772 794T843 863T913 894Q859 893 806 872T709 804T640 685T613 506Q613 401 639 328T709 209T805 142T913 120Z" />
<glyph unicode="&#xe8;" glyph-name="egrave" horiz-adv-x="1311" d="M998 166Q1025 166 1047 173T1086 190T1115 206T1133 214Q1142 214 1145 211T1154 200L1189 146Q1194 138 1194 132Q1194 125 1190 121T1182 114Q1149 91 1101 65T990 16T846 -20T670 -35Q595
-35 520 -23T377 15T249 83T147 186T78 327T53 512Q53 614 78 694T146 836T249 939T376 1008T520 1047T670 1059Q795 1059 902 1031T1089 939T1213 771T1258 516V460Q1258 442 1249 432T1219 422H805Q813 348 833 299T880 220T938 178T998 166ZM1116 545Q1116 625
1104 677T1070 761T1021 806T961 819Q938 819 911 810T861 772T821 689T801 545H1116ZM932 110Q900 117 862 138T791 205T736 323T714 506Q714 607 733 677T784 792T854 859T932 888Q872 886 818 865T722 797T656 679T632 506Q632 398 660 323T731 200T828 131T932
110ZM368 1401Q359 1407 359 1416Q359 1423 366 1431L458 1561Q465 1570 473 1570Q479 1570 487 1564L841 1296Q850 1288 850 1281Q850 1274 844 1267L777 1169Q771 1159 760 1159Q757 1159 754 1161T747 1165L368 1401Z" />
<glyph unicode="&#xe9;" glyph-name="eacute" horiz-adv-x="1311" d="M998 166Q1025 166 1047 173T1086 190T1115 206T1133 214Q1142 214 1145 211T1154 200L1189 146Q1194 138 1194 132Q1194 125 1190 121T1182 114Q1149 91 1101 65T990 16T846 -20T670 -35Q595
-35 520 -23T377 15T249 83T147 186T78 327T53 512Q53 614 78 694T146 836T249 939T376 1008T520 1047T670 1059Q795 1059 902 1031T1089 939T1213 771T1258 516V460Q1258 442 1249 432T1219 422H805Q813 348 833 299T880 220T938 178T998 166ZM1116 545Q1116 625
1104 677T1070 761T1021 806T961 819Q938 819 911 810T861 772T821 689T801 545H1116ZM932 110Q900 117 862 138T791 205T736 323T714 506Q714 607 733 677T784 792T854 859T932 888Q872 886 818 865T722 797T656 679T632 506Q632 398 660 323T731 200T828 131T932
110ZM561 1165Q557 1163 554 1161T548 1159Q537 1159 531 1169L464 1267Q458 1274 458 1281Q458 1288 467 1296L821 1564Q828 1570 835 1570Q842 1570 850 1561L942 1431Q949 1423 949 1416Q949 1407 940 1401L561 1165Z" />
<glyph unicode="&#xea;" glyph-name="ecircumflex" horiz-adv-x="1311" d="M998 166Q1025 166 1047 173T1086 190T1115 206T1133 214Q1142 214 1145 211T1154 200L1189 146Q1194 138 1194 132Q1194 125 1190 121T1182 114Q1149 91 1101 65T990 16T846 -20T670
-35Q595 -35 520 -23T377 15T249 83T147 186T78 327T53 512Q53 614 78 694T146 836T249 939T376 1008T520 1047T670 1059Q795 1059 902 1031T1089 939T1213 771T1258 516V460Q1258 442 1249 432T1219 422H805Q813 348 833 299T880 220T938 178T998 166ZM1116 545Q1116
625 1104 677T1070 761T1021 806T961 819Q938 819 911 810T861 772T821 689T801 545H1116ZM932 110Q900 117 862 138T791 205T736 323T714 506Q714 607 733 677T784 792T854 859T932 888Q872 886 818 865T722 797T656 679T632 506Q632 398 660 323T731 200T828
131T932 110ZM654 1323L430 1165Q426 1163 423 1161T417 1159Q407 1159 400 1169L333 1257Q327 1264 327 1271Q327 1278 336 1286L640 1544Q643 1546 646 1548T654 1550Q659 1550 662 1548T668 1544L972 1286Q981 1278 981 1271Q981 1264 975 1257L908 1169Q900
1159 891 1159Q888 1159 885 1161T878 1165L654 1323Z" />
<glyph unicode="&#xeb;" glyph-name="edieresis" horiz-adv-x="1311" d="M998 166Q1025 166 1047 173T1086 190T1115 206T1133 214Q1142 214 1145 211T1154 200L1189 146Q1194 138 1194 132Q1194 125 1190 121T1182 114Q1149 91 1101 65T990 16T846 -20T670 -35Q595
-35 520 -23T377 15T249 83T147 186T78 327T53 512Q53 614 78 694T146 836T249 939T376 1008T520 1047T670 1059Q795 1059 902 1031T1089 939T1213 771T1258 516V460Q1258 442 1249 432T1219 422H805Q813 348 833 299T880 220T938 178T998 166ZM1116 545Q1116 625
1104 677T1070 761T1021 806T961 819Q938 819 911 810T861 772T821 689T801 545H1116ZM932 110Q900 117 862 138T791 205T736 323T714 506Q714 607 733 677T784 792T854 859T932 888Q872 886 818 865T722 797T656 679T632 506Q632 398 660 323T731 200T828 131T932
110ZM327 1330Q327 1357 337 1381T365 1422T407 1450T458 1461Q485 1461 509 1451T550 1423T578 1381T589 1330Q589 1303 579 1279T551 1238T509 1210T458 1199Q431 1199 407 1209T366 1237T338 1279T327 1330ZM719 1330Q719 1357 729 1381T757 1422T799 1450T850
1461Q877 1461 901 1451T942 1423T970 1381T981 1330Q981 1303 971 1279T943 1238T901 1210T850 1199Q823 1199 799 1209T758 1237T730 1279T719 1330Z" />
<glyph unicode="&#xec;" glyph-name="igrave" horiz-adv-x="921" d="M92 885Q92 919 98 945T121 989T168 1015T246 1024H684Q730 1024 758 1016T803 990T824 947T829 885V137Q829 103 824 78T803 35T759 9T684 0H246Q198 0 168 9T121 35T98 78T92 139V885ZM744
876Q744 898 741 911T729 930T705 938T666 940V84Q690 84 705 85T729 93T741 112T744 148V876ZM182 1401Q173 1407 173 1416Q173 1423 180 1431L272 1561Q279 1570 287 1570Q293 1570 301 1564L655 1296Q664 1288 664 1281Q664 1274 658 1267L591 1169Q585 1159
574 1159Q571 1159 568 1161T561 1165L182 1401Z" />
<glyph unicode="&#xed;" glyph-name="iacute" horiz-adv-x="921" d="M92 885Q92 919 98 945T121 989T168 1015T246 1024H684Q730 1024 758 1016T803 990T824 947T829 885V137Q829 103 824 78T803 35T759 9T684 0H246Q198 0 168 9T121 35T98 78T92 139V885ZM744
876Q744 898 741 911T729 930T705 938T666 940V84Q690 84 705 85T729 93T741 112T744 148V876ZM375 1165Q371 1163 368 1161T362 1159Q351 1159 345 1169L278 1267Q272 1274 272 1281Q272 1288 281 1296L635 1564Q642 1570 649 1570Q656 1570 664 1561L756 1431Q763
1423 763 1416Q763 1407 754 1401L375 1165Z" />
<glyph unicode="&#xee;" glyph-name="icircumflex" horiz-adv-x="921" d="M92 885Q92 919 98 945T121 989T168 1015T246 1024H684Q730 1024 758 1016T803 990T824 947T829 885V137Q829 103 824 78T803 35T759 9T684 0H246Q198 0 168 9T121 35T98 78T92 139V885ZM744
876Q744 898 741 911T729 930T705 938T666 940V84Q690 84 705 85T729 93T741 112T744 148V876ZM468 1323L244 1165Q240 1163 237 1161T231 1159Q221 1159 214 1169L147 1257Q141 1264 141 1271Q141 1278 150 1286L454 1544Q457 1546 460 1548T468 1550Q473 1550
476 1548T482 1544L786 1286Q795 1278 795 1271Q795 1264 789 1257L722 1169Q714 1159 705 1159Q702 1159 699 1161T692 1165L468 1323Z" />
<glyph unicode="&#xef;" glyph-name="idieresis" horiz-adv-x="921" d="M92 885Q92 919 98 945T121 989T168 1015T246 1024H684Q730 1024 758 1016T803 990T824 947T829 885V137Q829 103 824 78T803 35T759 9T684 0H246Q198 0 168 9T121 35T98 78T92 139V885ZM744
876Q744 898 741 911T729 930T705 938T666 940V84Q690 84 705 85T729 93T741 112T744 148V876ZM141 1330Q141 1357 151 1381T179 1422T221 1450T272 1461Q299 1461 323 1451T364 1423T392 1381T403 1330Q403 1303 393 1279T365 1238T323 1210T272 1199Q245 1199
221 1209T180 1237T152 1279T141 1330ZM533 1330Q533 1357 543 1381T571 1422T613 1450T664 1461Q691 1461 715 1451T756 1423T784 1381T795 1330Q795 1303 785 1279T757 1238T715 1210T664 1199Q637 1199 613 1209T572 1237T544 1279T533 1330Z" />
<glyph unicode="&#xf0;" glyph-name="eth" horiz-adv-x="1339" d="M509 1183Q503 1190 503 1199Q503 1213 517 1224L625 1311Q583 1342 547 1364T483 1404Q478 1406 473 1410T468 1422Q468 1429 475 1440L540 1537Q551 1553 562 1553Q567 1553 571 1552T579 1548Q630
1523 678 1495T775 1433L905 1538Q918 1548 928 1548Q938 1548 946 1538L1003 1470Q1006 1466 1008 1461T1011 1451Q1011 1440 1001 1433L889 1342Q975 1265 1048 1173T1174 975T1256 750T1286 502Q1286 390 1260 307T1189 164T1083 66T955 5T813 -26T670 -35Q595
-35 520 -24T377 13T249 79T147 179T78 316T53 494Q53 593 78 671T146 808T249 908T376 975T520 1012T670 1024Q735 1024 801 1017T933 990Q888 1058 838 1115T737 1219L607 1113Q595 1104 586 1104Q578 1104 572 1108T560 1119L509 1183ZM977 205Q1008 205 1038
217T1092 263T1130 354T1145 502Q1145 587 1131 642T1092 728T1038 772T977 784Q953 784 924 775T869 735T826 648T809 494Q809 399 823 342T860 255T913 215T977 205ZM902 155Q869 161 837 177T780 229T740 329T724 494Q724 595 743 658T789 759T847 812T902 834Q867
834 822 820T737 768T670 664T642 494Q642 390 666 325T727 221T811 169T902 155Z" />
<glyph unicode="&#xf1;" glyph-name="ntilde" horiz-adv-x="1245" d="M92 885Q92 919 98 945T121 989T168 1015T246 1024H655Q700 1024 732 1015T779 984Q792 993 810 1003T851 1023T898 1038T950 1044Q1046 1044 1099 978T1153 784V47Q1153 30 1149 21T1138 7T1122
1T1104 0H1040Q1014 0 1007 15T999 47V794Q999 851 979 881T913 911Q890 911 867 899T829 872V140Q829 105 823 79T800 36T753 9T675 0H246Q198 0 168 9T121 35T98 78T92 139V885ZM744 876Q744 911 726 925T666 940V84Q690 84 705 85T729 93T741 112T744 148V876ZM939
1483Q953 1483 954 1473T954 1452Q946 1401 929 1355T887 1275T828 1220T753 1199Q717 1199 682 1214T616 1247T558 1280T515 1295Q492 1295 479 1288T457 1269T445 1242T439 1210Q438 1204 433 1202T406 1199H306Q296 1199 293 1203T289 1213T289 1224T291 1233Q297
1283 314 1328T357 1406T417 1460T492 1480Q528 1480 563 1465T629 1433T687 1400T730 1385Q753 1385 767 1392T789 1412T801 1439T807 1472Q808 1478 812 1480T832 1483H939Z" />
<glyph unicode="&#xf2;" glyph-name="ograve" horiz-adv-x="1339" d="M670 -35Q595 -35 520 -23T377 15T249 83T147 186T78 327T53 512Q53 614 78 694T146 836T249 939T376 1008T520 1047T670 1059Q739 1059 811 1051T952 1020T1081 959T1187 860T1259 717T1286
520Q1286 404 1260 318T1189 170T1083 68T955 6T813 -26T670 -35ZM977 205Q1008 205 1038 218T1092 267T1130 363T1145 520Q1145 610 1131 668T1092 759T1038 806T977 819Q953 819 924 809T869 767T826 674T809 512Q809 411 823 350T860 257T913 215T977 205ZM902
165Q869 171 837 188T780 243T740 346T724 512Q724 579 732 630T755 718T789 780T827 821T866 846T902 859Q867 859 822 844T737 789T670 683T642 512Q642 408 666 341T727 235T811 181T902 165ZM452 1401Q443 1407 443 1416Q443 1423 450 1431L542 1561Q549 1570
557 1570Q563 1570 571 1564L925 1296Q934 1288 934 1281Q934 1274 928 1267L861 1169Q855 1159 844 1159Q841 1159 838 1161T831 1165L452 1401Z" />
<glyph unicode="&#xf3;" glyph-name="oacute" horiz-adv-x="1339" d="M670 -35Q595 -35 520 -23T377 15T249 83T147 186T78 327T53 512Q53 614 78 694T146 836T249 939T376 1008T520 1047T670 1059Q739 1059 811 1051T952 1020T1081 959T1187 860T1259 717T1286
520Q1286 404 1260 318T1189 170T1083 68T955 6T813 -26T670 -35ZM977 205Q1008 205 1038 218T1092 267T1130 363T1145 520Q1145 610 1131 668T1092 759T1038 806T977 819Q953 819 924 809T869 767T826 674T809 512Q809 411 823 350T860 257T913 215T977 205ZM902
165Q869 171 837 188T780 243T740 346T724 512Q724 579 732 630T755 718T789 780T827 821T866 846T902 859Q867 859 822 844T737 789T670 683T642 512Q642 408 666 341T727 235T811 181T902 165ZM549 1165Q545 1163 542 1161T536 1159Q525 1159 519 1169L452 1267Q446
1274 446 1281Q446 1288 455 1296L809 1564Q816 1570 823 1570Q830 1570 838 1561L930 1431Q937 1423 937 1416Q937 1407 928 1401L549 1165Z" />
<glyph unicode="&#xf4;" glyph-name="ocircumflex" horiz-adv-x="1339" d="M670 -35Q595 -35 520 -23T377 15T249 83T147 186T78 327T53 512Q53 614 78 694T146 836T249 939T376 1008T520 1047T670 1059Q739 1059 811 1051T952 1020T1081 959T1187 860T1259 717T1286
520Q1286 404 1260 318T1189 170T1083 68T955 6T813 -26T670 -35ZM977 205Q1008 205 1038 218T1092 267T1130 363T1145 520Q1145 610 1131 668T1092 759T1038 806T977 819Q953 819 924 809T869 767T826 674T809 512Q809 411 823 350T860 257T913 215T977 205ZM902
165Q869 171 837 188T780 243T740 346T724 512Q724 579 732 630T755 718T789 780T827 821T866 846T902 859Q867 859 822 844T737 789T670 683T642 512Q642 408 666 341T727 235T811 181T902 165ZM669 1323L445 1165Q441 1163 438 1161T432 1159Q422 1159 415 1169L348
1257Q342 1264 342 1271Q342 1278 351 1286L655 1544Q658 1546 661 1548T669 1550Q674 1550 677 1548T683 1544L987 1286Q996 1278 996 1271Q996 1264 990 1257L923 1169Q915 1159 906 1159Q903 1159 900 1161T893 1165L669 1323Z" />
<glyph unicode="&#xf5;" glyph-name="otilde" horiz-adv-x="1339" d="M670 -35Q595 -35 520 -23T377 15T249 83T147 186T78 327T53 512Q53 614 78 694T146 836T249 939T376 1008T520 1047T670 1059Q739 1059 811 1051T952 1020T1081 959T1187 860T1259 717T1286
520Q1286 404 1260 318T1189 170T1083 68T955 6T813 -26T670 -35ZM977 205Q1008 205 1038 218T1092 267T1130 363T1145 520Q1145 610 1131 668T1092 759T1038 806T977 819Q953 819 924 809T869 767T826 674T809 512Q809 411 823 350T860 257T913 215T977 205ZM902
165Q869 171 837 188T780 243T740 346T724 512Q724 579 732 630T755 718T789 780T827 821T866 846T902 859Q867 859 822 844T737 789T670 683T642 512Q642 408 666 341T727 235T811 181T902 165ZM989 1483Q1003 1483 1004 1473T1004 1452Q996 1401 979 1355T937
1275T878 1220T803 1199Q767 1199 732 1214T666 1247T608 1280T565 1295Q542 1295 529 1288T507 1269T495 1242T489 1210Q488 1204 483 1202T456 1199H356Q346 1199 343 1203T339 1213T339 1224T341 1233Q347 1283 364 1328T407 1406T467 1460T542 1480Q578 1480
613 1465T679 1433T737 1400T780 1385Q803 1385 817 1392T839 1412T851 1439T857 1472Q858 1478 862 1480T882 1483H989Z" />
<glyph unicode="&#xf6;" glyph-name="odieresis" horiz-adv-x="1339" d="M670 -35Q595 -35 520 -23T377 15T249 83T147 186T78 327T53 512Q53 614 78 694T146 836T249 939T376 1008T520 1047T670 1059Q739 1059 811 1051T952 1020T1081 959T1187 860T1259 717T1286
520Q1286 404 1260 318T1189 170T1083 68T955 6T813 -26T670 -35ZM977 205Q1008 205 1038 218T1092 267T1130 363T1145 520Q1145 610 1131 668T1092 759T1038 806T977 819Q953 819 924 809T869 767T826 674T809 512Q809 411 823 350T860 257T913 215T977 205ZM902
165Q869 171 837 188T780 243T740 346T724 512Q724 579 732 630T755 718T789 780T827 821T866 846T902 859Q867 859 822 844T737 789T670 683T642 512Q642 408 666 341T727 235T811 181T902 165ZM342 1330Q342 1357 352 1381T380 1422T422 1450T473 1461Q500 1461
524 1451T565 1423T593 1381T604 1330Q604 1303 594 1279T566 1238T524 1210T473 1199Q446 1199 422 1209T381 1237T353 1279T342 1330ZM734 1330Q734 1357 744 1381T772 1422T814 1450T865 1461Q892 1461 916 1451T957 1423T985 1381T996 1330Q996 1303 986 1279T958
1238T916 1210T865 1199Q838 1199 814 1209T773 1237T745 1279T734 1330Z" />
<glyph unicode="&#xf7;" glyph-name="divide" horiz-adv-x="1024" d="M151 416Q130 416 130 438V609Q130 630 151 630H873Q894 630 894 609V438Q894 416 873 416H151ZM387 219Q387 245 397 268T424 308T463 336T512 346Q538 346 561 336T601 309T628 268T638 219Q638
193 628 171T601 131T561 105T512 95Q486 95 464 104T424 131T397 170T387 219ZM387 824Q387 850 397 873T424 913T463 941T512 951Q538 951 561 941T601 914T628 873T638 824Q638 798 628 776T601 736T561 710T512 700Q486 700 464 709T424 736T397 775T387 824Z"
/>
<glyph unicode="&#xf8;" glyph-name="oslash" horiz-adv-x="1339" d="M1224 803Q1253 748 1269 678T1286 520Q1286 411 1263 329T1200 186T1106 85T990 19T861 -19T726 -34L556 -320Q549 -333 535 -333Q525 -333 519 -328L451 -281Q446 -277 443 -273T439 -260Q439
-253 445 -242L571 -30Q504 -23 440 -6T318 40T212 113T128 214T73 346T53 512Q53 614 78 694T146 836T249 939T376 1008T520 1047T670 1059Q730 1059 792 1053T915 1030T1031 987T1134 918L1271 1148Q1278 1161 1291 1161Q1299 1161 1307 1156L1378 1110Q1390
1102 1390 1091Q1390 1082 1384 1072L1224 803ZM977 205Q1008 205 1038 218T1092 267T1130 363T1145 520Q1145 559 1142 591T1134 651L884 232Q904 215 927 210T977 205ZM809 512Q809 474 811 442T817 384L1060 792Q1040 807 1019 813T977 819Q953 819 924 809T870
767T827 674T809 512ZM902 165Q869 171 837 188T780 243T740 346T724 512Q724 579 732 630T755 718T789 780T827 821T866 846T902 859Q867 859 822 844T737 789T670 683T642 512Q642 408 666 341T727 235T811 181T902 165Z" />
<glyph unicode="&#xf9;" glyph-name="ugrave" horiz-adv-x="1245" d="M829 244Q829 187 847 160T911 133Q934 133 959 143T999 162V977Q999 994 1006 1009T1040 1024H1104Q1113 1024 1122 1023T1137 1018T1148 1004T1153 977V47Q1153 30 1149 21T1138 7T1122 1T1104
0H1040Q1014 0 1007 15T999 63Q977 55 938 41T838 14T697 -10T510 -20Q402 -20 324 -2T194 56T117 162T92 322V885Q92 919 98 945T121 989T168 1015T246 1024H684Q742 1024 772 1007T815 965T828 911T829 858V244ZM744 876Q744 898 741 911T729 930T705 938T666
940V237Q666 196 682 171T719 133T761 114T792 109Q767 135 756 162T744 233V876ZM387 1401Q378 1407 378 1416Q378 1423 385 1431L477 1561Q484 1570 492 1570Q498 1570 506 1564L860 1296Q869 1288 869 1281Q869 1274 863 1267L796 1169Q790 1159 779 1159Q776
1159 773 1161T766 1165L387 1401Z" />
<glyph unicode="&#xfa;" glyph-name="uacute" horiz-adv-x="1245" d="M829 244Q829 187 847 160T911 133Q934 133 959 143T999 162V977Q999 994 1006 1009T1040 1024H1104Q1113 1024 1122 1023T1137 1018T1148 1004T1153 977V47Q1153 30 1149 21T1138 7T1122 1T1104
0H1040Q1014 0 1007 15T999 63Q977 55 938 41T838 14T697 -10T510 -20Q402 -20 324 -2T194 56T117 162T92 322V885Q92 919 98 945T121 989T168 1015T246 1024H684Q742 1024 772 1007T815 965T828 911T829 858V244ZM744 876Q744 898 741 911T729 930T705 938T666
940V237Q666 196 682 171T719 133T761 114T792 109Q767 135 756 162T744 233V876ZM580 1165Q576 1163 573 1161T567 1159Q556 1159 550 1169L483 1267Q477 1274 477 1281Q477 1288 486 1296L840 1564Q847 1570 854 1570Q861 1570 869 1561L961 1431Q968 1423 968
1416Q968 1407 959 1401L580 1165Z" />
<glyph unicode="&#xfb;" glyph-name="ucircumflex" horiz-adv-x="1245" d="M829 244Q829 187 847 160T911 133Q934 133 959 143T999 162V977Q999 994 1006 1009T1040 1024H1104Q1113 1024 1122 1023T1137 1018T1148 1004T1153 977V47Q1153 30 1149 21T1138 7T1122
1T1104 0H1040Q1014 0 1007 15T999 63Q977 55 938 41T838 14T697 -10T510 -20Q402 -20 324 -2T194 56T117 162T92 322V885Q92 919 98 945T121 989T168 1015T246 1024H684Q742 1024 772 1007T815 965T828 911T829 858V244ZM744 876Q744 898 741 911T729 930T705
938T666 940V237Q666 196 682 171T719 133T761 114T792 109Q767 135 756 162T744 233V876ZM673 1323L449 1165Q445 1163 442 1161T436 1159Q426 1159 419 1169L352 1257Q346 1264 346 1271Q346 1278 355 1286L659 1544Q662 1546 665 1548T673 1550Q678 1550 681
1548T687 1544L991 1286Q1000 1278 1000 1271Q1000 1264 994 1257L927 1169Q919 1159 910 1159Q907 1159 904 1161T897 1165L673 1323Z" />
<glyph unicode="&#xfc;" glyph-name="udieresis" horiz-adv-x="1245" d="M829 244Q829 187 847 160T911 133Q934 133 959 143T999 162V977Q999 994 1006 1009T1040 1024H1104Q1113 1024 1122 1023T1137 1018T1148 1004T1153 977V47Q1153 30 1149 21T1138 7T1122
1T1104 0H1040Q1014 0 1007 15T999 63Q977 55 938 41T838 14T697 -10T510 -20Q402 -20 324 -2T194 56T117 162T92 322V885Q92 919 98 945T121 989T168 1015T246 1024H684Q742 1024 772 1007T815 965T828 911T829 858V244ZM744 876Q744 898 741 911T729 930T705
938T666 940V237Q666 196 682 171T719 133T761 114T792 109Q767 135 756 162T744 233V876ZM346 1330Q346 1357 356 1381T384 1422T426 1450T477 1461Q504 1461 528 1451T569 1423T597 1381T608 1330Q608 1303 598 1279T570 1238T528 1210T477 1199Q450 1199 426
1209T385 1237T357 1279T346 1330ZM738 1330Q738 1357 748 1381T776 1422T818 1450T869 1461Q896 1461 920 1451T961 1423T989 1381T1000 1330Q1000 1303 990 1279T962 1238T920 1210T869 1199Q842 1199 818 1209T777 1237T749 1279T738 1330Z" />
<glyph unicode="&#xfd;" glyph-name="yacute" horiz-adv-x="1148" d="M802 599L942 965Q947 978 951 988T961 1007T977 1019T1003 1024H1120Q1148 1024 1148 1008Q1148 995 1138 971L573 -362Q567 -375 563 -384T554 -400T540 -409T518 -412H389Q359 -412 359
-394Q359 -382 371 -358L505 -70L10 940Q0 962 0 978Q0 1003 19 1013T59 1024H566Q602 1024 621 1010T647 981L802 599ZM587 909Q574 940 543 940H495L718 383L757 484L587 909ZM557 1165Q553 1163 550 1161T544 1159Q533 1159 527 1169L460 1267Q454 1274 454
1281Q454 1288 463 1296L817 1564Q824 1570 831 1570Q838 1570 846 1561L938 1431Q945 1423 945 1416Q945 1407 936 1401L557 1165Z" />
<glyph unicode="&#xfe;" glyph-name="thorn" horiz-adv-x="1319" d="M92 1499Q92 1533 98 1559T121 1603T168 1629T246 1638H687Q766 1638 797 1602T829 1493V1033Q917 1018 996 982T1136 885T1231 733T1266 518Q1266 392 1230 301T1134 147T995 50T829 0V-272Q829
-308 823 -334T802 -377T758 -403T684 -412H246Q198 -412 168 -403T121 -377T98 -333T92 -272V1499ZM1124 519Q1124 596 1107 662T1054 779T963 862T829 904V128Q907 138 962 171T1054 256T1107 375T1124 519ZM744 1490Q744 1512 741 1525T729 1544T705 1552T666
1554V-328Q690 -328 705 -327T729 -319T741 -300T744 -264V1490Z" />
<glyph unicode="&#xff;" glyph-name="ydieresis" horiz-adv-x="1148" d="M802 599L942 965Q947 978 951 988T961 1007T977 1019T1003 1024H1120Q1148 1024 1148 1008Q1148 995 1138 971L573 -362Q567 -375 563 -384T554 -400T540 -409T518 -412H389Q359 -412 359
-394Q359 -382 371 -358L505 -70L10 940Q0 962 0 978Q0 1003 19 1013T59 1024H566Q602 1024 621 1010T647 981L802 599ZM587 909Q574 940 543 940H495L718 383L757 484L587 909ZM323 1330Q323 1357 333 1381T361 1422T403 1450T454 1461Q481 1461 505 1451T546
1423T574 1381T585 1330Q585 1303 575 1279T547 1238T505 1210T454 1199Q427 1199 403 1209T362 1237T334 1279T323 1330ZM715 1330Q715 1357 725 1381T753 1422T795 1450T846 1461Q873 1461 897 1451T938 1423T966 1381T977 1330Q977 1303 967 1279T939 1238T897
1210T846 1199Q819 1199 795 1209T754 1237T726 1279T715 1330Z" />
<glyph unicode="&#x2013;" glyph-name="endash" horiz-adv-x="1024" d="M121 366Q100 366 100 388V568Q100 589 121 589H903Q924 589 924 568V388Q924 366 903 366H121Z" />
<glyph unicode="&#x2014;" glyph-name="emdash" horiz-adv-x="2048" d="M21 366Q0 366 0 388V568Q0 589 21 589H2027Q2048 589 2048 568V388Q2048 366 2027 366H21Z" />
<glyph unicode="&#x2018;" glyph-name="quoteleft" horiz-adv-x="612" d="M539 1030Q544 1023 547 1016T550 1000Q550 982 530 969L430 903Q422 898 414 894T396 889Q380 889 362 913L76 1300Q68 1310 66 1318T63 1332Q63 1345 71 1353T90 1368L233 1462Q245 1470
257 1470Q269 1470 279 1463T295 1446L539 1030Z" />
<glyph unicode="&#x2019;" glyph-name="quoteright" horiz-adv-x="612" d="M317 1446Q323 1456 333 1463T355 1470Q367 1470 379 1462L522 1368Q533 1361 541 1353T549 1332Q549 1319 536 1300L250 913Q232 889 216 889Q208 889 199 893T182 903L82 969Q62 982
62 999Q62 1007 65 1014T74 1030L317 1446Z" />
<glyph unicode="&#x201a;" glyph-name="quotesinglbase" horiz-adv-x="612" d="M295 -180Q289 -191 279 -198T258 -205Q245 -205 233 -197L90 -102Q80 -95 72 -88T63 -68Q63 -61 65 -54T76 -35L362 352Q372 366 379 371T395 377Q405 377 413 373T430 362L530 297Q541
289 545 282T549 266Q549 258 546 251T539 236L295 -180Z" />
<glyph unicode="&#x201c;" glyph-name="quotedblleft" horiz-adv-x="920" d="M539 999Q549 982 549 969Q549 950 530 938L430 872Q421 866 413 862T395 858Q387 858 380 863T362 883L76 1270Q63 1289 63 1303Q63 1315 71 1322T90 1337L233 1432Q245 1440 258 1440Q269
1440 279 1433T295 1415L539 999ZM846 1198Q856 1181 856 1167Q856 1159 852 1152T838 1137L737 1071Q728 1065 720 1061T702 1057Q688 1057 670 1081L383 1468Q375 1478 373 1485T371 1501Q371 1514 378 1521T397 1536L541 1630Q554 1638 565 1638Q576 1638 586
1631T602 1614L846 1198Z" />
<glyph unicode="&#x201d;" glyph-name="quotedblright" horiz-adv-x="920" d="M625 1415Q631 1425 640 1432T662 1440Q675 1440 686 1432L829 1337Q840 1330 848 1323T856 1303Q856 1288 844 1270L557 883Q539 858 522 858Q514 858 506 862T489 872L389 938Q369
952 369 969Q369 977 372 984T381 999L625 1415ZM319 1614Q325 1625 334 1631T356 1638Q368 1638 381 1630L524 1536Q535 1529 543 1522T551 1501Q551 1484 539 1468L252 1081Q234 1057 217 1057Q209 1057 201 1061T184 1071L84 1137Q63 1152 63 1167Q63 1175 67
1182T76 1198L319 1614Z" />
<glyph unicode="&#x201e;" glyph-name="quotedblbase" horiz-adv-x="920" d="M602 -180Q596 -191 586 -198T565 -205Q552 -205 540 -197L397 -102Q387 -95 379 -88T370 -68Q370 -61 372 -54T383 -35L669 352Q679 366 686 371T702 377Q712 377 720 373T737 362L837
297Q848 289 852 282T856 266Q856 258 853 251T846 236L602 -180ZM295 19Q289 8 279 1T258 -6Q245 -6 233 2L90 97Q80 104 72 111T63 131Q63 138 65 145T76 164L362 551Q372 565 379 570T395 576Q405 576 413 572T430 561L530 496Q541 488 545 481T549 465Q549
457 546 450T539 435L295 19Z" />
<glyph unicode="&#x2022;" glyph-name="bullet" horiz-adv-x="695" d="M75 715Q75 771 96 820T155 907T242 965T348 987Q404 987 453 966T540 907T598 821T620 715Q620 659 599 610T540 523T454 465T348 443Q292 443 243 464T156 523T97 609T75 715ZM383 900Q421
863 439 816T457 715Q457 661 440 615T385 532Q416 539 443 556T491 597T523 651T535 715Q535 749 524 780T492 835T444 877T383 900Z" />
<glyph unicode="&#x2039;" glyph-name="guilsinglleft" horiz-adv-x="600" d="M337 520L470 381Q482 369 488 356T496 329T499 303T499 280V62Q499 31 475 31Q462 31 451 43T435 61L79 487Q73 495 67 503T60 520Q60 529 66 537T79 553L435 979Q440 984 451 996T475
1009Q499 1009 499 978V760Q499 750 499 738T497 712T488 685T470 659L337 520Z" />
<glyph unicode="&#x203a;" glyph-name="guilsinglright" horiz-adv-x="600" d="M263 520L130 659Q118 671 112 684T104 711T101 737T101 760V978Q101 1009 125 1009Q138 1009 149 997T165 979L521 553Q527 545 533 537T540 520Q540 511 534 503T521 487L165 61Q160
56 149 44T125 31Q101 31 101 62V280Q101 290 101 302T103 328T112 355T130 381L263 520Z" />
</font>
</defs>
</svg>
