<?xml version="1.0" standalone="no"?>
<!DOCTYPE svg PUBLIC "-//W3C//DTD SVG 1.1//EN" "http://www.w3.org/Graphics/SVG/1.1/DTD/svg11.dtd">
<svg xmlns="http://www.w3.org/2000/svg">
<defs >
<font id="Catamaran" horiz-adv-x="690" ><font-face
    font-family="Catamaran Black"
    units-per-em="1000"
    panose-1="0 0 10 0 0 0 0 0 0 0"
    ascent="1100"
    descent="-500"
    alphabetic="0" />
<glyph unicode=" " glyph-name="space" horiz-adv-x="220" />
<glyph unicode="!" glyph-name="exclam" horiz-adv-x="243" d="M213 714H31L51 248L193 208L213 714ZM83 183T57 157T30 91Q30 52 56 26T122 0Q160 0 186 26T213 91Q213 130 187 156T122 183Q83 183 57 157Z" />
<glyph unicode="&quot;" glyph-name="quotedbl" horiz-adv-x="453" d="M83 742T56 714T29 650Q29 626 41 605T72 572Q69 560 53 545T20 521L56 441Q123 466 168 521T213 635Q213 682 187 712T121 742Q83 742 56 714ZM293 742T266 714T239 650Q239 626 251 605T282
572Q279 560 263 545T230 521L266 441Q333 466 378 521T423 635Q423 682 397 712T331 742Q293 742 266 714Z" />
<glyph unicode="#" glyph-name="numbersign" horiz-adv-x="647" d="M316 426L338 517H189L167 426H30L41 293H135L117 215H30L41 82H85L64 -10L211 -15L234 82H329L308 -10L455 -15L478 82H617L607 215H510L528 293H617L607 426H560L582 517H433L411 426H316ZM266
215L284 293H379L361 215H266Z" />
<glyph unicode="$" glyph-name="dollar" horiz-adv-x="547" d="M461 652T483 637L429 514Q376 532 348 538T285 544Q255 544 237 530T218 496Q218 481 233 470T285 439L321 419Q384 383 426 353T497 281T527 187Q527 132 497 88T410 17V-122H291V-12Q280 -13 256
-13H243V-119H125V6Q71 20 33 42L93 179Q120 163 167 150T251 136Q291 136 315 152T339 189Q339 202 322 214T265 250L234 268Q166 308 128 334T60 403T30 498Q31 554 62 599T151 668V789L269 799V693H283Q303 693 313 692V789L432 799V664Q461 652 483 637Z" />
<glyph unicode="%" glyph-name="percent" horiz-adv-x="974" d="M431 0L730 706H542L244 0H431ZM280 337T331 385T382 517Q382 602 334 652T200 702Q117 702 69 653T20 519Q20 434 66 386T195 337Q280 337 331 385ZM244 487T233 473T198 458Q177 458 168 473T158
519Q158 578 202 578Q225 578 234 563T244 517Q244 487 233 473ZM852 1T903 49T954 181Q954 266 906 316T772 366Q689 366 641 317T592 183Q592 98 638 50T767 1Q852 1 903 49ZM816 151T805 137T770 122Q749 122 740 137T730 183Q730 242 774 242Q797 242 806 227T816
181Q816 151 805 137Z" />
<glyph unicode="&amp;" glyph-name="ampersand" horiz-adv-x="689" d="M426 696T309 696Q244 696 193 668T112 594T83 493Q83 437 116 387Q77 353 54 306T30 212Q30 135 66 82T165 3T305 -24Q400 -24 488 45L562 -19L669 113L593 177Q638 265 649 357L489 421Q480
356 456 293L327 403Q289 437 275 455T261 490Q261 512 280 529T333 547Q397 547 462 511L511 635Q426 696 309 696ZM338 126T309 126Q265 126 242 150T218 218Q218 246 230 270L368 150Q338 126 309 126Z" />
<glyph unicode="&apos;" glyph-name="quotesingle" horiz-adv-x="243" d="M83 742T56 714T29 650Q29 626 41 605T72 572Q69 560 53 545T20 521L56 441Q123 466 168 521T213 635Q213 682 187 712T121 742Q83 742 56 714Z" />
<glyph unicode="(" glyph-name="parenleft" horiz-adv-x="370" d="M296 51T264 148T232 322Q232 396 264 490T340 645L177 682Q114 592 82 504T50 321Q50 224 83 133T177 -39L339 -1Q296 51 264 148Z" />
<glyph unicode=")" glyph-name="parenright" horiz-adv-x="370" d="M74 592T106 495T138 321Q138 247 106 153T30 -2L193 -39Q256 51 288 139T320 322Q320 419 287 510T193 682L31 644Q74 592 106 495Z" />
<glyph unicode="*" glyph-name="asterisk" horiz-adv-x="424" d="M141 686L44 714L10 585L104 568L32 477L149 403L212 496L275 403L392 477L320 568L414 585L380 714L285 686V782H141V686Z" />
<glyph unicode="+" glyph-name="plus" horiz-adv-x="583" d="M376 530H208V345H30L41 202H208V8L376 0V202H553L543 345H376V530Z" />
<glyph unicode="," glyph-name="comma" horiz-adv-x="243" d="M83 147T56 119T29 55Q29 31 41 10T72 -23Q69 -35 53 -50T20 -74L56 -154Q123 -129 168 -74T213 40Q213 87 187 117T121 147Q83 147 56 119Z" />
<glyph unicode="-" glyph-name="hyphen" horiz-adv-x="352" d="M41 202H322L312 345H30L41 202Z" />
<glyph unicode="." glyph-name="period" horiz-adv-x="243" d="M160 0T186 26T213 91Q213 130 187 156T122 183Q83 183 57 157T30 91Q30 52 56 26T122 0Q160 0 186 26Z" />
<glyph unicode="/" glyph-name="slash" horiz-adv-x="506" d="M197 0L496 706H308L10 0H197Z" />
<glyph unicode="0" glyph-name="zero" horiz-adv-x="678" d="M20 199T61 131T174 25T338 -14Q430 -14 503 24T617 131T658 286Q658 370 617 437T503 541T339 579Q248 579 175 541T61 436T20 284Q20 199 61 131ZM208 350T245 390T338 431Q396 431 433 390T470 283Q470
218 433 176T339 134Q282 134 245 177T208 287Q208 350 245 390Z" />
<glyph unicode="1" glyph-name="one" horiz-adv-x="439" d="M258 566L10 459L81 313L197 363V0H379V566H258Z" />
<glyph unicode="2" glyph-name="two" horiz-adv-x="497" d="M125 579T38 527L61 379Q95 398 140 414T225 430Q264 430 286 418T308 382Q308 361 291 341T237 289Q221 277 214 270L25 106V0H477L465 143H283L324 178Q399 241 434 292T470 403Q470 494 407 536T231
579Q125 579 38 527Z" />
<glyph unicode="3" glyph-name="three" horiz-adv-x="536" d="M115 579T21 505L108 382Q180 431 237 431Q274 431 293 419T312 386Q312 361 286 346T218 330H136L151 187H254Q285 187 304 171T323 126Q323 100 301 85T244 69Q208 69 174 80T97 119L0 -2Q56 -38
121 -58T243 -78Q322 -78 383 -53T477 18T511 121Q511 164 486 207T425 272Q453 287 476 327T500 402Q500 454 470 494T384 556T255 579Q115 579 21 505Z" />
<glyph unicode="4" glyph-name="four" horiz-adv-x="611" d="M491 571H355L10 187L31 54H309V-63H491V54H582L591 197H491V571ZM224 197L309 297V197H224Z" />
<glyph unicode="5" glyph-name="five" horiz-adv-x="533" d="M231 197T247 210T285 223Q313 223 331 205T349 154Q349 119 325 98T262 76Q227 76 193 88T111 126L20 -3Q69 -37 136 -58T259 -79Q336 -79 393 -50T482 33T513 154Q513 214 489 264T417 344T305 374Q271
374 243 358V423H466L484 566H90L71 180H224Q231 197 247 210Z" />
<glyph unicode="6" glyph-name="six" horiz-adv-x="585" d="M390 398T446 373T533 301T565 195Q565 135 535 88T447 14T312 -13Q227 -13 161 21T57 115T20 252Q20 392 95 475T273 592T480 634L498 467L462 462Q388 452 338 438T254 386Q285 398 319 398Q390 398
446 373ZM335 134T356 155T377 209Q377 240 354 260T295 280Q256 280 211 248Q214 197 239 166T307 134Q335 134 356 155Z" />
<glyph unicode="7" glyph-name="seven" horiz-adv-x="518" d="M464 566H10L27 423H299L108 -30L289 -77L498 494L464 566Z" />
<glyph unicode="8" glyph-name="eight" horiz-adv-x="572" d="M219 643T163 620T75 555T42 457Q42 425 59 395T103 341Q67 316 44 277T20 197Q20 99 92 43T287 -13Q369 -13 429 13T520 87T552 197Q552 238 529 276T470 340Q496 362 513 393T530 457Q530 512 497
554T409 620T287 643Q219 643 163 620ZM312 494T326 479T341 447Q341 427 327 410T287 389Q261 393 246 409T231 446Q231 463 245 478T285 494Q312 494 326 479ZM322 277T343 253T365 205Q365 178 341 157T286 135Q256 135 232 156T208 205Q208 229 229 253T287
283Q322 277 343 253Z" />
<glyph unicode="9" glyph-name="nine" horiz-adv-x="585" d="M358 579T424 545T528 451T565 314Q565 174 490 91T312 -26T105 -68L87 99L123 104Q197 114 247 128T331 180Q300 168 266 168Q195 168 139 193T52 265T20 371Q20 431 50 478T138 552T273 579Q358 579
424 545ZM208 326T231 306T290 286Q329 286 374 318Q371 369 345 400T278 432Q250 432 229 411T208 357Q208 326 231 306Z" />
<glyph unicode=":" glyph-name="colon" horiz-adv-x="243" d="M160 293T186 319T213 384Q213 423 187 449T122 476Q83 476 57 450T30 384Q30 345 56 319T122 293Q160 293 186 319ZM160 0T186 26T213 91Q213 130 187 156T122 183Q83 183 57 157T30 91Q30 52 56
26T122 0Q160 0 186 26Z" />
<glyph unicode=";" glyph-name="semicolon" horiz-adv-x="244" d="M84 476T58 450T31 384Q31 345 57 319T123 293Q161 293 187 319T214 384Q214 423 188 449T123 476Q84 476 58 450ZM83 183T56 155T29 91Q29 67 41 46T72 13Q69 1 53 -14T20 -38L56 -118Q123 -93
168 -38T213 76Q213 123 187 153T121 183Q83 183 56 155Z" />
<glyph unicode="&lt;" glyph-name="less" horiz-adv-x="382" d="M362 348L329 505L30 293V212L329 -2L362 157L227 253L362 348Z" />
<glyph unicode="=" glyph-name="equal" horiz-adv-x="543" d="M41 293H513L503 426H30L41 293ZM41 82H513L503 215H30L41 82Z" />
<glyph unicode="&gt;" glyph-name="greater" horiz-adv-x="382" d="M20 346L155 250L20 155L53 -2L352 210V291L53 505L20 346Z" />
<glyph unicode="?" glyph-name="question" horiz-adv-x="467" d="M101 701T10 649L33 500Q127 553 198 553Q220 553 234 542T249 512Q249 485 207 454T98 402L105 243L248 204L260 319Q353 352 395 399T437 509Q437 566 408 609T324 677T201 701Q101 701 10 649ZM128
183T102 157T75 91Q75 52 101 26T167 0Q205 0 231 26T258 91Q258 130 232 156T167 183Q128 183 102 157Z" />
<glyph unicode="@" glyph-name="at" horiz-adv-x="812" d="M459 444Q400 444 346 424T257 356T221 229Q221 150 268 104T408 57Q449 57 487 76Q513 54 557 54Q613 54 667 84T757 173T792 309Q792 395 745 468T616 586T433 630Q306 630 213 576T70 431T20 238Q20
128 74 49T217 -70T414 -111Q474 -111 525 -102T634 -62L590 39Q560 28 508 22T423 16Q357 16 302 40T213 113T179 231Q179 309 212 369T305 461T439 494Q508 494 553 468T621 398T643 304Q643 271 630 246T599 206T571 191Q565 191 566 200L589 383L548 444H459ZM426
215T421 207T406 199Q387 199 377 210T367 237Q367 276 385 300T440 325L427 225Q426 215 421 207Z" />
<glyph unicode="A" glyph-name="A" horiz-adv-x="711" d="M191 0L238 134H473L522 -10L701 8L447 680H265L10 0H191ZM353 462L421 277H288L353 462Z" />
<glyph unicode="B" glyph-name="B" horiz-adv-x="645" d="M462 0T543 47T625 203Q625 250 601 291T534 361Q563 390 580 419T597 484Q597 582 518 631T317 680H80V0H337Q462 0 543 47ZM357 537T383 521T409 475Q409 449 379 436T303 422H262V537H311Q357 537 383
521ZM385 279T411 260T437 207Q437 176 411 160T341 143H262V279H339Q385 279 411 260Z" />
<glyph unicode="C" glyph-name="C" horiz-adv-x="596" d="M540 663T486 678T379 693Q279 693 200 648T75 521T30 337Q30 234 72 155T195 32T383 -13Q436 -13 491 0T586 37L517 173Q455 136 388 136Q345 136 306 160T242 231T218 338Q218 398 241 445T302 518T381
544Q415 544 443 538T525 514L579 637Q540 663 486 678Z" />
<glyph unicode="D" glyph-name="D" horiz-adv-x="739" d="M479 0T553 42T668 162T709 344Q709 442 672 518T563 637T388 680H80V0H384Q479 0 553 42ZM446 537T483 484T521 344Q521 247 480 195T372 143H262V537H379Q446 537 483 484Z" />
<glyph unicode="E" glyph-name="E" horiz-adv-x="598" d="M262 143V270H488L471 413H262V537H548L531 680H80V0H578L561 143H262Z" />
<glyph unicode="F" glyph-name="F" horiz-adv-x="558" d="M262 536H538L521 679H80V0H262V257H488L471 400H262V536Z" />
<glyph unicode="G" glyph-name="G" horiz-adv-x="666" d="M462 142Q428 136 398 136Q352 136 311 157T244 223T218 338Q218 404 245 450T315 520T401 544Q439 544 477 538T565 514L619 637Q581 663 518 678T399 693Q298 693 214 650T80 526T30 337Q30 228 74 149T201
29T393 -13Q450 -13 519 0T626 37V392H361L345 259H462V142Z" />
<glyph unicode="H" glyph-name="H" horiz-adv-x="762" d="M500 680V409H262V686L80 680V0H262V266H500V0H682V680H500Z" />
<glyph unicode="I" glyph-name="I" horiz-adv-x="342" d="M80 680V0H262V680H80Z" />
<glyph unicode="J" glyph-name="J" horiz-adv-x="345" d="M93 105T77 82T10 38L84 -106Q157 -83 197 -59T256 -1T275 84V680H93V137Q93 105 77 82Z" />
<glyph unicode="K" glyph-name="K" horiz-adv-x="730" d="M262 204V0H80V680H262V444L535 695L676 593L445 377L720 0H489L315 254L262 204Z" />
<glyph unicode="L" glyph-name="L" horiz-adv-x="578" d="M262 680H80V0H568L551 143H262V680Z" />
<glyph unicode="M" glyph-name="M" horiz-adv-x="799" d="M537 0H719V680H598L410 421L205 680H80V0H262V329L372 195L445 205L537 329V0Z" />
<glyph unicode="N" glyph-name="N" horiz-adv-x="773" d="M523 0H693V680H511V311L249 680H80V0H262V358L523 0Z" />
<glyph unicode="O" glyph-name="O" horiz-adv-x="763" d="M280 694T200 649T75 522T30 337Q30 239 73 159T195 33T381 -14Q484 -14 564 31T688 158T733 344Q733 442 691 522T569 648T381 694Q280 694 200 649ZM217 398T239 444T299 516T383 542Q457 542 501 487T546
344Q546 245 500 192T380 138Q304 138 261 194T217 338Q217 398 239 444Z" />
<glyph unicode="P" glyph-name="P" horiz-adv-x="666" d="M358 198Q435 198 500 224T606 303T646 435Q646 514 609 569T508 652T366 680H80V0H262V198H358ZM405 537T431 509T458 435Q458 395 431 368T362 341H262V537H360Q405 537 431 509Z" />
<glyph unicode="Q" glyph-name="Q" horiz-adv-x="763" d="M733 276T714 217T657 111L717 45L605 -52L538 18Q468 -14 381 -14Q275 -14 196 32T73 159T30 337Q30 440 75 521T200 648T381 694Q489 694 568 648T690 522T733 344Q733 276 714 217ZM403 138T419 142L336
229L456 331L531 249Q546 288 546 344Q546 431 502 486T383 542Q337 542 300 517T240 445T217 338Q217 250 260 194T380 138Q403 138 419 142Z" />
<glyph unicode="R" glyph-name="R" horiz-adv-x="714" d="M262 0V214H383L493 0H704L554 268Q597 297 621 342T646 448Q646 564 567 622T366 680H80V0H262ZM407 537T432 515T458 448Q458 408 431 383T362 357H262V537H360Q407 537 432 515Z" />
<glyph unicode="S" glyph-name="S" horiz-adv-x="547" d="M72 19T137 3T256 -13Q338 -13 399 13T494 84T527 187Q527 239 498 280T426 352T321 419L285 439Q249 458 234 469T218 496Q218 516 236 530T285 544Q319 544 347 538T429 514L483 637Q444 663 390 678T283
693Q207 693 150 668T62 599T30 498Q30 445 60 403T128 335T234 268L265 250Q304 227 321 215T339 189Q339 169 315 153T251 136Q215 136 168 149T93 179L33 42Q72 19 137 3Z" />
<glyph unicode="T" glyph-name="T" horiz-adv-x="619" d="M10 537H210V0H392V537H609L592 680H10V537Z" />
<glyph unicode="U" glyph-name="U" horiz-adv-x="750" d="M70 260Q70 173 108 112T215 18T375 -14Q466 -14 535 18T642 111T680 260V680H498V269Q498 207 464 173T375 138Q320 138 286 172T252 269V680H70V260Z" />
<glyph unicode="V" glyph-name="V" horiz-adv-x="711" d="M264 0H446L701 680H520L358 218L189 690L10 672L264 0Z" />
<glyph unicode="W" glyph-name="W" horiz-adv-x="1000" d="M613 0L501 427L396 0H214L10 672L189 690L308 218L410 680H591L707 218L809 680H990L795 0H613Z" />
<glyph unicode="X" glyph-name="X" horiz-adv-x="715" d="M472 0H705L477 345L704 680H478L362 498L225 705L29 648L247 338L10 0H225L362 186L472 0Z" />
<glyph unicode="Y" glyph-name="Y" horiz-adv-x="654" d="M644 680H457L316 435L184 694L10 646L226 268V0H408V266L644 680Z" />
<glyph unicode="Z" glyph-name="Z" horiz-adv-x="584" d="M574 551L555 680H39L56 537H357L10 128L30 0H571L554 143H220L574 551Z" />
<glyph unicode="[" glyph-name="bracketleft" horiz-adv-x="478" d="M451 56H282V553H452L468 696H100V-87H468L451 56Z" />
<glyph unicode="\" glyph-name="backslash" horiz-adv-x="506" d="M10 710L309 0H496L198 710H10Z" />
<glyph unicode="]" glyph-name="bracketright" horiz-adv-x="478" d="M26 553H196V56H27L10 -87H378V696H10L26 553Z" />
<glyph unicode="^" glyph-name="asciicircum" horiz-adv-x="475" d="M465 141L310 424H166L10 141H187L240 253L292 141H465Z" />
<glyph unicode="_" glyph-name="underscore" horiz-adv-x="456" d="M41 0H426L416 143H30L41 0Z" />
<glyph unicode="`" glyph-name="grave" horiz-adv-x="266" d="M190 787H10L124 588L256 610L190 787Z" />
<glyph unicode="a" glyph-name="a" horiz-adv-x="509" d="M124 337T158 345T217 354Q243 354 259 340T280 298H222Q32 298 32 156Q32 79 78 34T214 -11Q275 -11 323 50L375 0H463V300Q463 394 411 448T262 502Q206 502 148 489T48 456L96 325Q124 337 158 345ZM184
176T195 187T225 198H281V152Q248 125 217 125Q203 125 194 134T184 159Q184 176 195 187Z" />
<glyph unicode="b" glyph-name="b" horiz-adv-x="583" d="M426 502T494 438T563 249Q563 122 494 56T306 -11Q239 -11 183 31L152 0H60V695L242 706V489Q279 502 314 502Q426 502 494 438ZM329 129T352 161T375 248Q375 303 352 332T286 362Q264 362 242 347V142Q271
129 294 129Q329 129 352 161Z" />
<glyph unicode="c" glyph-name="c" horiz-adv-x="457" d="M389 502T285 502Q207 502 147 471T54 381T20 242Q20 122 92 56T285 -11Q389 -11 451 38L400 163Q372 148 350 143T303 137Q264 137 236 165T208 242Q208 292 236 323T303 354Q329 354 350 349T400 328L451
453Q389 502 285 502Z" />
<glyph unicode="d" glyph-name="d" horiz-adv-x="583" d="M523 0H431L404 35Q374 14 340 2T269 -11Q157 -11 89 53T20 242Q20 369 89 435T277 502Q311 502 341 492V695L523 706V0ZM208 188T231 159T297 129Q319 129 341 144V349Q312 362 289 362Q254 362 231 330T208
243Q208 188 231 159Z" />
<glyph unicode="e" glyph-name="e" horiz-adv-x="533" d="M513 320T487 377T408 468T281 502Q207 502 148 471T54 380T20 242Q20 162 57 105T159 18T310 -11Q369 -11 425 4T512 41L461 164Q397 131 328 131Q283 131 256 148T218 197H513V250Q513 320 487 377ZM212
314T231 335T276 356Q307 356 323 334T339 287H213Q212 314 231 335Z" />
<glyph unicode="f" glyph-name="f" horiz-adv-x="451" d="M90 0H272V322H423L406 465H272V490Q272 520 287 537T329 555Q365 555 399 536L451 660Q432 676 392 689T317 703Q257 703 205 681T122 616T90 510V465H10V322H90V0Z" />
<glyph unicode="g" glyph-name="g" horiz-adv-x="579" d="M523 -16Q523 -78 490 -126T396 -202T256 -230Q214 -230 145 -216T34 -174L89 -46Q133 -68 170 -75T243 -83Q286 -83 313 -64T341 -15V2Q304 -11 269 -11Q157 -11 89 53T20 242Q20 369 89 435T277 502Q349
502 408 454L432 484H523V-16ZM319 129T341 144V349Q312 362 289 362Q254 362 231 330T208 243Q208 188 231 159T297 129Q319 129 341 144Z" />
<glyph unicode="h" glyph-name="h" horiz-adv-x="620" d="M486 501T530 450T574 313V0H392V296Q392 354 340 354Q324 354 295 346T242 326V0H60V695L242 706V459Q326 501 398 501Q486 501 530 450Z" />
<glyph unicode="i" glyph-name="i" horiz-adv-x="282" d="M181 551T210 580T240 649Q240 690 211 719T140 749Q100 749 71 720T42 649Q42 609 71 580T140 551Q181 551 210 580ZM50 485V0H232V485H50Z" />
<glyph unicode="j" glyph-name="j" horiz-adv-x="302" d="M119 551T89 580T58 649Q58 690 87 719T156 749Q197 749 226 720T256 649Q256 609 227 580T156 551Q119 551 89 580ZM248 -51T231 -85T174 -145T62 -194L-10 -63Q24 -51 40 -38T61 -9T66 29V485H248V2Q248
-51 231 -85Z" />
<glyph unicode="k" glyph-name="k" horiz-adv-x="567" d="M275 181L371 0H567L403 277L532 374L423 499L242 346V706L60 695V0H242V156L275 181Z" />
<glyph unicode="l" glyph-name="l" horiz-adv-x="302" d="M60 695V0H242V706L60 695Z" />
<glyph unicode="m" glyph-name="m" horiz-adv-x="921" d="M875 501T875 313V0H693V296Q693 324 685 339T646 354Q633 354 605 345T554 326V313V0H372V296Q372 324 364 339T325 354Q312 354 284 345T232 326V0H50V485H158L190 435Q296 501 383 501Q479 501 521
441Q620 501 704 501Q875 501 875 313Z" />
<glyph unicode="n" glyph-name="n" horiz-adv-x="610" d="M256 337T285 345T330 354Q358 354 370 338T382 296V0H564V313Q564 398 520 449T388 501Q296 501 190 435L158 485H50V0H232V326Q256 337 285 345Z" />
<glyph unicode="o" glyph-name="o" horiz-adv-x="590" d="M570 161T534 104T434 18T291 -11Q169 -11 95 54T20 245Q20 324 56 382T155 471T295 502Q376 502 438 472T535 383T570 240Q570 161 534 104ZM336 137T359 163T382 240Q382 290 360 322T297 354Q255 354
232 325T208 245Q208 195 230 166T293 137Q336 137 359 163Z" />
<glyph unicode="p" glyph-name="p" horiz-adv-x="579" d="M422 502T490 438T559 249Q559 122 490 56T302 -11Q268 -11 238 -1V-209L56 -219V484H147L175 456Q205 477 239 489T310 502Q422 502 490 438ZM325 129T348 161T371 248Q371 303 348 332T282 362Q261 362
238 347V142Q267 129 290 129Q325 129 348 161Z" />
<glyph unicode="q" glyph-name="q" horiz-adv-x="579" d="M523 -208L341 -219V2Q304 -11 269 -11Q157 -11 89 53T20 242Q20 369 89 435T277 502Q347 502 406 456L432 484H523V-208ZM319 129T341 144V349Q312 362 289 362Q254 362 231 330T208 243Q208 188 231
159T297 129Q319 129 341 144Z" />
<glyph unicode="r" glyph-name="r" horiz-adv-x="395" d="M263 309T306 324T385 339L348 485Q310 485 265 467T185 425L141 484H50V0H232V285Q263 309 306 324Z" />
<glyph unicode="s" glyph-name="s" horiz-adv-x="451" d="M59 17T122 3T229 -11Q329 -11 380 31T431 151Q431 211 384 248T261 312Q238 320 224 328T210 342Q210 352 224 358T260 364Q286 364 317 356T379 335L430 450Q393 479 342 490T247 502Q146 502 89 459T32
340Q32 280 80 243T205 179Q226 172 239 164T253 149Q253 139 241 133T211 127Q185 127 144 137T73 161L22 46Q59 17 122 3Z" />
<glyph unicode="t" glyph-name="t" horiz-adv-x="456" d="M267 621L85 596V465H10V322H85V182Q85 120 116 77T200 11T312 -11Q346 -11 386 2T446 32L394 156Q360 137 324 137Q298 137 283 154T267 202V322H411L394 465H267V621Z" />
<glyph unicode="u" glyph-name="u" horiz-adv-x="610" d="M354 147T325 139T280 130Q252 130 240 146T228 188V484H46V171Q46 86 90 35T222 -17Q314 -17 420 49L472 -1H560V484H378V158Q354 147 325 139Z" />
<glyph unicode="v" glyph-name="v" horiz-adv-x="569" d="M378 485L285 211L188 503L20 455L196 0H368L559 485H378Z" />
<glyph unicode="w" glyph-name="w" horiz-adv-x="812" d="M621 485L558 210L486 485H315L248 210L178 503L10 455L158 0H324L399 251L475 0H641L802 485H621Z" />
<glyph unicode="x" glyph-name="x" horiz-adv-x="557" d="M343 0H547L382 231L547 485H346L272 368L187 500L11 458L168 241L10 0H215L278 104L343 0Z" />
<glyph unicode="y" glyph-name="y" horiz-adv-x="561" d="M173 -21T141 -38T56 -78L117 -219Q191 -203 253 -159T338 -57L551 485H370L277 211L178 503L10 455L184 9L180 -2Q173 -21 141 -38Z" />
<glyph unicode="z" glyph-name="z" horiz-adv-x="452" d="M47 342H207L8 94L30 0H444L427 143H230L426 384L417 485H30L47 342Z" />
<glyph unicode="{" glyph-name="braceleft" horiz-adv-x="349" d="M267 321T276 334T286 372Q286 392 282 404T268 431Q260 443 256 454T251 482Q251 517 289 517H326L339 659H226Q154 659 119 626T84 533Q84 516 89 499T103 458Q117 427 117 411Q117 394 105
384T75 373H30V247H75Q92 247 104 237T117 209Q117 200 113 187T103 160Q93 135 89 120T84 87Q84 28 119 -5T226 -39H339L326 103H289Q251 103 251 138Q251 155 255 166T268 192Q277 206 281 217T286 248Q286 272 276 286T252 310Q267 321 276 334Z" />
<glyph unicode="|" glyph-name="bar" horiz-adv-x="342" d="M262 -16V697L80 713V0L262 -16Z" />
<glyph unicode="}" glyph-name="braceright" horiz-adv-x="349" d="M82 299T73 286T63 248Q63 229 67 218T81 192Q89 178 93 167T98 138Q98 103 60 103H23L10 -39H123Q195 -39 230 -6T265 87Q265 104 260 120T245 164Q232 197 232 209Q232 226 244 236T274 247H319V373H274Q257
373 245 383T232 411Q232 422 238 439T246 460Q255 484 260 500T265 533Q265 592 230 625T123 659H10L23 517H60Q98 517 98 482Q98 465 94 454T81 428Q72 414 68 403T63 372Q63 348 73 334T97 310Q82 299 73 286Z" />
<glyph unicode="~" glyph-name="asciitilde" horiz-adv-x="565" d="M173 192T186 208T218 224Q242 224 262 220T309 207Q341 198 359 194T399 190Q471 190 503 246T535 400H409Q409 383 397 367T367 351Q336 351 281 368Q259 374 235 379T190 385Q114 385 72 327T30
175H173Q173 192 186 208Z" />
<glyph unicode="&#xa0;" glyph-name="uni00A0" horiz-adv-x="220" />
<glyph unicode="&#xa1;" glyph-name="exclamdown" horiz-adv-x="243" d="M160 531T186 557T213 623Q213 662 187 688T121 714Q83 714 57 688T30 623Q30 584 56 558T121 531Q160 531 186 557ZM30 0H212L192 466L50 506L30 0Z" />
<glyph unicode="&#xa2;" glyph-name="cent" horiz-adv-x="457" d="M328 137T350 142T400 163L451 38Q414 9 362 -3V-125H212V-4Q123 14 72 78T20 242Q20 342 71 408T212 494V618L362 631V494Q414 482 451 453L400 328Q371 343 350 348T303 354Q265 354 237 323T208
242Q208 193 236 165T303 137Q328 137 350 142Z" />
<glyph unicode="&#xa3;" glyph-name="sterling" horiz-adv-x="522" d="M495 143H298Q303 165 303 188V268H453L436 411H303V471Q303 501 320 518T370 536Q384 536 404 531T440 517L492 641Q473 657 433 670T358 684Q294 684 240 662T154 597T121 491V411H40V268H121V208Q121
177 102 161T39 143L49 0H512L495 143Z" />
<glyph unicode="&#xa4;" glyph-name="currency" horiz-adv-x="813" d="M680 190T680 252Q680 311 655 366L771 480L646 604L534 486Q507 499 474 505T406 512Q373 512 340 505T279 485L172 599L30 481L159 365Q133 311 133 249Q133 190 158 135L42 21L167 -103L279
15Q333 -10 407 -12Q440 -11 473 -4T534 16L641 -98L783 20L654 136Q680 190 680 252ZM501 212T475 186T407 159Q367 159 340 185T312 250Q313 289 339 315T406 342Q446 342 473 316T501 251Q501 212 475 186Z" />
<glyph unicode="&#xa5;" glyph-name="yen" horiz-adv-x="654" d="M408 162H546L556 46H408V0H226V46H108L98 162H226V200H108L98 316H199L10 646L184 694L316 435L457 680H644L437 316H546L556 200H408V162Z" />
<glyph unicode="&#xa6;" glyph-name="brokenbar" horiz-adv-x="342" d="M262 394V697L80 713V410L262 394ZM262 -16V287L80 303V0L262 -16Z" />
<glyph unicode="&#xa7;" glyph-name="section" horiz-adv-x="710" d="M690 208T647 159T527 88V81Q527 23 494 -22T400 -93T256 -119Q203 -119 138 -103T33 -64L93 73Q120 57 167 44T251 30Q291 30 315 46T339 83Q339 96 322 108T265 144L234 162Q166 202 128
228T60 297T30 392Q31 459 74 508T193 576V585Q193 641 224 685T313 755T446 780Q498 780 552 765T646 724L592 601Q539 619 511 625T448 631Q418 631 400 617T381 583Q381 568 396 557T448 526L484 506Q547 470 589 440T660 368T690 274Q690 208 647 159ZM408
264T450 227Q474 233 488 247T502 276Q502 289 485 301T428 337L397 355L377 367Q309 406 272 437Q248 434 233 421T218 390Q218 375 233 364T285 333L321 313Q408 264 450 227Z" />
<glyph unicode="&#xa8;" glyph-name="dieresis" horiz-adv-x="398" d="M129 603T153 627T177 686Q177 720 153 744T93 769Q60 769 35 745T10 686Q10 651 34 627T93 603Q129 603 153 627ZM340 603T364 627T388 686Q388 720 364 744T304 769Q271 769 246 745T221
686Q221 651 245 627T304 603Q340 603 364 627Z" />
<glyph unicode="&#xa9;" glyph-name="copyright" horiz-adv-x="825" d="M805 442T756 529T617 666T412 716Q298 716 209 666T70 529T20 336Q20 232 69 146T208 9T412 -42Q527 -42 616 8T755 145T805 336Q805 442 756 529ZM155 409T187 467T277 559T412 593Q495
593 552 560T639 469T668 337Q668 265 637 207T547 116T412 82Q336 82 278 115T187 207T155 337Q155 409 187 467ZM515 115T569 158L525 267Q501 254 481 249T440 244Q406 244 382 268T357 336Q357 380 381 407T440 434Q463 434 481 429T525 411L569 520Q515 563
424 563Q356 563 304 536T222 457T193 336Q193 232 256 174T424 115Q515 115 569 158Z" />
<glyph unicode="&#xaa;" glyph-name="ordfeminine" horiz-adv-x="347" d="M86 568T110 574T152 580Q177 580 189 564H155Q92 564 56 537T20 456Q20 400 53 369T150 337Q179 337 204 346T246 371L269 344H327V558Q327 625 290 663T184 702Q144 702 103 693T31 669L66
559Q86 568 110 574ZM138 468T144 471T161 475H197V470Q190 461 180 456T158 451Q149 451 144 454T138 461Q138 468 144 471Z" />
<glyph unicode="&#xab;" glyph-name="guillemotleft" horiz-adv-x="421" d="M220 179L154 247L220 314L187 421L30 269V224L187 73L220 179ZM401 179L335 247L401 314L368 421L211 269V224L368 73L401 179Z" />
<glyph unicode="&#xac;" glyph-name="logicalnot" horiz-adv-x="554" d="M23 281H356V117L524 110V357L506 424H10L23 281Z" />
<glyph unicode="&#xad;" glyph-name="softhyphen" horiz-adv-x="120" />
<glyph unicode="&#xae;" glyph-name="registered" horiz-adv-x="723" d="M703 571T661 648T542 770T361 815Q259 815 182 771T62 649T20 475Q20 381 62 304T181 183T361 138Q464 138 541 182T661 304T703 475Q703 571 661 648ZM131 544T158 597T238 680T361 710Q431
710 483 680T564 597T592 476Q592 409 564 356T484 273T361 242Q291 242 239 272T159 356T131 476Q131 544 158 597ZM485 452T501 477T517 534Q517 594 472 625T363 656H214V300H319V412H355L398 300H517L459 436Q485 452 501 477ZM376 574T388 566T401 534Q401
514 387 503T350 492H319V574H350Q376 574 388 566Z" />
<glyph unicode="&#xaf;" glyph-name="overscore" horiz-adv-x="310" d="M290 756H10V613H300L290 756Z" />
<glyph unicode="&#xb0;" glyph-name="degree" horiz-adv-x="295" d="M111 720T79 703T29 655T10 588Q10 551 28 521T78 474T148 457Q184 457 215 474T266 521T285 588Q285 624 266 654T216 702T148 720Q111 720 79 703ZM175 576T168 568T149 560Q139 560 131 569T123
588Q123 598 131 606T149 614Q160 614 167 606T175 586Q175 576 168 568Z" />
<glyph unicode="&#xb1;" glyph-name="plusminus" horiz-adv-x="545" d="M348 570H200V415H32L43 292H200V157L348 149V292H515L505 415H348V570ZM41 0H513L503 123H30L41 0Z" />
<glyph unicode="&#xb2;" glyph-name="twosuperior" horiz-adv-x="384" d="M132 771T93 757T15 716L73 626Q108 644 129 652T174 660Q199 660 212 652T226 630Q224 593 163 540L35 427V337H364L352 444H229L252 465Q303 511 325 552T347 643Q347 695 306 733T180
771Q132 771 93 757Z" />
<glyph unicode="&#xb3;" glyph-name="threesuperior" horiz-adv-x="408" d="M87 771T16 716L81 623Q135 660 177 660Q205 660 219 651T234 626Q234 607 215 596T163 585H102L113 477H190Q213 477 227 465T242 432Q242 413 225 401T183 389Q157 389 131 398T73
427L0 336Q42 309 91 294T182 279Q241 279 287 298T358 350T383 428Q383 460 364 492T318 541Q338 551 356 581T374 638Q374 698 324 734T191 771Q87 771 16 716Z" />
<glyph unicode="&#xb4;" glyph-name="acute" horiz-adv-x="266" d="M76 787L10 610L142 588L256 787H76Z" />
<glyph unicode="&#xb5;" glyph-name="mu" horiz-adv-x="620" d="M570 -1H462L430 49Q327 -15 238 -17V-209L56 -219V484H238V188Q238 163 250 147T290 130Q306 130 335 138T388 158V484H570V-1Z" />
<glyph unicode="&#xb6;" glyph-name="paragraph" horiz-adv-x="1053" d="M713 537V0H895V537H1033V680H315Q183 680 102 621T20 439Q20 357 62 301T173 218T328 191H353V0H534V537H713Z" />
<glyph unicode="&#xb7;" glyph-name="middot" horiz-adv-x="243" d="M160 172T186 198T213 263Q213 302 187 328T122 355Q83 355 57 329T30 263Q30 224 56 198T122 172Q160 172 186 198Z" />
<glyph unicode="&#xb8;" glyph-name="cedilla" horiz-adv-x="277" d="M135 -103T135 -132Q135 -141 126 -145T104 -150Q87 -150 48 -135L10 -221Q35 -240 66 -251T126 -262Q183 -262 225 -230T267 -142Q267 -111 250 -81T199 -39L219 13H93L50 -94Q135 -103 135 -132Z" />
<glyph unicode="&#xb9;" glyph-name="onesuperior" horiz-adv-x="336" d="M185 764L10 683L45 566L139 608V337H276V764H185Z" />
<glyph unicode="&#xba;" glyph-name="ordmasculine" horiz-adv-x="402" d="M117 702T69 653T20 519Q20 434 66 386T195 337Q280 337 331 385T382 517Q382 602 334 652T200 702Q117 702 69 653ZM225 578T234 563T244 517Q244 487 233 473T198 458Q177 458 168 473T158
519Q158 578 202 578Q225 578 234 563Z" />
<glyph unicode="&#xbb;" glyph-name="guillemotright" horiz-adv-x="421" d="M20 315L86 247L20 180L53 73L210 225V270L53 421L20 315ZM201 315L267 247L201 180L234 73L391 225V270L234 421L201 315Z" />
<glyph unicode="&#xbc;" glyph-name="onequarter" horiz-adv-x="987" d="M10 683L45 566L139 608V337H276V764H185L10 683ZM833 700H665L69 -134H236L833 700ZM889 36V326H784L516 28L532 -75H748V-166H889V-75H960L967 36H889ZM748 113V36H682L748 113Z" />
<glyph unicode="&#xbd;" glyph-name="onehalf" horiz-adv-x="980" d="M185 764L10 683L45 566L139 608V337H276V764H185ZM236 -134L833 700H665L69 -134H236ZM728 325T689 311T611 270L669 180Q704 198 725 206T770 214Q795 214 808 206T822 184Q820 147 759 94L631
-19V-109H960L948 -2H825L848 19Q899 65 921 106T943 197Q943 249 902 287T776 325Q728 325 689 311Z" />
<glyph unicode="&#xbe;" glyph-name="threequarters" horiz-adv-x="993" d="M87 771T16 716L81 623Q135 660 177 660Q205 660 219 651T234 626Q234 607 215 596T163 585H102L113 477H190Q213 477 227 465T242 432Q242 413 225 401T183 389Q157 389 131 398T73
427L0 336Q42 309 91 294T182 279Q241 279 287 298T358 350T383 428Q383 460 364 492T318 541Q338 551 356 581T374 638Q374 698 324 734T191 771Q87 771 16 716ZM248 -134L845 700H677L81 -134H248ZM522 28L538 -75H754V-166H895V-75H966L973 36H895V326H790L522
28ZM754 36H688L754 113V36Z" />
<glyph unicode="&#xbf;" glyph-name="questiondown" horiz-adv-x="467" d="M339 481T365 507T392 573Q392 612 366 638T300 664Q262 664 236 638T209 573Q209 534 235 508T300 481Q339 481 365 507ZM366 -37T457 15L434 164Q340 111 269 111Q247 111 233 122T218
152Q218 179 260 210T369 262L362 421L219 460L207 345Q114 312 72 265T30 155Q30 98 59 55T143 -13T266 -37Q366 -37 457 15Z" />
<glyph unicode="&#xc0;" glyph-name="Agrave" horiz-adv-x="711" d="M191 0L238 134H473L522 -10L701 8L447 680H265L10 0H191ZM353 462L421 277H288L353 462ZM386 932H206L320 733L452 755L386 932Z" />
<glyph unicode="&#xc1;" glyph-name="Aacute" horiz-adv-x="711" d="M191 0L238 134H473L522 -10L701 8L447 680H265L10 0H191ZM353 462L421 277H288L353 462ZM338 932L272 755L404 733L518 932H338Z" />
<glyph unicode="&#xc2;" glyph-name="Acircumflex" horiz-adv-x="711" d="M191 0L238 134H473L522 -10L701 8L447 680H265L10 0H191ZM353 462L421 277H288L353 462ZM586 759L412 938H305L131 759L308 739L361 801L413 739L586 759Z" />
<glyph unicode="&#xc3;" glyph-name="Atilde" horiz-adv-x="711" d="M191 0L238 134H473L522 -10L701 8L447 680H265L10 0H191ZM353 462L421 277H288L353 462ZM418 896T411 886T396 876Q383 876 374 880T349 892Q335 901 324 905T296 910Q243 910 206 872T169
750H295Q295 759 302 769T317 779Q331 779 340 775T363 763Q377 754 388 750T417 745Q469 745 504 783T540 905H418Q418 896 411 886Z" />
<glyph unicode="&#xc4;" glyph-name="Adieresis" horiz-adv-x="711" d="M191 0L238 134H473L522 -10L701 8L447 680H265L10 0H191ZM353 462L421 277H288L353 462ZM291 753T315 777T339 836Q339 870 315 894T255 919Q222 919 197 895T172 836Q172 801 196 777T255
753Q291 753 315 777ZM502 753T526 777T550 836Q550 870 526 894T466 919Q433 919 408 895T383 836Q383 801 407 777T466 753Q502 753 526 777Z" />
<glyph unicode="&#xc5;" glyph-name="Aring" horiz-adv-x="711" d="M191 0L238 134H473L522 -10L701 8L447 680H265L10 0H191ZM353 462L421 277H288L353 462ZM308 976T272 942T235 859Q235 809 271 777T358 744Q408 744 444 776T481 859Q481 891 464 918T419 960T358
976Q308 976 272 942ZM348 829T339 838T330 859Q330 871 339 879T360 887Q372 887 380 879T388 859Q388 847 380 838T360 829Q348 829 339 838Z" />
<glyph unicode="&#xc6;" glyph-name="AE" horiz-adv-x="987" d="M469 128V0H967L950 143H651V270H877L860 413H651V537H937L920 680H469L10 13L185 -13L277 128H469ZM378 271L469 399V271H378Z" />
<glyph unicode="&#xc7;" glyph-name="Ccedilla" horiz-adv-x="596" d="M468 -50T485 -80T502 -142Q502 -197 460 -229T361 -262Q332 -262 301 -251T245 -221L283 -135Q322 -150 339 -150Q352 -150 361 -146T370 -132Q370 -103 285 -94L319 -9Q229 4 164 51T65
171T30 337Q30 440 75 521T199 647T379 693Q431 693 485 678T579 637L525 514Q472 532 444 538T381 544Q340 544 303 518T242 445T218 338Q218 277 242 231T305 161T388 136Q455 136 517 173L586 37Q533 4 446 -8L434 -39Q468 -50 485 -80Z" />
<glyph unicode="&#xc8;" glyph-name="Egrave" horiz-adv-x="598" d="M262 143V270H488L471 413H262V537H548L531 680H80V0H578L561 143H262ZM362 932H182L296 733L428 755L362 932Z" />
<glyph unicode="&#xc9;" glyph-name="Eacute" horiz-adv-x="598" d="M262 143V270H488L471 413H262V537H548L531 680H80V0H578L561 143H262ZM314 932L248 755L380 733L494 932H314Z" />
<glyph unicode="&#xca;" glyph-name="Ecircumflex" horiz-adv-x="598" d="M262 143V270H488L471 413H262V537H548L531 680H80V0H578L561 143H262ZM562 759L388 938H281L107 759L284 739L337 801L389 739L562 759Z" />
<glyph unicode="&#xcb;" glyph-name="Edieresis" horiz-adv-x="598" d="M262 143V270H488L471 413H262V537H548L531 680H80V0H578L561 143H262ZM267 753T291 777T315 836Q315 870 291 894T231 919Q198 919 173 895T148 836Q148 801 172 777T231 753Q267 753 291
777ZM478 753T502 777T526 836Q526 870 502 894T442 919Q409 919 384 895T359 836Q359 801 383 777T442 753Q478 753 502 777Z" />
<glyph unicode="&#xcc;" glyph-name="Igrave" horiz-adv-x="342" d="M80 680V0H262V680H80ZM201 932H21L135 733L267 755L201 932Z" />
<glyph unicode="&#xcd;" glyph-name="Iacute" horiz-adv-x="342" d="M80 680V0H262V680H80ZM153 932L87 755L219 733L333 932H153Z" />
<glyph unicode="&#xce;" glyph-name="Icircumflex" horiz-adv-x="342" d="M80 680V0H262V680H80ZM657 759L483 938H376L202 759L379 739L432 801L484 739L657 759Z" />
<glyph unicode="&#xcf;" glyph-name="Idieresis" horiz-adv-x="342" d="M80 680V0H262V680H80ZM362 753T386 777T410 836Q410 870 386 894T326 919Q293 919 268 895T243 836Q243 801 267 777T326 753Q362 753 386 777ZM573 753T597 777T621 836Q621 870 597 894T537
919Q504 919 479 895T454 836Q454 801 478 777T537 753Q573 753 597 777Z" />
<glyph unicode="&#xd0;" glyph-name="Eth" horiz-adv-x="739" d="M490 680T562 637T672 518T709 344Q709 240 668 162T553 42T384 0H80V270H17L0 413H80V680H388Q490 680 562 637ZM438 143T479 195T521 344Q521 430 484 483T379 537H262V413H369L386 270H262V143H372Q438
143 479 195Z" />
<glyph unicode="&#xd1;" glyph-name="Ntilde" horiz-adv-x="773" d="M523 0H693V680H511V311L249 680H80V0H262V358L523 0ZM440 896T433 886T418 876Q405 876 396 880T371 892Q357 901 346 905T318 910Q265 910 228 872T191 750H317Q317 759 324 769T339 779Q353
779 362 775T385 763Q399 754 410 750T439 745Q491 745 526 783T562 905H440Q440 896 433 886Z" />
<glyph unicode="&#xd2;" glyph-name="Ograve" horiz-adv-x="763" d="M280 694T200 649T75 522T30 337Q30 239 73 159T195 33T381 -14Q484 -14 564 31T688 158T733 344Q733 442 691 522T569 648T381 694Q280 694 200 649ZM217 398T239 444T299 516T383 542Q457
542 501 487T546 344Q546 245 500 192T380 138Q304 138 261 194T217 338Q217 398 239 444ZM407 932H227L341 733L473 755L407 932Z" />
<glyph unicode="&#xd3;" glyph-name="Oacute" horiz-adv-x="763" d="M280 694T200 649T75 522T30 337Q30 239 73 159T195 33T381 -14Q484 -14 564 31T688 158T733 344Q733 442 691 522T569 648T381 694Q280 694 200 649ZM217 398T239 444T299 516T383 542Q457
542 501 487T546 344Q546 245 500 192T380 138Q304 138 261 194T217 338Q217 398 239 444ZM359 932L293 755L425 733L539 932H359Z" />
<glyph unicode="&#xd4;" glyph-name="Ocircumflex" horiz-adv-x="763" d="M280 694T200 649T75 522T30 337Q30 239 73 159T195 33T381 -14Q484 -14 564 31T688 158T733 344Q733 442 691 522T569 648T381 694Q280 694 200 649ZM217 398T239 444T299 516T383 542Q457
542 501 487T546 344Q546 245 500 192T380 138Q304 138 261 194T217 338Q217 398 239 444ZM607 759L433 938H326L152 759L329 739L382 801L434 739L607 759Z" />
<glyph unicode="&#xd5;" glyph-name="Otilde" horiz-adv-x="763" d="M280 694T200 649T75 522T30 337Q30 239 73 159T195 33T381 -14Q484 -14 564 31T688 158T733 344Q733 442 691 522T569 648T381 694Q280 694 200 649ZM217 398T239 444T299 516T383 542Q457
542 501 487T546 344Q546 245 500 192T380 138Q304 138 261 194T217 338Q217 398 239 444ZM439 896T432 886T417 876Q404 876 395 880T370 892Q356 901 345 905T317 910Q264 910 227 872T190 750H316Q316 759 323 769T338 779Q352 779 361 775T384 763Q398 754
409 750T438 745Q490 745 525 783T561 905H439Q439 896 432 886Z" />
<glyph unicode="&#xd6;" glyph-name="Odieresis" horiz-adv-x="763" d="M280 694T200 649T75 522T30 337Q30 239 73 159T195 33T381 -14Q484 -14 564 31T688 158T733 344Q733 442 691 522T569 648T381 694Q280 694 200 649ZM217 398T239 444T299 516T383 542Q457
542 501 487T546 344Q546 245 500 192T380 138Q304 138 261 194T217 338Q217 398 239 444ZM312 753T336 777T360 836Q360 870 336 894T276 919Q243 919 218 895T193 836Q193 801 217 777T276 753Q312 753 336 777ZM523 753T547 777T571 836Q571 870 547 894T487
919Q454 919 429 895T404 836Q404 801 428 777T487 753Q523 753 547 777Z" />
<glyph unicode="&#xd7;" glyph-name="multiply" horiz-adv-x="607" d="M379 29L303 135L215 29H30L222 263L47 484H228L303 378L392 484H577L385 250L560 29H379Z" />
<glyph unicode="&#xd8;" glyph-name="Oslash" horiz-adv-x="763" d="M489 694T568 648T690 522T733 344Q733 240 689 159T564 32T381 -14Q275 -14 196 32T73 159T30 337Q30 440 75 521T200 648T381 694Q489 694 568 648ZM337 542T300 517T240 445T217 338Q217
253 257 199L398 541L383 542Q337 542 300 517ZM453 138T499 191T546 344Q546 419 511 473L367 138H380Q453 138 499 191Z" />
<glyph unicode="&#xd9;" glyph-name="Ugrave" horiz-adv-x="750" d="M70 260Q70 173 108 112T215 18T375 -14Q466 -14 535 18T642 111T680 260V680H498V269Q498 207 464 173T375 138Q320 138 286 172T252 269V680H70V260ZM401 932H221L335 733L467 755L401 932Z" />
<glyph unicode="&#xda;" glyph-name="Uacute" horiz-adv-x="750" d="M70 260Q70 173 108 112T215 18T375 -14Q466 -14 535 18T642 111T680 260V680H498V269Q498 207 464 173T375 138Q320 138 286 172T252 269V680H70V260ZM353 932L287 755L419 733L533 932H353Z" />
<glyph unicode="&#xdb;" glyph-name="Ucircumflex" horiz-adv-x="750" d="M70 260Q70 173 108 112T215 18T375 -14Q466 -14 535 18T642 111T680 260V680H498V269Q498 207 464 173T375 138Q320 138 286 172T252 269V680H70V260ZM601 759L427 938H320L146 759L323
739L376 801L428 739L601 759Z" />
<glyph unicode="&#xdc;" glyph-name="Udieresis" horiz-adv-x="750" d="M70 260Q70 173 108 112T215 18T375 -14Q466 -14 535 18T642 111T680 260V680H498V269Q498 207 464 173T375 138Q320 138 286 172T252 269V680H70V260ZM306 753T330 777T354 836Q354 870
330 894T270 919Q237 919 212 895T187 836Q187 801 211 777T270 753Q306 753 330 777ZM517 753T541 777T565 836Q565 870 541 894T481 919Q448 919 423 895T398 836Q398 801 422 777T481 753Q517 753 541 777Z" />
<glyph unicode="&#xdd;" glyph-name="Yacute" horiz-adv-x="654" d="M644 680H457L316 435L184 694L10 646L226 268V0H408V266L644 680ZM294 932L228 755L360 733L474 932H294Z" />
<glyph unicode="&#xde;" glyph-name="Thorn" horiz-adv-x="666" d="M444 600T507 573T608 490T646 355Q646 277 606 224T501 144T358 118H262V0H80V680H262V600H366Q444 600 507 573ZM404 261T431 288T458 355Q458 401 432 429T360 457H262V261H362Q404 261 431 288Z" />
<glyph unicode="&#xdf;" glyph-name="germandbls" horiz-adv-x="660" d="M242 457Q242 500 269 524T329 549Q367 549 390 530T414 485Q414 460 388 438T327 416H300V286H379Q407 286 426 267T445 214Q445 184 424 167T371 149H295V0H388Q460 0 514 24T599 94T630
200Q630 252 601 299T529 364Q563 387 579 426T596 503Q596 562 561 607T464 677T323 702Q244 702 185 670T93 582T60 452V0H242V457Z" />
<glyph unicode="&#xe0;" glyph-name="agrave" horiz-adv-x="509" d="M124 337T158 345T217 354Q243 354 259 340T280 298H222Q32 298 32 156Q32 79 78 34T214 -11Q275 -11 323 50L375 0H463V300Q463 394 411 448T262 502Q206 502 148 489T48 456L96 325Q124 337
158 345ZM184 176T195 187T225 198H281V152Q248 125 217 125Q203 125 194 134T184 159Q184 176 195 187ZM283 787H103L217 588L349 610L283 787Z" />
<glyph unicode="&#xe1;" glyph-name="aacute" horiz-adv-x="509" d="M124 337T158 345T217 354Q243 354 259 340T280 298H222Q32 298 32 156Q32 79 78 34T214 -11Q275 -11 323 50L375 0H463V300Q463 394 411 448T262 502Q206 502 148 489T48 456L96 325Q124 337
158 345ZM184 176T195 187T225 198H281V152Q248 125 217 125Q203 125 194 134T184 159Q184 176 195 187ZM235 787L169 610L301 588L415 787H235Z" />
<glyph unicode="&#xe2;" glyph-name="acircumflex" horiz-adv-x="509" d="M124 337T158 345T217 354Q243 354 259 340T280 298H222Q32 298 32 156Q32 79 78 34T214 -11Q275 -11 323 50L375 0H463V300Q463 394 411 448T262 502Q206 502 148 489T48 456L96 325Q124
337 158 345ZM184 176T195 187T225 198H281V152Q248 125 217 125Q203 125 194 134T184 159Q184 176 195 187ZM486 608L312 787H205L31 608L208 588L261 650L313 588L486 608Z" />
<glyph unicode="&#xe3;" glyph-name="atilde" horiz-adv-x="509" d="M124 337T158 345T217 354Q243 354 259 340T280 298H222Q32 298 32 156Q32 79 78 34T214 -11Q275 -11 323 50L375 0H463V300Q463 394 411 448T262 502Q206 502 148 489T48 456L96 325Q124 337
158 345ZM184 176T195 187T225 198H281V152Q248 125 217 125Q203 125 194 134T184 159Q184 176 195 187ZM313 746T306 736T291 726Q278 726 269 730T244 742Q230 751 219 755T191 760Q138 760 101 722T64 600H190Q190 609 197 619T212 629Q226 629 235 625T258
613Q272 604 283 600T312 595Q364 595 399 633T435 755H313Q313 746 306 736Z" />
<glyph unicode="&#xe4;" glyph-name="adieresis" horiz-adv-x="509" d="M124 337T158 345T217 354Q243 354 259 340T280 298H222Q32 298 32 156Q32 79 78 34T214 -11Q275 -11 323 50L375 0H463V300Q463 394 411 448T262 502Q206 502 148 489T48 456L96 325Q124
337 158 345ZM184 176T195 187T225 198H281V152Q248 125 217 125Q203 125 194 134T184 159Q184 176 195 187ZM187 603T211 627T235 686Q235 720 211 744T151 769Q118 769 93 745T68 686Q68 651 92 627T151 603Q187 603 211 627ZM398 603T422 627T446 686Q446 720
422 744T362 769Q329 769 304 745T279 686Q279 651 303 627T362 603Q398 603 422 627Z" />
<glyph unicode="&#xe5;" glyph-name="aring" horiz-adv-x="509" d="M124 337T158 345T217 354Q243 354 259 340T280 298H222Q32 298 32 156Q32 79 78 34T214 -11Q275 -11 323 50L375 0H463V300Q463 394 411 448T262 502Q206 502 148 489T48 456L96 325Q124 337
158 345ZM184 176T195 187T225 198H281V152Q248 125 217 125Q203 125 194 134T184 159Q184 176 195 187ZM210 826T174 792T137 709Q137 659 173 627T260 594Q310 594 346 626T383 709Q383 741 366 768T321 810T260 826Q210 826 174 792ZM250 679T241 688T232 709Q232
721 241 729T262 737Q274 737 282 729T290 709Q290 697 282 688T262 679Q250 679 241 688Z" />
<glyph unicode="&#xe6;" glyph-name="ae" horiz-adv-x="793" d="M478 197Q488 166 515 149T588 131Q657 131 721 164L772 41Q742 19 686 4T570 -11Q447 -11 370 48Q343 22 307 6T214 -11Q124 -11 78 34T32 156Q32 298 222 298H280Q276 326 260 340T217 354Q193
354 159 346T96 325L48 456Q90 475 148 488T262 502Q344 502 394 463Q460 502 541 502Q616 502 668 468T746 377T773 250V197H478ZM599 312T583 334T536 356Q511 356 492 335T473 287H599Q599 312 583 334ZM184 144T193 135T217 125Q241 125 258 132T294 153Q286
176 283 198H225Q207 198 196 187T184 159Q184 144 193 135Z" />
<glyph unicode="&#xe7;" glyph-name="ccedilla" horiz-adv-x="457" d="M410 5T347 -6L334 -39Q368 -50 385 -80T402 -142Q402 -197 360 -229T261 -262Q232 -262 201 -251T145 -221L183 -135Q222 -150 239 -150Q252 -150 261 -146T270 -132Q270 -103 185 -94L221
-5Q128 11 74 75T20 242Q20 322 53 381T147 471T285 502Q389 502 451 453L400 328Q371 343 350 348T303 354Q265 354 237 323T208 242Q208 193 236 165T303 137Q328 137 350 142T400 163L451 38Q410 5 347 -6Z" />
<glyph unicode="&#xe8;" glyph-name="egrave" horiz-adv-x="533" d="M513 320T487 377T408 468T281 502Q207 502 148 471T54 380T20 242Q20 162 57 105T159 18T310 -11Q369 -11 425 4T512 41L461 164Q397 131 328 131Q283 131 256 148T218 197H513V250Q513 320
487 377ZM212 314T231 335T276 356Q307 356 323 334T339 287H213Q212 314 231 335ZM304 787H124L238 588L370 610L304 787Z" />
<glyph unicode="&#xe9;" glyph-name="eacute" horiz-adv-x="533" d="M513 320T487 377T408 468T281 502Q207 502 148 471T54 380T20 242Q20 162 57 105T159 18T310 -11Q369 -11 425 4T512 41L461 164Q397 131 328 131Q283 131 256 148T218 197H513V250Q513 320
487 377ZM212 314T231 335T276 356Q307 356 323 334T339 287H213Q212 314 231 335ZM256 787L190 610L322 588L436 787H256Z" />
<glyph unicode="&#xea;" glyph-name="ecircumflex" horiz-adv-x="533" d="M513 320T487 377T408 468T281 502Q207 502 148 471T54 380T20 242Q20 162 57 105T159 18T310 -11Q369 -11 425 4T512 41L461 164Q397 131 328 131Q283 131 256 148T218 197H513V250Q513
320 487 377ZM212 314T231 335T276 356Q307 356 323 334T339 287H213Q212 314 231 335ZM507 608L333 787H226L52 608L229 588L282 650L334 588L507 608Z" />
<glyph unicode="&#xeb;" glyph-name="edieresis" horiz-adv-x="533" d="M513 320T487 377T408 468T281 502Q207 502 148 471T54 380T20 242Q20 162 57 105T159 18T310 -11Q369 -11 425 4T512 41L461 164Q397 131 328 131Q283 131 256 148T218 197H513V250Q513
320 487 377ZM212 314T231 335T276 356Q307 356 323 334T339 287H213Q212 314 231 335ZM208 603T232 627T256 686Q256 720 232 744T172 769Q139 769 114 745T89 686Q89 651 113 627T172 603Q208 603 232 627ZM419 603T443 627T467 686Q467 720 443 744T383 769Q350
769 325 745T300 686Q300 651 324 627T383 603Q419 603 443 627Z" />
<glyph unicode="&#xec;" glyph-name="igrave" horiz-adv-x="282" d="M50 485V0H232V485H50ZM421 787H241L355 588L487 610L421 787Z" />
<glyph unicode="&#xed;" glyph-name="iacute" horiz-adv-x="282" d="M50 485V0H232V485H50ZM117 787L51 610L183 588L297 787H117Z" />
<glyph unicode="&#xee;" glyph-name="icircumflex" horiz-adv-x="282" d="M50 485V0H232V485H50ZM624 608L450 787H343L169 608L346 588L399 650L451 588L624 608Z" />
<glyph unicode="&#xef;" glyph-name="idieresis" horiz-adv-x="282" d="M50 485V0H232V485H50ZM325 603T349 627T373 686Q373 720 349 744T289 769Q256 769 231 745T206 686Q206 651 230 627T289 603Q325 603 349 627ZM536 603T560 627T584 686Q584 720 560 744T500
769Q467 769 442 745T417 686Q417 651 441 627T500 603Q536 603 560 627Z" />
<glyph unicode="&#xf0;" glyph-name="eth" horiz-adv-x="590" d="M481 538T525 445T570 254Q570 174 536 114T441 22T302 -11Q222 -11 158 17T57 103T20 245Q20 323 55 381T149 471T275 502L292 501Q274 522 251 542L106 474L56 580L127 614Q94 627 53 638L114
750Q204 730 282 689L412 752L466 642L398 610Q481 538 525 445ZM336 137T359 163T382 240Q382 292 372 336Q333 354 297 354Q255 354 232 325T208 245Q208 195 230 166T293 137Q336 137 359 163Z" />
<glyph unicode="&#xf1;" glyph-name="ntilde" horiz-adv-x="610" d="M256 337T285 345T330 354Q358 354 370 338T382 296V0H564V313Q564 398 520 449T388 501Q296 501 190 435L158 485H50V0H232V326Q256 337 285 345ZM408 746T401 736T386 726Q373 726 364 730T339
742Q325 751 314 755T286 760Q233 760 196 722T159 600H285Q285 609 292 619T307 629Q321 629 330 625T353 613Q367 604 378 600T407 595Q459 595 494 633T530 755H408Q408 746 401 736Z" />
<glyph unicode="&#xf2;" glyph-name="ograve" horiz-adv-x="590" d="M570 161T534 104T434 18T291 -11Q169 -11 95 54T20 245Q20 324 56 382T155 471T295 502Q376 502 438 472T535 383T570 240Q570 161 534 104ZM336 137T359 163T382 240Q382 290 360 322T297
354Q255 354 232 325T208 245Q208 195 230 166T293 137Q336 137 359 163ZM317 787H137L251 588L383 610L317 787Z" />
<glyph unicode="&#xf3;" glyph-name="oacute" horiz-adv-x="590" d="M570 161T534 104T434 18T291 -11Q169 -11 95 54T20 245Q20 324 56 382T155 471T295 502Q376 502 438 472T535 383T570 240Q570 161 534 104ZM336 137T359 163T382 240Q382 290 360 322T297
354Q255 354 232 325T208 245Q208 195 230 166T293 137Q336 137 359 163ZM269 787L203 610L335 588L449 787H269Z" />
<glyph unicode="&#xf4;" glyph-name="ocircumflex" horiz-adv-x="590" d="M570 161T534 104T434 18T291 -11Q169 -11 95 54T20 245Q20 324 56 382T155 471T295 502Q376 502 438 472T535 383T570 240Q570 161 534 104ZM336 137T359 163T382 240Q382 290 360 322T297
354Q255 354 232 325T208 245Q208 195 230 166T293 137Q336 137 359 163ZM520 608L346 787H239L65 608L242 588L295 650L347 588L520 608Z" />
<glyph unicode="&#xf5;" glyph-name="otilde" horiz-adv-x="590" d="M570 161T534 104T434 18T291 -11Q169 -11 95 54T20 245Q20 324 56 382T155 471T295 502Q376 502 438 472T535 383T570 240Q570 161 534 104ZM336 137T359 163T382 240Q382 290 360 322T297
354Q255 354 232 325T208 245Q208 195 230 166T293 137Q336 137 359 163ZM347 746T340 736T325 726Q312 726 303 730T278 742Q264 751 253 755T225 760Q172 760 135 722T98 600H224Q224 609 231 619T246 629Q260 629 269 625T292 613Q306 604 317 600T346 595Q398
595 433 633T469 755H347Q347 746 340 736Z" />
<glyph unicode="&#xf6;" glyph-name="odieresis" horiz-adv-x="590" d="M570 161T534 104T434 18T291 -11Q169 -11 95 54T20 245Q20 324 56 382T155 471T295 502Q376 502 438 472T535 383T570 240Q570 161 534 104ZM336 137T359 163T382 240Q382 290 360 322T297
354Q255 354 232 325T208 245Q208 195 230 166T293 137Q336 137 359 163ZM221 603T245 627T269 686Q269 720 245 744T185 769Q152 769 127 745T102 686Q102 651 126 627T185 603Q221 603 245 627ZM432 603T456 627T480 686Q480 720 456 744T396 769Q363 769 338
745T313 686Q313 651 337 627T396 603Q432 603 456 627Z" />
<glyph unicode="&#xf7;" glyph-name="divide" horiz-adv-x="512" d="M217 551T191 525T164 459Q164 420 190 394T256 368Q294 368 320 394T347 459Q347 498 321 524T256 551Q217 551 191 525ZM41 207H482L472 340H30L41 207ZM217 183T191 157T164 91Q164 52 190
26T256 0Q294 0 320 26T347 91Q347 130 321 156T256 183Q217 183 191 157Z" />
<glyph unicode="&#xf8;" glyph-name="oslash" horiz-adv-x="590" d="M376 502T438 472T535 383T570 240Q570 161 534 104T434 18T291 -11Q169 -11 95 54T20 245Q20 324 56 382T155 471T295 502Q376 502 438 472ZM255 354T232 325T208 245Q208 215 215 195L302
354H297Q255 354 232 325ZM336 137T359 163T382 240Q382 269 375 289L289 137H293Q336 137 359 163Z" />
<glyph unicode="&#xf9;" glyph-name="ugrave" horiz-adv-x="610" d="M354 147T325 139T280 130Q252 130 240 146T228 188V484H46V171Q46 86 90 35T222 -17Q314 -17 420 49L472 -1H560V484H378V158Q354 147 325 139ZM327 787H147L261 588L393 610L327 787Z" />
<glyph unicode="&#xfa;" glyph-name="uacute" horiz-adv-x="610" d="M354 147T325 139T280 130Q252 130 240 146T228 188V484H46V171Q46 86 90 35T222 -17Q314 -17 420 49L472 -1H560V484H378V158Q354 147 325 139ZM279 787L213 610L345 588L459 787H279Z" />
<glyph unicode="&#xfb;" glyph-name="ucircumflex" horiz-adv-x="610" d="M354 147T325 139T280 130Q252 130 240 146T228 188V484H46V171Q46 86 90 35T222 -17Q314 -17 420 49L472 -1H560V484H378V158Q354 147 325 139ZM530 608L356 787H249L75 608L252 588L305
650L357 588L530 608Z" />
<glyph unicode="&#xfc;" glyph-name="udieresis" horiz-adv-x="610" d="M354 147T325 139T280 130Q252 130 240 146T228 188V484H46V171Q46 86 90 35T222 -17Q314 -17 420 49L472 -1H560V484H378V158Q354 147 325 139ZM231 603T255 627T279 686Q279 720 255 744T195
769Q162 769 137 745T112 686Q112 651 136 627T195 603Q231 603 255 627ZM442 603T466 627T490 686Q490 720 466 744T406 769Q373 769 348 745T323 686Q323 651 347 627T406 603Q442 603 466 627Z" />
<glyph unicode="&#xfd;" glyph-name="yacute" horiz-adv-x="561" d="M173 -21T141 -38T56 -78L117 -219Q191 -203 253 -159T338 -57L551 485H370L277 211L178 503L10 455L184 9L180 -2Q173 -21 141 -38ZM251 787L185 610L317 588L431 787H251Z" />
<glyph unicode="&#xfe;" glyph-name="thorn" horiz-adv-x="579" d="M422 502T490 438T559 249Q559 122 490 56T302 -11Q274 -11 238 2V-209L56 -219V695L238 706V486Q280 502 310 502Q422 502 490 438ZM325 129T348 161T371 248Q371 303 348 332T282 362Q261 362
238 347V142Q267 129 290 129Q325 129 348 161Z" />
<glyph unicode="&#xff;" glyph-name="ydieresis" horiz-adv-x="561" d="M173 -21T141 -38T56 -78L117 -219Q191 -203 253 -159T338 -57L551 485H370L277 211L178 503L10 455L184 9L180 -2Q173 -21 141 -38ZM203 603T227 627T251 686Q251 720 227 744T167 769Q134
769 109 745T84 686Q84 651 108 627T167 603Q203 603 227 627ZM414 603T438 627T462 686Q462 720 438 744T378 769Q345 769 320 745T295 686Q295 651 319 627T378 603Q414 603 438 627Z" />
<glyph unicode="&#x2013;" glyph-name="endash" horiz-adv-x="456" d="M41 202H426L416 345H30L41 202Z" />
<glyph unicode="&#x2014;" glyph-name="emdash" horiz-adv-x="573" d="M41 202H543L533 345H30L41 202Z" />
<glyph unicode="&#x2018;" glyph-name="quoteleft" horiz-adv-x="243" d="M160 441T187 469T214 533Q214 557 202 578T171 611Q174 623 190 638T223 662L187 742Q120 717 75 662T30 548Q30 501 56 471T122 441Q160 441 187 469Z" />
<glyph unicode="&#x2019;" glyph-name="quoteright" horiz-adv-x="243" d="M83 742T56 714T29 650Q29 626 41 605T72 572Q69 560 53 545T20 521L56 441Q123 466 168 521T213 635Q213 682 187 712T121 742Q83 742 56 714Z" />
<glyph unicode="&#x201a;" glyph-name="quotesinglbase" horiz-adv-x="243" d="M83 147T56 119T29 55Q29 31 41 10T72 -23Q69 -35 53 -50T20 -74L56 -154Q123 -129 168 -74T213 40Q213 87 187 117T121 147Q83 147 56 119Z" />
<glyph unicode="&#x201c;" glyph-name="quotedblleft" horiz-adv-x="453" d="M160 441T187 469T214 533Q214 557 202 578T171 611Q174 623 190 638T223 662L187 742Q120 717 75 662T30 548Q30 501 56 471T122 441Q160 441 187 469ZM370 441T397 469T424 533Q424
557 412 578T381 611Q384 623 400 638T433 662L397 742Q330 717 285 662T240 548Q240 501 266 471T332 441Q370 441 397 469Z" />
<glyph unicode="&#x201d;" glyph-name="quotedblright" horiz-adv-x="453" d="M83 742T56 714T29 650Q29 626 41 605T72 572Q69 560 53 545T20 521L56 441Q123 466 168 521T213 635Q213 682 187 712T121 742Q83 742 56 714ZM293 742T266 714T239 650Q239 626 251
605T282 572Q279 560 263 545T230 521L266 441Q333 466 378 521T423 635Q423 682 397 712T331 742Q293 742 266 714Z" />
<glyph unicode="&#x201e;" glyph-name="quotedblbase" horiz-adv-x="453" d="M83 147T56 119T29 55Q29 31 41 10T72 -23Q69 -35 53 -50T20 -74L56 -154Q123 -129 168 -74T213 40Q213 87 187 117T121 147Q83 147 56 119ZM293 147T266 119T239 55Q239 31 251 10T282
-23Q279 -35 263 -50T230 -74L266 -154Q333 -129 378 -74T423 40Q423 87 397 117T331 147Q293 147 266 119Z" />
<glyph unicode="&#x2022;" glyph-name="bullet" horiz-adv-x="308" d="M187 208T215 224T261 269T278 331Q278 364 261 392T215 438T153 455Q102 455 66 419T30 331Q30 280 66 244T153 208Q187 208 215 224Z" />
<glyph unicode="&#x2039;" glyph-name="guilsinglleft" horiz-adv-x="270" d="M250 194L184 252L250 309L217 446L30 284V219L217 58L250 194Z" />
<glyph unicode="&#x203a;" glyph-name="guilsinglright" horiz-adv-x="270" d="M20 310L86 252L20 195L53 58L240 220V285L53 446L20 310Z" />
</font>
</defs>
</svg>
