<?xml version="1.0" standalone="no"?>
<!DOCTYPE svg PUBLIC "-//W3C//DTD SVG 1.1//EN" "http://www.w3.org/Graphics/SVG/1.1/DTD/svg11.dtd">
<svg xmlns="http://www.w3.org/2000/svg">
<defs >
<font id="Maitree" horiz-adv-x="583" ><font-face
    font-family="Maitree"
    units-per-em="1000"
    panose-1="0 0 5 0 0 0 0 0 0 0"
    ascent="1150"
    descent="-500"
    alphabetic="0" />
<glyph unicode=" " glyph-name="space" horiz-adv-x="288" />
<glyph unicode="!" glyph-name="exclam" horiz-adv-x="314" d="M112 707H202L182 161H133L112 707ZM138 -12T125 1T111 35Q111 55 124 68T157 81Q177 81 190 69T204 35Q204 14 191 1T157 -12Q138 -12 125 1Z" />
<glyph unicode="&quot;" glyph-name="quotedbl" horiz-adv-x="333" d="M75 707L149 701L92 467H38L75 707ZM221 707L295 701L237 467H184L221 707Z" />
<glyph unicode="#" glyph-name="numbersign" horiz-adv-x="605" d="M130 166H28V220H140L171 385H66V439H181L208 582H276L249 439H391L418 582H486L459 439H561V385H449L418 220H525V166H407L376 0H309L340 166H197L166 0H99L130 166ZM350 220L381 385H239L208 220H350Z" />
<glyph unicode="$" glyph-name="dollar" horiz-adv-x="685" d="M269 -10Q212 -4 159 12T73 54V175Q73 181 77 185T88 190Q100 190 107 181T118 150L131 86Q160 65 208 54T304 42Q377 42 426 69T476 156Q476 195 458 221T400 269T284 322Q182 364 129 409T76 527Q76
608 135 650T282 696V778H343V695Q394 690 442 672T523 627V511Q523 496 509 496Q497 496 490 505T478 536L465 599Q436 620 395 631T307 643Q242 643 199 617T156 537Q156 499 178 473T238 428T355 375Q425 347 467 320T533 255T557 163Q557 78 494 35T330 -12V-91H269V-10Z"
/>
<glyph unicode="%" glyph-name="percent" horiz-adv-x="798" d="M133 367T93 411T53 532Q53 608 93 652T199 697Q265 697 305 653T346 532Q346 455 306 411T199 367Q133 367 93 411ZM135 30L605 697L664 659L192 -7L135 30ZM235 418T258 447T282 532Q282 588 259
617T199 647Q162 647 139 618T116 532Q116 476 139 447T199 418Q235 418 258 447ZM533 -12T493 32T453 153Q453 229 493 273T599 318Q665 318 705 274T746 153Q746 76 706 32T599 -12Q533 -12 493 32ZM635 39T658 68T682 153Q682 209 659 238T599 268Q562 268 539
239T516 153Q516 97 539 68T599 39Q635 39 658 68Z" />
<glyph unicode="&amp;" glyph-name="ampersand" horiz-adv-x="710" d="M206 -12T155 10T73 75T43 173Q43 298 193 364Q142 415 120 453T97 539Q97 606 148 646T280 687Q334 687 375 667T439 611T462 532Q462 424 304 358L489 176Q511 210 521 249T537 339H483Q466
339 466 360Q466 373 476 380T503 388H666Q678 388 678 375Q678 357 654 351L589 336Q574 219 524 142L619 49L673 38Q701 32 701 13Q701 0 689 0H561L478 82Q442 39 389 14T269 -12Q206 -12 155 10ZM385 453T385 533Q385 582 356 610T280 638Q233 638 204 613T174
541Q174 503 198 468T264 395Q385 453 385 533ZM329 39T371 61T442 118L231 324Q120 273 120 175Q120 110 165 75T276 39Q329 39 371 61Z" />
<glyph unicode="&apos;" glyph-name="quotesingle" horiz-adv-x="187" d="M75 707L149 701L92 467H38L75 707Z" />
<glyph unicode="(" glyph-name="parenleft" horiz-adv-x="294" d="M116 13T83 121T50 350Q50 576 172 775H244Q189 669 160 573T131 350Q131 223 160 125T244 -79H172Q116 13 83 121Z" />
<glyph unicode=")" glyph-name="parenright" horiz-adv-x="294" d="M105 26T134 124T163 350Q163 476 134 572T50 775H122Q244 576 244 350Q244 229 211 121T122 -79H50Q105 26 134 124Z" />
<glyph unicode="*" glyph-name="asterisk" horiz-adv-x="390" d="M179 531L67 451L33 510L163 564L33 618L63 681L179 596L161 733H230L212 596L322 681L356 619L226 564L357 509L321 448L210 531L228 395H161L179 531Z" />
<glyph unicode="+" glyph-name="plus" horiz-adv-x="605" d="M264 301H60V364H264V572H341V364H545V301H341V96H264V301Z" />
<glyph unicode="," glyph-name="comma" horiz-adv-x="299" d="M68 -102Q91 -70 110 -22T133 57L100 68Q87 71 87 85Q87 98 95 105T116 112Q124 112 128 111L216 92Q203 38 175 -23T110 -127L68 -102Z" />
<glyph unicode="-" glyph-name="hyphen" horiz-adv-x="321" d="M26 352H296V288H26V352Z" />
<glyph unicode="." glyph-name="period" horiz-adv-x="251" d="M104 -12T89 3T73 41Q73 63 88 78T126 93Q147 93 162 78T178 41Q178 18 163 3T126 -12Q104 -12 89 3Z" />
<glyph unicode="/" glyph-name="slash" horiz-adv-x="366" d="M-27 -106L318 744L388 717L42 -133L-27 -106Z" />
<glyph unicode="0" glyph-name="zero" horiz-adv-x="709" d="M263 -12T196 33T94 158T58 342Q58 445 93 525T196 651T355 697Q447 697 514 652T616 526T651 342Q651 239 616 159T514 33T355 -12Q263 -12 196 33ZM421 42T469 79T544 185T570 342Q570 431 544 499T470
605T354 643Q288 643 239 605T165 499T139 342Q139 253 164 185T239 80T354 42Q421 42 469 79Z" />
<glyph unicode="1" glyph-name="one" horiz-adv-x="435" d="M63 0T59 6T54 22Q54 36 64 43T91 51H178V632L79 602Q71 602 66 607T60 623Q60 648 92 658L179 685H258V50L339 40Q372 36 372 15Q372 0 360 0H71Q63 0 59 6Z" />
<glyph unicode="2" glyph-name="two" d="M65 70L304 314Q362 372 393 420T424 518Q424 579 387 609T292 640Q251 640 212 629T142 599L128 535Q123 511 116 502T97 493Q90 493 86 497T82 508V626Q130 658 188 676T304 695Q396 695 451 649T507 513Q507 453 470
394T358 258L160 58V54H520V0H65V70Z" />
<glyph unicode="3" glyph-name="three" horiz-adv-x="585" d="M206 -10T150 1T55 29V86Q100 67 154 56T256 44Q343 44 388 81T434 188Q434 247 391 286T279 325Q264 325 239 322T172 313V368L248 378Q319 387 364 422T409 520Q409 580 372 610T274 640Q234 640
195 629T124 599L111 535Q106 511 99 502T80 493Q73 493 69 497T65 508V626Q113 658 172 676T289 695Q375 695 432 653T490 528Q490 465 452 421T345 358Q424 347 469 299T515 182Q515 90 447 40T263 -10Q206 -10 150 1Z" />
<glyph unicode="4" glyph-name="four" horiz-adv-x="621" d="M386 161H38V223L365 685H466V216H564V161H466V0H386V161ZM386 216V616L104 216H386Z" />
<glyph unicode="5" glyph-name="five" horiz-adv-x="544" d="M140 -10T48 28V85Q92 67 141 56T238 44Q317 44 366 83T415 197Q415 281 368 319T244 358Q187 358 108 339L70 373L96 685H443V631H170L151 396Q214 413 274 413Q370 413 433 359T496 203Q496 100 427
45T248 -10Q140 -10 48 28Z" />
<glyph unicode="6" glyph-name="six" horiz-adv-x="585" d="M182 -10T120 78T58 323Q58 431 93 515T201 647T381 695Q417 695 457 685V633Q419 642 384 642Q269 642 204 567T138 350Q228 412 321 412Q418 412 473 359T528 214Q528 143 498 93T417 16T304 -10Q182
-10 120 78ZM365 44T406 90T447 212Q447 285 409 321T301 357Q261 357 216 339T139 294Q139 181 180 113T300 44Q365 44 406 90Z" />
<glyph unicode="7" glyph-name="seven" horiz-adv-x="556" d="M420 632H101L91 581Q84 548 63 548Q48 548 48 563V685H509V637L251 0H162L420 632Z" />
<glyph unicode="8" glyph-name="eight" horiz-adv-x="619" d="M201 -11T135 37T68 171Q68 226 111 274T237 359Q164 398 129 440T94 536Q94 581 121 617T197 675T311 696Q377 696 425 676T498 619T524 536Q524 484 490 442T382 360Q472 318 511 274T551 175Q551
119 521 77T436 12T310 -11Q201 -11 135 37ZM377 421T412 456T447 535Q447 585 409 613T310 642Q251 642 213 614T175 535Q175 490 210 458T313 391Q377 421 412 456ZM379 43T424 77T469 171Q469 219 427 257T308 327Q232 296 189 258T146 169Q146 110 190 77T308
43Q379 43 424 77Z" />
<glyph unicode="9" glyph-name="nine" horiz-adv-x="585" d="M193 -10T168 -7T125 1V54Q166 43 208 43Q319 43 383 112T448 318Q413 288 370 271T277 253Q215 253 165 279T87 353T58 467Q58 538 89 589T173 668T290 695Q411 695 469 609T528 362Q528 192 449 91T216
-10Q193 -10 168 -7ZM371 308T447 377Q447 499 409 570T294 641Q225 641 182 594T139 469Q139 390 180 349T290 308Q371 308 447 377Z" />
<glyph unicode=":" glyph-name="colon" horiz-adv-x="261" d="M106 392T90 408T73 449Q73 474 89 490T130 506Q154 506 171 490T188 449Q188 424 171 408T130 392Q106 392 90 408ZM106 32T90 48T73 89Q73 114 89 130T130 146Q154 146 171 130T188 89Q188 64 171
48T130 32Q106 32 90 48Z" />
<glyph unicode=";" glyph-name="semicolon" horiz-adv-x="261" d="M111 392T95 408T78 449Q78 474 94 490T135 506Q159 506 176 490T193 449Q193 424 176 408T135 392Q111 392 95 408ZM45 -98Q67 -66 87 -20T110 57L77 68Q64 71 64 85Q64 98 72 105T93 112Q101
112 105 111L193 92Q181 40 151 -20T87 -123L45 -98Z" />
<glyph unicode="&lt;" glyph-name="less" horiz-adv-x="564" d="M63 263V327L460 567L491 508L138 295L491 82L460 23L63 263Z" />
<glyph unicode="=" glyph-name="equal" horiz-adv-x="564" d="M60 437H504V376H60V437ZM60 253H504V192H60V253Z" />
<glyph unicode="&gt;" glyph-name="greater" horiz-adv-x="564" d="M73 82L426 295L73 508L104 567L501 327V263L104 23L73 82Z" />
<glyph unicode="?" glyph-name="question" horiz-adv-x="473" d="M197 275Q197 329 215 362T278 439Q313 473 331 502T349 571Q349 615 320 640T243 666Q213 666 182 657T127 632L118 584Q115 569 109 563T93 556Q78 556 78 569V657Q109 682 155 699T249 717Q328
717 374 680T421 574Q421 523 398 487T333 412Q305 385 291 366T271 322T264 260V161H197V275ZM211 -12T198 1T184 35Q184 55 197 68T230 81Q250 81 263 69T277 35Q277 14 264 1T230 -12Q211 -12 198 1Z" />
<glyph unicode="@" glyph-name="at" horiz-adv-x="869" d="M313 -92T228 -49T96 78T50 278Q50 404 102 504T249 660T469 717Q579 717 663 673T794 548T841 358Q841 290 820 232T760 140T674 106Q636 106 607 127T564 184Q508 106 423 106Q347 106 303 153T259
293Q259 359 284 410T356 490T465 519Q533 519 618 494L602 244Q603 205 623 184T675 162Q705 162 729 186T767 256T781 359Q781 449 743 517T636 624T478 662Q368 662 285 615T156 482T111 281Q111 130 195 47T428 -36Q531 -36 644 5V-52Q529 -92 428 -92Q313
-92 228 -49ZM466 162T492 180T541 235L556 452Q516 463 466 463Q399 463 360 417T320 291Q320 227 346 195T424 162Q466 162 492 180Z" />
<glyph unicode="A" glyph-name="A" horiz-adv-x="711" d="M8 0T8 21Q8 34 17 41T44 49H74L307 695H399L632 50L676 40Q704 34 704 15Q704 0 693 0H490Q482 0 478 5T473 21Q473 34 483 41T510 49H551L487 227H200L137 50L196 38Q224 33 224 14Q224 0 213 0H25Q8
0 8 21ZM467 281L343 627L219 281H467Z" />
<glyph unicode="B" glyph-name="B" horiz-adv-x="685" d="M66 0T62 4T58 17Q58 30 67 37T96 48L129 54V641L96 647Q58 655 58 678Q58 686 62 690T72 695H364Q468 695 527 649T586 514Q586 461 560 424T485 369V365Q551 346 589 302T627 191Q627 98 566 49T401
0H72Q66 0 62 4ZM377 386Q434 386 469 420T505 513Q505 574 467 608T359 642H208V386H377ZM389 53Q467 53 506 90T546 193Q546 257 507 295T397 334H208V53H389Z" />
<glyph unicode="C" glyph-name="C" horiz-adv-x="654" d="M286 -12T210 29T91 151T47 348Q47 463 89 544T205 666T372 707Q438 707 496 687T595 634V520Q595 505 580 505Q568 505 562 513T551 541L537 610Q511 630 470 641T383 652Q306 652 249 617T160 513T128
348Q128 252 161 183T254 79T392 43Q494 43 555 84Q558 86 565 91T579 96Q588 96 594 89T601 71Q601 51 572 34Q540 14 491 1T384 -12Q286 -12 210 29Z" />
<glyph unicode="D" glyph-name="D" horiz-adv-x="737" d="M66 0T62 4T58 17Q58 30 67 37T96 48L129 54V641L96 647Q76 651 67 658T58 678Q58 686 62 690T72 695H358Q454 695 528 657T646 541T689 347Q689 231 646 154T529 38T358 0H72Q66 0 62 4ZM358 54Q475 54
541 131T607 347Q607 486 541 563T358 641H208V54H358Z" />
<glyph unicode="E" glyph-name="E" horiz-adv-x="684" d="M66 0T62 4T58 17Q58 41 96 48L129 54V641L96 647Q76 651 67 658T58 678Q58 686 62 690T72 695H601V568Q601 554 586 554Q566 554 558 595L549 642H209V382H495L506 427Q513 455 529 455Q542 455 542 442V270Q542
256 529 256Q513 256 506 284L495 329H209V53H562L571 104Q578 145 599 145Q614 145 614 130V0H72Q66 0 62 4Z" />
<glyph unicode="F" glyph-name="F" horiz-adv-x="650" d="M60 0T60 21Q60 34 70 41T97 49H129V641L96 647Q76 651 67 658T58 678Q58 686 62 690T72 695H585V564Q585 550 571 550Q561 550 555 560T543 591L532 641H209V366H479L489 413Q495 441 512 441Q519 441
522 438T526 428V251Q526 245 523 241T512 237Q495 237 489 266L479 312H209V50L258 38Q273 34 279 29T286 13Q286 0 274 0H77Q60 0 60 21Z" />
<glyph unicode="G" glyph-name="G" horiz-adv-x="718" d="M286 -12T211 28T93 148T50 348Q50 463 92 544T207 666T374 707Q440 707 499 687T598 634V520Q598 505 583 505Q571 505 565 513T554 541L540 610Q514 630 473 641T386 652Q268 652 200 572T131 348Q131
251 162 183T251 79T387 43Q423 43 458 50T521 70V298H412Q396 298 396 318Q396 331 405 338T432 346H664Q675 346 675 333Q675 324 669 319T649 309L601 297V38Q557 14 498 1T385 -12Q286 -12 211 28Z" />
<glyph unicode="H" glyph-name="H" horiz-adv-x="801" d="M58 0T58 21Q58 34 68 41T95 49H126V646H75Q58 646 58 667Q58 680 67 687T94 695H272Q284 695 284 682Q284 672 278 667T256 657L206 645V388H591V646H535Q518 646 518 667Q518 680 527 687T554 695H732Q743
695 743 682Q743 672 738 667T719 658L671 645V50L719 37Q743 31 743 13Q743 0 732 0H535Q518 0 518 21Q518 34 527 41T554 49H591V334H206V50L256 38Q271 34 277 29T284 13Q284 0 272 0H75Q58 0 58 21Z" />
<glyph unicode="I" glyph-name="I" horiz-adv-x="351" d="M63 0T63 21Q63 34 73 41T100 49H131V646H80Q63 646 63 667Q63 680 72 687T99 695H277Q289 695 289 682Q289 672 283 667T261 657L211 645V50L261 38Q276 34 282 29T289 13Q289 0 277 0H80Q63 0 63 21Z" />
<glyph unicode="J" glyph-name="J" horiz-adv-x="383" d="M63 -12T51 1T38 44Q117 70 149 112T181 232V646H122Q105 646 105 667Q105 680 114 687T141 695H327Q338 695 338 682Q338 672 332 667T311 657L261 645V227Q261 57 132 1Q103 -12 82 -12Q63 -12 51 1Z" />
<glyph unicode="K" glyph-name="K" horiz-adv-x="684" d="M58 0T58 21Q58 34 68 41T95 49H126V646H75Q58 646 58 667Q58 680 67 687T94 695H271Q277 695 280 692T283 682Q283 672 277 667T256 657L206 645V50L256 38Q271 34 277 29T284 13Q284 7 281 4T272 0H75Q58
0 58 21ZM206 357L510 646H445Q428 646 428 667Q428 680 438 687T465 695H642Q655 695 655 679Q655 657 627 653L588 647L295 368L595 48L645 38Q673 32 673 13Q673 0 661 0H530L206 357Z" />
<glyph unicode="L" glyph-name="L" horiz-adv-x="599" d="M66 0T62 4T58 17Q58 30 67 37T96 48L129 54V646H77Q60 646 60 667Q60 680 69 687T96 695H278Q290 695 290 682Q290 663 262 657L209 645V54H524L537 117Q545 158 565 158Q580 158 580 143V0H72Q66 0 62 4Z" />
<glyph unicode="M" glyph-name="M" horiz-adv-x="1032" d="M27 0T27 21Q27 34 37 41T64 49H96L214 641L181 646Q144 652 144 677Q144 695 158 695H334L494 166Q502 139 507 105T514 59H520Q521 70 526 104T539 166L689 695H865Q879 695 879 677Q879 652 842 646L809
641L937 50L981 40Q1008 34 1008 15Q1008 0 997 0H794Q786 0 782 5T777 21Q777 34 787 41T814 49H858L746 574Q742 590 740 611T737 638H732Q731 632 727 614T717 574L555 0H462L288 574Q283 590 279 611T273 638H268Q268 632 266 611T260 574L157 50L214 38Q242
33 242 14Q242 0 231 0H44Q27 0 27 21Z" />
<glyph unicode="N" glyph-name="N" horiz-adv-x="788" d="M58 0T58 21Q58 34 68 41T95 49H127V641L95 646Q75 649 67 656T58 677Q58 695 73 695H201L543 202Q572 160 597 103V646H537Q520 646 520 667Q520 680 529 687T556 695H721Q732 695 732 682Q732 673 724
666T703 656L660 645V0H585L237 502Q212 538 190 590V50L243 38Q258 35 264 29T270 13Q270 0 259 0H75Q58 0 58 21Z" />
<glyph unicode="O" glyph-name="O" horiz-adv-x="737" d="M273 -12T202 27T90 147T50 346Q50 464 90 545T201 666T369 707Q464 707 536 667T647 545T687 346Q687 170 601 79T369 -12Q273 -12 202 27ZM483 42T544 121T606 346Q606 492 545 572T368 653Q254 653
193 573T131 346Q131 201 192 122T368 42Q483 42 544 121Z" />
<glyph unicode="P" glyph-name="P" horiz-adv-x="617" d="M60 0T60 21Q60 34 70 41T97 49H129V641L96 647Q76 651 67 658T58 678Q58 686 62 690T72 695H365Q466 695 527 642T589 492Q589 395 528 343T365 290H209V50L259 38Q276 34 283 29T290 13Q290 0 278 0H77Q60
0 60 21ZM360 344Q430 344 468 384T507 492Q507 560 469 600T360 641H209V344H360Z" />
<glyph unicode="Q" glyph-name="Q" horiz-adv-x="737" d="M517 -157T483 -139T415 -92Q372 -54 337 -11Q204 -1 127 89T50 346Q50 464 90 545T201 666T369 707Q464 707 536 667T647 545T687 346Q687 181 611 91T403 -11Q425 -29 458 -50Q500 -77 549 -92Q569 -98
577 -104T585 -124Q585 -157 547 -157Q517 -157 483 -139ZM483 42T544 121T606 346Q606 492 545 572T368 653Q254 653 193 573T131 346Q131 201 192 122T368 42Q483 42 544 121Z" />
<glyph unicode="R" glyph-name="R" horiz-adv-x="668" d="M60 0T60 21Q60 34 70 41T97 49H129V644L96 649Q76 655 67 661T58 678Q58 686 62 690T72 695H360Q463 695 523 649T583 509Q583 416 523 371T360 326H306L570 48L620 38Q648 32 648 13Q648 0 637 0H505L209
324V50L258 38Q273 34 279 29T286 13Q286 0 274 0H77Q60 0 60 21ZM356 376Q427 376 464 410T501 509Q501 573 464 608T356 643H209V376H356Z" />
<glyph unicode="S" glyph-name="S" horiz-adv-x="595" d="M231 -12T162 6T52 55V178Q52 184 56 188T67 193Q79 193 86 184T98 152L111 88Q141 66 190 55T286 43Q360 43 411 70T462 159Q462 198 443 224T383 273T266 326Q162 368 109 414T55 534Q55 621 122 664T285
707Q348 707 408 688T508 636V518Q508 503 493 503Q481 503 474 511T462 544L449 607Q421 629 380 640T290 652Q223 652 180 626T136 544Q136 506 158 480T219 435T338 381Q409 352 452 325T519 259T543 166Q543 76 473 32T292 -12Q231 -12 162 6Z" />
<glyph unicode="T" glyph-name="T" horiz-adv-x="596" d="M190 0T190 21Q190 34 200 41T227 49H258V641H87L77 588Q73 569 67 560T50 551Q33 551 33 566V695H564V566Q564 551 547 551Q536 551 530 560T520 588L510 641H338V50L388 38Q403 34 409 29T416 13Q416
0 404 0H207Q190 0 190 21Z" />
<glyph unicode="U" glyph-name="U" horiz-adv-x="781" d="M262 -12T187 60T111 263V646H60Q43 646 43 667Q43 680 52 687T79 695H257Q269 695 269 682Q269 672 263 667T241 657L191 645V259Q191 155 244 99T396 43Q495 43 548 98T602 259V646H544Q527 646 527
667Q527 680 536 687T563 695H726Q738 695 738 683Q738 667 712 659L666 645V263Q666 132 594 60T393 -12Q262 -12 187 60Z" />
<glyph unicode="V" glyph-name="V" horiz-adv-x="720" d="M77 646H28Q11 646 11 667Q11 680 20 687T47 695H234Q246 695 246 682Q246 661 216 655L163 645L346 113Q352 96 356 77T362 53H367Q368 58 372 76T382 113L571 646H509Q501 646 497 651T492 667Q492 680
502 687T529 695H698Q709 695 709 682Q709 665 685 658L634 645L404 0H306L77 646Z" />
<glyph unicode="W" glyph-name="W" horiz-adv-x="1086" d="M79 646H29Q12 646 12 667Q12 680 21 687T48 695H232Q244 695 244 682Q244 661 213 655L160 645L317 120Q322 102 325 81T329 54H334Q335 60 338 81T346 120L511 695H583L759 120Q765 102 768 81T771
54H777Q778 60 781 81T789 120L936 646H872Q864 646 860 651T855 667Q855 680 865 687T892 695H1062Q1074 695 1074 682Q1074 665 1049 658L999 645L814 0H715L556 526Q550 545 547 570T543 604H538Q537 596 534 571T524 526L373 0H274L79 646Z" />
<glyph unicode="X" glyph-name="X" horiz-adv-x="707" d="M15 0T15 21Q15 34 24 41T51 49H84L295 356L101 646H55Q38 646 38 667Q38 680 47 687T74 695H266Q277 695 277 682Q277 671 269 664T247 655L196 648L359 406L529 646H475Q458 646 458 667Q458 680 467
687T494 695H658Q670 695 670 682Q670 673 665 668T645 658L596 645L400 368L622 47L662 40Q692 36 692 13Q692 0 681 0H460Q453 0 449 5T444 21Q444 34 453 41T480 49H522L337 319L151 50L210 37Q221 35 227 29T234 13Q234 0 223 0H32Q15 0 15 21Z" />
<glyph unicode="Y" glyph-name="Y" horiz-adv-x="693" d="M230 0T230 21Q230 34 240 41T267 49H299V296L75 646H29Q12 646 12 667Q12 680 21 687T48 695H244Q256 695 256 681Q256 660 228 655L172 645L352 363L542 646H487Q470 646 470 667Q470 680 479 687T506
695H670Q681 695 681 682Q681 665 657 658L608 645L379 306V50L428 38Q443 34 449 29T456 13Q456 0 444 0H247Q230 0 230 21Z" />
<glyph unicode="Z" glyph-name="Z" horiz-adv-x="629" d="M49 56L476 641H120L110 585Q104 547 82 547Q66 547 66 562V695H574V639L147 54H521L531 110Q537 148 558 148Q575 148 575 133V0H49V56Z" />
<glyph unicode="[" glyph-name="bracketleft" horiz-adv-x="293" d="M61 749H245V695H137V-86H245V-141H61V749Z" />
<glyph unicode="\" glyph-name="backslash" horiz-adv-x="363" d="M-27 717L43 744L389 -108L319 -134L-27 717Z" />
<glyph unicode="]" glyph-name="bracketright" horiz-adv-x="293" d="M48 -86H156V695H48V749H232V-141H48V-86Z" />
<glyph unicode="^" glyph-name="asciicircum" horiz-adv-x="570" d="M63 359L258 677H311L506 359L447 326L285 594L122 326L63 359Z" />
<glyph unicode="_" glyph-name="underscore" horiz-adv-x="501" d="M-8 -149H509V-212H-8V-149Z" />
<glyph unicode="`" glyph-name="grave" horiz-adv-x="293" d="M73 672L133 711L220 565L175 536L73 672Z" />
<glyph unicode="a" glyph-name="a" horiz-adv-x="528" d="M134 -12T89 24T44 125Q44 195 94 229T226 276L367 297V341Q367 390 337 420T253 450Q222 450 184 439T120 412L112 368Q107 339 86 339Q79 339 75 342T71 352V443Q111 467 163 483T264 499Q342 499 392
457T442 340V46L479 36Q493 32 499 27T506 12Q506 0 495 0H369V70H365Q338 33 295 11T197 -12Q134 -12 89 24ZM257 39T291 56T346 104T367 170V250L243 230Q184 220 152 197T120 129Q120 85 148 62T220 39Q257 39 291 56Z" />
<glyph unicode="b" glyph-name="b" horiz-adv-x="577" d="M243 -12T187 4T87 47V663H37Q21 663 21 683Q21 697 30 703T56 710H160V426L163 424Q193 461 234 480T325 499Q420 499 478 434T536 240Q536 115 469 52T294 -12Q243 -12 187 4ZM459 37T459 239Q459 349
418 399T305 450Q268 450 235 433T181 388T161 325V73Q187 57 222 47T289 37Q459 37 459 239Z" />
<glyph unicode="c" glyph-name="c" horiz-adv-x="484" d="M168 -12T104 57T39 244Q39 322 68 380T149 468T270 499Q319 499 367 481T440 439V350Q440 344 436 341T424 337Q414 337 408 343T399 365L390 414Q372 430 341 439T278 449Q204 449 159 396T114 244Q114
146 160 92T283 37Q351 37 406 76Q408 77 414 81T426 86Q435 86 441 79T447 62Q447 43 414 24Q352 -12 279 -12Q168 -12 104 57Z" />
<glyph unicode="d" glyph-name="d" horiz-adv-x="584" d="M198 -12T148 15T69 99T39 240Q39 318 68 377T150 467T268 499Q347 499 416 453V663H366Q350 663 350 683Q350 710 385 710H489V47L529 36Q543 32 549 27T556 12Q556 0 545 0H419V68H415Q391 32 353 10T259
-12Q198 -12 148 15ZM334 37T374 74T415 170V399Q356 450 282 450Q235 450 198 426T138 355T115 240Q115 144 156 91T277 37Q334 37 374 74Z" />
<glyph unicode="e" glyph-name="e" horiz-adv-x="519" d="M209 -12T155 18T71 106T41 240Q41 359 103 429T272 499Q369 499 425 442T481 290Q481 259 468 227H117Q117 135 164 86T283 37Q321 37 351 46T412 77Q414 78 420 82T433 86Q442 86 448 79T454 62Q454
44 423 25Q361 -12 280 -12Q209 -12 155 18ZM401 277Q405 286 405 305Q405 374 368 412T270 450Q206 450 164 404T117 277H401Z" />
<glyph unicode="f" glyph-name="f" horiz-adv-x="403" d="M52 0T52 20Q52 33 61 40T87 47H119V436H62Q54 436 50 442T45 458Q45 471 54 479T80 487H119V577Q119 645 158 682T262 719Q302 719 338 706T396 673V587Q396 581 392 578T381 574Q371 574 365 580T356
602L347 649Q317 669 275 669Q238 669 216 646T194 581V487H321Q334 487 334 473Q334 448 289 444L194 436V47L241 36Q255 31 261 26T268 12Q268 0 256 0H68Q52 0 52 20Z" />
<glyph unicode="g" glyph-name="g" horiz-adv-x="551" d="M230 -230T188 -220T115 -191Q99 -181 91 -173T82 -153Q82 -142 88 -136T102 -130Q107 -130 113 -133T123 -139Q155 -159 193 -169T271 -180Q344 -180 381 -145T419 -41V65H415Q390 30 351 9T258 -12Q198
-12 148 15T69 99T39 240Q39 324 72 382T160 470T285 499Q339 499 395 478T491 424V-30Q491 -125 436 -177T273 -230Q230 -230 188 -220ZM313 37T345 54T396 101T416 170V408Q389 428 354 439T285 450Q238 450 200 427T138 356T115 240Q115 144 157 91T276 37Q313
37 345 54Z" />
<glyph unicode="h" glyph-name="h" horiz-adv-x="627" d="M51 0T51 20Q51 33 60 40T86 47H117V663H67Q51 663 51 683Q51 697 60 703T86 710H189V422L192 421Q275 499 366 499Q437 499 483 458T529 345V47L577 36Q591 33 597 28T604 12Q604 0 592 0H404Q388 0 388
20Q388 33 397 40T423 47H454V340Q454 389 426 418T344 448Q305 448 265 426T192 368V47L240 36Q254 33 260 28T267 12Q267 0 255 0H67Q51 0 51 20Z" />
<glyph unicode="i" glyph-name="i" horiz-adv-x="278" d="M122 570T107 584T91 624Q91 649 106 663T145 678Q168 678 184 664T200 624Q200 599 184 585T145 570Q122 570 107 584ZM43 0T43 20Q43 33 52 40T78 47H110V442H59Q43 442 43 462Q43 476 52 482T78 489H185V47L232
36Q246 33 252 28T259 12Q259 0 247 0H59Q43 0 43 20Z" />
<glyph unicode="j" glyph-name="j" horiz-adv-x="298" d="M163 570T148 584T132 624Q132 649 147 663T186 678Q209 678 225 664T241 624Q241 599 225 585T186 570Q163 570 148 584ZM35 -230T23 -217T10 -174Q89 -148 121 -106T153 15V442H102Q86 442 86 462Q86
489 122 489H228V9Q228 -78 195 -132T99 -217Q73 -230 54 -230Q35 -230 23 -217Z" />
<glyph unicode="k" glyph-name="k" horiz-adv-x="582" d="M51 0T51 20Q51 33 60 40T86 47H117V663H67Q51 663 51 683Q51 697 60 703T86 710H192V47L239 36Q266 30 266 12Q266 0 254 0H67Q51 0 51 20ZM192 259L389 440H329Q312 440 312 461Q312 475 322 482T349
489H514Q527 489 527 473Q527 463 519 457T498 448L458 440L276 270L483 47L527 37Q556 31 556 13Q556 0 544 0H425L192 259Z" />
<glyph unicode="l" glyph-name="l" horiz-adv-x="296" d="M53 0T53 20Q53 33 62 40T88 47H119V663H69Q53 663 53 683Q53 697 62 703T88 710H194V47L242 36Q256 33 262 28T269 12Q269 0 257 0H69Q53 0 53 20Z" />
<glyph unicode="m" glyph-name="m" horiz-adv-x="905" d="M48 0T48 20Q48 33 57 40T83 47H114V442H64Q48 442 48 462Q48 476 57 482T83 489H185V421H188Q227 456 267 477T354 499Q400 499 436 478T488 415Q529 453 571 476T663 499Q727 499 769 460T811 349V46L857
36Q883 31 883 12Q883 0 871 0H686Q670 0 670 20Q670 33 679 40T705 47H736V343Q736 394 711 420T641 447Q604 447 568 426T500 372V46L547 36Q573 31 573 12Q573 0 561 0H376Q360 0 360 20Q360 33 369 40T395 47H425V343Q425 394 400 420T331 447Q294 447 258
426T189 371V46L237 36Q262 31 262 12Q262 0 251 0H64Q48 0 48 20Z" />
<glyph unicode="n" glyph-name="n" horiz-adv-x="624" d="M48 0T48 20Q48 33 57 40T83 47H114V442H64Q48 442 48 462Q48 476 57 482T83 489H185V419H188Q273 499 363 499Q434 499 480 458T526 345V47L574 36Q601 30 601 12Q601 0 589 0H401Q385 0 385 20Q385 33
394 40T420 47H451V339Q451 388 423 417T341 447Q302 447 262 426T189 367V47L237 36Q251 33 257 28T264 12Q264 0 252 0H64Q48 0 48 20Z" />
<glyph unicode="o" glyph-name="o" horiz-adv-x="543" d="M164 -12T102 56T40 244Q40 363 102 431T271 499Q378 499 440 431T503 244Q503 124 441 56T271 -12Q164 -12 102 56ZM345 37T386 91T427 244Q427 342 386 396T272 450Q198 450 157 396T116 244Q116 145
157 91T272 37Q345 37 386 91Z" />
<glyph unicode="p" glyph-name="p" horiz-adv-x="609" d="M51 -213T51 -193Q51 -180 60 -173T86 -166H117V442H67Q51 442 51 462Q51 476 60 482T86 489H189V423H192Q222 460 263 479T354 499Q449 499 508 434T568 240Q568 117 504 53T332 -12Q300 -12 262 -3T192
23V-166L240 -177Q266 -183 266 -201Q266 -213 255 -213H67Q51 -213 51 -193ZM407 37T449 89T491 239Q491 349 449 399T336 450Q298 450 265 433T211 388T191 325V75Q216 59 253 48T320 37Q407 37 449 89Z" />
<glyph unicode="q" glyph-name="q" horiz-adv-x="580" d="M345 -213T345 -193Q345 -180 355 -173T381 -166H419V67H416Q391 31 352 10T258 -12Q198 -12 148 15T69 99T39 240Q39 318 69 377T151 467T267 499Q349 499 417 452Q420 489 447 489H491V-167L533 -177Q559
-183 559 -201Q559 -213 548 -213H361Q345 -213 345 -193ZM313 37T345 54T396 101T416 170V399Q389 423 354 436T281 450Q235 450 198 426T138 355T115 240Q115 144 157 91T276 37Q313 37 345 54Z" />
<glyph unicode="r" glyph-name="r" horiz-adv-x="412" d="M48 0T48 20Q48 33 57 40T83 47H114V442H64Q48 442 48 462Q48 476 57 482T83 489H185V390H188Q226 436 272 467T356 499Q377 499 388 489T399 460Q399 450 396 441T386 425Q281 425 189 336V47L237 36Q251
33 257 28T264 12Q264 0 252 0H64Q48 0 48 20Z" />
<glyph unicode="s" glyph-name="s" horiz-adv-x="453" d="M173 -12T122 2T43 41V132Q43 146 58 146Q77 146 83 117L92 72Q111 55 146 47T217 38Q269 38 301 55T334 111Q334 138 321 154T282 185T196 223Q119 256 83 288T47 372Q47 435 97 467T220 499Q269 499
317 481T390 439V351Q390 338 375 338Q365 338 359 344T350 366L341 414Q323 430 292 439T228 449Q183 449 153 432T123 379Q123 355 137 339T176 310T265 268Q344 234 377 202T410 114Q410 49 356 19T223 -12Q173 -12 122 2Z" />
<glyph unicode="t" glyph-name="t" horiz-adv-x="396" d="M193 -12T157 21T121 112V436H53Q45 436 41 442T36 458Q36 471 45 479T71 487H122L135 593H196V487H348Q360 487 360 475Q360 463 350 457T319 449L196 436V107Q196 73 213 56T261 38Q282 38 298 44T329
64Q341 74 348 74Q357 74 363 69T369 53Q369 34 339 14Q302 -12 247 -12Q193 -12 157 21Z" />
<glyph unicode="u" glyph-name="u" horiz-adv-x="597" d="M183 -12T137 29T91 143V442H41Q25 442 25 462Q25 476 34 482T60 489H166V149Q166 100 194 70T276 40Q315 40 354 62T427 121V442H377Q361 442 361 462Q361 476 370 482T396 489H502V47L542 36Q556 32
562 27T569 12Q569 0 557 0H431V68H428Q343 -12 254 -12Q183 -12 137 29Z" />
<glyph unicode="v" glyph-name="v" horiz-adv-x="550" d="M62 442H21Q5 442 5 462Q5 476 14 482T40 489H209Q221 489 221 477Q221 468 214 462T194 453L141 441L267 75Q271 65 273 52T277 35H281Q281 39 283 52T290 75L420 442H358Q342 442 342 462Q342 476 351
482T377 489H534Q545 489 545 477Q545 460 519 453L477 441L320 0H219L62 442Z" />
<glyph unicode="w" glyph-name="w" horiz-adv-x="838" d="M62 442H21Q5 442 5 462Q5 476 14 482T40 489H209Q221 489 221 477Q221 458 194 453L137 441L245 80Q249 68 250 55T252 38H256Q256 42 258 55T263 80L380 489H465L590 80Q593 68 595 55T597 38H601Q601
42 602 55T608 80L709 442H646Q630 442 630 462Q630 476 639 482T665 489H822Q833 489 833 477Q833 460 807 453L765 441L638 0H538L425 376Q421 392 419 411T416 437H412Q412 431 410 412T403 376L296 0H196L62 442Z" />
<glyph unicode="x" glyph-name="x" horiz-adv-x="539" d="M16 0T16 20Q16 32 26 39T49 47H73L213 251L84 442H40Q24 442 24 462Q24 474 34 481T57 489H143L279 286L389 442H334Q318 442 318 462Q318 474 328 481T351 489H505Q515 489 515 477Q515 461 490 453L449
441L315 253L457 48L498 36Q524 28 524 12Q524 0 514 0H399L250 219L133 48L187 36Q213 30 213 12Q213 8 210 4T202 0H32Q16 0 16 20Z" />
<glyph unicode="y" glyph-name="y" horiz-adv-x="548" d="M68 -225T56 -215T43 -187Q43 -173 50 -160Q121 -160 161 -134T226 -43L242 0L64 442H23Q7 442 7 462Q7 476 16 482T42 489H211Q223 489 223 477Q223 468 216 462T196 453L143 441L275 105Q278 98 278
88T279 74H283Q283 77 284 88T287 105L418 442H356Q340 442 340 462Q340 489 375 489H532Q543 489 543 477Q543 461 516 453L475 441L287 -42Q255 -123 205 -174T87 -225Q68 -225 56 -215Z" />
<glyph unicode="z" glyph-name="z" horiz-adv-x="464" d="M42 54L326 440H106L98 393Q95 377 89 370T71 363Q64 363 60 367T55 378V489H415V435L132 49H371L379 98Q382 113 388 120T406 128Q413 128 417 124T422 112V0H42V54Z" />
<glyph unicode="{" glyph-name="braceleft" horiz-adv-x="435" d="M247 -152T209 -121T170 -18V143Q170 202 144 232T55 269V338Q116 346 143 378T170 465V626Q170 697 208 728T309 759H387V705H319Q285 705 266 687T246 630V452Q246 395 222 360T144 304Q196
286 221 251T246 158V-23Q246 -61 265 -79T319 -98H387V-152H309Q247 -152 209 -121Z" />
<glyph unicode="|" glyph-name="bar" horiz-adv-x="290" d="M107 728H183V-129H107V728Z" />
<glyph unicode="}" glyph-name="braceright" horiz-adv-x="435" d="M48 -98H116Q150 -98 169 -80T189 -23V158Q189 215 214 250T292 304Q239 324 214 359T189 452V630Q189 705 116 705H48V759H126Q189 759 227 728T265 626V465Q265 411 292 379T380 338V269Q317
262 291 232T265 143V-18Q265 -89 227 -120T126 -152H48V-98Z" />
<glyph unicode="~" glyph-name="asciitilde" horiz-adv-x="613" d="M384 240T357 246T295 268Q265 281 243 286T197 292Q171 292 141 281T82 250L56 303Q88 328 125 342T199 357Q225 357 250 351T311 329Q341 316 364 311T411 305Q437 305 467 316T525 347L550
294Q479 240 410 240Q384 240 357 246Z" />
<glyph unicode="&#xa0;" glyph-name="uni00A0" horiz-adv-x="288" />
<glyph unicode="&#xa1;" glyph-name="exclamdown" horiz-adv-x="314" d="M138 396T125 409T111 442Q111 463 124 476T157 489Q177 489 190 476T204 442Q204 421 191 409T157 396Q138 396 125 409ZM133 323H182L202 -223H112L133 323Z" />
<glyph unicode="&#xa2;" glyph-name="cent" horiz-adv-x="563" d="M270 22Q173 36 118 108T63 291Q63 406 121 477T278 559V635H339V559Q384 554 426 537T489 498V403Q489 396 485 392T473 388Q452 388 446 418L437 470Q417 487 384 497T317 507Q238 507 190 451T142
291Q142 186 192 129T323 71Q361 71 392 81T454 112Q457 114 462 118T474 122Q484 122 490 115T496 96Q496 86 487 76T462 55Q411 21 331 18V-60H270V22Z" />
<glyph unicode="&#xa3;" glyph-name="sterling" horiz-adv-x="646" d="M65 0T60 6T55 23Q55 37 65 45T90 54H140Q173 83 186 111T200 179Q200 213 177 264H100Q91 264 85 270T79 286Q79 300 89 309T114 318H153Q140 349 133 374T126 426Q126 507 181 550T323 593Q377
593 427 575T517 524V426Q517 407 497 407Q475 407 467 442L455 502Q398 540 328 540Q271 540 237 511T203 426Q203 402 211 377T234 318H465Q483 318 483 301Q483 289 474 283T451 275L258 264Q277 216 277 177Q277 105 223 54H476L483 100Q489 135 515 135Q523
135 528 130T534 116V0H74Q65 0 60 6Z" />
<glyph unicode="&#xa4;" glyph-name="currency" horiz-adv-x="585" d="M78 111L141 184Q92 243 92 319Q92 396 141 454L78 526L135 568L193 497Q235 525 292 525Q350 525 393 497L451 567L507 526L444 454Q493 395 493 319Q493 241 444 184L507 111L451 70L393
141Q350 113 292 113Q234 113 193 141L134 70L78 111ZM349 177T386 216T424 319Q424 382 387 421T292 460Q236 460 199 421T161 319Q161 256 198 217T292 177Q349 177 386 216Z" />
<glyph unicode="&#xa5;" glyph-name="yen" horiz-adv-x="632" d="M204 0T204 21Q204 34 214 41T241 49H272V197H86V249H272V295L239 346H86V398H206L51 640H6Q-11 640 -11 661Q-11 674 -2 681T25 689H220Q232 689 232 675Q232 654 203 649L148 640L325 361L512
640H457Q440 640 440 661Q440 674 449 681T476 689H639Q651 689 651 676Q651 659 626 652L577 639L415 398H538V346H380L351 304V249H539V197H351V49L402 38Q417 34 423 29T429 13Q429 0 417 0H221Q204 0 204 21Z" />
<glyph unicode="&#xa6;" glyph-name="brokenbar" horiz-adv-x="298" d="M111 735H187V360H111V735ZM111 205H187V-170H111V205Z" />
<glyph unicode="&#xa7;" glyph-name="section" horiz-adv-x="592" d="M226 -110T168 -95T75 -54V60Q75 66 79 69T89 73Q100 73 106 65T116 36L128 -25Q153 -43 193 -52T271 -61Q334 -61 376 -38T418 37Q418 71 402 93T354 132T254 177Q167 212 121 252T74 354Q74
417 119 457Q103 486 103 518Q103 592 160 629T299 667Q351 667 403 650T488 604V505Q488 492 475 492Q465 492 459 499T449 527L438 580Q414 599 379 608T303 618Q247 618 211 596T175 527Q175 496 194 475T244 437T344 392Q404 366 441 343T498 287T519 208Q519
146 477 107Q490 78 490 44Q490 -33 430 -71T277 -110Q226 -110 168 -95ZM450 174T450 205Q450 238 436 258T391 295T295 338Q199 377 161 408Q149 387 149 360Q149 327 164 306T209 270T301 229Q352 208 384 190T438 150Q450 174 450 205Z" />
<glyph unicode="&#xa8;" glyph-name="dieresis" horiz-adv-x="395" d="M82 549T68 563T54 598Q54 619 68 632T103 646Q123 646 137 633T151 598Q151 577 137 563T103 549Q82 549 68 563ZM273 549T259 563T245 598Q245 619 259 632T294 646Q314 646 328 633T342
598Q342 577 328 563T294 549Q273 549 259 563Z" />
<glyph unicode="&#xa9;" glyph-name="copyright" horiz-adv-x="792" d="M293 -12T214 32T90 155T46 337Q46 439 90 518T213 642T396 686Q500 686 579 642T702 519T746 337Q746 235 703 156T580 32T396 -12Q293 -12 214 32ZM484 31T552 70T657 178T695 337Q695
426 658 495T552 604T395 643Q306 643 239 604T134 496T96 337Q96 248 133 179T238 70T395 31Q484 31 552 70ZM323 137T272 191T220 337Q220 429 270 482T403 536Q442 536 479 522T538 488V416Q538 404 526 404Q517 404 512 410T504 428L496 465Q483 478 459 485T409
492Q352 492 318 453T283 337Q283 260 318 220T414 180Q467 180 509 211Q519 218 525 218Q532 218 536 213T541 198Q541 183 515 166Q471 137 410 137Q323 137 272 191Z" />
<glyph unicode="&#xaa;" glyph-name="ordfeminine" horiz-adv-x="401" d="M114 318T85 340T56 406Q56 487 176 504L264 517V543Q264 605 195 605Q176 605 153 599T113 583L108 553Q107 544 102 539T89 533Q76 533 76 545V606Q101 622 136 632T203 643Q256 643
286 617T317 542V361L343 354Q354 351 358 347T363 335Q363 325 354 325H266V371H262Q245 347 219 333T156 318Q114 318 85 340ZM206 356T235 381T264 441V481L181 467Q109 455 109 407Q109 383 125 370T170 356Q206 356 235 381Z" />
<glyph unicode="&#xab;" glyph-name="guillemotleft" horiz-adv-x="513" d="M68 224V250L202 427L248 391L145 237L248 83L202 47L68 224ZM256 224V250L390 427L436 391L333 237L436 83L390 47L256 224Z" />
<glyph unicode="&#xac;" glyph-name="logicalnot" horiz-adv-x="643" d="M483 308H77V372H557V141H483V308Z" />
<glyph unicode="&#xad;" glyph-name="uni00AD" horiz-adv-x="294" d="M48 354H246V288H48V354Z" />
<glyph unicode="&#xae;" glyph-name="registered" horiz-adv-x="472" d="M174 336T125 363T48 440T20 551Q20 613 48 662T125 738T235 766Q298 766 347 739T424 662T452 551Q452 489 425 440T348 364T235 336Q174 336 125 363ZM313 373T362 421T411 551Q411 633
362 681T236 730Q160 730 111 682T62 551Q62 469 110 421T236 373Q313 373 362 421ZM137 447T137 457Q137 471 155 472H167V632L154 637Q147 639 142 642T137 650Q137 659 147 659H247Q281 659 300 643T319 599Q319 571 303 556T258 540H244L312 472L328 467Q338
464 341 462T344 454Q344 447 338 447H284L205 535V471L218 467Q227 464 231 461T235 454Q235 447 228 447H147Q137 447 137 457ZM245 566Q282 566 282 599Q282 631 245 631H205V566H245Z" />
<glyph unicode="&#xaf;" glyph-name="overscore" horiz-adv-x="380" d="M49 618H331V563H49V618Z" />
<glyph unicode="&#xb0;" glyph-name="degree" horiz-adv-x="355" d="M121 550T85 583T48 672Q48 727 84 760T177 794Q233 794 269 761T306 672Q306 617 270 584T177 550Q121 550 85 583ZM209 594T230 614T251 672Q251 709 230 729T177 750Q145 750 124 730T102
672Q102 635 123 615T177 594Q209 594 230 614Z" />
<glyph unicode="&#xb1;" glyph-name="plusminus" horiz-adv-x="557" d="M241 363H60V417H241V600H316V417H497V363H316V182H241V363ZM60 54H497V0H60V54Z" />
<glyph unicode="&#xb2;" glyph-name="uni00B2" horiz-adv-x="319" d="M35 434L162 565Q192 596 208 621T225 669Q225 699 207 714T161 730Q123 730 86 710L79 678Q76 663 71 658T58 652Q44 652 44 665V730Q107 769 168 769Q218 769 249 743T280 667Q280 638 260
606T202 534L101 430H287V391H35V434Z" />
<glyph unicode="&#xb3;" glyph-name="uni00B3" horiz-adv-x="321" d="M109 383T78 389T25 405V446Q51 435 81 428T137 421Q228 421 228 493Q228 523 207 543T149 563Q138 563 109 559L88 556V592L132 597Q169 602 192 620T215 670Q215 730 146 730Q105 730 69
708L62 675Q59 661 55 656T42 650Q30 650 30 661V730Q57 748 89 758T155 769Q203 769 235 746T268 676Q268 643 250 620T198 585Q238 576 259 551T281 488Q281 436 243 410T141 383Q109 383 78 389Z" />
<glyph unicode="&#xb4;" glyph-name="acute" horiz-adv-x="292" d="M76 565L163 711L223 672L121 536L76 565Z" />
<glyph unicode="&#xb5;" glyph-name="uni00B5" horiz-adv-x="614" d="M88 48V489H163V143Q163 98 192 69T273 40Q353 40 424 121V489H499V72Q499 38 532 38Q557 38 589 57V13Q573 3 549 -4T503 -12Q474 -12 455 3T435 50V68H432Q357 -12 271 -12Q239 -12 210 0T160
35L169 -240H80L88 48Z" />
<glyph unicode="&#xb6;" glyph-name="paragraph" horiz-adv-x="687" d="M239 -160T239 -140Q239 -127 248 -120T275 -113H319V368H268Q191 368 142 412T93 532Q93 613 147 654T292 695H560Q572 695 572 683Q572 665 546 658L503 647V-55H445V648H377V-113L538
-123Q575 -126 575 -146Q575 -160 563 -160H255Q239 -160 239 -140Z" />
<glyph unicode="&#xb7;" glyph-name="middot" horiz-adv-x="285" d="M118 276T102 292T85 334Q85 360 102 376T143 393Q167 393 184 377T201 334Q201 308 185 292T143 276Q118 276 102 292Z" />
<glyph unicode="&#xb8;" glyph-name="cedilla" horiz-adv-x="383" d="M126 -179Q160 -168 177 -151T194 -111Q194 -91 184 -78T149 -58L170 0H223L202 -46Q251 -65 251 -113Q251 -146 218 -172T138 -209L126 -179Z" />
<glyph unicode="&#xb9;" glyph-name="uni00B9" horiz-adv-x="237" d="M21 391T21 406Q21 416 28 421T46 426H86V724L24 704V738L90 761H144V425L181 420Q204 417 204 402Q204 391 194 391H34Q21 391 21 406Z" />
<glyph unicode="&#xba;" glyph-name="ordmasculine" horiz-adv-x="395" d="M131 318T91 361T50 480Q50 556 90 599T198 643Q265 643 305 600T345 480Q345 405 305 362T198 318Q131 318 91 361ZM242 356T266 388T291 480Q291 539 267 572T198 605Q153 605 129 572T104
480Q104 421 128 389T198 356Q242 356 266 388Z" />
<glyph unicode="&#xbb;" glyph-name="guillemotright" horiz-adv-x="513" d="M78 83L181 237L78 391L124 427L258 250V224L124 47L78 83ZM266 83L369 237L266 391L312 427L446 250V224L312 47L266 83Z" />
<glyph unicode="&#xbc;" glyph-name="onequarter" horiz-adv-x="802" d="M143 14L613 695L662 663L191 -18L143 14ZM37 307T37 322Q37 332 44 337T62 342H102V640L40 620V654L106 677H160V341L197 336Q210 335 215 331T220 318Q220 307 210 307H50Q37 307 37 322ZM669
85H486V125L661 370H723V124H774V85H723V0H669V85ZM665 124V313L530 124H665Z" />
<glyph unicode="&#xbd;" glyph-name="onehalf" horiz-adv-x="836" d="M143 14L613 695L662 663L191 -18L143 14ZM37 307T37 322Q37 332 44 337T62 342H102V640L40 620V654L106 677H160V341L197 336Q210 335 215 331T220 318Q220 307 210 307H50Q37 307 37 322ZM552
43L679 173Q710 205 726 230T742 278Q742 308 724 323T678 339Q643 339 603 319L596 287Q593 272 588 267T575 261Q561 261 561 274V339Q624 378 685 378Q735 378 766 352T797 276Q797 245 777 214T717 141L618 39H804V0H552V43Z" />
<glyph unicode="&#xbe;" glyph-name="threequarters" horiz-adv-x="808" d="M148 14L618 695L667 663L196 -18L148 14ZM111 298T80 304T27 321V361Q85 337 139 337Q230 337 230 408Q230 439 209 458T151 478Q150 478 115 475L90 472V508L134 513Q171 517 194 535T217
585Q217 616 199 631T148 646Q107 646 71 624L64 590Q61 576 57 571T44 565Q32 565 32 576V646Q94 685 157 685Q205 685 237 662T270 591Q270 558 252 535T200 500Q240 492 261 467T283 404Q283 352 245 325T143 298Q111 298 80 304ZM676 85H493V125L668 370H730V124H781V85H730V0H676V85ZM672
124V313L537 124H672Z" />
<glyph unicode="&#xbf;" glyph-name="questiondown" horiz-adv-x="473" d="M223 396T210 408T196 442Q196 463 209 476T243 489Q262 489 275 476T289 442Q289 422 276 409T243 396Q223 396 210 408ZM146 -231T100 -194T53 -88Q53 -37 76 -1T141 74Q169 101 182
120T202 164T209 226V323H276V211Q276 157 258 124T195 47Q160 13 143 -15T125 -85Q125 -130 153 -155T231 -180Q262 -180 293 -171T346 -145L355 -98Q358 -83 364 -77T380 -70Q396 -70 396 -82V-171Q365 -196 319 -213T224 -231Q146 -231 100 -194Z" />
<glyph unicode="&#xc0;" glyph-name="Agrave" horiz-adv-x="711" d="M250 888L310 927L397 781L352 752L250 888ZM8 0T8 21Q8 34 17 41T44 49H74L307 695H399L632 50L676 40Q704 34 704 15Q704 0 693 0H490Q482 0 478 5T473 21Q473 34 483 41T510 49H551L487 227H200L137
50L196 38Q224 33 224 14Q224 0 213 0H25Q8 0 8 21ZM467 281L343 627L219 281H467Z" />
<glyph unicode="&#xc1;" glyph-name="Aacute" horiz-adv-x="711" d="M304 780L391 926L451 887L349 751L304 780ZM8 0T8 21Q8 34 17 41T44 49H74L307 695H399L632 50L676 40Q704 34 704 15Q704 0 693 0H490Q482 0 478 5T473 21Q473 34 483 41T510 49H551L487 227H200L137
50L196 38Q224 33 224 14Q224 0 213 0H25Q8 0 8 21ZM467 281L343 627L219 281H467Z" />
<glyph unicode="&#xc2;" glyph-name="Acircumflex" horiz-adv-x="711" d="M219 781L326 917H368L475 781L438 751L347 850L256 751L219 781ZM8 0T8 21Q8 34 17 41T44 49H74L307 695H399L632 50L676 40Q704 34 704 15Q704 0 693 0H490Q482 0 478 5T473 21Q473 34
483 41T510 49H551L487 227H200L137 50L196 38Q224 33 224 14Q224 0 213 0H25Q8 0 8 21ZM467 281L343 627L219 281H467Z" />
<glyph unicode="&#xc3;" glyph-name="Atilde" horiz-adv-x="711" d="M395 762T382 766T350 780Q333 788 321 792T295 797Q278 797 263 791T229 771L201 808Q223 828 248 841T296 854Q309 854 322 850T356 836Q390 819 409 819Q440 819 474 845L502 807Q481 787
457 775T410 762Q395 762 382 766ZM8 0T8 21Q8 34 17 41T44 49H74L307 695H399L632 50L676 40Q704 34 704 15Q704 0 693 0H490Q482 0 478 5T473 21Q473 34 483 41T510 49H551L487 227H200L137 50L196 38Q224 33 224 14Q224 0 213 0H25Q8 0 8 21ZM467 281L343 627L219
281H467Z" />
<glyph unicode="&#xc4;" glyph-name="Adieresis" horiz-adv-x="711" d="M233 762T219 776T205 811Q205 832 219 845T254 859Q274 859 288 846T302 811Q302 790 288 776T254 762Q233 762 219 776ZM425 762T411 776T397 811Q397 832 411 845T446 859Q466 859 480
846T494 811Q494 790 480 776T446 762Q425 762 411 776ZM8 0T8 21Q8 34 17 41T44 49H74L307 695H399L632 50L676 40Q704 34 704 15Q704 0 693 0H490Q482 0 478 5T473 21Q473 34 483 41T510 49H551L487 227H200L137 50L196 38Q224 33 224 14Q224 0 213 0H25Q8 0
8 21ZM467 281L343 627L219 281H467Z" />
<glyph unicode="&#xc5;" glyph-name="Aring" horiz-adv-x="711" d="M309 740T284 765T259 827Q259 864 284 889T351 914Q393 914 418 889T443 827Q443 790 418 765T351 740Q309 740 284 765ZM371 780T383 792T396 827Q396 849 384 861T351 873Q331 873 318 861T305
827Q305 805 318 793T351 780Q371 780 383 792ZM8 0T8 21Q8 34 17 41T44 49H74L307 695H399L632 50L676 40Q704 34 704 15Q704 0 693 0H490Q482 0 478 5T473 21Q473 34 483 41T510 49H551L487 227H200L137 50L196 38Q224 33 224 14Q224 0 213 0H25Q8 0 8 21ZM467
281L343 627L219 281H467Z" />
<glyph unicode="&#xc6;" glyph-name="AE" horiz-adv-x="1121" d="M10 0T10 21Q10 34 19 41T46 49H76L496 641L464 647Q444 651 435 658T426 678Q426 686 430 690T440 695H1038V568Q1038 554 1023 554Q1003 554 995 595L986 642H649V382H932L943 427Q950 455 965
455Q979 455 979 442V270Q979 256 965 256Q950 256 943 284L932 329H649V53H999L1008 104Q1015 145 1036 145Q1051 145 1051 130V0H512Q506 0 503 4T499 17Q499 30 508 37T536 48L569 54V227H278L150 50L209 38Q238 32 238 14Q238 0 227 0H27Q10 0 10 21ZM569 281V640L313
281H569Z" />
<glyph unicode="&#xc7;" glyph-name="Ccedilla" horiz-adv-x="654" d="M303 -186Q336 -175 353 -157T371 -118Q371 -98 361 -85T326 -64L346 -10Q258 -2 191 41T85 162T47 348Q47 463 89 544T205 666T372 707Q438 707 496 687T595 634V520Q595 505 580 505Q568
505 562 513T551 541L537 610Q511 630 470 641T383 652Q306 652 249 617T160 513T128 348Q128 252 161 183T254 79T392 43Q494 43 555 84Q558 86 565 91T579 96Q588 96 594 89T601 71Q601 51 572 34Q542 15 497 2T398 -12L379 -52Q428 -73 428 -119Q428 -152 395
-178T315 -215L303 -186Z" />
<glyph unicode="&#xc8;" glyph-name="Egrave" horiz-adv-x="684" d="M257 888L317 927L404 781L359 752L257 888ZM66 0T62 4T58 17Q58 41 96 48L129 54V641L96 647Q76 651 67 658T58 678Q58 686 62 690T72 695H601V568Q601 554 586 554Q566 554 558 595L549 642H209V382H495L506
427Q513 455 529 455Q542 455 542 442V270Q542 256 529 256Q513 256 506 284L495 329H209V53H562L571 104Q578 145 599 145Q614 145 614 130V0H72Q66 0 62 4Z" />
<glyph unicode="&#xc9;" glyph-name="Eacute" horiz-adv-x="684" d="M285 781L372 927L432 888L330 752L285 781ZM66 0T62 4T58 17Q58 41 96 48L129 54V641L96 647Q76 651 67 658T58 678Q58 686 62 690T72 695H601V568Q601 554 586 554Q566 554 558 595L549 642H209V382H495L506
427Q513 455 529 455Q542 455 542 442V270Q542 256 529 256Q513 256 506 284L495 329H209V53H562L571 104Q578 145 599 145Q614 145 614 130V0H72Q66 0 62 4Z" />
<glyph unicode="&#xca;" glyph-name="Ecircumflex" horiz-adv-x="684" d="M218 781L325 917H367L474 781L437 751L346 850L255 751L218 781ZM66 0T62 4T58 17Q58 41 96 48L129 54V641L96 647Q76 651 67 658T58 678Q58 686 62 690T72 695H601V568Q601 554 586 554Q566
554 558 595L549 642H209V382H495L506 427Q513 455 529 455Q542 455 542 442V270Q542 256 529 256Q513 256 506 284L495 329H209V53H562L571 104Q578 145 599 145Q614 145 614 130V0H72Q66 0 62 4Z" />
<glyph unicode="&#xcb;" glyph-name="Edieresis" horiz-adv-x="684" d="M238 762T224 776T210 811Q210 832 224 845T259 859Q279 859 293 846T307 811Q307 790 293 776T259 762Q238 762 224 776ZM430 762T416 776T402 811Q402 832 416 845T451 859Q471 859 485
846T499 811Q499 790 485 776T451 762Q430 762 416 776ZM66 0T62 4T58 17Q58 41 96 48L129 54V641L96 647Q76 651 67 658T58 678Q58 686 62 690T72 695H601V568Q601 554 586 554Q566 554 558 595L549 642H209V382H495L506 427Q513 455 529 455Q542 455 542 442V270Q542
256 529 256Q513 256 506 284L495 329H209V53H562L571 104Q578 145 599 145Q614 145 614 130V0H72Q66 0 62 4Z" />
<glyph unicode="&#xcc;" glyph-name="Igrave" horiz-adv-x="351" d="M83 888L143 927L230 781L185 752L83 888ZM63 0T63 21Q63 34 73 41T100 49H131V646H80Q63 646 63 667Q63 680 72 687T99 695H277Q289 695 289 682Q289 672 283 667T261 657L211 645V50L261 38Q276
34 282 29T289 13Q289 0 277 0H80Q63 0 63 21Z" />
<glyph unicode="&#xcd;" glyph-name="Iacute" horiz-adv-x="351" d="M115 781L202 927L262 888L160 752L115 781ZM63 0T63 21Q63 34 73 41T100 49H131V646H80Q63 646 63 667Q63 680 72 687T99 695H277Q289 695 289 682Q289 672 283 667T261 657L211 645V50L261
38Q276 34 282 29T289 13Q289 0 277 0H80Q63 0 63 21Z" />
<glyph unicode="&#xce;" glyph-name="Icircumflex" horiz-adv-x="335" d="M39 781L146 917H188L295 781L258 751L167 850L76 751L39 781ZM58 0T58 21Q58 34 68 41T95 49H126V646H75Q58 646 58 667Q58 680 67 687T94 695H272Q284 695 284 682Q284 672 278 667T256
657L206 645V50L256 38Q271 34 277 29T284 13Q284 0 272 0H75Q58 0 58 21Z" />
<glyph unicode="&#xcf;" glyph-name="Idieresis" horiz-adv-x="336" d="M52 762T38 776T24 811Q24 832 38 845T73 859Q93 859 107 846T121 811Q121 790 107 776T73 762Q52 762 38 776ZM243 762T229 776T215 811Q215 832 229 845T264 859Q284 859 298 846T312 811Q312
790 298 776T264 762Q243 762 229 776ZM59 0T59 21Q59 34 69 41T96 49H127V646H76Q59 646 59 667Q59 680 68 687T95 695H273Q285 695 285 682Q285 672 279 667T257 657L207 645V50L257 38Q272 34 278 29T285 13Q285 0 273 0H76Q59 0 59 21Z" />
<glyph unicode="&#xd0;" glyph-name="Eth" horiz-adv-x="739" d="M68 0T64 4T60 17Q60 30 69 37T98 48L131 54V326H64V382H131V641L98 647Q60 653 60 678Q60 686 64 690T74 695H360Q456 695 530 657T648 541T691 347Q691 231 648 154T531 38T360 0H74Q68 0 64
4ZM360 54Q477 54 543 131T609 347Q609 486 543 563T360 641H210V382H401V326H210V54H360Z" />
<glyph unicode="&#xd1;" glyph-name="Ntilde" horiz-adv-x="788" d="M431 762T418 766T386 780Q369 788 357 792T331 797Q314 797 299 791T265 771L237 808Q259 828 284 841T332 854Q345 854 358 850T392 836Q426 819 445 819Q476 819 510 845L538 807Q517 787
493 775T446 762Q431 762 418 766ZM58 0T58 21Q58 34 68 41T95 49H127V641L95 646Q75 649 67 656T58 677Q58 695 73 695H201L543 202Q572 160 597 103V646H537Q520 646 520 667Q520 680 529 687T556 695H721Q732 695 732 682Q732 673 724 666T703 656L660 645V0H585L237
502Q212 538 190 590V50L243 38Q258 35 264 29T270 13Q270 0 259 0H75Q58 0 58 21Z" />
<glyph unicode="&#xd2;" glyph-name="Ograve" horiz-adv-x="737" d="M277 888L337 927L424 781L379 752L277 888ZM273 -12T202 27T90 147T50 346Q50 464 90 545T201 666T369 707Q464 707 536 667T647 545T687 346Q687 170 601 79T369 -12Q273 -12 202 27ZM483
42T544 121T606 346Q606 492 545 572T368 653Q254 653 193 573T131 346Q131 201 192 122T368 42Q483 42 544 121Z" />
<glyph unicode="&#xd3;" glyph-name="Oacute" horiz-adv-x="737" d="M301 780L388 926L448 887L346 751L301 780ZM273 -12T202 27T90 147T50 346Q50 464 90 545T201 666T369 707Q464 707 536 667T647 545T687 346Q687 170 601 79T369 -12Q273 -12 202 27ZM483
42T544 121T606 346Q606 492 545 572T368 653Q254 653 193 573T131 346Q131 201 192 122T368 42Q483 42 544 121Z" />
<glyph unicode="&#xd4;" glyph-name="Ocircumflex" horiz-adv-x="737" d="M241 781L348 917H390L497 781L460 751L369 850L278 751L241 781ZM273 -12T202 27T90 147T50 346Q50 464 90 545T201 666T369 707Q464 707 536 667T647 545T687 346Q687 170 601 79T369
-12Q273 -12 202 27ZM483 42T544 121T606 346Q606 492 545 572T368 653Q254 653 193 573T131 346Q131 201 192 122T368 42Q483 42 544 121Z" />
<glyph unicode="&#xd5;" glyph-name="Otilde" horiz-adv-x="737" d="M412 762T399 766T367 780Q350 788 338 792T312 797Q295 797 280 791T246 771L218 808Q240 828 265 841T313 854Q326 854 339 850T373 836Q407 819 426 819Q457 819 491 845L519 807Q498 787
474 775T427 762Q412 762 399 766ZM273 -12T202 27T90 147T50 346Q50 464 90 545T201 666T369 707Q464 707 536 667T647 545T687 346Q687 170 601 79T369 -12Q273 -12 202 27ZM483 42T544 121T606 346Q606 492 545 572T368 653Q254 653 193 573T131 346Q131 201
192 122T368 42Q483 42 544 121Z" />
<glyph unicode="&#xd6;" glyph-name="Odieresis" horiz-adv-x="737" d="M252 762T238 776T224 811Q224 832 238 845T273 859Q293 859 307 846T321 811Q321 790 307 776T273 762Q252 762 238 776ZM444 762T430 776T416 811Q416 832 430 845T465 859Q485 859 499
846T513 811Q513 790 499 776T465 762Q444 762 430 776ZM273 -12T202 27T90 147T50 346Q50 464 90 545T201 666T369 707Q464 707 536 667T647 545T687 346Q687 170 601 79T369 -12Q273 -12 202 27ZM483 42T544 121T606 346Q606 492 545 572T368 653Q254 653 193
573T131 346Q131 201 192 122T368 42Q483 42 544 121Z" />
<glyph unicode="&#xd7;" glyph-name="multiply" horiz-adv-x="592" d="M59 163L242 349L59 535L112 584L292 401L472 584L525 535L342 349L525 163L472 115L292 298L112 115L59 163Z" />
<glyph unicode="&#xd8;" glyph-name="Oslash" horiz-adv-x="748" d="M88 -57L162 59Q110 104 83 176T55 346Q55 464 95 545T206 666T374 707Q477 707 550 661L606 748L656 720L595 626Q692 531 692 346Q692 170 606 79T374 -12Q280 -12 209 26L138 -85L88 -57ZM515
607Q458 653 373 653Q259 653 198 573T136 346Q136 197 200 118L515 607ZM488 42T549 121T611 346Q611 485 556 564L243 78Q296 42 373 42Q488 42 549 121Z" />
<glyph unicode="&#xd9;" glyph-name="Ugrave" horiz-adv-x="781" d="M309 888L369 927L456 781L411 752L309 888ZM262 -12T187 60T111 263V646H60Q43 646 43 667Q43 680 52 687T79 695H257Q269 695 269 682Q269 672 263 667T241 657L191 645V259Q191 155 244 99T396
43Q495 43 548 98T602 259V646H544Q527 646 527 667Q527 680 536 687T563 695H726Q738 695 738 683Q738 667 712 659L666 645V263Q666 132 594 60T393 -12Q262 -12 187 60Z" />
<glyph unicode="&#xda;" glyph-name="Uacute" horiz-adv-x="781" d="M326 780L413 926L473 887L371 751L326 780ZM262 -12T187 60T111 263V646H60Q43 646 43 667Q43 680 52 687T79 695H257Q269 695 269 682Q269 672 263 667T241 657L191 645V259Q191 155 244 99T396
43Q495 43 548 98T602 259V646H544Q527 646 527 667Q527 680 536 687T563 695H726Q738 695 738 683Q738 667 712 659L666 645V263Q666 132 594 60T393 -12Q262 -12 187 60Z" />
<glyph unicode="&#xdb;" glyph-name="Ucircumflex" horiz-adv-x="781" d="M266 781L373 917H415L522 781L485 751L394 850L303 751L266 781ZM262 -12T187 60T111 263V646H60Q43 646 43 667Q43 680 52 687T79 695H257Q269 695 269 682Q269 672 263 667T241 657L191
645V259Q191 155 244 99T396 43Q495 43 548 98T602 259V646H544Q527 646 527 667Q527 680 536 687T563 695H726Q738 695 738 683Q738 667 712 659L666 645V263Q666 132 594 60T393 -12Q262 -12 187 60Z" />
<glyph unicode="&#xdc;" glyph-name="Udieresis" horiz-adv-x="781" d="M277 762T263 776T249 811Q249 832 263 845T298 859Q318 859 332 846T346 811Q346 790 332 776T298 762Q277 762 263 776ZM469 762T455 776T441 811Q441 832 455 845T490 859Q510 859 524
846T538 811Q538 790 524 776T490 762Q469 762 455 776ZM262 -12T187 60T111 263V646H60Q43 646 43 667Q43 680 52 687T79 695H257Q269 695 269 682Q269 672 263 667T241 657L191 645V259Q191 155 244 99T396 43Q495 43 548 98T602 259V646H544Q527 646 527 667Q527
680 536 687T563 695H726Q738 695 738 683Q738 667 712 659L666 645V263Q666 132 594 60T393 -12Q262 -12 187 60Z" />
<glyph unicode="&#xdd;" glyph-name="Yacute" horiz-adv-x="693" d="M285 781L372 927L432 888L330 752L285 781ZM230 0T230 21Q230 34 240 41T267 49H299V296L75 646H29Q12 646 12 667Q12 680 21 687T48 695H244Q256 695 256 681Q256 660 228 655L172 645L352
363L542 646H487Q470 646 470 667Q470 680 479 687T506 695H670Q681 695 681 682Q681 665 657 658L608 645L379 306V50L428 38Q443 34 449 29T456 13Q456 0 444 0H247Q230 0 230 21Z" />
<glyph unicode="&#xde;" glyph-name="Thorn" horiz-adv-x="659" d="M58 0T58 21Q58 34 68 41T95 49H126V646H75Q58 646 58 667Q58 680 67 687T94 695H272Q284 695 284 682Q284 672 278 667T256 657L206 645V554Q270 574 342 574Q460 574 532 517T605 352Q605 244
533 187T342 130Q270 130 206 150V50L256 38Q271 34 277 29T284 13Q284 0 272 0H75Q58 0 58 21ZM426 184T475 226T524 352Q524 435 475 478T342 521Q276 521 206 499V206Q276 184 342 184Q426 184 475 226Z" />
<glyph unicode="&#xdf;" glyph-name="germandbls" horiz-adv-x="688" d="M403 -12T359 1T285 37V135Q285 141 289 145T300 149Q320 149 325 120L333 73Q353 57 382 50T441 42Q493 42 521 70T550 143Q550 181 532 208T479 271Q447 302 431 326T414 381Q414 408
423 427T452 471Q470 497 479 514T488 557Q488 605 450 636T352 667Q279 667 242 628T204 516V0H75Q67 0 63 5T58 20Q58 33 68 40T94 47H129V506Q129 610 188 665T354 721Q413 721 461 701T538 645T566 569Q566 537 555 514T522 460Q505 434 497 418T488 381Q488
358 502 339T545 292Q585 253 606 221T627 140Q627 74 579 31T446 -12Q403 -12 359 1Z" />
<glyph unicode="&#xe0;" glyph-name="agrave" horiz-adv-x="528" d="M178 695L238 734L325 588L280 559L178 695ZM134 -12T89 24T44 125Q44 195 94 229T226 276L367 297V341Q367 390 337 420T253 450Q222 450 184 439T120 412L112 368Q107 339 86 339Q79 339 75
342T71 352V443Q111 467 163 483T264 499Q342 499 392 457T442 340V46L479 36Q493 32 499 27T506 12Q506 0 495 0H369V70H365Q338 33 295 11T197 -12Q134 -12 89 24ZM257 39T291 56T346 104T367 170V250L243 230Q184 220 152 197T120 129Q120 85 148 62T220 39Q257
39 291 56Z" />
<glyph unicode="&#xe1;" glyph-name="aacute" horiz-adv-x="528" d="M200 588L287 734L347 695L245 559L200 588ZM134 -12T89 24T44 125Q44 195 94 229T226 276L367 297V341Q367 390 337 420T253 450Q222 450 184 439T120 412L112 368Q107 339 86 339Q79 339 75
342T71 352V443Q111 467 163 483T264 499Q342 499 392 457T442 340V46L479 36Q493 32 499 27T506 12Q506 0 495 0H369V70H365Q338 33 295 11T197 -12Q134 -12 89 24ZM257 39T291 56T346 104T367 170V250L243 230Q184 220 152 197T120 129Q120 85 148 62T220 39Q257
39 291 56Z" />
<glyph unicode="&#xe2;" glyph-name="acircumflex" horiz-adv-x="528" d="M131 589L238 725H280L387 589L350 559L259 658L168 559L131 589ZM134 -12T89 24T44 125Q44 195 94 229T226 276L367 297V341Q367 390 337 420T253 450Q222 450 184 439T120 412L112 368Q107
339 86 339Q79 339 75 342T71 352V443Q111 467 163 483T264 499Q342 499 392 457T442 340V46L479 36Q493 32 499 27T506 12Q506 0 495 0H369V70H365Q338 33 295 11T197 -12Q134 -12 89 24ZM257 39T291 56T346 104T367 170V250L243 230Q184 220 152 197T120 129Q120
85 148 62T220 39Q257 39 291 56Z" />
<glyph unicode="&#xe3;" glyph-name="atilde" horiz-adv-x="528" d="M303 568T290 572T258 586Q241 594 229 598T203 603Q186 603 171 597T137 577L109 614Q131 634 156 647T204 660Q217 660 230 656T264 642Q298 625 317 625Q348 625 382 651L410 613Q389 593
365 581T318 568Q303 568 290 572ZM134 -12T89 24T44 125Q44 195 94 229T226 276L367 297V341Q367 390 337 420T253 450Q222 450 184 439T120 412L112 368Q107 339 86 339Q79 339 75 342T71 352V443Q111 467 163 483T264 499Q342 499 392 457T442 340V46L479 36Q493
32 499 27T506 12Q506 0 495 0H369V70H365Q338 33 295 11T197 -12Q134 -12 89 24ZM257 39T291 56T346 104T367 170V250L243 230Q184 220 152 197T120 129Q120 85 148 62T220 39Q257 39 291 56Z" />
<glyph unicode="&#xe4;" glyph-name="adieresis" horiz-adv-x="528" d="M152 565T138 579T123 614Q123 635 137 649T172 663Q192 663 206 649T220 614Q220 593 206 579T172 565Q152 565 138 579ZM344 565T330 579T315 614Q315 635 329 649T364 663Q384 663 398
649T412 614Q412 593 398 579T364 565Q344 565 330 579ZM134 -12T89 24T44 125Q44 195 94 229T226 276L367 297V341Q367 390 337 420T253 450Q222 450 184 439T120 412L112 368Q107 339 86 339Q79 339 75 342T71 352V443Q111 467 163 483T264 499Q342 499 392 457T442
340V46L479 36Q493 32 499 27T506 12Q506 0 495 0H369V70H365Q338 33 295 11T197 -12Q134 -12 89 24ZM257 39T291 56T346 104T367 170V250L243 230Q184 220 152 197T120 129Q120 85 148 62T220 39Q257 39 291 56Z" />
<glyph unicode="&#xe5;" glyph-name="aring" horiz-adv-x="528" d="M227 549T202 574T177 636Q177 673 202 698T269 723Q311 723 336 698T361 636Q361 599 336 574T269 549Q227 549 202 574ZM289 589T301 601T314 636Q314 658 302 670T269 682Q249 682 236 670T223
636Q223 614 236 602T269 589Q289 589 301 601ZM134 -12T89 24T44 125Q44 195 94 229T226 276L367 297V341Q367 390 337 420T253 450Q222 450 184 439T120 412L112 368Q107 339 86 339Q79 339 75 342T71 352V443Q111 467 163 483T264 499Q342 499 392 457T442 340V46L479
36Q493 32 499 27T506 12Q506 0 495 0H369V70H365Q338 33 295 11T197 -12Q134 -12 89 24ZM257 39T291 56T346 104T367 170V250L243 230Q184 220 152 197T120 129Q120 85 148 62T220 39Q257 39 291 56Z" />
<glyph unicode="&#xe6;" glyph-name="ae" horiz-adv-x="841" d="M134 -12T89 23T44 121Q44 190 91 223T217 268L367 291V340Q367 392 336 421T253 450Q222 450 184 439T120 412L112 368Q107 339 86 339Q79 339 75 342T71 352V443Q111 467 163 483T264 499Q318
499 359 474T419 403Q448 449 492 474T594 499Q659 499 706 473T778 400T803 297Q803 267 790 235H440V223Q441 142 486 90T606 37Q644 37 674 46T735 77Q737 78 743 82T756 86Q764 86 770 79T776 62Q776 52 768 44T745 25Q684 -12 603 -12Q533 -12 480 18T396
106Q369 51 317 20T197 -12Q134 -12 89 23ZM724 284Q728 300 728 312Q728 374 691 412T593 450Q528 450 487 407T440 284H724ZM256 39T291 59T347 111T369 178Q368 188 367 197T364 219V243L234 223Q181 214 151 191T120 125Q120 84 148 62T220 39Q256 39 291 59Z"
/>
<glyph unicode="&#xe7;" glyph-name="ccedilla" horiz-adv-x="484" d="M200 -183Q234 -172 251 -155T268 -115Q268 -95 258 -82T223 -62L242 -10Q147 2 93 69T39 244Q39 322 68 380T149 468T270 499Q319 499 367 481T440 439V350Q440 344 436 341T424 337Q414
337 408 343T399 365L390 414Q372 430 341 439T278 449Q204 449 159 396T114 244Q114 146 160 92T283 37Q351 37 406 76Q408 77 414 81T426 86Q435 86 441 79T447 62Q447 43 414 24Q356 -9 293 -12L276 -50Q325 -71 325 -117Q325 -150 292 -176T212 -213L200 -183Z"
/>
<glyph unicode="&#xe8;" glyph-name="egrave" horiz-adv-x="519" d="M177 695L237 734L324 588L279 559L177 695ZM209 -12T155 18T71 106T41 240Q41 359 103 429T272 499Q369 499 425 442T481 290Q481 259 468 227H117Q117 135 164 86T283 37Q321 37 351 46T412
77Q414 78 420 82T433 86Q442 86 448 79T454 62Q454 44 423 25Q361 -12 280 -12Q209 -12 155 18ZM401 277Q405 286 405 305Q405 374 368 412T270 450Q206 450 164 404T117 277H401Z" />
<glyph unicode="&#xe9;" glyph-name="eacute" horiz-adv-x="519" d="M197 588L284 734L344 695L242 559L197 588ZM209 -12T155 18T71 106T41 240Q41 359 103 429T272 499Q369 499 425 442T481 290Q481 259 468 227H117Q117 135 164 86T283 37Q321 37 351 46T412
77Q414 78 420 82T433 86Q442 86 448 79T454 62Q454 44 423 25Q361 -12 280 -12Q209 -12 155 18ZM401 277Q405 286 405 305Q405 374 368 412T270 450Q206 450 164 404T117 277H401Z" />
<glyph unicode="&#xea;" glyph-name="ecircumflex" horiz-adv-x="519" d="M138 589L245 725H287L394 589L357 559L266 658L175 559L138 589ZM209 -12T155 18T71 106T41 240Q41 359 103 429T272 499Q369 499 425 442T481 290Q481 259 468 227H117Q117 135 164 86T283
37Q321 37 351 46T412 77Q414 78 420 82T433 86Q442 86 448 79T454 62Q454 44 423 25Q361 -12 280 -12Q209 -12 155 18ZM401 277Q405 286 405 305Q405 374 368 412T270 450Q206 450 164 404T117 277H401Z" />
<glyph unicode="&#xeb;" glyph-name="edieresis" horiz-adv-x="519" d="M150 565T136 579T121 614Q121 635 135 649T170 663Q190 663 204 649T218 614Q218 593 204 579T170 565Q150 565 136 579ZM342 565T328 579T313 614Q313 635 327 649T362 663Q382 663 396
649T410 614Q410 593 396 579T362 565Q342 565 328 579ZM209 -12T155 18T71 106T41 240Q41 359 103 429T272 499Q369 499 425 442T481 290Q481 259 468 227H117Q117 135 164 86T283 37Q321 37 351 46T412 77Q414 78 420 82T433 86Q442 86 448 79T454 62Q454 44
423 25Q361 -12 280 -12Q209 -12 155 18ZM401 277Q405 286 405 305Q405 374 368 412T270 450Q206 450 164 404T117 277H401Z" />
<glyph unicode="&#xec;" glyph-name="igrave" horiz-adv-x="291" d="M46 695L106 734L193 588L148 559L46 695ZM54 0T54 20Q54 33 63 40T89 47H121V442H70Q54 442 54 462Q54 476 63 482T89 489H196V47L243 36Q257 33 263 28T270 12Q270 0 258 0H70Q54 0 54 20Z" />
<glyph unicode="&#xed;" glyph-name="iacute" horiz-adv-x="285" d="M75 588L162 734L222 695L120 559L75 588ZM49 0T49 20Q49 33 58 40T84 47H116V442H65Q49 442 49 462Q49 476 58 482T84 489H191V47L238 36Q252 33 258 28T265 12Q265 0 253 0H65Q49 0 49 20Z" />
<glyph unicode="&#xee;" glyph-name="icircumflex" horiz-adv-x="290" d="M13 589L120 725H162L269 589L232 559L141 658L50 559L13 589ZM56 0T56 20Q56 33 65 40T91 47H123V442H72Q56 442 56 462Q56 476 65 482T91 489H198V47L245 36Q259 33 265 28T272 12Q272
0 260 0H72Q56 0 56 20Z" />
<glyph unicode="&#xef;" glyph-name="idieresis" horiz-adv-x="313" d="M39 565T25 579T10 614Q10 635 24 649T59 663Q79 663 93 649T107 614Q107 593 93 579T59 565Q39 565 25 579ZM230 565T216 579T201 614Q201 635 215 649T250 663Q270 663 284 649T298 614Q298
593 284 579T250 565Q230 565 216 579ZM66 0T66 20Q66 33 75 40T101 47H133V442H82Q66 442 66 462Q66 476 75 482T101 489H208V47L255 36Q269 33 275 28T282 12Q282 0 270 0H82Q66 0 66 20Z" />
<glyph unicode="&#xf0;" glyph-name="eth" horiz-adv-x="603" d="M215 -10T164 16T83 92T53 214Q53 305 108 358T260 412Q353 412 443 350Q443 484 382 561L269 510L250 552L347 595Q286 642 197 642Q161 642 124 633V685Q164 695 200 695Q330 695 410 623L531
677L550 636L444 588Q483 539 503 472T523 323Q523 166 461 78T277 -10Q215 -10 164 16ZM359 44T400 112T442 294Q410 320 365 338T280 357Q211 357 173 321T134 212Q134 137 175 91T281 44Q359 44 400 112Z" />
<glyph unicode="&#xf1;" glyph-name="ntilde" horiz-adv-x="624" d="M366 568T353 572T321 586Q304 594 292 598T266 603Q235 603 200 577L172 614Q194 634 219 647T267 660Q280 660 293 656T327 642Q361 625 380 625Q411 625 445 651L473 613Q452 593 428 581T381
568Q366 568 353 572ZM48 0T48 20Q48 33 57 40T83 47H114V442H64Q48 442 48 462Q48 476 57 482T83 489H185V419H188Q273 499 363 499Q434 499 480 458T526 345V47L574 36Q601 30 601 12Q601 0 589 0H401Q385 0 385 20Q385 33 394 40T420 47H451V339Q451 388 423
417T341 447Q302 447 262 426T189 367V47L237 36Q251 33 257 28T264 12Q264 0 252 0H64Q48 0 48 20Z" />
<glyph unicode="&#xf2;" glyph-name="ograve" horiz-adv-x="543" d="M186 695L246 734L333 588L288 559L186 695ZM164 -12T102 56T40 244Q40 363 102 431T271 499Q378 499 440 431T503 244Q503 124 441 56T271 -12Q164 -12 102 56ZM345 37T386 91T427 244Q427
342 386 396T272 450Q198 450 157 396T116 244Q116 145 157 91T272 37Q345 37 386 91Z" />
<glyph unicode="&#xf3;" glyph-name="oacute" horiz-adv-x="543" d="M209 588L296 734L356 695L254 559L209 588ZM164 -12T102 56T40 244Q40 363 102 431T271 499Q378 499 440 431T503 244Q503 124 441 56T271 -12Q164 -12 102 56ZM345 37T386 91T427 244Q427
342 386 396T272 450Q198 450 157 396T116 244Q116 145 157 91T272 37Q345 37 386 91Z" />
<glyph unicode="&#xf4;" glyph-name="ocircumflex" horiz-adv-x="543" d="M143 589L250 725H292L399 589L362 559L271 658L180 559L143 589ZM164 -12T102 56T40 244Q40 363 102 431T271 499Q378 499 440 431T503 244Q503 124 441 56T271 -12Q164 -12 102 56ZM345
37T386 91T427 244Q427 342 386 396T272 450Q198 450 157 396T116 244Q116 145 157 91T272 37Q345 37 386 91Z" />
<glyph unicode="&#xf5;" glyph-name="otilde" horiz-adv-x="543" d="M316 568T303 572T271 586Q254 594 242 598T216 603Q199 603 184 597T150 577L122 614Q144 634 169 647T217 660Q230 660 243 656T277 642Q311 625 330 625Q361 625 395 651L423 613Q402 593
378 581T331 568Q316 568 303 572ZM164 -12T102 56T40 244Q40 363 102 431T271 499Q378 499 440 431T503 244Q503 124 441 56T271 -12Q164 -12 102 56ZM345 37T386 91T427 244Q427 342 386 396T272 450Q198 450 157 396T116 244Q116 145 157 91T272 37Q345 37 386
91Z" />
<glyph unicode="&#xf6;" glyph-name="odieresis" horiz-adv-x="543" d="M156 565T142 579T127 614Q127 635 141 649T176 663Q196 663 210 649T224 614Q224 593 210 579T176 565Q156 565 142 579ZM348 565T334 579T319 614Q319 635 333 649T368 663Q388 663 402
649T416 614Q416 593 402 579T368 565Q348 565 334 579ZM164 -12T102 56T40 244Q40 363 102 431T271 499Q378 499 440 431T503 244Q503 124 441 56T271 -12Q164 -12 102 56ZM345 37T386 91T427 244Q427 342 386 396T272 450Q198 450 157 396T116 244Q116 145 157
91T272 37Q345 37 386 91Z" />
<glyph unicode="&#xf7;" glyph-name="divide" horiz-adv-x="609" d="M285 474T271 488T257 523Q257 544 271 557T305 571Q325 571 339 558T353 523Q353 502 339 488T305 474Q285 474 271 488ZM62 356H547V293H62V356ZM285 78T271 91T257 126Q257 147 271 160T305
174Q325 174 339 161T353 126Q353 105 339 92T305 78Q285 78 271 91Z" />
<glyph unicode="&#xf8;" glyph-name="oslash" horiz-adv-x="535" d="M53 -41L109 45Q73 78 55 128T36 244Q36 363 98 431T267 499Q335 499 387 470L430 537L473 511L427 440Q462 407 480 357T499 244Q499 124 437 56T267 -12Q201 -12 151 15L97 -69L53 -41ZM355
423Q321 450 268 450Q194 450 153 396T112 244Q112 155 146 102L355 423ZM341 37T382 91T423 244Q423 332 390 384L182 63Q219 37 268 37Q341 37 382 91Z" />
<glyph unicode="&#xf9;" glyph-name="ugrave" horiz-adv-x="597" d="M182 695L242 734L329 588L284 559L182 695ZM183 -12T137 29T91 143V442H41Q25 442 25 462Q25 476 34 482T60 489H166V149Q166 100 194 70T276 40Q315 40 354 62T427 121V442H377Q361 442 361
462Q361 476 370 482T396 489H502V47L542 36Q557 31 563 27T569 12Q569 0 557 0H431V68H428Q343 -12 254 -12Q183 -12 137 29Z" />
<glyph unicode="&#xfa;" glyph-name="uacute" horiz-adv-x="597" d="M223 588L310 734L370 695L268 559L223 588ZM183 -12T137 29T91 143V442H41Q25 442 25 462Q25 476 34 482T60 489H166V149Q166 100 194 70T276 40Q315 40 354 62T427 121V442H377Q361 442 361
462Q361 476 370 482T396 489H502V47L542 36Q556 32 562 27T569 12Q569 0 557 0H431V68H428Q343 -12 254 -12Q183 -12 137 29Z" />
<glyph unicode="&#xfb;" glyph-name="ucircumflex" horiz-adv-x="597" d="M152 589L259 725H301L408 589L371 559L280 658L189 559L152 589ZM183 -12T137 29T91 143V442H41Q25 442 25 462Q25 476 34 482T60 489H166V149Q166 100 194 70T276 40Q315 40 354 62T427
121V442H377Q361 442 361 462Q361 476 370 482T396 489H502V47L542 36Q556 32 562 27T569 12Q569 0 557 0H431V68H428Q343 -12 254 -12Q183 -12 137 29Z" />
<glyph unicode="&#xfc;" glyph-name="udieresis" horiz-adv-x="597" d="M174 565T160 579T145 614Q145 635 159 649T194 663Q214 663 228 649T242 614Q242 593 228 579T194 565Q174 565 160 579ZM366 565T352 579T337 614Q337 635 351 649T386 663Q406 663 420
649T434 614Q434 593 420 579T386 565Q366 565 352 579ZM183 -12T137 29T91 143V442H41Q25 442 25 462Q25 476 34 482T60 489H166V149Q166 100 194 70T276 40Q315 40 354 62T427 121V442H377Q361 442 361 462Q361 476 370 482T396 489H502V47L542 36Q556 32 562
27T569 12Q569 0 557 0H431V68H428Q343 -12 254 -12Q183 -12 137 29Z" />
<glyph unicode="&#xfd;" glyph-name="yacute" horiz-adv-x="548" d="M207 588L294 734L354 695L252 559L207 588ZM68 -225T56 -215T43 -187Q43 -173 50 -160Q121 -160 161 -134T226 -43L242 0L64 442H23Q7 442 7 462Q7 476 16 482T42 489H211Q223 489 223 477Q223
468 216 462T196 453L143 441L275 105Q278 98 278 88T279 74H283Q283 77 284 88T287 105L418 442H356Q340 442 340 462Q340 489 375 489H532Q543 489 543 477Q543 461 516 453L475 441L287 -42Q255 -123 205 -174T87 -225Q68 -225 56 -215Z" />
<glyph unicode="&#xfe;" glyph-name="thorn" horiz-adv-x="611" d="M55 -213T55 -193Q55 -180 64 -173T90 -166H121V663H71Q55 663 55 683Q55 697 64 703T90 710H194V425L197 424Q227 461 269 480T361 499Q455 499 513 434T572 240Q572 115 505 52T329 -12Q298
-12 263 -4T196 19V-166L244 -177Q258 -180 264 -185T271 -201Q271 -213 259 -213H71Q55 -213 55 -193ZM412 37T454 89T496 239Q496 349 454 399T341 450Q303 450 270 434T216 389T196 326V75Q222 58 258 48T325 37Q412 37 454 89Z" />
<glyph unicode="&#xff;" glyph-name="ydieresis" horiz-adv-x="548" d="M166 565T152 579T137 614Q137 635 151 649T186 663Q206 663 220 649T234 614Q234 593 220 579T186 565Q166 565 152 579ZM357 565T343 579T328 614Q328 635 342 649T377 663Q397 663 411
649T425 614Q425 593 411 579T377 565Q357 565 343 579ZM68 -225T56 -215T43 -187Q43 -173 50 -160Q121 -160 161 -134T226 -43L242 0L64 442H23Q7 442 7 462Q7 476 16 482T42 489H211Q223 489 223 477Q223 468 216 462T196 453L143 441L275 105Q278 98 278 88T279
74H283Q283 77 284 88T287 105L418 442H356Q340 442 340 462Q340 489 375 489H532Q543 489 543 477Q543 461 516 453L475 441L287 -42Q255 -123 205 -174T87 -225Q68 -225 56 -215Z" />
<glyph unicode="&#x2013;" glyph-name="endash" horiz-adv-x="503" d="M13 343H490V280H13V343Z" />
<glyph unicode="&#x2014;" glyph-name="emdash" horiz-adv-x="893" d="M13 343H880V280H13V343Z" />
<glyph unicode="&#x2018;" glyph-name="quoteleft" horiz-adv-x="270" d="M65 505Q77 557 105 617T168 718L205 696Q185 666 166 617T142 534L177 523Q190 518 190 506Q190 493 182 486T162 478Q153 478 146 481L65 505Z" />
<glyph unicode="&#x2019;" glyph-name="quoteright" horiz-adv-x="270" d="M65 496Q85 525 104 574T128 657L93 669Q80 672 80 686Q80 699 88 706T109 713Q119 713 124 711L205 687Q193 635 164 575T102 473L65 496Z" />
<glyph unicode="&#x201a;" glyph-name="quotesinglbase" horiz-adv-x="278" d="M69 -102Q92 -70 111 -22T134 57L102 68Q89 71 89 85Q89 98 97 105T118 112Q125 112 129 111L216 92Q204 38 175 -22T110 -127L69 -102Z" />
<glyph unicode="&#x201c;" glyph-name="quotedblleft" horiz-adv-x="434" d="M65 505Q77 557 105 617T168 718L205 696Q185 666 166 617T142 534L177 523Q190 518 190 506Q190 493 182 486T162 478Q153 478 146 481L65 505ZM230 505Q242 557 270 617T333 718L370
696Q350 666 331 617T307 534L342 523Q355 518 355 506Q355 493 347 486T327 478Q318 478 311 481L230 505Z" />
<glyph unicode="&#x201d;" glyph-name="quotedblright" horiz-adv-x="434" d="M65 496Q85 525 104 574T128 657L93 669Q80 672 80 686Q80 699 88 706T109 713Q119 713 124 711L205 687Q193 635 164 575T102 473L65 496ZM230 496Q250 525 269 574T293 657L258 669Q245
672 245 686Q245 699 253 706T274 713Q284 713 289 711L370 687Q358 635 329 575T267 473L230 496Z" />
<glyph unicode="&#x201e;" glyph-name="quotedblbase" horiz-adv-x="445" d="M69 -102Q92 -70 111 -22T134 57L102 68Q89 71 89 85Q89 98 97 105T118 112Q125 112 129 111L216 92Q204 38 175 -22T110 -127L69 -102ZM236 -102Q259 -70 278 -22T301 57L269 68Q256
71 256 85Q256 98 264 105T285 112Q292 112 296 111L383 92Q371 38 342 -22T277 -127L236 -102Z" />
<glyph unicode="&#x2022;" glyph-name="bullet" horiz-adv-x="384" d="M149 169T121 197T93 269Q93 312 121 339T191 367Q235 367 263 340T291 269Q291 225 263 197T191 169Q149 169 121 197Z" />
<glyph unicode="&#x2039;" glyph-name="guilsinglleft" horiz-adv-x="325" d="M68 224V250L202 427L248 391L145 237L248 83L202 47L68 224Z" />
<glyph unicode="&#x203a;" glyph-name="guilsinglright" horiz-adv-x="325" d="M78 83L181 237L78 391L124 427L258 250V224L124 47L78 83Z" />
</font>
</defs>
</svg>
