<?xml version="1.0" standalone="no"?>
<!DOCTYPE svg PUBLIC "-//W3C//DTD SVG 1.1//EN" "http://www.w3.org/Graphics/SVG/1.1/DTD/svg11.dtd">
<svg xmlns="http://www.w3.org/2000/svg">
<defs >
<font id="Exo2" horiz-adv-x="540" ><font-face
    font-family="Exo 2 Thin"
    units-per-em="1000"
    panose-1="0 0 3 0 0 0 0 0 0 0"
    ascent="990"
    descent="-210"
    alphabetic="0" />
<glyph unicode=" " glyph-name="space" horiz-adv-x="230" />
<glyph unicode="!" glyph-name="exclam" horiz-adv-x="252" d="M147 354L124 203H103L122 354L170 695H195L147 354ZM92 86H103Q114 86 113 73L104 11Q103 0 91 0H81Q68 0 70 13L79 74Q80 86 92 86Z" />
<glyph unicode="&quot;" glyph-name="quotedbl" horiz-adv-x="321" d="M133 482H113L140 690H164L133 482ZM260 482H240L267 690H291L260 482Z" />
<glyph unicode="#" glyph-name="numbersign" horiz-adv-x="662" d="M516 470L447 250H557L550 228H440L368 0H345L417 228H189L117 0H94L166 228H49L56 250H173L242 470H125L132 492H249L311 690H334L272 492H500L562 690H585L523 492H633L626 470H516ZM493 470H265L196
250H424L493 470Z" />
<glyph unicode="$" glyph-name="dollar" horiz-adv-x="562" d="M520 689L516 670Q426 677 367 678L305 355L364 330Q442 296 466 259T480 147Q474 104 459 75T425 28T374 3T311 -8T233 -11L209 -135H188L212 -11Q119 -9 42 0L46 19Q134 12 217 12L280 339L213
367Q141 398 118 437T102 546Q108 590 123 619T156 665T206 690T264 700T334 701H350L370 804H391L371 700Q459 697 520 689ZM346 678H316Q281 678 262 677T216 668T174 648T146 608T128 542Q122 484 139 452T214 393L285 363L346 678ZM238 12H246Q349 14 394 39T454
151Q463 215 445 245T363 304L300 330L238 12Z" />
<glyph unicode="%" glyph-name="percent" horiz-adv-x="878" d="M181 702T264 702T374 653T387 496Q372 390 332 342T211 294Q128 294 101 343T88 500Q103 607 142 654ZM168 0H144L721 690H745L168 0ZM266 683Q191 683 158 640T110 496Q96 399 118 356T209 313Q282
313 317 357T365 500Q378 600 357 641T266 683ZM600 401T683 401T793 352T806 195Q791 89 751 41T630 -7Q547 -7 520 42T507 199Q522 306 561 353ZM685 382Q610 382 577 339T529 195Q515 98 537 55T628 12Q701 12 736 56T784 199Q797 299 776 340T685 382Z" />
<glyph unicode="&amp;" glyph-name="ampersand" horiz-adv-x="791" d="M742 347H596Q577 234 527 151Q475 63 406 28T241 -11Q126 -15 82 26T56 176Q72 268 121 311T259 356V360Q183 365 158 406T145 523Q163 626 216 662T388 698Q475 698 543 675L539 657Q467
675 386 675Q280 675 234 645T170 522Q154 432 193 400T344 368H575Q585 432 583 521H607Q607 429 599 368H748L742 347ZM572 347H343Q277 346 238 341T165 317T111 264T82 172Q77 142 77 119T81 79T96 50T118 30T147 19T180 14T219 12Q323 12 391 47T507 163Q554
240 572 347Z" />
<glyph unicode="&apos;" glyph-name="quotesingle" horiz-adv-x="194" d="M133 482H113L140 690H164L133 482Z" />
<glyph unicode="(" glyph-name="parenleft" horiz-adv-x="352" d="M374 790L378 772Q259 715 191 603T97 311Q72 135 108 24T247 -147L242 -165Q18 -53 71 318Q97 503 171 618T374 790Z" />
<glyph unicode=")" glyph-name="parenright" horiz-adv-x="352" d="M111 772L115 790Q228 735 271 617T287 306Q261 121 188 7T-17 -165L-20 -147Q99 -87 167 25T261 315Q311 662 111 772Z" />
<glyph unicode="*" glyph-name="asterisk" horiz-adv-x="449" d="M265 536L342 406L322 395L255 520L153 396L136 411L248 537L268 690H290L265 536ZM234 548L232 539L227 531L106 569L115 591L234 548ZM417 568L285 531L282 539L283 548L412 590L417 568Z" />
<glyph unicode="+" glyph-name="plus" horiz-adv-x="551" d="M482 286H285L258 99H237L263 286H65L69 308H266L292 495H315L288 308H486L482 286Z" />
<glyph unicode="," glyph-name="comma" horiz-adv-x="205" d="M70 86H82Q91 86 90 75L80 9Q73 -44 43 -116L28 -111Q42 -64 53 1Q45 1 47 11L57 75Q58 86 70 86Z" />
<glyph unicode="-" glyph-name="hyphen" horiz-adv-x="481" d="M389 240H78L81 262H392L389 240Z" />
<glyph unicode="." glyph-name="period" horiz-adv-x="205" d="M69 86H80Q92 86 90 73L81 11Q80 0 68 0H58Q45 0 47 13L56 74Q58 86 69 86Z" />
<glyph unicode="/" glyph-name="slash" horiz-adv-x="497" d="M17 -59H-10L486 690H513L17 -59Z" />
<glyph unicode="0" glyph-name="zero" horiz-adv-x="582" d="M347 702Q466 702 503 617T513 343Q487 156 428 72T251 -12Q132 -12 95 73T84 347Q110 533 170 617T347 702ZM348 679Q242 679 189 600T109 343Q85 168 116 90T250 11Q355 11 409 91T488 347Q513 522
482 600T348 679Z" />
<glyph unicode="1" glyph-name="one" horiz-adv-x="373" d="M206 0H181L268 619Q270 636 278 665L82 601L79 617L278 690H303L206 0Z" />
<glyph unicode="2" glyph-name="two" horiz-adv-x="548" d="M124 657L118 675Q233 702 317 702Q423 702 467 674T500 562Q491 495 451 436T325 290L55 22H172H455L452 0H18L20 15Q22 22 27 28L306 305Q389 388 428 450T475 574Q479 609 470 631T438 663T390 676T323
679Q230 679 124 657Z" />
<glyph unicode="3" glyph-name="three" horiz-adv-x="544" d="M131 667L125 685Q224 702 303 702Q418 702 459 667T487 541Q466 391 355 369L353 365Q419 355 443 307T457 190Q445 107 386 51T215 -12Q117 -17 21 5L28 23Q112 5 210 11Q406 24 433 194Q458 355
285 356H155L158 374L286 377Q442 380 462 544Q472 623 439 651T303 679Q223 679 131 667Z" />
<glyph unicode="4" glyph-name="four" horiz-adv-x="590" d="M524 200L442 197L414 0H389L417 196H90Q59 196 47 221T54 275L333 690H362L77 266Q65 248 71 233T97 218H420L452 443L475 560H493L445 218H527L524 200Z" />
<glyph unicode="5" glyph-name="five" horiz-adv-x="525" d="M490 668H179L130 403H184Q246 403 287 399T364 383T419 349T445 290T446 201Q441 166 429 135T392 70T316 13T197 -12Q113 -15 28 16L34 34Q115 7 194 10Q254 12 299 31T368 80T405 141T422 205Q438
321 376 351T131 381H118Q111 381 107 385T105 396L160 690H494L490 668Z" />
<glyph unicode="6" glyph-name="six" horiz-adv-x="562" d="M507 690L499 672Q450 680 390 680Q327 680 287 669T211 621T152 517T113 337L111 322Q157 384 207 410T327 441Q432 447 468 394T486 214Q456 -12 260 -12Q162 -12 118 27T72 143T87 338T129 528T193
639T276 689T389 702Q457 702 507 690ZM326 419Q263 415 215 390T107 296Q94 199 97 136T139 41T259 10Q432 10 461 220Q477 329 448 377T326 419Z" />
<glyph unicode="7" glyph-name="seven" horiz-adv-x="499" d="M97 690H473Q498 690 503 680T498 648L184 0H156L462 631Q470 649 483 668H97V690Z" />
<glyph unicode="8" glyph-name="eight" horiz-adv-x="612" d="M206 356L209 360Q110 371 131 520Q145 616 194 657T361 698Q423 698 462 688T521 655T546 598T544 516Q533 441 505 404T424 360L421 356Q482 349 502 305T509 170Q495 70 446 32T266 -8Q137 -9 96
31T69 174Q81 263 112 306T206 356ZM362 675Q253 675 211 641T156 516Q143 422 173 396T316 369Q430 369 468 396T519 520Q532 609 501 642T362 675ZM317 347Q252 347 217 341T154 316T114 263T93 170Q81 83 116 49T265 15Q382 15 427 50T485 174Q490 213 490 240T485
287T467 318T434 336T385 345T317 347Z" />
<glyph unicode="9" glyph-name="nine" horiz-adv-x="564" d="M57 0L65 18Q125 10 180 10Q252 10 294 21T371 71T426 174T466 353L468 368Q421 307 371 280T252 249Q148 244 111 297T93 476Q111 589 163 645T327 702Q417 702 460 664T507 547T492 352Q467 196 430
118T339 14T190 -12Q116 -12 57 0ZM472 394Q494 546 465 613T327 680Q228 680 182 629T118 470Q101 356 133 312T253 271Q316 274 365 301T472 394Z" />
<glyph unicode=":" glyph-name="colon" horiz-adv-x="205" d="M149 430H160Q172 430 170 417L161 355Q160 344 148 344H138Q125 344 127 357L136 418Q138 430 149 430ZM100 86H111Q123 86 121 73L112 11Q111 0 99 0H89Q76 0 78 13L87 74Q88 86 100 86Z" />
<glyph unicode=";" glyph-name="semicolon" horiz-adv-x="207" d="M118 430H129Q141 430 139 417L130 355Q129 344 117 344H107Q94 344 96 357L105 418Q106 430 118 430ZM70 86H82Q91 86 90 75L80 9Q73 -44 43 -116L28 -111Q42 -64 53 1Q45 1 47 11L57 75Q58 86 70 86Z" />
<glyph unicode="&lt;" glyph-name="less" horiz-adv-x="538" d="M481 465L88 295L433 130L430 107L62 284L65 306L484 489L481 465Z" />
<glyph unicode="=" glyph-name="equal" horiz-adv-x="592" d="M516 385H99L102 407H519L516 385ZM487 173H70L73 195H490L487 173Z" />
<glyph unicode="&gt;" glyph-name="greater" horiz-adv-x="535" d="M474 306L471 284L53 107L56 131L448 297L104 467L107 489L474 306Z" />
<glyph unicode="?" glyph-name="question" horiz-adv-x="497" d="M102 676L98 694Q108 695 128 698T156 703T183 706T215 710T252 711T302 712Q400 712 444 673T478 555Q472 513 448 478T392 415T328 360T271 292T239 202L215 204Q222 256 248 299T305 370T368
426T424 486T454 559Q463 627 427 658T303 690Q209 690 102 676ZM206 86H215Q227 86 226 73L217 12Q216 0 204 0H194Q181 0 183 13L192 74Q194 86 206 86Z" />
<glyph unicode="@" glyph-name="at" horiz-adv-x="739" d="M127 591L129 609Q289 613 418 613Q483 613 522 610T592 594T636 562T655 505T658 421T645 299Q635 231 629 195T613 117T593 56T567 18T531 -6T481 -12Q397 -12 410 84L415 117Q301 -12 177 -12Q144
-12 121 -3T86 25T67 65T60 115T63 168T71 222Q94 355 142 398T320 441Q392 441 484 429L434 82Q429 44 440 27T482 10Q510 10 528 18T560 42T584 95T602 177T622 302Q630 357 633 393T636 462T632 514T615 549T589 572T547 584T492 590T419 591H127ZM419 149L457
412Q367 419 325 419Q203 419 160 381T95 218Q86 160 85 114T106 39T179 10Q299 10 419 149Z" />
<glyph unicode="A" glyph-name="A" horiz-adv-x="599" d="M462 252H133L6 0H-22L322 682Q326 690 335 690H378Q389 690 391 680L543 0H517L462 252ZM457 274L382 613Q373 655 370 667H341Q336 658 327 639T313 611L144 274H457Z" />
<glyph unicode="B" glyph-name="B" horiz-adv-x="610" d="M62 0L159 690Q231 698 353 698Q479 698 522 660T551 516Q540 442 507 404T412 360V356Q484 349 509 303T522 170Q507 66 457 29T287 -8Q142 -8 62 0ZM139 368H327Q426 369 469 400T525 520Q538 613 501
644T353 675H182L139 368ZM136 347L89 17Q159 15 286 15Q393 15 438 47T497 174Q511 274 474 309T326 347H136Z" />
<glyph unicode="C" glyph-name="C" horiz-adv-x="557" d="M474 24L479 6Q396 -12 290 -12Q148 -12 102 68T83 347Q111 544 178 623T386 702Q487 702 559 685L552 667Q479 679 387 679Q255 679 195 606T108 343Q82 157 121 84T289 11Q396 11 474 24Z" />
<glyph unicode="D" glyph-name="D" horiz-adv-x="658" d="M62 0L159 690Q280 699 388 699Q527 699 572 619T590 343Q563 146 497 69T292 -9Q183 -9 62 0ZM182 672L89 17Q272 14 291 14Q417 14 478 87T565 347Q590 530 551 603T388 676Q302 676 182 672Z" />
<glyph unicode="E" glyph-name="E" horiz-adv-x="548" d="M543 668H257Q217 668 192 646T162 585L134 380H462L459 359H131L95 103Q90 67 109 45T164 22H452L453 4Q354 0 159 0Q114 0 89 29T70 103L138 589Q144 634 174 662T252 690Q449 690 547 686L543 668Z" />
<glyph unicode="F" glyph-name="F" horiz-adv-x="530" d="M540 668H261Q223 668 198 647T166 585L137 376H458L455 355H134L84 0H59L142 589Q149 636 179 663T256 690Q448 690 544 686L540 668Z" />
<glyph unicode="G" glyph-name="G" horiz-adv-x="620" d="M583 685L576 667Q493 679 389 679Q255 679 194 606T107 343Q84 162 119 87T263 11Q324 11 377 43T494 133L531 400H556L498 0H481L492 107Q379 -12 262 -12Q140 -12 99 71T82 347Q109 544 177 623T388
702Q501 702 583 685Z" />
<glyph unicode="H" glyph-name="H" horiz-adv-x="657" d="M610 690L513 0H488L538 359H137L87 0H62L159 690H184L141 381H542L585 690H610Z" />
<glyph unicode="I" glyph-name="I" horiz-adv-x="231" d="M87 0H62L159 690H184L87 0Z" />
<glyph unicode="J" glyph-name="J" horiz-adv-x="322" d="M279 690L198 114Q181 -7 61 -6Q33 -6 -3 0L2 16H59Q159 16 174 117L254 690H279Z" />
<glyph unicode="K" glyph-name="K" horiz-adv-x="559" d="M268 361V359Q278 347 287 331L488 0H460L246 349H133Q130 305 123 262L86 0H62L159 690H183L150 453Q145 415 136 371H248L537 690H568L301 393Q293 384 268 361Z" />
<glyph unicode="L" glyph-name="L" horiz-adv-x="501" d="M181 690L99 103Q94 67 113 45T168 22H441L440 4Q347 0 163 0Q118 0 93 29T74 103L156 690H181Z" />
<glyph unicode="M" glyph-name="M" horiz-adv-x="855" d="M734 690H776Q792 690 790 674L725 0H700L764 668H740L430 68Q426 60 417 60H375Q364 60 362 70L220 668H196L72 0H47L172 676Q175 690 188 690H229Q240 690 242 680L362 175Q366 159 373 128T384 81H411L460
179L721 682Q725 690 734 690Z" />
<glyph unicode="N" glyph-name="N" horiz-adv-x="688" d="M641 690L546 14Q545 0 530 0H489Q477 0 472 12L234 601Q229 613 220 635T206 668H181Q179 655 176 629T170 590L87 0H62L157 676Q160 690 173 690H211Q224 690 229 678L462 102Q468 88 478 61T494 21H522L534
106L616 690H641Z" />
<glyph unicode="O" glyph-name="O" horiz-adv-x="660" d="M386 702Q528 702 574 622T592 343Q565 146 498 67T290 -12Q148 -12 102 68T83 347Q111 544 178 623T386 702ZM386 679Q256 679 195 605T108 343Q83 158 123 85T289 11Q419 11 480 85T567 347Q593 533
554 606T386 679Z" />
<glyph unicode="P" glyph-name="P" horiz-adv-x="580" d="M62 0L159 690Q240 698 379 698Q491 698 529 655T552 494Q535 377 486 335T326 292Q195 292 129 296L87 0H62ZM131 315H326Q425 317 468 354T526 497Q541 601 509 638T380 675Q248 675 182 673L131 315Z" />
<glyph unicode="Q" glyph-name="Q" horiz-adv-x="660" d="M386 702Q528 702 574 622T592 343Q565 146 498 67T290 -12Q148 -12 102 68T83 347Q111 544 178 623T386 702ZM386 679Q256 679 195 605T108 343Q83 158 123 85T289 11Q419 11 480 85T567 347Q593 533
554 606T386 679ZM236 -65L248 -51Q329 -114 460 -136L452 -161Q318 -143 236 -65Z" />
<glyph unicode="R" glyph-name="R" horiz-adv-x="606" d="M62 0L159 690Q240 698 379 698Q491 698 529 657T553 502Q540 411 505 371T399 320V316Q447 300 463 220L508 0H481L437 219Q428 267 404 288T338 310Q299 311 251 312T175 313T131 314L87 0H62ZM134 333H329Q427
335 470 371T527 506T509 640T380 675Q248 675 182 673L134 333Z" />
<glyph unicode="S" glyph-name="S" horiz-adv-x="553" d="M358 304L208 367Q136 398 113 437T97 546Q103 590 118 619T151 665T201 690T259 700T329 701Q426 700 515 689L511 670Q392 678 311 678Q276 678 257 677T211 668T169 648T141 608T123 542Q117 484 134
452T209 393L359 330Q437 296 461 259T475 147Q469 104 454 75T419 28T368 3T305 -8T227 -11Q129 -11 37 0L41 19Q143 11 241 12Q344 14 389 39T449 151Q458 215 440 245T358 304Z" />
<glyph unicode="T" glyph-name="T" horiz-adv-x="558" d="M587 668H344L250 0H225L319 668H77L80 690H590L587 668Z" />
<glyph unicode="U" glyph-name="U" horiz-adv-x="667" d="M625 690L564 254Q544 109 483 49T294 -12Q164 -12 119 49T93 256L154 690H179L118 254Q99 120 138 66T293 11Q409 11 464 66T539 256L600 690H625Z" />
<glyph unicode="V" glyph-name="V" horiz-adv-x="587" d="M618 690L286 8Q283 0 273 0H231Q221 0 219 10L78 690H104L226 95Q237 41 240 21H267Q278 45 303 98L591 690H618Z" />
<glyph unicode="W" glyph-name="W" horiz-adv-x="926" d="M949 690L671 9Q666 0 656 0H614Q603 0 601 12L536 592Q528 658 527 667H502Q487 631 471 590L244 10Q240 0 229 0H186Q175 0 173 11L86 690H111L187 90Q188 79 190 56T195 21H224Q228 33 236 56T250 91L482
680Q486 690 496 690H535Q547 690 549 678L616 90Q618 79 620 56T623 21H652L679 91L923 690H949Z" />
<glyph unicode="X" glyph-name="X" horiz-adv-x="590" d="M345 360L513 0H486L323 350H288L26 0H-4L266 361L106 690H133L287 372H324L568 690H597L345 360Z" />
<glyph unicode="Y" glyph-name="Y" horiz-adv-x="535" d="M274 257L237 0H212L249 257L73 690H99L233 356L261 287H267L314 357L541 690H569L274 257Z" />
<glyph unicode="Z" glyph-name="Z" horiz-adv-x="553" d="M552 667L42 23H467L463 0H8L12 23L521 667H105L108 690H555L552 667Z" />
<glyph unicode="[" glyph-name="bracketleft" horiz-adv-x="308" d="M324 746H205Q192 746 190 733L69 -132Q67 -143 78 -143H199L196 -165H72Q58 -165 51 -156T45 -133L167 738Q172 768 201 768H327L324 746Z" />
<glyph unicode="\" glyph-name="backslash" horiz-adv-x="482" d="M401 -59H377L88 690H112L401 -59Z" />
<glyph unicode="]" glyph-name="bracketright" horiz-adv-x="308" d="M114 768H238Q251 768 259 759T266 736L143 -135Q142 -148 133 -156T109 -165H-17L-14 -143H105Q118 -143 120 -130L242 735Q244 746 232 746H111L114 768Z" />
<glyph unicode="^" glyph-name="asciicircum" horiz-adv-x="392" d="M382 377L368 366L245 548H237L62 366L49 378L234 575H252L382 377Z" />
<glyph unicode="_" glyph-name="underscore" horiz-adv-x="600" d="M478 -22H47L50 0H481L478 -22Z" />
<glyph unicode="`" glyph-name="grave" horiz-adv-x="277" d="M261 562L247 550L113 691L132 709L261 562Z" />
<glyph unicode="a" glyph-name="a" horiz-adv-x="564" d="M412 0L427 122Q368 57 301 23T182 -12Q94 -12 70 50T70 242Q94 393 142 442T319 492Q390 492 498 480L430 0H412ZM428 151L471 463Q362 470 322 470Q271 470 239 464T181 444T141 402T114 336T94 238Q72
119 90 65T182 11Q232 11 300 48T428 151Z" />
<glyph unicode="b" glyph-name="b" horiz-adv-x="561" d="M172 700L142 499Q131 426 119 364Q265 492 358 492Q443 492 471 436T480 238Q459 85 413 37T252 -12Q166 -12 53 19H52L148 700H172ZM121 343L78 36Q165 11 248 11Q357 11 396 57T455 242Q473 371 452
420T354 469Q308 469 256 440T121 343Z" />
<glyph unicode="c" glyph-name="c" horiz-adv-x="475" d="M391 23L394 5Q318 -12 248 -12Q127 -12 85 45T61 242Q80 380 137 436T313 492Q395 492 447 475L440 457Q396 469 318 469Q207 469 156 420T86 239Q68 108 104 60T250 11Q330 11 391 23Z" />
<glyph unicode="d" glyph-name="d" horiz-adv-x="562" d="M496 480L428 0H410L424 121Q300 -12 171 -12Q90 -12 68 53T68 242Q90 393 139 442T319 492Q383 492 475 482Q477 519 485 574L503 700H527L496 480ZM426 150L469 463Q360 470 321 470Q199 470 156 426T92
238Q72 125 89 68T173 11Q231 11 298 47T426 150Z" />
<glyph unicode="e" glyph-name="e" horiz-adv-x="526" d="M420 24L423 6Q356 -12 234 -12Q116 -12 79 45T62 244Q74 321 93 370T144 445T214 482T310 492Q406 492 448 461T471 344Q457 286 423 263T312 231L81 206Q68 92 104 51T244 10Q322 10 420 24ZM84 227L313
253Q380 261 407 279T447 346Q452 373 453 393T446 426T427 448T397 462T360 468T317 470Q259 470 225 463T161 431T115 361T86 241L84 227Z" />
<glyph unicode="f" glyph-name="f" horiz-adv-x="351" d="M420 692H311Q251 692 222 667T185 580L171 480H349L345 458H168L92 -78Q83 -147 53 -178T-40 -210Q-95 -210 -128 -206L-127 -188H-48Q7 -188 33 -163T68 -76L143 458H56L59 475L147 480L161 582Q170
650 203 682T303 714Q376 714 421 710L420 692Z" />
<glyph unicode="g" glyph-name="g" horiz-adv-x="569" d="M506 480L430 -6Q399 -202 212 -220Q119 -229 22 -218L25 -200Q131 -206 204 -198Q293 -189 342 -143T406 -4Q421 92 431 127Q371 60 302 24T182 -12Q94 -12 70 50T70 242Q94 393 142 442T319 492Q390
492 498 480H506ZM430 153L478 463Q324 470 322 470Q271 470 239 464T181 444T141 402T114 336T94 238Q72 119 90 65T182 11Q233 11 301 49T430 153Z" />
<glyph unicode="h" glyph-name="h" horiz-adv-x="567" d="M175 700L145 484Q136 420 124 363Q276 492 374 492Q505 492 487 360L436 0H412L463 359Q471 417 449 443T370 469Q320 469 263 438T124 339L76 0H52L151 700H175Z" />
<glyph unicode="i" glyph-name="i" horiz-adv-x="218" d="M158 679H168Q181 679 179 666L170 604Q169 593 158 593H148Q134 593 136 606L145 668Q146 679 158 679ZM80 0H56L124 480H148L80 0Z" />
<glyph unicode="j" glyph-name="j" horiz-adv-x="219" d="M158 679H168Q181 679 179 666L170 604Q169 593 158 593H148Q134 593 136 606L145 668Q146 679 158 679ZM148 480L74 -47Q62 -135 -15 -210L-27 -200Q39 -126 50 -45L124 480H148Z" />
<glyph unicode="k" glyph-name="k" horiz-adv-x="487" d="M436 480H461Q404 342 271 266Q275 258 283 241T296 215L404 0H377L250 254Q189 222 104 198L76 0H52L151 700H175L121 310Q114 263 104 220Q354 292 436 480Z" />
<glyph unicode="l" glyph-name="l" horiz-adv-x="265" d="M176 700L91 95Q79 16 159 16H218L219 0Q200 -6 155 -6Q108 -6 84 21T67 96L152 700H176Z" />
<glyph unicode="m" glyph-name="m" horiz-adv-x="876" d="M138 480L123 363Q193 427 246 459T349 492Q475 492 463 368Q598 492 683 492Q814 492 796 360L745 0H721L772 359Q780 417 758 443T679 469Q634 469 586 440T460 343L411 0H387L438 359Q446 417 424 443T345
469Q300 469 251 440T124 342L76 0H52L120 480H138Z" />
<glyph unicode="n" glyph-name="n" horiz-adv-x="567" d="M138 480L123 363Q276 492 374 492Q505 492 487 360L436 0H412L463 359Q471 417 449 443T370 469Q320 469 263 438T124 341L76 0H52L120 480H138Z" />
<glyph unicode="o" glyph-name="o" horiz-adv-x="557" d="M304 492Q421 492 461 435T481 238Q461 100 407 44T238 -12Q121 -12 81 45T61 242Q81 380 135 436T304 492ZM407 469T304 469T153 418T86 238Q68 110 101 61T238 11T389 62T456 242Q474 370 441 419Z" />
<glyph unicode="p" glyph-name="p" horiz-adv-x="563" d="M138 480L124 359Q183 424 250 458T368 492Q456 492 478 434T480 238Q457 87 409 38T231 -12Q165 -12 73 -2Q71 -39 63 -94L45 -220H21L52 0L120 480H138ZM122 330L79 17Q188 10 228 10Q349 10 392 54T456
242Q476 361 459 415T368 469Q318 469 250 432T122 330Z" />
<glyph unicode="q" glyph-name="q" horiz-adv-x="563" d="M495 461L399 -220H375L406 -8Q415 57 428 126Q356 49 302 19T186 -12Q104 -12 76 43T67 242Q87 393 134 442T296 492Q381 492 495 461ZM427 149L469 444Q382 469 299 469Q190 469 150 424T92 238Q76 111
95 61T189 11Q247 11 296 41T427 149Z" />
<glyph unicode="r" glyph-name="r" horiz-adv-x="383" d="M388 492L380 469H364Q315 469 260 438T123 338L76 0H52L120 480H138L123 361Q268 492 368 492H388Z" />
<glyph unicode="s" glyph-name="s" horiz-adv-x="498" d="M318 201L159 261Q146 266 138 269T119 277T103 287T89 300T79 315T72 334T69 358T72 387Q83 456 125 475T264 492Q364 490 450 480L446 462Q351 469 265 470Q173 472 140 458T96 383Q89 340 103 320T160
284L320 224Q375 204 397 179T412 100Q408 69 396 49T368 16T324 -2T271 -10T203 -12Q112 -12 33 0L37 18Q120 9 207 10Q304 12 342 29T388 104Q394 148 378 166T318 201Z" />
<glyph unicode="t" glyph-name="t" horiz-adv-x="341" d="M165 458L114 95Q102 16 182 16H271L272 0Q231 -6 187 -6Q76 -6 90 96L141 458H53L56 475L144 480L165 631H189L168 480H346L342 458H165Z" />
<glyph unicode="u" glyph-name="u" horiz-adv-x="556" d="M490 480L422 0H404L419 126Q281 -12 178 -12Q113 -12 84 22T65 120L116 480H140L89 121Q73 11 182 11Q233 11 288 45T420 152L466 480H490Z" />
<glyph unicode="v" glyph-name="v" horiz-adv-x="503" d="M461 480H486Q446 320 363 184Q294 71 251 22Q231 0 201 0H172Q162 0 160 9L59 480H84L180 21H199Q213 21 221 26T242 46Q285 98 343 195Q426 334 461 480Z" />
<glyph unicode="w" glyph-name="w" horiz-adv-x="813" d="M169 21H181Q200 21 217 43Q261 100 305 197Q346 288 399 473Q401 482 410 480H435Q445 480 447 471L516 21H528Q549 21 566 46Q629 137 659 196Q724 322 760 480H785Q745 309 678 184Q618 71 576 23Q556
0 527 0H508Q498 0 496 9L427 460H417Q378 305 327 191Q306 143 276 92T227 20Q209 0 181 0H161Q151 0 149 9L58 480H83L169 21Z" />
<glyph unicode="x" glyph-name="x" horiz-adv-x="501" d="M279 250L426 0H399L258 240H231L25 0H-7L211 251L75 480H102L231 262H260L451 480H481L279 250Z" />
<glyph unicode="y" glyph-name="y" horiz-adv-x="511" d="M462 480H487Q427 254 301 58Q216 -73 163 -133T43 -210L39 -195Q90 -178 135 -131T236 0H200Q183 0 171 10T154 37L56 480H82L175 47Q182 20 207 22H250L277 63Q393 247 462 480Z" />
<glyph unicode="z" glyph-name="z" horiz-adv-x="485" d="M455 458L46 22H396L393 0H10L13 22L422 458H78L81 480H458L455 458Z" />
<glyph unicode="{" glyph-name="braceleft" horiz-adv-x="298" d="M316 768L314 750Q256 750 229 724T194 641L166 436Q157 377 140 358T74 328Q120 311 133 292T139 222L103 -40Q95 -95 114 -121T191 -147L189 -165Q120 -165 95 -135T79 -38L117 234Q121 262
114 277T97 297T57 314L62 344Q109 358 119 367Q134 381 140 428L171 643Q180 711 213 740T316 768Z" />
<glyph unicode="|" glyph-name="bar" horiz-adv-x="233" d="M63 -169H41L174 781H196L63 -169Z" />
<glyph unicode="}" glyph-name="braceright" horiz-adv-x="296" d="M112 750L114 768Q183 768 208 738T224 641L194 426Q188 381 196 369T241 345Q246 343 249 342L244 312Q218 303 210 300T189 287T171 266T163 232L125 -40Q115 -107 83 -136T-19 -165L-17 -147Q40
-147 66 -120T101 -38L138 224Q145 275 162 293T232 328Q187 339 175 359T172 438L201 643Q209 699 190 724T112 750Z" />
<glyph unicode="~" glyph-name="asciitilde" horiz-adv-x="533" d="M96 240L79 242Q84 287 107 310T165 330Q209 327 266 296T365 262Q396 260 412 275T434 326L451 324Q447 281 424 259T366 240Q311 243 256 274T166 308Q107 314 96 240Z" />
<glyph unicode="&#xa0;" glyph-name="uni00A0" horiz-adv-x="230" />
<glyph unicode="&#xa1;" glyph-name="exclamdown" horiz-adv-x="230" d="M136 480H147Q158 480 157 467L148 408Q146 394 134 394H125Q112 394 114 407L123 469Q124 480 136 480ZM104 126L57 -205H32L79 126L102 277H123L104 126Z" />
<glyph unicode="&#xa2;" glyph-name="cent" horiz-adv-x="502" d="M463 585L457 567Q420 577 344 579L248 121H266Q340 121 407 133L410 115Q334 98 264 98H243L222 0H201L222 100Q126 109 93 167T78 352Q98 489 154 545T328 602L346 690H367L349 602Q423 598
463 585ZM228 123L323 579Q219 577 170 528T103 350Q86 231 114 181T228 123Z" />
<glyph unicode="&#xa3;" glyph-name="sterling" horiz-adv-x="557" d="M531 691L528 673Q436 679 354 679Q276 679 241 645T197 529L183 373H434L430 353H181L171 247Q163 165 141 109T67 22H125H463L460 0H31L33 22Q88 54 113 108T147 244L157 353H74L77 373H159L173
529Q178 575 190 607T219 657T262 686T314 698T376 701Q444 701 531 691Z" />
<glyph unicode="&#xa4;" glyph-name="currency" horiz-adv-x="600" d="M542 554L463 485Q506 431 498 350Q491 272 438 219L507 139L492 127L424 207Q370 162 291 162Q208 162 161 212L82 142L69 156L149 226Q110 277 118 354Q128 440 182 490L113 569L127 582L196
502Q250 543 327 543Q403 543 450 499L530 569L542 554ZM283 181Q363 178 416 226T478 354Q485 427 446 475T328 524Q247 524 197 476T138 350Q130 278 170 231T283 181Z" />
<glyph unicode="&#xa5;" glyph-name="yen" horiz-adv-x="601" d="M326 306H512L509 286H311L299 196H497L494 176H296L271 0H246L271 176H78L81 196H274L286 286H93L96 306H278L107 690H133L268 386L299 317H306Q326 346 355 385L574 690H603L326 306Z" />
<glyph unicode="&#xa6;" glyph-name="brokenbar" horiz-adv-x="233" d="M140 381H118L174 781H196L140 381ZM63 -169H41L97 231H119L63 -169Z" />
<glyph unicode="&#xa7;" glyph-name="section" horiz-adv-x="543" d="M377 335L201 445Q146 478 128 513T117 595Q127 661 171 682T307 702Q424 702 522 690L519 672Q402 679 308 680Q226 681 188 665T141 591Q131 516 203 472L379 363Q411 344 428 322T449 271T451
214T436 141L414 143Q434 211 428 259T377 335ZM104 417L126 415Q105 347 111 301T163 226L341 117Q393 85 412 50T423 -34Q418 -65 406 -86T379 -119T339 -137T291 -144T233 -144Q132 -142 18 -132L21 -114Q155 -121 232 -122Q264 -122 281 -122T323 -117T360
-103T384 -75T399 -30Q409 46 338 90L162 198Q102 235 92 288T104 417Z" />
<glyph unicode="&#xa8;" glyph-name="dieresis" horiz-adv-x="399" d="M168 678H177Q188 678 186 666L178 613Q177 600 165 600H158Q147 600 148 612L156 666Q158 678 168 678ZM345 678H354Q364 678 363 666L355 613Q354 600 342 600H335Q324 600 325 612L333
666Q334 678 345 678Z" />
<glyph unicode="&#xa9;" glyph-name="copyright" horiz-adv-x="856" d="M484 702Q636 702 725 603T792 343Q770 185 663 87T388 -12Q236 -12 147 87T79 347Q100 505 209 603T484 702ZM483 683Q325 683 222 589T99 343Q79 193 163 100T388 7Q546 7 649 101T772
347T710 590T483 683ZM552 144L555 128Q494 116 411 116Q302 116 265 169T246 350Q264 477 314 528T472 580Q553 580 604 568L599 554Q549 560 473 560Q376 560 331 514T268 346Q251 230 282 183T409 136Q497 136 552 144Z" />
<glyph unicode="&#xaa;" glyph-name="ordfeminine" horiz-adv-x="444" d="M343 343V344Q306 305 264 284T190 262T139 268T105 292T90 343T94 432Q108 531 149 565T275 600Q319 600 396 591L350 269H334L343 343ZM345 365L374 577Q294 581 278 581Q200 581 165
552T115 430Q102 341 118 312T190 282Q221 282 264 304T345 365Z" />
<glyph unicode="&#xab;" glyph-name="guillemotleft" horiz-adv-x="451" d="M248 442L72 249L193 56L180 46L44 247L45 255L236 454L248 442ZM406 442L230 249L351 56L338 46L202 247L203 255L394 454L406 442Z" />
<glyph unicode="&#xac;" glyph-name="logicalnot" horiz-adv-x="591" d="M505 307L480 134H457L479 285H85L88 307H505Z" />
<glyph unicode="&#xad;" glyph-name="softhyphen" horiz-adv-x="482" d="M389 240H78L81 262H392L389 240Z" />
<glyph unicode="&#xae;" glyph-name="registered" horiz-adv-x="580" d="M338 701Q442 701 496 639T538 477Q526 382 460 319T295 256T139 319T94 486Q106 587 173 644T338 701ZM521 481Q533 575 483 630T338 685Q242 685 182 630T111 482Q100 387 152 330T295
272Q387 272 448 331T521 481ZM193 337L233 620Q289 623 328 623Q393 623 417 609T436 543Q432 505 415 489T362 468V466Q385 460 395 426L419 337H400L377 426Q368 462 330 462Q240 462 229 463L211 337H193ZM231 476H324Q373 477 393 490T419 546Q424 586 406
597T334 608L249 607L231 476Z" />
<glyph unicode="&#xaf;" glyph-name="overscore" horiz-adv-x="400" d="M384 625H124L127 648H387L384 625Z" />
<glyph unicode="&#xb0;" glyph-name="degree" horiz-adv-x="381" d="M242 702Q296 702 327 667T353 577Q347 522 308 489T217 455Q161 455 132 492T107 581Q113 635 151 668T242 702ZM242 683Q196 683 164 653T127 577Q123 532 148 503T217 474T294 503T333 581Q338
626 313 654T242 683Z" />
<glyph unicode="&#xb1;" glyph-name="plusminus" horiz-adv-x="597" d="M516 358L512 336H315L294 189H273L293 336H95L99 358H296L316 505H339L318 358H516ZM65 115H482L478 94H61L65 115Z" />
<glyph unicode="&#xb2;" glyph-name="twosuperior" horiz-adv-x="436" d="M143 747L139 765Q213 781 274 781Q344 781 375 764T399 695Q393 655 368 621T286 535L113 382H190H374L372 360H79L81 375Q81 381 86 386L266 545Q320 593 345 629T375 701Q379 737 355
748T276 759Q213 759 143 747Z" />
<glyph unicode="&#xb3;" glyph-name="threesuperior" horiz-adv-x="416" d="M146 753L142 771Q205 781 262 781Q339 781 367 759T388 684Q376 592 303 581L301 578Q345 572 362 544T372 474Q364 424 325 390T210 353Q145 349 79 363L84 381Q146 371 206 375Q334
383 349 478Q355 518 335 543T252 570H165L167 587L253 589Q353 591 365 684Q370 729 349 744T261 760Q218 760 146 753Z" />
<glyph unicode="&#xb4;" glyph-name="acute" horiz-adv-x="277" d="M290 691L118 550L104 564L273 710L290 691Z" />
<glyph unicode="&#xb6;" glyph-name="paragraph" horiz-adv-x="597" d="M216 -210L274 201Q38 227 76 470Q96 609 166 655T399 702Q476 702 544 685L447 0H422L517 670Q446 679 366 679L241 -210H216Z" />
<glyph unicode="&#xb7;" glyph-name="middot" horiz-adv-x="205" d="M98 300H109Q121 300 119 287L110 225Q109 214 97 214H87Q74 214 76 227L85 288Q86 300 98 300Z" />
<glyph unicode="&#xb8;" glyph-name="cedilla" horiz-adv-x="219" d="M58 -63L61 -49Q101 -47 119 -63T131 -116Q123 -167 81 -197T-22 -219L-17 -204Q34 -206 69 -179T110 -112Q114 -85 103 -75T58 -63Z" />
<glyph unicode="&#xb9;" glyph-name="onesuperior" horiz-adv-x="282" d="M201 360H178L229 721Q233 741 236 751L107 714L105 731L236 774H260L201 360Z" />
<glyph unicode="&#xba;" glyph-name="ordmasculine" horiz-adv-x="446" d="M264 600Q348 600 376 562T392 429Q379 337 340 300T220 262Q137 262 109 300T93 433Q106 525 144 562T264 600ZM265 581Q194 581 161 548T116 429Q104 346 127 314T219 282Q290 282 323
315T368 433Q380 517 358 549T265 581Z" />
<glyph unicode="&#xbb;" glyph-name="guillemotright" horiz-adv-x="449" d="M32 58L208 251L87 444L100 454L236 253L235 245L44 46L32 58ZM190 58L366 251L245 444L258 454L394 253L393 245L202 46L190 58Z" />
<glyph unicode="&#xbc;" glyph-name="onequarter" horiz-adv-x="832" d="M680 690L103 0H79L656 690H680ZM100 632L98 646L230 690H251L193 276H172L223 640Q224 643 225 649T227 661T229 670L100 632ZM758 118L712 116L696 0H675L691 115H464Q443 115 435 131T438
164L621 414H644L460 161Q452 150 457 142T475 133H694L713 266L727 336H743L715 133H760L758 118Z" />
<glyph unicode="&#xbd;" glyph-name="onehalf" horiz-adv-x="860" d="M102 0H78L655 690H679L102 0ZM192 276H171L222 640Q223 643 224 649T226 661T228 670L99 632L97 646L229 690H250L192 276ZM535 389L531 405Q606 421 665 421Q737 421 767 404T790 335Q785
296 759 262T676 175L500 19L540 20Q580 20 580 19H767L764 0H471L473 13Q474 19 479 24L659 184Q713 233 738 269T768 342Q772 380 748 391T669 402Q604 402 535 389Z" />
<glyph unicode="&#xbe;" glyph-name="threequarters" horiz-adv-x="924" d="M286 495L284 493Q366 481 356 387Q348 325 313 296T201 267Q149 267 63 277L67 293Q135 286 197 286Q262 286 294 310T334 392Q340 434 320 459T236 485H149L152 500L237 502Q341 504
353 599Q359 644 336 660T246 676Q185 676 129 669L126 685Q187 695 245 695Q325 695 353 674T374 598Q361 508 286 495ZM786 690L209 0H185L762 690H786ZM849 118L793 115L777 0H756L772 115H555Q534 115 526 131T529 164L712 414H735L551 161Q543 150 548 142T566
133H775L794 266L808 336H824L796 133H851L849 118Z" />
<glyph unicode="&#xbf;" glyph-name="questiondown" horiz-adv-x="498" d="M279 490H289Q301 490 300 478L292 416Q291 404 279 404H269Q257 404 258 417L267 479Q268 490 279 490ZM244 288L267 286Q260 234 235 191T178 120T115 64T59 4T29 -69Q19 -136 55 -168T179
-200Q274 -200 380 -186L385 -204Q375 -206 355 -209T326 -213T299 -217T267 -220T230 -221T180 -222Q82 -222 38 -183T4 -65Q10 -23 34 12T90 75T154 130T211 198T244 288Z" />
<glyph unicode="&#xc0;" glyph-name="Agrave" horiz-adv-x="599" d="M390 736L256 877L275 895L404 748L390 736ZM462 252H133L6 0H-22L322 682Q326 690 335 690H378Q389 690 391 680L543 0H517L462 252ZM457 274L382 613Q373 655 370 667H341Q336 658 327 639T313
611L144 274H457Z" />
<glyph unicode="&#xc1;" glyph-name="Aacute" horiz-adv-x="599" d="M331 736L317 750L486 896L503 877L331 736ZM462 252H133L6 0H-22L322 682Q326 690 335 690H378Q389 690 391 680L543 0H517L462 252ZM457 274L382 613Q373 655 370 667H341Q336 658 327 639T313
611L144 274H457Z" />
<glyph unicode="&#xc2;" glyph-name="Acircumflex" horiz-adv-x="599" d="M232 750L222 763L374 880H392L513 763L501 751L386 853H377L232 750ZM462 252H133L6 0H-22L322 682Q326 690 335 690H378Q389 690 391 680L543 0H517L462 252ZM457 274L382 613Q373 655
370 667H341Q336 658 327 639T313 611L144 274H457Z" />
<glyph unicode="&#xc3;" glyph-name="Atilde" horiz-adv-x="599" d="M510 862L527 860Q523 817 500 795T442 776Q406 779 370 810T312 844Q253 850 242 776L225 778Q230 823 253 846T311 866Q341 863 377 832T441 798Q472 796 488 811T510 862ZM462 252H133L6
0H-22L322 682Q326 690 335 690H378Q389 690 391 680L543 0H517L462 252ZM457 274L382 613Q373 655 370 667H341Q336 658 327 639T313 611L144 274H457Z" />
<glyph unicode="&#xc4;" glyph-name="Adieresis" horiz-adv-x="599" d="M285 778H278Q267 778 268 790L276 844Q278 856 288 856H297Q308 856 306 844L298 791Q297 778 285 778ZM462 778H455Q444 778 445 790L453 844Q454 856 465 856H474Q484 856 483 844L475
791Q474 778 462 778ZM462 252H133L6 0H-22L322 682Q326 690 335 690H378Q389 690 391 680L543 0H517L462 252ZM457 274L382 613Q373 655 370 667H341Q336 658 327 639T313 611L144 274H457Z" />
<glyph unicode="&#xc5;" glyph-name="Aring" horiz-adv-x="599" d="M408 719T366 719T299 747T279 816Q284 854 313 881T384 909Q426 909 451 881T471 812Q466 774 437 747ZM300 812Q296 781 314 760T366 738T422 760T450 816Q454 847 436 868T384 890T327 868T300
812ZM462 252H133L6 0H-22L322 682Q326 690 335 690H378Q389 690 391 680L543 0H517L462 252ZM457 274L382 613Q373 655 370 667H341Q336 658 327 639T313 611L144 274H457Z" />
<glyph unicode="&#xc6;" glyph-name="AE" horiz-adv-x="904" d="M900 668H632Q595 668 569 646T537 585L509 380H817L814 359H506L470 103Q465 67 484 45T539 22H809L808 4Q715 0 534 0Q489 0 464 29T445 103L469 272H217L0 0H-30L454 606Q496 657 535 673T629
690Q805 690 902 686L900 668ZM472 294L513 588Q516 611 531 634T564 664H560Q518 648 472 591L235 294H472Z" />
<glyph unicode="&#xc7;" glyph-name="Ccedilla" horiz-adv-x="557" d="M474 24L479 6Q396 -12 290 -12Q148 -12 102 68T83 347Q111 544 178 623T386 702Q487 702 559 685L552 667Q479 679 387 679Q255 679 195 606T108 343Q82 157 121 84T289 11Q396 11 474 24ZM248
-75L251 -61Q291 -59 309 -75T321 -128Q313 -179 271 -209T168 -231L173 -216Q224 -218 259 -191T300 -124Q304 -97 293 -87T248 -75Z" />
<glyph unicode="&#xc8;" glyph-name="Egrave" horiz-adv-x="548" d="M392 761L258 902L277 920L406 773L392 761ZM543 668H257Q217 668 192 646T162 585L134 380H462L459 359H131L95 103Q90 67 109 45T164 22H452L453 4Q354 0 159 0Q114 0 89 29T70 103L138 589Q144
634 174 662T252 690Q449 690 547 686L543 668Z" />
<glyph unicode="&#xc9;" glyph-name="Eacute" horiz-adv-x="548" d="M333 761L319 775L488 921L505 902L333 761ZM543 668H257Q217 668 192 646T162 585L134 380H462L459 359H131L95 103Q90 67 109 45T164 22H452L453 4Q354 0 159 0Q114 0 89 29T70 103L138 589Q144
634 174 662T252 690Q449 690 547 686L543 668Z" />
<glyph unicode="&#xca;" glyph-name="Ecircumflex" horiz-adv-x="548" d="M234 775L224 788L376 905H394L515 788L503 776L388 878H379L234 775ZM543 668H257Q217 668 192 646T162 585L134 380H462L459 359H131L95 103Q90 67 109 45T164 22H452L453 4Q354 0 159
0Q114 0 89 29T70 103L138 589Q144 634 174 662T252 690Q449 690 547 686L543 668Z" />
<glyph unicode="&#xcb;" glyph-name="Edieresis" horiz-adv-x="548" d="M287 803H280Q269 803 270 815L278 869Q280 881 290 881H299Q310 881 308 869L300 816Q299 803 287 803ZM464 803H457Q446 803 447 815L455 869Q456 881 467 881H476Q486 881 485 869L477
816Q476 803 464 803ZM543 668H257Q217 668 192 646T162 585L134 380H462L459 359H131L95 103Q90 67 109 45T164 22H452L453 4Q354 0 159 0Q114 0 89 29T70 103L138 589Q144 634 174 662T252 690Q449 690 547 686L543 668Z" />
<glyph unicode="&#xcc;" glyph-name="Igrave" horiz-adv-x="231" d="M217 748L203 736L69 877L88 895L217 748ZM87 0H62L159 690H184L87 0Z" />
<glyph unicode="&#xcd;" glyph-name="Iacute" horiz-adv-x="231" d="M316 877L144 736L130 750L299 896L316 877ZM87 0H62L159 690H184L87 0Z" />
<glyph unicode="&#xce;" glyph-name="Icircumflex" horiz-adv-x="231" d="M326 763L314 751L199 853H190L45 750L35 763L187 880H205L326 763ZM87 0H62L159 690H184L87 0Z" />
<glyph unicode="&#xcf;" glyph-name="Idieresis" horiz-adv-x="231" d="M101 856H110Q120 856 119 844L111 791Q110 778 98 778H91Q80 778 81 790L89 844Q90 856 101 856ZM278 856H287Q298 856 296 844L288 791Q287 778 275 778H268Q257 778 258 790L266 844Q268
856 278 856ZM87 0H62L159 690H184L87 0Z" />
<glyph unicode="&#xd0;" glyph-name="Eth" horiz-adv-x="658" d="M116 381L159 690Q280 699 388 699Q527 699 572 619T590 343Q563 146 497 69T292 -9Q183 -9 62 0L113 361H30L33 381H116ZM138 361L89 17Q272 14 291 14Q417 14 478 87T565 347Q590 530 551 603T388
676Q302 676 182 672L141 381H321L318 361H138Z" />
<glyph unicode="&#xd1;" glyph-name="Ntilde" horiz-adv-x="688" d="M293 776L276 778Q281 823 304 846T362 866Q392 863 428 832T492 798Q523 796 539 811T561 862L578 860Q574 817 551 795T493 776Q457 779 421 810T363 844Q304 850 293 776ZM641 690L546 14Q545
0 530 0H489Q477 0 472 12L234 601Q229 613 220 635T206 668H181Q179 655 176 629T170 590L87 0H62L157 676Q160 690 173 690H211Q224 690 229 678L462 102Q468 88 478 61T494 21H522L534 106L616 690H641Z" />
<glyph unicode="&#xd2;" glyph-name="Ograve" horiz-adv-x="660" d="M438 748L424 736L290 877L309 895L438 748ZM386 702Q528 702 574 622T592 343Q565 146 498 67T290 -12Q148 -12 102 68T83 347Q111 544 178 623T386 702ZM386 679Q256 679 195 605T108 343Q83
158 123 85T289 11Q419 11 480 85T567 347Q593 533 554 606T386 679Z" />
<glyph unicode="&#xd3;" glyph-name="Oacute" horiz-adv-x="660" d="M537 877L365 736L351 750L520 896L537 877ZM386 702Q528 702 574 622T592 343Q565 146 498 67T290 -12Q148 -12 102 68T83 347Q111 544 178 623T386 702ZM386 679Q256 679 195 605T108 343Q83
158 123 85T289 11Q419 11 480 85T567 347Q593 533 554 606T386 679Z" />
<glyph unicode="&#xd4;" glyph-name="Ocircumflex" horiz-adv-x="660" d="M547 763L535 751L420 853H411L266 750L256 763L408 880H426L547 763ZM386 702Q528 702 574 622T592 343Q565 146 498 67T290 -12Q148 -12 102 68T83 347Q111 544 178 623T386 702ZM386
679Q256 679 195 605T108 343Q83 158 123 85T289 11Q419 11 480 85T567 347Q593 533 554 606T386 679Z" />
<glyph unicode="&#xd5;" glyph-name="Otilde" horiz-adv-x="660" d="M276 776L259 778Q264 823 287 846T345 866Q375 863 411 832T475 798Q506 796 522 811T544 862L561 860Q557 817 534 795T476 776Q440 779 404 810T346 844Q287 850 276 776ZM386 702Q528 702
574 622T592 343Q565 146 498 67T290 -12Q148 -12 102 68T83 347Q111 544 178 623T386 702ZM386 679Q256 679 195 605T108 343Q83 158 123 85T289 11Q419 11 480 85T567 347Q593 533 554 606T386 679Z" />
<glyph unicode="&#xd6;" glyph-name="Odieresis" horiz-adv-x="660" d="M322 856H331Q342 856 340 844L332 791Q331 778 319 778H312Q301 778 302 790L310 844Q312 856 322 856ZM499 856H508Q518 856 517 844L509 791Q508 778 496 778H489Q478 778 479 790L487
844Q488 856 499 856ZM386 702Q528 702 574 622T592 343Q565 146 498 67T290 -12Q148 -12 102 68T83 347Q111 544 178 623T386 702ZM386 679Q256 679 195 605T108 343Q83 158 123 85T289 11Q419 11 480 85T567 347Q593 533 554 606T386 679Z" />
<glyph unicode="&#xd7;" glyph-name="multiply" horiz-adv-x="526" d="M278 287L423 139L407 122L260 273L71 122L57 140L244 289L102 436L118 452L262 304L451 454L466 437L278 287Z" />
<glyph unicode="&#xd8;" glyph-name="Oslash" horiz-adv-x="660" d="M585 731L542 660Q587 623 599 546T592 343Q565 146 498 67T290 -12Q199 -12 150 18L108 -51L89 -41L133 31Q88 68 77 145T83 347Q111 544 178 623T386 702Q475 702 524 673L565 741L585 731ZM146
53L511 652Q468 679 386 679Q256 679 195 605T108 343Q77 120 146 53ZM529 639L163 40Q208 11 289 11Q419 11 480 85T567 347Q584 462 576 533T529 639Z" />
<glyph unicode="&#xd9;" glyph-name="Ugrave" horiz-adv-x="667" d="M437 748L423 736L289 877L308 895L437 748ZM625 690L564 254Q544 109 483 49T294 -12Q164 -12 119 49T93 256L154 690H179L118 254Q99 120 138 66T293 11Q409 11 464 66T539 256L600 690H625Z" />
<glyph unicode="&#xda;" glyph-name="Uacute" horiz-adv-x="667" d="M536 877L364 736L350 750L519 896L536 877ZM625 690L564 254Q544 109 483 49T294 -12Q164 -12 119 49T93 256L154 690H179L118 254Q99 120 138 66T293 11Q409 11 464 66T539 256L600 690H625Z" />
<glyph unicode="&#xdb;" glyph-name="Ucircumflex" horiz-adv-x="667" d="M546 763L534 751L419 853H410L265 750L255 763L407 880H425L546 763ZM625 690L564 254Q544 109 483 49T294 -12Q164 -12 119 49T93 256L154 690H179L118 254Q99 120 138 66T293 11Q409
11 464 66T539 256L600 690H625Z" />
<glyph unicode="&#xdc;" glyph-name="Udieresis" horiz-adv-x="667" d="M321 856H330Q340 856 339 844L331 791Q330 778 318 778H311Q300 778 301 790L309 844Q310 856 321 856ZM498 856H507Q518 856 516 844L508 791Q507 778 495 778H488Q477 778 478 790L486
844Q488 856 498 856ZM625 690L564 254Q544 109 483 49T294 -12Q164 -12 119 49T93 256L154 690H179L118 254Q99 120 138 66T293 11Q409 11 464 66T539 256L600 690H625Z" />
<glyph unicode="&#xdd;" glyph-name="Yacute" horiz-adv-x="535" d="M295 736L281 750L450 896L467 877L295 736ZM274 257L237 0H212L249 257L73 690H99L233 356L261 287H267L314 357L541 690H569L274 257Z" />
<glyph unicode="&#xde;" glyph-name="Thorn" horiz-adv-x="582" d="M185 690L165 549Q235 555 360 555Q472 555 510 511T532 350Q516 233 467 191T307 149Q176 149 110 153L88 0H63L140 546V547L160 690H185ZM112 172H306Q406 174 449 210T507 354Q521 459 489
495T361 532Q230 532 162 530L112 172Z" />
<glyph unicode="&#xdf;" glyph-name="germandbls" horiz-adv-x="646" d="M147 480L154 532Q162 592 182 630T234 685T297 707T376 712Q488 712 534 688T576 599Q573 544 543 517T458 471Q448 468 420 459T383 447T357 435T332 418T319 396T311 363Q309 335 320
317T365 284L493 224Q543 201 561 175T573 100Q564 31 520 10T387 -11Q308 -11 233 0L236 18Q319 9 397 11Q472 13 507 31T549 104Q552 128 549 144T534 172T514 188T488 201L362 261Q318 283 301 306T288 367Q289 381 292 392T303 413T315 430T333 444T351 455T375
465T399 474T427 483T456 492Q473 497 485 502T515 520T543 554T555 603Q557 649 523 669T388 690Q279 690 235 658T178 530L92 -78Q81 -150 50 -180T-46 -210Q-95 -210 -128 -206L-127 -188H-48Q7 -188 33 -163T68 -76L144 458H56L59 475L147 480Z" />
<glyph unicode="&#xe0;" glyph-name="agrave" horiz-adv-x="564" d="M352 554L218 695L237 713L366 566L352 554ZM412 0L427 122Q368 57 301 23T182 -12Q94 -12 70 50T70 242Q94 393 142 442T319 492Q390 492 498 480L430 0H412ZM428 151L471 463Q362 470 322
470Q271 470 239 464T181 444T141 402T114 336T94 238Q72 119 90 65T182 11Q232 11 300 48T428 151Z" />
<glyph unicode="&#xe1;" glyph-name="aacute" horiz-adv-x="564" d="M293 554L279 568L448 714L465 695L293 554ZM412 0L427 122Q368 57 301 23T182 -12Q94 -12 70 50T70 242Q94 393 142 442T319 492Q390 492 498 480L430 0H412ZM428 151L471 463Q362 470 322
470Q271 470 239 464T181 444T141 402T114 336T94 238Q72 119 90 65T182 11Q232 11 300 48T428 151Z" />
<glyph unicode="&#xe2;" glyph-name="acircumflex" horiz-adv-x="564" d="M194 568L184 581L336 698H354L475 581L463 569L348 671H339L194 568ZM412 0L427 122Q368 57 301 23T182 -12Q94 -12 70 50T70 242Q94 393 142 442T319 492Q390 492 498 480L430 0H412ZM428
151L471 463Q362 470 322 470Q271 470 239 464T181 444T141 402T114 336T94 238Q72 119 90 65T182 11Q232 11 300 48T428 151Z" />
<glyph unicode="&#xe3;" glyph-name="atilde" horiz-adv-x="564" d="M472 680L489 678Q485 635 462 613T404 594Q368 597 332 628T274 662Q215 668 204 594L187 596Q192 641 215 664T273 684Q303 681 339 650T403 616Q434 614 450 629T472 680ZM412 0L427 122Q368
57 301 23T182 -12Q94 -12 70 50T70 242Q94 393 142 442T319 492Q390 492 498 480L430 0H412ZM428 151L471 463Q362 470 322 470Q271 470 239 464T181 444T141 402T114 336T94 238Q72 119 90 65T182 11Q232 11 300 48T428 151Z" />
<glyph unicode="&#xe4;" glyph-name="adieresis" horiz-adv-x="564" d="M247 596H240Q229 596 230 608L238 662Q240 674 250 674H259Q270 674 268 662L260 609Q259 596 247 596ZM424 596H417Q406 596 407 608L415 662Q416 674 427 674H436Q446 674 445 662L437
609Q436 596 424 596ZM412 0L427 122Q368 57 301 23T182 -12Q94 -12 70 50T70 242Q94 393 142 442T319 492Q390 492 498 480L430 0H412ZM428 151L471 463Q362 470 322 470Q271 470 239 464T181 444T141 402T114 336T94 238Q72 119 90 65T182 11Q232 11 300 48T428
151Z" />
<glyph unicode="&#xe5;" glyph-name="aring" horiz-adv-x="564" d="M370 537T328 537T261 565T241 634Q246 672 275 699T346 727Q388 727 413 699T433 630Q428 592 399 565ZM262 630Q258 599 276 578T328 556T384 578T412 634Q416 665 398 686T346 708T289 686T262
630ZM412 0L427 122Q368 57 301 23T182 -12Q94 -12 70 50T70 242Q94 393 142 442T319 492Q390 492 498 480L430 0H412ZM428 151L471 463Q362 470 322 470Q271 470 239 464T181 444T141 402T114 336T94 238Q72 119 90 65T182 11Q232 11 300 48T428 151Z" />
<glyph unicode="&#xe6;" glyph-name="ae" horiz-adv-x="872" d="M764 24L767 6Q700 -12 578 -12Q492 -12 450 17T400 115Q346 53 286 21T170 -12Q113 -12 86 19T57 106T67 242Q90 393 139 442T312 492Q400 492 524 470Q569 492 654 492Q750 492 792 461T815 344Q801
286 767 263T656 231L425 206Q412 92 448 51T588 10Q666 10 764 24ZM171 11Q222 11 282 44T398 140Q397 181 406 244Q430 402 496 453Q352 470 314 470Q196 470 154 425T91 238Q70 124 87 68T171 11ZM428 227L657 253Q724 261 751 279T791 346Q796 373 797 393T790
426T771 448T741 462T704 468T661 470Q603 470 569 463T505 431T459 361T430 241L428 227Z" />
<glyph unicode="&#xe7;" glyph-name="ccedilla" horiz-adv-x="475" d="M391 23L394 5Q318 -12 248 -12Q127 -12 85 45T61 242Q80 380 137 436T313 492Q395 492 447 475L440 457Q396 469 318 469Q207 469 156 420T86 239Q68 108 104 60T250 11Q330 11 391 23ZM203
-75L206 -61Q246 -59 264 -75T276 -128Q268 -179 226 -209T123 -231L128 -216Q179 -218 214 -191T255 -124Q259 -97 248 -87T203 -75Z" />
<glyph unicode="&#xe8;" glyph-name="egrave" horiz-adv-x="526" d="M341 554L207 695L226 713L355 566L341 554ZM420 24L423 6Q356 -12 234 -12Q116 -12 79 45T62 244Q74 321 93 370T144 445T214 482T310 492Q406 492 448 461T471 344Q457 286 423 263T312 231L81
206Q68 92 104 51T244 10Q322 10 420 24ZM84 227L313 253Q380 261 407 279T447 346Q452 373 453 393T446 426T427 448T397 462T360 468T317 470Q259 470 225 463T161 431T115 361T86 241L84 227Z" />
<glyph unicode="&#xe9;" glyph-name="eacute" horiz-adv-x="526" d="M282 554L268 568L437 714L454 695L282 554ZM420 24L423 6Q356 -12 234 -12Q116 -12 79 45T62 244Q74 321 93 370T144 445T214 482T310 492Q406 492 448 461T471 344Q457 286 423 263T312 231L81
206Q68 92 104 51T244 10Q322 10 420 24ZM84 227L313 253Q380 261 407 279T447 346Q452 373 453 393T446 426T427 448T397 462T360 468T317 470Q259 470 225 463T161 431T115 361T86 241L84 227Z" />
<glyph unicode="&#xea;" glyph-name="ecircumflex" horiz-adv-x="526" d="M183 568L173 581L325 698H343L464 581L452 569L337 671H328L183 568ZM420 24L423 6Q356 -12 234 -12Q116 -12 79 45T62 244Q74 321 93 370T144 445T214 482T310 492Q406 492 448 461T471
344Q457 286 423 263T312 231L81 206Q68 92 104 51T244 10Q322 10 420 24ZM84 227L313 253Q380 261 407 279T447 346Q452 373 453 393T446 426T427 448T397 462T360 468T317 470Q259 470 225 463T161 431T115 361T86 241L84 227Z" />
<glyph unicode="&#xeb;" glyph-name="edieresis" horiz-adv-x="526" d="M236 596H229Q218 596 219 608L227 662Q228 674 239 674H248Q258 674 257 662L249 609Q248 596 236 596ZM413 596H406Q395 596 396 608L404 662Q406 674 416 674H425Q436 674 434 662L426
609Q425 596 413 596ZM420 24L423 6Q356 -12 234 -12Q116 -12 79 45T62 244Q74 321 93 370T144 445T214 482T310 492Q406 492 448 461T471 344Q457 286 423 263T312 231L81 206Q68 92 104 51T244 10Q322 10 420 24ZM84 227L313 253Q380 261 407 279T447 346Q452
373 453 393T446 426T427 448T397 462T360 468T317 470Q259 470 225 463T161 431T115 361T86 241L84 227Z" />
<glyph unicode="&#xec;" glyph-name="igrave" horiz-adv-x="218" d="M185 566L171 554L37 695L56 713L185 566ZM80 0H56L124 480H148L80 0Z" />
<glyph unicode="&#xed;" glyph-name="iacute" horiz-adv-x="218" d="M284 695L112 554L98 568L267 714L284 695ZM80 0H56L124 480H148L80 0Z" />
<glyph unicode="&#xee;" glyph-name="icircumflex" horiz-adv-x="218" d="M294 581L282 569L167 671H158L13 568L3 581L155 698H173L294 581ZM80 0H56L124 480H148L80 0Z" />
<glyph unicode="&#xef;" glyph-name="idieresis" horiz-adv-x="218" d="M69 674H78Q88 674 87 662L79 609Q78 596 66 596H59Q48 596 49 608L57 662Q58 674 69 674ZM246 674H255Q266 674 264 662L256 609Q255 596 243 596H236Q225 596 226 608L234 662Q236 674
246 674ZM80 0H56L124 480H148L80 0Z" />
<glyph unicode="&#xf0;" glyph-name="eth" horiz-adv-x="545" d="M478 681L390 626Q497 522 463 277Q457 234 451 204T433 137T406 76T365 31T307 -1T228 -12Q124 -12 83 44T59 223Q90 446 283 446Q394 446 448 369Q453 535 371 614L268 549L260 566L356 627Q288
680 170 680L176 698Q300 700 376 639L469 698L478 681ZM227 10Q283 10 321 29T383 88T418 173T441 288Q446 319 447 344Q395 424 279 424Q111 424 83 218Q68 106 103 58T227 10Z" />
<glyph unicode="&#xf1;" glyph-name="ntilde" horiz-adv-x="567" d="M457 680L474 678Q470 635 447 613T389 594Q353 597 317 628T259 662Q200 668 189 594L172 596Q177 641 200 664T258 684Q288 681 324 650T388 616Q419 614 435 629T457 680ZM138 480L123 363Q276
492 374 492Q505 492 487 360L436 0H412L463 359Q471 417 449 443T370 469Q320 469 263 438T124 341L76 0H52L120 480H138Z" />
<glyph unicode="&#xf2;" glyph-name="ograve" horiz-adv-x="557" d="M354 566L340 554L206 695L225 713L354 566ZM304 492Q421 492 461 435T481 238Q461 100 407 44T238 -12Q121 -12 81 45T61 242Q81 380 135 436T304 492ZM407 469T304 469T153 418T86 238Q68
110 101 61T238 11T389 62T456 242Q474 370 441 419Z" />
<glyph unicode="&#xf3;" glyph-name="oacute" horiz-adv-x="557" d="M453 695L281 554L267 568L436 714L453 695ZM304 492Q421 492 461 435T481 238Q461 100 407 44T238 -12Q121 -12 81 45T61 242Q81 380 135 436T304 492ZM407 469T304 469T153 418T86 238Q68
110 101 61T238 11T389 62T456 242Q474 370 441 419Z" />
<glyph unicode="&#xf4;" glyph-name="ocircumflex" horiz-adv-x="557" d="M463 581L451 569L336 671H327L182 568L172 581L324 698H342L463 581ZM304 492Q421 492 461 435T481 238Q461 100 407 44T238 -12Q121 -12 81 45T61 242Q81 380 135 436T304 492ZM407 469T304
469T153 418T86 238Q68 110 101 61T238 11T389 62T456 242Q474 370 441 419Z" />
<glyph unicode="&#xf5;" glyph-name="otilde" horiz-adv-x="557" d="M192 594L175 596Q180 641 203 664T261 684Q291 681 327 650T391 616Q422 614 438 629T460 680L477 678Q473 635 450 613T392 594Q356 597 320 628T262 662Q203 668 192 594ZM304 492Q421 492
461 435T481 238Q461 100 407 44T238 -12Q121 -12 81 45T61 242Q81 380 135 436T304 492ZM407 469T304 469T153 418T86 238Q68 110 101 61T238 11T389 62T456 242Q474 370 441 419Z" />
<glyph unicode="&#xf6;" glyph-name="odieresis" horiz-adv-x="557" d="M238 674H247Q258 674 256 662L248 609Q247 596 235 596H228Q217 596 218 608L226 662Q228 674 238 674ZM415 674H424Q434 674 433 662L425 609Q424 596 412 596H405Q394 596 395 608L403
662Q404 674 415 674ZM304 492Q421 492 461 435T481 238Q461 100 407 44T238 -12Q121 -12 81 45T61 242Q81 380 135 436T304 492ZM407 469T304 469T153 418T86 238Q68 110 101 61T238 11T389 62T456 242Q474 370 441 419Z" />
<glyph unicode="&#xf7;" glyph-name="divide" horiz-adv-x="589" d="M317 502H327Q339 501 338 489L329 427Q328 416 316 416H306Q294 416 295 429L304 490Q306 502 317 502ZM502 285H85L88 307H505L502 285ZM272 175H283Q294 175 293 162L284 100Q283 89 271
89H261Q249 89 250 102L259 163Q260 175 272 175Z" />
<glyph unicode="&#xf8;" glyph-name="oslash" horiz-adv-x="557" d="M463 530L425 467Q468 443 481 387T481 238Q461 100 407 44T238 -12Q180 -12 142 1L104 -61L86 -52L123 9Q76 34 62 89T61 242Q81 380 135 436T304 492Q368 492 407 476L445 539L463 530ZM136
30L394 456Q361 469 304 469Q201 469 153 418T86 238Q74 150 85 101T136 30ZM412 447L154 22Q186 11 238 11Q341 11 389 62T456 242Q468 326 458 375T412 447Z" />
<glyph unicode="&#xf9;" glyph-name="ugrave" horiz-adv-x="556" d="M336 554L202 695L221 713L350 566L336 554ZM490 480L422 0H404L419 126Q281 -12 178 -12Q113 -12 84 22T65 120L116 480H140L89 121Q73 11 182 11Q233 11 288 45T420 152L466 480H490Z" />
<glyph unicode="&#xfa;" glyph-name="uacute" horiz-adv-x="556" d="M277 554L263 568L432 714L449 695L277 554ZM490 480L422 0H404L419 126Q281 -12 178 -12Q113 -12 84 22T65 120L116 480H140L89 121Q73 11 182 11Q233 11 288 45T420 152L466 480H490Z" />
<glyph unicode="&#xfb;" glyph-name="ucircumflex" horiz-adv-x="556" d="M178 568L168 581L320 698H338L459 581L447 569L332 671H323L178 568ZM490 480L422 0H404L419 126Q281 -12 178 -12Q113 -12 84 22T65 120L116 480H140L89 121Q73 11 182 11Q233 11 288
45T420 152L466 480H490Z" />
<glyph unicode="&#xfc;" glyph-name="udieresis" horiz-adv-x="556" d="M231 596H224Q213 596 214 608L222 662Q224 674 234 674H243Q254 674 252 662L244 609Q243 596 231 596ZM408 596H401Q390 596 391 608L399 662Q400 674 411 674H420Q430 674 429 662L421
609Q420 596 408 596ZM490 480L422 0H404L419 126Q281 -12 178 -12Q113 -12 84 22T65 120L116 480H140L89 121Q73 11 182 11Q233 11 288 45T420 152L466 480H490Z" />
<glyph unicode="&#xfd;" glyph-name="yacute" horiz-adv-x="511" d="M246 554L232 568L401 714L418 695L246 554ZM462 480H487Q427 254 301 58Q216 -73 163 -133T43 -210L39 -195Q90 -178 135 -131T236 0H200Q183 0 171 10T154 37L56 480H82L175 47Q182 20 207
22H250L277 63Q393 247 462 480Z" />
<glyph unicode="&#xfe;" glyph-name="thorn" horiz-adv-x="564" d="M176 700L139 441Q131 381 126 360Q184 424 251 458T369 492Q457 492 479 434T481 238Q458 87 410 38T232 -12Q160 -12 75 -1Q74 -30 65 -92L48 -210H24L152 700H176ZM123 329L80 18Q208 10 229
10Q350 10 393 54T457 242Q477 361 460 415T369 469Q318 469 250 432T123 329Z" />
<glyph unicode="&#xff;" glyph-name="ydieresis" horiz-adv-x="511" d="M200 596H193Q182 596 183 608L191 662Q192 674 203 674H212Q222 674 221 662L213 609Q212 596 200 596ZM377 596H370Q359 596 360 608L368 662Q370 674 380 674H389Q400 674 398 662L390
609Q389 596 377 596ZM462 480H487Q427 254 301 58Q216 -73 163 -133T43 -210L39 -195Q90 -178 135 -131T236 0H200Q183 0 171 10T154 37L56 480H82L175 47Q182 20 207 22H250L277 63Q393 247 462 480Z" />
<glyph unicode="&#x2013;" glyph-name="endash" horiz-adv-x="621" d="M529 240H78L81 262H532L529 240Z" />
<glyph unicode="&#x2014;" glyph-name="emdash" horiz-adv-x="931" d="M839 240H78L81 262H842L839 240Z" />
<glyph unicode="&#x2018;" glyph-name="quoteleft" horiz-adv-x="194" d="M133 528H122Q113 528 114 539L124 605Q131 658 159 730L173 725Q159 673 150 613Q157 613 155 603L146 539Q145 528 133 528Z" />
<glyph unicode="&#x2019;" glyph-name="quoteright" horiz-adv-x="193" d="M154 721H165Q174 721 173 710L163 644Q156 591 128 519L114 524Q128 576 137 636Q130 636 132 646L141 710Q142 721 154 721Z" />
<glyph unicode="&#x201a;" glyph-name="quotesinglbase" horiz-adv-x="205" d="M70 86H82Q91 86 90 75L80 9Q73 -44 43 -116L28 -111Q42 -64 53 1Q45 1 47 11L57 75Q58 86 70 86Z" />
<glyph unicode="&#x201c;" glyph-name="quotedblleft" horiz-adv-x="308" d="M133 528H122Q113 528 114 539L124 605Q131 658 159 730L173 725Q159 673 150 613Q157 613 155 603L146 539Q145 528 133 528ZM247 528H236Q227 528 228 539L238 605Q245 658 273 730L287
725Q273 673 264 613Q271 613 269 603L260 539Q259 528 247 528Z" />
<glyph unicode="&#x201d;" glyph-name="quotedblright" horiz-adv-x="307" d="M154 721H165Q174 721 173 710L163 644Q156 591 128 519L114 524Q128 576 137 636Q130 636 132 646L141 710Q142 721 154 721ZM268 721H279Q288 721 287 710L277 644Q270 591 242 519L228
524Q242 576 251 636Q244 636 246 646L255 710Q256 721 268 721Z" />
<glyph unicode="&#x201e;" glyph-name="quotedblbase" horiz-adv-x="317" d="M68 86H79Q88 86 87 75L77 9Q70 -44 42 -116L28 -111Q42 -59 51 1Q44 1 46 11L55 75Q56 86 68 86ZM182 86H193Q202 86 201 75L191 9Q184 -44 156 -116L142 -111Q156 -59 165 1Q158 1
160 11L169 75Q170 86 182 86Z" />
<glyph unicode="&#x2022;" glyph-name="bullet" horiz-adv-x="352" d="M177 337H187Q222 337 234 322T243 272L241 257Q237 221 222 210T169 198H159Q123 198 110 213T102 264L104 278Q109 314 124 325T177 337Z" />
<glyph unicode="&#x2039;" glyph-name="guilsinglleft" horiz-adv-x="293" d="M248 442L72 249L193 56L180 46L44 247L45 255L236 454L248 442Z" />
<glyph unicode="&#x203a;" glyph-name="guilsinglright" horiz-adv-x="293" d="M238 254L237 246L44 46L32 58L210 253L89 444L102 454L238 254Z" />
</font>
</defs>
</svg>
