<?xml version="1.0" standalone="no"?>
<!DOCTYPE svg PUBLIC "-//W3C//DTD SVG 1.1//EN" "http://www.w3.org/Graphics/SVG/1.1/DTD/svg11.dtd">
<svg xmlns="http://www.w3.org/2000/svg">
<defs >
<font id="Atma" horiz-adv-x="519" ><font-face
    font-family="Atma Light"
    units-per-em="1000"
    panose-1="0 0 0 0 0 0 0 0 0 0"
    ascent="1101"
    descent="-518"
    alphabetic="0" />
<glyph unicode=" " glyph-name="space" horiz-adv-x="180" />
<glyph unicode="!" glyph-name="exclam" horiz-adv-x="199" d="M73 202Q66 330 63 436T60 669Q60 694 60 707T61 728Q73 733 81 735T99 737Q104 737 108 737T124 735Q114 621 112 491T114 201Q110 200 106 200T97 199Q90 199 85 199T73 202ZM98 -1Q94 -1 90 -1T72
1Q71 18 71 33T72 64Q88 66 100 66T126 64Q127 48 128 27T129 2Q121 0 113 0T98 -1Z" />
<glyph unicode="&quot;" glyph-name="quotedbl" horiz-adv-x="220" d="M61 738Q66 738 71 737T79 736Q81 686 79 634T68 501Q62 499 52 499T31 499Q32 578 31 629T25 735Q32 736 42 737T61 738ZM161 738Q166 738 171 737T179 736Q181 686 179 634T168 501Q162
499 152 499T131 499Q132 578 131 629T125 735Q132 736 142 737T161 738Z" />
<glyph unicode="#" glyph-name="numbersign" horiz-adv-x="600" d="M193 224Q240 218 284 216T371 213Q383 252 393 291T412 367Q364 367 321 369T235 375Q227 339 217 302T193 224ZM405 170Q384 110 364 60T323 -39Q303 -35 295 -32T278 -24Q301 24 320 72T357
170Q311 171 267 174T180 184Q161 130 140 76T94 -35Q77 -31 67 -28T49 -19Q73 30 94 82T134 190Q64 203 45 206T10 214Q10 224 11 233T16 257Q53 248 85 242T147 231Q160 271 170 308T188 381Q143 387 102 394T22 410Q22 424 23 434T28 453Q67 443 109 436T197
422Q207 473 214 523T226 620Q236 618 245 614T270 603Q265 551 259 505T244 416Q288 412 332 411T421 410Q432 462 439 513T451 615Q462 613 472 610T495 599Q490 546 484 500T469 411Q499 412 529 414T590 420Q590 414 589 407T582 378Q529 373 505 372T460 369Q451
325 441 287T419 213Q462 214 501 216T578 223Q577 212 575 203T570 181Q524 176 484 174T405 170Z" />
<glyph unicode="$" glyph-name="dollar" horiz-adv-x="329" d="M189 46Q191 8 191 -16T188 -60Q177 -64 167 -64T141 -63Q146 -29 147 -5T148 47Q92 56 62 105T31 234Q46 238 60 240T86 241Q82 169 106 129T178 89Q217 89 238 112T259 179Q259 217 239 251T150
346Q77 409 54 451T30 542Q30 601 60 637T146 681Q141 710 139 731T138 767Q148 772 159 773T186 773Q185 755 185 733T187 681Q237 675 264 640T302 533Q292 528 280 525T254 521Q246 582 225 610T165 638Q127 638 106 615T85 548Q85 506 106 469T195 375Q269
310 291 270T314 185Q314 126 280 89T189 46Z" />
<glyph unicode="%" glyph-name="percent" horiz-adv-x="758" d="M497 778Q511 772 521 767T542 754Q466 563 386 390T177 -29Q171 -27 166 -25T156 -18Q152 -16 146 -11T137 -4Q241 196 318 364T497 778ZM40 523Q40 630 83 690T204 751Q262 751 295 703T328 573Q328
450 289 383T177 316Q115 316 78 374T40 523ZM275 546Q275 633 255 673T192 714Q148 714 121 664T93 530Q93 451 118 402T185 353Q226 353 250 405T275 546ZM430 197Q430 304 473 364T594 425Q652 425 685 377T718 247Q718 124 679 57T567 -10Q505 -10 468 48T430
197ZM665 220Q665 307 645 347T582 388Q538 388 511 338T483 204Q483 125 508 76T575 27Q616 27 640 79T665 220Z" />
<glyph unicode="&amp;" glyph-name="ampersand" horiz-adv-x="744" d="M358 679Q321 679 298 639T275 528Q275 502 277 477T284 427Q354 443 390 482T427 581Q427 628 409 653T358 679ZM95 189Q95 98 153 44T309 -10Q355 -10 396 7T473 59Q386 122 327 202T241
376Q174 357 135 308T95 189ZM685 2Q680 -10 670 -20T645 -36Q608 -21 576 -4T515 31Q474 -10 421 -32T310 -54Q187 -54 114 12T40 185Q40 269 89 328T232 413Q226 441 223 470T220 529Q220 618 258 669T364 721Q416 721 449 684T482 586Q482 515 434 466T292 393Q315
307 369 234T506 100Q531 138 544 183T558 279Q558 309 556 332T547 383Q559 386 573 386T604 385Q608 359 609 336T611 290Q611 226 596 172T549 72Q577 54 611 37T685 2Z" />
<glyph unicode="&apos;" glyph-name="quotesingle" horiz-adv-x="120" d="M61 738Q66 738 71 737T79 736Q81 686 79 634T68 501Q62 499 52 499T31 499Q32 578 31 629T25 735Q32 736 42 737T61 738Z" />
<glyph unicode="(" glyph-name="parenleft" horiz-adv-x="331" d="M321 761Q202 689 141 575T80 315Q80 172 140 61T317 -124Q301 -141 292 -148T275 -160Q151 -74 88 44T25 309Q25 466 89 590T279 797Q287 793 296 786T321 761Z" />
<glyph unicode=")" glyph-name="parenright" horiz-adv-x="336" d="M10 -124Q129 -51 192 65T256 322Q256 465 198 580T34 762Q50 779 59 786T76 798Q189 719 250 597T311 328Q311 176 244 50T52 -160Q44 -156 35 -149T10 -124Z" />
<glyph unicode="*" glyph-name="asterisk" horiz-adv-x="427" d="M233 476Q233 435 234 399T239 317Q232 316 222 315T203 314Q198 314 193 315T185 316Q184 349 185 384T192 477Q161 458 131 439T58 391Q57 392 49 404T37 423Q35 427 33 431T30 438Q56 455 86
471T171 513Q145 528 118 542T32 586Q38 600 41 607T48 620Q50 624 53 628T58 634Q91 616 122 597T194 549Q194 589 193 625T188 706Q195 707 205 708T224 709Q229 709 234 708T242 707Q243 675 242 640T236 546Q283 574 312 593T369 632Q370 631 378 619T390 600Q392
596 394 592T397 585Q374 570 347 556T254 510Q290 489 323 472T395 437Q389 423 386 416T379 403Q377 399 374 395T369 389Q340 404 311 422T233 476Z" />
<glyph unicode="+" glyph-name="plus" horiz-adv-x="341" d="M192 316Q191 278 189 249T184 194Q174 192 164 192T142 195Q146 228 148 257T150 316Q113 317 83 319T27 324Q27 335 28 344T32 366Q64 362 93 360T150 358Q150 384 149 413T144 477Q154 479 164 479T184
477Q187 452 189 424T192 358Q218 358 248 359T314 364Q314 353 313 343T310 324Q286 321 258 319T192 316Z" />
<glyph unicode="," glyph-name="comma" horiz-adv-x="114" d="M37 70Q49 71 62 71T92 68Q90 -2 77 -69T33 -220Q23 -218 14 -216T-5 -210Q14 -133 24 -68T37 70Z" />
<glyph unicode="-" glyph-name="hyphen" horiz-adv-x="264" d="M231 260Q168 254 117 255T30 266Q30 289 31 299T34 319Q59 314 93 312T159 309Q183 309 201 310T234 313Q234 294 234 283T231 260Z" />
<glyph unicode="." glyph-name="period" horiz-adv-x="149" d="M35 66Q57 71 76 71T114 69Q113 43 112 29T108 1Q88 -1 72 -1T38 1Q38 6 38 12T37 28Q36 43 36 50T35 66Z" />
<glyph unicode="/" glyph-name="slash" horiz-adv-x="465" d="M409 744Q418 740 426 735T450 720Q365 516 256 284T19 -199Q4 -194 -7 -189T-30 -174Q54 -30 157 186T409 744Z" />
<glyph unicode="0" glyph-name="zero" horiz-adv-x="490" d="M40 313Q40 484 101 578T272 673Q355 673 402 596T450 387Q450 189 396 85T241 -20Q152 -20 96 73T40 313ZM395 347Q395 492 362 560T258 629Q185 629 140 545T95 321Q95 187 136 106T247 24Q315 24
355 111T395 347Z" />
<glyph unicode="1" glyph-name="one" horiz-adv-x="313" d="M185 -43Q181 -44 176 -44T159 -44Q163 29 168 82T182 205Q195 312 213 411T252 593Q212 558 164 523T55 449Q43 460 37 468T25 488Q108 537 175 587T296 693Q309 685 315 681T328 670Q290 572 257 377T204
-38Q200 -40 195 -41T185 -43Z" />
<glyph unicode="2" glyph-name="two" horiz-adv-x="368" d="M358 21Q357 8 353 -4T343 -31Q229 -21 150 -9T5 21Q6 32 8 43T14 64Q166 180 230 275T295 480Q295 533 271 565T204 597Q162 597 131 555T87 439Q76 439 63 442T35 452Q53 542 98 591T205 641Q270 641
310 595T350 473Q350 374 277 265T64 48Q136 34 203 28T358 21Z" />
<glyph unicode="3" glyph-name="three" horiz-adv-x="377" d="M377 154Q377 58 331 1T209 -57Q134 -57 86 4T32 174Q43 178 56 180T85 185Q85 91 118 40T208 -12Q262 -12 292 27T322 138Q322 240 265 291T102 334Q99 352 99 358T98 370Q167 414 217 462T307 575Q200
566 135 556T8 528Q5 542 5 555T7 582Q105 600 190 609T356 620Q357 611 357 601T357 579Q324 518 283 471T178 375Q275 358 326 302T377 154Z" />
<glyph unicode="4" glyph-name="four" horiz-adv-x="478" d="M483 182Q482 169 479 157T471 134Q413 137 376 139T307 145Q305 103 304 56T303 -42Q298 -42 293 -42T279 -40Q274 -39 270 -38T260 -35Q259 12 259 32T258 69Q258 103 258 120T259 151Q210 157 157
165T37 186Q32 195 28 204T20 224Q113 357 168 472T275 752Q288 750 302 746T332 733Q281 590 219 465T81 229Q135 217 178 210T261 197Q265 256 271 307T287 404Q293 407 300 408T315 411Q323 412 331 412T345 409Q333 366 325 311T311 192Q348 189 390 187T483
182Z" />
<glyph unicode="5" glyph-name="five" horiz-adv-x="374" d="M348 183Q348 85 302 24T183 -37Q104 -37 58 24T5 198Q13 198 33 196T59 193Q59 102 90 55T182 8Q236 8 264 51T293 178Q293 260 257 307T155 355Q136 355 118 351T83 338Q74 344 68 350T57 365Q55
386 55 403T54 438Q54 496 60 556T75 660Q169 639 234 631T384 621Q383 608 379 594T368 566Q288 574 233 582T116 605Q105 543 101 487T100 383Q115 390 134 394T174 398Q255 398 301 341T348 183Z" />
<glyph unicode="6" glyph-name="six" horiz-adv-x="447" d="M255 378Q329 378 375 325T422 191Q422 83 371 17T233 -50Q144 -50 92 42T40 293Q40 482 100 586T267 691Q332 691 369 646T419 505Q406 499 393 495T365 488Q357 570 332 608T260 647Q188 647 142 553T95
302Q95 287 95 280T96 267Q123 321 163 349T255 378ZM103 189Q117 97 152 46T239 -6Q294 -6 330 44T367 164Q367 244 335 289T245 334Q200 334 163 296T103 189Z" />
<glyph unicode="7" glyph-name="seven" horiz-adv-x="350" d="M365 618Q245 439 182 310T57 -7Q41 -7 29 -5T2 2Q68 180 141 326T305 608Q200 605 133 609T-15 625Q-15 636 -14 648T-8 675Q104 657 176 653T344 653Q352 643 357 635T365 618Z" />
<glyph unicode="8" glyph-name="eight" horiz-adv-x="423" d="M393 225Q393 124 338 59T199 -6Q129 -6 82 44T35 170Q35 230 60 281T131 362Q92 384 69 426T45 520Q45 614 92 668T221 723Q287 723 332 677T378 560Q378 495 358 449T297 376Q340 354 366 313T393
225ZM213 679Q164 679 132 636T100 526Q100 465 130 428T212 390Q215 390 219 390T226 391Q270 397 296 436T323 536Q323 604 294 641T213 679ZM205 38Q262 38 300 88T338 216Q338 273 306 310T219 347Q166 347 128 300T90 181Q90 114 121 76T205 38Z" />
<glyph unicode="9" glyph-name="nine" horiz-adv-x="465" d="M103 480Q103 400 135 356T225 311Q275 311 314 354T369 471Q357 565 321 616T231 667Q176 667 140 614T103 480ZM430 382Q430 207 360 88T183 -31Q139 -31 103 -10T35 55Q43 69 51 79T69 101Q91 56
121 35T191 13Q267 13 321 116T375 367Q346 319 305 293T215 267Q144 267 96 324T48 466Q48 573 100 642T233 711Q325 711 377 624T430 382Z" />
<glyph unicode=":" glyph-name="colon" horiz-adv-x="149" d="M83 546Q95 546 101 546T114 544Q113 518 112 504T108 476Q88 474 72 474T38 476Q38 481 38 487T37 503Q36 518 36 525T35 541Q46 543 58 544T83 546ZM35 66Q57 71 76 71T114 69Q113 43 112 29T108
1Q88 -1 72 -1T38 1Q38 6 38 12T37 28Q36 43 36 50T35 66Z" />
<glyph unicode=";" glyph-name="semicolon" horiz-adv-x="149" d="M114 544Q113 518 112 504T108 476Q88 474 72 474T38 476Q38 481 38 487T37 503Q36 518 36 525T35 541Q46 543 58 544T83 546Q95 546 101 546T114 544ZM42 70Q54 71 68 71T99 68Q101 -1 86 -69T35
-220Q28 -219 21 -217T0 -210Q24 -117 33 -56T42 70Z" />
<glyph unicode="&lt;" glyph-name="less" horiz-adv-x="340" d="M308 218Q307 209 304 200T295 181Q210 214 147 248T31 322L34 357Q91 398 151 430T298 498Q300 492 304 481T311 461Q242 431 187 402T80 338Q118 310 171 282T308 218Z" />
<glyph unicode="=" glyph-name="equal" horiz-adv-x="341" d="M32 359Q32 370 33 379T37 401Q105 393 169 393T319 399Q319 388 318 378T315 359Q247 351 175 351T32 359ZM22 239Q22 250 23 259T27 281Q95 273 159 273T309 279Q309 268 308 258T305 239Q237 231
165 231T22 239Z" />
<glyph unicode="&gt;" glyph-name="greater" horiz-adv-x="340" d="M43 181Q41 186 37 198T30 219Q99 249 154 278T261 342Q223 370 170 398T33 462Q34 471 37 480T46 499Q131 466 194 432T310 358L307 323Q251 283 191 251T43 181Z" />
<glyph unicode="?" glyph-name="question" horiz-adv-x="353" d="M177 361V200Q168 199 159 199T140 200Q140 202 134 272T127 388Q196 405 232 451T268 571Q268 638 242 678T171 719Q120 719 93 672T65 538Q53 538 41 540T15 545Q22 655 62 709T177 763Q243 763
283 712T323 575Q323 499 285 443T177 361ZM191 64Q192 48 193 27T194 2Q186 0 178 0T163 -1Q159 -1 155 -1T137 1Q136 18 136 33T137 64Q153 66 165 66T191 64Z" />
<glyph unicode="@" glyph-name="at" horiz-adv-x="875" d="M634 -33Q586 -62 529 -77T411 -93Q248 -93 147 13T45 292Q45 488 153 603T446 718Q614 718 709 618T805 355Q805 235 752 160T617 85Q571 85 541 110T499 185Q481 140 454 118T388 96Q329 96 292 151T254
295Q254 403 302 468T428 533Q442 533 457 531T488 523Q488 530 488 536T488 550Q501 556 517 557T551 554Q545 473 543 416T540 312Q540 215 558 172T618 129Q676 129 713 192T750 357Q750 499 665 586T434 674Q285 674 193 573T100 305Q100 142 186 47T419 -49Q479
-49 525 -35T606 9Q613 2 618 -5T634 -33ZM309 304Q309 227 330 184T390 140Q425 140 450 170T491 258V259Q491 275 491 300T489 384Q489 424 489 444T488 481Q478 485 465 487T436 489Q380 489 345 438T309 304Z" />
<glyph unicode="A" glyph-name="A" horiz-adv-x="605" d="M582 -85Q570 -92 558 -96T526 -103Q510 3 495 84T462 233Q390 234 320 230T187 215Q166 162 139 105T77 -20Q63 -17 52 -12T25 8Q117 169 173 320T280 705Q313 702 323 701T343 698Q445 495 496 326T582
-85ZM314 636Q288 521 263 433T205 261Q260 269 323 274T451 280Q424 376 392 460T314 636Z" />
<glyph unicode="B" glyph-name="B" horiz-adv-x="562" d="M519 258Q519 143 429 62T209 -20Q174 -20 140 -11T84 12Q77 208 75 314T72 538Q72 550 72 563T72 606Q71 643 71 664T71 705Q109 722 152 731T240 740Q348 740 408 697T469 577Q469 524 439 484T348 417Q432
407 475 367T519 258ZM409 572Q409 631 367 663T247 696Q218 696 190 692T135 680Q130 615 128 548T127 403Q274 415 341 455T409 572ZM135 42Q154 34 175 30T218 25Q317 25 388 90T459 243Q459 314 418 348T294 382Q256 382 209 374T127 353Q128 336 128 318T128
265Q128 194 129 143T135 42Z" />
<glyph unicode="C" glyph-name="C" horiz-adv-x="535" d="M422 220Q437 220 447 218T472 210Q466 90 415 28T270 -35Q164 -35 106 48T48 285Q48 468 120 580T312 693Q397 693 436 637T470 464Q461 457 445 453T411 450Q419 555 394 600T302 646Q255 646 214 611T145
511Q127 467 118 413T108 296Q108 159 150 86T273 12Q345 12 384 68T422 220Z" />
<glyph unicode="D" glyph-name="D" horiz-adv-x="566" d="M522 445Q522 292 418 170T131 -12Q131 -12 128 -12T113 -9Q94 -7 88 -6T81 -5Q74 142 71 259T68 508Q68 550 69 596T71 678Q109 698 153 707T249 717Q382 717 452 647T522 445ZM134 652Q129 572 127 506T125
236Q125 170 126 124T129 35Q293 96 377 200T461 448Q461 557 404 613T234 670Q206 670 182 666T134 652Z" />
<glyph unicode="E" glyph-name="E" horiz-adv-x="505" d="M463 -14Q377 -26 302 -32T126 -41Q97 156 79 352T58 693Q192 716 271 724T440 735Q441 722 440 711T437 688Q355 687 278 680T118 657Q117 584 119 517T128 376Q262 397 304 402T390 412Q393 400 394
389T394 367Q318 361 263 354T132 333Q140 249 150 166T173 4Q268 7 332 14T461 36Q464 25 464 11T463 -14Z" />
<glyph unicode="F" glyph-name="F" horiz-adv-x="497" d="M151 325Q156 138 156 68T156 -74Q144 -76 129 -77T103 -77Q108 163 97 354T58 723Q174 732 256 743T439 774Q442 768 443 762T446 751Q447 744 447 738T447 723Q340 704 269 695T122 680Q132 609 138
544T147 418Q199 427 255 434T382 446Q385 434 386 423T387 400Q333 397 273 391T150 374Q150 369 150 364T151 349Q151 339 151 334T151 325Z" />
<glyph unicode="G" glyph-name="G" horiz-adv-x="556" d="M467 348Q465 251 478 162T520 -23Q513 -25 501 -26T475 -29Q461 6 450 43T429 122Q395 49 349 14T240 -21Q152 -21 100 66T48 306Q48 494 116 609T298 724Q376 724 420 660T462 488Q450 484 436 482T403
478Q402 576 372 626T283 677Q207 677 158 577T108 323Q108 183 145 105T247 27Q305 27 347 73T413 208Q409 236 406 268T400 341Q416 344 434 346T467 348Z" />
<glyph unicode="H" glyph-name="H" horiz-adv-x="589" d="M489 737Q498 554 504 328T510 -55Q499 -55 484 -53T454 -47Q454 31 453 139T448 352Q351 352 273 348T127 333Q128 246 130 163T138 12Q126 9 112 8T86 8Q77 176 73 346T68 709Q75 711 84 712T104 714Q113
714 120 713T135 710Q130 653 128 565T126 374Q199 387 277 393T447 400Q444 506 440 593T430 736Q443 740 450 741T466 742Q473 742 479 741T489 737Z" />
<glyph unicode="I" glyph-name="I" horiz-adv-x="219" d="M136 481Q136 205 135 132T131 -22Q124 -24 112 -25T83 -28Q86 163 83 338T69 670Q79 675 89 677T110 679Q114 679 118 679T130 677Q133 634 134 590T136 481Z" />
<glyph unicode="J" glyph-name="J" horiz-adv-x="445" d="M334 43Q314 -22 280 -55T197 -88Q132 -88 92 -24T38 164Q48 170 60 174T92 183Q107 60 130 10T200 -41Q251 -41 276 27T302 232Q302 336 295 444T270 711Q277 715 285 718T304 722Q311 723 319 724T336
725Q349 603 355 504T362 322Q362 226 355 159T334 43Z" />
<glyph unicode="K" glyph-name="K" horiz-adv-x="547" d="M533 -40Q522 -54 513 -62T491 -78Q419 44 358 122T202 290Q194 283 175 268T127 228Q129 153 134 87T150 -64Q123 -68 115 -68T100 -69Q82 77 75 186T68 440Q68 490 70 553T79 700Q92 702 101 703T117
704Q125 704 133 703T149 700Q137 622 132 543T126 343Q126 326 126 309T126 273Q237 371 297 450T430 681Q441 676 452 667T474 644Q414 533 361 461T238 323Q328 240 384 170T533 -40Z" />
<glyph unicode="L" glyph-name="L" horiz-adv-x="471" d="M454 -22Q456 -33 457 -48T458 -72Q366 -73 290 -78T117 -97Q90 106 79 296T73 666Q84 671 93 672T115 674Q120 674 126 674T137 672Q132 616 131 555T130 392Q132 271 139 169T163 -43Q235 -33 310 -28T454 -22Z" />
<glyph unicode="M" glyph-name="M" horiz-adv-x="724" d="M633 -49Q620 -54 606 -56T576 -58Q586 111 589 271T589 662Q525 557 475 440T378 175Q369 171 359 170T338 169Q296 313 245 428T125 654Q124 637 123 603T122 517Q122 404 134 275T170 4Q157 -1 143
-3T116 -4Q89 160 78 357T74 732Q90 740 104 745T131 754Q202 652 260 525T358 263Q394 382 448 502T579 754Q595 751 609 747T637 736Q643 603 643 410T633 -49Z" />
<glyph unicode="N" glyph-name="N" horiz-adv-x="616" d="M131 360Q132 299 136 223T153 -34Q142 -36 131 -37T106 -40Q85 202 77 358T69 682Q96 694 107 697T136 704Q249 560 330 422T480 120Q482 157 483 204T484 353Q484 496 480 592T467 745Q483 750 498 753T530
757Q534 693 535 644T537 549Q537 383 532 269T516 23Q508 21 498 20T471 18Q395 193 308 345T128 612Q127 553 129 461T131 360Z" />
<glyph unicode="O" glyph-name="O" horiz-adv-x="591" d="M319 733Q428 733 484 645T541 388Q541 215 469 98T274 -20Q174 -20 111 81T48 342Q48 512 124 622T319 733ZM276 27Q370 27 425 125T481 377Q481 534 440 609T312 685Q224 685 167 592T109 351Q109 211
154 119T276 27Z" />
<glyph unicode="P" glyph-name="P" horiz-adv-x="536" d="M123 237Q124 170 128 100T142 -68Q134 -70 117 -70T92 -67Q79 94 74 211T69 538Q69 576 71 631T76 721Q126 732 165 737T242 742Q364 742 430 691T497 547Q497 445 407 370T123 237ZM138 683Q130 597
127 520T123 357Q123 339 123 321T123 285Q279 327 358 391T437 542Q437 618 389 658T247 698Q218 698 192 695T138 683Z" />
<glyph unicode="Q" glyph-name="Q" horiz-adv-x="580" d="M568 -60Q559 -73 549 -83T528 -101Q493 -52 470 -21T425 33Q391 -3 350 -21T262 -40Q165 -40 105 46T44 278Q44 452 120 562T318 673Q421 673 476 590T531 357Q531 274 512 200T456 72Q474 52 496 26T568
-60ZM104 287Q104 157 146 82T263 7Q300 7 333 23T392 70Q372 91 349 111T295 157Q296 158 305 171T321 190Q356 163 378 145T418 109Q444 154 457 214T471 346Q471 484 431 554T311 625Q219 625 162 532T104 287Z" />
<glyph unicode="R" glyph-name="R" horiz-adv-x="549" d="M525 0Q519 -6 502 -14T474 -24Q421 97 379 173T280 326Q248 312 215 301T146 280Q143 200 139 130T129 -5Q119 -7 104 -7T82 -3Q88 115 89 158T91 248Q91 423 87 506T69 707Q112 737 166 753T274 770Q367
770 422 719T478 584Q478 507 441 449T326 348Q373 291 423 203T525 0ZM133 689Q141 599 144 532T147 395Q147 378 147 361T147 327Q285 360 352 420T419 570Q419 645 381 684T270 724Q233 724 198 715T133 689Z" />
<glyph unicode="S" glyph-name="S" horiz-adv-x="461" d="M378 279Q398 250 407 216T417 140Q417 60 368 10T240 -40Q143 -40 91 32T38 229Q50 236 65 240T96 246Q95 133 132 70T239 7Q292 7 324 43T357 137Q357 172 348 202T320 257Q307 275 288 293T226 342Q178
378 156 399T120 443Q100 473 91 507T81 584Q81 669 126 718T249 767Q321 767 360 725T418 578Q407 572 395 569T363 565Q353 647 326 683T246 720Q195 720 168 686T141 587Q141 551 150 521T178 465Q192 447 211 429T273 378Q321 343 342 322T378 279Z" />
<glyph unicode="T" glyph-name="T" horiz-adv-x="592" d="M355 33Q348 30 333 28T300 25Q306 191 297 376T265 724Q219 719 164 712T28 693Q25 706 24 720T24 744Q183 769 297 779T554 791Q557 785 558 779T561 764Q562 758 562 750T561 740Q492 739 436 737T328
730Q344 578 351 457T358 209Q358 167 358 124T355 33Z" />
<glyph unicode="U" glyph-name="U" horiz-adv-x="538" d="M427 705Q451 615 462 530T474 363Q474 138 416 29T235 -80Q145 -80 102 7T58 274Q58 365 72 464T108 630Q114 632 124 633T144 634Q149 634 154 634T166 632Q143 540 131 455T119 293Q119 120 148 45T246
-31Q326 -31 370 60T414 316Q414 420 403 505T365 694Q379 698 393 700T427 705Z" />
<glyph unicode="V" glyph-name="V" horiz-adv-x="549" d="M503 751Q477 505 429 331T266 -90Q254 -93 245 -94T222 -95Q149 70 101 245T26 615Q43 623 55 627T83 633Q102 467 143 305T250 -24Q341 192 383 363T446 760Q460 761 472 759T503 751Z" />
<glyph unicode="W" glyph-name="W" horiz-adv-x="715" d="M345 331Q324 235 294 143T219 -53Q205 -57 196 -59T179 -62Q103 176 70 326T20 660Q34 665 47 668T78 672Q88 517 117 371T205 33Q265 206 290 309T327 527Q339 530 352 532T380 536Q386 401 406 286T468
35Q539 215 578 372T636 710Q650 710 664 707T693 695Q663 478 618 318T489 -30Q475 -33 464 -34T440 -37Q398 93 377 175T345 331Z" />
<glyph unicode="X" glyph-name="X" horiz-adv-x="641" d="M569 8Q560 -2 549 -10T526 -24Q474 98 430 190T345 357Q272 264 201 183T52 23Q42 30 34 38T20 55Q113 153 184 236T319 402Q267 488 209 564T73 724Q89 738 102 747T131 762Q206 672 260 597T358 447Q411
520 456 591T541 737Q553 731 564 721T586 697Q543 625 494 553T385 401Q426 326 469 235T569 8Z" />
<glyph unicode="Y" glyph-name="Y" horiz-adv-x="504" d="M465 689Q387 381 316 218T144 -80Q131 -76 119 -71T96 -59Q141 4 178 65T244 188Q164 299 112 418T18 710Q35 717 50 721T82 727Q109 593 154 477T270 245Q313 344 344 458T399 713Q416 709 432 703T465 689Z" />
<glyph unicode="Z" glyph-name="Z" horiz-adv-x="585" d="M517 28Q516 14 512 -1T500 -34Q379 -33 256 -23T26 5Q25 19 26 31T29 53Q191 223 305 367T486 629Q379 639 286 651T98 681Q99 696 103 710T117 737Q199 720 283 706T555 664Q555 663 555 660T552 644Q549
631 549 628T548 623Q464 489 352 350T83 42Q200 28 310 25T517 28Z" />
<glyph unicode="[" glyph-name="bracketleft" horiz-adv-x="341" d="M328 -86Q329 -96 330 -108T331 -131Q286 -138 234 -140T125 -142Q91 91 75 306T60 753Q105 765 155 772T262 784Q263 774 263 763T262 739Q208 735 176 732T120 723Q114 498 125 318T170 -99Q208
-99 250 -96T328 -86Z" />
<glyph unicode="\" glyph-name="backslash" horiz-adv-x="465" d="M56 745Q47 741 39 736T15 721Q100 517 209 285T446 -198Q461 -193 472 -188T495 -173Q411 -29 308 187T56 745Z" />
<glyph unicode="]" glyph-name="bracketright" horiz-adv-x="313" d="M216 804Q239 670 242 426T229 -87Q183 -97 134 -103T27 -114Q26 -104 26 -93T27 -69Q74 -67 113 -63T177 -52Q194 151 191 356T166 762Q132 762 93 759T13 748Q12 758 11 770T10 793Q55 800
107 802T216 804Z" />
<glyph unicode="^" glyph-name="asciicircum" horiz-adv-x="377" d="M347 228Q341 226 330 222T310 215Q280 284 251 339T187 446Q159 408 131 355T67 218Q58 219 49 222T30 231Q63 316 97 379T171 495L206 492Q247 435 279 375T347 228Z" />
<glyph unicode="_" glyph-name="underscore" horiz-adv-x="360" d="M365 -95Q277 -103 196 -101T30 -86Q31 -68 32 -59T35 -41Q85 -49 133 -53T238 -57Q267 -57 299 -56T370 -51Q370 -60 369 -70T365 -95Z" />
<glyph unicode="`" glyph-name="grave" horiz-adv-x="260" d="M136 751Q139 713 149 673T177 580Q167 577 157 576T136 573Q110 619 95 662T74 748Q86 751 103 752T136 751Z" />
<glyph unicode="a" glyph-name="a" horiz-adv-x="435" d="M374 338Q374 271 356 163T313 -34Q302 -34 290 -32T264 -24Q268 -8 273 16T280 43Q259 26 232 17T175 8Q109 8 69 44T28 138Q28 202 83 235T243 269Q257 269 271 269T314 267Q315 279 315 293T315 341Q315
419 294 453T224 488Q175 488 142 446T106 340Q84 345 72 351T51 369Q62 437 114 485T233 533Q303 533 338 484T374 338ZM86 138Q86 99 112 76T180 52Q211 52 239 61T291 89Q301 136 305 168T312 232Q200 239 143 216T86 138Z" />
<glyph unicode="b" glyph-name="b" horiz-adv-x="427" d="M386 306Q386 152 327 61T167 -30Q135 -30 109 -19T61 14Q59 51 58 99T56 303Q56 423 61 539T75 721Q84 724 92 725T113 726Q117 726 121 726T141 722Q131 661 124 587T111 432Q137 473 171 493T249 513Q316
513 351 460T386 306ZM106 38Q120 26 135 21T171 15Q246 15 286 91T327 305Q327 386 303 427T230 468Q195 468 161 433T106 336Q105 285 105 267T104 234Q104 152 104 103T106 38Z" />
<glyph unicode="c" glyph-name="c" horiz-adv-x="408" d="M366 368Q352 361 338 358T307 355Q307 425 287 460T228 496Q168 496 125 407T82 203Q82 117 111 68T195 19Q235 19 268 51T326 146Q338 141 347 135T364 120Q348 59 297 17T187 -26Q110 -26 69 32T28
198Q28 347 84 444T226 541Q292 541 329 495T366 368Z" />
<glyph unicode="d" glyph-name="d" horiz-adv-x="437" d="M371 -36Q363 -39 352 -40T331 -42Q330 -17 329 16T325 92Q307 30 276 0T198 -30Q123 -30 79 43T34 236Q34 365 90 441T243 518Q260 518 279 516T315 508Q314 603 314 644T313 719Q320 723 329 725T346
727Q354 727 361 726T376 723Q372 669 370 575T368 127Q368 79 368 44T371 -36ZM89 245Q89 135 118 75T200 14Q249 14 280 67T320 224Q319 245 319 270T317 348Q317 397 317 421T315 466Q303 470 287 472T251 474Q178 474 134 413T89 245Z" />
<glyph unicode="e" glyph-name="e" horiz-adv-x="416" d="M97 309Q128 296 164 290T247 284Q259 284 272 285T292 289Q299 318 303 343T307 389Q307 437 291 457T239 478Q193 478 154 431T97 309ZM339 167Q351 165 363 158T385 141Q367 83 310 37T196 -10Q119
-10 75 54T31 225Q31 339 93 431T244 524Q299 524 330 488T362 388Q362 353 356 319T337 255Q318 249 292 246T230 243Q195 243 159 249T89 268Q87 256 87 245T86 221Q86 138 115 87T195 35Q239 35 281 73T339 167Z" />
<glyph unicode="f" glyph-name="f" horiz-adv-x="365" d="M148 386Q150 271 161 172T191 -9Q173 -15 160 -18T135 -21Q122 39 110 164T96 392Q78 395 62 398T34 407Q34 419 35 429T40 442Q49 440 61 439T96 435Q100 587 132 657T233 727Q282 727 310 693T339 604Q339
588 335 570T326 542Q313 542 301 544T278 551Q283 568 285 582T288 611Q288 643 273 662T233 682Q192 682 170 622T147 448Q147 444 147 440T147 430Q177 429 195 429T229 428Q246 428 263 429T297 434Q297 425 296 413T292 386Q281 384 264 383T224 382Q202 382
183 383T148 386Z" />
<glyph unicode="g" glyph-name="g" horiz-adv-x="430" d="M105 253Q105 159 131 105T203 51Q241 51 267 91T312 217Q309 289 301 346T275 459Q266 463 255 465T231 467Q167 467 136 414T105 253ZM369 169Q369 -32 320 -139T185 -247Q125 -247 86 -204T33 -87Q47
-78 60 -72T87 -62Q98 -136 122 -169T188 -202Q243 -202 275 -125T312 100Q292 51 266 28T202 4Q130 4 88 72T45 257Q45 374 95 443T230 513Q257 513 284 506T335 486Q350 420 359 333T369 169Z" />
<glyph unicode="h" glyph-name="h" horiz-adv-x="444" d="M393 323Q393 243 369 135T319 -32Q305 -29 294 -25T273 -15Q303 63 320 153T338 322Q338 408 321 442T261 476Q215 476 171 425T105 286Q106 230 111 154T122 33Q113 30 99 29T72 27Q65 126 61 214T57
378Q57 463 64 577T79 744Q92 751 100 753T116 755Q120 755 124 754T138 751Q142 749 145 749T150 747Q133 670 122 576T107 391Q137 452 179 487T264 523Q333 523 363 476T393 323Z" />
<glyph unicode="i" glyph-name="i" horiz-adv-x="189" d="M142 739Q153 738 160 736T176 729Q164 704 155 676T139 621Q132 620 120 620T95 621Q94 625 94 629T94 643Q94 666 99 692T112 735Q121 738 127 739T142 739ZM75 498Q84 503 93 505T111 508Q115 508 120
508T130 505Q110 393 104 252T108 -4Q102 -6 96 -7T82 -9Q78 -9 74 -9T66 -7Q49 117 52 253T75 498Z" />
<glyph unicode="j" glyph-name="j" horiz-adv-x="214" d="M107 737Q97 712 90 683T78 627Q70 625 59 624T36 622Q34 634 33 643T31 659Q29 682 31 701T39 738Q47 742 54 743T72 745Q85 744 92 743T107 737ZM144 189Q144 3 103 -95T-14 -194Q-53 -194 -84 -173T-140
-108Q-133 -95 -125 -84T-108 -65Q-89 -106 -68 -125T-19 -144Q33 -144 60 -65T88 167Q88 228 80 293T34 531Q48 537 64 538T100 537Q124 415 134 336T144 189Z" />
<glyph unicode="k" glyph-name="k" horiz-adv-x="424" d="M104 244Q104 173 108 102T122 -44Q106 -46 93 -47T71 -49Q60 76 56 151T52 306Q52 416 59 522T82 732Q100 735 114 735T141 731Q124 620 116 518T105 306Q187 376 235 433T340 579Q352 572 361 565T378
550Q322 463 280 413T174 309Q223 235 273 186T404 81Q393 61 386 52T370 37Q299 92 251 143T139 280Q136 278 133 276T124 268Q116 262 112 259T104 252Q104 250 104 248T104 244Z" />
<glyph unicode="l" glyph-name="l" horiz-adv-x="182" d="M118 -55Q111 -57 95 -59T68 -61Q52 168 51 349T62 734Q69 738 78 740T95 742Q103 742 110 741T125 738Q108 574 106 368T118 -55Z" />
<glyph unicode="m" glyph-name="m" horiz-adv-x="678" d="M106 180Q106 127 108 64T114 -27Q105 -31 92 -33T66 -35Q61 66 57 233T52 519Q60 523 69 525T88 527Q100 527 107 527T121 524Q118 501 116 471T112 405Q142 453 178 478T256 503Q293 503 316 486T352
432Q386 495 425 526T507 558Q565 558 591 514T617 373Q617 286 601 178T560 -19Q547 -18 533 -15T510 -7Q537 101 549 192T562 377Q562 447 547 477T495 507Q460 507 425 473T363 375Q365 362 365 348T366 318Q366 247 354 158T327 12Q314 13 300 16T277 24Q296
126 303 193T311 322Q311 392 296 422T244 452Q206 452 169 420T109 331Q108 291 107 252T106 180Z" />
<glyph unicode="n" glyph-name="n" horiz-adv-x="437" d="M106 180Q106 127 108 64T114 -27Q105 -31 92 -33T66 -35Q61 66 57 233T52 519Q60 523 69 525T88 527Q95 527 103 527T120 524Q120 522 117 480T113 409Q146 466 183 494T261 523Q322 523 349 479T376
338Q376 259 364 163T337 12Q324 13 310 16T287 24Q305 123 313 197T321 342Q321 411 304 441T249 472Q211 472 174 435T109 333Q108 293 107 254T106 180Z" />
<glyph unicode="o" glyph-name="o" horiz-adv-x="431" d="M31 244Q31 372 86 452T230 533Q304 533 347 475T390 317Q390 171 338 81T200 -10Q123 -10 77 61T31 244ZM331 277Q331 384 303 436T217 488Q164 488 125 419T86 251Q86 159 119 97T208 35Q257 35 294
105T331 277Z" />
<glyph unicode="p" glyph-name="p" horiz-adv-x="433" d="M118 80Q130 66 144 60T177 53Q240 53 286 139T333 352Q333 419 310 458T248 497Q202 497 168 455T112 331Q112 321 112 311T112 290Q112 231 113 179T118 80ZM122 21Q126 -35 132 -89T150 -210Q137 -214
125 -216T100 -218Q83 -92 72 64T61 348Q61 407 63 454T70 547Q81 553 92 555T116 558Q123 558 128 558T139 555Q131 524 126 496T118 436Q144 492 183 522T268 553Q324 553 358 499T392 355Q392 209 329 110T177 10Q160 10 147 12T122 21Z" />
<glyph unicode="q" glyph-name="q" horiz-adv-x="471" d="M364 -236Q359 -238 350 -239T334 -241Q330 -241 328 -241T317 -238Q314 -215 311 -126T307 51Q285 0 257 -25T191 -50Q124 -50 83 19T41 196Q41 339 103 424T272 509Q286 509 305 506T341 498Q343 512
346 525T352 553Q361 558 369 559T389 561Q397 561 405 560T420 557Q381 421 367 219T364 -236ZM96 197Q96 106 123 51T193 -5Q237 -5 263 31T308 151Q310 227 317 306T334 451Q321 458 304 461T263 464Q189 464 143 393T96 197Z" />
<glyph unicode="r" glyph-name="r" horiz-adv-x="332" d="M127 -3Q122 -5 116 -6T101 -9Q94 -10 89 -10T79 -8Q55 122 47 258T46 542Q52 545 59 546T83 547Q87 547 91 547T108 543Q102 494 99 463T95 404Q117 484 156 532T236 580Q273 580 289 554T306 470Q306
457 305 442T303 411Q296 409 287 408T259 407Q261 423 262 438T263 467Q263 501 255 516T230 532Q193 532 156 459T96 266Q99 212 106 147T127 -3Z" />
<glyph unicode="s" glyph-name="s" horiz-adv-x="352" d="M206 280Q275 229 296 194T318 115Q318 48 279 4T177 -40Q109 -40 67 12T25 149Q40 153 52 154T77 155Q75 84 102 44T179 4Q218 4 240 31T263 104Q263 141 244 171T161 250Q89 304 67 342T44 427Q44 488
77 522T171 557Q227 557 258 522T303 408Q292 404 281 401T258 396Q250 457 229 485T169 513Q136 513 118 492T99 433Q99 394 119 362T206 280Z" />
<glyph unicode="t" glyph-name="t" horiz-adv-x="356" d="M266 203Q278 202 290 199T311 191Q308 106 279 59T201 11Q144 11 117 80T89 295Q89 345 92 393T102 489Q80 491 62 493T26 499Q27 509 29 519T36 541Q56 537 74 534T108 530Q114 564 121 597T136 663Q150
662 163 660T195 651Q185 619 177 588T163 526Q195 525 232 526T315 531Q315 522 313 512T308 491Q265 487 227 486T155 486Q147 438 143 388T139 286Q139 174 156 115T206 56Q236 56 250 91T266 203Z" />
<glyph unicode="u" glyph-name="u" horiz-adv-x="386" d="M177 -10Q110 -10 76 61T41 271Q41 341 52 409T80 510Q86 512 92 513T106 515Q111 515 116 514T127 510Q111 462 103 400T94 261Q94 163 118 99T185 35Q236 35 263 109T290 320Q290 360 286 402T278 461Q289
466 305 469T335 472Q340 450 342 419T345 355Q345 178 303 84T177 -10Z" />
<glyph unicode="v" glyph-name="v" horiz-adv-x="421" d="M385 510Q348 353 311 253T205 12Q202 11 192 11T165 10Q135 166 97 298T11 546Q24 554 39 559T69 565Q108 457 137 350T197 91Q251 210 285 322T333 530Q346 528 359 523T385 510Z" />
<glyph unicode="w" glyph-name="w" horiz-adv-x="633" d="M422 -28Q413 -31 400 -33T379 -35Q361 85 342 174T296 344Q273 251 248 179T184 19Q172 15 160 13T137 10Q86 145 58 268T16 536Q26 541 38 543T66 547Q79 404 101 294T162 76Q200 162 225 251T269 454Q280
458 290 459T313 461Q346 374 371 268T412 48Q465 168 499 281T548 492Q560 490 573 485T602 470Q565 313 528 213T422 -28Z" />
<glyph unicode="x" glyph-name="x" horiz-adv-x="471" d="M440 2Q428 -7 417 -13T397 -23Q367 47 332 116T258 253Q211 193 158 134T35 5Q25 11 17 19T1 37Q63 96 121 161T232 296Q196 354 157 409T75 518Q93 530 108 538T137 552Q174 496 206 444T269 340Q306
392 338 442T399 543Q413 533 425 518T440 500Q400 441 365 391T295 295Q333 228 368 157T440 2Z" />
<glyph unicode="y" glyph-name="y" horiz-adv-x="421" d="M360 199Q360 -2 313 -109T186 -217Q131 -217 94 -174T44 -57Q58 -48 71 -42T98 -32Q109 -107 130 -139T189 -172Q237 -172 266 -104T302 98Q279 59 250 39T185 19Q120 19 81 80T41 245Q41 313 50 371T92
530Q105 529 119 526T142 518Q117 427 108 370T98 246Q98 167 124 119T197 70Q229 70 256 99T304 188Q303 285 294 357T263 499Q275 511 292 515T326 516Q341 450 350 363T360 199Z" />
<glyph unicode="z" glyph-name="z" horiz-adv-x="422" d="M367 37Q367 28 365 19T352 -14Q253 -13 177 -6T17 21Q16 35 16 44T18 63Q109 188 182 277T335 450Q265 464 210 472T68 489Q70 504 72 512T79 537Q168 529 233 517T391 478Q391 468 390 457T385 438Q295
343 224 258T65 54Q150 41 218 38T367 37Z" />
<glyph unicode="{" glyph-name="braceleft" horiz-adv-x="285" d="M240 -151Q226 -158 212 -161T176 -164Q125 -164 93 -129T61 -39Q61 -7 70 22T103 90Q135 144 144 168T154 215Q154 248 135 270T85 292Q73 292 64 291T44 288Q40 307 40 330T43 369Q53 366 61
365T80 364Q112 364 130 385T149 442Q149 459 144 475T98 559Q75 598 66 627T56 688Q56 743 88 778T171 813Q193 813 207 810T235 800Q236 789 233 778T223 757Q210 763 200 765T175 768Q146 768 129 747T111 688Q111 663 119 638T155 568Q182 522 190 497T199
447Q199 403 178 373T116 330Q159 320 181 289T204 210Q204 185 196 159T160 86Q133 38 125 12T116 -39Q116 -76 133 -97T180 -119Q195 -119 205 -117T228 -108Q233 -116 236 -127T240 -151Z" />
<glyph unicode="|" glyph-name="bar" horiz-adv-x="264" d="M168 -165Q161 -167 146 -169T120 -171Q110 21 105 250T100 714Q113 720 129 723T163 725Q154 558 156 299T168 -165Z" />
<glyph unicode="}" glyph-name="braceright" horiz-adv-x="310" d="M187 91Q210 52 219 23T227 -39Q225 -94 193 -128T109 -161Q86 -160 72 -157T45 -147Q44 -135 47 -124T58 -104Q72 -111 82 -113T106 -116Q135 -117 153 -96T172 -37Q173 -12 165 13T131 84Q104
130 96 155T89 205Q90 249 112 279T174 321Q132 332 110 364T89 443Q90 468 98 494T136 568Q164 615 172 640T182 691Q183 728 166 749T120 772Q104 772 94 770T72 762Q67 771 64 782T61 805Q75 812 89 815T125 817Q176 816 207 780T237 689Q236 657 227 629T192
561Q159 509 149 484T139 436Q138 403 157 381T206 358Q223 358 231 358T247 361Q251 341 251 318T246 280Q233 284 226 285T209 286Q178 287 159 266T139 209Q139 192 144 175T187 91Z" />
<glyph unicode="~" glyph-name="asciitilde" horiz-adv-x="328" d="M173 342Q196 333 205 331T222 328Q242 328 251 339T260 369Q271 370 279 369T299 362Q302 330 282 309T228 288Q214 288 197 292T148 308Q126 317 117 319T100 322Q80 322 72 313T65 282Q58
281 50 282T29 289Q26 321 45 341T98 362Q111 362 127 358T173 342Z" />
<glyph unicode="&#xa0;" glyph-name="uni00A0" horiz-adv-x="220" />
<glyph unicode="&#xa1;" glyph-name="exclamdown" horiz-adv-x="199" d="M91 553Q95 553 99 553T117 551Q118 535 118 519T117 488Q101 487 89 487T63 488Q62 504 61 525T60 550Q68 552 76 552T91 553ZM116 350Q123 222 126 116T129 -117Q129 -142 129 -155T128
-176Q116 -181 108 -183T90 -185Q85 -185 81 -185T65 -183Q75 -69 77 61T75 351Q79 352 83 352T92 353Q99 353 104 353T116 350Z" />
<glyph unicode="&#xa2;" glyph-name="cent" horiz-adv-x="411" d="M381 194Q366 135 313 91T199 47Q183 47 168 50T140 58Q132 33 121 7T95 -47Q81 -47 69 -44T46 -34Q64 -1 76 27T100 83Q70 111 55 158T40 271Q40 419 97 516T243 614Q261 614 277 611T307 600Q317
632 326 655T345 695Q355 695 365 692T391 680Q376 651 364 624T341 572Q359 549 368 516T378 441Q364 434 350 431T319 428Q319 498 299 533T240 569Q180 569 137 480T94 276Q94 189 123 141T207 92Q246 92 278 123T338 219Q350 218 363 210T381 194Z" />
<glyph unicode="&#xa3;" glyph-name="sterling" horiz-adv-x="404" d="M181 9Q153 13 140 14T116 15Q99 15 81 11T39 -4Q33 6 30 15T27 35Q44 43 63 48T104 55Q137 77 152 102T167 162Q167 186 162 204T143 243Q114 242 85 242T28 244Q25 267 25 273T28 286Q49
284 71 283T116 281Q74 339 58 385T41 478Q41 562 89 617T212 673Q293 673 332 613T367 436Q355 434 342 435T316 440Q320 535 294 582T211 629Q158 629 127 589T96 480Q96 452 101 426T117 375Q122 363 129 351T172 283Q210 284 255 288T354 301Q354 294 354 290T353
283Q351 272 351 268T349 261Q307 255 268 251T193 245Q202 225 206 207T211 168Q211 134 197 105T154 52Q190 49 212 48T244 46Q277 46 313 50T385 61Q392 47 393 36T393 6Q342 0 296 0T181 9Z" />
<glyph unicode="&#xa4;" glyph-name="currency" horiz-adv-x="566" d="M404 373Q404 459 376 505T295 551Q236 551 200 496T164 351Q164 269 197 216T281 162Q332 162 368 224T404 373ZM409 204Q385 164 351 144T275 123Q241 123 212 138T161 181Q140 152 115
124T62 69Q50 73 40 80T20 98Q55 130 83 160T137 224Q126 250 120 280T114 343Q114 393 124 434T156 509Q128 534 104 562T58 619Q62 630 70 639T91 658Q117 620 138 595T185 545Q208 567 237 578T300 590Q332 590 360 578T409 541Q431 572 455 599T503 650Q512
647 520 640T541 620Q509 592 483 564T433 502Q443 481 448 455T454 398Q454 354 448 316T428 244Q460 216 487 187T536 128Q531 120 523 112T501 94Q471 136 453 157T409 204Z" />
<glyph unicode="&#xa5;" glyph-name="yen" horiz-adv-x="456" d="M231 -43Q220 -45 209 -46T186 -47Q190 11 192 60T196 156Q159 156 124 158T53 164Q53 182 54 190T57 206Q95 202 128 200T196 196Q196 231 196 248T195 281Q166 281 134 283T58 289Q58 307 59
315T62 331Q96 327 125 325T181 322Q149 409 114 481T22 641Q25 644 29 647T40 654Q44 656 49 658T65 666Q117 577 150 505T221 324Q279 420 315 499T384 678Q393 677 401 674T426 661Q401 580 365 504T263 322Q286 323 313 324T404 332Q404 328 404 324T402 313Q401
309 400 305T397 292Q345 287 310 285T245 281Q245 260 245 239T245 196Q286 198 323 200T399 207Q399 204 399 201T397 187Q396 183 395 178T392 167Q356 163 321 161T245 156Q243 107 240 58T231 -43Z" />
<glyph unicode="&#xa6;" glyph-name="brokenbar" horiz-adv-x="268" d="M163 725Q160 655 158 567T156 376Q144 373 131 372T102 371Q101 433 101 504T100 714Q113 720 129 723T163 725ZM168 -165Q161 -167 146 -169T120 -171Q115 -80 111 19T105 222Q116 224
129 224T157 221Q158 132 161 35T168 -165Z" />
<glyph unicode="&#xa7;" glyph-name="section" horiz-adv-x="347" d="M165 358Q125 349 104 325T82 265Q82 228 102 200T172 139Q212 148 233 172T255 232Q255 269 235 297T165 358ZM302 -46Q302 -101 266 -141T176 -181Q115 -181 81 -145T35 -32Q46 -26 57 -23T80
-20Q88 -81 110 -109T173 -137Q207 -137 227 -115T247 -55Q247 -10 225 23T143 96Q77 141 54 177T30 258Q30 302 53 335T123 388Q82 420 64 455T45 536Q45 595 82 635T174 676Q233 676 266 640T312 527Q302 521 291 518T267 515Q259 576 237 604T177 632Q140 632
120 609T100 545Q100 500 121 468T194 401Q260 356 283 320T307 239Q307 195 283 162T214 109Q260 74 281 38T302 -46Z" />
<glyph unicode="&#xa8;" glyph-name="dieresis" horiz-adv-x="260" d="M347 744Q358 743 365 741T381 734Q369 709 360 681T344 626Q337 625 325 625T300 626Q299 630 299 634T299 648Q299 671 304 697T317 740Q326 743 332 744T347 744ZM195 744Q206 743 213
741T229 734Q217 709 208 681T192 626Q185 625 173 625T148 626Q147 630 147 634T147 648Q147 671 152 697T165 740Q174 743 180 744T195 744Z" />
<glyph unicode="&#xa9;" glyph-name="copyright" horiz-adv-x="725" d="M390 698Q529 698 604 605T680 345Q680 181 593 87T355 -8Q217 -8 131 83T45 322Q45 494 139 596T390 698ZM363 36Q489 36 557 117T625 347Q625 491 560 572T378 654Q263 654 182 561T100
335Q100 197 170 117T363 36ZM440 288Q453 289 463 287T481 281Q478 218 447 184T361 150Q302 150 270 194T237 318Q237 416 279 477T390 539Q437 539 460 509T482 418Q473 412 461 410T433 407Q436 457 424 480T381 503Q344 503 318 454T291 329Q291 260 311 224T370
187Q405 187 423 214T440 288Z" />
<glyph unicode="&#xaa;" glyph-name="ordfeminine" horiz-adv-x="237" d="M211 633Q211 597 201 539T178 431Q169 431 159 433T137 438Q139 445 141 456T144 469Q133 462 119 458T89 454Q51 454 28 473T5 526Q5 561 35 579T122 598Q131 598 139 598T161 596Q161
603 161 609T161 623Q161 667 151 686T118 706Q95 706 80 686T64 632Q47 634 36 640T19 656Q25 691 55 715T124 739Q167 739 189 712T211 633ZM56 524Q56 506 68 495T100 484Q114 484 126 488T150 500Q154 519 156 536T160 571Q108 574 82 562T56 524Z" />
<glyph unicode="&#xab;" glyph-name="guillemotleft" horiz-adv-x="448" d="M418 109Q406 92 398 84T381 70Q324 113 282 160T207 264Q250 290 293 333T375 433Q392 421 400 413T414 396Q381 352 345 316T266 251Q293 213 332 177T418 109ZM221 109Q209 92 201
84T184 70Q127 113 85 160T10 264Q53 290 96 333T178 433Q195 421 203 413T217 396Q184 352 148 316T69 251Q96 213 135 177T221 109Z" />
<glyph unicode="&#xac;" glyph-name="logicalnot" horiz-adv-x="341" d="M312 399Q316 363 316 324T310 237Q299 237 290 238T268 242Q273 279 274 304T273 355Q212 350 149 351T25 359Q25 370 26 379T30 401Q98 393 162 393T312 399Z" />
<glyph unicode="&#xad;" glyph-name="uni00AD" horiz-adv-x="0" />
<glyph unicode="&#xae;" glyph-name="registered" horiz-adv-x="725" d="M390 698Q529 698 604 605T680 345Q680 181 593 87T355 -8Q217 -8 131 83T45 322Q45 494 139 596T390 698ZM100 335Q100 197 170 117T363 36Q489 36 557 117T625 347Q625 491 560 572T378
654Q263 654 182 561T100 335ZM511 155Q504 148 491 142T465 132Q436 199 415 238T366 315Q351 309 337 304T310 296Q309 259 307 221T301 146Q291 145 279 146T258 149Q260 179 261 204T262 263Q262 348 259 401T249 523Q272 540 303 550T364 560Q419 560 451
532T483 457Q483 418 464 388T405 334Q431 305 457 260T511 155ZM305 513Q308 465 309 430T311 360Q311 353 311 346T311 332Q373 348 402 376T431 449Q431 486 412 506T359 526Q345 526 332 523T305 513Z" />
<glyph unicode="&#xaf;" glyph-name="overscore" horiz-adv-x="260" d="M222 641Q162 635 115 637T36 649Q35 660 36 673T39 698Q82 689 130 688T223 692Q224 680 224 669T222 641Z" />
<glyph unicode="&#xb0;" glyph-name="degree" horiz-adv-x="239" d="M10 629Q10 679 42 709T128 740Q174 740 201 715T229 648Q229 590 198 557T114 523Q67 523 39 552T10 629ZM179 639Q179 669 164 685T123 702Q94 702 75 681T56 628Q56 599 72 582T117 564Q143
564 161 585T179 639Z" />
<glyph unicode="&#xb1;" glyph-name="plusminus" horiz-adv-x="340" d="M187 316Q186 278 184 249T179 194Q169 192 159 192T137 195Q141 228 143 257T145 316Q108 317 78 319T22 324Q22 335 23 344T27 366Q59 362 88 360T145 358Q145 384 144 413T139 477Q149
479 159 479T179 477Q182 452 184 424T187 358Q213 358 243 359T309 364Q309 353 308 343T305 324Q281 321 253 319T187 316ZM21 122Q21 133 22 142T26 164Q94 156 158 156T308 162Q308 151 307 141T304 122Q236 114 164 114T21 122Z" />
<glyph unicode="&#xb2;" glyph-name="twosuperior" horiz-adv-x="254" d="M244 338Q243 327 241 317T233 294Q153 300 96 308T-4 328Q-3 339 -1 348T3 364Q104 437 147 494T190 615Q190 646 176 664T136 682Q110 682 91 657T63 586Q50 586 38 588T14 596Q27 654
59 685T137 717Q184 717 213 688T243 609Q243 550 195 485T53 352Q99 345 142 342T244 338Z" />
<glyph unicode="&#xb3;" glyph-name="threesuperior" horiz-adv-x="270" d="M266 409Q266 349 232 312T144 274Q91 274 58 312T21 417Q31 421 42 423T70 426Q70 371 90 340T145 309Q177 309 195 332T213 396Q213 456 178 486T76 513Q74 525 73 533T72 544Q115
570 146 598T203 662Q141 658 97 651T10 634Q8 645 8 656T8 677Q69 689 130 696T250 704Q253 693 254 684T254 665Q232 628 205 600T138 543Q200 532 233 498T266 409Z" />
<glyph unicode="&#xb4;" glyph-name="acute" horiz-adv-x="260" d="M175 746Q170 703 155 660T113 571Q102 572 92 573T72 578Q90 630 100 670T113 749Q128 751 145 750T175 746Z" />
<glyph unicode="&#xb5;" glyph-name="uni00B5" horiz-adv-x="421" d="M80 51Q84 -20 91 -83T106 -193Q100 -194 93 -194T74 -195Q64 -195 55 -193T38 -187Q38 -8 39 66T44 212Q47 288 59 376T83 510Q96 509 110 506T133 498Q115 399 107 325T99 180Q99 111 116
81T171 50Q211 50 249 89T314 197Q316 302 313 394T301 549Q310 552 325 554T354 557Q359 456 363 289T368 3Q360 -1 351 -3T332 -5Q327 -5 323 -5T305 -2Q307 18 308 46T312 121Q278 60 240 30T159 -1Q132 -1 113 12T80 51Z" />
<glyph unicode="&#xb6;" glyph-name="paragraph" horiz-adv-x="626" d="M549 724Q559 413 554 209T527 -272Q516 -273 505 -273T479 -273Q503 104 505 265T494 693Q487 696 478 698T450 706Q461 356 456 174T429 -272Q417 -274 404 -274T381 -273Q394 -67 398
42T404 263Q235 315 155 390T74 571Q74 661 141 713T329 765Q385 765 433 756T549 724Z" />
<glyph unicode="&#xb7;" glyph-name="middot" horiz-adv-x="149" d="M35 272Q57 277 76 277T114 275Q113 249 112 235T108 207Q88 205 72 205T38 207Q38 212 38 218T37 234Q36 249 36 256T35 272Z" />
<glyph unicode="&#xb8;" glyph-name="cedilla" horiz-adv-x="261" d="M224 -132Q224 -173 196 -199T121 -225Q84 -225 59 -207T20 -151Q33 -142 41 -138T58 -130Q66 -154 82 -168T119 -182Q143 -182 157 -170T171 -135Q171 -117 158 -105T125 -92Q114 -92 106
-94T88 -102Q80 -96 72 -88T61 -75Q75 -54 83 -34T94 9L141 -1Q139 -16 135 -29T123 -57Q133 -56 136 -56T143 -55Q180 -55 202 -76T224 -132Z" />
<glyph unicode="&#xb9;" glyph-name="onesuperior" horiz-adv-x="220" d="M138 277Q131 275 126 274T116 273Q110 272 105 272T95 273Q97 310 99 340T107 412Q113 471 124 533T149 651Q119 628 91 609T32 572Q21 581 15 589T4 608Q57 636 103 668T189 735Q201
729 207 725T219 715Q194 654 172 531T138 277Z" />
<glyph unicode="&#xba;" glyph-name="ordmasculine" horiz-adv-x="222" d="M5 579Q5 649 38 693T125 737Q168 737 192 707T217 623Q217 545 185 495T100 445Q57 445 31 482T5 579ZM165 599Q165 652 153 677T114 703Q90 703 73 669T55 585Q55 539 70 509T110 479Q132
479 148 514T165 599Z" />
<glyph unicode="&#xbb;" glyph-name="guillemotright" horiz-adv-x="448" d="M438 264Q406 208 364 161T264 70Q255 76 247 84T227 109Q274 141 313 177T379 251Q337 280 301 316T231 396Q237 405 245 413T270 433Q308 377 351 334T438 264ZM241 264Q209 208 167
161T67 70Q58 76 50 84T30 109Q77 141 116 177T182 251Q140 280 104 316T34 396Q40 405 48 413T73 433Q111 377 154 334T241 264Z" />
<glyph unicode="&#xbc;" glyph-name="onequarter" horiz-adv-x="656" d="M144 298Q137 296 132 295T122 294Q116 293 111 293T101 294Q103 331 105 361T113 433Q119 492 130 554T155 672Q125 649 97 630T38 593Q27 602 21 610T10 629Q63 657 109 689T195 756Q207
750 213 746T225 736Q200 675 178 552T144 298ZM433 778Q447 772 457 767T478 754Q402 563 322 390T113 -29Q107 -27 102 -25T92 -18Q88 -16 82 -11T73 -4Q177 196 254 364T433 778ZM536 97Q534 51 533 28T532 -15Q528 -16 523 -16T507 -16Q502 -15 498 -15T490
-13Q489 16 489 28T488 51Q488 72 488 82T489 101Q447 106 409 111T335 123Q332 128 329 134T323 151Q384 236 420 307T489 482Q500 481 512 478T542 468Q508 379 469 303T382 160Q411 154 438 150T491 142Q495 181 499 210T508 263Q513 265 520 266T537 269Q543
269 549 269T563 267Q556 244 550 212T540 136Q566 134 592 133T646 130Q645 118 643 108T636 90Q619 91 600 92T536 97Z" />
<glyph unicode="&#xbd;" glyph-name="onehalf" horiz-adv-x="630" d="M144 298Q137 296 132 295T122 294Q116 293 111 293T101 294Q103 331 105 361T113 433Q119 492 130 554T155 672Q125 649 97 630T38 593Q27 602 21 610T10 629Q63 657 109 689T195 756Q207
750 213 746T225 736Q200 675 178 552T144 298ZM425 1035Q439 1029 449 1024T470 1011Q394 820 314 647T105 228Q99 230 94 232T84 239Q80 241 74 246T65 253Q169 453 246 621T425 1035ZM594 46Q593 35 591 25T583 2Q503 8 446 16T346 36Q347 47 349 56T353 72Q454
145 497 202T540 323Q540 354 526 372T486 390Q460 390 441 365T413 294Q400 294 388 296T364 304Q377 362 409 393T487 425Q534 425 563 396T593 317Q593 258 545 193T403 60Q449 53 492 50T594 46Z" />
<glyph unicode="&#xbe;" glyph-name="threequarters" horiz-adv-x="703" d="M512 778Q526 772 536 767T557 754Q481 563 401 390T192 -29Q186 -27 181 -25T171 -18Q167 -16 161 -11T152 -4Q256 196 333 364T512 778ZM284 460Q284 400 250 363T162 325Q109 325
76 363T39 468Q49 472 60 474T88 477Q88 422 108 391T163 360Q195 360 213 383T231 447Q231 507 196 537T94 564Q92 576 91 584T90 595Q133 621 164 649T221 713Q159 709 115 702T28 685Q26 696 26 707T26 728Q87 740 148 747T268 755Q271 744 272 735T272 716Q250
679 223 651T156 594Q218 583 251 549T284 460ZM593 97Q591 51 590 28T589 -15Q585 -16 580 -16T564 -16Q559 -15 555 -15T547 -13Q546 16 546 28T545 51Q545 72 545 82T546 101Q504 106 466 111T392 123Q389 128 386 134T380 151Q441 236 477 307T546 482Q557
481 569 478T599 468Q565 379 526 303T439 160Q468 154 495 150T548 142Q552 181 556 210T565 263Q570 265 577 266T594 269Q600 269 606 269T620 267Q613 244 607 212T597 136Q623 134 649 133T703 130Q702 118 700 108T693 90Q676 91 657 92T593 97Z" />
<glyph unicode="&#xbf;" glyph-name="questiondown" horiz-adv-x="343" d="M162 488Q161 504 160 525T159 550Q167 552 175 552T190 553Q194 553 198 553T216 551Q217 535 217 519T216 488Q200 487 188 487T162 488ZM338 7Q331 -103 291 -157T176 -211Q110 -211
70 -160T30 -23Q30 53 68 109T176 191V352Q185 353 194 353T213 352Q213 350 219 280T226 164Q157 147 121 101T85 -19Q85 -86 111 -126T182 -167Q233 -167 260 -120T288 14Q300 14 312 12T338 7Z" />
<glyph unicode="&#xc0;" glyph-name="Agrave" horiz-adv-x="605" d="M582 -85Q570 -92 558 -96T526 -103Q510 3 495 84T462 233Q390 234 320 230T187 215Q166 162 139 105T77 -20Q63 -17 52 -12T25 8Q117 169 173 320T280 705Q313 702 323 701T343 698Q445 495
496 326T582 -85ZM314 636Q288 521 263 433T205 261Q260 269 323 274T451 280Q424 376 392 460T314 636ZM288 926Q291 888 301 848T329 755Q319 752 309 751T288 748Q262 794 247 837T226 923Q238 926 255 927T288 926Z" />
<glyph unicode="&#xc1;" glyph-name="Aacute" horiz-adv-x="605" d="M582 -85Q570 -92 558 -96T526 -103Q510 3 495 84T462 233Q390 234 320 230T187 215Q166 162 139 105T77 -20Q63 -17 52 -12T25 8Q117 169 173 320T280 705Q313 702 323 701T343 698Q445 495
496 326T582 -85ZM314 636Q288 521 263 433T205 261Q260 269 323 274T451 280Q424 376 392 460T314 636ZM395 922Q390 879 375 836T333 747Q322 748 312 749T292 754Q310 806 320 846T333 925Q348 927 365 926T395 922Z" />
<glyph unicode="&#xc2;" glyph-name="Acircumflex" horiz-adv-x="605" d="M582 -85Q570 -92 558 -96T526 -103Q510 3 495 84T462 233Q390 234 320 230T187 215Q166 162 139 105T77 -20Q63 -17 52 -12T25 8Q117 169 173 320T280 705Q313 702 323 701T343 698Q445
495 496 326T582 -85ZM314 636Q288 521 263 433T205 261Q260 269 323 274T451 280Q424 376 392 460T314 636ZM442 765Q433 756 426 752T408 742Q375 765 355 784T317 828Q301 805 280 785T226 741Q215 747 207 752T192 764Q234 802 254 829T292 894Q297 895 304
896T318 897Q322 897 329 897T341 895Q356 860 376 833T442 765Z" />
<glyph unicode="&#xc3;" glyph-name="Atilde" horiz-adv-x="605" d="M582 -85Q570 -92 558 -96T526 -103Q510 3 495 84T462 233Q390 234 320 230T187 215Q166 162 139 105T77 -20Q63 -17 52 -12T25 8Q117 169 173 320T280 705Q313 702 323 701T343 698Q445 495
496 326T582 -85ZM314 636Q288 521 263 433T205 261Q260 269 323 274T451 280Q424 376 392 460T314 636ZM316 809Q331 800 338 798T352 795Q366 795 371 803T375 833Q386 834 395 832T417 824Q420 786 405 767T358 748Q345 748 333 752T300 768Q286 777 279 779T266
782Q254 782 249 773T245 746Q234 745 224 747T203 753Q200 789 215 809T261 829Q273 829 284 825T316 809Z" />
<glyph unicode="&#xc4;" glyph-name="Adieresis" horiz-adv-x="605" d="M582 -85Q570 -92 558 -96T526 -103Q510 3 495 84T462 233Q390 234 320 230T187 215Q166 162 139 105T77 -20Q63 -17 52 -12T25 8Q117 169 173 320T280 705Q313 702 323 701T343 698Q445
495 496 326T582 -85ZM314 636Q288 521 263 433T205 261Q260 269 323 274T451 280Q424 376 392 460T314 636ZM532 867Q543 866 550 864T566 857Q554 832 545 804T529 749Q522 748 510 748T485 749Q484 753 484 757T484 771Q484 794 489 820T502 863Q511 866 517
867T532 867ZM380 867Q391 866 398 864T414 857Q402 832 393 804T377 749Q370 748 358 748T333 749Q332 753 332 757T332 771Q332 794 337 820T350 863Q359 866 365 867T380 867Z" />
<glyph unicode="&#xc5;" glyph-name="Aring" horiz-adv-x="605" d="M582 -85Q570 -92 558 -96T526 -103Q510 3 495 84T462 233Q390 234 320 230T187 215Q166 162 139 105T77 -20Q63 -17 52 -12T25 8Q117 169 173 320T280 705Q313 702 323 701T343 698Q445 495
496 326T582 -85ZM314 636Q288 521 263 433T205 261Q260 269 323 274T451 280Q424 376 392 460T314 636ZM227 831Q227 876 255 903T330 930Q370 930 393 909T416 850Q416 800 389 772T316 743Q277 743 252 768T227 831ZM365 844Q365 870 354 884T325 898Q303 898
290 880T276 830Q276 807 288 793T319 778Q340 778 352 796T365 844Z" />
<glyph unicode="&#xc6;" glyph-name="AE" horiz-adv-x="804" d="M762 -18Q676 -30 601 -36T425 -45Q416 15 408 79T392 208Q340 207 289 202T192 189Q170 141 143 89T79 -25Q63 -21 52 -15T27 5Q130 169 194 322T315 698Q328 697 340 695T363 690Q499 713 576
721T739 731Q740 718 739 707T736 684Q654 683 577 676T417 653Q416 580 418 513T427 372Q561 393 603 398T689 408Q692 396 693 385T693 363Q617 357 562 350T431 329Q439 245 449 162T472 0Q567 3 631 10T760 32Q763 21 763 7T762 -18ZM358 654Q324 526 290 427T214
235Q253 242 297 246T387 253Q375 364 368 467T358 654Z" />
<glyph unicode="&#xc7;" glyph-name="Ccedilla" horiz-adv-x="535" d="M422 220Q437 220 447 218T472 210Q466 90 415 28T270 -35Q164 -35 106 48T48 285Q48 468 120 580T312 693Q397 693 436 637T470 464Q461 457 445 453T411 450Q419 555 394 600T302 646Q255
646 214 611T145 511Q127 467 118 413T108 296Q108 159 150 86T273 12Q345 12 384 68T422 220ZM365 -157Q365 -198 337 -224T262 -250Q225 -250 200 -232T161 -176Q174 -167 182 -163T199 -155Q207 -179 223 -193T260 -207Q284 -207 298 -195T312 -160Q312 -142
299 -130T266 -117Q255 -117 247 -119T229 -127Q221 -121 213 -113T202 -100Q216 -79 224 -59T235 -16L282 -26Q280 -41 276 -54T264 -82Q274 -81 277 -81T284 -80Q321 -80 343 -101T365 -157Z" />
<glyph unicode="&#xc8;" glyph-name="Egrave" horiz-adv-x="505" d="M463 -14Q377 -26 302 -32T126 -41Q97 156 79 352T58 693Q192 716 271 724T440 735Q441 722 440 711T437 688Q355 687 278 680T118 657Q117 584 119 517T128 376Q262 397 304 402T390 412Q393
400 394 389T394 367Q318 361 263 354T132 333Q140 249 150 166T173 4Q268 7 332 14T461 36Q464 25 464 11T463 -14ZM243 936Q246 898 256 858T284 765Q274 762 264 761T243 758Q217 804 202 847T181 933Q193 936 210 937T243 936Z" />
<glyph unicode="&#xc9;" glyph-name="Eacute" horiz-adv-x="505" d="M463 -14Q377 -26 302 -32T126 -41Q97 156 79 352T58 693Q192 716 271 724T440 735Q441 722 440 711T437 688Q355 687 278 680T118 657Q117 584 119 517T128 376Q262 397 304 402T390 412Q393
400 394 389T394 367Q318 361 263 354T132 333Q140 249 150 166T173 4Q268 7 332 14T461 36Q464 25 464 11T463 -14ZM300 936Q295 893 280 850T238 761Q227 762 217 763T197 768Q215 820 225 860T238 939Q253 941 270 940T300 936Z" />
<glyph unicode="&#xca;" glyph-name="Ecircumflex" horiz-adv-x="505" d="M463 -14Q377 -26 302 -32T126 -41Q97 156 79 352T58 693Q192 716 271 724T440 735Q441 722 440 711T437 688Q355 687 278 680T118 657Q117 584 119 517T128 376Q262 397 304 402T390 412Q393
400 394 389T394 367Q318 361 263 354T132 333Q140 249 150 166T173 4Q268 7 332 14T461 36Q464 25 464 11T463 -14ZM376 791Q367 782 360 778T342 768Q309 791 289 810T251 854Q235 831 214 811T160 767Q149 773 141 778T126 790Q168 828 188 855T226 920Q231
921 238 922T252 923Q256 923 263 923T275 921Q290 886 310 859T376 791Z" />
<glyph unicode="&#xcb;" glyph-name="Edieresis" horiz-adv-x="505" d="M463 -14Q377 -26 302 -32T126 -41Q97 156 79 352T58 693Q192 716 271 724T440 735Q441 722 440 711T437 688Q355 687 278 680T118 657Q117 584 119 517T128 376Q262 397 304 402T390 412Q393
400 394 389T394 367Q318 361 263 354T132 333Q140 249 150 166T173 4Q268 7 332 14T461 36Q464 25 464 11T463 -14ZM467 890Q478 889 485 887T501 880Q489 855 480 827T464 772Q457 771 445 771T420 772Q419 776 419 780T419 794Q419 817 424 843T437 886Q446
889 452 890T467 890ZM315 890Q326 889 333 887T349 880Q337 855 328 827T312 772Q305 771 293 771T268 772Q267 776 267 780T267 794Q267 817 272 843T285 886Q294 889 300 890T315 890Z" />
<glyph unicode="&#xcc;" glyph-name="Igrave" horiz-adv-x="219" d="M136 481Q136 205 135 132T131 -22Q124 -24 112 -25T83 -28Q86 163 83 338T69 670Q79 675 89 677T110 679Q114 679 118 679T130 677Q133 634 134 590T136 481ZM69 914Q72 876 82 836T110 743Q100
740 90 739T69 736Q43 782 28 825T7 911Q19 914 36 915T69 914Z" />
<glyph unicode="&#xcd;" glyph-name="Iacute" horiz-adv-x="219" d="M136 481Q136 205 135 132T131 -22Q124 -24 112 -25T83 -28Q86 163 83 338T69 670Q79 675 89 677T110 679Q114 679 118 679T130 677Q133 634 134 590T136 481ZM169 912Q164 869 149 826T107
737Q96 738 86 739T66 744Q84 796 94 836T107 915Q122 917 139 916T169 912Z" />
<glyph unicode="&#xce;" glyph-name="Icircumflex" horiz-adv-x="219" d="M136 481Q136 205 135 132T131 -22Q124 -24 112 -25T83 -28Q86 163 83 338T69 670Q79 675 89 677T110 679Q114 679 118 679T130 677Q133 634 134 590T136 481ZM215 750Q206 741 199 737T181
727Q148 750 128 769T90 813Q74 790 53 770T-1 726Q-12 732 -20 737T-35 749Q7 787 27 814T65 879Q70 880 77 881T91 882Q95 882 102 882T114 880Q129 845 149 818T215 750Z" />
<glyph unicode="&#xcf;" glyph-name="Idieresis" horiz-adv-x="219" d="M136 481Q136 205 135 132T131 -22Q124 -24 112 -25T83 -28Q86 163 83 338T69 670Q79 675 89 677T110 679Q114 679 118 679T130 677Q133 634 134 590T136 481ZM573 871Q584 870 591 868T607
861Q595 836 586 808T570 753Q563 752 551 752T526 753Q525 757 525 761T525 775Q525 798 530 824T543 867Q552 870 558 871T573 871ZM421 871Q432 870 439 868T455 861Q443 836 434 808T418 753Q411 752 399 752T374 753Q373 757 373 761T373 775Q373 798 378
824T391 867Q400 870 406 871T421 871Z" />
<glyph unicode="&#xd0;" glyph-name="Eth" horiz-adv-x="566" d="M125 349Q125 321 125 293T125 236Q125 170 126 124T129 35Q293 96 377 200T461 448Q461 557 404 613T234 670Q207 670 182 666T134 654Q129 577 127 516T125 392Q161 393 200 397T290 410Q291
401 291 390T288 365Q246 358 206 354T125 349ZM522 445Q522 292 418 170T131 -12Q131 -12 128 -12T113 -9Q94 -7 88 -6T81 -5Q77 83 74 166T69 349Q46 350 22 351T-27 355Q-27 377 -27 385T-25 400Q-2 397 21 396T69 393Q68 413 68 436T68 508Q68 550 69 596T71
678Q111 697 153 707T234 717Q377 717 449 649T522 445Z" />
<glyph unicode="&#xd1;" glyph-name="Ntilde" horiz-adv-x="616" d="M131 360Q132 299 136 223T153 -34Q142 -36 131 -37T106 -40Q85 202 77 358T69 682Q96 694 107 697T136 704Q249 560 330 422T480 120Q482 157 483 204T484 353Q484 496 480 592T467 745Q483
750 498 753T530 757Q534 693 535 644T537 549Q537 383 532 269T516 23Q508 21 498 20T471 18Q395 193 308 345T128 612Q127 553 129 461T131 360ZM291 844Q306 835 313 833T327 830Q341 830 346 838T350 868Q361 869 370 867T392 859Q395 821 380 802T333 783Q320
783 308 787T275 803Q261 812 254 814T241 817Q229 817 224 808T220 781Q209 780 199 782T178 788Q175 824 190 844T236 864Q248 864 259 860T291 844Z" />
<glyph unicode="&#xd2;" glyph-name="Ograve" horiz-adv-x="591" d="M319 733Q428 733 484 645T541 388Q541 215 469 98T274 -20Q174 -20 111 81T48 342Q48 512 124 622T319 733ZM276 27Q370 27 425 125T481 377Q481 534 440 609T312 685Q224 685 167 592T109
351Q109 211 154 119T276 27ZM293 951Q296 913 306 873T334 780Q324 777 314 776T293 773Q267 819 252 862T231 948Q243 951 260 952T293 951Z" />
<glyph unicode="&#xd3;" glyph-name="Oacute" horiz-adv-x="591" d="M319 733Q428 733 484 645T541 388Q541 215 469 98T274 -20Q174 -20 111 81T48 342Q48 512 124 622T319 733ZM276 27Q370 27 425 125T481 377Q481 534 440 609T312 685Q224 685 167 592T109
351Q109 211 154 119T276 27ZM372 943Q367 900 352 857T310 768Q299 769 289 770T269 775Q287 827 297 867T310 946Q325 948 342 947T372 943Z" />
<glyph unicode="&#xd4;" glyph-name="Ocircumflex" horiz-adv-x="591" d="M319 733Q428 733 484 645T541 388Q541 215 469 98T274 -20Q174 -20 111 81T48 342Q48 512 124 622T319 733ZM276 27Q370 27 425 125T481 377Q481 534 440 609T312 685Q224 685 167 592T109
351Q109 211 154 119T276 27ZM444 789Q435 780 428 776T410 766Q377 789 357 808T319 852Q303 829 282 809T228 765Q217 771 209 776T194 788Q236 826 256 853T294 918Q299 919 306 920T320 921Q324 921 331 921T343 919Q358 884 378 857T444 789Z" />
<glyph unicode="&#xd5;" glyph-name="Otilde" horiz-adv-x="591" d="M319 733Q428 733 484 645T541 388Q541 215 469 98T274 -20Q174 -20 111 81T48 342Q48 512 124 622T319 733ZM276 27Q370 27 425 125T481 377Q481 534 440 609T312 685Q224 685 167 592T109
351Q109 211 154 119T276 27ZM324 848Q339 839 346 837T360 834Q374 834 379 842T383 872Q394 873 403 871T425 863Q428 825 413 806T366 787Q353 787 341 791T308 807Q294 816 287 818T274 821Q262 821 257 812T253 785Q242 784 232 786T211 792Q208 828 223 848T269
868Q281 868 292 864T324 848Z" />
<glyph unicode="&#xd6;" glyph-name="Odieresis" horiz-adv-x="591" d="M319 733Q428 733 484 645T541 388Q541 215 469 98T274 -20Q174 -20 111 81T48 342Q48 512 124 622T319 733ZM276 27Q370 27 425 125T481 377Q481 534 440 609T312 685Q224 685 167 592T109
351Q109 211 154 119T276 27ZM534 906Q545 905 552 903T568 896Q556 871 547 843T531 788Q524 787 512 787T487 788Q486 792 486 796T486 810Q486 833 491 859T504 902Q513 905 519 906T534 906ZM382 906Q393 905 400 903T416 896Q404 871 395 843T379 788Q372
787 360 787T335 788Q334 792 334 796T334 810Q334 833 339 859T352 902Q361 905 367 906T382 906Z" />
<glyph unicode="&#xd7;" glyph-name="multiply" horiz-adv-x="341" d="M291 213Q284 206 277 200T258 187Q229 223 211 245T173 286Q164 276 154 265T122 227Q109 212 103 205T90 190Q82 195 75 202T62 218Q84 246 104 270T143 316Q117 341 95 361T50 400Q57 407
65 413T81 425Q100 410 121 392T172 346Q195 370 217 390T262 428Q270 423 277 416T291 398Q268 380 247 361T201 316Q226 290 248 265T291 213Z" />
<glyph unicode="&#xd8;" glyph-name="Oslash" horiz-adv-x="575" d="M304 685Q216 685 159 592T101 351Q101 284 113 221T149 113Q202 211 261 333T406 645Q387 665 362 675T304 685ZM179 69Q197 48 219 38T268 27Q362 27 417 125T473 377Q473 450 465 505T438
597Q377 464 314 335T179 69ZM533 388Q533 215 461 98T266 -20Q235 -20 207 -10T154 22Q141 -2 129 -26T103 -74Q89 -70 79 -64T57 -49Q74 -20 89 6T119 58Q81 108 61 181T40 342Q40 512 116 622T311 733Q346 733 375 724T430 696Q437 713 446 733T474 794Q484
790 493 784T514 769Q494 723 484 701T466 660Q499 616 516 548T533 388Z" />
<glyph unicode="&#xd9;" glyph-name="Ugrave" horiz-adv-x="538" d="M427 705Q451 615 462 530T474 363Q474 138 416 29T235 -80Q145 -80 102 7T58 274Q58 365 72 464T108 630Q114 632 124 633T144 634Q149 634 154 634T166 632Q143 540 131 455T119 293Q119 120
148 45T246 -31Q326 -31 370 60T414 316Q414 420 403 505T365 694Q379 698 393 700T427 705ZM234 867Q237 829 247 789T275 696Q265 693 255 692T234 689Q208 735 193 778T172 864Q184 867 201 868T234 867Z" />
<glyph unicode="&#xda;" glyph-name="Uacute" horiz-adv-x="538" d="M427 705Q451 615 462 530T474 363Q474 138 416 29T235 -80Q145 -80 102 7T58 274Q58 365 72 464T108 630Q114 632 124 633T144 634Q149 634 154 634T166 632Q143 540 131 455T119 293Q119 120
148 45T246 -31Q326 -31 370 60T414 316Q414 420 403 505T365 694Q379 698 393 700T427 705ZM326 861Q321 818 306 775T264 686Q253 687 243 688T223 693Q241 745 251 785T264 864Q279 866 296 865T326 861Z" />
<glyph unicode="&#xdb;" glyph-name="Ucircumflex" horiz-adv-x="538" d="M427 705Q451 615 462 530T474 363Q474 138 416 29T235 -80Q145 -80 102 7T58 274Q58 365 72 464T108 630Q114 632 124 633T144 634Q149 634 154 634T166 632Q143 540 131 455T119 293Q119
120 148 45T246 -31Q326 -31 370 60T414 316Q414 420 403 505T365 694Q379 698 393 700T427 705ZM378 758Q369 749 362 745T344 735Q311 758 291 777T253 821Q237 798 216 778T162 734Q151 740 143 745T128 757Q170 795 190 822T228 887Q233 888 240 889T254 890Q258
890 265 890T277 888Q292 853 312 826T378 758Z" />
<glyph unicode="&#xdc;" glyph-name="Udieresis" horiz-adv-x="538" d="M427 705Q451 615 462 530T474 363Q474 138 416 29T235 -80Q145 -80 102 7T58 274Q58 365 72 464T108 630Q114 632 124 633T144 634Q149 634 154 634T166 632Q143 540 131 455T119 293Q119
120 148 45T246 -31Q326 -31 370 60T414 316Q414 420 403 505T365 694Q379 698 393 700T427 705ZM481 855Q492 854 499 852T515 845Q503 820 494 792T478 737Q471 736 459 736T434 737Q433 741 433 745T433 759Q433 782 438 808T451 851Q460 854 466 855T481 855ZM329
855Q340 854 347 852T363 845Q351 820 342 792T326 737Q319 736 307 736T282 737Q281 741 281 745T281 759Q281 782 286 808T299 851Q308 854 314 855T329 855Z" />
<glyph unicode="&#xdd;" glyph-name="Yacute" horiz-adv-x="504" d="M465 689Q387 381 316 218T144 -80Q131 -76 119 -71T96 -59Q141 4 178 65T244 188Q164 299 112 418T18 710Q35 717 50 721T82 727Q109 593 154 477T270 245Q313 344 344 458T399 713Q416 709
432 703T465 689ZM306 892Q301 849 286 806T244 717Q233 718 223 719T203 724Q221 776 231 816T244 895Q259 897 276 896T306 892Z" />
<glyph unicode="&#xde;" glyph-name="Thorn" horiz-adv-x="520" d="M122 103Q124 68 127 28T134 -68Q121 -70 107 -70T84 -67Q71 94 66 211T61 538Q61 576 63 631T68 721Q85 722 101 719T133 709Q132 696 130 668T123 596Q155 602 183 604T239 607Q361 607 427
556T494 412Q494 310 405 236T122 103ZM120 546Q117 501 116 456T115 357Q115 307 116 259T120 150Q276 192 355 256T434 407Q434 483 386 523T244 563Q206 563 176 559T120 546Z" />
<glyph unicode="&#xdf;" glyph-name="germandbls" horiz-adv-x="537" d="M514 115Q514 47 477 4T378 -40Q310 -40 268 12T226 149Q241 153 253 154T278 155Q276 84 303 44T380 4Q418 4 438 30T459 104Q459 140 439 169T353 240Q286 282 266 312T245 379Q245 413
257 440T298 498Q323 524 331 545T339 599Q339 636 319 659T264 682Q204 682 172 622T139 448Q139 313 150 198T183 -9Q165 -15 152 -18T127 -21Q114 39 102 163T88 391Q69 394 53 398T26 407Q26 419 27 429T32 442Q43 440 55 439T88 435Q93 581 136 654T264 727Q322
727 356 690T390 592Q390 564 379 541T339 490Q315 466 306 445T296 397Q296 364 315 338T397 272Q469 228 491 194T514 115Z" />
<glyph unicode="&#xe0;" glyph-name="agrave" horiz-adv-x="435" d="M374 338Q374 271 356 163T313 -34Q302 -34 290 -32T264 -24Q268 -8 273 16T280 43Q259 26 232 17T175 8Q109 8 69 44T28 138Q28 202 83 235T243 269Q257 269 271 269T314 267Q315 279 315 293T315
341Q315 419 294 453T224 488Q175 488 142 446T106 340Q84 345 72 351T51 369Q62 437 114 485T233 533Q303 533 338 484T374 338ZM86 138Q86 99 112 76T180 52Q211 52 239 61T291 89Q301 136 305 168T312 232Q200 239 143 216T86 138ZM235 1006Q238 968 248 928T276
835Q266 832 256 831T235 828Q209 874 194 917T173 1003Q185 1006 202 1007T235 1006Z" />
<glyph unicode="&#xe1;" glyph-name="aacute" horiz-adv-x="435" d="M374 338Q374 271 356 163T313 -34Q302 -34 290 -32T264 -24Q268 -8 273 16T280 43Q259 26 232 17T175 8Q109 8 69 44T28 138Q28 202 83 235T243 269Q257 269 271 269T314 267Q315 279 315 293T315
341Q315 419 294 453T224 488Q175 488 142 446T106 340Q84 345 72 351T51 369Q62 437 114 485T233 533Q303 533 338 484T374 338ZM86 138Q86 99 112 76T180 52Q211 52 239 61T291 89Q301 136 305 168T312 232Q200 239 143 216T86 138ZM312 745Q307 702 292 659T250
570Q239 571 229 572T209 577Q227 629 237 669T250 748Q265 750 282 749T312 745Z" />
<glyph unicode="&#xe2;" glyph-name="acircumflex" horiz-adv-x="435" d="M374 338Q374 271 356 163T313 -34Q302 -34 290 -32T264 -24Q268 -8 273 16T280 43Q259 26 232 17T175 8Q109 8 69 44T28 138Q28 202 83 235T243 269Q257 269 271 269T314 267Q315 279
315 293T315 341Q315 419 294 453T224 488Q175 488 142 446T106 340Q84 345 72 351T51 369Q62 437 114 485T233 533Q303 533 338 484T374 338ZM86 138Q86 99 112 76T180 52Q211 52 239 61T291 89Q301 136 305 168T312 232Q200 239 143 216T86 138ZM363 844Q354
835 347 831T329 821Q296 844 276 863T238 907Q222 884 201 864T147 820Q136 826 128 831T113 843Q155 881 175 908T213 973Q218 974 225 975T239 976Q243 976 250 976T262 974Q277 939 297 912T363 844Z" />
<glyph unicode="&#xe3;" glyph-name="atilde" horiz-adv-x="435" d="M374 338Q374 271 356 163T313 -34Q302 -34 290 -32T264 -24Q268 -8 273 16T280 43Q259 26 232 17T175 8Q109 8 69 44T28 138Q28 202 83 235T243 269Q257 269 271 269T314 267Q315 279 315 293T315
341Q315 419 294 453T224 488Q175 488 142 446T106 340Q84 345 72 351T51 369Q62 437 114 485T233 533Q303 533 338 484T374 338ZM86 138Q86 99 112 76T180 52Q211 52 239 61T291 89Q301 136 305 168T312 232Q200 239 143 216T86 138ZM238 911Q253 902 260 900T274
897Q288 897 293 905T297 935Q308 936 317 934T339 926Q342 888 327 869T280 850Q267 850 255 854T222 870Q208 879 201 881T188 884Q176 884 171 875T167 848Q156 847 146 849T125 855Q122 891 137 911T183 931Q195 931 206 927T238 911Z" />
<glyph unicode="&#xe4;" glyph-name="adieresis" horiz-adv-x="435" d="M374 338Q374 271 356 163T313 -34Q302 -34 290 -32T264 -24Q268 -8 273 16T280 43Q259 26 232 17T175 8Q109 8 69 44T28 138Q28 202 83 235T243 269Q257 269 271 269T314 267Q315 279 315
293T315 341Q315 419 294 453T224 488Q175 488 142 446T106 340Q84 345 72 351T51 369Q62 437 114 485T233 533Q303 533 338 484T374 338ZM86 138Q86 99 112 76T180 52Q211 52 239 61T291 89Q301 136 305 168T312 232Q200 239 143 216T86 138ZM473 958Q484 957
491 955T507 948Q495 923 486 895T470 840Q463 839 451 839T426 840Q425 844 425 848T425 862Q425 885 430 911T443 954Q452 957 458 958T473 958ZM321 958Q332 957 339 955T355 948Q343 923 334 895T318 840Q311 839 299 839T274 840Q273 844 273 848T273 862Q273
885 278 911T291 954Q300 957 306 958T321 958Z" />
<glyph unicode="&#xe5;" glyph-name="aring" horiz-adv-x="435" d="M374 338Q374 271 356 163T313 -34Q302 -34 290 -32T264 -24Q268 -8 273 16T280 43Q259 26 232 17T175 8Q109 8 69 44T28 138Q28 202 83 235T243 269Q257 269 271 269T314 267Q315 279 315 293T315
341Q315 419 294 453T224 488Q175 488 142 446T106 340Q84 345 72 351T51 369Q62 437 114 485T233 533Q303 533 338 484T374 338ZM86 138Q86 99 112 76T180 52Q211 52 239 61T291 89Q301 136 305 168T312 232Q200 239 143 216T86 138ZM150 916Q150 961 178 988T253
1015Q293 1015 316 994T339 935Q339 885 312 857T239 828Q200 828 175 853T150 916ZM288 929Q288 955 277 969T248 983Q226 983 213 965T199 915Q199 892 211 878T242 863Q263 863 275 881T288 929Z" />
<glyph unicode="&#xe6;" glyph-name="ae" horiz-adv-x="698" d="M379 309Q410 296 446 290T529 284Q541 284 554 285T574 289Q581 318 585 343T589 389Q589 437 573 457T521 478Q475 478 436 431T379 309ZM621 167Q633 165 645 158T667 141Q649 83 592 37T478
-10Q430 -10 394 16T337 92Q304 50 261 29T165 8Q102 8 65 42T28 133Q28 198 83 233T243 269Q257 269 270 269T315 267Q316 288 316 313T315 341Q315 419 294 453T224 488Q175 488 142 446T106 340Q84 345 72 351T51 369Q62 437 114 485T233 533Q285 533 319 501T366
408Q398 464 439 494T526 524Q581 524 612 488T644 388Q644 353 638 319T619 255Q600 249 574 246T512 243Q477 243 441 249T371 268Q369 256 369 245T368 221Q368 138 397 87T477 35Q521 35 563 73T621 167ZM86 133Q86 95 108 74T170 52Q215 52 255 70T326 123Q320
145 317 171T313 225Q313 227 313 228T313 232Q202 241 144 215T86 133Z" />
<glyph unicode="&#xe7;" glyph-name="ccedilla" horiz-adv-x="408" d="M300 -135Q300 -178 271 -203T192 -228Q155 -228 130 -210T91 -154Q96 -151 106 -145T131 -132Q139 -156 154 -170T190 -184Q213 -184 226 -172T240 -138Q240 -120 227 -108T193 -96Q185 -96
177 -98T159 -105Q151 -99 143 -91T132 -78Q142 -63 148 -50T159 -22Q95 -12 62 45T28 200Q28 349 84 446T226 543Q292 543 329 497T366 370Q352 363 338 360T307 357Q307 427 287 462T228 498Q168 498 125 409T82 205Q82 119 111 70T195 21Q235 21 268 53T326
148Q338 143 347 137T364 122Q350 67 306 26T209 -22Q207 -31 204 -40T194 -60Q204 -59 207 -59T214 -58Q252 -58 276 -79T300 -135Z" />
<glyph unicode="&#xe8;" glyph-name="egrave" horiz-adv-x="416" d="M97 309Q128 296 164 290T247 284Q259 284 272 285T292 289Q299 318 303 343T307 389Q307 437 291 457T239 478Q193 478 154 431T97 309ZM339 167Q351 165 363 158T385 141Q367 83 310 37T196
-10Q119 -10 75 54T31 225Q31 339 93 431T244 524Q299 524 330 488T362 388Q362 353 356 319T337 255Q318 249 292 246T230 243Q195 243 159 249T89 268Q87 256 87 245T86 221Q86 138 115 87T195 35Q239 35 281 73T339 167ZM247 1006Q250 968 260 928T288 835Q278
832 268 831T247 828Q221 874 206 917T185 1003Q197 1006 214 1007T247 1006Z" />
<glyph unicode="&#xe9;" glyph-name="eacute" horiz-adv-x="416" d="M97 309Q128 296 164 290T247 284Q259 284 272 285T292 289Q299 318 303 343T307 389Q307 437 291 457T239 478Q193 478 154 431T97 309ZM339 167Q351 165 363 158T385 141Q367 83 310 37T196
-10Q119 -10 75 54T31 225Q31 339 93 431T244 524Q299 524 330 488T362 388Q362 353 356 319T337 255Q318 249 292 246T230 243Q195 243 159 249T89 268Q87 256 87 245T86 221Q86 138 115 87T195 35Q239 35 281 73T339 167ZM341 746Q336 703 321 660T279 571Q268
572 258 573T238 578Q256 630 266 670T279 749Q294 751 311 750T341 746Z" />
<glyph unicode="&#xea;" glyph-name="ecircumflex" horiz-adv-x="416" d="M97 309Q128 296 164 290T247 284Q259 284 272 285T292 289Q299 318 303 343T307 389Q307 437 291 457T239 478Q193 478 154 431T97 309ZM339 167Q351 165 363 158T385 141Q367 83 310
37T196 -10Q119 -10 75 54T31 225Q31 339 93 431T244 524Q299 524 330 488T362 388Q362 353 356 319T337 255Q318 249 292 246T230 243Q195 243 159 249T89 268Q87 256 87 245T86 221Q86 138 115 87T195 35Q239 35 281 73T339 167ZM393 591Q384 582 377 578T359
568Q326 591 306 610T268 654Q252 631 231 611T177 567Q166 573 158 578T143 590Q185 628 205 655T243 720Q248 721 255 722T269 723Q273 723 280 723T292 721Q307 686 327 659T393 591Z" />
<glyph unicode="&#xeb;" glyph-name="edieresis" horiz-adv-x="416" d="M97 309Q128 296 164 290T247 284Q259 284 272 285T292 289Q299 318 303 343T307 389Q307 437 291 457T239 478Q193 478 154 431T97 309ZM339 167Q351 165 363 158T385 141Q367 83 310 37T196
-10Q119 -10 75 54T31 225Q31 339 93 431T244 524Q299 524 330 488T362 388Q362 353 356 319T337 255Q318 249 292 246T230 243Q195 243 159 249T89 268Q87 256 87 245T86 221Q86 138 115 87T195 35Q239 35 281 73T339 167ZM498 691Q509 690 516 688T532 681Q520
656 511 628T495 573Q488 572 476 572T451 573Q450 577 450 581T450 595Q450 618 455 644T468 687Q477 690 483 691T498 691ZM346 691Q357 690 364 688T380 681Q368 656 359 628T343 573Q336 572 324 572T299 573Q298 577 298 581T298 595Q298 618 303 644T316
687Q325 690 331 691T346 691Z" />
<glyph unicode="&#xec;" glyph-name="igrave" horiz-adv-x="189" d="M75 498Q84 503 93 505T111 508Q115 508 120 508T130 505Q110 393 104 252T108 -4Q102 -6 96 -7T82 -9Q78 -9 74 -9T66 -7Q49 117 52 253T75 498ZM342 976Q345 938 355 898T383 805Q373 802
363 801T342 798Q316 844 301 887T280 973Q292 976 309 977T342 976Z" />
<glyph unicode="&#xed;" glyph-name="iacute" horiz-adv-x="189" d="M75 498Q84 503 93 505T111 508Q115 508 120 508T130 505Q110 393 104 252T108 -4Q102 -6 96 -7T82 -9Q78 -9 74 -9T66 -7Q49 117 52 253T75 498ZM191 972Q186 929 171 886T129 797Q118 798
108 799T88 804Q106 856 116 896T129 975Q144 977 161 976T191 972Z" />
<glyph unicode="&#xee;" glyph-name="icircumflex" horiz-adv-x="189" d="M75 498Q84 503 93 505T111 508Q115 508 120 508T130 505Q110 393 104 252T108 -4Q102 -6 96 -7T82 -9Q78 -9 74 -9T66 -7Q49 117 52 253T75 498ZM495 826Q486 817 479 813T461 803Q428
826 408 845T370 889Q354 866 333 846T279 802Q268 808 260 813T245 825Q287 863 307 890T345 955Q350 956 357 957T371 958Q375 958 382 958T394 956Q409 921 429 894T495 826Z" />
<glyph unicode="&#xef;" glyph-name="idieresis" horiz-adv-x="189" d="M75 498Q84 503 93 505T111 508Q115 508 120 508T130 505Q110 393 104 252T108 -4Q102 -6 96 -7T82 -9Q78 -9 74 -9T66 -7Q49 117 52 253T75 498ZM597 940Q608 939 615 937T631 930Q619 905
610 877T594 822Q587 821 575 821T550 822Q549 826 549 830T549 844Q549 867 554 893T567 936Q576 939 582 940T597 940ZM445 940Q456 939 463 937T479 930Q467 905 458 877T442 822Q435 821 423 821T398 822Q397 826 397 830T397 844Q397 867 402 893T415 936Q424
939 430 940T445 940Z" />
<glyph unicode="&#xf0;" glyph-name="eth" horiz-adv-x="437" d="M371 -36Q363 -39 352 -40T331 -42Q330 -17 329 16T325 92Q307 30 276 0T198 -30Q123 -30 79 43T34 236Q34 365 90 441T243 518Q260 518 279 516T315 508Q314 521 314 535T314 579Q278 578 242
579T166 585Q166 607 166 615T168 630Q212 625 246 623T313 622Q313 646 313 670T313 719Q320 723 329 725T346 727Q354 727 361 726T376 723Q374 698 373 674T371 625Q395 627 422 630T483 640Q484 631 484 620T481 595Q453 590 426 587T370 582Q369 536 369 480T368
127Q368 79 368 44T371 -36ZM89 245Q89 135 118 75T200 14Q249 14 280 67T320 224Q319 245 319 270T317 348Q317 397 317 421T315 466Q303 470 287 472T251 474Q178 474 134 413T89 245Z" />
<glyph unicode="&#xf1;" glyph-name="ntilde" horiz-adv-x="437" d="M106 180Q106 127 108 64T114 -27Q105 -31 92 -33T66 -35Q61 66 57 233T52 519Q60 523 69 525T88 527Q95 527 103 527T120 524Q120 522 117 480T113 409Q146 466 183 494T261 523Q322 523 349
479T376 338Q376 259 364 163T337 12Q324 13 310 16T287 24Q305 123 313 197T321 342Q321 411 304 441T249 472Q211 472 174 435T109 333Q108 293 107 254T106 180ZM232 906Q247 897 254 895T268 892Q282 892 287 900T291 930Q302 931 311 929T333 921Q336 883
321 864T274 845Q261 845 249 849T216 865Q202 874 195 876T182 879Q170 879 165 870T161 843Q150 842 140 844T119 850Q116 886 131 906T177 926Q189 926 200 922T232 906Z" />
<glyph unicode="&#xf2;" glyph-name="ograve" horiz-adv-x="431" d="M31 244Q31 372 86 452T230 533Q304 533 347 475T390 317Q390 171 338 81T200 -10Q123 -10 77 61T31 244ZM331 277Q331 384 303 436T217 488Q164 488 125 419T86 251Q86 159 119 97T208 35Q257
35 294 105T331 277ZM215 1001Q218 963 228 923T256 830Q246 827 236 826T215 823Q189 869 174 912T153 998Q165 1001 182 1002T215 1001Z" />
<glyph unicode="&#xf3;" glyph-name="oacute" horiz-adv-x="431" d="M31 244Q31 372 86 452T230 533Q304 533 347 475T390 317Q390 171 338 81T200 -10Q123 -10 77 61T31 244ZM331 277Q331 384 303 436T217 488Q164 488 125 419T86 251Q86 159 119 97T208 35Q257
35 294 105T331 277ZM299 996Q294 953 279 910T237 821Q226 822 216 823T196 828Q214 880 224 920T237 999Q252 1001 269 1000T299 996Z" />
<glyph unicode="&#xf4;" glyph-name="ocircumflex" horiz-adv-x="431" d="M31 244Q31 372 86 452T230 533Q304 533 347 475T390 317Q390 171 338 81T200 -10Q123 -10 77 61T31 244ZM331 277Q331 384 303 436T217 488Q164 488 125 419T86 251Q86 159 119 97T208
35Q257 35 294 105T331 277ZM358 860Q349 851 342 847T324 837Q291 860 271 879T233 923Q217 900 196 880T142 836Q131 842 123 847T108 859Q150 897 170 924T208 989Q213 990 220 991T234 992Q238 992 245 992T257 990Q272 955 292 928T358 860Z" />
<glyph unicode="&#xf5;" glyph-name="otilde" horiz-adv-x="431" d="M31 244Q31 372 86 452T230 533Q304 533 347 475T390 317Q390 171 338 81T200 -10Q123 -10 77 61T31 244ZM331 277Q331 384 303 436T217 488Q164 488 125 419T86 251Q86 159 119 97T208 35Q257
35 294 105T331 277ZM246 905Q261 896 268 894T282 891Q296 891 301 899T305 929Q316 930 325 928T347 920Q350 882 335 863T288 844Q275 844 263 848T230 864Q216 873 209 875T196 878Q184 878 179 869T175 842Q164 841 154 843T133 849Q130 885 145 905T191 925Q203
925 214 921T246 905Z" />
<glyph unicode="&#xf6;" glyph-name="odieresis" horiz-adv-x="431" d="M31 244Q31 372 86 452T230 533Q304 533 347 475T390 317Q390 171 338 81T200 -10Q123 -10 77 61T31 244ZM331 277Q331 384 303 436T217 488Q164 488 125 419T86 251Q86 159 119 97T208 35Q257
35 294 105T331 277ZM463 974Q474 973 481 971T497 964Q485 939 476 911T460 856Q453 855 441 855T416 856Q415 860 415 864T415 878Q415 901 420 927T433 970Q442 973 448 974T463 974ZM311 974Q322 973 329 971T345 964Q333 939 324 911T308 856Q301 855 289
855T264 856Q263 860 263 864T263 878Q263 901 268 927T281 970Q290 973 296 974T311 974Z" />
<glyph unicode="&#xf7;" glyph-name="divide" horiz-adv-x="341" d="M225 460Q224 434 223 420T219 392Q199 390 183 390T149 392Q149 397 149 403T148 419Q147 434 147 441T146 457Q168 462 187 462T225 460ZM27 300Q27 311 28 320T32 342Q100 334 164 334T314
340Q314 329 313 319T310 300Q242 292 170 292T27 300ZM223 240Q222 214 221 200T217 172Q197 170 181 170T147 172Q147 177 147 183T146 199Q145 214 145 221T144 237Q166 242 185 242T223 240Z" />
<glyph unicode="&#xf8;" glyph-name="oslash" horiz-adv-x="431" d="M217 488Q164 488 125 419T86 251Q86 214 92 179T110 117Q152 200 192 286T275 470Q263 479 249 483T217 488ZM143 64Q157 49 173 42T208 35Q257 35 294 105T331 277Q331 323 326 359T309 423Q273
337 232 249T143 64ZM390 317Q390 171 338 81T200 -10Q178 -10 157 -4T118 16Q111 1 102 -16T74 -68Q60 -64 50 -58T28 -43Q37 -25 48 -5T80 57Q56 92 44 140T31 244Q31 372 86 452T230 533Q249 533 265 530T297 518Q303 532 310 548T332 600Q342 596 351 590T372
575Q366 559 359 541T336 487Q362 459 376 416T390 317Z" />
<glyph unicode="&#xf9;" glyph-name="ugrave" horiz-adv-x="386" d="M177 -10Q110 -10 76 61T41 271Q41 341 52 409T80 510Q86 512 92 513T106 515Q111 515 116 514T127 510Q111 462 103 400T94 261Q94 163 118 99T185 35Q236 35 263 109T290 320Q290 360 286
402T278 461Q289 466 305 469T335 472Q340 450 342 419T345 355Q345 178 303 84T177 -10ZM191 949Q194 911 204 871T232 778Q222 775 212 774T191 771Q165 817 150 860T129 946Q141 949 158 950T191 949Z" />
<glyph unicode="&#xfa;" glyph-name="uacute" horiz-adv-x="386" d="M177 -10Q110 -10 76 61T41 271Q41 341 52 409T80 510Q86 512 92 513T106 515Q111 515 116 514T127 510Q111 462 103 400T94 261Q94 163 118 99T185 35Q236 35 263 109T290 320Q290 360 286
402T278 461Q289 466 305 469T335 472Q340 450 342 419T345 355Q345 178 303 84T177 -10ZM281 929Q276 886 261 843T219 754Q208 755 198 756T178 761Q196 813 206 853T219 932Q234 934 251 933T281 929Z" />
<glyph unicode="&#xfb;" glyph-name="ucircumflex" horiz-adv-x="386" d="M177 -10Q110 -10 76 61T41 271Q41 341 52 409T80 510Q86 512 92 513T106 515Q111 515 116 514T127 510Q111 462 103 400T94 261Q94 163 118 99T185 35Q236 35 263 109T290 320Q290 360
286 402T278 461Q289 466 305 469T335 472Q340 450 342 419T345 355Q345 178 303 84T177 -10ZM329 825Q320 816 313 812T295 802Q262 825 242 844T204 888Q188 865 167 845T113 801Q102 807 94 812T79 824Q121 862 141 889T179 954Q184 955 191 956T205 957Q209
957 216 957T228 955Q243 920 263 893T329 825Z" />
<glyph unicode="&#xfc;" glyph-name="udieresis" horiz-adv-x="386" d="M177 -10Q110 -10 76 61T41 271Q41 341 52 409T80 510Q86 512 92 513T106 515Q111 515 116 514T127 510Q111 462 103 400T94 261Q94 163 118 99T185 35Q236 35 263 109T290 320Q290 360 286
402T278 461Q289 466 305 469T335 472Q340 450 342 419T345 355Q345 178 303 84T177 -10ZM443 923Q454 922 461 920T477 913Q465 888 456 860T440 805Q433 804 421 804T396 805Q395 809 395 813T395 827Q395 850 400 876T413 919Q422 922 428 923T443 923ZM291
923Q302 922 309 920T325 913Q313 888 304 860T288 805Q281 804 269 804T244 805Q243 809 243 813T243 827Q243 850 248 876T261 919Q270 922 276 923T291 923Z" />
<glyph unicode="&#xfd;" glyph-name="yacute" horiz-adv-x="414" d="M360 199Q360 -2 313 -109T186 -217Q131 -217 94 -174T44 -57Q58 -48 71 -42T98 -32Q109 -107 130 -139T189 -172Q237 -172 266 -104T302 98Q279 59 250 39T185 19Q120 19 81 80T41 245Q41 313
50 371T92 530Q105 529 119 526T142 518Q117 427 108 370T98 246Q98 167 124 119T197 70Q229 70 256 99T304 188Q303 285 294 357T263 499Q275 511 292 515T326 516Q341 450 350 363T360 199ZM292 948Q287 905 272 862T230 773Q219 774 209 775T189 780Q207 832
217 872T230 951Q245 953 262 952T292 948Z" />
<glyph unicode="&#xfe;" glyph-name="thorn" horiz-adv-x="424" d="M111 79Q123 66 137 60T169 53Q232 53 278 139T325 352Q325 419 302 458T240 497Q193 497 158 454T103 326Q103 268 105 206T111 79ZM115 20Q120 -47 127 -105T142 -210Q129 -214 117 -216T92
-218Q57 44 52 309T77 737Q87 743 97 745T120 748Q127 748 132 748T143 745Q127 688 118 608T105 424Q131 486 171 519T260 553Q316 553 350 499T384 355Q384 209 321 110T169 10Q154 10 141 12T115 20Z" />
<glyph unicode="&#xff;" glyph-name="ydieresis" horiz-adv-x="414" d="M360 199Q360 -2 313 -109T186 -217Q131 -217 94 -174T44 -57Q58 -48 71 -42T98 -32Q109 -107 130 -139T189 -172Q237 -172 266 -104T302 98Q279 59 250 39T185 19Q120 19 81 80T41 245Q41
313 50 371T92 530Q105 529 119 526T142 518Q117 427 108 370T98 246Q98 167 124 119T197 70Q229 70 256 99T304 188Q303 285 294 357T263 499Q275 511 292 515T326 516Q341 450 350 363T360 199ZM442 920Q453 919 460 917T476 910Q464 885 455 857T439 802Q432
801 420 801T395 802Q394 806 394 810T394 824Q394 847 399 873T412 916Q421 919 427 920T442 920ZM290 920Q301 919 308 917T324 910Q312 885 303 857T287 802Q280 801 268 801T243 802Q242 806 242 810T242 824Q242 847 247 873T260 916Q269 919 275 920T290
920Z" />
<glyph unicode="&#x2013;" glyph-name="endash" horiz-adv-x="400" d="M365 255Q277 247 196 249T30 264Q31 282 32 291T35 309Q85 301 133 297T238 293Q267 293 299 294T370 299Q370 290 369 280T365 255Z" />
<glyph unicode="&#x2014;" glyph-name="emdash" horiz-adv-x="560" d="M525 246Q387 233 264 235T30 255Q31 273 32 282T35 300Q117 288 178 284T323 280Q379 280 429 282T530 290Q530 281 529 271T525 246Z" />
<glyph unicode="&#x2018;" glyph-name="quoteleft" horiz-adv-x="129" d="M57 488Q32 558 21 616T10 734Q25 738 38 740T67 741Q64 674 70 615T94 489Q85 488 76 488T57 488Z" />
<glyph unicode="&#x2019;" glyph-name="quoteright" horiz-adv-x="129" d="M56 736Q72 738 86 738T112 737Q112 675 103 622T70 489Q62 490 53 491T35 496Q49 573 54 633T56 736Z" />
<glyph unicode="&#x201a;" glyph-name="quotesinglbase" horiz-adv-x="122" d="M31 69Q47 71 61 71T87 70Q87 8 78 -45T45 -178Q37 -177 28 -176T10 -171Q24 -94 29 -34T31 69Z" />
<glyph unicode="&#x201c;" glyph-name="quotedblleft" horiz-adv-x="240" d="M57 488Q32 558 21 616T10 734Q25 738 38 740T67 741Q64 674 70 615T94 489Q85 488 76 488T57 488ZM168 488Q143 558 132 616T121 734Q136 738 149 740T178 741Q175 674 181 615T205
489Q196 488 187 488T168 488Z" />
<glyph unicode="&#x201d;" glyph-name="quotedblright" horiz-adv-x="243" d="M56 736Q72 738 86 738T112 737Q112 675 103 622T70 489Q62 490 53 491T35 496Q49 573 54 633T56 736ZM170 736Q186 738 200 738T226 737Q226 675 217 622T184 489Q176 490 167 491T149
496Q163 573 168 633T170 736Z" />
<glyph unicode="&#x201e;" glyph-name="quotedblbase" horiz-adv-x="235" d="M31 69Q47 71 61 71T87 70Q87 8 78 -45T45 -178Q37 -177 28 -176T10 -171Q24 -94 29 -34T31 69ZM144 69Q160 71 174 71T200 70Q200 8 191 -45T158 -178Q150 -177 141 -176T123 -171Q137
-94 142 -34T144 69Z" />
<glyph unicode="&#x2022;" glyph-name="bullet" horiz-adv-x="203" d="M35 327Q63 335 96 336T168 333Q167 295 165 269T158 217Q123 214 96 214T40 217Q36 274 36 291T35 327Z" />
<glyph unicode="&#x2039;" glyph-name="guilsinglleft" horiz-adv-x="251" d="M221 109Q209 92 201 84T184 70Q127 113 85 160T10 264Q53 290 96 333T178 433Q195 421 203 413T217 396Q184 352 148 316T69 251Q96 213 135 177T221 109Z" />
<glyph unicode="&#x203a;" glyph-name="guilsinglright" horiz-adv-x="251" d="M241 264Q209 208 167 161T67 70Q58 76 50 84T30 109Q77 141 116 177T182 251Q140 280 104 316T34 396Q40 405 48 413T73 433Q111 377 154 334T241 264Z" />
</font>
</defs>
</svg>
