<?xml version="1.0" standalone="no"?>
<!DOCTYPE svg PUBLIC "-//W3C//DTD SVG 1.1//EN" "http://www.w3.org/Graphics/SVG/1.1/DTD/svg11.dtd">
<svg xmlns="http://www.w3.org/2000/svg">
<defs >
<font id="Trirong" horiz-adv-x="672" ><font-face
    font-family="Trirong Black"
    units-per-em="1000"
    panose-1="0 0 10 0 0 0 0 0 0 0"
    ascent="1200"
    descent="-534"
    alphabetic="0" />
<glyph unicode=" " glyph-name="space" horiz-adv-x="265" />
<glyph unicode="!" glyph-name="exclam" horiz-adv-x="398" d="M101 613L100 629Q100 710 199 710Q298 710 298 629L297 613L238 198H160L101 613ZM161 -10T138 13T115 75Q115 114 138 137T200 160Q239 160 262 137T285 75Q285 36 262 13T200 -10Q161 -10 138 13Z" />
<glyph unicode="&quot;" glyph-name="quotedbl" horiz-adv-x="506" d="M45 629V634Q45 673 62 693T131 713Q181 713 199 693T218 635V629L160 403H99L45 629ZM288 629V634Q288 673 305 693T374 713Q424 713 442 693T461 635V629L403 403H342L288 629Z" />
<glyph unicode="#" glyph-name="numbersign" horiz-adv-x="887" d="M703 450L652 239H799V180H638L592 -9H463L509 180H295L249 -9H120L166 180H25V239H180L231 450H87V509H245L287 684H417L375 509H588L630 684H760L718 509H862V450H703ZM574 450H360L309 239H523L574
450Z" />
<glyph unicode="$" glyph-name="dollar" horiz-adv-x="638" d="M604 112T536 58T357 -8V-100H304V-10Q217 -10 143 16T34 87L52 240H98Q107 212 111 180T121 100Q144 78 179 65T252 52Q315 52 357 83T400 177Q400 213 381 236T332 272T251 303Q185 325 143 346T72
410T42 521Q42 609 112 657T304 710V785H357V709Q432 707 485 690T579 636L562 486H516Q496 548 490 616Q470 631 437 639T368 648Q314 648 280 626T245 554Q245 529 262 511T304 481T376 452Q447 425 492 401T571 328T604 203Q604 112 536 58Z" />
<glyph unicode="%" glyph-name="percent" horiz-adv-x="984" d="M148 -21L775 738L826 697L195 -60L148 -21ZM22 309T22 502Q22 694 237 694Q452 694 452 502Q452 309 237 309Q22 309 22 502ZM264 367T276 408T289 502Q289 554 277 595T237 637Q210 637 198 596T185
502Q185 450 197 409T237 367Q264 367 276 408ZM532 -11T532 182Q532 374 747 374Q962 374 962 182Q962 -11 747 -11Q532 -11 532 182ZM774 47T786 88T799 182Q799 234 787 275T747 317Q720 317 708 276T695 182Q695 130 707 89T747 47Q774 47 786 88Z" />
<glyph unicode="&amp;" glyph-name="ampersand" horiz-adv-x="784" d="M774 0H552Q535 15 516 36Q423 -9 316 -9Q232 -9 168 13T67 77T31 177Q31 254 78 304T207 395Q131 506 131 563Q131 639 187 674T331 710Q422 710 466 682T515 589Q515 560 500 536T463 494T401
447L382 433Q446 347 610 172Q641 209 658 252T678 339H743Q738 282 714 229T648 132L774 0ZM312 560T322 533T356 469Q398 494 420 521T443 585Q443 652 377 652Q349 652 331 637T312 584Q312 560 322 533ZM415 52T477 76Q346 213 263 318Q225 259 225 180Q225
138 242 110T286 67T341 52Q415 52 477 76Z" />
<glyph unicode="&apos;" glyph-name="quotesingle" horiz-adv-x="263" d="M45 629V634Q45 673 62 693T131 713Q181 713 199 693T218 635V629L160 403H99L45 629Z" />
<glyph unicode="(" glyph-name="parenleft" horiz-adv-x="284" d="M35 84T35 322Q35 560 188 739H260Q234 703 219 678T192 617T180 538V106Q180 63 191 28T218 -33T260 -95H188Q35 84 35 322Z" />
<glyph unicode=")" glyph-name="parenright" horiz-adv-x="284" d="M50 -59T65 -34T92 27T104 106V538Q104 581 93 616T66 677T24 739H96Q249 560 249 322Q249 84 96 -95H24Q50 -59 65 -34Z" />
<glyph unicode="*" glyph-name="asterisk" horiz-adv-x="550" d="M143 306T127 317T111 353Q111 369 120 384T143 410L224 467Q195 475 155 482T112 490Q96 494 83 507T70 547Q70 567 85 579T122 592Q144 592 156 589T188 572T251 522Q239 545 230 581T220 634Q220
664 232 679T275 694Q305 694 317 679T330 634Q330 617 321 581T299 522Q342 558 361 571T393 588T428 592Q450 592 465 580T480 547Q480 521 467 508T438 490Q436 490 396 483T326 467L407 410Q421 400 430 385T439 353Q439 329 423 318T386 306Q367 306 351 315T326
340L275 437L224 340Q215 325 199 316T164 306Q143 306 127 317Z" />
<glyph unicode="+" glyph-name="plus" horiz-adv-x="621" d="M214 254H30V343H214V529H407V343H591V254H407V68H214V254Z" />
<glyph unicode="," glyph-name="comma" horiz-adv-x="280" d="M49 -116Q117 -51 127 1Q88 1 65 25T42 82Q42 122 65 149T133 177Q183 177 207 148T231 79Q231 15 196 -50T108 -160L49 -116Z" />
<glyph unicode="-" glyph-name="hyphen" horiz-adv-x="495" d="M50 334H445V233H50V334Z" />
<glyph unicode="." glyph-name="period" horiz-adv-x="280" d="M96 -10T70 17T43 87Q43 129 69 156T140 184Q184 184 210 157T237 87Q237 45 211 18T140 -10Q96 -10 70 17Z" />
<glyph unicode="/" glyph-name="slash" horiz-adv-x="373" d="M285 698H353L87 0H20L285 698Z" />
<glyph unicode="0" glyph-name="zero" horiz-adv-x="660" d="M27 -10T27 350Q27 710 330 710Q633 710 633 350Q633 -10 330 -10Q27 -10 27 350ZM383 52T406 129T429 350Q429 494 406 571T330 648Q277 648 254 571T231 350Q231 206 254 129T330 52Q383 52 406 129Z" />
<glyph unicode="1" glyph-name="one" horiz-adv-x="660" d="M118 32Q218 52 247 55V609L116 553V632L447 763V53Q512 46 575 33V0H118V32Z" />
<glyph unicode="2" glyph-name="two" horiz-adv-x="660" d="M27 51Q35 99 63 141T126 217T220 299Q277 345 310 377T366 448T389 529Q389 587 359 617T274 648Q224 648 177 631T91 579L58 629Q174 710 309 710Q446 710 519 667T593 528Q593 472 561 427T484 350T365
275Q288 230 247 199T193 130H530Q533 148 542 173T563 216H612L597 0H27V51Z" />
<glyph unicode="3" glyph-name="three" horiz-adv-x="660" d="M221 -10T158 9T44 71L77 121Q113 90 162 71T258 52Q321 52 362 89T404 204Q404 263 376 302T286 342H170V403H286Q336 403 363 441T391 529Q391 587 362 617T278 648Q176 648 98 580L65 630Q115 665
174 687T313 710Q448 710 524 667T601 534Q601 499 583 466T531 408T458 377V373Q528 357 568 314T608 207Q608 96 523 43T302 -10Q221 -10 158 9Z" />
<glyph unicode="4" glyph-name="four" horiz-adv-x="660" d="M242 29Q264 37 295 44T349 52V145H27V230L368 702H549V264H658L639 145H549V53Q568 52 596 45T648 30V0H242V29ZM349 264V566L136 264H349Z" />
<glyph unicode="5" glyph-name="five" horiz-adv-x="660" d="M203 -10T146 9T36 71L69 121Q107 88 153 70T245 52Q307 52 346 93T385 220Q385 296 360 342T267 388Q181 388 128 302L71 312L123 700H555L547 580H177L149 390Q216 448 328 448Q469 448 529 385T589
221Q589 111 509 51T283 -10Q203 -10 146 9Z" />
<glyph unicode="6" glyph-name="six" horiz-adv-x="660" d="M184 -10T111 71T38 309Q38 511 127 610T383 710Q447 710 489 698T554 670T599 630L566 580Q538 613 502 630T410 648Q373 648 337 625T273 548T238 406Q253 433 287 451T365 469Q500 469 563 405T626
234Q626 162 592 107T492 21T333 -10Q184 -10 111 71ZM380 52T403 100T426 225Q426 302 402 353T335 404Q296 404 272 355T248 230Q248 158 272 105T337 52Q380 52 403 100Z" />
<glyph unicode="7" glyph-name="seven" horiz-adv-x="660" d="M184 172T251 312T415 580H133Q123 525 105 490H51V700H624V636Q546 569 487 459T393 226T354 0H164Q184 172 251 312Z" />
<glyph unicode="8" glyph-name="eight" horiz-adv-x="660" d="M171 -10T104 48T36 197Q36 260 79 309T188 373V377Q151 384 121 409T74 468T56 535Q56 620 129 665T330 710Q457 710 530 665T604 535Q604 502 587 468T539 409T472 377V373Q537 358 580 309T624
197Q624 107 557 49T330 -10Q171 -10 104 48ZM366 401T385 440T405 538Q405 593 384 620T330 648Q297 648 277 621T256 538Q256 481 275 441T330 401Q366 401 385 440ZM368 52T396 89T425 194Q425 263 400 302T330 341Q286 341 261 302T236 194Q236 125 263 89T329
52Q368 52 396 89Z" />
<glyph unicode="9" glyph-name="nine" horiz-adv-x="660" d="M215 -10T173 2T108 30T63 70L96 120Q124 87 160 70T252 52Q313 52 363 105T424 286Q409 259 375 241T297 223Q162 223 99 289T36 462Q36 534 70 590T170 678T329 710Q478 710 551 629T624 391Q624
189 535 90T279 -10Q215 -10 173 2ZM365 288T389 339T414 466Q414 539 390 593T325 648Q283 648 260 598T236 471Q236 393 260 341T327 288Q365 288 389 339Z" />
<glyph unicode=":" glyph-name="colon" horiz-adv-x="280" d="M96 303T70 330T43 400Q43 442 69 469T140 497Q184 497 210 470T237 400Q237 358 211 331T140 303Q96 303 70 330ZM96 -10T70 17T43 87Q43 129 69 156T140 184Q184 184 210 157T237 87Q237 45 211
18T140 -10Q96 -10 70 17Z" />
<glyph unicode=";" glyph-name="semicolon" horiz-adv-x="280" d="M96 303T70 330T43 400Q43 442 69 469T140 497Q184 497 210 470T237 400Q237 358 211 331T140 303Q96 303 70 330ZM49 -116Q117 -51 127 1Q88 1 65 25T42 82Q42 122 65 149T133 177Q183 177 207
148T231 79Q231 15 196 -50T108 -160L49 -116Z" />
<glyph unicode="&lt;" glyph-name="less" horiz-adv-x="621" d="M49 310V354L560 598V500L216 332L560 164V66L49 310Z" />
<glyph unicode="=" glyph-name="equal" horiz-adv-x="621" d="M50 419H571V331H50V419ZM50 216H571V128H50V216Z" />
<glyph unicode="&gt;" glyph-name="greater" horiz-adv-x="621" d="M61 164L405 332L61 500V598L572 354V310L61 66V164Z" />
<glyph unicode="?" glyph-name="question" horiz-adv-x="524" d="M191 224T191 254Q191 314 211 352T268 431Q297 464 310 487T324 543Q324 597 300 622T208 648Q162 648 126 632T46 582L17 628Q74 672 135 691T274 710Q374 710 439 670T505 546Q505 503 489 473T450
423T386 378Q349 355 327 338T290 293T275 228Q275 209 279 189H198Q191 224 191 254ZM200 -10T177 13T154 75Q154 114 177 137T239 160Q278 160 301 137T324 75Q324 36 301 13T239 -10Q200 -10 177 13Z" />
<glyph unicode="@" glyph-name="at" horiz-adv-x="847" d="M295 -58T207 -8T75 123T31 299Q31 395 78 480T217 619T439 672Q542 672 626 631T759 514T808 344Q808 283 785 231T720 147T623 115Q591 115 564 137T534 195H530Q514 152 475 134T393 115Q295 115 251
163T206 289Q206 342 229 389T304 467T433 498Q487 498 530 488T611 453L592 223Q589 192 604 182T634 172Q661 172 686 195T726 258T742 346Q742 423 704 485T598 582T443 617Q337 617 262 573T150 459T112 309Q112 226 144 157T250 44T443 1Q490 1 556 13T674
53V-11Q615 -33 547 -45T421 -58Q295 -58 207 -8ZM424 173T442 196T463 258L482 417Q475 422 460 425T436 429Q396 429 371 379T346 270Q346 228 360 201T400 173Q424 173 442 196Z" />
<glyph unicode="A" glyph-name="A" horiz-adv-x="813" d="M767 36T807 22V0H451V25Q508 44 530 48L485 176H230L183 46Q207 42 233 32T265 20V0H6V26Q48 40 86 49L334 704H479L728 46Q767 36 807 22ZM464 235L359 534L251 235H464Z" />
<glyph unicode="B" glyph-name="B" horiz-adv-x="669" d="M14 21Q75 45 94 49V654Q70 658 14 677V700H367Q505 700 564 660T624 538Q624 481 592 438T498 374V367Q576 347 614 299T653 197Q653 98 594 49T398 0H14V21ZM335 397Q378 397 400 431T423 526Q423 586
403 613T339 641H294V397H335ZM369 59Q453 59 453 204Q453 271 428 305T356 339H294V59H369Z" />
<glyph unicode="C" glyph-name="C" horiz-adv-x="694" d="M222 -10T128 85T34 350Q34 519 127 614T396 710Q490 710 551 689T657 625L640 463H594Q574 526 566 610Q537 632 509 640T446 648Q385 648 338 613T265 511T238 350Q238 208 288 130T427 52Q473 52 524
68T623 120L651 67Q608 30 543 10T402 -10Q222 -10 128 85Z" />
<glyph unicode="D" glyph-name="D" horiz-adv-x="747" d="M24 24Q44 30 54 34Q95 47 102 48V655Q81 660 44 672L24 678V700H375Q552 700 632 612T713 350Q713 178 632 89T374 0H24V24ZM372 59Q446 59 477 134T509 350Q509 489 478 565T374 641H299V59H372Z" />
<glyph unicode="E" glyph-name="E" horiz-adv-x="692" d="M658 196L637 0H24V22Q67 37 112 45V655Q67 663 24 678V700H638V503H596Q583 522 567 569T549 641H312V391H461Q470 446 483 479H514V243H483Q475 267 469 292T461 332H312V59H557Q559 87 579 132T616 196H658Z" />
<glyph unicode="F" glyph-name="F" horiz-adv-x="642" d="M618 700V503H576Q563 522 547 569T529 641H312V349H461Q470 404 483 437H514V201H483Q475 225 469 250T461 290H312V45Q357 37 400 22V0H24V22Q67 37 112 45V655Q67 663 24 678V700H618Z" />
<glyph unicode="G" glyph-name="G" horiz-adv-x="756" d="M227 -10T131 85T34 350Q34 461 78 542T206 666T409 710Q505 710 576 688T690 625L673 463H627Q606 533 599 610Q549 648 459 648Q396 648 346 613T267 510T238 350Q238 256 262 189T331 87T433 52Q462
52 484 55V298Q440 309 406 319V343H747V326Q737 318 715 309T678 295V48Q640 21 564 6T408 -10Q227 -10 131 85Z" />
<glyph unicode="H" glyph-name="H" horiz-adv-x="851" d="M803 668T791 665Q751 652 748 652V45Q779 39 827 22V0H472V19Q525 40 535 43T548 47V326H302V44Q321 40 378 22V0H24V24Q44 30 54 34Q95 47 102 48V655Q70 662 24 678V700H378V681Q325 660 315 657T302
653V385H548V656Q529 660 472 678V700H827V676Q803 668 791 665Z" />
<glyph unicode="I" glyph-name="I" horiz-adv-x="407" d="M24 25L103 47V655Q90 658 24 677V700H383V675L303 653V45Q319 42 359 30L383 23V0H24V25Z" />
<glyph unicode="J" glyph-name="J" horiz-adv-x="554" d="M161 -10T106 7T16 54L45 102Q65 86 97 74T160 62Q200 62 226 87T253 165V653Q229 658 175 676V700H530V676L496 665Q457 653 453 652V176Q453 81 385 36T218 -10Q161 -10 106 7Z" />
<glyph unicode="K" glyph-name="K" horiz-adv-x="851" d="M800 37T848 23V0H584L367 306L303 240V45Q315 43 334 38T363 29L382 23V0H24V25L103 47V655Q67 663 24 678V700H382V675L303 653V343L606 654L523 669V700H776V669L750 663Q728 659 715 655T693 641L483
425L758 46Q800 37 848 23Z" />
<glyph unicode="L" glyph-name="L" horiz-adv-x="692" d="M24 22Q67 37 112 45V655Q79 662 33 678V700H391V675L312 653V59H557Q559 87 579 132T616 196H658L637 0H24V22Z" />
<glyph unicode="M" glyph-name="M" horiz-adv-x="1000" d="M25 22Q75 37 103 44V655Q67 663 24 678V700H305L488 219L694 700H976V678L898 652V44Q926 37 976 22V0H620V22Q670 37 698 44V549L493 75H377L177 565V44Q205 37 255 22V0H25V22Z" />
<glyph unicode="N" glyph-name="N" horiz-adv-x="792" d="M25 22Q75 37 103 44V655Q70 662 24 678V700H297L616 237V656Q588 663 538 678V700H768V678Q718 663 690 656V0H593L177 602V44Q205 37 255 22V0H25V22Z" />
<glyph unicode="O" glyph-name="O" horiz-adv-x="801" d="M223 -10T128 85T32 350Q32 519 127 614T401 710Q518 710 600 667T726 542T769 350Q769 239 726 158T601 34T401 -10Q223 -10 128 85ZM483 52T524 133T565 350Q565 486 524 567T401 648Q318 648 277 567T236
350Q236 214 277 133T401 52Q483 52 524 133Z" />
<glyph unicode="P" glyph-name="P" horiz-adv-x="679" d="M24 25L104 47V655Q69 662 26 677V700H422Q553 700 609 644T665 496Q665 434 638 382T557 299T425 268H304V45Q320 42 360 30L384 23V0H24V25ZM369 326Q420 326 443 374T467 498Q467 641 369 641H304V326H369Z" />
<glyph unicode="Q" glyph-name="Q" horiz-adv-x="801" d="M769 206T698 114T494 -2Q510 -47 552 -74T659 -107V-159Q516 -147 430 -107T318 -4Q179 18 106 110T32 350Q32 519 127 614T401 710Q518 710 600 667T726 542T769 350Q769 206 698 114ZM483 52T524 133T565
350Q565 486 524 567T401 648Q318 648 277 567T236 350Q236 214 277 133T401 52Q483 52 524 133Z" />
<glyph unicode="R" glyph-name="R" horiz-adv-x="757" d="M710 34T743 22V0H503L358 298H304V45Q320 42 360 30L384 23V0H24V25L104 47V655Q69 662 26 677V700H440Q571 700 623 649T675 506Q675 432 635 381T524 309L664 46Q710 34 743 22ZM304 356H369Q477 356
477 508Q477 577 451 609T369 641H304V356Z" />
<glyph unicode="S" glyph-name="S" horiz-adv-x="638" d="M218 -10T144 16T34 87L52 240H98Q107 212 111 180T121 100Q144 78 179 65T252 52Q315 52 357 83T400 177Q400 213 381 236T332 272T251 303Q185 325 143 346T72 410T42 521Q42 614 119 662T327 710Q415
710 475 693T579 636L562 486H516Q496 548 490 616Q470 631 437 639T368 648Q314 648 280 626T245 554Q245 529 262 511T304 481T376 452Q447 425 492 401T571 328T604 203Q604 135 565 87T458 15T305 -10Q218 -10 144 16Z" />
<glyph unicode="T" glyph-name="T" horiz-adv-x="704" d="M163 25L252 47V641H113Q111 614 95 552T66 473H24V700H680V473H638Q626 490 610 552T591 641H452V45Q488 39 542 23V0H163V25Z" />
<glyph unicode="U" glyph-name="U" horiz-adv-x="823" d="M263 -10T181 48T98 225V655Q66 662 18 678V700H377V675L298 653V209Q298 125 347 89T472 52Q547 52 599 89T651 209V656Q616 663 571 678V700H805V678Q750 659 725 653V225Q725 112 649 51T422 -10Q263
-10 181 48Z" />
<glyph unicode="V" glyph-name="V" horiz-adv-x="829" d="M93 654Q54 664 14 678V700H365V675Q308 656 286 652L460 166L638 654Q614 658 588 668T556 680V700H815V674Q773 660 735 651L487 0H342L93 654Z" />
<glyph unicode="W" glyph-name="W" horiz-adv-x="1069" d="M87 654Q64 659 43 667T14 679V700H362V677Q346 670 318 662T279 652L372 218L533 677H612L790 131L911 662Q868 668 840 677V700H1055V682Q1044 675 1025 669T994 661L832 0H660L527 399L388 0H243L87 654Z" />
<glyph unicode="X" glyph-name="X" horiz-adv-x="724" d="M706 34T739 23V0H387V19Q448 46 474 50L330 269L150 43L217 24V0H4V25L59 43L67 45L292 326L78 652Q39 662 0 677V700H352V674Q285 654 266 651L395 454L557 656L489 677V700H703V680Q663 662 639 656L432
396L660 46Q706 34 739 23Z" />
<glyph unicode="Y" glyph-name="Y" horiz-adv-x="796" d="M223 22Q234 25 247 31Q251 32 268 38T301 46V311L96 652Q45 666 14 677V700H371V674Q301 654 286 651L448 385L618 657Q587 666 552 678V700H782V675Q750 663 720 655L501 309V45Q517 42 557 30L581 23V0H223V22Z"
/>
<glyph unicode="Z" glyph-name="Z" horiz-adv-x="645" d="M20 39L409 641H137Q136 616 120 569T90 503H48V700H621V678L226 59H524Q526 87 546 132T583 196H625L604 0H20V39Z" />
<glyph unicode="[" glyph-name="bracketleft" horiz-adv-x="327" d="M18 710H317V653H157V-62H317V-122H18V710Z" />
<glyph unicode="\" glyph-name="backslash" horiz-adv-x="373" d="M20 698H88L353 0H286L20 698Z" />
<glyph unicode="]" glyph-name="bracketright" horiz-adv-x="327" d="M10 -62H170V653H10V710H309V-122H10V-62Z" />
<glyph unicode="^" glyph-name="asciicircum" horiz-adv-x="592" d="M235 729H357L570 316H453L296 678L139 316H22L235 729Z" />
<glyph unicode="_" glyph-name="underscore" horiz-adv-x="493" d="M-3 -54H496V-114H-3V-54Z" />
<glyph unicode="`" glyph-name="grave" horiz-adv-x="530" d="M200 684Q169 702 154 719T139 758Q139 777 154 793T200 809Q226 809 245 795T276 767L403 628L372 584L200 684Z" />
<glyph unicode="a" glyph-name="a" horiz-adv-x="616" d="M99 -10T57 27T15 140Q15 221 74 257T233 294H345V355Q345 450 243 450Q203 450 157 437T72 405L63 454Q112 480 174 493T302 507Q412 507 475 468T539 361V52Q572 43 606 32V18L345 -7V52Q323 25 284
8T198 -10Q99 -10 57 27ZM293 52T313 65T345 104V236H277Q242 236 225 211T207 141Q207 52 273 52Q293 52 313 65Z" />
<glyph unicode="b" glyph-name="b" horiz-adv-x="683" d="M332 -10T293 14T239 69L210 0H77V643Q44 652 10 663V678L271 703V466Q323 507 415 507Q479 507 533 478T620 392T653 261Q653 122 584 56T387 -10Q332 -10 293 14ZM414 48T437 105T461 256Q461 352 437
400T358 449Q333 449 308 435T271 403V173Q271 121 295 85T362 48Q414 48 437 105Z" />
<glyph unicode="c" glyph-name="c" horiz-adv-x="581" d="M235 -10T168 22T65 112T30 248Q30 330 68 388T175 476T335 507Q465 507 556 431L545 300H504Q498 320 494 350T490 408Q463 429 437 439T381 450Q314 450 270 400T226 250Q226 164 262 105T372 45Q413
45 461 60T543 104L561 62Q524 31 463 11T328 -10Q235 -10 168 22Z" />
<glyph unicode="d" glyph-name="d" horiz-adv-x="684" d="M443 80Q387 -10 264 -10Q152 -10 91 48T30 226Q30 307 58 370T146 470T292 507Q369 507 413 469V643Q384 651 347 663V678L607 703V52Q645 42 674 32V20L450 -11L443 80ZM344 48T365 61T399 103T413 171V405Q393
427 368 438T320 449Q262 449 244 380T225 226Q225 48 322 48Q344 48 365 61Z" />
<glyph unicode="e" glyph-name="e" horiz-adv-x="616" d="M592 233H220Q223 152 257 99T362 45Q404 45 456 60T547 104L565 62Q529 32 463 11T322 -10Q229 -10 162 22T59 112T24 248Q24 372 102 439T323 507Q413 507 473 475T563 388T592 267V233ZM423 291Q423
324 414 360T381 423T322 449Q280 449 255 404T222 291H423Z" />
<glyph unicode="f" glyph-name="f" horiz-adv-x="485" d="M355 665T331 636T306 554V498H450V441H306V44Q355 35 393 22V0H34V24L112 46V441H20V498H112V554Q112 611 139 650T212 708T310 727Q404 727 465 704L455 654Q426 665 390 665Q355 665 331 636Z" />
<glyph unicode="g" glyph-name="g" horiz-adv-x="599" d="M478 132T527 93T577 -10Q577 -86 506 -125T284 -164Q153 -164 94 -134T35 -39Q35 -20 45 -1T76 31Q50 58 50 100Q50 131 65 159T112 207Q30 250 30 340Q30 422 97 464T288 507Q411 507 477 465Q492 497
492 525H609Q605 485 588 455T533 401Q545 374 545 340Q545 258 479 216T288 174Q230 174 183 183Q174 174 174 158Q174 132 208 132H401Q478 132 527 93ZM256 449T239 419T222 340Q222 292 239 262T288 231Q320 231 336 261T353 340Q353 388 337 418T288 449Q256
449 239 419ZM353 -114T397 -98T442 -43Q442 -20 426 -10T379 0H169Q163 -12 163 -29Q163 -76 204 -95T299 -114Q353 -114 397 -98Z" />
<glyph unicode="h" glyph-name="h" horiz-adv-x="762" d="M690 39T742 22V0H403V21Q449 41 470 45V362Q470 412 451 430T396 449Q373 449 345 435T290 388V44Q315 39 357 22V0H20V21Q33 27 56 35T96 45V643Q64 651 30 664V678L290 703V443Q323 473 368 490T465
507Q553 507 608 470T664 364V44Q690 39 742 22Z" />
<glyph unicode="i" glyph-name="i" horiz-adv-x="388" d="M144 536T119 561T93 625Q93 664 118 689T185 715Q226 715 252 690T278 625Q278 586 252 561T185 536Q144 536 119 561ZM20 21Q51 32 97 45V448Q78 452 30 468V482L291 507V44Q314 39 368 21V0H20V21Z" />
<glyph unicode="j" glyph-name="j" horiz-adv-x="397" d="M170 536T145 561T119 625Q119 664 144 689T211 715Q252 715 278 690T304 625Q304 586 278 561T211 536Q170 536 145 561ZM18 -129T-43 -106L-33 -56Q-4 -67 35 -67Q75 -67 99 -37T123 38V448Q104 452
56 468V482L317 507V44Q317 -13 289 -52T214 -110T115 -129Q18 -129 -43 -106Z" />
<glyph unicode="k" glyph-name="k" horiz-adv-x="751" d="M688 40T741 22V0H509L336 224L291 184V44Q319 39 369 22V0H20V21Q28 24 52 33T97 45V643Q65 651 30 664V678L291 703V266L500 447Q456 456 413 477V498H689V477Q669 468 635 457T585 443L443 318L653
47Q688 40 741 22Z" />
<glyph unicode="l" glyph-name="l" horiz-adv-x="389" d="M20 21Q44 30 97 45V643Q65 651 30 664V678L291 703V44Q319 39 369 22V0H20V21Z" />
<glyph unicode="m" glyph-name="m" horiz-adv-x="1112" d="M1040 39T1092 22V0H754V21Q756 22 777 32T820 45V362Q820 412 800 430T745 449Q695 449 647 387Q649 373 649 364V44Q685 37 713 22V0H401V21Q436 41 465 45V362Q465 412 448 430T396 449Q373 449 346
436T291 390V44Q317 39 368 22V0H20V21Q63 40 97 45V452Q78 456 30 472V486L291 511V447Q356 507 455 507Q519 507 565 487T633 429Q701 507 814 507Q902 507 958 470T1014 364V44Q1040 39 1092 22Z" />
<glyph unicode="n" glyph-name="n" horiz-adv-x="761" d="M713 35T741 22V0H404V21Q413 26 433 34T471 45V362Q471 412 451 430T396 449Q373 449 346 436T291 390V44Q317 39 368 22V0H20V21Q63 40 97 45V452Q78 456 30 472V486L291 511V445Q324 474 369 490T465
507Q553 507 609 470T665 364V44Q713 35 741 22Z" />
<glyph unicode="o" glyph-name="o" horiz-adv-x="660" d="M178 -10T99 57T20 248Q20 371 99 439T330 507Q482 507 561 439T640 248Q640 125 561 58T330 -10Q178 -10 99 57ZM382 48T413 101T444 248Q444 342 413 395T330 449Q278 449 247 396T216 248Q216 155 247
102T330 48Q382 48 413 101Z" />
<glyph unicode="p" glyph-name="p" horiz-adv-x="695" d="M20 -207L98 -185V452Q81 455 31 471V486L292 511V456Q315 483 351 495T418 507Q544 507 609 446T675 261Q675 121 607 56T405 -10Q375 -10 343 1T292 37V-187Q316 -193 369 -209V-231H20V-207ZM479 48T479
256Q479 356 460 402T388 449Q363 449 336 432T292 389V173Q292 121 316 85T382 48Q479 48 479 256Z" />
<glyph unicode="q" glyph-name="q" horiz-adv-x="697" d="M327 -210Q371 -193 405 -186V40Q387 16 355 3T293 -10Q20 -10 20 244Q20 325 54 385T143 476T263 507Q309 507 347 494T405 458V511L667 486V472L599 450V-188Q630 -195 677 -209V-231H327V-210ZM355
48T380 84T405 173V401Q392 422 365 435T317 449Q216 449 216 255Q216 48 313 48Q355 48 380 84Z" />
<glyph unicode="r" glyph-name="r" horiz-adv-x="561" d="M20 24Q51 37 98 46V452Q79 456 31 472V485L270 511L286 410H291Q311 461 349 484T432 507Q469 507 496 501T551 479L515 390Q483 411 451 411Q403 411 361 380T292 297V44Q329 38 368 21V0H20V24Z" />
<glyph unicode="s" glyph-name="s" horiz-adv-x="547" d="M206 -10T136 10T30 62L41 183H82Q96 138 96 85Q114 69 145 59T210 48Q258 48 290 68T323 128Q323 157 296 173T214 206Q159 224 125 240T66 288T41 370Q41 434 106 470T269 507Q415 507 490 444L479 334H438Q424
378 424 425Q410 436 377 444T311 452Q276 452 254 439T231 397Q231 369 257 353T339 319Q394 301 430 284T491 232T517 144Q517 63 450 27T282 -10Q206 -10 136 10Z" />
<glyph unicode="t" glyph-name="t" horiz-adv-x="438" d="M417 13Q356 -10 262 -10Q64 -10 64 137V441H-6V498H64Q146 520 161 632H258V498H398V441H258V137Q258 86 280 69T342 52Q378 52 407 63L417 13Z" />
<glyph unicode="u" glyph-name="u" horiz-adv-x="722" d="M666 40T712 25V11L450 -14V36Q417 15 377 3T296 -10Q194 -10 136 26T77 129V452Q58 456 10 472V486L271 511V139Q271 88 290 68T348 48Q364 48 393 60T450 93V452Q434 455 384 472V486L644 511V45Q666
40 712 25Z" />
<glyph unicode="v" glyph-name="v" horiz-adv-x="645" d="M70 455Q45 461 6 478V498H332L331 479Q323 473 300 467T255 456L369 132L484 457Q478 458 451 464T412 476V498H639V479Q627 472 609 465T575 454L403 0H246L70 455Z" />
<glyph unicode="w" glyph-name="w" horiz-adv-x="865" d="M75 455Q38 464 6 478V498H337V468Q303 457 264 453L332 205L423 451H520L620 159L702 454Q668 463 629 477V498H859V478Q802 458 790 455L664 0H529L434 290L331 0H201L75 455Z" />
<glyph unicode="x" glyph-name="x" horiz-adv-x="678" d="M616 39T668 21V0H337V23Q393 43 403 45L303 177L172 44Q185 42 221 31Q228 29 234 27T247 23V0H10V20Q16 22 44 32T88 45L266 226L95 452Q74 456 24 479V498H348V475Q309 461 306 460Q289 454 281 453L371
334L490 455Q447 465 416 477V498H653V478Q635 468 613 462T574 452L408 284L589 44Q616 39 668 21Z" />
<glyph unicode="y" glyph-name="y" horiz-adv-x="662" d="M652 498V479Q602 459 582 454L372 -62Q343 -133 304 -163T199 -194Q140 -194 71 -158L102 -76Q135 -89 159 -96T205 -103Q231 -103 250 -88T291 -19L300 2L70 456Q30 465 6 478V498H334V476Q315 468 250
458L376 189L488 462Q450 470 433 477V498H652Z" />
<glyph unicode="z" glyph-name="z" horiz-adv-x="539" d="M18 25L320 441H127Q117 391 99 355H46V498H521V467L222 57H415Q431 105 450 143H510L497 0H18V25Z" />
<glyph unicode="{" glyph-name="braceleft" horiz-adv-x="414" d="M277 -122T219 -107T143 -61T125 29V189Q125 226 106 241T30 258V331Q87 332 106 347T125 399V559Q125 618 143 649T219 695T399 710V656Q359 654 336 648T301 623T288 567V395Q288 325 198 294Q241
279 264 253T288 193V21Q288 -15 300 -34T336 -59T399 -67V-122Q277 -122 219 -107Z" />
<glyph unicode="|" glyph-name="bar" horiz-adv-x="477" d="M162 747H315V-208H162V747Z" />
<glyph unicode="}" glyph-name="braceright" horiz-adv-x="414" d="M15 -67Q54 -66 77 -60T113 -34T126 21V193Q126 227 149 253T216 294Q126 325 126 395V567Q126 604 114 622T78 647T15 656V710Q137 710 195 695T271 649T289 559V399Q289 362 308 347T384 331V258Q328
257 309 242T289 189V29Q289 -30 271 -61T195 -107T15 -122V-67Z" />
<glyph unicode="~" glyph-name="asciitilde" horiz-adv-x="623" d="M68 277Q86 299 118 314T182 330Q207 330 234 325T310 306Q356 293 388 287T450 280Q486 280 507 291T555 331V245Q538 222 510 210T451 198Q416 198 382 205T299 225Q257 237 231 242T180 248Q119
248 68 195V277Z" />
<glyph unicode="&#xa0;" glyph-name="uni00A0" horiz-adv-x="265" />
<glyph unicode="&#xa1;" glyph-name="exclamdown" horiz-adv-x="398" d="M161 337T138 360T115 422Q115 461 138 484T200 507Q239 507 262 484T285 422Q285 383 262 360T200 337Q161 337 138 360ZM100 -213T100 -132L101 -116L160 299H238L297 -116L298 -132Q298
-213 199 -213Q100 -213 100 -132Z" />
<glyph unicode="&#xa2;" glyph-name="cent" horiz-adv-x="581" d="M528 35T475 15T357 -9V-89H304V-9Q175 -3 103 66T30 248Q30 363 104 430T304 506V580H357V506Q473 501 556 431L545 300H504Q498 320 494 350T490 408Q463 429 437 439T381 450Q314 450 270 400T226
250Q226 164 262 105T372 45Q413 45 461 60T543 104L561 62Q528 35 475 15Z" />
<glyph unicode="&#xa3;" glyph-name="sterling" horiz-adv-x="649" d="M19 57H89Q111 79 116 93T121 138V323H28V380H121V530Q121 616 194 663T398 710Q479 710 531 690T622 633L596 592Q569 625 529 641T439 658Q384 658 348 624T312 520V380H508V323H312V157Q312
122 300 99T260 59H509Q511 87 531 132T568 196H610L589 0H19V57Z" />
<glyph unicode="&#xa4;" glyph-name="currency" horiz-adv-x="622" d="M84 111L146 172Q106 227 106 292Q106 357 146 412L81 475L123 518L188 455Q243 497 311 497Q379 497 434 455L499 518L541 475L476 412Q516 357 516 292Q516 227 476 172L536 112L494 69L434
129Q379 87 311 87Q243 87 188 129L126 68L84 111ZM349 149T382 168T435 219T455 291Q455 331 436 364T383 416T310 435Q272 435 239 416T187 365T167 292Q167 253 186 221T239 169T310 149Q349 149 382 168Z" />
<glyph unicode="&#xa5;" glyph-name="yen" horiz-adv-x="796" d="M782 700V675Q750 663 720 655L558 399H711V343H523L501 309V211H711V155H501V45Q517 42 557 30L581 23V0H223V22Q234 25 247 31Q251 32 268 38T301 46V155H122V211H301V311L282 343H122V399H248L96
652Q45 666 14 677V700H371V674Q301 654 286 651L439 399H457L618 657Q587 666 552 678V700H782Z" />
<glyph unicode="&#xa6;" glyph-name="brokenbar" horiz-adv-x="477" d="M162 747H315V336H162V747ZM162 258H315V-208H162V258Z" />
<glyph unicode="&#xa7;" glyph-name="section" horiz-adv-x="650" d="M610 62T610 -27Q610 -95 571 -143T464 -215T311 -240Q224 -240 150 -214T40 -143L58 10H104Q113 -18 117 -50T127 -130Q150 -152 185 -165T258 -178Q321 -178 363 -147T406 -53Q406 -17 387
6T338 42T257 73Q191 95 149 116T78 180T48 291Q48 379 119 428Q48 479 48 573Q48 666 125 714T333 762Q421 762 481 745T585 688L568 538H522Q502 600 496 668Q476 683 443 691T374 700Q320 700 286 678T251 606Q251 581 268 563T310 533T382 504Q453 477 498
453T577 380T610 255Q610 174 553 119Q610 62 610 -27ZM231 296T249 276T296 243T375 212L422 195Q426 210 426 229Q426 267 405 292T351 331T262 364Q253 368 242 371Q231 351 231 324Q231 296 249 276Z" />
<glyph unicode="&#xa8;" glyph-name="dieresis" horiz-adv-x="530" d="M105 584T86 604T66 656Q66 687 85 708T138 729Q171 729 191 708T211 656Q211 625 191 605T138 584Q105 584 86 604ZM358 584T339 604T319 656Q319 687 338 708T391 729Q424 729 444 708T464
656Q464 625 444 605T391 584Q358 584 339 604Z" />
<glyph unicode="&#xa9;" glyph-name="copyright" horiz-adv-x="830" d="M310 -10T227 37T96 168T48 357Q48 462 95 545T226 676T415 724Q520 724 603 677T734 546T782 357Q782 252 735 169T604 38T415 -10Q310 -10 227 37ZM504 46T573 87T681 199T720 357Q720
444 682 515T574 627T415 668Q326 668 257 627T149 515T110 357Q110 270 148 199T256 87T415 46Q504 46 573 87ZM382 138T328 165T241 242T207 357Q207 461 266 518T443 576Q478 576 523 565T587 539L582 432H539Q535 440 533 475T530 514Q519 525 496 533T447
542Q394 542 366 519T329 457T320 357Q320 281 353 231T447 180Q469 180 503 188T558 209L562 174Q542 158 508 148T441 138Q382 138 328 165Z" />
<glyph unicode="&#xaa;" glyph-name="ordfeminine" horiz-adv-x="412" d="M77 379T50 403T23 475Q23 527 60 550T162 574H234V613Q234 674 169 674Q122 674 60 645L54 676Q85 692 125 701T207 710Q278 710 318 685T358 616V418L402 406V397L234 381V418Q221 401
196 390T140 379Q77 379 50 403ZM201 418T213 427T234 452V536H191Q169 536 158 520T146 475Q146 418 188 418Q201 418 213 427Z" />
<glyph unicode="&#xab;" glyph-name="guillemotleft" horiz-adv-x="637" d="M175 138T32 253V274Q102 333 161 394T275 538L351 418Q335 391 298 355T196 262Q260 205 298 169T351 106L275 -14Q175 138 32 253ZM426 138T283 253V274Q353 333 412 394T526 538L602
418Q586 391 549 355T447 262Q511 205 549 169T602 106L526 -14Q426 138 283 253Z" />
<glyph unicode="&#xac;" glyph-name="logicalnot" horiz-adv-x="518" d="M405 319H30V377H478V173H405V319Z" />
<glyph unicode="&#xad;" glyph-name="uni00AD" horiz-adv-x="495" d="M50 334H445V233H50V334Z" />
<glyph unicode="&#xae;" glyph-name="registered" horiz-adv-x="830" d="M520 724T603 677T734 546T782 357Q782 252 735 169T604 38T415 -10Q310 -10 227 37T96 168T48 357Q48 462 95 545T226 676T415 724Q520 724 603 677ZM504 46T573 87T681 199T720 357Q720
444 682 515T574 627T415 668Q326 668 257 627T149 515T110 357Q110 270 148 199T256 87T415 46Q504 46 573 87ZM614 178T638 169V156H495L411 332H378V182Q397 179 426 169V156H213V170Q228 175 241 179T260 184V543Q229 550 214 556V569H458Q536 569 567 539T598
455Q598 408 573 376T497 335L592 183Q614 178 638 169ZM378 367H416Q481 367 481 456Q481 497 466 516T416 535H378V367Z" />
<glyph unicode="&#xaf;" glyph-name="overscore" horiz-adv-x="530" d="M28 753H502V695H28V753Z" />
<glyph unicode="&#xb0;" glyph-name="degree" horiz-adv-x="380" d="M118 432T74 476T30 588Q30 656 74 700T190 744Q262 744 306 700T350 588Q350 520 306 476T190 432Q118 432 74 476ZM230 496T255 522T281 588Q281 627 256 653T190 680Q150 680 125 654T99
588Q99 549 124 523T190 496Q230 496 255 522Z" />
<glyph unicode="&#xb1;" glyph-name="plusminus" horiz-adv-x="621" d="M214 316H30V405H214V571H407V405H591V316H407V150H214V316ZM54 108H556V20H54V108Z" />
<glyph unicode="&#xb2;" glyph-name="uni00B2" horiz-adv-x="500" d="M53 305Q64 341 90 370T160 435Q213 480 239 513T265 593Q265 626 247 642T199 658Q133 658 77 612L58 648Q82 671 128 690T238 710Q335 710 385 682T435 592Q435 555 418 527T374 478T305
429Q299 425 279 411T243 385T216 360H395Q398 372 405 388T420 416H446L438 264H53V305Z" />
<glyph unicode="&#xb3;" glyph-name="uni00B3" horiz-adv-x="500" d="M170 254T121 274T48 316L67 352Q123 306 195 306Q232 306 254 328T276 387Q276 419 260 442T208 465H123V523H209Q243 523 258 544T274 593Q274 626 252 642T196 658Q168 658 138 646T82 614L64
648Q87 670 136 690T249 710Q342 710 388 682T434 600Q434 564 417 537T365 498V493Q407 479 425 454T444 390Q444 326 387 290T234 254Q170 254 121 274Z" />
<glyph unicode="&#xb4;" glyph-name="acute" horiz-adv-x="530" d="M139 628L266 767Q277 781 296 795T342 809Q372 809 387 793T403 758Q403 737 388 720T342 684L170 584L139 628Z" />
<glyph unicode="&#xb6;" glyph-name="paragraph" horiz-adv-x="575" d="M135 24L213 46V310Q124 320 77 373T30 511Q30 609 81 654T237 700H565V679Q503 658 486 654V44Q512 39 564 22V0H392V648H308V0H135V24ZM213 648Q150 648 121 609T91 510Q91 464 110 433T157
386T213 370V648Z" />
<glyph unicode="&#xb7;" glyph-name="middot" horiz-adv-x="313" d="M123 277T104 297T84 349Q84 380 103 401T156 422Q189 422 209 401T229 349Q229 318 209 298T156 277Q123 277 104 297Z" />
<glyph unicode="&#xb8;" glyph-name="cedilla" horiz-adv-x="530" d="M224 -274T187 -263T124 -234L153 -188Q169 -198 193 -204T242 -211Q280 -211 304 -198T328 -154Q328 -128 307 -118T254 -107Q239 -107 232 -108L204 -71L257 32H337L292 -57L313 -58Q369
-64 395 -91T421 -154Q421 -211 375 -242T259 -274Q224 -274 187 -263Z" />
<glyph unicode="&#xb9;" glyph-name="uni00B9" horiz-adv-x="500" d="M81 290Q92 294 153 310Q177 316 174 315V597L87 572V622L354 714V312Q370 310 396 304T438 292V264H81V290Z" />
<glyph unicode="&#xba;" glyph-name="ordmasculine" horiz-adv-x="434" d="M120 379T71 422T22 545Q22 623 71 666T217 710Q314 710 363 667T412 545Q412 466 363 423T217 379Q120 379 71 422ZM246 434T261 464T276 545Q276 596 261 625T218 655Q191 655 175 625T159
545Q159 494 174 464T218 434Q246 434 261 464Z" />
<glyph unicode="&#xbb;" glyph-name="guillemotright" horiz-adv-x="637" d="M35 106Q50 132 88 168T190 262Q125 318 88 354T35 418L111 538Q165 455 224 394T354 274V253Q211 138 111 -14L35 106ZM286 106Q301 132 339 168T441 262Q376 318 339 354T286 418L362
538Q416 455 475 394T605 274V253Q462 138 362 -14L286 106Z" />
<glyph unicode="&#xbc;" glyph-name="onequarter" horiz-adv-x="1100" d="M46 290Q57 294 118 310Q142 316 139 315V597L52 572V622L319 714V312Q335 310 361 304T403 292V264H46V290ZM755 698H815L380 0H321L755 698ZM583 130L801 441H981V157H1042V100H981V45Q992
43 1038 30V0H730V31Q749 36 801 44V100H583V130ZM801 157V358L658 157H801Z" />
<glyph unicode="&#xbd;" glyph-name="onehalf" horiz-adv-x="1100" d="M46 290Q57 294 118 310Q142 316 139 315V597L52 572V622L319 714V312Q335 310 361 304T403 292V264H46V290ZM733 698H793L358 0H299L733 698ZM650 41Q661 77 687 106T757 171Q810 216 836
249T862 329Q862 362 844 378T796 394Q730 394 674 348L655 384Q679 407 725 426T835 446Q932 446 982 418T1032 328Q1032 291 1015 263T971 214T902 165Q896 161 876 147T840 121T813 96H992Q995 108 1002 124T1017 152H1043L1035 0H650V41Z" />
<glyph unicode="&#xbe;" glyph-name="threequarters" horiz-adv-x="1100" d="M68 357Q124 311 196 311Q233 311 255 333T277 392Q277 424 261 447T209 470H124V528H210Q244 528 259 547T275 593Q275 626 253 642T197 658Q169 658 139 646T83 614L65 648Q88 670
137 690T250 710Q343 710 389 682T435 600Q435 565 418 540T366 503V498Q408 484 426 459T445 395Q445 331 388 295T235 259Q171 259 122 279T49 321L68 357ZM751 698H811L376 0H317L751 698ZM583 130L801 441H981V157H1042V100H981V45Q992 43 1038 30V0H730V31Q749
36 801 44V100H583V130ZM801 157V358L658 157H801Z" />
<glyph unicode="&#xbf;" glyph-name="questiondown" horiz-adv-x="524" d="M244 337T221 360T198 422Q198 461 221 484T283 507Q322 507 345 484T368 422Q368 383 345 360T283 337Q244 337 221 360ZM148 -213T83 -173T17 -49Q17 -6 33 24T72 74T136 119Q173 142
195 159T232 204T247 269Q247 288 243 308H324Q331 273 331 243Q331 183 311 145T254 66Q225 33 212 10T198 -46Q198 -100 222 -125T314 -151Q360 -151 396 -135T476 -85L505 -131Q448 -175 387 -194T248 -213Q148 -213 83 -173Z" />
<glyph unicode="&#xc0;" glyph-name="Agrave" horiz-adv-x="813" d="M304 904T289 921T274 960Q274 979 289 995T335 1011Q361 1011 380 997T411 969L538 830L507 786L335 886Q304 904 289 921ZM767 36T807 22V0H451V25Q508 44 530 48L485 176H230L183 46Q207
42 233 32T265 20V0H6V26Q48 40 86 49L334 704H479L728 46Q767 36 807 22ZM464 235L359 534L251 235H464Z" />
<glyph unicode="&#xc1;" glyph-name="Aacute" horiz-adv-x="813" d="M305 786L274 830L401 969Q412 983 431 997T477 1011Q507 1011 522 995T538 960Q538 939 523 922T477 886L305 786ZM767 36T807 22V0H451V25Q508 44 530 48L485 176H230L183 46Q207 42 233 32T265
20V0H6V26Q48 40 86 49L334 704H479L728 46Q767 36 807 22ZM464 235L359 534L251 235H464Z" />
<glyph unicode="&#xc2;" glyph-name="Acircumflex" horiz-adv-x="813" d="M389 902T347 858T269 786L190 841Q225 863 285 917T361 997H452Q468 972 528 918T623 841L544 786Q509 814 467 858T408 928H405Q389 902 347 858ZM767 36T807 22V0H451V25Q508 44 530
48L485 176H230L183 46Q207 42 233 32T265 20V0H6V26Q48 40 86 49L334 704H479L728 46Q767 36 807 22ZM464 235L359 534L251 235H464Z" />
<glyph unicode="&#xc3;" glyph-name="Atilde" horiz-adv-x="813" d="M303 836T290 823T273 786H180Q189 849 224 881T318 914Q349 914 373 906T424 883Q438 876 452 870T477 864Q498 864 511 873T532 915H625Q619 855 586 821T488 786Q464 786 439 794T382 817Q365
824 349 830T324 836Q303 836 290 823ZM767 36T807 22V0H451V25Q508 44 530 48L485 176H230L183 46Q207 42 233 32T265 20V0H6V26Q48 40 86 49L334 704H479L728 46Q767 36 807 22ZM464 235L359 534L251 235H464Z" />
<glyph unicode="&#xc4;" glyph-name="Adieresis" horiz-adv-x="813" d="M226 786T207 806T187 858Q187 889 206 910T259 931Q292 931 312 910T332 858Q332 827 312 807T259 786Q226 786 207 806ZM479 786T460 806T440 858Q440 889 459 910T512 931Q545 931 565
910T585 858Q585 827 565 807T512 786Q479 786 460 806ZM767 36T807 22V0H451V25Q508 44 530 48L485 176H230L183 46Q207 42 233 32T265 20V0H6V26Q48 40 86 49L334 704H479L728 46Q767 36 807 22ZM464 235L359 534L251 235H464Z" />
<glyph unicode="&#xc5;" glyph-name="Aring" horiz-adv-x="813" d="M351 750T319 780T286 861Q286 911 318 941T405 972Q459 972 491 942T524 861Q524 811 492 781T405 750Q351 750 319 780ZM380 918T363 902T346 861Q346 836 363 820T405 804Q430 804 447 820T464
861Q464 886 447 902T405 918Q380 918 363 902ZM767 36T807 22V0H451V25Q508 44 530 48L485 176H230L183 46Q207 42 233 32T265 20V0H6V26Q48 40 86 49L334 704H479L728 46Q767 36 807 22ZM464 235L359 534L251 235H464Z" />
<glyph unicode="&#xc6;" glyph-name="AE" horiz-adv-x="1058" d="M6 22Q51 39 85 47L444 662Q411 670 390 678V700H1004V503H962Q949 522 933 569T915 641H675V389H827Q836 444 849 477H880V241H849Q841 265 835 290T827 330H675V59H923Q925 87 945 132T982 196H1024L1003
0H390V22Q433 37 478 45V176H261L188 46Q225 39 275 20V0H6V22ZM478 235V558L295 235H478Z" />
<glyph unicode="&#xc7;" glyph-name="Ccedilla" horiz-adv-x="694" d="M610 32T548 12T414 -10L387 -64L408 -65Q464 -71 490 -98T516 -161Q516 -218 470 -249T354 -281Q319 -281 282 -270T219 -241L248 -195Q264 -205 288 -211T337 -218Q375 -218 399 -205T423
-161Q423 -135 402 -125T349 -114Q334 -114 327 -115L299 -78L336 -6Q187 11 111 104T34 350Q34 519 127 614T396 710Q490 710 551 689T657 625L640 463H594Q574 526 566 610Q537 632 509 640T446 648Q385 648 338 613T265 511T238 350Q238 208 288 130T427 52Q473
52 524 68T623 120L651 67Q610 32 548 12Z" />
<glyph unicode="&#xc8;" glyph-name="Egrave" horiz-adv-x="692" d="M285 904T270 921T255 960Q255 979 270 995T316 1011Q342 1011 361 997T392 969L519 830L488 786L316 886Q285 904 270 921ZM658 196L637 0H24V22Q67 37 112 45V655Q67 663 24 678V700H638V503H596Q583
522 567 569T549 641H312V391H461Q470 446 483 479H514V243H483Q475 267 469 292T461 332H312V59H557Q559 87 579 132T616 196H658Z" />
<glyph unicode="&#xc9;" glyph-name="Eacute" horiz-adv-x="692" d="M303 786L272 830L399 969Q410 983 429 997T475 1011Q505 1011 520 995T536 960Q536 939 521 922T475 886L303 786ZM658 196L637 0H24V22Q67 37 112 45V655Q67 663 24 678V700H638V503H596Q583
522 567 569T549 641H312V391H461Q470 446 483 479H514V243H483Q475 267 469 292T461 332H312V59H557Q559 87 579 132T616 196H658Z" />
<glyph unicode="&#xca;" glyph-name="Ecircumflex" horiz-adv-x="692" d="M370 902T328 858T250 786L171 841Q206 863 266 917T342 997H433Q449 972 509 918T604 841L525 786Q490 814 448 858T389 928H386Q370 902 328 858ZM658 196L637 0H24V22Q67 37 112 45V655Q67
663 24 678V700H638V503H596Q583 522 567 569T549 641H312V391H461Q470 446 483 479H514V243H483Q475 267 469 292T461 332H312V59H557Q559 87 579 132T616 196H658Z" />
<glyph unicode="&#xcb;" glyph-name="Edieresis" horiz-adv-x="692" d="M244 786T225 806T205 858Q205 889 224 910T277 931Q310 931 330 910T350 858Q350 827 330 807T277 786Q244 786 225 806ZM497 786T478 806T458 858Q458 889 477 910T530 931Q563 931 583
910T603 858Q603 827 583 807T530 786Q497 786 478 806ZM658 196L637 0H24V22Q67 37 112 45V655Q67 663 24 678V700H638V503H596Q583 522 567 569T549 641H312V391H461Q470 446 483 479H514V243H483Q475 267 469 292T461 332H312V59H557Q559 87 579 132T616 196H658Z"
/>
<glyph unicode="&#xcc;" glyph-name="Igrave" horiz-adv-x="407" d="M131 886Q100 904 85 921T70 960Q70 979 85 995T131 1011Q157 1011 176 997T207 969L334 830L303 786L131 886ZM24 25L103 47V655Q90 658 24 677V700H383V675L303 653V45Q319 42 359 30L383
23V0H24V25Z" />
<glyph unicode="&#xcd;" glyph-name="Iacute" horiz-adv-x="407" d="M70 830L197 969Q208 983 227 997T273 1011Q303 1011 318 995T334 960Q334 939 319 922T273 886L101 786L70 830ZM24 25L103 47V655Q90 658 24 677V700H383V675L303 653V45Q319 42 359 30L383
23V0H24V25Z" />
<glyph unicode="&#xce;" glyph-name="Icircumflex" horiz-adv-x="407" d="M-13 841Q22 863 82 917T158 997H249Q265 972 325 918T420 841L341 786Q306 814 264 858T205 928H202Q186 902 144 858T66 786L-13 841ZM24 25L103 47V655Q90 658 24 677V700H383V675L303
653V45Q319 42 359 30L383 23V0H24V25Z" />
<glyph unicode="&#xcf;" glyph-name="Idieresis" horiz-adv-x="407" d="M43 786T24 806T4 858Q4 889 23 910T76 931Q109 931 129 910T149 858Q149 827 129 807T76 786Q43 786 24 806ZM296 786T277 806T257 858Q257 889 276 910T329 931Q362 931 382 910T402 858Q402
827 382 807T329 786Q296 786 277 806ZM24 25L103 47V655Q90 658 24 677V700H383V675L303 653V45Q319 42 359 30L383 23V0H24V25Z" />
<glyph unicode="&#xd0;" glyph-name="Eth" horiz-adv-x="747" d="M552 700T632 612T713 350Q713 178 632 89T374 0H24V24Q44 30 54 34Q95 47 102 48V305H43V363H102V655Q81 660 44 672L24 678V700H375Q552 700 632 612ZM446 59T477 134T509 350Q509 489 478 565T374
641H299V363H428V305H299V59H372Q446 59 477 134Z" />
<glyph unicode="&#xd1;" glyph-name="Ntilde" horiz-adv-x="792" d="M194 849T229 881T323 914Q354 914 378 906T429 883Q443 876 457 870T482 864Q503 864 516 873T537 915H630Q624 855 591 821T493 786Q468 786 444 794T387 817Q370 824 354 830T329 836Q308
836 295 823T278 786H185Q194 849 229 881ZM25 22Q75 37 103 44V655Q70 662 24 678V700H297L616 237V656Q588 663 538 678V700H768V678Q718 663 690 656V0H593L177 602V44Q205 37 255 22V0H25V22Z" />
<glyph unicode="&#xd2;" glyph-name="Ograve" horiz-adv-x="801" d="M319 886Q288 904 273 921T258 960Q258 979 273 995T319 1011Q345 1011 364 997T395 969L522 830L491 786L319 886ZM223 -10T128 85T32 350Q32 519 127 614T401 710Q518 710 600 667T726 542T769
350Q769 239 726 158T601 34T401 -10Q223 -10 128 85ZM483 52T524 133T565 350Q565 486 524 567T401 648Q318 648 277 567T236 350Q236 214 277 133T401 52Q483 52 524 133Z" />
<glyph unicode="&#xd3;" glyph-name="Oacute" horiz-adv-x="801" d="M278 830L405 969Q416 983 435 997T481 1011Q511 1011 526 995T542 960Q542 939 527 922T481 886L309 786L278 830ZM223 -10T128 85T32 350Q32 519 127 614T401 710Q518 710 600 667T726 542T769
350Q769 239 726 158T601 34T401 -10Q223 -10 128 85ZM483 52T524 133T565 350Q565 486 524 567T401 648Q318 648 277 567T236 350Q236 214 277 133T401 52Q483 52 524 133Z" />
<glyph unicode="&#xd4;" glyph-name="Ocircumflex" horiz-adv-x="801" d="M184 841Q219 863 279 917T355 997H446Q462 972 522 918T617 841L538 786Q503 814 461 858T402 928H399Q383 902 341 858T263 786L184 841ZM223 -10T128 85T32 350Q32 519 127 614T401
710Q518 710 600 667T726 542T769 350Q769 239 726 158T601 34T401 -10Q223 -10 128 85ZM483 52T524 133T565 350Q565 486 524 567T401 648Q318 648 277 567T236 350Q236 214 277 133T401 52Q483 52 524 133Z" />
<glyph unicode="&#xd5;" glyph-name="Otilde" horiz-adv-x="801" d="M187 849T222 881T316 914Q347 914 371 906T422 883Q436 876 450 870T475 864Q496 864 509 873T530 915H623Q617 855 584 821T486 786Q461 786 437 794T380 817Q363 824 347 830T322 836Q301
836 288 823T271 786H178Q187 849 222 881ZM223 -10T128 85T32 350Q32 519 127 614T401 710Q518 710 600 667T726 542T769 350Q769 239 726 158T601 34T401 -10Q223 -10 128 85ZM483 52T524 133T565 350Q565 486 524 567T401 648Q318 648 277 567T236 350Q236 214
277 133T401 52Q483 52 524 133Z" />
<glyph unicode="&#xd6;" glyph-name="Odieresis" horiz-adv-x="801" d="M240 786T221 806T201 858Q201 889 220 910T273 931Q306 931 326 910T346 858Q346 827 326 807T273 786Q240 786 221 806ZM493 786T474 806T454 858Q454 889 473 910T526 931Q559 931 579
910T599 858Q599 827 579 807T526 786Q493 786 474 806ZM223 -10T128 85T32 350Q32 519 127 614T401 710Q518 710 600 667T726 542T769 350Q769 239 726 158T601 34T401 -10Q223 -10 128 85ZM483 52T524 133T565 350Q565 486 524 567T401 648Q318 648 277 567T236
350Q236 214 277 133T401 52Q483 52 524 133Z" />
<glyph unicode="&#xd7;" glyph-name="multiply" horiz-adv-x="621" d="M59 143L216 297L59 451L147 540L311 375L475 540L563 451L406 297L563 143L475 54L311 219L147 54L59 143Z" />
<glyph unicode="&#xd8;" glyph-name="Oslash" horiz-adv-x="801" d="M719 568T744 501T769 350Q769 239 726 158T601 34T401 -10Q259 -10 171 51L91 -39L44 0L123 90Q32 184 32 350Q32 519 127 614T401 710Q532 710 621 655L685 728L736 688L672 615Q719 568 744
501ZM236 282T246 229L531 553Q488 648 401 648Q318 648 277 567T236 350Q236 282 246 229ZM483 52T524 133T565 350Q565 424 553 482L266 158Q308 52 401 52Q483 52 524 133Z" />
<glyph unicode="&#xd9;" glyph-name="Ugrave" horiz-adv-x="823" d="M342 886Q311 904 296 921T281 960Q281 979 296 995T342 1011Q368 1011 387 997T418 969L545 830L514 786L342 886ZM263 -10T181 48T98 225V655Q66 662 18 678V700H377V675L298 653V209Q298
125 347 89T472 52Q547 52 599 89T651 209V656Q616 663 571 678V700H805V678Q750 659 725 653V225Q725 112 649 51T422 -10Q263 -10 181 48Z" />
<glyph unicode="&#xda;" glyph-name="Uacute" horiz-adv-x="823" d="M342 830L469 969Q480 982 499 996T545 1011Q575 1011 590 995T606 960Q606 939 591 922T545 886L373 786L342 830ZM263 -10T181 48T98 225V655Q66 662 18 678V700H377V675L298 653V209Q298
125 347 89T472 52Q547 52 599 89T651 209V656Q616 663 571 678V700H805V678Q750 659 725 653V225Q725 112 649 51T422 -10Q263 -10 181 48Z" />
<glyph unicode="&#xdb;" glyph-name="Ucircumflex" horiz-adv-x="823" d="M197 841Q232 863 292 917T368 997H459Q475 972 535 918T630 841L551 786Q516 814 474 858T415 928H412Q396 902 354 858T276 786L197 841ZM263 -10T181 48T98 225V655Q66 662 18 678V700H377V675L298
653V209Q298 125 347 89T472 52Q547 52 599 89T651 209V656Q616 663 571 678V700H805V678Q750 659 725 653V225Q725 112 649 51T422 -10Q263 -10 181 48Z" />
<glyph unicode="&#xdc;" glyph-name="Udieresis" horiz-adv-x="823" d="M283 786T264 806T244 858Q244 889 263 910T316 931Q349 931 369 910T389 858Q389 827 369 807T316 786Q283 786 264 806ZM536 786T517 806T497 858Q497 889 516 910T569 931Q602 931 622
910T642 858Q642 827 622 807T569 786Q536 786 517 806ZM263 -10T181 48T98 225V655Q66 662 18 678V700H377V675L298 653V209Q298 125 347 89T472 52Q547 52 599 89T651 209V656Q616 663 571 678V700H805V678Q750 659 725 653V225Q725 112 649 51T422 -10Q263 -10
181 48Z" />
<glyph unicode="&#xdd;" glyph-name="Yacute" horiz-adv-x="796" d="M331 830L458 969Q469 983 488 997T534 1011Q564 1011 579 995T595 960Q595 939 580 922T534 886L362 786L331 830ZM223 22Q234 25 247 31Q251 32 268 38T301 46V311L96 652Q45 666 14 677V700H371V674Q301
654 286 651L448 385L618 657Q587 666 552 678V700H782V675Q750 663 720 655L501 309V45Q517 42 557 30L581 23V0H223V22Z" />
<glyph unicode="&#xde;" glyph-name="Thorn" horiz-adv-x="679" d="M24 25L104 47V655Q69 662 26 677V700H304V586H422Q553 586 609 530T665 382Q665 320 638 268T557 185T425 154H304V45Q320 42 360 30L384 23V0H24V25ZM369 212Q420 212 443 260T467 384Q467
527 369 527H304V212H369Z" />
<glyph unicode="&#xdf;" glyph-name="germandbls" horiz-adv-x="817" d="M543 369T566 353T639 319Q688 301 720 284T774 232T797 144Q797 61 734 26T569 -10Q497 -10 447 9T359 62L370 183H411Q425 138 425 85Q446 67 466 58T518 48Q560 48 581 70T603 128Q603
157 580 173T508 206Q460 224 431 240T380 288T358 370Q358 415 390 445T468 492Q467 551 445 609T367 668Q337 668 317 647T296 577V44Q324 39 374 22V0H24V24L102 46V441H10V498H102V537Q102 601 140 643T240 706T374 726Q547 726 596 646T646 476V449Q606 449
575 437T543 397Q543 369 566 353Z" />
<glyph unicode="&#xe0;" glyph-name="agrave" horiz-adv-x="616" d="M220 684Q189 702 174 719T159 758Q159 777 174 793T220 809Q246 809 265 795T296 767L423 628L392 584L220 684ZM99 -10T57 27T15 140Q15 221 74 257T233 294H345V355Q345 450 243 450Q203
450 157 437T72 405L63 454Q112 480 174 493T302 507Q412 507 475 468T539 361V52Q572 43 606 32V18L345 -7V52Q323 25 284 8T198 -10Q99 -10 57 27ZM293 52T313 65T345 104V236H277Q242 236 225 211T207 141Q207 52 273 52Q293 52 313 65Z" />
<glyph unicode="&#xe1;" glyph-name="aacute" horiz-adv-x="616" d="M204 628L331 767Q342 781 361 795T407 809Q437 809 452 793T468 758Q468 737 453 720T407 684L235 584L204 628ZM99 -10T57 27T15 140Q15 221 74 257T233 294H345V355Q345 450 243 450Q203
450 157 437T72 405L63 454Q112 480 174 493T302 507Q412 507 475 468T539 361V52Q572 43 606 32V18L345 -7V52Q323 25 284 8T198 -10Q99 -10 57 27ZM293 52T313 65T345 104V236H277Q242 236 225 211T207 141Q207 52 273 52Q293 52 313 65Z" />
<glyph unicode="&#xe2;" glyph-name="acircumflex" horiz-adv-x="616" d="M84 639Q119 661 179 715T255 795H346Q362 770 422 716T517 639L438 584Q403 612 361 656T302 726H299Q283 700 241 656T163 584L84 639ZM99 -10T57 27T15 140Q15 221 74 257T233 294H345V355Q345
450 243 450Q203 450 157 437T72 405L63 454Q112 480 174 493T302 507Q412 507 475 468T539 361V52Q572 43 606 32V18L345 -7V52Q323 25 284 8T198 -10Q99 -10 57 27ZM293 52T313 65T345 104V236H277Q242 236 225 211T207 141Q207 52 273 52Q293 52 313 65Z" />
<glyph unicode="&#xe3;" glyph-name="atilde" horiz-adv-x="616" d="M85 647T120 679T214 712Q245 712 269 704T320 681Q334 674 348 668T373 662Q394 662 407 671T428 713H521Q515 653 482 619T384 584Q360 584 335 592T278 615Q261 622 245 628T220 634Q199
634 186 621T169 584H76Q85 647 120 679ZM99 -10T57 27T15 140Q15 221 74 257T233 294H345V355Q345 450 243 450Q203 450 157 437T72 405L63 454Q112 480 174 493T302 507Q412 507 475 468T539 361V52Q572 43 606 32V18L345 -7V52Q323 25 284 8T198 -10Q99 -10
57 27ZM293 52T313 65T345 104V236H277Q242 236 225 211T207 141Q207 52 273 52Q293 52 313 65Z" />
<glyph unicode="&#xe4;" glyph-name="adieresis" horiz-adv-x="616" d="M135 584T116 604T96 656Q96 687 115 708T168 729Q201 729 221 708T241 656Q241 625 221 605T168 584Q135 584 116 604ZM388 584T369 604T349 656Q349 687 368 708T421 729Q454 729 474 708T494
656Q494 625 474 605T421 584Q388 584 369 604ZM99 -10T57 27T15 140Q15 221 74 257T233 294H345V355Q345 450 243 450Q203 450 157 437T72 405L63 454Q112 480 174 493T302 507Q412 507 475 468T539 361V52Q572 43 606 32V18L345 -7V52Q323 25 284 8T198 -10Q99
-10 57 27ZM293 52T313 65T345 104V236H277Q242 236 225 211T207 141Q207 52 273 52Q293 52 313 65Z" />
<glyph unicode="&#xe5;" glyph-name="aring" horiz-adv-x="616" d="M255 584T223 614T190 695Q190 745 222 775T309 806Q363 806 395 776T428 695Q428 645 396 615T309 584Q255 584 223 614ZM334 638T351 654T368 695Q368 720 351 736T309 752Q284 752 267 736T250
695Q250 670 267 654T309 638Q334 638 351 654ZM99 -10T57 27T15 140Q15 221 74 257T233 294H345V355Q345 450 243 450Q203 450 157 437T72 405L63 454Q112 480 174 493T302 507Q412 507 475 468T539 361V52Q572 43 606 32V18L345 -7V52Q323 25 284 8T198 -10Q99
-10 57 27ZM293 52T313 65T345 104V236H277Q242 236 225 211T207 141Q207 52 273 52Q293 52 313 65Z" />
<glyph unicode="&#xe6;" glyph-name="ae" horiz-adv-x="937" d="M133 -10T74 27T15 140Q15 221 81 258T250 296H348Q353 329 364 356Q361 403 326 426T243 450Q203 450 157 437T72 405L63 454Q112 480 174 493T302 507Q406 507 469 471Q541 507 642 507Q732 507
793 476T883 391T913 272V238H538Q542 140 580 93T683 45Q725 45 777 60T868 104L886 62Q848 31 789 11T657 -10Q587 -10 530 8T432 59Q400 27 342 9T220 -10Q133 -10 74 27ZM744 296Q740 360 716 404T641 449Q594 449 568 406T540 296H744ZM311 52T343 64T398
93Q348 152 345 238H295Q259 238 233 210T207 141Q207 94 227 73T283 52Q311 52 343 64Z" />
<glyph unicode="&#xe7;" glyph-name="ccedilla" horiz-adv-x="581" d="M438 -64T464 -91T490 -154Q490 -211 444 -242T328 -274Q293 -274 256 -263T193 -234L222 -188Q238 -198 262 -204T311 -211Q349 -211 373 -198T397 -154Q397 -128 376 -118T323 -107Q308
-107 301 -108L273 -71L305 -9Q175 -3 103 66T30 248Q30 330 68 388T175 476T335 507Q465 507 556 431L545 300H504Q498 320 494 350T490 408Q463 429 437 439T381 450Q314 450 270 400T226 250Q226 164 262 105T372 45Q413 45 461 60T543 104L561 62Q532 38 487
20T387 -6L361 -57L382 -58Q438 -64 464 -91Z" />
<glyph unicode="&#xe8;" glyph-name="egrave" horiz-adv-x="616" d="M221 702T206 719T191 758Q191 777 206 793T252 809Q278 809 297 795T328 767L455 628L424 584L252 684Q221 702 206 719ZM592 233H220Q223 152 257 99T362 45Q404 45 456 60T547 104L565 62Q529
32 463 11T322 -10Q229 -10 162 22T59 112T24 248Q24 372 102 439T323 507Q413 507 473 475T563 388T592 267V233ZM423 291Q423 324 414 360T381 423T322 449Q280 449 255 404T222 291H423Z" />
<glyph unicode="&#xe9;" glyph-name="eacute" horiz-adv-x="616" d="M256 584L225 628L352 767Q363 781 382 795T428 809Q458 809 473 793T489 758Q489 737 474 720T428 684L256 584ZM592 233H220Q223 152 257 99T362 45Q404 45 456 60T547 104L565 62Q529 32
463 11T322 -10Q229 -10 162 22T59 112T24 248Q24 372 102 439T323 507Q413 507 473 475T563 388T592 267V233ZM423 291Q423 324 414 360T381 423T322 449Q280 449 255 404T222 291H423Z" />
<glyph unicode="&#xea;" glyph-name="ecircumflex" horiz-adv-x="616" d="M308 700T266 656T188 584L109 639Q144 661 204 715T280 795H371Q387 770 447 716T542 639L463 584Q428 612 386 656T327 726H324Q308 700 266 656ZM592 233H220Q223 152 257 99T362 45Q404
45 456 60T547 104L565 62Q529 32 463 11T322 -10Q229 -10 162 22T59 112T24 248Q24 372 102 439T323 507Q413 507 473 475T563 388T592 267V233ZM423 291Q423 324 414 360T381 423T322 449Q280 449 255 404T222 291H423Z" />
<glyph unicode="&#xeb;" glyph-name="edieresis" horiz-adv-x="616" d="M168 584T149 604T129 656Q129 687 148 708T201 729Q234 729 254 708T274 656Q274 625 254 605T201 584Q168 584 149 604ZM421 584T402 604T382 656Q382 687 401 708T454 729Q487 729 507
708T527 656Q527 625 507 605T454 584Q421 584 402 604ZM592 233H220Q223 152 257 99T362 45Q404 45 456 60T547 104L565 62Q529 32 463 11T322 -10Q229 -10 162 22T59 112T24 248Q24 372 102 439T323 507Q413 507 473 475T563 388T592 267V233ZM423 291Q423 324
414 360T381 423T322 449Q280 449 255 404T222 291H423Z" />
<glyph unicode="&#xec;" glyph-name="igrave" horiz-adv-x="408" d="M133 684Q102 702 87 719T72 758Q72 777 87 793T133 809Q159 809 178 795T209 767L336 628L305 584L133 684ZM30 21Q61 32 107 45V448Q88 452 40 468V482L301 507V44Q324 39 378 21V0H30V21Z" />
<glyph unicode="&#xed;" glyph-name="iacute" horiz-adv-x="408" d="M72 628L199 767Q210 781 229 795T275 809Q305 809 320 793T336 758Q336 737 321 720T275 684L103 584L72 628ZM30 21Q61 32 107 45V448Q88 452 40 468V482L301 507V44Q324 39 378 21V0H30V21Z" />
<glyph unicode="&#xee;" glyph-name="icircumflex" horiz-adv-x="408" d="M-13 639Q22 661 82 715T158 795H249Q265 770 325 716T420 639L341 584Q306 612 264 656T205 726H202Q186 700 144 656T66 584L-13 639ZM30 21Q61 32 107 45V448Q88 452 40 468V482L301
507V44Q324 39 378 21V0H30V21Z" />
<glyph unicode="&#xef;" glyph-name="idieresis" horiz-adv-x="408" d="M44 584T25 604T5 656Q5 687 24 708T77 729Q110 729 130 708T150 656Q150 625 130 605T77 584Q44 584 25 604ZM297 584T278 604T258 656Q258 687 277 708T330 729Q363 729 383 708T403 656Q403
625 383 605T330 584Q297 584 278 604ZM30 21Q61 32 107 45V448Q88 452 40 468V482L301 507V44Q324 39 378 21V0H30V21Z" />
<glyph unicode="&#xf0;" glyph-name="eth" horiz-adv-x="636" d="M512 568T564 474T616 291Q616 148 540 69T309 -10Q215 -10 150 25T53 119T20 248Q20 312 49 369T144 464T314 502Q333 502 362 499T406 491Q380 544 328 597L140 492L112 573Q172 606 259 657Q201
699 147 722L196 781Q273 751 342 705L494 795L545 718L419 647Q512 568 564 474ZM363 48T393 111T423 269Q423 315 410 355T372 419T318 444Q272 444 243 389T214 248Q214 165 240 107T311 48Q363 48 393 111Z" />
<glyph unicode="&#xf1;" glyph-name="ntilde" horiz-adv-x="761" d="M280 634T267 621T250 584H157Q166 647 201 679T295 712Q326 712 350 704T401 681Q415 674 429 668T454 662Q475 662 488 671T509 713H602Q596 653 563 619T465 584Q440 584 416 592T359 615Q342
622 326 628T301 634Q280 634 267 621ZM713 35T741 22V0H404V21Q413 26 433 34T471 45V362Q471 412 451 430T396 449Q373 449 346 436T291 390V44Q317 39 368 22V0H20V21Q63 40 97 45V452Q78 456 30 472V486L291 511V445Q324 474 369 490T465 507Q553 507 609 470T665
364V44Q713 35 741 22Z" />
<glyph unicode="&#xf2;" glyph-name="ograve" horiz-adv-x="660" d="M249 684Q218 702 203 719T188 758Q188 777 203 793T249 809Q275 809 294 795T325 767L452 628L421 584L249 684ZM178 -10T99 57T20 248Q20 371 99 439T330 507Q482 507 561 439T640 248Q640
125 561 58T330 -10Q178 -10 99 57ZM382 48T413 101T444 248Q444 342 413 395T330 449Q278 449 247 396T216 248Q216 155 247 102T330 48Q382 48 413 101Z" />
<glyph unicode="&#xf3;" glyph-name="oacute" horiz-adv-x="660" d="M208 628L335 767Q346 780 365 794T411 809Q441 809 456 793T472 758Q472 737 457 720T411 684L239 584L208 628ZM178 -10T99 57T20 248Q20 371 99 439T330 507Q482 507 561 439T640 248Q640
125 561 58T330 -10Q178 -10 99 57ZM382 48T413 101T444 248Q444 342 413 395T330 449Q278 449 247 396T216 248Q216 155 247 102T330 48Q382 48 413 101Z" />
<glyph unicode="&#xf4;" glyph-name="ocircumflex" horiz-adv-x="660" d="M113 639Q148 661 208 715T284 795H375Q391 770 451 716T546 639L467 584Q432 612 390 656T331 726H328Q312 700 270 656T192 584L113 639ZM178 -10T99 57T20 248Q20 371 99 439T330 507Q482
507 561 439T640 248Q640 125 561 58T330 -10Q178 -10 99 57ZM382 48T413 101T444 248Q444 342 413 395T330 449Q278 449 247 396T216 248Q216 155 247 102T330 48Q382 48 413 101Z" />
<glyph unicode="&#xf5;" glyph-name="otilde" horiz-adv-x="660" d="M116 647T151 679T245 712Q276 712 300 704T351 681Q365 674 379 668T404 662Q425 662 438 671T459 713H552Q546 653 513 619T415 584Q390 584 366 592T309 615Q292 622 276 628T251 634Q230
634 217 621T200 584H107Q116 647 151 679ZM178 -10T99 57T20 248Q20 371 99 439T330 507Q482 507 561 439T640 248Q640 125 561 58T330 -10Q178 -10 99 57ZM382 48T413 101T444 248Q444 342 413 395T330 449Q278 449 247 396T216 248Q216 155 247 102T330 48Q382
48 413 101Z" />
<glyph unicode="&#xf6;" glyph-name="odieresis" horiz-adv-x="660" d="M170 584T151 604T131 656Q131 687 150 708T203 729Q236 729 256 708T276 656Q276 625 256 605T203 584Q170 584 151 604ZM423 584T404 604T384 656Q384 687 403 708T456 729Q489 729 509
708T529 656Q529 625 509 605T456 584Q423 584 404 604ZM178 -10T99 57T20 248Q20 371 99 439T330 507Q482 507 561 439T640 248Q640 125 561 58T330 -10Q178 -10 99 57ZM382 48T413 101T444 248Q444 342 413 395T330 449Q278 449 247 396T216 248Q216 155 247
102T330 48Q382 48 413 101Z" />
<glyph unicode="&#xf7;" glyph-name="divide" horiz-adv-x="621" d="M260 393T237 417T213 480Q213 518 236 542T300 567Q340 567 363 543T387 480Q387 442 364 418T300 393Q260 393 237 417ZM30 343H591V254H30V343ZM260 30T237 54T213 117Q213 155 236 179T300
204Q340 204 363 180T387 117Q387 79 364 55T300 30Q260 30 237 54Z" />
<glyph unicode="&#xf8;" glyph-name="oslash" horiz-adv-x="660" d="M640 370T640 248Q640 125 561 58T330 -10Q218 -10 144 28L81 -34L34 7L92 64Q20 130 20 248Q20 371 99 439T330 507Q435 507 508 473L566 530L616 486L565 436Q640 370 640 248ZM213 212T217
187L420 386Q388 449 330 449Q277 449 245 395T213 248Q213 212 217 187ZM383 48T415 102T447 248Q447 283 442 316L237 118Q253 84 276 66T330 48Q383 48 415 102Z" />
<glyph unicode="&#xf9;" glyph-name="ugrave" horiz-adv-x="722" d="M259 702T244 719T229 758Q229 777 244 793T290 809Q316 809 335 795T366 767L493 628L462 584L290 684Q259 702 244 719ZM666 40T712 25V11L450 -14V36Q417 15 377 3T296 -10Q194 -10 136 26T77
129V452Q58 456 10 472V486L271 511V139Q271 88 290 68T348 48Q364 48 393 60T450 93V452Q434 455 384 472V486L644 511V45Q666 40 712 25Z" />
<glyph unicode="&#xfa;" glyph-name="uacute" horiz-adv-x="722" d="M306 584L275 628L402 767Q413 781 432 795T478 809Q508 809 523 793T539 758Q539 737 524 720T478 684L306 584ZM666 40T712 25V11L450 -14V36Q417 15 377 3T296 -10Q194 -10 136 26T77 129V452Q58
456 10 472V486L271 511V139Q271 88 290 68T348 48Q364 48 393 60T450 93V452Q434 455 384 472V486L644 511V45Q666 40 712 25Z" />
<glyph unicode="&#xfb;" glyph-name="ucircumflex" horiz-adv-x="722" d="M343 700T301 656T223 584L144 639Q179 661 239 715T315 795H406Q422 770 482 716T577 639L498 584Q463 612 421 656T362 726H359Q343 700 301 656ZM666 40T712 25V11L450 -14V36Q417 15
377 3T296 -10Q194 -10 136 26T77 129V452Q58 456 10 472V486L271 511V139Q271 88 290 68T348 48Q364 48 393 60T450 93V452Q434 455 384 472V486L644 511V45Q666 40 712 25Z" />
<glyph unicode="&#xfc;" glyph-name="udieresis" horiz-adv-x="722" d="M201 584T182 604T162 656Q162 687 181 708T234 729Q267 729 287 708T307 656Q307 625 287 605T234 584Q201 584 182 604ZM454 584T435 604T415 656Q415 687 434 708T487 729Q520 729 540
708T560 656Q560 625 540 605T487 584Q454 584 435 604ZM666 40T712 25V11L450 -14V36Q417 15 377 3T296 -10Q194 -10 136 26T77 129V452Q58 456 10 472V486L271 511V139Q271 88 290 68T348 48Q364 48 393 60T450 93V452Q434 455 384 472V486L644 511V45Q666 40
712 25Z" />
<glyph unicode="&#xfd;" glyph-name="yacute" horiz-adv-x="662" d="M331 584L300 628L427 767Q438 780 457 794T503 809Q533 809 548 793T564 758Q564 737 549 720T503 684L331 584ZM652 498V479Q602 459 582 454L372 -62Q343 -133 304 -163T199 -194Q140 -194
71 -158L102 -76Q135 -89 159 -96T205 -103Q231 -103 250 -88T291 -19L300 2L70 456Q30 465 6 478V498H334V476Q315 468 250 458L376 189L488 462Q450 470 433 477V498H652Z" />
<glyph unicode="&#xfe;" glyph-name="thorn" horiz-adv-x="695" d="M20 -207L98 -185V651Q81 654 31 670V685L292 710V456Q315 483 351 495T418 507Q544 507 609 446T675 261Q675 121 607 56T405 -10Q375 -10 343 1T292 37V-187Q316 -193 369 -209V-231H20V-207ZM479
48T479 256Q479 356 460 402T388 449Q363 449 336 432T292 389V173Q292 121 316 85T382 48Q479 48 479 256Z" />
<glyph unicode="&#xff;" glyph-name="ydieresis" horiz-adv-x="662" d="M205 584T186 604T166 656Q166 687 185 708T238 729Q271 729 291 708T311 656Q311 625 291 605T238 584Q205 584 186 604ZM458 584T439 604T419 656Q419 687 438 708T491 729Q524 729 544
708T564 656Q564 625 544 605T491 584Q458 584 439 604ZM652 498V479Q602 459 582 454L372 -62Q343 -133 304 -163T199 -194Q140 -194 71 -158L102 -76Q135 -89 159 -96T205 -103Q231 -103 250 -88T291 -19L300 2L70 456Q30 465 6 478V498H334V476Q315 468 250
458L376 189L488 462Q450 470 433 477V498H652Z" />
<glyph unicode="&#x2013;" glyph-name="endash" horiz-adv-x="761" d="M50 334H711V233H50V334Z" />
<glyph unicode="&#x2014;" glyph-name="emdash" horiz-adv-x="1112" d="M50 334H1062V233H50V334Z" />
<glyph unicode="&#x2018;" glyph-name="quoteleft" horiz-adv-x="273" d="M90 380T66 409T42 478Q42 542 77 607T165 717L224 673Q156 608 146 556Q185 556 208 532T231 475Q231 435 208 408T140 380Q90 380 66 409Z" />
<glyph unicode="&#x2019;" glyph-name="quoteright" horiz-adv-x="273" d="M49 417Q117 482 127 534Q88 534 65 558T42 615Q42 655 65 682T133 710Q183 710 207 681T231 612Q231 548 196 483T108 373L49 417Z" />
<glyph unicode="&#x201a;" glyph-name="quotesinglbase" horiz-adv-x="273" d="M49 12Q117 77 127 129Q88 129 65 153T42 210Q42 250 65 277T133 305Q183 305 207 276T231 207Q231 143 196 78T108 -32L49 12Z" />
<glyph unicode="&#x201c;" glyph-name="quotedblleft" horiz-adv-x="495" d="M90 380T66 409T42 478Q42 542 77 607T165 717L224 673Q156 608 146 556Q185 556 208 532T231 475Q231 435 208 408T140 380Q90 380 66 409ZM312 380T288 409T264 478Q264 542 299 607T387
717L446 673Q378 608 368 556Q407 556 430 532T453 475Q453 435 430 408T362 380Q312 380 288 409Z" />
<glyph unicode="&#x201d;" glyph-name="quotedblright" horiz-adv-x="495" d="M49 417Q117 482 127 534Q88 534 65 558T42 615Q42 655 65 682T133 710Q183 710 207 681T231 612Q231 548 196 483T108 373L49 417ZM271 417Q339 482 349 534Q310 534 287 558T264
615Q264 655 287 682T355 710Q405 710 429 681T453 612Q453 548 418 483T330 373L271 417Z" />
<glyph unicode="&#x201e;" glyph-name="quotedblbase" horiz-adv-x="495" d="M49 12Q117 77 127 129Q88 129 65 153T42 210Q42 250 65 277T133 305Q183 305 207 276T231 207Q231 143 196 78T108 -32L49 12ZM271 12Q339 77 349 129Q310 129 287 153T264 210Q264
250 287 277T355 305Q405 305 429 276T453 207Q453 143 418 78T330 -32L271 12Z" />
<glyph unicode="&#x2022;" glyph-name="bullet" horiz-adv-x="300" d="M103 209T72 240T41 318Q41 364 72 395T150 427Q197 427 228 396T259 318Q259 272 228 241T150 209Q103 209 72 240Z" />
<glyph unicode="&#x2039;" glyph-name="guilsinglleft" horiz-adv-x="386" d="M175 138T32 253V274Q102 333 161 394T275 538L351 418Q335 391 298 355T196 262Q260 205 298 169T351 106L275 -14Q175 138 32 253Z" />
<glyph unicode="&#x203a;" glyph-name="guilsinglright" horiz-adv-x="386" d="M35 106Q50 132 88 168T190 262Q125 318 88 354T35 418L111 538Q165 455 224 394T354 274V253Q211 138 111 -14L35 106Z" />
</font>
</defs>
</svg>
