<?xml version="1.0" standalone="no"?>
<!DOCTYPE svg PUBLIC "-//W3C//DTD SVG 1.1//EN" "http://www.w3.org/Graphics/SVG/1.1/DTD/svg11.dtd">
<svg xmlns="http://www.w3.org/2000/svg">
<defs >
<font id="NunitoSans" horiz-adv-x="563" ><font-face
    font-family="Nunito Sans SemiBold"
    units-per-em="1000"
    panose-1="0 0 7 0 0 0 0 0 0 0"
    ascent="1011"
    descent="-353"
    alphabetic="0" />
<glyph unicode=" " glyph-name="space" horiz-adv-x="264" />
<glyph unicode="!" glyph-name="exclam" horiz-adv-x="238" d="M84 198L92 705H217L146 198H84ZM50 119H169L159 0H40L50 119Z" />
<glyph unicode="&quot;" glyph-name="quotedbl" horiz-adv-x="435" d="M96 422L92 705H210L164 422H96ZM300 422L296 705H414L368 422H300Z" />
<glyph unicode="#" glyph-name="numbersign" horiz-adv-x="600" d="M579 467H486L425 246H540L535 177H406L358 0H284L332 177H188L140 0H66L114 177H34L39 246H133L194 467H78L83 536H213L259 705H333L287 536H431L477 705H551L505 536H584L579 467ZM351 246L412
467H268L207 246H351Z" />
<glyph unicode="$" glyph-name="dollar" horiz-adv-x="600" d="M180 476T201 454T255 418T344 386Q413 364 454 345T525 291T555 199Q555 113 495 57T332 -8L324 -115H240L248 -7Q111 5 29 79L72 156Q121 114 174 95T295 76Q370 76 410 106T450 192Q450 222 430
242T380 274T296 304Q225 326 181 346T106 404T75 502Q75 560 104 606T185 680T304 712L313 820H397L388 710Q449 702 497 681T578 627L535 551Q453 629 326 629Q259 629 220 597T180 511Q180 476 201 454Z" />
<glyph unicode="%" glyph-name="percent" horiz-adv-x="937" d="M275 -26L210 17L680 731L745 688L275 -26ZM157 284T114 333T70 476Q70 588 117 651T249 715Q331 715 375 666T419 522Q419 409 372 347T239 284Q157 284 114 333ZM284 352T307 398T331 532Q331
590 311 618T249 646Q203 646 180 600T157 466Q157 408 177 380T239 352Q284 352 307 398ZM624 -7T580 42T536 185Q536 297 583 360T715 424Q798 424 841 375T885 231Q885 118 838 56T706 -7Q624 -7 580 42ZM751 61T774 107T797 241Q797 300 778 328T716 356Q670
356 647 310T624 176Q624 117 643 89T706 61Q751 61 774 107Z" />
<glyph unicode="&amp;" glyph-name="ampersand" horiz-adv-x="671" d="M564 0L492 80Q447 38 393 16T277 -7Q208 -7 156 16T74 82T44 179Q44 247 85 297T209 394Q168 440 152 476T135 551Q135 624 184 668T315 712Q392 712 437 673T482 567Q482 511 450 469T338
380L490 213Q534 297 542 419H629Q617 260 548 150L685 0H564ZM278 639T253 615T228 552Q228 526 240 502T287 437Q349 473 373 500T397 562Q397 597 376 618T318 639Q278 639 253 615ZM372 72T438 140L260 337Q199 302 171 267T143 184Q143 133 180 103T282 72Q372
72 438 140Z" />
<glyph unicode="&apos;" glyph-name="quotesingle" horiz-adv-x="231" d="M96 422L92 705H210L164 422H96Z" />
<glyph unicode="(" glyph-name="parenleft" horiz-adv-x="332" d="M145 -92T123 0T101 188Q101 475 265 720L332 688Q267 560 236 436T204 176Q204 14 264 -166L194 -194Q145 -92 123 0Z" />
<glyph unicode=")" glyph-name="parenright" horiz-adv-x="332" d="M3 -162Q68 -34 99 90T131 350Q131 512 71 692L142 720Q190 618 212 526T234 338Q234 53 69 -194L3 -162Z" />
<glyph unicode="*" glyph-name="asterisk" horiz-adv-x="451" d="M442 568V494L302 500L377 382L313 345L248 470L183 345L120 382L195 500L55 494V568L196 561L121 680L184 717L249 592L313 717L377 679L302 561L442 568Z" />
<glyph unicode="+" glyph-name="plus" horiz-adv-x="600" d="M550 322L544 248H338L321 41H247L264 248H57L62 322H269L286 529H360L343 322H550Z" />
<glyph unicode="," glyph-name="comma" horiz-adv-x="238" d="M169 119L162 38Q158 -9 140 -47T81 -123L40 -88Q85 -44 96 0H40L50 119H169Z" />
<glyph unicode="-" glyph-name="hyphen" horiz-adv-x="429" d="M69 226L76 307H364L357 226H69Z" />
<glyph unicode="." glyph-name="period" horiz-adv-x="238" d="M50 119H169L159 0H40L50 119Z" />
<glyph unicode="/" glyph-name="slash" horiz-adv-x="296" d="M35 -68L-41 -40L276 756L353 728L35 -68Z" />
<glyph unicode="0" glyph-name="zero" horiz-adv-x="600" d="M177 -8T116 71T55 302Q55 431 86 523T178 664T323 713Q440 713 501 634T563 403Q563 274 531 182T439 41T294 -8Q177 -8 116 71ZM377 76T418 163T460 418Q460 527 427 578T322 629Q242 629 200 542T158
287Q158 179 192 128T297 76Q377 76 418 163Z" />
<glyph unicode="1" glyph-name="one" horiz-adv-x="600" d="M367 85H522L516 0H104L111 85H264L304 580L177 506L135 583L342 705H416L367 85Z" />
<glyph unicode="2" glyph-name="two" horiz-adv-x="600" d="M201 85H530L523 0H61L66 77L332 341Q387 397 411 440T436 528Q436 575 406 602T321 629Q219 629 120 552L90 628Q136 669 198 691T331 713Q426 713 482 664T538 529Q538 468 508 413T403 283L201 85Z" />
<glyph unicode="3" glyph-name="three" horiz-adv-x="600" d="M465 344T496 304T528 205Q528 142 498 94T412 20T278 -7Q207 -7 145 15T37 78L79 154Q127 115 176 96T280 77Q351 77 389 110T428 204Q428 316 285 316H199L206 399H282Q354 399 395 433T436 529Q436
576 405 602T319 629Q216 629 120 552L90 628Q135 668 198 690T331 713Q424 713 481 666T538 540Q538 477 504 430T410 360Q465 344 496 304Z" />
<glyph unicode="4" glyph-name="four" horiz-adv-x="600" d="M568 228L561 146H457L446 0H344L356 146H39L44 223L416 705H501L464 228H568ZM149 228H362L387 537L149 228Z" />
<glyph unicode="5" glyph-name="five" horiz-adv-x="600" d="M225 622L207 404Q266 446 342 446Q405 446 453 420T527 348T554 241Q554 166 522 110T432 24T298 -7Q229 -7 168 15T59 78L102 154Q195 77 299 77Q370 77 412 119T454 232Q454 292 417 327T318 363Q221
363 163 291H97L130 705H561L554 622H225Z" />
<glyph unicode="6" glyph-name="six" horiz-adv-x="599" d="M401 446T449 419T525 344T552 232Q552 163 522 109T438 23T317 -8Q192 -8 125 71T57 298Q57 424 93 517T197 662T355 713Q419 713 478 691T584 628L542 552Q497 590 451 609T359 629Q274 629 223 559T161
355L160 342Q186 390 233 418T338 446Q401 446 449 419ZM376 76T414 118T452 228Q452 289 415 326T317 363Q254 363 214 321T173 213Q173 152 212 114T314 76Q376 76 414 118Z" />
<glyph unicode="7" glyph-name="seven" horiz-adv-x="600" d="M98 705H575L569 628L201 0H91L455 620H91L98 705Z" />
<glyph unicode="8" glyph-name="eight" horiz-adv-x="600" d="M554 321T554 194Q554 134 522 89T431 18T291 -7Q170 -7 104 43T37 184Q37 249 76 297T182 364Q133 383 107 422T80 516Q80 576 110 620T197 689T328 713Q441 713 502 666T564 535Q564 474 530 427T438
360Q554 321 554 194ZM256 630T218 599T180 509Q180 457 215 428T318 399Q389 399 426 431T464 524Q464 576 430 603T328 630Q256 630 218 599ZM370 76T412 108T455 199Q455 259 419 287T301 315Q220 315 178 284T136 189Q136 134 174 105T290 76Q370 76 412 108Z"
/>
<glyph unicode="9" glyph-name="nine" horiz-adv-x="600" d="M426 713T494 634T562 407Q562 281 526 188T421 43T263 -8Q199 -8 140 14T34 77L76 153Q121 115 167 96T259 76Q344 76 395 146T457 350L458 363Q432 315 385 287T280 259Q217 259 169 286T93 361T66
473Q66 542 96 596T180 682T301 713Q426 713 494 634ZM364 342T404 384T445 492Q445 553 407 591T307 629Q244 629 205 587T166 477Q166 416 203 379T301 342Q364 342 404 384Z" />
<glyph unicode=":" glyph-name="colon" horiz-adv-x="238" d="M78 488H197L188 369H69L78 488ZM50 119H169L159 0H40L50 119Z" />
<glyph unicode=";" glyph-name="semicolon" horiz-adv-x="238" d="M79 488H198L189 369H70L79 488ZM50 119H169L162 38Q158 -9 140 -47T81 -123L40 -88Q85 -44 96 0H40L50 119Z" />
<glyph unicode="&lt;" glyph-name="less" horiz-adv-x="600" d="M567 538L561 457L152 285L534 113L528 32L57 246L62 324L567 538Z" />
<glyph unicode="=" glyph-name="equal" horiz-adv-x="600" d="M557 422L552 348H64L70 422H557ZM541 222L537 148H49L54 222H541Z" />
<glyph unicode="&gt;" glyph-name="greater" horiz-adv-x="600" d="M79 538L550 324L545 246L40 32L46 113L455 285L73 457L79 538Z" />
<glyph unicode="?" glyph-name="question" horiz-adv-x="450" d="M181 227Q184 269 198 302T230 360T279 418Q315 457 333 486T351 551Q351 588 326 608T254 629Q158 629 61 552L31 628Q76 669 137 691T263 713Q352 713 404 672T456 564Q456 525 442 493T406 435T349
375Q304 331 278 297T243 217L239 195H179L181 227ZM135 0L144 119H263L254 0H135Z" />
<glyph unicode="@" glyph-name="at" horiz-adv-x="930" d="M350 -154T253 -101T104 48T51 270Q51 404 107 504T261 657T481 711Q610 711 702 660T841 525T888 343Q888 248 860 186T785 94T685 64Q632 64 601 87T565 151H563Q509 64 414 64Q346 64 305 111T263
240Q263 309 289 368T364 463T474 499Q520 499 554 478T599 423H601L612 488H689L643 227Q639 197 639 189Q639 156 653 142T699 127Q725 127 751 148T796 218T814 343Q814 423 777 491T664 600T481 642Q380 642 300 598T175 469T129 270Q129 163 171 83T292 -40T480
-84Q561 -84 620 -62T710 0H812Q770 -71 684 -112T480 -154Q350 -154 253 -101ZM478 127T512 155T563 230T581 326Q581 379 556 407T486 435Q441 435 408 407T358 335T341 242Q341 187 366 157T431 127Q478 127 512 155Z" />
<glyph unicode="A" glyph-name="A" horiz-adv-x="734" d="M603 0L542 174H186L98 0H-9L360 705H446L705 0H603ZM227 256H513L396 590L227 256Z" />
<glyph unicode="B" glyph-name="B" horiz-adv-x="678" d="M562 345T592 304T622 203Q622 106 557 53T376 0H63L118 705H403Q515 705 573 659T632 531Q632 470 600 426T504 360Q562 345 592 304ZM214 622L196 400H379Q530 400 530 520Q530 622 391 622H214ZM447
83T485 112T524 204Q524 317 382 317H190L171 83H370Q447 83 485 112Z" />
<glyph unicode="C" glyph-name="C" horiz-adv-x="677" d="M282 -8T212 32T104 147T66 325Q66 442 108 530T230 665T414 713Q490 713 553 691T662 626L619 550Q572 591 525 609T416 627Q300 627 236 547T172 324Q172 205 227 142T386 78Q491 78 588 155L619 79Q575
37 512 15T376 -8Q282 -8 212 32Z" />
<glyph unicode="D" glyph-name="D" horiz-adv-x="746" d="M118 705H362Q521 705 609 619T697 380Q697 261 654 176T529 46T330 0H63L118 705ZM323 86Q457 86 524 161T592 381Q592 499 532 559T352 619H215L173 86H323Z" />
<glyph unicode="E" glyph-name="E" horiz-adv-x="585" d="M570 622H214L196 400H532L525 316H190L171 83H527L521 0H63L118 705H576L570 622Z" />
<glyph unicode="F" glyph-name="F" horiz-adv-x="561" d="M559 621H215L197 400H522L515 316H190L165 0H63L118 705H566L559 621Z" />
<glyph unicode="G" glyph-name="G" horiz-adv-x="728" d="M406 374H664L638 43Q592 20 525 6T392 -8Q236 -8 151 79T65 319Q65 439 109 528T234 665T424 713Q577 713 672 626L629 550Q580 591 533 609T425 628Q304 627 238 546T171 321Q171 203 229 139T402 75Q476
75 549 100L565 296H400L406 374Z" />
<glyph unicode="H" glyph-name="H" horiz-adv-x="762" d="M614 705H716L660 0H558L583 316H190L165 0H63L118 705H220L196 400H590L614 705Z" />
<glyph unicode="I" glyph-name="I" horiz-adv-x="267" d="M63 0L118 705H221L166 0H63Z" />
<glyph unicode="J" glyph-name="J" horiz-adv-x="341" d="M-21 77L41 81Q93 85 120 113T151 197L191 705H295L255 197Q248 101 197 52T49 -3L-17 -8L-21 77Z" />
<glyph unicode="K" glyph-name="K" horiz-adv-x="642" d="M680 705L297 361L642 0H518L192 333L166 0H63L118 705H221L196 385L547 705H680Z" />
<glyph unicode="L" glyph-name="L" horiz-adv-x="547" d="M63 0L118 705H222L173 86H515L508 0H63Z" />
<glyph unicode="M" glyph-name="M" horiz-adv-x="841" d="M712 705H794L739 0H646L686 507L446 113H376L196 504L157 0H64L119 705H203L419 219L712 705Z" />
<glyph unicode="N" glyph-name="N" horiz-adv-x="743" d="M600 705H697L641 0H563L202 532L160 0H63L118 705H197L558 175L600 705Z" />
<glyph unicode="O" glyph-name="O" horiz-adv-x="771" d="M288 -9T216 31T105 146T66 325Q66 442 107 530T224 666T400 714Q499 714 571 674T683 559T722 380Q722 263 681 175T564 39T387 -9Q288 -9 216 31ZM458 77T509 113T589 217T617 380Q617 500 561 564T401
628Q294 628 233 547T171 324Q171 205 227 141T387 77Q458 77 509 113Z" />
<glyph unicode="P" glyph-name="P" horiz-adv-x="652" d="M512 705T571 652T631 507Q631 397 565 340T379 282H188L166 0H63L118 705H403Q512 705 571 652ZM532 365T532 502Q532 622 392 622H215L195 365H372Q532 365 532 502Z" />
<glyph unicode="Q" glyph-name="Q" horiz-adv-x="771" d="M547 0T574 -50L634 -162L544 -205L466 -60Q437 -9 368 -8Q277 -6 209 35T103 150T66 325Q66 442 107 530T224 666T400 714Q500 714 572 674T683 559T722 380Q722 246 668 150T514 15Q547 0 574 -50ZM494
77T555 157T617 380Q617 500 561 564T401 628Q294 628 233 547T171 324Q171 205 227 141T387 77Q494 77 555 157Z" />
<glyph unicode="R" glyph-name="R" horiz-adv-x="690" d="M479 293T496 275T529 224L635 0H523L418 226Q401 263 375 277T304 291H188L165 0H63L118 705H418Q526 705 585 655T644 513Q644 422 597 368T455 301Q479 293 496 275ZM389 374Q467 374 506 407T545 507Q545
566 511 594T408 622H214L194 374H389Z" />
<glyph unicode="S" glyph-name="S" horiz-adv-x="627" d="M142 -8T32 79L75 155Q129 114 185 95T309 76Q389 76 431 104T474 185Q474 218 453 239T399 272T310 302Q236 324 190 344T111 404T78 508Q78 570 111 616T206 688T349 713Q423 713 489 690T599 626L557
550Q463 629 347 629Q268 629 225 599T182 515Q182 479 205 456T262 419T355 388Q427 367 471 348T546 291T578 194Q578 100 506 46T306 -8Q142 -8 32 79Z" />
<glyph unicode="T" glyph-name="T" horiz-adv-x="605" d="M231 0L280 619H42L49 705H629L622 619H384L335 0H231Z" />
<glyph unicode="U" glyph-name="U" horiz-adv-x="728" d="M217 -8T148 57T78 246Q78 259 80 285L113 705H215L182 284Q181 273 181 252Q181 76 357 76Q446 76 494 122T551 269L585 705H687L653 278Q642 135 567 64T353 -8Q217 -8 148 57Z" />
<glyph unicode="V" glyph-name="V" horiz-adv-x="701" d="M635 705H741L375 0H288L33 705H140L342 130L635 705Z" />
<glyph unicode="W" glyph-name="W" horiz-adv-x="1105" d="M1012 705H1112L809 0H724L576 544L342 0H257L65 705H169L314 146L553 705L628 704L775 143L1012 705Z" />
<glyph unicode="X" glyph-name="X" horiz-adv-x="654" d="M679 705L394 358L635 0H515L331 281L104 0H-19L278 361L47 705H167L342 438L556 705H679Z" />
<glyph unicode="Y" glyph-name="Y" horiz-adv-x="611" d="M674 705L364 329L338 0H235L261 328L9 705H124L317 415L555 705H674Z" />
<glyph unicode="Z" glyph-name="Z" horiz-adv-x="595" d="M585 705L579 630L155 84H547L540 0H27L33 76L457 621H76L83 705H585Z" />
<glyph unicode="[" glyph-name="bracketleft" horiz-adv-x="331" d="M75 -180L145 705H357L351 627H238L180 -102H294L288 -180H75Z" />
<glyph unicode="\" glyph-name="backslash" horiz-adv-x="296" d="M211 -68L18 735L100 756L294 -47L211 -68Z" />
<glyph unicode="]" glyph-name="bracketright" horiz-adv-x="331" d="M189 -180H-24L-18 -102H96L153 627H39L45 705H258L189 -180Z" />
<glyph unicode="^" glyph-name="asciicircum" horiz-adv-x="600" d="M545 141H466L325 537L121 141H39L292 629H369L545 141Z" />
<glyph unicode="_" glyph-name="underscore" horiz-adv-x="500" d="M-14 -63L-9 0H471L467 -63H-14Z" />
<glyph unicode="`" glyph-name="grave" horiz-adv-x="300" d="M141 552L20 755H122L208 552H141Z" />
<glyph unicode="a" glyph-name="a" horiz-adv-x="535" d="M472 500T472 329Q472 309 471 299L448 0H351L357 77Q336 36 299 15T213 -7Q140 -7 93 32T45 134Q45 189 74 222T166 270T337 285H373L375 310Q379 367 356 393T277 420Q238 420 196 407T114 369L88 440Q126
467 182 483T291 500Q472 500 472 329ZM289 68T325 105T366 200L368 228H340Q262 228 221 220T163 193T146 144Q146 109 170 89T237 68Q289 68 325 105Z" />
<glyph unicode="b" glyph-name="b" horiz-adv-x="591" d="M403 500T450 471T524 389T550 264Q550 184 521 123T440 27T319 -7Q263 -7 222 16T159 83L152 0H51L107 705H208L185 421Q210 458 251 479T342 500Q403 500 450 471ZM372 73T409 123T447 261Q447 337 412
378T312 419Q246 419 208 369T170 231Q170 154 205 114T305 73Q372 73 409 123Z" />
<glyph unicode="c" glyph-name="c" horiz-adv-x="483" d="M206 -7T153 22T71 104T42 229Q42 311 73 372T162 467T298 500Q353 500 399 484T479 437L443 365Q373 419 301 419Q227 419 187 369T147 229Q147 155 183 115T286 74Q324 74 357 87T424 128L449 55Q418
26 373 10T277 -7Q206 -7 153 22Z" />
<glyph unicode="d" glyph-name="d" horiz-adv-x="591" d="M556 705L501 0H401L407 73Q383 35 342 14T250 -7Q189 -7 142 21T68 103T42 227Q42 308 71 370T152 466T273 500Q328 500 369 477T432 411L455 705H556ZM346 73T384 123T422 261Q422 338 387 378T287 419Q220
419 182 369T144 232Q144 156 179 115T279 73Q346 73 384 123Z" />
<glyph unicode="e" glyph-name="e" horiz-adv-x="529" d="M381 500T436 443T491 277Q491 254 488 227H142Q143 153 180 113T287 72Q372 72 441 126L467 55Q436 27 385 10T281 -7Q209 -7 155 22T72 105T42 230Q42 309 72 370T158 466T285 500Q381 500 436 443ZM229
426T193 390T146 285H404Q406 355 375 390T289 426Q229 426 193 390Z" />
<glyph unicode="f" glyph-name="f" horiz-adv-x="342" d="M222 488H355L349 410H216L183 0H82L114 410H20L26 488H120L122 508Q129 604 183 652T345 706L390 708L392 632L336 629Q281 625 255 599T224 517L222 488Z" />
<glyph unicode="g" glyph-name="g" horiz-adv-x="595" d="M543 488L508 42Q499 -75 438 -131T263 -187Q134 -187 41 -123L77 -50Q126 -81 169 -94T265 -108Q398 -108 408 33L413 93Q389 56 347 36T254 15Q191 15 143 42T69 121T43 239Q43 315 72 374T153 467T275
500Q331 500 373 477T437 411L443 488H543ZM349 95T387 142T426 271Q426 343 391 381T290 419Q222 419 184 372T145 241Q145 171 180 133T282 95Q349 95 387 142Z" />
<glyph unicode="h" glyph-name="h" horiz-adv-x="576" d="M428 500T470 457T513 330Q513 310 512 300L489 0H388L411 295Q412 302 412 316Q412 418 314 418Q252 418 216 381T174 278L152 0H51L107 705H208L185 421Q210 459 252 479T346 500Q428 500 470 457Z" />
<glyph unicode="i" glyph-name="i" horiz-adv-x="242" d="M51 0L90 488H191L152 0H51ZM99 706H216L207 601H91L99 706Z" />
<glyph unicode="j" glyph-name="j" horiz-adv-x="242" d="M153 11Q145 -86 99 -130T-52 -181L-99 -184L-102 -109L-53 -106Q-2 -101 22 -78T51 -4L90 488H191L153 11ZM99 706H216L207 601H91L99 706Z" />
<glyph unicode="k" glyph-name="k" horiz-adv-x="517" d="M529 487L281 252L511 0H386L170 232L152 0H51L107 705H208L173 268L402 487H529Z" />
<glyph unicode="l" glyph-name="l" horiz-adv-x="242" d="M51 0L107 705H208L152 0H51Z" />
<glyph unicode="m" glyph-name="m" horiz-adv-x="862" d="M720 500T759 457T799 331Q799 311 798 301L775 0H674L697 297Q698 305 698 320Q698 418 612 418Q555 418 523 382T485 274L464 0H363L386 296Q387 304 387 320Q387 370 366 394T300 418Q244 418 212 382T174
274L152 0H51L90 487H189L184 421Q236 500 335 500Q390 500 426 477T478 410Q504 453 547 476T644 500Q720 500 759 457Z" />
<glyph unicode="n" glyph-name="n" horiz-adv-x="576" d="M428 500T470 457T513 330Q513 310 512 300L489 0H388L411 295Q412 302 412 316Q412 418 314 418Q252 418 216 381T174 278L152 0H51L90 488H189L183 418Q208 457 250 478T346 500Q428 500 470 457Z" />
<glyph unicode="o" glyph-name="o" horiz-adv-x="564" d="M206 -7T153 22T71 105T42 230Q42 312 72 373T158 467T287 500Q359 500 412 471T494 388T523 262Q523 180 493 120T407 26T277 -7Q206 -7 153 22ZM347 73T384 125T421 265Q421 340 387 379T288 419Q218
419 181 367T144 227Q144 151 178 112T278 73Q347 73 384 125Z" />
<glyph unicode="p" glyph-name="p" horiz-adv-x="591" d="M403 500T450 471T524 389T550 264Q550 184 521 123T440 27T319 -7Q263 -7 222 16T159 83L138 -180H37L89 488H190L184 419Q209 457 250 478T342 500Q403 500 450 471ZM372 73T409 123T447 261Q447 337
412 378T312 419Q246 419 208 369T170 231Q170 154 205 114T305 73Q372 73 409 123Z" />
<glyph unicode="q" glyph-name="q" horiz-adv-x="591" d="M539 488L486 -180H385L405 70Q380 33 339 13T250 -7Q188 -7 141 21T68 103T42 228Q42 308 71 370T152 466T272 500Q328 500 370 476T433 409L439 488H539ZM345 73T383 123T421 261Q421 339 387 379T287
419Q220 419 182 369T144 231Q144 156 179 115T279 73Q345 73 383 123Z" />
<glyph unicode="r" glyph-name="r" horiz-adv-x="366" d="M381 500V415L315 408Q246 401 213 368T174 271L152 0H51L90 487H187L181 412Q207 452 249 472T351 498L381 500Z" />
<glyph unicode="s" glyph-name="s" horiz-adv-x="482" d="M112 -7T25 55L61 128Q139 70 232 70Q284 70 310 86T337 132Q337 161 310 176T226 208Q174 223 142 237T87 278T64 350Q64 418 118 459T263 500Q316 500 365 483T446 437L410 366Q340 423 263 423Q213
423 186 406T159 356Q159 327 185 312T269 281Q321 266 353 252T408 211T431 138Q431 70 377 32T230 -7Q112 -7 25 55Z" />
<glyph unicode="t" glyph-name="t" horiz-adv-x="353" d="M197 181L196 164Q196 71 288 71Q309 71 333 74L322 -2Q298 -7 272 -7Q186 -7 141 34T95 154Q95 170 96 178L114 410H20L26 488H120L132 635H233L221 488H355L349 410H215L197 181Z" />
<glyph unicode="u" glyph-name="u" horiz-adv-x="569" d="M517 488L479 0H380L386 74Q361 35 320 14T227 -7Q146 -7 104 36T62 164Q62 182 63 191L87 488H188L164 197L163 179Q163 75 260 75Q319 75 354 112T394 214L416 488H517Z" />
<glyph unicode="v" glyph-name="v" horiz-adv-x="520" d="M433 487H536L286 0H195L23 487H126L250 115L433 487Z" />
<glyph unicode="w" glyph-name="w" horiz-adv-x="848" d="M748 488H850L625 0H534L430 348L276 0H184L36 488H138L241 121L404 488H482L587 119L748 488Z" />
<glyph unicode="x" glyph-name="x" horiz-adv-x="525" d="M533 488L323 250L506 0H386L259 180L103 0H-19L205 252L31 488H151L267 323L410 488H533Z" />
<glyph unicode="y" glyph-name="y" horiz-adv-x="520" d="M433 487H536L193 -180H91L190 13L23 487H126L250 115L433 487Z" />
<glyph unicode="z" glyph-name="z" horiz-adv-x="506" d="M475 488L470 417L160 78H454L447 0H29L34 70L344 410H69L75 488H475Z" />
<glyph unicode="{" glyph-name="braceleft" horiz-adv-x="368" d="M250 327T226 299T169 263Q200 256 220 227T237 154L220 -58Q219 -81 228 -91T259 -102H331L325 -180H231Q173 -180 145 -150T120 -69L137 143Q140 184 127 202T76 222L45 225L50 300L82 303Q120
305 136 323T156 382L172 594Q177 649 206 677T286 705H394L388 627H317Q296 627 285 617T271 583L254 371Q250 327 226 299Z" />
<glyph unicode="|" glyph-name="bar" horiz-adv-x="269" d="M53 -180L123 705H218L148 -180H53Z" />
<glyph unicode="}" glyph-name="braceright" horiz-adv-x="368" d="M326 300L320 225L289 222Q251 220 235 202T214 143L198 -69Q188 -180 80 -180H-24L-18 -102H53Q97 -102 100 -58L116 154Q120 198 144 227T201 263Q171 270 151 298T134 371L150 583Q154 627
111 627H39L45 705H139Q197 705 225 675T250 594L233 382Q230 342 243 324T295 303L326 300Z" />
<glyph unicode="~" glyph-name="asciitilde" horiz-adv-x="600" d="M550 313Q528 265 492 239T410 212Q379 212 352 223T283 255Q252 272 233 280T197 288Q143 288 113 224L57 258Q79 306 115 332T196 359Q227 359 256 348T324 315Q355 298 374 290T410 282Q464
282 494 346L550 313Z" />
<glyph unicode="&#xa0;" glyph-name="uni00A0" horiz-adv-x="264" />
<glyph unicode="&#xa1;" glyph-name="exclamdown" horiz-adv-x="238" d="M69 369L78 488H197L188 369H69ZM91 290H153L148 -180H23L91 290Z" />
<glyph unicode="&#xa2;" glyph-name="cent" horiz-adv-x="600" d="M494 55Q465 28 424 12T338 -7L330 -115H245L254 1Q176 20 132 80T87 229Q87 340 142 411T294 496L302 607H387L378 498Q466 489 524 437L487 365Q418 419 345 419Q272 419 232 369T191 229Q191
155 227 115T330 74Q368 74 400 87T469 128L494 55Z" />
<glyph unicode="&#xa3;" glyph-name="sterling" horiz-adv-x="600" d="M327 629T296 599T261 512L251 387H426L420 319H246L227 85H551L544 0H27L34 85H125L143 319H52L57 387H148L158 516Q166 607 224 660T378 713Q442 713 499 691T599 627L556 551Q515 589 470
609T380 629Q327 629 296 599Z" />
<glyph unicode="&#xa4;" glyph-name="currency" horiz-adv-x="600" d="M542 162T492 94L545 39L499 -7L446 47Q381 -3 301 -3Q219 -3 154 48L100 -7L54 39L108 95Q59 161 59 245Q59 330 108 395L54 451L101 498L154 442Q219 493 301 493Q382 493 445 444L497 499L546
450L493 395Q542 330 542 245Q542 162 492 94ZM342 79T378 101T435 162T456 245Q456 291 435 329T377 389T298 411Q256 411 221 389T164 328T143 245Q143 200 164 162T221 102T300 79Q342 79 378 101Z" />
<glyph unicode="&#xa5;" glyph-name="yen" horiz-adv-x="600" d="M646 705L400 390H542L536 322H358L351 238H530L524 170H346L332 0H229L243 170H64L70 238H248L255 322H76L82 390H223L26 705H140L312 421L532 705H646Z" />
<glyph unicode="&#xa6;" glyph-name="brokenbar" horiz-adv-x="269" d="M97 371L123 705H218L192 371H97ZM54 -180L80 154H175L149 -180H54Z" />
<glyph unicode="&#xa7;" glyph-name="section" horiz-adv-x="549" d="M508 164T489 128T437 65Q451 32 451 -1Q451 -88 393 -137T238 -186Q115 -186 32 -124L69 -51Q111 -81 151 -94T236 -108Q291 -108 321 -82T352 -9Q352 23 335 45T277 91L175 147Q106 187 75
226T44 319Q44 362 63 399T115 463Q101 491 101 527Q101 612 160 661T313 712Q365 712 413 696T498 650L462 579Q395 634 315 634Q262 634 231 607T200 535Q200 505 217 482T274 435L376 379Q446 338 477 298T508 206Q508 164 489 128ZM365 146T391 123Q413 155
413 189Q413 220 393 245T324 300L225 358Q183 383 161 404Q138 370 138 337Q138 307 159 281T227 227L327 169Q365 146 391 123Z" />
<glyph unicode="&#xa8;" glyph-name="dieresis" horiz-adv-x="300" d="M46 703H150L142 604H39L46 703ZM223 703H326L319 604H215L223 703Z" />
<glyph unicode="&#xa9;" glyph-name="copyright" horiz-adv-x="815" d="M308 -5T227 42T98 171T50 353Q50 453 97 534T226 663T408 710Q508 710 589 663T718 535T765 353Q765 253 718 172T589 43T408 -5Q308 -5 227 42ZM494 45T563 85T673 196T713 353Q713 439
673 509T564 620T408 660Q322 660 252 620T142 510T102 353Q102 267 142 197T252 86T408 45Q494 45 563 85ZM322 137T266 195T210 353Q210 451 266 509T418 568Q461 568 501 555T569 516L542 451Q488 495 428 495Q369 495 337 458T305 353Q305 284 337 247T428
210Q488 210 542 254L569 189Q541 164 501 151T418 137Q322 137 266 195Z" />
<glyph unicode="&#xaa;" glyph-name="ordfeminine" horiz-adv-x="333" d="M324 710T324 597Q324 585 323 578L310 410H228L232 458Q205 405 143 405Q101 405 74 430T46 494Q46 541 85 561T217 582H241L242 597Q245 646 191 646Q141 646 93 618L78 679Q105 693
138 701T204 710Q324 710 324 597ZM197 464T215 481T236 528L237 539H213Q166 539 147 531T127 500Q127 484 138 474T169 464Q197 464 215 481Z" />
<glyph unicode="&#xab;" glyph-name="guillemotleft" horiz-adv-x="465" d="M147 80L61 240L65 291L174 451L244 420L154 265L217 109L147 80ZM340 80L254 240L258 291L367 451L437 420L347 265L410 109L340 80Z" />
<glyph unicode="&#xac;" glyph-name="logicalnot" horiz-adv-x="600" d="M558 425L537 145H463L479 351H65L70 425H558Z" />
<glyph unicode="&#xad;" glyph-name="uni00AD" horiz-adv-x="429" d="M69 226L76 307H364L357 226H69Z" />
<glyph unicode="&#xae;" glyph-name="registered" horiz-adv-x="815" d="M517 710T598 663T727 535T774 353Q774 253 727 172T598 43T417 -5Q317 -5 236 42T107 171T59 353Q59 453 106 534T235 663T417 710Q517 710 598 663ZM502 45T572 85T682 196T722 353Q722
439 682 509T572 620T417 660Q331 660 261 620T151 510T111 353Q111 266 151 196T261 85T417 45Q502 45 572 85ZM525 304T542 266L604 142H503L438 277Q429 293 419 299T390 306H347L334 142H243L276 564H450Q525 564 563 533T601 443Q601 391 571 357T488 313Q525
304 542 266ZM439 373Q512 373 512 438Q512 468 495 480T438 493H361L351 373H439Z" />
<glyph unicode="&#xaf;" glyph-name="overscore" horiz-adv-x="300" d="M28 618L34 688H337L331 618H28Z" />
<glyph unicode="&#xb0;" glyph-name="degree" horiz-adv-x="366" d="M167 417T134 436T81 488T61 563Q61 605 80 638T133 691T208 710Q250 710 283 691T336 639T356 563Q356 522 337 489T283 436T208 417Q167 417 134 436ZM245 476T268 500T292 563Q292 601 269
625T208 650Q172 650 149 626T125 563Q125 525 148 501T208 476Q245 476 268 500Z" />
<glyph unicode="&#xb1;" glyph-name="plusminus" horiz-adv-x="600" d="M347 366H554L548 292H341L328 129H254L267 292H60L66 366H273L286 529H360L347 366ZM37 0L43 74H531L525 0H37Z" />
<glyph unicode="&#xb2;" glyph-name="uni00B2" horiz-adv-x="380" d="M165 354H348L342 282H54L59 348L211 498Q240 527 252 548T264 590Q264 614 248 626T203 639Q176 639 146 628T88 597L70 661Q99 683 138 696T217 709Q280 709 317 679T354 597Q354 560 335
526T268 450L165 354Z" />
<glyph unicode="&#xb3;" glyph-name="uni00B3" horiz-adv-x="380" d="M312 488T330 465T349 406Q349 347 306 313T192 278Q149 278 108 291T38 326L66 390Q128 348 187 348Q223 348 244 363T265 408Q265 461 194 461H133L139 530H189Q227 530 247 545T268 591Q268
614 252 626T207 639Q178 639 147 628T88 597L70 661Q99 683 138 696T217 709Q280 709 317 680T354 603Q354 565 334 538T279 499Q312 488 330 465Z" />
<glyph unicode="&#xb4;" glyph-name="acute" horiz-adv-x="300" d="M208 552H141L253 755H367L208 552Z" />
<glyph unicode="&#xb5;" glyph-name="uni00B5" horiz-adv-x="569" d="M517 488L479 0H380L386 74Q361 35 320 14T227 -7Q180 -7 150 11L136 -180H35L87 488H188L164 197L163 179Q163 75 260 75Q319 75 354 112T394 214L416 488H517Z" />
<glyph unicode="&#xb6;" glyph-name="paragraph" horiz-adv-x="596" d="M480 -180H403L468 636H354L289 -180H213L250 297Q165 299 113 350T61 485Q61 583 120 644T284 705H550L480 -180Z" />
<glyph unicode="&#xb7;" glyph-name="middot" horiz-adv-x="238" d="M66 326H185L176 207H56L66 326Z" />
<glyph unicode="&#xb8;" glyph-name="cedilla" horiz-adv-x="300" d="M198 -41T219 -58T240 -108Q240 -146 208 -170T118 -194Q95 -194 70 -189T25 -175L40 -128Q81 -142 117 -142Q142 -142 156 -134T171 -110Q171 -85 137 -85Q121 -85 95 -93L77 -76L96 20H160L147
-42Q153 -41 163 -41Q198 -41 219 -58Z" />
<glyph unicode="&#xb9;" glyph-name="uni00B9" horiz-adv-x="380" d="M268 354H345L340 282H98L103 354H180L200 607L129 567L98 631L231 705H297L268 354Z" />
<glyph unicode="&#xba;" glyph-name="ordmasculine" horiz-adv-x="351" d="M124 405T84 443T44 545Q44 620 89 665T210 710Q277 710 317 672T357 570Q357 495 312 450T191 405Q124 405 84 443ZM231 474T251 499T271 568Q271 603 254 622T207 642Q171 642 151 617T131
548Q131 513 147 494T194 474Q231 474 251 499Z" />
<glyph unicode="&#xbb;" glyph-name="guillemotright" horiz-adv-x="462" d="M100 80L31 110L122 265L58 421L129 450L215 291L211 240L100 80ZM293 80L224 110L315 265L251 421L322 450L408 291L404 240L293 80Z" />
<glyph unicode="&#xbc;" glyph-name="onequarter" horiz-adv-x="941" d="M268 354H345L340 282H98L103 354H180L200 607L129 567L98 631L231 705H297L268 354ZM277 -26L213 18L681 731L745 687L277 -26ZM915 145L910 78H848L842 0H760L766 78H576L581 141L804
423H875L853 145H915ZM660 145H772L784 303L660 145Z" />
<glyph unicode="&#xbd;" glyph-name="onehalf" horiz-adv-x="941" d="M268 354H345L340 282H98L103 354H180L200 607L129 567L98 631L231 705H297L268 354ZM277 -26L213 18L681 731L745 687L277 -26ZM704 72H887L881 0H593L598 66L750 216Q779 245 791 266T803
308Q803 332 787 344T742 357Q715 357 685 346T627 315L609 379Q638 401 677 414T756 427Q819 427 856 397T893 315Q893 278 874 244T807 168L704 72Z" />
<glyph unicode="&#xbe;" glyph-name="threequarters" horiz-adv-x="941" d="M312 488T330 465T349 406Q349 347 306 313T192 278Q149 278 108 291T38 326L66 390Q127 348 187 348Q223 348 244 363T265 408Q265 461 194 461H133L139 530H189Q227 530 247 545T268
591Q268 614 252 626T207 639Q178 639 147 628T88 597L70 661Q99 683 138 696T217 709Q280 709 317 680T354 603Q354 565 334 538T279 499Q312 488 330 465ZM277 -26L213 18L681 731L745 687L277 -26ZM915 145L910 78H848L842 0H760L766 78H576L581 141L804 423H875L853
145H915ZM660 145H772L784 303L660 145Z" />
<glyph unicode="&#xbf;" glyph-name="questiondown" horiz-adv-x="450" d="M187 369L196 488H316L306 369H187ZM103 -187T51 -146T-2 -39Q-2 0 12 30T48 82T105 133Q150 171 174 200T207 270L212 293H272L269 260Q265 203 240 166T171 89Q135 56 118 32T101 -26Q101
-62 127 -82T200 -103Q295 -103 392 -26L423 -102Q377 -143 317 -165T192 -187Q103 -187 51 -146Z" />
<glyph unicode="&#xc0;" glyph-name="Agrave" horiz-adv-x="734" d="M603 0L542 174H186L98 0H-9L360 705H446L705 0H603ZM227 256H513L396 590L227 256ZM375 765L252 918H349L441 765H375Z" />
<glyph unicode="&#xc1;" glyph-name="Aacute" horiz-adv-x="734" d="M603 0L542 174H186L98 0H-9L360 705H446L705 0H603ZM227 256H513L396 590L227 256ZM441 765H375L485 918H594L441 765Z" />
<glyph unicode="&#xc2;" glyph-name="Acircumflex" horiz-adv-x="734" d="M603 0L542 174H186L98 0H-9L360 705H446L705 0H603ZM227 256H513L396 590L227 256ZM339 765H254L388 918H452L562 765H478L419 863L339 765Z" />
<glyph unicode="&#xc3;" glyph-name="Atilde" horiz-adv-x="734" d="M603 0L542 174H186L98 0H-9L360 705H446L705 0H603ZM227 256H513L396 590L227 256ZM248 844T276 875T349 906Q368 906 385 898T428 874Q449 861 461 856T484 850Q505 850 518 864T533 903H584Q580
841 552 810T479 779Q460 779 443 787T400 811Q381 823 369 829T345 835Q324 835 311 821T295 782H245Q248 844 276 875Z" />
<glyph unicode="&#xc4;" glyph-name="Adieresis" horiz-adv-x="734" d="M603 0L542 174H186L98 0H-9L360 705H446L705 0H603ZM227 256H513L396 590L227 256ZM278 892H382L374 793H271L278 892ZM455 892H558L551 793H447L455 892Z" />
<glyph unicode="&#xc5;" glyph-name="Aring" horiz-adv-x="734" d="M176 174L67 0L185 380L371 679Q341 690 323 715T304 774Q304 817 334 846T408 876Q451 876 481 847T511 774Q511 731 481 702T408 673H403L581 325L675 0L580 174H176ZM388 823T375 809T361
774Q361 754 374 740T408 725Q428 725 441 739T454 774Q454 795 441 809T408 823Q388 823 375 809ZM397 627L233 266L227 256H535L477 361L397 627Z" />
<glyph unicode="&#xc6;" glyph-name="AE" horiz-adv-x="994" d="M978 621H560L591 400H941L934 316H603L635 84H936L929 0H552L528 174H203L86 0H-29L459 705H984L978 621ZM258 256H517L473 577L258 256Z" />
<glyph unicode="&#xc7;" glyph-name="Ccedilla" horiz-adv-x="677" d="M300 627T236 547T172 324Q172 205 227 142T386 78Q491 78 588 155L619 79Q577 39 518 17T390 -8L383 -42Q389 -41 399 -41Q434 -41 455 -58T476 -108Q476 -146 444 -170T354 -194Q331 -194
306 -189T261 -175L276 -128Q317 -142 353 -142Q378 -142 392 -134T407 -110Q407 -85 373 -85Q357 -85 331 -93L313 -76L327 -5Q205 10 136 97T66 325Q66 442 108 530T230 665T414 713Q490 713 553 691T662 626L619 550Q572 591 525 609T416 627Q300 627 236 547Z"
/>
<glyph unicode="&#xc8;" glyph-name="Egrave" horiz-adv-x="585" d="M570 622H214L196 400H532L525 316H190L171 83H527L521 0H63L118 705H576L570 622ZM334 765L211 918H308L400 765H334Z" />
<glyph unicode="&#xc9;" glyph-name="Eacute" horiz-adv-x="585" d="M570 622H214L196 400H532L525 316H190L171 83H527L521 0H63L118 705H576L570 622ZM400 765H334L444 918H553L400 765Z" />
<glyph unicode="&#xca;" glyph-name="Ecircumflex" horiz-adv-x="585" d="M570 622H214L196 400H532L525 316H190L171 83H527L521 0H63L118 705H576L570 622ZM298 765H213L347 918H411L521 765H437L378 863L298 765Z" />
<glyph unicode="&#xcb;" glyph-name="Edieresis" horiz-adv-x="585" d="M570 622H214L196 400H532L525 316H190L171 83H527L521 0H63L118 705H576L570 622ZM237 892H341L333 793H230L237 892ZM414 892H517L510 793H406L414 892Z" />
<glyph unicode="&#xcc;" glyph-name="Igrave" horiz-adv-x="267" d="M63 0L118 705H221L166 0H63ZM142 765L19 918H116L208 765H142Z" />
<glyph unicode="&#xcd;" glyph-name="Iacute" horiz-adv-x="267" d="M63 0L118 705H221L166 0H63ZM208 765H142L252 918H361L208 765Z" />
<glyph unicode="&#xce;" glyph-name="Icircumflex" horiz-adv-x="267" d="M63 0L118 705H221L166 0H63ZM106 765H21L155 918H219L329 765H245L186 863L106 765Z" />
<glyph unicode="&#xcf;" glyph-name="Idieresis" horiz-adv-x="267" d="M63 0L118 705H221L166 0H63ZM45 892H149L141 793H38L45 892ZM222 892H325L318 793H214L222 892Z" />
<glyph unicode="&#xd0;" glyph-name="Eth" horiz-adv-x="764" d="M539 705T627 619T715 380Q715 261 672 176T547 46T348 0H81L106 317H15L22 398H112L136 705H380Q539 705 627 619ZM475 86T542 161T610 381Q610 499 550 559T370 619H233L216 398H406L399 317H209L191
86H341Q475 86 542 161Z" />
<glyph unicode="&#xd1;" glyph-name="Ntilde" horiz-adv-x="743" d="M600 705H697L641 0H563L202 532L160 0H63L118 705H197L558 175L600 705ZM252 844T280 875T353 906Q372 906 389 898T432 874Q453 861 465 856T488 850Q509 850 522 864T537 903H588Q584 841
556 810T483 779Q464 779 447 787T404 811Q385 823 373 829T349 835Q328 835 315 821T299 782H249Q252 844 280 875Z" />
<glyph unicode="&#xd2;" glyph-name="Ograve" horiz-adv-x="771" d="M288 -9T216 31T105 146T66 325Q66 442 107 530T224 666T400 714Q499 714 571 674T683 559T722 380Q722 263 681 175T564 39T387 -9Q288 -9 216 31ZM458 77T509 113T589 217T617 380Q617 500
561 564T401 628Q294 628 233 547T171 324Q171 205 227 141T387 77Q458 77 509 113ZM393 765L270 918H367L459 765H393Z" />
<glyph unicode="&#xd3;" glyph-name="Oacute" horiz-adv-x="771" d="M288 -9T216 31T105 146T66 325Q66 442 107 530T224 666T400 714Q499 714 571 674T683 559T722 380Q722 263 681 175T564 39T387 -9Q288 -9 216 31ZM458 77T509 113T589 217T617 380Q617 500
561 564T401 628Q294 628 233 547T171 324Q171 205 227 141T387 77Q458 77 509 113ZM459 765H393L503 918H612L459 765Z" />
<glyph unicode="&#xd4;" glyph-name="Ocircumflex" horiz-adv-x="771" d="M288 -9T216 31T105 146T66 325Q66 442 107 530T224 666T400 714Q499 714 571 674T683 559T722 380Q722 263 681 175T564 39T387 -9Q288 -9 216 31ZM458 77T509 113T589 217T617 380Q617
500 561 564T401 628Q294 628 233 547T171 324Q171 205 227 141T387 77Q458 77 509 113ZM357 765H272L406 918H470L580 765H496L437 863L357 765Z" />
<glyph unicode="&#xd5;" glyph-name="Otilde" horiz-adv-x="771" d="M288 -9T216 31T105 146T66 325Q66 442 107 530T224 666T400 714Q499 714 571 674T683 559T722 380Q722 263 681 175T564 39T387 -9Q288 -9 216 31ZM458 77T509 113T589 217T617 380Q617 500
561 564T401 628Q294 628 233 547T171 324Q171 205 227 141T387 77Q458 77 509 113ZM266 844T294 875T367 906Q386 906 403 898T446 874Q467 861 479 856T502 850Q523 850 536 864T551 903H602Q598 841 570 810T497 779Q478 779 461 787T418 811Q399 823 387 829T363
835Q342 835 329 821T313 782H263Q266 844 294 875Z" />
<glyph unicode="&#xd6;" glyph-name="Odieresis" horiz-adv-x="771" d="M288 -9T216 31T105 146T66 325Q66 442 107 530T224 666T400 714Q499 714 571 674T683 559T722 380Q722 263 681 175T564 39T387 -9Q288 -9 216 31ZM458 77T509 113T589 217T617 380Q617
500 561 564T401 628Q294 628 233 547T171 324Q171 205 227 141T387 77Q458 77 509 113ZM296 892H400L392 793H289L296 892ZM473 892H576L569 793H465L473 892Z" />
<glyph unicode="&#xd7;" glyph-name="multiply" horiz-adv-x="600" d="M532 467L354 286L523 103L467 51L301 232L123 51L75 103L253 284L84 467L140 519L306 338L484 519L532 467Z" />
<glyph unicode="&#xd8;" glyph-name="Oslash" horiz-adv-x="771" d="M673 590T697 526T722 380Q722 263 681 175T564 39T387 -9Q293 -9 225 26L172 -53L106 -11L161 71Q115 115 91 179T66 325Q66 442 107 530T224 666T400 714Q494 714 563 678L616 758L682 716L627
633Q673 590 697 526ZM171 216T216 155L513 602Q466 628 401 628Q294 628 233 547T171 324Q171 216 216 155ZM458 77T509 113T589 217T617 380Q617 486 572 550L275 102Q323 77 387 77Q458 77 509 113Z" />
<glyph unicode="&#xd9;" glyph-name="Ugrave" horiz-adv-x="728" d="M217 -8T148 57T78 246Q78 259 80 285L113 705H215L182 284Q181 273 181 252Q181 76 357 76Q446 76 494 122T551 269L585 705H687L653 278Q642 135 567 64T353 -8Q217 -8 148 57ZM372 765L249
918H346L438 765H372Z" />
<glyph unicode="&#xda;" glyph-name="Uacute" horiz-adv-x="728" d="M217 -8T148 57T78 246Q78 259 80 285L113 705H215L182 284Q181 273 181 252Q181 76 357 76Q446 76 494 122T551 269L585 705H687L653 278Q642 135 567 64T353 -8Q217 -8 148 57ZM438 765H372L482
918H591L438 765Z" />
<glyph unicode="&#xdb;" glyph-name="Ucircumflex" horiz-adv-x="728" d="M217 -8T148 57T78 246Q78 259 80 285L113 705H215L182 284Q181 273 181 252Q181 76 357 76Q446 76 494 122T551 269L585 705H687L653 278Q642 135 567 64T353 -8Q217 -8 148 57ZM336 765H251L385
918H449L559 765H475L416 863L336 765Z" />
<glyph unicode="&#xdc;" glyph-name="Udieresis" horiz-adv-x="728" d="M217 -8T148 57T78 246Q78 259 80 285L113 705H215L182 284Q181 273 181 252Q181 76 357 76Q446 76 494 122T551 269L585 705H687L653 278Q642 135 567 64T353 -8Q217 -8 148 57ZM275 892H379L371
793H268L275 892ZM452 892H555L548 793H444L452 892Z" />
<glyph unicode="&#xdd;" glyph-name="Yacute" horiz-adv-x="611" d="M674 705L364 329L338 0H235L261 328L9 705H124L317 415L555 705H674ZM379 765H313L423 918H532L379 765Z" />
<glyph unicode="&#xde;" glyph-name="Thorn" horiz-adv-x="652" d="M507 554T563 507T620 370Q620 272 559 218T384 163H178L165 0H63L118 705H220L208 554H404Q507 554 563 507ZM521 245T521 365Q521 420 490 445T394 471H202L184 245H377Q521 245 521 365Z" />
<glyph unicode="&#xdf;" glyph-name="germandbls" horiz-adv-x="634" d="M89 471Q99 590 164 650T340 711Q422 711 469 678T517 586Q517 542 495 512T431 443Q400 416 386 399T372 360Q372 334 394 320T462 289Q505 273 532 259T579 218T599 149Q599 80 546 37T402
-7Q351 -7 301 9T215 55L251 128Q331 71 410 71Q452 71 477 89T503 141Q503 168 481 182T409 215Q366 230 339 243T293 281T274 345Q274 385 295 413T356 478Q389 508 405 528T421 573Q421 602 399 618T336 634Q203 634 191 479L152 0H51L89 471Z" />
<glyph unicode="&#xe0;" glyph-name="agrave" horiz-adv-x="535" d="M472 500T472 329Q472 309 471 299L448 0H351L357 77Q336 36 299 15T213 -7Q140 -7 93 32T45 134Q45 189 74 222T166 270T337 285H373L375 310Q379 367 356 393T277 420Q238 420 196 407T114
369L88 440Q126 467 182 483T291 500Q472 500 472 329ZM289 68T325 105T366 200L368 228H340Q262 228 221 220T163 193T146 144Q146 109 170 89T237 68Q289 68 325 105ZM266 552L145 755H247L333 552H266Z" />
<glyph unicode="&#xe1;" glyph-name="aacute" horiz-adv-x="535" d="M472 500T472 329Q472 309 471 299L448 0H351L357 77Q336 36 299 15T213 -7Q140 -7 93 32T45 134Q45 189 74 222T166 270T337 285H373L375 310Q379 367 356 393T277 420Q238 420 196 407T114
369L88 440Q126 467 182 483T291 500Q472 500 472 329ZM289 68T325 105T366 200L368 228H340Q262 228 221 220T163 193T146 144Q146 109 170 89T237 68Q289 68 325 105ZM333 552H266L378 755H492L333 552Z" />
<glyph unicode="&#xe2;" glyph-name="acircumflex" horiz-adv-x="535" d="M472 500T472 329Q472 309 471 299L448 0H351L357 77Q336 36 299 15T213 -7Q140 -7 93 32T45 134Q45 189 74 222T166 270T337 285H373L375 310Q379 367 356 393T277 420Q238 420 196 407T114
369L88 440Q126 467 182 483T291 500Q472 500 472 329ZM289 68T325 105T366 200L368 228H340Q262 228 221 220T163 193T146 144Q146 109 170 89T237 68Q289 68 325 105ZM234 552H145L282 755H349L454 552H369L311 687L234 552Z" />
<glyph unicode="&#xe3;" glyph-name="atilde" horiz-adv-x="535" d="M472 500T472 329Q472 309 471 299L448 0H351L357 77Q336 36 299 15T213 -7Q140 -7 93 32T45 134Q45 189 74 222T166 270T337 285H373L375 310Q379 367 356 393T277 420Q238 420 196 407T114
369L88 440Q126 467 182 483T291 500Q472 500 472 329ZM289 68T325 105T366 200L368 228H340Q262 228 221 220T163 193T146 144Q146 109 170 89T237 68Q289 68 325 105ZM141 656T169 687T240 718Q260 718 277 710T321 686Q325 684 337 677T360 666T378 662Q399
662 412 676T427 715H477Q473 653 445 623T375 592Q355 592 338 599T293 623Q275 635 263 641T238 647Q217 647 204 634T188 595H138Q141 656 169 687Z" />
<glyph unicode="&#xe4;" glyph-name="adieresis" horiz-adv-x="535" d="M472 500T472 329Q472 309 471 299L448 0H351L357 77Q336 36 299 15T213 -7Q140 -7 93 32T45 134Q45 189 74 222T166 270T337 285H373L375 310Q379 367 356 393T277 420Q238 420 196 407T114
369L88 440Q126 467 182 483T291 500Q472 500 472 329ZM289 68T325 105T366 200L368 228H340Q262 228 221 220T163 193T146 144Q146 109 170 89T237 68Q289 68 325 105ZM171 703H275L267 604H164L171 703ZM348 703H451L444 604H340L348 703Z" />
<glyph unicode="&#xe5;" glyph-name="aring" horiz-adv-x="535" d="M472 500T472 329Q472 309 471 299L448 0H351L357 77Q336 36 299 15T213 -7Q140 -7 93 32T45 134Q45 189 74 222T166 270T337 285H373L375 310Q379 367 356 393T277 420Q238 420 196 407T114
369L88 440Q126 467 182 483T291 500Q472 500 472 329ZM289 68T325 105T366 200L368 228H340Q262 228 221 220T163 193T146 144Q146 109 170 89T237 68Q289 68 325 105ZM264 552T234 581T204 654Q204 697 234 726T307 755Q351 755 381 726T411 654Q411 611 381
582T307 552Q264 552 234 581ZM328 605T341 619T354 654Q354 675 341 688T307 702Q287 702 274 688T261 654Q261 633 274 619T307 605Q328 605 341 619Z" />
<glyph unicode="&#xe6;" glyph-name="ae" horiz-adv-x="848" d="M704 500T757 443T811 276Q811 253 808 227H468Q469 153 506 113T613 72Q650 72 688 85T761 126L786 55Q756 27 706 10T607 -7Q535 -7 484 23T407 108Q381 53 331 23T218 -7Q141 -7 93 32T45 134Q45
189 74 222T166 270T337 285H374L376 310L377 328Q377 375 353 397T278 420Q238 420 196 407T114 369L88 440Q126 467 182 483T292 500Q405 500 446 426Q476 462 518 481T613 500Q704 500 757 443ZM555 426T519 390T472 285H724Q725 355 696 390T614 426Q555 426
519 390ZM288 68T325 106T368 205L370 228H340Q262 228 220 220T162 193T146 142Q146 109 170 89T235 68Q288 68 325 106Z" />
<glyph unicode="&#xe7;" glyph-name="ccedilla" horiz-adv-x="483" d="M418 26T374 10T281 -7L274 -42Q280 -41 290 -41Q325 -41 346 -58T367 -108Q367 -146 335 -170T245 -194Q222 -194 197 -189T152 -175L167 -128Q208 -142 244 -142Q269 -142 283 -134T298
-110Q298 -85 264 -85Q248 -85 222 -93L204 -76L219 -1Q137 16 90 76T42 229Q42 311 73 372T162 467T298 500Q353 500 399 484T479 437L443 365Q373 419 301 419Q227 419 187 369T147 229Q147 155 183 115T286 74Q324 74 357 87T424 128L449 55Q418 26 374 10Z"
/>
<glyph unicode="&#xe8;" glyph-name="egrave" horiz-adv-x="529" d="M381 500T436 443T491 277Q491 254 488 227H142Q143 153 180 113T287 72Q372 72 441 126L467 55Q436 27 385 10T281 -7Q209 -7 155 22T72 105T42 230Q42 309 72 370T158 466T285 500Q381 500
436 443ZM229 426T193 390T146 285H404Q406 355 375 390T289 426Q229 426 193 390ZM267 552L146 755H248L334 552H267Z" />
<glyph unicode="&#xe9;" glyph-name="eacute" horiz-adv-x="529" d="M381 500T436 443T491 277Q491 254 488 227H142Q143 153 180 113T287 72Q372 72 441 126L467 55Q436 27 385 10T281 -7Q209 -7 155 22T72 105T42 230Q42 309 72 370T158 466T285 500Q381 500
436 443ZM229 426T193 390T146 285H404Q406 355 375 390T289 426Q229 426 193 390ZM334 552H267L379 755H493L334 552Z" />
<glyph unicode="&#xea;" glyph-name="ecircumflex" horiz-adv-x="529" d="M381 500T436 443T491 277Q491 254 488 227H142Q143 153 180 113T287 72Q372 72 441 126L467 55Q436 27 385 10T281 -7Q209 -7 155 22T72 105T42 230Q42 309 72 370T158 466T285 500Q381
500 436 443ZM229 426T193 390T146 285H404Q406 355 375 390T289 426Q229 426 193 390ZM235 552H146L283 755H350L455 552H370L312 687L235 552Z" />
<glyph unicode="&#xeb;" glyph-name="edieresis" horiz-adv-x="529" d="M381 500T436 443T491 277Q491 254 488 227H142Q143 153 180 113T287 72Q372 72 441 126L467 55Q436 27 385 10T281 -7Q209 -7 155 22T72 105T42 230Q42 309 72 370T158 466T285 500Q381
500 436 443ZM229 426T193 390T146 285H404Q406 355 375 390T289 426Q229 426 193 390ZM172 703H276L268 604H165L172 703ZM349 703H452L445 604H341L349 703Z" />
<glyph unicode="&#xec;" glyph-name="igrave" horiz-adv-x="242" d="M51 0L90 488H191L152 0H51ZM112 552L-9 755H93L179 552H112Z" />
<glyph unicode="&#xed;" glyph-name="iacute" horiz-adv-x="242" d="M51 0L90 488H191L152 0H51ZM179 552H112L224 755H338L179 552Z" />
<glyph unicode="&#xee;" glyph-name="icircumflex" horiz-adv-x="242" d="M51 0L90 488H191L152 0H51ZM80 552H-9L128 755H195L300 552H215L157 687L80 552Z" />
<glyph unicode="&#xef;" glyph-name="idieresis" horiz-adv-x="242" d="M51 0L90 488H191L152 0H51ZM17 703H121L113 604H10L17 703ZM194 703H297L290 604H186L194 703Z" />
<glyph unicode="&#xf0;" glyph-name="eth" horiz-adv-x="569" d="M453 571Q492 520 512 456T532 320Q532 153 463 73T275 -7Q204 -7 151 19T69 95T40 211Q40 284 70 339T155 425T279 455Q331 455 371 437T436 385Q424 478 364 542L195 488L181 547L311 589Q256
626 186 642L215 713Q329 688 407 620L539 662L552 603L453 571ZM345 73T382 118T419 242Q419 304 384 340T286 376Q217 376 180 331T142 210Q142 146 176 110T276 73Q345 73 382 118Z" />
<glyph unicode="&#xf1;" glyph-name="ntilde" horiz-adv-x="576" d="M428 500T470 457T513 330Q513 310 512 300L489 0H388L411 295Q412 302 412 316Q412 418 314 418Q252 418 216 381T174 278L152 0H51L90 488H189L183 418Q208 457 250 478T346 500Q428 500 470
457ZM155 656T183 687T254 718Q274 718 291 710T335 686Q339 684 351 677T374 666T392 662Q413 662 426 676T441 715H491Q487 653 459 623T389 592Q369 592 352 599T307 623Q289 635 277 641T252 647Q231 647 218 634T202 595H152Q155 656 183 687Z" />
<glyph unicode="&#xf2;" glyph-name="ograve" horiz-adv-x="564" d="M206 -7T153 22T71 105T42 230Q42 312 72 373T158 467T287 500Q359 500 412 471T494 388T523 262Q523 180 493 120T407 26T277 -7Q206 -7 153 22ZM347 73T384 125T421 265Q421 340 387 379T288
419Q218 419 181 367T144 227Q144 151 178 112T278 73Q347 73 384 125ZM273 552L152 755H254L340 552H273Z" />
<glyph unicode="&#xf3;" glyph-name="oacute" horiz-adv-x="564" d="M206 -7T153 22T71 105T42 230Q42 312 72 373T158 467T287 500Q359 500 412 471T494 388T523 262Q523 180 493 120T407 26T277 -7Q206 -7 153 22ZM347 73T384 125T421 265Q421 340 387 379T288
419Q218 419 181 367T144 227Q144 151 178 112T278 73Q347 73 384 125ZM340 552H273L385 755H499L340 552Z" />
<glyph unicode="&#xf4;" glyph-name="ocircumflex" horiz-adv-x="564" d="M206 -7T153 22T71 105T42 230Q42 312 72 373T158 467T287 500Q359 500 412 471T494 388T523 262Q523 180 493 120T407 26T277 -7Q206 -7 153 22ZM347 73T384 125T421 265Q421 340 387
379T288 419Q218 419 181 367T144 227Q144 151 178 112T278 73Q347 73 384 125ZM241 552H152L289 755H356L461 552H376L318 687L241 552Z" />
<glyph unicode="&#xf5;" glyph-name="otilde" horiz-adv-x="564" d="M206 -7T153 22T71 105T42 230Q42 312 72 373T158 467T287 500Q359 500 412 471T494 388T523 262Q523 180 493 120T407 26T277 -7Q206 -7 153 22ZM347 73T384 125T421 265Q421 340 387 379T288
419Q218 419 181 367T144 227Q144 151 178 112T278 73Q347 73 384 125ZM148 656T176 687T247 718Q267 718 284 710T328 686Q332 684 344 677T367 666T385 662Q406 662 419 676T434 715H484Q480 653 452 623T382 592Q362 592 345 599T300 623Q282 635 270 641T245
647Q224 647 211 634T195 595H145Q148 656 176 687Z" />
<glyph unicode="&#xf6;" glyph-name="odieresis" horiz-adv-x="564" d="M206 -7T153 22T71 105T42 230Q42 312 72 373T158 467T287 500Q359 500 412 471T494 388T523 262Q523 180 493 120T407 26T277 -7Q206 -7 153 22ZM347 73T384 125T421 265Q421 340 387 379T288
419Q218 419 181 367T144 227Q144 151 178 112T278 73Q347 73 384 125ZM178 703H282L274 604H171L178 703ZM355 703H458L451 604H347L355 703Z" />
<glyph unicode="&#xf7;" glyph-name="divide" horiz-adv-x="600" d="M259 430L267 532H367L359 430H259ZM550 322L544 248H57L62 322H550ZM227 36L236 138H336L328 36H227Z" />
<glyph unicode="&#xf8;" glyph-name="oslash" horiz-adv-x="564" d="M485 412T504 366T523 262Q523 180 493 120T407 26T277 -7Q217 -7 167 15L123 -51L71 -18L115 49Q80 80 61 126T42 230Q42 312 72 373T158 467T287 500Q350 500 399 477L442 543L494 511L450
444Q485 412 504 366ZM143 164T166 126L352 407Q326 420 288 420Q218 420 181 368T143 227Q143 164 166 126ZM348 72T385 124T423 265Q423 329 398 366L213 85Q239 72 278 72Q348 72 385 124Z" />
<glyph unicode="&#xf9;" glyph-name="ugrave" horiz-adv-x="569" d="M517 488L479 0H380L386 74Q361 35 320 14T227 -7Q146 -7 104 36T62 164Q62 182 63 191L87 488H188L164 197L163 179Q163 75 260 75Q319 75 354 112T394 214L416 488H517ZM275 552L154 755H256L342
552H275Z" />
<glyph unicode="&#xfa;" glyph-name="uacute" horiz-adv-x="569" d="M517 488L479 0H380L386 74Q361 35 320 14T227 -7Q146 -7 104 36T62 164Q62 182 63 191L87 488H188L164 197L163 179Q163 75 260 75Q319 75 354 112T394 214L416 488H517ZM342 552H275L387 755H501L342
552Z" />
<glyph unicode="&#xfb;" glyph-name="ucircumflex" horiz-adv-x="569" d="M517 488L479 0H380L386 74Q361 35 320 14T227 -7Q146 -7 104 36T62 164Q62 182 63 191L87 488H188L164 197L163 179Q163 75 260 75Q319 75 354 112T394 214L416 488H517ZM243 552H154L291
755H358L463 552H378L320 687L243 552Z" />
<glyph unicode="&#xfc;" glyph-name="udieresis" horiz-adv-x="569" d="M517 488L479 0H380L386 74Q361 35 320 14T227 -7Q146 -7 104 36T62 164Q62 182 63 191L87 488H188L164 197L163 179Q163 75 260 75Q319 75 354 112T394 214L416 488H517ZM180 703H284L276
604H173L180 703ZM357 703H460L453 604H349L357 703Z" />
<glyph unicode="&#xfd;" glyph-name="yacute" horiz-adv-x="520" d="M433 487H536L193 -180H91L190 13L23 487H126L250 115L433 487ZM318 552H251L363 755H477L318 552Z" />
<glyph unicode="&#xfe;" glyph-name="thorn" horiz-adv-x="591" d="M403 500T450 471T524 389T550 264Q550 184 521 123T440 27T319 -7Q263 -7 222 16T159 83L138 -180H37L107 705H208L185 421Q210 458 251 479T342 500Q403 500 450 471ZM372 73T409 123T447 261Q447
337 412 378T312 419Q246 419 208 369T170 231Q170 154 205 114T305 73Q372 73 409 123Z" />
<glyph unicode="&#xff;" glyph-name="ydieresis" horiz-adv-x="520" d="M433 487H536L193 -180H91L190 13L23 487H126L250 115L433 487ZM156 703H260L252 604H149L156 703ZM333 703H436L429 604H325L333 703Z" />
<glyph unicode="&#x2013;" glyph-name="endash" horiz-adv-x="500" d="M-1 235L4 298H504L499 235H-1Z" />
<glyph unicode="&#x2014;" glyph-name="emdash" horiz-adv-x="1000" d="M-1 235L4 298H1004L999 235H-1Z" />
<glyph unicode="&#x2018;" glyph-name="quoteleft" horiz-adv-x="238" d="M161 632T150 589H206L196 470H77L84 551Q87 597 106 635T165 711L206 677Q161 632 150 589Z" />
<glyph unicode="&#x2019;" glyph-name="quoteright" horiz-adv-x="238" d="M214 705L209 624Q205 578 186 540T127 463L86 498Q131 540 142 586H86L95 705H214Z" />
<glyph unicode="&#x201a;" glyph-name="quotesinglbase" horiz-adv-x="238" d="M169 119L162 38Q158 -9 140 -47T81 -123L40 -88Q85 -44 96 0H40L50 119H169Z" />
<glyph unicode="&#x201c;" glyph-name="quotedblleft" horiz-adv-x="415" d="M161 632T150 589H206L196 470H77L84 551Q87 597 106 635T165 711L206 677Q161 632 150 589ZM339 632T328 589H384L374 470H255L262 551Q265 597 284 635T343 711L384 677Q339 632 328 589Z" />
<glyph unicode="&#x201d;" glyph-name="quotedblright" horiz-adv-x="415" d="M214 705L209 624Q205 578 186 540T127 463L86 498Q131 540 142 586H86L95 705H214ZM392 705L387 624Q383 578 364 540T305 463L264 498Q309 540 320 586H264L273 705H392Z" />
<glyph unicode="&#x201e;" glyph-name="quotedblbase" horiz-adv-x="415" d="M169 119L162 38Q158 -9 140 -47T81 -123L40 -88Q85 -44 96 0H40L50 119H169ZM347 119L340 38Q336 -9 318 -47T259 -123L218 -88Q263 -44 274 0H218L228 119H347Z" />
<glyph unicode="&#x2022;" glyph-name="bullet" horiz-adv-x="524" d="M215 88T173 111T107 175T82 265Q82 311 105 352T170 418T263 443Q311 443 352 420T419 356T444 265Q444 217 420 177T354 112T263 88Q215 88 173 111Z" />
<glyph unicode="&#x2039;" glyph-name="guilsinglleft" horiz-adv-x="272" d="M147 80L61 240L65 291L174 451L244 420L154 265L217 109L147 80Z" />
<glyph unicode="&#x203a;" glyph-name="guilsinglright" horiz-adv-x="269" d="M100 80L31 110L122 265L58 421L129 450L215 291L211 240L100 80Z" />
</font>
</defs>
</svg>
