<?xml version="1.0" standalone="no"?>
<!DOCTYPE svg PUBLIC "-//W3C//DTD SVG 1.1//EN" "http://www.w3.org/Graphics/SVG/1.1/DTD/svg11.dtd">
<svg xmlns="http://www.w3.org/2000/svg">
<defs >
<font id="MerriweatherSans" horiz-adv-x="1201" ><font-face
    font-family="Merriweather Sans"
    units-per-em="2048"
    panose-1="0 0 8 0 0 0 0 0 0 0"
    ascent="2014"
    descent="-560"
    alphabetic="0" />
<glyph unicode=" " glyph-name="space" horiz-adv-x="485" />
<glyph unicode="!" glyph-name="exclam" horiz-adv-x="686" d="M665 1778L432 488H224L370 1778H665ZM378 294T412 259T446 167Q446 110 421 67T351 -1T251 -26Q190 -26 152 9T113 103Q113 154 138 198T208 268T306 294Q378 294 412 259Z" />
<glyph unicode="&quot;" glyph-name="quotedbl" horiz-adv-x="1068" d="M578 1687L404 966H220L301 1687H578ZM1102 1687L928 966H744L825 1687H1102Z" />
<glyph unicode="#" glyph-name="numbersign" horiz-adv-x="1405" d="M110 343L124 521H330L387 874H187L200 1048H412L462 1357H667L619 1048H890L943 1357H1148L1097 1048H1309L1296 874H1072L1014 521H1221L1207 343H988L932 0H732L782 343H510L449 0H247L304
343H110ZM865 874H594L536 521H808L865 874Z" />
<glyph unicode="$" glyph-name="dollar" horiz-adv-x="1204" d="M822 801T884 743T989 605T1032 428Q1032 241 922 129T617 -11L575 -253H365L406 -15Q308 -5 219 21T101 73L186 294Q211 271 260 249T370 212T484 197Q606 197 678 244T750 387Q750 464 705 529T546
673Q415 765 335 872T254 1124Q254 1235 303 1321T440 1463T644 1537L681 1761H892L855 1542Q942 1533 1005 1511T1106 1461L1020 1245Q982 1284 902 1307T751 1331Q649 1331 583 1289T517 1157Q517 1097 539 1053T605 967T735 863Q822 801 884 743Z" />
<glyph unicode="%" glyph-name="percent" horiz-adv-x="1957" d="M1507 1530L680 0H466L1303 1530H1507ZM152 1161T210 1267T372 1440T600 1506Q755 1506 828 1422T901 1187Q901 1066 845 956T687 778T453 709Q356 709 289 751T187 868T152 1045Q152 1161 210
1267ZM693 1249T659 1296T564 1343Q497 1343 449 1297T375 1183T350 1055Q350 973 387 924T489 874Q555 874 601 922T670 1039T693 1169Q693 1249 659 1296ZM1708 859T1781 774T1854 539Q1854 418 1799 308T1641 130T1407 62Q1310 62 1242 104T1140 221T1105 398Q1105
513 1164 620T1326 793T1554 859Q1708 859 1781 774ZM1509 227T1555 275T1624 393T1647 522Q1647 602 1613 648T1518 695Q1450 695 1402 649T1328 536T1303 407Q1303 326 1340 277T1443 227Q1509 227 1555 275Z" />
<glyph unicode="&amp;" glyph-name="ampersand" horiz-adv-x="1550" d="M1504 639H1353Q1356 615 1356 586Q1356 464 1317 364T1205 189Q1285 155 1400 152Q1416 151 1457 151L1426 1Q1395 -8 1335 -13T1225 -18Q1168 -18 1100 -3T975 41Q821 -17 629 -17Q367
-17 209 77T50 365Q50 459 94 534T209 666T383 782Q346 865 323 955T299 1118Q299 1239 354 1336T513 1490T753 1546Q884 1546 969 1500T1094 1383T1133 1238Q1133 1122 1073 1032T924 878T698 736Q858 472 1027 315Q1102 404 1102 532Q1102 584 1091 637Q1024
631 989 611L999 790Q1035 830 1151 830L1518 829L1504 639ZM554 1026T607 902Q738 973 808 1043T878 1207Q878 1283 841 1326T730 1370Q677 1370 637 1339T576 1256T554 1140Q554 1026 607 902ZM325 269T415 220T649 171Q730 171 800 187Q694 291 628 381T480
607Q405 555 365 501T325 382Q325 269 415 220Z" />
<glyph unicode="&apos;" glyph-name="quotesingle" horiz-adv-x="544" d="M578 1687L404 966H220L301 1687H578Z" />
<glyph unicode="(" glyph-name="parenleft" horiz-adv-x="854" d="M226 1046T338 1253T576 1590T786 1766L919 1677Q773 1544 640 1327T454 812Q430 665 430 515Q430 324 470 170T565 -85T674 -250L532 -335H515Q450 -285 371 -178T229 109T167 523Q167 655 187
787Q226 1046 338 1253Z" />
<glyph unicode=")" glyph-name="parenright" horiz-adv-x="854" d="M664 382T552 175T314 -162T104 -338L-29 -249Q117 -116 250 101T436 616Q460 763 460 913Q460 1104 420 1258T325 1513T216 1678L358 1763H375Q440 1713 519 1606T661 1319T723 905Q723 773
703 641Q664 382 552 175Z" />
<glyph unicode="*" glyph-name="asterisk" horiz-adv-x="1366" d="M495 1099L631 1150L506 1200L229 1325L351 1512L589 1325L688 1237L682 1376L679 1687H894L826 1376L788 1237L909 1325L1183 1513L1270 1325L967 1200L832 1149L957 1099L1234 976L1101 789L872
975L770 1066L781 925L788 613L567 614L635 925L670 1066L554 975L284 787L192 976L495 1099Z" />
<glyph unicode="+" glyph-name="plus" horiz-adv-x="1359" d="M581 681L449 674H212L238 884H476L603 873L614 1025L643 1280H868L842 1025L815 874L921 884H1186L1160 674H895L791 681L783 531L752 273H526L556 531L581 681Z" />
<glyph unicode="," glyph-name="comma" horiz-adv-x="526" d="M61 122L192 280Q263 253 307 200T369 84T388 -36Q388 -146 348 -242T233 -407T61 -510L-22 -402L-19 -381Q54 -344 99 -270T145 -113Q145 -48 119 3T54 68L61 122Z" />
<glyph unicode="-" glyph-name="hyphen" horiz-adv-x="1203" d="M1017 874L989 671H221L248 874H1017Z" />
<glyph unicode="." glyph-name="period" horiz-adv-x="526" d="M314 294T348 258T382 164Q382 77 332 26T197 -26Q136 -26 98 11T60 107Q60 156 82 199T146 268T242 294Q314 294 348 258Z" />
<glyph unicode="/" glyph-name="slash" horiz-adv-x="854" d="M744 1597H968L105 -362H-118L744 1597Z" />
<glyph unicode="0" glyph-name="zero" horiz-adv-x="1278" d="M956 1156T1063 1029T1170 691Q1170 504 1088 342T861 82T539 -16Q392 -16 293 48T146 217T98 450Q98 647 184 808T417 1063T734 1156Q956 1156 1063 1029ZM684 196T756 264T864 439T900 661Q900 798
854 872T702 946Q583 946 509 872T402 690T369 478Q369 399 392 335T463 234T578 196Q684 196 756 264Z" />
<glyph unicode="1" glyph-name="one" horiz-adv-x="983" d="M387 832T347 824T234 802L210 798L179 960Q275 981 387 1039T595 1162L757 1147L592 0H313L434 847Q387 832 347 824Z" />
<glyph unicode="2" glyph-name="two" horiz-adv-x="1269" d="M247 233T408 349T667 581T764 786Q764 861 723 899T603 938Q527 938 440 897T287 801L191 952Q237 1000 309 1047T475 1127T667 1159Q800 1159 890 1113T1025 991T1069 823Q1069 689 987 575T774 369T464
183L1125 213L1089 0H96L57 136Q247 233 408 349Z" />
<glyph unicode="3" glyph-name="three" horiz-adv-x="1136" d="M341 -126T446 -92T610 7T668 165Q668 249 613 302T438 358L274 322L296 536Q458 563 574 630T690 809Q690 871 648 903T525 936Q452 936 378 906T236 823L156 1000Q192 1036 262 1072T425 1134T618
1159Q718 1159 800 1128T932 1032T982 873Q982 785 935 705T804 563T618 469Q728 467 808 425T931 314T973 167Q973 17 870 -95T591 -267T209 -327Q140 -327 45 -315L70 -116Q152 -126 202 -126Q341 -126 446 -92Z" />
<glyph unicode="4" glyph-name="four" horiz-adv-x="1284" d="M811 1256L923 1167L370 282L291 177L701 194L756 614L1014 649L959 203L1185 218L1156 0H931L884 -375H625L674 0H68L11 129L74 238Q257 552 385 780T639 1256H811Z" />
<glyph unicode="5" glyph-name="five" horiz-adv-x="1146" d="M283 -160T407 -124T612 -10T693 186Q693 291 641 346T474 402Q420 402 349 387T230 349L131 454L288 1143H855L877 1159H1065L1005 921H498L401 561Q442 574 504 583T624 593Q806 593 905 499T1004
225Q1004 50 896 -81T598 -284T170 -356Q89 -356 40 -339L70 -153Q113 -160 149 -160Q283 -160 407 -124Z" />
<glyph unicode="6" glyph-name="six" horiz-adv-x="1278" d="M1071 1435Q927 1385 805 1296T600 1107T487 920Q540 961 624 987T798 1013Q918 1013 997 957T1115 809T1153 606Q1153 451 1090 309T897 75T580 -16Q430 -16 329 52T178 238T128 503Q128 752 241 979T555
1369T1009 1598L1071 1435ZM710 172T770 236T858 393T886 575Q886 696 834 755T698 814Q600 814 529 778T422 699Q391 587 391 501Q391 405 417 331T494 214T617 172Q710 172 770 236Z" />
<glyph unicode="7" glyph-name="seven" horiz-adv-x="1116" d="M89 926L138 1143H1060L1101 1089L487 -335L249 -248L782 928L89 926Z" />
<glyph unicode="8" glyph-name="eight" horiz-adv-x="1330" d="M406 872T358 952T309 1136Q309 1267 370 1362T542 1508T796 1559Q916 1559 1012 1518T1164 1400T1219 1225Q1219 1122 1173 1039T1050 897T883 808Q1006 718 1077 621T1149 405Q1149 275 1077 180T880
33T598 -18Q470 -18 362 25T190 151T125 351Q125 458 175 546T308 696T494 796Q406 872 358 952ZM965 1262T939 1304T870 1368T777 1390Q716 1390 670 1361T599 1282T574 1169Q574 1093 623 1030T766 897Q855 944 910 1022T965 1203Q965 1262 939 1304ZM703 158T755
185T836 261T865 372Q865 461 800 538T608 707Q516 655 458 574T398 388Q398 322 429 270T515 188T635 158Q703 158 755 185Z" />
<glyph unicode="9" glyph-name="nine" horiz-adv-x="1278" d="M734 177T661 152T506 126Q381 126 294 183T163 334T120 538Q120 693 183 835T376 1069T694 1160Q843 1160 944 1092T1095 906T1145 641Q1145 392 1032 165T718 -227T264 -457L203 -294Q347 -244 469
-155T674 34T787 219Q734 177 661 152ZM681 325T748 361T852 440Q883 561 883 643Q883 740 857 814T780 930T656 972Q563 972 503 908T415 751T387 569Q387 446 443 386T590 325Q681 325 748 361Z" />
<glyph unicode=":" glyph-name="colon" horiz-adv-x="526" d="M549 294T583 258T617 164Q617 77 567 26T432 -26Q371 -26 333 11T295 107Q295 156 317 199T381 268T477 294Q549 294 583 258ZM386 1103T420 1067T454 973Q454 886 404 835T269 783Q208 783 170 820T132
916Q132 965 154 1008T218 1077T314 1103Q386 1103 420 1067Z" />
<glyph unicode=";" glyph-name="semicolon" horiz-adv-x="526" d="M61 122L192 280Q263 253 307 200T369 84T388 -36Q388 -146 348 -242T233 -407T61 -510L-22 -402L-19 -381Q54 -344 99 -270T145 -113Q145 -48 119 3T54 68L61 122ZM389 1103T423 1067T457 973Q457
886 407 835T272 783Q211 783 173 820T135 916Q135 965 157 1008T221 1077T317 1103Q389 1103 423 1067Z" />
<glyph unicode="&lt;" glyph-name="less" horiz-adv-x="1382" d="M1232 1337L1202 1085L503 747L1119 408L1096 178L197 693L213 822L1232 1337Z" />
<glyph unicode="=" glyph-name="equal" horiz-adv-x="1074" d="M1019 1031L991 828H164L191 1031H1019ZM956 530L929 327H101L129 530H956Z" />
<glyph unicode="&gt;" glyph-name="greater" horiz-adv-x="1382" d="M252 181L282 433L981 771L365 1110L388 1340L1287 825L1271 696L252 181Z" />
<glyph unicode="?" glyph-name="question" horiz-adv-x="1040" d="M247 760T273 809T358 904T518 1003Q743 1110 775 1202Q781 1224 786 1255T791 1314Q791 1390 749 1448T633 1537T472 1569Q411 1569 363 1563T260 1541L302 1726Q326 1748 388 1763T511 1779Q692
1779 811 1721T986 1566T1042 1348Q1042 1219 991 1131T870 992T689 879Q614 838 572 811T503 747T475 662Q475 638 483 613T505 556Q516 531 518 521L371 463L354 464Q312 496 280 564T247 700Q247 760 273 809ZM585 294T619 258T653 164Q653 77 603 26T468 -26Q407
-26 369 11T331 107Q331 156 353 199T417 268T513 294Q585 294 619 258Z" />
<glyph unicode="@" glyph-name="at" horiz-adv-x="1998" d="M1423 1545T1584 1466T1831 1241T1918 899Q1918 631 1823 429T1583 119T1293 11Q1234 11 1211 59T1188 195Q1188 253 1200 371Q1129 204 1034 106T832 7Q761 7 694 53T583 194T539 423Q539 586 602 742T790
1000T1094 1102Q1145 1102 1210 1088T1314 1048L1494 1078Q1467 973 1439 774T1395 400Q1388 330 1386 299T1384 231Q1384 204 1397 204Q1474 204 1548 302T1668 553T1714 860Q1714 1146 1564 1263T1161 1381Q908 1381 714 1242T415 879T310 408Q310 174 395 24T621
-193T937 -261Q1042 -261 1142 -239T1299 -190L1345 -324Q1275 -377 1161 -408T919 -440Q684 -440 501 -344T215 -63T112 374Q112 727 257 993T651 1402T1206 1545Q1423 1545 1584 1466ZM939 228T1013 342T1148 610T1222 866Q1201 895 1156 910T1069 925Q979 925
912 854T811 676T776 466Q776 355 800 292T884 228Q939 228 1013 342Z" />
<glyph unicode="A" glyph-name="A" horiz-adv-x="1305" d="M910 341H349L201 0L-100 -1L644 1530H978L1235 0L958 -1L910 341ZM883 537L787 1219L777 1337L730 1216L435 537H883Z" />
<glyph unicode="B" glyph-name="B" horiz-adv-x="1296" d="M1002 789T1067 746T1167 635T1203 484Q1203 226 1016 106T495 -15Q453 -15 349 -7Q330 -6 286 -3T215 0H91L297 1530H423Q471 1530 573 1538Q683 1546 739 1546Q1000 1546 1109 1451T1218 1203Q1218
1050 1139 946T915 803Q1002 789 1067 746ZM937 1270T876 1312T685 1354Q599 1354 549 1348L486 886Q529 884 617 884Q765 884 851 957T937 1173Q937 1270 876 1312ZM718 180T814 244T910 467Q910 589 838 642T616 696Q542 696 460 691L393 192Q422 186 465 183T541
180Q718 180 814 244Z" />
<glyph unicode="C" glyph-name="C" horiz-adv-x="1167" d="M950 1546T1013 1532T1141 1494L1195 1478L1109 1228Q1063 1262 1000 1288T834 1314Q675 1314 572 1214T423 962T377 648Q377 438 451 323T683 207Q754 207 821 223T939 263T1016 306L1054 98Q1027 77
968 51T819 5T618 -16Q429 -16 312 77T145 317T95 638Q95 894 193 1101T465 1427T856 1546Q950 1546 1013 1532Z" />
<glyph unicode="D" glyph-name="D" horiz-adv-x="1400" d="M1357 659T1262 447T986 109T557 -16Q503 -16 417 -9Q289 0 214 0H91L297 1530H422Q464 1530 594 1538Q728 1546 778 1546Q1079 1546 1218 1379T1357 914Q1357 659 1262 447ZM750 192T858 293T1019 557T1072
911Q1072 1077 1035 1170T921 1303T712 1343Q676 1343 626 1339T546 1327L396 215Q435 202 487 195T592 189Q750 192 858 293Z" />
<glyph unicode="E" glyph-name="E" horiz-adv-x="1171" d="M1138 1530L1116 1314L544 1319L487 887L915 893L891 672L459 684L396 210L1062 223L1037 0H91L297 1530H1138Z" />
<glyph unicode="F" glyph-name="F" horiz-adv-x="1069" d="M1121 1530L1093 1314L544 1320L485 871L934 878L910 648L456 660L367 0H91L297 1530H1121Z" />
<glyph unicode="G" glyph-name="G" horiz-adv-x="1384" d="M781 790H1282L1188 87Q1142 81 1065 59Q981 35 927 21T797 -4T643 -16Q452 -16 329 74T149 308T92 617Q89 888 191 1099T471 1428T865 1546Q988 1546 1073 1530T1230 1490L1296 1468L1228 1218Q1200
1239 1146 1263T1017 1304T859 1322Q690 1322 581 1220T422 962T372 645Q372 443 448 319T687 194Q746 194 820 208T948 248L994 570H754L781 790Z" />
<glyph unicode="H" glyph-name="H" horiz-adv-x="1455" d="M1413 1530L1207 0H929L1018 658H450L361 0H85L291 1530H567L476 855H1044L1135 1530H1413Z" />
<glyph unicode="I" glyph-name="I" horiz-adv-x="643" d="M595 1530L389 0H113L319 1530H595Z" />
<glyph unicode="J" glyph-name="J" horiz-adv-x="640" d="M592 1530Q509 887 458 514T387 75Q328 -137 191 -229T-136 -336L-175 -233Q-96 -210 -35 -161T65 -47T117 86Q158 276 191 525T269 1150Q307 1467 315 1530H592Z" />
<glyph unicode="K" glyph-name="K" horiz-adv-x="1291" d="M849 740T975 501L1059 342Q1167 137 1256 -1L928 1Q916 18 869 114T766 323Q748 357 706 445T649 564L606 655L429 458L367 0H91L297 1530H573L476 811L1076 1530H1394L784 853Q849 740 975 501Z" />
<glyph unicode="L" glyph-name="L" horiz-adv-x="1023" d="M573 1530L397 221L931 229L899 0H91L297 1530H573Z" />
<glyph unicode="M" glyph-name="M" horiz-adv-x="1890" d="M793 1530L907 474L918 277L967 474L1358 1530H1760L1730 0H1453L1522 1080L1548 1388L1443 1104L1006 -3L741 -18L601 1091L582 1388L526 1086L283 0H9L408 1530H793Z" />
<glyph unicode="N" glyph-name="N" horiz-adv-x="1450" d="M554 1530L952 603L1023 370L1039 624L1149 1530H1414L1208 0H963L561 954L485 1208L473 921L353 0H91L297 1530H554Z" />
<glyph unicode="O" glyph-name="O" horiz-adv-x="1386" d="M87 866T179 1081T437 1421T818 1546Q985 1546 1101 1463T1276 1238T1335 923Q1335 664 1245 450T990 110T609 -16Q440 -16 322 67T146 291T87 607Q87 866 179 1081ZM1050 1056T1021 1152T933 1291T783
1335Q663 1335 569 1233T424 968T372 631Q372 399 437 296T639 193Q760 193 853 293T998 557T1050 899Q1050 1056 1021 1152Z" />
<glyph unicode="P" glyph-name="P" horiz-adv-x="1239" d="M433 1530Q482 1530 564 1537Q574 1538 631 1542T745 1546Q985 1546 1113 1443T1242 1132Q1244 949 1167 807T946 584T607 504Q484 504 436 510L367 0H91L297 1530H433ZM954 717T967 1108Q972 1228 908
1288T697 1349Q668 1349 624 1345T546 1334L465 727Q487 722 531 718T613 714Q954 717 967 1108Z" />
<glyph unicode="Q" glyph-name="Q" horiz-adv-x="1387" d="M716 -72T751 -105T842 -149T985 -159Q1057 -159 1124 -153T1237 -132V-310Q1198 -343 1091 -366T890 -390Q792 -390 710 -362T576 -272T525 -113Q525 -65 538 -12Q391 5 290 91T138 311T87 607Q87 866
179 1081T437 1421T818 1546Q985 1546 1101 1463T1276 1238T1335 922Q1335 686 1259 486T1043 155T717 -7Q716 -72 751 -105ZM372 399T437 296T639 193Q760 193 853 293T998 557T1050 899Q1050 1056 1021 1152T933 1291T783 1335Q663 1335 569 1233T424 968T372
631Q372 399 437 296Z" />
<glyph unicode="R" glyph-name="R" horiz-adv-x="1307" d="M954 624T993 549T1055 393Q1129 191 1161 115T1221 -1L912 1Q895 26 877 77T819 258L804 306Q766 444 721 527T630 612L450 613L366 0H90L296 1530H448Q506 1530 592 1538Q684 1546 747 1546Q1256 1546
1256 1166Q1256 982 1170 847T914 660Q954 624 993 549ZM786 827T851 871T946 988T976 1146Q976 1251 913 1299T719 1347Q681 1347 627 1343T546 1334L478 830Q531 827 687 827Q786 827 851 871Z" />
<glyph unicode="S" glyph-name="S" horiz-adv-x="1051" d="M125 279T176 256T288 218T403 203Q524 203 594 253T664 400Q664 450 645 492T582 579T461 677Q333 768 255 873T176 1119Q176 1249 239 1346T415 1494T675 1546Q798 1546 889 1521T1027 1461L940 1245Q901
1285 825 1308T677 1331Q577 1331 512 1289T444 1160Q442 1098 465 1051T532 961T656 862Q742 798 803 741T906 607T948 436Q948 290 878 188T683 35T393 -16Q317 -16 238 -1T97 36T12 78L100 302Q125 279 176 256Z" />
<glyph unicode="T" glyph-name="T" horiz-adv-x="1138" d="M133 1314L166 1530H1221L1191 1314L805 1325L627 0H348L526 1325L133 1314Z" />
<glyph unicode="U" glyph-name="U" horiz-adv-x="1402" d="M269 1530H545L425 635Q413 538 413 443Q415 315 473 258T653 200Q749 200 815 242T924 381T989 639L1108 1530H1381L1259 612Q1228 385 1149 247T939 47T612 -16Q371 -16 251 103T131 441Q131 493 144
595L269 1530Z" />
<glyph unicode="V" glyph-name="V" d="M392 1530L532 490L553 248L635 490L1051 1530H1343L665 0H354L116 1530H392Z" />
<glyph unicode="W" glyph-name="W" horiz-adv-x="1788" d="M1945 1530L1333 -5H1025L949 698L933 867L875 698L610 -5H320L112 1530H389L489 493L515 274L579 493L880 1252L849 1530H1117L1205 493L1224 274L1287 493L1663 1530H1945Z" />
<glyph unicode="X" glyph-name="X" d="M162 1530H461L664 985L1017 1530H1322L782 744L1129 0L822 -1L597 575L239 0H-79L482 801L162 1530Z" />
<glyph unicode="Y" glyph-name="Y" horiz-adv-x="1124" d="M83 1530H375L570 922L598 817L646 922L994 1530H1297L700 590L620 0H349L429 590L83 1530Z" />
<glyph unicode="Z" glyph-name="Z" horiz-adv-x="1158" d="M750 1203L864 1316L225 1304L259 1530H1196L1220 1444L459 330L355 220L1040 231L1003 0H1L-27 89L750 1203Z" />
<glyph unicode="[" glyph-name="bracketleft" horiz-adv-x="854" d="M377 1597T404 1655T479 1741T607 1769Q657 1769 722 1759T838 1737T902 1722L882 1591H617L399 -43L664 -44Q661 -68 656 -108T648 -173Q552 -200 491 -212T340 -225Q246 -225 201 -185T155
-62Q155 -12 161 48Q166 130 202 389T303 1081Q346 1367 364 1498Q377 1597 404 1655Z" />
<glyph unicode="\" glyph-name="backslash" horiz-adv-x="854" d="M237 1597H16L592 -362H814L237 1597Z" />
<glyph unicode="]" glyph-name="bracketright" horiz-adv-x="854" d="M539 -41T512 -99T437 -185T309 -213Q259 -213 194 -203T78 -181T14 -166L34 -35H299L517 1599L252 1600Q255 1624 260 1664T268 1729Q364 1756 425 1768T576 1781Q670 1781 715 1741T761 1618Q761
1568 755 1508Q750 1426 714 1167T613 475Q570 189 552 58Q539 -41 512 -99Z" />
<glyph unicode="^" glyph-name="asciicircum" horiz-adv-x="1364" d="M904 1531L1166 510H945L764 1249L376 510H151L672 1531H904Z" />
<glyph unicode="_" glyph-name="underscore" horiz-adv-x="1335" d="M1267 -363H-111L-91 -187H1287L1267 -363Z" />
<glyph unicode="`" glyph-name="grave" horiz-adv-x="544" d="M200 1744L511 1318L407 1234Q358 1253 275 1318T118 1457T19 1575L200 1744Z" />
<glyph unicode="a" glyph-name="a" horiz-adv-x="1207" d="M1132 1156L973 0H727L741 218Q684 120 597 52T399 -16Q233 -16 155 101T76 414Q76 595 151 765T377 1046T746 1156Q800 1156 865 1145T983 1117L1132 1156ZM561 180T637 274T766 486L834 966Q785 980
718 980Q602 980 522 898T403 691T363 437Q363 307 392 244T479 180Q561 180 637 274Z" />
<glyph unicode="b" glyph-name="b" horiz-adv-x="1227" d="M987 1156T1066 1038T1145 724Q1145 544 1069 374T840 94T470 -16Q414 -16 347 -4T227 25L80 -8L302 1636H566L496 1062L469 916Q526 1015 617 1085T822 1156Q987 1156 1066 1038ZM613 161T694 243T816
450T857 702Q857 958 742 958Q682 958 623 907T517 783T441 639L380 175Q430 161 497 161Q613 161 694 243Z" />
<glyph unicode="c" glyph-name="c" horiz-adv-x="931" d="M740 1156T809 1146T919 1116L851 861Q816 891 762 917T658 944Q584 944 516 887T404 723T361 476Q361 322 403 255T538 187Q600 187 665 222T787 314L864 176Q833 131 780 88T648 14T475 -16Q342 -16
253 44T122 206T80 438Q80 624 154 789T364 1055T680 1156Q740 1156 809 1146Z" />
<glyph unicode="d" glyph-name="d" horiz-adv-x="1218" d="M1199 1636L983 0H736L751 230Q694 128 603 56T398 -16Q232 -16 154 101T75 414Q75 594 151 765T380 1046T750 1156Q799 1156 862 1146L929 1636H1199ZM535 182T592 230T695 350T773 493L837 962Q785
980 722 980Q606 980 525 898T403 690T362 437Q362 182 478 182Q535 182 592 230Z" />
<glyph unicode="e" glyph-name="e" horiz-adv-x="1074" d="M855 1156T933 1087T1011 900Q1011 687 823 569T371 404Q365 182 548 182Q630 182 720 228T876 343L949 202Q916 155 850 105T691 19T493 -16Q354 -16 261 45T124 208T80 430Q80 633 160 799T382 1060T700
1156Q855 1156 933 1087ZM741 933T715 958T639 984Q562 984 504 916T411 749T371 563Q445 567 532 608T680 720T741 874Q741 933 715 958Z" />
<glyph unicode="f" glyph-name="f" horiz-adv-x="730" d="M129 954L163 1140H285L301 1240Q319 1370 378 1468T534 1621T757 1676Q861 1676 921 1650L865 1451Q847 1466 816 1478T744 1491Q678 1491 636 1442T578 1295L554 1140H754L734 954H531L401 0H129L259 954H129Z" />
<glyph unicode="g" glyph-name="g" horiz-adv-x="1213" d="M1139 1156L972 -61Q948 -227 859 -327T648 -469T392 -511Q324 -511 239 -498T122 -471L173 -261Q212 -284 291 -308T445 -332Q556 -332 611 -273T690 -97L745 219Q686 120 597 52T398 -16Q232 -16 154
101T75 414Q75 594 151 765T380 1046T750 1156Q804 1156 869 1145T987 1117L1139 1156ZM836 967Q787 980 722 980Q606 980 525 898T403 690T362 437Q362 182 478 182Q560 182 638 275T770 486L836 967Z" />
<glyph unicode="h" glyph-name="h" horiz-adv-x="1256" d="M1007 1156T1070 1087T1133 860Q1133 823 1123 743T1093 513L1045 186L1018 0H742Q754 94 774 224Q797 386 814 512Q831 638 839 711T848 828Q848 887 825 909T755 931Q710 931 655 902T546 824T452 714L354
0H83L297 1636H569L505 1116L471 918Q550 1025 658 1090T883 1156Q1007 1156 1070 1087Z" />
<glyph unicode="i" glyph-name="i" horiz-adv-x="624" d="M535 1140L378 0H102L258 1140H535ZM299 1538T322 1578T386 1643T476 1668Q520 1668 554 1650T607 1600T626 1532Q626 1483 603 1442T538 1377T441 1353Q403 1353 371 1371T319 1421T299 1491Q299 1538 322 1578Z" />
<glyph unicode="j" glyph-name="j" horiz-adv-x="622" d="M534 1140L378 2Q356 -161 289 -279T122 -459T-95 -521Q-146 -521 -188 -511T-252 -485L-182 -339Q-174 -345 -160 -347T-136 -350Q-52 -350 -4 -296T68 -156T110 67L257 1140H534ZM285 1538T308 1578T372
1643T462 1668Q506 1668 540 1650T593 1600T612 1532Q612 1483 589 1442T524 1377T427 1353Q389 1353 357 1371T305 1421T285 1491Q285 1538 308 1578Z" />
<glyph unicode="k" glyph-name="k" horiz-adv-x="1134" d="M569 1636L355 0H83L297 1636H569ZM994 811T910 732T748 612L1092 2H774L473 632L475 633H473Q555 679 619 746T745 911Q786 967 815 1021T865 1140H1135Q1130 1079 1109 1025T1051 912Q994 811 910 732Z" />
<glyph unicode="l" glyph-name="l" horiz-adv-x="625" d="M603 1636L380 2H104L326 1636H603Z" />
<glyph unicode="m" glyph-name="m" horiz-adv-x="1867" d="M1624 1156T1685 1087T1747 860Q1747 791 1707 513Q1693 408 1655 152L1633 2H1357Q1379 160 1398 291Q1400 308 1429 512Q1446 638 1454 711T1463 828Q1463 887 1440 909T1370 931Q1312 931 1241 881T1111
753Q1107 716 1099 654T1085 554L1079 513Q1065 408 1027 152L1005 2H729Q737 65 745 121T761 227Q786 400 801 512Q834 752 834 828Q834 887 811 909T741 931Q677 931 595 870T454 717L356 2H80L235 1140H500L483 933Q560 1034 662 1095T873 1156Q979 1156 1039
1105T1114 939Q1192 1038 1293 1097T1502 1156Q1624 1156 1685 1087Z" />
<glyph unicode="n" glyph-name="n" horiz-adv-x="1257" d="M1011 1156T1073 1087T1136 860Q1136 791 1096 513Q1082 408 1044 152L1022 2H746Q754 65 762 121T778 227Q803 400 818 512Q851 752 851 828Q851 887 828 909T758 931Q713 931 658 902T548 822T453 711L356
2H80L235 1140H498L482 928Q561 1031 667 1093T887 1156Q1011 1156 1073 1087Z" />
<glyph unicode="o" glyph-name="o" horiz-adv-x="1158" d="M881 1156T980 1027T1079 677Q1079 494 1007 335T798 80T480 -16Q345 -16 255 44T121 213T77 464Q77 647 150 805T361 1060T681 1156Q881 1156 980 1027ZM611 165T673 242T766 440T797 687Q797 834 759
905T639 976Q548 976 484 897T388 696T356 449Q356 165 519 165Q611 165 673 242Z" />
<glyph unicode="p" glyph-name="p" horiz-adv-x="1227" d="M985 1156T1063 1040T1142 728Q1142 548 1066 377T837 95T466 -16Q418 -16 353 -6L285 -503H12L233 1140H484L475 930Q532 1025 620 1090T819 1156Q985 1156 1063 1040ZM610 161T691 243T813 452T854
705Q854 958 739 958Q681 958 624 911T521 794T444 654L378 174Q429 161 494 161Q610 161 691 243Z" />
<glyph unicode="q" glyph-name="q" horiz-adv-x="1219" d="M1136 1159L916 -499H643L710 2L749 226Q691 125 601 55T398 -16Q232 -16 154 101T75 414Q75 594 151 765T380 1046T750 1156Q804 1156 869 1145T985 1119L1136 1159ZM558 182T635 272T767 480L833 968Q784
980 722 980Q606 980 525 898T403 690T362 437Q362 182 478 182Q558 182 635 272Z" />
<glyph unicode="r" glyph-name="r" horiz-adv-x="846" d="M854 1156T870 1143L816 858Q804 868 777 873T717 878Q649 878 577 828T451 688L356 0H80L236 1140H501L483 924Q509 980 555 1033T666 1121T804 1156Q854 1156 870 1143Z" />
<glyph unicode="s" glyph-name="s" horiz-adv-x="925" d="M119 256T163 234T260 197T364 182Q531 182 531 295Q531 328 514 356T471 408T397 471L346 513Q288 562 251 605T191 704T167 834Q167 934 221 1007T371 1118T588 1156Q668 1156 744 1143T850 1118L812
877Q798 893 765 912T685 945T585 959Q512 959 469 930T426 849Q426 813 440 786T477 737T547 675L586 643Q657 587 700 542T770 441T797 313Q797 200 739 127T583 19T363 -16Q267 -16 173 4T50 48L97 274Q119 256 163 234Z" />
<glyph unicode="t" glyph-name="t" horiz-adv-x="790" d="M234 954H134L173 1140H278L358 1418H574L537 1140H779L756 954H512L439 406Q435 377 434 367Q424 295 424 268Q424 229 437 206T487 182Q521 182 584 212T681 272L720 133Q685 99 626 64T494 6T348 -18Q252
-18 196 31T139 179Q139 194 143 240T156 347L234 954Z" />
<glyph unicode="u" glyph-name="u" horiz-adv-x="1233" d="M1153 1140L1000 0H750L764 205Q693 106 594 43T383 -20Q254 -20 183 46T112 260Q112 307 119 371T140 546Q156 661 184 864T223 1140H497Q495 1121 493 1113Q481 1021 453 809T418 543Q395 377 395 307Q395
245 421 219T497 193Q564 193 641 258T779 418L877 1140H1153Z" />
<glyph unicode="v" glyph-name="v" horiz-adv-x="1073" d="M98 1140H382L447 417L459 215L555 342Q631 463 679 576T756 836Q767 893 778 991T788 1140H1045Q1046 1132 1048 1103T1051 1033L1050 994Q1044 834 978 672T808 364T577 96L487 -7L260 -19L204 357L98 1140Z" />
<glyph unicode="w" glyph-name="w" horiz-adv-x="1713" d="M1678 1083T1678 1048L1677 1003Q1668 763 1540 527T1204 93L1118 -7L901 -19L844 357L831 464Q719 242 576 96L490 -7L265 -19L209 357L100 1140H390L455 417L466 210L563 342Q732 610 782 866L748 1140H1026L1087
417L1099 210L1194 339Q1270 460 1316 574T1388 836Q1400 905 1410 998T1419 1140H1673Q1678 1083 1678 1048Z" />
<glyph unicode="x" glyph-name="x" horiz-adv-x="1003" d="M634 562L934 2H615L457 383L209 2H-80L360 597L82 1140H403L539 777L773 1140H1057L634 562Z" />
<glyph unicode="y" glyph-name="y" horiz-adv-x="1095" d="M1051 1112T1051 1059Q1051 1019 1050 997Q1038 667 851 281Q739 41 592 -151L565 -186Q485 -293 424 -357T272 -465T58 -509Q7 -509 -48 -494T-144 -458L-71 -255Q-42 -273 -4 -287T76 -301Q139 -301
193 -276T307 -189T441 -18H277L217 357L105 1140H389L468 407L505 96Q590 259 615 339Q694 493 732 641T787 992Q791 1047 791 1110Q792 1120 792 1140H1048Q1051 1112 1051 1059Z" />
<glyph unicode="z" glyph-name="z" horiz-adv-x="975" d="M326 214H859L837 0H10L-37 52L530 825L641 929H153L182 1140H955L996 1092L425 305L326 214Z" />
<glyph unicode="{" glyph-name="braceleft" horiz-adv-x="1024" d="M323 580T309 599T271 635Q216 672 106 698L131 861Q207 880 248 891T323 921Q350 935 367 953T388 989L470 1517Q486 1618 515 1673T594 1751T730 1774Q774 1774 840 1763T958 1739T1025 1722Q1022
1703 1015 1659T1003 1590H727L632 965Q626 927 604 900T539 846Q521 835 454 809T364 774L405 753Q452 729 483 711T530 678Q552 656 562 637T573 591Q573 585 571 569L478 -43H753Q749 -69 744 -110T736 -169Q650 -198 575 -214T416 -231Q316 -231 275 -193T234
-70Q235 -52 272 208T323 563Q323 580 309 599Z" />
<glyph unicode="|" glyph-name="bar" horiz-adv-x="854" d="M550 1780V-186H337V1780H550Z" />
<glyph unicode="}" glyph-name="braceright" horiz-adv-x="1024" d="M750 966T764 947T802 911Q857 874 967 848L942 685Q866 666 825 655T750 625Q723 611 706 593T685 557L603 29Q587 -72 558 -127T479 -205T343 -228Q299 -228 233 -217T115 -193T48 -176Q51
-157 58 -113T70 -44H346L441 581Q447 619 469 646T534 700Q552 711 619 737T709 772L668 793Q621 817 590 835T543 868Q521 890 511 909T500 955Q500 961 502 977L595 1589H320Q324 1615 329 1656T337 1715Q423 1744 498 1760T657 1777Q757 1777 798 1739T839
1616Q838 1598 801 1338T750 983Q750 966 764 947Z" />
<glyph unicode="~" glyph-name="asciitilde" horiz-adv-x="1137" d="M120 917T170 967T290 1049T431 1082Q493 1082 541 1057T651 985Q702 946 734 928T803 910Q918 910 995 1022L1098 916Q1084 861 1035 810T917 728T776 696Q732 696 695 709T628 742T560 794Q511
834 477 853T401 873Q344 873 297 842T214 760L104 867Q120 917 170 967Z" />
<glyph unicode="&#xa0;" glyph-name="uni00A0" horiz-adv-x="485" />
<glyph unicode="&#xa1;" glyph-name="exclamdown" horiz-adv-x="686" d="M342 1050T308 1085T274 1177Q274 1234 299 1277T369 1345T469 1370Q530 1370 568 1335T607 1241Q607 1190 582 1146T512 1076T414 1050Q342 1050 308 1085ZM55 -434L288 856H496L350 -434H55Z" />
<glyph unicode="&#xa2;" glyph-name="cent" horiz-adv-x="1067" d="M634 187T699 222T821 314L898 176Q854 112 768 56T566 -13L523 -245H328L374 3Q244 44 179 160T114 438Q114 600 170 748T333 1000T581 1140L641 1393H836L779 1153Q830 1149 876 1140T953 1116L885
861Q850 891 796 917T692 944Q618 944 550 887T438 723T395 476Q395 322 437 255T572 187Q634 187 699 222Z" />
<glyph unicode="&#xa3;" glyph-name="sterling" horiz-adv-x="1397" d="M1262 592T1305 512T1349 352Q1348 203 1252 92T879 -20Q765 -20 668 -1T447 56Q430 61 386 73T305 94Q265 44 203 12T83 -20Q25 -20 -7 11T-35 96Q-33 142 7 183T106 250T220 275Q251 303
275 361T310 487L352 732H178L202 913H383L403 1033Q424 1170 488 1285T666 1473T945 1545Q1179 1545 1283 1445L1151 1247Q1145 1264 1117 1291T1043 1338T941 1359Q844 1359 773 1281T672 1022L654 913H961L938 732H623L604 621Q580 475 552 399T474 252Q581
218 662 198T824 178Q962 178 1027 223T1093 351Q1093 389 1067 431T1011 490L1194 634Q1262 592 1305 512Z" />
<glyph unicode="&#xa4;" glyph-name="currency" horiz-adv-x="1540" d="M1222 559T1151 450L1353 248L1225 121L1023 323Q914 252 782 252Q655 252 548 318L346 116L218 243L418 443Q381 496 362 559T342 690Q342 757 361 819T416 934L215 1135L342 1263L545 1059Q597
1092 657 1110T782 1128Q918 1128 1030 1052L1228 1250L1355 1122L1155 922Q1222 818 1222 690Q1222 559 1151 450ZM850 430T907 465T997 560T1031 690Q1031 760 998 820T907 915T782 951Q714 951 657 916T567 820T533 690Q533 620 566 561T657 466T782 430Q850
430 907 465Z" />
<glyph unicode="&#xa5;" glyph-name="yen" horiz-adv-x="1476" d="M1000 862H1330L1312 706H895L870 506H1285L1268 350H850L805 0H533L576 350H168L186 506H595L619 706H212L230 862H561L274 1530H548L759 973L793 863L849 977L1171 1530H1479L1000 862Z" />
<glyph unicode="&#xa6;" glyph-name="brokenbar" horiz-adv-x="854" d="M550 1780V901H337V1780H550ZM550 693V-186H337V693H550Z" />
<glyph unicode="&#xa7;" glyph-name="section" horiz-adv-x="1194" d="M1036 301T1036 195Q1036 84 971 -2T783 -138T492 -187Q409 -187 328 -168T185 -120T99 -69L155 132Q181 100 242 74T375 32T500 17Q634 17 704 54T775 172Q775 209 749 240T669 303T526 375Q358
453 255 564T152 827Q152 987 331 1089Q246 1187 246 1322Q246 1423 306 1502T484 1627T764 1673Q892 1673 986 1640T1126 1568L1061 1382Q1035 1417 980 1438T864 1469T759 1478Q684 1478 629 1460T544 1411T511 1341Q508 1288 531 1252T598 1190T732 1117L772
1097Q930 1018 1028 911T1126 665Q1126 578 1087 504T976 375Q1036 301 1036 195ZM779 522T835 490Q882 546 882 625Q882 675 862 715T787 798T629 893Q571 921 532 941T457 985Q401 927 401 846Q401 788 428 746T511 665T673 570Q779 522 835 490Z" />
<glyph unicode="&#xa8;" glyph-name="dieresis" horiz-adv-x="813" d="M27 1549T48 1589T107 1652T191 1676Q232 1676 263 1657T312 1608T330 1542Q330 1494 309 1453T249 1388T159 1363Q125 1363 95 1382T46 1434T27 1502Q27 1549 48 1589ZM474 1549T495 1589T553
1652T637 1676Q678 1676 710 1657T759 1608T777 1542Q777 1494 756 1453T696 1388T605 1363Q570 1363 540 1382T492 1434T474 1502Q474 1549 495 1589Z" />
<glyph unicode="&#xa9;" glyph-name="copyright" horiz-adv-x="2110" d="M1294 1839T1494 1722T1810 1403T1926 963Q1926 723 1810 521T1494 201T1055 83Q816 83 617 201T301 521T185 963Q185 1202 301 1403T616 1721T1055 1839Q1294 1839 1494 1722ZM1260 212T1426
313T1688 586T1783 963Q1783 1168 1688 1340T1427 1612T1055 1713Q850 1713 684 1613T422 1340T327 963Q327 758 422 586T683 313T1055 212Q1260 212 1426 313ZM1186 1453T1250 1436T1352 1397L1317 1213Q1279 1239 1221 1255T1098 1272Q1017 1272 957 1234T865
1130T833 979Q833 822 904 741T1094 660Q1166 660 1228 678T1330 722L1374 574Q1324 531 1238 503T1056 475Q922 475 821 541T665 718T610 957Q610 1099 667 1211T837 1388T1106 1453Q1186 1453 1250 1436Z" />
<glyph unicode="&#xaa;" glyph-name="ordfeminine" horiz-adv-x="909" d="M962 1574L809 735H616L621 871Q564 809 495 772T344 735Q223 735 158 811T93 1019Q93 1160 165 1289T364 1497T645 1577Q691 1577 743 1569T833 1547L962 1574ZM480 889T529 924T623 1014L704
1436Q670 1454 630 1454Q535 1454 467 1388T365 1226T330 1043Q330 965 354 927T439 889Q480 889 529 924Z" />
<glyph unicode="&#xab;" glyph-name="guillemotleft" horiz-adv-x="1937" d="M953 1101L1001 941L531 610L920 284L830 142L209 530L236 705L953 1101ZM1694 1101L1742 941L1272 610L1661 284L1571 142L950 530L977 705L1694 1101Z" />
<glyph unicode="&#xac;" glyph-name="logicalnot" horiz-adv-x="1370" d="M1188 853L1126 322H909L950 664H207L228 853H1188Z" />
<glyph unicode="&#xae;" glyph-name="registered" horiz-adv-x="2110" d="M1294 1839T1494 1722T1811 1403T1928 963Q1928 723 1812 521T1495 201T1055 83Q816 83 616 201T300 521T183 963Q183 1202 299 1403T616 1721T1055 1839Q1294 1839 1494 1722ZM1259 212T1426
313T1689 586T1785 963Q1785 1167 1690 1339T1427 1611T1055 1712Q851 1712 684 1612T421 1339T325 963Q325 758 420 586T683 313T1055 212Q1259 212 1426 313ZM806 1445Q857 1445 913 1448Q1003 1452 1067 1452Q1188 1452 1269 1416T1390 1318T1430 1177Q1430
925 1237 867Q1280 840 1309 797T1373 682Q1399 629 1409 613Q1438 563 1494 483L1264 484Q1237 517 1209 578L1200 596L1178 645Q1143 727 1111 776T1028 842Q1008 841 920 841V483H719V1445H806ZM1135 984T1180 1024T1225 1151Q1225 1226 1184 1264T1039 1303Q992
1303 970 1302T920 1292V989Q958 984 1045 984Q1135 984 1180 1024Z" />
<glyph unicode="&#xaf;" glyph-name="overscore" horiz-adv-x="617" d="M588 1594L577 1415H34L45 1594H588Z" />
<glyph unicode="&#xb0;" glyph-name="degree" horiz-adv-x="928" d="M175 1368T221 1447T350 1571T533 1617Q628 1617 705 1573T828 1452T873 1284Q873 1186 826 1106T697 981T512 935Q417 935 340 980T219 1102T175 1271Q175 1368 221 1447ZM701 1331T678 1373T615
1439T527 1464Q476 1464 435 1439T371 1371T347 1273Q347 1223 370 1181T432 1114T520 1089Q572 1089 613 1114T677 1183T701 1281Q701 1331 678 1373Z" />
<glyph unicode="&#xb1;" glyph-name="plusminus" horiz-adv-x="1361" d="M581 681L449 674H212L238 884H475L603 873L615 1025L643 1280H868L842 1025L815 874L921 884H1186L1160 674H895L791 681L782 531L752 273H526L556 531L581 681ZM1072 194L1055 15H168L185
194H1072Z" />
<glyph unicode="&#xb2;" glyph-name="uni00B2" horiz-adv-x="1163" d="M263 780T409 885T667 1109T778 1317Q778 1388 737 1420T625 1453Q536 1453 461 1421T330 1335L239 1454Q270 1497 336 1542T491 1617T676 1647Q791 1647 875 1610T1002 1511T1046 1373Q1046
1209 911 1055T541 765L1045 794L1033 592H220L161 727Q263 780 409 885Z" />
<glyph unicode="&#xb3;" glyph-name="uni00B3" horiz-adv-x="1071" d="M192 710T259 695T390 680Q464 680 533 700T648 764T695 879Q697 940 658 975T553 1012L354 965L382 1142Q526 1175 601 1224T677 1353Q677 1398 644 1428T540 1458Q406 1458 289 1377L228
1523Q313 1582 416 1613T628 1644Q738 1644 810 1612T915 1529T948 1422Q948 1316 888 1238T723 1121Q848 1112 901 1042T955 883Q955 766 884 681T695 553T444 509Q362 509 268 530T118 586L148 735Q192 710 259 695Z" />
<glyph unicode="&#xb4;" glyph-name="acute" horiz-adv-x="562" d="M355 1744L535 1575Q517 1540 442 1466T281 1324T138 1234L34 1319L355 1744Z" />
<glyph unicode="&#xb5;" glyph-name="uni00B5" horiz-adv-x="1364" d="M86 -372L259 826Q262 850 262 872Q262 902 255 920T234 939Q209 939 188 926T143 889L87 1029Q102 1046 144 1076T248 1130T379 1155Q454 1155 502 1114T551 989Q551 966 549 953Q535 843
511 657T476 391Q473 367 473 348Q473 267 509 233T604 199Q642 199 688 223T772 288T827 372L928 1140H1201L1089 258Q1088 251 1088 237Q1088 209 1098 192T1122 175Q1149 175 1178 194T1236 247L1306 127Q1273 91 1240 62T1150 7T1022 -18Q867 -18 847 122Q791
52 731 17T577 -18Q535 -18 482 1T410 58L346 -372H86Z" />
<glyph unicode="&#xb6;" glyph-name="paragraph" horiz-adv-x="1364" d="M371 728T290 776T165 910T121 1107Q121 1319 265 1445T716 1571Q774 1571 831 1568T939 1560Q1049 1552 1100 1552H1404L1386 1405L1219 1372Q1206 1259 1131 686Q1055 106 1042 0H807L980
1368H786L611 0H377L479 726Q371 728 290 776Z" />
<glyph unicode="&#xb7;" glyph-name="middot" horiz-adv-x="686" d="M433 940T467 904T501 810Q501 723 451 672T316 620Q255 620 217 657T179 753Q179 802 201 845T265 914T361 940Q433 940 467 904Z" />
<glyph unicode="&#xb8;" glyph-name="cedilla" horiz-adv-x="482" d="M401 30Q422 1 438 -68T454 -202Q454 -334 380 -401T165 -468Q122 -468 54 -458T-30 -436L1 -259Q29 -274 76 -274Q156 -274 200 -242T247 -122Q248 -105 248 -71Q248 1 241 30L330 34L401 30Z" />
<glyph unicode="&#xb9;" glyph-name="uni00B9" horiz-adv-x="1020" d="M290 1326L280 1466Q346 1483 434 1517T596 1588T696 1645L815 1624L674 591H429L536 1378L290 1326Z" />
<glyph unicode="&#xba;" glyph-name="ordmasculine" horiz-adv-x="900" d="M99 1241T167 1354T346 1528T578 1589Q683 1589 763 1545T888 1418T933 1224Q933 1068 866 955T689 784T449 725Q354 725 274 769T147 895T99 1088Q99 1241 167 1354ZM694 1332T663 1391T562
1450Q481 1450 431 1393T358 1255T336 1100Q336 994 370 933T465 871Q593 871 643 977T694 1221Q694 1332 663 1391Z" />
<glyph unicode="&#xbb;" glyph-name="guillemotright" horiz-adv-x="1937" d="M263 137L215 297L685 628L296 954L386 1096L1007 708L980 533L263 137ZM1004 137L956 297L1426 628L1037 954L1127 1096L1748 708L1721 533L1004 137Z" />
<glyph unicode="&#xbc;" glyph-name="onequarter" horiz-adv-x="2560" d="M2318 111H2089L2048 -207H1808L1852 111H1340L1291 223L1869 1111L1927 1112L2100 1008L1632 369L1559 280L1877 292L1912 543L2147 566L2113 301L2340 310L2318 111ZM320 1326L310 1466Q376
1483 464 1517T626 1588T726 1645L845 1624L704 591H459L566 1378L320 1326ZM1607 1530L926 0H717L1398 1530H1607Z" />
<glyph unicode="&#xbd;" glyph-name="onehalf" horiz-adv-x="2560" d="M1497 65T1643 170T1901 394T2012 602Q2012 673 1971 705T1859 738Q1770 738 1695 706T1564 620L1473 739Q1504 782 1570 827T1725 902T1910 932Q2025 932 2109 895T2236 796T2280 658Q2280
494 2145 340T1775 50L2279 79L2267 -123H1454L1395 12Q1497 65 1643 170ZM320 1326L310 1466Q376 1483 464 1517T626 1588T726 1645L845 1624L704 591H459L566 1378L320 1326ZM1606 1530L925 0H716L1397 1530H1606Z" />
<glyph unicode="&#xbe;" glyph-name="threequarters" horiz-adv-x="2560" d="M2318 111H2089L2048 -207H1808L1852 111H1340L1291 223L1869 1111L1927 1112L2100 1008L1632 369L1559 280L1877 292L1912 543L2147 566L2113 301L2340 310L2318 111ZM420 738T487
723T618 708Q692 708 761 728T876 792T923 907Q925 968 886 1003T781 1040L582 993L610 1170Q754 1203 829 1252T905 1381Q905 1426 872 1456T768 1486Q634 1486 517 1405L456 1551Q541 1610 644 1641T856 1672Q966 1672 1038 1640T1143 1557T1176 1450Q1176 1344
1116 1266T951 1149Q1076 1140 1129 1070T1183 911Q1183 794 1112 709T923 581T672 537Q590 537 496 558T346 614L376 763Q420 738 487 723ZM1606 1530L925 0H716L1397 1530H1606Z" />
<glyph unicode="&#xbf;" glyph-name="questiondown" horiz-adv-x="1048" d="M456 1347T506 1398T641 1450Q702 1450 740 1413T778 1318Q778 1268 756 1225T692 1156T596 1130Q524 1130 490 1166T456 1261Q456 1347 506 1398ZM698 -145T746 -139T849 -117L807 -302Q783
-324 721 -339T598 -355Q416 -355 297 -297T123 -142T67 77Q67 206 117 294T239 434T420 545Q495 586 537 613T606 677T634 763Q634 787 626 811T604 868Q593 893 591 903L738 961L755 960Q797 928 829 860T862 725Q862 665 836 616T751 521T591 422Q366 315 334
222Q328 201 323 170T318 111Q318 35 360 -23T476 -113T637 -145Q698 -145 746 -139Z" />
<glyph unicode="&#xc0;" glyph-name="Agrave" horiz-adv-x="1305" d="M910 341H349L201 0L-100 -1L644 1530H978L1235 0L958 -1L910 341ZM883 537L787 1219L777 1337L730 1216L435 537H883ZM643 2007L920 1665L812 1572Q763 1590 694 1637T564 1742T476 1850L643 2007Z" />
<glyph unicode="&#xc1;" glyph-name="Aacute" horiz-adv-x="1305" d="M910 341H349L201 0L-100 -1L644 1530H978L1235 0L958 -1L910 341ZM883 537L787 1219L777 1337L730 1216L435 537H883ZM1013 2007L1180 1850Q1153 1800 1092 1742T962 1637T844 1572L736 1665L1013
2007Z" />
<glyph unicode="&#xc2;" glyph-name="Acircumflex" horiz-adv-x="1305" d="M910 341H349L201 0L-100 -1L644 1530H978L1235 0L958 -1L910 341ZM883 537L787 1219L777 1337L730 1216L435 537H883ZM808 2007H987L1188 1667L1069 1594L872 1794L572 1589L459 1661L808 2007Z" />
<glyph unicode="&#xc3;" glyph-name="Atilde" horiz-adv-x="1305" d="M910 341H349L201 0L-100 -1L644 1530H978L1235 0L958 -1L910 341ZM883 537L787 1219L777 1337L730 1216L435 537H883ZM457 1836T506 1878T615 1948T727 1975Q787 1975 826 1954T910 1892Q945
1861 967 1847T1020 1833Q1056 1833 1083 1848T1126 1881T1177 1943L1279 1826Q1261 1777 1215 1732T1110 1658T995 1630Q949 1630 915 1641T858 1669T805 1711Q770 1742 744 1757T680 1772Q650 1772 625 1760T580 1730T532 1682L435 1792Q457 1836 506 1878Z"
/>
<glyph unicode="&#xc4;" glyph-name="Adieresis" horiz-adv-x="1305" d="M910 341H349L201 0L-100 -1L644 1530H978L1235 0L958 -1L910 341ZM883 537L787 1219L777 1337L730 1216L435 537H883ZM456 1850T478 1890T538 1953T620 1977Q661 1977 692 1958T740 1909T758
1843Q758 1795 737 1754T678 1689T588 1664Q553 1664 523 1684T474 1736T456 1804Q456 1850 478 1890ZM902 1851T924 1890T983 1953T1065 1977Q1106 1977 1138 1958T1187 1909T1205 1843Q1205 1795 1184 1754T1124 1689T1033 1664Q998 1664 968 1684T920 1736T902
1805Q902 1851 924 1890Z" />
<glyph unicode="&#xc5;" glyph-name="Aring" horiz-adv-x="1305" d="M910 341H349L201 0L-100 -1L631 1503Q568 1533 534 1588T500 1718Q500 1816 556 1881T697 1977T869 2007Q1001 2007 1080 1942T1160 1758Q1160 1666 1112 1601T983 1502L1235 0L958 -1L910
341ZM774 1885T721 1848T668 1727Q668 1690 688 1659T741 1610T814 1592Q991 1592 991 1753Q991 1810 950 1847T848 1885Q774 1885 721 1848ZM883 537L787 1219L777 1337L730 1216L435 537H883Z" />
<glyph unicode="&#xc6;" glyph-name="AE" horiz-adv-x="1874" d="M1247 1319L1189 887L1618 893L1594 672L1162 684L1098 210L1765 223L1739 0H794L842 356H367L178 0H-125L642 1368L375 1395L396 1530H1840L1818 1314L1247 1319ZM869 557L973 1328L887 1336L474
557H869Z" />
<glyph unicode="&#xc7;" glyph-name="Ccedilla" horiz-adv-x="1167" d="M675 1314T572 1214T423 962T377 648Q377 438 451 323T683 207Q754 207 821 223T939 263T1016 306L1054 98Q1017 69 928 35T716 -11Q730 -51 739 -102T748 -200Q748 -332 674 -399T459 -466Q416
-466 348 -456T264 -434L295 -257Q323 -272 370 -272Q450 -272 494 -240T541 -120L542 -73Q542 -49 540 -11Q380 8 281 103T138 338T95 638Q95 894 193 1101T465 1427T856 1546Q950 1546 1013 1532T1141 1494L1195 1478L1109 1228Q1063 1262 1000 1288T834 1314Q675
1314 572 1214Z" />
<glyph unicode="&#xc8;" glyph-name="Egrave" horiz-adv-x="1171" d="M566 2007L843 1665L735 1572Q686 1590 617 1637T487 1742T399 1850L566 2007ZM1138 1530L1116 1314L544 1319L487 887L915 893L891 672L459 684L396 210L1062 223L1037 0H91L297 1530H1138Z" />
<glyph unicode="&#xc9;" glyph-name="Eacute" horiz-adv-x="1171" d="M936 2007L1103 1850Q1076 1800 1015 1742T885 1637T767 1572L659 1665L936 2007ZM1138 1530L1116 1314L544 1319L487 887L915 893L891 672L459 684L396 210L1062 223L1037 0H91L297 1530H1138Z" />
<glyph unicode="&#xca;" glyph-name="Ecircumflex" horiz-adv-x="1171" d="M1138 1530L1116 1314L544 1319L487 887L915 893L891 672L459 684L396 210L1062 223L1037 0H91L297 1530H1138ZM731 2007H910L1111 1667L992 1594L795 1794L495 1589L382 1661L731 2007Z" />
<glyph unicode="&#xcb;" glyph-name="Edieresis" horiz-adv-x="1171" d="M379 1850T401 1890T461 1953T543 1977Q584 1977 615 1958T663 1909T681 1843Q681 1795 660 1754T601 1689T511 1664Q476 1664 446 1684T397 1736T379 1804Q379 1850 401 1890ZM825 1851T847
1890T906 1953T988 1977Q1029 1977 1061 1958T1110 1909T1128 1843Q1128 1795 1107 1754T1047 1689T956 1664Q921 1664 891 1684T843 1736T825 1805Q825 1851 847 1890ZM1138 1530L1116 1314L544 1319L487 887L915 893L891 672L459 684L396 210L1062 223L1037 0H91L297
1530H1138Z" />
<glyph unicode="&#xcc;" glyph-name="Igrave" horiz-adv-x="643" d="M595 1530L389 0H113L319 1530H595ZM302 2007L579 1665L471 1572Q422 1590 353 1637T223 1742T135 1850L302 2007Z" />
<glyph unicode="&#xcd;" glyph-name="Iacute" horiz-adv-x="643" d="M595 1530L389 0H113L319 1530H595ZM672 2007L839 1850Q812 1800 751 1742T621 1637T503 1572L395 1665L672 2007Z" />
<glyph unicode="&#xce;" glyph-name="Icircumflex" horiz-adv-x="643" d="M595 1530L389 0H113L319 1530H595ZM467 2007H646L847 1667L728 1594L531 1794L231 1589L118 1661L467 2007Z" />
<glyph unicode="&#xcf;" glyph-name="Idieresis" horiz-adv-x="643" d="M595 1530L389 0H113L319 1530H595ZM115 1850T137 1890T197 1953T279 1977Q320 1977 351 1958T399 1909T417 1843Q417 1795 396 1754T337 1689T247 1664Q212 1664 182 1684T133 1736T115
1804Q115 1850 137 1890ZM561 1851T583 1890T642 1953T724 1977Q765 1977 797 1958T846 1909T864 1843Q864 1795 843 1754T783 1689T692 1664Q657 1664 627 1684T579 1736T561 1805Q561 1851 583 1890Z" />
<glyph unicode="&#xd0;" glyph-name="Eth" horiz-adv-x="1408" d="M1363 660T1268 448T992 110T563 -15Q509 -15 423 -8Q295 1 220 1H97L191 698H36L56 888H216L303 1531H428Q470 1531 600 1539Q734 1547 784 1547Q1085 1547 1224 1380T1363 915Q1363 660 1268
448ZM756 193T864 294T1025 558T1078 912Q1078 1078 1041 1171T927 1304T718 1344Q682 1344 632 1340T552 1328L492 888H831L810 698H467L402 216Q441 203 493 196T598 190Q756 193 864 294Z" />
<glyph unicode="&#xd1;" glyph-name="Ntilde" horiz-adv-x="1456" d="M515 1836T564 1878T673 1948T785 1975Q845 1975 884 1954T968 1892Q1003 1861 1025 1847T1078 1833Q1114 1833 1141 1848T1184 1881T1235 1943L1337 1826Q1319 1777 1273 1732T1168 1658T1053
1630Q1007 1630 973 1641T916 1669T863 1711Q828 1742 802 1757T738 1772Q708 1772 683 1760T638 1730T590 1682L493 1792Q515 1836 564 1878ZM560 1530L958 603L1029 370L1045 624L1155 1530H1420L1214 0H969L567 954L491 1208L479 921L359 0H97L303 1530H560Z"
/>
<glyph unicode="&#xd2;" glyph-name="Ograve" horiz-adv-x="1386" d="M683 2007L960 1665L852 1572Q803 1590 734 1637T604 1742T516 1850L683 2007ZM87 866T179 1081T437 1421T818 1546Q985 1546 1101 1463T1276 1238T1335 923Q1335 664 1245 450T990 110T609
-16Q440 -16 322 67T146 291T87 607Q87 866 179 1081ZM1050 1056T1021 1152T933 1291T783 1335Q663 1335 569 1233T424 968T372 631Q372 399 437 296T639 193Q760 193 853 293T998 557T1050 899Q1050 1056 1021 1152Z" />
<glyph unicode="&#xd3;" glyph-name="Oacute" horiz-adv-x="1386" d="M1053 2007L1220 1850Q1193 1800 1132 1742T1002 1637T884 1572L776 1665L1053 2007ZM87 866T179 1081T437 1421T818 1546Q985 1546 1101 1463T1276 1238T1335 923Q1335 664 1245 450T990 110T609
-16Q440 -16 322 67T146 291T87 607Q87 866 179 1081ZM1050 1056T1021 1152T933 1291T783 1335Q663 1335 569 1233T424 968T372 631Q372 399 437 296T639 193Q760 193 853 293T998 557T1050 899Q1050 1056 1021 1152Z" />
<glyph unicode="&#xd4;" glyph-name="Ocircumflex" horiz-adv-x="1386" d="M87 866T179 1081T437 1421T818 1546Q985 1546 1101 1463T1276 1238T1335 923Q1335 664 1245 450T990 110T609 -16Q440 -16 322 67T146 291T87 607Q87 866 179 1081ZM1050 1056T1021 1152T933
1291T783 1335Q663 1335 569 1233T424 968T372 631Q372 399 437 296T639 193Q760 193 853 293T998 557T1050 899Q1050 1056 1021 1152ZM848 2007H1027L1228 1667L1109 1594L912 1794L612 1589L499 1661L848 2007Z" />
<glyph unicode="&#xd5;" glyph-name="Otilde" horiz-adv-x="1386" d="M496 1836T545 1878T654 1948T766 1975Q826 1975 865 1954T949 1892Q984 1861 1006 1847T1059 1833Q1095 1833 1122 1848T1165 1881T1216 1943L1318 1826Q1300 1777 1254 1732T1149 1658T1034
1630Q988 1630 954 1641T897 1669T844 1711Q809 1742 783 1757T719 1772Q689 1772 664 1760T619 1730T571 1682L474 1792Q496 1836 545 1878ZM87 866T179 1081T437 1421T818 1546Q985 1546 1101 1463T1276 1238T1335 923Q1335 664 1245 450T990 110T609 -16Q440
-16 322 67T146 291T87 607Q87 866 179 1081ZM1050 1056T1021 1152T933 1291T783 1335Q663 1335 569 1233T424 968T372 631Q372 399 437 296T639 193Q760 193 853 293T998 557T1050 899Q1050 1056 1021 1152Z" />
<glyph unicode="&#xd6;" glyph-name="Odieresis" horiz-adv-x="1386" d="M495 1850T517 1890T577 1953T659 1977Q700 1977 731 1958T779 1909T797 1843Q797 1795 776 1754T717 1689T627 1664Q592 1664 562 1684T513 1736T495 1804Q495 1850 517 1890ZM941 1851T963
1890T1022 1953T1104 1977Q1145 1977 1177 1958T1226 1909T1244 1843Q1244 1795 1223 1754T1163 1689T1072 1664Q1037 1664 1007 1684T959 1736T941 1805Q941 1851 963 1890ZM87 866T179 1081T437 1421T818 1546Q985 1546 1101 1463T1276 1238T1335 923Q1335 664
1245 450T990 110T609 -16Q440 -16 322 67T146 291T87 607Q87 866 179 1081ZM1050 1056T1021 1152T933 1291T783 1335Q663 1335 569 1233T424 968T372 631Q372 399 437 296T639 193Q760 193 853 293T998 557T1050 899Q1050 1056 1021 1152Z" />
<glyph unicode="&#xd7;" glyph-name="multiply" horiz-adv-x="1384" d="M583 778L276 1110L446 1264L732 908L1106 1264L1244 1099L856 767L1167 435L996 281L706 637L336 282L199 446L583 778Z" />
<glyph unicode="&#xd8;" glyph-name="Oslash" horiz-adv-x="1386" d="M1335 665T1245 451T990 111T609 -15Q440 -15 319 70L188 -132L99 -83L243 137Q166 222 127 343T87 608Q87 867 179 1082T437 1422T818 1547Q977 1547 1093 1470L1218 1670L1307 1621L1172
1404Q1252 1319 1293 1195T1335 924Q1335 665 1245 451ZM663 1336T569 1234T424 969T372 632Q372 470 406 368L953 1274Q891 1336 783 1336Q663 1336 569 1234ZM760 194T853 294T998 558T1050 900Q1050 1075 1012 1177L460 267Q523 194 639 194Q760 194 853 294Z"
/>
<glyph unicode="&#xd9;" glyph-name="Ugrave" horiz-adv-x="1402" d="M666 2007L943 1665L835 1572Q786 1590 717 1637T587 1742T499 1850L666 2007ZM269 1530H545L425 635Q413 538 413 443Q415 315 473 258T653 200Q749 200 815 242T924 381T989 639L1108 1530H1381L1259
612Q1228 385 1149 247T939 47T612 -16Q371 -16 251 103T131 441Q131 493 144 595L269 1530Z" />
<glyph unicode="&#xda;" glyph-name="Uacute" horiz-adv-x="1402" d="M1036 2007L1203 1850Q1176 1800 1115 1742T985 1637T867 1572L759 1665L1036 2007ZM269 1530H545L425 635Q413 538 413 443Q415 315 473 258T653 200Q749 200 815 242T924 381T989 639L1108
1530H1381L1259 612Q1228 385 1149 247T939 47T612 -16Q371 -16 251 103T131 441Q131 493 144 595L269 1530Z" />
<glyph unicode="&#xdb;" glyph-name="Ucircumflex" horiz-adv-x="1402" d="M269 1530H545L425 635Q413 538 413 443Q415 315 473 258T653 200Q749 200 815 242T924 381T989 639L1108 1530H1381L1259 612Q1228 385 1149 247T939 47T612 -16Q371 -16 251 103T131
441Q131 493 144 595L269 1530ZM831 2007H1010L1211 1667L1092 1594L895 1794L595 1589L482 1661L831 2007Z" />
<glyph unicode="&#xdc;" glyph-name="Udieresis" horiz-adv-x="1402" d="M479 1850T501 1890T561 1953T643 1977Q684 1977 715 1958T763 1909T781 1843Q781 1795 760 1754T701 1689T611 1664Q576 1664 546 1684T497 1736T479 1804Q479 1850 501 1890ZM925 1851T947
1890T1006 1953T1088 1977Q1129 1977 1161 1958T1210 1909T1228 1843Q1228 1795 1207 1754T1147 1689T1056 1664Q1021 1664 991 1684T943 1736T925 1805Q925 1851 947 1890ZM269 1530H545L425 635Q413 538 413 443Q415 315 473 258T653 200Q749 200 815 242T924
381T989 639L1108 1530H1381L1259 612Q1228 385 1149 247T939 47T612 -16Q371 -16 251 103T131 441Q131 493 144 595L269 1530Z" />
<glyph unicode="&#xdd;" glyph-name="Yacute" horiz-adv-x="1124" d="M83 1530H375L570 922L598 817L646 922L994 1530H1297L700 590L620 0H349L429 590L83 1530ZM893 2007L1060 1850Q1033 1800 972 1742T842 1637T724 1572L616 1665L893 2007Z" />
<glyph unicode="&#xde;" glyph-name="Thorn" horiz-adv-x="1258" d="M1215 705T1138 564T916 344T578 264Q504 264 409 275L373 0H93L297 1530H576L543 1284Q638 1293 716 1293Q956 1293 1084 1191T1213 885Q1215 705 1138 564ZM944 976T879 1035T668 1095Q634
1095 591 1092T517 1082V1083L438 488Q461 482 504 478T584 475Q758 476 845 575T939 861Q944 976 879 1035Z" />
<glyph unicode="&#xdf;" glyph-name="germandbls" horiz-adv-x="1255" d="M230 1208T330 1353T553 1542T826 1587Q933 1587 1015 1553T1144 1452T1190 1290Q1190 1212 1168 1154T1116 1058T1037 972Q990 927 968 896T946 824Q946 792 969 752T1047 639Q1105 560
1138 486T1172 322Q1172 218 1122 142T976 25T748 -16Q665 -16 594 -2T487 31L512 257Q538 229 595 205T705 181Q803 181 848 213T894 324Q894 373 869 418T798 527Q674 688 674 789Q674 853 703 901T791 1011Q857 1075 891 1135T925 1269Q925 1328 885 1367T772
1406Q654 1406 573 1285T455 869L342 2H71L192 929Q230 1208 330 1353Z" />
<glyph unicode="&#xe0;" glyph-name="agrave" horiz-adv-x="1207" d="M1132 1156L973 0H727L741 218Q684 120 597 52T399 -16Q233 -16 155 101T76 414Q76 595 151 765T377 1046T746 1156Q800 1156 865 1145T983 1117L1132 1156ZM561 180T637 274T766 486L834 966Q785
980 718 980Q602 980 522 898T403 691T363 437Q363 307 392 244T479 180Q561 180 637 274ZM518 1746L829 1320L725 1236Q676 1255 593 1320T436 1459T337 1577L518 1746Z" />
<glyph unicode="&#xe1;" glyph-name="aacute" horiz-adv-x="1207" d="M1132 1156L973 0H727L741 218Q684 120 597 52T399 -16Q233 -16 155 101T76 414Q76 595 151 765T377 1046T746 1156Q800 1156 865 1145T983 1117L1132 1156ZM561 180T637 274T766 486L834 966Q785
980 718 980Q602 980 522 898T403 691T363 437Q363 307 392 244T479 180Q561 180 637 274ZM952 1746L1132 1577Q1114 1542 1039 1468T878 1326T735 1236L631 1321L952 1746Z" />
<glyph unicode="&#xe2;" glyph-name="acircumflex" horiz-adv-x="1207" d="M1132 1156L973 0H727L741 218Q684 120 597 52T399 -16Q233 -16 155 101T76 414Q76 595 151 765T377 1046T746 1156Q800 1156 865 1145T983 1117L1132 1156ZM561 180T637 274T766 486L834
966Q785 980 718 980Q602 980 522 898T403 691T363 437Q363 307 392 244T479 180Q561 180 637 274ZM732 1662H911L1112 1288L988 1220L792 1439L491 1216L383 1288L732 1662Z" />
<glyph unicode="&#xe3;" glyph-name="atilde" horiz-adv-x="1207" d="M1132 1156L973 0H727L741 218Q684 120 597 52T399 -16Q233 -16 155 101T76 414Q76 595 151 765T377 1046T746 1156Q800 1156 865 1145T983 1117L1132 1156ZM561 180T637 274T766 486L834 966Q785
980 718 980Q602 980 522 898T403 691T363 437Q363 307 392 244T479 180Q561 180 637 274ZM366 1537T415 1579T524 1649T636 1676Q678 1676 711 1664T767 1634T820 1589Q854 1558 877 1544T929 1529Q976 1529 1006 1553T1058 1604T1086 1639L1188 1522Q1170 1473
1125 1428T1020 1354T904 1326Q858 1326 824 1338T767 1366T715 1410Q680 1442 654 1457T590 1473Q559 1473 534 1461T489 1431T441 1383L344 1493Q366 1537 415 1579Z" />
<glyph unicode="&#xe4;" glyph-name="adieresis" horiz-adv-x="1207" d="M1132 1156L973 0H727L741 218Q684 120 597 52T399 -16Q233 -16 155 101T76 414Q76 595 151 765T377 1046T746 1156Q800 1156 865 1145T983 1117L1132 1156ZM561 180T637 274T766 486L834
966Q785 980 718 980Q602 980 522 898T403 691T363 437Q363 307 392 244T479 180Q561 180 637 274ZM402 1551T423 1591T482 1654T566 1678Q607 1678 638 1659T687 1610T705 1544Q705 1496 684 1455T624 1390T534 1365Q500 1365 470 1384T421 1436T402 1504Q402
1551 423 1591ZM849 1551T870 1591T928 1654T1012 1678Q1053 1678 1085 1659T1134 1610T1152 1544Q1152 1496 1131 1455T1071 1390T980 1365Q945 1365 915 1384T867 1436T849 1504Q849 1551 870 1591Z" />
<glyph unicode="&#xe5;" glyph-name="aring" horiz-adv-x="1207" d="M1132 1156L973 0H727L741 218Q684 120 597 52T399 -16Q233 -16 155 101T76 414Q76 595 151 765T377 1046T746 1156Q800 1156 865 1145T983 1117L1132 1156ZM561 180T637 274T766 486L834 966Q785
980 718 980Q602 980 522 898T403 691T363 437Q363 307 392 244T479 180Q561 180 637 274ZM471 1604T527 1670T668 1766T839 1797Q972 1797 1051 1732T1130 1546Q1130 1452 1080 1386T947 1288T771 1255Q630 1255 551 1320T471 1506Q471 1604 527 1670ZM962 1598T921
1635T819 1673Q745 1673 692 1636T638 1515Q638 1478 658 1447T711 1398T784 1380Q962 1380 962 1541Q962 1598 921 1635Z" />
<glyph unicode="&#xe6;" glyph-name="ae" horiz-adv-x="1702" d="M1258 182T1348 228T1504 343L1577 202Q1544 155 1478 105T1319 19T1121 -16Q960 -16 862 64T727 277Q668 153 582 69T383 -16Q219 -16 147 99T75 414Q75 595 152 765T387 1046T770 1156Q847 1156
914 1140T1045 1084Q1172 1156 1328 1156Q1483 1156 1561 1087T1639 900Q1639 687 1451 569T999 404Q993 182 1176 182Q1258 182 1348 228ZM1190 984T1132 916T1039 749T999 563Q1073 567 1160 608T1308 720T1369 874Q1369 933 1343 958T1267 984Q1190 984 1132
916ZM715 614T760 737T883 951Q816 980 742 980Q618 980 532 898T404 691T362 437Q362 306 387 249T468 191Q531 191 594 272T709 469Q715 614 760 737Z" />
<glyph unicode="&#xe7;" glyph-name="ccedilla" horiz-adv-x="931" d="M600 187T665 222T787 314L864 176Q825 120 753 68T583 -5Q598 -43 607 -97T617 -200Q617 -332 543 -399T328 -466Q285 -466 217 -456T133 -434L164 -257Q192 -272 239 -272Q319 -272 363
-240T410 -120L411 -74Q411 -50 409 -12Q298 2 224 64T115 223T80 438Q80 624 154 789T364 1055T680 1156Q740 1156 809 1146T919 1116L851 861Q816 891 762 917T658 944Q584 944 516 887T404 723T361 476Q361 322 403 255T538 187Q600 187 665 222Z" />
<glyph unicode="&#xe8;" glyph-name="egrave" horiz-adv-x="1074" d="M855 1156T933 1087T1011 900Q1011 687 823 569T371 404Q365 182 548 182Q630 182 720 228T876 343L949 202Q916 155 850 105T691 19T493 -16Q354 -16 261 45T124 208T80 430Q80 633 160 799T382
1060T700 1156Q855 1156 933 1087ZM741 933T715 958T639 984Q562 984 504 916T411 749T371 563Q445 567 532 608T680 720T741 874Q741 933 715 958ZM447 1746L758 1320L654 1236Q605 1255 522 1320T365 1459T266 1577L447 1746Z" />
<glyph unicode="&#xe9;" glyph-name="eacute" horiz-adv-x="1074" d="M881 1744L1061 1575Q1043 1540 968 1466T807 1324T664 1234L560 1319L881 1744ZM855 1156T933 1087T1011 900Q1011 687 823 569T371 404Q365 182 548 182Q630 182 720 228T876 343L949 202Q916
155 850 105T691 19T493 -16Q354 -16 261 45T124 208T80 430Q80 633 160 799T382 1060T700 1156Q855 1156 933 1087ZM741 933T715 958T639 984Q562 984 504 916T411 749T371 563Q445 567 532 608T680 720T741 874Q741 933 715 958Z" />
<glyph unicode="&#xea;" glyph-name="ecircumflex" horiz-adv-x="1074" d="M661 1660H840L1041 1286L917 1218L721 1437L420 1214L312 1286L661 1660ZM855 1156T933 1087T1011 900Q1011 687 823 569T371 404Q365 182 548 182Q630 182 720 228T876 343L949 202Q916
155 850 105T691 19T493 -16Q354 -16 261 45T124 208T80 430Q80 633 160 799T382 1060T700 1156Q855 1156 933 1087ZM741 933T715 958T639 984Q562 984 504 916T411 749T371 563Q445 567 532 608T680 720T741 874Q741 933 715 958Z" />
<glyph unicode="&#xeb;" glyph-name="edieresis" horiz-adv-x="1074" d="M331 1549T352 1589T411 1652T495 1676Q536 1676 567 1657T616 1608T634 1542Q634 1494 613 1453T553 1388T463 1363Q429 1363 399 1382T350 1434T331 1502Q331 1549 352 1589ZM778 1549T799
1589T857 1652T941 1676Q982 1676 1014 1657T1063 1608T1081 1542Q1081 1494 1060 1453T1000 1388T909 1363Q874 1363 844 1382T796 1434T778 1502Q778 1549 799 1589ZM855 1156T933 1087T1011 900Q1011 687 823 569T371 404Q365 182 548 182Q630 182 720 228T876
343L949 202Q916 155 850 105T691 19T493 -16Q354 -16 261 45T124 208T80 430Q80 633 160 799T382 1060T700 1156Q855 1156 933 1087ZM741 933T715 958T639 984Q562 984 504 916T411 749T371 563Q445 567 532 608T680 720T741 874Q741 933 715 958Z" />
<glyph unicode="&#xec;" glyph-name="igrave" horiz-adv-x="624" d="M535 1140L378 0H102L258 1140H535ZM451 1746L762 1320L658 1236Q609 1255 526 1320T369 1459T270 1577L451 1746Z" />
<glyph unicode="&#xed;" glyph-name="iacute" horiz-adv-x="624" d="M629 1744L809 1575Q791 1540 716 1466T555 1324T412 1234L308 1319L629 1744ZM535 1140L378 0H102L258 1140H535Z" />
<glyph unicode="&#xee;" glyph-name="icircumflex" horiz-adv-x="624" d="M409 1660H588L789 1286L665 1218L469 1437L168 1214L60 1286L409 1660ZM535 1140L378 0H102L258 1140H535Z" />
<glyph unicode="&#xef;" glyph-name="idieresis" horiz-adv-x="624" d="M79 1549T100 1589T159 1652T243 1676Q284 1676 315 1657T364 1608T382 1542Q382 1494 361 1453T301 1388T211 1363Q177 1363 147 1382T98 1434T79 1502Q79 1549 100 1589ZM526 1549T547
1589T605 1652T689 1676Q730 1676 762 1657T811 1608T829 1542Q829 1494 808 1453T748 1388T657 1363Q622 1363 592 1382T544 1434T526 1502Q526 1549 547 1589ZM535 1140L378 0H102L258 1140H535Z" />
<glyph unicode="&#xf0;" glyph-name="eth" horiz-adv-x="1197" d="M976 1420T1046 1234T1117 836Q1117 596 1047 403T839 97T506 -16Q367 -16 271 49T126 218T78 435Q78 656 151 820T352 1070T635 1157Q707 1157 765 1137T853 1077Q842 1187 804 1267T699 1420L571
1277L455 1378L594 1520Q472 1618 359 1649L411 1798Q480 1780 560 1742T712 1654Q762 1710 802 1756T855 1819L963 1717L826 1563Q976 1420 1046 1234ZM837 857T814 897T746 966T641 995Q552 995 491 910T400 693T370 423Q370 349 389 288T446 189T535 152Q600
152 657 208T754 361T811 575Q818 623 827 709T837 826Q837 857 814 897Z" />
<glyph unicode="&#xf1;" glyph-name="ntilde" horiz-adv-x="1257" d="M1011 1156T1073 1087T1136 860Q1136 791 1096 513Q1082 408 1044 152L1022 2H746Q754 65 762 121T778 227Q803 400 818 512Q851 752 851 828Q851 887 828 909T758 931Q713 931 658 902T548
822T453 711L356 2H80L235 1140H498L482 928Q561 1031 667 1093T887 1156Q1011 1156 1073 1087ZM369 1537T418 1579T527 1649T639 1676Q681 1676 714 1664T770 1634T823 1589Q857 1558 880 1544T932 1529Q979 1529 1009 1553T1061 1604T1089 1639L1191 1522Q1173
1473 1128 1428T1023 1354T907 1326Q861 1326 827 1338T770 1366T718 1410Q683 1442 657 1457T593 1473Q562 1473 537 1461T492 1431T444 1383L347 1493Q369 1537 418 1579Z" />
<glyph unicode="&#xf2;" glyph-name="ograve" horiz-adv-x="1158" d="M881 1156T980 1027T1079 677Q1079 494 1007 335T798 80T480 -16Q345 -16 255 44T121 213T77 464Q77 647 150 805T361 1060T681 1156Q881 1156 980 1027ZM611 165T673 242T766 440T797 687Q797
834 759 905T639 976Q548 976 484 897T388 696T356 449Q356 165 519 165Q611 165 673 242ZM453 1746L764 1320L660 1236Q611 1255 528 1320T371 1459T272 1577L453 1746Z" />
<glyph unicode="&#xf3;" glyph-name="oacute" horiz-adv-x="1158" d="M887 1744L1067 1575Q1049 1540 974 1466T813 1324T670 1234L566 1319L887 1744ZM881 1156T980 1027T1079 677Q1079 494 1007 335T798 80T480 -16Q345 -16 255 44T121 213T77 464Q77 647 150
805T361 1060T681 1156Q881 1156 980 1027ZM611 165T673 242T766 440T797 687Q797 834 759 905T639 976Q548 976 484 897T388 696T356 449Q356 165 519 165Q611 165 673 242Z" />
<glyph unicode="&#xf4;" glyph-name="ocircumflex" horiz-adv-x="1158" d="M667 1660H846L1047 1286L923 1218L727 1437L426 1214L318 1286L667 1660ZM881 1156T980 1027T1079 677Q1079 494 1007 335T798 80T480 -16Q345 -16 255 44T121 213T77 464Q77 647 150
805T361 1060T681 1156Q881 1156 980 1027ZM611 165T673 242T766 440T797 687Q797 834 759 905T639 976Q548 976 484 897T388 696T356 449Q356 165 519 165Q611 165 673 242Z" />
<glyph unicode="&#xf5;" glyph-name="otilde" horiz-adv-x="1158" d="M881 1156T980 1027T1079 677Q1079 494 1007 335T798 80T480 -16Q345 -16 255 44T121 213T77 464Q77 647 150 805T361 1060T681 1156Q881 1156 980 1027ZM611 165T673 242T766 440T797 687Q797
834 759 905T639 976Q548 976 484 897T388 696T356 449Q356 165 519 165Q611 165 673 242ZM301 1537T350 1579T459 1649T571 1676Q613 1676 646 1664T702 1634T755 1589Q789 1558 812 1544T864 1529Q911 1529 941 1553T993 1604T1021 1639L1123 1522Q1105 1473
1060 1428T955 1354T839 1326Q793 1326 759 1338T702 1366T650 1410Q615 1442 589 1457T525 1473Q494 1473 469 1461T424 1431T376 1383L279 1493Q301 1537 350 1579Z" />
<glyph unicode="&#xf6;" glyph-name="odieresis" horiz-adv-x="1158" d="M337 1549T358 1589T417 1652T501 1676Q542 1676 573 1657T622 1608T640 1542Q640 1494 619 1453T559 1388T469 1363Q435 1363 405 1382T356 1434T337 1502Q337 1549 358 1589ZM784 1549T805
1589T863 1652T947 1676Q988 1676 1020 1657T1069 1608T1087 1542Q1087 1494 1066 1453T1006 1388T915 1363Q880 1363 850 1382T802 1434T784 1502Q784 1549 805 1589ZM881 1156T980 1027T1079 677Q1079 494 1007 335T798 80T480 -16Q345 -16 255 44T121 213T77
464Q77 647 150 805T361 1060T681 1156Q881 1156 980 1027ZM611 165T673 242T766 440T797 687Q797 834 759 905T639 976Q548 976 484 897T388 696T356 449Q356 165 519 165Q611 165 673 242Z" />
<glyph unicode="&#xf7;" glyph-name="divide" horiz-adv-x="1368" d="M597 1221T623 1264T693 1334T789 1360Q860 1360 895 1325T930 1233Q930 1177 904 1134T834 1066T736 1041Q675 1041 636 1077T597 1171Q597 1221 623 1264ZM1174 885L1148 675H233L260 886L1174
885ZM493 378T519 421T589 491T685 517Q756 517 790 482T825 390Q825 334 800 291T730 223T632 198Q571 198 532 234T493 328Q493 378 519 421Z" />
<glyph unicode="&#xf8;" glyph-name="oslash" horiz-adv-x="1158" d="M1079 496T1007 337T798 82T480 -14Q366 -14 282 31L175 -132L86 -83L201 91Q139 154 108 250T77 466Q77 649 150 807T361 1062T681 1158Q778 1158 855 1125L968 1303L1057 1254L940 1070Q1010
1008 1044 908T1079 679Q1079 496 1007 337ZM547 978T483 897T386 691T356 440Q356 374 366 327L725 950Q693 978 639 978Q547 978 483 897ZM611 167T673 244T766 442T797 689Q797 790 782 847L414 213Q453 167 519 167Q611 167 673 244Z" />
<glyph unicode="&#xf9;" glyph-name="ugrave" horiz-adv-x="1233" d="M1153 1140L1000 0H750L764 205Q693 106 594 43T383 -20Q254 -20 183 46T112 260Q112 307 119 371T140 546Q156 661 184 864T223 1140H497Q495 1121 493 1113Q481 1021 453 809T418 543Q395
377 395 307Q395 245 421 219T497 193Q564 193 641 258T779 418L877 1140H1153ZM488 1746L799 1320L695 1236Q646 1255 563 1320T406 1459T307 1577L488 1746Z" />
<glyph unicode="&#xfa;" glyph-name="uacute" horiz-adv-x="1233" d="M922 1744L1102 1575Q1084 1540 1009 1466T848 1324T705 1234L601 1319L922 1744ZM1153 1140L1000 0H750L764 205Q693 106 594 43T383 -20Q254 -20 183 46T112 260Q112 307 119 371T140 546Q156
661 184 864T223 1140H497Q495 1121 493 1113Q481 1021 453 809T418 543Q395 377 395 307Q395 245 421 219T497 193Q564 193 641 258T779 418L877 1140H1153Z" />
<glyph unicode="&#xfb;" glyph-name="ucircumflex" horiz-adv-x="1233" d="M702 1660H881L1082 1286L958 1218L762 1437L461 1214L353 1286L702 1660ZM1153 1140L1000 0H750L764 205Q693 106 594 43T383 -20Q254 -20 183 46T112 260Q112 307 119 371T140 546Q156
661 184 864T223 1140H497Q495 1121 493 1113Q481 1021 453 809T418 543Q395 377 395 307Q395 245 421 219T497 193Q564 193 641 258T779 418L877 1140H1153Z" />
<glyph unicode="&#xfc;" glyph-name="udieresis" horiz-adv-x="1233" d="M372 1549T393 1589T452 1652T536 1676Q577 1676 608 1657T657 1608T675 1542Q675 1494 654 1453T594 1388T504 1363Q470 1363 440 1382T391 1434T372 1502Q372 1549 393 1589ZM819 1549T840
1589T898 1652T982 1676Q1023 1676 1055 1657T1104 1608T1122 1542Q1122 1494 1101 1453T1041 1388T950 1363Q915 1363 885 1382T837 1434T819 1502Q819 1549 840 1589ZM1153 1140L1000 0H750L764 205Q693 106 594 43T383 -20Q254 -20 183 46T112 260Q112 307 119
371T140 546Q156 661 184 864T223 1140H497Q495 1121 493 1113Q481 1021 453 809T418 543Q395 377 395 307Q395 245 421 219T497 193Q564 193 641 258T779 418L877 1140H1153Z" />
<glyph unicode="&#xfd;" glyph-name="yacute" horiz-adv-x="1095" d="M1051 1112T1051 1059Q1051 1019 1050 997Q1038 667 851 281Q739 41 592 -151L565 -186Q485 -293 424 -357T272 -465T58 -509Q7 -509 -48 -494T-144 -458L-71 -255Q-42 -273 -4 -287T76 -301Q139
-301 193 -276T307 -189T441 -18H277L217 357L105 1140H389L468 407L505 96Q590 259 615 339Q694 493 732 641T787 992Q791 1047 791 1110Q792 1120 792 1140H1048Q1051 1112 1051 1059ZM786 1746L966 1577Q948 1542 873 1468T712 1326T569 1236L465 1321L786 1746Z"
/>
<glyph unicode="&#xfe;" glyph-name="thorn" horiz-adv-x="1227" d="M987 1156T1066 1038T1145 724Q1145 544 1069 374T840 94T470 -16Q417 -16 345 -4L330 -139L282 -504H10L80 -8L302 1636H566L496 1062L469 916Q526 1015 617 1085T822 1156Q987 1156 1066 1038ZM613
161T694 243T816 450T857 702Q857 958 742 958Q682 958 623 907T517 783T441 639L380 175Q430 161 497 161Q613 161 694 243Z" />
<glyph unicode="&#xff;" glyph-name="ydieresis" horiz-adv-x="1095" d="M1051 1112T1051 1059Q1051 1019 1050 997Q1038 667 851 281Q739 41 592 -151L565 -186Q485 -293 424 -357T272 -465T58 -509Q7 -509 -48 -494T-144 -458L-71 -255Q-42 -273 -4 -287T76
-301Q139 -301 193 -276T307 -189T441 -18H277L217 357L105 1140H389L468 407L505 96Q590 259 615 339Q694 493 732 641T787 992Q791 1047 791 1110Q792 1120 792 1140H1048Q1051 1112 1051 1059ZM236 1551T257 1591T316 1654T400 1678Q441 1678 472 1659T521 1610T539
1544Q539 1496 518 1455T458 1390T368 1365Q334 1365 304 1384T255 1436T236 1504Q236 1551 257 1591ZM683 1551T704 1591T762 1654T846 1678Q887 1678 919 1659T968 1610T986 1544Q986 1496 965 1455T905 1390T814 1365Q779 1365 749 1384T701 1436T683 1504Q683
1551 704 1591Z" />
<glyph unicode="&#x2013;" glyph-name="endash" horiz-adv-x="1538" d="M1352 874L1319 671H221L254 874H1352Z" />
<glyph unicode="&#x2014;" glyph-name="emdash" horiz-adv-x="2061" d="M1875 874L1842 671H221L254 874H1875Z" />
<glyph unicode="&#x2018;" glyph-name="quoteleft" horiz-adv-x="696" d="M198 1377T250 1481T379 1653T532 1756L627 1630L625 1608Q588 1589 551 1545T490 1436T465 1296Q465 1235 486 1175T542 1084L537 1043L380 907Q336 929 295 976T226 1092T198 1245Q198
1377 250 1481Z" />
<glyph unicode="&#x2019;" glyph-name="quoteright" horiz-adv-x="696" d="M620 1280T568 1176T439 1004T286 901L191 1027L193 1049Q230 1068 267 1112T328 1221T353 1361Q353 1422 332 1482T276 1573L281 1614L438 1750Q482 1728 523 1681T592 1565T620 1412Q620
1280 568 1176Z" />
<glyph unicode="&#x201a;" glyph-name="quotesinglbase" horiz-adv-x="696" d="M485 -159T433 -263T304 -435T151 -538L56 -412L58 -390Q95 -371 132 -327T193 -218T218 -78Q218 -17 197 43T141 134L146 175L303 311Q347 289 388 242T457 126T485 -27Q485 -159 433 -263Z" />
<glyph unicode="&#x201c;" glyph-name="quotedblleft" horiz-adv-x="1205" d="M707 1377T759 1481T888 1653T1041 1756L1136 1630L1134 1608Q1097 1589 1060 1545T999 1436T974 1296Q974 1235 995 1175T1051 1084L1046 1043L889 907Q845 929 804 976T735 1092T707
1245Q707 1377 759 1481ZM198 1377T250 1481T379 1653T532 1756L627 1630L625 1608Q588 1589 551 1545T490 1436T465 1296Q465 1235 486 1175T542 1084L537 1043L380 907Q336 929 295 976T226 1092T198 1245Q198 1377 250 1481Z" />
<glyph unicode="&#x201d;" glyph-name="quotedblright" horiz-adv-x="1204" d="M670 1280T618 1176T489 1004T336 901L241 1027L243 1049Q280 1068 317 1112T378 1221T403 1361Q403 1422 382 1482T326 1573L331 1614L488 1750Q532 1728 573 1681T642 1565T670
1412Q670 1280 618 1176ZM1182 1280T1130 1176T1001 1004T848 901L753 1027L755 1049Q792 1068 829 1112T890 1221T915 1361Q915 1422 894 1482T838 1573L843 1614L1000 1750Q1044 1728 1085 1681T1154 1565T1182 1412Q1182 1280 1130 1176Z" />
<glyph unicode="&#x201e;" glyph-name="quotedblbase" horiz-adv-x="1204" d="M485 -159T433 -263T304 -435T151 -538L56 -412L58 -390Q95 -371 132 -327T193 -218T218 -78Q218 -17 197 43T141 134L146 175L303 311Q347 289 388 242T457 126T485 -27Q485 -159
433 -263ZM994 -159T942 -263T813 -435T660 -538L565 -412L567 -390Q604 -371 641 -327T702 -218T727 -78Q727 -17 706 43T650 134L655 175L812 311Q856 289 897 242T966 126T994 -27Q994 -159 942 -263Z" />
<glyph unicode="&#x2022;" glyph-name="bullet" horiz-adv-x="858" d="M233 743T266 803T358 901T484 939Q534 939 574 917T637 855T660 767Q660 706 629 646T540 546T409 507Q360 507 320 530T256 594T233 683Q233 743 266 803Z" />
<glyph unicode="&#x2039;" glyph-name="guilsinglleft" horiz-adv-x="1190" d="M948 1101L996 941L526 610L915 284L825 142L204 530L231 705L948 1101Z" />
<glyph unicode="&#x203a;" glyph-name="guilsinglright" horiz-adv-x="1190" d="M242 137L194 297L664 628L275 954L365 1096L986 708L959 533L242 137Z" />
</font>
</defs>
</svg>
