<?xml version="1.0" standalone="no"?>
<!DOCTYPE svg PUBLIC "-//W3C//DTD SVG 1.1//EN" "http://www.w3.org/Graphics/SVG/1.1/DTD/svg11.dtd">
<svg xmlns="http://www.w3.org/2000/svg">
<defs >
<font id="Orbitron" horiz-adv-x="555" ><font-face
    font-family="Orbitron Medium"
    units-per-em="1000"
    panose-1="2 0 0 0 0 0 0 0 0 0"
    ascent="750"
    descent="-250"
    alphabetic="0" />
<glyph unicode=" " glyph-name="space" horiz-adv-x="290" />
<glyph unicode="!" glyph-name="exclam" horiz-adv-x="220" d="M166 0H58V108H166V0ZM58 200V720H166V200H58Z" />
<glyph unicode="&quot;" glyph-name="quotedbl" horiz-adv-x="372" d="M167 719V557H59V719H167ZM314 719V557H206V719H314Z" />
<glyph unicode="#" glyph-name="numbersign" horiz-adv-x="797" d="M765 558V450H646L588 272H734V164H554L504 0H396L446 164H231L181 0H73L123 164H32V272H157L215 450H63V558H249L303 717H411L357 558H572L626 717H734L680 558H765ZM265 272H480L538 450H323L265 272Z" />
<glyph unicode="$" glyph-name="dollar" horiz-adv-x="788" d="M754 590V548H646V590Q646 599 640 605T624 612H448V414H624Q678 414 716 376T754 284V130Q754 76 716 38T624 0H448V-108H340V0H164Q110 0 72 38T34 130V172H142V130Q142 121 148 115T164 108H340V306H164Q110
306 72 344T34 436V590Q34 644 72 682T164 720H340V828H448V720H624Q678 720 716 682T754 590ZM624 306H448V108H624Q633 108 639 114T646 130V284Q646 293 640 299T624 306ZM261 414H340V612H164Q155 612 149 606T142 590V436Q142 427 148 421T164 414H261Z" />
<glyph unicode="%" glyph-name="percent" horiz-adv-x="966" d="M837 720H852V592L147 0H132V128L837 720ZM178 720H268Q322 720 360 682T398 590V510Q398 456 360 418T268 380H178Q124 380 86 418T48 510V590Q48 644 86 682T178 720ZM158 468H288Q297 468 303
474T310 490V610Q310 619 304 625T288 632H158Q149 632 143 626T136 610V490Q136 481 142 475T158 468ZM696 339H786Q840 339 878 301T916 209V129Q916 75 878 37T786 -1H696Q642 -1 604 37T566 129V209Q566 263 604 301T696 339ZM676 87H806Q815 87 821 93T828
109V229Q828 238 822 244T806 251H676Q667 251 661 245T654 229V109Q654 100 660 94T676 87Z" />
<glyph unicode="&amp;" glyph-name="ampersand" horiz-adv-x="938" d="M773 181L900 107V3L763 81Q749 45 717 23T643 0H183Q129 0 91 38T53 130V334Q53 359 71 384T118 410Q93 429 93 486V590Q93 644 131 682T223 720H613Q661 720 698 689T743 612V541H635V589Q635
598 629 604T613 611H223Q214 611 208 605T201 589V457L665 223V346H773V181ZM183 108H643Q657 108 662 120L194 356H183Q174 356 168 350T161 334V130Q161 121 167 115T183 108Z" />
<glyph unicode="&apos;" glyph-name="quotesingle" horiz-adv-x="224" d="M167 719V557H59V719H167Z" />
<glyph unicode="(" glyph-name="parenleft" horiz-adv-x="277" d="M182 108H224V0H182Q128 0 90 38T52 130V590Q52 644 90 682T182 720H224V612H182Q173 612 167 606T160 590V130Q160 121 166 115T182 108Z" />
<glyph unicode=")" glyph-name="parenright" horiz-adv-x="278" d="M56 0V108H98Q107 108 113 114T120 130V590Q120 599 114 605T98 612H56V720H98Q151 720 189 682T228 590V130Q228 76 190 38T98 0H56Z" />
<glyph unicode="*" glyph-name="asterisk" horiz-adv-x="491" d="M432 623L466 520L333 477L415 363L328 300L245 413L163 300L76 363L158 477L25 520L58 623L191 579V719H299V579L432 623Z" />
<glyph unicode="+" glyph-name="plus" horiz-adv-x="433" d="M161 495H269V350H417V242H269V95H161V242H17V350H161V495Z" />
<glyph unicode="," glyph-name="comma" horiz-adv-x="193" d="M54 108H162V0Q162 -48 131 -84T54 -128V108Z" />
<glyph unicode="-" glyph-name="hyphen" horiz-adv-x="517" d="M459 350V242H59V350H459Z" />
<glyph unicode="." glyph-name="period" horiz-adv-x="214" d="M162 108V0H54V108H162Z" />
<glyph unicode="/" glyph-name="slash" horiz-adv-x="521" d="M6 128L501 720H516V592L21 0H6V128Z" />
<glyph unicode="0" glyph-name="zero" horiz-adv-x="834" d="M187 720H647Q701 720 739 682T777 590V130Q777 76 739 38T647 0H187Q133 0 95 38T57 130V590Q57 644 95 682T187 720ZM633 612H187Q178 612 172 606T165 590V219L633 612ZM201 108H647Q656 108 662
114T669 130V501L201 108Z" />
<glyph unicode="1" glyph-name="one" horiz-adv-x="391" d="M1 477L204 720H333V0H225V576L142 477H1Z" />
<glyph unicode="2" glyph-name="two" horiz-adv-x="830" d="M187 720H647Q701 720 739 682T777 590V426Q777 372 739 334T647 296H187Q178 296 172 290T165 274V130Q165 121 171 115T187 108H777V0H57V274Q57 328 95 366T187 404H647Q656 404 662 410T669 426V590Q669
599 663 605T647 612H187Q178 612 172 606T165 590V548H57V590Q57 644 95 682T187 720Z" />
<glyph unicode="3" glyph-name="three" horiz-adv-x="826" d="M730 387Q773 349 773 291V130Q773 76 735 38T643 0H183Q129 0 91 38T53 130V160H161V130Q161 121 167 115T183 108H643Q652 108 658 114T665 130V291Q665 300 659 306T643 313H183V421H613Q622 421
628 427T635 443V590Q635 599 629 605T613 612H183Q174 612 168 606T161 590V550H53V590Q53 644 91 682T183 720H613Q667 720 705 682T743 590V443Q743 415 730 387Z" />
<glyph unicode="4" glyph-name="four" horiz-adv-x="730" d="M590 291H696V183H590V0H482V183H6V291L482 720H590V291ZM482 550L163 291H482V550Z" />
<glyph unicode="5" glyph-name="five" horiz-adv-x="830" d="M165 590V446Q165 437 171 431T187 424H647Q701 424 739 386T777 294V130Q777 76 739 38T647 0H187Q133 0 95 38T57 130V172H165V130Q165 121 171 115T187 108H647Q656 108 662 114T669 130V294Q669
303 663 309T647 316H57V424H59Q57 438 57 446V720H777V612H187Q178 612 172 606T165 590Z" />
<glyph unicode="6" glyph-name="six" horiz-adv-x="820" d="M527 424H647Q701 424 739 386T777 294V130Q777 76 739 38T647 0H187Q133 0 95 38T57 130V590Q57 644 95 682T187 720H657V612H187Q178 612 172 606T165 590V446Q165 437 171 431T187 424H527ZM669 130V294Q669
303 663 309T647 316H165V130Q165 121 171 115T187 108H647Q656 108 662 114T669 130Z" />
<glyph unicode="7" glyph-name="seven" horiz-adv-x="660" d="M13 720H473Q527 720 565 682T603 590V0H495V590Q495 599 489 605T473 612H3V720H13Z" />
<glyph unicode="8" glyph-name="eight" horiz-adv-x="834" d="M777 612V446Q777 403 752 370Q777 337 777 294V130Q777 76 739 38T647 0H187Q133 0 95 38T57 130V294Q57 337 82 370Q57 403 57 446V590Q57 644 95 682T187 720H647Q695 720 732 689T777 612ZM669
130V294Q669 303 663 309T647 316H187Q178 316 172 310T165 294V130Q165 121 171 115T187 108H647Q656 108 662 114T669 130ZM669 435V589Q669 598 663 604T647 611H187Q178 611 172 605T165 589V435Q165 426 171 420T187 413H647Q656 413 662 419T669 435Z" />
<glyph unicode="9" glyph-name="nine" horiz-adv-x="828" d="M301 296H181Q127 296 89 334T51 426V590Q51 644 89 682T181 720H641Q695 720 733 682T771 590V130Q771 76 733 38T641 0H181Q133 0 97 31T53 108H641Q650 108 656 114T663 130V274Q663 283 657 289T641
296H301ZM159 590V426Q159 417 165 411T181 404H663V590Q663 599 657 605T641 612H181Q172 612 166 606T159 590Z" />
<glyph unicode=":" glyph-name="colon" horiz-adv-x="214" d="M54 108H162V0H54V108ZM162 588V480H54V588H162Z" />
<glyph unicode=";" glyph-name="semicolon" horiz-adv-x="193" d="M159 588V480H51V588H159ZM51 108H159V0Q159 -48 128 -84T51 -128V108Z" />
<glyph unicode="&lt;" glyph-name="less" horiz-adv-x="473" d="M127 296L416 129V4L5 242V350L416 587V462L127 296Z" />
<glyph unicode="=" glyph-name="equal" horiz-adv-x="638" d="M579 251V143H59V251H579ZM579 441V333H59V441H579Z" />
<glyph unicode="&gt;" glyph-name="greater" horiz-adv-x="475" d="M59 2V127L348 294L59 460V585L470 348V240L59 2Z" />
<glyph unicode="?" glyph-name="question" horiz-adv-x="678" d="M31 720H528Q582 720 620 682T658 590V406Q658 352 620 314T528 276H269Q260 276 254 270T247 254V199H139V254Q139 308 177 346T269 384H528Q537 384 543 390T550 406V590Q550 599 544 605T528
612H31V720ZM247 0H139V108H247V0Z" />
<glyph unicode="@" glyph-name="at" horiz-adv-x="831" d="M372 530H462Q516 530 554 492T592 400V278H669V590Q669 599 663 605T647 612H187Q178 612 172 606T165 590V130Q165 121 171 115T187 108H777V0H187Q133 0 95 38T57 130V590Q57 644 95 682T187 720H647Q701
720 739 682T777 590V190H372Q318 190 280 228T242 320V400Q242 454 280 492T372 530ZM352 278H504V420Q504 429 498 435T482 442H352Q343 442 337 436T330 420V300Q330 291 336 285T352 278Z" />
<glyph unicode="A" glyph-name="A" horiz-adv-x="836" d="M188 720H648Q702 720 740 682T778 590V0H670V252H166V0H58V590Q58 644 96 682T188 720ZM166 360H670V590Q670 599 664 605T648 612H188Q179 612 173 606T166 590V360Z" />
<glyph unicode="B" glyph-name="B" horiz-adv-x="832" d="M736 387Q779 349 779 291V130Q779 76 741 38T649 0H59V720H619Q673 720 711 682T749 590V443Q749 415 736 387ZM619 612H189Q180 612 174 606T167 590V443Q167 434 173 428T189 421H619Q628 421 634 427T641
443V590Q641 599 635 605T619 612ZM671 130V291Q671 300 665 306T649 313H189Q180 313 174 307T167 291V130Q167 121 173 115T189 108H649Q658 108 664 114T671 130Z" />
<glyph unicode="C" glyph-name="C" horiz-adv-x="822" d="M774 612H186Q177 612 171 606T164 590V130Q164 121 170 115T186 108H774V0H186Q132 0 94 38T56 130V590Q56 644 94 682T186 720H774V612Z" />
<glyph unicode="D" glyph-name="D" horiz-adv-x="834" d="M58 720H648Q702 720 740 682T778 590V130Q778 76 740 38T648 0H58V720ZM670 130V590Q670 599 664 605T648 612H188Q179 612 173 606T166 590V130Q166 121 172 115T188 108H648Q657 108 663 114T670 130Z" />
<glyph unicode="E" glyph-name="E" horiz-adv-x="766" d="M718 720V612H166V414H610V306H166V108H718V0H58V720H718Z" />
<glyph unicode="F" glyph-name="F" horiz-adv-x="723" d="M58 720H718V612H166V414H610V306H166V0H58V720Z" />
<glyph unicode="G" glyph-name="G" horiz-adv-x="830" d="M776 590V547H668V590Q668 599 662 605T646 612H186Q177 612 171 606T164 590V130Q164 121 170 115T186 108H646Q655 108 661 114T668 130V286H498V394H776V130Q776 76 738 38T646 0H186Q132 0 94 38T56
130V590Q56 644 94 682T186 720H646Q700 720 738 682T776 590Z" />
<glyph unicode="H" glyph-name="H" horiz-adv-x="851" d="M686 720H794V0H686V306H165V0H57V720H165V414H686V720Z" />
<glyph unicode="I" glyph-name="I" horiz-adv-x="220" d="M57 0V720H165V0H57Z" />
<glyph unicode="J" glyph-name="J" horiz-adv-x="780" d="M616 130V720H724V130Q724 76 686 38T594 0H134Q80 0 42 38T4 130V200H112V130Q112 121 118 115T134 108H594Q603 108 609 114T616 130Z" />
<glyph unicode="K" glyph-name="K" horiz-adv-x="797" d="M622 720H750V705L461 360L750 15V0H622L365 306H165V0H57V720H165V414H365L622 720Z" />
<glyph unicode="L" glyph-name="L" horiz-adv-x="779" d="M57 0V721H165V108H777V0H57Z" />
<glyph unicode="M" glyph-name="M" horiz-adv-x="928" d="M464 387L743 720H872V0H764V576L464 219L164 576V0H56V720H184L464 387Z" />
<glyph unicode="N" glyph-name="N" horiz-adv-x="832" d="M668 144V720H776V0H648L164 576V0H56V720H184L668 144Z" />
<glyph unicode="O" glyph-name="O" horiz-adv-x="828" d="M184 720H644Q698 720 736 682T774 590V130Q774 76 736 38T644 0H184Q130 0 92 38T54 130V590Q54 644 92 682T184 720ZM184 108H644Q653 108 659 114T666 130V590Q666 599 660 605T644 612H184Q175 612
169 606T162 590V130Q162 121 168 115T184 108Z" />
<glyph unicode="P" glyph-name="P" horiz-adv-x="791" d="M56 719H646Q700 719 738 681T776 589V387Q776 334 738 296T646 257H186Q178 257 164 259V0H56V719ZM668 387V589Q668 598 662 604T646 611H186Q177 611 171 605T164 589V387Q164 378 170 372T186 365H646Q655
365 661 371T668 387Z" />
<glyph unicode="Q" glyph-name="Q" horiz-adv-x="884" d="M772 108H864V0H184Q130 0 92 38T54 130V590Q54 644 92 682T184 720H644Q698 720 736 682T774 590V130Q774 122 772 108ZM184 108H644Q653 108 659 114T666 130V590Q666 599 660 605T644 612H184Q175 612
169 606T162 590V130Q162 121 168 115T184 108Z" />
<glyph unicode="R" glyph-name="R" horiz-adv-x="825" d="M775 589V387Q775 334 737 296T645 257H572L775 15V0H647L431 257H185Q177 257 163 259V0H55V719H645Q699 719 737 681T775 589ZM185 365H645Q654 365 660 371T667 387V589Q667 598 661 604T645 611H185Q176
611 170 605T163 589V387Q163 378 169 372T185 365Z" />
<glyph unicode="S" glyph-name="S" horiz-adv-x="822" d="M771 590V548H663V590Q663 599 657 605T641 612H181Q172 612 166 606T159 590V436Q159 427 165 421T181 414H641Q695 414 733 376T771 284V130Q771 76 733 38T641 0H181Q127 0 89 38T51 130V172H159V130Q159
121 165 115T181 108H641Q650 108 656 114T663 130V284Q663 293 657 299T641 306H181Q127 306 89 344T51 436V590Q51 644 89 682T181 720H641Q695 720 733 682T771 590Z" />
<glyph unicode="T" glyph-name="T" horiz-adv-x="759" d="M20 720H740V612H434V0H326V612H20V720Z" />
<glyph unicode="U" glyph-name="U" horiz-adv-x="828" d="M666 130V720H774V130Q774 76 736 38T644 0H184Q130 0 92 38T54 130V720H162V130Q162 121 168 115T184 108H644Q653 108 659 114T666 130Z" />
<glyph unicode="V" glyph-name="V" horiz-adv-x="1003" d="M505 122L850 720H974L559 0H451L35 720H160L505 122Z" />
<glyph unicode="W" glyph-name="W" horiz-adv-x="1179" d="M1029 720H1144L882 0H794L589 561L385 0L383 1L384 0H297L35 720H150L341 195L532 720H647L838 195L1029 720Z" />
<glyph unicode="X" glyph-name="X" horiz-adv-x="812" d="M638 720H766V705L476 360L766 15V0H638L406 276L174 0H46V15L335 360L46 705V720H174L406 444L638 720Z" />
<glyph unicode="Y" glyph-name="Y" horiz-adv-x="806" d="M661 720H789L457 270V0H349V270L17 720H144L403 392L661 720Z" />
<glyph unicode="Z" glyph-name="Z" horiz-adv-x="821" d="M51 612V720H771V592L195 108H771V0H51V128L627 612H51Z" />
<glyph unicode="[" glyph-name="bracketleft" horiz-adv-x="275" d="M54 0V720H226V612H162V108H226V0H54Z" />
<glyph unicode="\" glyph-name="backslash" horiz-adv-x="520" d="M5 720H20L515 128V0H500L5 592V720Z" />
<glyph unicode="]" glyph-name="bracketright" horiz-adv-x="276" d="M51 612V720H223V0H51V108H115V612H51Z" />
<glyph unicode="_" glyph-name="underscore" horiz-adv-x="828" d="M774 0V-108H54V0H774Z" />
<glyph unicode="`" glyph-name="grave" horiz-adv-x="213" d="M140 989L180 827H72L32 989H140Z" />
<glyph unicode="a" glyph-name="a" horiz-adv-x="694" d="M512 580Q566 580 604 542T642 450V0H182Q128 0 90 38T52 130V344H534V450Q534 459 528 465T512 472H52V580H512ZM534 108V236H160V130Q160 121 166 115T182 108H534Z" />
<glyph unicode="b" glyph-name="b" horiz-adv-x="667" d="M514 580Q568 580 606 542T644 450V130Q644 76 606 38T514 0H54V770H162V580H514ZM536 130V450Q536 459 530 465T514 472H184Q175 472 169 466T162 450V130Q162 121 168 115T184 108H514Q523 108 529 114T536
130Z" />
<glyph unicode="c" glyph-name="c" horiz-adv-x="695" d="M181 108H641V0H181Q127 0 89 38T51 130V450Q51 504 89 542T181 580H639V472H181Q172 472 166 466T159 450V130Q159 121 165 115T181 108Z" />
<glyph unicode="d" glyph-name="d" horiz-adv-x="667" d="M505 770H613V0H153Q99 0 61 38T23 130V450Q23 504 61 542T153 580H505V770ZM153 108H483Q492 108 498 114T505 130V450Q505 459 499 465T483 472H153Q144 472 138 466T131 450V130Q131 121 137 115T153 108Z" />
<glyph unicode="e" glyph-name="e" horiz-adv-x="692" d="M511 580Q565 580 603 542T641 450V236H159V130Q159 121 165 115T181 108H641V0H181Q127 0 89 38T51 130V450Q51 504 89 542T181 580H511ZM159 344H533V450Q533 459 527 465T511 472H181Q172 472 166 466T159
450V344Z" />
<glyph unicode="f" glyph-name="f" horiz-adv-x="407" d="M183 662Q174 662 168 656T161 640V580H399V472H161V0H53V320V640Q53 694 91 732T183 770H399V662H183Z" />
<glyph unicode="g" glyph-name="g" horiz-adv-x="683" d="M631 221V220V-100Q631 -154 593 -192T501 -230H143V-122H501Q510 -122 516 -116T523 -100V0H171Q117 0 79 38T41 130V450Q41 504 79 542T171 580H501Q555 580 593 542T631 450V221ZM171 108H501Q510 108
516 114T523 130V450Q523 459 517 465T501 472H171Q162 472 156 466T149 450V130Q149 121 155 115T171 108Z" />
<glyph unicode="h" glyph-name="h" horiz-adv-x="668" d="M514 580Q567 580 605 542T644 450V0H536V450Q536 459 530 465T514 472H184Q175 472 169 466T162 450V0H54V770H162V580H514Z" />
<glyph unicode="i" glyph-name="i" horiz-adv-x="208" d="M52 0V580H160V0H52ZM52 770H160V662H52V770Z" />
<glyph unicode="j" glyph-name="j" horiz-adv-x="239" d="M83 770H191V662H83V770ZM191 578V220V-100Q191 -154 153 -192T61 -230H-187V-122H61Q70 -122 76 -116T83 -100V578H191Z" />
<glyph unicode="k" glyph-name="k" horiz-adv-x="646" d="M509 580H637V565L388 290L637 15V0H509L292 236H162V0H54V770H162V344H292L509 580Z" />
<glyph unicode="l" glyph-name="l" horiz-adv-x="302" d="M52 450V770H160V130Q160 121 166 115T182 108H290V0H182Q128 0 90 38T52 130V450Z" />
<glyph unicode="m" glyph-name="m" horiz-adv-x="978" d="M795 580Q849 580 887 542T925 450V0H818V450Q818 459 812 465T795 472H566Q557 472 551 466T544 450V0H436V450Q436 459 430 465T414 472H184Q175 472 169 466T162 450V0H54V580H795Z" />
<glyph unicode="n" glyph-name="n" horiz-adv-x="696" d="M514 580Q568 580 606 542T644 450V0H536V450Q536 459 530 465T514 472H184Q175 472 169 466T162 450V0H54V580H514Z" />
<glyph unicode="o" glyph-name="o" horiz-adv-x="692" d="M181 580H511Q565 580 603 542T641 450V130Q641 76 603 38T511 0H181Q127 0 89 38T51 130V450Q51 504 89 542T181 580ZM511 472H181Q172 472 166 466T159 450V130Q159 121 165 115T181 108H511Q520 108
526 114T533 130V450Q533 459 527 465T511 472Z" />
<glyph unicode="p" glyph-name="p" horiz-adv-x="664" d="M514 580Q568 580 606 542T644 450V130Q644 76 606 38T514 0H162V-230H54V580H514ZM536 130V450Q536 459 530 465T514 472H184Q175 472 169 466T162 450V130Q162 121 168 115T184 108H514Q523 108 529
114T536 130Z" />
<glyph unicode="q" glyph-name="q" horiz-adv-x="664" d="M20 450Q20 504 58 542T150 580H610V-230H502V0H150Q96 0 58 38T20 130V450ZM128 450V130Q128 121 134 115T150 108H480Q489 108 495 114T502 130V450Q502 459 496 465T480 472H150Q141 472 135 466T128 450Z" />
<glyph unicode="r" glyph-name="r" horiz-adv-x="512" d="M182 580H506V472H182Q173 472 167 466T160 450V0H52V130V450Q52 504 90 542T182 580Z" />
<glyph unicode="s" glyph-name="s" horiz-adv-x="686" d="M638 450V428H530V450Q530 459 524 465T508 472H178Q169 472 163 466T156 450V366Q156 357 162 351T178 344H508Q562 344 600 306T638 214V130Q638 76 600 38T508 0H178Q124 0 86 38T48 130V152H156V130Q156
121 162 115T178 108H508Q517 108 523 114T530 130V214Q530 223 524 229T508 236H178Q124 236 86 274T48 366V450Q48 504 86 542T178 580H508Q562 580 600 542T638 450Z" />
<glyph unicode="t" glyph-name="t" horiz-adv-x="410" d="M399 472H161V130Q161 121 167 115T183 108H399V0H183Q129 0 91 38T53 130V450V770H161V580H399V472Z" />
<glyph unicode="u" glyph-name="u" horiz-adv-x="695" d="M535 580H643V130Q643 76 605 38T513 0H183Q129 0 91 38T53 130V580H161V130Q161 121 167 115T183 108H513Q522 108 528 114T535 130V580Z" />
<glyph unicode="v" glyph-name="v" horiz-adv-x="790" d="M645 580H769L449 0H341L21 580H146L395 122L645 580Z" />
<glyph unicode="w" glyph-name="w" horiz-adv-x="1060" d="M921 580H1036L818 0H730L535 431L351 0L349 1L350 0H263L35 580H150L307 195L474 580H597L774 195L921 580Z" />
<glyph unicode="x" glyph-name="x" horiz-adv-x="692" d="M518 580H646V565L416 295L646 15V0H518L346 211L174 0H46V15L275 295L46 565V580H174L346 379L518 580Z" />
<glyph unicode="y" glyph-name="y" horiz-adv-x="685" d="M632 222V220V-100Q632 -154 594 -192T502 -230H144V-122H502Q511 -122 517 -116T524 -100V0H172Q118 0 80 38T42 130V578H150V130Q150 121 156 115T172 108H502Q511 108 517 114T524 130V578H632V222Z" />
<glyph unicode="z" glyph-name="z" horiz-adv-x="698" d="M54 472V580H644V452L198 108H644V0H54V128L500 472H54Z" />
<glyph unicode="{" glyph-name="braceleft" horiz-adv-x="289" d="M175 308V130Q175 121 181 115T197 108H239V0H197Q143 0 105 38T67 130V286L23 312V420L67 445V590Q67 644 105 682T197 720H239V612H197Q188 612 182 606T175 590V421L105 366L175 308Z" />
<glyph unicode="|" glyph-name="bar" horiz-adv-x="214" d="M54 -109V828H162V-109H54Z" />
<glyph unicode="}" glyph-name="braceright" horiz-adv-x="289" d="M115 130V308L185 366L115 421V590Q115 599 109 605T93 612H51V720H93Q147 720 185 682T223 590V445L267 420V312L223 286V130Q223 76 185 38T93 0H51V108H93Q102 108 108 114T115 130Z" />
<glyph unicode="~" glyph-name="asciitilde" horiz-adv-x="404" d="M298 298Q337 298 376 324V250Q334 232 298 232Q263 232 200 266T98 300Q38 300 24 277V352Q57 366 98 366Q137 366 200 334T298 298Z" />
<glyph unicode="&#xa1;" glyph-name="exclamdown" horiz-adv-x="210" d="M161 720V612H53V720H161ZM161 0H53V520H161V0Z" />
<glyph unicode="&#xa2;" glyph-name="cent" horiz-adv-x="636" d="M621 482H382V108H621V0H382V-109H274V0H163Q109 0 71 38T33 130V460Q33 514 71 552T163 590H274V718H382V590H621V482ZM274 108V482H163Q154 482 148 476T141 460V130Q141 121 147 115T163 108H274Z" />
<glyph unicode="&#xa3;" glyph-name="sterling" horiz-adv-x="734" d="M687 560H579V590Q579 599 573 605T557 612H269Q260 612 254 606T247 590V414H581V306H247V108H687V0H39V108H139V306H39V414H139V590Q139 644 177 682T269 720H557Q611 720 649 682T687 590V560Z" />
<glyph unicode="&#xa8;" glyph-name="dieresis" horiz-adv-x="385" d="M332 935V827H224V935H332ZM162 935V827H54V935H162Z" />
<glyph unicode="&#xb0;" glyph-name="degree" horiz-adv-x="439" d="M175 720H265Q319 720 357 682T395 590V510Q395 456 357 418T265 380H175Q121 380 83 418T45 510V590Q45 644 83 682T175 720ZM155 468H285Q294 468 300 474T307 490V610Q307 619 301 625T285
632H155Q146 632 140 626T133 610V490Q133 481 139 475T155 468Z" />
<glyph unicode="&#xb4;" glyph-name="acute" horiz-adv-x="213" d="M33 827L73 989H181L141 827H33Z" />
<glyph unicode="&#xb6;" glyph-name="paragraph" horiz-adv-x="833" d="M56 589Q56 642 94 680T186 719H776V0H668V257H567V0H459V257H186Q132 257 94 295T56 387V589ZM567 611V365H668V611H567ZM164 589V387Q164 378 170 372T186 365H459V611H186Q177 611 171
605T164 589Z" />
<glyph unicode="&#xb8;" glyph-name="cedilla" horiz-adv-x="213" d="M33 -162L73 0H181L141 -162H33Z" />
<glyph unicode="&#xbf;" glyph-name="questiondown" horiz-adv-x="675" d="M646 0H149Q95 0 57 38T19 130V314Q19 368 57 406T149 444H408Q417 444 423 450T430 466V527H538V466Q538 412 500 374T408 336H149Q140 336 134 330T127 314V130Q127 121 133 115T149
108H646V0ZM538 720V612H430V720H538Z" />
<glyph unicode="&#xc0;" glyph-name="Agrave" horiz-adv-x="836" d="M188 720H648Q702 720 740 682T778 590V0H670V252H166V0H58V590Q58 644 96 682T188 720ZM166 360H670V590Q670 599 664 605T648 612H188Q179 612 173 606T166 590V360ZM452 982L492 820H384L344
982H452Z" />
<glyph unicode="&#xc1;" glyph-name="Aacute" horiz-adv-x="836" d="M188 720H648Q702 720 740 682T778 590V0H670V252H166V0H58V590Q58 644 96 682T188 720ZM166 360H670V590Q670 599 664 605T648 612H188Q179 612 173 606T166 590V360ZM344 819L384 981H492L452
819H344Z" />
<glyph unicode="&#xc2;" glyph-name="Acircumflex" horiz-adv-x="836" d="M188 720H648Q702 720 740 682T778 590V0H670V252H166V0H58V590Q58 644 96 682T188 720ZM166 360H670V590Q670 599 664 605T648 612H188Q179 612 173 606T166 590V360ZM370 819H296L381
960H455L540 819H465L418 895L370 819Z" />
<glyph unicode="&#xc3;" glyph-name="Atilde" horiz-adv-x="836" d="M188 720H648Q702 720 740 682T778 590V0H670V252H166V0H58V590Q58 644 96 682T188 720ZM166 360H670V590Q670 599 664 605T648 612H188Q179 612 173 606T166 590V360ZM516 890Q555 890 594
916V842Q552 824 516 824Q481 824 418 858T316 892Q256 892 242 869V944Q275 958 316 958Q355 958 418 926T516 890Z" />
<glyph unicode="&#xc4;" glyph-name="Adieresis" horiz-adv-x="836" d="M188 720H648Q702 720 740 682T778 590V0H670V252H166V0H58V590Q58 644 96 682T188 720ZM166 360H670V590Q670 599 664 605T648 612H188Q179 612 173 606T166 590V360ZM557 918V810H449V918H557ZM387
918V810H279V918H387Z" />
<glyph unicode="&#xc5;" glyph-name="Aring" horiz-adv-x="836" d="M188 720H648Q702 720 740 682T778 590V0H670V252H166V0H58V590Q58 644 96 682T188 720ZM166 360H670V590Q670 599 664 605T648 612H188Q179 612 173 606T166 590V360ZM390 981H446Q468 981 484
966T500 928V874Q500 852 484 837T446 821H390Q368 821 352 836T336 874V928Q336 950 352 965T390 981ZM385 861H451Q460 861 460 871V931Q460 941 451 941H385Q376 941 376 931V871Q376 861 385 861Z" />
<glyph unicode="&#xc6;" glyph-name="AE" horiz-adv-x="1375" d="M774 612V414H1218V306H774V108H1326V0H666V252H162V0H54V590Q54 644 92 682T184 720H1326V612H774ZM666 360V590Q666 599 660 605T644 612H184Q175 612 169 606T162 590V360H666Z" />
<glyph unicode="&#xc7;" glyph-name="Ccedilla" horiz-adv-x="822" d="M774 612H186Q177 612 171 606T164 590V130Q164 121 170 115T186 108H774V0H485L445 -162H337L377 0H186Q132 0 94 38T56 130V590Q56 644 94 682T186 720H774V612Z" />
<glyph unicode="&#xc8;" glyph-name="Egrave" horiz-adv-x="766" d="M718 720V612H166V414H610V306H166V108H718V0H58V720H718ZM417 982L457 820H349L309 982H417Z" />
<glyph unicode="&#xc9;" glyph-name="Eacute" horiz-adv-x="766" d="M718 720V612H166V414H610V306H166V108H718V0H58V720H718ZM309 820L349 982H457L417 820H309Z" />
<glyph unicode="&#xca;" glyph-name="Ecircumflex" horiz-adv-x="766" d="M718 720V612H166V414H610V306H166V108H718V0H58V720H718ZM335 819H261L346 960H420L505 819H430L383 895L335 819Z" />
<glyph unicode="&#xcb;" glyph-name="Edieresis" horiz-adv-x="766" d="M718 720V612H166V414H610V306H166V108H718V0H58V720H718ZM522 928V820H414V928H522ZM352 928V820H244V928H352Z" />
<glyph unicode="&#xcc;" glyph-name="Igrave" horiz-adv-x="220" d="M57 0V720H165V0H57ZM144 982L184 820H76L36 982H144Z" />
<glyph unicode="&#xcd;" glyph-name="Iacute" horiz-adv-x="220" d="M57 0V720H165V0H57ZM36 820L76 982H184L144 820H36Z" />
<glyph unicode="&#xce;" glyph-name="Icircumflex" horiz-adv-x="220" d="M57 0V720H165V0H57ZM62 819H-12L73 960H147L232 819H157L110 895L62 819Z" />
<glyph unicode="&#xcf;" glyph-name="Idieresis" horiz-adv-x="220" d="M57 0V720H165V0H57ZM249 928V820H141V928H249ZM79 928V820H-29V928H79Z" />
<glyph unicode="&#xd1;" glyph-name="Ntilde" horiz-adv-x="832" d="M668 144V720H776V0H648L164 576V0H56V720H184L668 144ZM514 890Q553 890 592 916V842Q550 824 514 824Q479 824 416 858T314 892Q254 892 240 869V944Q273 958 314 958Q353 958 416 926T514 890Z" />
<glyph unicode="&#xd2;" glyph-name="Ograve" horiz-adv-x="828" d="M184 720H644Q698 720 736 682T774 590V130Q774 76 736 38T644 0H184Q130 0 92 38T54 130V590Q54 644 92 682T184 720ZM184 108H644Q653 108 659 114T666 130V590Q666 599 660 605T644 612H184Q175
612 169 606T162 590V130Q162 121 168 115T184 108ZM448 982L488 820H380L340 982H448Z" />
<glyph unicode="&#xd3;" glyph-name="Oacute" horiz-adv-x="828" d="M184 720H644Q698 720 736 682T774 590V130Q774 76 736 38T644 0H184Q130 0 92 38T54 130V590Q54 644 92 682T184 720ZM184 108H644Q653 108 659 114T666 130V590Q666 599 660 605T644 612H184Q175
612 169 606T162 590V130Q162 121 168 115T184 108ZM340 820L380 982H488L448 820H340Z" />
<glyph unicode="&#xd4;" glyph-name="Ocircumflex" horiz-adv-x="828" d="M184 720H644Q698 720 736 682T774 590V130Q774 76 736 38T644 0H184Q130 0 92 38T54 130V590Q54 644 92 682T184 720ZM184 108H644Q653 108 659 114T666 130V590Q666 599 660 605T644
612H184Q175 612 169 606T162 590V130Q162 121 168 115T184 108ZM366 819H292L377 960H451L536 819H461L414 895L366 819Z" />
<glyph unicode="&#xd5;" glyph-name="Otilde" horiz-adv-x="828" d="M184 720H644Q698 720 736 682T774 590V130Q774 76 736 38T644 0H184Q130 0 92 38T54 130V590Q54 644 92 682T184 720ZM184 108H644Q653 108 659 114T666 130V590Q666 599 660 605T644 612H184Q175
612 169 606T162 590V130Q162 121 168 115T184 108ZM512 890Q551 890 590 916V842Q548 824 512 824Q477 824 414 858T312 892Q252 892 238 869V944Q271 958 312 958Q351 958 414 926T512 890Z" />
<glyph unicode="&#xd6;" glyph-name="Odieresis" horiz-adv-x="828" d="M184 720H644Q698 720 736 682T774 590V130Q774 76 736 38T644 0H184Q130 0 92 38T54 130V590Q54 644 92 682T184 720ZM184 108H644Q653 108 659 114T666 130V590Q666 599 660 605T644 612H184Q175
612 169 606T162 590V130Q162 121 168 115T184 108ZM553 928V820H445V928H553ZM383 928V820H275V928H383Z" />
<glyph unicode="&#xd7;" glyph-name="multiply" horiz-adv-x="546" d="M493 510V495L343 300L493 105V90H365L273 216L181 90H53V105L202 300L53 495V510H181L273 384L365 510H493Z" />
<glyph unicode="&#xd9;" glyph-name="Ugrave" horiz-adv-x="828" d="M666 130V720H774V130Q774 76 736 38T644 0H184Q130 0 92 38T54 130V720H162V130Q162 121 168 115T184 108H644Q653 108 659 114T666 130ZM448 982L488 820H380L340 982H448Z" />
<glyph unicode="&#xda;" glyph-name="Uacute" horiz-adv-x="828" d="M666 130V720H774V130Q774 76 736 38T644 0H184Q130 0 92 38T54 130V720H162V130Q162 121 168 115T184 108H644Q653 108 659 114T666 130ZM340 820L380 982H488L448 820H340Z" />
<glyph unicode="&#xdb;" glyph-name="Ucircumflex" horiz-adv-x="828" d="M666 130V720H774V130Q774 76 736 38T644 0H184Q130 0 92 38T54 130V720H162V130Q162 121 168 115T184 108H644Q653 108 659 114T666 130ZM366 819H292L377 960H451L536 819H461L414 895L366 819Z" />
<glyph unicode="&#xdc;" glyph-name="Udieresis" horiz-adv-x="828" d="M666 130V720H774V130Q774 76 736 38T644 0H184Q130 0 92 38T54 130V720H162V130Q162 121 168 115T184 108H644Q653 108 659 114T666 130ZM553 928V820H445V928H553ZM383 928V820H275V928H383Z" />
<glyph unicode="&#xdd;" glyph-name="Yacute" horiz-adv-x="806" d="M661 720H789L457 270V0H349V270L17 720H144L403 392L661 720ZM329 820L369 982H477L437 820H329Z" />
<glyph unicode="&#xdf;" glyph-name="germandbls" horiz-adv-x="833" d="M777 612V446Q777 403 752 370Q777 337 777 294V130Q777 76 739 38T647 0H273V108H647Q656 108 662 114T669 130V294Q669 303 663 309T647 316H273V413H647Q656 413 662 419T669 435V589Q669
598 663 604T647 611H187Q178 611 172 605T165 589V0H57V590Q57 644 95 682T187 720H647Q695 720 732 689T777 612Z" />
<glyph unicode="&#xe0;" glyph-name="agrave" horiz-adv-x="725" d="M512 580Q566 580 604 542T642 450V0H182Q128 0 90 38T52 130V344H534V450Q534 459 528 465T512 472H52V580H512ZM534 108V236H160V130Q160 121 166 115T182 108H534ZM396 880L436 718H328L288
880H396Z" />
<glyph unicode="&#xe1;" glyph-name="aacute" horiz-adv-x="725" d="M512 580Q566 580 604 542T642 450V0H182Q128 0 90 38T52 130V344H534V450Q534 459 528 465T512 472H52V580H512ZM534 108V236H160V130Q160 121 166 115T182 108H534ZM288 718L328 880H436L396
718H288Z" />
<glyph unicode="&#xe2;" glyph-name="acircumflex" horiz-adv-x="725" d="M512 580Q566 580 604 542T642 450V0H182Q128 0 90 38T52 130V344H534V450Q534 459 528 465T512 472H52V580H512ZM534 108V236H160V130Q160 121 166 115T182 108H534ZM314 718H240L325
859H399L484 718H409L362 794L314 718Z" />
<glyph unicode="&#xe3;" glyph-name="atilde" horiz-adv-x="725" d="M512 580Q566 580 604 542T642 450V0H182Q128 0 90 38T52 130V344H534V450Q534 459 528 465T512 472H52V580H512ZM534 108V236H160V130Q160 121 166 115T182 108H534ZM460 787Q499 787 538 813V739Q496
721 460 721Q425 721 362 755T260 789Q200 789 186 766V841Q219 855 260 855Q299 855 362 823T460 787Z" />
<glyph unicode="&#xe4;" glyph-name="adieresis" horiz-adv-x="725" d="M512 580Q566 580 604 542T642 450V0H182Q128 0 90 38T52 130V344H534V450Q534 459 528 465T512 472H52V580H512ZM534 108V236H160V130Q160 121 166 115T182 108H534ZM501 826V718H393V826H501ZM331
826V718H223V826H331Z" />
<glyph unicode="&#xe5;" glyph-name="aring" horiz-adv-x="725" d="M512 580Q566 580 604 542T642 450V0H182Q128 0 90 38T52 130V344H534V450Q534 459 528 465T512 472H52V580H512ZM534 108V236H160V130Q160 121 166 115T182 108H534ZM334 878H390Q412 878 428
863T444 825V771Q444 749 428 734T390 718H334Q312 718 296 733T280 771V825Q280 847 296 862T334 878ZM329 758H395Q404 758 404 768V828Q404 838 395 838H329Q320 838 320 828V768Q320 758 329 758Z" />
<glyph unicode="&#xe6;" glyph-name="ae" horiz-adv-x="1178" d="M995 580Q1049 580 1087 542T1125 450V236H643V127Q645 108 665 108H1125V0H183Q129 0 91 38T53 130V344H535V450Q535 459 529 465T513 472H53V580H995ZM535 108V236H161V130Q161 121 167 115T183
108H535ZM643 344H1017V450Q1017 459 1011 465T995 472H665Q656 472 650 466T643 450V344Z" />
<glyph unicode="&#xe7;" glyph-name="ccedilla" horiz-adv-x="693" d="M181 108H641V0H181Q127 0 89 38T51 130V450Q51 504 89 542T181 580H639V472H181Q172 472 166 466T159 450V130Q159 121 165 115T181 108ZM272 -162L312 0H420L380 -162H272Z" />
<glyph unicode="&#xe8;" glyph-name="egrave" horiz-adv-x="638" d="M511 580Q565 580 603 542T641 450V236H159V130Q159 121 165 115T181 108H641V0H181Q127 0 89 38T51 130V450Q51 504 89 542T181 580H511ZM159 344H533V450Q533 459 527 465T511 472H181Q172
472 166 466T159 450V344ZM353 880L393 718H285L245 880H353Z" />
<glyph unicode="&#xe9;" glyph-name="eacute" horiz-adv-x="638" d="M511 580Q565 580 603 542T641 450V236H159V130Q159 121 165 115T181 108H641V0H181Q127 0 89 38T51 130V450Q51 504 89 542T181 580H511ZM159 344H533V450Q533 459 527 465T511 472H181Q172
472 166 466T159 450V344ZM245 719L285 881H393L353 719H245Z" />
<glyph unicode="&#xea;" glyph-name="ecircumflex" horiz-adv-x="638" d="M511 580Q565 580 603 542T641 450V236H159V130Q159 121 165 115T181 108H641V0H181Q127 0 89 38T51 130V450Q51 504 89 542T181 580H511ZM159 344H533V450Q533 459 527 465T511 472H181Q172
472 166 466T159 450V344ZM271 718H197L282 859H356L441 718H366L319 794L271 718Z" />
<glyph unicode="&#xeb;" glyph-name="edieresis" horiz-adv-x="638" d="M511 580Q565 580 603 542T641 450V236H159V130Q159 121 165 115T181 108H641V0H181Q127 0 89 38T51 130V450Q51 504 89 542T181 580H511ZM159 344H533V450Q533 459 527 465T511 472H181Q172
472 166 466T159 450V344ZM458 826V718H350V826H458ZM288 826V718H180V826H288Z" />
<glyph unicode="&#xec;" glyph-name="igrave" horiz-adv-x="214" d="M56 0V580H164V0H56ZM124 881L164 719H56L16 881H124Z" />
<glyph unicode="&#xed;" glyph-name="iacute" horiz-adv-x="214" d="M51 0V580H159V0H51ZM49 718L89 880H197L157 718H49Z" />
<glyph unicode="&#xee;" glyph-name="icircumflex" horiz-adv-x="214" d="M51 0V580H159V0H51ZM59 718H-15L70 859H144L229 718H154L107 794L59 718Z" />
<glyph unicode="&#xef;" glyph-name="idieresis" horiz-adv-x="214" d="M55 0V580H163V0H55ZM246 828V720H138V828H246ZM76 828V720H-32V828H76Z" />
<glyph unicode="&#xf1;" glyph-name="ntilde" horiz-adv-x="708" d="M514 580Q568 580 606 542T644 450V0H536V450Q536 459 530 465T514 472H184Q175 472 169 466T162 450V0H54V580H514ZM452 786Q491 786 530 812V738Q488 720 452 720Q417 720 354 754T252 788Q192
788 178 765V840Q211 854 252 854Q291 854 354 822T452 786Z" />
<glyph unicode="&#xf2;" glyph-name="ograve" horiz-adv-x="692" d="M181 580H511Q565 580 603 542T641 450V130Q641 76 603 38T511 0H181Q127 0 89 38T51 130V450Q51 504 89 542T181 580ZM511 472H181Q172 472 166 466T159 450V130Q159 121 165 115T181 108H511Q520
108 526 114T533 130V450Q533 459 527 465T511 472ZM380 881L420 719H312L272 881H380Z" />
<glyph unicode="&#xf3;" glyph-name="oacute" horiz-adv-x="692" d="M181 580H511Q565 580 603 542T641 450V130Q641 76 603 38T511 0H181Q127 0 89 38T51 130V450Q51 504 89 542T181 580ZM511 472H181Q172 472 166 466T159 450V130Q159 121 165 115T181 108H511Q520
108 526 114T533 130V450Q533 459 527 465T511 472ZM272 719L312 881H420L380 719H272Z" />
<glyph unicode="&#xf4;" glyph-name="ocircumflex" horiz-adv-x="692" d="M181 580H511Q565 580 603 542T641 450V130Q641 76 603 38T511 0H181Q127 0 89 38T51 130V450Q51 504 89 542T181 580ZM511 472H181Q172 472 166 466T159 450V130Q159 121 165 115T181
108H511Q520 108 526 114T533 130V450Q533 459 527 465T511 472ZM298 718H224L309 859H383L468 718H393L346 794L298 718Z" />
<glyph unicode="&#xf5;" glyph-name="otilde" horiz-adv-x="692" d="M181 580H511Q565 580 603 542T641 450V130Q641 76 603 38T511 0H181Q127 0 89 38T51 130V450Q51 504 89 542T181 580ZM511 472H181Q172 472 166 466T159 450V130Q159 121 165 115T181 108H511Q520
108 526 114T533 130V450Q533 459 527 465T511 472ZM444 786Q483 786 522 812V738Q480 720 444 720Q409 720 346 754T244 788Q184 788 170 765V840Q203 854 244 854Q283 854 346 822T444 786Z" />
<glyph unicode="&#xf6;" glyph-name="odieresis" horiz-adv-x="692" d="M181 580H511Q565 580 603 542T641 450V130Q641 76 603 38T511 0H181Q127 0 89 38T51 130V450Q51 504 89 542T181 580ZM511 472H181Q172 472 166 466T159 450V130Q159 121 165 115T181 108H511Q520
108 526 114T533 130V450Q533 459 527 465T511 472ZM485 828V720H377V828H485ZM315 828V720H207V828H315Z" />
<glyph unicode="&#xf7;" glyph-name="divide" horiz-adv-x="502" d="M498 350V242H18V350H498ZM201 108H309V0H201V108ZM309 588V480H201V588H309Z" />
<glyph unicode="&#xf9;" glyph-name="ugrave" horiz-adv-x="695" d="M535 580H643V130Q643 76 605 38T513 0H183Q129 0 91 38T53 130V580H161V130Q161 121 167 115T183 108H513Q522 108 528 114T535 130V580ZM381 881L421 719H313L273 881H381Z" />
<glyph unicode="&#xfa;" glyph-name="uacute" horiz-adv-x="695" d="M535 580H643V130Q643 76 605 38T513 0H183Q129 0 91 38T53 130V580H161V130Q161 121 167 115T183 108H513Q522 108 528 114T535 130V580ZM273 719L313 881H421L381 719H273Z" />
<glyph unicode="&#xfb;" glyph-name="ucircumflex" horiz-adv-x="695" d="M535 580H643V130Q643 76 605 38T513 0H183Q129 0 91 38T53 130V580H161V130Q161 121 167 115T183 108H513Q522 108 528 114T535 130V580ZM299 719H225L310 860H384L469 719H394L347 795L299 719Z" />
<glyph unicode="&#xfc;" glyph-name="udieresis" horiz-adv-x="695" d="M535 580H643V130Q643 76 605 38T513 0H183Q129 0 91 38T53 130V580H161V130Q161 121 167 115T183 108H513Q522 108 528 114T535 130V580ZM486 826V718H378V826H486ZM316 826V718H208V826H316Z" />
<glyph unicode="&#xfd;" glyph-name="yacute" horiz-adv-x="688" d="M632 222V220V-100Q632 -154 594 -192T502 -230H144V-122H502Q511 -122 517 -116T524 -100V0H172Q118 0 80 38T42 130V578H150V130Q150 121 156 115T172 108H502Q511 108 517 114T524 130V578H632V222ZM270
719L310 881H418L378 719H270Z" />
<glyph unicode="&#xff;" glyph-name="ydieresis" horiz-adv-x="688" d="M632 222V220V-100Q632 -154 594 -192T502 -230H144V-122H502Q511 -122 517 -116T524 -100V0H172Q118 0 80 38T42 130V578H150V130Q150 121 156 115T172 108H502Q511 108 517 114T524 130V578H632V222ZM483
828V720H375V828H483ZM313 828V720H205V828H313Z" />
<glyph unicode="&#x2013;" glyph-name="endash" horiz-adv-x="708" d="M654 349V241H54V349H654Z" />
<glyph unicode="&#x2014;" glyph-name="emdash" horiz-adv-x="822" d="M768 349V241H54V349H768Z" />
<glyph unicode="&#x2018;" glyph-name="quoteleft" horiz-adv-x="194" d="M142 484H34V592Q34 640 65 676T142 720V484Z" />
<glyph unicode="&#x2019;" glyph-name="quoteright" horiz-adv-x="193" d="M54 720H162V612Q162 564 131 528T54 484V720Z" />
<glyph unicode="&#x201c;" glyph-name="quotedblleft" horiz-adv-x="378" d="M154 484H46V592Q46 640 77 676T154 720V484ZM325 484H217V592Q217 640 248 676T325 720V484Z" />
<glyph unicode="&#x201d;" glyph-name="quotedblright" horiz-adv-x="378" d="M225 720H333V612Q333 564 302 528T225 484V720ZM54 720H162V612Q162 564 131 528T54 484V720Z" />
<glyph unicode="&#x2022;" glyph-name="bullet" horiz-adv-x="371" d="M173 412H196Q239 412 239 370V350Q239 308 196 308H173Q131 308 131 350V370Q131 412 173 412Z" />
</font>
</defs>
</svg>
