<?xml version="1.0" standalone="no"?>
<!DOCTYPE svg PUBLIC "-//W3C//DTD SVG 1.1//EN" "http://www.w3.org/Graphics/SVG/1.1/DTD/svg11.dtd">
<svg xmlns="http://www.w3.org/2000/svg">
<defs >
<font id="FontdinerSwanky" horiz-adv-x="558" ><font-face
    font-family="Fontdiner Swanky"
    units-per-em="1024"
    panose-1="2 0 0 0 0 0 0 0 0 0"
    ascent="1047"
    descent="-510"
    alphabetic="0" />
<glyph unicode=" " glyph-name="space" horiz-adv-x="328" />
<glyph unicode="!" glyph-name="exclam" horiz-adv-x="313" d="M313 849L191 184L72 198L99 865L313 849ZM207 61Q207 43 199 30T177 7T147 -6T114 -10Q98 -10 80 -6T46 9T20 33T10 67Q10 88 20 103T45 127T80 141T117 146Q134 146 150 140T179 122T199 95T207 61Z" />
<glyph unicode="&quot;" glyph-name="quotedbl" horiz-adv-x="378" d="M368 677L343 407L228 409L206 677H368ZM172 677L147 407L33 409L10 677H172Z" />
<glyph unicode="#" glyph-name="numbersign" horiz-adv-x="719" d="M709 550L689 444L556 442L544 289L682 291L666 158L537 163L530 34L397 29L411 167L257 168L244 35L137 24L145 172L0 176L17 281L153 284L163 437L25 434L43 567L170 564L178 691L311 696L296
560L450 557L465 692L569 700L561 555L709 550ZM437 440L284 439L269 286L423 287L437 440Z" />
<glyph unicode="$" glyph-name="dollar" horiz-adv-x="559" d="M549 171Q549 126 530 96T480 47T411 19T336 7Q339 -26 343 -59T350 -124L206 -127Q209 -92 213 -57T220 13Q188 20 154 31T93 62L10 -35L41 279Q59 241 86 207T147 147T222 106T306 91Q317 91 332
93T360 100T383 114T393 138Q393 156 375 170T332 196T283 215T246 227Q211 238 170 255T93 298T34 358T10 436Q10 474 26 504T68 557T127 594T194 613L181 745L325 748Q322 713 319 678T312 608Q352 599 388 579T454 532L517 654L504 332Q486 367 459 402T397
465T324 510T242 528Q230 528 214 526T185 517T162 501T152 474Q152 454 167 440T202 415T245 397T281 385Q319 372 365 356T453 316T521 256T549 171Z" />
<glyph unicode="%" glyph-name="percent" horiz-adv-x="673" d="M317 613Q317 580 305 554T271 509T221 482T161 472Q130 472 103 482T55 510T22 555T10 613Q10 649 23 675T57 718T108 743T170 751Q200 751 227 741T274 713T305 670T317 613ZM590 758L238 -49L130
-11L456 799L590 758ZM694 130Q694 97 682 71T648 27T598 0T538 -10Q507 -10 480 0T432 28T399 72T387 130Q387 165 400 191T434 234T485 259T547 268Q577 268 604 258T651 230T682 187T694 130ZM211 614Q211 632 201 652T169 672Q145 672 131 655T117 615Q117
605 119 594T126 574T140 559T161 553Q190 553 200 571T211 614ZM589 131Q589 150 578 169T546 188Q523 188 509 172T494 132Q494 122 496 111T503 91T517 76T538 70Q566 70 577 87T589 131Z" />
<glyph unicode="&amp;" glyph-name="ampersand" horiz-adv-x="685" d="M828 177L375 -128L467 34L445 63Q398 36 342 17T230 -3Q192 -3 156 9T92 45T48 101T31 174Q31 210 45 243T81 306T133 359T193 399L122 493Q103 517 92 549T81 611Q81 652 102 681T156 730T227
758T299 767Q335 767 369 757T431 726T474 676T490 606Q490 576 477 549T445 497T401 452T355 414L511 222Q522 241 529 261T536 303Q536 318 532 336T523 374T513 412T503 444L699 191L589 211Q583 198 575 186T558 163L586 129L828 177ZM370 588Q370 605 365
624T350 660T325 687T290 698Q275 698 261 692T236 676T218 653T211 624Q211 612 214 598T226 574L309 472Q319 481 330 495T350 524T364 556T370 588ZM396 127L240 336Q218 313 202 285T185 224Q185 198 196 177T226 141T268 118T316 110Q359 110 396 127Z" />
<glyph unicode="&apos;" glyph-name="quotesingle" horiz-adv-x="182" d="M172 684L147 414L33 416L10 684H172Z" />
<glyph unicode="(" glyph-name="parenleft" horiz-adv-x="394" d="M404 -152Q310 -120 243 -74T134 35T71 181T51 366Q51 468 68 548T127 688T235 790T401 861Q348 805 310 754T248 647T213 527T202 384Q202 303 216 233T256 98T319 -28T404 -152Z" />
<glyph unicode=")" glyph-name="parenright" horiz-adv-x="384" d="M343 366Q343 263 324 181T261 36T151 -74T-10 -152Q38 -90 75 -29T139 97T179 232T193 384Q193 463 182 527T146 646T84 753T-7 861Q92 833 159 791T267 688T325 548T343 366Z" />
<glyph unicode="*" glyph-name="asterisk" horiz-adv-x="656" d="M656 410L640 259L419 283L556 118L382 30L316 224L217 11L95 100L229 278L10 242L22 436L229 394L88 594L226 654L319 443L395 654L558 548L420 385L656 410Z" />
<glyph unicode="+" glyph-name="plus" horiz-adv-x="622" d="M611 410L603 283L380 278L370 37L242 45L236 273L10 268L16 435L233 427L227 639L395 633L386 420L611 410Z" />
<glyph unicode="," glyph-name="comma" horiz-adv-x="232" d="M222 -17Q222 -46 214 -73T189 -123T152 -165T103 -196L50 -219Q65 -188 79 -157T100 -92Q83 -91 67 -87T38 -74T18 -52T10 -18Q10 4 19 21T44 50T78 68T118 74Q136 74 154 67T188 48T212 20T222 -17Z" />
<glyph unicode="-" glyph-name="hyphen" horiz-adv-x="563" d="M502 419L494 282L61 265L67 446L502 419Z" />
<glyph unicode="." glyph-name="period" horiz-adv-x="232" d="M222 -4Q222 -25 213 -41T190 -67T157 -83T119 -89Q101 -89 82 -84T46 -69T20 -43T10 -6Q10 16 19 33T44 61T79 79T118 85Q136 85 154 79T188 60T212 32T222 -4Z" />
<glyph unicode="/" glyph-name="slash" horiz-adv-x="615" d="M646 806L98 -79L-31 -2L494 905L646 806Z" />
<glyph unicode="0" glyph-name="zero" horiz-adv-x="758" d="M737 328Q737 251 707 191T626 88T509 24T370 2Q298 2 235 25T124 90T48 192T20 327Q20 410 49 470T129 570T248 628T393 647Q463 647 526 625T635 561T709 461T737 328ZM563 329Q563 366 553 405T521
475T468 527T393 547Q348 547 311 530T247 484T206 415T191 333Q191 293 201 252T232 177T286 122T366 101Q418 101 455 119T517 168T552 240T563 329Z" />
<glyph unicode="1" glyph-name="one" horiz-adv-x="516" d="M578 -31L-17 -29L212 74L190 593L-72 647L379 745L358 72L578 -31Z" />
<glyph unicode="2" glyph-name="two" horiz-adv-x="654" d="M624 515Q624 458 604 419T551 351T476 301T389 259Q360 246 332 231T279 196T234 153T198 99L487 109L615 361L594 -34L-10 -9Q-9 -3 -9 3T-7 17Q-1 69 30 117T106 205T203 278T301 330Q335 345 365
360T418 397T454 448T467 518Q467 545 456 566T427 601T386 622T338 630Q283 630 241 597T168 516T120 412T95 313Q78 438 62 560T29 808L143 653Q186 694 241 715T355 736Q401 736 449 721T536 677T599 607T624 515Z" />
<glyph unicode="3" glyph-name="three" horiz-adv-x="635" d="M614 188Q614 130 586 87T515 14T417 -29T312 -44Q252 -44 196 -21T97 44L-20 -110L80 293Q86 252 103 211T147 137T211 83T293 62Q316 62 339 69T382 91T413 125T425 172Q425 204 411 226T375 261T326
281T271 287Q256 287 241 286T211 284L213 393Q236 389 258 386T303 382Q329 382 353 389T396 410T426 445T438 496Q438 521 426 542T395 579T352 604T304 613Q259 613 222 594T157 544T111 473T84 392L-2 797L110 639Q151 676 200 698T306 720Q353 720 404 707T497
667T566 599T593 503Q593 455 577 419T525 352Q567 327 590 282T614 188Z" />
<glyph unicode="4" glyph-name="four" horiz-adv-x="621" d="M610 -66L92 -69L321 22L314 173L-51 167L475 792L462 256L507 257L598 421L585 11L513 176L459 175L454 19L610 -66ZM311 254L309 427L152 251L311 254Z" />
<glyph unicode="5" glyph-name="five" horiz-adv-x="625" d="M594 244Q594 186 574 136T517 48T432 -11T324 -33Q259 -33 209 -14T112 50L12 -50L57 245Q72 216 95 189T146 141T206 108T273 95Q305 95 331 106T376 136T405 181T415 240Q415 271 400 296T361 339T308
365T251 375Q194 375 152 351T68 294L0 672L584 757L543 433Q526 481 511 527T476 618L163 584Q166 554 167 524T170 465Q203 472 236 476T302 481Q355 481 407 467T501 423T568 349T594 244Z" />
<glyph unicode="6" glyph-name="six" horiz-adv-x="634" d="M631 212Q631 143 607 90T541 1T441 -53T318 -72Q241 -72 182 -50T83 15T21 118T0 255Q0 298 8 348T32 450T72 548T131 632T208 691T305 713Q348 713 387 696T460 652L531 852L580 429Q561 456 534 483T476
533T409 569T339 583Q310 583 289 571T251 540T226 495T211 445Q241 458 274 462T341 466Q403 466 456 452T548 406T609 327T631 212ZM474 201Q474 231 466 262T440 320T398 362T338 379Q302 379 272 365T221 327T188 272T176 205Q176 173 183 139T208 78T251 33T315
15Q358 15 388 29T437 69T465 129T474 201Z" />
<glyph unicode="7" glyph-name="seven" horiz-adv-x="613" d="M668 702L408 60L627 -55L66 -37L284 73L415 597L172 613L112 374L0 733L668 702Z" />
<glyph unicode="8" glyph-name="eight" horiz-adv-x="658" d="M665 151Q665 85 634 39T554 -37T446 -79T332 -93Q275 -93 216 -80T109 -38T31 36T0 147V151Q0 178 9 205T35 257T73 302T119 336Q81 368 65 407T48 497Q48 552 74 595T140 666T231 710T332 725Q381
725 431 710T523 667T590 595T616 497Q616 446 600 407T545 336Q569 322 590 302T628 258T655 206T665 151ZM450 494Q450 520 443 545T420 590T383 622T332 635Q303 635 281 623T245 590T223 544T215 493V489Q215 435 244 397T332 359Q389 359 419 396T450 490V494ZM470
142Q470 170 459 194T429 235T385 262T332 272Q304 272 279 263T235 236T205 194T193 142Q193 115 204 89T234 42T278 9T332 -4Q361 -4 386 8T430 41T459 88T470 142Z" />
<glyph unicode="9" glyph-name="nine" horiz-adv-x="625" d="M620 401Q620 350 613 300T591 202Q576 157 552 113T494 34T417 -22T322 -44Q275 -44 242 -30T170 10L100 -143L51 232Q70 206 96 179T154 130T221 94T291 80Q320 80 344 94T387 131T418 181T436 233Q416
224 400 218T366 207T331 200T290 197Q234 197 182 214T90 265T25 345T0 451Q0 520 24 572T90 661T189 715T312 733Q383 733 440 707T537 635T598 530T620 401ZM447 469Q447 499 440 529T418 585T379 626T319 642Q280 642 253 629T208 592T182 538T174 472Q174
445 182 417T205 364T244 325T299 310Q332 310 359 323T405 357T436 408T447 469Z" />
<glyph unicode=":" glyph-name="colon" horiz-adv-x="229" d="M212 257Q212 236 203 221T180 195T147 179T109 173Q90 173 71 178T36 193T10 219T0 256Q0 278 9 294T34 322T68 340T108 346Q126 346 144 340T178 321T202 293T212 257ZM212 -4Q212 -25 203 -41T180
-67T147 -83T109 -89Q90 -89 71 -84T36 -69T10 -43T0 -6Q0 16 9 33T34 61T68 79T108 85Q126 85 144 79T178 60T202 32T212 -4Z" />
<glyph unicode=";" glyph-name="semicolon" horiz-adv-x="234" d="M214 257Q214 237 205 221T182 195T150 179T113 173Q94 173 75 178T40 193T14 219T4 256Q4 278 13 294T38 322T73 340T113 346Q130 346 148 340T180 321T204 293T214 257ZM212 -17Q212 -46 203
-73T179 -123T141 -165T93 -196L40 -219Q54 -188 68 -157T90 -92Q73 -91 57 -87T28 -74T8 -52T0 -18Q0 4 9 21T34 50T68 68T108 74Q126 74 144 67T178 48T202 20T212 -17Z" />
<glyph unicode="&lt;" glyph-name="less" horiz-adv-x="577" d="M609 496L263 316L567 74L553 -6L0 344L561 675L609 496Z" />
<glyph unicode="=" glyph-name="equal" horiz-adv-x="544" d="M536 451L527 319L1 303L5 477L536 451ZM535 258L529 84L0 111L7 243L535 258Z" />
<glyph unicode="&gt;" glyph-name="greater" horiz-adv-x="590" d="M609 344L55 -7L45 74L347 316L0 496L49 675L609 344Z" />
<glyph unicode="?" glyph-name="question" horiz-adv-x="607" d="M602 556Q602 497 579 454T518 383T431 342T328 329Q320 329 314 329T301 330L236 176L114 208L146 451Q178 438 207 429T271 419Q303 419 333 429T386 459T424 506T438 568Q438 607 418 637T366
689T298 722T227 733Q181 733 149 719T91 680T44 624T0 559L74 898L133 797Q167 805 202 807T273 809Q330 809 388 795T494 749T572 671T602 556ZM246 48Q246 28 237 13T214 -12T181 -26T145 -31Q126 -31 104 -25T63 -8T32 20T19 59Q19 80 28 95T52 120T85 136T121
141Q142 141 164 136T204 119T234 90T246 48Z" />
<glyph unicode="@" glyph-name="at" horiz-adv-x="812" d="M839 316Q839 267 825 214T781 116T708 42T608 13Q584 13 562 20T520 40T488 73T470 118Q447 112 423 108T374 103Q349 103 322 108T273 127T235 160T220 210Q220 243 234 266T270 303T320 323T377 330Q406
330 436 327T495 319Q498 343 498 365Q498 384 495 404T484 442T461 469T422 480Q400 480 381 473T348 446Q356 438 362 427T369 402Q369 376 349 359T302 341Q275 341 258 358T241 401Q241 437 258 463T303 508T364 534T427 543Q521 543 565 498T610 359Q610 302
601 245T592 130Q592 123 593 114T599 98T609 85T625 79Q642 79 655 93T677 131T692 182T701 236T705 285T707 319Q707 381 691 434T641 526T559 587T444 610Q380 610 323 590T222 532T154 440T129 318Q129 234 158 175T236 77T353 18T497 -7Q499 -7 508 -8T526
-10T544 -13T552 -18Q552 -22 544 -25T526 -30T507 -33T495 -34Q475 -36 455 -37T414 -38Q328 -38 253 -20T121 40T33 148T0 310Q0 404 37 475T135 593T277 664T443 688Q523 688 595 661T721 585T807 468T839 316ZM486 266Q468 268 449 270T412 273Q385 273 365
260T345 217Q345 194 362 181T400 167Q419 167 438 169T476 174L486 266Z" />
<glyph unicode="A" glyph-name="A" horiz-adv-x="807" d="M1012 -98L478 -231L616 -87Q590 -26 564 35T509 157Q437 152 366 152T222 146Q208 120 195 95T167 43L349 -76L-164 -42L82 62L337 549L68 686L452 670L798 -35L1012 -98ZM473 244Q450 294 426 343T379
442Q353 394 328 348T276 253L473 244Z" />
<glyph unicode="B" glyph-name="B" horiz-adv-x="793" d="M793 465Q793 432 775 402T728 348T667 307T606 283Q634 274 662 259T712 223T748 175T762 115Q762 75 738 46T674 -4T586 -38T489 -60T397 -74T327 -82L-81 -126L147 9L100 555L-113 681L385 671Q415
670 457 666T545 654T634 630T714 593T771 539T793 465ZM626 465Q626 488 612 504T575 533T525 552T469 564T417 570T378 572Q354 572 330 571T283 567L289 357Q310 355 331 354T374 352Q398 352 440 356T523 373T595 407T626 465ZM572 134Q572 157 557 174T517
204T463 225T404 237T349 244T307 246H304L312 8Q327 9 352 12T407 22T465 39T518 63T557 94T572 134Z" />
<glyph unicode="C" glyph-name="C" horiz-adv-x="785" d="M776 772L708 355Q695 398 674 441T621 517T550 572T459 593Q402 593 356 573T278 517T228 433T211 330Q211 270 227 219T277 129T358 69T469 47Q569 47 626 102T698 254L766 -81L685 35Q662 9 632 -8T568
-37T499 -53T430 -58Q343 -58 269 -30T139 50T52 174T20 336Q20 424 52 492T141 608T271 679T429 703Q458 703 489 698T552 681T610 654T657 615L776 772Z" />
<glyph unicode="D" glyph-name="D" horiz-adv-x="854" d="M854 352Q854 261 828 194T753 81T634 14T474 -9Q414 -9 356 -13T238 -20L-18 -34L201 83V89Q201 210 189 328T169 565L-113 688Q-34 686 44 684T201 682Q264 682 325 683T449 684Q525 684 598 664T728
602T819 499T854 352ZM679 338Q679 392 667 437T629 515T562 566T463 585Q440 585 418 585T372 585L346 82Q369 82 390 82T433 81V83Q447 82 459 82T484 81Q543 81 581 102T640 159T670 241T679 338Z" />
<glyph unicode="E" glyph-name="E" horiz-adv-x="800" d="M759 740L743 384L623 645L342 622L336 356L429 361L538 568L527 94L423 250L334 256L329 63L629 65L728 357L731 -18L-65 -24Q-5 0 54 25T173 72L155 595Q92 614 31 635T-92 677L728 738L759 740Z" />
<glyph unicode="F" glyph-name="F" horiz-adv-x="749" d="M718 735L714 326L595 641L335 617L329 358L415 364L518 547L509 79L408 253L327 259L323 37L544 -57L-50 -55Q3 -32 56 -8T164 37L148 592Q90 609 33 630T-82 671Q119 687 318 704T718 735Z" />
<glyph unicode="G" glyph-name="G" horiz-adv-x="848" d="M940 344L753 262L781 -41L671 58Q647 29 615 10T546 -20T471 -36T397 -41Q313 -41 244 -13T125 65T48 186T20 339Q21 433 55 502T146 617T279 685T443 708Q490 708 541 694T631 655L761 781L726 357L684
436Q667 468 643 497T590 549T526 585T455 598Q395 598 351 577T278 518T234 433T219 329Q219 279 233 230T276 143T346 80T444 56Q516 56 558 92T600 201Q600 214 599 227T596 252L351 346L940 344Z" />
<glyph unicode="H" glyph-name="H" horiz-adv-x="817" d="M909 1H353L549 80L545 250L273 222L270 -6L502 -85H-94Q-43 -65 10 -44T114 -6L98 547Q47 567 -2 591T-102 639L453 633L280 552L275 330H542L534 628L330 719L890 713L715 632L700 80L909 1Z" />
<glyph unicode="I" glyph-name="I" horiz-adv-x="456" d="M549 699L334 611L317 -2L540 -89H-48L172 -2L148 605L-92 706L549 699Z" />
<glyph unicode="J" glyph-name="J" horiz-adv-x="736" d="M849 760L609 630Q614 579 621 528T636 426T649 324T655 222Q655 140 636 75T576 -35T474 -104T326 -128Q217 -128 147 -69T59 97L-113 185H334Q298 165 262 145T188 105Q189 75 198 49T225 2T268 -29T326
-41Q377 -41 408 -18T457 40T481 119T487 203Q487 254 482 303T468 402T451 501T432 600L84 644L849 760Z" />
<glyph unicode="K" glyph-name="K" horiz-adv-x="957" d="M1152 -85L499 -83L702 2L442 372L327 308L324 91L597 -4L-29 -3L174 90L145 648L-72 728L563 753L340 659L332 409L673 612L489 689H1067L810 593L554 431L899 12L1152 -85Z" />
<glyph unicode="L" glyph-name="L" horiz-adv-x="730" d="M721 41L-52 7L186 122L155 709L-92 803L579 805L352 708L342 124L586 116L721 463V41Z" />
<glyph unicode="M" glyph-name="M" horiz-adv-x="1058" d="M1140 -5L572 6L731 80L730 489L511 47L272 463L287 60L578 -26H-76L189 59L147 628L-82 727L349 723L538 340L760 743L1136 729L931 647L903 79L1140 -5Z" />
<glyph unicode="N" glyph-name="N" horiz-adv-x="861" d="M974 746L753 640L739 -54L255 510L266 124L586 5L-92 8L158 121V615L-84 727L330 721L656 316L653 625L384 735L974 746Z" />
<glyph unicode="O" glyph-name="O" horiz-adv-x="828" d="M808 312Q808 230 772 170T679 69T550 8T406 -12Q334 -12 265 9T141 70T53 171T20 312Q20 400 55 461T148 559T280 614T431 631Q503 631 570 611T691 550T776 450T808 312ZM617 314Q617 355 605 394T569
464T511 513T431 532Q384 532 344 516T273 472T226 404T209 318Q209 275 220 234T255 159T315 106T400 86Q454 86 495 102T563 149T603 221T617 314Z" />
<glyph unicode="P" glyph-name="P" horiz-adv-x="764" d="M774 465Q774 428 748 401T681 353T589 318T489 295T397 282T329 276L337 72L569 -24L-62 -32L153 81L144 550L-92 657L389 644Q416 643 455 640T537 630T622 610T698 578T753 531T774 465ZM636 465Q636
483 622 496T586 519T537 535T484 545T437 550T403 552Q380 552 356 551T309 548L314 364Q327 362 338 362T362 362Q376 362 401 363T457 369T519 381T577 400T619 428T636 465Z" />
<glyph unicode="Q" glyph-name="Q" horiz-adv-x="808" d="M926 -121L256 -309L451 -142L410 20Q336 19 268 39T147 101T63 204T31 345Q31 430 63 491T150 590T274 646T422 664Q493 664 558 643T673 581T752 481T782 345Q782 290 766 243T719 158T648 92T555 46Q569
14 587 -16T623 -77L926 -121ZM601 347Q601 386 589 425T555 495T499 545T422 565Q376 565 338 549T271 503T227 435T211 351Q211 309 221 268T254 193T311 140T393 119Q447 119 486 136T550 183T588 255T601 347Z" />
<glyph unicode="R" glyph-name="R" horiz-adv-x="846" d="M1122 -15L516 -257L667 -90L458 294Q428 290 399 287T339 282L347 77L580 -18L-52 -27L163 86L155 555L-82 663L399 649Q426 648 465 645T547 635T632 615T708 583T763 536T784 470Q784 453 776 438T755
410T725 385T690 363Q649 340 597 322L826 -11L1122 -15ZM646 470Q646 488 632 501T596 525T546 541T492 551T445 556T411 558Q388 558 365 557T319 554L325 369Q337 368 348 368T373 368Q386 368 411 369T467 375T529 387T587 405T629 433T646 470Z" />
<glyph unicode="S" glyph-name="S" horiz-adv-x="677" d="M667 183Q667 124 636 84T558 18T456 -18T353 -30Q293 -30 233 -12T123 42L44 -119L80 254Q93 209 118 173T178 110T253 70T342 56Q359 56 382 59T427 72T464 96T479 133Q479 161 457 182T403 217T339
241T286 254Q245 262 197 276T108 313T38 372T10 460Q10 520 38 560T109 625T205 659T308 669Q380 669 437 652T557 600L657 722L620 393Q595 433 562 468T488 529T403 571T309 587Q292 587 270 583T226 569T191 544T176 507Q176 486 193 472T235 448T285 432T325
423Q370 413 429 396T541 351T630 282T667 183Z" />
<glyph unicode="T" glyph-name="T" horiz-adv-x="773" d="M732 678L690 326L605 592L472 594L456 90L682 -19L81 -13L300 95L286 596L162 597L71 328L41 688L732 678Z" />
<glyph unicode="U" glyph-name="U" horiz-adv-x="743" d="M825 667L687 589L673 246Q670 174 648 122T585 37T488 -11T361 -27Q299 -27 247 -8T157 47T98 134T77 249Q77 330 80 412T87 577L-92 659L410 624L272 566Q270 488 269 410T267 253Q267 220 276 188T303
130T350 88T416 72Q456 72 488 85T543 123T576 180T587 253Q587 255 587 254T587 256T586 277T584 330T580 430T573 591L416 674L825 667Z" />
<glyph unicode="V" glyph-name="V" horiz-adv-x="805" d="M938 607L725 546L399 -82L81 573L-143 605L442 741L258 612L445 191L640 564L460 683L938 607Z" />
<glyph unicode="W" glyph-name="W" horiz-adv-x="1051" d="M1204 600L984 538L734 -104L543 296L351 -106L69 560L-143 624L472 672L261 563L380 243L555 621L771 227L894 549L642 668L1204 600Z" />
<glyph unicode="X" glyph-name="X" horiz-adv-x="881" d="M973 -29L390 -52L551 36L402 221L237 87L372 1L-102 15L122 111L345 301L161 531L-48 589L517 634L343 549L466 400L593 509L482 573L934 595L705 488L530 336L745 63L973 -29Z" />
<glyph unicode="Y" glyph-name="Y" horiz-adv-x="869" d="M941 585L719 492L519 272L543 22L801 -67L171 -71L369 15L379 260L127 547L-133 642L424 669L294 588L488 355L644 511L493 602L941 585Z" />
<glyph unicode="Z" glyph-name="Z" horiz-adv-x="702" d="M737 627L334 113L552 104L691 359L672 16L10 22L439 527L151 517L105 276L15 608L737 627Z" />
<glyph unicode="[" glyph-name="bracketleft" horiz-adv-x="390" d="M462 830L228 719L216 -13L430 -123L88 -121L61 842L462 830Z" />
<glyph unicode="\" glyph-name="backslash" horiz-adv-x="697" d="M687 -2L558 -79L10 806L164 905L687 -2Z" />
<glyph unicode="]" glyph-name="bracketright" horiz-adv-x="380" d="M339 842L312 -121L-30 -123L185 -13L173 719L-61 830L339 842Z" />
<glyph unicode="^" glyph-name="asciicircum" horiz-adv-x="688" d="M689 343L599 331L360 629L182 286L-10 337L330 912L689 343Z" />
<glyph unicode="_" glyph-name="underscore" horiz-adv-x="861" d="M861 -111L0 -96V68L855 80L861 -111Z" />
<glyph unicode="`" glyph-name="grave" horiz-adv-x="724" d="M507 638L405 594L298 791L434 852L507 638Z" />
<glyph unicode="a" glyph-name="a" horiz-adv-x="586" d="M657 -10L340 -23L347 33Q315 29 283 29T219 28Q190 28 155 35T90 57T40 98T20 159Q20 199 39 227T87 272T153 297T223 305Q265 305 305 301T386 294Q388 307 389 320T390 348Q390 375 386 401T370 447T338
480T285 492Q255 492 231 483T187 450Q201 439 206 426T211 395V389Q196 319 123 319Q90 319 69 342T48 398Q48 442 73 474T134 527T213 558T292 568Q407 568 471 515T536 342Q536 329 536 316T534 290L510 60Q548 43 584 25T657 -10ZM375 227Q349 230 323 233T271
237Q254 237 238 234T208 222T186 201T178 167Q178 152 185 141T203 121T228 109T255 105Q281 105 307 108T359 114L375 227Z" />
<glyph unicode="b" glyph-name="b" horiz-adv-x="741" d="M731 120Q731 64 700 21T623 -52T521 -100T419 -122L-29 -160L136 -27L109 628L-143 710L299 768L280 288Q324 301 370 306T463 311Q509 311 556 302T643 270T706 212T731 120ZM554 92Q554 125 542 149T510
190T462 215T403 224Q375 224 338 217T275 196L265 -42Q278 -44 290 -44T315 -44Q350 -44 391 -40T469 -21T529 20T554 92Z" />
<glyph unicode="c" glyph-name="c" horiz-adv-x="604" d="M594 204Q595 140 577 90T523 6T437 -45T324 -63Q263 -63 210 -43T117 14T54 102T31 216Q31 282 57 336T127 428T228 486T349 507Q383 507 423 496T499 464T558 412T582 340Q582 302 559 279T498 256Q460
256 433 277T406 338Q406 351 408 365T418 391Q401 405 381 411T340 417Q302 417 276 399T233 352T209 290T202 224Q202 185 214 153T249 97T304 60T377 46Q413 46 445 60T504 96T553 147T594 204Z" />
<glyph unicode="d" glyph-name="d" horiz-adv-x="731" d="M834 -121L488 -169L493 -82Q464 -89 434 -92T374 -95Q315 -95 256 -82T149 -38T71 40T41 157Q41 213 65 257T128 333T216 382T318 399Q369 399 420 389T517 357L535 702L314 807L726 778L618 -70L834
-121ZM511 264Q482 284 439 293T361 302Q325 302 295 290T243 256T209 204T197 137Q197 98 216 70T265 23T331 -4T400 -13Q450 -13 499 7L511 264Z" />
<glyph unicode="e" glyph-name="e" horiz-adv-x="608" d="M598 182Q598 175 598 168T597 154L190 146Q203 87 249 59T353 31Q381 31 410 35T467 48T520 71T565 106Q554 64 528 32T467 -21T390 -52T307 -63Q251 -63 201 -43T113 12T53 96T31 203Q31 264 56 314T122
399T217 454T330 473Q392 473 441 450T526 387T579 295T598 182ZM445 233Q443 260 434 285T409 329T371 359T318 371Q288 371 266 360T229 331T205 288T190 237L445 233Z" />
<glyph unicode="f" glyph-name="f" horiz-adv-x="520" d="M582 786Q582 754 560 733T506 711Q474 711 450 732T425 787Q425 821 452 843Q445 866 428 881T386 897Q354 897 336 876T308 824T297 760T295 705Q295 657 299 610T308 514H504V423H323L376 -35Q378 -58
380 -81T383 -128Q383 -180 369 -230T327 -320T255 -384T153 -409Q113 -409 77 -395T12 -354T-34 -293T-51 -216Q-51 -183 -29 -162T25 -141Q40 -141 54 -146T80 -162T98 -185T105 -215Q105 -247 81 -271Q88 -293 105 -308T145 -324Q172 -324 189 -308T217 -268T230
-218T234 -171Q234 -133 230 -95T219 -19L218 -18L164 423H15V514H154Q149 552 147 589T144 664Q144 720 155 777T193 879T264 954T376 983Q417 983 454 968T519 927T565 864T582 786Z" />
<glyph unicode="g" glyph-name="g" horiz-adv-x="621" d="M672 540Q672 522 665 505T646 475T618 453T584 444Q547 444 525 470T502 531V535Q497 536 492 529T481 511T471 492T464 478Q524 444 559 388T595 262Q595 208 573 161T513 80T426 26T324 6Q304 6 284
7T244 14Q230 5 230 -7Q230 -19 249 -25T293 -35T341 -39T373 -40Q427 -43 478 -59T568 -105T631 -181T655 -286Q655 -349 623 -392T543 -461T437 -498T328 -510Q276 -510 219 -499T113 -461T32 -392T0 -286Q0 -223 35 -182T123 -113Q97 -102 78 -84T59 -36Q59
-18 66 -4T86 21T114 39T145 52Q91 87 58 141T25 262Q25 319 49 366T113 448T204 501T310 520Q346 520 384 511Q395 535 410 558T444 601T487 632T540 644Q562 644 585 637T628 617T659 584T672 540ZM443 262Q443 290 435 322T411 382T369 427T310 445Q276 445
251 427T209 382T184 323T175 262Q175 233 183 201T208 141T250 96T310 78Q344 78 369 96T410 141T435 201T443 262ZM499 -286Q499 -249 485 -222T447 -177T392 -151T328 -142Q295 -142 264 -150T210 -177T172 -222T158 -286Q158 -323 172 -350T209 -394T264 -420T328
-429Q361 -429 392 -421T447 -395T485 -350T499 -286Z" />
<glyph unicode="h" glyph-name="h" horiz-adv-x="695" d="M787 -71L368 -59L510 18V201Q510 263 478 297T384 331Q358 331 326 326T270 308Q267 251 265 195T260 81L387 5L-32 -12L129 77L103 749L-143 814L295 879L274 399Q299 407 325 410T377 413H381Q424 413
474 405T566 376T637 320T665 230Q665 211 662 183T653 125T642 68T632 22L787 -71Z" />
<glyph unicode="i" glyph-name="i" horiz-adv-x="403" d="M339 707Q339 685 331 666T308 632T274 609T232 600Q210 600 191 608T158 631T135 665T126 707Q126 729 134 748T157 781T191 804T232 813Q254 813 273 805T307 782T330 748T339 707ZM456 -2L8 6L174 109L160
441L-31 531H336L303 102L456 -2Z" />
<glyph unicode="j" glyph-name="j" horiz-adv-x="395" d="M276 644Q276 622 268 603T245 570T212 547T170 539Q148 539 129 547T95 569T72 603T63 644Q63 666 71 685T94 719T128 742T170 751Q192 751 211 743T245 720T267 686T276 644ZM355 -94Q355 -153 343 -200T305
-280T235 -331T130 -349Q93 -349 57 -337T-7 -302T-54 -247T-72 -175Q-72 -141 -51 -119T5 -97Q37 -97 61 -118T86 -173Q86 -190 79 -204T58 -228Q69 -250 85 -261T127 -273Q153 -273 169 -264T195 -240T208 -205T212 -162Q212 -141 210 -120T206 -78Q193 37 181
149T153 376L-36 455L302 495L344 75Q349 32 352 -10T355 -94Z" />
<glyph unicode="k" glyph-name="k" horiz-adv-x="767" d="M890 -2L407 -105L567 15L364 326L285 273L281 90L481 10L-52 -11L145 89L103 738L-133 793L301 826L289 381L501 561L343 655H857L627 547L461 421L686 50L890 -2Z" />
<glyph unicode="l" glyph-name="l" horiz-adv-x="378" d="M429 -61L-26 -78L145 31L112 787L-123 874L300 879L270 36L429 -61Z" />
<glyph unicode="m" glyph-name="m" horiz-adv-x="1014" d="M1096 106L685 124L819 189Q821 220 822 250T824 312Q824 338 820 358T806 393T778 416T731 424Q707 424 688 413T656 385T635 346T625 302Q620 260 616 217T608 132L741 66L307 63L494 135V315Q494 341
485 365T459 408Q444 422 426 426T387 431Q360 431 330 422T284 388L262 194L394 121L-17 119L151 188L121 429Q92 437 54 447T-19 469Q-59 481 -102 494L295 560L290 499Q329 524 370 533T454 542Q497 542 531 525T595 478Q639 501 689 519T790 537Q834 537 866
523T920 484T951 424T962 347Q962 328 960 302T954 249Q950 219 947 187L1096 106Z" />
<glyph unicode="n" glyph-name="n" horiz-adv-x="659" d="M741 66L307 63L494 135V315Q494 368 468 399T387 431Q360 431 330 422T284 388L262 194Q272 186 293 174T338 150Q364 136 394 121L-17 119L151 188L121 429Q92 437 54 447T-19 469Q-59 481 -102 494L295
560L290 499Q325 513 365 527T443 541Q534 541 584 492T634 351Q634 328 632 300T625 242T617 185T608 132L741 66Z" />
<glyph unicode="o" glyph-name="o" horiz-adv-x="722" d="M712 242Q712 173 678 126T590 49T473 6T353 -8Q297 -8 237 6T126 50T43 127T10 242Q10 315 45 363T133 439T251 478T376 489Q431 489 490 475T599 432T680 355T712 242ZM547 244Q547 280 534 310T497
362T442 396T376 408Q340 408 304 398T239 367T192 317T174 247Q174 208 186 176T222 121T278 86T349 73Q391 73 427 82T490 113T532 166T547 244Z" />
<glyph unicode="p" glyph-name="p" horiz-adv-x="741" d="M731 259Q731 203 708 159T646 85T558 39T456 23Q413 23 371 29T288 51L291 -144L498 -228L-73 -251L150 -151Q148 -114 146 -69T140 26T134 125T128 222Q121 331 114 445L-123 526L286 571V473Q357 493
429 493Q483 493 536 480T633 439T704 367T731 259ZM579 267Q579 306 562 333T518 377T458 403T391 411Q364 411 338 405T287 387V141Q316 127 351 120T418 113Q453 113 482 123T533 154T567 202T579 267Z" />
<glyph unicode="q" glyph-name="q" horiz-adv-x="699" d="M833 580L626 480L589 -128L820 -228L244 -205L447 -121L451 73Q411 57 369 51T285 44Q233 44 184 60T96 106T34 181T10 281Q10 344 37 388T106 460T202 500T310 513Q345 513 381 509T453 494V575L833
580ZM453 408Q402 431 349 431Q317 431 284 424T224 399T180 356T163 291Q163 218 206 177T323 136Q352 136 388 142T452 164L453 408Z" />
<glyph unicode="r" glyph-name="r" horiz-adv-x="610" d="M641 488Q641 447 616 421T549 394Q518 394 501 405T473 431T450 457T417 469Q380 469 358 446T325 390Q324 388 324 371T322 328T320 271T318 212T316 163T315 134L558 46L-20 -13Q32 20 84 52T188 117L151
466L-72 526L331 614L329 522Q371 551 415 571T514 592Q532 592 551 588T587 576T617 555T636 522Q641 504 641 488Z" />
<glyph unicode="s" glyph-name="s" horiz-adv-x="546" d="M546 169Q546 119 523 87T465 37T387 11T304 3Q281 3 254 6T199 17T147 34T101 58L20 -37L51 269Q68 232 94 199T155 141T228 102T309 87Q320 87 334 88T362 95T385 109T394 133Q394 150 376 164T334 189T286
207T250 219Q216 229 176 246T101 288T43 346T20 424Q20 466 40 499T93 554T164 588T242 600Q302 600 355 579T453 517L515 637L502 321Q484 355 457 389T397 452T326 497T247 514Q235 514 220 512T191 503T168 487T158 460Q158 441 172 427T207 403T249 385T285
373Q321 361 366 345T451 306T518 250T546 169Z" />
<glyph unicode="t" glyph-name="t" horiz-adv-x="433" d="M459 646L450 552Q401 556 353 559T256 568Q248 473 239 379T221 190Q221 185 220 180T219 170Q219 156 222 142T232 116T250 97T279 89Q312 89 337 104T379 144T406 197T419 256Q431 209 431 163Q431
119 417 84T378 23T318 -17T241 -31Q197 -31 164 -16T110 25T78 88T67 165Q67 173 67 180T68 195Q76 292 83 386T97 578Q70 580 44 582T-10 588L-6 667Q15 668 38 674T82 690T122 714T153 746Q164 764 173 785T190 829T203 874T210 918L292 916L266 666L459 646Z"
/>
<glyph unicode="u" glyph-name="u" horiz-adv-x="629" d="M711 3L437 -48L440 42Q429 28 412 18T376 1T336 -9T298 -12Q173 -12 118 48T63 229Q63 276 64 321T66 412Q27 435 -13 457T-92 502L232 504Q225 432 216 353T206 202Q206 139 234 110T325 81Q357 81 389
99T440 142L453 398L274 485L618 488L550 62L711 3Z" />
<glyph unicode="v" glyph-name="v" horiz-adv-x="655" d="M778 449L573 365L348 -85L52 434L-133 485L374 565L219 459L366 159L480 378L304 484L778 449Z" />
<glyph unicode="w" glyph-name="w" horiz-adv-x="825" d="M979 538L784 469L560 -20L418 268L289 -17L55 467L-133 545L392 569L223 498L327 265L451 552L583 258L685 479L540 557L979 538Z" />
<glyph unicode="x" glyph-name="x" horiz-adv-x="735" d="M848 11L322 -46L474 43L352 178L274 108L415 30L-61 57L151 127L289 247L103 462L-113 505L469 579L276 493L399 349L486 425L341 488L826 500L611 409L447 284L614 72L848 11Z" />
<glyph unicode="y" glyph-name="y" horiz-adv-x="671" d="M640 472L615 -124Q612 -199 591 -261T531 -367T432 -436T293 -460Q249 -460 204 -447T123 -409T63 -346T40 -260Q40 -222 64 -198T126 -173Q158 -173 180 -197T202 -252Q202 -272 190 -289T160 -314Q182
-343 217 -358T287 -373Q339 -373 370 -347T419 -282T442 -198T452 -112Q454 -71 454 -32T457 48Q410 36 370 28T281 19Q232 19 188 30T110 65T56 127T36 219Q36 234 41 259T54 312T70 364T82 402L-61 560L282 442Q276 425 266 393T244 327T225 261T217 214Q217
189 229 171T259 141T300 124T345 118Q371 118 403 123T461 139L463 388L273 511L640 472Z" />
<glyph unicode="z" glyph-name="z" horiz-adv-x="563" d="M604 536L278 95L433 79L530 296L547 -19L10 18L349 443L144 436L75 211L14 521L604 536Z" />
<glyph unicode="{" glyph-name="braceleft" horiz-adv-x="725" d="M653 830L419 719L407 -13L622 -123L280 -121L268 290L72 348L263 411L253 842L653 830Z" />
<glyph unicode="|" glyph-name="bar" horiz-adv-x="312" d="M241 859L227 -76H83L72 852L241 859Z" />
<glyph unicode="}" glyph-name="braceright" horiz-adv-x="530" d="M571 348L375 290L364 -121L22 -123L237 -13L224 719L-10 830L390 842L379 411L571 348Z" />
<glyph unicode="~" glyph-name="asciitilde" horiz-adv-x="478" d="M478 261Q445 247 413 238T345 228Q313 228 284 236T227 253T175 270T129 278Q115 278 97 271T61 253T27 231T0 214V383Q32 394 65 404T134 415Q165 415 194 408T250 391T300 375T342 367Q357
367 375 374T413 391T449 411T478 429V261Z" />
<glyph unicode="&#xa0;" glyph-name="uni00A0" horiz-adv-x="328" />
<glyph unicode="&#xa1;" glyph-name="exclamdown" horiz-adv-x="313" d="M313 481Q313 459 304 444T279 419T244 405T207 400Q190 400 174 406T145 424T125 451T117 485Q117 504 125 518T147 541T176 554T209 558Q225 558 243 553T277 538T303 514T313 481ZM252
349L224 -317L10 -302L132 362L252 349Z" />
<glyph unicode="&#xa2;" glyph-name="cent" horiz-adv-x="428" d="M439 275Q439 243 429 211T399 151T352 103T291 74Q296 28 298 -16T302 -106H162Q164 -62 166 -18T174 71Q129 80 95 103T38 160T2 233T-10 318Q-10 362 2 402T38 476T95 535T172 572Q169 612
167 651T162 731H302Q300 693 298 655T292 578Q314 573 338 560T382 528T415 485T428 436Q428 410 411 393T367 375Q338 375 318 393T297 440Q297 465 309 483Q296 500 277 507T237 514Q202 514 179 495T142 447T123 386T117 326Q117 291 125 260T151 205T195 167T259
153H262Q291 153 317 164T366 193T407 234T439 281V275Z" />
<glyph unicode="&#xa3;" glyph-name="sterling" horiz-adv-x="674" d="M684 325L664 -45L69 -20Q101 17 131 64T177 160L0 167L6 260L186 264Q182 281 175 295T160 324L0 319L5 443L113 439Q112 447 112 454T112 468Q112 516 135 554T194 619T274 660T362 675Q417
675 469 655T560 597L668 741L610 297Q602 335 588 374T554 448T505 513T439 559Q427 565 410 570T379 575Q351 575 330 565T295 537T274 496T267 447Q267 443 267 440T268 433L487 424L481 331L294 327Q299 312 302 298T309 267L487 271L482 147L299 155Q294 135
287 116T269 80Q346 82 422 84T574 88Q603 146 630 205T684 325Z" />
<glyph unicode="&#xa4;" glyph-name="currency" horiz-adv-x="367" d="M239 369Q239 389 224 403T188 418Q168 418 154 404T139 369Q139 349 155 336T188 323Q207 323 223 336T239 369ZM367 464L315 417Q324 394 324 371Q324 354 320 339T308 309L364 249L298
190L239 246Q227 241 215 239T188 236Q161 236 132 249L62 184L4 251L66 315Q53 341 53 371Q53 391 61 415L0 473L84 553L137 496Q162 507 188 507Q202 507 214 505T238 497L288 549L367 464Z" />
<glyph unicode="&#xa5;" glyph-name="yen" horiz-adv-x="816" d="M847 602L631 519L437 322L439 310L587 306L577 248L447 245L450 214L586 217L580 137L459 141L460 90L711 16L88 13L317 91L318 146L162 153L175 208L323 211L324 243L165 240L171 321L324 314L83
567L-133 628L345 678L218 605L408 396L558 536L411 617L847 602Z" />
<glyph unicode="&#xa6;" glyph-name="brokenbar" horiz-adv-x="312" d="M232 304L227 -76H83L78 314Q113 311 154 309T232 304ZM241 859L236 499Q195 497 152 494T76 489L72 852L241 859Z" />
<glyph unicode="&#xa7;" glyph-name="section" horiz-adv-x="662" d="M622 -28Q622 -85 599 -123T537 -185T452 -219T355 -229Q325 -229 294 -224T231 -210T172 -186T121 -152Q103 -187 85 -221T44 -286L73 72Q94 30 123 -8T188 -76T268 -124T361 -142Q379 -142
398 -139T432 -127T458 -105T469 -70Q469 -44 450 -24T403 12T346 38T296 56Q253 72 208 94T126 148T65 221T41 314Q41 374 68 418T144 496Q100 531 71 574T41 676Q41 725 61 765T116 835T194 880T284 897Q359 897 418 865T528 779L585 928L572 582Q551 620 523
660T459 732T381 786T290 807Q271 807 252 803T216 788T189 762T178 724Q178 697 194 677T233 641T282 616T330 597Q374 579 425 559T520 509T593 438T622 339Q622 269 594 229T503 159Q529 141 551 123T588 82T613 33T622 -28ZM469 292Q469 322 442 345T379 386T304
416T243 438Q217 430 198 411T178 362Q178 342 185 328T203 302T230 282T261 265Q288 252 316 241T372 219Q388 220 405 224T436 237T460 259T469 292Z" />
<glyph unicode="&#xa8;" glyph-name="dieresis" horiz-adv-x="726" d="M517 907Q517 881 499 862T454 842Q428 842 410 861T391 907Q391 933 409 950T454 968Q480 968 498 951T517 907ZM335 907Q335 881 317 862T272 842Q245 842 227 861T209 907Q209 933 227
950T272 968Q298 968 316 951T335 907Z" />
<glyph unicode="&#xa9;" glyph-name="copyright" horiz-adv-x="717" d="M717 372Q717 295 687 235T605 132T488 68T349 46Q278 46 215 69T104 134T28 236T0 371Q0 454 29 514T109 614T228 672T373 691Q443 691 505 669T615 605T689 504T717 372ZM609 374Q609 423
592 466T544 541T471 591T378 609Q327 609 278 594T190 549T128 476T104 378Q104 326 120 280T167 200T241 146T341 126Q401 126 450 141T535 188T590 265T609 374ZM512 334Q512 301 500 274T467 226T418 195T358 184Q320 184 289 198T236 237T202 295T190 365Q190
404 203 438T241 498T298 539T373 554Q393 554 416 547T458 526T491 493T504 450Q504 430 491 418T459 406Q439 406 425 419T410 453Q410 469 419 483Q409 495 395 500T367 505Q342 505 326 492T299 458T285 414T281 371Q281 348 287 326T307 286T339 258T385 247Q406
247 424 255T459 275T489 304T512 338V334Z" />
<glyph unicode="&#xaa;" glyph-name="ordfeminine" horiz-adv-x="409" d="M451 409L206 393L210 431Q186 428 160 428Q136 428 107 431T51 444T8 473T-10 524Q-10 555 3 575T38 608T86 626T138 632Q163 632 188 630T238 625Q239 632 239 638T240 653Q240 669 238
684T229 712T210 733T178 741Q167 741 151 740T124 731Q139 716 139 695Q139 667 118 652T71 636Q45 636 27 652T8 694Q8 726 26 748T70 784T126 804T182 810Q265 810 310 773T356 648Q356 639 356 631T354 612L340 463L451 409ZM228 564Q214 566 200 567T171 569Q151
569 135 561T118 529Q118 515 132 506T160 497Q174 497 190 498T220 502L228 564Z" />
<glyph unicode="&#xab;" glyph-name="guillemotleft" horiz-adv-x="435" d="M425 46L391 -30L206 222V258L391 512L425 434L339 241L425 46ZM229 46L196 -30L10 222V258L196 512L229 434L144 241L229 46Z" />
<glyph unicode="&#xac;" glyph-name="logicalnot" horiz-adv-x="555" d="M350 83L445 147L409 298L80 291L20 152L22 596L80 443L462 424L543 571L516 142L616 61L350 83Z" />
<glyph unicode="&#xad;" glyph-name="sfthyphen" horiz-adv-x="543" d="M543 419L535 282L0 265L5 446L543 419Z" />
<glyph unicode="&#xae;" glyph-name="registered" horiz-adv-x="717" d="M717 364Q717 287 687 227T605 124T488 60T349 38Q278 38 215 61T104 126T28 228T0 362Q0 446 29 506T109 606T228 663T373 682Q443 682 505 660T615 596T689 496T717 364ZM609 366Q609
415 592 458T544 533T471 583T378 601Q327 601 278 586T190 540T128 467T104 370Q104 317 120 271T167 191T241 138T341 118Q401 118 450 133T535 180T590 257T609 366ZM550 453Q550 430 536 415T499 400Q483 400 474 404T458 414T444 424T426 429Q405 429 393
417T375 386Q375 385 374 367T373 326T371 283T370 257L504 208L212 186Q234 202 255 217T300 248L279 440Q253 448 226 456T173 474Q224 485 275 498T379 522L377 471Q401 488 425 499T479 510Q506 510 528 497T550 453Z" />
<glyph unicode="&#xaf;" glyph-name="overscore" horiz-adv-x="722" d="M543 741H259V875H543V741Z" />
<glyph unicode="&#xb0;" glyph-name="degree" horiz-adv-x="373" d="M322 596Q322 569 311 545T282 502T238 472T186 461Q159 461 135 472T92 501T62 544T51 596Q51 623 62 648T92 691T135 721T186 732Q213 732 238 721T281 692T311 648T322 596ZM237 594Q237
614 222 628T186 643Q166 643 152 629T137 594Q137 574 153 561T186 548Q205 548 221 561T237 594Z" />
<glyph unicode="&#xb1;" glyph-name="plusminus" horiz-adv-x="622" d="M601 489L593 362L380 357L370 198L242 207L236 353L20 348L27 515L233 507L227 647L395 641L386 500L601 489ZM594 150L586 23L31 7L36 178L594 150Z" />
<glyph unicode="&#xb2;" glyph-name="twosuperior" horiz-adv-x="451" d="M440 658L415 376L0 393L3 422Q8 470 33 503T92 561T164 605T235 644T288 688T310 746Q310 775 288 791T238 808Q194 808 166 782T120 718T93 638T77 564L38 926Q57 907 76 889T113 850Q171
899 247 899Q279 899 312 889T373 858T417 809T435 744Q435 702 421 675T382 628T329 594T270 565T213 532T167 486L329 490Q355 534 383 575T440 658Z" />
<glyph unicode="&#xb3;" glyph-name="threesuperior" horiz-adv-x="453" d="M442 513Q442 473 423 443T375 392T309 362T236 351Q198 351 162 364T97 402Q77 379 55 356T10 310L77 601L89 562Q96 540 108 519T138 480T177 453T223 442Q236 442 249 446T272 457T290
476T297 502Q297 520 289 532T268 552T240 562T209 565Q195 565 183 565T158 563L160 659Q177 656 194 653T229 650Q242 650 256 653T281 664T299 683T306 711Q306 726 299 738T282 758T257 772T230 777Q206 777 185 766T146 738T115 699T92 657L78 623L17 925Q40
899 62 874T105 822Q162 868 236 868Q269 868 303 859T364 830T410 783T428 718Q428 689 420 665T391 621Q415 601 428 573T442 513Z" />
<glyph unicode="&#xb4;" glyph-name="acute" horiz-adv-x="711" d="M494 941L391 752L296 793L366 999L494 941Z" />
<glyph unicode="&#xb5;" glyph-name="mu" horiz-adv-x="1024" d="M298 -2L297 -269L169 -261L158 412Q127 429 98 446Q73 460 47 475T0 502L325 504Q317 432 308 353T298 202Q298 139 326 110T417 81Q449 81 481 99T532 142L545 398L367 485L711 488L642 62L803
3L529 -48L532 42Q521 28 504 18T468 1T428 -9T390 -12Q337 -12 298 -2Z" />
<glyph unicode="&#xb6;" glyph-name="paragraph" horiz-adv-x="801" d="M852 678L613 570L606 101L813 -6L55 -38L305 48L308 307Q287 309 255 315T186 331T113 355T47 388T-1 431T-20 484Q-20 522 1 549T55 597T131 629T215 649T297 660T364 664L535 669Q614
671 693 673T852 678ZM506 567Q487 568 469 568T432 569L425 383Q444 383 462 383T500 384L506 567ZM312 572Q296 571 264 566T200 551T143 524T118 484Q118 459 141 442T196 412T260 394T310 386L312 572ZM498 295L422 296L414 89Q433 94 452 101T488 117L498
295Z" />
<glyph unicode="&#xb7;" glyph-name="middot" horiz-adv-x="232" d="M222 385Q222 364 213 349T190 322T157 306T119 300Q101 300 82 305T46 320T20 346T10 383Q10 405 19 422T44 450T79 468T118 474Q136 474 154 468T188 449T212 421T222 385Z" />
<glyph unicode="&#xb8;" glyph-name="cedilla" horiz-adv-x="799" d="M519 -67Q519 -94 510 -116T485 -155T445 -181T395 -190Q355 -190 331 -174T280 -130L335 -69Q346 -80 361 -94T393 -108Q413 -108 424 -97T435 -67Q435 -47 424 -38T395 -25Q366 -19 338 -16T281
-7L370 129H440Q429 111 425 91T410 53Q434 53 454 43T488 17T511 -21T519 -67Z" />
<glyph unicode="&#xb9;" glyph-name="onesuperior" horiz-adv-x="400" d="M390 359L45 361Q77 383 109 404T174 445L161 767Q117 777 75 788T-10 811Q69 831 147 851T305 889L292 443Q318 426 342 404T390 359Z" />
<glyph unicode="&#xba;" glyph-name="ordmasculine" horiz-adv-x="460" d="M470 609Q470 561 446 527T385 472T304 441T220 431Q180 431 138 441T60 472T3 528T-20 609Q-20 660 4 693T65 747T147 776T234 784Q274 784 315 774T391 743T448 688T470 609ZM342 610Q342
656 311 684T234 713Q212 713 190 707T149 688T118 656T106 611Q106 563 137 533T217 502Q244 502 266 508T306 527T332 560T342 610Z" />
<glyph unicode="&#xbb;" glyph-name="guillemotright" horiz-adv-x="425" d="M425 222L240 -30L206 46L292 241L206 434L240 512L425 258V222ZM229 222L44 -30L10 46L96 241L10 434L44 512L229 258V222Z" />
<glyph unicode="&#xbc;" glyph-name="onequarter" horiz-adv-x="941" d="M941 -86L502 -89L699 -11L696 69L445 65L823 512L814 145H825L903 287L892 -27L829 71H811L808 -13L941 -86ZM853 829L249 -139L159 -86L729 885L740 905L853 829ZM390 359L45 361Q77 383
109 404T174 445L161 767Q117 777 75 788T-10 811Q69 831 147 851T305 889L292 443Q318 426 342 404T390 359ZM693 143L692 218Q676 200 661 181T628 142L693 143Z" />
<glyph unicode="&#xbd;" glyph-name="onehalf" horiz-adv-x="1032" d="M1023 139L997 -143L583 -127L586 -97Q591 -49 615 -16T674 42T747 86T817 125T871 168T893 226Q893 256 870 272T820 288Q776 288 748 262T702 199T675 119T658 45L621 407Q640 388 659 370T695
331Q724 354 758 367T828 380Q860 380 894 370T955 339T1000 290T1018 225Q1018 183 1003 155T965 108T912 74T852 45T795 12T750 -34L911 -29Q937 15 965 56T1023 139ZM853 829L249 -139L159 -86L729 885L740 905L853 829ZM390 359L45 361Q77 383 109 404T174
445L161 767Q117 777 75 788T-10 811Q69 831 147 851T305 889L292 443Q318 426 342 404T390 359Z" />
<glyph unicode="&#xbe;" glyph-name="threequarters" horiz-adv-x="959" d="M959 -86L520 -89L718 -11L715 69L464 65L842 512L833 145H844L922 287L910 -27L848 71H829L826 -13L959 -86ZM871 829L267 -139L177 -86L748 885L759 905L871 829ZM442 513Q442 473
423 443T375 392T309 362T236 351Q198 351 162 364T97 402Q77 379 55 356T10 310L77 601L89 562Q96 540 108 519T138 480T177 453T223 442Q236 442 249 446T272 457T290 476T297 502Q297 520 289 532T268 552T240 562T209 565Q195 565 183 565T158 563L160 659Q177
656 194 653T229 650Q242 650 256 653T281 664T299 683T306 711Q306 726 299 738T282 758T257 772T230 777Q206 777 185 766T146 738T115 699T92 657L78 623L17 925Q40 899 62 874T105 822Q162 868 236 868Q269 868 303 859T364 830T410 783T428 718Q428 689 420
665T391 621Q415 601 428 573T442 513ZM712 143L711 218Q694 200 679 181T646 142L712 143Z" />
<glyph unicode="&#xbf;" glyph-name="questiondown" horiz-adv-x="582" d="M572 501Q572 480 563 465T540 439T507 424T471 419Q450 419 428 424T388 441T358 470T346 512Q346 532 355 547T378 571T410 586T446 591Q465 591 487 585T528 568T559 540T572 501ZM592
1L518 -338L459 -237Q425 -245 389 -247T318 -249Q262 -249 204 -235T98 -190T20 -111T-10 4Q-10 63 13 106T74 176T161 217T264 231Q271 231 277 231T291 230L356 384L478 352L445 110Q413 122 384 131T321 141Q288 141 258 131T205 101T168 53T154 -9Q154 -48
174 -78T225 -130T293 -162T365 -173Q411 -173 443 -159T501 -120T547 -64T592 1Z" />
<glyph unicode="&#xc0;" glyph-name="Agrave" horiz-adv-x="807" d="M1012 -98L478 -231L616 -87Q590 -26 564 35T509 157Q437 152 366 152T222 146Q208 120 195 95T167 43L349 -76L-164 -42L82 62L337 549L68 686L452 670L798 -35L1012 -98ZM473 244Q450 294
426 343T379 442Q353 394 328 348T276 253L473 244ZM467 812L365 768L258 965L394 1026L467 812Z" />
<glyph unicode="&#xc1;" glyph-name="Aacute" horiz-adv-x="807" d="M1012 -98L478 -231L616 -87Q590 -26 564 35T509 157Q437 152 366 152T222 146Q208 120 195 95T167 43L349 -76L-164 -42L82 62L337 549L68 686L452 670L798 -35L1012 -98ZM473 244Q450 294
426 343T379 442Q353 394 328 348T276 253L473 244ZM525 961L422 772L327 813L397 1019L525 961Z" />
<glyph unicode="&#xc2;" glyph-name="Acircumflex" horiz-adv-x="807" d="M1012 -98L478 -231L616 -87Q590 -26 564 35T509 157Q437 152 366 152T222 146Q208 120 195 95T167 43L349 -76L-164 -42L82 62L337 549L68 686L452 670L798 -35L1012 -98ZM473 244Q450
294 426 343T379 442Q353 394 328 348T276 253L473 244ZM587 777L540 741L407 826L273 741L226 777L391 985H423L587 777Z" />
<glyph unicode="&#xc3;" glyph-name="Atilde" horiz-adv-x="807" d="M1012 -98L478 -231L616 -87Q590 -26 564 35T509 157Q437 152 366 152T222 146Q208 120 195 95T167 43L349 -76L-164 -42L82 62L337 549L68 686L452 670L798 -35L1012 -98ZM473 244Q450 294
426 343T379 442Q353 394 328 348T276 253L473 244ZM568 795Q547 783 527 775T481 767Q459 767 439 773T400 788T367 802T341 809Q332 809 320 803T296 787T274 769T257 754V899Q277 909 299 917T344 926Q366 926 386 920T424 906T456 892T480 885Q490 885 502
891T526 906T550 924T568 939V795Z" />
<glyph unicode="&#xc4;" glyph-name="Adieresis" horiz-adv-x="807" d="M1012 -98L478 -231L616 -87Q590 -26 564 35T509 157Q437 152 366 152T222 146Q208 120 195 95T167 43L349 -76L-164 -42L82 62L337 549L68 686L452 670L798 -35L1012 -98ZM473 244Q450 294
426 343T379 442Q353 394 328 348T276 253L473 244ZM558 1082Q558 1056 540 1037T495 1017Q469 1017 451 1036T432 1082Q432 1108 450 1125T495 1143Q521 1143 539 1126T558 1082ZM376 1082Q376 1056 358 1037T313 1017Q286 1017 268 1036T250 1082Q250 1108 268
1125T313 1143Q339 1143 357 1126T376 1082Z" />
<glyph unicode="&#xc5;" glyph-name="Aring" horiz-adv-x="807" d="M473 244Q450 294 426 343T379 442Q353 394 328 348T276 253L473 244ZM519 760Q519 728 501 702T455 662L798 -35L1012 -98L478 -231L616 -87Q590 -26 564 35T509 157Q437 152 366 152T222 146Q208
120 195 95T167 43L349 -76L-164 -42L82 62L337 549L68 686L347 674Q327 689 315 711T302 760Q302 782 311 801T335 836T369 860T411 869Q433 869 452 860T487 836T510 802T519 760ZM451 758Q451 775 440 786T411 798Q394 798 383 787T371 758Q371 743 384 732T411
721Q425 721 438 732T451 758Z" />
<glyph unicode="&#xc6;" glyph-name="AE" horiz-adv-x="1044" d="M1004 740L989 384L878 645L616 622L611 356L697 361L799 568L788 94L692 250L608 256L604 63L883 65L975 357L978 -18L191 -24L443 72L440 163L147 156L77 53L242 -67L-266 -32L-5 72L294 558L74
696L1004 740ZM437 257L428 579L217 262L437 257Z" />
<glyph unicode="&#xc7;" glyph-name="Ccedilla" horiz-adv-x="785" d="M509 -230Q509 -284 475 -319T385 -354Q345 -354 320 -338T269 -294L325 -232Q336 -244 351 -257T383 -271Q403 -271 414 -260T425 -230Q425 -210 414 -201T385 -188Q356 -183 328 -180T270
-171L348 -52Q277 -40 217 -7T113 76T45 192T20 336Q20 424 52 492T141 608T271 679T429 703Q458 703 489 698T552 681T610 654T657 615L776 772L708 355Q695 398 674 441T621 517T550 572T459 593Q402 593 356 573T278 517T228 433T211 330Q211 270 227 219T277
129T358 69T469 47Q569 47 626 102T698 254L766 -81L685 35Q662 9 632 -9T568 -38T499 -53T430 -58H419Q414 -72 411 -85T399 -111Q423 -111 443 -121T478 -147T501 -185T509 -230Z" />
<glyph unicode="&#xc8;" glyph-name="Egrave" horiz-adv-x="800" d="M759 740L743 384L623 645L342 622L336 356L429 361L538 568L527 94L423 250L334 256L329 63L629 65L728 357L731 -18L-65 -24Q-5 0 54 25T173 72L155 595Q92 614 31 635T-92 677L728 738L759
740ZM488 833L386 789L279 986L415 1047L488 833Z" />
<glyph unicode="&#xc9;" glyph-name="Eacute" horiz-adv-x="800" d="M759 740L743 384L623 645L342 622L336 356L429 361L538 568L527 94L423 250L334 256L329 63L629 65L728 357L731 -18L-65 -24Q-5 0 54 25T173 72L155 595Q92 614 31 635T-92 677L728 738L759
740ZM545 961L442 772L347 813L417 1019L545 961Z" />
<glyph unicode="&#xca;" glyph-name="Ecircumflex" horiz-adv-x="800" d="M759 740L743 384L623 645L342 622L336 356L429 361L538 568L527 94L423 250L334 256L329 63L629 65L728 357L731 -18L-65 -24Q-5 0 54 25T173 72L155 595Q92 614 31 635T-92 677L728 738L759
740ZM824 838L777 802L644 887L510 802L463 838L628 1046H660L824 838Z" />
<glyph unicode="&#xcb;" glyph-name="Edieresis" horiz-adv-x="800" d="M759 740L743 384L623 645L342 622L336 356L429 361L538 568L527 94L423 250L334 256L329 63L629 65L728 357L731 -18L-65 -24Q-5 0 54 25T173 72L155 595Q92 614 31 635T-92 677L728 738L759
740ZM558 1113Q558 1087 540 1068T495 1048Q469 1048 451 1067T432 1113Q432 1139 450 1156T495 1174Q521 1174 539 1157T558 1113ZM376 1113Q376 1087 358 1068T313 1048Q286 1048 268 1067T250 1113Q250 1139 268 1156T313 1174Q339 1174 357 1157T376 1113Z"
/>
<glyph unicode="&#xcc;" glyph-name="Igrave" horiz-adv-x="456" d="M549 699L334 611L317 -2L540 -89H-48L172 -2L148 605L-92 706L549 699ZM313 833L211 789L104 986L240 1047L313 833Z" />
<glyph unicode="&#xcd;" glyph-name="Iacute" horiz-adv-x="456" d="M549 699L334 611L317 -2L540 -89H-48L172 -2L148 605L-92 706L549 699ZM638 961L535 772L440 813L510 1019L638 961Z" />
<glyph unicode="&#xce;" glyph-name="Icircumflex" horiz-adv-x="456" d="M549 699L334 611L317 -2L540 -89H-48L172 -2L148 605L-92 706L549 699ZM424 818L377 782L244 867L110 782L63 818L228 1026H260L424 818Z" />
<glyph unicode="&#xcf;" glyph-name="Idieresis" horiz-adv-x="456" d="M549 699L334 611L317 -2L540 -89H-48L172 -2L148 605L-92 706L549 699ZM651 1103Q651 1077 633 1058T588 1038Q562 1038 544 1057T525 1103Q525 1129 543 1146T588 1164Q614 1164 632 1147T651
1103ZM469 1103Q469 1077 451 1058T406 1038Q379 1038 361 1057T343 1103Q343 1129 361 1146T406 1164Q432 1164 450 1147T469 1103Z" />
<glyph unicode="&#xd0;" glyph-name="Eth" horiz-adv-x="1024" d="M983 352Q983 259 956 191T879 79T758 13T597 -9Q537 -9 477 -13T356 -20L95 -34L318 83V99Q318 141 316 181T311 264L98 259L105 390L302 382Q297 428 294 473T286 565L0 688Q80 686 159 684T318
682Q382 682 445 683T571 684Q647 684 720 664T852 604T947 500T983 352ZM805 338Q805 393 793 438T754 516T686 567T586 585Q562 585 539 585T493 585L482 376L651 369L640 271L476 267L467 82Q484 82 502 82T537 81H607Q666 81 704 102T765 158T796 240T805 338Z"
/>
<glyph unicode="&#xd1;" glyph-name="Ntilde" horiz-adv-x="861" d="M974 746L753 640L739 -54L255 510L266 124L586 5L-92 8L158 121V615L-84 727L330 721L656 316L653 625L384 735L974 746ZM589 856Q568 844 548 836T502 828Q480 828 460 834T421 849T388 863T362
870Q353 870 341 864T317 848T295 830T278 815V960Q298 970 320 978T365 987Q387 987 407 981T445 967T477 953T501 946Q511 946 523 952T547 967T571 985T589 1000V856Z" />
<glyph unicode="&#xd2;" glyph-name="Ograve" horiz-adv-x="828" d="M808 312Q808 230 772 170T679 69T550 8T406 -12Q334 -12 265 9T141 70T53 171T20 312Q20 400 55 461T148 559T280 614T431 631Q503 631 570 611T691 550T776 450T808 312ZM617 314Q617 355
605 394T569 464T511 513T431 532Q384 532 344 516T273 472T226 404T209 318Q209 275 220 234T255 159T315 106T400 86Q454 86 495 102T563 149T603 221T617 314ZM527 751L425 707L318 904L454 965L527 751Z" />
<glyph unicode="&#xd3;" glyph-name="Oacute" horiz-adv-x="828" d="M808 312Q808 230 772 170T679 69T550 8T406 -12Q334 -12 265 9T141 70T53 171T20 312Q20 400 55 461T148 559T280 614T431 631Q503 631 570 611T691 550T776 450T808 312ZM617 314Q617 355
605 394T569 464T511 513T431 532Q384 532 344 516T273 472T226 404T209 318Q209 275 220 234T255 159T315 106T400 86Q454 86 495 102T563 149T603 221T617 314ZM555 1137L452 948L357 989L427 1195L555 1137Z" />
<glyph unicode="&#xd4;" glyph-name="Ocircumflex" horiz-adv-x="828" d="M808 312Q808 230 772 170T679 69T550 8T406 -12Q334 -12 265 9T141 70T53 171T20 312Q20 400 55 461T148 559T280 614T431 631Q503 631 570 611T691 550T776 450T808 312ZM617 314Q617
355 605 394T569 464T511 513T431 532Q384 532 344 516T273 472T226 404T209 318Q209 275 220 234T255 159T315 106T400 86Q454 86 495 102T563 149T603 221T617 314ZM597 736L550 700L417 785L283 700L236 736L401 944H433L597 736Z" />
<glyph unicode="&#xd5;" glyph-name="Otilde" horiz-adv-x="828" d="M808 312Q808 230 772 170T679 69T550 8T406 -12Q334 -12 265 9T141 70T53 171T20 312Q20 400 55 461T148 559T280 614T431 631Q503 631 570 611T691 550T776 450T808 312ZM617 314Q617 355
605 394T569 464T511 513T431 532Q384 532 344 516T273 472T226 404T209 318Q209 275 220 234T255 159T315 106T400 86Q454 86 495 102T563 149T603 221T617 314ZM589 1011Q568 999 548 991T502 983Q480 983 460 989T421 1004T388 1018T362 1025Q353 1025 341 1019T317
1003T295 985T278 970V1115Q298 1125 320 1133T365 1142Q387 1142 407 1136T445 1122T477 1108T501 1101Q511 1101 523 1107T547 1122T571 1140T589 1155V1011Z" />
<glyph unicode="&#xd6;" glyph-name="Odieresis" horiz-adv-x="828" d="M808 312Q808 230 772 170T679 69T550 8T406 -12Q334 -12 265 9T141 70T53 171T20 312Q20 400 55 461T148 559T280 614T431 631Q503 631 570 611T691 550T776 450T808 312ZM617 314Q617 355
605 394T569 464T511 513T431 532Q384 532 344 516T273 472T226 404T209 318Q209 275 220 234T255 159T315 106T400 86Q454 86 495 102T563 149T603 221T617 314ZM568 775Q568 749 550 730T505 710Q479 710 461 729T442 775Q442 801 460 818T505 836Q531 836 549
819T568 775ZM386 775Q386 749 368 730T323 710Q296 710 278 729T260 775Q260 801 278 818T323 836Q349 836 367 819T386 775Z" />
<glyph unicode="&#xd7;" glyph-name="multiply" horiz-adv-x="570" d="M560 493L397 343L555 170L457 83L288 243L104 74L16 174L180 346L10 507L137 626L291 460L441 620L560 493Z" />
<glyph unicode="&#xd8;" glyph-name="Oslash" horiz-adv-x="828" d="M808 312Q808 230 772 170T679 69T550 8T406 -12Q380 -12 354 -10T302 -1L227 -120L137 -67L194 37Q113 79 67 149T20 312Q20 400 55 461T148 559T280 614T431 631Q475 631 516 624L582 743L720
659L663 569Q733 526 770 460T808 312ZM617 314Q617 348 609 381T584 443L360 90Q379 86 400 86Q508 86 562 148T617 314ZM464 529Q447 532 431 532Q385 532 345 516T274 472T227 404T209 318Q209 277 221 233T258 155L464 529Z" />
<glyph unicode="&#xd9;" glyph-name="Ugrave" horiz-adv-x="743" d="M825 667L687 589L673 246Q670 174 648 122T585 37T488 -11T361 -27Q299 -27 247 -8T157 47T98 134T77 249Q77 330 80 412T87 577L-92 659L410 624L272 566Q270 488 269 410T267 253Q267 220
276 188T303 130T350 88T416 72Q456 72 488 85T543 123T576 180T587 253Q587 255 587 254T587 256T586 277T584 330T580 430T573 591L416 674L825 667ZM477 771L375 727L268 924L404 985L477 771Z" />
<glyph unicode="&#xda;" glyph-name="Uacute" horiz-adv-x="743" d="M825 667L687 589L673 246Q670 174 648 122T585 37T488 -11T361 -27Q299 -27 247 -8T157 47T98 134T77 249Q77 330 80 412T87 577L-92 659L410 624L272 566Q270 488 269 410T267 253Q267 220
276 188T303 130T350 88T416 72Q456 72 488 85T543 123T576 180T587 253Q587 255 587 254T587 256T586 277T584 330T580 430T573 591L416 674L825 667ZM504 1188L401 999L306 1040L376 1246L504 1188Z" />
<glyph unicode="&#xdb;" glyph-name="Ucircumflex" horiz-adv-x="743" d="M825 667L687 589L673 246Q670 174 648 122T585 37T488 -11T361 -27Q299 -27 247 -8T157 47T98 134T77 249Q77 330 80 412T87 577L-92 659L410 624L272 566Q270 488 269 410T267 253Q267
220 276 188T303 130T350 88T416 72Q456 72 488 85T543 123T576 180T587 253Q587 255 587 254T587 256T586 277T584 330T580 430T573 591L416 674L825 667ZM824 777L777 741L644 826L510 741L463 777L628 985H660L824 777Z" />
<glyph unicode="&#xdc;" glyph-name="Udieresis" horiz-adv-x="743" d="M825 667L687 589L673 246Q670 174 648 122T585 37T488 -11T361 -27Q299 -27 247 -8T157 47T98 134T77 249Q77 330 80 412T87 577L-92 659L410 624L272 566Q270 488 269 410T267 253Q267
220 276 188T303 130T350 88T416 72Q456 72 488 85T543 123T576 180T587 253Q587 255 587 254T587 256T586 277T584 330T580 430T573 591L416 674L825 667ZM558 1072Q558 1046 540 1027T495 1007Q469 1007 451 1026T432 1072Q432 1098 450 1115T495 1133Q521 1133
539 1116T558 1072ZM376 1072Q376 1046 358 1027T313 1007Q286 1007 268 1026T250 1072Q250 1098 268 1115T313 1133Q339 1133 357 1116T376 1072Z" />
<glyph unicode="&#xdd;" glyph-name="Yacute" horiz-adv-x="869" d="M941 585L719 492L519 272L543 22L801 -67L171 -71L369 15L379 260L127 547L-133 642L424 669L294 588L488 355L644 511L493 602L941 585ZM627 911L524 722L429 763L499 969L627 911Z" />
<glyph unicode="&#xde;" glyph-name="Thorn" horiz-adv-x="763" d="M773 337Q773 301 748 274T681 226T590 191T490 168T398 155T328 148L331 72L564 -24L-62 -32L153 81L144 550L-92 657L528 641L306 553L308 519Q338 518 384 517T481 509T585 492T679 460T747
410T773 337ZM635 337Q635 355 622 368T587 392T538 408T486 418T438 423T402 425Q379 425 356 424T308 420L313 236Q326 236 338 235T361 234Q376 234 402 236T459 242T521 254T577 273T619 300T635 337Z" />
<glyph unicode="&#xdf;" glyph-name="germandbls" horiz-adv-x="1010" d="M1020 11Q1020 -37 996 -69T934 -121T852 -149T769 -158Q717 -158 663 -146T566 -102L486 -219L507 123Q523 88 549 54T608 -8T679 -53T759 -71Q769 -71 786 -71T819 -66T847 -54T859 -28Q859
-8 831 8T760 43T667 82T575 134T504 205T475 302Q475 360 496 405T544 489T592 564T614 641Q614 680 607 718T581 787T533 837T456 857Q415 857 386 839T338 792T309 727T300 655Q300 608 307 552T319 449L377 -35Q379 -57 381 -79T383 -125Q383 -177 369 -227T327
-318T255 -382T153 -407Q113 -407 77 -393T12 -352T-34 -291T-51 -214Q-51 -181 -29 -160T25 -139Q40 -139 54 -144T80 -160T98 -183T105 -213Q105 -245 81 -269Q88 -291 105 -306T145 -322Q174 -322 191 -305T218 -262T230 -209T233 -160Q233 -138 230 -101T223
-19T212 76T199 176Q184 291 165 423H15V514H155Q154 528 154 541T153 568Q153 638 168 706T219 829T309 916T444 949Q508 949 563 926T658 863T721 767T744 648Q744 596 726 553T687 472T647 400T629 333Q629 292 658 266T730 222T824 187T918 148T991 94T1020
11Z" />
<glyph unicode="&#xe0;" glyph-name="agrave" horiz-adv-x="586" d="M657 -10L340 -23L347 33Q315 29 283 29T219 28Q190 28 155 35T90 57T40 98T20 159Q20 199 39 227T87 272T153 297T223 305Q265 305 305 301T386 294Q388 307 389 320T390 348Q390 375 386 401T370
447T338 480T285 492Q255 492 231 483T187 450Q201 439 206 426T211 395V389Q196 319 123 319Q90 319 69 342T48 398Q48 442 73 474T134 527T213 558T292 568Q407 568 471 515T536 342Q536 329 536 316T534 290L510 60Q548 43 584 25T657 -10ZM375 227Q349 230
323 233T271 237Q254 237 238 234T208 222T186 201T178 167Q178 152 185 141T203 121T228 109T255 105Q281 105 307 108T359 114L375 227ZM733 679L631 635L524 832L660 893L733 679Z" />
<glyph unicode="&#xe1;" glyph-name="aacute" horiz-adv-x="586" d="M657 -10L340 -23L347 33Q315 29 283 29T219 28Q190 28 155 35T90 57T40 98T20 159Q20 199 39 227T87 272T153 297T223 305Q265 305 305 301T386 294Q388 307 389 320T390 348Q390 375 386 401T370
447T338 480T285 492Q255 492 231 483T187 450Q201 439 206 426T211 395V389Q196 319 123 319Q90 319 69 342T48 398Q48 442 73 474T134 527T213 558T292 568Q407 568 471 515T536 342Q536 329 536 316T534 290L510 60Q548 43 584 25T657 -10ZM375 227Q349 230
323 233T271 237Q254 237 238 234T208 222T186 201T178 167Q178 152 185 141T203 121T228 109T255 105Q281 105 307 108T359 114L375 227ZM731 1075L628 886L533 927L603 1133L731 1075Z" />
<glyph unicode="&#xe2;" glyph-name="acircumflex" horiz-adv-x="586" d="M657 -10L340 -23L347 33Q315 29 283 29T219 28Q190 28 155 35T90 57T40 98T20 159Q20 199 39 227T87 272T153 297T223 305Q265 305 305 301T386 294Q388 307 389 320T390 348Q390 375
386 401T370 447T338 480T285 492Q255 492 231 483T187 450Q201 439 206 426T211 395V389Q196 319 123 319Q90 319 69 342T48 398Q48 442 73 474T134 527T213 558T292 568Q407 568 471 515T536 342Q536 329 536 316T534 290L510 60Q548 43 584 25T657 -10ZM375
227Q349 230 323 233T271 237Q254 237 238 234T208 222T186 201T178 167Q178 152 185 141T203 121T228 109T255 105Q281 105 307 108T359 114L375 227ZM772 942L725 906L592 991L458 906L411 942L576 1150H608L772 942Z" />
<glyph unicode="&#xe3;" glyph-name="atilde" horiz-adv-x="586" d="M657 -10L340 -23L347 33Q315 29 283 29T219 28Q190 28 155 35T90 57T40 98T20 159Q20 199 39 227T87 272T153 297T223 305Q265 305 305 301T386 294Q388 307 389 320T390 348Q390 375 386 401T370
447T338 480T285 492Q255 492 231 483T187 450Q201 439 206 426T211 395V389Q196 319 123 319Q90 319 69 342T48 398Q48 442 73 474T134 527T213 558T292 568Q407 568 471 515T536 342Q536 329 536 316T534 290L510 60Q548 43 584 25T657 -10ZM375 227Q349 230
323 233T271 237Q254 237 238 234T208 222T186 201T178 167Q178 152 185 141T203 121T228 109T255 105Q281 105 307 108T359 114L375 227ZM754 939Q733 927 713 919T667 911Q645 911 625 917T586 932T553 946T527 953Q518 953 506 947T482 931T460 913T443 898V1043Q463
1053 485 1061T530 1070Q552 1070 572 1064T610 1050T642 1036T666 1029Q676 1029 688 1035T712 1050T736 1068T754 1083V939Z" />
<glyph unicode="&#xe4;" glyph-name="adieresis" horiz-adv-x="586" d="M657 -10L340 -23L347 33Q315 29 283 29T219 28Q190 28 155 35T90 57T40 98T20 159Q20 199 39 227T87 272T153 297T223 305Q265 305 305 301T386 294Q388 307 389 320T390 348Q390 375 386
401T370 447T338 480T285 492Q255 492 231 483T187 450Q201 439 206 426T211 395V389Q196 319 123 319Q90 319 69 342T48 398Q48 442 73 474T134 527T213 558T292 568Q407 568 471 515T536 342Q536 329 536 316T534 290L510 60Q548 43 584 25T657 -10ZM375 227Q349
230 323 233T271 237Q254 237 238 234T208 222T186 201T178 167Q178 152 185 141T203 121T228 109T255 105Q281 105 307 108T359 114L375 227ZM467 713Q467 687 449 668T404 648Q378 648 360 667T341 713Q341 739 359 756T404 774Q430 774 448 757T467 713ZM285
713Q285 687 267 668T222 648Q195 648 177 667T159 713Q159 739 177 756T222 774Q248 774 266 757T285 713Z" />
<glyph unicode="&#xe5;" glyph-name="aring" horiz-adv-x="586" d="M375 227Q349 230 323 233T271 237Q254 237 238 234T208 222T186 201T178 167Q178 152 185 141T203 121T228 109T255 105Q281 105 307 108T359 114L375 227ZM447 658Q447 626 429 599T382 559Q456
541 496 489T536 342Q536 329 536 316T534 290L510 60Q548 43 584 25T657 -10L340 -23L347 33Q315 29 283 29T219 28Q190 28 155 35T90 57T40 98T20 159Q20 199 39 227T87 272T153 297T223 305Q265 305 305 301T386 294Q388 307 389 320T390 348Q390 375 386 401T370
447T338 480T285 492Q255 492 231 483T187 450Q201 439 206 426T211 395V389Q196 319 123 319Q90 319 69 342T48 398Q48 440 71 471T128 523T203 555T280 568Q258 583 245 606T231 658Q231 680 240 699T264 734T298 757T339 766Q361 766 380 758T415 734T438 700T447
658ZM379 656Q379 672 368 683T339 695Q323 695 312 684T300 656Q300 640 312 630T339 619Q354 619 366 629T379 656Z" />
<glyph unicode="&#xe6;" glyph-name="ae" horiz-adv-x="1047" d="M1036 269Q1036 262 1036 256T1035 243L629 237Q635 208 651 189T690 156T739 138T792 132Q819 132 848 135T904 147T957 169T1004 200Q993 160 966 131T902 83T825 55T745 46Q710 46 675 54T607
78T547 117T501 172L489 60Q527 43 563 25T637 -10L319 -23L327 33Q304 31 282 29T236 27Q204 27 163 31T86 50T25 90T0 159Q0 199 19 227T67 272T133 297T203 305Q244 305 284 301T366 294Q368 307 369 320T370 348Q370 375 366 401T349 447T317 480T264 492Q234
492 210 483T167 450Q180 439 185 426T190 395Q190 377 183 363T163 340T134 325T102 319Q69 319 49 342T28 398Q28 441 52 473T114 526T193 557T271 568Q313 568 352 561T422 535T476 487T509 412Q553 475 623 503T768 532Q825 532 874 513T959 459T1015 376T1036
269ZM884 316Q879 370 846 405T757 440Q699 440 669 406T629 318L884 316ZM354 227Q329 230 303 233T251 237Q234 237 218 234T188 222T166 201T158 167Q158 152 165 141T183 121T207 109T234 105Q260 105 286 108T339 114L354 227Z" />
<glyph unicode="&#xe7;" glyph-name="ccedilla" horiz-adv-x="604" d="M437 -230Q437 -284 403 -319T313 -354Q273 -354 249 -338T198 -294L253 -232Q264 -244 279 -257T311 -271Q331 -271 342 -260T353 -230Q353 -210 342 -201T313 -188Q285 -183 257 -180T199
-171L272 -60Q220 -52 176 -29T100 30T49 113T31 216Q31 282 57 336T127 428T228 486T349 507Q383 507 423 496T499 464T558 412T582 340Q582 302 559 279T498 256Q460 256 433 277T406 338Q406 351 408 365T418 391Q401 405 381 411T340 417Q302 417 276 399T233
352T209 290T202 224Q202 185 214 153T249 97T304 60T377 46Q413 46 445 60T504 96T553 147T594 204Q595 143 579 95T530 13T451 -40T346 -63Q342 -75 339 -87T328 -111Q352 -111 372 -121T406 -147T429 -185T437 -230Z" />
<glyph unicode="&#xe8;" glyph-name="egrave" horiz-adv-x="608" d="M598 182Q598 175 598 168T597 154L190 146Q203 87 249 59T353 31Q381 31 410 35T467 48T520 71T565 106Q554 64 528 32T467 -21T390 -52T307 -63Q251 -63 201 -43T113 12T53 96T31 203Q31 264
56 314T122 399T217 454T330 473Q392 473 441 450T526 387T579 295T598 182ZM445 233Q443 260 434 285T409 329T371 359T318 371Q288 371 266 360T229 331T205 288T190 237L445 233ZM723 844L621 800L514 997L650 1058L723 844Z" />
<glyph unicode="&#xe9;" glyph-name="eacute" horiz-adv-x="608" d="M598 182Q598 175 598 168T597 154L190 146Q203 87 249 59T353 31Q381 31 410 35T467 48T520 71T565 106Q554 64 528 32T467 -21T390 -52T307 -63Q251 -63 201 -43T113 12T53 96T31 203Q31 264
56 314T122 399T217 454T330 473Q392 473 441 450T526 387T579 295T598 182ZM445 233Q443 260 434 285T409 329T371 359T318 371Q288 371 266 360T229 331T205 288T190 237L445 233ZM464 737L361 548L266 589L336 795L464 737Z" />
<glyph unicode="&#xea;" glyph-name="ecircumflex" horiz-adv-x="608" d="M598 182Q598 175 598 168T597 154L190 146Q203 87 249 59T353 31Q381 31 410 35T467 48T520 71T565 106Q554 64 528 32T467 -21T390 -52T307 -63Q251 -63 201 -43T113 12T53 96T31 203Q31
264 56 314T122 399T217 454T330 473Q392 473 441 450T526 387T579 295T598 182ZM445 233Q443 260 434 285T409 329T371 359T318 371Q288 371 266 360T229 331T205 288T190 237L445 233ZM516 583L469 547L336 632L202 547L155 583L320 791H352L516 583Z" />
<glyph unicode="&#xeb;" glyph-name="edieresis" horiz-adv-x="608" d="M598 182Q598 175 598 168T597 154L190 146Q203 87 249 59T353 31Q381 31 410 35T467 48T520 71T565 106Q554 64 528 32T467 -21T390 -52T307 -63Q251 -63 201 -43T113 12T53 96T31 203Q31
264 56 314T122 399T217 454T330 473Q392 473 441 450T526 387T579 295T598 182ZM445 233Q443 260 434 285T409 329T371 359T318 371Q288 371 266 360T229 331T205 288T190 237L445 233ZM498 611Q498 585 480 566T435 546Q409 546 391 565T372 611Q372 637 390
654T435 672Q461 672 479 655T498 611ZM316 611Q316 585 298 566T253 546Q226 546 208 565T190 611Q190 637 208 654T253 672Q279 672 297 655T316 611Z" />
<glyph unicode="&#xec;" glyph-name="igrave" horiz-adv-x="403" d="M456 -2L8 6L174 109L160 441L-31 531H336L303 102L456 -2ZM313 669L211 625L104 822L240 883L313 669Z" />
<glyph unicode="&#xed;" glyph-name="iacute" horiz-adv-x="403" d="M456 -2L8 6L174 109L160 441L-31 531H336L303 102L456 -2ZM628 1075L525 886L430 927L500 1133L628 1075Z" />
<glyph unicode="&#xee;" glyph-name="icircumflex" horiz-adv-x="403" d="M456 -2L8 6L174 109L160 441L-31 531H336L303 102L456 -2ZM414 676L367 640L234 725L100 640L53 676L218 884H250L414 676Z" />
<glyph unicode="&#xef;" glyph-name="idieresis" horiz-adv-x="403" d="M456 -2L8 6L174 109L160 441L-31 531H336L303 102L456 -2ZM405 703Q405 677 387 658T342 638Q316 638 298 657T279 703Q279 729 297 746T342 764Q368 764 386 747T405 703ZM223 703Q223
677 205 658T160 638Q133 638 115 657T97 703Q97 729 115 746T160 764Q186 764 204 747T223 703Z" />
<glyph unicode="&#xf0;" glyph-name="eth" horiz-adv-x="689" d="M689 202Q689 122 661 65T585 -28T471 -81T333 -98Q277 -98 216 -84T105 -40T23 37T-10 153Q-10 226 25 273T113 349T231 388T355 399Q389 399 423 395T490 381Q474 430 451 476T398 566L239 452L159
550L327 654Q303 680 274 706T213 756T148 800T83 835Q168 821 248 785T397 698L586 816L642 739L484 627Q528 585 565 537T630 435T673 323T689 202ZM526 153Q526 189 513 219T477 271T422 305T355 317Q319 317 284 307T219 277T172 226T154 157Q154 118 166 86T202
31T257 -4T329 -17Q370 -17 406 -8T468 23T510 76T526 153Z" />
<glyph unicode="&#xf1;" glyph-name="ntilde" horiz-adv-x="659" d="M741 66L307 63L494 135V315Q494 368 468 399T387 431Q360 431 330 422T284 388L262 194Q272 186 293 174T338 150Q364 136 394 121L-17 119L151 188L121 429Q92 437 54 447T-19 469Q-59 481
-102 494L295 560L290 499Q325 513 365 527T443 541Q534 541 584 492T634 351Q634 328 632 300T625 242T617 185T608 132L741 66ZM784 919Q763 907 743 899T697 891Q675 891 655 897T616 912T583 926T557 933Q548 933 536 927T512 911T490 893T473 878V1023Q493
1033 515 1041T560 1050Q582 1050 602 1044T640 1030T672 1016T696 1009Q706 1009 718 1015T742 1030T766 1048T784 1063V919Z" />
<glyph unicode="&#xf2;" glyph-name="ograve" horiz-adv-x="722" d="M712 242Q712 173 678 126T590 49T473 6T353 -8Q297 -8 237 6T126 50T43 127T10 242Q10 315 45 363T133 439T251 478T376 489Q431 489 490 475T599 432T680 355T712 242ZM547 244Q547 280 534
310T497 362T442 396T376 408Q340 408 304 398T239 367T192 317T174 247Q174 208 186 176T222 121T278 86T349 73Q391 73 427 82T490 113T532 166T547 244ZM744 854L642 810L535 1007L671 1068L744 854Z" />
<glyph unicode="&#xf3;" glyph-name="oacute" horiz-adv-x="722" d="M712 242Q712 173 678 126T590 49T473 6T353 -8Q297 -8 237 6T126 50T43 127T10 242Q10 315 45 363T133 439T251 478T376 489Q431 489 490 475T599 432T680 355T712 242ZM547 244Q547 280 534
310T497 362T442 396T376 408Q340 408 304 398T239 367T192 317T174 247Q174 208 186 176T222 121T278 86T349 73Q391 73 427 82T490 113T532 166T547 244ZM494 747L391 558L296 599L366 805L494 747Z" />
<glyph unicode="&#xf4;" glyph-name="ocircumflex" horiz-adv-x="722" d="M712 242Q712 173 678 126T590 49T473 6T353 -8Q297 -8 237 6T126 50T43 127T10 242Q10 315 45 363T133 439T251 478T376 489Q431 489 490 475T599 432T680 355T712 242ZM547 244Q547 280
534 310T497 362T442 396T376 408Q340 408 304 398T239 367T192 317T174 247Q174 208 186 176T222 121T278 86T349 73Q391 73 427 82T490 113T532 166T547 244ZM557 594L510 558L377 643L243 558L196 594L361 802H393L557 594Z" />
<glyph unicode="&#xf5;" glyph-name="otilde" horiz-adv-x="722" d="M712 242Q712 173 678 126T590 49T473 6T353 -8Q297 -8 237 6T126 50T43 127T10 242Q10 315 45 363T133 439T251 478T376 489Q431 489 490 475T599 432T680 355T712 242ZM547 244Q547 280 534
310T497 362T442 396T376 408Q340 408 304 398T239 367T192 317T174 247Q174 208 186 176T222 121T278 86T349 73Q391 73 427 82T490 113T532 166T547 244ZM539 611Q518 599 498 591T452 583Q430 583 410 589T371 604T338 618T312 625Q303 625 291 619T267 603T245
585T228 570V715Q248 725 270 733T315 742Q337 742 357 736T395 722T427 708T451 701Q461 701 473 707T497 722T521 740T539 755V611Z" />
<glyph unicode="&#xf6;" glyph-name="odieresis" horiz-adv-x="722" d="M712 242Q712 173 678 126T590 49T473 6T353 -8Q297 -8 237 6T126 50T43 127T10 242Q10 315 45 363T133 439T251 478T376 489Q431 489 490 475T599 432T680 355T712 242ZM547 244Q547 280
534 310T497 362T442 396T376 408Q340 408 304 398T239 367T192 317T174 247Q174 208 186 176T222 121T278 86T349 73Q391 73 427 82T490 113T532 166T547 244ZM537 642Q537 616 519 597T474 577Q448 577 430 596T411 642Q411 668 429 685T474 703Q500 703 518
686T537 642ZM355 642Q355 616 337 597T292 577Q265 577 247 596T229 642Q229 668 247 685T292 703Q318 703 336 686T355 642Z" />
<glyph unicode="&#xf7;" glyph-name="divide" horiz-adv-x="517" d="M379 495Q379 474 370 458T346 432T313 416T275 411Q257 411 238 416T203 431T177 457T167 494Q167 516 176 532T201 560T235 578T275 584Q293 584 311 578T345 559T369 531T379 495ZM507 343L502
230L10 215L12 370L507 343ZM370 76Q370 55 361 39T337 13T304 -3T266 -9Q248 -9 229 -4T194 11T168 38T158 75Q158 97 167 113T192 141T226 159T266 165Q284 165 302 159T336 140T360 112T370 76Z" />
<glyph unicode="&#xf8;" glyph-name="oslash" horiz-adv-x="722" d="M712 242Q712 173 678 126T590 49T473 6T353 -8Q323 -8 295 -5L216 -133L117 -74L174 26Q139 40 110 60T58 108T23 169T10 242Q10 315 45 363T133 439T251 478T376 489Q392 489 408 488T439
485L518 622L636 545L574 445Q635 416 673 365T712 242ZM547 244Q547 301 512 345L343 73H349Q391 73 427 82T490 113T532 166T547 244ZM394 407Q389 408 385 408T376 408Q340 408 304 398T239 367T192 317T174 247Q174 212 188 176T226 117L394 407Z" />
<glyph unicode="&#xf9;" glyph-name="ugrave" horiz-adv-x="629" d="M711 3L437 -48L440 42Q429 28 412 18T376 1T336 -9T298 -12Q173 -12 118 48T63 229Q63 276 64 321T66 412Q27 435 -13 457T-92 502L232 504Q225 432 216 353T206 202Q206 139 234 110T325 81Q357
81 389 99T440 142L453 398L274 485L618 488L550 62L711 3ZM662 875L560 831L453 1028L589 1089L662 875Z" />
<glyph unicode="&#xfa;" glyph-name="uacute" horiz-adv-x="629" d="M711 3L437 -48L440 42Q429 28 412 18T376 1T336 -9T298 -12Q173 -12 118 48T63 229Q63 276 64 321T66 412Q27 435 -13 457T-92 502L232 504Q225 432 216 353T206 202Q206 139 234 110T325 81Q357
81 389 99T440 142L453 398L274 485L618 488L550 62L711 3ZM454 758L351 569L256 610L326 816L454 758Z" />
<glyph unicode="&#xfb;" glyph-name="ucircumflex" horiz-adv-x="629" d="M711 3L437 -48L440 42Q429 28 412 18T376 1T336 -9T298 -12Q173 -12 118 48T63 229Q63 276 64 321T66 412Q27 435 -13 457T-92 502L232 504Q225 432 216 353T206 202Q206 139 234 110T325
81Q357 81 389 99T440 142L453 398L274 485L618 488L550 62L711 3ZM762 870L715 834L582 919L448 834L401 870L566 1078H598L762 870Z" />
<glyph unicode="&#xfc;" glyph-name="udieresis" horiz-adv-x="629" d="M711 3L437 -48L440 42Q429 28 412 18T376 1T336 -9T298 -12Q173 -12 118 48T63 229Q63 276 64 321T66 412Q27 435 -13 457T-92 502L232 504Q225 432 216 353T206 202Q206 139 234 110T325
81Q357 81 389 99T440 142L453 398L274 485L618 488L550 62L711 3ZM467 652Q467 626 449 607T404 587Q378 587 360 606T341 652Q341 678 359 695T404 713Q430 713 448 696T467 652ZM285 652Q285 626 267 607T222 587Q195 587 177 606T159 652Q159 678 177 695T222
713Q248 713 266 696T285 652Z" />
<glyph unicode="&#xfd;" glyph-name="yacute" horiz-adv-x="671" d="M640 472L615 -124Q612 -199 591 -261T531 -367T432 -436T293 -460Q249 -460 204 -447T123 -409T63 -346T40 -260Q40 -222 64 -198T126 -173Q158 -173 180 -197T202 -252Q202 -272 190 -289T160
-314Q182 -343 217 -358T287 -373Q339 -373 370 -347T419 -282T442 -198T452 -112Q454 -71 454 -32T457 48Q410 36 370 28T281 19Q232 19 188 30T110 65T56 127T36 219Q36 234 41 259T54 312T70 364T82 402L-61 560L282 442Q276 425 266 393T244 327T225 261T217
214Q217 189 229 171T259 141T300 124T345 118Q371 118 403 123T461 139L463 388L273 511L640 472ZM454 788L351 599L256 640L326 846L454 788Z" />
<glyph unicode="&#xfe;" glyph-name="thorn" horiz-adv-x="752" d="M762 99Q762 43 739 -1T676 -75T588 -121T486 -137Q444 -137 402 -131T318 -109L322 -318L528 -402L-53 -426L170 -325L144 592L-92 706H316V313Q351 324 387 328T460 333Q514 333 568 320T665
279T735 207T762 99ZM609 108Q609 146 593 173T549 217T489 243T422 251Q366 251 317 227V-18Q346 -33 381 -40T449 -47Q519 -47 564 -6T609 108Z" />
<glyph unicode="&#xff;" glyph-name="ydieresis" horiz-adv-x="671" d="M640 472L615 -124Q612 -199 591 -261T531 -367T432 -436T293 -460Q249 -460 204 -447T123 -409T63 -346T40 -260Q40 -222 64 -198T126 -173Q158 -173 180 -197T202 -252Q202 -272 190 -289T160
-314Q182 -343 217 -358T287 -373Q339 -373 370 -347T419 -282T442 -198T452 -112Q454 -71 454 -32T457 48Q410 36 370 28T281 19Q232 19 188 30T110 65T56 127T36 219Q36 234 41 259T54 312T70 364T82 402L-61 560L282 442Q276 425 266 393T244 327T225 261T217
214Q217 189 229 171T259 141T300 124T345 118Q371 118 403 123T461 139L463 388L273 511L640 472ZM467 683Q467 657 449 638T404 618Q378 618 360 637T341 683Q341 709 359 726T404 744Q430 744 448 727T467 683ZM285 683Q285 657 267 638T222 618Q195 618 177
637T159 683Q159 709 177 726T222 744Q248 744 266 727T285 683Z" />
<glyph unicode="&#x2013;" glyph-name="endash" horiz-adv-x="590" d="M528 305L61 317V449L523 459L528 305Z" />
<glyph unicode="&#x2014;" glyph-name="emdash" horiz-adv-x="1017" d="M956 295L61 307V438L950 449L956 295Z" />
<glyph unicode="&#x2018;" glyph-name="quoteleft" horiz-adv-x="268" d="M258 688L171 432L10 504L139 741L258 688Z" />
<glyph unicode="&#x2019;" glyph-name="quoteright" horiz-adv-x="309" d="M279 671L150 434L31 484L118 742L279 671Z" />
<glyph unicode="&#x201a;" glyph-name="quotesinglbase" horiz-adv-x="340" d="M279 159L150 -78L31 -28L118 230L279 159Z" />
<glyph unicode="&#x201c;" glyph-name="quotedblleft" horiz-adv-x="489" d="M479 688L391 432L231 504L360 741L479 688ZM258 688L171 432L10 504L139 741L258 688Z" />
<glyph unicode="&#x201d;" glyph-name="quotedblright" horiz-adv-x="489" d="M479 671L350 434L231 484L318 742L479 671ZM258 671L129 434L10 484L97 742L258 671Z" />
<glyph unicode="&#x201e;" glyph-name="quotedblbase" horiz-adv-x="489" d="M479 159L350 -78L231 -28L318 230L479 159ZM258 159L129 -78L10 -28L97 230L258 159Z" />
<glyph unicode="&#x2022;" glyph-name="bullet" horiz-adv-x="282" d="M282 391Q282 362 271 336T241 291T195 261T140 250Q111 250 86 261T41 291T11 336T0 391Q0 420 11 445T41 490T85 520T140 531Q169 531 194 520T239 490T270 446T282 391Z" />
<glyph unicode="&#x2039;" glyph-name="guilsinglleft" horiz-adv-x="240" d="M229 46L196 -30L10 222V258L196 512L229 434L144 241L229 46Z" />
<glyph unicode="&#x203a;" glyph-name="guilsinglright" horiz-adv-x="229" d="M229 222L44 -30L10 46L96 241L10 434L44 512L229 258V222Z" />
</font>
</defs>
</svg>
