<?xml version="1.0" standalone="no"?>
<!DOCTYPE svg PUBLIC "-//W3C//DTD SVG 1.1//EN" "http://www.w3.org/Graphics/SVG/1.1/DTD/svg11.dtd">
<svg xmlns="http://www.w3.org/2000/svg">
<defs >
<font id="Mirza" horiz-adv-x="572" ><font-face
    font-family="Mirza SemiBold"
    units-per-em="1000"
    panose-1="0 0 7 0 0 0 0 0 0 0"
    ascent="547"
    descent="-453"
    alphabetic="0" />
<glyph unicode=" " glyph-name="space" horiz-adv-x="235" />
<glyph unicode="!" glyph-name="exclam" horiz-adv-x="244" d="M66 362Q66 420 61 463T47 522Q81 536 112 541T184 547Q179 506 176 422T172 245Q129 212 91 176H66V362ZM87 29T40 68Q77 113 122 150Q161 103 205 68Q167 23 122 -15Q87 29 40 68Z" />
<glyph unicode="&quot;" glyph-name="quotedbl" horiz-adv-x="306" d="M76 338T35 375V534Q60 542 82 545T133 549Q125 495 123 444T121 312H96Q76 338 35 375ZM224 338T183 375V534Q208 542 230 545T281 549Q273 495 271 444T269 312H244Q224 338 183 375Z" />
<glyph unicode="#" glyph-name="numbersign" horiz-adv-x="653" d="M583 342T514 344Q506 316 483 229L477 205Q518 206 563 211Q571 185 571 171Q571 158 563 130Q536 132 460 134Q427 -1 424 -47Q392 -55 374 -55Q362 -55 328 -47Q352 32 380 136Q350 137 291
137Q226 137 201 136Q167 3 164 -47Q132 -55 114 -55Q102 -55 68 -47Q94 37 119 133L65 130L44 128Q35 148 35 168Q35 188 44 209L99 206L139 204L174 344L91 338Q82 358 82 378Q82 398 91 419Q141 415 191 414Q219 535 222 574Q254 582 273 582Q284 582 318 574Q307
538 272 413Q303 412 364 412Q426 412 451 413Q479 534 482 574Q514 582 533 582Q544 582 578 574L533 415L610 421Q618 395 618 381Q618 368 610 340Q583 342 514 344ZM422 294L435 346Q402 347 338 347Q278 347 254 346L217 203Q251 202 317 202Q375 202 398
203L422 294Z" />
<glyph unicode="$" glyph-name="dollar" horiz-adv-x="461" d="M215 -86T191 -80Q194 -8 194 10Q105 13 32 45Q32 70 36 89T49 128Q74 104 117 91T210 77Q257 77 282 91T308 132Q308 157 283 174T203 214Q150 238 117 256T60 305T36 378Q36 429 79 464T196 510Q193
584 188 607Q209 614 228 614Q245 614 269 607L268 586Q266 544 266 513Q350 511 410 489Q410 461 399 425T371 368Q327 402 282 423T205 445Q188 442 173 430T158 399Q158 372 184 355T266 312Q319 289 351 271T406 223T429 151Q429 91 388 55T265 12Q268 -60
273 -80Q254 -86 233 -86Q215 -86 191 -80Z" />
<glyph unicode="%" glyph-name="percent" horiz-adv-x="782" d="M105 254T67 292T29 390Q29 455 75 496T194 537Q253 537 290 501T327 405Q327 338 283 296T167 254Q105 254 67 292ZM207 323T224 344T242 404Q242 439 227 462T184 491Q154 491 134 467T114 407Q114
369 131 346T176 323Q207 323 224 344ZM263 -75T234 -66Q354 240 452 567Q483 576 505 576Q519 576 548 567Q428 261 330 -66Q299 -75 277 -75Q263 -75 234 -66ZM531 -6T493 32T455 130Q455 195 501 236T620 277Q679 277 716 241T753 145Q753 78 709 36T593 -6Q531
-6 493 32ZM633 63T650 84T668 144Q668 179 653 202T610 231Q580 231 560 207T540 147Q540 109 557 86T602 63Q633 63 650 84Z" />
<glyph unicode="&amp;" glyph-name="ampersand" horiz-adv-x="563" d="M115 -11T70 26T25 123Q25 176 58 215T156 277Q112 346 112 394Q112 458 167 495T318 533Q405 533 471 499Q471 470 459 433T431 378Q378 443 307 474Q272 474 250 454T228 402Q228 374 272
310T383 174Q406 223 411 288Q467 294 519 294Q503 273 486 244T465 207Q443 164 422 133Q498 57 558 15Q526 4 492 -1T410 -6L352 48Q285 -11 188 -11Q115 -11 70 26ZM275 55T314 84Q233 168 187 230Q147 195 147 140Q147 102 171 79T235 55Q275 55 314 84Z" />
<glyph unicode="&apos;" glyph-name="quotesingle" horiz-adv-x="158" d="M76 338T35 375V534Q60 542 82 545T133 549Q125 495 123 443T121 312H96Q76 338 35 375Z" />
<glyph unicode="(" glyph-name="parenleft" horiz-adv-x="336" d="M186 -119T115 -19T43 264Q43 448 114 547T324 647Q329 622 329 605Q329 579 324 546Q264 555 223 555Q197 548 183 463T169 264Q169 150 183 64T223 -29Q264 -29 324 -20Q329 -53 329 -77Q329
-94 324 -119Q186 -119 115 -19Z" />
<glyph unicode=")" glyph-name="parenright" horiz-adv-x="336" d="M8 -94T8 -77Q8 -53 13 -20Q73 -29 114 -29Q139 -22 153 64T167 264Q167 377 153 462T114 555Q73 555 13 546Q8 579 8 605Q8 622 13 647Q151 647 222 548T294 264Q294 81 223 -19T13 -119Q8 -94 8 -77Z" />
<glyph unicode="*" glyph-name="asterisk" horiz-adv-x="404" d="M177 304T180 334T183 408Q119 354 54 356Q44 384 40 409T36 467Q70 459 100 457T175 454Q121 516 123 584Q150 594 175 598T234 602Q226 568 224 537T221 461Q285 515 351 513Q360 483 364 459T369
403Q336 411 306 413T228 417Q282 352 280 287Q251 277 227 273T170 269Q177 304 180 334Z" />
<glyph unicode="+" glyph-name="plus" horiz-adv-x="533" d="M471 251T467 221Q357 225 307 226Q309 128 311 77Q288 72 267 72Q247 72 222 77Q226 178 227 226Q174 225 68 221Q63 244 63 265Q63 285 68 310Q174 306 227 306Q225 419 222 476Q250 480 266 480Q281
480 311 476Q307 400 307 306Q359 306 467 310Q471 282 471 266Q471 251 467 221Z" />
<glyph unicode="," glyph-name="comma" horiz-adv-x="212" d="M23 -95Q39 -75 48 -48T57 10Q57 63 40 103Q61 116 89 124T144 133L172 103Q167 39 135 -18T46 -120L23 -95Z" />
<glyph unicode="-" glyph-name="hyphen" horiz-adv-x="413" d="M45 187T45 254Q115 249 201 249Q245 249 288 254T352 268Q368 214 368 142Q298 147 212 147Q168 147 125 142T61 128Q45 187 45 254Z" />
<glyph unicode="." glyph-name="period" horiz-adv-x="210" d="M70 29T23 68Q60 113 105 150Q144 103 188 68Q150 23 105 -15Q70 29 23 68Z" />
<glyph unicode="/" glyph-name="slash" horiz-adv-x="330" d="M71 -87T40 -78Q79 63 135 302T194 605Q223 614 245 614Q259 614 290 605Q249 455 194 220T136 -78Q107 -87 86 -87Q71 -87 40 -78Z" />
<glyph unicode="0" glyph-name="zero" horiz-adv-x="581" d="M200 -11T145 21T60 113T30 250Q30 332 66 396T169 497T318 533Q387 533 440 501T522 412T551 278Q551 194 516 128T417 26T272 -11Q200 -11 145 21ZM354 83T393 133T432 271Q432 351 398 403T303 468Q259
468 224 443T169 375T149 277Q149 190 187 137T287 83Q354 83 393 133Z" />
<glyph unicode="1" glyph-name="one" horiz-adv-x="345" d="M197 -6T156 0Q161 53 164 138T167 295Q167 357 165 383L51 311Q23 349 8 398Q57 422 115 456Q146 474 177 496T221 533Q251 533 290 527Q285 475 282 389T279 227Q279 44 295 0Q262 -6 229 -6Q197 -6 156 0Z" />
<glyph unicode="2" glyph-name="two" horiz-adv-x="512" d="M431 -1T356 1T196 3Q96 3 40 0V43Q321 263 321 396Q321 425 306 443T261 465Q230 461 183 438T89 378Q73 399 62 435T50 499Q83 515 137 524T250 534Q341 534 393 500T445 405Q445 279 199 103Q237
97 290 97Q343 97 392 104T472 123Q472 87 466 49T452 -5Q431 -1 356 1Z" />
<glyph unicode="3" glyph-name="three" horiz-adv-x="490" d="M115 -11T35 35Q35 71 53 118Q77 90 119 74T210 57Q268 57 300 83T332 157Q332 192 313 218T260 258Q238 258 217 245T183 212Q170 212 155 221T139 238Q147 262 180 288L347 415Q287 417 185 417Q145
417 121 413T80 399Q69 425 62 460T55 527Q97 516 211 516Q287 516 331 523T404 546Q421 535 430 516T440 475Q440 445 422 418T362 360L295 309Q365 302 410 260T455 157Q455 75 396 32T221 -11Q115 -11 35 35Z" />
<glyph unicode="4" glyph-name="four" horiz-adv-x="494" d="M317 -6T275 0Q283 53 284 115H232Q157 115 114 111T42 95Q15 115 15 149Q15 189 42 237Q81 305 132 389T228 546Q271 546 303 539T365 515Q320 476 254 397T115 206Q217 204 286 204Q285 302 270 343Q303
349 336 349Q369 349 409 343Q402 288 399 208Q447 213 469 222Q469 194 462 162T444 104L399 110Q402 32 414 0Q382 -6 349 -6Q317 -6 275 0Z" />
<glyph unicode="5" glyph-name="five" horiz-adv-x="478" d="M113 -11T35 35Q35 78 52 118Q76 89 116 73T204 57Q260 57 290 84T321 162Q321 232 247 268Q224 268 191 255T122 217Q102 222 87 229T71 240L90 527Q127 516 240 516Q373 516 423 527Q423 496 416
461T398 399Q381 409 357 413T291 417Q227 417 135 414L126 288Q189 328 266 328Q316 328 356 307T420 247T443 162Q443 78 385 34T216 -11Q113 -11 35 35Z" />
<glyph unicode="6" glyph-name="six" horiz-adv-x="508" d="M187 -9T138 20T61 101T33 223Q33 375 104 454T315 533Q391 533 444 509Q444 482 432 445T404 388Q369 418 330 438T268 459Q225 444 198 403T160 296Q224 338 292 338Q375 338 425 291T476 168Q476
117 448 77T368 14T252 -9Q187 -9 138 20ZM302 57T328 88T354 171Q354 218 324 245T242 273Q192 259 155 228V221Q155 144 182 101T259 57Q302 57 328 88Z" />
<glyph unicode="7" glyph-name="seven" horiz-adv-x="464" d="M159 -6T127 1T65 25Q121 86 192 183T338 415Q226 417 152 417Q114 417 90 413T50 399Q39 426 32 461T25 527Q83 516 227 516Q296 516 338 523T407 546Q423 535 431 519T439 487Q439 462 433 440T411
391Q373 325 309 203T202 -6Q159 -6 127 1Z" />
<glyph unicode="8" glyph-name="eight" horiz-adv-x="523" d="M152 -11T94 26T35 123Q35 162 62 195T138 252Q97 274 75 305T52 383Q52 427 81 461T163 514T283 533Q367 533 419 497T471 402Q471 366 448 335T381 282Q431 261 459 230T488 149Q488 101 457 65T370
9T246 -11Q152 -11 94 26ZM355 341T355 392Q355 424 334 445T272 474Q226 474 197 455T168 402Q168 378 186 362T228 336T308 308Q355 341 355 392ZM308 55T337 74T366 127Q366 155 338 171T249 207Q235 211 207 221Q157 188 157 135Q157 99 185 77T259 55Q308
55 337 74Z" />
<glyph unicode="9" glyph-name="nine" horiz-adv-x="498" d="M106 -11T35 35Q35 76 52 118Q75 90 114 74T199 58Q263 58 299 98T342 211Q278 167 206 167Q129 167 81 215T33 341Q33 397 59 440T133 508T242 533Q308 533 359 502T438 415T466 286Q466 142 398 66T201
-11Q106 -11 35 35ZM306 247T343 276Q340 360 314 406T242 452Q202 452 179 423T155 346Q155 293 182 262T256 231Q306 247 343 276Z" />
<glyph unicode=":" glyph-name="colon" horiz-adv-x="210" d="M70 29T23 68Q60 113 105 150Q144 103 188 68Q150 23 105 -15Q70 29 23 68ZM70 297T23 336Q60 381 105 418Q144 371 188 336Q150 291 105 253Q70 297 23 336Z" />
<glyph unicode=";" glyph-name="semicolon" horiz-adv-x="210" d="M23 -95Q39 -75 48 -48T57 10Q57 63 40 103Q61 116 89 124T144 133L172 103Q167 39 135 -18T46 -120L23 -95ZM70 297T23 336Q60 381 105 418Q144 371 188 336Q150 291 105 253Q70 297 23 336Z" />
<glyph unicode="&lt;" glyph-name="less" horiz-adv-x="533" d="M457 427T468 376L177 265L468 156Q458 107 434 73Q355 110 252 151T65 223Q61 242 61 265Q61 289 65 309Q145 337 247 378T434 458Q457 427 468 376Z" />
<glyph unicode="=" glyph-name="equal" horiz-adv-x="533" d="M63 400T63 421Q63 441 68 466Q157 462 267 462Q378 462 467 466Q471 438 471 422Q471 407 467 377Q355 382 267 382Q180 382 68 377Q63 400 63 421ZM63 344T63 365Q63 385 68 410Q157 406 267 406Q378
406 467 410Q471 382 471 366Q471 351 467 321Q355 326 267 326Q180 326 68 321Q63 344 63 365Z" />
<glyph unicode="&gt;" glyph-name="greater" horiz-adv-x="533" d="M75 109T65 156L356 266L65 376Q76 424 99 458Q180 421 283 380T469 309Q472 287 472 266Q472 244 469 223Q384 194 282 152T99 73Q75 109 65 156Z" />
<glyph unicode="?" glyph-name="question" horiz-adv-x="384" d="M131 267Q178 286 202 317T227 390Q227 432 205 455T142 479Q108 479 79 463T32 418Q18 457 18 501Q85 547 171 547Q258 547 303 508T349 392Q349 345 322 307T250 244T152 213L131 267ZM124 30T79
68Q118 115 162 150Q199 105 244 68Q209 24 162 -15Q124 30 79 68Z" />
<glyph unicode="@" glyph-name="at" horiz-adv-x="819" d="M278 -124T205 -82T91 36T50 212Q50 324 99 411T235 546T434 595Q534 595 609 552T727 431T769 251Q769 163 743 104T675 17T589 -11Q543 -11 508 13T460 88Q429 70 397 60T337 49Q295 49 273 70T251
126Q251 228 460 242Q459 278 442 293T389 309Q359 309 330 299T279 271L268 321Q295 358 340 380T432 403Q497 403 531 375T566 293Q566 268 562 218Q558 164 558 135Q558 56 613 56Q632 56 650 72T680 123T692 206Q692 323 624 399T433 495Q347 495 279 459T172
359T133 214Q133 134 161 72T245 -27T377 -63Q409 -63 439 -55T487 -34Q496 -50 499 -63T503 -94Q446 -124 374 -124Q278 -124 205 -82ZM418 108T455 130Q455 173 460 204Q413 201 388 186T362 146Q362 134 368 123T385 105Q418 108 455 130Z" />
<glyph unicode="A" glyph-name="A" horiz-adv-x="532" d="M427 -5T391 2Q360 91 347 126Q294 129 231 129Q163 129 135 125Q118 80 91 2Q69 -4 51 -4Q28 -4 4 2Q32 52 103 238T209 529Q244 534 268 534Q293 534 323 529Q358 424 429 238T528 2Q496 -5 458 -5Q427
-5 391 2ZM290 198T320 200Q273 330 241 404Q209 326 163 201Q212 198 269 198Q290 198 320 200Z" />
<glyph unicode="B" glyph-name="B" horiz-adv-x="530" d="M212 -12T155 -5T60 15Q64 58 66 142T69 305Q69 469 53 505Q91 517 149 524T264 532Q364 532 417 496T471 391Q471 356 450 327T389 279Q439 259 467 224T496 144Q496 69 437 29T268 -12Q212 -12 155 -5ZM220
299T267 299L296 298Q321 314 335 335T349 380Q349 454 253 454Q219 454 187 445Q183 358 182 290Q220 299 267 299ZM374 46T374 144Q374 178 353 204T293 245Q254 245 181 220Q181 121 186 58Q219 46 257 46Q374 46 374 144Z" />
<glyph unicode="C" glyph-name="C" horiz-adv-x="495" d="M157 -11T96 54T35 241Q35 326 70 392T169 496T315 533Q406 533 464 509Q464 480 452 443T424 388Q384 420 339 442T268 464Q238 456 213 427T172 355T157 269Q157 178 196 133T306 87Q350 87 393 98T465
128L478 78Q443 38 386 14T270 -11Q157 -11 96 54Z" />
<glyph unicode="D" glyph-name="D" horiz-adv-x="583" d="M196 -6T146 -2T58 10Q63 58 66 141T69 300Q69 466 53 505Q88 517 145 524T263 532Q400 532 474 463T548 266Q548 186 510 125T402 29T243 -6Q196 -6 146 -2ZM327 64T358 92T407 163T426 248Q426 454 242
454Q211 454 187 446Q181 352 181 227Q181 129 185 78Q253 58 290 58Q327 64 358 92Z" />
<glyph unicode="E" glyph-name="E" horiz-adv-x="473" d="M69 146T69 300Q69 392 66 441T53 527Q108 520 223 520Q360 520 436 527Q436 494 430 457T415 406Q390 419 350 426T268 433Q223 433 186 427Q182 349 182 301Q224 299 247 299Q297 299 324 301T384 310Q388
284 388 266Q388 251 384 221Q252 229 181 228Q181 149 184 99Q226 91 273 91Q319 91 365 98T440 118Q440 85 434 48T419 -3Q352 4 228 4Q114 4 58 -3Q69 146 69 300Z" />
<glyph unicode="F" glyph-name="F" horiz-adv-x="434" d="M99 -6T58 0Q63 47 66 127T69 275Q69 377 66 432T53 527Q113 520 223 520Q353 520 416 527Q416 493 410 456T395 406Q374 419 340 426T268 433Q222 433 183 427Q180 337 180 301Q216 299 237 299Q282 299
307 301T364 310Q368 287 368 266Q368 245 364 221Q246 229 181 228Q181 42 197 0Q164 -6 131 -6Q99 -6 58 0Z" />
<glyph unicode="G" glyph-name="G" horiz-adv-x="532" d="M157 -11T96 54T35 241Q35 326 70 392T169 496T315 533Q414 533 474 509Q474 480 462 443T434 388Q393 420 345 442T268 464Q238 456 213 427T172 355T157 269Q157 170 194 124T311 77Q343 77 370 84Q368
220 354 255Q383 261 417 261Q446 261 488 255Q480 175 478 58Q443 27 386 8T270 -11Q157 -11 96 54Z" />
<glyph unicode="H" glyph-name="H" horiz-adv-x="564" d="M99 -6T58 0Q63 53 66 138T69 295Q69 479 53 527Q86 533 123 533Q153 533 192 527Q184 440 182 302Q240 299 312 299Q342 299 384 301Q384 481 368 527Q401 533 438 533Q468 533 507 527Q502 473 499 389T496
232Q496 44 512 0Q479 -6 446 -6Q414 -6 373 0Q380 88 383 226Q307 228 264 228Q227 228 181 226Q181 42 197 0Q164 -6 131 -6Q99 -6 58 0Z" />
<glyph unicode="I" glyph-name="I" horiz-adv-x="249" d="M99 -6T58 0Q69 154 69 295Q69 479 53 527Q86 533 123 533Q153 533 192 527Q187 475 184 389T181 227Q181 44 197 0Q164 -6 131 -6Q99 -6 58 0Z" />
<glyph unicode="J" glyph-name="J" horiz-adv-x="319" d="M32 -12T-15 2Q-15 30 -6 63T16 118Q47 90 77 74T126 57Q140 67 146 87T155 154T157 300Q157 478 137 527Q172 533 205 533Q237 533 276 527Q269 460 269 227Q269 -12 86 -12Q32 -12 -15 2Z" />
<glyph unicode="K" glyph-name="K" horiz-adv-x="523" d="M99 -6T58 0Q63 53 66 138T69 295Q69 479 53 527Q86 533 123 533Q153 533 192 527Q183 420 181 278Q289 393 325 444T361 522Q426 533 499 533Q407 444 294 316Q445 73 523 15Q490 3 455 -1T375 -6Q339
56 217 229Q202 213 181 188Q182 39 197 0Q164 -6 131 -6Q99 -6 58 0Z" />
<glyph unicode="L" glyph-name="L" horiz-adv-x="420" d="M69 147T69 295Q69 485 53 527Q86 533 121 533Q152 533 192 527Q187 475 184 389T181 227Q181 142 184 94Q227 86 276 86Q312 86 349 93T413 113Q413 81 407 46T392 -3Q335 4 231 4Q115 4 58 -3Q69 147 69 295Z" />
<glyph unicode="M" glyph-name="M" horiz-adv-x="713" d="M83 -6T57 0Q65 104 65 295Q65 456 53 527Q83 533 116 533Q149 533 187 527Q214 463 264 352T352 166Q390 244 438 349T517 527Q542 533 582 533Q614 533 656 527Q651 477 648 391T645 227Q645 44 661
0Q627 -6 590 -6Q561 -6 522 0Q527 50 530 136T533 300Q533 337 531 389Q487 299 435 184T353 0Q338 -5 326 -5Q316 -5 301 0Q276 58 229 162T139 355Q138 313 138 227Q138 47 149 0Q125 -6 101 -6Q83 -6 57 0Z" />
<glyph unicode="N" glyph-name="N" horiz-adv-x="543" d="M80 -6T51 0Q59 104 59 295Q59 480 48 527Q76 533 113 533Q142 533 187 527Q219 464 285 348T410 136Q412 242 412 300Q412 486 401 527Q422 533 443 533Q465 533 493 527Q485 397 485 232Q485 49 496
0Q469 -6 432 -6Q398 -6 356 0Q324 61 259 176T134 391Q132 285 132 227Q132 47 143 0Q122 -6 100 -6Q80 -6 51 0Z" />
<glyph unicode="O" glyph-name="O" horiz-adv-x="611" d="M207 -13T152 19T66 110T35 244Q35 329 71 395T174 498T324 535Q399 535 456 502T544 410T576 272Q576 189 539 125T433 24T279 -13Q207 -13 152 19ZM372 52T413 100T454 232Q454 309 418 363T319 431Q273
431 236 407T178 339T157 240Q157 155 197 104T302 52Q372 52 413 100Z" />
<glyph unicode="P" glyph-name="P" horiz-adv-x="494" d="M99 -6T58 0Q63 49 66 134T69 295Q69 466 53 505Q85 517 141 524T253 532Q358 532 414 487T471 356Q471 299 442 255T362 185T243 160Q214 160 182 165Q184 37 197 0Q164 -6 131 -6Q99 -6 58 0ZM310 240T329
273T349 348Q349 454 232 454Q206 454 187 449Q181 331 181 244Q246 224 280 224Q310 240 329 273Z" />
<glyph unicode="Q" glyph-name="Q" horiz-adv-x="611" d="M576 172T522 100T377 1Q447 -86 488 -113Q457 -125 423 -129T345 -134Q329 -102 273 -13Q202 -12 148 21T65 111T35 244Q35 329 71 395T174 498T324 535Q399 535 456 502T544 410T576 272Q576 172 522
100ZM372 52T413 100T454 232Q454 309 418 363T319 431Q273 431 236 407T178 339T157 240Q157 155 197 104T302 52Q372 52 413 100Z" />
<glyph unicode="R" glyph-name="R" horiz-adv-x="513" d="M99 -6T58 0Q63 49 66 135T69 295Q69 466 53 505Q85 517 141 524T253 532Q358 532 414 487T471 356Q471 307 445 269T371 207Q449 54 495 15Q462 3 428 -1T349 -6Q329 47 257 181L241 180Q221 180 181
185Q182 44 197 0Q164 -6 131 -6Q99 -6 58 0ZM311 260T330 287T349 348Q349 454 232 454Q206 454 187 449Q183 373 181 265Q247 244 280 244Q311 260 330 287Z" />
<glyph unicode="S" glyph-name="S" horiz-adv-x="461" d="M111 -11T32 25Q32 50 36 69T49 108Q74 84 117 71T210 57Q257 57 282 74T308 122Q308 149 283 167T202 212Q149 237 117 257T60 310T36 388Q36 453 94 493T250 533Q344 533 410 509Q410 481 399 445T371
388Q327 422 282 443T205 465Q188 462 173 447T158 409Q158 380 183 361T266 315Q317 291 350 271T406 219T429 141Q429 68 376 29T217 -11Q111 -11 32 25Z" />
<glyph unicode="T" glyph-name="T" horiz-adv-x="451" d="M201 -6T159 0Q164 52 167 138T170 300Q170 364 166 430Q43 429 13 417Q8 452 8 476Q8 496 13 526Q54 522 123 520T255 517Q404 517 439 530Q444 498 444 477Q444 451 439 421Q381 426 287 429Q282 326
282 227Q282 44 298 0Q271 -6 230 -6Q201 -6 159 0Z" />
<glyph unicode="U" glyph-name="U" horiz-adv-x="533" d="M168 -5T114 48T59 200Q59 303 55 400T43 527Q78 533 113 533Q143 533 182 527Q176 387 176 210Q176 80 286 80Q406 80 406 197Q406 470 398 527Q421 533 443 533Q463 533 490 527Q487 470 485 374T482
205Q482 113 433 54T266 -5Q168 -5 114 48Z" />
<glyph unicode="V" glyph-name="V" horiz-adv-x="516" d="M225 -9T202 19T161 92T116 222Q85 318 62 382T5 512Q72 533 154 533Q162 485 182 406T223 260Q265 138 295 85Q355 265 382 365T410 505Q410 518 408 522Q453 533 511 533Q477 438 428 285T348 27L256
-9Q225 -9 202 19Z" />
<glyph unicode="W" glyph-name="W" horiz-adv-x="805" d="M207 -9T185 19T147 91T106 222Q79 315 58 380T5 512Q74 533 155 533Q161 484 178 405T214 260Q248 155 268 111Q337 322 364 427L328 512Q392 533 477 533Q485 482 502 402T537 260Q564 172 590 111Q647
284 673 377T699 506Q699 514 697 522Q742 533 800 533Q766 442 716 289T633 27L561 -9Q530 -9 508 19T470 91T430 220L402 314Q337 114 311 27L238 -9Q207 -9 185 19Z" />
<glyph unicode="X" glyph-name="X" horiz-adv-x="520" d="M78 80T207 251Q47 487 14 512Q72 533 162 533Q168 519 203 464T282 342Q337 413 366 459T401 527Q454 533 521 533Q430 434 319 287Q485 42 520 15Q487 3 452 -1T372 -6Q357 26 245 195Q185 120 154 71T118
0Q64 -6 -3 -6Q78 80 207 251Z" />
<glyph unicode="Y" glyph-name="Y" horiz-adv-x="491" d="M222 -6T180 0Q188 70 190 187Q144 289 85 390T5 512Q64 533 155 533Q162 509 195 434T270 281Q318 374 342 436T368 527Q422 533 486 533Q406 418 303 188Q303 36 319 0Q288 -6 254 -6Q222 -6 180 0Z" />
<glyph unicode="Z" glyph-name="Z" horiz-adv-x="460" d="M375 3T182 3Q65 3 18 0V43Q62 84 147 185T330 414L288 415Q206 417 156 417Q118 417 94 413T54 399Q43 426 36 461T29 527Q87 516 231 516Q299 516 341 523T411 546Q427 536 435 521T443 492Q443 464
423 435Q406 411 349 340T270 240L161 103Q215 97 261 97Q309 97 358 104T439 123Q439 91 434 52T419 -5Q375 3 182 3Z" />
<glyph unicode="[" glyph-name="bracketleft" horiz-adv-x="356" d="M280 -111T159 -111Q115 -111 58 -117Q62 -47 65 85T69 289Q69 435 65 515T53 643Q92 639 151 639Q272 639 313 652Q318 620 318 599Q318 573 313 543Q253 549 182 550Q176 424 176 289Q176
59 185 -22Q262 -21 321 -15Q326 -45 326 -71Q326 -92 321 -124Q280 -111 159 -111Z" />
<glyph unicode="\" glyph-name="backslash" horiz-adv-x="330" d="M223 -87T194 -78Q191 -14 135 225T40 605Q71 614 86 614Q107 614 136 605Q139 543 194 307T290 -78Q259 -87 245 -87Q223 -87 194 -78Z" />
<glyph unicode="]" glyph-name="bracketright" horiz-adv-x="356" d="M76 639T197 639Q241 639 298 645Q294 575 291 443T287 240Q287 94 291 13T303 -115Q264 -111 205 -111Q84 -111 43 -124Q38 -92 38 -71Q38 -45 43 -15Q103 -21 174 -22Q180 106 180 240Q180
470 171 550Q94 549 35 543Q30 573 30 599Q30 620 35 652Q76 639 197 639Z" />
<glyph unicode="^" glyph-name="asciicircum" horiz-adv-x="386" d="M61 367T45 381T10 420Q59 468 97 509T176 602H210Q285 509 376 420Q358 397 342 382T306 354L193 496L81 354Q61 367 45 381Z" />
<glyph unicode="_" glyph-name="underscore" horiz-adv-x="499" d="M45 -64T45 5Q134 0 242 0Q298 0 354 5T436 19Q454 -38 454 -107Q365 -102 257 -102Q200 -102 145 -107T63 -121Q45 -64 45 5Z" />
<glyph unicode="`" glyph-name="grave" horiz-adv-x="218" d="M144 476T88 502T0 566Q31 618 115 618Q120 584 149 549T219 497L208 467Q144 476 88 502Z" />
<glyph unicode="a" glyph-name="a" horiz-adv-x="437" d="M80 -11T55 15T30 83Q30 146 88 181T265 225Q263 271 245 290T183 310Q150 310 116 300T57 273L49 319Q79 363 128 390T229 418Q301 418 339 384T377 284Q377 248 372 203Q368 155 368 132Q368 95 376
74T407 27Q363 -5 306 -11Q279 8 267 40Q231 16 194 3T125 -11Q80 -11 55 15ZM217 55T258 84V92Q258 120 261 145L264 182Q208 177 178 157T148 103Q148 88 155 73T175 50Q217 55 258 84Z" />
<glyph unicode="b" glyph-name="b" horiz-adv-x="482" d="M209 -9T176 4T118 40L94 0Q77 0 45 5Q49 54 52 157T55 333Q55 472 38 527Q98 547 175 547Q168 493 165 366Q223 410 290 410Q366 410 408 358T450 212Q450 105 398 48T248 -9Q209 -9 176 4ZM281 49T307
80T333 173Q333 230 313 267T255 321Q208 321 163 297L161 192Q161 113 168 79Q195 49 232 49Q281 49 307 80Z" />
<glyph unicode="c" glyph-name="c" horiz-adv-x="405" d="M125 -11T78 41T30 191Q30 257 58 308T138 389T254 418Q322 418 369 394Q369 373 360 339T338 278Q301 311 266 330T207 349Q180 332 164 297T148 217Q148 151 173 119T255 87Q290 87 321 96T374 124L382
73Q354 35 308 12T214 -11Q125 -11 78 41Z" />
<glyph unicode="d" glyph-name="d" horiz-adv-x="500" d="M123 -12T81 41T38 197Q38 306 81 362T210 418Q273 418 324 383Q320 477 306 527Q362 547 443 547Q431 430 431 152Q431 109 439 85T470 32Q448 15 420 4T364 -11Q339 9 328 40Q301 16 269 2T205 -12Q123
-12 81 41ZM280 56T321 89Q321 121 323 189Q325 261 325 299Q293 317 253 317Q155 317 155 186Q155 130 177 94T237 50Q280 56 321 89Z" />
<glyph unicode="e" glyph-name="e" horiz-adv-x="465" d="M127 -11T80 41T33 191Q33 257 61 308T139 389T255 418Q340 418 384 364T428 204Q373 191 299 182T152 171Q160 127 185 107T256 86Q345 86 401 124L413 78Q381 38 327 14T215 -11Q127 -11 80 41ZM191
221T233 231T301 253Q299 298 273 328T208 359Q181 342 165 303T148 216Q191 221 233 231Z" />
<glyph unicode="f" glyph-name="f" horiz-adv-x="317" d="M41 -137Q69 -98 79 -54T90 84Q90 159 82 330Q42 331 30 338T18 368Q47 382 82 407Q96 488 146 536T268 585Q330 585 374 569Q374 547 365 512T345 458Q272 512 231 516Q215 504 208 479T198 396Q264 397
302 404Q302 361 285 321Q250 332 196 333V281Q196 198 201 131Q203 77 203 63Q203 15 191 -20T149 -87T66 -159L41 -137Z" />
<glyph unicode="g" glyph-name="g" horiz-adv-x="447" d="M149 -180T104 -169T28 -137Q28 -104 40 -71T76 -10Q42 9 42 49Q42 79 61 103T114 142Q83 160 66 190T49 260Q49 306 72 342T138 398T235 418Q290 418 327 397Q371 410 421 454Q432 433 439 406T447 361Q417
346 382 343Q397 315 397 277Q397 231 373 195T305 139T207 119Q165 119 140 108T114 77L302 67Q363 62 394 36T426 -38Q426 -78 397 -110T318 -161T205 -180Q149 -180 104 -169ZM256 174T275 193T294 246Q294 277 277 298T230 329Q196 329 174 306T152 248Q152
214 171 194T222 174Q256 174 275 193ZM277 -108T306 -95T335 -62Q335 -45 321 -39T272 -30L129 -22Q119 -43 115 -62Q153 -108 230 -108Q277 -108 306 -95Z" />
<glyph unicode="h" glyph-name="h" horiz-adv-x="486" d="M92 -6T51 0Q58 128 58 255Q58 429 48 527Q108 547 185 547Q176 481 171 355Q198 385 233 401T306 418Q423 418 423 280L421 217L419 150Q419 45 439 0Q411 -6 366 -6Q335 -6 300 0Q307 117 307 235Q307
275 292 292T244 310Q201 310 170 288L169 222Q169 45 190 0Q156 -6 122 -6Q92 -6 51 0Z" />
<glyph unicode="i" glyph-name="i" horiz-adv-x="246" d="M98 -9T83 9T68 73Q68 110 70 178Q72 242 72 272Q72 312 67 347T53 397Q87 408 119 412T190 417Q185 388 182 328T178 192Q178 137 181 108T192 62T217 27Q198 9 176 0T135 -9Q98 -9 83 9ZM95 504T50 542Q84
583 125 617Q163 572 200 542Q165 502 125 467Q95 504 50 542Z" />
<glyph unicode="j" glyph-name="j" horiz-adv-x="250" d="M-25 -161Q11 -128 32 -97T63 -17T74 106Q74 221 73 274T67 355T53 397Q87 408 119 412T190 417Q183 357 183 172L184 120Q186 88 186 63Q186 2 165 -39T105 -112T-9 -189L-25 -161ZM100 504T55 542Q89
583 130 617Q168 572 205 542Q170 502 130 467Q100 504 55 542Z" />
<glyph unicode="k" glyph-name="k" horiz-adv-x="458" d="M93 -6T51 0Q58 128 58 255Q58 429 48 527Q108 547 185 547Q178 494 174 402T169 227V212Q263 313 293 351T324 407Q380 418 442 418Q387 367 292 266Q410 63 474 15Q423 -6 330 -6Q308 36 214 181L170
132Q175 33 190 0Q159 -6 127 -6Q93 -6 51 0Z" />
<glyph unicode="l" glyph-name="l" horiz-adv-x="241" d="M93 -9T78 9T63 73Q63 104 65 172Q67 248 67 297Q67 458 48 527Q82 538 114 542T185 547Q173 441 173 192Q173 137 176 108T187 62T212 27Q193 9 171 0T130 -9Q93 -9 78 9Z" />
<glyph unicode="m" glyph-name="m" horiz-adv-x="756" d="M114 -6T80 0Q87 100 87 213Q87 268 84 297T73 343T48 378Q68 397 92 405T135 414Q192 414 201 356Q226 386 258 402T326 418Q414 418 438 347Q463 380 497 399T571 418Q693 418 693 280L691 217L689 150Q689
45 709 0Q680 -6 636 -6Q605 -6 570 0Q577 109 577 235Q577 275 562 292T514 310Q475 310 447 291Q447 268 445 212L444 150Q444 45 464 0Q436 -6 391 -6Q360 -6 325 0Q332 109 332 235Q332 275 317 292T269 310Q230 310 202 291L201 262Q199 198 199 150Q199 45
219 0Q191 -6 156 -6Q114 -6 80 0Z" />
<glyph unicode="n" glyph-name="n" horiz-adv-x="516" d="M114 -6T80 0Q87 100 87 213Q87 268 84 297T73 343T48 378Q68 397 92 405T135 414Q193 414 201 355Q228 385 263 401T336 418Q453 418 453 280L451 217L449 150Q449 45 469 0Q441 -6 396 -6Q365 -6 330
0Q337 109 337 235Q337 275 322 292T274 310Q231 310 202 290L201 261Q199 197 199 150Q199 45 219 0Q191 -6 156 -6Q114 -6 80 0Z" />
<glyph unicode="o" glyph-name="o" horiz-adv-x="498" d="M171 -11T127 14T58 86T33 192Q33 258 62 309T144 389T264 418Q324 418 370 393T441 321T466 215Q466 149 436 98T352 18T229 -11Q171 -11 127 14ZM297 44T325 78T354 174Q354 227 329 266T259 319Q207
319 176 284T145 187Q145 122 173 83T247 44Q297 44 325 78Z" />
<glyph unicode="p" glyph-name="p" horiz-adv-x="518" d="M72 -122T75 -15T79 213Q79 268 76 297T65 343T40 378Q59 396 81 405T122 414Q177 414 188 362Q214 386 247 399T317 413Q396 413 438 362T480 212Q480 108 422 50T260 -9Q219 -9 187 4Q192 -108 204 -160Q144
-180 67 -180Q72 -122 75 -15ZM305 48T331 82T358 177Q358 229 337 266T278 319Q256 319 233 313T190 296Q185 176 185 112V82Q216 48 257 48Q305 48 331 82Z" />
<glyph unicode="q" glyph-name="q" horiz-adv-x="508" d="M327 -110T330 42Q302 17 270 3T205 -12Q123 -12 81 41T38 197Q38 306 81 362T210 418Q277 418 333 377Q347 414 393 414Q411 414 433 406T475 378Q458 360 451 343T440 297T436 213Q436 93 439 -11T448
-165Q391 -180 311 -180Q327 -110 330 42ZM260 53T284 65T330 97V112Q330 190 327 248L326 299Q295 317 253 317Q155 317 155 186Q155 130 177 94T237 50Q260 53 284 65Z" />
<glyph unicode="r" glyph-name="r" horiz-adv-x="345" d="M121 -6T80 0Q87 100 87 213Q87 268 84 297T73 343T48 378Q67 397 89 405T130 414Q198 414 203 341Q228 373 256 393T320 423Q327 402 332 365T338 295Q320 298 303 298Q273 298 246 291T201 271Q199 203
199 150Q199 45 219 0Q191 -6 151 -6Q121 -6 80 0Z" />
<glyph unicode="s" glyph-name="s" horiz-adv-x="406" d="M93 -11T33 25Q33 68 51 111Q71 87 104 73T179 58Q258 58 258 98Q258 115 240 126T182 154Q138 171 110 187T60 231T39 302Q39 355 85 386T208 418Q298 418 364 394Q364 373 354 337T332 282Q295 313 259
331T197 349Q181 346 171 337T160 316Q160 297 178 285T240 254Q282 236 310 220T358 178T378 114Q378 55 331 22T196 -11Q93 -11 33 25Z" />
<glyph unicode="t" glyph-name="t" horiz-adv-x="322" d="M127 -9T109 11T91 83Q91 114 93 178Q95 250 95 297Q95 314 93 330Q51 330 37 337T23 368Q92 402 160 469L204 466Q208 432 209 396Q276 397 307 404Q307 379 303 360T290 321Q261 332 207 333Q204 294
204 252Q204 140 216 80Q254 81 293 89L299 53Q279 25 244 8T171 -9Q127 -9 109 11Z" />
<glyph unicode="u" glyph-name="u" horiz-adv-x="492" d="M63 -11T63 127L65 190L67 257Q67 355 48 397Q108 417 185 417Q179 333 179 157Q179 119 192 103T237 87Q280 87 313 108Q313 167 316 210L317 257Q317 355 298 397Q358 417 435 417Q431 353 427 265T423
147Q423 106 431 83T462 32Q411 -5 356 -11Q326 10 317 49Q290 21 256 5T185 -11Q63 -11 63 127Z" />
<glyph unicode="v" glyph-name="v" horiz-adv-x="437" d="M190 -9T169 15T133 76T98 179Q75 256 55 305T5 392Q60 413 148 413Q159 351 193 243T255 82Q299 224 315 284T332 373Q332 390 326 402Q374 413 432 413Q375 275 307 27L220 -9Q190 -9 169 15Z" />
<glyph unicode="w" glyph-name="w" horiz-adv-x="699" d="M155 -9T129 73L93 187L66 272Q53 312 37 345T5 392Q58 413 146 413Q153 369 190 249T246 85Q305 269 318 323Q298 371 277 392Q330 413 417 413Q424 370 455 269T514 92Q560 235 576 292T593 376Q593
390 588 402Q632 413 694 413Q638 284 562 23L485 -9Q428 -9 400 73Q370 167 353 226Q330 157 290 23L213 -9Q155 -9 129 73Z" />
<glyph unicode="x" glyph-name="x" horiz-adv-x="454" d="M73 69T168 195Q121 262 77 317T11 392Q66 413 160 413Q188 363 246 280Q288 337 303 362T322 402Q376 413 437 413Q374 343 284 226Q334 155 381 96T450 15Q395 -6 301 -6Q264 57 207 140Q157 72 140
44T119 0Q66 -6 4 -6Q73 69 168 195Z" />
<glyph unicode="y" glyph-name="y" horiz-adv-x="491" d="M161 -180T115 -168T38 -132Q38 -96 59 -54T116 23Q66 53 66 144L68 201L70 264Q70 358 51 397Q74 406 113 411T189 417Q182 326 182 184Q182 144 197 127T245 109Q270 109 288 115T323 134L321 257Q321
304 316 341T302 397Q362 417 439 417Q432 336 432 167Q432 137 435 44L436 0Q436 -90 376 -135T217 -180Q161 -180 115 -168ZM272 -113T298 -82T324 17V73Q262 1 166 7Q137 -34 128 -76Q146 -93 170 -103T222 -113Q272 -113 298 -82Z" />
<glyph unicode="z" glyph-name="z" horiz-adv-x="426" d="M335 0T180 0Q84 0 37 -3V30Q126 114 282 297Q268 297 260 298Q206 300 162 300Q91 300 60 282Q49 310 42 345T35 410Q66 405 115 402T207 399Q276 399 302 404T353 429Q369 415 376 397T384 364Q384 343
376 329Q367 312 291 227Q205 129 180 98Q220 94 248 94Q288 94 327 101T391 120Q391 89 386 50T372 -8Q335 0 180 0Z" />
<glyph unicode="{" glyph-name="braceleft" horiz-adv-x="363" d="M212 -119T144 -82T75 47Q75 73 87 127Q99 179 99 199Q99 218 85 227T38 237V291Q71 292 85 301T99 330Q99 350 88 398Q83 419 79 442T75 481Q75 573 143 610T333 647Q338 622 338 605Q338 579
333 546Q270 555 227 555Q215 544 207 517T199 449L200 374Q200 326 190 299T147 266V262Q179 256 190 229T201 154Q201 130 200 117L199 79Q199 39 207 12T227 -27Q270 -27 333 -18Q338 -51 338 -77Q338 -94 333 -119Q212 -119 144 -82Z" />
<glyph unicode="|" glyph-name="bar" horiz-adv-x="349" d="M141 -111T98 -103Q102 -37 105 91T109 289Q109 429 105 506T93 630Q131 639 176 639Q209 639 252 630Q248 581 245 470T241 289Q241 118 244 34T257 -103Q225 -111 184 -111Q141 -111 98 -103Z" />
<glyph unicode="}" glyph-name="braceright" horiz-adv-x="363" d="M25 -94T25 -77Q25 -51 30 -18Q93 -27 136 -27Q148 -16 156 11T164 79L163 154Q163 202 173 229T216 262V266Q184 271 174 298T163 374L164 449Q164 489 156 516T136 555Q93 555 30 546Q25 579
25 605Q25 622 30 647Q151 647 219 610T288 481Q288 465 284 442T275 398Q264 350 264 330Q264 310 278 301T326 291V237Q293 236 279 227T264 199Q264 179 276 127Q288 73 288 47Q288 -45 220 -82T30 -119Q25 -94 25 -77Z" />
<glyph unicode="~" glyph-name="asciitilde" horiz-adv-x="533" d="M347 202T326 208T276 225Q242 237 223 242T182 248Q144 248 133 212Q96 215 63 231Q79 330 165 330Q185 330 205 325T257 307Q288 295 309 289T351 283Q390 283 400 320Q438 317 471 300Q454
202 368 202Q347 202 326 208Z" />
<glyph unicode="&#xa1;" glyph-name="exclamdown" horiz-adv-x="244" d="M161 372T205 337Q167 292 122 254Q87 298 40 337Q77 382 122 419Q161 372 205 337ZM178 42Q178 -16 183 -59T197 -118Q164 -132 133 -137T60 -143Q65 -102 68 -18T72 160Q119 194 153 228H178V42Z" />
<glyph unicode="&#xa2;" glyph-name="cent" horiz-adv-x="405" d="M360 105T327 84T255 54Q256 -17 263 -50Q244 -56 223 -56Q205 -56 181 -50Q183 -22 185 52Q110 60 70 111T30 252Q30 334 72 392T186 470Q183 553 178 577Q199 584 218 584Q235 584 259 577Q256
538 256 479Q324 479 369 455Q369 434 360 400T338 339Q301 372 266 391T207 410Q180 393 164 358T148 278Q148 212 173 180T255 148Q290 148 321 157T374 185L382 134Q360 105 327 84Z" />
<glyph unicode="&#xa3;" glyph-name="sterling" horiz-adv-x="512" d="M340 97T386 104T462 123Q462 87 456 49T442 -5Q422 -1 352 1T203 3Q99 3 40 0V43Q84 76 102 107T121 172Q121 194 112 226Q87 225 45 218Q40 241 40 262Q40 282 45 307Q57 305 87 303Q70
360 70 400Q70 462 122 498T265 534Q318 534 369 527T450 509Q450 481 439 445T411 388Q329 451 259 465Q227 460 211 441T194 391Q194 376 200 332L204 299H208Q265 299 295 301T364 310Q368 282 368 266Q368 251 364 221Q308 229 209 229Q209 154 174 103Q234
97 290 97Q340 97 386 104Z" />
<glyph unicode="&#xa4;" glyph-name="currency" horiz-adv-x="576" d="M505 196T460 137Q485 114 506 96T538 71Q527 50 514 37T480 13Q459 37 410 90Q350 50 268 50Q203 50 154 83Q111 36 96 13Q63 30 38 71Q71 101 105 133Q72 183 72 253Q72 334 115 391Q60
441 38 456Q57 493 95 514Q128 477 165 439Q222 479 303 479Q374 479 423 445Q469 496 481 514Q503 501 515 489T538 456Q505 427 472 395Q505 345 505 276Q505 196 460 137ZM337 105T365 139T393 235Q393 288 368 327T298 380Q246 380 215 345T184 248Q184 183
212 144T286 105Q337 105 365 139Z" />
<glyph unicode="&#xa5;" glyph-name="yen" horiz-adv-x="491" d="M303 188V158Q348 159 409 168Q414 133 414 124Q414 117 409 79Q363 85 305 86Q310 20 319 0Q288 -6 254 -6Q222 -6 180 0Q183 25 187 86Q156 85 131 83T81 76Q76 99 76 120Q76 140 81 165Q129
159 189 158Q190 168 190 187L177 216Q130 214 81 206Q76 229 76 250Q76 270 81 295Q108 291 140 290Q100 368 60 432T5 512Q64 533 155 533Q162 508 194 436T267 287H273Q320 377 343 438T368 527Q422 533 486 533Q423 441 351 290Q365 291 409 298Q414 263 414
254Q414 247 409 209Q385 212 316 216L303 188Z" />
<glyph unicode="&#xa6;" glyph-name="brokenbar" horiz-adv-x="349" d="M109 441T105 513T93 630Q131 639 176 639Q209 639 252 630Q248 595 244 517T240 392Q179 348 140 309H109Q109 441 105 513ZM137 -111T93 -102Q97 -68 100 10T104 136Q167 183 205 220H236Q236
84 240 12T252 -102Q214 -111 168 -111Q137 -111 93 -102Z" />
<glyph unicode="&#xa7;" glyph-name="section" horiz-adv-x="466" d="M120 -188T53 -155Q53 -112 68 -79Q90 -101 129 -113T215 -125Q256 -125 278 -110T301 -69Q301 -46 279 -30T207 10Q160 32 130 50T78 99T56 170Q56 205 75 233T131 277Q93 303 75 332T56 398Q56
457 109 493T251 530Q335 530 396 508Q396 481 386 448T360 396Q319 428 279 447T211 466Q193 463 182 449T170 417Q170 392 192 376T266 335Q312 314 342 296T393 249T414 177Q414 99 346 64Q414 18 414 -51Q414 -118 365 -153T221 -188Q120 -188 53 -155ZM301
123T301 159Q301 179 281 195T208 237Q192 233 181 220T170 190Q170 168 189 151T260 109Q301 123 301 159Z" />
<glyph unicode="&#xa8;" glyph-name="dieresis" horiz-adv-x="390" d="M232 574T272 542Q242 507 200 471L196 476L190 471Q158 510 119 542Q155 584 190 614L194 609L200 614Q232 574 272 542Z" />
<glyph unicode="&#xa9;" glyph-name="copyright" horiz-adv-x="724" d="M279 -20T209 21T97 133T55 287Q55 370 96 440T208 552T362 594Q445 594 515 553T627 441T669 287Q669 204 628 134T516 22T362 -20Q279 -20 209 21ZM431 31T490 65T583 159T618 287Q618
356 584 415T490 508T362 543Q293 543 234 509T141 415T106 287Q106 218 140 159T234 66T362 31Q431 31 490 65ZM278 114T235 157T192 278Q192 333 216 376T284 444T383 468Q445 468 486 452Q486 435 480 415T464 384Q435 403 402 417T350 431Q315 422 290 383T265
296Q265 233 295 202T377 170Q443 170 490 196L496 172Q474 146 435 130T355 114Q278 114 235 157Z" />
<glyph unicode="&#xaa;" glyph-name="ordfeminine" horiz-adv-x="346" d="M74 293T57 310T39 354Q39 434 203 446Q201 474 188 486T147 498Q124 498 101 490T61 469L52 507Q73 536 108 554T181 572Q232 572 259 550T287 485Q287 466 283 432Q282 424 281 412T280
386Q280 362 286 348T308 318Q275 296 233 293Q213 307 205 326Q181 310 155 302T107 293Q74 293 57 310ZM170 340T199 357V362Q199 373 201 391Q203 407 203 416Q166 413 146 401T126 370Q126 361 131 352T144 337Q170 340 199 357Z" />
<glyph unicode="&#xab;" glyph-name="guillemotleft" horiz-adv-x="488" d="M137 74T106 112T25 206V240Q114 338 167 416Q194 395 211 377T243 335L131 222L243 110Q228 86 211 68T167 30Q137 74 106 112ZM347 74T316 112T235 206V240Q324 338 377 416Q404 395
421 377T453 335L341 222L453 110Q438 86 421 68T377 30Q347 74 316 112Z" />
<glyph unicode="&#xac;" glyph-name="logicalnot" horiz-adv-x="533" d="M407 62T382 67Q386 159 386 224Q312 226 267 226Q180 226 68 221Q63 244 63 265Q63 285 68 310Q157 306 267 306Q378 306 466 310Q466 158 471 67Q448 62 427 62Q407 62 382 67Z" />
<glyph unicode="&#xad;" glyph-name="uni00AD" horiz-adv-x="600" d="M45 187T45 254Q115 249 201 249Q245 249 288 254T352 268Q368 214 368 142Q298 147 212 147Q168 147 125 142T61 128Q45 187 45 254Z" />
<glyph unicode="&#xae;" glyph-name="registered" horiz-adv-x="547" d="M210 218T156 250T70 336T38 454Q38 518 70 572T156 658T274 690Q338 690 392 658T478 572T510 454Q510 390 478 336T392 250T274 218Q210 218 156 250ZM327 257T372 283T444 355T471 454Q471
507 445 552T373 624T274 651Q221 651 176 625T104 553T77 454Q77 401 103 356T175 284T274 257Q327 257 372 283ZM186 323T167 326Q173 390 173 473Q173 559 164 578Q182 584 211 588T271 592Q327 592 357 569T387 504Q387 480 373 461T334 429Q376 351 400 333Q370
323 324 323Q310 354 275 416Q249 416 230 419Q232 345 239 326Q222 323 205 323Q186 323 167 326ZM325 466T325 500Q325 553 259 553Q246 553 233 550L230 458Q265 448 285 448Q325 466 325 500Z" />
<glyph unicode="&#xaf;" glyph-name="overscore" horiz-adv-x="294" d="M16 519T16 530Q16 557 24 594Q83 590 146 590Q182 590 220 594T277 604Q279 584 279 575Q279 543 270 507Q213 511 148 511Q112 511 74 507T18 497Q16 519 16 530Z" />
<glyph unicode="&#xb0;" glyph-name="degree" horiz-adv-x="360" d="M109 345T72 381T34 475Q34 537 79 577T195 617Q254 617 290 582T327 489Q327 425 283 385T170 345Q109 345 72 381ZM210 404T229 426T248 488Q248 524 232 547T186 576Q154 576 133 552T111
491Q111 452 130 428T178 404Q210 404 229 426Z" />
<glyph unicode="&#xb1;" glyph-name="plusminus" horiz-adv-x="533" d="M471 321T467 291Q357 295 307 296Q309 198 311 147Q288 142 267 142Q247 142 222 147Q226 248 227 296Q174 295 68 291Q63 314 63 335Q63 355 68 380Q174 376 227 376Q225 489 222 546Q250
550 266 550Q281 550 311 546Q307 470 307 376Q359 376 467 380Q471 352 471 336Q471 321 467 291ZM63 14T63 35Q63 55 68 80Q157 76 267 76Q378 76 467 80Q471 52 471 36Q471 21 467 -9Q355 -4 267 -4Q180 -4 68 -9Q63 14 63 35Z" />
<glyph unicode="&#xb2;" glyph-name="uni00B2" horiz-adv-x="356" d="M263 262T148 262Q101 262 53 260V289Q211 392 211 456Q211 467 203 474T181 483Q161 479 135 467T84 437Q72 451 64 474T56 517Q114 537 178 537Q230 537 262 517T294 464Q294 428 262 392T169
325Q191 323 203 323Q230 323 258 327T307 337Q307 317 304 293T296 257Q263 262 148 262Z" />
<glyph unicode="&#xb3;" glyph-name="uni00B3" horiz-adv-x="356" d="M102 254T55 278Q55 308 65 334Q79 320 101 312T150 303Q213 303 213 344Q213 358 205 368T181 383Q175 383 165 377T149 360Q138 360 125 366T112 379Q117 396 142 411L220 461H146Q101 461
81 452Q73 468 68 490T62 534Q87 528 160 528Q235 528 270 544Q278 537 283 525T288 502Q288 478 272 461T219 423Q255 416 275 395T296 346Q296 302 262 278T163 254Q102 254 55 278Z" />
<glyph unicode="&#xb4;" glyph-name="acute" horiz-adv-x="218" d="M0 497Q39 514 68 549T103 618Q187 618 219 566Q187 529 131 503T10 467L0 497Z" />
<glyph unicode="&#xb5;" glyph-name="uni00B5" horiz-adv-x="494" d="M61 -179T61 -96Q61 -69 63 27Q67 155 67 257Q67 356 48 397Q104 416 172 416V153Q172 118 186 103T232 87Q280 87 315 113V397Q347 408 374 412T437 417Q432 337 429 250T425 132Q425 95 433
74T464 32Q421 0 383 0Q360 0 345 11T322 42Q309 25 282 13T224 0Q198 0 172 10Q173 -56 181 -85T211 -143Q193 -160 171 -169T129 -179Q61 -179 61 -96Z" />
<glyph unicode="&#xb6;" glyph-name="paragraph" horiz-adv-x="447" d="M276 -6T243 0Q256 50 259 230Q169 196 122 196Q79 222 51 268T23 372Q23 532 220 532Q268 532 316 525T394 505Q381 460 381 265Q381 197 384 121T392 0Q346 -6 309 -6Q276 -6 243 0Z" />
<glyph unicode="&#xb7;" glyph-name="middot" horiz-adv-x="240" d="M85 187T38 226Q75 271 120 308Q159 261 203 226Q165 181 120 143Q85 187 38 226Z" />
<glyph unicode="&#xb8;" glyph-name="cedilla" horiz-adv-x="206" d="M78 -219T49 -206T2 -172L13 -142Q41 -162 74 -162Q99 -162 113 -150T127 -115Q127 -92 109 -75T55 -50L71 14H116L107 -42Q152 -52 178 -78T204 -140Q204 -178 180 -198T110 -219Q78 -219 49 -206Z" />
<glyph unicode="&#xb9;" glyph-name="uni00B9" horiz-adv-x="356" d="M183 257T156 260Q162 323 162 407V444L103 409Q90 427 73 461Q103 475 143 499T199 537Q219 537 246 534Q242 482 242 417Q242 333 249 260Q227 257 204 257Q183 257 156 260Z" />
<glyph unicode="&#xba;" glyph-name="ordmasculine" horiz-adv-x="390" d="M120 293T82 329T44 425Q44 490 89 531T205 572Q269 572 308 536T347 440Q347 375 301 334T181 293Q120 293 82 329ZM227 333T245 353T264 412Q264 444 248 467T202 499Q167 499 147 477T127
417Q127 379 145 356T193 333Q227 333 245 353Z" />
<glyph unicode="&#xbb;" glyph-name="guillemotright" horiz-adv-x="488" d="M85 50T68 68T35 110L147 222L35 335Q50 359 67 377T111 416Q164 338 253 240V206Q204 151 173 113T111 30Q85 50 68 68ZM295 50T278 68T245 110L357 222L245 335Q260 359 277 377T321
416Q374 338 463 240V206Q414 151 383 113T321 30Q295 50 278 68Z" />
<glyph unicode="&#xbc;" glyph-name="onequarter" horiz-adv-x="781" d="M183 257T156 260Q162 323 162 407V444L103 409Q90 427 73 461Q103 475 143 499T199 537Q219 537 246 534Q242 482 242 417Q242 333 249 260Q226 257 204 257Q183 257 156 260ZM263 -75T234
-66Q354 240 452 567Q483 576 505 576Q519 576 548 567Q428 261 330 -66Q299 -75 277 -75Q263 -75 234 -66ZM637 -3T610 0Q612 34 612 52Q557 52 529 50T484 41Q463 57 463 84Q463 127 573 284Q632 284 673 268Q615 221 537 118H612L652 182Q673 182 697 179V120Q725
124 736 127Q736 84 718 52H698Q698 32 702 0Q681 -3 660 -3Q637 -3 610 0Z" />
<glyph unicode="&#xbd;" glyph-name="onehalf" horiz-adv-x="781" d="M183 257T156 260Q162 323 162 407V444L103 409Q90 427 73 461Q103 475 143 499T199 537Q219 537 246 534Q242 482 242 417Q242 333 249 260Q226 257 204 257Q183 257 156 260ZM263 -75T234
-66Q354 240 452 567Q483 576 505 576Q519 576 548 567Q428 261 330 -66Q299 -75 277 -75Q263 -75 234 -66ZM689 2T574 2Q527 2 479 0V29Q637 132 637 196Q637 207 629 214T607 223Q587 219 561 207T510 177Q498 191 490 214T482 257Q540 277 604 277Q656 277 688
257T720 204Q720 168 688 132T595 65Q617 63 629 63Q656 63 684 67T733 77Q733 57 730 33T722 -3Q689 2 574 2Z" />
<glyph unicode="&#xbe;" glyph-name="threequarters" horiz-adv-x="781" d="M101 254T55 278Q55 308 65 334Q79 320 101 312T150 303Q213 303 213 344Q213 358 205 368T181 383Q175 383 165 377T149 360Q138 360 125 366T112 379Q117 396 142 411L220 461H146Q100
461 81 452Q73 468 68 490T62 534Q88 528 160 528Q235 528 270 544Q278 537 283 525T288 502Q288 478 272 461T219 423Q255 416 275 395T296 346Q296 302 262 278T163 254Q101 254 55 278ZM263 -75T234 -66Q354 240 452 567Q483 576 505 576Q519 576 548 567Q428
261 330 -66Q299 -75 277 -75Q263 -75 234 -66ZM637 -3T610 0Q612 34 612 52Q557 52 529 50T484 41Q463 57 463 84Q463 127 573 284Q632 284 673 268Q615 221 537 118H612L652 182Q673 182 697 179V120Q725 124 736 127Q736 84 718 52H698Q698 32 702 0Q681 -3
660 -3Q637 -3 610 0Z" />
<glyph unicode="&#xbf;" glyph-name="questiondown" horiz-adv-x="384" d="M261 372T305 337Q267 292 222 254Q187 298 140 337Q177 382 222 419Q261 372 305 337ZM253 138Q206 119 182 87T157 15Q157 -28 179 -51T242 -75Q276 -75 305 -59T352 -14Q366 -53 366
-97Q299 -143 213 -143Q126 -143 81 -104T35 12Q35 59 62 97T134 160T232 191L253 138Z" />
<glyph unicode="&#xc0;" glyph-name="Agrave" horiz-adv-x="532" d="M427 -5T391 2Q360 91 347 126Q294 129 231 129Q163 129 135 125Q118 80 91 2Q69 -4 51 -4Q28 -4 4 2Q32 52 103 238T209 529Q244 534 268 534Q293 534 323 529Q358 424 429 238T528 2Q496 -5
458 -5Q427 -5 391 2ZM290 198T320 200Q273 330 241 404Q209 326 163 201Q212 198 269 198Q290 198 320 200ZM296 596T240 622T152 686Q183 738 267 738Q272 704 301 669T371 617L360 587Q296 596 240 622Z" />
<glyph unicode="&#xc1;" glyph-name="Aacute" horiz-adv-x="532" d="M427 -5T391 2Q360 91 347 126Q294 129 231 129Q163 129 135 125Q118 80 91 2Q69 -4 51 -4Q28 -4 4 2Q32 52 103 238T209 529Q244 534 268 534Q293 534 323 529Q358 424 429 238T528 2Q496 -5
458 -5Q427 -5 391 2ZM290 198T320 200Q273 330 241 404Q209 326 163 201Q212 198 269 198Q290 198 320 200ZM172 617Q211 634 240 669T275 738Q359 738 391 686Q359 649 303 623T182 587L172 617Z" />
<glyph unicode="&#xc2;" glyph-name="Acircumflex" horiz-adv-x="532" d="M427 -5T391 2Q360 91 347 126Q294 129 231 129Q163 129 135 125Q118 80 91 2Q69 -4 51 -4Q28 -4 4 2Q32 52 103 238T209 529Q244 534 268 534Q293 534 323 529Q358 424 429 238T528 2Q496
-5 458 -5Q427 -5 391 2ZM290 198T320 200Q273 330 241 404Q209 326 163 201Q212 198 269 198Q290 198 320 200ZM165 596T124 604Q167 654 214 723Q252 737 321 737Q342 699 366 665T410 610Q365 596 301 596L248 674L198 596Q165 596 124 604Z" />
<glyph unicode="&#xc3;" glyph-name="Atilde" horiz-adv-x="532" d="M427 -5T391 2Q360 91 347 126Q294 129 231 129Q163 129 135 125Q118 80 91 2Q69 -4 51 -4Q28 -4 4 2Q32 52 103 238T209 529Q244 534 268 534Q293 534 323 529Q358 424 429 238T528 2Q496 -5
458 -5Q427 -5 391 2ZM290 198T320 200Q273 330 241 404Q209 326 163 201Q212 198 269 198Q290 198 320 200ZM130 640Q142 736 203 736Q221 736 240 730T287 711Q331 692 348 692Q369 692 374 716L401 704Q389 608 329 608Q311 608 292 614T244 633Q200 652 183
652Q162 652 157 628L130 640Z" />
<glyph unicode="&#xc4;" glyph-name="Adieresis" horiz-adv-x="532" d="M427 -5T391 2Q360 91 347 126Q294 129 231 129Q163 129 135 125Q118 80 91 2Q69 -4 51 -4Q28 -4 4 2Q32 52 103 238T209 529Q244 534 268 534Q293 534 323 529Q358 424 429 238T528 2Q496
-5 458 -5Q427 -5 391 2ZM290 198T320 200Q273 330 241 404Q209 326 163 201Q212 198 269 198Q290 198 320 200ZM303 694T343 662Q313 627 271 591L267 596L261 591Q229 630 190 662Q226 704 261 734L265 729L271 734Q303 694 343 662Z" />
<glyph unicode="&#xc5;" glyph-name="Aring" horiz-adv-x="532" d="M427 -5T391 2Q360 91 347 126Q294 129 231 129Q163 129 135 125Q118 80 91 2Q69 -4 51 -4Q28 -4 4 2Q32 52 103 238T209 529Q244 534 268 534Q293 534 323 529Q358 424 429 238T528 2Q496 -5
458 -5Q427 -5 391 2ZM290 198T320 200Q273 330 241 404Q209 326 163 201Q212 198 269 198Q290 198 320 200ZM217 576T193 600T168 662Q168 705 197 731T273 758Q314 758 339 735T364 671Q364 630 334 603T257 576Q217 576 193 600ZM281 622T289 633T298 666Q298
702 269 713Q253 713 244 701T234 666Q234 646 242 634T266 622Q281 622 289 633Z" />
<glyph unicode="&#xc6;" glyph-name="AE" horiz-adv-x="700" d="M28 -4T4 2Q32 52 103 237T209 527Q275 520 413 520Q550 520 626 527Q626 494 620 457T605 406Q579 419 539 426T458 433Q410 433 359 426L405 301Q447 299 468 299Q518 299 544 301T605 310Q609
282 609 266Q609 253 605 221Q528 228 432 228Q465 143 486 93Q561 93 605 98T688 118Q688 85 682 48T667 -3Q613 5 532 5Q439 5 391 2Q360 91 347 126Q294 129 231 129Q163 129 135 125Q118 80 91 2Q69 -4 51 -4Q28 -4 4 2ZM290 198T320 200Q273 330 241 404Q209
326 163 201Q212 198 268 198Q290 198 320 200Z" />
<glyph unicode="&#xc7;" glyph-name="Ccedilla" horiz-adv-x="495" d="M444 39T388 15T273 -11L268 -42Q313 -52 339 -78T365 -140Q365 -178 341 -198T271 -219Q239 -219 210 -206T163 -172L174 -142Q202 -162 235 -162Q260 -162 274 -150T288 -115Q288 -92 270
-75T216 -50L226 -8Q133 4 84 68T35 241Q35 326 70 392T169 496T315 533Q406 533 464 509Q464 480 452 443T424 388Q384 420 339 442T268 464Q238 456 213 427T172 355T157 269Q157 178 196 133T306 87Q350 87 393 98T465 128L478 78Q444 39 388 15Z" />
<glyph unicode="&#xc8;" glyph-name="Egrave" horiz-adv-x="473" d="M69 146T69 300Q69 392 66 441T53 527Q108 520 223 520Q360 520 436 527Q436 494 430 457T415 406Q390 419 350 426T268 433Q223 433 186 427Q182 349 182 301Q224 299 247 299Q297 299 324
301T384 310Q388 284 388 266Q388 251 384 221Q252 229 181 228Q181 149 184 99Q226 91 273 91Q319 91 365 98T440 118Q440 85 434 48T419 -3Q352 4 228 4Q114 4 58 -3Q69 146 69 300ZM282 596T226 622T138 686Q169 738 253 738Q258 704 287 669T357 617L346 587Q282
596 226 622Z" />
<glyph unicode="&#xc9;" glyph-name="Eacute" horiz-adv-x="473" d="M69 146T69 300Q69 392 66 441T53 527Q108 520 223 520Q360 520 436 527Q436 494 430 457T415 406Q390 419 350 426T268 433Q223 433 186 427Q182 349 182 301Q224 299 247 299Q297 299 324
301T384 310Q388 284 388 266Q388 251 384 221Q252 229 181 228Q181 149 184 99Q226 91 273 91Q319 91 365 98T440 118Q440 85 434 48T419 -3Q352 4 228 4Q114 4 58 -3Q69 146 69 300ZM158 617Q197 634 226 669T261 738Q345 738 377 686Q345 649 289 623T168 587L158
617Z" />
<glyph unicode="&#xca;" glyph-name="Ecircumflex" horiz-adv-x="473" d="M69 146T69 300Q69 392 66 441T53 527Q108 520 223 520Q360 520 436 527Q436 494 430 457T415 406Q390 419 350 426T268 433Q223 433 186 427Q182 349 182 301Q224 299 247 299Q297 299
324 301T384 310Q388 284 388 266Q388 251 384 221Q252 229 181 228Q181 149 184 99Q226 91 273 91Q319 91 365 98T440 118Q440 85 434 48T419 -3Q352 4 228 4Q114 4 58 -3Q69 146 69 300ZM151 596T110 604Q153 654 200 723Q238 737 307 737Q328 699 352 665T396
610Q351 596 287 596L234 674L184 596Q151 596 110 604Z" />
<glyph unicode="&#xcb;" glyph-name="Edieresis" horiz-adv-x="473" d="M69 146T69 300Q69 392 66 441T53 527Q108 520 223 520Q360 520 436 527Q436 494 430 457T415 406Q390 419 350 426T268 433Q223 433 186 427Q182 349 182 301Q224 299 247 299Q297 299 324
301T384 310Q388 284 388 266Q388 251 384 221Q252 229 181 228Q181 149 184 99Q226 91 273 91Q319 91 365 98T440 118Q440 85 434 48T419 -3Q352 4 228 4Q114 4 58 -3Q69 146 69 300ZM289 694T329 662Q299 627 257 591L253 596L247 591Q215 630 176 662Q212 704
247 734L251 729L257 734Q289 694 329 662Z" />
<glyph unicode="&#xcc;" glyph-name="Igrave" horiz-adv-x="249" d="M99 -6T58 0Q69 154 69 295Q69 479 53 527Q86 533 123 533Q153 533 192 527Q187 475 184 389T181 227Q181 44 197 0Q164 -6 131 -6Q99 -6 58 0ZM155 596T99 622T11 686Q42 738 126 738Q131 704
160 669T230 617L219 587Q155 596 99 622Z" />
<glyph unicode="&#xcd;" glyph-name="Iacute" horiz-adv-x="249" d="M99 -6T58 0Q69 154 69 295Q69 479 53 527Q86 533 123 533Q153 533 192 527Q187 475 184 389T181 227Q181 44 197 0Q164 -6 131 -6Q99 -6 58 0ZM31 617Q70 634 99 669T134 738Q218 738 250 686Q218
649 162 623T41 587L31 617Z" />
<glyph unicode="&#xce;" glyph-name="Icircumflex" horiz-adv-x="249" d="M99 -6T58 0Q69 154 69 295Q69 479 53 527Q86 533 123 533Q153 533 192 527Q187 475 184 389T181 227Q181 44 197 0Q164 -6 131 -6Q99 -6 58 0ZM23 596T-18 604Q25 654 72 723Q110 737
179 737Q200 699 224 665T268 610Q223 596 159 596L106 674L56 596Q23 596 -18 604Z" />
<glyph unicode="&#xcf;" glyph-name="Idieresis" horiz-adv-x="249" d="M99 -6T58 0Q69 154 69 295Q69 479 53 527Q86 533 123 533Q153 533 192 527Q187 475 184 389T181 227Q181 44 197 0Q164 -6 131 -6Q99 -6 58 0ZM161 694T201 662Q171 627 129 591L125 596L119
591Q87 630 48 662Q84 704 119 734L123 729L129 734Q161 694 201 662Z" />
<glyph unicode="&#xd0;" glyph-name="Eth" horiz-adv-x="583" d="M400 532T474 463T548 266Q548 186 510 125T402 29T243 -6Q196 -6 146 -2T58 10Q66 90 68 225L15 218Q10 241 10 262Q10 282 15 307Q41 303 69 302Q69 466 53 505Q88 517 145 524T263 532Q400 532
474 463ZM327 64T358 92T407 163T426 248Q426 454 242 454Q211 454 187 446Q182 374 182 299Q237 299 267 301T334 310Q338 282 338 266Q338 251 334 221Q278 229 181 229V227Q181 129 185 78Q253 58 290 58Q327 64 358 92Z" />
<glyph unicode="&#xd1;" glyph-name="Ntilde" horiz-adv-x="543" d="M80 -6T51 0Q59 104 59 295Q59 480 48 527Q76 533 113 533Q142 533 187 527Q219 464 285 348T410 136Q412 242 412 300Q412 486 401 527Q422 533 443 533Q465 533 493 527Q485 397 485 232Q485
49 496 0Q469 -6 432 -6Q398 -6 356 0Q324 61 259 176T134 391Q132 285 132 227Q132 47 143 0Q122 -6 100 -6Q80 -6 51 0ZM136 640Q148 736 209 736Q227 736 246 730T293 711Q337 692 354 692Q375 692 380 716L407 704Q395 608 335 608Q317 608 298 614T250 633Q206
652 189 652Q168 652 163 628L136 640Z" />
<glyph unicode="&#xd2;" glyph-name="Ograve" horiz-adv-x="611" d="M207 -13T152 19T66 110T35 244Q35 329 71 395T174 498T324 535Q399 535 456 502T544 410T576 272Q576 189 539 125T433 24T279 -13Q207 -13 152 19ZM372 52T413 100T454 232Q454 309 418 363T319
431Q273 431 236 407T178 339T157 240Q157 155 197 104T302 52Q372 52 413 100ZM336 596T280 622T192 686Q223 738 307 738Q312 704 341 669T411 617L400 587Q336 596 280 622Z" />
<glyph unicode="&#xd3;" glyph-name="Oacute" horiz-adv-x="611" d="M207 -13T152 19T66 110T35 244Q35 329 71 395T174 498T324 535Q399 535 456 502T544 410T576 272Q576 189 539 125T433 24T279 -13Q207 -13 152 19ZM372 52T413 100T454 232Q454 309 418 363T319
431Q273 431 236 407T178 339T157 240Q157 155 197 104T302 52Q372 52 413 100ZM212 617Q251 634 280 669T315 738Q399 738 431 686Q399 649 343 623T222 587L212 617Z" />
<glyph unicode="&#xd4;" glyph-name="Ocircumflex" horiz-adv-x="611" d="M207 -13T152 19T66 110T35 244Q35 329 71 395T174 498T324 535Q399 535 456 502T544 410T576 272Q576 189 539 125T433 24T279 -13Q207 -13 152 19ZM372 52T413 100T454 232Q454 309 418
363T319 431Q273 431 236 407T178 339T157 240Q157 155 197 104T302 52Q372 52 413 100ZM205 596T164 604Q207 654 254 723Q292 737 361 737Q382 699 406 665T450 610Q405 596 341 596L288 674L238 596Q205 596 164 604Z" />
<glyph unicode="&#xd5;" glyph-name="Otilde" horiz-adv-x="611" d="M207 -13T152 19T66 110T35 244Q35 329 71 395T174 498T324 535Q399 535 456 502T544 410T576 272Q576 189 539 125T433 24T279 -13Q207 -13 152 19ZM372 52T413 100T454 232Q454 309 418 363T319
431Q273 431 236 407T178 339T157 240Q157 155 197 104T302 52Q372 52 413 100ZM170 640Q182 736 243 736Q261 736 280 730T327 711Q371 692 388 692Q409 692 414 716L441 704Q429 608 369 608Q351 608 332 614T284 633Q240 652 223 652Q202 652 197 628L170 640Z"
/>
<glyph unicode="&#xd6;" glyph-name="Odieresis" horiz-adv-x="611" d="M207 -13T152 19T66 110T35 244Q35 329 71 395T174 498T324 535Q399 535 456 502T544 410T576 272Q576 189 539 125T433 24T279 -13Q207 -13 152 19ZM372 52T413 100T454 232Q454 309 418
363T319 431Q273 431 236 407T178 339T157 240Q157 155 197 104T302 52Q372 52 413 100ZM343 694T383 662Q353 627 311 591L307 596L301 591Q269 630 230 662Q266 704 301 734L305 729L311 734Q343 694 383 662Z" />
<glyph unicode="&#xd7;" glyph-name="multiply" horiz-adv-x="533" d="M122 94T108 108T80 142Q127 184 213 266Q127 348 80 390Q96 412 109 424T143 453Q185 406 267 320Q349 406 391 453Q413 436 425 424T454 390Q407 348 321 266Q407 184 454 142Q439 121 425
107T391 79Q349 126 267 212Q185 126 143 79Q122 94 108 108Z" />
<glyph unicode="&#xd8;" glyph-name="Oslash" horiz-adv-x="611" d="M509 475T542 414T576 272Q576 189 539 125T433 24T279 -13Q259 -13 238 -10Q220 -66 217 -78Q186 -87 165 -87Q150 -87 121 -78L162 14Q102 44 69 104T35 244Q35 329 71 395T174 498T324 535Q351
535 372 531Q390 585 395 605Q426 614 448 614Q462 614 491 605L470 557L448 507Q509 475 542 414ZM157 152T199 101Q268 262 333 427Q327 429 319 431Q273 431 236 407T178 339T157 240Q157 152 199 101ZM372 52T413 100T454 232Q454 280 439 320T397 388Q313
184 263 57Q285 52 302 52Q372 52 413 100Z" />
<glyph unicode="&#xd9;" glyph-name="Ugrave" horiz-adv-x="533" d="M168 -5T114 48T59 200Q59 303 55 400T43 527Q78 533 113 533Q143 533 182 527Q176 387 176 210Q176 80 286 80Q406 80 406 197Q406 470 398 527Q421 533 443 533Q463 533 490 527Q487 470 485
374T482 205Q482 113 433 54T266 -5Q168 -5 114 48ZM317 596T261 622T173 686Q204 738 288 738Q293 704 322 669T392 617L381 587Q317 596 261 622Z" />
<glyph unicode="&#xda;" glyph-name="Uacute" horiz-adv-x="533" d="M168 -5T114 48T59 200Q59 303 55 400T43 527Q78 533 113 533Q143 533 182 527Q176 387 176 210Q176 80 286 80Q406 80 406 197Q406 470 398 527Q421 533 443 533Q463 533 490 527Q487 470 485
374T482 205Q482 113 433 54T266 -5Q168 -5 114 48ZM193 617Q232 634 261 669T296 738Q380 738 412 686Q380 649 324 623T203 587L193 617Z" />
<glyph unicode="&#xdb;" glyph-name="Ucircumflex" horiz-adv-x="533" d="M168 -5T114 48T59 200Q59 303 55 400T43 527Q78 533 113 533Q143 533 182 527Q176 387 176 210Q176 80 286 80Q406 80 406 197Q406 470 398 527Q421 533 443 533Q463 533 490 527Q487
470 485 374T482 205Q482 113 433 54T266 -5Q168 -5 114 48ZM186 596T145 604Q188 654 235 723Q273 737 342 737Q363 699 387 665T431 610Q386 596 322 596L269 674L219 596Q186 596 145 604Z" />
<glyph unicode="&#xdc;" glyph-name="Udieresis" horiz-adv-x="533" d="M168 -5T114 48T59 200Q59 303 55 400T43 527Q78 533 113 533Q143 533 182 527Q176 387 176 210Q176 80 286 80Q406 80 406 197Q406 470 398 527Q421 533 443 533Q463 533 490 527Q487 470
485 374T482 205Q482 113 433 54T266 -5Q168 -5 114 48ZM324 694T364 662Q334 627 292 591L288 596L282 591Q250 630 211 662Q247 704 282 734L286 729L292 734Q324 694 364 662Z" />
<glyph unicode="&#xdd;" glyph-name="Yacute" horiz-adv-x="491" d="M222 -6T180 0Q188 70 190 187Q144 289 85 390T5 512Q64 533 155 533Q162 509 195 434T270 281Q318 374 342 436T368 527Q422 533 486 533Q406 418 303 188Q303 36 319 0Q288 -6 254 -6Q222
-6 180 0ZM172 617Q211 634 240 669T275 738Q359 738 391 686Q359 649 303 623T182 587L172 617Z" />
<glyph unicode="&#xde;" glyph-name="Thorn" horiz-adv-x="494" d="M99 -6T58 0Q69 154 69 295Q69 479 53 527Q86 533 123 533Q153 533 192 527Q188 488 187 448Q215 452 253 452Q358 452 414 407T471 276Q471 219 442 175T362 105T243 80Q216 80 184 85Q189 22
197 0Q164 -6 131 -6Q99 -6 58 0ZM310 160T329 193T349 268Q349 374 232 374Q205 374 183 367Q180 318 180 244Q180 185 181 164Q246 144 280 144Q310 160 329 193Z" />
<glyph unicode="&#xdf;" glyph-name="germandbls" horiz-adv-x="545" d="M20 -137Q45 -98 54 -54T63 89Q63 112 59 194Q54 324 54 369Q54 423 67 457T106 527Q156 516 286 516Q354 516 394 523T461 546Q476 535 484 516T492 475Q492 447 476 421T421 359L365 309Q429
302 469 259T510 157Q510 75 455 32T294 -11Q225 -11 169 13Q161 -35 134 -73T47 -159L20 -137ZM332 57T360 83T388 157Q388 192 373 218T328 258Q311 258 293 245T262 212Q249 212 234 221T218 238Q224 262 256 288L400 415Q360 420 266 420Q211 420 169 412Q166
363 166 281Q166 219 170 143Q172 101 172 89Q218 57 282 57Q332 57 360 83Z" />
<glyph unicode="&#xe0;" glyph-name="agrave" horiz-adv-x="437" d="M80 -11T55 15T30 83Q30 146 88 181T265 225Q263 271 245 290T183 310Q150 310 116 300T57 273L49 319Q79 363 128 390T229 418Q301 418 339 384T377 284Q377 248 372 203Q368 155 368 132Q368
95 376 74T407 27Q363 -5 306 -11Q279 8 267 40Q231 16 194 3T125 -11Q80 -11 55 15ZM217 55T258 84V92Q258 120 261 145L264 182Q208 177 178 157T148 103Q148 88 155 73T175 50Q217 55 258 84ZM249 476T193 502T105 566Q136 618 220 618Q225 584 254 549T324
497L313 467Q249 476 193 502Z" />
<glyph unicode="&#xe1;" glyph-name="aacute" horiz-adv-x="437" d="M80 -11T55 15T30 83Q30 146 88 181T265 225Q263 271 245 290T183 310Q150 310 116 300T57 273L49 319Q79 363 128 390T229 418Q301 418 339 384T377 284Q377 248 372 203Q368 155 368 132Q368
95 376 74T407 27Q363 -5 306 -11Q279 8 267 40Q231 16 194 3T125 -11Q80 -11 55 15ZM217 55T258 84V92Q258 120 261 145L264 182Q208 177 178 157T148 103Q148 88 155 73T175 50Q217 55 258 84ZM125 497Q164 514 193 549T228 618Q312 618 344 566Q312 529 256
503T135 467L125 497Z" />
<glyph unicode="&#xe2;" glyph-name="acircumflex" horiz-adv-x="437" d="M80 -11T55 15T30 83Q30 146 88 181T265 225Q263 271 245 290T183 310Q150 310 116 300T57 273L49 319Q79 363 128 390T229 418Q301 418 339 384T377 284Q377 248 372 203Q368 155 368
132Q368 95 376 74T407 27Q363 -5 306 -11Q279 8 267 40Q231 16 194 3T125 -11Q80 -11 55 15ZM217 55T258 84V92Q258 120 261 145L264 182Q208 177 178 157T148 103Q148 88 155 73T175 50Q217 55 258 84ZM118 476T77 484Q120 534 167 603Q205 617 274 617Q295 579
319 545T363 490Q318 476 254 476L201 554L151 476Q118 476 77 484Z" />
<glyph unicode="&#xe3;" glyph-name="atilde" horiz-adv-x="437" d="M80 -11T55 15T30 83Q30 146 88 181T265 225Q263 271 245 290T183 310Q150 310 116 300T57 273L49 319Q79 363 128 390T229 418Q301 418 339 384T377 284Q377 248 372 203Q368 155 368 132Q368
95 376 74T407 27Q363 -5 306 -11Q279 8 267 40Q231 16 194 3T125 -11Q80 -11 55 15ZM217 55T258 84V92Q258 120 261 145L264 182Q208 177 178 157T148 103Q148 88 155 73T175 50Q217 55 258 84ZM83 520Q95 616 156 616Q174 616 193 610T240 591Q284 572 301 572Q322
572 327 596L354 584Q342 488 282 488Q264 488 245 494T197 513Q153 532 136 532Q115 532 110 508L83 520Z" />
<glyph unicode="&#xe4;" glyph-name="adieresis" horiz-adv-x="437" d="M80 -11T55 15T30 83Q30 146 88 181T265 225Q263 271 245 290T183 310Q150 310 116 300T57 273L49 319Q79 363 128 390T229 418Q301 418 339 384T377 284Q377 248 372 203Q368 155 368 132Q368
95 376 74T407 27Q363 -5 306 -11Q279 8 267 40Q231 16 194 3T125 -11Q80 -11 55 15ZM217 55T258 84V92Q258 120 261 145L264 182Q208 177 178 157T148 103Q148 88 155 73T175 50Q217 55 258 84ZM256 574T296 542Q266 507 224 471L220 476L214 471Q182 510 143
542Q179 584 214 614L218 609L224 614Q256 574 296 542Z" />
<glyph unicode="&#xe5;" glyph-name="aring" horiz-adv-x="437" d="M80 -11T55 15T30 83Q30 146 88 181T265 225Q263 271 245 290T183 310Q150 310 116 300T57 273L49 319Q79 363 128 390T229 418Q301 418 339 384T377 284Q377 248 372 203Q368 155 368 132Q368
95 376 74T407 27Q363 -5 306 -11Q279 8 267 40Q231 16 194 3T125 -11Q80 -11 55 15ZM217 55T258 84V92Q258 120 261 145L264 182Q208 177 178 157T148 103Q148 88 155 73T175 50Q217 55 258 84ZM169 456T145 480T120 542Q120 585 149 611T225 638Q266 638 291
615T316 551Q316 510 286 483T209 456Q169 456 145 480ZM233 502T241 513T250 546Q250 582 221 593Q205 593 196 581T186 546Q186 526 194 514T218 502Q233 502 241 513Z" />
<glyph unicode="&#xe6;" glyph-name="ae" horiz-adv-x="692" d="M85 -11T58 15T30 83Q30 143 87 176T261 219Q261 268 245 289T183 310Q150 310 116 300T57 273L49 319Q79 363 128 390T229 418Q307 418 346 376Q402 418 482 418Q567 418 610 364T654 204Q600 191
525 182T379 171Q386 127 411 107T483 86Q571 86 627 124L639 78Q607 38 553 14T442 -11Q340 -11 294 59Q255 27 210 8T127 -11Q85 -11 58 15ZM418 221T459 231T527 253Q526 298 500 328T435 359Q406 341 391 303T375 216Q418 221 459 231ZM199 53T226 65T275 95Q262
129 260 176Q206 171 177 153T148 103Q148 88 155 73T175 50Q199 53 226 65Z" />
<glyph unicode="&#xe7;" glyph-name="ccedilla" horiz-adv-x="405" d="M356 37T313 14T223 -11L218 -42Q263 -52 289 -78T315 -140Q315 -178 291 -198T221 -219Q189 -219 160 -206T113 -172L124 -142Q152 -162 185 -162Q210 -162 224 -150T238 -115Q238 -92 220
-75T166 -50L176 -8Q105 3 68 54T30 191Q30 257 58 308T138 389T254 418Q322 418 369 394Q369 373 360 339T338 278Q301 311 266 330T207 349Q180 332 164 297T148 217Q148 151 173 119T255 87Q290 87 321 96T374 124L382 73Q356 37 313 14Z" />
<glyph unicode="&#xe8;" glyph-name="egrave" horiz-adv-x="465" d="M127 -11T80 41T33 191Q33 257 61 308T139 389T255 418Q340 418 384 364T428 204Q373 191 299 182T152 171Q160 127 185 107T256 86Q345 86 401 124L413 78Q381 38 327 14T215 -11Q127 -11 80
41ZM191 221T233 231T301 253Q299 298 273 328T208 359Q181 342 165 303T148 216Q191 221 233 231ZM266 476T210 502T122 566Q153 618 237 618Q242 584 271 549T341 497L330 467Q266 476 210 502Z" />
<glyph unicode="&#xe9;" glyph-name="eacute" horiz-adv-x="465" d="M127 -11T80 41T33 191Q33 257 61 308T139 389T255 418Q340 418 384 364T428 204Q373 191 299 182T152 171Q160 127 185 107T256 86Q345 86 401 124L413 78Q381 38 327 14T215 -11Q127 -11 80
41ZM191 221T233 231T301 253Q299 298 273 328T208 359Q181 342 165 303T148 216Q191 221 233 231ZM142 497Q181 514 210 549T245 618Q329 618 361 566Q329 529 273 503T152 467L142 497Z" />
<glyph unicode="&#xea;" glyph-name="ecircumflex" horiz-adv-x="465" d="M127 -11T80 41T33 191Q33 257 61 308T139 389T255 418Q340 418 384 364T428 204Q373 191 299 182T152 171Q160 127 185 107T256 86Q345 86 401 124L413 78Q381 38 327 14T215 -11Q127
-11 80 41ZM191 221T233 231T301 253Q299 298 273 328T208 359Q181 342 165 303T148 216Q191 221 233 231ZM135 476T94 484Q137 534 184 603Q222 617 291 617Q312 579 336 545T380 490Q335 476 271 476L218 554L168 476Q135 476 94 484Z" />
<glyph unicode="&#xeb;" glyph-name="edieresis" horiz-adv-x="465" d="M127 -11T80 41T33 191Q33 257 61 308T139 389T255 418Q340 418 384 364T428 204Q373 191 299 182T152 171Q160 127 185 107T256 86Q345 86 401 124L413 78Q381 38 327 14T215 -11Q127 -11
80 41ZM191 221T233 231T301 253Q299 298 273 328T208 359Q181 342 165 303T148 216Q191 221 233 231ZM273 574T313 542Q283 507 241 471L237 476L231 471Q199 510 160 542Q196 584 231 614L235 609L241 614Q273 574 313 542Z" />
<glyph unicode="&#xec;" glyph-name="igrave" horiz-adv-x="246" d="M98 -9T83 9T68 73Q68 110 70 178Q72 242 72 272Q72 312 67 347T53 397Q87 408 119 412T190 417Q185 388 182 328T178 192Q178 137 181 108T192 62T217 27Q198 9 176 0T135 -9Q98 -9 83 9ZM154
476T98 502T10 566Q41 618 125 618Q130 584 159 549T229 497L218 467Q154 476 98 502Z" />
<glyph unicode="&#xed;" glyph-name="iacute" horiz-adv-x="246" d="M98 -9T83 9T68 73Q68 110 70 178Q72 242 72 272Q72 312 67 347T53 397Q87 408 119 412T190 417Q185 388 182 328T178 192Q178 137 181 108T192 62T217 27Q198 9 176 0T135 -9Q98 -9 83 9ZM30
497Q69 514 98 549T133 618Q217 618 249 566Q217 529 161 503T40 467L30 497Z" />
<glyph unicode="&#xee;" glyph-name="icircumflex" horiz-adv-x="246" d="M98 -9T83 9T68 73Q68 110 70 178Q72 242 72 272Q72 312 67 347T53 397Q87 408 119 412T190 417Q185 388 182 328T178 192Q178 137 181 108T192 62T217 27Q198 9 176 0T135 -9Q98 -9 83
9ZM23 476T-18 484Q25 534 72 603Q110 617 179 617Q200 579 224 545T268 490Q223 476 159 476L106 554L56 476Q23 476 -18 484Z" />
<glyph unicode="&#xef;" glyph-name="idieresis" horiz-adv-x="246" d="M98 -9T83 9T68 73Q68 110 70 178Q72 242 72 272Q72 312 67 347T53 397Q87 408 119 412T190 417Q185 388 182 328T178 192Q178 137 181 108T192 62T217 27Q198 9 176 0T135 -9Q98 -9 83 9ZM161
574T201 542Q171 507 129 471L125 476L119 471Q87 510 48 542Q84 584 119 614L123 609L129 614Q161 574 201 542Z" />
<glyph unicode="&#xf0;" glyph-name="eth" horiz-adv-x="508" d="M466 215Q466 149 436 98T352 18T229 -11Q171 -11 127 14T58 86T33 192Q33 258 62 309T144 389T264 418H280Q249 459 214 493Q182 476 140 445Q131 456 120 477T106 512Q128 519 167 538L125 573L157
613Q188 594 226 566Q260 584 278 595T316 622Q325 611 336 590T351 555Q334 550 280 526Q455 382 465 234Q466 229 466 219V218V217V216V215ZM297 44T325 78T354 174Q354 227 329 266T259 319Q207 319 176 284T145 187Q145 122 173 83T247 44Q297 44 325 78Z"
/>
<glyph unicode="&#xf1;" glyph-name="ntilde" horiz-adv-x="516" d="M114 -6T80 0Q87 100 87 213Q87 268 84 297T73 343T48 378Q68 397 92 405T135 414Q193 414 201 355Q228 385 263 401T336 418Q453 418 453 280L451 217L449 150Q449 45 469 0Q441 -6 396 -6Q365
-6 330 0Q337 109 337 235Q337 275 322 292T274 310Q231 310 202 290L201 261Q199 197 199 150Q199 45 219 0Q191 -6 156 -6Q114 -6 80 0ZM128 520Q140 616 201 616Q219 616 238 610T285 591Q329 572 346 572Q367 572 372 596L399 584Q387 488 327 488Q309 488
290 494T242 513Q198 532 181 532Q160 532 155 508L128 520Z" />
<glyph unicode="&#xf2;" glyph-name="ograve" horiz-adv-x="498" d="M171 -11T127 14T58 86T33 192Q33 258 62 309T144 389T264 418Q324 418 370 393T441 321T466 215Q466 149 436 98T352 18T229 -11Q171 -11 127 14ZM297 44T325 78T354 174Q354 227 329 266T259
319Q207 319 176 284T145 187Q145 122 173 83T247 44Q297 44 325 78ZM280 476T224 502T136 566Q167 618 251 618Q256 584 285 549T355 497L344 467Q280 476 224 502Z" />
<glyph unicode="&#xf3;" glyph-name="oacute" horiz-adv-x="498" d="M171 -11T127 14T58 86T33 192Q33 258 62 309T144 389T264 418Q324 418 370 393T441 321T466 215Q466 149 436 98T352 18T229 -11Q171 -11 127 14ZM297 44T325 78T354 174Q354 227 329 266T259
319Q207 319 176 284T145 187Q145 122 173 83T247 44Q297 44 325 78ZM156 497Q195 514 224 549T259 618Q343 618 375 566Q343 529 287 503T166 467L156 497Z" />
<glyph unicode="&#xf4;" glyph-name="ocircumflex" horiz-adv-x="498" d="M171 -11T127 14T58 86T33 192Q33 258 62 309T144 389T264 418Q324 418 370 393T441 321T466 215Q466 149 436 98T352 18T229 -11Q171 -11 127 14ZM297 44T325 78T354 174Q354 227 329
266T259 319Q207 319 176 284T145 187Q145 122 173 83T247 44Q297 44 325 78ZM149 476T108 484Q151 534 198 603Q236 617 305 617Q326 579 350 545T394 490Q349 476 285 476L232 554L182 476Q149 476 108 484Z" />
<glyph unicode="&#xf5;" glyph-name="otilde" horiz-adv-x="498" d="M171 -11T127 14T58 86T33 192Q33 258 62 309T144 389T264 418Q324 418 370 393T441 321T466 215Q466 149 436 98T352 18T229 -11Q171 -11 127 14ZM297 44T325 78T354 174Q354 227 329 266T259
319Q207 319 176 284T145 187Q145 122 173 83T247 44Q297 44 325 78ZM114 520Q126 616 187 616Q205 616 224 610T271 591Q315 572 332 572Q353 572 358 596L385 584Q373 488 313 488Q295 488 276 494T228 513Q184 532 167 532Q146 532 141 508L114 520Z" />
<glyph unicode="&#xf6;" glyph-name="odieresis" horiz-adv-x="498" d="M171 -11T127 14T58 86T33 192Q33 258 62 309T144 389T264 418Q324 418 370 393T441 321T466 215Q466 149 436 98T352 18T229 -11Q171 -11 127 14ZM297 44T325 78T354 174Q354 227 329 266T259
319Q207 319 176 284T145 187Q145 122 173 83T247 44Q297 44 325 78ZM287 574T327 542Q297 507 255 471L251 476L245 471Q213 510 174 542Q210 584 245 614L249 609L255 614Q287 574 327 542Z" />
<glyph unicode="&#xf7;" glyph-name="divide" horiz-adv-x="533" d="M63 244T63 265Q63 285 68 310Q157 306 267 306Q378 306 467 310Q471 282 471 266Q471 251 467 221Q355 226 267 226Q180 226 68 221Q63 244 63 265ZM232 44T185 83Q222 128 267 165Q306 118
350 83Q312 38 267 0Q232 44 185 83ZM232 410T185 449Q222 494 267 531Q306 484 350 449Q312 404 267 366Q232 410 185 449Z" />
<glyph unicode="&#xf8;" glyph-name="oslash" horiz-adv-x="498" d="M413 371T439 324T466 215Q466 149 436 98T352 18T229 -11Q219 -11 201 -9Q173 -83 169 -104Q139 -112 122 -112Q111 -112 83 -104Q115 -33 133 11Q86 35 60 82T33 192Q33 258 62 309T144 389T264
418Q276 418 298 416Q326 490 330 511Q360 519 377 519Q388 519 416 511L365 395Q413 371 439 324ZM145 129T168 91L261 318L259 319Q207 319 176 284T145 187Q145 129 168 91ZM297 44T325 78T354 174Q354 240 317 282Q264 154 222 47Q234 44 247 44Q297 44 325
78Z" />
<glyph unicode="&#xf9;" glyph-name="ugrave" horiz-adv-x="492" d="M63 -11T63 127L65 190L67 257Q67 355 48 397Q108 417 185 417Q179 333 179 157Q179 119 192 103T237 87Q280 87 313 108Q313 167 316 210L317 257Q317 355 298 397Q358 417 435 417Q431 353
427 265T423 147Q423 106 431 83T462 32Q411 -5 356 -11Q326 10 317 49Q290 21 256 5T185 -11Q63 -11 63 127ZM282 476T226 502T138 566Q169 618 253 618Q258 584 287 549T357 497L346 467Q282 476 226 502Z" />
<glyph unicode="&#xfa;" glyph-name="uacute" horiz-adv-x="492" d="M63 -11T63 127L65 190L67 257Q67 355 48 397Q108 417 185 417Q179 333 179 157Q179 119 192 103T237 87Q280 87 313 108Q313 167 316 210L317 257Q317 355 298 397Q358 417 435 417Q431 353
427 265T423 147Q423 106 431 83T462 32Q411 -5 356 -11Q326 10 317 49Q290 21 256 5T185 -11Q63 -11 63 127ZM158 497Q197 514 226 549T261 618Q345 618 377 566Q345 529 289 503T168 467L158 497Z" />
<glyph unicode="&#xfb;" glyph-name="ucircumflex" horiz-adv-x="492" d="M63 -11T63 127L65 190L67 257Q67 355 48 397Q108 417 185 417Q179 333 179 157Q179 119 192 103T237 87Q280 87 313 108Q313 167 316 210L317 257Q317 355 298 397Q358 417 435 417Q431
353 427 265T423 147Q423 106 431 83T462 32Q411 -5 356 -11Q326 10 317 49Q290 21 256 5T185 -11Q63 -11 63 127ZM151 476T110 484Q153 534 200 603Q238 617 307 617Q328 579 352 545T396 490Q351 476 287 476L234 554L184 476Q151 476 110 484Z" />
<glyph unicode="&#xfc;" glyph-name="udieresis" horiz-adv-x="492" d="M63 -11T63 127L65 190L67 257Q67 355 48 397Q108 417 185 417Q179 333 179 157Q179 119 192 103T237 87Q280 87 313 108Q313 167 316 210L317 257Q317 355 298 397Q358 417 435 417Q431
353 427 265T423 147Q423 106 431 83T462 32Q411 -5 356 -11Q326 10 317 49Q290 21 256 5T185 -11Q63 -11 63 127ZM289 574T329 542Q299 507 257 471L253 476L247 471Q215 510 176 542Q212 584 247 614L251 609L257 614Q289 574 329 542Z" />
<glyph unicode="&#xfd;" glyph-name="yacute" horiz-adv-x="491" d="M161 -180T115 -168T38 -132Q38 -96 59 -54T116 23Q66 53 66 144L68 201L70 264Q70 358 51 397Q74 406 113 411T189 417Q182 326 182 184Q182 144 197 127T245 109Q270 109 288 115T323 134L321
257Q321 304 316 341T302 397Q362 417 439 417Q432 336 432 167Q432 137 435 44L436 0Q436 -90 376 -135T217 -180Q161 -180 115 -168ZM272 -113T298 -82T324 17V73Q262 1 166 7Q137 -34 128 -76Q146 -93 170 -103T222 -113Q272 -113 298 -82ZM148 497Q187 514
216 549T251 618Q335 618 367 566Q335 529 279 503T158 467L148 497Z" />
<glyph unicode="&#xfe;" glyph-name="thorn" horiz-adv-x="505" d="M60 -116T63 2T67 255Q67 447 48 527Q82 538 114 542T185 547Q178 477 175 363Q202 387 235 400T304 413Q383 413 425 362T468 212Q468 108 410 50T248 -9Q208 -9 176 4Q179 -95 192 -160Q132
-180 55 -180Q60 -116 63 2ZM292 48T319 82T346 177Q346 229 325 266T266 319Q243 319 219 312T174 294Q172 255 172 171Q172 106 173 81Q204 48 245 48Q292 48 319 82Z" />
<glyph unicode="&#xff;" glyph-name="ydieresis" horiz-adv-x="491" d="M161 -180T115 -168T38 -132Q38 -96 59 -54T116 23Q66 53 66 144L68 201L70 264Q70 358 51 397Q74 406 113 411T189 417Q182 326 182 184Q182 144 197 127T245 109Q270 109 288 115T323 134L321
257Q321 304 316 341T302 397Q362 417 439 417Q432 336 432 167Q432 137 435 44L436 0Q436 -90 376 -135T217 -180Q161 -180 115 -168ZM272 -113T298 -82T324 17V73Q262 1 166 7Q137 -34 128 -76Q146 -93 170 -103T222 -113Q272 -113 298 -82ZM279 574T319 542Q289
507 247 471L243 476L237 471Q205 510 166 542Q202 584 237 614L241 609L247 614Q279 574 319 542Z" />
<glyph unicode="&#x2013;" glyph-name="endash" horiz-adv-x="542" d="M57 160T51 189T45 254Q143 249 263 249Q324 249 383 254T471 268Q485 236 491 207T497 142Q399 147 279 147Q218 147 158 142T71 128Q57 160 51 189Z" />
<glyph unicode="&#x2014;" glyph-name="emdash" horiz-adv-x="760" d="M58 160T52 189T45 254Q189 249 367 249Q460 249 551 254T685 268Q702 236 708 207T715 142Q570 147 392 147Q298 147 207 142T74 128Q58 160 52 189Z" />
<glyph unicode="&#x2018;" glyph-name="quoteleft" horiz-adv-x="212" d="M190 529Q174 509 165 481T155 424Q155 371 173 332Q151 319 123 311T69 302L40 331Q46 395 78 452T167 554L190 529Z" />
<glyph unicode="&#x2019;" glyph-name="quoteright" horiz-adv-x="212" d="M23 327Q39 347 48 374T57 432Q57 485 40 525Q61 538 89 546T144 555L172 525Q167 461 135 404T46 302L23 327Z" />
<glyph unicode="&#x201a;" glyph-name="quotesinglbase" horiz-adv-x="212" d="M23 -95Q39 -75 48 -48T57 10Q57 63 40 103Q61 116 89 124T144 133L172 103Q167 39 135 -18T46 -120L23 -95Z" />
<glyph unicode="&#x201c;" glyph-name="quotedblleft" horiz-adv-x="397" d="M190 530Q174 510 165 482T155 425Q155 371 173 332Q151 319 123 311T69 302L40 332Q46 396 78 452T167 554L190 530ZM375 530Q359 510 350 482T340 425Q340 371 358 332Q336 319 308
311T254 302L225 332Q231 396 263 452T352 554L375 530Z" />
<glyph unicode="&#x201d;" glyph-name="quotedblright" horiz-adv-x="397" d="M208 327Q224 347 233 374T242 432Q242 485 225 525Q246 538 274 546T329 555L357 525Q352 461 320 404T231 302L208 327ZM23 327Q39 347 48 374T57 432Q57 485 40 525Q61 538 89 546T144
555L172 525Q167 461 135 404T46 302L23 327Z" />
<glyph unicode="&#x201e;" glyph-name="quotedblbase" horiz-adv-x="397" d="M208 -95Q224 -75 233 -48T242 10Q242 63 225 103Q246 116 274 124T329 133L357 103Q352 39 320 -18T231 -120L208 -95ZM23 -95Q39 -75 48 -48T57 10Q57 63 40 103Q61 116 89 124T144
133L172 103Q167 39 135 -18T46 -120L23 -95Z" />
<glyph unicode="&#x2022;" glyph-name="bullet" horiz-adv-x="354" d="M116 207T33 276Q98 355 177 420Q246 337 321 276Q256 197 177 132Q116 207 33 276Z" />
<glyph unicode="&#x2039;" glyph-name="guilsinglleft" horiz-adv-x="278" d="M137 74T106 112T25 206V240Q114 338 167 416Q194 395 211 377T243 335L131 222L243 110Q228 86 211 68T167 30Q137 74 106 112Z" />
<glyph unicode="&#x203a;" glyph-name="guilsinglright" horiz-adv-x="278" d="M85 50T68 68T35 110L147 222L35 335Q50 359 67 377T111 416Q164 338 253 240V206Q204 151 173 113T111 30Q85 50 68 68Z" />
</font>
</defs>
</svg>
