<?xml version="1.0" standalone="no"?>
<!DOCTYPE svg PUBLIC "-//W3C//DTD SVG 1.1//EN" "http://www.w3.org/Graphics/SVG/1.1/DTD/svg11.dtd">
<svg xmlns="http://www.w3.org/2000/svg">
<defs >
<font id="ShareTech" horiz-adv-x="454" ><font-face
    font-family="Share Tech"
    units-per-em="1000"
    panose-1="0 0 5 0 0 0 0 0 0 0"
    ascent="885"
    descent="-242"
    alphabetic="0" />
<glyph unicode=" " glyph-name="space" horiz-adv-x="260" />
<glyph unicode="!" glyph-name="exclam" horiz-adv-x="250" d="M82 208V700H167V208H82ZM75 0V100H175V0H75Z" />
<glyph unicode="&quot;" glyph-name="quotedbl" horiz-adv-x="360" d="M130 453H75L55 610V700H150V610L130 453ZM285 453H230L210 610V700H305V610L285 453Z" />
<glyph unicode="#" glyph-name="numbersign" horiz-adv-x="470" d="M353 180V0H273V180H193V0H113V180H43V255H113V455H43V530H113V700H193V530H273V700H353V530H423V455H353V255H423V180H353ZM273 455H193V255H273V455Z" />
<glyph unicode="$" glyph-name="dollar" horiz-adv-x="470" d="M192 0H87V76H229Q266 76 289 98T312 151V235Q312 265 297 283T250 302H230Q156 302 113 345T70 472V500Q70 638 192 664V780H277V670H383V594H240Q203 594 180 572T157 519V453Q157 422 177 402T229
381H249Q320 381 359 340T399 216V170Q399 101 368 60T277 5V-110H192V0Z" />
<glyph unicode="%" glyph-name="percent" horiz-adv-x="856" d="M351 349T319 317T229 284H211Q153 284 121 316T89 412V572Q89 635 121 667T211 700H229Q287 700 319 668T351 572V412Q351 349 319 317ZM351 0H267L512 700H590L351 0ZM281 608T268 624T229 640H211Q185
640 172 624T159 583V401Q159 376 172 360T211 344H229Q255 344 268 360T281 401V583Q281 608 268 624ZM765 65T733 33T643 0H625Q567 0 535 32T503 128V288Q503 351 535 383T625 416H643Q701 416 733 384T765 288V128Q765 65 733 33ZM695 324T682 340T643 356H625Q599
356 586 340T573 299V117Q573 92 586 76T625 60H643Q669 60 682 76T695 117V299Q695 324 682 340Z" />
<glyph unicode="&amp;" glyph-name="ampersand" horiz-adv-x="507" d="M149 0T109 37T69 158V284Q69 371 134 407Q79 446 79 523V544Q79 625 122 662T251 700H357V625H239Q201 625 184 608T166 553V513Q166 480 187 460T239 440H482V365H403V0H239Q149 0 109 37ZM196
365T176 346T156 293V148Q156 110 174 93T230 75H322V365H229Q196 365 176 346Z" />
<glyph unicode="&apos;" glyph-name="quotesingle" horiz-adv-x="205" d="M130 453H75L55 610V700H150V610L130 453Z" />
<glyph unicode="(" glyph-name="parenleft" horiz-adv-x="320" d="M60 621T89 693T172 820H260Q212 762 189 723T156 634T145 507V193Q145 115 155 66T189 -22T260 -120H172Q119 -65 90 7T60 195V505Q60 621 89 693Z" />
<glyph unicode=")" glyph-name="parenright" horiz-adv-x="320" d="M260 79T231 7T148 -120H60Q108 -62 131 -23T164 66T175 193V507Q175 585 165 634T131 722T60 820H148Q201 765 230 693T260 505V195Q260 79 231 7Z" />
<glyph unicode="*" glyph-name="asterisk" horiz-adv-x="480" d="M293 515L399 392L327 340L239 482L148 340L78 393L185 515L40 547L67 627L208 570L195 722H285L272 570L415 625L440 546L293 515Z" />
<glyph unicode="+" glyph-name="plus" horiz-adv-x="550" d="M315 275V118H235V275H84V350H235V508H315V350H465V275H315Z" />
<glyph unicode="," glyph-name="comma" horiz-adv-x="230" d="M103 -140H25L65 0V100H165V0L103 -140Z" />
<glyph unicode="-" glyph-name="hyphen" horiz-adv-x="495" d="M85 275V350H410V275H85Z" />
<glyph unicode="." glyph-name="period" horiz-adv-x="230" d="M65 0V100H165V0H65Z" />
<glyph unicode="/" glyph-name="slash" horiz-adv-x="325" d="M84 -110H5L241 810H320L84 -110Z" />
<glyph unicode="0" glyph-name="zero" horiz-adv-x="470" d="M408 87T363 44T240 0H230Q153 0 108 43T62 170V530Q62 614 107 657T230 700H240Q318 700 363 657T408 530V170Q408 87 363 44ZM323 580T300 602T240 625H230Q194 625 171 603T147 549V151Q147 120
170 98T230 75H240Q276 75 299 97T323 151V549Q323 580 300 602Z" />
<glyph unicode="1" glyph-name="one" horiz-adv-x="470" d="M92 0V75H213V621L82 569V650L203 700H298V75H397V0H92Z" />
<glyph unicode="2" glyph-name="two" horiz-adv-x="470" d="M63 88L213 316Q246 366 257 385T272 424T276 479V549Q276 580 253 602T193 624H83V700H183Q270 700 316 658T363 530V488Q363 438 358 412T341 363T292 285L154 76H383V0H63V88Z" />
<glyph unicode="3" glyph-name="three" horiz-adv-x="470" d="M372 75T332 38T202 0H84V75H211Q249 75 267 92T285 148V251Q285 284 265 303T212 323H115V398H202Q233 398 254 418T275 471V553Q275 591 258 608T202 625H84V700H190Q275 700 318 663T362 544V481Q362
404 307 365Q372 329 372 242V158Q372 75 332 38Z" />
<glyph unicode="4" glyph-name="four" horiz-adv-x="470" d="M352 156V0H267V156H69V242L168 700H249L155 229H267V457H352V229H422V156H352Z" />
<glyph unicode="5" glyph-name="five" horiz-adv-x="470" d="M374 75T334 38T204 0H83V75H213Q251 75 269 92T287 148V275Q287 308 267 327T214 347H93V700H359V625H178V422H209Q286 422 330 384T374 266V158Q374 75 334 38Z" />
<glyph unicode="6" glyph-name="six" horiz-adv-x="470" d="M405 88T360 44T247 0H222Q154 0 109 44T64 170V530Q64 615 109 657T242 700H357V624H232Q195 624 172 602T149 549V440H237Q323 440 364 402T405 280V170Q405 88 360 44ZM149 151Q149 119 170 97T227
75H242Q278 75 299 97T320 151V299Q320 330 302 347T247 365H149V151Z" />
<glyph unicode="7" glyph-name="seven" horiz-adv-x="470" d="M212 0H123L290 625H68V700H373V603L212 0Z" />
<glyph unicode="8" glyph-name="eight" horiz-adv-x="470" d="M414 75T374 38T244 0H226Q136 0 96 37T56 158V242Q56 329 121 365Q68 402 68 481V544Q68 624 110 662T230 700H240Q318 700 360 662T402 544V481Q402 402 349 365Q414 329 414 242V158Q414 75 374
38ZM185 625T170 607T155 553V471Q155 439 173 420T220 398H244Q275 398 295 418T315 471V553Q315 591 299 608T244 625H218Q185 625 170 607ZM327 284T307 303T254 323H216Q183 323 163 304T143 251V148Q143 111 159 93T209 75H253Q291 75 309 92T327 148V251Q327
284 307 303Z" />
<glyph unicode="9" glyph-name="nine" horiz-adv-x="470" d="M65 612T110 656T223 700H248Q316 700 361 656T406 530V170Q406 85 361 43T228 0H123V76H238Q275 76 298 98T321 151V260H233Q147 260 106 298T65 420V530Q65 612 110 656ZM321 549Q321 581 300 603T243
625H228Q192 625 171 603T150 549V401Q150 370 168 353T223 335H321V549Z" />
<glyph unicode=":" glyph-name="colon" horiz-adv-x="230" d="M65 400V500H165V400H65ZM65 0V100H165V0H65Z" />
<glyph unicode=";" glyph-name="semicolon" horiz-adv-x="230" d="M65 400V500H165V400H65ZM103 -140H25L65 0V100H165V0L103 -140Z" />
<glyph unicode="&lt;" glyph-name="less" horiz-adv-x="550" d="M85 280V385L465 564V472L155 336L465 199V105L85 280Z" />
<glyph unicode="=" glyph-name="equal" horiz-adv-x="550" d="M85 375V450H465V375H85ZM85 175V250H465V175H85Z" />
<glyph unicode="&gt;" glyph-name="greater" horiz-adv-x="550" d="M85 105V199L401 336L85 472V564L465 385V280L85 105Z" />
<glyph unicode="?" glyph-name="question" horiz-adv-x="328" d="M298 477T294 458T277 418T227 358L179 304V208H94V329L147 390Q182 430 193 445T209 473T213 509V559Q213 590 195 607T140 624H30V700H130Q298 700 298 550V518Q298 477 294 458ZM87 0V100H187V0H87Z" />
<glyph unicode="@" glyph-name="at" horiz-adv-x="815" d="M188 0T142 42T95 170V520Q95 606 142 653T275 700H540Q626 700 673 653T720 520V250Q720 178 688 147T593 115Q564 115 533 132T488 184Q452 144 375 144Q241 144 241 275V393Q241 473 285 506T418 539H552V217Q552
201 564 191T596 180Q637 180 637 230V540Q637 577 613 602T550 627H265Q227 627 203 603T178 540V150Q178 119 203 96T265 73H561V0H275Q188 0 142 42ZM436 212T454 227T472 264V472H407Q362 472 342 454T321 389V279Q321 243 339 228T394 212Q436 212 454 227Z"
/>
<glyph unicode="A" glyph-name="A" horiz-adv-x="500" d="M386 0L348 177H153L114 0H25L194 700H309L475 0H386ZM250 634L169 252H332L250 634Z" />
<glyph unicode="B" glyph-name="B" horiz-adv-x="520" d="M445 72T406 36T275 0H85V700H263Q352 700 393 664T435 544V487Q435 410 380 371Q445 335 445 248V158Q445 72 406 36ZM348 591T331 608T275 625H172V404H275Q306 404 327 424T348 477V553Q348 591 331
608ZM358 290T338 309T285 329H172V75H284Q322 75 340 92T358 148V257Q358 290 338 309Z" />
<glyph unicode="C" glyph-name="C" horiz-adv-x="417" d="M168 0T122 42T75 170V530Q75 615 121 657T255 700H377V624H245Q208 624 185 602T162 549V151Q162 120 185 98T245 76H377V0H255Q168 0 122 42Z" />
<glyph unicode="D" glyph-name="D" horiz-adv-x="526" d="M451 72T412 36T281 0H85V700H269Q359 700 405 664T451 544V158Q451 72 412 36ZM364 586T344 605T291 625H172V75H290Q328 75 346 92T364 148V553Q364 586 344 605Z" />
<glyph unicode="E" glyph-name="E" horiz-adv-x="473" d="M85 0V700H413V627H172V398H388V325H172V73H413V0H85Z" />
<glyph unicode="F" glyph-name="F" horiz-adv-x="458" d="M172 627V388H388V315H172V0H85V700H413V627H172Z" />
<glyph unicode="G" glyph-name="G" horiz-adv-x="490" d="M168 0T122 42T75 170V530Q75 615 121 657T255 700H390V624H245Q208 624 185 602T162 549V151Q162 120 185 98T245 76H337V293H253V368H420V0H255Q168 0 122 42Z" />
<glyph unicode="H" glyph-name="H" horiz-adv-x="550" d="M378 0V322H172V0H85V700H172V396H378V700H465V0H378Z" />
<glyph unicode="I" glyph-name="I" horiz-adv-x="317" d="M45 0V73H115V627H45V700H272V627H202V73H272V0H45Z" />
<glyph unicode="J" glyph-name="J" horiz-adv-x="380" d="M305 85T259 43T125 0H30V76H135Q172 76 195 98T218 151V625H67V700H305V170Q305 85 259 43Z" />
<glyph unicode="K" glyph-name="K" horiz-adv-x="492" d="M364 0L208 318L172 258V0H85V700H172V398L357 700H452L262 394L462 0H364Z" />
<glyph unicode="L" glyph-name="L" horiz-adv-x="410" d="M85 0V700H172V76H395V0H85Z" />
<glyph unicode="M" glyph-name="M" horiz-adv-x="630" d="M462 0V628L355 235H272L165 628V0H85V700H226L317 342L407 700H545V0H462Z" />
<glyph unicode="N" glyph-name="N" horiz-adv-x="547" d="M319 0L166 626V0H85V700H227L381 74V700H462V0H319Z" />
<glyph unicode="O" glyph-name="O" horiz-adv-x="544" d="M469 85T423 43T289 0H255Q168 0 122 42T75 170V530Q75 615 121 657T255 700H289Q376 700 422 658T469 530V170Q469 85 423 43ZM382 580T359 602T299 624H245Q208 624 185 602T162 549V151Q162 120 185
98T245 76H299Q336 76 359 98T382 151V549Q382 580 359 602Z" />
<glyph unicode="P" glyph-name="P" horiz-adv-x="491" d="M436 349T393 311T266 272H172V0H85V700H264Q349 700 392 663T436 544V430Q436 349 393 311ZM349 591T332 608T276 625H172V347H276Q314 347 331 364T349 420V553Q349 591 332 608Z" />
<glyph unicode="Q" glyph-name="Q" horiz-adv-x="544" d="M386 19Q347 0 289 0H255Q168 0 122 42T75 170V530Q75 615 121 657T255 700H289Q376 700 422 658T469 530V170Q469 111 445 73L520 -2L463 -59L386 19ZM382 580T359 602T299 624H245Q208 624 185 602T162
549V151Q162 120 185 98T245 76H299Q337 76 359 95T382 151V549Q382 580 359 602Z" />
<glyph unicode="R" glyph-name="R" horiz-adv-x="520" d="M261 290H172V0H85V700H264Q349 700 392 663T436 544V448Q436 335 346 307L485 0H390L261 290ZM349 591T332 608T276 625H172V365H276Q314 365 331 382T349 438V553Q349 591 332 608Z" />
<glyph unicode="S" glyph-name="S" horiz-adv-x="439" d="M384 85T338 43T204 0H72V76H214Q251 76 274 98T297 151V255Q297 285 282 303T235 322H215Q141 322 98 365T55 492V530Q55 615 101 657T235 700H368V624H225Q188 624 165 602T142 549V473Q142 442 162
422T214 401H234Q305 401 344 360T384 236V170Q384 85 338 43Z" />
<glyph unicode="T" glyph-name="T" horiz-adv-x="425" d="M256 624V0H169V624H15V700H410V624H256Z" />
<glyph unicode="U" glyph-name="U" horiz-adv-x="535" d="M455 85T409 43T275 0H260Q173 0 127 42T80 170V700H167V151Q167 120 190 98T250 76H285Q322 76 345 98T368 151V700H455V170Q455 85 409 43Z" />
<glyph unicode="V" glyph-name="V" horiz-adv-x="473" d="M291 0H172L35 700H123L233 88L352 700H438L291 0Z" />
<glyph unicode="W" glyph-name="W" horiz-adv-x="589" d="M505 0H369L302 304L229 0H99L65 700H142L172 55L262 405H344L435 55L466 700H539L505 0Z" />
<glyph unicode="X" glyph-name="X" horiz-adv-x="496" d="M363 0L249 268L129 0H35L205 362L50 700H145L250 459L358 700H451L293 363L461 0H363Z" />
<glyph unicode="Y" glyph-name="Y" horiz-adv-x="491" d="M289 325V0H199V325L20 700H116L248 409L380 700H471L289 325Z" />
<glyph unicode="Z" glyph-name="Z" horiz-adv-x="436" d="M134 74H381V0H45V88L303 626H68V700H391V612L134 74Z" />
<glyph unicode="[" glyph-name="bracketleft" horiz-adv-x="325" d="M85 -120V820H275V745H165V-45H275V-120H85Z" />
<glyph unicode="\" glyph-name="backslash" horiz-adv-x="325" d="M5 810H84L320 -110H241L5 810Z" />
<glyph unicode="]" glyph-name="bracketright" horiz-adv-x="325" d="M50 -120V-45H160V745H50V820H240V-120H50Z" />
<glyph unicode="^" glyph-name="asciicircum" horiz-adv-x="487" d="M351 420L247 700L133 420H45L189 760H303L442 420H351Z" />
<glyph unicode="_" glyph-name="underscore" horiz-adv-x="510" d="M3 -170V-95H507V-170H3Z" />
<glyph unicode="`" glyph-name="grave" horiz-adv-x="303" d="M179 580L52 715H161L265 580H179Z" />
<glyph unicode="a" glyph-name="a" horiz-adv-x="470" d="M362 0T347 8T320 30Q297 0 259 0H190Q114 0 80 30T45 135V155Q45 310 191 310H295V360Q295 391 276 408T220 425H85V500H210Q297 500 338 462T380 340V100Q380 85 391 78T430 70V0H375Q362 0 347 8ZM279
75T287 89T295 125V235H190Q164 235 147 218T130 175V125Q130 99 142 87T180 75H249Q279 75 287 89Z" />
<glyph unicode="b" glyph-name="b" horiz-adv-x="496" d="M426 76T385 38T256 0H80V700H165V480Q195 500 240 500H256Q344 500 385 463T426 340V160Q426 76 385 38ZM197 425T181 408T165 370V75H266Q303 75 322 92T341 140V360Q341 391 322 408T266 425H230Q197
425 181 408Z" />
<glyph unicode="c" glyph-name="c" horiz-adv-x="399" d="M152 0T111 37T70 160V340Q70 424 111 462T240 500H349V425H230Q193 425 174 408T155 360V140Q155 109 174 92T230 75H349V0H240Q152 0 111 37Z" />
<glyph unicode="d" glyph-name="d" horiz-adv-x="501" d="M341 23Q308 0 261 0H240Q152 0 111 37T70 160V340Q70 424 111 462T240 500H336V700H421V0H341V23ZM304 75T320 92T336 130V425H230Q193 425 174 408T155 360V140Q155 109 174 92T230 75H271Q304 75 320 92Z" />
<glyph unicode="e" glyph-name="e" horiz-adv-x="466" d="M152 0T111 37T70 160V340Q70 426 107 463T230 500H257Q328 500 364 461T401 345V215H155V140Q155 109 174 92T230 75H369V0H240Q152 0 111 37ZM318 290V365Q318 391 301 408T258 425H220Q184 425 170
409T155 360V290H318Z" />
<glyph unicode="f" glyph-name="f" horiz-adv-x="306" d="M199 625T190 617T180 595V500H301V425H180V0H95V425H30V500H95V590Q95 641 124 670T199 700H311V625H215Q199 625 190 617Z" />
<glyph unicode="g" glyph-name="g" horiz-adv-x="494" d="M444 -103T404 -136T277 -170H75V-95H287Q323 -95 341 -81T359 -45V-13Q359 10 341 23T287 37H120V175Q87 193 71 227T55 315V340Q55 424 96 462T225 500H429V315Q429 240 388 198T279 155H205V112H277Q363
112 403 79T444 -23V-35Q444 -103 404 -136ZM310 230T326 250T344 292V425H215Q178 425 159 408T140 360V295Q140 264 159 247T215 230H279Q310 230 326 250Z" />
<glyph unicode="h" glyph-name="h" horiz-adv-x="501" d="M80 700H165V480Q195 500 240 500H266Q347 500 386 462T426 340V0H341V360Q341 390 324 407T276 425H230Q198 425 182 409T165 373V0H80V700Z" />
<glyph unicode="i" glyph-name="i" horiz-adv-x="245" d="M75 610V700H170V610H75ZM80 0V500H165V0H80Z" />
<glyph unicode="j" glyph-name="j" horiz-adv-x="245" d="M75 610V700H170V610H75ZM62 -95T71 -87T81 -65V500H166V-60Q166 -111 137 -140T62 -170H-45V-95H46Q62 -95 71 -87Z" />
<glyph unicode="k" glyph-name="k" horiz-adv-x="464" d="M330 0L193 247L165 214V0H80V700H165V326L315 500H422L253 307L429 0H330Z" />
<glyph unicode="l" glyph-name="l" horiz-adv-x="250" d="M126 0T101 24T75 100V700H160V105Q160 89 168 82T195 75H215V0H160Q126 0 101 24Z" />
<glyph unicode="m" glyph-name="m" horiz-adv-x="720" d="M80 500H160V476Q191 500 240 500H246Q337 500 376 454Q413 500 479 500H485Q566 500 605 462T645 340V0H560V360Q560 390 543 407T495 425H469Q438 425 423 407T405 367V0H320V360Q320 390 303 407T256
425H230Q198 425 182 409T165 373V0H80V500Z" />
<glyph unicode="n" glyph-name="n" horiz-adv-x="501" d="M80 500H160V476Q191 500 240 500H266Q347 500 386 462T426 340V0H341V360Q341 390 324 407T276 425H230Q197 425 181 408T165 370V0H80V500Z" />
<glyph unicode="o" glyph-name="o" horiz-adv-x="493" d="M423 76T382 38T253 0H240Q153 0 112 38T70 160V340Q70 424 111 462T240 500H253Q340 500 381 462T423 340V160Q423 76 382 38ZM338 391T319 408T263 425H230Q193 425 174 408T155 360V140Q155 109 174
92T230 75H263Q300 75 319 92T338 140V360Q338 391 319 408Z" />
<glyph unicode="p" glyph-name="p" horiz-adv-x="496" d="M80 500H160V476Q191 500 240 500H256Q344 500 385 463T426 340V160Q426 76 385 38T256 0H165V-170H80V500ZM197 425T181 408T165 370V75H266Q303 75 322 92T341 140V360Q341 391 322 408T266 425H230Q197
425 181 408Z" />
<glyph unicode="q" glyph-name="q" horiz-adv-x="501" d="M336 20Q305 0 261 0H240Q152 0 111 37T70 160V340Q70 424 111 462T240 500H421V-170H336V20ZM304 75T320 92T336 130V425H230Q193 425 174 408T155 360V140Q155 109 174 92T230 75H271Q304 75 320 92Z" />
<glyph unicode="r" glyph-name="r" horiz-adv-x="333" d="M80 500H160V473Q193 500 240 500H313V420H230Q197 420 181 398T165 355V0H80V500Z" />
<glyph unicode="s" glyph-name="s" horiz-adv-x="399" d="M344 62T306 31T194 0H65V75H204Q231 75 245 86T259 120V173Q259 218 216 218H199Q129 218 95 248T60 345V374Q60 441 98 470T210 500H324V425H200Q175 425 160 414T145 380V344Q145 321 158 310T193 299H207Q274
299 309 267T344 170V125Q344 62 306 31Z" />
<glyph unicode="t" glyph-name="t" horiz-adv-x="311" d="M139 0T112 33T85 120V425H20V500H85V620H170V500H286V425H170V115Q170 93 181 84T215 75H286V0H190Q139 0 112 33Z" />
<glyph unicode="u" glyph-name="u" horiz-adv-x="489" d="M329 23Q296 0 249 0H235Q154 0 115 38T75 160V500H160V140Q160 110 177 93T225 75H259Q291 75 306 91T324 127V500H409V0H329V23Z" />
<glyph unicode="v" glyph-name="v" horiz-adv-x="462" d="M293 0H170L35 500H126L234 71L339 500H427L293 0Z" />
<glyph unicode="w" glyph-name="w" horiz-adv-x="670" d="M531 0H400L337 271L268 0H140L40 500H128L209 64L298 410H383L466 64L547 500H630L531 0Z" />
<glyph unicode="x" glyph-name="x" horiz-adv-x="464" d="M329 0L234 185L134 0H40L185 258L52 500H150L236 335L323 500H416L281 262L429 0H329Z" />
<glyph unicode="y" glyph-name="y" horiz-adv-x="463" d="M271 -89T258 -116T222 -159T159 -175Q138 -175 102 -169V-96Q130 -100 154 -100Q182 -100 194 -55L210 0H190L35 500H127L243 87L341 500H428L283 -44Q271 -89 258 -116Z" />
<glyph unicode="z" glyph-name="z" horiz-adv-x="403" d="M137 74H343V0H45V80L262 426H65V500H353V411L137 74Z" />
<glyph unicode="{" glyph-name="braceleft" horiz-adv-x="325" d="M80 405T95 417T111 469V698Q111 765 136 792T220 820H265V750H234Q210 750 200 743T189 713V469Q189 419 165 387T104 349Q140 345 164 313T189 231V-13Q189 -35 199 -42T234 -50H265V-120H220Q161
-120 136 -93T111 2V231Q111 270 96 282T40 295V405Q80 405 95 417Z" />
<glyph unicode="|" glyph-name="bar" horiz-adv-x="290" d="M105 -110V810H185V-110H105Z" />
<glyph unicode="}" glyph-name="braceright" horiz-adv-x="325" d="M246 295T231 283T215 231V2Q215 -65 190 -92T106 -120H61V-50H92Q116 -50 126 -43T137 -13V231Q137 281 161 313T222 349Q186 355 162 387T137 469V713Q137 735 127 742T92 750H61V820H106Q165
820 190 793T215 698V469Q215 430 230 418T286 405V295Q246 295 231 283Z" />
<glyph unicode="~" glyph-name="asciitilde" horiz-adv-x="510" d="M97 352T133 366T182 381H197Q210 381 264 361Q316 341 328 341H338Q346 341 379 356T425 377V297Q414 291 381 277T337 262H322Q316 262 269 279Q204 302 192 302H182Q173 302 136 287T85 266V346Q97
352 133 366Z" />
<glyph unicode="&#xa0;" glyph-name="uni00A0" horiz-adv-x="260" />
<glyph unicode="&#xa1;" glyph-name="exclamdown" horiz-adv-x="250" d="M175 500V400H75V500H175ZM168 292V-200H83V292H168Z" />
<glyph unicode="&#xa2;" glyph-name="cent" horiz-adv-x="470" d="M237 0Q166 6 133 44T99 159V339Q99 416 132 453T237 497V600H317V499H378V424H259Q222 424 203 407T184 359V139Q184 108 203 91T259 74H378V-1H317V-110H237V0Z" />
<glyph unicode="&#xa3;" glyph-name="sterling" horiz-adv-x="470" d="M136 413V530Q136 615 182 657T316 700H413V624H306Q269 624 246 602T223 549V413H351V340H223V73H421V0H66V73H136V340H66V413H136Z" />
<glyph unicode="&#xa4;" glyph-name="currency" horiz-adv-x="570" d="M96 206T96 252V350Q96 398 108 429L37 501L94 558L162 490Q199 510 266 510H303Q368 510 407 489L476 558L533 501L460 428Q473 398 473 350V252Q473 207 461 175L533 103L476 46L409 113Q369
92 303 92H266Q197 92 161 113L94 46L37 103L108 174Q96 206 96 252ZM388 401T369 418T313 435H256Q219 435 200 418T181 370V232Q181 201 200 184T256 167H313Q350 167 369 184T388 232V370Q388 401 369 418Z" />
<glyph unicode="&#xa5;" glyph-name="yen" horiz-adv-x="470" d="M279 115V0H189V115H59V190H189V265H59V340H186L20 700H116L238 427L359 700H450L281 340H409V265H279V190H409V115H279Z" />
<glyph unicode="&#xa6;" glyph-name="brokenbar" horiz-adv-x="290" d="M105 450V810H185V450H105ZM105 -110V250H185V-110H105Z" />
<glyph unicode="&#xa7;" glyph-name="section" horiz-adv-x="470" d="M90 391T102 419T134 462Q120 477 112 499T104 550V560Q104 633 142 666T254 700H358V625H244Q220 625 205 614T189 580V540Q189 517 202 506T237 495H246Q383 495 383 350V345Q383 277 339
238Q353 228 361 204T369 150V140Q369 67 331 34T219 0H115V75H229Q253 75 268 86T284 120V160Q284 205 240 205H227Q90 205 90 350V355Q90 391 102 419ZM193 420T184 409T175 375V330Q175 307 188 294T228 280H263Q279 280 288 291T298 325V370Q298 394 287 407T246
420H210Q193 420 184 409Z" />
<glyph unicode="&#xa8;" glyph-name="dieresis" horiz-adv-x="355" d="M35 595V675H120V595H35ZM235 595V675H320V595H235Z" />
<glyph unicode="&#xa9;" glyph-name="copyright" horiz-adv-x="800" d="M695 87T650 44T527 0H273Q196 0 151 43T105 170V530Q105 614 150 657T273 700H527Q605 700 650 657T695 530V170Q695 87 650 44ZM618 582T594 607T527 633H273Q230 633 206 608T182 549V151Q182
118 206 93T273 67H527Q570 67 594 92T618 151V549Q618 582 594 607ZM351 157T323 180T295 251V449Q295 496 323 519T403 543H478V492H398Q377 492 365 480T352 450V250Q352 233 364 221T398 208H477V157H403Q351 157 323 180Z" />
<glyph unicode="&#xaa;" glyph-name="ordfeminine" horiz-adv-x="395" d="M282 324T271 329T252 344Q235 324 209 324H157Q100 324 74 347T48 426V441Q48 557 158 557H232V595Q232 618 220 628T179 639H78V700H172Q237 700 268 672T300 580V399Q300 387 308 382T337
377V324H292Q282 324 271 329ZM220 383T226 393T232 420V499H161Q142 499 129 487T116 454V422Q116 383 153 383H197Q220 383 226 393ZM70 0V75H321V0H70Z" />
<glyph unicode="&#xab;" glyph-name="guillemotleft" horiz-adv-x="465" d="M164 92L75 299L164 506H230L167 299L230 92H164ZM324 92L235 299L324 506H390L327 299L390 92H324Z" />
<glyph unicode="&#xac;" glyph-name="logicalnot" horiz-adv-x="575" d="M420 106V275H70V350H505V106H420Z" />
<glyph unicode="&#xad;" glyph-name="uni00AD" horiz-adv-x="495" d="M85 275V350H410V275H85Z" />
<glyph unicode="&#xae;" glyph-name="registered" horiz-adv-x="800" d="M695 87T650 44T527 0H273Q196 0 151 43T105 170V530Q105 614 150 657T273 700H527Q605 700 650 657T695 530V170Q695 87 650 44ZM618 582T594 607T527 633H273Q230 633 206 608T182 549V151Q182
118 206 93T273 67H527Q570 67 594 92T618 151V549Q618 582 594 607ZM405 317H360V159H304V543H411Q515 543 515 457V404Q515 342 461 326L544 159H483L405 317ZM454 478T444 487T411 496H360V363H411Q434 363 444 372T454 403V457Q454 478 444 487Z" />
<glyph unicode="&#xaf;" glyph-name="overscore" horiz-adv-x="325" d="M35 605V675H290V605H35Z" />
<glyph unicode="&#xb0;" glyph-name="degree" horiz-adv-x="363" d="M323 458T287 428T196 397H168Q113 397 77 427T41 516V582Q41 640 76 670T168 701H196Q252 701 287 671T323 582V516Q323 458 287 428ZM254 607T238 623T196 639H168Q143 639 127 623T110 585V513Q110
491 126 475T168 459H196Q221 459 237 475T254 513V585Q254 607 238 623Z" />
<glyph unicode="&#xb1;" glyph-name="plusminus" horiz-adv-x="550" d="M315 275V143H235V275H85V350H235V508H315V350H465V275H315ZM85 0V75H465V0H85Z" />
<glyph unicode="&#xb2;" glyph-name="uni00B2" horiz-adv-x="410" d="M87 278L199 431Q232 476 240 495T249 551V587Q249 636 188 636H102V700H181Q255 700 288 672T322 581V558Q322 519 317 497T302 458T268 408L165 269H327V205H87V278Z" />
<glyph unicode="&#xb3;" glyph-name="uni00B3" horiz-adv-x="410" d="M317 261T288 233T190 205H94V269H187Q215 269 229 280T243 319V374Q243 398 228 412T188 426H117V490H180Q204 490 219 503T235 542V584Q235 613 222 624T180 636H94V700H181Q310 700 310
583V548Q310 520 298 498T266 461Q317 434 317 369V324Q317 261 288 233Z" />
<glyph unicode="&#xb4;" glyph-name="acute" horiz-adv-x="303" d="M45 580L149 715H258L131 580H45Z" />
<glyph unicode="&#xb5;" glyph-name="uni00B5" horiz-adv-x="494" d="M80 500H165V140Q165 110 182 93T230 75H264Q297 75 313 92T329 130V500H414V0H334V23Q301 0 254 0H240Q195 0 165 10V-170H80V500Z" />
<glyph unicode="&#xb6;" glyph-name="paragraph" horiz-adv-x="510" d="M224 374H218Q130 374 91 408T51 527V540Q51 625 91 662T218 700H307V630H207Q171 630 152 611T132 560V507Q132 476 151 459T207 442H307V0H224V374ZM362 0V700H442V0H362Z" />
<glyph unicode="&#xb7;" glyph-name="middot" horiz-adv-x="230" d="M65 260V360H165V260H65Z" />
<glyph unicode="&#xb8;" glyph-name="cedilla" horiz-adv-x="302" d="M64 -136H131Q164 -136 164 -105Q164 -88 156 -82T129 -76H80V50H150V-21Q196 -21 216 -38T237 -105Q237 -163 212 -181T149 -200H64V-136Z" />
<glyph unicode="&#xb9;" glyph-name="uni00B9" horiz-adv-x="410" d="M102 205V269H193V633L94 594V662L185 700H267V269H341V205H102Z" />
<glyph unicode="&#xba;" glyph-name="ordmasculine" horiz-adv-x="416" d="M338 383T307 355T211 326H201Q135 326 104 354T73 446V582Q73 645 104 673T201 702H211Q276 702 307 674T338 582V446Q338 383 307 355ZM270 616T256 628T214 641H197Q170 641 156 629T141
593V435Q141 412 155 400T197 387H214Q242 387 256 399T270 435V593Q270 616 256 628ZM70 0V75H346V0H70Z" />
<glyph unicode="&#xbb;" glyph-name="guillemotright" horiz-adv-x="465" d="M75 92L138 299L75 506H141L230 299L141 92H75ZM235 92L298 299L235 506H301L390 299L301 92H235Z" />
<glyph unicode="&#xbc;" glyph-name="onequarter" horiz-adv-x="875" d="M326 -100H246L566 810H646L326 -100ZM92 205V269H183V633L84 594V662L175 700H257V269H331V205H92ZM735 117V0H661V117H514V191L588 495H657L584 181H661L668 324H735V181H785V117H735Z" />
<glyph unicode="&#xbd;" glyph-name="onehalf" horiz-adv-x="875" d="M331 -100H251L581 810H651L331 -100ZM92 205V269H183V633L84 594V662L175 700H257V269H331V205H92ZM581 73L693 226Q726 271 734 290T743 346V382Q743 431 682 431H596V495H675Q749 495 782
467T816 376V353Q816 314 811 292T796 253T762 203L659 64H821V0H581V73Z" />
<glyph unicode="&#xbe;" glyph-name="threequarters" horiz-adv-x="875" d="M315 -100H235L555 810H635L315 -100ZM324 261T295 233T197 205H101V269H194Q222 269 236 280T250 319V374Q250 398 235 412T195 426H124V490H187Q211 490 226 503T242 542V584Q242 613
229 624T187 636H101V700H188Q317 700 317 583V548Q317 520 305 498T273 461Q324 434 324 369V324Q324 261 295 233ZM728 117V0H654V117H507V191L581 495H650L577 181H654L661 324H728V181H778V117H728Z" />
<glyph unicode="&#xbf;" glyph-name="questiondown" horiz-adv-x="360" d="M256 500V400H156V500H256ZM45 23T49 42T66 82T116 142L164 196V292H249V171L196 110Q161 70 150 55T134 27T130 -9V-59Q130 -90 148 -107T203 -124H313V-200H213Q45 -200 45 -50V-18Q45
23 49 42Z" />
<glyph unicode="&#xc0;" glyph-name="Agrave" horiz-adv-x="500" d="M254 726L122 841H233L337 726H254ZM384 0L346 177H153L114 0H25L194 700H309L475 0H384ZM249 627L169 252H330L249 627Z" />
<glyph unicode="&#xc1;" glyph-name="Aacute" horiz-adv-x="500" d="M161 726L265 841H376L244 726H161ZM384 0L346 177H153L114 0H25L194 700H309L475 0H384ZM249 627L161 252H330L249 627Z" />
<glyph unicode="&#xc2;" glyph-name="Acircumflex" horiz-adv-x="500" d="M309 730L249 794L189 730H93L203 845H295L406 730H309ZM384 0L346 177H153L114 0H25L194 700H309L475 0H384ZM249 627L169 252H330L249 627Z" />
<glyph unicode="&#xc3;" glyph-name="Atilde" horiz-adv-x="500" d="M123 812T151 826T191 840H206Q214 840 230 834T263 820Q305 800 317 800H327Q334 800 359 815T394 836V764Q386 759 362 745T326 731H311Q306 731 266 748Q214 771 201 771H191Q182 771 153
756T114 735V807Q123 812 151 826ZM384 0L346 177H153L114 0H25L194 700H309L475 0H384ZM249 627L169 252H330L249 627Z" />
<glyph unicode="&#xc4;" glyph-name="Adieresis" horiz-adv-x="500" d="M113 735V815H198V735H113ZM313 735V815H384L398 735H313ZM384 0L346 177H153L114 0H25L194 700H309L475 0H384ZM249 627L169 252H330L249 627Z" />
<glyph unicode="&#xc5;" glyph-name="Aring" horiz-adv-x="500" d="M341 696T315 675L475 0H384L346 177H153L114 0H25L188 674Q159 697 159 741V770Q159 812 183 833T248 855H254Q294 855 318 834T343 770V741Q341 696 315 675ZM286 809T254 809H248Q230 809
222 799T214 771V740Q214 723 222 713T248 702H254Q286 702 286 740V771Q286 809 254 809ZM249 627L169 252H330L249 627Z" />
<glyph unicode="&#xc6;" glyph-name="AE" horiz-adv-x="748" d="M390 0L370 177H171L114 0H25L264 700H668V627H401L428 398H663V325H437L467 73H688V0H390ZM195 252H361L320 627L195 252Z" />
<glyph unicode="&#xc7;" glyph-name="Ccedilla" horiz-adv-x="417" d="M197 -136H264Q297 -136 297 -105Q297 -88 289 -82T262 -76H213V2Q145 12 110 54T75 170V530Q75 615 121 657T255 700H377V624H245Q208 624 185 602T162 549V151Q162 120 185 98T245 76H377V0H283V-21Q329
-21 349 -38T370 -105Q370 -163 345 -181T282 -200H197V-136Z" />
<glyph unicode="&#xc8;" glyph-name="Egrave" horiz-adv-x="473" d="M244 726L112 841H223L327 726H244ZM85 0V700H413V627H172V398H388V325H172V73H413V0H85Z" />
<glyph unicode="&#xc9;" glyph-name="Eacute" horiz-adv-x="473" d="M182 726L286 841H397L265 726H182ZM85 0V700H413V627H172V398H388V325H172V73H413V0H85Z" />
<glyph unicode="&#xca;" glyph-name="Ecircumflex" horiz-adv-x="473" d="M309 730L249 794L189 730H93L203 845H295L406 730H309ZM85 0V700H413V627H172V398H388V325H172V73H413V0H85Z" />
<glyph unicode="&#xcb;" glyph-name="Edieresis" horiz-adv-x="473" d="M108 735V815H193V735H108ZM308 735V815H393V735H308ZM85 0V700H413V627H172V398H388V325H172V73H413V0H85Z" />
<glyph unicode="&#xcc;" glyph-name="Igrave" horiz-adv-x="317" d="M170 726L38 841H149L253 726H170ZM45 0V73H115V627H45V700H272V627H202V73H272V0H45Z" />
<glyph unicode="&#xcd;" glyph-name="Iacute" horiz-adv-x="317" d="M61 726L165 841H276L144 726H61ZM45 0V73H115V627H45V700H272V627H202V73H272V0H45Z" />
<glyph unicode="&#xce;" glyph-name="Icircumflex" horiz-adv-x="317" d="M218 730L158 794L98 730H2L112 845H204L315 730H218ZM45 0V73H115V627H45V700H272V627H202V73H272V0H45Z" />
<glyph unicode="&#xcf;" glyph-name="Idieresis" horiz-adv-x="317" d="M16 735V815H101V735H16ZM216 735V815H301V735H216ZM45 0V73H115V627H45V700H272V627H202V73H272V0H45Z" />
<glyph unicode="&#xd0;" glyph-name="Eth" horiz-adv-x="531" d="M456 72T417 36T286 0H90V325H25V400H90V700H274Q364 700 410 664T456 544V158Q456 72 417 36ZM369 586T349 605T296 625H177V400H295V325H177V75H295Q333 75 351 92T369 148V553Q369 586 349 605Z" />
<glyph unicode="&#xd1;" glyph-name="Ntilde" horiz-adv-x="547" d="M146 812T174 826T214 840H229Q237 840 253 834T286 820Q328 800 340 800H350Q357 800 382 815T417 836V764Q409 759 385 745T349 731H334Q329 731 289 748Q237 771 224 771H214Q205 771 176
756T137 735V807Q146 812 174 826ZM319 0L166 626V0H85V700H227L381 74V700H462V0H319Z" />
<glyph unicode="&#xd2;" glyph-name="Ograve" horiz-adv-x="544" d="M268 726L136 841H247L351 726H268ZM469 85T423 43T289 0H255Q168 0 122 42T75 170V530Q75 615 121 657T255 700H289Q376 700 422 658T469 530V170Q469 85 423 43ZM382 580T359 602T299 624H245Q208
624 185 602T162 549V151Q162 120 185 98T245 76H299Q336 76 359 98T382 151V549Q382 580 359 602Z" />
<glyph unicode="&#xd3;" glyph-name="Oacute" horiz-adv-x="544" d="M211 726L315 841H426L294 726H211ZM469 85T423 43T289 0H255Q168 0 122 42T75 170V530Q75 615 121 657T255 700H289Q376 700 422 658T469 530V170Q469 85 423 43ZM382 580T359 602T299 624H245Q208
624 185 602T162 549V151Q162 120 185 98T245 76H299Q336 76 359 98T382 151V549Q382 580 359 602Z" />
<glyph unicode="&#xd4;" glyph-name="Ocircumflex" horiz-adv-x="544" d="M329 730L269 794L209 730H113L223 845H315L426 730H329ZM469 85T423 43T289 0H255Q168 0 122 42T75 170V530Q75 615 121 657T255 700H289Q376 700 422 658T469 530V170Q469 85 423 43ZM382
580T359 602T299 624H245Q208 624 185 602T162 549V151Q162 120 185 98T245 76H299Q336 76 359 98T382 151V549Q382 580 359 602Z" />
<glyph unicode="&#xd5;" glyph-name="Otilde" horiz-adv-x="544" d="M142 812T170 826T210 840H225Q233 840 249 834T282 820Q324 800 336 800H346Q354 800 379 815T413 836V764Q405 759 381 745T345 731H330Q325 731 285 748Q233 771 220 771H210Q201 771 172
756T133 735V807Q142 812 170 826ZM469 85T423 43T289 0H255Q168 0 122 42T75 170V530Q75 615 121 657T255 700H289Q376 700 422 658T469 530V170Q469 85 423 43ZM382 580T359 602T299 624H245Q208 624 185 602T162 549V151Q162 120 185 98T245 76H299Q336 76 359
98T382 151V549Q382 580 359 602Z" />
<glyph unicode="&#xd6;" glyph-name="Odieresis" horiz-adv-x="544" d="M133 735V815H218V735H133ZM333 735V815H418V735H333ZM469 85T423 43T289 0H255Q168 0 122 42T75 170V530Q75 615 121 657T255 700H289Q376 700 422 658T469 530V170Q469 85 423 43ZM382
580T359 602T299 624H245Q208 624 185 602T162 549V151Q162 120 185 98T245 76H299Q336 76 359 98T382 151V549Q382 580 359 602Z" />
<glyph unicode="&#xd7;" glyph-name="multiply" horiz-adv-x="550" d="M275 253L158 137L102 193L218 310L102 427L158 483L275 367L392 483L448 427L332 310L448 193L392 137L275 253Z" />
<glyph unicode="&#xd8;" glyph-name="Oslash" horiz-adv-x="544" d="M469 85T423 43T289 0H255Q239 0 215 2L189 -91H113L145 25Q75 65 75 170V530Q75 615 121 657T255 700H289Q311 700 331 697L357 791H433L400 674Q469 633 469 530V170Q469 85 423 43ZM162 133T170
117L310 623Q307 624 299 624H245Q208 624 185 602T162 549V151Q162 133 170 117ZM382 563T375 580L235 76H299Q336 76 359 98T382 151V549Q382 563 375 580Z" />
<glyph unicode="&#xd9;" glyph-name="Ugrave" horiz-adv-x="535" d="M253 726L121 841H232L336 726H253ZM450 85T404 43T270 0H255Q168 0 122 42T75 170V700H162V151Q162 120 185 98T245 76H280Q317 76 340 98T363 151V700H450V170Q450 85 404 43Z" />
<glyph unicode="&#xda;" glyph-name="Uacute" horiz-adv-x="535" d="M206 726L310 841H421L289 726H206ZM450 85T404 43T270 0H255Q168 0 122 42T75 170V700H162V151Q162 120 185 98T245 76H280Q317 76 340 98T363 151V700H450V170Q450 85 404 43Z" />
<glyph unicode="&#xdb;" glyph-name="Ucircumflex" horiz-adv-x="535" d="M321 730L261 794L201 730H105L215 845H307L418 730H321ZM450 85T404 43T270 0H255Q168 0 122 42T75 170V700H162V151Q162 120 185 98T245 76H280Q317 76 340 98T363 151V700H450V170Q450
85 404 43Z" />
<glyph unicode="&#xdc;" glyph-name="Udieresis" horiz-adv-x="535" d="M123 735V815H208V735H123ZM323 735V815H408V735H323ZM450 85T404 43T270 0H255Q168 0 122 42T75 170V700H162V151Q162 120 185 98T245 76H280Q317 76 340 98T363 151V700H450V170Q450 85 404 43Z" />
<glyph unicode="&#xdd;" glyph-name="Yacute" horiz-adv-x="491" d="M186 726L290 841H401L269 726H186ZM289 325V0H199V325L20 700H116L248 409L380 700H471L289 325Z" />
<glyph unicode="&#xde;" glyph-name="Thorn" horiz-adv-x="511" d="M436 219T393 181T266 142H172V0H85V700H172V570H264Q349 570 392 533T436 414V300Q436 219 393 181ZM349 461T332 478T276 495H172V217H276Q314 217 331 234T349 290V423Q349 461 332 478Z" />
<glyph unicode="&#xdf;" glyph-name="germandbls" horiz-adv-x="519" d="M80 560Q80 630 123 665T230 700H256Q344 700 385 663T426 540V415H348Q318 415 306 404T293 370V355Q293 332 304 321T336 310Q391 310 423 278T455 190V125Q455 69 420 35T317 0H218V75H323Q370
75 370 120V190Q370 212 360 223T324 235Q273 235 241 268T208 356V366Q208 430 242 456T341 486V560Q341 591 322 608T266 625H225Q192 625 179 608T165 570V0H80V560Z" />
<glyph unicode="&#xe0;" glyph-name="agrave" horiz-adv-x="470" d="M240 580L113 715H222L326 580H240ZM362 0T347 8T320 30Q297 0 259 0H190Q114 0 80 30T45 135V155Q45 310 191 310H295V360Q295 391 276 408T220 425H85V500H210Q297 500 338 462T380 340V100Q380
85 391 78T430 70V0H375Q362 0 347 8ZM279 75T287 89T295 125V235H190Q164 235 147 218T130 175V125Q130 99 142 87T180 75H249Q279 75 287 89Z" />
<glyph unicode="&#xe1;" glyph-name="aacute" horiz-adv-x="470" d="M174 580L278 715H387L260 580H174ZM362 0T347 8T320 30Q297 0 259 0H190Q114 0 80 30T45 135V155Q45 310 191 310H295V360Q295 391 276 408T220 425H85V500H210Q297 500 338 462T380 340V100Q380
85 391 78T430 70V0H375Q362 0 347 8ZM279 75T287 89T295 125V235H190Q164 235 147 218T130 175V125Q130 99 142 87T180 75H249Q279 75 287 89Z" />
<glyph unicode="&#xe2;" glyph-name="acircumflex" horiz-adv-x="470" d="M280 580L220 655L160 580H64L176 715H264L377 580H280ZM362 0T347 8T320 30Q297 0 259 0H190Q114 0 80 30T45 135V155Q45 310 191 310H295V360Q295 391 276 408T220 425H85V500H210Q297
500 338 462T380 340V100Q380 85 391 78T430 70V0H375Q362 0 347 8ZM279 75T287 89T295 125V235H190Q164 235 147 218T130 175V125Q130 99 142 87T180 75H249Q279 75 287 89Z" />
<glyph unicode="&#xe3;" glyph-name="atilde" horiz-adv-x="470" d="M94 672T122 686T162 700H177Q185 700 201 694T234 680Q276 660 288 660H298Q306 660 331 675T365 696V624Q357 619 333 605T297 591H282Q277 591 237 608Q185 631 172 631H162Q153 631 124
616T85 595V667Q94 672 122 686ZM362 0T347 8T320 30Q297 0 259 0H190Q114 0 80 30T45 135V155Q45 310 191 310H295V360Q295 391 276 408T220 425H85V500H210Q297 500 338 462T380 340V100Q380 85 391 78T430 70V0H375Q362 0 347 8ZM279 75T287 89T295 125V235H190Q164
235 147 218T130 175V125Q130 99 142 87T180 75H249Q279 75 287 89Z" />
<glyph unicode="&#xe4;" glyph-name="adieresis" horiz-adv-x="470" d="M84 595V675H169V595H84ZM284 595V675H369V595H284ZM362 0T347 8T320 30Q297 0 259 0H190Q114 0 80 30T45 135V155Q45 310 191 310H295V360Q295 391 276 408T220 425H85V500H210Q297 500
338 462T380 340V100Q380 85 391 78T430 70V0H375Q362 0 347 8ZM279 75T287 89T295 125V235H190Q164 235 147 218T130 175V125Q130 99 142 87T180 75H249Q279 75 287 89Z" />
<glyph unicode="&#xe5;" glyph-name="aring" horiz-adv-x="470" d="M305 592T280 570T216 548H210Q171 548 146 570T121 633V662Q121 704 145 725T210 747H216Q256 747 280 726T305 662V633Q305 592 280 570ZM248 701T216 701H210Q192 701 184 691T176 663V632Q176
615 184 605T210 594H216Q248 594 248 632V663Q248 701 216 701ZM362 0T347 8T320 30Q297 0 259 0H190Q114 0 80 30T45 135V155Q45 310 191 310H295V360Q295 391 276 408T220 425H85V500H210Q297 500 338 462T380 340V100Q380 85 391 78T430 70V0H375Q362 0 347
8ZM279 75T287 89T295 125V235H190Q164 235 147 218T130 175V125Q130 99 142 87T180 75H249Q279 75 287 89Z" />
<glyph unicode="&#xe6;" glyph-name="ae" horiz-adv-x="691" d="M418 0T388 11T338 47Q328 28 306 14T259 0H190Q114 0 80 30T45 135V145Q45 300 191 300H295V360Q295 391 276 408T220 425H85V500H210Q255 500 284 491T335 463Q355 482 382 491T455 500H482Q553
500 589 461T626 345V225H380V134Q382 106 401 91T455 75H594V0H465Q418 0 388 11ZM543 300V365Q543 391 526 408T483 425H445Q409 425 395 409T380 360V300H543ZM190 225Q164 225 147 208T130 165V125Q130 99 142 87T180 75H249Q279 75 287 89T295 125V225H190Z"
/>
<glyph unicode="&#xe7;" glyph-name="ccedilla" horiz-adv-x="399" d="M167 -136H234Q267 -136 267 -105Q267 -88 259 -82T232 -76H183V4Q126 15 98 52T70 160V340Q70 424 111 462T240 500H349V425H230Q193 425 174 408T155 360V140Q155 109 174 92T230 75H349V0H253V-21Q299
-21 319 -38T340 -105Q340 -163 315 -181T252 -200H167V-136Z" />
<glyph unicode="&#xe8;" glyph-name="egrave" horiz-adv-x="466" d="M240 580L113 715H222L326 580H240ZM152 0T111 37T70 160V340Q70 426 107 463T230 500H257Q328 500 364 461T401 345V215H155V140Q155 109 174 92T230 75H369V0H240Q152 0 111 37ZM318 290V365Q318
391 301 408T258 425H220Q184 425 170 409T155 360V290H318Z" />
<glyph unicode="&#xe9;" glyph-name="eacute" horiz-adv-x="466" d="M164 580L268 715H377L250 580H164ZM152 0T111 37T70 160V340Q70 426 107 463T230 500H257Q328 500 364 461T401 345V215H155V140Q155 109 174 92T230 75H369V0H240Q152 0 111 37ZM318 290V365Q318
391 301 408T258 425H220Q184 425 170 409T155 360V290H318Z" />
<glyph unicode="&#xea;" glyph-name="ecircumflex" horiz-adv-x="466" d="M302 580L242 655L182 580H86L198 715H286L399 580H302ZM152 0T111 37T70 160V340Q70 426 107 463T230 500H257Q328 500 364 461T401 345V215H155V140Q155 109 174 92T230 75H369V0H240Q152
0 111 37ZM318 290V365Q318 391 301 408T258 425H220Q184 425 170 409T155 360V290H318Z" />
<glyph unicode="&#xeb;" glyph-name="edieresis" horiz-adv-x="466" d="M97 595V675H182V595H97ZM297 595V675H382V595H297ZM152 0T111 37T70 160V340Q70 426 107 463T230 500H257Q328 500 364 461T401 345V215H155V140Q155 109 174 92T230 75H369V0H240Q152 0
111 37ZM318 290V365Q318 391 301 408T258 425H220Q184 425 170 409T155 360V290H318Z" />
<glyph unicode="&#xec;" glyph-name="igrave" horiz-adv-x="245" d="M108 580L-19 715H80L194 580H108ZM80 0V500H165V0H80Z" />
<glyph unicode="&#xed;" glyph-name="iacute" horiz-adv-x="245" d="M55 580L159 715H268L141 580H55ZM80 0V500H165V0H80Z" />
<glyph unicode="&#xee;" glyph-name="icircumflex" horiz-adv-x="245" d="M182 580L122 655L62 580H-34L78 715H166L279 580H182ZM80 0V500H165V0H80Z" />
<glyph unicode="&#xef;" glyph-name="idieresis" horiz-adv-x="245" d="M-20 595V675H65V595H-20ZM180 595V675H265V595H180ZM80 0V500H165V0H80Z" />
<glyph unicode="&#xf0;" glyph-name="eth" horiz-adv-x="503" d="M162 566L197 626H126V700H240L270 750H352L316 690Q419 658 419 530V170Q419 88 374 44T261 0H236Q168 0 123 44T78 170V300Q78 384 119 422T246 460H334V549Q334 574 319 594T277 622L244 566H162ZM200
385T182 368T163 319V151Q163 119 184 97T241 75H256Q292 75 313 97T334 151V385H236Q200 385 182 368Z" />
<glyph unicode="&#xf1;" glyph-name="ntilde" horiz-adv-x="501" d="M139 672T167 686T207 700H222Q230 700 246 694T279 680Q321 660 333 660H343Q351 660 376 675T410 696V624Q402 619 378 605T342 591H327Q322 591 282 608Q230 631 217 631H207Q198 631 169
616T130 595V667Q139 672 167 686ZM80 500H160V476Q191 500 240 500H266Q347 500 386 462T426 340V0H341V360Q341 390 324 407T276 425H230Q197 425 181 408T165 370V0H80V500Z" />
<glyph unicode="&#xf2;" glyph-name="ograve" horiz-adv-x="493" d="M255 580L128 715H237L341 580H255ZM423 76T382 38T253 0H240Q153 0 112 38T70 160V340Q70 424 111 462T240 500H253Q340 500 381 462T423 340V160Q423 76 382 38ZM338 391T319 408T263 425H230Q193
425 174 408T155 360V140Q155 109 174 92T230 75H263Q300 75 319 92T338 140V360Q338 391 319 408Z" />
<glyph unicode="&#xf3;" glyph-name="oacute" horiz-adv-x="493" d="M182 580L286 715H395L268 580H182ZM423 76T382 38T253 0H240Q153 0 112 38T70 160V340Q70 424 111 462T240 500H253Q340 500 381 462T423 340V160Q423 76 382 38ZM338 391T319 408T263 425H230Q193
425 174 408T155 360V140Q155 109 174 92T230 75H263Q300 75 319 92T338 140V360Q338 391 319 408Z" />
<glyph unicode="&#xf4;" glyph-name="ocircumflex" horiz-adv-x="493" d="M308 580L248 655L188 580H92L204 715H292L405 580H308ZM423 76T382 38T253 0H240Q153 0 112 38T70 160V340Q70 424 111 462T240 500H253Q340 500 381 462T423 340V160Q423 76 382 38ZM338
391T319 408T263 425H230Q193 425 174 408T155 360V140Q155 109 174 92T230 75H263Q300 75 319 92T338 140V360Q338 391 319 408Z" />
<glyph unicode="&#xf5;" glyph-name="otilde" horiz-adv-x="493" d="M114 672T142 686T182 700H197Q205 700 221 694T254 680Q296 660 308 660H318Q325 660 350 675T385 696V624Q377 619 353 605T317 591H302Q297 591 257 608Q205 631 192 631H182Q173 631 144
616T105 595V667Q114 672 142 686ZM423 76T382 38T253 0H240Q153 0 112 38T70 160V340Q70 424 111 462T240 500H253Q340 500 381 462T423 340V160Q423 76 382 38ZM338 391T319 408T263 425H230Q193 425 174 408T155 360V140Q155 109 174 92T230 75H263Q300 75 319
92T338 140V360Q338 391 319 408Z" />
<glyph unicode="&#xf6;" glyph-name="odieresis" horiz-adv-x="493" d="M106 595V675H191V595H106ZM306 595V675H391V595H306ZM423 76T382 38T253 0H240Q153 0 112 38T70 160V340Q70 424 111 462T240 500H253Q340 500 381 462T423 340V160Q423 76 382 38ZM338
391T319 408T263 425H230Q193 425 174 408T155 360V140Q155 109 174 92T230 75H263Q300 75 319 92T338 140V360Q338 391 319 408Z" />
<glyph unicode="&#xf7;" glyph-name="divide" horiz-adv-x="550" d="M225 460V560H325V460H225ZM85 275V350H465V275H85ZM225 65V165H325V65H225Z" />
<glyph unicode="&#xf8;" glyph-name="oslash" horiz-adv-x="493" d="M423 76T382 38T253 0H240Q220 0 211 1L184 -89H106L139 19Q104 36 87 70T70 160V340Q70 424 111 462T240 500H253Q264 500 284 498L312 589H389L356 480Q390 462 406 428T423 340V160Q423 76
382 38ZM155 118T164 103L262 425H230Q193 425 174 408T155 360V140Q155 118 164 103ZM338 378T330 394L234 75H263Q300 75 319 92T338 140V360Q338 378 330 394Z" />
<glyph unicode="&#xf9;" glyph-name="ugrave" horiz-adv-x="489" d="M246 580L119 715H228L332 580H246ZM329 23Q296 0 249 0H235Q154 0 115 38T75 160V500H160V140Q160 110 177 93T225 75H259Q291 75 306 91T324 127V500H409V0H329V23Z" />
<glyph unicode="&#xfa;" glyph-name="uacute" horiz-adv-x="489" d="M164 580L268 715H377L250 580H164ZM329 23Q296 0 249 0H235Q154 0 115 38T75 160V500H160V140Q160 110 177 93T225 75H259Q291 75 306 91T324 127V500H409V0H329V23Z" />
<glyph unicode="&#xfb;" glyph-name="ucircumflex" horiz-adv-x="489" d="M303 580L243 655L183 580H87L199 715H287L400 580H303ZM329 23Q296 0 249 0H235Q154 0 115 38T75 160V500H160V140Q160 110 177 93T225 75H259Q291 75 306 91T324 127V500H409V0H329V23Z" />
<glyph unicode="&#xfc;" glyph-name="udieresis" horiz-adv-x="489" d="M96 595V675H181V595H96ZM296 595V675H381V595H296ZM329 23Q296 0 249 0H235Q154 0 115 38T75 160V500H160V140Q160 110 177 93T225 75H259Q291 75 306 91T324 127V500H409V0H329V23Z" />
<glyph unicode="&#xfd;" glyph-name="yacute" horiz-adv-x="463" d="M193 580L297 715H406L279 580H193ZM271 -89T258 -116T222 -159T159 -175Q138 -175 102 -169V-96Q130 -100 154 -100Q182 -100 194 -55L210 0H190L35 500H127L243 87L341 500H428L283 -44Q271
-89 258 -116Z" />
<glyph unicode="&#xfe;" glyph-name="thorn" horiz-adv-x="504" d="M344 500T385 463T426 340V160Q426 76 385 38T256 0H165V-170H80V700H165V480Q196 500 240 500H256Q344 500 385 463ZM341 360Q341 391 322 408T266 425H230Q197 425 181 408T165 370V75H266Q303
75 322 92T341 140V360Z" />
<glyph unicode="&#xff;" glyph-name="ydieresis" horiz-adv-x="463" d="M90 595V675H175V595H90ZM290 595V675H375V595H290ZM271 -89T258 -116T222 -159T159 -175Q138 -175 102 -169V-96Q130 -100 154 -100Q182 -100 194 -55L210 0H190L35 500H127L243 87L341
500H428L283 -44Q271 -89 258 -116Z" />
<glyph unicode="&#x2013;" glyph-name="endash" horiz-adv-x="550" d="M85 275V350H465V275H85Z" />
<glyph unicode="&#x2014;" glyph-name="emdash" horiz-adv-x="605" d="M65 275V350H540V275H65Z" />
<glyph unicode="&#x2018;" glyph-name="quoteleft" horiz-adv-x="225" d="M110 699H180L150 542V452H55V542L110 699Z" />
<glyph unicode="&#x2019;" glyph-name="quoteright" horiz-adv-x="225" d="M115 453H45L75 610V700H170V610L115 453Z" />
<glyph unicode="&#x201a;" glyph-name="quotesinglbase" horiz-adv-x="220" d="M120 -157H50L80 0V90H175V0L120 -157Z" />
<glyph unicode="&#x201c;" glyph-name="quotedblleft" horiz-adv-x="380" d="M110 699H180L150 542V452H55V542L110 699ZM265 699H335L305 542V452H210V542L265 699Z" />
<glyph unicode="&#x201d;" glyph-name="quotedblright" horiz-adv-x="380" d="M115 453H45L75 610V700H170V610L115 453ZM270 453H200L230 610V700H325V610L270 453Z" />
<glyph unicode="&#x201e;" glyph-name="quotedblbase" horiz-adv-x="375" d="M120 -157H50L80 0V90H175V0L120 -157ZM275 -157H205L235 0V90H330V0L275 -157Z" />
<glyph unicode="&#x2022;" glyph-name="bullet" horiz-adv-x="290" d="M70 235V390H220V235H70Z" />
<glyph unicode="&#x2039;" glyph-name="guilsinglleft" horiz-adv-x="305" d="M164 92L75 299L164 506H230L167 299L230 92H164Z" />
<glyph unicode="&#x203a;" glyph-name="guilsinglright" horiz-adv-x="305" d="M75 92L138 299L75 506H141L230 299L141 92H75Z" />
</font>
</defs>
</svg>
