<?xml version="1.0" standalone="no"?>
<!DOCTYPE svg PUBLIC "-//W3C//DTD SVG 1.1//EN" "http://www.w3.org/Graphics/SVG/1.1/DTD/svg11.dtd">
<svg xmlns="http://www.w3.org/2000/svg">
<defs >
<font id="PassionOne" horiz-adv-x="416" ><font-face
    font-family="Passion One"
    units-per-em="1000"
    panose-1="2 0 5 6 5 0 0 2 0 4"
    ascent="835"
    descent="-266"
    alphabetic="0" />
<glyph unicode=" " glyph-name="space" horiz-adv-x="190" />
<glyph unicode="!" glyph-name="exclam" horiz-adv-x="330" d="M94 176L82 621H282L267 176H94ZM129 -10T107 9T85 70T106 130T183 150T259 131T280 70T259 10T183 -10Z" />
<glyph unicode="&quot;" glyph-name="quotedbl" horiz-adv-x="488" d="M43 616T68 635T146 655T223 633T246 557T214 466T123 392L36 405L105 498Q72 505 58 521T43 576ZM261 616T286 635T364 655T441 633T464 557T432 466T341 392L254 405L323 498Q290 505 276
521T261 576Z" />
<glyph unicode="#" glyph-name="numbersign" horiz-adv-x="554" d="M534 312H452L447 285H511V149H427L404 0H245L266 149H241L218 0H51L76 149H20V285H98L103 312H44V446H122L147 592H309L287 446H310L332 592H494L472 446H534V312ZM293 317H265L258 280H286L293 317Z" />
<glyph unicode="$" glyph-name="dollar" horiz-adv-x="527" d="M32 421Q32 578 181 619V710H348V627Q438 618 478 611L455 435Q330 460 291 460T252 436Q252 427 258 424T267 418T278 413T292 408T328 393T374 373T417 348Q495 297 495 194Q495 124 456 72T348
2V-82H181V-5Q113 1 50 17L64 186Q198 152 245 152Q276 152 276 174Q276 184 269 190T247 203T204 221T157 241T112 268Q32 323 32 421Z" />
<glyph unicode="%" glyph-name="percent" horiz-adv-x="929" d="M638 621L439 0H292L490 621H638ZM229 399V442Q229 476 226 485T218 504T198 514T175 508Q161 498 161 412V399Q161 338 165 318T176 292T197 286Q219 286 224 309T229 399ZM298 631T333 577T369
406T334 235T196 182T57 235T20 405T56 576T195 631ZM769 207V250Q769 284 766 293T758 312T738 322T715 316Q701 306 701 220V207Q701 146 705 126T716 100T737 94Q759 94 764 117T769 207ZM838 439T873 385T909 214T874 43T736 -10T597 43T560 213T596 384T735
439Z" />
<glyph unicode="&amp;" glyph-name="ampersand" horiz-adv-x="694" d="M260 -10Q140 -10 85 34T29 184Q29 253 57 290T142 349Q92 405 92 482Q92 641 307 641T522 478Q522 413 498 380T404 305L477 226H482V320H640V247Q640 173 587 133V129H672L654 -10H560Q489
-10 443 20H436Q403 3 367 -3T260 -10ZM228 182Q228 133 279 133H332V137L246 224Q228 213 228 182ZM344 445Q344 475 314 475T283 447Q283 434 286 429T291 422T295 417T300 412T306 407T313 401Q331 415 337 423T344 445Z" />
<glyph unicode="&apos;" glyph-name="quotesingle" horiz-adv-x="252" d="M45 616T70 635T148 655T225 633T248 557T216 466T125 392L38 405L107 498Q74 505 60 521T45 576Z" />
<glyph unicode="(" glyph-name="parenleft" horiz-adv-x="388" d="M216 645L372 597Q254 440 254 260T372 -108L210 -147Q119 -58 72 33T24 252T71 472T216 645Z" />
<glyph unicode=")" glyph-name="parenright" horiz-adv-x="388" d="M269 565T316 471T364 253T316 35T177 -147L16 -108Q135 65 135 251T16 596L173 645Q269 565 316 471Z" />
<glyph unicode="*" glyph-name="asterisk" horiz-adv-x="467" d="M443 464L351 434L418 343L307 279L237 354L170 280L59 344L115 433L24 464L56 582L156 560L166 657H305L313 560L406 581L443 464Z" />
<glyph unicode="+" glyph-name="plus" horiz-adv-x="476" d="M157 84V209H32V371H157V496H319V371H444V209H319V84H157Z" />
<glyph unicode="," glyph-name="comma" horiz-adv-x="306" d="M55 112T80 131T158 151T235 129T258 53T226 -38T135 -112L48 -99L117 -6Q84 1 70 17T55 72Z" />
<glyph unicode="-" glyph-name="hyphen" horiz-adv-x="403" d="M371 179H32V341H371V179Z" />
<glyph unicode="." glyph-name="period" horiz-adv-x="291" d="M92 -10T70 9T48 70T69 130T146 150T222 131T243 70T222 10T146 -10Z" />
<glyph unicode="/" glyph-name="slash" horiz-adv-x="417" d="M432 616L189 -142H-15L227 616H432Z" />
<glyph unicode="0" glyph-name="zero" horiz-adv-x="539" d="M319 300V319Q319 440 298 456Q287 464 272 464T249 461T236 447T228 427Q222 409 222 363V300Q222 217 227 187T243 148T273 139Q305 139 312 172T319 300ZM499 502T509 447T519 310T509 172T472 74Q422
-10 271 -10T68 74Q41 117 31 172T20 309T30 446T67 546Q119 631 270 631T472 546Q499 502 509 447Z" />
<glyph unicode="1" glyph-name="one" horiz-adv-x="325" d="M281 0H74V452H4V565L115 621H281V0Z" />
<glyph unicode="2" glyph-name="two" horiz-adv-x="469" d="M4 586Q122 631 232 631T398 581T453 444T420 298T308 158V154H455V0H28L18 108Q28 118 63 152T110 198T148 238T185 281T216 325T236 392Q236 440 189 440Q145 440 37 411L4 586Z" />
<glyph unicode="3" glyph-name="three" horiz-adv-x="469" d="M4 580Q110 631 221 631T390 585T448 456Q448 410 431 380T375 328V324Q457 288 457 182Q457 90 397 40T222 -10Q167 -10 125 -1T18 32L62 186Q170 153 199 153Q238 153 238 196T192 240H104V380H191Q225
380 225 420T185 460Q157 460 49 423L4 580Z" />
<glyph unicode="4" glyph-name="four" horiz-adv-x="548" d="M540 117H473V0H266V117H24L8 240L226 616H473V263H548L540 117ZM271 259V389H267L197 259H271Z" />
<glyph unicode="5" glyph-name="five" horiz-adv-x="472" d="M456 212Q456 -10 229 -10Q122 -10 30 21L46 192Q181 157 208 157T245 168T254 202Q254 245 225 245Q210 245 202 229L31 249V616H426V457H226V392Q253 400 287 400Q456 400 456 212Z" />
<glyph unicode="6" glyph-name="six" horiz-adv-x="512" d="M291 250T266 250T224 246Q222 230 222 224Q222 135 273 135Q314 135 314 193Q314 223 303 236ZM311 393Q405 393 456 348T508 202T452 46T270 -10T80 60T16 266Q16 455 118 543T455 631L442 467Q269
467 233 386Q265 393 311 393Z" />
<glyph unicode="7" glyph-name="seven" horiz-adv-x="465" d="M461 519L269 0H38L222 447H2V616H461V519Z" />
<glyph unicode="8" glyph-name="eight" horiz-adv-x="519" d="M20 539T84 585T259 631T434 587T497 464Q497 409 480 377T421 316V312Q505 272 505 180T442 39T262 -10T80 37T14 173Q14 225 34 256T98 307V311Q57 339 39 373T20 460Q20 539 84 585ZM261 131Q302
131 302 172Q302 192 290 205T249 237Q216 211 216 184Q216 131 261 131ZM263 479Q222 479 222 441Q222 421 233 409T270 380Q307 409 307 434Q307 479 263 479Z" />
<glyph unicode="9" glyph-name="nine" horiz-adv-x="509" d="M197 382T207 368T244 353T289 359V377Q289 425 280 447T239 470Q197 470 197 414Q197 382 207 368ZM197 219Q103 219 54 265T4 414T62 573T246 631T432 566T493 363Q493 269 471 202T398 86Q298 -10
51 -10L59 141Q158 141 205 160T273 225Q237 219 197 219Z" />
<glyph unicode=":" glyph-name="colon" horiz-adv-x="291" d="M92 -10T70 9T48 70T69 130T146 150T222 131T243 70T222 10T146 -10ZM92 282T70 301T48 362T69 422T146 442T222 423T243 362T222 302T146 282Z" />
<glyph unicode=";" glyph-name="semicolon" horiz-adv-x="306" d="M99 282T77 301T55 362T76 422T153 442T229 423T250 362T229 302T153 282ZM55 112T80 131T158 151T235 129T258 53T226 -38T135 -112L48 -99L117 -6Q84 1 70 17T55 72Z" />
<glyph unicode="&lt;" glyph-name="less" horiz-adv-x="499" d="M467 30L32 207V361L467 533V373L229 285L467 189V30Z" />
<glyph unicode="=" glyph-name="equal" horiz-adv-x="454" d="M418 280H36V427H418V280ZM418 93H36V240H418V93Z" />
<glyph unicode="&gt;" glyph-name="greater" horiz-adv-x="499" d="M467 207L32 30V189L270 285L32 373V533L467 361V207Z" />
<glyph unicode="?" glyph-name="question" horiz-adv-x="395" d="M383 444Q383 361 342 316Q321 293 299 278T242 244V176H75V287Q75 319 88 339T133 372T175 396T187 423Q187 452 153 452Q133 452 24 431V605Q119 626 192 626Q383 626 383 444ZM105 -10T83 9T61
70T82 130T159 150T235 131T256 70T235 10T159 -10Z" />
<glyph unicode="@" glyph-name="at" horiz-adv-x="957" d="M458 -180Q24 -180 24 232Q24 437 150 552T493 668T822 565T933 279Q933 -10 667 -10Q615 -10 586 -2T531 29H524Q476 -10 404 -10T294 28T256 135Q256 219 312 252T492 294V312Q492 330 473 330Q422
330 298 299L276 453Q436 491 526 491T655 457T695 350L689 150Q689 128 713 128Q771 128 771 278Q771 399 707 463T488 528T259 455T186 233T258 20T478 -44Q568 -44 688 -29V-158Q578 -180 458 -180ZM469 119Q498 119 498 149V187Q446 180 446 147Q446 119 469
119Z" />
<glyph unicode="A" glyph-name="A" horiz-adv-x="563" d="M563 0H353L333 96H222L201 0H0L129 621H434L563 0ZM318 225L280 433H276L237 225H318Z" />
<glyph unicode="B" glyph-name="B" horiz-adv-x="563" d="M549 182Q549 0 323 0H40V621H319Q431 621 484 581T538 458T468 330V326Q549 289 549 182ZM309 124T318 135T327 184T318 236T282 252H253V124H282Q309 124 318 135ZM301 362T309 374T318 415T310 458T282
471H253V362H283Q301 362 309 374Z" />
<glyph unicode="C" glyph-name="C" horiz-adv-x="465" d="M236 227T253 193T310 158T443 180L475 21Q377 -10 286 -10Q147 -10 84 69T20 306T86 547T301 631Q388 631 475 597L442 419Q343 448 307 448T253 414T236 303Z" />
<glyph unicode="D" glyph-name="D" horiz-adv-x="599" d="M577 324Q577 0 281 0H40V621H286Q445 621 511 545T577 324ZM329 156T344 191T359 307T343 423T274 458H253V156H278Q329 156 344 191Z" />
<glyph unicode="E" glyph-name="E" horiz-adv-x="461" d="M436 0H40V621H450L436 456H254V381H413V237H254V152H450L436 0Z" />
<glyph unicode="F" glyph-name="F" horiz-adv-x="440" d="M436 456H254V371H392V227H254V0H40V621H450L436 456Z" />
<glyph unicode="G" glyph-name="G" horiz-adv-x="592" d="M314 153Q332 153 362 159V219H312V357H548V0H397L382 32H378Q326 -10 255 -10Q21 -10 21 306Q21 464 84 547T299 631Q411 631 511 600L478 412Q366 443 318 443T254 411T238 302T252 189T314 153Z" />
<glyph unicode="H" glyph-name="H" horiz-adv-x="613" d="M573 0H362V219H254V0H40V621H254V389H362V621H573V0Z" />
<glyph unicode="I" glyph-name="I" horiz-adv-x="303" d="M257 0H46V621H257V0Z" />
<glyph unicode="J" glyph-name="J" horiz-adv-x="326" d="M282 621V130Q282 50 241 20T88 -10H15L4 138H54Q65 138 68 142T72 155V621H282Z" />
<glyph unicode="K" glyph-name="K" horiz-adv-x="552" d="M552 0H317L254 206H243V0H40V621H243V375H254L333 621H562L433 298L552 0Z" />
<glyph unicode="L" glyph-name="L" horiz-adv-x="413" d="M413 0H40V621H254V161H427L413 0Z" />
<glyph unicode="M" glyph-name="M" horiz-adv-x="754" d="M716 0H527V296H522L463 0H288L230 296H225V0H38L62 621H328L375 340H384L430 621H693L716 0Z" />
<glyph unicode="N" glyph-name="N" horiz-adv-x="607" d="M567 0H363L237 245H230V0H40V621H251L369 368H375V621H567V0Z" />
<glyph unicode="O" glyph-name="O" horiz-adv-x="609" d="M20 481T86 556T305 631T523 557T589 317T522 70T304 -10T87 69T20 314ZM348 459T305 459T250 434T238 327V283Q238 199 251 174T308 149T363 173T374 280V326Q374 408 361 433Z" />
<glyph unicode="P" glyph-name="P" horiz-adv-x="525" d="M293 194H250V0H40V621H282Q405 621 461 571T517 406T463 243T293 194ZM312 355T312 393T303 447T267 463H246V323H272Q295 323 303 339Z" />
<glyph unicode="Q" glyph-name="Q" horiz-adv-x="613" d="M152 631T304 631T521 557T587 320Q587 209 559 146T464 42V38H606L593 -103H551Q454 -103 389 -64L300 -10Q147 -10 83 71T18 317T85 556ZM346 459T303 459T248 434T236 327V283Q236 199 249 174T306
149T361 173T372 280V326Q372 408 359 433Z" />
<glyph unicode="R" glyph-name="R" horiz-adv-x="563" d="M531 421Q531 361 512 326T451 263L544 0H323L261 214H245V0H40V621H305Q421 621 476 573T531 421ZM289 336T298 349T308 397T298 444T267 457H241V336H266Q289 336 298 349Z" />
<glyph unicode="S" glyph-name="S" horiz-adv-x="483" d="M10 521T70 576T236 631T456 611L433 435Q308 460 269 460T230 436Q230 427 236 424T245 418T256 413T270 408T306 393T352 373T395 348Q473 297 473 198T414 45T245 -10T28 17L42 186Q176 152 223 152Q254
152 254 174Q254 184 247 190T225 203T182 221T135 241T90 268Q10 323 10 422Z" />
<glyph unicode="T" glyph-name="T" horiz-adv-x="476" d="M474 452H342V0H129V452H-10L-1 621H486L474 452Z" />
<glyph unicode="U" glyph-name="U" horiz-adv-x="613" d="M260 220Q260 166 308 166T357 221V621H571V208Q571 98 502 44T304 -10Q42 -10 42 206V621H260V220Z" />
<glyph unicode="V" glyph-name="V" horiz-adv-x="574" d="M564 621L444 0H137L10 621H241L289 240H301L344 621H564Z" />
<glyph unicode="W" glyph-name="W" horiz-adv-x="754" d="M734 621L668 0H430L383 252H375L335 0H97L20 621H216L241 336H250L288 621H477L519 336H526L545 621H734Z" />
<glyph unicode="X" glyph-name="X" horiz-adv-x="573" d="M573 0H344L288 169H279L219 0H0L120 316L12 621H245L291 447H299L350 621H558L458 315L573 0Z" />
<glyph unicode="Y" glyph-name="Y" horiz-adv-x="536" d="M536 621L372 197V0H159V198L0 621H225L269 393H275L317 621H536Z" />
<glyph unicode="Z" glyph-name="Z" horiz-adv-x="527" d="M515 0H45L38 107L230 450H23L12 621H499L506 516L326 159H515V0Z" />
<glyph unicode="[" glyph-name="bracketleft" horiz-adv-x="379" d="M335 -137H52V631H335V490H263V3H335V-137Z" />
<glyph unicode="\" glyph-name="backslash" horiz-adv-x="417" d="M228 -142L-15 616H190L432 -142H228Z" />
<glyph unicode="]" glyph-name="bracketright" horiz-adv-x="380" d="M328 -137H44V3H118V490H44V631H328V-137Z" />
<glyph unicode="^" glyph-name="asciicircum" horiz-adv-x="500" d="M339 642L417 511H286L251 563L215 511H83L161 642H339Z" />
<glyph unicode="_" glyph-name="underscore" horiz-adv-x="400" d="M400 -137H0V-22H400V-137Z" />
<glyph unicode="`" glyph-name="grave" horiz-adv-x="500" d="M237 517L110 647H311L379 517H237Z" />
<glyph unicode="a" glyph-name="a" horiz-adv-x="499" d="M453 350L447 150Q447 136 457 132T495 127L476 -6Q416 -10 395 -10Q322 -10 289 29H282Q234 -10 162 -10T52 28T14 135Q14 219 70 252T250 294V312Q250 330 231 330Q180 330 56 299L25 457Q168 491 271
491T413 457T453 350ZM227 119Q256 119 256 149V187Q204 180 204 147Q204 119 227 119Z" />
<glyph unicode="b" glyph-name="b" horiz-adv-x="522" d="M507 251Q507 185 500 141T472 60Q433 -10 317 -10Q245 -10 202 21L194 0H30V641H231V471Q273 491 323 491Q434 491 470 436T507 251ZM289 132T294 154T299 233T293 313T267 337Q254 337 236 329V136Q254
132 268 132Q289 132 294 154Z" />
<glyph unicode="c" glyph-name="c" horiz-adv-x="397" d="M241 334T233 310T224 236T232 164T270 141T365 154L387 15Q299 -10 239 -10Q128 -10 72 54T15 233T73 419T242 491Q323 491 395 464L374 306Q296 334 269 334Z" />
<glyph unicode="d" glyph-name="d" horiz-adv-x="543" d="M427 -10Q349 -10 320 29H316Q270 -10 207 -10Q103 -10 59 56T15 243T63 427T203 491Q255 491 287 475V641H488V150Q488 137 497 132T531 127L513 -6Q461 -10 427 -10ZM235 339T230 316T224 236T229 157T254
134T287 138V332Q270 339 255 339Q235 339 230 316Z" />
<glyph unicode="e" glyph-name="e" horiz-adv-x="501" d="M258 330Q237 330 229 317T221 277H293V293Q293 330 258 330ZM15 360T77 425T261 491T433 441T484 298Q484 261 476 186H225Q229 132 291 132Q320 132 443 153L460 18Q354 -10 262 -10Q142 -10 79 56T15 241Z" />
<glyph unicode="f" glyph-name="f" horiz-adv-x="332" d="M210 648Q277 648 359 643L343 486Q275 492 266 492T256 482V465H341L330 330H258V0H49V330H1V465H49V513Q49 648 210 648Z" />
<glyph unicode="g" glyph-name="g" horiz-adv-x="513" d="M241 491H513V369H439V365Q470 341 470 294Q470 137 268 137H205Q197 137 197 128T205 119H364Q492 119 492 15Q492 -147 239 -147Q137 -147 81 -124T25 -41Q25 -8 60 8V12Q14 36 14 92T90 179Q20 229
20 317T78 448T241 491ZM250 338Q224 338 224 288T252 238Q278 238 278 287Q278 314 272 326T250 338ZM197 -29H311Q320 -29 320 -22V-16Q320 -9 311 -9H197Q190 -9 190 -16V-22Q190 -29 197 -29Z" />
<glyph unicode="h" glyph-name="h" horiz-adv-x="539" d="M366 491Q502 491 502 365V0H291V310Q291 326 275 326T238 316V0H30V641H231V449Q292 491 366 491Z" />
<glyph unicode="i" glyph-name="i" horiz-adv-x="280" d="M245 0H37V469H245V0ZM33 570Q33 655 140 655T247 570Q247 526 221 507T140 488T60 506T33 570Z" />
<glyph unicode="j" glyph-name="j" horiz-adv-x="285" d="M250 469V-4Q250 -83 210 -112T58 -142H-8L-25 7H25Q37 7 40 10T43 22V469H250ZM37 570Q37 655 144 655T251 570Q251 526 225 507T144 488T64 506T37 570Z" />
<glyph unicode="k" glyph-name="k" horiz-adv-x="514" d="M522 0H297L239 157H235V0H30V641H235V311H239L309 479H526L414 230Q433 189 469 112T522 0Z" />
<glyph unicode="l" glyph-name="l" horiz-adv-x="286" d="M32 124V641H237V170Q237 143 274 143L259 -10H177Q32 -10 32 124Z" />
<glyph unicode="m" glyph-name="m" horiz-adv-x="795" d="M627 491Q765 491 765 355V0H554V310Q554 326 542 326Q526 326 502 316V0H291V310Q291 326 278 326Q260 326 238 316V0H30V479H219L225 448Q292 491 370 491T482 443Q550 491 627 491Z" />
<glyph unicode="n" glyph-name="n" horiz-adv-x="532" d="M362 491Q502 491 502 355V0H291V310Q291 326 275 326T238 316V0H30V479H219L225 448Q288 491 362 491Z" />
<glyph unicode="o" glyph-name="o" horiz-adv-x="510" d="M15 373T73 432T256 491T438 433T495 243T440 50T258 -10T73 50T15 241ZM277 344T256 344T230 327T224 252V228Q224 164 229 146T256 127T282 145T288 223V251Q288 309 283 326Z" />
<glyph unicode="p" glyph-name="p" horiz-adv-x="522" d="M312 -10Q275 -10 238 4V-137H30V479H202L210 457Q257 491 323 491Q431 491 469 436T507 247T466 52T312 -10ZM289 132T294 154T299 233T293 313T267 337Q254 337 236 329V136Q254 132 268 132Q289 132 294 154Z" />
<glyph unicode="q" glyph-name="q" horiz-adv-x="526" d="M102 -10T59 53T15 239T63 426T203 491Q272 491 312 457L321 479H493V-137H285V8Q245 -10 207 -10Q102 -10 59 53ZM235 339T230 316T224 236T229 157T252 134T287 138V331Q267 339 255 339Q235 339 230 316Z" />
<glyph unicode="r" glyph-name="r" horiz-adv-x="378" d="M238 268V0H32V479H210L216 447H220Q244 469 275 477T366 486L360 320H292Q262 320 250 309T238 268Z" />
<glyph unicode="s" glyph-name="s" horiz-adv-x="403" d="M397 149Q397 -10 212 -10Q116 -10 26 11L39 158Q164 128 205 128Q219 128 219 137T203 152Q100 187 53 226T6 338T57 451T196 491T389 471L368 320Q236 346 208 346Q195 346 195 336Q195 328 212 322Q295
295 332 269T383 214T397 149Z" />
<glyph unicode="t" glyph-name="t" horiz-adv-x="366" d="M205 -10Q127 -10 91 19T54 121V338H1V473H64L77 562H262V473H353V338H261V153Q261 140 273 140Q274 140 352 144L346 0Q246 -10 205 -10Z" />
<glyph unicode="u" glyph-name="u" horiz-adv-x="539" d="M172 -10Q30 -10 30 126V479H240V165Q240 149 254 149T293 159V479H502V2H302V27H296Q238 -10 172 -10Z" />
<glyph unicode="v" glyph-name="v" horiz-adv-x="496" d="M500 479L385 0H104L-12 479H205L245 223H252L296 479H500Z" />
<glyph unicode="w" glyph-name="w" horiz-adv-x="668" d="M655 479L585 0H362L328 164H323L291 0H72L2 479H196L214 266H220L248 479H415L441 266H448L468 479H655Z" />
<glyph unicode="x" glyph-name="x" horiz-adv-x="496" d="M255 356L279 479H493L395 236L496 0H275L247 119H241L215 0H0L100 231Q95 243 58 338T1 479H228L249 356H255Z" />
<glyph unicode="y" glyph-name="y" horiz-adv-x="503" d="M258 220Q304 473 305 479H511L372 -8Q351 -82 308 -109T165 -137H45L22 6H102Q128 6 128 23Q128 34 123 51L-8 479H212L254 220H258Z" />
<glyph unicode="z" glyph-name="z" horiz-adv-x="446" d="M434 0H15L10 113L167 322H5V479H424L430 374L277 149H434V0Z" />
<glyph unicode="{" glyph-name="braceleft" horiz-adv-x="394" d="M350 -137H217Q139 -137 106 -107T72 -4V154Q72 175 62 179T12 183V322Q52 322 62 326T72 350V490Q72 568 104 599T217 631H350V487H274V329Q274 295 265 281T232 254V248Q254 237 264 221T274
174V2H350V-137Z" />
<glyph unicode="|" glyph-name="bar" horiz-adv-x="377" d="M287 -142H90V616H287V-142Z" />
<glyph unicode="}" glyph-name="braceright" horiz-adv-x="394" d="M177 -137H44V2H120V174Q120 205 130 221T162 248V254Q138 267 129 281T120 329V487H44V631H177Q257 631 289 600T322 490V350Q322 330 331 326T382 322V183Q343 183 333 179T322 154V-4Q322
-76 289 -106T177 -137Z" />
<glyph unicode="~" glyph-name="asciitilde" horiz-adv-x="500" d="M433 657V645Q433 579 412 544T326 509Q289 509 215 535V503H82V516Q82 583 104 617T184 652Q214 652 300 626V657H433Z" />
<glyph unicode="&#xa0;" glyph-name="nbspace" horiz-adv-x="190" />
<glyph unicode="&#xa1;" glyph-name="exclamdown" horiz-adv-x="330" d="M236 308L248 -137H48L63 308H236ZM201 494T223 475T245 414T224 354T147 334T71 353T50 414T71 474T147 494Z" />
<glyph unicode="&#xa2;" glyph-name="cent" d="M246 334T238 310T229 236T237 164T275 141T370 154L392 15Q351 3 307 -5V-82H140V9Q20 61 20 231Q20 314 50 376T140 468V572H307V487Q350 482 400 464L379 306Q301 334 274 334Z" />
<glyph unicode="&#xa3;" glyph-name="sterling" horiz-adv-x="601" d="M322 631Q401 631 521 601L493 429Q385 456 377 456T368 448T386 384H491L479 272H401V220Q401 161 383 124Q417 111 420 110V185H599Q599 72 563 18T433 -36Q385 -36 353 -28T276 2H272Q217
-22 153 -22T45 10T2 106T36 201T131 233Q158 233 192 225V272H94V384H159Q135 434 135 482Q135 631 322 631ZM192 94Q173 116 156 116T139 98T159 79T192 94Z" />
<glyph unicode="&#xa4;" glyph-name="currency" horiz-adv-x="779" d="M84 76L54 126L178 198Q161 252 161 301T173 395L48 468L79 521L199 452Q268 542 393 542T587 454L701 521L731 468L614 400Q627 355 627 305T607 197L727 126L695 75L575 146Q506 72 390
72T206 148Q163 124 84 76ZM391 122Q565 122 565 306Q565 394 522 442T391 490Q219 490 219 305Q219 214 264 168T391 122Z" />
<glyph unicode="&#xa5;" glyph-name="yen" horiz-adv-x="536" d="M536 621L421 324H479V215H378L372 196H479V89H372V0H159V89H50V196H159L153 215H50V324H111L0 621H225L269 393H275L317 621H536Z" />
<glyph unicode="&#xa6;" glyph-name="brokenbar" horiz-adv-x="377" d="M287 -142H90V177H287V-142ZM287 616V325H90V616H287Z" />
<glyph unicode="&#xa7;" glyph-name="section" horiz-adv-x="495" d="M187 313Q187 278 210 259T309 200Q309 232 285 253T187 313ZM467 248Q467 165 417 99Q428 73 428 32Q428 -53 377 -100T226 -147Q152 -147 45 -128L59 40Q175 13 226 13Q243 13 243 33T189
79T84 146Q60 166 44 199T28 272Q28 350 80 407Q66 435 66 466Q66 550 123 595T273 641Q342 641 439 625L411 462Q316 481 272 481Q259 481 259 469Q259 453 312 432T413 372Q436 352 451 320T467 248Z" />
<glyph unicode="&#xa8;" glyph-name="dieresis" horiz-adv-x="500" d="M82 576Q82 608 102 624T157 641Q237 641 237 576Q237 542 218 526T157 510Q82 510 82 576ZM268 576Q268 608 288 624T343 641Q423 641 423 576Q423 542 404 526T343 510Q268 510 268 576Z" />
<glyph unicode="&#xa9;" glyph-name="copyright" horiz-adv-x="979" d="M474 166T487 141T534 116T630 131L649 14Q572 -10 503 -10Q307 -10 307 223Q307 340 356 402T515 464Q583 464 649 438L629 307Q561 326 530 326T487 302T474 222ZM766 382T708 442T506
502T301 440T239 232T297 25T502 -38T707 23T766 233ZM48 440T160 546T499 652T838 544T951 231T840 -77T496 -181T156 -78T48 233Z" />
<glyph unicode="&#xaa;" glyph-name="ordfeminine" d="M351 540L347 400Q347 384 380 384L367 291Q336 288 310 288Q260 288 236 315H231Q197 288 147 288T71 315T44 395T83 471T209 501V513Q209 526 196 526Q161 526 73 504L51 615Q152 639 224 639T323 615T351
540ZM193 378Q213 378 213 399V426Q177 420 177 399T193 378Z" />
<glyph unicode="&#xab;" glyph-name="guillemotleft" horiz-adv-x="585" d="M4 205V271L208 482L316 413L200 242L319 71L202 -1L4 205ZM250 205V271L454 482L562 413L446 242L565 71L448 -1L250 205Z" />
<glyph unicode="&#xac;" glyph-name="logicalnot" horiz-adv-x="488" d="M265 104V209H32V371H444V104H265Z" />
<glyph unicode="&#xae;" glyph-name="registered" horiz-adv-x="999" d="M48 440T160 546T499 652T838 544T951 231T840 -77T496 -181T156 -78T48 233ZM696 312Q696 267 684 241T644 195L702 19Q770 80 770 230T708 441T500 502T289 439T223 232T287 26T482 -38T679
2H537L495 160H480V2H328V460H529Q614 460 655 424T696 312ZM532 296Q532 339 501 339H477V249H501Q517 249 524 259T532 296Z" />
<glyph unicode="&#xaf;" glyph-name="overscore" horiz-adv-x="500" d="M413 521H98V642H413V521Z" />
<glyph unicode="&#xb0;" glyph-name="degree" horiz-adv-x="344" d="M243 626T275 595T308 498T276 401T170 370T64 400T31 496T64 594T170 626ZM188 497Q188 513 184 519T168 525Q148 525 148 497T168 468T188 497Z" />
<glyph unicode="&#xb1;" glyph-name="plusminus" horiz-adv-x="476" d="M157 181V276H32V438H157V555H319V438H444V276H319V181H157ZM444 0H32V152H444V0Z" />
<glyph unicode="&#xb2;" glyph-name="twosuperior" horiz-adv-x="396" d="M37 599Q118 631 196 631T312 596T351 500T328 398T250 300V297H352V189H54L47 265Q73 291 89 306T120 336T142 359T160 381Q199 427 199 462T166 497Q138 497 60 477L37 599Z" />
<glyph unicode="&#xb3;" glyph-name="threesuperior" horiz-adv-x="405" d="M47 595Q122 631 199 631T317 599T358 508Q358 476 346 456T306 419V416Q364 390 364 321Q364 182 199 182Q133 182 57 211L87 319Q165 296 183 296Q211 296 211 326T178 357H117V455H178Q201
455 201 483T173 511Q156 511 78 485L47 595Z" />
<glyph unicode="&#xb4;" glyph-name="acute" horiz-adv-x="500" d="M451 647L312 517H173L237 647H451Z" />
<glyph unicode="&#xb5;" glyph-name="mu" horiz-adv-x="559" d="M32 -137V479H242V173Q242 149 268 149T295 173V479H504V150Q504 137 513 132T547 127L529 -6Q477 -10 443 -10Q363 -10 322 31H318Q289 -10 235 -10V-137H32Z" />
<glyph unicode="&#xb6;" glyph-name="paragraph" horiz-adv-x="657" d="M584 -137H416V478H392V-137H223V187Q126 190 71 245T16 405T84 569T272 629H584V-137Z" />
<glyph unicode="&#xb7;" glyph-name="middot" horiz-adv-x="394" d="M84 305Q84 396 201 396Q261 396 289 375T317 304T290 235T202 214T113 235T84 305Z" />
<glyph unicode="&#xb8;" glyph-name="cedilla" horiz-adv-x="500" d="M378 -94Q378 -168 269 -168Q204 -168 160 -138L197 -67Q243 -98 267 -98Q274 -98 274 -92Q274 -88 261 -81L235 -69Q212 -56 212 -37T234 0H323Q308 -15 308 -21Q308 -24 325 -31T360 -53T378 -94Z" />
<glyph unicode="&#xb9;" glyph-name="onesuperior" horiz-adv-x="306" d="M238 186H93V502H44V581L121 621H238V186Z" />
<glyph unicode="&#xba;" glyph-name="ordmasculine" horiz-adv-x="424" d="M43 556T84 597T212 639T339 599T379 466T340 331T213 288T84 330T43 464ZM235 511T231 523T213 536T194 524T190 471V455Q190 410 194 397T212 384T231 397T235 451V471Q235 511 231 523Z" />
<glyph unicode="&#xbb;" glyph-name="guillemotright" horiz-adv-x="585" d="M581 276V210L377 -1L269 68L385 239L266 410L383 482L581 276ZM335 276V210L131 -1L23 68L139 239L20 410L137 482L335 276Z" />
<glyph unicode="&#xbc;" glyph-name="onequarter" horiz-adv-x="919" d="M574 621L375 0H228L426 621H574ZM238 186H93V502H44V581L121 621H238V186ZM871 82H824V0H679V82H510L499 168L651 431H824V184H877L871 82ZM683 181V272H680L631 181H683Z" />
<glyph unicode="&#xbd;" glyph-name="onehalf" horiz-adv-x="896" d="M574 621L375 0H228L426 621H574ZM238 186H93V502H44V581L121 621H238V186ZM537 410Q618 442 696 442T812 407T851 311T828 209T750 111V108H852V0H554L547 76Q573 102 589 117T620 147T642
170T660 192Q699 238 699 273T666 308Q638 308 560 288L537 410Z" />
<glyph unicode="&#xbe;" glyph-name="threequarters" horiz-adv-x="981" d="M649 621L450 0H303L501 621H649ZM47 595Q122 631 199 631T317 599T358 508Q358 476 346 456T306 419V416Q364 390 364 321Q364 182 199 182Q133 182 57 211L87 319Q165 296 183 296Q211
296 211 326T178 357H117V455H178Q201 455 201 483T173 511Q156 511 78 485L47 595ZM933 82H886V0H741V82H572L561 168L713 431H886V184H939L933 82ZM745 181V272H742L693 181H745Z" />
<glyph unicode="&#xbf;" glyph-name="questiondown" horiz-adv-x="395" d="M12 35Q12 118 52 162Q74 186 96 201T153 235V303H320V192Q320 160 307 140T262 107T220 83T208 56Q208 27 242 27Q262 27 371 48V-126Q277 -147 203 -147Q12 -147 12 35ZM290 489T312
470T334 409T313 349T236 329T160 348T139 409T160 469T236 489Z" />
<glyph unicode="&#xc0;" glyph-name="Agrave" horiz-adv-x="563" d="M563 0H353L333 96H222L201 0H0L129 621H434L563 0ZM318 225L280 433H276L237 225H318ZM240 651L119 775H310L375 651H240Z" />
<glyph unicode="&#xc1;" glyph-name="Aacute" horiz-adv-x="563" d="M563 0H353L333 96H222L201 0H0L129 621H434L563 0ZM318 225L280 433H276L237 225H318ZM449 785L317 661H185L246 785H449Z" />
<glyph unicode="&#xc2;" glyph-name="Acircumflex" horiz-adv-x="563" d="M563 0H353L333 96H222L201 0H0L129 621H434L563 0ZM318 225L280 433H276L237 225H318ZM363 780L437 655H313L279 705L245 655H120L194 780H363Z" />
<glyph unicode="&#xc3;" glyph-name="Atilde" horiz-adv-x="563" d="M563 0H353L333 96H222L201 0H0L129 621H434L563 0ZM318 225L280 433H276L237 225H318ZM443 784V773Q443 710 423 677T342 644Q308 644 236 668V638H110V650Q110 714 131 746T207 779Q235 779
317 755V784H443Z" />
<glyph unicode="&#xc4;" glyph-name="Adieresis" horiz-adv-x="563" d="M563 0H353L333 96H222L201 0H0L129 621H434L563 0ZM318 225L280 433H276L237 225H318ZM117 644T117 706T190 769T264 707T191 644ZM294 644T294 706T367 769T441 707T368 644Z" />
<glyph unicode="&#xc5;" glyph-name="Aring" horiz-adv-x="563" d="M180 644Q180 724 277 724T375 649Q375 632 371 621H434L563 0H353L333 96H222L201 0H0L129 621H183Q180 632 180 644ZM315 225L281 409H277L242 225H315ZM296 672T277 672T258 647T273 621H280Q296
622 296 647Z" />
<glyph unicode="&#xc6;" glyph-name="AE" horiz-adv-x="764" d="M739 0H343V96H236L203 0H-5L215 621H753L739 456H557V381H716V237H557V152H753L739 0ZM343 225V433H339L272 225H343Z" />
<glyph unicode="&#xc7;" glyph-name="Ccedilla" horiz-adv-x="470" d="M443 419Q344 448 308 448T254 414T237 303T254 193T311 158T444 180L476 21Q392 -5 316 -9Q310 -15 310 -21Q310 -24 327 -31T362 -53T380 -94Q380 -168 271 -168Q206 -168 162 -138L199
-67Q245 -98 269 -98Q276 -98 276 -92Q276 -88 263 -81L237 -69Q214 -56 214 -37T228 -6Q120 10 71 88T21 315T87 547T302 631Q389 631 476 597L443 419Z" />
<glyph unicode="&#xc8;" glyph-name="Egrave" horiz-adv-x="461" d="M436 0H40V621H450L436 456H254V381H413V237H254V152H450L436 0ZM206 651L85 775H276L341 651H206Z" />
<glyph unicode="&#xc9;" glyph-name="Eacute" horiz-adv-x="461" d="M436 0H40V621H450L436 456H254V381H413V237H254V152H450L436 0ZM425 775L293 651H161L222 775H425Z" />
<glyph unicode="&#xca;" glyph-name="Ecircumflex" horiz-adv-x="461" d="M436 0H40V621H450L436 456H254V381H413V237H254V152H450L436 0ZM332 770L406 645H282L248 695L214 645H89L163 770H332Z" />
<glyph unicode="&#xcb;" glyph-name="Edieresis" horiz-adv-x="461" d="M436 0H40V621H450L436 456H254V381H413V237H254V152H450L436 0ZM84 644T84 706T157 769T231 707T158 644ZM261 644T261 706T334 769T408 707T335 644Z" />
<glyph unicode="&#xcc;" glyph-name="Igrave" horiz-adv-x="303" d="M257 0H46V621H257V0ZM113 661L-8 785H183L248 661H113Z" />
<glyph unicode="&#xcd;" glyph-name="Iacute" horiz-adv-x="303" d="M258 0H47V621H258V0ZM326 785L194 661H62L123 785H326Z" />
<glyph unicode="&#xce;" glyph-name="Icircumflex" horiz-adv-x="303" d="M259 0H48V621H259V0ZM241 780L315 655H191L157 705L123 655H-2L72 780H241Z" />
<glyph unicode="&#xcf;" glyph-name="Idieresis" horiz-adv-x="303" d="M261 0H50V621H261V0ZM-7 654T-7 716T66 779T140 717T67 654ZM170 654T170 716T243 779T317 717T244 654Z" />
<glyph unicode="&#xd0;" glyph-name="Eth" horiz-adv-x="599" d="M577 324Q577 0 281 0H40V235H-9V373H40V621H286Q445 621 511 545T577 324ZM298 235H253V156H278Q329 156 344 191T359 307T343 423T274 458H253V373H298V235Z" />
<glyph unicode="&#xd1;" glyph-name="Ntilde" horiz-adv-x="607" d="M567 0H363L237 245H230V0H40V621H251L369 368H375V621H567V0ZM469 784V773Q469 710 449 677T368 644Q334 644 262 668V638H136V650Q136 714 157 746T233 779Q261 779 343 755V784H469Z" />
<glyph unicode="&#xd2;" glyph-name="Ograve" horiz-adv-x="609" d="M20 481T86 556T305 631T523 557T589 317T522 70T304 -10T87 69T20 314ZM348 459T305 459T250 434T238 327V283Q238 199 251 174T308 149T363 173T374 280V326Q374 408 361 433ZM245 661L124
785H315L380 661H245Z" />
<glyph unicode="&#xd3;" glyph-name="Oacute" horiz-adv-x="609" d="M20 481T86 556T305 631T523 557T589 317T522 70T304 -10T87 69T20 314ZM348 459T305 459T250 434T238 327V283Q238 199 251 174T308 149T363 173T374 280V326Q374 408 361 433ZM489 785L357
661H225L286 785H489Z" />
<glyph unicode="&#xd4;" glyph-name="Ocircumflex" horiz-adv-x="609" d="M20 481T86 556T305 631T523 557T589 317T522 70T304 -10T87 69T20 314ZM348 459T305 459T250 434T238 327V283Q238 199 251 174T308 149T363 173T374 280V326Q374 408 361 433ZM389 780L463
655H339L305 705L271 655H146L220 780H389Z" />
<glyph unicode="&#xd5;" glyph-name="Otilde" horiz-adv-x="609" d="M20 481T86 556T305 631T523 557T589 317T522 70T304 -10T87 69T20 314ZM348 459T305 459T250 434T238 327V283Q238 199 251 174T308 149T363 173T374 280V326Q374 408 361 433ZM462 794V783Q462
720 442 687T361 654Q327 654 255 678V648H129V660Q129 724 150 756T226 789Q254 789 336 765V794H462Z" />
<glyph unicode="&#xd6;" glyph-name="Odieresis" horiz-adv-x="609" d="M20 481T86 556T305 631T523 557T589 317T522 70T304 -10T87 69T20 314ZM348 459T305 459T250 434T238 327V283Q238 199 251 174T308 149T363 173T374 280V326Q374 408 361 433ZM141 644T141
706T214 769T288 707T215 644ZM318 644T318 706T391 769T465 707T392 644Z" />
<glyph unicode="&#xd7;" glyph-name="multiply" horiz-adv-x="470" d="M32 202L120 290L32 378L147 493L235 405L323 493L438 378L350 290L438 202L323 87L235 175L147 87L32 202Z" />
<glyph unicode="&#xd8;" glyph-name="Oslash" horiz-adv-x="609" d="M302 -10L272 -9L245 -69H33L92 62Q20 138 20 309T86 556T306 631Q321 631 349 629L373 681H582L525 555Q589 482 589 316T522 70T302 -10ZM348 459T305 459T250 434T238 327V283Q238 199 251
174T308 149T363 173T374 280V326Q374 408 361 433Z" />
<glyph unicode="&#xd9;" glyph-name="Ugrave" horiz-adv-x="601" d="M254 220Q254 166 302 166T351 221V621H565V208Q565 98 496 44T298 -10Q36 -10 36 206V621H254V220ZM245 651L124 775H315L380 651H245Z" />
<glyph unicode="&#xda;" glyph-name="Uacute" horiz-adv-x="601" d="M254 220Q254 166 302 166T351 221V621H565V208Q565 98 496 44T298 -10Q36 -10 36 206V621H254V220ZM500 775L368 651H236L297 775H500Z" />
<glyph unicode="&#xdb;" glyph-name="Ucircumflex" horiz-adv-x="601" d="M254 220Q254 166 302 166T351 221V621H565V208Q565 98 496 44T298 -10Q36 -10 36 206V621H254V220ZM385 770L459 645H335L301 695L267 645H142L216 770H385Z" />
<glyph unicode="&#xdc;" glyph-name="Udieresis" horiz-adv-x="601" d="M254 220Q254 166 302 166T351 221V621H565V208Q565 98 496 44T298 -10Q36 -10 36 206V621H254V220ZM139 644T139 706T212 769T286 707T213 644ZM316 644T316 706T389 769T463 707T390 644Z" />
<glyph unicode="&#xdd;" glyph-name="Yacute" horiz-adv-x="536" d="M536 621L372 197V0H159V198L0 621H225L269 393H275L317 621H536ZM465 775L333 651H201L262 775H465Z" />
<glyph unicode="&#xde;" glyph-name="Thorn" horiz-adv-x="516" d="M280 114H250V0H40V621H250V541H269Q392 541 448 491T504 326T450 163T280 114ZM299 278T299 316T290 370T254 386H246V246H259Q282 246 290 262Z" />
<glyph unicode="&#xdf;" glyph-name="germandbls" horiz-adv-x="567" d="M259 459V0H49V330H1V465H49V473Q49 649 291 649Q415 649 476 601T538 463Q538 416 525 389T477 339V334Q561 296 561 186Q561 -6 365 -6Q326 -6 277 0V145Q292 144 305 144Q351 144 351
191Q351 221 333 233T277 246V383Q330 383 330 435T288 488Q259 488 259 459Z" />
<glyph unicode="&#xe0;" glyph-name="agrave" horiz-adv-x="501" d="M453 350L447 150Q447 136 457 132T495 127L476 -6Q416 -10 395 -10Q322 -10 289 29H282Q234 -10 162 -10T52 28T14 135Q14 219 70 252T250 294V312Q250 330 231 330Q180 330 56 299L25 457Q168
491 271 491T413 457T453 350ZM227 119Q256 119 256 149V187Q204 180 204 147Q204 119 227 119ZM219 517L92 647H293L361 517H219Z" />
<glyph unicode="&#xe1;" glyph-name="aacute" horiz-adv-x="501" d="M453 350L447 150Q447 136 457 132T495 127L476 -6Q416 -10 395 -10Q322 -10 289 29H282Q234 -10 162 -10T52 28T14 135Q14 219 70 252T250 294V312Q250 330 231 330Q180 330 56 299L25 457Q168
491 271 491T413 457T453 350ZM227 119Q256 119 256 149V187Q204 180 204 147Q204 119 227 119ZM455 647L316 517H177L241 647H455Z" />
<glyph unicode="&#xe2;" glyph-name="acircumflex" horiz-adv-x="501" d="M453 350L447 150Q447 136 457 132T495 127L476 -6Q416 -10 395 -10Q322 -10 289 29H282Q234 -10 162 -10T52 28T14 135Q14 219 70 252T250 294V312Q250 330 231 330Q180 330 56 299L25
457Q168 491 271 491T413 457T453 350ZM227 119Q256 119 256 149V187Q204 180 204 147Q204 119 227 119ZM335 642L413 511H282L247 563L211 511H79L157 642H335Z" />
<glyph unicode="&#xe3;" glyph-name="atilde" horiz-adv-x="501" d="M453 350L447 150Q447 136 457 132T495 127L476 -6Q416 -10 395 -10Q322 -10 289 29H282Q234 -10 162 -10T52 28T14 135Q14 219 70 252T250 294V312Q250 330 231 330Q180 330 56 299L25 457Q168
491 271 491T413 457T453 350ZM227 119Q256 119 256 149V187Q204 180 204 147Q204 119 227 119ZM417 657V645Q417 579 396 544T310 509Q273 509 199 535V503H66V516Q66 583 88 617T168 652Q198 652 284 626V657H417Z" />
<glyph unicode="&#xe4;" glyph-name="adieresis" horiz-adv-x="501" d="M453 350L447 150Q447 136 457 132T495 127L476 -6Q416 -10 395 -10Q322 -10 289 29H282Q234 -10 162 -10T52 28T14 135Q14 219 70 252T250 294V312Q250 330 231 330Q180 330 56 299L25 457Q168
491 271 491T413 457T453 350ZM227 119Q256 119 256 149V187Q204 180 204 147Q204 119 227 119ZM73 576Q73 608 93 624T148 641Q228 641 228 576Q228 542 209 526T148 510Q73 510 73 576ZM259 576Q259 608 279 624T334 641Q414 641 414 576Q414 542 395 526T334
510Q259 510 259 576Z" />
<glyph unicode="&#xe5;" glyph-name="aring" horiz-adv-x="501" d="M453 350L447 150Q447 136 457 132T495 127L476 -6Q416 -10 395 -10Q322 -10 289 29H282Q234 -10 162 -10T52 28T14 135Q14 219 70 252T250 294V312Q250 330 231 330Q180 330 56 299L25 457Q168
491 271 491T413 457T453 350ZM227 119Q256 119 256 149V187Q204 180 204 147Q204 119 227 119ZM265 614T245 614T225 587T245 560T265 587ZM143 584Q143 668 245 668T348 589Q348 505 245 505Q195 505 169 526T143 584Z" />
<glyph unicode="&#xe6;" glyph-name="ae" horiz-adv-x="731" d="M491 491Q611 491 662 441T714 298Q714 267 706 186H455Q459 131 520 131Q568 131 673 153L690 18Q584 -10 488 -10T333 39Q258 -10 160 -10Q89 -10 52 28T14 135Q14 219 70 252T250 294V312Q250
330 231 330Q180 330 56 299L25 457Q168 491 280 491Q342 491 381 466Q424 491 491 491ZM227 119Q256 119 256 149V187Q204 180 204 147Q204 119 227 119ZM488 330Q451 330 451 277H523V292Q523 330 488 330Z" />
<glyph unicode="&#xe7;" glyph-name="ccedilla" horiz-adv-x="394" d="M239 491Q320 491 392 464L371 306Q293 334 266 334T230 310T221 236T229 164T267 141T362 154L384 15Q308 -8 253 -10Q248 -17 248 -20T265 -31T300 -53T318 -94Q318 -168 209 -168Q144 -168
100 -138L137 -67Q183 -98 207 -98Q214 -98 214 -92Q214 -88 201 -81L175 -69Q152 -56 152 -37T170 -3Q92 15 52 76T12 231Q12 348 70 419T239 491Z" />
<glyph unicode="&#xe8;" glyph-name="egrave" horiz-adv-x="498" d="M255 330Q234 330 226 317T218 277H290V293Q290 330 255 330ZM12 360T74 425T258 491T430 441T481 298Q481 261 473 186H222Q226 132 288 132Q317 132 440 153L457 18Q351 -10 259 -10Q139 -10
76 56T12 241ZM223 517L96 647H297L365 517H223Z" />
<glyph unicode="&#xe9;" glyph-name="eacute" horiz-adv-x="498" d="M255 330Q234 330 226 317T218 277H290V293Q290 330 255 330ZM12 360T74 425T258 491T430 441T481 298Q481 261 473 186H222Q226 132 288 132Q317 132 440 153L457 18Q351 -10 259 -10Q139 -10
76 56T12 241ZM455 647L316 517H177L241 647H455Z" />
<glyph unicode="&#xea;" glyph-name="ecircumflex" horiz-adv-x="498" d="M255 330Q234 330 226 317T218 277H290V293Q290 330 255 330ZM12 360T74 425T258 491T430 441T481 298Q481 261 473 186H222Q226 132 288 132Q317 132 440 153L457 18Q351 -10 259 -10Q139
-10 76 56T12 241ZM345 642L423 511H292L257 563L221 511H89L167 642H345Z" />
<glyph unicode="&#xeb;" glyph-name="edieresis" horiz-adv-x="498" d="M255 330Q234 330 226 317T218 277H290V293Q290 330 255 330ZM12 360T74 425T258 491T430 441T481 298Q481 261 473 186H222Q226 132 288 132Q317 132 440 153L457 18Q351 -10 259 -10Q139
-10 76 56T12 241ZM86 576Q86 608 106 624T161 641Q241 641 241 576Q241 542 222 526T161 510Q86 510 86 576ZM272 576Q272 608 292 624T347 641Q427 641 427 576Q427 542 408 526T347 510Q272 510 272 576Z" />
<glyph unicode="&#xec;" glyph-name="igrave" horiz-adv-x="280" d="M245 0H37V469H245V0ZM97 517L-30 647H171L239 517H97Z" />
<glyph unicode="&#xed;" glyph-name="iacute" horiz-adv-x="280" d="M246 0H38V469H246V0ZM319 647L180 517H41L105 647H319Z" />
<glyph unicode="&#xee;" glyph-name="icircumflex" horiz-adv-x="280" d="M246 0H38V469H246V0ZM230 642L308 511H177L142 563L106 511H-26L52 642H230Z" />
<glyph unicode="&#xef;" glyph-name="idieresis" horiz-adv-x="280" d="M245 0H37V469H245V0ZM-28 576Q-28 608 -8 624T47 641Q127 641 127 576Q127 542 108 526T47 510Q-28 510 -28 576ZM158 576Q158 608 178 624T233 641Q313 641 313 576Q313 542 294 526T233
510Q158 510 158 576Z" />
<glyph unicode="&#xf0;" glyph-name="eth" horiz-adv-x="521" d="M215 400Q253 400 276 396L280 400Q267 430 240 447L124 394V491L139 500V504Q117 508 65 508V655Q202 655 302 621L413 671V554L395 543Q506 446 506 265Q506 134 444 62T259 -10T76 41T15 208Q15
302 66 351T215 400ZM295 249T289 266T262 283T234 261T227 197T233 137T261 120T288 141T295 206Z" />
<glyph unicode="&#xf1;" glyph-name="ntilde" horiz-adv-x="539" d="M362 491Q502 491 502 355V0H291V310Q291 326 275 326T238 316V0H30V479H219L225 448Q288 491 362 491ZM437 657V645Q437 579 416 544T330 509Q293 509 219 535V503H86V516Q86 583 108 617T188
652Q218 652 304 626V657H437Z" />
<glyph unicode="&#xf2;" glyph-name="ograve" horiz-adv-x="504" d="M12 373T70 432T253 491T435 433T492 243T437 50T255 -10T70 50T12 241ZM274 344T253 344T227 327T221 252V228Q221 164 226 146T253 127T279 145T285 223V251Q285 309 280 326ZM218 517L91
647H292L360 517H218Z" />
<glyph unicode="&#xf3;" glyph-name="oacute" horiz-adv-x="504" d="M12 373T70 432T253 491T435 433T492 243T437 50T255 -10T70 50T12 241ZM274 344T253 344T227 327T221 252V228Q221 164 226 146T253 127T279 145T285 223V251Q285 309 280 326ZM445 647L306
517H167L231 647H445Z" />
<glyph unicode="&#xf4;" glyph-name="ocircumflex" horiz-adv-x="504" d="M12 373T70 432T253 491T435 433T492 243T437 50T255 -10T70 50T12 241ZM274 344T253 344T227 327T221 252V228Q221 164 226 146T253 127T279 145T285 223V251Q285 309 280 326ZM342 642L420
511H289L254 563L218 511H86L164 642H342Z" />
<glyph unicode="&#xf5;" glyph-name="otilde" horiz-adv-x="504" d="M12 373T70 432T253 491T435 433T492 243T437 50T255 -10T70 50T12 241ZM274 344T253 344T227 327T221 252V228Q221 164 226 146T253 127T279 145T285 223V251Q285 309 280 326ZM423 657V645Q423
579 402 544T316 509Q279 509 205 535V503H72V516Q72 583 94 617T174 652Q204 652 290 626V657H423Z" />
<glyph unicode="&#xf6;" glyph-name="odieresis" horiz-adv-x="504" d="M12 373T70 432T253 491T435 433T492 243T437 50T255 -10T70 50T12 241ZM274 344T253 344T227 327T221 252V228Q221 164 226 146T253 127T279 145T285 223V251Q285 309 280 326ZM82 576Q82
608 102 624T157 641Q237 641 237 576Q237 542 218 526T157 510Q82 510 82 576ZM268 576Q268 608 288 624T343 641Q423 641 423 576Q423 542 404 526T343 510Q268 510 268 576Z" />
<glyph unicode="&#xf7;" glyph-name="divide" horiz-adv-x="476" d="M188 11T166 30T144 91T165 151T242 171T318 152T339 91T318 31T242 11ZM188 409T166 428T144 489T165 549T242 569T318 550T339 489T318 429T242 409ZM444 209H32V371H444V209Z" />
<glyph unicode="&#xf8;" glyph-name="oslash" horiz-adv-x="510" d="M258 491Q277 491 287 490L313 548H482L433 438Q495 379 495 245T440 50T258 -10Q241 -10 233 -9L206 -69H34L83 40Q15 98 15 235T73 432T258 491ZM277 344T256 344T230 327T224 252V228Q224
164 229 146T256 127T282 145T288 223V251Q288 309 283 326Z" />
<glyph unicode="&#xf9;" glyph-name="ugrave" horiz-adv-x="539" d="M172 -10Q30 -10 30 126V479H240V165Q240 149 254 149T293 159V479H502V2H302V27H296Q238 -10 172 -10ZM217 517L90 647H291L359 517H217Z" />
<glyph unicode="&#xfa;" glyph-name="uacute" horiz-adv-x="539" d="M172 -10Q30 -10 30 126V479H240V165Q240 149 254 149T293 159V479H502V2H302V27H296Q238 -10 172 -10ZM475 647L336 517H197L261 647H475Z" />
<glyph unicode="&#xfb;" glyph-name="ucircumflex" horiz-adv-x="539" d="M172 -10Q30 -10 30 126V479H240V165Q240 149 254 149T293 159V479H502V2H302V27H296Q238 -10 172 -10ZM354 642L432 511H301L266 563L230 511H98L176 642H354Z" />
<glyph unicode="&#xfc;" glyph-name="udieresis" horiz-adv-x="539" d="M172 -10Q30 -10 30 126V479H240V165Q240 149 254 149T293 159V479H502V2H302V27H296Q238 -10 172 -10ZM94 576Q94 608 114 624T169 641Q249 641 249 576Q249 542 230 526T169 510Q94 510
94 576ZM280 576Q280 608 300 624T355 641Q435 641 435 576Q435 542 416 526T355 510Q280 510 280 576Z" />
<glyph unicode="&#xfd;" glyph-name="yacute" horiz-adv-x="519" d="M266 220Q312 473 313 479H519L380 -8Q359 -82 316 -109T173 -137H53L30 6H110Q136 6 136 23Q136 34 131 51L0 479H220L262 220H266ZM469 647L330 517H191L255 647H469Z" />
<glyph unicode="&#xfe;" glyph-name="thorn" horiz-adv-x="519" d="M312 -10Q275 -10 238 4V-137H30V641H231V470Q271 491 323 491Q431 491 469 436T507 247T466 52T312 -10ZM289 132T294 154T299 233T293 313T267 337Q254 337 236 329V136Q254 132 268 132Q289
132 294 154Z" />
<glyph unicode="&#xff;" glyph-name="ydieresis" horiz-adv-x="519" d="M266 220Q312 473 313 479H519L380 -8Q359 -82 316 -109T173 -137H53L30 6H110Q136 6 136 23Q136 34 131 51L0 479H220L262 220H266ZM87 576Q87 608 107 624T162 641Q242 641 242 576Q242
542 223 526T162 510Q87 510 87 576ZM273 576Q273 608 293 624T348 641Q428 641 428 576Q428 542 409 526T348 510Q273 510 273 576Z" />
<glyph unicode="&#x2013;" glyph-name="endash" horiz-adv-x="407" d="M32 167V329H375V167H32Z" />
<glyph unicode="&#x2014;" glyph-name="emdash" horiz-adv-x="600" d="M32 167V329H568V167H32Z" />
<glyph unicode="&#x2018;" glyph-name="quoteleft" horiz-adv-x="270" d="M227 431T202 412T124 392T47 415T24 490T56 581T147 655L234 642L165 549Q198 542 212 526T227 471Z" />
<glyph unicode="&#x2019;" glyph-name="quoteright" horiz-adv-x="270" d="M43 616T68 635T146 655T223 633T246 557T214 466T123 392L36 405L105 498Q72 505 58 521T43 576Z" />
<glyph unicode="&#x201a;" glyph-name="quotesinglbase" horiz-adv-x="270" d="M31 109T56 128T134 148T211 125T234 50T202 -41T111 -115L24 -102L93 -9Q60 -2 46 14T31 69Z" />
<glyph unicode="&#x201c;" glyph-name="quotedblleft" horiz-adv-x="488" d="M445 431T420 412T342 392T265 415T242 490T274 581T365 655L452 642L383 549Q416 542 430 526T445 471ZM227 431T202 412T124 392T47 415T24 490T56 581T147 655L234 642L165 549Q198
542 212 526T227 471Z" />
<glyph unicode="&#x201d;" glyph-name="quotedblright" horiz-adv-x="488" d="M43 616T68 635T146 655T223 633T246 557T214 466T123 392L36 405L105 498Q72 505 58 521T43 576ZM261 616T286 635T364 655T441 633T464 557T432 466T341 392L254 405L323 498Q290
505 276 521T261 576Z" />
<glyph unicode="&#x201e;" glyph-name="quotedblbase" horiz-adv-x="488" d="M31 109T56 128T134 148T211 125T234 50T202 -41T111 -115L24 -102L93 -9Q60 -2 46 14T31 69ZM249 109T274 128T352 148T429 125T452 50T420 -41T329 -115L242 -102L311 -9Q278 -2 264
14T249 69Z" />
<glyph unicode="&#x2022;" glyph-name="bullet" horiz-adv-x="413" d="M146 179T114 209T82 303T112 399T207 430T301 400T331 306Q331 179 209 179Q146 179 114 209Z" />
<glyph unicode="&#x2039;" glyph-name="guilsinglleft" horiz-adv-x="339" d="M4 205V271L208 482L316 413L200 242L319 71L202 -1L4 205Z" />
<glyph unicode="&#x203a;" glyph-name="guilsinglright" horiz-adv-x="339" d="M335 276V210L131 -1L23 68L139 239L20 410L137 482L335 276Z" />
</font>
</defs>
</svg>
