<?xml version="1.0" standalone="no"?>
<!DOCTYPE svg PUBLIC "-//W3C//DTD SVG 1.1//EN" "http://www.w3.org/Graphics/SVG/1.1/DTD/svg11.dtd">
<svg xmlns="http://www.w3.org/2000/svg">
<defs >
<font id="Habibi" horiz-adv-x="1202" ><font-face
    font-family="Habibi"
    units-per-em="2048"
    panose-1="2 0 0 0 0 0 0 0 0 0"
    ascent="2000"
    descent="-560"
    alphabetic="0" />
<glyph unicode=" " glyph-name="space" horiz-adv-x="686" />
<glyph unicode="!" glyph-name="exclam" horiz-adv-x="512" d="M243 1601Q284 1601 338 1592Q338 1184 326 1005Q292 519 288 389H210Q202 570 192 706L176 924Q156 1203 156 1592Q197 1601 243 1601ZM155 38T141 60T127 102T139 143T172 186Q217 233 255 233Q295
233 328 200Q385 143 385 103Q385 65 352 34Q294 -23 255 -23Q221 -23 188 7Z" />
<glyph unicode="&quot;" glyph-name="quotedbl" horiz-adv-x="853" d="M341 1508L312 1107H202L172 1508H341ZM681 1508L652 1107H542L512 1508H681Z" />
<glyph unicode="#" glyph-name="numbersign" horiz-adv-x="1540" d="M906 483H493L390 -23L275 0L374 483H126V589H394L470 953H196V1060H491L587 1531L704 1508L612 1060H1023L1120 1531L1236 1508L1144 1060H1414V953H1122L1047 589H1344V483H1026L922 -23L807
0L906 483ZM515 589H927L1003 953H590L515 589Z" />
<glyph unicode="$" glyph-name="dollar" horiz-adv-x="1196" d="M676 1519Q861 1498 987 1404L952 1140H867Q867 1279 813 1340Q755 1404 617 1404Q427 1404 362 1282Q341 1242 341 1199T346 1129T367 1078T409 1029T476 978Q549 929 689 859T903 735T1022 626Q1098
530 1098 393Q1098 167 856 46Q758 -3 649 -18V-182H544V-21Q362 -11 215 72Q147 108 97 153L139 438H226Q226 94 575 94Q717 94 812 166Q907 237 907 344Q907 448 840 518Q772 588 611 667T367 802T236 911Q153 1006 153 1147Q153 1307 277 1414Q393 1514 570
1524V1663H676V1519Z" />
<glyph unicode="%" glyph-name="percent" horiz-adv-x="1877" d="M1556 1594L1634 1526L338 40L258 108L1556 1594ZM177 1226Q177 1313 206 1388T282 1516Q380 1625 515 1625Q668 1625 762 1518Q856 1411 856 1249Q856 1069 751 950Q653 838 520 838Q369 838 272
948Q177 1057 177 1226ZM339 1418T326 1364T313 1246T324 1124T360 1020Q415 919 517 919Q612 919 667 997Q720 1072 720 1204Q720 1436 613 1514Q573 1544 519 1544T428 1521T365 1458ZM1021 386Q1021 473 1050 548T1126 676Q1224 785 1359 785Q1512 785 1606
678Q1700 571 1700 409Q1700 229 1595 110Q1497 -2 1364 -2Q1213 -2 1116 108Q1021 217 1021 386ZM1183 578T1170 524T1157 406T1168 284T1204 180Q1259 79 1361 79Q1456 79 1511 157Q1564 232 1564 364Q1564 596 1457 674Q1417 704 1363 704T1272 681T1209 618Z"
/>
<glyph unicode="&amp;" glyph-name="ampersand" horiz-adv-x="1366" d="M857 1079Q857 1344 634 1344Q536 1344 473 1281Q409 1217 409 1121Q409 1012 594 814L821 574Q991 400 1060 336T1187 228Q1311 136 1385 136T1522 177L1583 113Q1440 -23 1324 -23Q1246
-23 1167 29Q1129 54 1088 88L998 162Q823 -23 591 -23Q379 -23 253 78Q122 182 122 365Q122 508 214 616Q291 708 409 753Q233 958 233 1110Q233 1267 352 1364Q465 1456 629 1456Q768 1456 853 1428T973 1378L937 1079H857ZM483 678V676Q408 637 362 564T315
412T333 280T391 186Q477 94 638 94Q787 94 933 218Q858 286 784 361L483 678Z" />
<glyph unicode="&apos;" glyph-name="quotesingle" horiz-adv-x="512" d="M339 1508L310 1107H200L170 1508H339Z" />
<glyph unicode="(" glyph-name="parenleft" horiz-adv-x="853" d="M697 1603Q550 1463 448 1218Q333 940 333 577Q333 127 515 -242Q595 -404 697 -520L667 -560Q456 -391 317 -121Q156 190 156 577Q156 1058 411 1398Q524 1548 667 1644L697 1603Z" />
<glyph unicode=")" glyph-name="parenright" horiz-adv-x="853" d="M156 1603Q303 1463 405 1218Q520 940 520 577Q520 127 338 -242Q258 -404 156 -520L186 -560Q397 -391 536 -121Q697 190 697 577Q697 1058 442 1398Q329 1548 186 1644L156 1603Z" />
<glyph unicode="*" glyph-name="asterisk" horiz-adv-x="852" d="M722 1630L781 1526L513 1389L781 1253L722 1149L470 1314L484 1013H367L381 1314L129 1149L70 1253L336 1389L70 1526L129 1630L381 1463L367 1766H484L470 1463L722 1630Z" />
<glyph unicode="+" glyph-name="plus" horiz-adv-x="1362" d="M735 1288V813H1223V706H735V205H629V706H139V813H629V1288H735Z" />
<glyph unicode="," glyph-name="comma" horiz-adv-x="512" d="M266 -91Q274 -64 274 -35T256 10T216 40T176 66T158 99T170 140T200 184Q245 233 290 233Q329 233 360 201Q415 144 415 94T403 -8T370 -100Q335 -174 272 -235T128 -332L97 -278Q234 -208 266 -91Z" />
<glyph unicode="-" glyph-name="hyphen" horiz-adv-x="854" d="M175 660H680V530H174L175 660Z" />
<glyph unicode="." glyph-name="period" horiz-adv-x="512" d="M155 38T141 60T127 102T139 143T171 186Q216 233 255 233Q296 233 327 200Q384 142 384 103Q384 66 352 34Q295 -23 255 -23Q221 -23 188 7Z" />
<glyph unicode="/" glyph-name="slash" horiz-adv-x="1197" d="M1029 1672L1123 1627L168 -431L73 -389L1029 1672Z" />
<glyph unicode="0" glyph-name="zero" horiz-adv-x="1366" d="M236 186T193 277T150 460T172 621T231 750T320 858T430 942Q552 1013 671 1013T889 979T1060 882Q1215 745 1215 519Q1215 287 1048 129Q889 -23 687 -23Q464 -23 309 119Q236 186 193 277ZM318 517Q318
432 345 356T421 221Q528 94 685 94Q836 94 940 190Q1049 292 1049 459Q1049 635 951 760Q845 895 676 895Q520 895 420 792Q318 686 318 517Z" />
<glyph unicode="1" glyph-name="one" horiz-adv-x="855" d="M660 989V906L509 883V106L660 83V0H194V83L347 106V883L194 906V989H660Z" />
<glyph unicode="2" glyph-name="two" horiz-adv-x="1195" d="M895 895T917 845T940 738T926 638T884 556Q836 490 719 400L366 123L900 153L959 256H1042L992 0H153V85L494 362L582 431Q687 515 741 604Q769 651 769 697Q769 786 715 839T554 892Q427 892 307
796Q277 772 261 753L194 822Q277 935 444 990Q508 1011 589 1011T738 990T850 932Z" />
<glyph unicode="3" glyph-name="three" horiz-adv-x="1195" d="M203 -451L237 -452Q493 -452 672 -334Q863 -210 863 -16Q863 110 769 193Q682 270 562 270Q536 270 516 268L483 264Q469 263 459 260L418 360Q625 387 712 490Q774 563 774 667Q774 764 708 828Q642
893 541 893Q394 893 277 800Q246 776 227 755L157 828Q205 896 310 949Q441 1015 562 1015T753 984T866 904Q948 816 948 692Q948 589 886 491Q817 384 715 342Q951 314 1016 130Q1038 68 1038 -6T1016 -147T950 -275T838 -389T680 -479Q485 -561 223 -559L203
-451Z" />
<glyph unicode="4" glyph-name="four" horiz-adv-x="1365" d="M924 989L998 973V130H1230V0H998V-431H834V0H174L135 106L924 989ZM834 130V719L302 130H834Z" />
<glyph unicode="5" glyph-name="five" horiz-adv-x="1194" d="M361 471Q389 473 462 473T642 444T830 354Q1004 224 1004 -10Q1004 -238 816 -390Q602 -562 210 -559L190 -458Q491 -458 658 -342Q829 -223 829 -4Q829 134 701 221Q565 314 339 314Q296 314 248
310L330 989H809L844 1076H937L910 836H405L361 471Z" />
<glyph unicode="6" glyph-name="six" horiz-adv-x="1366" d="M1131 1463Q906 1423 702 1247Q515 1086 438 902Q529 993 682 1016Q723 1023 787 1023T933 992T1076 900Q1206 772 1206 538Q1206 307 1056 144Q904 -23 688 -23Q445 -23 300 138Q159 295 159 538Q159
795 301 1027Q430 1238 651 1387Q864 1530 1097 1569L1131 1463ZM463 827T431 790T386 718T368 660Q356 605 356 541T373 391T429 240Q515 94 686 94Q843 94 934 209Q1017 312 1017 469Q1017 788 851 874Q791 905 721 905T599 892T506 853Z" />
<glyph unicode="7" glyph-name="seven" horiz-adv-x="1365" d="M1145 989L1179 841Q708 -133 639 -285L518 -560L355 -476L1031 831H335L286 659H186L201 989H1145Z" />
<glyph unicode="8" glyph-name="eight" horiz-adv-x="1365" d="M446 1302Q425 1265 425 1211T456 1107T540 1010T658 918L792 828Q971 708 1034 639T1128 505T1160 386T1152 293T1123 211T1066 126T976 51Q853 -23 667 -23Q450 -23 324 88Q205 193 205 360Q205
526 339 653Q397 708 466 748Q466 748 595 822L672 741Q524 663 472 611Q363 502 363 360Q363 255 440 176Q529 83 677 83Q821 83 905 169Q974 240 974 317T943 448T862 550T748 644Q526 795 473 834T369 925Q257 1041 257 1166Q257 1323 383 1425Q505 1524 677
1524Q891 1524 1002 1420Q1098 1331 1098 1194Q1098 993 792 813L698 877L787 933Q889 996 929 1080Q952 1128 952 1193T928 1299T866 1367Q794 1416 687 1416Q508 1416 446 1302Z" />
<glyph unicode="9" glyph-name="nine" horiz-adv-x="1365" d="M334 -454Q777 -375 937 88Q847 -2 685 -26Q642 -33 578 -33T432 -1T289 94Q159 228 159 462Q159 692 309 852Q461 1013 677 1013Q920 1013 1065 852Q1206 695 1206 452Q1206 59 958 -226Q719 -502
368 -560L334 -454ZM914 163T949 200T997 272T1015 330Q1027 385 1027 449T1007 599T945 750Q852 896 679 896Q519 896 422 786Q330 683 330 531Q330 211 511 118Q574 85 644 85T768 98T868 137Z" />
<glyph unicode=":" glyph-name="colon" horiz-adv-x="512" d="M155 38T141 60T127 102T139 143T171 186Q216 233 255 233Q296 233 327 200Q384 142 384 103Q384 66 352 34Q295 -23 255 -23Q221 -23 188 7ZM155 818T141 840T127 882T139 923T171 966Q216 1013 255
1013Q296 1013 327 980Q384 922 384 893T371 841T339 800Q295 756 255 756Q220 756 188 787Z" />
<glyph unicode=";" glyph-name="semicolon" horiz-adv-x="512" d="M186 818T172 840T158 882T170 923T202 966Q248 1013 286 1013Q327 1013 358 980Q415 922 415 893T402 841T370 800Q326 756 286 756Q251 756 219 787ZM266 -114Q274 -87 274 -58T256 -13T216
16T176 43T158 76T170 117T200 160Q245 209 290 209Q328 209 360 178Q415 122 415 71T403 -32T370 -125Q334 -201 271 -260T128 -355L97 -301Q233 -234 266 -114Z" />
<glyph unicode="&lt;" glyph-name="less" horiz-adv-x="1198" d="M278 669L1072 135L1015 45L137 645V692L1015 1293L1072 1204L278 669Z" />
<glyph unicode="=" glyph-name="equal" horiz-adv-x="1362" d="M1223 612V506H139V612H1223ZM1223 1013V906H139V1013H1223Z" />
<glyph unicode="&gt;" glyph-name="greater" horiz-adv-x="1198" d="M126 1204L182 1293L1061 692V645L182 45L126 135L919 669L126 1204Z" />
<glyph unicode="?" glyph-name="question" horiz-adv-x="1025" d="M497 559Q492 526 492 464T506 353L387 335Q355 438 355 499T364 605T396 693Q441 780 553 867Q665 953 694 996Q741 1067 741 1164Q741 1425 459 1425Q246 1425 222 1248Q214 1195 214 1133H126L88
1449Q227 1531 479 1531Q803 1531 903 1324Q937 1253 937 1178T921 1054T869 956Q801 863 654 766Q515 675 497 559ZM350 38T336 60T322 102T334 143T366 186Q411 233 440 233T492 220T534 188Q578 142 578 103Q578 66 546 34Q489 -23 449 -23Q416 -23 383 7Z"
/>
<glyph unicode="@" glyph-name="at" horiz-adv-x="1707" d="M1284 -147Q1092 -250 872 -250Q537 -250 320 -41Q94 176 94 528Q94 759 216 954Q333 1139 525 1246Q720 1355 932 1355Q1248 1355 1434 1176Q1613 1002 1613 721Q1613 598 1554 470Q1494 340 1392 259Q1281
171 1150 171Q1057 171 1018 204Q989 229 963 301Q853 170 717 170Q613 170 554 276Q501 369 501 473T531 653T616 786Q731 908 899 908Q959 908 1022 890L1033 930L1165 931L1084 435Q1075 381 1075 352Q1075 257 1172 257Q1289 257 1376 385Q1464 516 1464 710Q1464
943 1328 1101Q1180 1272 931 1272Q793 1272 669 1221T450 1077T300 850T244 550T295 251T434 24Q618 -169 900 -169Q1115 -169 1243 -91L1284 -147ZM687 717T666 651T644 511T653 394T678 320Q712 251 759 251Q813 251 854 284Q929 346 946 431L1000 751Q1010
816 960 823Q932 827 892 827T806 811T723 756Z" />
<glyph unicode="A" glyph-name="A" horiz-adv-x="1537" d="M1058 85L1196 108L1038 497H438L281 108L422 85V0H-7V85L151 108L676 1406L634 1505L796 1573L1394 108L1555 85V0H1058V85ZM485 618H994L739 1260L485 618Z" />
<glyph unicode="B" glyph-name="B" horiz-adv-x="1365" d="M1230 1158Q1230 1080 1203 1023T1134 925Q1061 854 952 813Q1128 779 1210 708Q1322 610 1322 416Q1322 242 1188 127Q1041 0 776 0H82V85L234 108V1400L82 1423V1508H749Q985 1508 1111 1412Q1230 1322
1230 1158ZM422 739V120H705Q1037 120 1107 301Q1129 358 1129 425T1106 549T1035 648Q933 739 754 739H422ZM422 1387V848H707Q919 848 1003 992Q1035 1046 1035 1130Q1035 1264 961 1325T726 1387H422Z" />
<glyph unicode="C" glyph-name="C" horiz-adv-x="1538" d="M898 1531Q1101 1531 1270 1480Q1344 1457 1394 1429L1371 1162H1305Q1305 1273 1196 1340Q1080 1411 877 1411Q614 1411 442 1234Q271 1056 271 789Q271 506 429 309Q536 176 700 124Q784 97 891 97T1081
109T1217 150Q1321 205 1321 336H1387L1401 78Q1227 -23 888 -23Q514 -23 291 194Q78 401 78 728Q78 1090 330 1318Q563 1531 898 1531Z" />
<glyph unicode="D" glyph-name="D" horiz-adv-x="1708" d="M286 1400L131 1423V1508H773Q1170 1508 1391 1314Q1607 1123 1607 791Q1607 552 1496 364Q1394 191 1213 94Q1037 0 834 0H131V85L286 108V1400ZM471 1387V120H832Q1083 120 1248 278Q1418 443 1418
709Q1418 1218 1062 1344Q939 1387 768 1387H471Z" />
<glyph unicode="E" glyph-name="E" horiz-adv-x="1196" d="M790 723H422V120H979L1051 297H1127L1094 0H82V85L234 108V1400L82 1423V1508H1050L1073 1211H985L931 1387H422V843H790L820 949H891V618H820L790 723Z" />
<glyph unicode="F" glyph-name="F" horiz-adv-x="1196" d="M799 699H412V108L639 85V0H72V85L224 108V1400L72 1423V1508H1090L1113 1211H1025L971 1387H412V820H799L829 926H891V593H829L799 699Z" />
<glyph unicode="G" glyph-name="G" horiz-adv-x="1707" d="M1002 679H1593V571H1537Q1507 571 1492 562T1476 526V94Q1404 94 1316 64L1188 22Q1045 -23 880 -23T567 36T315 199T155 441T98 720T127 968T210 1163T336 1319T498 1435Q679 1531 892 1531Q1221 1531
1414 1429L1391 1182H1325Q1325 1274 1211 1339Q1085 1411 887 1411Q630 1411 460 1226Q294 1046 294 789Q294 507 450 309Q618 97 903 97Q1217 97 1273 232Q1290 274 1290 323V526Q1290 553 1275 562T1233 571H1002V679Z" />
<glyph unicode="H" glyph-name="H" horiz-adv-x="1707" d="M98 1508H588V1423L435 1400V829H1270V1400L1118 1423V1508H1608V1423L1457 1400V108L1608 85V0H1118V85L1270 108V709H435V108L588 85V0H98V85L250 108V1400L98 1423V1508Z" />
<glyph unicode="I" glyph-name="I" horiz-adv-x="682" d="M96 1508H586V1423L435 1400V108L586 85V0H96V85L250 108V1400L96 1423V1508Z" />
<glyph unicode="J" glyph-name="J" horiz-adv-x="682" d="M450 89Q450 -170 346 -330Q282 -426 238 -463T162 -520Q95 -560 49 -560Q-76 -560 -157 -497L-94 -300H-29Q-29 -357 24 -386Q46 -397 80 -397T148 -381T206 -330Q263 -253 263 -118V1400L111 1423V1508H601V1423L450
1400V89Z" />
<glyph unicode="K" glyph-name="K" horiz-adv-x="1534" d="M1113 1402L1000 1423V1508H1469V1423L1290 1402L654 791L1264 139L1342 101L1472 85V0H1120L443 753L1113 1402ZM95 1508H585V1423L435 1400V108L585 85V0H95V85L250 108V1400L95 1423V1508Z" />
<glyph unicode="L" glyph-name="L" horiz-adv-x="1194" d="M562 1508V1423L412 1400V120H960L1019 344H1101L1092 0H72V85L224 108V1400L72 1423V1508H562Z" />
<glyph unicode="M" glyph-name="M" horiz-adv-x="2052" d="M405 1258Q405 1258 363 108L502 85V0H87V85L229 108L301 1400L160 1423V1508H502L1039 337L1580 1508H1893V1423L1743 1400Q1759 1074 1777 751T1810 108L1964 85V0H1475V85L1625 108L1580 1243L998
0L405 1258Z" />
<glyph unicode="N" glyph-name="N" horiz-adv-x="1707" d="M365 1218V108L517 85V0H95V85L250 108V1400L95 1423V1508H371L1340 290V1400L1189 1423V1508H1608V1423L1457 1400V0H1333L365 1218Z" />
<glyph unicode="O" glyph-name="O" horiz-adv-x="1711" d="M178 295T128 432T77 710T105 959T182 1156T301 1315T454 1433Q623 1531 816 1531T1151 1475T1390 1319Q1587 1118 1587 791Q1587 427 1366 197Q1264 91 1129 34T826 -23T516 35T276 194ZM349 1141T310
1028T270 807T286 613T333 451T412 309T523 197Q657 97 839 97Q1088 97 1244 266Q1397 432 1397 699Q1397 993 1264 1188Q1112 1411 820 1411Q579 1411 422 1226Q349 1141 310 1028Z" />
<glyph unicode="P" glyph-name="P" horiz-adv-x="1196" d="M72 0V85L224 108V1400L72 1423V1508H565Q991 1508 1109 1278Q1153 1193 1153 1074T1114 862T996 706Q835 572 532 572H412V108L609 85V0H72ZM412 1387V678H560Q759 678 864 784Q957 880 957 1043Q957
1211 868 1294Q769 1387 541 1387H412Z" />
<glyph unicode="Q" glyph-name="Q" horiz-adv-x="1707" d="M1835 -185T1874 -185T2010 -119L2064 -173Q1868 -362 1783 -362Q1713 -362 1520 -263L1279 -135Q1064 -23 891 38L1115 59Q1280 34 1461 -49L1540 -86Q1694 -157 1764 -171ZM178 295T128 432T77 710T105
959T182 1156T301 1315T454 1433Q623 1531 816 1531T1151 1475T1390 1319Q1587 1118 1587 791Q1587 427 1366 197Q1264 91 1129 34T826 -23T516 35T276 194ZM349 1141T310 1028T270 807T286 613T333 451T412 309T523 197Q657 97 839 97Q1088 97 1244 266Q1397 432
1397 699Q1397 993 1264 1188Q1112 1411 820 1411Q579 1411 422 1226Q349 1141 310 1028Z" />
<glyph unicode="R" glyph-name="R" horiz-adv-x="1366" d="M1136 1279Q1163 1210 1163 1122T1136 962T1056 838Q957 739 765 699L783 732L1178 132L1248 101L1389 85V0H1046L596 719L680 683H412V108L562 85V0H72V85L227 108V1400L72 1423V1508H565Q1044 1508
1136 1279ZM412 1387V791H560Q884 791 952 980Q973 1037 973 1103T954 1223T890 1312Q797 1387 575 1387H412Z" />
<glyph unicode="S" glyph-name="S" horiz-adv-x="1200" d="M590 96Q664 96 724 110T829 156Q923 221 923 346Q923 452 854 520Q781 590 618 661T369 789T234 904Q145 1006 145 1151Q145 1319 290 1428Q425 1531 617 1531Q768 1531 919 1476Q982 1451 1033 1421L998
1154H914Q914 1292 839 1354T622 1417Q426 1417 354 1289Q331 1247 331 1195T346 1102T404 1020Q488 939 720 842Q1044 704 1098 516Q1114 457 1114 391T1092 265T1030 159T940 78T830 22Q573 -78 290 38Q187 81 108 143L150 430H235Q235 229 362 150Q449 96 590
96Z" />
<glyph unicode="T" glyph-name="T" horiz-adv-x="1537" d="M1406 1508L1430 1187H1340L1289 1387H862V108L1082 85V0H457V85L675 108V1387H250L196 1187H108L132 1508H1406Z" />
<glyph unicode="U" glyph-name="U" horiz-adv-x="1537" d="M789 -23Q190 -23 190 541V1400L35 1423V1508H535V1423L375 1400V571Q375 202 610 122Q685 97 791 97T983 124T1124 209Q1235 324 1235 571V1400L1082 1423V1508H1501V1423L1350 1400V541Q1350 271 1205
124T789 -23Z" />
<glyph unicode="V" glyph-name="V" horiz-adv-x="1366" d="M716 247L1174 1400L1025 1423V1508H1419V1423L1306 1404L749 0H641L66 1400L-53 1423V1508H410V1423L256 1400L716 247Z" />
<glyph unicode="W" glyph-name="W" horiz-adv-x="2048" d="M757 240L1014 1076L1004 943L830 1400L705 1423V1508H1173L1174 1423L1028 1400L1417 247Q1470 389 1516 534L1696 1114Q1742 1258 1795 1400L1651 1423V1508H2035V1423L1924 1404L1440 0H1332L1016
908L1065 897L780 0H672L121 1400L7 1423V1508H445L452 1423L319 1400L757 240Z" />
<glyph unicode="X" glyph-name="X" horiz-adv-x="1537" d="M49 1508H590V1423L443 1400L778 912L1117 1400L969 1423V1508H1433V1423L1263 1400L848 813L1352 108L1512 85V0H962V85L1126 108L721 695L337 108L508 85V0H25V85L191 108L651 793L219 1400L49 1423V1508Z" />
<glyph unicode="Y" glyph-name="Y" horiz-adv-x="1364" d="M9 1508H552V1423L379 1400L743 735L1055 1400L890 1423V1508H1354V1423L1200 1404L806 613V108L980 85V0H449V85L620 108V612L146 1400L9 1423V1508Z" />
<glyph unicode="Z" glyph-name="Z" horiz-adv-x="1363" d="M1019 1382H330L207 1191H125L202 1508H1241V1383L324 120H1088L1212 339H1298L1230 0H102V125L1019 1382Z" />
<glyph unicode="[" glyph-name="bracketleft" horiz-adv-x="684" d="M334 -405L532 -427V-511H172V1663H532V1578L334 1557V-405Z" />
<glyph unicode="\" glyph-name="backslash" horiz-adv-x="1197" d="M1124 -389L1029 -431L74 1627L168 1672L1124 -389Z" />
<glyph unicode="]" glyph-name="bracketright" horiz-adv-x="684" d="M350 1557L152 1578V1663H512V-511H152V-427L350 -405V1557Z" />
<glyph unicode="^" glyph-name="asciicircum" horiz-adv-x="1366" d="M683 1100L239 178L129 225L659 1311H706L683 1100ZM669 1281L706 1311L1236 225L1126 178L682 1100L669 1281Z" />
<glyph unicode="_" glyph-name="underscore" horiz-adv-x="1178" d="M-5 -164H1184V-271H-5V-164Z" />
<glyph unicode="`" glyph-name="grave" horiz-adv-x="575" d="M236 1561L478 1231L431 1191L76 1511L236 1561Z" />
<glyph unicode="a" glyph-name="a" horiz-adv-x="1025" d="M1019 52Q873 -23 808 -23Q662 -23 662 101V132Q648 111 586 71T488 15Q405 -23 362 -23T291 -20T233 -6T174 22T122 69Q71 133 71 236Q71 378 172 434Q236 471 307 480T438 494Q550 504 662 506V716Q662
803 640 832Q603 883 525 883Q351 883 183 770L125 857Q359 1013 544 1013Q705 1013 772 924Q824 855 824 728V202Q824 128 852 118Q862 115 878 115Q918 115 1001 146L1019 52ZM662 422Q378 411 298 365Q237 330 237 252Q237 139 324 113Q348 106 382 106T463
120T548 154Q622 190 662 224V422Z" />
<glyph unicode="b" glyph-name="b" horiz-adv-x="1195" d="M169 1483L39 1508V1589L332 1663V883Q430 952 520 982T692 1013T852 976T984 872Q1097 734 1097 519Q1097 296 964 144Q820 -23 574 -23Q416 -23 277 53Q215 86 169 130V1483ZM621 883Q486 883 332 780V209Q418
94 605 94Q749 94 839 204Q923 306 923 459Q923 741 758 846Q701 883 621 883Z" />
<glyph unicode="c" glyph-name="c" horiz-adv-x="1022" d="M892 229L949 164Q790 21 641 -15Q608 -23 576 -23Q357 -23 222 116Q91 251 91 471Q91 691 222 844Q368 1013 614 1013Q778 1013 904 959L880 758H817Q817 859 696 886Q658 895 590 895T457 864T349 780Q266
677 266 528Q266 345 356 235Q453 117 605 117T892 229Z" />
<glyph unicode="d" glyph-name="d" horiz-adv-x="1196" d="M600 1013Q725 1013 849 964V1477L696 1508V1589L1011 1663V160Q1011 115 1061 115T1188 146L1209 52Q1066 -23 995 -23Q892 -23 860 44Q849 68 849 101Q774 35 689 6T513 -23T336 12T194 112Q83 239
83 471Q83 693 214 844Q359 1013 600 1013ZM600 117Q701 117 849 212V780Q763 895 575 895Q430 895 340 778Q256 667 256 492Q256 333 336 231Q424 117 600 117Z" />
<glyph unicode="e" glyph-name="e" horiz-adv-x="1025" d="M882 229L939 164Q780 21 631 -15Q598 -23 566 -23Q346 -23 208 116Q71 252 71 471Q71 689 200 844Q342 1013 569 1013Q726 1013 834 900Q949 782 949 593L902 551L250 504Q252 322 368 213Q472 117 610
117T882 229ZM257 598L771 645Q764 811 643 873Q600 895 533 895T414 862T327 782Q262 693 257 598Z" />
<glyph unicode="f" glyph-name="f" horiz-adv-x="690" d="M347 110L564 83V0H47V83L185 106V876H47V959L185 989V1201Q185 1358 282 1500Q393 1663 573 1663Q688 1663 761 1617Q793 1597 809 1571L741 1394H676Q676 1494 606 1530Q581 1544 543 1544T469 1528T406
1477Q347 1403 347 1270V989H651V872H347V110Z" />
<glyph unicode="g" glyph-name="g" horiz-adv-x="1196" d="M926 843Q973 767 973 654Q973 495 813 372Q743 318 649 282L496 224Q386 183 372 168T357 143T367 124T400 107Q455 88 554 88T739 78T891 38Q1035 -27 1035 -184Q1035 -290 952 -381Q837 -506 626 -548Q563
-560 487 -560T332 -544T194 -494Q69 -423 69 -281Q69 -171 162 -112L227 -73Q254 -59 287 -52T355 -36Q247 -15 206 50Q192 73 192 98T202 142T238 178T310 218L429 274Q335 292 253 361Q140 456 140 629Q140 795 286 910Q415 1013 570 1013T838 940Q910 990 1076
1011L1103 980L1056 843H926ZM244 -251T244 -293T275 -370T354 -425Q432 -456 530 -456T681 -440T772 -394Q860 -328 860 -222Q860 -89 672 -72Q617 -67 557 -67Q385 -67 284 -168Q256 -196 250 -223ZM326 776Q305 727 305 657T326 534T383 446Q456 373 571 373Q721
373 785 499Q809 546 809 615T788 739T731 831Q656 910 543 910Q383 910 326 776Z" />
<glyph unicode="h" glyph-name="h" horiz-adv-x="1196" d="M673 883Q522 883 361 777V106L488 83V0H68V83L198 106V1483L68 1508V1589L361 1663V883Q461 952 557 982T722 1013T844 994T936 936Q1016 855 1016 704V106L1143 83V0H724V83L853 106V685Q853 883 673 883Z" />
<glyph unicode="i" glyph-name="i" horiz-adv-x="513" d="M342 106L470 83V0H50V83L180 106V834L50 857V940L342 1013V106ZM158 1336T148 1358T138 1401T148 1444T174 1484Q211 1524 241 1524T293 1513T332 1484Q369 1443 369 1412T359 1358T332 1318Q294 1279
263 1279T211 1290T175 1318Z" />
<glyph unicode="j" glyph-name="j" horiz-adv-x="513" d="M-5 -337Q176 -337 176 9V834L46 857V940L338 1013V167Q338 -18 310 -113T250 -265T168 -376T67 -458T-21 -486Q-118 -486 -174 -463L-120 -276H-80Q-80 -311 -37 -330Q-23 -337 -5 -337ZM155 1336T145
1358T134 1401T144 1444T172 1484Q208 1524 249 1524Q291 1524 317 1495Q365 1443 365 1412T355 1358T328 1318Q290 1279 249 1279Q209 1279 182 1307Z" />
<glyph unicode="k" glyph-name="k" horiz-adv-x="1193" d="M355 106L482 83V0H62V83L192 106V1483L62 1508V1589L355 1663V106ZM810 885L721 906V989H1122V906L966 883L543 558L963 132L1028 99L1136 83V0H855L363 532L810 885Z" />
<glyph unicode="l" glyph-name="l" horiz-adv-x="513" d="M335 106L463 83V0H43V83L173 106V1483L43 1508V1589L335 1663V106Z" />
<glyph unicode="m" glyph-name="m" horiz-adv-x="1878" d="M708 883Q533 883 383 777V106L510 83V0H92V83L221 106V834L92 857V940L383 1013V883Q571 1013 737 1013Q945 1013 1007 881Q1109 952 1206 982T1371 1013Q1523 1013 1597 937T1672 704V106L1798 83V0H1382V83L1509
106V704Q1509 794 1456 842Q1411 883 1344 883Q1172 883 1029 780Q1034 730 1034 704V106L1149 83V0H753V83L870 106V704Q870 794 820 842Q777 883 708 883Z" />
<glyph unicode="n" glyph-name="n" horiz-adv-x="1196" d="M672 883Q519 883 365 777V106L492 83V0H72V83L202 106V834L72 857V940L348 1013V883Q550 1013 723 1013Q931 1013 994 840Q1015 782 1015 704V106L1142 83V0H723V83L852 106V685Q852 883 672 883Z" />
<glyph unicode="o" glyph-name="o" horiz-adv-x="1194" d="M101 486Q101 601 140 700T248 868Q388 1013 593 1013Q831 1013 965 872Q1092 737 1092 519Q1092 276 948 124Q808 -23 602 -23Q367 -23 230 122Q101 258 101 486ZM317 733T297 664T276 515T294 358T352
222Q438 94 600 94Q752 94 836 194Q919 292 919 459Q919 755 750 857Q687 895 601 895T456 866T357 785Z" />
<glyph unicode="p" glyph-name="p" horiz-adv-x="1194" d="M579 -23Q450 -23 335 26V-454L462 -477V-560H42V-477L172 -454V841L42 865V946L335 1013V881Q510 1013 681 1013Q864 1013 981 878Q1100 741 1100 519Q1100 298 968 145Q824 -23 579 -23ZM335 780V209Q421
94 608 94Q752 94 842 208Q926 313 926 461Q926 644 850 758Q768 883 627 883T335 780Z" />
<glyph unicode="q" glyph-name="q" horiz-adv-x="1196" d="M613 1013Q797 1013 932 923L986 1013H1020V-454L1147 -477V-560H730V-477L858 -454V106Q771 37 678 7T495 -23T325 14T192 118Q89 248 89 471Q89 694 222 846Q368 1013 613 1013ZM568 117Q707 117 858
212V775Q813 843 704 878Q654 895 581 895T449 867T349 786Q264 676 264 478Q264 228 430 146Q488 117 568 117Z" />
<glyph unicode="r" glyph-name="r" horiz-adv-x="853" d="M170 834L42 857V940L332 1013V758Q562 1013 678 1013Q773 1013 853 937L801 775H754Q754 824 679 848Q658 854 637 854Q531 854 332 641V106L530 83V0H42V83L170 106V834Z" />
<glyph unicode="s" glyph-name="s" horiz-adv-x="853" d="M171 292Q171 83 427 83Q524 83 582 126Q635 165 635 224Q635 286 604 320Q543 387 428 427T255 503T164 580Q107 648 107 726T136 855T214 940Q316 1013 450 1013Q611 1013 731 942L708 749H654Q654 906
445 906Q354 906 307 871T260 782Q260 665 521 570Q765 480 796 335Q804 294 804 238T768 128T676 42Q569 -23 429 -23Q292 -23 173 30Q120 53 81 83L119 292H171Z" />
<glyph unicode="t" glyph-name="t" horiz-adv-x="684" d="M335 306Q335 106 497 106Q582 106 662 176L716 110Q631 40 559 9T432 -23T326 1T240 70Q173 157 173 317V872H46V959L173 989V1123L291 1241H335V989H665V872H335V306Z" />
<glyph unicode="u" glyph-name="u" horiz-adv-x="1194" d="M1128 42Q1019 -23 954 -23Q892 -23 862 2Q808 44 808 101V115Q722 42 630 10T469 -23Q329 -23 250 53T170 285V834L51 854V942L332 1013V285Q332 195 394 146Q445 106 514 106Q627 106 726 166Q771 192
808 227V834L657 854V937L970 1013V169Q970 115 1024 115Q1062 115 1107 136L1128 42Z" />
<glyph unicode="v" glyph-name="v" horiz-adv-x="1024" d="M574 0H435L60 883L-30 906V989H359V906L244 883L542 162L823 888L710 906V989H1035V906L945 883L574 0Z" />
<glyph unicode="w" glyph-name="w" horiz-adv-x="1708" d="M1252 0H1113L861 707L600 0H461L110 883L-4 906V989H409V906L293 883L567 162L803 834L774 883L647 906V989H1083V906L960 883L1219 162Q1219 162 1481 888L1365 906V989H1713V906L1601 883L1252 0Z" />
<glyph unicode="x" glyph-name="x" horiz-adv-x="1024" d="M18 906V989H501V906L359 883L562 595L769 883L666 906V989H1035V906L901 885L623 521L920 106L1061 83V0H599V83L725 106L497 422L270 106L374 83V0H-6V83L138 106L435 499L164 883L18 906Z" />
<glyph unicode="y" glyph-name="y" horiz-adv-x="1030" d="M131 -247Q131 -345 218 -345Q270 -345 310 -284Q320 -267 326 -250L438 -2Q104 783 65 883L-72 906V989H374V906L250 883L528 209L822 888L688 906V989H1081V906L944 883L442 -260Q420 -332 373 -384Q283
-485 218 -485Q122 -485 25 -442L79 -247H131Z" />
<glyph unicode="z" glyph-name="z" horiz-adv-x="1024" d="M661 895H240L151 789H85L139 989H872V897L283 94H746L836 200H902L848 0H72V92L661 895Z" />
<glyph unicode="{" glyph-name="braceleft" horiz-adv-x="853" d="M480 -238Q480 -447 682 -447V-519Q484 -519 392 -433Q320 -365 320 -256Q320 -202 325 -130L336 21Q351 246 351 311T344 404T323 456Q275 539 171 570V641Q311 677 344 804Q351 833 351 888T346
1015T336 1154L325 1282Q320 1342 320 1394T339 1494T401 1578Q496 1658 682 1658V1587Q480 1587 480 1378Q480 1307 490 1185T504 1014Q513 899 513 874Q513 693 296 605Q396 562 437 519Q513 438 513 337Q513 318 510 276L504 178Q501 123 497 61T488 -58Q480
-198 480 -238Z" />
<glyph unicode="|" glyph-name="bar" horiz-adv-x="512" d="M197 1766H315V-559H197V1766Z" />
<glyph unicode="}" glyph-name="braceright" horiz-adv-x="853" d="M373 -238Q373 -447 171 -447V-519Q369 -519 461 -433Q533 -365 533 -256Q533 -202 528 -130L517 21Q502 246 502 311T509 404T530 456Q578 539 682 570V641Q542 677 509 804Q502 833 502 888T507
1015T517 1154L528 1282Q533 1342 533 1394T514 1494T452 1578Q357 1658 171 1658V1587Q373 1587 373 1378Q373 1307 363 1185T349 1014Q340 899 340 874Q340 693 557 605Q457 562 416 519Q340 438 340 337Q340 318 343 276L349 178Q352 123 356 61T365 -58Q373
-198 373 -238Z" />
<glyph unicode="~" glyph-name="asciitilde" horiz-adv-x="930" d="M283 537Q208 537 113 457L70 495Q168 636 264 672Q285 680 316 680T393 666T486 635Q610 590 661 590Q739 590 813 671L860 638Q751 448 638 448Q583 448 496 478T365 523T283 537Z" />
<glyph unicode="&#xa0;" glyph-name="nbspace" horiz-adv-x="686" />
<glyph unicode="&#xa1;" glyph-name="exclamdown" horiz-adv-x="512" d="M357 948T371 926T385 884T373 843T340 800Q295 753 266 753T214 766T172 798Q127 843 127 872T140 924T172 966Q217 1011 257 1011Q291 1011 324 980ZM174 -560Q174 -153 192 -49Q192 -17
198 78L208 234Q224 484 224 598H302Q302 458 313 315T329 116Q338 -6 338 -49Q356 -146 356 -513L174 -560Z" />
<glyph unicode="&#xa2;" glyph-name="cent" horiz-adv-x="1024" d="M624 117Q756 124 886 229L938 164Q772 9 624 -18V-211H518V-21Q321 -1 204 134Q85 269 85 471Q85 660 200 810Q319 966 518 1005V1197H624V1013Q773 1006 898 959L874 758H811Q811 881 624 895V117ZM260
520Q260 454 277 389T327 272Q396 163 518 130V885Q395 854 325 748Q260 650 260 520Z" />
<glyph unicode="&#xa3;" glyph-name="sterling" horiz-adv-x="1193" d="M78 -23L49 43Q95 65 119 95T162 165T194 264Q224 394 224 612V742H74V818L224 848V1025Q224 1129 294 1252Q361 1367 468 1448Q580 1531 679 1531Q912 1531 1029 1446L961 1272H895Q895
1379 776 1414Q737 1425 675 1425T561 1392T476 1308Q412 1212 412 1095V848H776V742H412V641Q412 386 324 215Q285 141 236 99Q399 193 551 193Q632 193 690 171T782 138T862 128Q981 128 1089 240L1145 198Q1038 29 882 -14Q847 -23 807 -23T736 -12L669 10Q570
43 442 43T78 -23Z" />
<glyph unicode="&#xa4;" glyph-name="currency" horiz-adv-x="1366" d="M310 420Q205 540 205 703T313 996L153 1157L233 1239L395 1074Q530 1178 691 1178T982 1090L1130 1239L1213 1159L1067 1013Q1161 900 1161 730T1043 427L1213 259L1130 179L959 348Q830
259 680 259T398 344L233 179L153 261L310 420ZM355 738Q355 660 379 591T448 468Q543 353 685 353Q832 353 920 440Q1013 531 1013 688Q1013 847 924 961Q829 1083 676 1083Q527 1083 442 990Q355 896 355 738Z" />
<glyph unicode="&#xa5;" glyph-name="yen" horiz-adv-x="1364" d="M1110 624V506H787V373H1110V252H787V106L937 83V0H450V83L600 106V252H267V373H600V506H267V624H591L169 1400V1394L5 1416V1501H535V1416L402 1394L711 777L1052 1394L921 1416V1501H1362V1416L1196
1394V1400Q1196 1400 787 681V624H1110Z" />
<glyph unicode="&#xa6;" glyph-name="brokenbar" horiz-adv-x="512" d="M197 494H315V-559H197V494ZM197 1766H315V683H197V1766Z" />
<glyph unicode="&#xa7;" glyph-name="section" horiz-adv-x="1024" d="M409 989Q303 922 303 836Q303 718 611 562Q726 625 726 708Q726 804 554 908Q493 945 409 989ZM712 513Q872 421 872 263Q872 124 750 45Q647 -23 503 -23Q281 -23 151 72L182 306H234Q234
83 501 83Q599 83 654 133Q703 177 703 219T695 283T662 325T592 372L470 438Q297 531 234 601Q168 676 168 787Q168 887 241 970Q273 1008 314 1036Q250 1075 216 1125T182 1245T206 1365T275 1450Q366 1524 515 1524Q696 1524 804 1470L778 1245H724Q724 1336
677 1376T553 1416T440 1406T380 1378Q335 1345 335 1293Q335 1238 450 1166Q488 1142 563 1099T702 1012T802 928Q863 860 863 785T840 664Q792 570 712 513Z" />
<glyph unicode="&#xa8;" glyph-name="dieresis" horiz-adv-x="902" d="M168 1174T155 1195T141 1235T153 1274T183 1314Q226 1359 253 1359T302 1347T342 1316Q384 1273 384 1246T372 1197T340 1158Q297 1116 272 1116T226 1127T187 1156ZM545 1174T532 1195T519
1235T530 1274T560 1314Q603 1359 630 1359T679 1347T719 1316Q761 1273 761 1246T749 1197T718 1158Q675 1116 649 1116T603 1127T564 1156Z" />
<glyph unicode="&#xa9;" glyph-name="copyright" horiz-adv-x="1882" d="M215 448T189 546T162 751T188 957T264 1143T384 1301T542 1424Q725 1531 944 1531Q1276 1531 1500 1302Q1639 1158 1692 957Q1719 858 1719 725T1661 452T1500 206T1254 39T972 -23T731
5T542 83T385 205T265 362ZM299 751Q299 469 486 278Q674 87 944 87Q1214 87 1402 278Q1589 469 1589 751Q1589 892 1539 1014T1402 1227Q1214 1420 944 1420Q674 1420 486 1227Q399 1137 349 1015T299 751ZM1295 365Q1171 296 972 296Q768 296 632 409Q484 531
484 739Q484 949 628 1084Q763 1209 962 1209T1286 1145L1272 916H1223Q1223 1114 951 1114Q814 1114 736 1018Q661 926 661 770Q661 511 828 420Q885 390 959 390T1083 406T1167 450Q1232 505 1232 590H1279L1295 365Z" />
<glyph unicode="&#xaa;" glyph-name="ordfeminine" horiz-adv-x="853" d="M649 806Q548 806 548 893V914Q494 860 428 833T331 806T268 812T206 838Q134 884 134 987Q134 1057 158 1086Q208 1145 314 1160Q428 1176 548 1176V1323Q548 1385 533 1404Q506 1440
442 1440Q337 1440 213 1361L172 1422Q339 1531 466 1531Q662 1531 662 1332V963Q662 926 669 914T706 902T786 924L799 858Q698 806 649 806ZM548 1117Q433 1117 372 1103T293 1078T266 1054Q250 1033 250 1001T259 949T282 918Q307 896 342 896T409 906T469 930Q512
950 548 979V1117Z" />
<glyph unicode="&#xab;" glyph-name="guillemotleft" horiz-adv-x="1200" d="M524 906L598 831L387 596L265 474L384 355L603 117L524 38L135 474L524 906ZM985 906L1060 831L848 596L725 474L846 355L1065 117L985 38L597 474L985 906Z" />
<glyph unicode="&#xac;" glyph-name="logicalnot" horiz-adv-x="1362" d="M204 940H1158V358H1043V834H204V940Z" />
<glyph unicode="&#xad;" glyph-name="uni00AD" horiz-adv-x="1229" />
<glyph unicode="&#xae;" glyph-name="registered" horiz-adv-x="1028" d="M192 1146Q192 1076 217 1016T286 910Q379 815 515 815Q650 815 744 910Q838 1007 838 1147Q838 1286 744 1384Q650 1481 515 1481Q379 1481 286 1384Q192 1287 192 1146ZM666 1260Q666
1169 571 1142L670 973L715 966V949H628L519 1133H434V973L477 966V949H338V966L380 973V1337L338 1342V1364H513Q666 1364 666 1260ZM513 1159Q611 1159 611 1253Q611 1296 588 1315T503 1335H434V1159H513ZM131 1148Q131 1226 160 1295T241 1418Q353 1531 517
1531Q679 1531 789 1418Q897 1306 897 1147Q897 989 789 879Q678 766 517 766Q354 766 241 879Q131 989 131 1148Z" />
<glyph unicode="&#xaf;" glyph-name="overscore" horiz-adv-x="1178" d="M308 1335L885 1337L857 1209H281L308 1335Z" />
<glyph unicode="&#xb0;" glyph-name="degree" horiz-adv-x="853" d="M108 1220Q108 1359 202 1446Q293 1531 426 1531T650 1446Q744 1359 744 1220Q744 1080 650 991Q559 906 426 906Q294 906 202 992Q108 1081 108 1220ZM243 1307Q228 1268 228 1219T243 1130T284
1062Q337 1003 426 1003Q512 1003 568 1062Q624 1122 624 1220Q624 1314 568 1374Q512 1434 426 1434Q292 1434 243 1307Z" />
<glyph unicode="&#xb1;" glyph-name="plusminus" horiz-adv-x="1362" d="M735 1382V906H1223V800H735V299H629V800H139V906H629V1382H735ZM1223 106V0H139V106H1223Z" />
<glyph unicode="&#xb2;" glyph-name="twosuperior" horiz-adv-x="853" d="M633 1451T647 1416T662 1341T652 1271T622 1214Q593 1173 507 1105L282 932H634L682 1004H740L698 825H112V905L435 1147Q492 1190 517 1227T542 1319T508 1412T413 1449Q288 1449 187
1352L141 1400Q202 1472 301 1512Q353 1532 417 1532T527 1518T603 1477Z" />
<glyph unicode="&#xb3;" glyph-name="threesuperior" horiz-adv-x="851" d="M379 1450Q277 1450 166 1346L117 1395Q188 1468 266 1500T411 1532T528 1511T610 1456Q670 1391 670 1292Q670 1223 638 1175Q582 1092 507 1061Q733 1028 733 807Q733 641 589 531Q431
410 142 400L128 482Q350 482 478 567Q611 655 611 811Q611 968 478 990Q440 997 397 997T328 990L300 1074Q445 1092 506 1165Q549 1216 549 1289Q549 1355 499 1403Q450 1450 379 1450Z" />
<glyph unicode="&#xb4;" glyph-name="acute" horiz-adv-x="575" d="M526 1510L169 1190L122 1230L365 1560L526 1510Z" />
<glyph unicode="&#xb5;" glyph-name="mu" horiz-adv-x="1366" d="M1277 52Q1134 -23 1063 -23Q963 -23 926 46Q915 68 915 97V130Q703 -23 540 -23Q427 -23 360 21L394 -503L281 -560L227 -537Q264 -93 268 283V845L149 867V942L432 1013V283Q432 94 569 94Q682
94 915 200V845L762 867V937L1079 1013V144Q1079 111 1104 106Q1115 103 1148 103T1259 135L1277 52Z" />
<glyph unicode="&#xb6;" glyph-name="paragraph" horiz-adv-x="1371" d="M1284 1501V1416L1154 1394V-308L1284 -332V-416H1039V1382H843V-416H504V-332L723 -308V481H688Q416 481 250 627Q86 771 86 996Q86 1214 220 1348Q373 1501 655 1501H1284Z" />
<glyph unicode="&#xb7;" glyph-name="middot" horiz-adv-x="512" d="M155 528T141 550T127 592T139 633T171 676Q216 723 255 723Q296 723 327 690Q384 632 384 593Q384 556 352 524Q295 467 255 467Q221 467 188 497Z" />
<glyph unicode="&#xb8;" glyph-name="cedilla" horiz-adv-x="629" d="M373 9L306 -135Q451 -135 512 -225Q535 -258 535 -300Q535 -371 454 -440Q355 -528 292 -528Q186 -528 94 -463L128 -337H167Q167 -400 254 -422Q277 -427 300 -427Q365 -427 387 -404T413
-363T416 -319T401 -272T358 -235Q306 -206 207 -202L189 -158L310 31L373 9Z" />
<glyph unicode="&#xb9;" glyph-name="onesuperior" horiz-adv-x="512" d="M419 1507V1449L313 1433V889L419 873V815H92V873L200 889V1433L92 1449V1507H419Z" />
<glyph unicode="&#xba;" glyph-name="ordmasculine" horiz-adv-x="853" d="M57 1162Q57 1243 84 1312T160 1430Q258 1531 402 1531Q568 1531 662 1432Q751 1337 751 1185Q751 1015 650 908Q553 806 408 806Q243 806 148 907Q57 1003 57 1162ZM209 1335T195 1287T180
1182T193 1073T234 978Q294 888 407 888Q513 888 572 958Q630 1026 630 1143Q630 1351 512 1422Q467 1448 407 1448T306 1428T237 1371Z" />
<glyph unicode="&#xbb;" glyph-name="guillemotright" horiz-adv-x="1200" d="M676 906L602 831L813 596L935 474L816 355L597 117L676 38L1065 474L676 906ZM215 906L140 831L352 596L475 474L354 355L135 117L215 38L603 474L215 906Z" />
<glyph unicode="&#xbc;" glyph-name="onequarter" horiz-adv-x="1705" d="M356 1668V959L460 947V906H159V947L275 959V1543Q275 1554 260 1554Q257 1554 244 1549L182 1524Q167 1518 159 1514L134 1558L356 1668ZM1452 750H1488V281H1605V215H1488V53L1553 41V0H1343V41L1407
53V215H1059V269L1452 750ZM1407 281V614L1141 281H1407ZM1130 1672L1225 1627L456 -23L362 18L1130 1672Z" />
<glyph unicode="&#xbd;" glyph-name="onehalf" horiz-adv-x="1705" d="M356 1668V959L460 947V906H159V947L275 959V1543Q275 1554 260 1554Q257 1554 244 1549L182 1524Q167 1518 159 1514L134 1558L356 1668ZM1488 647Q1500 612 1500 573T1493 502T1468 440Q1440
392 1349 295L1145 76H1456V75Q1464 89 1474 102L1491 128H1532L1503 0H1037V57L1304 352Q1414 479 1414 562Q1414 660 1344 691Q1320 702 1282 702Q1219 702 1150 649Q1120 626 1096 597L1056 625Q1111 699 1194 740Q1238 762 1293 762Q1451 762 1488 647ZM1130
1672L1225 1627L456 -23L362 18L1130 1672Z" />
<glyph unicode="&#xbe;" glyph-name="threequarters" horiz-adv-x="1705" d="M282 1608Q209 1608 132 1535L96 1569Q191 1668 303 1668Q399 1668 450 1614Q492 1567 492 1496Q492 1418 420 1360Q397 1342 370 1331Q486 1314 524 1222Q538 1189 538 1139T512 1035T432
936Q312 835 109 829L100 888Q255 888 352 960Q451 1034 451 1146Q451 1285 294 1285Q275 1285 242 1279L221 1340Q326 1352 372 1404Q405 1442 405 1493Q405 1608 282 1608ZM1503 750H1539V281H1656V215H1539V53L1604 41V0H1394V41L1458 53V215H1110V269L1503
750ZM1458 281V614L1192 281H1458ZM1182 1672L1277 1627L508 -23L414 18L1182 1672Z" />
<glyph unicode="&#xbf;" glyph-name="questiondown" horiz-adv-x="1025" d="M528 433Q533 466 533 528T519 639L638 657Q670 554 670 493T661 387T629 299Q584 212 472 125Q360 39 331 -4Q284 -75 284 -172Q284 -433 566 -433Q779 -433 803 -256Q811 -203 811
-141H899L937 -457Q798 -539 546 -539Q222 -539 122 -332Q88 -261 88 -186T104 -62T156 36Q224 129 371 226Q510 317 528 433ZM675 954T689 932T703 890T691 849T659 806Q614 759 585 759T533 772T491 804Q447 850 447 889Q447 926 479 958Q536 1015 576 1015Q609
1015 642 985Z" />
<glyph unicode="&#xc0;" glyph-name="Agrave" horiz-adv-x="1537" d="M1058 85L1196 108L1038 497H438L281 108L422 85V0H-7V85L151 108L676 1406L634 1505L796 1573L1394 108L1555 85V0H1058V85ZM485 618H994L739 1260L485 618ZM623 1999L866 1669L819 1630L463
1950L623 1999Z" />
<glyph unicode="&#xc1;" glyph-name="Aacute" horiz-adv-x="1537" d="M1058 85L1196 108L1038 497H438L281 108L422 85V0H-7V85L151 108L676 1406L634 1505L796 1573L1394 108L1555 85V0H1058V85ZM485 618H994L739 1260L485 618ZM1055 1951L700 1631L653 1670L895
2000L1055 1951Z" />
<glyph unicode="&#xc2;" glyph-name="Acircumflex" horiz-adv-x="1537" d="M1058 85L1196 108L1038 497H438L281 108L422 85V0H-7V85L151 108L676 1406L634 1505L796 1573L1394 108L1555 85V0H1058V85ZM485 618H994L739 1260L485 618ZM778 2000L1106 1731L1049
1661L772 1864L496 1661L442 1724L778 2000Z" />
<glyph unicode="&#xc3;" glyph-name="Atilde" horiz-adv-x="1537" d="M1058 85L1196 108L1038 497H438L281 108L422 85V0H-7V85L151 108L676 1406L634 1505L796 1573L1394 108L1555 85V0H1058V85ZM485 618H994L739 1260L485 618ZM615 1821Q540 1821 469 1742L420
1772Q481 1861 556 1910Q596 1935 638 1935Q693 1935 763 1905T870 1860T947 1846Q1020 1846 1074 1925L1128 1900Q1076 1807 1006 1758Q968 1733 925 1733T843 1746T765 1776Q663 1821 615 1821Z" />
<glyph unicode="&#xc4;" glyph-name="Adieresis" horiz-adv-x="1537" d="M1058 85L1196 108L1038 497H438L281 108L422 85V0H-7V85L151 108L676 1406L634 1505L796 1573L1394 108L1555 85V0H1058V85ZM485 618H994L739 1260L485 618ZM491 1815T478 1836T465 1875T477
1915T507 1956Q550 2000 577 2000T625 1988T665 1956Q707 1913 707 1886T695 1837T665 1798Q624 1757 585 1757Q554 1757 523 1786ZM868 1815T855 1836T842 1875T854 1915T884 1956Q927 2000 954 2000T1002 1988T1042 1956Q1084 1913 1084 1886T1072 1837T1042
1798Q1001 1757 962 1757Q931 1757 900 1786Z" />
<glyph unicode="&#xc5;" glyph-name="Aring" horiz-adv-x="1537" d="M1058 85L1196 108L1038 497H438L281 108L422 85V0H-7V85L151 108L676 1406L634 1505L796 1573L1394 108L1555 85V0H1058V85ZM485 618H994L739 1260L485 618ZM530 1758Q530 1808 549 1852T602
1929Q673 2000 775 2000Q875 2000 946 1929Q1018 1857 1018 1758Q1018 1657 946 1585T775 1513Q674 1513 602 1585T530 1758ZM657 1839T647 1813T636 1758T646 1701T676 1654Q716 1612 760 1612T829 1623T872 1654Q912 1696 912 1741T902 1813T872 1858Q832 1901
789 1901T720 1890T676 1859Z" />
<glyph unicode="&#xc6;" glyph-name="AE" horiz-adv-x="1877" d="M1786 1211H1701L1647 1387H1135V843H1492L1522 949H1593V618H1522L1492 723H1135V120H1663L1737 297H1809L1779 0H798V85L949 108V577H555L281 108L386 85V0H-7V85L155 108L917 1404L800 1423V1508H1764L1786
1211ZM949 695V1260Q949 1260 620 695H949Z" />
<glyph unicode="&#xc7;" glyph-name="Ccedilla" horiz-adv-x="1538" d="M898 1531Q1101 1531 1270 1480Q1344 1457 1394 1429L1371 1162H1305Q1305 1273 1196 1340Q1080 1411 877 1411Q614 1411 442 1234Q271 1056 271 789Q271 506 429 309Q536 176 700 124Q784
97 891 97T1081 109T1217 150Q1321 205 1321 336H1387L1401 78Q1227 -23 888 -23Q514 -23 291 194Q78 401 78 728Q78 1090 330 1318Q563 1531 898 1531ZM944 9L877 -135Q1022 -135 1083 -225Q1106 -258 1106 -300Q1106 -371 1025 -440Q926 -528 863 -528Q757 -528
665 -463L699 -337H738Q738 -400 825 -422Q848 -427 871 -427Q936 -427 958 -404T984 -363T987 -319T972 -272T929 -235Q877 -206 778 -202L760 -158L881 31L944 9Z" />
<glyph unicode="&#xc8;" glyph-name="Egrave" horiz-adv-x="1196" d="M790 723H422V120H979L1051 297H1127L1094 0H82V85L234 108V1400L82 1423V1508H1050L1073 1211H985L931 1387H422V843H790L820 949H891V618H820L790 723ZM505 1999L748 1669L701 1630L345 1950L505
1999Z" />
<glyph unicode="&#xc9;" glyph-name="Eacute" horiz-adv-x="1196" d="M790 723H422V120H979L1051 297H1127L1094 0H82V85L234 108V1400L82 1423V1508H1050L1073 1211H985L931 1387H422V843H790L820 949H891V618H820L790 723ZM937 1951L582 1631L535 1670L777 2000L937
1951Z" />
<glyph unicode="&#xca;" glyph-name="Ecircumflex" horiz-adv-x="1196" d="M790 723H422V120H979L1051 297H1127L1094 0H82V85L234 108V1400L82 1423V1508H1050L1073 1211H985L931 1387H422V843H790L820 949H891V618H820L790 723ZM660 2000L988 1731L931 1661L654
1864L378 1661L324 1724L660 2000Z" />
<glyph unicode="&#xcb;" glyph-name="Edieresis" horiz-adv-x="1196" d="M790 723H422V120H979L1051 297H1127L1094 0H82V85L234 108V1400L82 1423V1508H1050L1073 1211H985L931 1387H422V843H790L820 949H891V618H820L790 723ZM373 1815T360 1836T347 1875T359
1915T389 1956Q432 2000 459 2000T507 1988T547 1956Q589 1913 589 1886T577 1837T547 1798Q506 1757 467 1757Q436 1757 405 1786ZM750 1815T737 1836T724 1875T736 1915T766 1956Q809 2000 836 2000T884 1988T924 1956Q966 1913 966 1886T954 1837T924 1798Q883
1757 844 1757Q813 1757 782 1786Z" />
<glyph unicode="&#xcc;" glyph-name="Igrave" horiz-adv-x="682" d="M96 1508H586V1423L435 1400V108L586 85V0H96V85L250 108V1400L96 1423V1508ZM190 1999L433 1669L386 1630L30 1950L190 1999Z" />
<glyph unicode="&#xcd;" glyph-name="Iacute" horiz-adv-x="682" d="M96 1508H586V1423L435 1400V108L586 85V0H96V85L250 108V1400L96 1423V1508ZM622 1951L267 1631L220 1670L462 2000L622 1951Z" />
<glyph unicode="&#xce;" glyph-name="Icircumflex" horiz-adv-x="682" d="M96 1508H586V1423L435 1400V108L586 85V0H96V85L250 108V1400L96 1423V1508ZM345 2000L673 1731L616 1661L339 1864L63 1661L9 1724L345 2000Z" />
<glyph unicode="&#xcf;" glyph-name="Idieresis" horiz-adv-x="682" d="M96 1508H586V1423L435 1400V108L586 85V0H96V85L250 108V1400L96 1423V1508ZM58 1815T45 1836T32 1875T44 1915T74 1956Q117 2000 144 2000T192 1988T232 1956Q274 1913 274 1886T262 1837T232
1798Q191 1757 152 1757Q121 1757 90 1786ZM435 1815T422 1836T409 1875T421 1915T451 1956Q494 2000 521 2000T569 1988T609 1956Q651 1913 651 1886T639 1837T609 1798Q568 1757 529 1757Q498 1757 467 1786Z" />
<glyph unicode="&#xd0;" glyph-name="Eth" horiz-adv-x="1708" d="M56 838H227V1400L72 1423V1508H744Q1122 1508 1338 1314Q1552 1121 1552 791Q1552 552 1443 364Q1343 191 1168 94Q998 0 805 0H72V85L227 108V719H31L56 838ZM412 1387V838H841L815 719H412V120H803Q1039
120 1196 278Q1359 440 1359 699Q1359 997 1209 1183Q1044 1387 739 1387H412Z" />
<glyph unicode="&#xd1;" glyph-name="Ntilde" horiz-adv-x="1707" d="M606 1218V108L758 85V0H336V85L491 108V1400L336 1423V1508H612L1581 290V1400L1430 1423V1508H1849V1423L1698 1400V0H1574L606 1218ZM673 1821Q598 1821 527 1742L478 1772Q539 1861 614
1910Q654 1935 696 1935Q751 1935 821 1905T928 1860T1005 1846Q1078 1846 1132 1925L1186 1900Q1134 1807 1064 1758Q1026 1733 983 1733T901 1746T823 1776Q721 1821 673 1821Z" />
<glyph unicode="&#xd2;" glyph-name="Ograve" horiz-adv-x="1711" d="M178 295T128 432T77 710T105 959T182 1156T301 1315T454 1433Q623 1531 816 1531T1151 1475T1390 1319Q1587 1118 1587 791Q1587 427 1366 197Q1264 91 1129 34T826 -23T516 35T276 194ZM349
1141T310 1028T270 807T286 613T333 451T412 309T523 197Q657 97 839 97Q1088 97 1244 266Q1397 432 1397 699Q1397 993 1264 1188Q1112 1411 820 1411Q579 1411 422 1226Q349 1141 310 1028ZM681 1999L924 1669L877 1630L521 1950L681 1999Z" />
<glyph unicode="&#xd3;" glyph-name="Oacute" horiz-adv-x="1711" d="M178 295T128 432T77 710T105 959T182 1156T301 1315T454 1433Q623 1531 816 1531T1151 1475T1390 1319Q1587 1118 1587 791Q1587 427 1366 197Q1264 91 1129 34T826 -23T516 35T276 194ZM349
1141T310 1028T270 807T286 613T333 451T412 309T523 197Q657 97 839 97Q1088 97 1244 266Q1397 432 1397 699Q1397 993 1264 1188Q1112 1411 820 1411Q579 1411 422 1226Q349 1141 310 1028ZM1113 1951L758 1631L711 1670L953 2000L1113 1951Z" />
<glyph unicode="&#xd4;" glyph-name="Ocircumflex" horiz-adv-x="1711" d="M178 295T128 432T77 710T105 959T182 1156T301 1315T454 1433Q623 1531 816 1531T1151 1475T1390 1319Q1587 1118 1587 791Q1587 427 1366 197Q1264 91 1129 34T826 -23T516 35T276 194ZM349
1141T310 1028T270 807T286 613T333 451T412 309T523 197Q657 97 839 97Q1088 97 1244 266Q1397 432 1397 699Q1397 993 1264 1188Q1112 1411 820 1411Q579 1411 422 1226Q349 1141 310 1028ZM836 2000L1164 1731L1107 1661L830 1864L554 1661L500 1724L836 2000Z"
/>
<glyph unicode="&#xd5;" glyph-name="Otilde" horiz-adv-x="1711" d="M178 295T128 432T77 710T105 959T182 1156T301 1315T454 1433Q623 1531 816 1531T1151 1475T1390 1319Q1587 1118 1587 791Q1587 427 1366 197Q1264 91 1129 34T826 -23T516 35T276 194ZM349
1141T310 1028T270 807T286 613T333 451T412 309T523 197Q657 97 839 97Q1088 97 1244 266Q1397 432 1397 699Q1397 993 1264 1188Q1112 1411 820 1411Q579 1411 422 1226Q349 1141 310 1028ZM673 1821Q598 1821 527 1742L478 1772Q539 1861 614 1910Q654 1935
696 1935Q751 1935 821 1905T928 1860T1005 1846Q1078 1846 1132 1925L1186 1900Q1134 1807 1064 1758Q1026 1733 983 1733T901 1746T823 1776Q721 1821 673 1821Z" />
<glyph unicode="&#xd6;" glyph-name="Odieresis" horiz-adv-x="1711" d="M178 295T128 432T77 710T105 959T182 1156T301 1315T454 1433Q623 1531 816 1531T1151 1475T1390 1319Q1587 1118 1587 791Q1587 427 1366 197Q1264 91 1129 34T826 -23T516 35T276 194ZM349
1141T310 1028T270 807T286 613T333 451T412 309T523 197Q657 97 839 97Q1088 97 1244 266Q1397 432 1397 699Q1397 993 1264 1188Q1112 1411 820 1411Q579 1411 422 1226Q349 1141 310 1028ZM549 1815T536 1836T523 1875T535 1915T565 1956Q608 2000 635 2000T683
1988T723 1956Q765 1913 765 1886T753 1837T723 1798Q682 1757 643 1757Q612 1757 581 1786ZM926 1815T913 1836T900 1875T912 1915T942 1956Q985 2000 1012 2000T1060 1988T1100 1956Q1142 1913 1142 1886T1130 1837T1100 1798Q1059 1757 1020 1757Q989 1757 958
1786Z" />
<glyph unicode="&#xd7;" glyph-name="multiply" horiz-adv-x="1362" d="M1098 1090L761 756L1105 409L1032 335L686 681L332 325L257 400L610 756L264 1102L340 1175L686 829L1023 1166L1098 1090Z" />
<glyph unicode="&#xd8;" glyph-name="Oslash" horiz-adv-x="1711" d="M440 80V83L321 -85L244 -31L357 135Q226 238 158 391T89 698T117 959T197 1156T318 1315T474 1433Q646 1531 862 1531T1261 1434V1432L1361 1580L1440 1526L1342 1382Q1547 1239 1604 970Q1622
884 1622 775T1594 558T1516 359T1395 197T1240 77Q1068 -23 844 -23T440 80ZM532 214Q666 108 861 108Q1111 108 1268 271Q1429 437 1429 699Q1429 943 1325 1128Q1290 1191 1243 1241L532 214ZM1170 1303Q1032 1400 842 1400Q602 1400 442 1221Q285 1045 285
789Q285 564 384 386Q416 328 458 281L1170 1303Z" />
<glyph unicode="&#xd9;" glyph-name="Ugrave" horiz-adv-x="1537" d="M789 -23Q190 -23 190 541V1400L35 1423V1508H535V1423L375 1400V571Q375 202 610 122Q685 97 791 97T983 124T1124 209Q1235 324 1235 571V1400L1082 1423V1508H1501V1423L1350 1400V541Q1350
271 1205 124T789 -23ZM617 1999L860 1669L813 1630L457 1950L617 1999Z" />
<glyph unicode="&#xda;" glyph-name="Uacute" horiz-adv-x="1537" d="M789 -23Q190 -23 190 541V1400L35 1423V1508H535V1423L375 1400V571Q375 202 610 122Q685 97 791 97T983 124T1124 209Q1235 324 1235 571V1400L1082 1423V1508H1501V1423L1350 1400V541Q1350
271 1205 124T789 -23ZM1049 1951L694 1631L647 1670L889 2000L1049 1951Z" />
<glyph unicode="&#xdb;" glyph-name="Ucircumflex" horiz-adv-x="1537" d="M789 -23Q190 -23 190 541V1400L35 1423V1508H535V1423L375 1400V571Q375 202 610 122Q685 97 791 97T983 124T1124 209Q1235 324 1235 571V1400L1082 1423V1508H1501V1423L1350 1400V541Q1350
271 1205 124T789 -23ZM772 2000L1100 1731L1043 1661L766 1864L490 1661L436 1724L772 2000Z" />
<glyph unicode="&#xdc;" glyph-name="Udieresis" horiz-adv-x="1537" d="M789 -23Q190 -23 190 541V1400L35 1423V1508H535V1423L375 1400V571Q375 202 610 122Q685 97 791 97T983 124T1124 209Q1235 324 1235 571V1400L1082 1423V1508H1501V1423L1350 1400V541Q1350
271 1205 124T789 -23ZM485 1815T472 1836T459 1875T471 1915T501 1956Q544 2000 571 2000T619 1988T659 1956Q701 1913 701 1886T689 1837T659 1798Q618 1757 579 1757Q548 1757 517 1786ZM862 1815T849 1836T836 1875T848 1915T878 1956Q921 2000 948 2000T996
1988T1036 1956Q1078 1913 1078 1886T1066 1837T1036 1798Q995 1757 956 1757Q925 1757 894 1786Z" />
<glyph unicode="&#xdd;" glyph-name="Yacute" horiz-adv-x="1364" d="M263 1508H806V1423L633 1400L997 735L1309 1400L1144 1423V1508H1608V1423L1454 1404L1060 613V108L1234 85V0H703V85L874 108V612L400 1400L263 1423V1508ZM965 1951L610 1631L563 1670L805
2000L965 1951Z" />
<glyph unicode="&#xde;" glyph-name="Thorn" horiz-adv-x="1321" d="M665 490Q824 490 912 580Q1000 669 1000 820Q1000 991 922 1060Q837 1135 622 1135H389V490H665ZM224 1400L72 1423V1508H539V1423L389 1400V1256H645Q1137 1256 1188 952Q1196 901 1196 817T1160
644T1052 495Q908 373 636 373H389V108L562 85V0H72V85L224 108V1400Z" />
<glyph unicode="&#xdf;" glyph-name="germandbls" horiz-adv-x="1196" d="M202 876H72V959L202 989V1169Q202 1294 303 1462Q378 1587 499 1645Q562 1675 644 1675T796 1655T914 1598Q1016 1522 1016 1402Q1016 1293 896 1160Q858 1117 818 1077L754 1014Q709
965 699 926T689 851T703 785T748 721Q809 655 947 573Q1166 442 1166 256Q1166 119 1048 42Q950 -23 827 -23Q677 -23 582 72L605 243H657Q657 134 748 96Q780 83 822 83T897 96T952 130Q997 171 997 231Q997 343 830 438Q584 577 548 710Q536 752 536 802T550
895T588 970T640 1032L698 1086Q863 1241 863 1352Q863 1446 792 1502Q722 1556 609 1556Q509 1556 437 1460Q365 1366 365 1239V106L469 83V0H72V83L202 106V876Z" />
<glyph unicode="&#xe0;" glyph-name="agrave" horiz-adv-x="1025" d="M1019 52Q873 -23 808 -23Q662 -23 662 101V132Q648 111 586 71T488 15Q405 -23 362 -23T291 -20T233 -6T174 22T122 69Q71 133 71 236Q71 378 172 434Q236 471 307 480T438 494Q550 504 662
506V716Q662 803 640 832Q603 883 525 883Q351 883 183 770L125 857Q359 1013 544 1013Q705 1013 772 924Q824 855 824 728V202Q824 128 852 118Q862 115 878 115Q918 115 1001 146L1019 52ZM662 422Q378 411 298 365Q237 330 237 252Q237 139 324 113Q348 106
382 106T463 120T548 154Q622 190 662 224V422ZM453 1561L695 1231L648 1191L293 1511L453 1561Z" />
<glyph unicode="&#xe1;" glyph-name="aacute" horiz-adv-x="1025" d="M1019 52Q873 -23 808 -23Q662 -23 662 101V132Q648 111 586 71T488 15Q405 -23 362 -23T291 -20T233 -6T174 22T122 69Q71 133 71 236Q71 378 172 434Q236 471 307 480T438 494Q550 504 662
506V716Q662 803 640 832Q603 883 525 883Q351 883 183 770L125 857Q359 1013 544 1013Q705 1013 772 924Q824 855 824 728V202Q824 128 852 118Q862 115 878 115Q918 115 1001 146L1019 52ZM662 422Q378 411 298 365Q237 330 237 252Q237 139 324 113Q348 106
382 106T463 120T548 154Q622 190 662 224V422ZM696 1510L339 1190L292 1230L535 1560L696 1510Z" />
<glyph unicode="&#xe2;" glyph-name="acircumflex" horiz-adv-x="1025" d="M1019 52Q873 -23 808 -23Q662 -23 662 101V132Q648 111 586 71T488 15Q405 -23 362 -23T291 -20T233 -6T174 22T122 69Q71 133 71 236Q71 378 172 434Q236 471 307 480T438 494Q550 504
662 506V716Q662 803 640 832Q603 883 525 883Q351 883 183 770L125 857Q359 1013 544 1013Q705 1013 772 924Q824 855 824 728V202Q824 128 852 118Q862 115 878 115Q918 115 1001 146L1019 52ZM662 422Q378 411 298 365Q237 330 237 252Q237 139 324 113Q348
106 382 106T463 120T548 154Q622 190 662 224V422ZM500 1529L826 1261L770 1190L492 1392L217 1190L163 1254L500 1529Z" />
<glyph unicode="&#xe3;" glyph-name="atilde" horiz-adv-x="1025" d="M1019 52Q873 -23 808 -23Q662 -23 662 101V132Q648 111 586 71T488 15Q405 -23 362 -23T291 -20T233 -6T174 22T122 69Q71 133 71 236Q71 378 172 434Q236 471 307 480T438 494Q550 504 662
506V716Q662 803 640 832Q603 883 525 883Q351 883 183 770L125 857Q359 1013 544 1013Q705 1013 772 924Q824 855 824 728V202Q824 128 852 118Q862 115 878 115Q918 115 1001 146L1019 52ZM662 422Q378 411 298 365Q237 330 237 252Q237 139 324 113Q348 106
382 106T463 120T548 154Q622 190 662 224V422ZM335 1346Q259 1346 189 1265L139 1296Q202 1384 277 1434Q316 1459 358 1459T439 1445T515 1414Q615 1369 677 1369T795 1449L849 1423Q799 1332 725 1282Q688 1256 645 1256T563 1270T485 1301Q383 1346 335 1346Z"
/>
<glyph unicode="&#xe4;" glyph-name="adieresis" horiz-adv-x="1025" d="M1019 52Q873 -23 808 -23Q662 -23 662 101V132Q648 111 586 71T488 15Q405 -23 362 -23T291 -20T233 -6T174 22T122 69Q71 133 71 236Q71 378 172 434Q236 471 307 480T438 494Q550 504
662 506V716Q662 803 640 832Q603 883 525 883Q351 883 183 770L125 857Q359 1013 544 1013Q705 1013 772 924Q824 855 824 728V202Q824 128 852 118Q862 115 878 115Q918 115 1001 146L1019 52ZM662 422Q378 411 298 365Q237 330 237 252Q237 139 324 113Q348
106 382 106T463 120T548 154Q622 190 662 224V422ZM211 1174T198 1195T184 1235T196 1274T226 1314Q269 1359 296 1359T345 1347T385 1316Q427 1273 427 1246T415 1197T383 1158Q340 1116 315 1116T269 1127T230 1156ZM588 1174T575 1195T562 1235T573 1274T603
1314Q646 1359 673 1359T722 1347T762 1316Q804 1273 804 1246T792 1197T761 1158Q718 1116 692 1116T646 1127T607 1156Z" />
<glyph unicode="&#xe5;" glyph-name="aring" horiz-adv-x="1025" d="M1019 52Q873 -23 808 -23Q662 -23 662 101V132Q648 111 586 71T488 15Q405 -23 362 -23T291 -20T233 -6T174 22T122 69Q71 133 71 236Q71 378 172 434Q236 471 307 480T438 494Q550 504 662
506V716Q662 803 640 832Q603 883 525 883Q351 883 183 770L125 857Q359 1013 544 1013Q705 1013 772 924Q824 855 824 728V202Q824 128 852 118Q862 115 878 115Q918 115 1001 146L1019 52ZM662 422Q378 411 298 365Q237 330 237 252Q237 139 324 113Q348 106
382 106T463 120T548 154Q622 190 662 224V422ZM250 1400Q250 1451 269 1495T323 1572Q395 1643 495 1643Q596 1643 667 1572T738 1400Q738 1300 667 1228Q596 1155 495 1155Q395 1155 323 1227T250 1400ZM378 1482T368 1456T357 1400T367 1344T397 1297Q436 1254
480 1254T549 1265T593 1297Q632 1340 632 1384T622 1455T593 1502Q552 1544 509 1544T440 1533T397 1502Z" />
<glyph unicode="&#xe6;" glyph-name="ae" horiz-adv-x="1702" d="M1508 229L1562 164Q1412 22 1262 -15Q1230 -23 1181 -23T1071 -8T958 36Q852 92 790 191L766 162Q656 32 505 -10Q458 -23 422 -23T359 -20T302 -6T243 22T191 69Q140 133 140 236Q140 440 317
490Q380 507 426 516L508 532Q583 545 729 566V716Q729 803 708 832Q671 883 580 883Q421 883 253 770L194 857Q428 1013 614 1013Q764 1013 824 941Q861 898 861 838Q908 933 1048 988Q1111 1013 1186 1013T1325 987T1442 908Q1562 786 1562 589L1518 546L891
490Q893 323 987 222Q1084 117 1233 117T1508 229ZM1266 876Q1226 895 1174 895T1082 877T1012 831T961 767T925 698Q898 630 895 584L1391 634Q1388 817 1266 876ZM587 451T537 439T440 414T368 382T328 342Q307 307 307 259T319 182T350 136Q385 106 436 106T539
121T633 160Q729 216 729 276V478Q724 477 697 473T628 460Z" />
<glyph unicode="&#xe7;" glyph-name="ccedilla" horiz-adv-x="1022" d="M892 229L949 164Q790 21 641 -15Q608 -23 576 -23Q357 -23 222 116Q91 251 91 471Q91 691 222 844Q368 1013 614 1013Q778 1013 904 959L880 758H817Q817 859 696 886Q658 895 590 895T457
864T349 780Q266 677 266 528Q266 345 356 235Q453 117 605 117T892 229ZM601 9L534 -135Q679 -135 740 -225Q763 -258 763 -300Q763 -371 682 -440Q583 -528 520 -528Q414 -528 322 -463L356 -337H395Q395 -400 482 -422Q505 -427 528 -427Q593 -427 615 -404T641
-363T644 -319T629 -272T586 -235Q534 -206 435 -202L417 -158L538 31L601 9Z" />
<glyph unicode="&#xe8;" glyph-name="egrave" horiz-adv-x="1025" d="M882 229L939 164Q780 21 631 -15Q598 -23 566 -23Q346 -23 208 116Q71 252 71 471Q71 689 200 844Q342 1013 569 1013Q726 1013 834 900Q949 782 949 593L902 551L250 504Q252 322 368 213Q472
117 610 117T882 229ZM257 598L771 645Q764 811 643 873Q600 895 533 895T414 862T327 782Q262 693 257 598ZM504 1561L746 1231L699 1191L344 1511L504 1561Z" />
<glyph unicode="&#xe9;" glyph-name="eacute" horiz-adv-x="1025" d="M882 229L939 164Q780 21 631 -15Q598 -23 566 -23Q346 -23 208 116Q71 252 71 471Q71 689 200 844Q342 1013 569 1013Q726 1013 834 900Q949 782 949 593L902 551L250 504Q252 322 368 213Q472
117 610 117T882 229ZM257 598L771 645Q764 811 643 873Q600 895 533 895T414 862T327 782Q262 693 257 598ZM747 1510L390 1190L343 1230L586 1560L747 1510Z" />
<glyph unicode="&#xea;" glyph-name="ecircumflex" horiz-adv-x="1025" d="M882 229L939 164Q780 21 631 -15Q598 -23 566 -23Q346 -23 208 116Q71 252 71 471Q71 689 200 844Q342 1013 569 1013Q726 1013 834 900Q949 782 949 593L902 551L250 504Q252 322 368
213Q472 117 610 117T882 229ZM257 598L771 645Q764 811 643 873Q600 895 533 895T414 862T327 782Q262 693 257 598ZM551 1529L877 1261L821 1190L543 1392L268 1190L214 1254L551 1529Z" />
<glyph unicode="&#xeb;" glyph-name="edieresis" horiz-adv-x="1025" d="M882 229L939 164Q780 21 631 -15Q598 -23 566 -23Q346 -23 208 116Q71 252 71 471Q71 689 200 844Q342 1013 569 1013Q726 1013 834 900Q949 782 949 593L902 551L250 504Q252 322 368
213Q472 117 610 117T882 229ZM257 598L771 645Q764 811 643 873Q600 895 533 895T414 862T327 782Q262 693 257 598ZM262 1174T249 1195T235 1235T247 1274T277 1314Q320 1359 347 1359T396 1347T436 1316Q478 1273 478 1246T466 1197T434 1158Q391 1116 366 1116T320
1127T281 1156ZM639 1174T626 1195T613 1235T624 1274T654 1314Q697 1359 724 1359T773 1347T813 1316Q855 1273 855 1246T843 1197T812 1158Q769 1116 743 1116T697 1127T658 1156Z" />
<glyph unicode="&#xec;" glyph-name="igrave" horiz-adv-x="513" d="M342 106L470 83V0H50V83L180 106V834L50 857V940L342 1013V106ZM239 1561L481 1231L434 1191L79 1511L239 1561Z" />
<glyph unicode="&#xed;" glyph-name="iacute" horiz-adv-x="513" d="M342 106L470 83V0H50V83L180 106V834L50 857V940L342 1013V106ZM739 1510L382 1190L335 1230L578 1560L739 1510Z" />
<glyph unicode="&#xee;" glyph-name="icircumflex" horiz-adv-x="513" d="M342 106L470 83V0H50V83L180 106V834L50 857V940L342 1013V106ZM287 1529L613 1261L557 1190L279 1392L4 1190L-50 1254L287 1529Z" />
<glyph unicode="&#xef;" glyph-name="idieresis" horiz-adv-x="513" d="M342 106L470 83V0H50V83L180 106V834L50 857V940L342 1013V106ZM-2 1174T-15 1195T-29 1235T-17 1274T13 1314Q56 1359 83 1359T132 1347T172 1316Q214 1273 214 1246T202 1197T170 1158Q127
1116 102 1116T56 1127T17 1156ZM375 1174T362 1195T349 1235T360 1274T390 1314Q433 1359 460 1359T509 1347T549 1316Q591 1273 591 1246T579 1197T548 1158Q505 1116 479 1116T433 1127T394 1156Z" />
<glyph unicode="&#xf0;" glyph-name="eth" horiz-adv-x="1196" d="M415 1634Q538 1560 658 1436L871 1647L917 1566L719 1378Q972 1096 1055 744Q1082 629 1082 512T1048 295T953 124Q825 -23 622 -23Q388 -23 255 122Q131 256 131 478Q131 718 272 868Q409 1013
613 1013Q707 1013 849 942Q783 1114 633 1290L422 1083L375 1159L576 1357Q436 1497 359 1566L415 1634ZM620 94Q909 94 909 459Q909 661 864 758Q799 895 611 895Q465 895 382 784Q306 682 306 516Q306 342 388 222Q476 94 620 94Z" />
<glyph unicode="&#xf1;" glyph-name="ntilde" horiz-adv-x="1196" d="M672 883Q519 883 365 777V106L492 83V0H72V83L202 106V834L72 857V940L348 1013V883Q550 1013 723 1013Q931 1013 994 840Q1015 782 1015 704V106L1142 83V0H723V83L852 106V685Q852 883 672
883ZM484 1346Q408 1346 338 1265L288 1296Q351 1384 426 1434Q465 1459 507 1459T588 1445T664 1414Q764 1369 826 1369T944 1449L998 1423Q948 1332 874 1282Q837 1256 794 1256T712 1270T634 1301Q532 1346 484 1346Z" />
<glyph unicode="&#xf2;" glyph-name="ograve" horiz-adv-x="1194" d="M101 486Q101 601 140 700T248 868Q388 1013 593 1013Q831 1013 965 872Q1092 737 1092 519Q1092 276 948 124Q808 -23 602 -23Q367 -23 230 122Q101 258 101 486ZM317 733T297 664T276 515T294
358T352 222Q438 94 600 94Q752 94 836 194Q919 292 919 459Q919 755 750 857Q687 895 601 895T456 866T357 785ZM555 1561L797 1231L750 1191L395 1511L555 1561Z" />
<glyph unicode="&#xf3;" glyph-name="oacute" horiz-adv-x="1194" d="M101 486Q101 601 140 700T248 868Q388 1013 593 1013Q831 1013 965 872Q1092 737 1092 519Q1092 276 948 124Q808 -23 602 -23Q367 -23 230 122Q101 258 101 486ZM317 733T297 664T276 515T294
358T352 222Q438 94 600 94Q752 94 836 194Q919 292 919 459Q919 755 750 857Q687 895 601 895T456 866T357 785ZM798 1510L441 1190L394 1230L637 1560L798 1510Z" />
<glyph unicode="&#xf4;" glyph-name="ocircumflex" horiz-adv-x="1194" d="M101 486Q101 601 140 700T248 868Q388 1013 593 1013Q831 1013 965 872Q1092 737 1092 519Q1092 276 948 124Q808 -23 602 -23Q367 -23 230 122Q101 258 101 486ZM317 733T297 664T276
515T294 358T352 222Q438 94 600 94Q752 94 836 194Q919 292 919 459Q919 755 750 857Q687 895 601 895T456 866T357 785ZM602 1529L928 1261L872 1190L594 1392L319 1190L265 1254L602 1529Z" />
<glyph unicode="&#xf5;" glyph-name="otilde" horiz-adv-x="1194" d="M101 486Q101 601 140 700T248 868Q388 1013 593 1013Q831 1013 965 872Q1092 737 1092 519Q1092 276 948 124Q808 -23 602 -23Q367 -23 230 122Q101 258 101 486ZM317 733T297 664T276 515T294
358T352 222Q438 94 600 94Q752 94 836 194Q919 292 919 459Q919 755 750 857Q687 895 601 895T456 866T357 785ZM437 1346Q361 1346 291 1265L241 1296Q304 1384 379 1434Q418 1459 460 1459T541 1445T617 1414Q717 1369 779 1369T897 1449L951 1423Q901 1332
827 1282Q790 1256 747 1256T665 1270T587 1301Q485 1346 437 1346Z" />
<glyph unicode="&#xf6;" glyph-name="odieresis" horiz-adv-x="1194" d="M101 486Q101 601 140 700T248 868Q388 1013 593 1013Q831 1013 965 872Q1092 737 1092 519Q1092 276 948 124Q808 -23 602 -23Q367 -23 230 122Q101 258 101 486ZM317 733T297 664T276
515T294 358T352 222Q438 94 600 94Q752 94 836 194Q919 292 919 459Q919 755 750 857Q687 895 601 895T456 866T357 785ZM313 1174T300 1195T286 1235T298 1274T328 1314Q371 1359 398 1359T447 1347T487 1316Q529 1273 529 1246T517 1197T485 1158Q442 1116 417
1116T371 1127T332 1156ZM690 1174T677 1195T664 1235T675 1274T705 1314Q748 1359 775 1359T824 1347T864 1316Q906 1273 906 1246T894 1197T863 1158Q820 1116 794 1116T748 1127T709 1156Z" />
<glyph unicode="&#xf7;" glyph-name="divide" horiz-adv-x="1362" d="M579 306T565 328T551 370T563 411T595 454Q640 501 679 501Q720 501 751 468Q808 410 808 371Q808 334 776 302Q719 245 679 245Q645 245 612 275ZM579 1086T565 1108T551 1150T563 1191T595
1234Q640 1281 679 1281Q720 1281 751 1248Q808 1190 808 1161T795 1109T763 1068Q719 1024 679 1024Q644 1024 612 1055ZM1223 813V706H139V813H1223Z" />
<glyph unicode="&#xf8;" glyph-name="oslash" horiz-adv-x="1194" d="M575 -23Q448 -23 332 40L244 -83L167 -31L252 94Q89 233 89 478Q89 716 242 868Q386 1013 594 1013Q730 1013 853 956L925 1063L1005 1009L932 906Q1104 774 1104 519Q1104 278 954 124Q810
-23 575 -23ZM405 158Q489 94 583 94T739 120T844 194Q934 294 934 459Q934 584 878 712Q861 751 841 782L405 158ZM779 841Q697 895 606 895T453 866T349 784Q259 677 259 516Q259 347 345 216L779 841Z" />
<glyph unicode="&#xf9;" glyph-name="ugrave" horiz-adv-x="1194" d="M1128 42Q1019 -23 954 -23Q892 -23 862 2Q808 44 808 101V115Q722 42 630 10T469 -23Q329 -23 250 53T170 285V834L51 854V942L332 1013V285Q332 195 394 146Q445 106 514 106Q627 106 726
166Q771 192 808 227V834L657 854V937L970 1013V169Q970 115 1024 115Q1062 115 1107 136L1128 42ZM512 1561L754 1231L707 1191L352 1511L512 1561Z" />
<glyph unicode="&#xfa;" glyph-name="uacute" horiz-adv-x="1194" d="M1128 42Q1019 -23 954 -23Q892 -23 862 2Q808 44 808 101V115Q722 42 630 10T469 -23Q329 -23 250 53T170 285V834L51 854V942L332 1013V285Q332 195 394 146Q445 106 514 106Q627 106 726
166Q771 192 808 227V834L657 854V937L970 1013V169Q970 115 1024 115Q1062 115 1107 136L1128 42ZM755 1510L398 1190L351 1230L594 1560L755 1510Z" />
<glyph unicode="&#xfb;" glyph-name="ucircumflex" horiz-adv-x="1194" d="M1128 42Q1019 -23 954 -23Q892 -23 862 2Q808 44 808 101V115Q722 42 630 10T469 -23Q329 -23 250 53T170 285V834L51 854V942L332 1013V285Q332 195 394 146Q445 106 514 106Q627 106
726 166Q771 192 808 227V834L657 854V937L970 1013V169Q970 115 1024 115Q1062 115 1107 136L1128 42ZM559 1529L885 1261L829 1190L551 1392L276 1190L222 1254L559 1529Z" />
<glyph unicode="&#xfc;" glyph-name="udieresis" horiz-adv-x="1194" d="M1128 42Q1019 -23 954 -23Q892 -23 862 2Q808 44 808 101V115Q722 42 630 10T469 -23Q329 -23 250 53T170 285V834L51 854V942L332 1013V285Q332 195 394 146Q445 106 514 106Q627 106
726 166Q771 192 808 227V834L657 854V937L970 1013V169Q970 115 1024 115Q1062 115 1107 136L1128 42ZM270 1174T257 1195T243 1235T255 1274T285 1314Q328 1359 355 1359T404 1347T444 1316Q486 1273 486 1246T474 1197T442 1158Q399 1116 374 1116T328 1127T289
1156ZM647 1174T634 1195T621 1235T632 1274T662 1314Q705 1359 732 1359T781 1347T821 1316Q863 1273 863 1246T851 1197T820 1158Q777 1116 751 1116T705 1127T666 1156Z" />
<glyph unicode="&#xfd;" glyph-name="yacute" horiz-adv-x="1030" d="M131 -247Q131 -345 218 -345Q270 -345 310 -284Q320 -267 326 -250L438 -2Q104 783 65 883L-72 906V989H374V906L250 883L528 209L822 888L688 906V989H1081V906L944 883L442 -260Q420 -332
373 -384Q283 -485 218 -485Q122 -485 25 -442L79 -247H131ZM743 1510L386 1190L339 1230L582 1560L743 1510Z" />
<glyph unicode="&#xfe;" glyph-name="thorn" horiz-adv-x="1195" d="M623 -23Q490 -23 365 45V-454L492 -477V-560H72V-477L202 -454V1483L72 1508V1589L365 1663V883Q553 1013 699 1013Q901 1013 1018 872Q1130 736 1130 519Q1130 298 1001 144Q862 -23 623 -23ZM657
883Q508 883 365 780V209Q451 94 638 94Q785 94 872 209Q956 320 956 497Q956 762 792 852Q735 883 657 883Z" />
<glyph unicode="&#xff;" glyph-name="ydieresis" horiz-adv-x="1030" d="M131 -247Q131 -345 218 -345Q270 -345 310 -284Q320 -267 326 -250L438 -2Q104 783 65 883L-72 906V989H374V906L250 883L528 209L822 888L688 906V989H1081V906L944 883L442 -260Q420
-332 373 -384Q283 -485 218 -485Q122 -485 25 -442L79 -247H131ZM258 1174T245 1195T231 1235T243 1274T273 1314Q316 1359 343 1359T392 1347T432 1316Q474 1273 474 1246T462 1197T430 1158Q387 1116 362 1116T316 1127T277 1156ZM635 1174T622 1195T609 1235T620
1274T650 1314Q693 1359 720 1359T769 1347T809 1316Q851 1273 851 1246T839 1197T808 1158Q765 1116 739 1116T693 1127T654 1156Z" />
<glyph unicode="&#x2013;" glyph-name="endash" horiz-adv-x="1367" d="M175 660H1184V530H174L175 660Z" />
<glyph unicode="&#x2014;" glyph-name="emdash" horiz-adv-x="2557" d="M176 660H2381V530H175L176 660Z" />
<glyph unicode="&#x2018;" glyph-name="quoteleft" horiz-adv-x="512" d="M294 1698T267 1652T239 1562T257 1501T296 1473T336 1446T354 1413T343 1372T312 1328Q266 1279 221 1279Q182 1279 151 1311Q97 1368 97 1418T109 1520T142 1613Q177 1686 240 1747T385
1845L415 1789Q366 1764 330 1731Z" />
<glyph unicode="&#x2019;" glyph-name="quoteright" horiz-adv-x="512" d="M266 1209Q274 1236 274 1265T256 1310T216 1340T176 1367T158 1400T170 1441T200 1484Q245 1533 290 1533Q328 1533 360 1502Q415 1446 415 1395T403 1293T370 1200Q335 1127 272 1066T128
968L97 1022Q234 1092 266 1209Z" />
<glyph unicode="&#x201a;" glyph-name="quotesinglbase" horiz-adv-x="512" d="M266 -114Q274 -87 274 -58T256 -13T216 16T176 43T158 76T170 117T200 160Q245 209 290 209Q328 209 360 178Q415 122 415 71T403 -32T370 -125Q334 -201 271 -260T128 -355L97 -301Q233
-234 266 -114Z" />
<glyph unicode="&#x201c;" glyph-name="quotedblleft" horiz-adv-x="1028" d="M762 1698T735 1652T707 1562T725 1501T765 1473T805 1446T823 1413T811 1372T780 1328Q736 1279 691 1279Q652 1279 621 1311Q566 1368 566 1418T578 1520T610 1613Q688 1772 853
1845L884 1789Q834 1764 798 1731ZM341 1698T314 1652T286 1562T304 1501T343 1473T383 1446T401 1413T390 1372T359 1328Q313 1279 268 1279Q229 1279 198 1311Q144 1368 144 1418T156 1520T189 1613Q224 1686 287 1747T432 1845L462 1789Q413 1764 377 1731Z"
/>
<glyph unicode="&#x201d;" glyph-name="quotedblright" horiz-adv-x="1028" d="M314 1209Q321 1236 321 1265T303 1310T263 1340T223 1367T205 1400T217 1441T248 1484Q292 1533 337 1533Q375 1533 406 1502Q462 1446 462 1395T450 1293T417 1200Q382 1127 319
1066T175 968L144 1022Q281 1092 314 1209ZM734 1209Q742 1236 742 1265T724 1310T685 1340T645 1367T627 1400T638 1441T669 1484Q715 1533 758 1533Q797 1533 828 1502Q884 1446 884 1395T872 1293T839 1200Q804 1127 741 1066T596 968L566 1022Q702 1091 734
1209Z" />
<glyph unicode="&#x201e;" glyph-name="quotedblbase" horiz-adv-x="1028" d="M314 -114Q321 -87 321 -58T303 -13T263 16T223 43T205 76T217 117T248 160Q292 209 337 209Q375 209 406 178Q462 122 462 71T450 -32T417 -125Q381 -201 318 -260T175 -355L144 -301Q280
-234 314 -114ZM714 -164Q742 -118 742 -74T724 -13T685 16T645 43T627 76T638 117T669 160Q715 209 758 209Q797 209 828 178Q884 122 884 71T872 -32T839 -125Q803 -201 740 -260T596 -355L566 -301Q661 -254 714 -164Z" />
<glyph unicode="&#x2022;" glyph-name="bullet" horiz-adv-x="512" d="M91 558Q91 625 140 672Q188 719 256 719Q323 719 372 672Q421 624 421 558Q421 492 372 444Q323 398 273 398T192 410T140 444Q91 491 91 558Z" />
<glyph unicode="&#x2039;" glyph-name="guilsinglleft" horiz-adv-x="682" d="M496 906L570 831L359 596L237 474L356 355L575 117L496 38L107 474L496 906Z" />
<glyph unicode="&#x203a;" glyph-name="guilsinglright" horiz-adv-x="682" d="M575 474L187 38L107 117L325 355L446 474L323 596L111 831L187 906L575 474Z" />
</font>
</defs>
</svg>
