<?xml version="1.0" standalone="no"?>
<!DOCTYPE svg PUBLIC "-//W3C//DTD SVG 1.1//EN" "http://www.w3.org/Graphics/SVG/1.1/DTD/svg11.dtd">
<svg xmlns="http://www.w3.org/2000/svg">
<defs >
<font id="AnonymousPro" horiz-adv-x="1118" ><font-face
    font-family="Anonymous Pro"
    units-per-em="2048"
    panose-1="2 6 8 9 3 2 2 0 5 4"
    ascent="1675"
    descent="-373"
    alphabetic="0" />
<glyph unicode=" " glyph-name="space" />
<glyph unicode="!" glyph-name="exclam" d="M780 1305L530 373H360L508 1305H780ZM494 0H242L295 252H547L494 0Z" />
<glyph unicode="&quot;" glyph-name="quotedbl" d="M954 1305L803 805H645L707 1305H954ZM582 1305L430 805H272L334 1305H582Z" />
<glyph unicode="#" glyph-name="numbersign" d="M874 187H688L647 1H461L502 187H315L274 1H88L129 187H-58L-19 373H168L207 560H20L61 746H248L287 933H473L434 746H620L659 933H846L807 746H993L952 560H766L727 373H913L874 187ZM540 373L579 560H393L354 373H540Z" />
<glyph unicode="$" glyph-name="dollar" d="M270 -16Q100 6 22 110T-41 373L158 403Q154 211 309 172L403 610Q344 637 287 667T190 743T134 848T135 993Q162 1120 272 1210T555 1321L590 1491H776L739 1317Q817 1303 872 1268T962 1183T1009 1071T1012 940L813
918Q825 1083 698 1126L621 752Q682 725 741 692T843 611T903 498T903 340Q889 274 851 215T756 108T623 28T457 -16L420 -186H233L270 -16ZM696 340Q711 412 674 456T573 535L496 172Q575 186 627 227T696 340ZM342 995Q330 936 361 897T449 827L514 1133Q444
1120 399 1087T342 995Z" />
<glyph unicode="%" glyph-name="percent" d="M1122 1257L10 -41L-106 47L1008 1350L1122 1257ZM104 1073Q115 1124 145 1171T217 1252T308 1306T412 1327Q463 1327 506 1307T575 1253T612 1172T612 1073Q600 1020 571 974T500 894T408 840T305 819Q252 819 210
839T142 894T104 974T104 1073ZM254 1075Q246 1032 269 1002T336 971Q379 971 417 1001T463 1075Q473 1118 449 1149T381 1180Q338 1180 301 1149T254 1075ZM403 231Q414 283 444 330T516 410T607 464T711 485Q762 485 805 465T874 411T911 330T911 231Q899 178
869 132T797 52T705 -2T602 -23Q549 -23 507 -3T439 52T402 132T403 231ZM553 233Q543 190 567 160T635 129Q678 129 715 159T762 233Q770 276 747 307T680 338Q637 338 599 307T553 233Z" />
<glyph unicode="&amp;" glyph-name="ampersand" d="M977 565Q946 492 900 415T791 266L918 121L758 -27L639 119Q553 53 459 15T260 -23Q178 -23 113 5T5 81T-53 193T-53 334Q-25 465 40 548T186 690Q145 762 130 834T131 991Q147 1067 187 1129T280 1236T398
1303T530 1327Q598 1327 653 1307T744 1248T793 1156T793 1032Q778 965 744 912T662 815T559 736T451 668L678 399Q713 449 742 503T799 612L977 565ZM315 164Q375 164 429 186T535 248L287 553H285Q240 514 206 466T160 358Q141 272 186 218T315 164ZM338 991Q328
936 328 892T354 797Q397 821 435 845T504 899T556 961T586 1036Q596 1083 571 1112T500 1141Q440 1141 396 1098T338 991Z" />
<glyph unicode="&apos;" glyph-name="quotesingle" d="M768 1305L616 805H459L520 1305H768Z" />
<glyph unicode="(" glyph-name="parenleft" d="M395 567Q371 453 373 339T401 121T480 -77T608 -242L455 -369Q367 -285 307 -179T215 49T182 301T209 567Q238 702 296 833T436 1085T623 1312T854 1503L952 1376Q846 1305 755 1212T592 1014T470 796T395 567Z" />
<glyph unicode=")" glyph-name="parenright" d="M582 565Q606 680 605 793T577 1011T498 1209T369 1374L522 1501Q612 1417 670 1311T761 1084T795 832T768 565Q739 430 682 299T542 47T355 -180T125 -371L25 -244Q133 -172 224 -79T387 118T508 337T582 565Z" />
<glyph unicode="*" glyph-name="asterisk" d="M563 591L889 787L950 613L608 466L887 320L751 146L512 343L467 1H268L371 343L45 146L-17 320L323 466L47 613L182 787L422 591L467 933H665L563 591Z" />
<glyph unicode="+" glyph-name="plus" d="M915 385H543L463 13H276L356 385H-16L22 572H395L475 944H661L582 572H954L915 385Z" />
<glyph unicode="," glyph-name="comma" d="M621 186L227 -373H70L375 186H621Z" />
<glyph unicode="-" glyph-name="hyphen" d="M915 385H-16L22 572H954L915 385Z" />
<glyph unicode="." glyph-name="period" d="M494 0H242L295 252H547L494 0Z" />
<glyph unicode="/" glyph-name="slash" d="M969 1366L1106 1290L12 -252L-123 -176L969 1366Z" />
<glyph unicode="0" glyph-name="zero" d="M6 653Q35 784 88 906T221 1121T407 1270T649 1327Q784 1327 868 1271T992 1121T1033 906T1006 653Q979 522 926 401T794 185T608 34T362 -23Q225 -23 142 33T20 184T-20 400T6 653ZM213 653Q195 561 188 475L809 989Q788
1057 742 1099T610 1141Q467 1141 365 1012T213 653ZM403 164Q492 164 556 207T669 319T748 477T799 653Q817 737 821 817L205 307Q227 242 272 203T403 164Z" />
<glyph unicode="1" glyph-name="one" d="M680 0H53L92 186H303L461 928Q436 879 393 841T297 778T182 739T55 725L98 932Q166 932 235 954T365 1023T473 1138T541 1305H748L510 186H719L680 0Z" />
<glyph unicode="2" glyph-name="two" d="M1008 948Q987 856 918 760T743 578L254 186H637L674 365H860L784 0H-55L-14 195L618 698Q700 768 744 829T801 948Q811 999 800 1036T763 1096T701 1130T625 1141Q502 1141 416 1069T299 856H104Q152 1077 296 1202T664
1327Q748 1327 819 1303T939 1231T1006 1112T1008 948Z" />
<glyph unicode="3" glyph-name="three" d="M895 354Q877 268 828 199T710 80T558 4T391 -23Q297 -23 220 3T92 81T20 215T14 410L215 442Q199 313 257 239T432 164Q530 164 600 216T688 354Q713 471 649 521T393 571L432 758Q500 758 560 771T669 810T749 872T793
958Q809 1040 771 1090T639 1141Q516 1141 436 1075T326 862H129Q154 977 205 1064T327 1209T488 1297T678 1327Q762 1327 829 1302T941 1228T1001 1112T999 958Q987 903 960 854T891 767T797 706T684 678Q750 672 796 643T868 570T901 470T895 354Z" />
<glyph unicode="4" glyph-name="four" d="M834 0H207L246 186H455L489 348H-25L14 535L655 1305H897L733 535H946L907 348H694L659 186H872L834 0ZM528 535L641 1061L201 535H528Z" />
<glyph unicode="5" glyph-name="five" d="M936 438Q915 342 859 258T723 112T548 13T356 -23Q262 -23 189 5T66 85T-5 213T-12 387L190 416Q176 303 225 234T397 164Q461 164 514 185T610 244T682 331T723 438Q752 569 700 642T537 715Q465 715 399 685T283 588H76L227
1305H1044L1006 1118H395L322 780Q440 901 616 901Q700 901 769 869T883 777T943 631T936 438Z" />
<glyph unicode="6" glyph-name="six" d="M944 444Q920 336 867 250T738 104T570 10T381 -23Q233 -23 151 33T32 183T-1 398T31 651Q59 784 117 906T264 1122T465 1272T717 1327Q815 1327 896 1298T1030 1210L885 1059Q844 1104 794 1122T678 1141Q594 1141 522
1107T392 1012T294 866T231 682Q285 786 385 852T627 918Q711 918 778 882T890 784T949 634T944 444ZM737 444Q762 567 713 650T537 733Q414 733 324 657T207 455Q193 393 198 341T228 249T302 187T424 164Q535 164 622 237T737 444Z" />
<glyph unicode="7" glyph-name="seven" d="M1071 1118Q920 985 819 867T649 620T531 343T440 0H229Q268 182 323 332T455 616T638 871T889 1118H373L326 899H141L227 1305H1110L1071 1118Z" />
<glyph unicode="8" glyph-name="eight" d="M920 367Q897 264 845 192T718 71T551 0T360 -23Q260 -23 179 0T44 71T-31 191T-31 367Q-20 420 10 474T88 574T193 651T317 690Q264 696 227 725T169 794T141 880T143 969Q162 1057 211 1124T329 1237T481 1304T647
1327Q731 1327 805 1305T928 1237T997 1125T999 969Q991 926 965 880T900 794T812 725T705 690Q766 682 812 652T884 575T920 474T920 367ZM791 956Q809 1042 761 1091T608 1141Q504 1141 436 1092T348 956Q330 874 374 827T530 780Q643 780 707 827T791 956ZM715
379Q727 438 714 479T670 545T593 582T492 594Q436 594 386 583T293 546T220 479T178 379Q166 324 179 283T223 215T300 176T401 164Q457 164 507 176T600 215T672 283T715 379Z" />
<glyph unicode="9" glyph-name="nine" d="M68 860Q90 969 144 1055T273 1201T440 1294T629 1327Q776 1327 860 1271T979 1120T1011 905T979 653Q950 520 892 398T747 182T545 33T293 -23Q195 -23 114 7T-20 94L125 246Q166 201 217 183T334 164Q418 164 490 197T619
292T717 438T778 623Q725 518 626 453T385 387Q301 387 233 423T120 521T61 671T68 860ZM274 860Q248 737 298 654T475 571Q598 571 688 648T805 850Q817 911 812 963T782 1056T709 1118T588 1141Q477 1141 390 1067T274 860Z" />
<glyph unicode=":" glyph-name="colon" d="M637 680H385L438 932H690L637 680ZM494 0H242L295 252H547L494 0Z" />
<glyph unicode=";" glyph-name="semicolon" d="M637 680H385L438 932H690L637 680ZM621 186L227 -373H70L375 186H621Z" />
<glyph unicode="&lt;" glyph-name="less" d="M749 88L604 -32L203 480L823 992L915 871L442 480L749 88Z" />
<glyph unicode="=" glyph-name="equal" d="M954 572H22L61 758H993L954 572ZM874 199H-57L-16 385H915L874 199Z" />
<glyph unicode="&gt;" glyph-name="greater" d="M498 480L188 871L334 992L737 480L115 -32L22 88L498 480Z" />
<glyph unicode="?" glyph-name="question" d="M1024 1004Q1008 930 970 875T883 772T778 683T673 596T586 497T532 373H319Q338 455 378 519T470 636T577 732T683 819T769 907T817 1006Q831 1071 800 1106T702 1141Q604 1141 548 1087T461 936L274 965Q328 1133
445 1230T739 1327Q905 1327 980 1239T1024 1004ZM494 0H242L295 252H547L494 0Z" />
<glyph unicode="@" glyph-name="at" d="M1013 684Q998 616 972 546T906 420T809 327T679 291Q652 291 628 301T587 331T563 378T562 437L565 447Q549 414 526 386T476 336T418 303T355 291Q294 291 259 320T208 397T195 506T212 631Q227 705 258 772T332 891T429
973T544 1004Q562 1004 580 998T612 980T635 948T647 904L664 985H825L720 490Q713 458 720 444T745 430Q767 430 786 450T823 504T855 585T881 684Q903 789 903 884T876 1051T786 1165T624 1208Q523 1208 444 1165T305 1046T204 870T138 651Q114 536 112 435T137
259T226 141T388 97Q470 97 541 126T676 204L714 106Q559 -23 363 -23Q271 -23 204 2T91 74T19 183T-16 321T-19 480T6 651Q34 784 87 906T220 1122T407 1271T650 1327Q740 1327 807 1302T920 1231T992 1125T1029 993T1035 843T1013 684ZM624 796Q614 834 592 850T545
866Q515 866 489 848T442 799T405 724T379 632Q367 578 366 542T373 483T397 452T436 443Q461 443 486 460T531 506T567 568T590 638L624 796Z" />
<glyph unicode="A" glyph-name="A" d="M678 0L649 311H217L59 0H-158L526 1305H764L895 0H678ZM311 494H633L588 1032L311 494Z" />
<glyph unicode="B" glyph-name="B" d="M907 358Q868 180 729 90T367 0H-49L227 1305H621Q702 1305 778 1292T908 1241T988 1138T991 965Q969 866 902 784T725 666Q842 627 888 557T907 358ZM780 938Q793 995 779 1031T735 1086T665 1112T582 1118H395L317 758H504Q547
758 590 764T671 789T738 845T780 938ZM707 379Q727 477 669 524T487 571H279L197 186H406Q528 186 607 233T707 379Z" />
<glyph unicode="C" glyph-name="C" d="M938 399Q893 303 837 225T711 92T558 7T377 -23Q240 -23 157 33T33 184T-8 400T18 653Q47 784 99 906T231 1121T414 1270T651 1327Q694 1327 736 1316T811 1283T865 1227T891 1151L924 1305H1110L1006 811H819Q831 872 828
931T803 1037T736 1112T625 1141Q537 1141 472 1098T358 985T277 828T225 653Q207 565 202 477T214 320T280 207T418 164Q545 164 630 245T786 463L938 399Z" />
<glyph unicode="D" glyph-name="D" d="M1014 653Q987 522 934 404T802 196T617 53T375 0H-49L227 1305H651Q784 1305 868 1252T993 1109T1038 902T1014 653ZM807 653Q856 879 805 998T612 1118H395L197 186H414Q555 186 657 308T807 653Z" />
<glyph unicode="E" glyph-name="E" d="M784 0H-49L227 1305H1061L1022 1118H395L317 758H807L768 571H279L197 186H823L784 0Z" />
<glyph unicode="F" glyph-name="F" d="M1022 1118H395L317 758H807L768 571H279L158 0H-49L227 1305H1061L1022 1118Z" />
<glyph unicode="G" glyph-name="G" d="M1022 649Q993 516 941 395T809 181T622 33T377 -23Q240 -23 157 33T33 183T-9 398T18 651Q47 782 99 904T232 1120T419 1270T664 1327Q702 1327 741 1316T812 1283T865 1227T891 1151L924 1305H1110L1012 842H825Q838 903
831 957T797 1053T726 1117T625 1141Q537 1141 472 1097T357 983T276 826T225 651Q207 563 202 476T214 320T280 207T418 164Q545 164 639 245T799 496H524L563 682H1028L1022 649Z" />
<glyph unicode="H" glyph-name="H" d="M784 0H578L698 571H279L158 0H-49L227 1305H434L317 758H737L854 1305H1061L784 0Z" />
<glyph unicode="I" glyph-name="I" d="M684 0H57L96 186H303L502 1118H295L334 1305H961L922 1118H709L510 186H723L684 0Z" />
<glyph unicode="J" glyph-name="J" d="M889 498Q836 250 702 114T350 -23Q176 -23 78 68T-29 342L172 412Q176 295 228 230T391 164Q459 164 507 191T590 265T646 371T682 498L854 1305H1061L889 498Z" />
<glyph unicode="K" glyph-name="K" d="M827 0H586L373 608L264 506L158 0H-49L227 1305H434L326 793L840 1305H1106L537 764L827 0Z" />
<glyph unicode="L" glyph-name="L" d="M784 0H-49L227 1305H434L197 186H823L784 0Z" />
<glyph unicode="M" glyph-name="M" d="M784 0H578L764 883L532 414H373L344 883L158 0H-49L227 1305H473L518 715L813 1305H1061L784 0Z" />
<glyph unicode="N" glyph-name="N" d="M784 0H545L358 946L158 0H-49L227 1305H487L664 406L854 1305H1061L784 0Z" />
<glyph unicode="O" glyph-name="O" d="M6 653Q35 784 88 906T221 1121T407 1270T649 1327Q784 1327 868 1271T992 1121T1033 906T1006 653Q979 522 926 401T794 185T608 34T362 -23Q225 -23 142 33T20 184T-20 400T6 653ZM213 653Q195 565 190 477T201 320T267
207T403 164Q492 164 556 207T669 319T748 477T799 653Q817 741 823 828T811 985T745 1098T610 1141Q467 1141 365 1012T213 653Z" />
<glyph unicode="P" glyph-name="P" d="M1028 915Q985 719 846 624T494 528H268L158 0H-49L227 1305H657Q872 1305 969 1207T1028 915ZM821 918Q842 1018 788 1068T621 1118H395L309 715H535Q647 715 723 765T821 918Z" />
<glyph unicode="Q" glyph-name="Q" d="M6 653Q35 784 88 906T221 1121T407 1270T649 1327Q784 1327 868 1271T992 1121T1033 906T1006 653Q981 532 936 421T823 219T664 67T459 -14Q449 -113 512 -149T709 -186Q727 -186 748 -185T793 -184L754 -369Q725 -371
699 -372T647 -373Q444 -373 338 -281T246 -8Q147 16 88 78T3 230T-21 428T6 653ZM213 653Q195 565 190 477T201 320T267 207T403 164Q492 164 556 207T669 319T748 477T799 653Q817 741 823 828T811 985T745 1098T610 1141Q467 1141 365 1012T213 653Z" />
<glyph unicode="R" glyph-name="R" d="M852 0H590L362 528H268L158 0H-49L227 1305H657Q872 1305 969 1207T1028 915Q1010 829 969 764T870 651T741 577T592 539L852 0ZM821 918Q842 1018 788 1068T618 1118H395L309 715H532Q647 715 723 765T821 918Z" />
<glyph unicode="S" glyph-name="S" d="M877 358Q856 268 811 198T703 78T561 3T401 -23Q309 -23 243 10T139 119L115 0H-72L18 426H205Q190 362 202 313T244 231T319 180T420 162Q512 162 578 205T666 342Q676 391 666 426T629 488T559 536T463 580Q395 604 331
634T220 708T153 816T152 979Q170 1065 215 1129T322 1238T458 1304T610 1327Q700 1327 756 1289T836 1188L860 1305H1047L961 899H774Q799 1014 752 1078T602 1143Q512 1143 444 1101T360 983Q350 944 360 917T395 867T461 825T557 782Q625 756 690 723T804 642T874
526T877 358Z" />
<glyph unicode="T" glyph-name="T" d="M1008 829H823L885 1118H709L510 186H717L678 0H57L96 186H303L502 1118H324L262 829H78L178 1305H1108L1008 829Z" />
<glyph unicode="U" glyph-name="U" d="M883 465Q858 354 815 264T707 111T555 12T360 -23Q252 -23 182 12T74 110T31 265T49 467L227 1305H434L256 465Q246 416 242 364T249 266T297 193T401 164Q469 164 516 192T596 265T647 362T676 465L854 1305H1061L883 465Z" />
<glyph unicode="V" glyph-name="V" d="M1169 1305L485 0H250L119 1305H336L426 272L952 1305H1169Z" />
<glyph unicode="W" glyph-name="W" d="M1174 1305L694 0H481L485 563L254 0H41L115 1305H330L264 426L465 932H664L649 426L958 1305H1174Z" />
<glyph unicode="X" glyph-name="X" d="M854 0H428L467 186H541L465 481L266 186H340L301 0H-121L-82 186H31L385 659L233 1118H139L178 1305H592L553 1118H469L541 829L737 1118H655L694 1305H1110L1071 1118H971L623 659L776 186H893L854 0Z" />
<glyph unicode="Y" glyph-name="Y" d="M1092 1118H997L584 532L510 186H719L680 0H55L94 186H303L377 532L213 1118H119L158 1305H569L530 1118H440L524 735L770 1118H680L719 1305H1130L1092 1118Z" />
<glyph unicode="Z" glyph-name="Z" d="M784 0H-49L-10 184L772 1118H375L313 834H127L227 1305H1044L1006 1118L240 186H641L702 473H885L784 0Z" />
<glyph unicode="[" glyph-name="bracketleft" d="M629 -373H195L590 1491H1024L985 1305H737L420 -186H668L629 -373Z" />
<glyph unicode="\" glyph-name="backslash" d="M795 -176L625 -252L186 1290L356 1366L795 -176Z" />
<glyph unicode="]" glyph-name="bracketright" d="M381 -373H-53L-14 -186H233L551 1305H303L342 1491H776L381 -373Z" />
<glyph unicode="^" glyph-name="asciicircum" d="M1015 559H787L607 1121L189 559H-39L522 1305H770L1015 559Z" />
<glyph unicode="_" glyph-name="underscore" d="M794 -186H-137L-98 0H834L794 -186Z" />
<glyph unicode="`" glyph-name="grave" d="M543 1405L887 1118L768 981L389 1225L543 1405Z" />
<glyph unicode="a" glyph-name="a" d="M-47 268Q-29 350 28 411T166 514T342 575T535 596Q588 596 626 594T702 588L709 625Q725 698 676 734T535 770Q451 770 360 747T180 678L131 840Q233 893 346 923T575 954Q651 954 721 937T841 881T912 780T913 625L782
0H578L606 137Q541 61 437 19T221 -23Q154 -23 98 -5T5 51T-46 142T-47 268ZM313 162Q375 162 431 177T534 220T613 287T655 373L664 408Q616 416 573 417T498 418Q346 418 260 378T160 279Q135 162 313 162Z" />
<glyph unicode="b" glyph-name="b" d="M227 1305H434L336 848Q408 901 474 927T618 954Q709 954 777 918T888 817T942 662T932 465Q909 358 858 268T739 114T585 13T410 -23Q332 -23 278 5T174 86L158 0H-49L227 1305ZM209 248Q238 207 291 186T397 164Q514 164
605 247T725 465Q754 600 698 684T524 768Q471 768 410 747T301 684L209 248Z" />
<glyph unicode="c" glyph-name="c" d="M825 133Q717 43 611 10T387 -23Q270 -23 182 12T42 110T-27 264T-20 465Q2 571 57 661T186 816T350 917T532 954Q629 954 690 914T768 797L797 932H981L889 498H705Q731 621 679 694T518 768Q475 768 425 751T327 696T241
602T186 465Q170 387 182 331T227 238T312 183T424 164Q524 164 605 195T750 279L825 133Z" />
<glyph unicode="d" glyph-name="d" d="M784 0H578L594 86Q524 33 457 5T311 -23Q221 -23 153 13T42 113T-12 268T-2 465Q20 571 71 661T191 816T345 917T520 954Q598 954 653 928T756 848L815 1118H635L674 1305H1061L784 0ZM721 684Q694 725 640 746T532 768Q416
768 325 684T205 465Q176 330 232 247T406 164Q459 164 521 185T629 248L721 684Z" />
<glyph unicode="e" glyph-name="e" d="M174 387Q168 291 231 228T424 164Q524 164 605 195T750 279L825 133Q717 43 610 10T383 -23Q274 -23 189 13T50 113T-24 267T-20 465Q2 571 56 660T189 815T366 917T573 954Q686 954 769 916T902 804T966 626T954 387H174ZM760
569Q762 659 697 713T532 768Q434 768 345 714T221 569H760Z" />
<glyph unicode="f" glyph-name="f" d="M991 745H629L510 186H723L684 0H57L96 186H303L422 745H215L254 932H461Q502 1124 641 1225T981 1327Q1012 1327 1045 1324T1112 1317L1073 1135Q1016 1141 967 1141Q887 1141 836 1130T751 1093T699 1027T668 932H1030L991 745Z" />
<glyph unicode="g" glyph-name="g" d="M786 10Q766 -86 717 -161T597 -288T439 -367T254 -395Q10 -395 -127 -248L2 -88Q121 -211 295 -211Q401 -211 477 -159T578 6L600 106Q524 51 459 25T315 -2Q225 -2 157 36T47 139T-7 292T0 477Q20 575 70 662T190 814T345
916T520 954Q598 954 653 928T756 848L774 932H981L786 10ZM721 684Q694 725 640 746T530 768Q414 768 324 686T207 477Q193 414 201 361T235 268T306 207T408 184Q463 184 525 206T635 270L721 684Z" />
<glyph unicode="h" glyph-name="h" d="M784 0H578L698 575Q721 684 689 726T580 768Q465 768 373 675T246 418L158 0H-49L227 1305H434L305 698Q362 819 460 886T682 954Q825 954 885 861T905 575L784 0Z" />
<glyph unicode="i" glyph-name="i" d="M717 1053H465L518 1305H770L717 1053ZM684 0H57L96 186H303L422 745H215L254 932H668L510 186H723L684 0Z" />
<glyph unicode="j" glyph-name="j" d="M160 -395Q-53 -395 -147 -236L2 -98Q39 -154 86 -181T201 -209Q305 -209 367 -152T451 0L608 745H397L436 932H854L657 0Q637 -90 592 -163T482 -288T334 -367T160 -395ZM903 1053H651L705 1305H956L903 1053Z" />
<glyph unicode="k" glyph-name="k" d="M831 0H563L332 377L217 281L158 0H-49L227 1305H434L270 537L727 932H1012L492 504L831 0Z" />
<glyph unicode="l" glyph-name="l" d="M686 0H59L98 186H303L502 1118H297L336 1305H748L510 186H725L686 0Z" />
<glyph unicode="m" glyph-name="m" d="M834 0H627L762 639Q776 705 769 736T727 768Q666 768 635 699T575 496L471 0H264L399 639Q414 705 406 736T362 768Q301 768 272 699T213 496L109 0H-98L98 932H307L279 797Q317 874 369 914T494 954Q553 954 585 918T618
817Q670 887 715 920T838 954Q934 954 970 884T975 670L834 0Z" />
<glyph unicode="n" glyph-name="n" d="M784 0H578L698 575Q721 684 689 726T580 768Q465 768 373 675T246 418L158 0H-49L147 932H354L305 698Q362 819 460 886T682 954Q825 954 885 861T905 575L784 0Z" />
<glyph unicode="o" glyph-name="o" d="M956 465Q932 356 879 267T748 114T572 13T362 -23Q254 -23 172 13T39 113T-28 267T-20 465Q2 571 56 661T188 817T364 918T571 954Q682 954 764 919T897 818T963 662T956 465ZM750 465Q762 528 755 584T719 681T643 744T530
768Q465 768 408 745T306 681T231 585T186 465Q172 399 180 345T215 250T290 187T403 164Q469 164 525 186T628 250T704 345T750 465Z" />
<glyph unicode="p" glyph-name="p" d="M147 932H354L336 848Q408 901 474 927T618 954Q709 954 777 918T888 817T942 662T932 465Q909 358 858 268T739 114T585 13T410 -23Q332 -23 278 5T174 86L78 -373H-127L147 932ZM209 250Q238 209 291 187T397 164Q514 164
605 247T725 465Q754 600 698 684T524 768Q471 768 410 747T301 684L209 250Z" />
<glyph unicode="q" glyph-name="q" d="M705 -373H498L594 86Q524 33 457 5T311 -23Q221 -23 153 13T42 113T-12 268T-2 465Q20 571 71 661T191 816T345 917T520 954Q598 954 653 928T756 848L774 932H981L705 -373ZM721 684Q694 725 640 746T532 768Q416 768 325
684T205 465Q176 330 232 247T406 164Q459 164 521 185T629 248L721 684Z" />
<glyph unicode="r" glyph-name="r" d="M961 711Q928 729 891 738T805 748Q735 748 671 728T553 666T463 564T408 418L358 186H567L528 0H-98L-59 186H152L270 745H59L98 932H516L467 698Q547 838 659 896T909 954Q952 954 997 945T1081 913L961 711Z" />
<glyph unicode="s" glyph-name="s" d="M866 279Q848 188 795 131T670 39T515 -9T356 -23Q229 -23 112 14T-86 111L37 281Q133 217 219 191T397 164Q522 164 584 190T657 264Q662 287 649 302T601 329T510 354T365 381Q295 393 235 410T132 460T71 541T66 664Q82
739 133 794T254 886T405 938T565 954Q676 954 773 926T936 844L819 684Q754 733 683 750T524 768Q487 768 447 764T370 749T308 718T274 670Q266 633 326 610T541 563Q625 551 691 533T802 483T864 402T866 279Z" />
<glyph unicode="t" glyph-name="t" d="M905 297Q858 150 741 64T473 -23Q391 -23 330 4T231 79T181 194T184 342L270 745H59L98 932H309L389 1305H596L516 932H907L868 745H477L391 342Q373 252 407 208T514 164Q602 164 655 215T733 338L905 297Z" />
<glyph unicode="u" glyph-name="u" d="M147 932H354L231 356Q209 248 241 206T352 164Q467 164 559 257T686 514L774 932H981L784 0H578L627 233Q569 113 471 45T250 -23Q106 -23 46 70T25 356L147 932Z" />
<glyph unicode="v" glyph-name="v" d="M1030 932L489 0H246L98 932H319L416 227L809 932H1030Z" />
<glyph unicode="w" glyph-name="w" d="M1059 932L723 0H467L487 561L268 0H12L70 932H272L223 309L455 932H674L643 309L856 932H1059Z" />
<glyph unicode="x" glyph-name="x" d="M856 0H414L453 186H535L449 381L283 186H358L319 0H-119L-80 186H55L326 473L184 745H59L98 932H518L479 745H414L487 565L641 745H567L606 932H1030L991 745H870L614 473L762 186H895L856 0Z" />
<glyph unicode="y" glyph-name="y" d="M1022 932L385 -182Q313 -303 218 -348T4 -393Q-37 -393 -82 -385T-174 -358L-92 -168Q-53 -184 -19 -190T45 -197Q137 -197 190 -115L246 -25L92 932H307L414 227L801 932H1022Z" />
<glyph unicode="z" glyph-name="z" d="M784 0H-49L-10 184L639 745H291L250 557H68L147 932H963L924 745L272 186H641L680 371H862L784 0Z" />
<glyph unicode="{" glyph-name="braceleft" d="M627 -373H473Q412 -373 365 -353T289 -294T251 -205T254 -92L344 334Q362 416 321 440T186 465L225 651Q317 651 369 674T440 782L530 1208Q543 1270 574 1321T651 1410T751 1469T868 1491H1022L983 1305H829Q776
1305 752 1284T717 1208L627 782Q606 688 537 630T389 557Q426 551 455 534T504 487T532 418T530 334L440 -92Q428 -145 443 -166T512 -188H666L627 -373Z" />
<glyph unicode="|" glyph-name="bar" d="M420 -186H233L590 1491H776L420 -186Z" />
<glyph unicode="}" glyph-name="braceright" d="M-12 -188H141Q195 -188 218 -167T254 -92L346 338Q354 383 378 422T435 490T505 537T582 561Q510 575 465 633T440 786L530 1212Q543 1266 528 1285T459 1305H305L344 1491H498Q559 1491 606 1471T682 1413T721
1325T717 1212L627 786Q608 702 651 679T786 655L745 469Q653 469 601 445T532 338L440 -92Q428 -154 397 -205T320 -294T219 -352T102 -373H-51L-12 -188Z" />
<glyph unicode="~" glyph-name="asciitilde" d="M614 435Q668 435 704 492T786 682L979 668Q954 578 917 501T828 368T713 279T573 246Q491 246 455 285T399 372T366 459T317 498Q264 498 228 442T147 252L-47 267Q-21 355 17 432T105 566T219 655T358 688Q440
688 478 649T534 562T567 475T614 435Z" />
<glyph unicode="&#xa0;" glyph-name="uni00A0" />
<glyph unicode="&#xa1;" glyph-name="exclamdown" d="M418 0L666 932H836L690 0H418ZM903 1053H651L705 1305H956L903 1053Z" />
<glyph unicode="&#xa2;" glyph-name="cent" d="M18 653Q59 846 190 972T514 1130L551 1305H737L700 1137Q795 1128 870 1095T1008 985L870 840Q836 881 785 909T662 948L535 356Q612 367 675 396T791 467L866 322Q772 244 682 210T496 168L461 0H274L311 176Q133
209 55 335T18 653ZM225 653Q201 537 238 468T352 371L473 936Q385 907 318 839T225 653Z" />
<glyph unicode="&#xa3;" glyph-name="sterling" d="M59 745H246L295 975Q311 1051 351 1116T447 1228T570 1300T705 1327Q827 1327 899 1262T967 1075L770 1030Q764 1141 666 1141Q608 1141 564 1103T502 975L453 745H639L600 559H414L373 373Q358 307 323 258T242
186H414Q481 186 531 194T623 223T698 279T774 371L926 281Q829 139 685 70T375 0H-98L-59 186H2Q37 186 62 198T107 230T139 274T156 322L207 559H20L59 745Z" />
<glyph unicode="&#xa4;" glyph-name="currency" d="M973 938Q999 879 1005 807T993 651Q975 567 938 496T850 365L944 246L797 125L705 244Q571 164 401 164Q231 164 131 244L-14 125L-106 246L35 365Q8 424 3 495T16 651Q51 815 158 936L63 1057L211 1178L303
1059Q440 1141 608 1141Q692 1141 758 1120T877 1059L1022 1178L1116 1057L973 938ZM786 651Q801 715 793 771T757 867T682 930T569 954Q504 954 447 931T344 867T269 771T223 651Q209 586 217 532T253 436T328 373T440 350Q506 350 563 372T666 436T741 531T786
651Z" />
<glyph unicode="&#xa5;" glyph-name="yen" d="M385 559V563L340 745H59L98 932H295L207 1305H422L528 750L870 1305H1085L836 932H1030L991 745H713L592 563V559H952L911 373H551L473 0H266L344 373H-20L20 559H385Z" />
<glyph unicode="&#xa6;" glyph-name="brokenbar" d="M430 -186H223L385 578H592L430 -186ZM625 727H418L580 1491H786L625 727Z" />
<glyph unicode="&#xa7;" glyph-name="section" d="M141 813Q158 887 201 954T297 1065Q258 1106 243 1162T246 1305Q266 1399 312 1468T422 1584T564 1652T723 1675Q803 1675 873 1654T996 1588T1075 1478T1094 1319L895 1286Q903 1401 849 1445T684 1489Q610
1489 543 1449T459 1331Q444 1264 483 1222T586 1148T729 1086T869 1011T965 901T977 729Q956 633 914 569T813 446Q852 406 867 348T866 205Q846 113 798 41T683 -82T536 -159T373 -186Q287 -186 213 -165T83 -99T-7 13T-41 178L156 225Q162 121 221 61T414 0Q496
0 565 48T655 184Q672 262 633 307T529 383T385 441T245 513T150 626T141 813ZM352 831Q338 770 364 729T439 659T549 605T672 549Q707 575 729 608T764 694Q778 762 753 804T679 874T570 924T444 971Q369 913 352 831Z" />
<glyph unicode="&#xa8;" glyph-name="dieresis" d="M903 1053H651L705 1305H956L903 1053ZM530 1053H279L332 1305H584L530 1053Z" />
<glyph unicode="&#xa9;" glyph-name="copyright" d="M879 532Q750 385 545 385Q465 385 404 411T305 486T256 601T260 748Q276 823 315 888T411 1003T541 1081T700 1110Q905 1110 969 963L807 864Q780 946 666 946Q582 946 523 890T444 748Q426 662 460 606T580
549Q694 549 758 631L879 532ZM1178 745Q1153 635 1090 534T936 356T735 233T502 186Q393 186 300 226T145 340T58 516T59 745Q84 860 149 962T307 1141T511 1261T739 1305Q852 1305 943 1263T1094 1145T1178 967T1178 745ZM1112 745Q1133 846 1115 935T1044 1091T909
1199T725 1239Q623 1239 525 1201T344 1097T205 940T125 745Q102 641 121 551T194 395T330 290T516 252Q616 252 714 290T893 394T1031 551T1112 745Z" />
<glyph unicode="&#xaa;" glyph-name="ordfeminine" d="M57 780Q74 850 119 899T228 977T368 1019T522 1032Q553 1032 571 1032T604 1030T634 1026T676 1020L690 1079Q700 1128 658 1152T541 1176Q469 1176 388 1160T233 1106L199 1235Q268 1276 362 1299T571 1323Q643
1323 704 1310T809 1267T870 1191T877 1079L766 559H580L602 668Q543 616 466 579T285 541Q150 541 94 608T57 780ZM360 688Q401 688 447 699T533 728T601 768T633 813L647 879Q596 887 562 888T492 889Q260 889 236 780Q229 745 251 717T360 688ZM688 199H-57L-18
385H727L688 199Z" />
<glyph unicode="&#xab;" glyph-name="guillemotleft" d="M453 444L307 324L53 651L446 981L541 860L293 651L453 444ZM823 444L678 324L424 651L817 981L911 860L664 651L823 444Z" />
<glyph unicode="&#xac;" glyph-name="logicalnot" d="M835 13H649L729 385H-16L22 572H954L835 13Z" />
<glyph unicode="&#xad;" glyph-name="uni00AD" d="M915 385H-16L22 572H954L915 385Z" />
<glyph unicode="&#xae;" glyph-name="registered" d="M1217 932Q1194 821 1131 720T977 542T775 419T541 373Q432 373 339 413T185 526T98 702T98 932Q123 1047 188 1149T346 1327T550 1447T778 1491Q891 1491 983 1449T1135 1331T1219 1153T1217 932ZM1151 932Q1174
1032 1155 1121T1083 1278T948 1385T764 1425Q662 1425 565 1388T385 1284T245 1127T164 932Q141 827 161 737T234 581T369 476T555 438Q655 438 753 476T933 580T1071 737T1151 932ZM893 596H686L612 823H578L528 596H354L498 1272H766Q817 1272 862 1259T937
1218T978 1147T977 1047Q961 967 920 917T791 829L893 596ZM805 1047Q815 1092 797 1112T737 1133H643L608 965H702Q743 965 771 989T805 1047Z" />
<glyph unicode="&#xaf;" glyph-name="overscore" d="M868 1044H309L346 1219H905L868 1044Z" />
<glyph unicode="&#xb0;" glyph-name="degree" d="M139 1118Q154 1194 199 1262T304 1381T438 1461T590 1491Q666 1491 728 1462T830 1382T884 1263T885 1118Q866 1040 822 973T718 855T583 775T432 745Q354 745 293 775T192 855T137 972T139 1118ZM279 1116Q268
1069 278 1027T312 955T375 906T461 887Q508 887 553 905T636 954T700 1027T737 1116Q748 1163 739 1205T705 1278T642 1327T557 1346Q510 1346 464 1328T381 1278T317 1205T279 1116Z" />
<glyph unicode="&#xb1;" glyph-name="plusminus" d="M915 385H543L473 62H287L356 385H-16L22 572H395L475 944H661L582 572H954L915 385ZM795 -186H-137L-98 0H833L795 -186Z" />
<glyph unicode="&#xb2;" glyph-name="twosuperior" d="M594 1149Q584 1106 558 1070T496 1006L328 872H532L506 745H102L129 872L389 1081Q410 1098 420 1111T434 1145Q438 1163 426 1173T395 1184Q362 1184 343 1163T311 1083H158Q207 1315 424 1315Q461 1315
495 1305T556 1274T592 1223T594 1149Z" />
<glyph unicode="&#xb3;" glyph-name="threesuperior" d="M545 915Q528 848 462 796T307 743Q104 743 125 940L281 954Q270 870 332 870Q352 870 369 883T391 920Q399 958 381 973T315 989L336 1087Q416 1087 428 1143Q436 1184 391 1184Q369 1184 350 1164T322
1102H172Q195 1206 266 1260Q334 1309 426 1309Q514 1309 556 1265T584 1151Q567 1077 498 1042Q559 989 545 915Z" />
<glyph unicode="&#xb4;" glyph-name="acute" d="M872 1225L387 981L330 1118L793 1405L872 1225Z" />
<glyph unicode="&#xb5;" glyph-name="mu" d="M301 -23Q203 -23 166 31L80 -373H-127L147 932H356L233 354Q211 246 243 205T354 164Q469 164 560 256T686 512L774 932H981L784 0H578L627 231Q569 111 478 44T301 -23Z" />
<glyph unicode="&#xb6;" glyph-name="paragraph" d="M96 915Q135 1108 275 1206T631 1305H1110L834 0H627L737 526H582L471 0H264L377 532Q217 555 138 650T96 915ZM709 1118L621 713H776L864 1118H709ZM303 915Q287 842 315 784T416 717L500 1114Q463 1110 430
1093T371 1048T327 986T303 915Z" />
<glyph unicode="&#xb7;" glyph-name="middot" d="M567 352H315L369 604H621L567 352Z" />
<glyph unicode="&#xb8;" glyph-name="cedilla" d="M481 -41Q467 -111 430 -171T339 -275T215 -345T63 -371L102 -193Q190 -193 240 -153T305 -41L315 0H492L481 -41Z" />
<glyph unicode="&#xb9;" glyph-name="onesuperior" d="M473 745H135L162 872H252L301 1106Q281 1087 237 1067T123 1047L152 1182Q178 1182 209 1191T267 1216T316 1255T344 1305H502L410 872H500L473 745Z" />
<glyph unicode="&#xba;" glyph-name="ordmasculine" d="M862 930Q844 844 800 771T694 647T552 568T387 539Q301 539 235 566T127 645T73 768T78 930Q96 1018 140 1091T247 1216T390 1296T555 1325Q641 1325 707 1297T814 1217T867 1092T862 930ZM686 930Q711
1044 665 1109T522 1174Q426 1174 353 1109T254 930Q229 815 275 753T420 690Q518 690 590 752T686 930ZM688 199H-57L-18 385H727L688 199Z" />
<glyph unicode="&#xbb;" glyph-name="guillemotright" d="M719 651L561 860L705 981L958 651L565 324L473 444L719 651ZM348 651L190 860L334 981L588 651L195 324L102 444L348 651Z" />
<glyph unicode="&#xbc;" glyph-name="onequarter" d="M1122 1257L10 -41L-106 47L1008 1350L1122 1257ZM473 745H135L162 872H252L301 1106Q281 1087 237 1067T123 1047L152 1182Q178 1182 209 1191T267 1216T316 1255T344 1305H502L410 872H500L473 745ZM754
0H598L621 113H422L455 264L731 559H872L805 242H895L866 113H776L754 0ZM649 242L670 346L569 242H649Z" />
<glyph unicode="&#xbd;" glyph-name="onehalf" d="M930 403Q922 360 895 325T831 260L666 127H870L844 0H440L467 127L725 336Q748 352 758 365T772 399Q776 418 764 428T733 438Q700 438 681 417T649 338H496Q545 569 762 569Q799 569 832 559T892 529T929 477T930
403ZM1122 1257L10 -41L-106 47L1008 1350L1122 1257ZM473 745H135L162 872H252L301 1106Q281 1087 237 1067T123 1047L152 1182Q178 1182 209 1191T267 1216T316 1255T344 1305H502L410 872H500L473 745Z" />
<glyph unicode="&#xbe;" glyph-name="threequarters" d="M545 915Q528 848 462 796T307 743Q104 743 125 940L281 954Q270 870 332 870Q352 870 369 883T391 920Q399 958 381 973T315 989L336 1087Q416 1087 428 1143Q436 1184 391 1184Q369 1184 350 1164T322
1102H172Q195 1206 266 1260Q334 1309 426 1309Q514 1309 556 1265T584 1151Q567 1077 498 1042Q559 989 545 915ZM754 0H598L621 113H422L455 264L731 559H872L805 242H895L866 113H776L754 0ZM649 242L670 346L569 242H649ZM1122 1257L10 -41L-106 47L1008 1350L1122
1257Z" />
<glyph unicode="&#xbf;" glyph-name="questiondown" d="M174 301Q188 375 227 430T315 532T420 622T524 709T611 808T664 932H877Q858 848 818 785T726 669T619 572T513 485T427 397T381 299Q367 233 398 199T496 164Q594 164 650 218T737 369L924 340Q868 172
751 75T457 -23Q291 -23 216 65T174 301ZM705 1305H956L903 1053H651L705 1305Z" />
<glyph unicode="&#xc0;" glyph-name="Agrave" d="M678 0L649 311H217L59 0H-158L526 1305H764L895 0H678ZM311 494H633L588 1032L311 494ZM623 1776L967 1489L848 1352L469 1596L623 1776Z" />
<glyph unicode="&#xc1;" glyph-name="Aacute" d="M678 0L649 311H217L59 0H-158L526 1305H764L895 0H678ZM311 494H633L588 1032L311 494ZM952 1596L467 1352L410 1489L873 1776L952 1596Z" />
<glyph unicode="&#xc2;" glyph-name="Acircumflex" d="M678 0L649 311H217L59 0H-158L526 1305H764L895 0H678ZM311 494H633L588 1032L311 494ZM1002 1456L901 1354L703 1559L412 1352L354 1452L746 1770L1002 1456Z" />
<glyph unicode="&#xc3;" glyph-name="Atilde" d="M678 0L649 311H217L59 0H-158L526 1305H764L895 0H678ZM311 494H633L588 1032L311 494ZM1120 1616Q1053 1520 973 1466T801 1411Q752 1411 721 1429T665 1469T614 1509T551 1528Q500 1528 458 1497T371 1409L264
1479Q332 1573 412 1627T584 1682Q633 1682 663 1664T720 1624T771 1584T834 1565Q885 1565 927 1596T1014 1686L1120 1616Z" />
<glyph unicode="&#xc4;" glyph-name="Adieresis" d="M678 0L649 311H217L59 0H-158L526 1305H764L895 0H678ZM311 494H633L588 1032L311 494ZM983 1424H731L785 1676H1036L983 1424ZM610 1424H359L412 1676H664L610 1424Z" />
<glyph unicode="&#xc5;" glyph-name="Aring" d="M451 1450Q461 1497 486 1538T550 1609T632 1657T723 1675Q770 1675 808 1658T869 1610T902 1538T901 1450Q889 1393 853 1345T768 1266L895 0H678L649 311H217L59 0H-158L506 1266Q469 1296 454 1344T451 1450ZM311
494H633L588 1032L311 494ZM584 1450Q575 1411 595 1385T655 1358Q694 1358 727 1384T768 1450Q776 1489 756 1515T696 1542Q657 1542 625 1516T584 1450Z" />
<glyph unicode="&#xc6;" glyph-name="AE" d="M297 0L362 311H193L51 0H-162L479 1305H1110L1071 1118H741L664 758H944L905 571H625L543 186H872L834 0H297ZM274 494H401L510 1010L274 494Z" />
<glyph unicode="&#xc7;" glyph-name="Ccedilla" d="M938 399Q860 236 750 126T487 -12L481 -41Q467 -111 430 -171T339 -275T215 -345T63 -371L102 -193Q190 -193 240 -153T305 -41L311 -18Q195 -4 126 56T25 209T-7 415T18 653Q47 784 99 906T231 1121T414 1270T651
1327Q694 1327 736 1316T811 1283T865 1227T891 1151L924 1305H1110L1006 811H819Q831 872 828 931T803 1037T736 1112T625 1141Q537 1141 472 1098T358 985T277 828T225 653Q207 565 202 477T214 320T280 207T418 164Q545 164 630 245T786 463L938 399Z" />
<glyph unicode="&#xc8;" glyph-name="Egrave" d="M784 0H-49L227 1305H1061L1022 1118H395L317 758H807L768 571H279L197 186H823L784 0ZM623 1776L967 1489L848 1352L469 1596L623 1776Z" />
<glyph unicode="&#xc9;" glyph-name="Eacute" d="M784 0H-49L227 1305H1061L1022 1118H395L317 758H807L768 571H279L197 186H823L784 0ZM952 1596L467 1352L410 1489L873 1776L952 1596Z" />
<glyph unicode="&#xca;" glyph-name="Ecircumflex" d="M784 0H-49L227 1305H1061L1022 1118H395L317 758H807L768 571H279L197 186H823L784 0ZM1002 1456L901 1354L703 1559L412 1352L354 1452L746 1770L1002 1456Z" />
<glyph unicode="&#xcb;" glyph-name="Edieresis" d="M784 0H-49L227 1305H1061L1022 1118H395L317 758H807L768 571H279L197 186H823L784 0ZM983 1424H731L785 1676H1036L983 1424ZM610 1424H359L412 1676H664L610 1424Z" />
<glyph unicode="&#xcc;" glyph-name="Igrave" d="M684 0H57L96 186H303L502 1118H295L334 1305H961L922 1118H709L510 186H723L684 0ZM623 1776L967 1489L848 1352L469 1596L623 1776Z" />
<glyph unicode="&#xcd;" glyph-name="Iacute" d="M684 0H57L96 186H303L502 1118H295L334 1305H961L922 1118H709L510 186H723L684 0ZM952 1596L467 1352L410 1489L873 1776L952 1596Z" />
<glyph unicode="&#xce;" glyph-name="Icircumflex" d="M684 0H57L96 186H303L502 1118H295L334 1305H961L922 1118H709L510 186H723L684 0ZM1002 1456L901 1354L703 1559L412 1352L354 1452L746 1770L1002 1456Z" />
<glyph unicode="&#xcf;" glyph-name="Idieresis" d="M684 0H57L96 186H303L502 1118H295L334 1305H961L922 1118H709L510 186H723L684 0ZM983 1424H731L785 1676H1036L983 1424ZM610 1424H359L412 1676H664L610 1424Z" />
<glyph unicode="&#xd0;" glyph-name="Eth" d="M-55 758H111L227 1305H651Q784 1305 868 1252T993 1109T1038 902T1014 653Q987 522 934 404T802 196T617 53T375 0H-49L72 571H-94L-55 758ZM807 653Q856 879 805 998T612 1118H395L317 758H502L463 571H279L197
186H414Q555 186 657 308T807 653Z" />
<glyph unicode="&#xd1;" glyph-name="Ntilde" d="M784 0H545L358 946L158 0H-49L227 1305H487L664 406L854 1305H1061L784 0ZM1120 1616Q1053 1520 973 1466T801 1411Q752 1411 721 1429T665 1469T614 1509T551 1528Q500 1528 458 1497T371 1409L264 1479Q332
1573 412 1627T584 1682Q633 1682 663 1664T720 1624T771 1584T834 1565Q885 1565 927 1596T1014 1686L1120 1616Z" />
<glyph unicode="&#xd2;" glyph-name="Ograve" d="M6 653Q35 784 88 906T221 1121T407 1270T649 1327Q784 1327 868 1271T992 1121T1033 906T1006 653Q979 522 926 401T794 185T608 34T362 -23Q225 -23 142 33T20 184T-20 400T6 653ZM213 653Q195 565 190 477T201
320T267 207T403 164Q492 164 556 207T669 319T748 477T799 653Q817 741 823 828T811 985T745 1098T610 1141Q467 1141 365 1012T213 653ZM623 1776L967 1489L848 1352L469 1596L623 1776Z" />
<glyph unicode="&#xd3;" glyph-name="Oacute" d="M6 653Q35 784 88 906T221 1121T407 1270T649 1327Q784 1327 868 1271T992 1121T1033 906T1006 653Q979 522 926 401T794 185T608 34T362 -23Q225 -23 142 33T20 184T-20 400T6 653ZM213 653Q195 565 190 477T201
320T267 207T403 164Q492 164 556 207T669 319T748 477T799 653Q817 741 823 828T811 985T745 1098T610 1141Q467 1141 365 1012T213 653ZM952 1596L467 1352L410 1489L873 1776L952 1596Z" />
<glyph unicode="&#xd4;" glyph-name="Ocircumflex" d="M6 653Q35 784 88 906T221 1121T407 1270T649 1327Q784 1327 868 1271T992 1121T1033 906T1006 653Q979 522 926 401T794 185T608 34T362 -23Q225 -23 142 33T20 184T-20 400T6 653ZM213 653Q195 565 190
477T201 320T267 207T403 164Q492 164 556 207T669 319T748 477T799 653Q817 741 823 828T811 985T745 1098T610 1141Q467 1141 365 1012T213 653ZM1002 1456L901 1354L703 1559L412 1352L354 1452L746 1770L1002 1456Z" />
<glyph unicode="&#xd5;" glyph-name="Otilde" d="M6 653Q35 784 88 906T221 1121T407 1270T649 1327Q784 1327 868 1271T992 1121T1033 906T1006 653Q979 522 926 401T794 185T608 34T362 -23Q225 -23 142 33T20 184T-20 400T6 653ZM213 653Q195 565 190 477T201
320T267 207T403 164Q492 164 556 207T669 319T748 477T799 653Q817 741 823 828T811 985T745 1098T610 1141Q467 1141 365 1012T213 653ZM1120 1616Q1053 1520 973 1466T801 1411Q752 1411 721 1429T665 1469T614 1509T551 1528Q500 1528 458 1497T371 1409L264
1479Q332 1573 412 1627T584 1682Q633 1682 663 1664T720 1624T771 1584T834 1565Q885 1565 927 1596T1014 1686L1120 1616Z" />
<glyph unicode="&#xd6;" glyph-name="Odieresis" d="M6 653Q35 784 88 906T221 1121T407 1270T649 1327Q784 1327 868 1271T992 1121T1033 906T1006 653Q979 522 926 401T794 185T608 34T362 -23Q225 -23 142 33T20 184T-20 400T6 653ZM213 653Q195 565 190 477T201
320T267 207T403 164Q492 164 556 207T669 319T748 477T799 653Q817 741 823 828T811 985T745 1098T610 1141Q467 1141 365 1012T213 653ZM983 1424H731L785 1676H1036L983 1424ZM610 1424H359L412 1676H664L610 1424Z" />
<glyph unicode="&#xd7;" glyph-name="multiply" d="M915 748L588 478L801 207L655 88L444 359L117 88L22 207L348 478L137 748L283 867L496 596L821 867L915 748Z" />
<glyph unicode="&#xd8;" glyph-name="Oslash" d="M6 653Q35 784 88 906T221 1121T407 1270T649 1327Q782 1327 864 1275T987 1133L1149 1266L1102 1044L1028 983Q1044 831 1006 653Q979 522 926 401T794 185T608 34T362 -23Q233 -23 153 25T31 158L-133 20L-88
242L-14 303Q-27 381 -20 470T6 653ZM213 653Q203 606 196 561T186 471L811 985Q791 1055 744 1098T610 1141Q467 1141 365 1012T213 653ZM403 164Q492 164 556 207T669 319T748 477T799 653Q809 694 814 733T823 813L207 303Q227 240 273 202T403 164Z" />
<glyph unicode="&#xd9;" glyph-name="Ugrave" d="M883 465Q858 354 815 264T707 111T555 12T360 -23Q252 -23 182 12T74 110T31 265T49 467L227 1305H434L256 465Q246 416 242 364T249 266T297 193T401 164Q469 164 516 192T596 265T647 362T676 465L854 1305H1061L883
465ZM623 1776L967 1489L848 1352L469 1596L623 1776Z" />
<glyph unicode="&#xda;" glyph-name="Uacute" d="M883 465Q858 354 815 264T707 111T555 12T360 -23Q252 -23 182 12T74 110T31 265T49 467L227 1305H434L256 465Q246 416 242 364T249 266T297 193T401 164Q469 164 516 192T596 265T647 362T676 465L854 1305H1061L883
465ZM952 1596L467 1352L410 1489L873 1776L952 1596Z" />
<glyph unicode="&#xdb;" glyph-name="Ucircumflex" d="M883 465Q858 354 815 264T707 111T555 12T360 -23Q252 -23 182 12T74 110T31 265T49 467L227 1305H434L256 465Q246 416 242 364T249 266T297 193T401 164Q469 164 516 192T596 265T647 362T676 465L854
1305H1061L883 465ZM1002 1456L901 1354L703 1559L412 1352L354 1452L746 1770L1002 1456Z" />
<glyph unicode="&#xdc;" glyph-name="Udieresis" d="M883 465Q858 354 815 264T707 111T555 12T360 -23Q252 -23 182 12T74 110T31 265T49 467L227 1305H434L256 465Q246 416 242 364T249 266T297 193T401 164Q469 164 516 192T596 265T647 362T676 465L854 1305H1061L883
465ZM983 1424H731L785 1676H1036L983 1424ZM610 1424H359L412 1676H664L610 1424Z" />
<glyph unicode="&#xdd;" glyph-name="Yacute" d="M1092 1118H997L584 532L510 186H719L680 0H55L94 186H303L377 532L213 1118H119L158 1305H569L530 1118H440L524 735L770 1118H680L719 1305H1130L1092 1118ZM952 1596L467 1352L410 1489L873 1776L952 1596Z" />
<glyph unicode="&#xde;" glyph-name="Thorn" d="M973 664Q932 467 793 373T440 279H215L158 0H-49L227 1305H434L379 1049H602Q817 1049 915 953T973 664ZM768 664Q791 764 735 813T565 862H340L256 465H481Q594 465 671 513T768 664Z" />
<glyph unicode="&#xdf;" glyph-name="germandbls" d="M889 268Q877 207 839 154T746 62T621 0T475 -23Q377 -23 312 5T190 86L342 248Q385 199 426 182T516 164Q592 164 633 195T684 270Q692 311 669 341T607 397T523 450T442 511T386 590T379 698Q395 772 437
816T526 893T612 958T662 1040Q670 1077 654 1109T569 1141Q469 1141 418 1065T336 846L158 0H-49L129 844Q145 920 176 1005T261 1161T400 1280T608 1327Q684 1327 739 1305T827 1244T870 1154T866 1040Q850 958 807 909T717 828T632 769T586 709Q580 682 605
661T670 616T754 564T834 495T887 400T889 268Z" />
<glyph unicode="&#xe0;" glyph-name="agrave" d="M-47 268Q-29 350 28 411T166 514T342 575T535 596Q588 596 626 594T702 588L709 625Q725 698 676 734T535 770Q451 770 360 747T180 678L131 840Q233 893 346 923T575 954Q651 954 721 937T841 881T912 780T913
625L782 0H578L606 137Q541 61 437 19T221 -23Q154 -23 98 -5T5 51T-46 142T-47 268ZM313 162Q375 162 431 177T534 220T613 287T655 373L664 408Q616 416 573 417T498 418Q346 418 260 378T160 279Q135 162 313 162ZM543 1405L887 1118L768 981L389 1225L543 1405Z"
/>
<glyph unicode="&#xe1;" glyph-name="aacute" d="M-47 268Q-29 350 28 411T166 514T342 575T535 596Q588 596 626 594T702 588L709 625Q725 698 676 734T535 770Q451 770 360 747T180 678L131 840Q233 893 346 923T575 954Q651 954 721 937T841 881T912 780T913
625L782 0H578L606 137Q541 61 437 19T221 -23Q154 -23 98 -5T5 51T-46 142T-47 268ZM313 162Q375 162 431 177T534 220T613 287T655 373L664 408Q616 416 573 417T498 418Q346 418 260 378T160 279Q135 162 313 162ZM872 1225L387 981L330 1118L793 1405L872 1225Z"
/>
<glyph unicode="&#xe2;" glyph-name="acircumflex" d="M-47 268Q-29 350 28 411T166 514T342 575T535 596Q588 596 626 594T702 588L709 625Q725 698 676 734T535 770Q451 770 360 747T180 678L131 840Q233 893 346 923T575 954Q651 954 721 937T841 881T912 780T913
625L782 0H578L606 137Q541 61 437 19T221 -23Q154 -23 98 -5T5 51T-46 142T-47 268ZM313 162Q375 162 431 177T534 220T613 287T655 373L664 408Q616 416 573 417T498 418Q346 418 260 378T160 279Q135 162 313 162ZM922 1085L821 983L623 1188L332 981L274 1081L666
1399L922 1085Z" />
<glyph unicode="&#xe3;" glyph-name="atilde" d="M-47 268Q-29 350 28 411T166 514T342 575T535 596Q588 596 626 594T702 588L709 625Q725 698 676 734T535 770Q451 770 360 747T180 678L131 840Q233 893 346 923T575 954Q651 954 721 937T841 881T912 780T913
625L782 0H578L606 137Q541 61 437 19T221 -23Q154 -23 98 -5T5 51T-46 142T-47 268ZM313 162Q375 162 431 177T534 220T613 287T655 373L664 408Q616 416 573 417T498 418Q346 418 260 378T160 279Q135 162 313 162ZM1040 1245Q973 1149 893 1095T721 1040Q672
1040 641 1058T585 1098T534 1138T471 1157Q420 1157 378 1126T291 1038L184 1108Q252 1202 332 1256T504 1311Q553 1311 583 1293T640 1253T691 1213T754 1194Q805 1194 847 1225T934 1315L1040 1245Z" />
<glyph unicode="&#xe4;" glyph-name="adieresis" d="M-47 268Q-29 350 28 411T166 514T342 575T535 596Q588 596 626 594T702 588L709 625Q725 698 676 734T535 770Q451 770 360 747T180 678L131 840Q233 893 346 923T575 954Q651 954 721 937T841 881T912 780T913
625L782 0H578L606 137Q541 61 437 19T221 -23Q154 -23 98 -5T5 51T-46 142T-47 268ZM313 162Q375 162 431 177T534 220T613 287T655 373L664 408Q616 416 573 417T498 418Q346 418 260 378T160 279Q135 162 313 162ZM903 1053H651L705 1305H956L903 1053ZM530
1053H279L332 1305H584L530 1053Z" />
<glyph unicode="&#xe5;" glyph-name="aring" d="M-47 268Q-29 350 28 411T166 514T342 575T535 596Q588 596 626 594T702 588L709 625Q725 698 676 734T535 770Q451 770 360 747T180 678L131 840Q233 893 346 923T575 954Q651 954 721 937T841 881T912 780T913
625L782 0H578L606 137Q541 61 437 19T221 -23Q154 -23 98 -5T5 51T-46 142T-47 268ZM313 162Q375 162 431 177T534 220T613 287T655 373L664 408Q616 416 573 417T498 418Q346 418 260 378T160 279Q135 162 313 162ZM410 1257Q420 1305 445 1345T509 1417T591
1465T682 1483Q729 1483 767 1466T828 1417T861 1346T860 1257Q850 1210 825 1169T761 1098T679 1050T588 1032Q541 1032 503 1049T442 1097T409 1169T410 1257ZM543 1257Q535 1219 555 1192T614 1165Q653 1165 686 1192T727 1257Q735 1296 715 1323T655 1350Q616
1350 584 1323T543 1257Z" />
<glyph unicode="&#xe6;" glyph-name="ae" d="M379 131Q326 66 266 22T125 -23Q63 -23 24 0T-39 60T-69 148T-63 254Q-47 334 -9 395T81 498T195 559T322 580Q344 580 358 579T395 573L408 633Q424 707 403 738T336 770Q301 770 255 752T160 674L61 793Q135 879
220 916T367 954Q438 954 488 926T547 825Q596 893 653 923T780 954Q874 954 916 904T969 774T967 593T930 387H543Q516 262 540 215T610 168Q643 168 669 186T715 248L877 190Q819 82 746 30T569 -23Q541 -23 511 -16T455 9T408 56T379 131ZM762 569Q782 688 769
729T717 770Q674 770 641 725T582 569H762ZM356 391Q344 393 331 394T295 395Q246 395 200 361T141 264Q131 213 146 190T195 166Q250 166 290 215T344 330L356 391Z" />
<glyph unicode="&#xe7;" glyph-name="ccedilla" d="M825 133Q739 61 657 28T487 -16L481 -41Q467 -111 430 -171T339 -275T215 -345T63 -371L102 -193Q190 -193 240 -153T305 -41L311 -18Q113 4 24 132T-20 465Q2 571 57 661T186 816T350 917T532 954Q629 954
690 914T768 797L797 932H981L889 498H705Q731 621 679 694T518 768Q475 768 425 751T327 696T241 602T186 465Q170 387 182 331T227 238T312 183T424 164Q524 164 605 195T750 279L825 133Z" />
<glyph unicode="&#xe8;" glyph-name="egrave" d="M174 387Q168 291 231 228T424 164Q524 164 605 195T750 279L825 133Q717 43 610 10T383 -23Q274 -23 189 13T50 113T-24 267T-20 465Q2 571 56 660T189 815T366 917T573 954Q686 954 769 916T902 804T966 626T954
387H174ZM760 569Q762 659 697 713T532 768Q434 768 345 714T221 569H760ZM543 1405L887 1118L768 981L389 1225L543 1405Z" />
<glyph unicode="&#xe9;" glyph-name="eacute" d="M174 387Q168 291 231 228T424 164Q524 164 605 195T750 279L825 133Q717 43 610 10T383 -23Q274 -23 189 13T50 113T-24 267T-20 465Q2 571 56 660T189 815T366 917T573 954Q686 954 769 916T902 804T966 626T954
387H174ZM760 569Q762 659 697 713T532 768Q434 768 345 714T221 569H760ZM872 1225L387 981L330 1118L793 1405L872 1225Z" />
<glyph unicode="&#xea;" glyph-name="ecircumflex" d="M174 387Q168 291 231 228T424 164Q524 164 605 195T750 279L825 133Q717 43 610 10T383 -23Q274 -23 189 13T50 113T-24 267T-20 465Q2 571 56 660T189 815T366 917T573 954Q686 954 769 916T902 804T966
626T954 387H174ZM760 569Q762 659 697 713T532 768Q434 768 345 714T221 569H760ZM922 1085L821 983L623 1188L332 981L274 1081L666 1399L922 1085Z" />
<glyph unicode="&#xeb;" glyph-name="edieresis" d="M174 387Q168 291 231 228T424 164Q524 164 605 195T750 279L825 133Q717 43 610 10T383 -23Q274 -23 189 13T50 113T-24 267T-20 465Q2 571 56 660T189 815T366 917T573 954Q686 954 769 916T902 804T966 626T954
387H174ZM760 569Q762 659 697 713T532 768Q434 768 345 714T221 569H760ZM903 1053H651L705 1305H956L903 1053ZM530 1053H279L332 1305H584L530 1053Z" />
<glyph unicode="&#xec;" glyph-name="igrave" d="M684 0H57L96 186H303L422 745H215L254 932H668L510 186H723L684 0ZM543 1405L887 1118L768 981L389 1225L543 1405Z" />
<glyph unicode="&#xed;" glyph-name="iacute" d="M684 0H57L96 186H303L422 745H215L254 932H668L510 186H723L684 0ZM872 1225L387 981L330 1118L793 1405L872 1225Z" />
<glyph unicode="&#xee;" glyph-name="icircumflex" d="M684 0H57L96 186H303L422 745H215L254 932H668L510 186H723L684 0ZM922 1085L821 983L623 1188L332 981L274 1081L666 1399L922 1085Z" />
<glyph unicode="&#xef;" glyph-name="idieresis" d="M684 0H57L96 186H303L422 745H215L254 932H668L510 186H723L684 0ZM903 1053H651L705 1305H956L903 1053ZM530 1053H279L332 1305H584L530 1053Z" />
<glyph unicode="&#xf0;" glyph-name="eth" d="M342 977L475 1087Q444 1104 413 1118T346 1147L446 1327Q500 1305 549 1280T645 1227L821 1372L913 1251L774 1137Q834 1085 879 1024T950 889T982 728T965 537Q938 408 880 305T738 128T551 16T326 -23Q121 -23
19 73T-45 354Q-23 457 43 537T210 679T445 783T739 850Q696 938 614 1004L434 856L342 977ZM758 537Q774 608 774 670Q514 647 352 565T162 354Q143 262 197 213T367 164Q506 164 612 260T758 537Z" />
<glyph unicode="&#xf1;" glyph-name="ntilde" d="M784 0H578L698 575Q721 684 689 726T580 768Q465 768 373 675T246 418L158 0H-49L147 932H354L305 698Q362 819 460 886T682 954Q825 954 885 861T905 575L784 0ZM1040 1245Q973 1149 893 1095T721 1040Q672 1040
641 1058T585 1098T534 1138T471 1157Q420 1157 378 1126T291 1038L184 1108Q252 1202 332 1256T504 1311Q553 1311 583 1293T640 1253T691 1213T754 1194Q805 1194 847 1225T934 1315L1040 1245Z" />
<glyph unicode="&#xf2;" glyph-name="ograve" d="M956 465Q932 356 879 267T748 114T572 13T362 -23Q254 -23 172 13T39 113T-28 267T-20 465Q2 571 56 661T188 817T364 918T571 954Q682 954 764 919T897 818T963 662T956 465ZM750 465Q762 528 755 584T719 681T643
744T530 768Q465 768 408 745T306 681T231 585T186 465Q172 399 180 345T215 250T290 187T403 164Q469 164 525 186T628 250T704 345T750 465ZM543 1405L887 1118L768 981L389 1225L543 1405Z" />
<glyph unicode="&#xf3;" glyph-name="oacute" d="M956 465Q932 356 879 267T748 114T572 13T362 -23Q254 -23 172 13T39 113T-28 267T-20 465Q2 571 56 661T188 817T364 918T571 954Q682 954 764 919T897 818T963 662T956 465ZM750 465Q762 528 755 584T719 681T643
744T530 768Q465 768 408 745T306 681T231 585T186 465Q172 399 180 345T215 250T290 187T403 164Q469 164 525 186T628 250T704 345T750 465ZM872 1225L387 981L330 1118L793 1405L872 1225Z" />
<glyph unicode="&#xf4;" glyph-name="ocircumflex" d="M956 465Q932 356 879 267T748 114T572 13T362 -23Q254 -23 172 13T39 113T-28 267T-20 465Q2 571 56 661T188 817T364 918T571 954Q682 954 764 919T897 818T963 662T956 465ZM750 465Q762 528 755 584T719
681T643 744T530 768Q465 768 408 745T306 681T231 585T186 465Q172 399 180 345T215 250T290 187T403 164Q469 164 525 186T628 250T704 345T750 465ZM922 1085L821 983L623 1188L332 981L274 1081L666 1399L922 1085Z" />
<glyph unicode="&#xf5;" glyph-name="otilde" d="M956 465Q932 356 879 267T748 114T572 13T362 -23Q254 -23 172 13T39 113T-28 267T-20 465Q2 571 56 661T188 817T364 918T571 954Q682 954 764 919T897 818T963 662T956 465ZM750 465Q762 528 755 584T719 681T643
744T530 768Q465 768 408 745T306 681T231 585T186 465Q172 399 180 345T215 250T290 187T403 164Q469 164 525 186T628 250T704 345T750 465ZM1040 1245Q973 1149 893 1095T721 1040Q672 1040 641 1058T585 1098T534 1138T471 1157Q420 1157 378 1126T291 1038L184
1108Q252 1202 332 1256T504 1311Q553 1311 583 1293T640 1253T691 1213T754 1194Q805 1194 847 1225T934 1315L1040 1245Z" />
<glyph unicode="&#xf6;" glyph-name="odieresis" d="M956 465Q932 356 879 267T748 114T572 13T362 -23Q254 -23 172 13T39 113T-28 267T-20 465Q2 571 56 661T188 817T364 918T571 954Q682 954 764 919T897 818T963 662T956 465ZM750 465Q762 528 755 584T719
681T643 744T530 768Q465 768 408 745T306 681T231 585T186 465Q172 399 180 345T215 250T290 187T403 164Q469 164 525 186T628 250T704 345T750 465ZM903 1053H651L705 1305H956L903 1053ZM530 1053H279L332 1305H584L530 1053Z" />
<glyph unicode="&#xf7;" glyph-name="divide" d="M647 725H395L448 977H700L647 725ZM489 -20H237L291 232H543L489 -20ZM915 385H-16L22 572H954L915 385Z" />
<glyph unicode="&#xf8;" glyph-name="oslash" d="M-61 180L-14 213Q-33 266 -36 329T-23 465Q0 571 55 661T188 817T364 918T571 954Q670 954 745 924T874 840L1036 954L993 752L946 719Q963 664 966 601T954 465Q930 356 877 267T746 114T571 13T362 -23Q262
-23 186 7T57 90L-102 -23L-61 180ZM748 465Q760 528 754 584L238 219Q266 193 308 179T403 164Q469 164 525 186T627 250T702 345T748 465ZM184 465Q170 399 178 348L690 711Q633 768 530 768Q465 768 408 745T305 681T229 585T184 465Z" />
<glyph unicode="&#xf9;" glyph-name="ugrave" d="M147 932H354L231 356Q209 248 241 206T352 164Q467 164 559 257T686 514L774 932H981L784 0H578L627 233Q569 113 471 45T250 -23Q106 -23 46 70T25 356L147 932ZM543 1405L887 1118L768 981L389 1225L543 1405Z" />
<glyph unicode="&#xfa;" glyph-name="uacute" d="M147 932H354L231 356Q209 248 241 206T352 164Q467 164 559 257T686 514L774 932H981L784 0H578L627 233Q569 113 471 45T250 -23Q106 -23 46 70T25 356L147 932ZM872 1225L387 981L330 1118L793 1405L872 1225Z" />
<glyph unicode="&#xfb;" glyph-name="ucircumflex" d="M147 932H354L231 356Q209 248 241 206T352 164Q467 164 559 257T686 514L774 932H981L784 0H578L627 233Q569 113 471 45T250 -23Q106 -23 46 70T25 356L147 932ZM922 1085L821 983L623 1188L332 981L274
1081L666 1399L922 1085Z" />
<glyph unicode="&#xfc;" glyph-name="udieresis" d="M147 932H354L231 356Q209 248 241 206T352 164Q467 164 559 257T686 514L774 932H981L784 0H578L627 233Q569 113 471 45T250 -23Q106 -23 46 70T25 356L147 932ZM903 1053H651L705 1305H956L903 1053ZM530
1053H279L332 1305H584L530 1053Z" />
<glyph unicode="&#xfd;" glyph-name="yacute" d="M1022 932L385 -182Q313 -303 218 -348T4 -393Q-37 -393 -82 -385T-174 -358L-92 -168Q-53 -184 -19 -190T45 -197Q137 -197 190 -115L246 -25L92 932H307L414 227L801 932H1022ZM872 1225L387 981L330 1118L793
1405L872 1225Z" />
<glyph unicode="&#xfe;" glyph-name="thorn" d="M227 1305H434L336 848Q408 901 474 927T618 954Q709 954 777 918T888 817T942 662T932 465Q909 358 858 268T739 114T585 13T410 -23Q332 -23 278 5T174 86L78 -373H-127L227 1305ZM209 248Q238 207 291 186T397
164Q514 164 605 247T725 465Q754 600 698 684T524 768Q471 768 410 747T301 684L209 248Z" />
<glyph unicode="&#xff;" glyph-name="ydieresis" d="M1022 932L385 -182Q313 -303 218 -348T4 -393Q-37 -393 -82 -385T-174 -358L-92 -168Q-53 -184 -19 -190T45 -197Q137 -197 190 -115L246 -25L92 932H307L414 227L801 932H1022ZM903 1053H651L705 1305H956L903
1053ZM530 1053H279L332 1305H584L530 1053Z" />
<glyph unicode="&#x2013;" glyph-name="endash" d="M-18 385L23 571H954L913 385H-18Z" />
<glyph unicode="&#x2014;" glyph-name="emdash" d="M-109 385L-70 571H1049L1008 385H-109Z" />
<glyph unicode="&#x2018;" glyph-name="quoteleft" d="M791 680H418L475 946Q489 1016 521 1080T608 1195T741 1275T924 1305L887 1133Q827 1133 784 1120T713 1082T667 1023T641 946L637 932H844L791 680Z" />
<glyph unicode="&#x2019;" glyph-name="quoteright" d="M365 1305H737L680 1038Q666 969 634 905T547 790T414 710T231 680L268 852Q387 852 442 903T514 1038L518 1053H311L365 1305Z" />
<glyph unicode="&#x201a;" glyph-name="quotesinglbase" d="M514 252H886L829 -15Q815 -84 783 -148T696 -263T563 -343T380 -373L417 -201Q536 -201 591 -150T663 -15L667 0H460L514 252Z" />
<glyph unicode="&#x201c;" glyph-name="quotedblleft" d="M418 680H45L102 946Q117 1016 148 1080T235 1195T368 1275T551 1305L514 1133Q455 1133 412 1120T340 1082T294 1023T268 946L264 932H471L418 680ZM977 680H604L662 946Q676 1016 707 1080T794 1195T928
1275T1110 1305L1073 1133Q1014 1133 971 1120T899 1082T853 1023T827 946L823 932H1030L977 680Z" />
<glyph unicode="&#x201d;" glyph-name="quotedblright" d="M737 1305H1110L1053 1038Q1038 969 1007 905T920 790T787 710T604 680L641 852Q760 852 815 903T887 1038L891 1053H684L737 1305ZM178 1305H551L494 1038Q479 969 448 905T361 790T228 710T45 680L82
852Q201 852 256 903T328 1038L332 1053H125L178 1305Z" />
<glyph unicode="&#x201e;" glyph-name="quotedblbase" d="M514 252H887L830 -15Q815 -84 784 -148T697 -263T564 -343T381 -373L418 -201Q537 -201 592 -150T664 -15L668 0H461L514 252ZM-45 252H328L271 -15Q256 -84 225 -148T138 -263T5 -343T-178 -373L-141
-201Q-22 -201 33 -150T105 -15L109 0H-98L-45 252Z" />
<glyph unicode="&#x2022;" glyph-name="bullet" d="M207 559Q221 635 266 703T371 822T506 902T657 932Q733 932 795 902T898 822T952 704T952 559Q934 481 890 414T786 296T650 216T500 186Q422 186 361 216T259 296T204 413T207 559Z" />
<glyph unicode="&#x2039;" glyph-name="guilsinglleft" d="M637 444L492 324L238 651L631 981L725 860L477 651L637 444Z" />
<glyph unicode="&#x203a;" glyph-name="guilsinglright" d="M532 651L375 860L518 981L772 651L379 324L287 444L532 651Z" />
</font>
</defs>
</svg>
